<?xml version="1.0" encoding="UTF-8" standalone="no"?>
<!DOCTYPE svg PUBLIC "-//W3C//DTD SVG 1.1//EN"
 "http://www.w3.org/Graphics/SVG/1.1/DTD/svg11.dtd">
<!-- Generated by graphviz version 2.43.0 (0)
 -->
<!-- Title: event_types.h Pages: 1 -->
<svg width="1025pt" height="812pt"
 viewBox="0.00 0.00 1025.00 812.00" xmlns="http://www.w3.org/2000/svg" xmlns:xlink="http://www.w3.org/1999/xlink">
<g id="graph0" class="graph" transform="scale(1 1) rotate(0) translate(4 808)">
<title>event_types.h</title>
<polygon fill="white" stroke="transparent" points="-4,4 -4,-808 1021,-808 1021,4 -4,4"/>
<!-- Node1 -->
<g id="node1" class="node">
<title>Node1</title>
<g id="a_node1"><a xlink:title=" ">
<polygon fill="#bfbfbf" stroke="black" points="616.5,-784.5 616.5,-803.5 702.5,-803.5 702.5,-784.5 616.5,-784.5"/>
<text text-anchor="middle" x="659.5" y="-791.5" font-family="Helvetica,sans-Serif" font-size="10.00">event_types.h</text>
</a>
</g>
</g>
<!-- Node2 -->
<g id="node2" class="node">
<title>Node2</title>
<g id="a_node2"><a xlink:href="api_2event__types_8h.html" target="_top" xlink:title=" ">
<polygon fill="white" stroke="black" points="616.5,-728.5 616.5,-747.5 702.5,-747.5 702.5,-728.5 616.5,-728.5"/>
<text text-anchor="middle" x="659.5" y="-735.5" font-family="Helvetica,sans-Serif" font-size="10.00">event_types.h</text>
</a>
</g>
</g>
<!-- Node1&#45;&gt;Node2 -->
<g id="edge1" class="edge">
<title>Node1&#45;&gt;Node2</title>
<path fill="none" stroke="midnightblue" d="M659.5,-773.8C659.5,-764.91 659.5,-754.78 659.5,-747.75"/>
<polygon fill="midnightblue" stroke="midnightblue" points="656,-774.08 659.5,-784.08 663,-774.08 656,-774.08"/>
</g>
<!-- Node3 -->
<g id="node3" class="node">
<title>Node3</title>
<g id="a_node3"><a xlink:href="api_2spec_2buffer_8h.html" target="_top" xlink:title=" ">
<polygon fill="white" stroke="black" points="65,-448.5 65,-467.5 118,-467.5 118,-448.5 65,-448.5"/>
<text text-anchor="middle" x="91.5" y="-455.5" font-family="Helvetica,sans-Serif" font-size="10.00">buffer.h</text>
</a>
</g>
</g>
<!-- Node2&#45;&gt;Node3 -->
<g id="edge2" class="edge">
<title>Node2&#45;&gt;Node3</title>
<path fill="none" stroke="midnightblue" d="M606.11,-735.39C479.94,-731.18 170.99,-718.29 132.5,-692 105.91,-673.84 100.5,-659.2 100.5,-627 100.5,-627 100.5,-627 100.5,-569 100.5,-531.06 95.12,-486.01 92.68,-467.54"/>
<polygon fill="midnightblue" stroke="midnightblue" points="606.2,-738.9 616.31,-735.73 606.43,-731.9 606.2,-738.9"/>
</g>
<!-- Node6 -->
<g id="node6" class="node">
<title>Node6</title>
<g id="a_node6"><a xlink:href="api_2spec_2comp_8h.html" target="_top" xlink:title=" ">
<polygon fill="white" stroke="black" points="590,-672.5 590,-691.5 643,-691.5 643,-672.5 590,-672.5"/>
<text text-anchor="middle" x="616.5" y="-679.5" font-family="Helvetica,sans-Serif" font-size="10.00">comp.h</text>
</a>
</g>
</g>
<!-- Node2&#45;&gt;Node6 -->
<g id="edge5" class="edge">
<title>Node2&#45;&gt;Node6</title>
<path fill="none" stroke="midnightblue" d="M646.08,-720.14C638.59,-710.74 629.56,-699.4 623.47,-691.75"/>
<polygon fill="midnightblue" stroke="midnightblue" points="643.43,-722.44 652.4,-728.08 648.91,-718.08 643.43,-722.44"/>
</g>
<!-- Node8 -->
<g id="node8" class="node">
<title>Node8</title>
<g id="a_node8"><a xlink:href="api_2spec_2dma__types_8h.html" target="_top" xlink:title=" ">
<polygon fill="white" stroke="black" points="453.5,-672.5 453.5,-691.5 533.5,-691.5 533.5,-672.5 453.5,-672.5"/>
<text text-anchor="middle" x="493.5" y="-679.5" font-family="Helvetica,sans-Serif" font-size="10.00">dma_types.h</text>
</a>
</g>
</g>
<!-- Node2&#45;&gt;Node8 -->
<g id="edge8" class="edge">
<title>Node2&#45;&gt;Node8</title>
<path fill="none" stroke="midnightblue" d="M623.55,-725.3C592.27,-715.13 547.68,-700.62 519.68,-691.52"/>
<polygon fill="midnightblue" stroke="midnightblue" points="622.6,-728.68 633.2,-728.44 624.77,-722.02 622.6,-728.68"/>
</g>
<!-- Node18 -->
<g id="node18" class="node">
<title>Node18</title>
<g id="a_node18"><a xlink:href="api_2spec_2ipsec_8h.html" target="_top" xlink:title=" ">
<polygon fill="white" stroke="black" points="420,-112.5 420,-131.5 471,-131.5 471,-112.5 420,-112.5"/>
<text text-anchor="middle" x="445.5" y="-119.5" font-family="Helvetica,sans-Serif" font-size="10.00">ipsec.h</text>
</a>
</g>
</g>
<!-- Node2&#45;&gt;Node18 -->
<g id="edge57" class="edge">
<title>Node2&#45;&gt;Node18</title>
<path fill="none" stroke="midnightblue" d="M620.29,-724.46C605.08,-717.46 589.24,-707.03 580.5,-692 503.37,-559.31 595.5,-500.48 595.5,-347 595.5,-347 595.5,-347 595.5,-289 595.5,-229.55 580.32,-210.25 538.5,-168 519.83,-149.13 491.66,-137.04 471.22,-130.19"/>
<polygon fill="midnightblue" stroke="midnightblue" points="619.04,-727.73 629.62,-728.39 621.76,-721.28 619.04,-727.73"/>
</g>
<!-- Node26 -->
<g id="node26" class="node">
<title>Node26</title>
<g id="a_node26"><a xlink:href="api_2spec_2packet_8h.html" target="_top" xlink:title=" ">
<polygon fill="white" stroke="black" points="42.5,-336.5 42.5,-355.5 100.5,-355.5 100.5,-336.5 42.5,-336.5"/>
<text text-anchor="middle" x="71.5" y="-343.5" font-family="Helvetica,sans-Serif" font-size="10.00">packet.h</text>
</a>
</g>
</g>
<!-- Node2&#45;&gt;Node26 -->
<g id="edge58" class="edge">
<title>Node2&#45;&gt;Node26</title>
<path fill="none" stroke="midnightblue" d="M605.97,-736.75C474.52,-734.7 146.5,-720.23 146.5,-627 146.5,-627 146.5,-627 146.5,-457 146.5,-412.39 103.87,-372.52 82.89,-355.6"/>
<polygon fill="midnightblue" stroke="midnightblue" points="606.16,-740.25 616.2,-736.89 606.25,-733.25 606.16,-740.25"/>
</g>
<!-- Node34 -->
<g id="node34" class="node">
<title>Node34</title>
<g id="a_node34"><a xlink:href="api_2spec_2timer_8h.html" target="_top" xlink:title=" ">
<polygon fill="white" stroke="black" points="674,-448.5 674,-467.5 725,-467.5 725,-448.5 674,-448.5"/>
<text text-anchor="middle" x="699.5" y="-455.5" font-family="Helvetica,sans-Serif" font-size="10.00">timer.h</text>
</a>
</g>
</g>
<!-- Node2&#45;&gt;Node34 -->
<g id="edge65" class="edge">
<title>Node2&#45;&gt;Node34</title>
<path fill="none" stroke="midnightblue" d="M703.57,-724.95C721.61,-717.99 741.31,-707.46 754.5,-692 774.04,-669.1 773.5,-657.1 773.5,-627 773.5,-627 773.5,-627 773.5,-569 773.5,-538.9 771.11,-529.1 754.5,-504 744.15,-488.36 726.7,-475.43 714.23,-467.5"/>
<polygon fill="midnightblue" stroke="midnightblue" points="702,-721.79 693.77,-728.45 704.36,-728.38 702,-721.79"/>
</g>
<!-- Node36 -->
<g id="node36" class="node">
<title>Node36</title>
<g id="a_node36"><a xlink:href="api_2spec_2event_8h.html" target="_top" xlink:title=" ">
<polygon fill="white" stroke="black" points="802,-672.5 802,-691.5 855,-691.5 855,-672.5 802,-672.5"/>
<text text-anchor="middle" x="828.5" y="-679.5" font-family="Helvetica,sans-Serif" font-size="10.00">event.h</text>
</a>
</g>
</g>
<!-- Node2&#45;&gt;Node36 -->
<g id="edge54" class="edge">
<title>Node2&#45;&gt;Node36</title>
<path fill="none" stroke="midnightblue" d="M696.1,-725.3C727.95,-715.13 773.34,-700.62 801.85,-691.52"/>
<polygon fill="midnightblue" stroke="midnightblue" points="694.74,-722.07 686.28,-728.44 696.87,-728.73 694.74,-722.07"/>
</g>
<!-- Node38 -->
<g id="node38" class="node">
<title>Node38</title>
<g id="a_node38"><a xlink:href="api_2spec_2queue_8h.html" target="_top" xlink:title=" ">
<polygon fill="white" stroke="black" points="873.5,-672.5 873.5,-691.5 929.5,-691.5 929.5,-672.5 873.5,-672.5"/>
<text text-anchor="middle" x="901.5" y="-679.5" font-family="Helvetica,sans-Serif" font-size="10.00">queue.h</text>
</a>
</g>
</g>
<!-- Node2&#45;&gt;Node38 -->
<g id="edge59" class="edge">
<title>Node2&#45;&gt;Node38</title>
<path fill="none" stroke="midnightblue" d="M708.85,-726.34C750.2,-717.35 810.75,-704.06 863.5,-692 866.67,-691.27 869.99,-690.5 873.29,-689.73"/>
<polygon fill="midnightblue" stroke="midnightblue" points="708.06,-722.93 699.03,-728.47 709.54,-729.77 708.06,-722.93"/>
</g>
<!-- Node40 -->
<g id="node40" class="node">
<title>Node40</title>
<g id="a_node40"><a xlink:href="api_2spec_2schedule_8h.html" target="_top" xlink:title=" ">
<polygon fill="white" stroke="black" points="948,-672.5 948,-691.5 1017,-691.5 1017,-672.5 948,-672.5"/>
<text text-anchor="middle" x="982.5" y="-679.5" font-family="Helvetica,sans-Serif" font-size="10.00">schedule.h</text>
</a>
</g>
</g>
<!-- Node2&#45;&gt;Node40 -->
<g id="edge62" class="edge">
<title>Node2&#45;&gt;Node40</title>
<path fill="none" stroke="midnightblue" d="M712.69,-729.1C768.91,-720.59 860.12,-706.33 938.5,-692 941.57,-691.44 944.75,-690.83 947.94,-690.21"/>
<polygon fill="midnightblue" stroke="midnightblue" points="711.98,-725.67 702.61,-730.62 713.02,-732.59 711.98,-725.67"/>
</g>
<!-- Node42 -->
<g id="node42" class="node">
<title>Node42</title>
<g id="a_node42"><a xlink:href="api_2spec_2timer__types_8h.html" target="_top" xlink:title=" ">
<polygon fill="white" stroke="black" points="661.5,-672.5 661.5,-691.5 745.5,-691.5 745.5,-672.5 661.5,-672.5"/>
<text text-anchor="middle" x="703.5" y="-679.5" font-family="Helvetica,sans-Serif" font-size="10.00">timer_types.h</text>
</a>
</g>
</g>
<!-- Node2&#45;&gt;Node42 -->
<g id="edge66" class="edge">
<title>Node2&#45;&gt;Node42</title>
<path fill="none" stroke="midnightblue" d="M673.23,-720.14C680.9,-710.74 690.13,-699.4 696.37,-691.75"/>
<polygon fill="midnightblue" stroke="midnightblue" points="670.37,-718.12 666.77,-728.08 675.8,-722.54 670.37,-718.12"/>
</g>
<!-- Node4 -->
<g id="node4" class="node">
<title>Node4</title>
<g id="a_node4"><a xlink:href="api_2buffer_8h.html" target="_top" xlink:title=" ">
<polygon fill="white" stroke="black" points="0,-112.5 0,-131.5 53,-131.5 53,-112.5 0,-112.5"/>
<text text-anchor="middle" x="26.5" y="-119.5" font-family="Helvetica,sans-Serif" font-size="10.00">buffer.h</text>
</a>
</g>
</g>
<!-- Node3&#45;&gt;Node4 -->
<g id="edge3" class="edge">
<title>Node3&#45;&gt;Node4</title>
<path fill="none" stroke="midnightblue" d="M72.03,-442.16C49.21,-422.92 14.5,-387.07 14.5,-347 14.5,-347 14.5,-347 14.5,-233 14.5,-194.96 21.68,-149.96 24.93,-131.52"/>
<polygon fill="midnightblue" stroke="midnightblue" points="69.83,-444.89 79.81,-448.47 74.24,-439.45 69.83,-444.89"/>
</g>
<!-- Node5 -->
<g id="node5" class="node">
<title>Node5</title>
<g id="a_node5"><a xlink:href="odp__api_8h.html" target="_top" xlink:title=" ">
<polygon fill="white" stroke="black" points="440.5,-0.5 440.5,-19.5 504.5,-19.5 504.5,-0.5 440.5,-0.5"/>
<text text-anchor="middle" x="472.5" y="-7.5" font-family="Helvetica,sans-Serif" font-size="10.00">odp_api.h</text>
</a>
</g>
</g>
<!-- Node4&#45;&gt;Node5 -->
<g id="edge4" class="edge">
<title>Node4&#45;&gt;Node5</title>
<path fill="none" stroke="midnightblue" d="M34.86,-103.47C43.15,-88.17 57.38,-66.8 76.5,-56 138.63,-20.91 357.69,-13.15 440.49,-11.46"/>
<polygon fill="midnightblue" stroke="midnightblue" points="31.7,-101.96 30.28,-112.46 37.93,-105.14 31.7,-101.96"/>
</g>
<!-- Node7 -->
<g id="node7" class="node">
<title>Node7</title>
<g id="a_node7"><a xlink:href="api_2comp_8h.html" target="_top" xlink:title=" ">
<polygon fill="white" stroke="black" points="603,-560.5 603,-579.5 656,-579.5 656,-560.5 603,-560.5"/>
<text text-anchor="middle" x="629.5" y="-567.5" font-family="Helvetica,sans-Serif" font-size="10.00">comp.h</text>
</a>
</g>
</g>
<!-- Node6&#45;&gt;Node7 -->
<g id="edge6" class="edge">
<title>Node6&#45;&gt;Node7</title>
<path fill="none" stroke="midnightblue" d="M618.7,-662.35C621.55,-638.25 626.39,-597.31 628.48,-579.59"/>
<polygon fill="midnightblue" stroke="midnightblue" points="615.22,-662.03 617.52,-672.37 622.17,-662.85 615.22,-662.03"/>
</g>
<!-- Node7&#45;&gt;Node5 -->
<g id="edge7" class="edge">
<title>Node7&#45;&gt;Node5</title>
<path fill="none" stroke="midnightblue" d="M630.6,-550.26C631.78,-528.37 633.5,-491.07 633.5,-459 633.5,-459 633.5,-459 633.5,-121 633.5,-88.4 624.12,-77.37 599.5,-56 572.47,-32.54 532.38,-21.05 504.51,-15.6"/>
<polygon fill="midnightblue" stroke="midnightblue" points="627.09,-550.27 630.02,-560.45 634.08,-550.66 627.09,-550.27"/>
</g>
<!-- Node9 -->
<g id="node9" class="node">
<title>Node9</title>
<g id="a_node9"><a xlink:href="api_2dma__types_8h.html" target="_top" xlink:title=" ">
<polygon fill="white" stroke="black" points="453.5,-616.5 453.5,-635.5 533.5,-635.5 533.5,-616.5 453.5,-616.5"/>
<text text-anchor="middle" x="493.5" y="-623.5" font-family="Helvetica,sans-Serif" font-size="10.00">dma_types.h</text>
</a>
</g>
</g>
<!-- Node8&#45;&gt;Node9 -->
<g id="edge9" class="edge">
<title>Node8&#45;&gt;Node9</title>
<path fill="none" stroke="midnightblue" d="M493.5,-661.8C493.5,-652.91 493.5,-642.78 493.5,-635.75"/>
<polygon fill="midnightblue" stroke="midnightblue" points="490,-662.08 493.5,-672.08 497,-662.08 490,-662.08"/>
</g>
<!-- Node10 -->
<g id="node10" class="node">
<title>Node10</title>
<g id="a_node10"><a xlink:href="api_2spec_2dma_8h.html" target="_top" xlink:title=" ">
<polygon fill="white" stroke="black" points="477,-448.5 477,-467.5 524,-467.5 524,-448.5 477,-448.5"/>
<text text-anchor="middle" x="500.5" y="-455.5" font-family="Helvetica,sans-Serif" font-size="10.00">dma.h</text>
</a>
</g>
</g>
<!-- Node9&#45;&gt;Node10 -->
<g id="edge10" class="edge">
<title>Node9&#45;&gt;Node10</title>
<path fill="none" stroke="midnightblue" d="M494.3,-605.93C495.82,-569.92 499.06,-493.23 500.14,-467.57"/>
<polygon fill="midnightblue" stroke="midnightblue" points="490.8,-605.94 493.88,-616.08 497.79,-606.23 490.8,-605.94"/>
</g>
<!-- Node12 -->
<g id="node12" class="node">
<title>Node12</title>
<g id="a_node12"><a xlink:href="api_2spec_2pool__types_8h.html" target="_top" xlink:title=" ">
<polygon fill="white" stroke="black" points="373,-560.5 373,-579.5 452,-579.5 452,-560.5 373,-560.5"/>
<text text-anchor="middle" x="412.5" y="-567.5" font-family="Helvetica,sans-Serif" font-size="10.00">pool_types.h</text>
</a>
</g>
</g>
<!-- Node9&#45;&gt;Node12 -->
<g id="edge13" class="edge">
<title>Node9&#45;&gt;Node12</title>
<path fill="none" stroke="midnightblue" d="M471.93,-610.62C457.14,-600.76 437.99,-587.99 425.48,-579.65"/>
<polygon fill="midnightblue" stroke="midnightblue" points="470.22,-613.69 480.49,-616.32 474.11,-607.86 470.22,-613.69"/>
</g>
<!-- Node11 -->
<g id="node11" class="node">
<title>Node11</title>
<g id="a_node11"><a xlink:href="api_2dma_8h.html" target="_top" xlink:title=" ">
<polygon fill="white" stroke="black" points="544,-56.5 544,-75.5 591,-75.5 591,-56.5 544,-56.5"/>
<text text-anchor="middle" x="567.5" y="-63.5" font-family="Helvetica,sans-Serif" font-size="10.00">dma.h</text>
</a>
</g>
</g>
<!-- Node10&#45;&gt;Node11 -->
<g id="edge11" class="edge">
<title>Node10&#45;&gt;Node11</title>
<path fill="none" stroke="midnightblue" d="M515.29,-440.7C532.18,-420.34 557.5,-383.7 557.5,-347 557.5,-347 557.5,-347 557.5,-289 557.5,-206.05 564.55,-105.85 566.81,-75.88"/>
<polygon fill="midnightblue" stroke="midnightblue" points="512.55,-438.52 508.67,-448.38 517.85,-443.1 512.55,-438.52"/>
</g>
<!-- Node11&#45;&gt;Node5 -->
<g id="edge12" class="edge">
<title>Node11&#45;&gt;Node5</title>
<path fill="none" stroke="midnightblue" d="M543.18,-51.18C525.7,-41.24 502.67,-28.15 487.73,-19.65"/>
<polygon fill="midnightblue" stroke="midnightblue" points="541.81,-54.43 552.24,-56.32 545.27,-48.34 541.81,-54.43"/>
</g>
<!-- Node13 -->
<g id="node13" class="node">
<title>Node13</title>
<g id="a_node13"><a xlink:href="api_2pool__types_8h.html" target="_top" xlink:title=" ">
<polygon fill="white" stroke="black" points="357,-504.5 357,-523.5 436,-523.5 436,-504.5 357,-504.5"/>
<text text-anchor="middle" x="396.5" y="-511.5" font-family="Helvetica,sans-Serif" font-size="10.00">pool_types.h</text>
</a>
</g>
</g>
<!-- Node12&#45;&gt;Node13 -->
<g id="edge14" class="edge">
<title>Node12&#45;&gt;Node13</title>
<path fill="none" stroke="midnightblue" d="M406.99,-550.4C404.31,-541.36 401.22,-530.94 399.09,-523.75"/>
<polygon fill="midnightblue" stroke="midnightblue" points="403.66,-551.49 409.86,-560.08 410.37,-549.5 403.66,-551.49"/>
</g>
<!-- Node13&#45;&gt;Node3 -->
<g id="edge15" class="edge">
<title>Node13&#45;&gt;Node3</title>
<path fill="none" stroke="midnightblue" d="M346.9,-504.22C281.74,-492.68 169.61,-472.83 118.41,-463.76"/>
<polygon fill="midnightblue" stroke="midnightblue" points="346.48,-507.7 356.94,-506 347.7,-500.81 346.48,-507.7"/>
</g>
<!-- Node13&#45;&gt;Node10 -->
<g id="edge34" class="edge">
<title>Node13&#45;&gt;Node10</title>
<path fill="none" stroke="midnightblue" d="M422.33,-499.59C441.56,-489.61 467.24,-476.27 483.83,-467.65"/>
<polygon fill="midnightblue" stroke="midnightblue" points="420.47,-496.61 413.21,-504.32 423.7,-502.82 420.47,-496.61"/>
</g>
<!-- Node14 -->
<g id="node14" class="node">
<title>Node14</title>
<g id="a_node14"><a xlink:href="api_2spec_2classification_8h.html" target="_top" xlink:title=" ">
<polygon fill="white" stroke="black" points="297,-336.5 297,-355.5 386,-355.5 386,-336.5 297,-336.5"/>
<text text-anchor="middle" x="341.5" y="-343.5" font-family="Helvetica,sans-Serif" font-size="10.00">classification.h</text>
</a>
</g>
</g>
<!-- Node13&#45;&gt;Node14 -->
<g id="edge16" class="edge">
<title>Node13&#45;&gt;Node14</title>
<path fill="none" stroke="midnightblue" d="M381.68,-496.61C375.14,-488.54 367.94,-478.33 363.5,-468 346.45,-428.38 342.61,-375.95 341.75,-355.59"/>
<polygon fill="midnightblue" stroke="midnightblue" points="379.2,-499.11 388.35,-504.45 384.53,-494.57 379.2,-499.11"/>
</g>
<!-- Node22 -->
<g id="node22" class="node">
<title>Node22</title>
<g id="a_node22"><a xlink:href="api_2spec_2crypto__types_8h.html" target="_top" xlink:title=" ">
<polygon fill="white" stroke="black" points="438,-392.5 438,-411.5 527,-411.5 527,-392.5 438,-392.5"/>
<text text-anchor="middle" x="482.5" y="-399.5" font-family="Helvetica,sans-Serif" font-size="10.00">crypto_types.h</text>
</a>
</g>
</g>
<!-- Node13&#45;&gt;Node22 -->
<g id="edge27" class="edge">
<title>Node13&#45;&gt;Node22</title>
<path fill="none" stroke="midnightblue" d="M409.58,-496.27C428.17,-472.49 461.56,-429.79 475.78,-411.59"/>
<polygon fill="midnightblue" stroke="midnightblue" points="406.65,-494.33 403.25,-504.37 412.16,-498.65 406.65,-494.33"/>
</g>
<!-- Node13&#45;&gt;Node26 -->
<g id="edge35" class="edge">
<title>Node13&#45;&gt;Node26</title>
<path fill="none" stroke="midnightblue" d="M346.76,-512.21C304.8,-509.2 245.11,-499.14 203.5,-468 172.43,-444.75 188.58,-418.79 160.5,-392 142.59,-374.91 116.92,-362.87 97.74,-355.57"/>
<polygon fill="midnightblue" stroke="midnightblue" points="346.56,-515.71 356.76,-512.82 346.99,-508.72 346.56,-515.71"/>
</g>
<!-- Node28 -->
<g id="node28" class="node">
<title>Node28</title>
<g id="a_node28"><a xlink:href="api_2spec_2packet__io__types_8h.html" target="_top" xlink:title=" ">
<polygon fill="white" stroke="black" points="212.5,-448.5 212.5,-467.5 316.5,-467.5 316.5,-448.5 212.5,-448.5"/>
<text text-anchor="middle" x="264.5" y="-455.5" font-family="Helvetica,sans-Serif" font-size="10.00">packet_io_types.h</text>
</a>
</g>
</g>
<!-- Node13&#45;&gt;Node28 -->
<g id="edge38" class="edge">
<title>Node13&#45;&gt;Node28</title>
<path fill="none" stroke="midnightblue" d="M366.28,-500.64C341.51,-490.5 307.1,-476.43 285.32,-467.52"/>
<polygon fill="midnightblue" stroke="midnightblue" points="365,-503.9 375.58,-504.44 367.65,-497.42 365,-503.9"/>
</g>
<!-- Node32 -->
<g id="node32" class="node">
<title>Node32</title>
<g id="a_node32"><a xlink:href="api_2spec_2pool_8h.html" target="_top" xlink:title=" ">
<polygon fill="white" stroke="black" points="373,-448.5 373,-467.5 420,-467.5 420,-448.5 373,-448.5"/>
<text text-anchor="middle" x="396.5" y="-455.5" font-family="Helvetica,sans-Serif" font-size="10.00">pool.h</text>
</a>
</g>
</g>
<!-- Node13&#45;&gt;Node32 -->
<g id="edge48" class="edge">
<title>Node13&#45;&gt;Node32</title>
<path fill="none" stroke="midnightblue" d="M396.5,-493.8C396.5,-484.91 396.5,-474.78 396.5,-467.75"/>
<polygon fill="midnightblue" stroke="midnightblue" points="393,-494.08 396.5,-504.08 400,-494.08 393,-494.08"/>
</g>
<!-- Node13&#45;&gt;Node34 -->
<g id="edge51" class="edge">
<title>Node13&#45;&gt;Node34</title>
<path fill="none" stroke="midnightblue" d="M446.15,-504.15C511.31,-492.54 623.29,-472.58 673.65,-463.61"/>
<polygon fill="midnightblue" stroke="midnightblue" points="445.34,-500.74 436.11,-505.94 446.57,-507.63 445.34,-500.74"/>
</g>
<!-- Node15 -->
<g id="node15" class="node">
<title>Node15</title>
<g id="a_node15"><a xlink:href="api_2classification_8h.html" target="_top" xlink:title=" ">
<polygon fill="white" stroke="black" points="254,-280.5 254,-299.5 343,-299.5 343,-280.5 254,-280.5"/>
<text text-anchor="middle" x="298.5" y="-287.5" font-family="Helvetica,sans-Serif" font-size="10.00">classification.h</text>
</a>
</g>
</g>
<!-- Node14&#45;&gt;Node15 -->
<g id="edge17" class="edge">
<title>Node14&#45;&gt;Node15</title>
<path fill="none" stroke="midnightblue" d="M328.08,-328.14C320.59,-318.74 311.56,-307.4 305.47,-299.75"/>
<polygon fill="midnightblue" stroke="midnightblue" points="325.43,-330.44 334.4,-336.08 330.91,-326.08 325.43,-330.44"/>
</g>
<!-- Node15&#45;&gt;Node5 -->
<g id="edge26" class="edge">
<title>Node15&#45;&gt;Node5</title>
<path fill="none" stroke="midnightblue" d="M290.24,-271.25C281.06,-249.86 267.5,-212.59 267.5,-179 267.5,-179 267.5,-179 267.5,-121 267.5,-90.2 268.56,-76.55 291.5,-56 332.99,-18.84 400.43,-11.3 440.23,-10.35"/>
<polygon fill="midnightblue" stroke="midnightblue" points="287.05,-272.69 294.32,-280.39 293.44,-269.83 287.05,-272.69"/>
</g>
<!-- Node16 -->
<g id="node16" class="node">
<title>Node16</title>
<g id="a_node16"><a xlink:href="api_2spec_2ipsec__types_8h.html" target="_top" xlink:title=" ">
<polygon fill="white" stroke="black" points="296,-224.5 296,-243.5 379,-243.5 379,-224.5 296,-224.5"/>
<text text-anchor="middle" x="337.5" y="-231.5" font-family="Helvetica,sans-Serif" font-size="10.00">ipsec_types.h</text>
</a>
</g>
</g>
<!-- Node15&#45;&gt;Node16 -->
<g id="edge18" class="edge">
<title>Node15&#45;&gt;Node16</title>
<path fill="none" stroke="midnightblue" d="M310.88,-271.86C317.64,-262.5 325.71,-251.33 331.18,-243.75"/>
<polygon fill="midnightblue" stroke="midnightblue" points="307.96,-269.93 304.94,-280.08 313.63,-274.03 307.96,-269.93"/>
</g>
<!-- Node20 -->
<g id="node20" class="node">
<title>Node20</title>
<g id="a_node20"><a xlink:href="api_2spec_2packet__io_8h.html" target="_top" xlink:title=" ">
<polygon fill="white" stroke="black" points="167.5,-224.5 167.5,-243.5 239.5,-243.5 239.5,-224.5 167.5,-224.5"/>
<text text-anchor="middle" x="203.5" y="-231.5" font-family="Helvetica,sans-Serif" font-size="10.00">packet_io.h</text>
</a>
</g>
</g>
<!-- Node15&#45;&gt;Node20 -->
<g id="edge23" class="edge">
<title>Node15&#45;&gt;Node20</title>
<path fill="none" stroke="midnightblue" d="M274.18,-275.18C256.7,-265.24 233.67,-252.15 218.73,-243.65"/>
<polygon fill="midnightblue" stroke="midnightblue" points="272.81,-278.43 283.24,-280.32 276.27,-272.34 272.81,-278.43"/>
</g>
<!-- Node17 -->
<g id="node17" class="node">
<title>Node17</title>
<g id="a_node17"><a xlink:href="api_2ipsec__types_8h.html" target="_top" xlink:title=" ">
<polygon fill="white" stroke="black" points="334,-168.5 334,-187.5 417,-187.5 417,-168.5 334,-168.5"/>
<text text-anchor="middle" x="375.5" y="-175.5" font-family="Helvetica,sans-Serif" font-size="10.00">ipsec_types.h</text>
</a>
</g>
</g>
<!-- Node16&#45;&gt;Node17 -->
<g id="edge19" class="edge">
<title>Node16&#45;&gt;Node17</title>
<path fill="none" stroke="midnightblue" d="M349.56,-215.86C356.14,-206.5 364.01,-195.33 369.34,-187.75"/>
<polygon fill="midnightblue" stroke="midnightblue" points="346.67,-213.89 343.77,-224.08 352.39,-217.92 346.67,-213.89"/>
</g>
<!-- Node17&#45;&gt;Node18 -->
<g id="edge20" class="edge">
<title>Node17&#45;&gt;Node18</title>
<path fill="none" stroke="midnightblue" d="M394.81,-162.1C407.41,-152.38 423.43,-140.03 434.05,-131.83"/>
<polygon fill="midnightblue" stroke="midnightblue" points="392.53,-159.44 386.75,-168.32 396.8,-164.99 392.53,-159.44"/>
</g>
<!-- Node19 -->
<g id="node19" class="node">
<title>Node19</title>
<g id="a_node19"><a xlink:href="api_2ipsec_8h.html" target="_top" xlink:title=" ">
<polygon fill="white" stroke="black" points="420,-56.5 420,-75.5 471,-75.5 471,-56.5 420,-56.5"/>
<text text-anchor="middle" x="445.5" y="-63.5" font-family="Helvetica,sans-Serif" font-size="10.00">ipsec.h</text>
</a>
</g>
</g>
<!-- Node18&#45;&gt;Node19 -->
<g id="edge21" class="edge">
<title>Node18&#45;&gt;Node19</title>
<path fill="none" stroke="midnightblue" d="M445.5,-101.8C445.5,-92.91 445.5,-82.78 445.5,-75.75"/>
<polygon fill="midnightblue" stroke="midnightblue" points="442,-102.08 445.5,-112.08 449,-102.08 442,-102.08"/>
</g>
<!-- Node19&#45;&gt;Node5 -->
<g id="edge22" class="edge">
<title>Node19&#45;&gt;Node5</title>
<path fill="none" stroke="midnightblue" d="M454.51,-46.98C459.09,-37.82 464.45,-27.09 468.12,-19.75"/>
<polygon fill="midnightblue" stroke="midnightblue" points="451.3,-45.57 449.96,-56.08 457.56,-48.7 451.3,-45.57"/>
</g>
<!-- Node21 -->
<g id="node21" class="node">
<title>Node21</title>
<g id="a_node21"><a xlink:href="api_2packet__io_8h.html" target="_top" xlink:title=" ">
<polygon fill="white" stroke="black" points="167.5,-168.5 167.5,-187.5 239.5,-187.5 239.5,-168.5 167.5,-168.5"/>
<text text-anchor="middle" x="203.5" y="-175.5" font-family="Helvetica,sans-Serif" font-size="10.00">packet_io.h</text>
</a>
</g>
</g>
<!-- Node20&#45;&gt;Node21 -->
<g id="edge24" class="edge">
<title>Node20&#45;&gt;Node21</title>
<path fill="none" stroke="midnightblue" d="M203.5,-213.8C203.5,-204.91 203.5,-194.78 203.5,-187.75"/>
<polygon fill="midnightblue" stroke="midnightblue" points="200,-214.08 203.5,-224.08 207,-214.08 200,-214.08"/>
</g>
<!-- Node21&#45;&gt;Node5 -->
<g id="edge25" class="edge">
<title>Node21&#45;&gt;Node5</title>
<path fill="none" stroke="midnightblue" d="M205.75,-158.34C210.02,-131.44 221.92,-82.1 253.5,-56 281.62,-32.75 386.55,-19.38 440.31,-13.92"/>
<polygon fill="midnightblue" stroke="midnightblue" points="202.26,-157.98 204.35,-168.37 209.2,-158.95 202.26,-157.98"/>
</g>
<!-- Node23 -->
<g id="node23" class="node">
<title>Node23</title>
<g id="a_node23"><a xlink:href="api_2crypto__types_8h.html" target="_top" xlink:title=" ">
<polygon fill="white" stroke="black" points="438,-280.5 438,-299.5 527,-299.5 527,-280.5 438,-280.5"/>
<text text-anchor="middle" x="482.5" y="-287.5" font-family="Helvetica,sans-Serif" font-size="10.00">crypto_types.h</text>
</a>
</g>
</g>
<!-- Node22&#45;&gt;Node23 -->
<g id="edge28" class="edge">
<title>Node22&#45;&gt;Node23</title>
<path fill="none" stroke="midnightblue" d="M482.5,-382.35C482.5,-358.25 482.5,-317.31 482.5,-299.59"/>
<polygon fill="midnightblue" stroke="midnightblue" points="479,-382.37 482.5,-392.37 486,-382.37 479,-382.37"/>
</g>
<!-- Node23&#45;&gt;Node16 -->
<g id="edge33" class="edge">
<title>Node23&#45;&gt;Node16</title>
<path fill="none" stroke="midnightblue" d="M450.02,-276.91C422.76,-266.75 384.51,-252.51 360.37,-243.52"/>
<polygon fill="midnightblue" stroke="midnightblue" points="448.93,-280.23 459.52,-280.44 451.37,-273.67 448.93,-280.23"/>
</g>
<!-- Node23&#45;&gt;Node18 -->
<g id="edge32" class="edge">
<title>Node23&#45;&gt;Node18</title>
<path fill="none" stroke="midnightblue" d="M474.24,-271.04C470.79,-262.92 467.01,-253.13 464.5,-244 453.18,-202.79 447.92,-151.7 446.19,-131.65"/>
<polygon fill="midnightblue" stroke="midnightblue" points="471.06,-272.51 478.31,-280.24 477.46,-269.68 471.06,-272.51"/>
</g>
<!-- Node24 -->
<g id="node24" class="node">
<title>Node24</title>
<g id="a_node24"><a xlink:href="api_2spec_2crypto_8h.html" target="_top" xlink:title=" ">
<polygon fill="white" stroke="black" points="473.5,-224.5 473.5,-243.5 529.5,-243.5 529.5,-224.5 473.5,-224.5"/>
<text text-anchor="middle" x="501.5" y="-231.5" font-family="Helvetica,sans-Serif" font-size="10.00">crypto.h</text>
</a>
</g>
</g>
<!-- Node23&#45;&gt;Node24 -->
<g id="edge29" class="edge">
<title>Node23&#45;&gt;Node24</title>
<path fill="none" stroke="midnightblue" d="M489.05,-270.4C492.22,-261.36 495.89,-250.94 498.42,-243.75"/>
<polygon fill="midnightblue" stroke="midnightblue" points="485.65,-269.49 485.64,-280.08 492.26,-271.81 485.65,-269.49"/>
</g>
<!-- Node25 -->
<g id="node25" class="node">
<title>Node25</title>
<g id="a_node25"><a xlink:href="api_2crypto_8h.html" target="_top" xlink:title=" ">
<polygon fill="white" stroke="black" points="473.5,-168.5 473.5,-187.5 529.5,-187.5 529.5,-168.5 473.5,-168.5"/>
<text text-anchor="middle" x="501.5" y="-175.5" font-family="Helvetica,sans-Serif" font-size="10.00">crypto.h</text>
</a>
</g>
</g>
<!-- Node24&#45;&gt;Node25 -->
<g id="edge30" class="edge">
<title>Node24&#45;&gt;Node25</title>
<path fill="none" stroke="midnightblue" d="M501.5,-213.8C501.5,-204.91 501.5,-194.78 501.5,-187.75"/>
<polygon fill="midnightblue" stroke="midnightblue" points="498,-214.08 501.5,-224.08 505,-214.08 498,-214.08"/>
</g>
<!-- Node25&#45;&gt;Node5 -->
<g id="edge31" class="edge">
<title>Node25&#45;&gt;Node5</title>
<path fill="none" stroke="midnightblue" d="M498.17,-157.93C491.88,-121.92 478.48,-45.23 474,-19.57"/>
<polygon fill="midnightblue" stroke="midnightblue" points="494.77,-158.83 499.94,-168.08 501.67,-157.62 494.77,-158.83"/>
</g>
<!-- Node27 -->
<g id="node27" class="node">
<title>Node27</title>
<g id="a_node27"><a xlink:href="api_2packet_8h.html" target="_top" xlink:title=" ">
<polygon fill="white" stroke="black" points="49.5,-224.5 49.5,-243.5 107.5,-243.5 107.5,-224.5 49.5,-224.5"/>
<text text-anchor="middle" x="78.5" y="-231.5" font-family="Helvetica,sans-Serif" font-size="10.00">packet.h</text>
</a>
</g>
</g>
<!-- Node26&#45;&gt;Node27 -->
<g id="edge36" class="edge">
<title>Node26&#45;&gt;Node27</title>
<path fill="none" stroke="midnightblue" d="M72.69,-326.35C74.22,-302.25 76.83,-261.31 77.95,-243.59"/>
<polygon fill="midnightblue" stroke="midnightblue" points="69.19,-326.17 72.05,-336.37 76.18,-326.61 69.19,-326.17"/>
</g>
<!-- Node27&#45;&gt;Node5 -->
<g id="edge37" class="edge">
<title>Node27&#45;&gt;Node5</title>
<path fill="none" stroke="midnightblue" d="M77.28,-214.04C76.05,-177.35 79.13,-96.68 125.5,-56 171.91,-15.29 363.36,-10.86 440.28,-10.76"/>
<polygon fill="midnightblue" stroke="midnightblue" points="73.79,-214.49 77.78,-224.3 80.79,-214.14 73.79,-214.49"/>
</g>
<!-- Node29 -->
<g id="node29" class="node">
<title>Node29</title>
<g id="a_node29"><a xlink:href="api_2packet__io__types_8h.html" target="_top" xlink:title=" ">
<polygon fill="white" stroke="black" points="212.5,-392.5 212.5,-411.5 316.5,-411.5 316.5,-392.5 212.5,-392.5"/>
<text text-anchor="middle" x="264.5" y="-399.5" font-family="Helvetica,sans-Serif" font-size="10.00">packet_io_types.h</text>
</a>
</g>
</g>
<!-- Node28&#45;&gt;Node29 -->
<g id="edge39" class="edge">
<title>Node28&#45;&gt;Node29</title>
<path fill="none" stroke="midnightblue" d="M264.5,-437.8C264.5,-428.91 264.5,-418.78 264.5,-411.75"/>
<polygon fill="midnightblue" stroke="midnightblue" points="261,-438.08 264.5,-448.08 268,-438.08 261,-438.08"/>
</g>
<!-- Node29&#45;&gt;Node14 -->
<g id="edge40" class="edge">
<title>Node29&#45;&gt;Node14</title>
<path fill="none" stroke="midnightblue" d="M285.4,-386.34C299.41,-376.52 317.38,-363.91 329.16,-355.65"/>
<polygon fill="midnightblue" stroke="midnightblue" points="283.05,-383.72 276.87,-392.32 287.07,-389.45 283.05,-383.72"/>
</g>
<!-- Node29&#45;&gt;Node16 -->
<g id="edge41" class="edge">
<title>Node29&#45;&gt;Node16</title>
<path fill="none" stroke="midnightblue" d="M267.41,-382.48C270.42,-368.42 276.31,-349.3 287.5,-336 308.51,-311.02 335.02,-328.17 351.5,-300 362.11,-281.86 350.56,-256.66 342.99,-243.61"/>
<polygon fill="midnightblue" stroke="midnightblue" points="263.94,-382 265.57,-392.47 270.82,-383.27 263.94,-382"/>
</g>
<!-- Node29&#45;&gt;Node20 -->
<g id="edge43" class="edge">
<title>Node29&#45;&gt;Node20</title>
<path fill="none" stroke="midnightblue" d="M202.68,-391.08C181.91,-384.58 160.69,-373.82 147.5,-356 127.37,-328.82 128.37,-310.25 143.5,-280 151.94,-263.11 170.07,-250.92 184.2,-243.52"/>
<polygon fill="midnightblue" stroke="midnightblue" points="201.91,-394.5 212.48,-393.86 203.82,-387.76 201.91,-394.5"/>
</g>
<!-- Node29&#45;&gt;Node26 -->
<g id="edge42" class="edge">
<title>Node29&#45;&gt;Node26</title>
<path fill="none" stroke="midnightblue" d="M223.99,-389.66C187.1,-379.34 133.52,-364.35 100.67,-355.16"/>
<polygon fill="midnightblue" stroke="midnightblue" points="223.35,-393.12 233.92,-392.44 225.23,-386.38 223.35,-393.12"/>
</g>
<!-- Node30 -->
<g id="node30" class="node">
<title>Node30</title>
<g id="a_node30"><a xlink:href="api_2spec_2traffic__mngr_8h.html" target="_top" xlink:title=" ">
<polygon fill="white" stroke="black" points="156.5,-336.5 156.5,-355.5 240.5,-355.5 240.5,-336.5 156.5,-336.5"/>
<text text-anchor="middle" x="198.5" y="-343.5" font-family="Helvetica,sans-Serif" font-size="10.00">traffic_mngr.h</text>
</a>
</g>
</g>
<!-- Node29&#45;&gt;Node30 -->
<g id="edge44" class="edge">
<title>Node29&#45;&gt;Node30</title>
<path fill="none" stroke="midnightblue" d="M245.95,-385.82C234.12,-376.15 219.21,-363.95 209.3,-355.83"/>
<polygon fill="midnightblue" stroke="midnightblue" points="243.94,-388.7 253.9,-392.32 248.37,-383.28 243.94,-388.7"/>
</g>
<!-- Node31 -->
<g id="node31" class="node">
<title>Node31</title>
<g id="a_node31"><a xlink:href="api_2traffic__mngr_8h.html" target="_top" xlink:title=" ">
<polygon fill="white" stroke="black" points="152.5,-280.5 152.5,-299.5 236.5,-299.5 236.5,-280.5 152.5,-280.5"/>
<text text-anchor="middle" x="194.5" y="-287.5" font-family="Helvetica,sans-Serif" font-size="10.00">traffic_mngr.h</text>
</a>
</g>
</g>
<!-- Node30&#45;&gt;Node31 -->
<g id="edge45" class="edge">
<title>Node30&#45;&gt;Node31</title>
<path fill="none" stroke="midnightblue" d="M197.1,-326.1C196.44,-317.14 195.67,-306.86 195.15,-299.75"/>
<polygon fill="midnightblue" stroke="midnightblue" points="193.61,-326.37 197.84,-336.08 200.59,-325.85 193.61,-326.37"/>
</g>
<!-- Node31&#45;&gt;Node5 -->
<g id="edge47" class="edge">
<title>Node31&#45;&gt;Node5</title>
<path fill="none" stroke="midnightblue" d="M179.01,-272.85C171.92,-264.72 163.91,-254.41 158.5,-244 144.61,-217.3 139.5,-209.1 139.5,-179 139.5,-179 139.5,-179 139.5,-121 139.5,-58.06 356.7,-25.04 440.27,-14.66"/>
<polygon fill="midnightblue" stroke="midnightblue" points="176.6,-275.4 185.92,-280.43 181.77,-270.68 176.6,-275.4"/>
</g>
<!-- Node31&#45;&gt;Node16 -->
<g id="edge46" class="edge">
<title>Node31&#45;&gt;Node16</title>
<path fill="none" stroke="midnightblue" d="M226.53,-276.91C253.41,-266.75 291.14,-252.51 314.95,-243.52"/>
<polygon fill="midnightblue" stroke="midnightblue" points="225.28,-273.64 217.16,-280.44 227.75,-280.19 225.28,-273.64"/>
</g>
<!-- Node33 -->
<g id="node33" class="node">
<title>Node33</title>
<g id="a_node33"><a xlink:href="api_2pool_8h.html" target="_top" xlink:title=" ">
<polygon fill="white" stroke="black" points="373,-392.5 373,-411.5 420,-411.5 420,-392.5 373,-392.5"/>
<text text-anchor="middle" x="396.5" y="-399.5" font-family="Helvetica,sans-Serif" font-size="10.00">pool.h</text>
</a>
</g>
</g>
<!-- Node32&#45;&gt;Node33 -->
<g id="edge49" class="edge">
<title>Node32&#45;&gt;Node33</title>
<path fill="none" stroke="midnightblue" d="M396.5,-437.8C396.5,-428.91 396.5,-418.78 396.5,-411.75"/>
<polygon fill="midnightblue" stroke="midnightblue" points="393,-438.08 396.5,-448.08 400,-438.08 393,-438.08"/>
</g>
<!-- Node33&#45;&gt;Node5 -->
<g id="edge50" class="edge">
<title>Node33&#45;&gt;Node5</title>
<path fill="none" stroke="midnightblue" d="M401.02,-382.41C408.25,-348.14 418.63,-273.98 387.5,-224 370.45,-196.63 340.69,-215.89 324.5,-188 320.04,-180.31 321.64,-176.42 324.5,-168 348.71,-96.71 426.14,-40.58 458.29,-19.75"/>
<polygon fill="midnightblue" stroke="midnightblue" points="397.55,-381.88 398.76,-392.4 404.38,-383.43 397.55,-381.88"/>
</g>
<!-- Node35 -->
<g id="node35" class="node">
<title>Node35</title>
<g id="a_node35"><a xlink:href="api_2timer_8h.html" target="_top" xlink:title=" ">
<polygon fill="white" stroke="black" points="666,-392.5 666,-411.5 717,-411.5 717,-392.5 666,-392.5"/>
<text text-anchor="middle" x="691.5" y="-399.5" font-family="Helvetica,sans-Serif" font-size="10.00">timer.h</text>
</a>
</g>
</g>
<!-- Node34&#45;&gt;Node35 -->
<g id="edge52" class="edge">
<title>Node34&#45;&gt;Node35</title>
<path fill="none" stroke="midnightblue" d="M696.7,-438.1C695.37,-429.14 693.85,-418.86 692.8,-411.75"/>
<polygon fill="midnightblue" stroke="midnightblue" points="693.25,-438.7 698.18,-448.08 700.18,-437.68 693.25,-438.7"/>
</g>
<!-- Node35&#45;&gt;Node5 -->
<g id="edge53" class="edge">
<title>Node35&#45;&gt;Node5</title>
<path fill="none" stroke="midnightblue" d="M687.11,-382.34C682.37,-360.56 675.5,-323.37 675.5,-291 675.5,-291 675.5,-291 675.5,-121 675.5,-89.54 671.4,-76.45 647.5,-56 606.98,-21.32 543.11,-12.86 504.76,-11.08"/>
<polygon fill="midnightblue" stroke="midnightblue" points="683.72,-383.24 689.34,-392.22 690.55,-381.7 683.72,-383.24"/>
</g>
<!-- Node37 -->
<g id="node37" class="node">
<title>Node37</title>
<g id="a_node37"><a xlink:href="api_2event_8h.html" target="_top" xlink:title=" ">
<polygon fill="white" stroke="black" points="784,-112.5 784,-131.5 837,-131.5 837,-112.5 784,-112.5"/>
<text text-anchor="middle" x="810.5" y="-119.5" font-family="Helvetica,sans-Serif" font-size="10.00">event.h</text>
</a>
</g>
</g>
<!-- Node36&#45;&gt;Node37 -->
<g id="edge55" class="edge">
<title>Node36&#45;&gt;Node37</title>
<path fill="none" stroke="midnightblue" d="M826.03,-662.29C823.37,-640.43 819.5,-603.16 819.5,-571 819.5,-571 819.5,-571 819.5,-233 819.5,-195.06 814.12,-150.01 811.68,-131.54"/>
<polygon fill="midnightblue" stroke="midnightblue" points="822.59,-662.98 827.32,-672.46 829.54,-662.1 822.59,-662.98"/>
</g>
<!-- Node37&#45;&gt;Node5 -->
<g id="edge56" class="edge">
<title>Node37&#45;&gt;Node5</title>
<path fill="none" stroke="midnightblue" d="M789.18,-107.08C765.67,-92.34 726.3,-69.38 689.5,-56 626.04,-32.93 547.61,-20.34 504.55,-14.71"/>
<polygon fill="midnightblue" stroke="midnightblue" points="787.34,-110.06 797.66,-112.48 791.1,-104.16 787.34,-110.06"/>
</g>
<!-- Node39 -->
<g id="node39" class="node">
<title>Node39</title>
<g id="a_node39"><a xlink:href="api_2queue_8h.html" target="_top" xlink:title=" ">
<polygon fill="white" stroke="black" points="812.5,-56.5 812.5,-75.5 868.5,-75.5 868.5,-56.5 812.5,-56.5"/>
<text text-anchor="middle" x="840.5" y="-63.5" font-family="Helvetica,sans-Serif" font-size="10.00">queue.h</text>
</a>
</g>
</g>
<!-- Node38&#45;&gt;Node39 -->
<g id="edge60" class="edge">
<title>Node38&#45;&gt;Node39</title>
<path fill="none" stroke="midnightblue" d="M891.91,-663.4C881.24,-642.15 865.5,-605.02 865.5,-571 865.5,-571 865.5,-571 865.5,-177 865.5,-138.42 850.7,-94.08 843.87,-75.69"/>
<polygon fill="midnightblue" stroke="midnightblue" points="888.91,-665.23 896.64,-672.47 895.12,-661.99 888.91,-665.23"/>
</g>
<!-- Node39&#45;&gt;Node5 -->
<g id="edge61" class="edge">
<title>Node39&#45;&gt;Node5</title>
<path fill="none" stroke="midnightblue" d="M802.13,-59.37C729.35,-48.69 572.52,-25.68 504.76,-15.73"/>
<polygon fill="midnightblue" stroke="midnightblue" points="801.83,-62.86 812.23,-60.85 802.85,-55.94 801.83,-62.86"/>
</g>
<!-- Node41 -->
<g id="node41" class="node">
<title>Node41</title>
<g id="a_node41"><a xlink:href="api_2schedule_8h.html" target="_top" xlink:title=" ">
<polygon fill="white" stroke="black" points="929,-616.5 929,-635.5 998,-635.5 998,-616.5 929,-616.5"/>
<text text-anchor="middle" x="963.5" y="-623.5" font-family="Helvetica,sans-Serif" font-size="10.00">schedule.h</text>
</a>
</g>
</g>
<!-- Node40&#45;&gt;Node41 -->
<g id="edge63" class="edge">
<title>Node40&#45;&gt;Node41</title>
<path fill="none" stroke="midnightblue" d="M975.95,-662.4C972.78,-653.36 969.11,-642.94 966.58,-635.75"/>
<polygon fill="midnightblue" stroke="midnightblue" points="972.74,-663.81 979.36,-672.08 979.35,-661.49 972.74,-663.81"/>
</g>
<!-- Node41&#45;&gt;Node5 -->
<g id="edge64" class="edge">
<title>Node41&#45;&gt;Node5</title>
<path fill="none" stroke="midnightblue" d="M955.39,-606.93C946.5,-585.47 933.5,-548.36 933.5,-515 933.5,-515 933.5,-515 933.5,-121 933.5,-82.87 911.23,-73.78 877.5,-56 812.81,-21.9 588.45,-13.53 504.52,-11.57"/>
<polygon fill="midnightblue" stroke="midnightblue" points="952.28,-608.58 959.45,-616.38 958.71,-605.81 952.28,-608.58"/>
</g>
<!-- Node43 -->
<g id="node43" class="node">
<title>Node43</title>
<g id="a_node43"><a xlink:href="api_2timer__types_8h.html" target="_top" xlink:title=" ">
<polygon fill="white" stroke="black" points="661.5,-504.5 661.5,-523.5 745.5,-523.5 745.5,-504.5 661.5,-504.5"/>
<text text-anchor="middle" x="703.5" y="-511.5" font-family="Helvetica,sans-Serif" font-size="10.00">timer_types.h</text>
</a>
</g>
</g>
<!-- Node42&#45;&gt;Node43 -->
<g id="edge67" class="edge">
<title>Node42&#45;&gt;Node43</title>
<path fill="none" stroke="midnightblue" d="M703.5,-661.93C703.5,-625.92 703.5,-549.23 703.5,-523.57"/>
<polygon fill="midnightblue" stroke="midnightblue" points="700,-662.08 703.5,-672.08 707,-662.08 700,-662.08"/>
</g>
<!-- Node43&#45;&gt;Node34 -->
<g id="edge68" class="edge">
<title>Node43&#45;&gt;Node34</title>
<path fill="none" stroke="midnightblue" d="M702.1,-494.1C701.44,-485.14 700.67,-474.86 700.15,-467.75"/>
<polygon fill="midnightblue" stroke="midnightblue" points="698.61,-494.37 702.84,-504.08 705.59,-493.85 698.61,-494.37"/>
</g>
</g>
</svg>
