<?xml version="1.0" encoding="UTF-8" standalone="no"?>
<!DOCTYPE svg PUBLIC "-//W3C//DTD SVG 1.1//EN"
 "http://www.w3.org/Graphics/SVG/1.1/DTD/svg11.dtd">
<!-- Generated by graphviz version 2.43.0 (0)
 -->
<!-- Title: std_types.h Pages: 1 -->
<svg width="3972pt" height="196pt"
 viewBox="0.00 0.00 3972.11 196.00" xmlns="http://www.w3.org/2000/svg" xmlns:xlink="http://www.w3.org/1999/xlink">
<g id="graph0" class="graph" transform="scale(1 1) rotate(0) translate(4 192)">
<title>std_types.h</title>
<polygon fill="white" stroke="transparent" points="-4,4 -4,-192 3968.11,-192 3968.11,4 -4,4"/>
<!-- Node1 -->
<g id="node1" class="node">
<title>Node1</title>
<g id="a_node1"><a xlink:title=" ">
<polygon fill="#bfbfbf" stroke="black" points="1903,-168.5 1903,-187.5 1976,-187.5 1976,-168.5 1903,-168.5"/>
<text text-anchor="middle" x="1939.5" y="-175.5" font-family="Helvetica,sans-Serif" font-size="10.00">std_types.h</text>
</a>
</g>
</g>
<!-- Node2 -->
<g id="node2" class="node">
<title>Node2</title>
<g id="a_node2"><a xlink:href="api_2abi-default_2atomic_8h.html" target="_top" xlink:title=" ">
<polygon fill="white" stroke="red" points="38,-112.5 38,-131.5 97,-131.5 97,-112.5 38,-112.5"/>
<text text-anchor="middle" x="67.5" y="-119.5" font-family="Helvetica,sans-Serif" font-size="10.00">atomic.h</text>
</a>
</g>
</g>
<!-- Node1&#45;&gt;Node2 -->
<g id="edge1" class="edge">
<title>Node1&#45;&gt;Node2</title>
<path fill="none" stroke="midnightblue" d="M1892.54,-177.17C1642.58,-177.87 466.14,-178.61 105.5,-132 102.81,-131.65 100.03,-131.19 97.26,-130.67"/>
<polygon fill="midnightblue" stroke="midnightblue" points="1892.75,-180.67 1902.74,-177.14 1892.72,-173.67 1892.75,-180.67"/>
</g>
<!-- Node10 -->
<g id="node5" class="node">
<title>Node10</title>
<g id="a_node5"><a xlink:href="api_2abi-default_2barrier_8h.html" target="_top" xlink:title=" ">
<polygon fill="white" stroke="red" points="115,-112.5 115,-131.5 172,-131.5 172,-112.5 115,-112.5"/>
<text text-anchor="middle" x="143.5" y="-119.5" font-family="Helvetica,sans-Serif" font-size="10.00">barrier.h</text>
</a>
</g>
</g>
<!-- Node1&#45;&gt;Node10 -->
<g id="edge4" class="edge">
<title>Node1&#45;&gt;Node10</title>
<path fill="none" stroke="midnightblue" d="M1892.56,-177.11C1648.9,-177.49 526.26,-176.75 181.5,-132 178.41,-131.6 175.2,-131.05 172.02,-130.42"/>
<polygon fill="midnightblue" stroke="midnightblue" points="1892.85,-180.61 1902.84,-177.09 1892.84,-173.61 1892.85,-180.61"/>
</g>
<!-- Node43 -->
<g id="node6" class="node">
<title>Node43</title>
<g id="a_node6"><a xlink:href="api_2abi-default_2byteorder_8h.html" target="_top" xlink:title=" ">
<polygon fill="white" stroke="red" points="190.5,-112.5 190.5,-131.5 262.5,-131.5 262.5,-112.5 190.5,-112.5"/>
<text text-anchor="middle" x="226.5" y="-119.5" font-family="Helvetica,sans-Serif" font-size="10.00">byteorder.h</text>
</a>
</g>
</g>
<!-- Node1&#45;&gt;Node43 -->
<g id="edge5" class="edge">
<title>Node1&#45;&gt;Node43</title>
<path fill="none" stroke="midnightblue" d="M1892.36,-176.81C1655.98,-175.71 598.07,-168.79 271.5,-132 268.65,-131.68 265.71,-131.27 262.77,-130.8"/>
<polygon fill="midnightblue" stroke="midnightblue" points="1892.66,-180.32 1902.68,-176.86 1892.69,-173.32 1892.66,-180.32"/>
</g>
<!-- Node51 -->
<g id="node7" class="node">
<title>Node51</title>
<g id="a_node7"><a xlink:href="api_2abi-default_2cpumask_8h.html" target="_top" xlink:title=" ">
<polygon fill="white" stroke="red" points="280.5,-112.5 280.5,-131.5 350.5,-131.5 350.5,-112.5 280.5,-112.5"/>
<text text-anchor="middle" x="315.5" y="-119.5" font-family="Helvetica,sans-Serif" font-size="10.00">cpumask.h</text>
</a>
</g>
</g>
<!-- Node1&#45;&gt;Node51 -->
<g id="edge6" class="edge">
<title>Node1&#45;&gt;Node51</title>
<path fill="none" stroke="midnightblue" d="M1892.67,-176.76C1664.49,-175.43 667.76,-167.64 359.5,-132 356.71,-131.68 353.84,-131.27 350.96,-130.8"/>
<polygon fill="midnightblue" stroke="midnightblue" points="1892.93,-180.26 1902.95,-176.82 1892.97,-173.26 1892.93,-180.26"/>
</g>
<!-- Node119 -->
<g id="node8" class="node">
<title>Node119</title>
<g id="a_node8"><a xlink:href="api_2abi-default_2init_8h.html" target="_top" xlink:title=" ">
<polygon fill="white" stroke="red" points="369,-112.5 369,-131.5 410,-131.5 410,-112.5 369,-112.5"/>
<text text-anchor="middle" x="389.5" y="-119.5" font-family="Helvetica,sans-Serif" font-size="10.00">init.h</text>
</a>
</g>
</g>
<!-- Node1&#45;&gt;Node119 -->
<g id="edge7" class="edge">
<title>Node1&#45;&gt;Node119</title>
<path fill="none" stroke="midnightblue" d="M1892.88,-177.32C1670.1,-178.59 712.52,-181.03 418.5,-132 415.8,-131.55 412.99,-130.91 410.25,-130.18"/>
<polygon fill="midnightblue" stroke="midnightblue" points="1892.95,-180.82 1902.93,-177.26 1892.91,-173.82 1892.95,-180.82"/>
</g>
<!-- Node126 -->
<g id="node9" class="node">
<title>Node126</title>
<g id="a_node9"><a xlink:href="api_2abi-default_2ipsec__types_8h_source.html" target="_top" xlink:title=" ">
<polygon fill="white" stroke="red" points="428,-112.5 428,-131.5 511,-131.5 511,-112.5 428,-112.5"/>
<text text-anchor="middle" x="469.5" y="-119.5" font-family="Helvetica,sans-Serif" font-size="10.00">ipsec_types.h</text>
</a>
</g>
</g>
<!-- Node1&#45;&gt;Node126 -->
<g id="edge8" class="edge">
<title>Node1&#45;&gt;Node126</title>
<path fill="none" stroke="midnightblue" d="M1892.72,-176.42C1679.19,-173.62 795.65,-160.49 520.5,-132 517.46,-131.69 514.33,-131.3 511.18,-130.86"/>
<polygon fill="midnightblue" stroke="midnightblue" points="1892.91,-179.92 1902.96,-176.55 1893,-172.92 1892.91,-179.92"/>
</g>
<!-- Node133 -->
<g id="node10" class="node">
<title>Node133</title>
<g id="a_node10"><a xlink:href="api_2abi-default_2packet__io__types_8h.html" target="_top" xlink:title=" ">
<polygon fill="white" stroke="red" points="529.5,-112.5 529.5,-131.5 633.5,-131.5 633.5,-112.5 529.5,-112.5"/>
<text text-anchor="middle" x="581.5" y="-119.5" font-family="Helvetica,sans-Serif" font-size="10.00">packet_io_types.h</text>
</a>
</g>
</g>
<!-- Node1&#45;&gt;Node133 -->
<g id="edge9" class="edge">
<title>Node1&#45;&gt;Node133</title>
<path fill="none" stroke="midnightblue" d="M1892.74,-177.26C1723.89,-177.81 1129.87,-176.27 642.5,-132 639.62,-131.74 636.67,-131.43 633.7,-131.09"/>
<polygon fill="midnightblue" stroke="midnightblue" points="1892.8,-180.76 1902.78,-177.23 1892.77,-173.76 1892.8,-180.76"/>
</g>
<!-- Node27 -->
<g id="node11" class="node">
<title>Node27</title>
<g id="a_node11"><a xlink:href="api_2abi-default_2rwlock__recursive_8h.html" target="_top" xlink:title=" ">
<polygon fill="white" stroke="red" points="651.5,-112.5 651.5,-131.5 759.5,-131.5 759.5,-112.5 651.5,-112.5"/>
<text text-anchor="middle" x="705.5" y="-119.5" font-family="Helvetica,sans-Serif" font-size="10.00">rwlock_recursive.h</text>
</a>
</g>
</g>
<!-- Node1&#45;&gt;Node27 -->
<g id="edge10" class="edge">
<title>Node1&#45;&gt;Node27</title>
<path fill="none" stroke="midnightblue" d="M1892.66,-176.94C1734.28,-176.36 1204.26,-171.39 768.5,-132 765.64,-131.74 762.71,-131.44 759.75,-131.11"/>
<polygon fill="midnightblue" stroke="midnightblue" points="1892.98,-180.44 1902.99,-176.97 1893,-173.44 1892.98,-180.44"/>
</g>
<!-- Node140 -->
<g id="node12" class="node">
<title>Node140</title>
<g id="a_node12"><a xlink:href="api_2abi-default_2schedule__types_8h.html" target="_top" xlink:title=" ">
<polygon fill="white" stroke="red" points="778,-112.5 778,-131.5 879,-131.5 879,-112.5 778,-112.5"/>
<text text-anchor="middle" x="828.5" y="-119.5" font-family="Helvetica,sans-Serif" font-size="10.00">schedule_types.h</text>
</a>
</g>
</g>
<!-- Node1&#45;&gt;Node140 -->
<g id="edge11" class="edge">
<title>Node1&#45;&gt;Node140</title>
<path fill="none" stroke="midnightblue" d="M1892.54,-176.76C1744.6,-175.64 1275.08,-169.16 888.5,-132 885.46,-131.71 882.34,-131.37 879.19,-130.99"/>
<polygon fill="midnightblue" stroke="midnightblue" points="1892.61,-180.26 1902.63,-176.84 1892.66,-173.26 1892.61,-180.26"/>
</g>
<!-- Node147 -->
<g id="node13" class="node">
<title>Node147</title>
<g id="a_node13"><a xlink:href="api_2abi-default_2spinlock__recursive_8h.html" target="_top" xlink:title=" ">
<polygon fill="white" stroke="red" points="897.5,-112.5 897.5,-131.5 1013.5,-131.5 1013.5,-112.5 897.5,-112.5"/>
<text text-anchor="middle" x="955.5" y="-119.5" font-family="Helvetica,sans-Serif" font-size="10.00">spinlock_recursive.h</text>
</a>
</g>
</g>
<!-- Node1&#45;&gt;Node147 -->
<g id="edge12" class="edge">
<title>Node1&#45;&gt;Node147</title>
<path fill="none" stroke="midnightblue" d="M1892.72,-176.1C1757.59,-173.2 1355.1,-162.45 1022.5,-132 1019.58,-131.73 1016.59,-131.43 1013.57,-131.11"/>
<polygon fill="midnightblue" stroke="midnightblue" points="1892.66,-179.6 1902.73,-176.31 1892.81,-172.6 1892.66,-179.6"/>
</g>
<!-- Node155 -->
<g id="node14" class="node">
<title>Node155</title>
<g id="a_node14"><a xlink:href="api_2abi-default_2traffic__mngr_8h.html" target="_top" xlink:title=" ">
<polygon fill="white" stroke="red" points="1031.5,-112.5 1031.5,-131.5 1115.5,-131.5 1115.5,-112.5 1031.5,-112.5"/>
<text text-anchor="middle" x="1073.5" y="-119.5" font-family="Helvetica,sans-Serif" font-size="10.00">traffic_mngr.h</text>
</a>
</g>
</g>
<!-- Node1&#45;&gt;Node155 -->
<g id="edge13" class="edge">
<title>Node1&#45;&gt;Node155</title>
<path fill="none" stroke="midnightblue" d="M1892.32,-176.09C1767.48,-173.31 1418.3,-163.14 1129.5,-132 1125,-131.51 1120.3,-130.91 1115.63,-130.25"/>
<polygon fill="midnightblue" stroke="midnightblue" points="1892.58,-179.6 1902.66,-176.31 1892.73,-172.6 1892.58,-179.6"/>
</g>
<!-- Node17 -->
<g id="node15" class="node">
<title>Node17</title>
<g id="a_node15"><a xlink:href="api_2barrier_8h.html" target="_top" xlink:title=" ">
<polygon fill="white" stroke="black" points="1276,-56.5 1276,-75.5 1333,-75.5 1333,-56.5 1276,-56.5"/>
<text text-anchor="middle" x="1304.5" y="-63.5" font-family="Helvetica,sans-Serif" font-size="10.00">barrier.h</text>
</a>
</g>
</g>
<!-- Node1&#45;&gt;Node17 -->
<g id="edge14" class="edge">
<title>Node1&#45;&gt;Node17</title>
<path fill="none" stroke="midnightblue" d="M1892.52,-177.31C1751.16,-177.77 1336.94,-175.37 1296.5,-132 1282.23,-116.7 1292.61,-89.81 1299.57,-75.9"/>
<polygon fill="midnightblue" stroke="midnightblue" points="1892.63,-180.81 1902.61,-177.27 1892.6,-173.81 1892.63,-180.81"/>
</g>
<!-- Node18 -->
<g id="node16" class="node">
<title>Node18</title>
<g id="a_node16"><a xlink:href="odp__api_8h.html" target="_top" xlink:title=" ">
<polygon fill="white" stroke="black" points="1272.5,-0.5 1272.5,-19.5 1336.5,-19.5 1336.5,-0.5 1272.5,-0.5"/>
<text text-anchor="middle" x="1304.5" y="-7.5" font-family="Helvetica,sans-Serif" font-size="10.00">odp_api.h</text>
</a>
</g>
</g>
<!-- Node1&#45;&gt;Node18 -->
<g id="edge55" class="edge">
<title>Node1&#45;&gt;Node18</title>
<path fill="none" stroke="midnightblue" d="M1892.79,-176.99C1757.83,-176.48 1369.36,-171.52 1249.5,-132 1205.83,-117.6 1184.52,-116.37 1162.5,-76 1138.48,-31.97 1223.33,-17.63 1272.25,-13.07"/>
<polygon fill="midnightblue" stroke="midnightblue" points="1892.8,-180.49 1902.81,-177.02 1892.82,-173.49 1892.8,-180.49"/>
</g>
<!-- Node84 -->
<g id="node17" class="node">
<title>Node84</title>
<g id="a_node17"><a xlink:href="api_2classification_8h.html" target="_top" xlink:title=" ">
<polygon fill="white" stroke="red" points="1464,-56.5 1464,-75.5 1553,-75.5 1553,-56.5 1464,-56.5"/>
<text text-anchor="middle" x="1508.5" y="-63.5" font-family="Helvetica,sans-Serif" font-size="10.00">classification.h</text>
</a>
</g>
</g>
<!-- Node1&#45;&gt;Node84 -->
<g id="edge16" class="edge">
<title>Node1&#45;&gt;Node84</title>
<path fill="none" stroke="midnightblue" d="M1892.54,-177.21C1754.06,-177.32 1354.57,-173.99 1315.5,-132 1309.44,-125.49 1309.97,-118.96 1315.5,-112 1324.75,-100.34 1409.64,-83.89 1463.71,-74.45"/>
<polygon fill="midnightblue" stroke="midnightblue" points="1892.83,-180.7 1902.82,-177.19 1892.81,-173.7 1892.83,-180.7"/>
</g>
<!-- Node85 -->
<g id="node18" class="node">
<title>Node85</title>
<g id="a_node18"><a xlink:href="api_2spec_2ipsec__types_8h.html" target="_top" xlink:title=" ">
<polygon fill="white" stroke="red" points="2702,-0.5 2702,-19.5 2785,-19.5 2785,-0.5 2702,-0.5"/>
<text text-anchor="middle" x="2743.5" y="-7.5" font-family="Helvetica,sans-Serif" font-size="10.00">ipsec_types.h</text>
</a>
</g>
</g>
<!-- Node1&#45;&gt;Node85 -->
<g id="edge33" class="edge">
<title>Node1&#45;&gt;Node85</title>
<path fill="none" stroke="midnightblue" d="M1986.09,-176.85C2285.15,-175.82 3923.84,-168.46 3959.5,-132 3965.72,-125.64 3965.52,-118.54 3959.5,-112 3878.31,-23.79 2989.86,-12.61 2785.32,-11.2"/>
<polygon fill="midnightblue" stroke="midnightblue" points="1986.01,-173.36 1976.02,-176.89 1986.03,-180.35 1986.01,-173.36"/>
</g>
<!-- Node162 -->
<g id="node19" class="node">
<title>Node162</title>
<g id="a_node19"><a xlink:href="api_2proto__stats_8h.html" target="_top" xlink:title=" ">
<polygon fill="white" stroke="black" points="1351.5,-56.5 1351.5,-75.5 1431.5,-75.5 1431.5,-56.5 1351.5,-56.5"/>
<text text-anchor="middle" x="1391.5" y="-63.5" font-family="Helvetica,sans-Serif" font-size="10.00">proto_stats.h</text>
</a>
</g>
</g>
<!-- Node1&#45;&gt;Node162 -->
<g id="edge19" class="edge">
<title>Node1&#45;&gt;Node162</title>
<path fill="none" stroke="midnightblue" d="M1892.35,-177.26C1752.33,-177.53 1346.2,-174.63 1306.5,-132 1284.53,-108.41 1331.38,-86.94 1363.86,-75.55"/>
<polygon fill="midnightblue" stroke="midnightblue" points="1892.75,-180.76 1902.74,-177.23 1892.73,-173.76 1892.75,-180.76"/>
</g>
<!-- Node81 -->
<g id="node20" class="node">
<title>Node81</title>
<g id="a_node20"><a xlink:href="api_2spec_2buffer_8h.html" target="_top" xlink:title=" ">
<polygon fill="white" stroke="red" points="1324,-112.5 1324,-131.5 1377,-131.5 1377,-112.5 1324,-112.5"/>
<text text-anchor="middle" x="1350.5" y="-119.5" font-family="Helvetica,sans-Serif" font-size="10.00">buffer.h</text>
</a>
</g>
</g>
<!-- Node1&#45;&gt;Node81 -->
<g id="edge21" class="edge">
<title>Node1&#45;&gt;Node81</title>
<path fill="none" stroke="midnightblue" d="M1892.46,-175.77C1796.66,-172.69 1572.24,-162.56 1386.5,-132 1383.45,-131.5 1380.28,-130.87 1377.13,-130.18"/>
<polygon fill="midnightblue" stroke="midnightblue" points="1892.58,-179.27 1902.69,-176.08 1892.8,-172.28 1892.58,-179.27"/>
</g>
<!-- Node163 -->
<g id="node21" class="node">
<title>Node163</title>
<g id="a_node21"><a xlink:href="spec_2chksum_8h.html" target="_top" xlink:title=" ">
<polygon fill="white" stroke="red" points="1395.5,-112.5 1395.5,-131.5 1459.5,-131.5 1459.5,-112.5 1395.5,-112.5"/>
<text text-anchor="middle" x="1427.5" y="-119.5" font-family="Helvetica,sans-Serif" font-size="10.00">chksum.h</text>
</a>
</g>
</g>
<!-- Node1&#45;&gt;Node163 -->
<g id="edge22" class="edge">
<title>Node1&#45;&gt;Node163</title>
<path fill="none" stroke="midnightblue" d="M1892.68,-174.32C1807.9,-169.06 1623.48,-155.79 1469.5,-132 1466.26,-131.5 1462.89,-130.9 1459.53,-130.26"/>
<polygon fill="midnightblue" stroke="midnightblue" points="1892.56,-177.82 1902.76,-174.93 1892.99,-170.83 1892.56,-177.82"/>
</g>
<!-- Node83 -->
<g id="node22" class="node">
<title>Node83</title>
<g id="a_node22"><a xlink:href="api_2spec_2classification_8h.html" target="_top" xlink:title=" ">
<polygon fill="white" stroke="black" points="1478,-112.5 1478,-131.5 1567,-131.5 1567,-112.5 1478,-112.5"/>
<text text-anchor="middle" x="1522.5" y="-119.5" font-family="Helvetica,sans-Serif" font-size="10.00">classification.h</text>
</a>
</g>
</g>
<!-- Node1&#45;&gt;Node83 -->
<g id="edge23" class="edge">
<title>Node1&#45;&gt;Node83</title>
<path fill="none" stroke="midnightblue" d="M1892.71,-171.83C1823.49,-164.05 1689.77,-148.45 1576.5,-132 1573.49,-131.56 1570.39,-131.09 1567.27,-130.61"/>
<polygon fill="midnightblue" stroke="midnightblue" points="1892.52,-175.33 1902.85,-172.97 1893.3,-168.38 1892.52,-175.33"/>
</g>
<!-- Node73 -->
<g id="node23" class="node">
<title>Node73</title>
<g id="a_node23"><a xlink:href="api_2spec_2comp_8h.html" target="_top" xlink:title=" ">
<polygon fill="white" stroke="red" points="1585,-112.5 1585,-131.5 1638,-131.5 1638,-112.5 1585,-112.5"/>
<text text-anchor="middle" x="1611.5" y="-119.5" font-family="Helvetica,sans-Serif" font-size="10.00">comp.h</text>
</a>
</g>
</g>
<!-- Node1&#45;&gt;Node73 -->
<g id="edge25" class="edge">
<title>Node1&#45;&gt;Node73</title>
<path fill="none" stroke="midnightblue" d="M1892.96,-171.17C1835.14,-163.63 1733.59,-149.36 1647.5,-132 1644.47,-131.39 1641.31,-130.69 1638.17,-129.96"/>
<polygon fill="midnightblue" stroke="midnightblue" points="1892.52,-174.65 1902.89,-172.46 1893.42,-167.7 1892.52,-174.65"/>
</g>
<!-- Node165 -->
<g id="node24" class="node">
<title>Node165</title>
<g id="a_node24"><a xlink:href="api_2spec_2cpu_8h.html" target="_top" xlink:title=" ">
<polygon fill="white" stroke="red" points="1656,-112.5 1656,-131.5 1699,-131.5 1699,-112.5 1656,-112.5"/>
<text text-anchor="middle" x="1677.5" y="-119.5" font-family="Helvetica,sans-Serif" font-size="10.00">cpu.h</text>
</a>
</g>
</g>
<!-- Node1&#45;&gt;Node165 -->
<g id="edge26" class="edge">
<title>Node1&#45;&gt;Node165</title>
<path fill="none" stroke="midnightblue" d="M1892.72,-169.16C1845.87,-161.02 1771.82,-147.33 1708.5,-132 1705.45,-131.26 1702.25,-130.42 1699.11,-129.54"/>
<polygon fill="midnightblue" stroke="midnightblue" points="1892.42,-172.66 1902.87,-170.92 1893.61,-165.77 1892.42,-172.66"/>
</g>
<!-- Node93 -->
<g id="node25" class="node">
<title>Node93</title>
<g id="a_node25"><a xlink:href="api_2spec_2crypto_8h.html" target="_top" xlink:title=" ">
<polygon fill="white" stroke="red" points="1717.5,-112.5 1717.5,-131.5 1773.5,-131.5 1773.5,-112.5 1717.5,-112.5"/>
<text text-anchor="middle" x="1745.5" y="-119.5" font-family="Helvetica,sans-Serif" font-size="10.00">crypto.h</text>
</a>
</g>
</g>
<!-- Node1&#45;&gt;Node93 -->
<g id="edge27" class="edge">
<title>Node1&#45;&gt;Node93</title>
<path fill="none" stroke="midnightblue" d="M1898.66,-165.63C1861.11,-155.18 1806.43,-139.96 1773.58,-130.82"/>
<polygon fill="midnightblue" stroke="midnightblue" points="1898.19,-169.13 1908.76,-168.44 1900.06,-162.39 1898.19,-169.13"/>
</g>
<!-- Node91 -->
<g id="node26" class="node">
<title>Node91</title>
<g id="a_node26"><a xlink:href="api_2spec_2crypto__types_8h.html" target="_top" xlink:title=" ">
<polygon fill="white" stroke="red" points="1792,-112.5 1792,-131.5 1881,-131.5 1881,-112.5 1792,-112.5"/>
<text text-anchor="middle" x="1836.5" y="-119.5" font-family="Helvetica,sans-Serif" font-size="10.00">crypto_types.h</text>
</a>
</g>
</g>
<!-- Node1&#45;&gt;Node91 -->
<g id="edge28" class="edge">
<title>Node1&#45;&gt;Node91</title>
<path fill="none" stroke="midnightblue" d="M1913.92,-163.59C1894.88,-153.61 1869.44,-140.27 1853.01,-131.65"/>
<polygon fill="midnightblue" stroke="midnightblue" points="1912.47,-166.78 1922.95,-168.32 1915.72,-160.58 1912.47,-166.78"/>
</g>
<!-- Node75 -->
<g id="node27" class="node">
<title>Node75</title>
<g id="a_node27"><a xlink:href="api_2spec_2dma__types_8h.html" target="_top" xlink:title=" ">
<polygon fill="white" stroke="red" points="1899.5,-112.5 1899.5,-131.5 1979.5,-131.5 1979.5,-112.5 1899.5,-112.5"/>
<text text-anchor="middle" x="1939.5" y="-119.5" font-family="Helvetica,sans-Serif" font-size="10.00">dma_types.h</text>
</a>
</g>
</g>
<!-- Node1&#45;&gt;Node75 -->
<g id="edge29" class="edge">
<title>Node1&#45;&gt;Node75</title>
<path fill="none" stroke="midnightblue" d="M1939.5,-157.8C1939.5,-148.91 1939.5,-138.78 1939.5,-131.75"/>
<polygon fill="midnightblue" stroke="midnightblue" points="1936,-158.08 1939.5,-168.08 1943,-158.08 1936,-158.08"/>
</g>
<!-- Node167 -->
<g id="node28" class="node">
<title>Node167</title>
<g id="a_node28"><a xlink:href="api_2spec_2hash_8h.html" target="_top" xlink:title=" ">
<polygon fill="white" stroke="red" points="1998,-112.5 1998,-131.5 2047,-131.5 2047,-112.5 1998,-112.5"/>
<text text-anchor="middle" x="2022.5" y="-119.5" font-family="Helvetica,sans-Serif" font-size="10.00">hash.h</text>
</a>
</g>
</g>
<!-- Node1&#45;&gt;Node167 -->
<g id="edge30" class="edge">
<title>Node1&#45;&gt;Node167</title>
<path fill="none" stroke="midnightblue" d="M1961.6,-162.62C1976.76,-152.76 1996.38,-139.99 2009.2,-131.65"/>
<polygon fill="midnightblue" stroke="midnightblue" points="1959.31,-159.94 1952.84,-168.32 1963.13,-165.8 1959.31,-159.94"/>
</g>
<!-- Node115 -->
<g id="node29" class="node">
<title>Node115</title>
<g id="a_node29"><a xlink:href="api_2spec_2init_8h.html" target="_top" xlink:title=" ">
<polygon fill="white" stroke="red" points="2065,-112.5 2065,-131.5 2106,-131.5 2106,-112.5 2065,-112.5"/>
<text text-anchor="middle" x="2085.5" y="-119.5" font-family="Helvetica,sans-Serif" font-size="10.00">init.h</text>
</a>
</g>
</g>
<!-- Node1&#45;&gt;Node115 -->
<g id="edge31" class="edge">
<title>Node1&#45;&gt;Node115</title>
<path fill="none" stroke="midnightblue" d="M1972.12,-164.93C2000.48,-154.44 2040.7,-139.57 2064.83,-130.64"/>
<polygon fill="midnightblue" stroke="midnightblue" points="1970.8,-161.69 1962.63,-168.44 1973.23,-168.26 1970.8,-161.69"/>
</g>
<!-- Node87 -->
<g id="node30" class="node">
<title>Node87</title>
<g id="a_node30"><a xlink:href="api_2spec_2ipsec_8h.html" target="_top" xlink:title=" ">
<polygon fill="white" stroke="red" points="2124,-112.5 2124,-131.5 2175,-131.5 2175,-112.5 2124,-112.5"/>
<text text-anchor="middle" x="2149.5" y="-119.5" font-family="Helvetica,sans-Serif" font-size="10.00">ipsec.h</text>
</a>
</g>
</g>
<!-- Node1&#45;&gt;Node87 -->
<g id="edge32" class="edge">
<title>Node1&#45;&gt;Node87</title>
<path fill="none" stroke="midnightblue" d="M1983.32,-165.9C2018.95,-156.86 2070.5,-143.71 2115.5,-132 2118.22,-131.29 2121.06,-130.55 2123.89,-129.8"/>
<polygon fill="midnightblue" stroke="midnightblue" points="1982.09,-162.61 1973.26,-168.46 1983.82,-169.39 1982.09,-162.61"/>
</g>
<!-- Node95 -->
<g id="node31" class="node">
<title>Node95</title>
<g id="a_node31"><a xlink:href="api_2spec_2packet_8h.html" target="_top" xlink:title=" ">
<polygon fill="white" stroke="red" points="2193.5,-112.5 2193.5,-131.5 2251.5,-131.5 2251.5,-112.5 2193.5,-112.5"/>
<text text-anchor="middle" x="2222.5" y="-119.5" font-family="Helvetica,sans-Serif" font-size="10.00">packet.h</text>
</a>
</g>
</g>
<!-- Node1&#45;&gt;Node95 -->
<g id="edge34" class="edge">
<title>Node1&#45;&gt;Node95</title>
<path fill="none" stroke="midnightblue" d="M1986.2,-169.15C2035.6,-160.68 2115.75,-146.45 2184.5,-132 2187.42,-131.39 2190.46,-130.72 2193.49,-130.03"/>
<polygon fill="midnightblue" stroke="midnightblue" points="1985.41,-165.74 1976.14,-170.87 1986.59,-172.64 1985.41,-165.74"/>
</g>
<!-- Node111 -->
<g id="node32" class="node">
<title>Node111</title>
<g id="a_node32"><a xlink:href="api_2spec_2packet__flags_8h.html" target="_top" xlink:title=" ">
<polygon fill="white" stroke="red" points="2269.5,-112.5 2269.5,-131.5 2355.5,-131.5 2355.5,-112.5 2269.5,-112.5"/>
<text text-anchor="middle" x="2312.5" y="-119.5" font-family="Helvetica,sans-Serif" font-size="10.00">packet_flags.h</text>
</a>
</g>
</g>
<!-- Node1&#45;&gt;Node111 -->
<g id="edge35" class="edge">
<title>Node1&#45;&gt;Node111</title>
<path fill="none" stroke="midnightblue" d="M1986.09,-170.95C2048.61,-162.71 2163.07,-147.26 2260.5,-132 2263.4,-131.55 2266.38,-131.07 2269.39,-130.57"/>
<polygon fill="midnightblue" stroke="midnightblue" points="1985.6,-167.48 1976.14,-172.25 1986.51,-174.42 1985.6,-167.48"/>
</g>
<!-- Node97 -->
<g id="node33" class="node">
<title>Node97</title>
<g id="a_node33"><a xlink:href="api_2spec_2packet__io__types_8h.html" target="_top" xlink:title=" ">
<polygon fill="white" stroke="red" points="2373.5,-112.5 2373.5,-131.5 2477.5,-131.5 2477.5,-112.5 2373.5,-112.5"/>
<text text-anchor="middle" x="2425.5" y="-119.5" font-family="Helvetica,sans-Serif" font-size="10.00">packet_io_types.h</text>
</a>
</g>
</g>
<!-- Node1&#45;&gt;Node97 -->
<g id="edge36" class="edge">
<title>Node1&#45;&gt;Node97</title>
<path fill="none" stroke="midnightblue" d="M1986.26,-172.68C2064.6,-165.3 2227.31,-149.38 2364.5,-132 2367.37,-131.64 2370.31,-131.25 2373.28,-130.85"/>
<polygon fill="midnightblue" stroke="midnightblue" points="1985.86,-169.2 1976.23,-173.62 1986.51,-176.17 1985.86,-169.2"/>
</g>
<!-- Node101 -->
<g id="node34" class="node">
<title>Node101</title>
<g id="a_node34"><a xlink:href="api_2spec_2pool_8h.html" target="_top" xlink:title=" ">
<polygon fill="white" stroke="red" points="2496,-112.5 2496,-131.5 2543,-131.5 2543,-112.5 2496,-112.5"/>
<text text-anchor="middle" x="2519.5" y="-119.5" font-family="Helvetica,sans-Serif" font-size="10.00">pool.h</text>
</a>
</g>
</g>
<!-- Node1&#45;&gt;Node101 -->
<g id="edge37" class="edge">
<title>Node1&#45;&gt;Node101</title>
<path fill="none" stroke="midnightblue" d="M1986.43,-176.04C2081.5,-173.47 2303.33,-164.23 2486.5,-132 2489.54,-131.46 2492.71,-130.78 2495.83,-130.02"/>
<polygon fill="midnightblue" stroke="midnightblue" points="1986.19,-172.55 1976.29,-176.31 1986.37,-179.55 1986.19,-172.55"/>
</g>
<!-- Node79 -->
<g id="node35" class="node">
<title>Node79</title>
<g id="a_node35"><a xlink:href="api_2spec_2pool__types_8h.html" target="_top" xlink:title=" ">
<polygon fill="white" stroke="red" points="2561,-112.5 2561,-131.5 2640,-131.5 2640,-112.5 2561,-112.5"/>
<text text-anchor="middle" x="2600.5" y="-119.5" font-family="Helvetica,sans-Serif" font-size="10.00">pool_types.h</text>
</a>
</g>
</g>
<!-- Node1&#45;&gt;Node79 -->
<g id="edge38" class="edge">
<title>Node1&#45;&gt;Node79</title>
<path fill="none" stroke="midnightblue" d="M1986.32,-175.35C2089.14,-171.35 2342.26,-159.34 2552.5,-132 2555.19,-131.65 2557.96,-131.25 2560.74,-130.81"/>
<polygon fill="midnightblue" stroke="midnightblue" points="1986.12,-171.86 1976.26,-175.74 1986.39,-178.85 1986.12,-171.86"/>
</g>
<!-- Node169 -->
<g id="node36" class="node">
<title>Node169</title>
<g id="a_node36"><a xlink:href="api_2spec_2proto__stats__types_8h.html" target="_top" xlink:title=" ">
<polygon fill="white" stroke="red" points="2658,-112.5 2658,-131.5 2771,-131.5 2771,-112.5 2658,-112.5"/>
<text text-anchor="middle" x="2714.5" y="-119.5" font-family="Helvetica,sans-Serif" font-size="10.00">proto_stats_types.h</text>
</a>
</g>
</g>
<!-- Node1&#45;&gt;Node169 -->
<g id="edge39" class="edge">
<title>Node1&#45;&gt;Node169</title>
<path fill="none" stroke="midnightblue" d="M1986.26,-175.24C2100.01,-170.69 2400.14,-157.13 2649.5,-132 2652.22,-131.73 2655,-131.42 2657.81,-131.1"/>
<polygon fill="midnightblue" stroke="midnightblue" points="1986.01,-171.75 1976.16,-175.64 1986.29,-178.74 1986.01,-171.75"/>
</g>
<!-- Node113 -->
<g id="node37" class="node">
<title>Node113</title>
<g id="a_node37"><a xlink:href="api_2spec_2queue_8h.html" target="_top" xlink:title=" ">
<polygon fill="white" stroke="red" points="2789.5,-112.5 2789.5,-131.5 2845.5,-131.5 2845.5,-112.5 2789.5,-112.5"/>
<text text-anchor="middle" x="2817.5" y="-119.5" font-family="Helvetica,sans-Serif" font-size="10.00">queue.h</text>
</a>
</g>
</g>
<!-- Node1&#45;&gt;Node113 -->
<g id="edge40" class="edge">
<title>Node1&#45;&gt;Node113</title>
<path fill="none" stroke="midnightblue" d="M1986.45,-177.52C2114.52,-178.29 2480.45,-176.13 2780.5,-132 2783.38,-131.58 2786.36,-131.03 2789.32,-130.42"/>
<polygon fill="midnightblue" stroke="midnightblue" points="1986.24,-174.02 1976.22,-177.45 1986.19,-181.02 1986.24,-174.02"/>
</g>
<!-- Node172 -->
<g id="node38" class="node">
<title>Node172</title>
<g id="a_node38"><a xlink:href="api_2spec_2random_8h.html" target="_top" xlink:title=" ">
<polygon fill="white" stroke="red" points="2864,-112.5 2864,-131.5 2927,-131.5 2927,-112.5 2864,-112.5"/>
<text text-anchor="middle" x="2895.5" y="-119.5" font-family="Helvetica,sans-Serif" font-size="10.00">random.h</text>
</a>
</g>
</g>
<!-- Node1&#45;&gt;Node172 -->
<g id="edge41" class="edge">
<title>Node1&#45;&gt;Node172</title>
<path fill="none" stroke="midnightblue" d="M1986.33,-177.45C2121.57,-178.14 2524.16,-176.07 2854.5,-132 2857.53,-131.6 2860.68,-131.08 2863.81,-130.5"/>
<polygon fill="midnightblue" stroke="midnightblue" points="1986.33,-173.95 1976.31,-177.39 1986.29,-180.95 1986.33,-173.95"/>
</g>
<!-- Node174 -->
<g id="node39" class="node">
<title>Node174</title>
<g id="a_node39"><a xlink:href="spec_2random__types_8h.html" target="_top" xlink:title=" ">
<polygon fill="white" stroke="red" points="2945,-112.5 2945,-131.5 3040,-131.5 3040,-112.5 2945,-112.5"/>
<text text-anchor="middle" x="2992.5" y="-119.5" font-family="Helvetica,sans-Serif" font-size="10.00">random_types.h</text>
</a>
</g>
</g>
<!-- Node1&#45;&gt;Node174 -->
<g id="edge42" class="edge">
<title>Node1&#45;&gt;Node174</title>
<path fill="none" stroke="midnightblue" d="M1986.44,-176.78C2129.43,-175.71 2572.03,-169.39 2936.5,-132 2939.24,-131.72 2942.06,-131.39 2944.89,-131.03"/>
<polygon fill="midnightblue" stroke="midnightblue" points="1986.25,-173.28 1976.28,-176.85 1986.3,-180.28 1986.25,-173.28"/>
</g>
<!-- Node176 -->
<g id="node40" class="node">
<title>Node176</title>
<g id="a_node40"><a xlink:href="spec_2reassembly_8h.html" target="_top" xlink:title=" ">
<polygon fill="white" stroke="red" points="3058,-112.5 3058,-131.5 3139,-131.5 3139,-112.5 3058,-112.5"/>
<text text-anchor="middle" x="3098.5" y="-119.5" font-family="Helvetica,sans-Serif" font-size="10.00">reassembly.h</text>
</a>
</g>
</g>
<!-- Node1&#45;&gt;Node176 -->
<g id="edge43" class="edge">
<title>Node1&#45;&gt;Node176</title>
<path fill="none" stroke="midnightblue" d="M1986.49,-177.46C2139.87,-178.46 2639.56,-177.73 3049.5,-132 3052.25,-131.69 3055.08,-131.32 3057.92,-130.91"/>
<polygon fill="midnightblue" stroke="midnightblue" points="1986.08,-173.96 1976.05,-177.39 1986.03,-180.96 1986.08,-173.96"/>
</g>
<!-- Node67 -->
<g id="node41" class="node">
<title>Node67</title>
<g id="a_node41"><a xlink:href="api_2spec_2schedule_8h.html" target="_top" xlink:title=" ">
<polygon fill="white" stroke="red" points="3157,-112.5 3157,-131.5 3226,-131.5 3226,-112.5 3157,-112.5"/>
<text text-anchor="middle" x="3191.5" y="-119.5" font-family="Helvetica,sans-Serif" font-size="10.00">schedule.h</text>
</a>
</g>
</g>
<!-- Node1&#45;&gt;Node67 -->
<g id="edge44" class="edge">
<title>Node1&#45;&gt;Node67</title>
<path fill="none" stroke="midnightblue" d="M1986.1,-176.32C2179.21,-173.34 2917.29,-160.29 3148.5,-132 3151.23,-131.67 3154.03,-131.25 3156.85,-130.78"/>
<polygon fill="midnightblue" stroke="midnightblue" points="1985.95,-172.82 1976,-176.47 1986.06,-179.82 1985.95,-172.82"/>
</g>
<!-- Node69 -->
<g id="node42" class="node">
<title>Node69</title>
<g id="a_node42"><a xlink:href="api_2spec_2schedule__types_8h.html" target="_top" xlink:title=" ">
<polygon fill="white" stroke="red" points="3244,-112.5 3244,-131.5 3345,-131.5 3345,-112.5 3244,-112.5"/>
<text text-anchor="middle" x="3294.5" y="-119.5" font-family="Helvetica,sans-Serif" font-size="10.00">schedule_types.h</text>
</a>
</g>
</g>
<!-- Node1&#45;&gt;Node69 -->
<g id="edge45" class="edge">
<title>Node1&#45;&gt;Node69</title>
<path fill="none" stroke="midnightblue" d="M1986.23,-177.34C2154.98,-178.16 2748.62,-177.43 3235.5,-132 3238.18,-131.75 3240.93,-131.46 3243.7,-131.13"/>
<polygon fill="midnightblue" stroke="midnightblue" points="1986.21,-173.84 1976.19,-177.29 1986.17,-180.84 1986.21,-173.84"/>
</g>
<!-- Node178 -->
<g id="node43" class="node">
<title>Node178</title>
<g id="a_node43"><a xlink:href="api_2spec_2stash__types_8h.html" target="_top" xlink:title=" ">
<polygon fill="white" stroke="red" points="3363.5,-112.5 3363.5,-131.5 3447.5,-131.5 3447.5,-112.5 3363.5,-112.5"/>
<text text-anchor="middle" x="3405.5" y="-119.5" font-family="Helvetica,sans-Serif" font-size="10.00">stash_types.h</text>
</a>
</g>
</g>
<!-- Node1&#45;&gt;Node178 -->
<g id="edge46" class="edge">
<title>Node1&#45;&gt;Node178</title>
<path fill="none" stroke="midnightblue" d="M1986.5,-176.41C2200.04,-173.58 3080.27,-160.41 3354.5,-132 3357.36,-131.7 3360.31,-131.34 3363.26,-130.93"/>
<polygon fill="midnightblue" stroke="midnightblue" points="1986.21,-172.91 1976.26,-176.54 1986.3,-179.91 1986.21,-172.91"/>
</g>
<!-- Node182 -->
<g id="node44" class="node">
<title>Node182</title>
<g id="a_node44"><a xlink:href="api_2spec_2std_8h.html" target="_top" xlink:title=" ">
<polygon fill="white" stroke="red" points="3466,-112.5 3466,-131.5 3507,-131.5 3507,-112.5 3466,-112.5"/>
<text text-anchor="middle" x="3486.5" y="-119.5" font-family="Helvetica,sans-Serif" font-size="10.00">std.h</text>
</a>
</g>
</g>
<!-- Node1&#45;&gt;Node182 -->
<g id="edge47" class="edge">
<title>Node1&#45;&gt;Node182</title>
<path fill="none" stroke="midnightblue" d="M1986.35,-177.26C2209.18,-178.23 3163.18,-179.5 3456.5,-132 3459.51,-131.51 3462.63,-130.81 3465.68,-130.01"/>
<polygon fill="midnightblue" stroke="midnightblue" points="1986.31,-173.76 1976.29,-177.21 1986.28,-180.76 1986.31,-173.76"/>
</g>
<!-- Node184 -->
<g id="node45" class="node">
<title>Node184</title>
<g id="a_node45"><a xlink:href="spec_2threshold_8h.html" target="_top" xlink:title=" ">
<polygon fill="white" stroke="red" points="3525,-112.5 3525,-131.5 3596,-131.5 3596,-112.5 3525,-112.5"/>
<text text-anchor="middle" x="3560.5" y="-119.5" font-family="Helvetica,sans-Serif" font-size="10.00">threshold.h</text>
</a>
</g>
</g>
<!-- Node1&#45;&gt;Node184 -->
<g id="edge48" class="edge">
<title>Node1&#45;&gt;Node184</title>
<path fill="none" stroke="midnightblue" d="M1986.62,-176.76C2215.07,-175.41 3209,-167.56 3516.5,-132 3519.13,-131.7 3521.84,-131.31 3524.56,-130.88"/>
<polygon fill="midnightblue" stroke="midnightblue" points="1986.3,-173.26 1976.32,-176.82 1986.34,-180.26 1986.3,-173.26"/>
</g>
<!-- Node186 -->
<g id="node46" class="node">
<title>Node186</title>
<g id="a_node46"><a xlink:href="api_2spec_2thrmask_8h.html" target="_top" xlink:title=" ">
<polygon fill="white" stroke="red" points="3614.5,-112.5 3614.5,-131.5 3680.5,-131.5 3680.5,-112.5 3614.5,-112.5"/>
<text text-anchor="middle" x="3647.5" y="-119.5" font-family="Helvetica,sans-Serif" font-size="10.00">thrmask.h</text>
</a>
</g>
</g>
<!-- Node1&#45;&gt;Node186 -->
<g id="edge49" class="edge">
<title>Node1&#45;&gt;Node186</title>
<path fill="none" stroke="midnightblue" d="M1986.59,-176.9C2222.74,-176.21 3279.58,-170.98 3605.5,-132 3608.31,-131.66 3611.22,-131.23 3614.12,-130.73"/>
<polygon fill="midnightblue" stroke="midnightblue" points="1986.28,-173.4 1976.29,-176.93 1986.3,-180.4 1986.28,-173.4"/>
</g>
<!-- Node187 -->
<g id="node47" class="node">
<title>Node187</title>
<g id="a_node47"><a xlink:href="api_2spec_2time_8h.html" target="_top" xlink:title=" ">
<polygon fill="white" stroke="red" points="3698.5,-112.5 3698.5,-131.5 3746.5,-131.5 3746.5,-112.5 3698.5,-112.5"/>
<text text-anchor="middle" x="3722.5" y="-119.5" font-family="Helvetica,sans-Serif" font-size="10.00">time.h</text>
</a>
</g>
</g>
<!-- Node1&#45;&gt;Node187 -->
<g id="edge50" class="edge">
<title>Node1&#45;&gt;Node187</title>
<path fill="none" stroke="midnightblue" d="M1986.25,-177.32C2228.95,-178.73 3347.11,-182.34 3689.5,-132 3692.44,-131.57 3695.49,-130.96 3698.49,-130.27"/>
<polygon fill="midnightblue" stroke="midnightblue" points="1986.04,-173.82 1976.02,-177.26 1985.99,-180.81 1986.04,-173.82"/>
</g>
<!-- Node189 -->
<g id="node48" class="node">
<title>Node189</title>
<g id="a_node48"><a xlink:href="api_2spec_2timer__types_8h.html" target="_top" xlink:title=" ">
<polygon fill="white" stroke="red" points="3764.5,-112.5 3764.5,-131.5 3848.5,-131.5 3848.5,-112.5 3764.5,-112.5"/>
<text text-anchor="middle" x="3806.5" y="-119.5" font-family="Helvetica,sans-Serif" font-size="10.00">timer_types.h</text>
</a>
</g>
</g>
<!-- Node1&#45;&gt;Node189 -->
<g id="edge51" class="edge">
<title>Node1&#45;&gt;Node189</title>
<path fill="none" stroke="midnightblue" d="M1986.36,-176.79C2234.51,-175.54 3397.41,-167.83 3755.5,-132 3758.36,-131.71 3761.31,-131.36 3764.27,-130.96"/>
<polygon fill="midnightblue" stroke="midnightblue" points="1986.22,-173.29 1976.23,-176.84 1986.25,-180.29 1986.22,-173.29"/>
</g>
<!-- Node99 -->
<g id="node49" class="node">
<title>Node99</title>
<g id="a_node49"><a xlink:href="api_2spec_2traffic__mngr_8h.html" target="_top" xlink:title=" ">
<polygon fill="white" stroke="red" points="3866.5,-112.5 3866.5,-131.5 3950.5,-131.5 3950.5,-112.5 3866.5,-112.5"/>
<text text-anchor="middle" x="3908.5" y="-119.5" font-family="Helvetica,sans-Serif" font-size="10.00">traffic_mngr.h</text>
</a>
</g>
</g>
<!-- Node1&#45;&gt;Node99 -->
<g id="edge52" class="edge">
<title>Node1&#45;&gt;Node99</title>
<path fill="none" stroke="midnightblue" d="M1986.09,-176.86C2241.89,-175.97 3477.87,-169.73 3857.5,-132 3860.36,-131.72 3863.31,-131.36 3866.27,-130.96"/>
<polygon fill="midnightblue" stroke="midnightblue" points="1986.01,-173.36 1976.02,-176.9 1986.03,-180.36 1986.01,-173.36"/>
</g>
<!-- Node191 -->
<g id="node50" class="node">
<title>Node191</title>
<g id="a_node50"><a xlink:href="system__info_8h.html" target="_top" xlink:title=" ">
<polygon fill="white" stroke="black" points="1171.5,-56.5 1171.5,-75.5 1257.5,-75.5 1257.5,-56.5 1171.5,-56.5"/>
<text text-anchor="middle" x="1214.5" y="-63.5" font-family="Helvetica,sans-Serif" font-size="10.00">system_info.h</text>
</a>
</g>
</g>
<!-- Node1&#45;&gt;Node191 -->
<g id="edge53" class="edge">
<title>Node1&#45;&gt;Node191</title>
<path fill="none" stroke="midnightblue" d="M1892.91,-175.59C1752.54,-171.1 1339.93,-155.99 1284.5,-132 1255.89,-119.62 1231.55,-90.37 1220.64,-75.7"/>
<polygon fill="midnightblue" stroke="midnightblue" points="1892.82,-179.09 1902.93,-175.91 1893.04,-172.09 1892.82,-179.09"/>
</g>
<!-- Node3 -->
<g id="node3" class="node">
<title>Node3</title>
<g id="a_node3"><a xlink:href="arch_2arm32-linux_2odp_2api_2abi_2atomic_8h_source.html" target="_top" xlink:title=" ">
<polygon fill="white" stroke="black" points="0,-56.5 0,-75.5 59,-75.5 59,-56.5 0,-56.5"/>
<text text-anchor="middle" x="29.5" y="-63.5" font-family="Helvetica,sans-Serif" font-size="10.00">atomic.h</text>
</a>
</g>
</g>
<!-- Node2&#45;&gt;Node3 -->
<g id="edge2" class="edge">
<title>Node2&#45;&gt;Node3</title>
<path fill="none" stroke="midnightblue" d="M55.44,-103.86C48.86,-94.5 40.99,-83.33 35.66,-75.75"/>
<polygon fill="midnightblue" stroke="midnightblue" points="52.61,-105.92 61.23,-112.08 58.33,-101.89 52.61,-105.92"/>
</g>
<!-- Node4 -->
<g id="node4" class="node">
<title>Node4</title>
<g id="a_node4"><a xlink:href="arch_2arm64-linux_2odp_2api_2abi_2atomic_8h_source.html" target="_top" xlink:title=" ">
<polygon fill="white" stroke="black" points="77,-56.5 77,-75.5 136,-75.5 136,-56.5 77,-56.5"/>
<text text-anchor="middle" x="106.5" y="-63.5" font-family="Helvetica,sans-Serif" font-size="10.00">atomic.h</text>
</a>
</g>
</g>
<!-- Node2&#45;&gt;Node4 -->
<g id="edge3" class="edge">
<title>Node2&#45;&gt;Node4</title>
<path fill="none" stroke="midnightblue" d="M79.88,-103.86C86.64,-94.5 94.71,-83.33 100.18,-75.75"/>
<polygon fill="midnightblue" stroke="midnightblue" points="76.96,-101.93 73.94,-112.08 82.63,-106.03 76.96,-101.93"/>
</g>
<!-- Node17&#45;&gt;Node18 -->
<g id="edge15" class="edge">
<title>Node17&#45;&gt;Node18</title>
<path fill="none" stroke="midnightblue" d="M1304.5,-45.8C1304.5,-36.91 1304.5,-26.78 1304.5,-19.75"/>
<polygon fill="midnightblue" stroke="midnightblue" points="1301,-46.08 1304.5,-56.08 1308,-46.08 1301,-46.08"/>
</g>
<!-- Node84&#45;&gt;Node18 -->
<g id="edge18" class="edge">
<title>Node84&#45;&gt;Node18</title>
<path fill="none" stroke="midnightblue" d="M1466.3,-53.83C1427.78,-43.63 1371.68,-28.78 1336.67,-19.52"/>
<polygon fill="midnightblue" stroke="midnightblue" points="1465.61,-57.27 1476.18,-56.44 1467.4,-50.5 1465.61,-57.27"/>
</g>
<!-- Node84&#45;&gt;Node85 -->
<g id="edge17" class="edge">
<title>Node84&#45;&gt;Node85</title>
<path fill="none" stroke="midnightblue" d="M1563.31,-62.6C1772.33,-53.46 2516.93,-20.91 2701.75,-12.83"/>
<polygon fill="midnightblue" stroke="midnightblue" points="1563.02,-59.11 1553.18,-63.05 1563.33,-66.11 1563.02,-59.11"/>
</g>
<!-- Node162&#45;&gt;Node18 -->
<g id="edge20" class="edge">
<title>Node162&#45;&gt;Node18</title>
<path fill="none" stroke="midnightblue" d="M1368.78,-50.9C1352.83,-41 1332,-28.07 1318.44,-19.65"/>
<polygon fill="midnightblue" stroke="midnightblue" points="1367.18,-54.02 1377.52,-56.32 1370.87,-48.08 1367.18,-54.02"/>
</g>
<!-- Node83&#45;&gt;Node84 -->
<g id="edge24" class="edge">
<title>Node83&#45;&gt;Node84</title>
<path fill="none" stroke="midnightblue" d="M1517.68,-102.4C1515.33,-93.36 1512.63,-82.94 1510.77,-75.75"/>
<polygon fill="midnightblue" stroke="midnightblue" points="1514.29,-103.28 1520.19,-112.08 1521.07,-101.52 1514.29,-103.28"/>
</g>
<!-- Node191&#45;&gt;Node18 -->
<g id="edge54" class="edge">
<title>Node191&#45;&gt;Node18</title>
<path fill="none" stroke="midnightblue" d="M1237.54,-51.18C1254.1,-41.24 1275.92,-28.15 1290.08,-19.65"/>
<polygon fill="midnightblue" stroke="midnightblue" points="1235.73,-48.18 1228.96,-56.32 1239.34,-54.18 1235.73,-48.18"/>
</g>
</g>
</svg>
