<?xml version="1.0" encoding="UTF-8" standalone="no"?>
<!DOCTYPE svg PUBLIC "-//W3C//DTD SVG 1.1//EN"
 "http://www.w3.org/Graphics/SVG/1.1/DTD/svg11.dtd">
<!-- Generated by graphviz version 2.43.0 (0)
 -->
<!-- Title: crypto_types.h Pages: 1 -->
<svg width="1365pt" height="1113pt"
 viewBox="0.00 0.00 1365.00 1113.00" xmlns="http://www.w3.org/2000/svg" xmlns:xlink="http://www.w3.org/1999/xlink">
<g id="graph0" class="graph" transform="scale(1 1) rotate(0) translate(4 1109)">
<title>crypto_types.h</title>
<polygon fill="white" stroke="transparent" points="-4,4 -4,-1109 1361,-1109 1361,4 -4,4"/>
<!-- Node1 -->
<g id="node1" class="node">
<title>Node1</title>
<g id="a_node1"><a xlink:title=" ">
<polygon fill="#bfbfbf" stroke="black" points="1006.5,-1085.5 1006.5,-1104.5 1095.5,-1104.5 1095.5,-1085.5 1006.5,-1085.5"/>
<text text-anchor="middle" x="1051" y="-1092.5" font-family="Helvetica,sans-Serif" font-size="10.00">crypto_types.h</text>
</a>
</g>
</g>
<!-- Node2 -->
<g id="node2" class="node">
<title>Node2</title>
<g id="a_node2"><a xlink:title=" ">
<polygon fill="white" stroke="#bfbfbf" points="936,-1018.5 936,-1048.5 1040,-1048.5 1040,-1018.5 936,-1018.5"/>
<text text-anchor="start" x="944" y="-1036.5" font-family="Helvetica,sans-Serif" font-size="10.00">odp/api/abi/crypto</text>
<text text-anchor="middle" x="988" y="-1025.5" font-family="Helvetica,sans-Serif" font-size="10.00">_types.h</text>
</a>
</g>
</g>
<!-- Node1&#45;&gt;Node2 -->
<g id="edge1" class="edge">
<title>Node1&#45;&gt;Node2</title>
<path fill="none" stroke="midnightblue" d="M1041.97,-1085.48C1033.76,-1077.72 1021.29,-1065.94 1010.41,-1055.66"/>
<polygon fill="midnightblue" stroke="midnightblue" points="1012.52,-1052.84 1002.85,-1048.52 1007.71,-1057.93 1012.52,-1052.84"/>
</g>
<!-- Node3 -->
<g id="node3" class="node">
<title>Node3</title>
<g id="a_node3"><a xlink:href="api_2spec_2crypto__types_8h.html" target="_top" xlink:title=" ">
<polygon fill="white" stroke="black" points="1058,-1018.5 1058,-1048.5 1170,-1048.5 1170,-1018.5 1058,-1018.5"/>
<text text-anchor="start" x="1066" y="-1036.5" font-family="Helvetica,sans-Serif" font-size="10.00">odp/api/spec/crypto</text>
<text text-anchor="middle" x="1114" y="-1025.5" font-family="Helvetica,sans-Serif" font-size="10.00">_types.h</text>
</a>
</g>
</g>
<!-- Node1&#45;&gt;Node3 -->
<g id="edge2" class="edge">
<title>Node1&#45;&gt;Node3</title>
<path fill="none" stroke="midnightblue" d="M1060.03,-1085.48C1068.24,-1077.72 1080.71,-1065.94 1091.59,-1055.66"/>
<polygon fill="midnightblue" stroke="midnightblue" points="1094.29,-1057.93 1099.15,-1048.52 1089.48,-1052.84 1094.29,-1057.93"/>
</g>
<!-- Node4 -->
<g id="node4" class="node">
<title>Node4</title>
<g id="a_node4"><a xlink:href="visibility__begin_8h_source.html" target="_top" xlink:title=" ">
<polygon fill="white" stroke="black" points="912.5,-0.5 912.5,-19.5 1033.5,-19.5 1033.5,-0.5 912.5,-0.5"/>
<text text-anchor="middle" x="973" y="-7.5" font-family="Helvetica,sans-Serif" font-size="10.00">odp/visibility_begin.h</text>
</a>
</g>
</g>
<!-- Node3&#45;&gt;Node4 -->
<g id="edge3" class="edge">
<title>Node3&#45;&gt;Node4</title>
<path fill="none" stroke="midnightblue" d="M1170.41,-1031.56C1216.21,-1028.06 1280.15,-1016.63 1324,-982 1349.42,-961.92 1357,-949.4 1357,-917 1357,-917 1357,-917 1357,-132 1357,-77.93 1311.49,-77.78 1262,-56 1191.92,-25.16 1104.14,-15.04 1043.82,-11.93"/>
<polygon fill="midnightblue" stroke="midnightblue" points="1043.79,-8.42 1033.64,-11.45 1043.46,-15.41 1043.79,-8.42"/>
</g>
<!-- Node5 -->
<g id="node5" class="node">
<title>Node5</title>
<g id="a_node5"><a xlink:href="deprecated_8h.html" target="_top" xlink:title=" ">
<polygon fill="white" stroke="black" points="1195.5,-962.5 1195.5,-981.5 1314.5,-981.5 1314.5,-962.5 1195.5,-962.5"/>
<text text-anchor="middle" x="1255" y="-969.5" font-family="Helvetica,sans-Serif" font-size="10.00">odp/api/deprecated.h</text>
</a>
</g>
</g>
<!-- Node3&#45;&gt;Node5 -->
<g id="edge4" class="edge">
<title>Node3&#45;&gt;Node5</title>
<path fill="none" stroke="midnightblue" d="M1147.42,-1018.4C1170.97,-1008.46 1202.24,-995.26 1224.99,-985.66"/>
<polygon fill="midnightblue" stroke="midnightblue" points="1226.63,-988.77 1234.48,-981.66 1223.91,-982.32 1226.63,-988.77"/>
</g>
<!-- Node7 -->
<g id="node7" class="node">
<title>Node7</title>
<g id="a_node7"><a xlink:href="visibility__end_8h_source.html" target="_top" xlink:title=" ">
<polygon fill="white" stroke="black" points="153,-0.5 153,-19.5 265,-19.5 265,-0.5 153,-0.5"/>
<text text-anchor="middle" x="209" y="-7.5" font-family="Helvetica,sans-Serif" font-size="10.00">odp/visibility_end.h</text>
</a>
</g>
</g>
<!-- Node3&#45;&gt;Node7 -->
<g id="edge67" class="edge">
<title>Node3&#45;&gt;Node7</title>
<path fill="none" stroke="midnightblue" d="M1057.74,-1019.3C1054.79,-1018.81 1051.87,-1018.37 1049,-1018 850.08,-992.06 342.41,-1027.36 147,-982 77.42,-965.85 0,-988.44 0,-917 0,-917 0,-917 0,-132 0,-92.75 13.8,-79.82 45,-56 72.95,-34.66 110.4,-23.44 142.45,-17.54"/>
<polygon fill="midnightblue" stroke="midnightblue" points="143.38,-20.93 152.65,-15.8 142.2,-14.03 143.38,-20.93"/>
</g>
<!-- Node8 -->
<g id="node8" class="node">
<title>Node8</title>
<g id="a_node8"><a xlink:href="api_2packet__types_8h.html" target="_top" xlink:title=" ">
<polygon fill="white" stroke="black" points="222.5,-738.5 222.5,-757.5 351.5,-757.5 351.5,-738.5 222.5,-738.5"/>
<text text-anchor="middle" x="287" y="-745.5" font-family="Helvetica,sans-Serif" font-size="10.00">odp/api/packet_types.h</text>
</a>
</g>
</g>
<!-- Node3&#45;&gt;Node8 -->
<g id="edge8" class="edge">
<title>Node3&#45;&gt;Node8</title>
<path fill="none" stroke="midnightblue" d="M1057.71,-1019.52C1054.77,-1018.98 1051.85,-1018.46 1049,-1018 941.72,-1000.53 76,-1025.69 76,-917 76,-917 76,-917 76,-859 76,-795.7 151.58,-768.77 212.28,-757.35"/>
<polygon fill="midnightblue" stroke="midnightblue" points="213.02,-760.77 222.26,-755.58 211.8,-753.88 213.02,-760.77"/>
</g>
<!-- Node15 -->
<g id="node15" class="node">
<title>Node15</title>
<g id="a_node15"><a xlink:href="api_2std__types_8h.html" target="_top" xlink:title=" ">
<polygon fill="white" stroke="black" points="529,-235.5 529,-254.5 641,-254.5 641,-235.5 529,-235.5"/>
<text text-anchor="middle" x="585" y="-242.5" font-family="Helvetica,sans-Serif" font-size="10.00">odp/api/std_types.h</text>
</a>
</g>
</g>
<!-- Node3&#45;&gt;Node15 -->
<g id="edge66" class="edge">
<title>Node3&#45;&gt;Node15</title>
<path fill="none" stroke="midnightblue" d="M1125.5,-1018.16C1141.09,-997.23 1167,-956.49 1167,-917 1167,-917 1167,-917 1167,-562.5 1167,-387.56 1040.78,-364.44 882,-291 807.91,-256.73 713.38,-247.54 651.11,-245.58"/>
<polygon fill="midnightblue" stroke="midnightblue" points="651.11,-242.08 641.02,-245.32 650.92,-249.08 651.11,-242.08"/>
</g>
<!-- Node31 -->
<g id="node31" class="node">
<title>Node31</title>
<g id="a_node31"><a xlink:href="api_2pool__types_8h.html" target="_top" xlink:title=" ">
<polygon fill="white" stroke="black" points="950,-962.5 950,-981.5 1068,-981.5 1068,-962.5 950,-962.5"/>
<text text-anchor="middle" x="1009" y="-969.5" font-family="Helvetica,sans-Serif" font-size="10.00">odp/api/pool_types.h</text>
</a>
</g>
</g>
<!-- Node3&#45;&gt;Node31 -->
<g id="edge47" class="edge">
<title>Node3&#45;&gt;Node31</title>
<path fill="none" stroke="midnightblue" d="M1089.12,-1018.4C1072.29,-1008.86 1050.16,-996.32 1033.43,-986.84"/>
<polygon fill="midnightblue" stroke="midnightblue" points="1034.7,-983.54 1024.28,-981.66 1031.25,-989.63 1034.7,-983.54"/>
</g>
<!-- Node6 -->
<g id="node6" class="node">
<title>Node6</title>
<g id="a_node6"><a xlink:href="spec_2deprecated_8h.html" target="_top" xlink:title=" ">
<polygon fill="white" stroke="black" points="1031.5,-62 1031.5,-81 1176.5,-81 1176.5,-62 1031.5,-62"/>
<text text-anchor="middle" x="1104" y="-69" font-family="Helvetica,sans-Serif" font-size="10.00">odp/api/spec/deprecated.h</text>
</a>
</g>
</g>
<!-- Node5&#45;&gt;Node6 -->
<g id="edge5" class="edge">
<title>Node5&#45;&gt;Node6</title>
<path fill="none" stroke="midnightblue" d="M1248.05,-962.48C1234.31,-944.75 1205,-902.12 1205,-861 1205,-861 1205,-861 1205,-188 1205,-141.89 1158.83,-105.33 1128.92,-86.49"/>
<polygon fill="midnightblue" stroke="midnightblue" points="1130.59,-83.41 1120.23,-81.22 1126.96,-89.4 1130.59,-83.41"/>
</g>
<!-- Node6&#45;&gt;Node4 -->
<g id="edge6" class="edge">
<title>Node6&#45;&gt;Node4</title>
<path fill="none" stroke="midnightblue" d="M1085.23,-61.98C1063.15,-51.95 1026.28,-35.2 1000.86,-23.65"/>
<polygon fill="midnightblue" stroke="midnightblue" points="1002.29,-20.46 991.73,-19.51 999.39,-26.83 1002.29,-20.46"/>
</g>
<!-- Node6&#45;&gt;Node7 -->
<g id="edge7" class="edge">
<title>Node6&#45;&gt;Node7</title>
<path fill="none" stroke="midnightblue" d="M1061.16,-61.93C1048.59,-59.68 1034.78,-57.48 1022,-56 745.95,-24.07 414.46,-14.64 275.45,-11.99"/>
<polygon fill="midnightblue" stroke="midnightblue" points="275.44,-8.49 265.38,-11.8 275.31,-15.49 275.44,-8.49"/>
</g>
<!-- Node9 -->
<g id="node9" class="node">
<title>Node9</title>
<g id="a_node9"><a xlink:title=" ">
<polygon fill="white" stroke="#bfbfbf" points="234,-671.5 234,-701.5 340,-701.5 340,-671.5 234,-671.5"/>
<text text-anchor="start" x="242" y="-689.5" font-family="Helvetica,sans-Serif" font-size="10.00">odp/api/abi/packet</text>
<text text-anchor="middle" x="287" y="-678.5" font-family="Helvetica,sans-Serif" font-size="10.00">_io_types.h</text>
</a>
</g>
</g>
<!-- Node8&#45;&gt;Node9 -->
<g id="edge9" class="edge">
<title>Node8&#45;&gt;Node9</title>
<path fill="none" stroke="midnightblue" d="M287,-738.48C287,-731.47 287,-721.19 287,-711.7"/>
<polygon fill="midnightblue" stroke="midnightblue" points="290.5,-711.52 287,-701.52 283.5,-711.52 290.5,-711.52"/>
</g>
<!-- Node10 -->
<g id="node10" class="node">
<title>Node10</title>
<g id="a_node10"><a xlink:title=" ">
<polygon fill="white" stroke="#bfbfbf" points="110,-671.5 110,-701.5 216,-701.5 216,-671.5 110,-671.5"/>
<text text-anchor="start" x="118" y="-689.5" font-family="Helvetica,sans-Serif" font-size="10.00">odp/api/abi/packet</text>
<text text-anchor="middle" x="163" y="-678.5" font-family="Helvetica,sans-Serif" font-size="10.00">_types.h</text>
</a>
</g>
</g>
<!-- Node8&#45;&gt;Node10 -->
<g id="edge10" class="edge">
<title>Node8&#45;&gt;Node10</title>
<path fill="none" stroke="midnightblue" d="M269.23,-738.48C251.58,-730 223.93,-716.74 201.27,-705.86"/>
<polygon fill="midnightblue" stroke="midnightblue" points="202.75,-702.69 192.22,-701.52 199.73,-709 202.75,-702.69"/>
</g>
<!-- Node11 -->
<g id="node11" class="node">
<title>Node11</title>
<g id="a_node11"><a xlink:href="api_2spec_2packet__types_8h.html" target="_top" xlink:title=" ">
<polygon fill="white" stroke="black" points="358.5,-671.5 358.5,-701.5 471.5,-701.5 471.5,-671.5 358.5,-671.5"/>
<text text-anchor="start" x="366.5" y="-689.5" font-family="Helvetica,sans-Serif" font-size="10.00">odp/api/spec/packet</text>
<text text-anchor="middle" x="415" y="-678.5" font-family="Helvetica,sans-Serif" font-size="10.00">_types.h</text>
</a>
</g>
</g>
<!-- Node8&#45;&gt;Node11 -->
<g id="edge11" class="edge">
<title>Node8&#45;&gt;Node11</title>
<path fill="none" stroke="midnightblue" d="M305.34,-738.48C323.57,-730 352.1,-716.74 375.5,-705.86"/>
<polygon fill="midnightblue" stroke="midnightblue" points="377.24,-708.91 384.83,-701.52 374.29,-702.56 377.24,-708.91"/>
</g>
<!-- Node11&#45;&gt;Node4 -->
<g id="edge12" class="edge">
<title>Node11&#45;&gt;Node4</title>
<path fill="none" stroke="midnightblue" d="M471.51,-684.42C607.71,-680.31 943,-660.42 943,-564.5 943,-564.5 943,-564.5 943,-501 943,-437.29 944.24,-420.71 933,-358 915.43,-259.99 891.94,-240.13 870,-143 861.43,-105.08 839.23,-88.21 861,-56 871.99,-39.74 889.94,-29.35 908.27,-22.72"/>
<polygon fill="midnightblue" stroke="midnightblue" points="909.45,-26.02 917.86,-19.58 907.27,-19.36 909.45,-26.02"/>
</g>
<!-- Node11&#45;&gt;Node7 -->
<g id="edge46" class="edge">
<title>Node11&#45;&gt;Node7</title>
<path fill="none" stroke="midnightblue" d="M369.63,-671.49C277.26,-641.6 76,-568.92 76,-503 76,-503 76,-503 76,-132 76,-96.58 76.05,-82.1 100,-56 114.81,-39.86 136.28,-29.35 156.26,-22.59"/>
<polygon fill="midnightblue" stroke="midnightblue" points="157.42,-25.89 165.91,-19.56 155.32,-19.21 157.42,-25.89"/>
</g>
<!-- Node12 -->
<g id="node12" class="node">
<title>Node12</title>
<g id="a_node12"><a xlink:href="api_2proto__stats__types_8h.html" target="_top" xlink:title=" ">
<polygon fill="white" stroke="black" points="286,-358.5 286,-388.5 396,-388.5 396,-358.5 286,-358.5"/>
<text text-anchor="start" x="294" y="-376.5" font-family="Helvetica,sans-Serif" font-size="10.00">odp/api/proto_stats</text>
<text text-anchor="middle" x="341" y="-365.5" font-family="Helvetica,sans-Serif" font-size="10.00">_types.h</text>
</a>
</g>
</g>
<!-- Node11&#45;&gt;Node12 -->
<g id="edge13" class="edge">
<title>Node11&#45;&gt;Node12</title>
<path fill="none" stroke="midnightblue" d="M407.69,-671.4C396.91,-649.26 378,-604.7 378,-564.5 378,-564.5 378,-564.5 378,-501 378,-463.79 363.07,-422.82 352.18,-397.87"/>
<polygon fill="midnightblue" stroke="midnightblue" points="355.27,-396.2 347.96,-388.53 348.89,-399.08 355.27,-396.2"/>
</g>
<!-- Node22 -->
<g id="node22" class="node">
<title>Node22</title>
<g id="a_node22"><a xlink:href="api_2queue__types_8h.html" target="_top" xlink:title=" ">
<polygon fill="white" stroke="black" points="643.5,-615.5 643.5,-634.5 770.5,-634.5 770.5,-615.5 643.5,-615.5"/>
<text text-anchor="middle" x="707" y="-622.5" font-family="Helvetica,sans-Serif" font-size="10.00">odp/api/queue_types.h</text>
</a>
</g>
</g>
<!-- Node11&#45;&gt;Node22 -->
<g id="edge29" class="edge">
<title>Node11&#45;&gt;Node22</title>
<path fill="none" stroke="midnightblue" d="M471.65,-673.96C524.82,-663.12 603.69,-647.05 655.22,-636.55"/>
<polygon fill="midnightblue" stroke="midnightblue" points="656.05,-639.95 665.15,-634.53 654.65,-633.09 656.05,-639.95"/>
</g>
<!-- Node13 -->
<g id="node13" class="node">
<title>Node13</title>
<g id="a_node13"><a xlink:title=" ">
<polygon fill="white" stroke="#bfbfbf" points="142,-291.5 142,-321.5 270,-321.5 270,-291.5 142,-291.5"/>
<text text-anchor="start" x="150" y="-309.5" font-family="Helvetica,sans-Serif" font-size="10.00">odp/api/abi/proto_stats</text>
<text text-anchor="middle" x="206" y="-298.5" font-family="Helvetica,sans-Serif" font-size="10.00">_types.h</text>
</a>
</g>
</g>
<!-- Node12&#45;&gt;Node13 -->
<g id="edge14" class="edge">
<title>Node12&#45;&gt;Node13</title>
<path fill="none" stroke="midnightblue" d="M311.71,-358.4C291.98,-348.9 265.77,-336.28 244.38,-325.98"/>
<polygon fill="midnightblue" stroke="midnightblue" points="245.76,-322.76 235.24,-321.58 242.73,-329.07 245.76,-322.76"/>
</g>
<!-- Node14 -->
<g id="node14" class="node">
<title>Node14</title>
<g id="a_node14"><a xlink:href="api_2spec_2proto__stats__types_8h.html" target="_top" xlink:title=" ">
<polygon fill="white" stroke="black" points="326.5,-291.5 326.5,-321.5 433.5,-321.5 433.5,-291.5 326.5,-291.5"/>
<text text-anchor="start" x="334.5" y="-309.5" font-family="Helvetica,sans-Serif" font-size="10.00">odp/api/spec/proto</text>
<text text-anchor="middle" x="380" y="-298.5" font-family="Helvetica,sans-Serif" font-size="10.00">_stats_types.h</text>
</a>
</g>
</g>
<!-- Node12&#45;&gt;Node14 -->
<g id="edge15" class="edge">
<title>Node12&#45;&gt;Node14</title>
<path fill="none" stroke="midnightblue" d="M349.46,-358.4C354.37,-350.22 360.66,-339.73 366.26,-330.39"/>
<polygon fill="midnightblue" stroke="midnightblue" points="369.41,-331.95 371.55,-321.58 363.41,-328.35 369.41,-331.95"/>
</g>
<!-- Node14&#45;&gt;Node4 -->
<g id="edge16" class="edge">
<title>Node14&#45;&gt;Node4</title>
<path fill="none" stroke="midnightblue" d="M399.15,-291.41C432.47,-267.17 503.6,-216.55 567,-179 643.96,-133.41 666.78,-128.53 746,-87 771.89,-73.43 776.81,-66.72 804,-56 841.76,-41.11 886.16,-29.5 919.98,-21.81"/>
<polygon fill="midnightblue" stroke="midnightblue" points="921.11,-25.14 930.11,-19.55 919.59,-18.31 921.11,-25.14"/>
</g>
<!-- Node14&#45;&gt;Node7 -->
<g id="edge28" class="edge">
<title>Node14&#45;&gt;Node7</title>
<path fill="none" stroke="midnightblue" d="M342.92,-291.48C287.62,-269.4 190,-225.42 190,-190 190,-190 190,-190 190,-132 190,-95.29 198.64,-53.06 204.27,-29.45"/>
<polygon fill="midnightblue" stroke="midnightblue" points="207.67,-30.28 206.67,-19.73 200.87,-28.6 207.67,-30.28"/>
</g>
<!-- Node14&#45;&gt;Node15 -->
<g id="edge17" class="edge">
<title>Node14&#45;&gt;Node15</title>
<path fill="none" stroke="midnightblue" d="M428.32,-291.47C464.15,-281.08 512.38,-267.08 545.82,-257.37"/>
<polygon fill="midnightblue" stroke="midnightblue" points="547.06,-260.66 555.69,-254.51 545.11,-253.93 547.06,-260.66"/>
</g>
<!-- Node16 -->
<g id="node16" class="node">
<title>Node16</title>
<g id="a_node16"><a xlink:title=" ">
<polygon fill="white" stroke="#bfbfbf" points="576,-179.5 576,-198.5 706,-198.5 706,-179.5 576,-179.5"/>
<text text-anchor="middle" x="641" y="-186.5" font-family="Helvetica,sans-Serif" font-size="10.00">odp/api/abi/std_types.h</text>
</a>
</g>
</g>
<!-- Node15&#45;&gt;Node16 -->
<g id="edge18" class="edge">
<title>Node15&#45;&gt;Node16</title>
<path fill="none" stroke="midnightblue" d="M594,-235.32C602.19,-227.42 614.51,-215.55 624.47,-205.94"/>
<polygon fill="midnightblue" stroke="midnightblue" points="627.07,-208.29 631.84,-198.83 622.21,-203.26 627.07,-208.29"/>
</g>
<!-- Node17 -->
<g id="node17" class="node">
<title>Node17</title>
<g id="a_node17"><a xlink:href="api_2spec_2std__types_8h.html" target="_top" xlink:title=" ">
<polygon fill="white" stroke="black" points="382.5,-179.5 382.5,-198.5 519.5,-198.5 519.5,-179.5 382.5,-179.5"/>
<text text-anchor="middle" x="451" y="-186.5" font-family="Helvetica,sans-Serif" font-size="10.00">odp/api/spec/std_types.h</text>
</a>
</g>
</g>
<!-- Node15&#45;&gt;Node17 -->
<g id="edge19" class="edge">
<title>Node15&#45;&gt;Node17</title>
<path fill="none" stroke="midnightblue" d="M563.77,-235.44C541.62,-226.52 506.68,-212.44 481.56,-202.32"/>
<polygon fill="midnightblue" stroke="midnightblue" points="482.72,-199.01 472.13,-198.52 480.1,-205.5 482.72,-199.01"/>
</g>
<!-- Node17&#45;&gt;Node4 -->
<g id="edge20" class="edge">
<title>Node17&#45;&gt;Node4</title>
<path fill="none" stroke="midnightblue" d="M478.22,-179.37C498.99,-171.9 527.59,-159.68 549,-143 588.15,-112.5 575.68,-80.22 619,-56 666.12,-29.65 813.15,-18.32 902.22,-13.77"/>
<polygon fill="midnightblue" stroke="midnightblue" points="902.44,-17.27 912.25,-13.28 902.09,-10.28 902.44,-17.27"/>
</g>
<!-- Node17&#45;&gt;Node7 -->
<g id="edge27" class="edge">
<title>Node17&#45;&gt;Node7</title>
<path fill="none" stroke="midnightblue" d="M432.74,-179.38C415.99,-171.1 390.85,-157.7 371,-143 326.04,-109.69 324.07,-90.48 280,-56 265.2,-44.42 247.32,-33.1 233.21,-24.71"/>
<polygon fill="midnightblue" stroke="midnightblue" points="234.95,-21.68 224.55,-19.65 231.41,-27.72 234.95,-21.68"/>
</g>
<!-- Node18 -->
<g id="node18" class="node">
<title>Node18</title>
<g id="a_node18"><a xlink:title=" ">
<polygon fill="white" stroke="#bfbfbf" points="380.5,-123.5 380.5,-142.5 433.5,-142.5 433.5,-123.5 380.5,-123.5"/>
<text text-anchor="middle" x="407" y="-130.5" font-family="Helvetica,sans-Serif" font-size="10.00">stdint.h</text>
</a>
</g>
</g>
<!-- Node17&#45;&gt;Node18 -->
<g id="edge21" class="edge">
<title>Node17&#45;&gt;Node18</title>
<path fill="none" stroke="midnightblue" d="M443.73,-179.08C437.46,-171.38 428.21,-160.03 420.57,-150.65"/>
<polygon fill="midnightblue" stroke="midnightblue" points="423.16,-148.29 414.13,-142.75 417.73,-152.71 423.16,-148.29"/>
</g>
<!-- Node19 -->
<g id="node19" class="node">
<title>Node19</title>
<g id="a_node19"><a xlink:href="api_2align_8h.html" target="_top" xlink:title=" ">
<polygon fill="white" stroke="black" points="451.5,-123.5 451.5,-142.5 540.5,-142.5 540.5,-123.5 451.5,-123.5"/>
<text text-anchor="middle" x="496" y="-130.5" font-family="Helvetica,sans-Serif" font-size="10.00">odp/api/align.h</text>
</a>
</g>
</g>
<!-- Node17&#45;&gt;Node19 -->
<g id="edge22" class="edge">
<title>Node17&#45;&gt;Node19</title>
<path fill="none" stroke="midnightblue" d="M458.43,-179.08C464.85,-171.38 474.31,-160.03 482.12,-150.65"/>
<polygon fill="midnightblue" stroke="midnightblue" points="484.99,-152.67 488.71,-142.75 479.62,-148.19 484.99,-152.67"/>
</g>
<!-- Node20 -->
<g id="node20" class="node">
<title>Node20</title>
<g id="a_node20"><a xlink:title=" ">
<polygon fill="white" stroke="#bfbfbf" points="332.5,-62 332.5,-81 439.5,-81 439.5,-62 332.5,-62"/>
<text text-anchor="middle" x="386" y="-69" font-family="Helvetica,sans-Serif" font-size="10.00">odp/api/abi/align.h</text>
</a>
</g>
</g>
<!-- Node19&#45;&gt;Node20 -->
<g id="edge23" class="edge">
<title>Node19&#45;&gt;Node20</title>
<path fill="none" stroke="midnightblue" d="M480.24,-123.48C462.02,-113.62 431.83,-97.29 410.53,-85.77"/>
<polygon fill="midnightblue" stroke="midnightblue" points="412.19,-82.69 401.73,-81.01 408.86,-88.85 412.19,-82.69"/>
</g>
<!-- Node21 -->
<g id="node21" class="node">
<title>Node21</title>
<g id="a_node21"><a xlink:href="api_2spec_2align_8h.html" target="_top" xlink:title=" ">
<polygon fill="white" stroke="black" points="458,-62 458,-81 572,-81 572,-62 458,-62"/>
<text text-anchor="middle" x="515" y="-69" font-family="Helvetica,sans-Serif" font-size="10.00">odp/api/spec/align.h</text>
</a>
</g>
</g>
<!-- Node19&#45;&gt;Node21 -->
<g id="edge24" class="edge">
<title>Node19&#45;&gt;Node21</title>
<path fill="none" stroke="midnightblue" d="M498.72,-123.48C501.43,-114.99 505.67,-101.7 509.15,-90.82"/>
<polygon fill="midnightblue" stroke="midnightblue" points="512.57,-91.6 512.28,-81.01 505.91,-89.47 512.57,-91.6"/>
</g>
<!-- Node21&#45;&gt;Node4 -->
<g id="edge25" class="edge">
<title>Node21&#45;&gt;Node4</title>
<path fill="none" stroke="midnightblue" d="M553.58,-61.99C564.07,-59.85 575.44,-57.69 586,-56 695.94,-38.41 824.51,-24.84 902.29,-17.39"/>
<polygon fill="midnightblue" stroke="midnightblue" points="902.83,-20.85 912.45,-16.42 902.16,-13.88 902.83,-20.85"/>
</g>
<!-- Node21&#45;&gt;Node7 -->
<g id="edge26" class="edge">
<title>Node21&#45;&gt;Node7</title>
<path fill="none" stroke="midnightblue" d="M476.42,-61.96C467.12,-59.96 457.22,-57.86 448,-56 385.99,-43.45 314.69,-30.18 266.22,-21.32"/>
<polygon fill="midnightblue" stroke="midnightblue" points="266.7,-17.85 256.24,-19.5 265.45,-24.74 266.7,-17.85"/>
</g>
<!-- Node23 -->
<g id="node23" class="node">
<title>Node23</title>
<g id="a_node23"><a xlink:title=" ">
<polygon fill="white" stroke="#bfbfbf" points="739.5,-554 739.5,-573 884.5,-573 884.5,-554 739.5,-554"/>
<text text-anchor="middle" x="812" y="-561" font-family="Helvetica,sans-Serif" font-size="10.00">odp/api/abi/queue_types.h</text>
</a>
</g>
</g>
<!-- Node22&#45;&gt;Node23 -->
<g id="edge30" class="edge">
<title>Node22&#45;&gt;Node23</title>
<path fill="none" stroke="midnightblue" d="M722.04,-615.48C739.28,-605.71 767.74,-589.58 788.03,-578.08"/>
<polygon fill="midnightblue" stroke="midnightblue" points="790.01,-580.98 796.98,-573.01 786.56,-574.89 790.01,-580.98"/>
</g>
<!-- Node24 -->
<g id="node24" class="node">
<title>Node24</title>
<g id="a_node24"><a xlink:href="api_2spec_2queue__types_8h.html" target="_top" xlink:title=" ">
<polygon fill="white" stroke="black" points="610.5,-548.5 610.5,-578.5 721.5,-578.5 721.5,-548.5 610.5,-548.5"/>
<text text-anchor="start" x="618.5" y="-566.5" font-family="Helvetica,sans-Serif" font-size="10.00">odp/api/spec/queue</text>
<text text-anchor="middle" x="666" y="-555.5" font-family="Helvetica,sans-Serif" font-size="10.00">_types.h</text>
</a>
</g>
</g>
<!-- Node22&#45;&gt;Node24 -->
<g id="edge31" class="edge">
<title>Node22&#45;&gt;Node24</title>
<path fill="none" stroke="midnightblue" d="M701.13,-615.48C695.99,-608.02 688.29,-596.85 681.41,-586.87"/>
<polygon fill="midnightblue" stroke="midnightblue" points="684.22,-584.77 675.66,-578.52 678.45,-588.74 684.22,-584.77"/>
</g>
<!-- Node24&#45;&gt;Node4 -->
<g id="edge32" class="edge">
<title>Node24&#45;&gt;Node4</title>
<path fill="none" stroke="midnightblue" d="M689.19,-548.46C705.13,-538.62 726.65,-524.96 745,-512 778.11,-488.61 786.26,-482.43 817,-456 906.99,-378.65 1157.59,-196.63 1203,-87 1208.27,-74.27 1211.76,-66.64 1203,-56 1183.08,-31.8 1103.81,-20.43 1043.86,-15.21"/>
<polygon fill="midnightblue" stroke="midnightblue" points="1043.92,-11.7 1033.66,-14.37 1043.34,-18.68 1043.92,-11.7"/>
</g>
<!-- Node24&#45;&gt;Node7 -->
<g id="edge45" class="edge">
<title>Node24&#45;&gt;Node7</title>
<path fill="none" stroke="midnightblue" d="M642.29,-548.49C626.31,-538.77 604.95,-525.24 587,-512 501.73,-449.1 495.59,-412.96 405,-358 368.87,-336.08 353.32,-343.59 317,-322 298.26,-310.86 296.36,-304.18 279,-291 221.57,-247.39 152,-262.12 152,-190 152,-190 152,-190 152,-132 152,-91.59 178.34,-50.21 195.21,-27.85"/>
<polygon fill="midnightblue" stroke="midnightblue" points="198.15,-29.77 201.55,-19.74 192.63,-25.46 198.15,-29.77"/>
</g>
<!-- Node25 -->
<g id="node25" class="node">
<title>Node25</title>
<g id="a_node25"><a xlink:href="api_2schedule__types_8h.html" target="_top" xlink:title=" ">
<polygon fill="white" stroke="black" points="596,-492.5 596,-511.5 736,-511.5 736,-492.5 596,-492.5"/>
<text text-anchor="middle" x="666" y="-499.5" font-family="Helvetica,sans-Serif" font-size="10.00">odp/api/schedule_types.h</text>
</a>
</g>
</g>
<!-- Node24&#45;&gt;Node25 -->
<g id="edge33" class="edge">
<title>Node24&#45;&gt;Node25</title>
<path fill="none" stroke="midnightblue" d="M666,-548.4C666,-540.47 666,-530.46 666,-521.86"/>
<polygon fill="midnightblue" stroke="midnightblue" points="669.5,-521.66 666,-511.66 662.5,-521.66 669.5,-521.66"/>
</g>
<!-- Node26 -->
<g id="node26" class="node">
<title>Node26</title>
<g id="a_node26"><a xlink:title=" ">
<polygon fill="white" stroke="#bfbfbf" points="691.5,-425.5 691.5,-455.5 808.5,-455.5 808.5,-425.5 691.5,-425.5"/>
<text text-anchor="start" x="699.5" y="-443.5" font-family="Helvetica,sans-Serif" font-size="10.00">odp/api/abi/schedule</text>
<text text-anchor="middle" x="750" y="-432.5" font-family="Helvetica,sans-Serif" font-size="10.00">_types.h</text>
</a>
</g>
</g>
<!-- Node25&#45;&gt;Node26 -->
<g id="edge34" class="edge">
<title>Node25&#45;&gt;Node26</title>
<path fill="none" stroke="midnightblue" d="M678.04,-492.48C689.41,-484.42 706.91,-472.02 721.8,-461.47"/>
<polygon fill="midnightblue" stroke="midnightblue" points="724.07,-464.16 730.2,-455.52 720.02,-458.45 724.07,-464.16"/>
</g>
<!-- Node27 -->
<g id="node27" class="node">
<title>Node27</title>
<g id="a_node27"><a xlink:href="api_2spec_2schedule__types_8h.html" target="_top" xlink:title=" ">
<polygon fill="white" stroke="black" points="548.5,-425.5 548.5,-455.5 673.5,-455.5 673.5,-425.5 548.5,-425.5"/>
<text text-anchor="start" x="556.5" y="-443.5" font-family="Helvetica,sans-Serif" font-size="10.00">odp/api/spec/schedule</text>
<text text-anchor="middle" x="611" y="-432.5" font-family="Helvetica,sans-Serif" font-size="10.00">_types.h</text>
</a>
</g>
</g>
<!-- Node25&#45;&gt;Node27 -->
<g id="edge35" class="edge">
<title>Node25&#45;&gt;Node27</title>
<path fill="none" stroke="midnightblue" d="M658.12,-492.48C651.02,-484.79 640.28,-473.17 630.84,-462.96"/>
<polygon fill="midnightblue" stroke="midnightblue" points="633.32,-460.49 623.96,-455.52 628.18,-465.24 633.32,-460.49"/>
</g>
<!-- Node27&#45;&gt;Node4 -->
<g id="edge36" class="edge">
<title>Node27&#45;&gt;Node4</title>
<path fill="none" stroke="midnightblue" d="M649.29,-425.34C697.99,-406.26 783.42,-369.19 847,-322 889.67,-290.33 889.23,-270.24 929,-235 960.4,-207.18 969.31,-201.06 1005,-179 1081.42,-131.75 1138.1,-163.63 1185,-87 1219.16,-31.18 1118.02,-15.86 1043.91,-11.95"/>
<polygon fill="midnightblue" stroke="midnightblue" points="1043.8,-8.44 1033.65,-11.47 1043.47,-15.43 1043.8,-8.44"/>
</g>
<!-- Node27&#45;&gt;Node7 -->
<g id="edge44" class="edge">
<title>Node27&#45;&gt;Node7</title>
<path fill="none" stroke="midnightblue" d="M594.52,-425.29C552.35,-388.77 437.51,-288.23 347,-199 298.41,-151.1 279.47,-144.02 242,-87 230.06,-68.83 220.72,-45.63 215.07,-29.67"/>
<polygon fill="midnightblue" stroke="midnightblue" points="218.29,-28.27 211.76,-19.92 211.66,-30.52 218.29,-28.27"/>
</g>
<!-- Node27&#45;&gt;Node15 -->
<g id="edge37" class="edge">
<title>Node27&#45;&gt;Node15</title>
<path fill="none" stroke="midnightblue" d="M596.3,-425.37C587.34,-415.91 576.4,-402.71 570,-389 557.17,-361.51 559.9,-352.19 557,-322 555.68,-308.29 553.21,-304.25 557,-291 559.9,-280.84 565.83,-270.75 571.49,-262.7"/>
<polygon fill="midnightblue" stroke="midnightblue" points="574.38,-264.69 577.59,-254.59 568.78,-260.48 574.38,-264.69"/>
</g>
<!-- Node28 -->
<g id="node28" class="node">
<title>Node28</title>
<g id="a_node28"><a xlink:href="api_2thrmask_8h.html" target="_top" xlink:title=" ">
<polygon fill="white" stroke="black" points="579.5,-364 579.5,-383 684.5,-383 684.5,-364 579.5,-364"/>
<text text-anchor="middle" x="632" y="-371" font-family="Helvetica,sans-Serif" font-size="10.00">odp/api/thrmask.h</text>
</a>
</g>
</g>
<!-- Node27&#45;&gt;Node28 -->
<g id="edge38" class="edge">
<title>Node27&#45;&gt;Node28</title>
<path fill="none" stroke="midnightblue" d="M615.56,-425.4C618.64,-415.86 622.73,-403.18 626.07,-392.86"/>
<polygon fill="midnightblue" stroke="midnightblue" points="629.45,-393.79 629.19,-383.19 622.79,-391.63 629.45,-393.79"/>
</g>
<!-- Node29 -->
<g id="node29" class="node">
<title>Node29</title>
<g id="a_node29"><a xlink:title=" ">
<polygon fill="white" stroke="#bfbfbf" points="715.5,-297 715.5,-316 838.5,-316 838.5,-297 715.5,-297"/>
<text text-anchor="middle" x="777" y="-304" font-family="Helvetica,sans-Serif" font-size="10.00">odp/api/abi/thrmask.h</text>
</a>
</g>
</g>
<!-- Node28&#45;&gt;Node29 -->
<g id="edge39" class="edge">
<title>Node28&#45;&gt;Node29</title>
<path fill="none" stroke="midnightblue" d="M651.25,-363.87C676.17,-352.7 719.79,-333.15 748.53,-320.26"/>
<polygon fill="midnightblue" stroke="midnightblue" points="749.97,-323.45 757.67,-316.17 747.11,-317.06 749.97,-323.45"/>
</g>
<!-- Node30 -->
<g id="node30" class="node">
<title>Node30</title>
<g id="a_node30"><a xlink:href="api_2spec_2thrmask_8h.html" target="_top" xlink:title=" ">
<polygon fill="white" stroke="black" points="566.5,-297 566.5,-316 697.5,-316 697.5,-297 566.5,-297"/>
<text text-anchor="middle" x="632" y="-304" font-family="Helvetica,sans-Serif" font-size="10.00">odp/api/spec/thrmask.h</text>
</a>
</g>
</g>
<!-- Node28&#45;&gt;Node30 -->
<g id="edge40" class="edge">
<title>Node28&#45;&gt;Node30</title>
<path fill="none" stroke="midnightblue" d="M632,-363.73C632,-354.18 632,-338.62 632,-326.28"/>
<polygon fill="midnightblue" stroke="midnightblue" points="635.5,-326.13 632,-316.13 628.5,-326.13 635.5,-326.13"/>
</g>
<!-- Node30&#45;&gt;Node4 -->
<g id="edge41" class="edge">
<title>Node30&#45;&gt;Node4</title>
<path fill="none" stroke="midnightblue" d="M673.2,-296.92C724.08,-283.63 804,-252.77 804,-190 804,-190 804,-190 804,-132 804,-96.58 802.89,-80.98 828,-56 847.8,-36.3 876.05,-25.2 902.36,-18.95"/>
<polygon fill="midnightblue" stroke="midnightblue" points="903.3,-22.33 912.33,-16.79 901.82,-15.49 903.3,-22.33"/>
</g>
<!-- Node30&#45;&gt;Node7 -->
<g id="edge43" class="edge">
<title>Node30&#45;&gt;Node7</title>
<path fill="none" stroke="midnightblue" d="M598.05,-296.99C546.04,-282.8 445.12,-250.68 373,-199 337.09,-173.26 254.25,-69.13 222.09,-27.92"/>
<polygon fill="midnightblue" stroke="midnightblue" points="224.77,-25.66 215.87,-19.92 219.25,-29.96 224.77,-25.66"/>
</g>
<!-- Node30&#45;&gt;Node15 -->
<g id="edge42" class="edge">
<title>Node30&#45;&gt;Node15</title>
<path fill="none" stroke="midnightblue" d="M625.27,-296.98C618.22,-288.05 606.97,-273.81 598.15,-262.64"/>
<polygon fill="midnightblue" stroke="midnightblue" points="600.67,-260.19 591.72,-254.51 595.17,-264.53 600.67,-260.19"/>
</g>
<!-- Node32 -->
<g id="node32" class="node">
<title>Node32</title>
<g id="a_node32"><a xlink:title=" ">
<polygon fill="white" stroke="#bfbfbf" points="941,-906.5 941,-925.5 1077,-925.5 1077,-906.5 941,-906.5"/>
<text text-anchor="middle" x="1009" y="-913.5" font-family="Helvetica,sans-Serif" font-size="10.00">odp/api/abi/pool_types.h</text>
</a>
</g>
</g>
<!-- Node31&#45;&gt;Node32 -->
<g id="edge48" class="edge">
<title>Node31&#45;&gt;Node32</title>
<path fill="none" stroke="midnightblue" d="M1009,-962.08C1009,-955.01 1009,-944.86 1009,-935.99"/>
<polygon fill="midnightblue" stroke="midnightblue" points="1012.5,-935.75 1009,-925.75 1005.5,-935.75 1012.5,-935.75"/>
</g>
<!-- Node33 -->
<g id="node33" class="node">
<title>Node33</title>
<g id="a_node33"><a xlink:href="api_2spec_2pool__types_8h.html" target="_top" xlink:title=" ">
<polygon fill="white" stroke="black" points="621.5,-906.5 621.5,-925.5 764.5,-925.5 764.5,-906.5 621.5,-906.5"/>
<text text-anchor="middle" x="693" y="-913.5" font-family="Helvetica,sans-Serif" font-size="10.00">odp/api/spec/pool_types.h</text>
</a>
</g>
</g>
<!-- Node31&#45;&gt;Node33 -->
<g id="edge49" class="edge">
<title>Node31&#45;&gt;Node33</title>
<path fill="none" stroke="midnightblue" d="M958.93,-962.44C902.99,-952.89 812.49,-937.42 752.86,-927.23"/>
<polygon fill="midnightblue" stroke="midnightblue" points="753.28,-923.75 742.84,-925.52 752.1,-930.65 753.28,-923.75"/>
</g>
<!-- Node33&#45;&gt;Node4 -->
<g id="edge50" class="edge">
<title>Node33&#45;&gt;Node4</title>
<path fill="none" stroke="midnightblue" d="M764.51,-911.65C888.2,-903.9 1129,-879.26 1129,-805 1129,-805 1129,-805 1129,-562.5 1129,-332.33 1385.45,-231.9 1237,-56 1212.71,-27.21 1113.4,-16.84 1043.78,-13.1"/>
<polygon fill="midnightblue" stroke="midnightblue" points="1043.9,-9.6 1033.73,-12.6 1043.54,-16.6 1043.9,-9.6"/>
</g>
<!-- Node33&#45;&gt;Node7 -->
<g id="edge65" class="edge">
<title>Node33&#45;&gt;Node7</title>
<path fill="none" stroke="midnightblue" d="M621.34,-911.96C451.39,-902.81 38,-868.29 38,-749 38,-749 38,-749 38,-132 38,-94.03 48.27,-80.82 77,-56 96.24,-39.38 121.9,-28.82 145.48,-22.15"/>
<polygon fill="midnightblue" stroke="midnightblue" points="146.66,-25.46 155.43,-19.52 144.87,-18.69 146.66,-25.46"/>
</g>
<!-- Node33&#45;&gt;Node15 -->
<g id="edge51" class="edge">
<title>Node33&#45;&gt;Node15</title>
<path fill="none" stroke="midnightblue" d="M632.99,-906.45C576.34,-894.59 500,-867.09 500,-805 500,-805 500,-805 500,-372.5 500,-325.67 540.63,-283.13 565.71,-261.33"/>
<polygon fill="midnightblue" stroke="midnightblue" points="568.13,-263.87 573.54,-254.75 563.63,-258.51 568.13,-263.87"/>
</g>
<!-- Node34 -->
<g id="node34" class="node">
<title>Node34</title>
<g id="a_node34"><a xlink:href="api_2dma__types_8h.html" target="_top" xlink:title=" ">
<polygon fill="white" stroke="black" points="633.5,-850.5 633.5,-869.5 752.5,-869.5 752.5,-850.5 633.5,-850.5"/>
<text text-anchor="middle" x="693" y="-857.5" font-family="Helvetica,sans-Serif" font-size="10.00">odp/api/dma_types.h</text>
</a>
</g>
</g>
<!-- Node33&#45;&gt;Node34 -->
<g id="edge52" class="edge">
<title>Node33&#45;&gt;Node34</title>
<path fill="none" stroke="midnightblue" d="M693,-906.08C693,-899.01 693,-888.86 693,-879.99"/>
<polygon fill="midnightblue" stroke="midnightblue" points="696.5,-879.75 693,-869.75 689.5,-879.75 696.5,-879.75"/>
</g>
<!-- Node35 -->
<g id="node35" class="node">
<title>Node35</title>
<g id="a_node35"><a xlink:title=" ">
<polygon fill="white" stroke="#bfbfbf" points="571.5,-794.5 571.5,-813.5 708.5,-813.5 708.5,-794.5 571.5,-794.5"/>
<text text-anchor="middle" x="640" y="-801.5" font-family="Helvetica,sans-Serif" font-size="10.00">odp/api/abi/dma_types.h</text>
</a>
</g>
</g>
<!-- Node34&#45;&gt;Node35 -->
<g id="edge53" class="edge">
<title>Node34&#45;&gt;Node35</title>
<path fill="none" stroke="midnightblue" d="M684.25,-850.08C676.53,-842.22 665.1,-830.57 655.78,-821.08"/>
<polygon fill="midnightblue" stroke="midnightblue" points="658.09,-818.44 648.59,-813.75 653.1,-823.34 658.09,-818.44"/>
</g>
<!-- Node36 -->
<g id="node36" class="node">
<title>Node36</title>
<g id="a_node36"><a xlink:href="api_2spec_2dma__types_8h.html" target="_top" xlink:title=" ">
<polygon fill="white" stroke="black" points="727,-794.5 727,-813.5 871,-813.5 871,-794.5 727,-794.5"/>
<text text-anchor="middle" x="799" y="-801.5" font-family="Helvetica,sans-Serif" font-size="10.00">odp/api/spec/dma_types.h</text>
</a>
</g>
</g>
<!-- Node34&#45;&gt;Node36 -->
<g id="edge54" class="edge">
<title>Node34&#45;&gt;Node36</title>
<path fill="none" stroke="midnightblue" d="M710.03,-850.32C727.03,-841.66 753.38,-828.24 772.99,-818.25"/>
<polygon fill="midnightblue" stroke="midnightblue" points="774.69,-821.31 782.01,-813.65 771.51,-815.08 774.69,-821.31"/>
</g>
<!-- Node36&#45;&gt;Node4 -->
<g id="edge55" class="edge">
<title>Node36&#45;&gt;Node4</title>
<path fill="none" stroke="midnightblue" d="M871.2,-795.22C931.08,-787.71 1010.66,-775 1038,-758 1071.29,-737.31 1091,-726.7 1091,-687.5 1091,-687.5 1091,-687.5 1091,-501 1091,-308.27 1189.55,-277.3 1220,-87 1222.18,-73.4 1228.83,-66.58 1220,-56 1197.9,-29.51 1108.71,-18.58 1043.83,-14.09"/>
<polygon fill="midnightblue" stroke="midnightblue" points="1043.85,-10.58 1033.64,-13.42 1043.39,-17.57 1043.85,-10.58"/>
</g>
<!-- Node36&#45;&gt;Node7 -->
<g id="edge64" class="edge">
<title>Node36&#45;&gt;Node7</title>
<path fill="none" stroke="midnightblue" d="M726.58,-794.9C723.34,-794.59 720.14,-794.28 717,-794 493.34,-773.75 429.59,-817.35 213,-758 159.33,-743.29 130.26,-749.34 101,-702 93.76,-690.28 100.47,-684.77 101,-671 103.89,-596.17 114,-577.89 114,-503 114,-503 114,-503 114,-132 114,-85.25 158.42,-45.86 186.51,-25.62"/>
<polygon fill="midnightblue" stroke="midnightblue" points="188.77,-28.32 194.98,-19.74 184.77,-22.57 188.77,-28.32"/>
</g>
<!-- Node36&#45;&gt;Node8 -->
<g id="edge61" class="edge">
<title>Node36&#45;&gt;Node8</title>
<path fill="none" stroke="midnightblue" d="M726.57,-795.03C723.33,-794.68 720.13,-794.34 717,-794 592.57,-780.66 447.83,-765.61 362.01,-756.73"/>
<polygon fill="midnightblue" stroke="midnightblue" points="362.15,-753.23 351.85,-755.68 361.43,-760.19 362.15,-753.23"/>
</g>
<!-- Node36&#45;&gt;Node15 -->
<g id="edge63" class="edge">
<title>Node36&#45;&gt;Node15</title>
<path fill="none" stroke="midnightblue" d="M845.87,-794.42C899.79,-781.53 981,-751.49 981,-687.5 981,-687.5 981,-687.5 981,-501 981,-390.28 939.22,-352.27 847,-291 815.65,-270.17 717.87,-257.61 651.05,-251.25"/>
<polygon fill="midnightblue" stroke="midnightblue" points="651.3,-247.75 641.02,-250.31 650.65,-254.72 651.3,-247.75"/>
</g>
<!-- Node36&#45;&gt;Node22 -->
<g id="edge62" class="edge">
<title>Node36&#45;&gt;Node22</title>
<path fill="none" stroke="midnightblue" d="M794.56,-794.46C780.39,-767.19 735.99,-681.78 716.43,-644.13"/>
<polygon fill="midnightblue" stroke="midnightblue" points="719.33,-642.13 711.61,-634.87 713.12,-645.36 719.33,-642.13"/>
</g>
<!-- Node37 -->
<g id="node37" class="node">
<title>Node37</title>
<g id="a_node37"><a xlink:href="api_2event__types_8h.html" target="_top" xlink:title=" ">
<polygon fill="white" stroke="black" points="879.5,-123.5 879.5,-142.5 1004.5,-142.5 1004.5,-123.5 879.5,-123.5"/>
<text text-anchor="middle" x="942" y="-130.5" font-family="Helvetica,sans-Serif" font-size="10.00">odp/api/event_types.h</text>
</a>
</g>
</g>
<!-- Node36&#45;&gt;Node37 -->
<g id="edge56" class="edge">
<title>Node36&#45;&gt;Node37</title>
<path fill="none" stroke="midnightblue" d="M871.11,-800.03C946.2,-792.61 1053,-767.91 1053,-687.5 1053,-687.5 1053,-687.5 1053,-439.5 1053,-319.95 1044.67,-283.16 986,-179 979.68,-167.78 969.85,-157.34 961.08,-149.36"/>
<polygon fill="midnightblue" stroke="midnightblue" points="963.31,-146.66 953.46,-142.76 958.72,-151.95 963.31,-146.66"/>
</g>
<!-- Node38 -->
<g id="node38" class="node">
<title>Node38</title>
<g id="a_node38"><a xlink:title=" ">
<polygon fill="white" stroke="#bfbfbf" points="870.5,-62 870.5,-81 1013.5,-81 1013.5,-62 870.5,-62"/>
<text text-anchor="middle" x="942" y="-69" font-family="Helvetica,sans-Serif" font-size="10.00">odp/api/abi/event_types.h</text>
</a>
</g>
</g>
<!-- Node37&#45;&gt;Node38 -->
<g id="edge57" class="edge">
<title>Node37&#45;&gt;Node38</title>
<path fill="none" stroke="midnightblue" d="M942,-123.48C942,-115.08 942,-101.98 942,-91.16"/>
<polygon fill="midnightblue" stroke="midnightblue" points="945.5,-91.01 942,-81.01 938.5,-91.01 945.5,-91.01"/>
</g>
<!-- Node39 -->
<g id="node39" class="node">
<title>Node39</title>
<g id="a_node39"><a xlink:href="api_2spec_2event__types_8h.html" target="_top" xlink:title=" ">
<polygon fill="white" stroke="black" points="628.5,-56.5 628.5,-86.5 737.5,-86.5 737.5,-56.5 628.5,-56.5"/>
<text text-anchor="start" x="636.5" y="-74.5" font-family="Helvetica,sans-Serif" font-size="10.00">odp/api/spec/event</text>
<text text-anchor="middle" x="683" y="-63.5" font-family="Helvetica,sans-Serif" font-size="10.00">_types.h</text>
</a>
</g>
</g>
<!-- Node37&#45;&gt;Node39 -->
<g id="edge58" class="edge">
<title>Node37&#45;&gt;Node39</title>
<path fill="none" stroke="midnightblue" d="M904.89,-123.48C863.93,-114.07 797.24,-98.75 747.65,-87.35"/>
<polygon fill="midnightblue" stroke="midnightblue" points="748.19,-83.89 737.66,-85.06 746.63,-90.71 748.19,-83.89"/>
</g>
<!-- Node39&#45;&gt;Node4 -->
<g id="edge59" class="edge">
<title>Node39&#45;&gt;Node4</title>
<path fill="none" stroke="midnightblue" d="M737.61,-58.99C742.47,-57.98 747.33,-56.97 752,-56 809.63,-44.08 875.76,-30.64 920.55,-21.58"/>
<polygon fill="midnightblue" stroke="midnightblue" points="921.51,-24.96 930.62,-19.55 920.12,-18.1 921.51,-24.96"/>
</g>
<!-- Node39&#45;&gt;Node7 -->
<g id="edge60" class="edge">
<title>Node39&#45;&gt;Node7</title>
<path fill="none" stroke="midnightblue" d="M628.24,-62.5C612.96,-60.33 596.34,-58.02 581,-56 474.12,-41.94 349.74,-27.23 275.3,-18.6"/>
<polygon fill="midnightblue" stroke="midnightblue" points="275.47,-15.09 265.14,-17.42 274.67,-22.05 275.47,-15.09"/>
</g>
</g>
</svg>
