<?xml version="1.0" encoding="UTF-8" standalone="no"?>
<!DOCTYPE svg PUBLIC "-//W3C//DTD SVG 1.1//EN"
 "http://www.w3.org/Graphics/SVG/1.1/DTD/svg11.dtd">
<!-- Generated by graphviz version 2.43.0 (0)
 -->
<!-- Title: schedule_types.h Pages: 1 -->
<svg width="1117pt" height="1036pt"
 viewBox="0.00 0.00 1117.00 1036.00" xmlns="http://www.w3.org/2000/svg" xmlns:xlink="http://www.w3.org/1999/xlink">
<g id="graph0" class="graph" transform="scale(1 1) rotate(0) translate(4 1032)">
<title>schedule_types.h</title>
<polygon fill="white" stroke="transparent" points="-4,4 -4,-1032 1113,-1032 1113,4 -4,4"/>
<!-- Node1 -->
<g id="node1" class="node">
<title>Node1</title>
<g id="a_node1"><a xlink:title=" ">
<polygon fill="#bfbfbf" stroke="black" points="704,-1008.5 704,-1027.5 805,-1027.5 805,-1008.5 704,-1008.5"/>
<text text-anchor="middle" x="754.5" y="-1015.5" font-family="Helvetica,sans-Serif" font-size="10.00">schedule_types.h</text>
</a>
</g>
</g>
<!-- Node2 -->
<g id="node2" class="node">
<title>Node2</title>
<g id="a_node2"><a xlink:href="api_2schedule__types_8h.html" target="_top" xlink:title=" ">
<polygon fill="white" stroke="black" points="704,-952.5 704,-971.5 805,-971.5 805,-952.5 704,-952.5"/>
<text text-anchor="middle" x="754.5" y="-959.5" font-family="Helvetica,sans-Serif" font-size="10.00">schedule_types.h</text>
</a>
</g>
</g>
<!-- Node1&#45;&gt;Node2 -->
<g id="edge1" class="edge">
<title>Node1&#45;&gt;Node2</title>
<path fill="none" stroke="midnightblue" d="M754.5,-997.8C754.5,-988.91 754.5,-978.78 754.5,-971.75"/>
<polygon fill="midnightblue" stroke="midnightblue" points="751,-998.08 754.5,-1008.08 758,-998.08 751,-998.08"/>
</g>
<!-- Node3 -->
<g id="node3" class="node">
<title>Node3</title>
<g id="a_node3"><a xlink:href="api_2spec_2queue__types_8h.html" target="_top" xlink:title=" ">
<polygon fill="white" stroke="black" points="674.5,-896.5 674.5,-915.5 762.5,-915.5 762.5,-896.5 674.5,-896.5"/>
<text text-anchor="middle" x="718.5" y="-903.5" font-family="Helvetica,sans-Serif" font-size="10.00">queue_types.h</text>
</a>
</g>
</g>
<!-- Node2&#45;&gt;Node3 -->
<g id="edge2" class="edge">
<title>Node2&#45;&gt;Node3</title>
<path fill="none" stroke="midnightblue" d="M742.88,-943.57C736.68,-934.27 729.33,-923.25 724.33,-915.75"/>
<polygon fill="midnightblue" stroke="midnightblue" points="740.1,-945.7 748.56,-952.08 745.92,-941.82 740.1,-945.7"/>
</g>
<!-- Node48 -->
<g id="node48" class="node">
<title>Node48</title>
<g id="a_node48"><a xlink:href="api_2spec_2schedule_8h.html" target="_top" xlink:title=" ">
<polygon fill="white" stroke="black" points="839,-784.5 839,-803.5 908,-803.5 908,-784.5 839,-784.5"/>
<text text-anchor="middle" x="873.5" y="-791.5" font-family="Helvetica,sans-Serif" font-size="10.00">schedule.h</text>
</a>
</g>
</g>
<!-- Node2&#45;&gt;Node48 -->
<g id="edge84" class="edge">
<title>Node2&#45;&gt;Node48</title>
<path fill="none" stroke="midnightblue" d="M766.86,-943.76C792.07,-908.59 848.64,-829.68 867.36,-803.57"/>
<polygon fill="midnightblue" stroke="midnightblue" points="763.88,-941.91 760.9,-952.08 769.57,-945.99 763.88,-941.91"/>
</g>
<!-- Node4 -->
<g id="node4" class="node">
<title>Node4</title>
<g id="a_node4"><a xlink:href="api_2queue__types_8h.html" target="_top" xlink:title=" ">
<polygon fill="white" stroke="black" points="578.5,-840.5 578.5,-859.5 666.5,-859.5 666.5,-840.5 578.5,-840.5"/>
<text text-anchor="middle" x="622.5" y="-847.5" font-family="Helvetica,sans-Serif" font-size="10.00">queue_types.h</text>
</a>
</g>
</g>
<!-- Node3&#45;&gt;Node4 -->
<g id="edge3" class="edge">
<title>Node3&#45;&gt;Node4</title>
<path fill="none" stroke="midnightblue" d="M693.93,-891.18C676.26,-881.24 652.99,-868.15 637.89,-859.65"/>
<polygon fill="midnightblue" stroke="midnightblue" points="692.64,-894.47 703.08,-896.32 696.08,-888.37 692.64,-894.47"/>
</g>
<!-- Node5 -->
<g id="node5" class="node">
<title>Node5</title>
<g id="a_node5"><a xlink:href="api_2spec_2comp_8h.html" target="_top" xlink:title=" ">
<polygon fill="white" stroke="black" points="953,-672.5 953,-691.5 1006,-691.5 1006,-672.5 953,-672.5"/>
<text text-anchor="middle" x="979.5" y="-679.5" font-family="Helvetica,sans-Serif" font-size="10.00">comp.h</text>
</a>
</g>
</g>
<!-- Node4&#45;&gt;Node5 -->
<g id="edge4" class="edge">
<title>Node4&#45;&gt;Node5</title>
<path fill="none" stroke="midnightblue" d="M648.72,-835.89C675.47,-822.58 718.21,-801.52 755.5,-784 830.6,-748.73 920.89,-708.75 959.93,-691.58"/>
<polygon fill="midnightblue" stroke="midnightblue" points="647.02,-832.82 639.63,-840.41 650.15,-839.09 647.02,-832.82"/>
</g>
<!-- Node8 -->
<g id="node8" class="node">
<title>Node8</title>
<g id="a_node8"><a xlink:href="api_2spec_2dma__types_8h.html" target="_top" xlink:title=" ">
<polygon fill="white" stroke="black" points="523.5,-672.5 523.5,-691.5 603.5,-691.5 603.5,-672.5 523.5,-672.5"/>
<text text-anchor="middle" x="563.5" y="-679.5" font-family="Helvetica,sans-Serif" font-size="10.00">dma_types.h</text>
</a>
</g>
</g>
<!-- Node4&#45;&gt;Node8 -->
<g id="edge7" class="edge">
<title>Node4&#45;&gt;Node8</title>
<path fill="none" stroke="midnightblue" d="M608.82,-832.39C602.73,-824.26 595.94,-814.07 591.5,-804 573.93,-764.15 566.65,-711.85 564.37,-691.56"/>
<polygon fill="midnightblue" stroke="midnightblue" points="606.09,-834.58 615.01,-840.29 611.6,-830.26 606.09,-834.58"/>
</g>
<!-- Node22 -->
<g id="node22" class="node">
<title>Node22</title>
<g id="a_node22"><a xlink:href="api_2spec_2packet__io_8h.html" target="_top" xlink:title=" ">
<polygon fill="white" stroke="black" points="135.5,-224.5 135.5,-243.5 207.5,-243.5 207.5,-224.5 135.5,-224.5"/>
<text text-anchor="middle" x="171.5" y="-231.5" font-family="Helvetica,sans-Serif" font-size="10.00">packet_io.h</text>
</a>
</g>
</g>
<!-- Node4&#45;&gt;Node22 -->
<g id="edge55" class="edge">
<title>Node4&#45;&gt;Node22</title>
<path fill="none" stroke="midnightblue" d="M567.73,-849.39C429.89,-848.89 79.5,-837.9 79.5,-739 79.5,-739 79.5,-739 79.5,-345 79.5,-297.7 130.18,-260.02 156.31,-243.73"/>
<polygon fill="midnightblue" stroke="midnightblue" points="568.06,-852.89 578.06,-849.4 568.07,-845.89 568.06,-852.89"/>
</g>
<!-- Node30 -->
<g id="node30" class="node">
<title>Node30</title>
<g id="a_node30"><a xlink:href="api_2spec_2packet__io__types_8h.html" target="_top" xlink:title=" ">
<polygon fill="white" stroke="black" points="202.5,-448.5 202.5,-467.5 306.5,-467.5 306.5,-448.5 202.5,-448.5"/>
<text text-anchor="middle" x="254.5" y="-455.5" font-family="Helvetica,sans-Serif" font-size="10.00">packet_io_types.h</text>
</a>
</g>
</g>
<!-- Node4&#45;&gt;Node30 -->
<g id="edge60" class="edge">
<title>Node4&#45;&gt;Node30</title>
<path fill="none" stroke="midnightblue" d="M568.51,-841.2C479.69,-826.84 312.5,-792.68 312.5,-739 312.5,-739 312.5,-739 312.5,-569 312.5,-526.9 278.85,-485.11 262.81,-467.59"/>
<polygon fill="midnightblue" stroke="midnightblue" points="567.99,-844.66 578.41,-842.78 569.09,-837.75 567.99,-844.66"/>
</g>
<!-- Node36 -->
<g id="node36" class="node">
<title>Node36</title>
<g id="a_node36"><a xlink:href="api_2spec_2timer_8h.html" target="_top" xlink:title=" ">
<polygon fill="white" stroke="black" points="0,-448.5 0,-467.5 51,-467.5 51,-448.5 0,-448.5"/>
<text text-anchor="middle" x="25.5" y="-455.5" font-family="Helvetica,sans-Serif" font-size="10.00">timer.h</text>
</a>
</g>
</g>
<!-- Node4&#45;&gt;Node36 -->
<g id="edge83" class="edge">
<title>Node4&#45;&gt;Node36</title>
<path fill="none" stroke="midnightblue" d="M567.91,-847.63C435.75,-843.87 106.42,-831.81 65.5,-804 38.87,-785.9 33.5,-771.2 33.5,-739 33.5,-739 33.5,-739 33.5,-569 33.5,-531.09 28.71,-486.02 26.55,-467.54"/>
<polygon fill="midnightblue" stroke="midnightblue" points="568.11,-851.13 578.2,-847.91 568.31,-844.14 568.11,-851.13"/>
</g>
<!-- Node38 -->
<g id="node38" class="node">
<title>Node38</title>
<g id="a_node38"><a xlink:href="spec_2packet__io__stats_8h.html" target="_top" xlink:title=" ">
<polygon fill="white" stroke="black" points="164,-728.5 164,-747.5 265,-747.5 265,-728.5 164,-728.5"/>
<text text-anchor="middle" x="214.5" y="-735.5" font-family="Helvetica,sans-Serif" font-size="10.00">packet_io_stats.h</text>
</a>
</g>
</g>
<!-- Node4&#45;&gt;Node38 -->
<g id="edge56" class="edge">
<title>Node4&#45;&gt;Node38</title>
<path fill="none" stroke="midnightblue" d="M568.23,-849.86C502,-849.06 387.81,-841.58 298.5,-804 266.89,-790.7 236.87,-762.41 222.82,-747.94"/>
<polygon fill="midnightblue" stroke="midnightblue" points="568.41,-853.36 578.43,-849.94 568.46,-846.36 568.41,-853.36"/>
</g>
<!-- Node40 -->
<g id="node40" class="node">
<title>Node40</title>
<g id="a_node40"><a xlink:href="api_2spec_2packet__types_8h.html" target="_top" xlink:title=" ">
<polygon fill="white" stroke="black" points="600.5,-784.5 600.5,-803.5 690.5,-803.5 690.5,-784.5 600.5,-784.5"/>
<text text-anchor="middle" x="645.5" y="-791.5" font-family="Helvetica,sans-Serif" font-size="10.00">packet_types.h</text>
</a>
</g>
</g>
<!-- Node4&#45;&gt;Node40 -->
<g id="edge61" class="edge">
<title>Node4&#45;&gt;Node40</title>
<path fill="none" stroke="midnightblue" d="M630.3,-830.69C634.18,-821.59 638.68,-811.01 641.77,-803.75"/>
<polygon fill="midnightblue" stroke="midnightblue" points="627,-829.51 626.3,-840.08 633.44,-832.25 627,-829.51"/>
</g>
<!-- Node46 -->
<g id="node46" class="node">
<title>Node46</title>
<g id="a_node46"><a xlink:href="api_2spec_2queue_8h.html" target="_top" xlink:title=" ">
<polygon fill="white" stroke="black" points="764.5,-784.5 764.5,-803.5 820.5,-803.5 820.5,-784.5 764.5,-784.5"/>
<text text-anchor="middle" x="792.5" y="-791.5" font-family="Helvetica,sans-Serif" font-size="10.00">queue.h</text>
</a>
</g>
</g>
<!-- Node4&#45;&gt;Node46 -->
<g id="edge77" class="edge">
<title>Node4&#45;&gt;Node46</title>
<path fill="none" stroke="midnightblue" d="M659.32,-837.3C691.35,-827.13 737.02,-812.62 765.69,-803.52"/>
<polygon fill="midnightblue" stroke="midnightblue" points="657.91,-834.08 649.44,-840.44 660.03,-840.75 657.91,-834.08"/>
</g>
<!-- Node4&#45;&gt;Node48 -->
<g id="edge80" class="edge">
<title>Node4&#45;&gt;Node48</title>
<path fill="none" stroke="midnightblue" d="M672.07,-838.34C721.3,-827.74 795.5,-811.78 838.76,-802.47"/>
<polygon fill="midnightblue" stroke="midnightblue" points="671.31,-834.92 662.27,-840.44 672.78,-841.76 671.31,-834.92"/>
</g>
<!-- Node6 -->
<g id="node6" class="node">
<title>Node6</title>
<g id="a_node6"><a xlink:href="api_2comp_8h.html" target="_top" xlink:title=" ">
<polygon fill="white" stroke="black" points="946,-560.5 946,-579.5 999,-579.5 999,-560.5 946,-560.5"/>
<text text-anchor="middle" x="972.5" y="-567.5" font-family="Helvetica,sans-Serif" font-size="10.00">comp.h</text>
</a>
</g>
</g>
<!-- Node5&#45;&gt;Node6 -->
<g id="edge5" class="edge">
<title>Node5&#45;&gt;Node6</title>
<path fill="none" stroke="midnightblue" d="M978.31,-662.35C976.78,-638.25 974.17,-597.31 973.05,-579.59"/>
<polygon fill="midnightblue" stroke="midnightblue" points="974.82,-662.61 978.95,-672.37 981.81,-662.17 974.82,-662.61"/>
</g>
<!-- Node7 -->
<g id="node7" class="node">
<title>Node7</title>
<g id="a_node7"><a xlink:href="odp__api_8h.html" target="_top" xlink:title=" ">
<polygon fill="white" stroke="black" points="601.5,-0.5 601.5,-19.5 665.5,-19.5 665.5,-0.5 601.5,-0.5"/>
<text text-anchor="middle" x="633.5" y="-7.5" font-family="Helvetica,sans-Serif" font-size="10.00">odp_api.h</text>
</a>
</g>
</g>
<!-- Node6&#45;&gt;Node7 -->
<g id="edge6" class="edge">
<title>Node6&#45;&gt;Node7</title>
<path fill="none" stroke="midnightblue" d="M970.58,-550.27C968.51,-528.4 965.5,-491.12 965.5,-459 965.5,-459 965.5,-459 965.5,-121 965.5,-75.87 928.42,-75.02 887.5,-56 813.18,-21.46 715.32,-13.31 665.55,-11.46"/>
<polygon fill="midnightblue" stroke="midnightblue" points="967.12,-550.85 971.58,-560.45 974.09,-550.16 967.12,-550.85"/>
</g>
<!-- Node9 -->
<g id="node9" class="node">
<title>Node9</title>
<g id="a_node9"><a xlink:href="api_2dma__types_8h.html" target="_top" xlink:title=" ">
<polygon fill="white" stroke="black" points="523.5,-616.5 523.5,-635.5 603.5,-635.5 603.5,-616.5 523.5,-616.5"/>
<text text-anchor="middle" x="563.5" y="-623.5" font-family="Helvetica,sans-Serif" font-size="10.00">dma_types.h</text>
</a>
</g>
</g>
<!-- Node8&#45;&gt;Node9 -->
<g id="edge8" class="edge">
<title>Node8&#45;&gt;Node9</title>
<path fill="none" stroke="midnightblue" d="M563.5,-661.8C563.5,-652.91 563.5,-642.78 563.5,-635.75"/>
<polygon fill="midnightblue" stroke="midnightblue" points="560,-662.08 563.5,-672.08 567,-662.08 560,-662.08"/>
</g>
<!-- Node10 -->
<g id="node10" class="node">
<title>Node10</title>
<g id="a_node10"><a xlink:href="api_2spec_2dma_8h.html" target="_top" xlink:title=" ">
<polygon fill="white" stroke="black" points="556,-448.5 556,-467.5 603,-467.5 603,-448.5 556,-448.5"/>
<text text-anchor="middle" x="579.5" y="-455.5" font-family="Helvetica,sans-Serif" font-size="10.00">dma.h</text>
</a>
</g>
</g>
<!-- Node9&#45;&gt;Node10 -->
<g id="edge9" class="edge">
<title>Node9&#45;&gt;Node10</title>
<path fill="none" stroke="midnightblue" d="M565.34,-605.93C568.81,-569.92 576.2,-493.23 578.67,-467.57"/>
<polygon fill="midnightblue" stroke="midnightblue" points="561.84,-605.79 564.36,-616.08 568.8,-606.46 561.84,-605.79"/>
</g>
<!-- Node12 -->
<g id="node12" class="node">
<title>Node12</title>
<g id="a_node12"><a xlink:href="api_2spec_2pool__types_8h.html" target="_top" xlink:title=" ">
<polygon fill="white" stroke="black" points="441,-560.5 441,-579.5 520,-579.5 520,-560.5 441,-560.5"/>
<text text-anchor="middle" x="480.5" y="-567.5" font-family="Helvetica,sans-Serif" font-size="10.00">pool_types.h</text>
</a>
</g>
</g>
<!-- Node9&#45;&gt;Node12 -->
<g id="edge12" class="edge">
<title>Node9&#45;&gt;Node12</title>
<path fill="none" stroke="midnightblue" d="M541.4,-610.62C526.24,-600.76 506.62,-587.99 493.8,-579.65"/>
<polygon fill="midnightblue" stroke="midnightblue" points="539.87,-613.8 550.16,-616.32 543.69,-607.94 539.87,-613.8"/>
</g>
<!-- Node11 -->
<g id="node11" class="node">
<title>Node11</title>
<g id="a_node11"><a xlink:href="api_2dma_8h.html" target="_top" xlink:title=" ">
<polygon fill="white" stroke="black" points="606,-112.5 606,-131.5 653,-131.5 653,-112.5 606,-112.5"/>
<text text-anchor="middle" x="629.5" y="-119.5" font-family="Helvetica,sans-Serif" font-size="10.00">dma.h</text>
</a>
</g>
</g>
<!-- Node10&#45;&gt;Node11 -->
<g id="edge10" class="edge">
<title>Node10&#45;&gt;Node11</title>
<path fill="none" stroke="midnightblue" d="M591.48,-439.76C596.44,-431.7 601.67,-421.75 604.5,-412 634.75,-307.67 602.43,-275.43 618.5,-168 620.43,-155.11 624.32,-140.52 626.92,-131.53"/>
<polygon fill="midnightblue" stroke="midnightblue" points="588.49,-437.94 585.96,-448.23 594.35,-441.77 588.49,-437.94"/>
</g>
<!-- Node11&#45;&gt;Node7 -->
<g id="edge11" class="edge">
<title>Node11&#45;&gt;Node7</title>
<path fill="none" stroke="midnightblue" d="M630.18,-102.35C631.05,-78.25 632.54,-37.31 633.19,-19.59"/>
<polygon fill="midnightblue" stroke="midnightblue" points="626.68,-102.25 629.81,-112.37 633.68,-102.5 626.68,-102.25"/>
</g>
<!-- Node13 -->
<g id="node13" class="node">
<title>Node13</title>
<g id="a_node13"><a xlink:href="api_2pool__types_8h.html" target="_top" xlink:title=" ">
<polygon fill="white" stroke="black" points="417,-504.5 417,-523.5 496,-523.5 496,-504.5 417,-504.5"/>
<text text-anchor="middle" x="456.5" y="-511.5" font-family="Helvetica,sans-Serif" font-size="10.00">pool_types.h</text>
</a>
</g>
</g>
<!-- Node12&#45;&gt;Node13 -->
<g id="edge13" class="edge">
<title>Node12&#45;&gt;Node13</title>
<path fill="none" stroke="midnightblue" d="M472.36,-550.69C468.32,-541.59 463.62,-531.01 460.39,-523.75"/>
<polygon fill="midnightblue" stroke="midnightblue" points="469.28,-552.37 476.54,-560.08 475.67,-549.52 469.28,-552.37"/>
</g>
<!-- Node13&#45;&gt;Node10 -->
<g id="edge35" class="edge">
<title>Node13&#45;&gt;Node10</title>
<path fill="none" stroke="midnightblue" d="M485.27,-500.37C508.31,-490.26 539.98,-476.35 560.1,-467.52"/>
<polygon fill="midnightblue" stroke="midnightblue" points="483.74,-497.22 475.99,-504.44 486.55,-503.63 483.74,-497.22"/>
</g>
<!-- Node14 -->
<g id="node14" class="node">
<title>Node14</title>
<g id="a_node14"><a xlink:href="api_2spec_2buffer_8h.html" target="_top" xlink:title=" ">
<polygon fill="white" stroke="black" points="485,-448.5 485,-467.5 538,-467.5 538,-448.5 485,-448.5"/>
<text text-anchor="middle" x="511.5" y="-455.5" font-family="Helvetica,sans-Serif" font-size="10.00">buffer.h</text>
</a>
</g>
</g>
<!-- Node13&#45;&gt;Node14 -->
<g id="edge14" class="edge">
<title>Node13&#45;&gt;Node14</title>
<path fill="none" stroke="midnightblue" d="M472.79,-497C482.54,-487.43 494.55,-475.64 502.59,-467.75"/>
<polygon fill="midnightblue" stroke="midnightblue" points="470.27,-494.58 465.58,-504.08 475.17,-499.57 470.27,-494.58"/>
</g>
<!-- Node16 -->
<g id="node16" class="node">
<title>Node16</title>
<g id="a_node16"><a xlink:href="api_2spec_2classification_8h.html" target="_top" xlink:title=" ">
<polygon fill="white" stroke="black" points="184,-336.5 184,-355.5 273,-355.5 273,-336.5 184,-336.5"/>
<text text-anchor="middle" x="228.5" y="-343.5" font-family="Helvetica,sans-Serif" font-size="10.00">classification.h</text>
</a>
</g>
</g>
<!-- Node13&#45;&gt;Node16 -->
<g id="edge17" class="edge">
<title>Node13&#45;&gt;Node16</title>
<path fill="none" stroke="midnightblue" d="M426.01,-500.33C388.67,-483.82 324.79,-452.22 279.5,-412 259.98,-394.67 242.44,-369.13 233.93,-355.81"/>
<polygon fill="midnightblue" stroke="midnightblue" points="424.79,-503.62 435.36,-504.4 427.58,-497.2 424.79,-503.62"/>
</g>
<!-- Node24 -->
<g id="node24" class="node">
<title>Node24</title>
<g id="a_node24"><a xlink:href="api_2spec_2crypto__types_8h.html" target="_top" xlink:title=" ">
<polygon fill="white" stroke="black" points="660,-448.5 660,-467.5 749,-467.5 749,-448.5 660,-448.5"/>
<text text-anchor="middle" x="704.5" y="-455.5" font-family="Helvetica,sans-Serif" font-size="10.00">crypto_types.h</text>
</a>
</g>
</g>
<!-- Node13&#45;&gt;Node24 -->
<g id="edge28" class="edge">
<title>Node13&#45;&gt;Node24</title>
<path fill="none" stroke="midnightblue" d="M505.73,-502.28C552.59,-492.08 622.2,-476.92 665.39,-467.52"/>
<polygon fill="midnightblue" stroke="midnightblue" points="504.82,-498.9 495.8,-504.44 506.31,-505.74 504.82,-498.9"/>
</g>
<!-- Node28 -->
<g id="node28" class="node">
<title>Node28</title>
<g id="a_node28"><a xlink:href="api_2spec_2packet_8h.html" target="_top" xlink:title=" ">
<polygon fill="white" stroke="black" points="507.5,-336.5 507.5,-355.5 565.5,-355.5 565.5,-336.5 507.5,-336.5"/>
<text text-anchor="middle" x="536.5" y="-343.5" font-family="Helvetica,sans-Serif" font-size="10.00">packet.h</text>
</a>
</g>
</g>
<!-- Node13&#45;&gt;Node28 -->
<g id="edge36" class="edge">
<title>Node13&#45;&gt;Node28</title>
<path fill="none" stroke="midnightblue" d="M460.55,-494.52C463.77,-481.26 468.85,-463.14 475.5,-448 491.48,-411.61 518.27,-372.37 530.31,-355.5"/>
<polygon fill="midnightblue" stroke="midnightblue" points="457.12,-493.81 458.28,-504.34 463.94,-495.38 457.12,-493.81"/>
</g>
<!-- Node13&#45;&gt;Node30 -->
<g id="edge39" class="edge">
<title>Node13&#45;&gt;Node30</title>
<path fill="none" stroke="midnightblue" d="M414.71,-501.83C376.57,-491.63 321.02,-476.78 286.36,-467.52"/>
<polygon fill="midnightblue" stroke="midnightblue" points="413.93,-505.24 424.49,-504.44 415.74,-498.48 413.93,-505.24"/>
</g>
<!-- Node34 -->
<g id="node34" class="node">
<title>Node34</title>
<g id="a_node34"><a xlink:href="api_2spec_2pool_8h.html" target="_top" xlink:title=" ">
<polygon fill="white" stroke="black" points="381,-448.5 381,-467.5 428,-467.5 428,-448.5 381,-448.5"/>
<text text-anchor="middle" x="404.5" y="-455.5" font-family="Helvetica,sans-Serif" font-size="10.00">pool.h</text>
</a>
</g>
</g>
<!-- Node13&#45;&gt;Node34 -->
<g id="edge49" class="edge">
<title>Node13&#45;&gt;Node34</title>
<path fill="none" stroke="midnightblue" d="M440.82,-496.72C431.66,-487.2 420.45,-475.56 412.93,-467.75"/>
<polygon fill="midnightblue" stroke="midnightblue" points="438.46,-499.31 447.91,-504.08 443.5,-494.45 438.46,-499.31"/>
</g>
<!-- Node13&#45;&gt;Node36 -->
<g id="edge52" class="edge">
<title>Node13&#45;&gt;Node36</title>
<path fill="none" stroke="midnightblue" d="M406.54,-506.74C314.41,-495.2 120.8,-470.94 51.15,-462.21"/>
<polygon fill="midnightblue" stroke="midnightblue" points="406.37,-510.25 416.73,-508.02 407.24,-503.3 406.37,-510.25"/>
</g>
<!-- Node15 -->
<g id="node15" class="node">
<title>Node15</title>
<g id="a_node15"><a xlink:href="api_2buffer_8h.html" target="_top" xlink:title=" ">
<polygon fill="white" stroke="black" points="552,-56.5 552,-75.5 605,-75.5 605,-56.5 552,-56.5"/>
<text text-anchor="middle" x="578.5" y="-63.5" font-family="Helvetica,sans-Serif" font-size="10.00">buffer.h</text>
</a>
</g>
</g>
<!-- Node14&#45;&gt;Node15 -->
<g id="edge15" class="edge">
<title>Node14&#45;&gt;Node15</title>
<path fill="none" stroke="midnightblue" d="M525.87,-440.45C541.28,-421.51 564.84,-388.87 574.5,-356 605.76,-249.6 586.03,-111.53 580.05,-75.76"/>
<polygon fill="midnightblue" stroke="midnightblue" points="522.98,-438.44 519.25,-448.36 528.35,-442.94 522.98,-438.44"/>
</g>
<!-- Node15&#45;&gt;Node7 -->
<g id="edge16" class="edge">
<title>Node15&#45;&gt;Node7</title>
<path fill="none" stroke="midnightblue" d="M594.79,-49C604.54,-39.43 616.55,-27.64 624.59,-19.75"/>
<polygon fill="midnightblue" stroke="midnightblue" points="592.27,-46.58 587.58,-56.08 597.17,-51.57 592.27,-46.58"/>
</g>
<!-- Node17 -->
<g id="node17" class="node">
<title>Node17</title>
<g id="a_node17"><a xlink:href="api_2classification_8h.html" target="_top" xlink:title=" ">
<polygon fill="white" stroke="black" points="223,-280.5 223,-299.5 312,-299.5 312,-280.5 223,-280.5"/>
<text text-anchor="middle" x="267.5" y="-287.5" font-family="Helvetica,sans-Serif" font-size="10.00">classification.h</text>
</a>
</g>
</g>
<!-- Node16&#45;&gt;Node17 -->
<g id="edge18" class="edge">
<title>Node16&#45;&gt;Node17</title>
<path fill="none" stroke="midnightblue" d="M240.88,-327.86C247.64,-318.5 255.71,-307.33 261.18,-299.75"/>
<polygon fill="midnightblue" stroke="midnightblue" points="237.96,-325.93 234.94,-336.08 243.63,-330.03 237.96,-325.93"/>
</g>
<!-- Node17&#45;&gt;Node7 -->
<g id="edge27" class="edge">
<title>Node17&#45;&gt;Node7</title>
<path fill="none" stroke="midnightblue" d="M272.17,-270.36C277.2,-248.58 284.5,-211.42 284.5,-179 284.5,-179 284.5,-179 284.5,-121 284.5,-54.93 514.89,-23.61 601.29,-14.18"/>
<polygon fill="midnightblue" stroke="midnightblue" points="268.73,-269.69 269.79,-280.23 275.53,-271.33 268.73,-269.69"/>
</g>
<!-- Node18 -->
<g id="node18" class="node">
<title>Node18</title>
<g id="a_node18"><a xlink:href="api_2spec_2ipsec__types_8h.html" target="_top" xlink:title=" ">
<polygon fill="white" stroke="black" points="368,-224.5 368,-243.5 451,-243.5 451,-224.5 368,-224.5"/>
<text text-anchor="middle" x="409.5" y="-231.5" font-family="Helvetica,sans-Serif" font-size="10.00">ipsec_types.h</text>
</a>
</g>
</g>
<!-- Node17&#45;&gt;Node18 -->
<g id="edge19" class="edge">
<title>Node17&#45;&gt;Node18</title>
<path fill="none" stroke="midnightblue" d="M299.66,-276.77C326.33,-266.63 363.57,-252.47 387.1,-243.52"/>
<polygon fill="midnightblue" stroke="midnightblue" points="298.1,-273.62 290,-280.44 300.59,-280.16 298.1,-273.62"/>
</g>
<!-- Node17&#45;&gt;Node22 -->
<g id="edge24" class="edge">
<title>Node17&#45;&gt;Node22</title>
<path fill="none" stroke="midnightblue" d="M242.93,-275.18C225.26,-265.24 201.99,-252.15 186.89,-243.65"/>
<polygon fill="midnightblue" stroke="midnightblue" points="241.64,-278.47 252.08,-280.32 245.08,-272.37 241.64,-278.47"/>
</g>
<!-- Node19 -->
<g id="node19" class="node">
<title>Node19</title>
<g id="a_node19"><a xlink:href="api_2ipsec__types_8h.html" target="_top" xlink:title=" ">
<polygon fill="white" stroke="black" points="628,-168.5 628,-187.5 711,-187.5 711,-168.5 628,-168.5"/>
<text text-anchor="middle" x="669.5" y="-175.5" font-family="Helvetica,sans-Serif" font-size="10.00">ipsec_types.h</text>
</a>
</g>
</g>
<!-- Node18&#45;&gt;Node19 -->
<g id="edge20" class="edge">
<title>Node18&#45;&gt;Node19</title>
<path fill="none" stroke="midnightblue" d="M460.49,-222.41C509.63,-212.2 583.03,-196.96 628.49,-187.52"/>
<polygon fill="midnightblue" stroke="midnightblue" points="459.78,-218.98 450.7,-224.44 461.2,-225.84 459.78,-218.98"/>
</g>
<!-- Node20 -->
<g id="node20" class="node">
<title>Node20</title>
<g id="a_node20"><a xlink:href="api_2spec_2ipsec_8h.html" target="_top" xlink:title=" ">
<polygon fill="white" stroke="black" points="674,-112.5 674,-131.5 725,-131.5 725,-112.5 674,-112.5"/>
<text text-anchor="middle" x="699.5" y="-119.5" font-family="Helvetica,sans-Serif" font-size="10.00">ipsec.h</text>
</a>
</g>
</g>
<!-- Node19&#45;&gt;Node20 -->
<g id="edge21" class="edge">
<title>Node19&#45;&gt;Node20</title>
<path fill="none" stroke="midnightblue" d="M679.35,-159.27C684.47,-150.05 690.52,-139.17 694.64,-131.75"/>
<polygon fill="midnightblue" stroke="midnightblue" points="676.25,-157.64 674.45,-168.08 682.37,-161.04 676.25,-157.64"/>
</g>
<!-- Node21 -->
<g id="node21" class="node">
<title>Node21</title>
<g id="a_node21"><a xlink:href="api_2ipsec_8h.html" target="_top" xlink:title=" ">
<polygon fill="white" stroke="black" points="670,-56.5 670,-75.5 721,-75.5 721,-56.5 670,-56.5"/>
<text text-anchor="middle" x="695.5" y="-63.5" font-family="Helvetica,sans-Serif" font-size="10.00">ipsec.h</text>
</a>
</g>
</g>
<!-- Node20&#45;&gt;Node21 -->
<g id="edge22" class="edge">
<title>Node20&#45;&gt;Node21</title>
<path fill="none" stroke="midnightblue" d="M698.1,-102.1C697.44,-93.14 696.67,-82.86 696.15,-75.75"/>
<polygon fill="midnightblue" stroke="midnightblue" points="694.61,-102.37 698.84,-112.08 701.59,-101.85 694.61,-102.37"/>
</g>
<!-- Node21&#45;&gt;Node7 -->
<g id="edge23" class="edge">
<title>Node21&#45;&gt;Node7</title>
<path fill="none" stroke="midnightblue" d="M677.75,-49.54C666.69,-39.91 652.87,-27.87 643.64,-19.83"/>
<polygon fill="midnightblue" stroke="midnightblue" points="675.7,-52.4 685.54,-56.32 680.3,-47.12 675.7,-52.4"/>
</g>
<!-- Node23 -->
<g id="node23" class="node">
<title>Node23</title>
<g id="a_node23"><a xlink:href="api_2packet__io_8h.html" target="_top" xlink:title=" ">
<polygon fill="white" stroke="black" points="167.5,-168.5 167.5,-187.5 239.5,-187.5 239.5,-168.5 167.5,-168.5"/>
<text text-anchor="middle" x="203.5" y="-175.5" font-family="Helvetica,sans-Serif" font-size="10.00">packet_io.h</text>
</a>
</g>
</g>
<!-- Node22&#45;&gt;Node23 -->
<g id="edge25" class="edge">
<title>Node22&#45;&gt;Node23</title>
<path fill="none" stroke="midnightblue" d="M182,-215.27C187.47,-206.05 193.92,-195.17 198.31,-187.75"/>
<polygon fill="midnightblue" stroke="midnightblue" points="178.87,-213.7 176.78,-224.08 184.89,-217.26 178.87,-213.7"/>
</g>
<!-- Node23&#45;&gt;Node7 -->
<g id="edge26" class="edge">
<title>Node23&#45;&gt;Node7</title>
<path fill="none" stroke="midnightblue" d="M207.99,-158.62C215.71,-131.27 234.3,-80.46 270.5,-56 324.17,-19.74 522.81,-12.69 601.3,-11.33"/>
<polygon fill="midnightblue" stroke="midnightblue" points="204.56,-157.89 205.4,-168.46 211.33,-159.68 204.56,-157.89"/>
</g>
<!-- Node25 -->
<g id="node25" class="node">
<title>Node25</title>
<g id="a_node25"><a xlink:href="api_2crypto__types_8h.html" target="_top" xlink:title=" ">
<polygon fill="white" stroke="black" points="660,-280.5 660,-299.5 749,-299.5 749,-280.5 660,-280.5"/>
<text text-anchor="middle" x="704.5" y="-287.5" font-family="Helvetica,sans-Serif" font-size="10.00">crypto_types.h</text>
</a>
</g>
</g>
<!-- Node24&#45;&gt;Node25 -->
<g id="edge29" class="edge">
<title>Node24&#45;&gt;Node25</title>
<path fill="none" stroke="midnightblue" d="M704.5,-437.93C704.5,-401.92 704.5,-325.23 704.5,-299.57"/>
<polygon fill="midnightblue" stroke="midnightblue" points="701,-438.08 704.5,-448.08 708,-438.08 701,-438.08"/>
</g>
<!-- Node25&#45;&gt;Node18 -->
<g id="edge34" class="edge">
<title>Node25&#45;&gt;Node18</title>
<path fill="none" stroke="midnightblue" d="M649.71,-278.97C592.31,-268.46 503.41,-252.19 451.38,-242.67"/>
<polygon fill="midnightblue" stroke="midnightblue" points="649.23,-282.44 659.7,-280.8 650.49,-275.56 649.23,-282.44"/>
</g>
<!-- Node25&#45;&gt;Node20 -->
<g id="edge33" class="edge">
<title>Node25&#45;&gt;Node20</title>
<path fill="none" stroke="midnightblue" d="M710.54,-270.6C717.52,-246.74 727.12,-203.93 719.5,-168 716.66,-154.62 709.56,-140.39 704.63,-131.59"/>
<polygon fill="midnightblue" stroke="midnightblue" points="707.12,-269.82 707.5,-280.41 713.81,-271.89 707.12,-269.82"/>
</g>
<!-- Node26 -->
<g id="node26" class="node">
<title>Node26</title>
<g id="a_node26"><a xlink:href="api_2spec_2crypto_8h.html" target="_top" xlink:title=" ">
<polygon fill="white" stroke="black" points="843.5,-224.5 843.5,-243.5 899.5,-243.5 899.5,-224.5 843.5,-224.5"/>
<text text-anchor="middle" x="871.5" y="-231.5" font-family="Helvetica,sans-Serif" font-size="10.00">crypto.h</text>
</a>
</g>
</g>
<!-- Node25&#45;&gt;Node26 -->
<g id="edge30" class="edge">
<title>Node25&#45;&gt;Node26</title>
<path fill="none" stroke="midnightblue" d="M740.67,-277.3C772.14,-267.13 816.99,-252.62 845.16,-243.52"/>
<polygon fill="midnightblue" stroke="midnightblue" points="739.4,-274.04 730.96,-280.44 741.55,-280.7 739.4,-274.04"/>
</g>
<!-- Node27 -->
<g id="node27" class="node">
<title>Node27</title>
<g id="a_node27"><a xlink:href="api_2crypto_8h.html" target="_top" xlink:title=" ">
<polygon fill="white" stroke="black" points="843.5,-168.5 843.5,-187.5 899.5,-187.5 899.5,-168.5 843.5,-168.5"/>
<text text-anchor="middle" x="871.5" y="-175.5" font-family="Helvetica,sans-Serif" font-size="10.00">crypto.h</text>
</a>
</g>
</g>
<!-- Node26&#45;&gt;Node27 -->
<g id="edge31" class="edge">
<title>Node26&#45;&gt;Node27</title>
<path fill="none" stroke="midnightblue" d="M871.5,-213.8C871.5,-204.91 871.5,-194.78 871.5,-187.75"/>
<polygon fill="midnightblue" stroke="midnightblue" points="868,-214.08 871.5,-224.08 875,-214.08 868,-214.08"/>
</g>
<!-- Node27&#45;&gt;Node7 -->
<g id="edge32" class="edge">
<title>Node27&#45;&gt;Node7</title>
<path fill="none" stroke="midnightblue" d="M870.45,-158.16C867.9,-131.39 859.2,-82.65 829.5,-56 805.59,-34.55 714.8,-20.69 665.62,-14.59"/>
<polygon fill="midnightblue" stroke="midnightblue" points="866.98,-158.75 871.22,-168.46 873.96,-158.22 866.98,-158.75"/>
</g>
<!-- Node29 -->
<g id="node29" class="node">
<title>Node29</title>
<g id="a_node29"><a xlink:href="api_2packet_8h.html" target="_top" xlink:title=" ">
<polygon fill="white" stroke="black" points="507.5,-224.5 507.5,-243.5 565.5,-243.5 565.5,-224.5 507.5,-224.5"/>
<text text-anchor="middle" x="536.5" y="-231.5" font-family="Helvetica,sans-Serif" font-size="10.00">packet.h</text>
</a>
</g>
</g>
<!-- Node28&#45;&gt;Node29 -->
<g id="edge37" class="edge">
<title>Node28&#45;&gt;Node29</title>
<path fill="none" stroke="midnightblue" d="M536.5,-326.35C536.5,-302.25 536.5,-261.31 536.5,-243.59"/>
<polygon fill="midnightblue" stroke="midnightblue" points="533,-326.37 536.5,-336.37 540,-326.37 533,-326.37"/>
</g>
<!-- Node29&#45;&gt;Node7 -->
<g id="edge38" class="edge">
<title>Node29&#45;&gt;Node7</title>
<path fill="none" stroke="midnightblue" d="M531.36,-214.31C523.05,-179.88 510.61,-105.45 542.5,-56 555.59,-35.71 580.73,-24.25 601.27,-17.98"/>
<polygon fill="midnightblue" stroke="midnightblue" points="528.06,-215.55 533.95,-224.35 534.84,-213.8 528.06,-215.55"/>
</g>
<!-- Node31 -->
<g id="node31" class="node">
<title>Node31</title>
<g id="a_node31"><a xlink:href="api_2packet__io__types_8h.html" target="_top" xlink:title=" ">
<polygon fill="white" stroke="black" points="288.5,-392.5 288.5,-411.5 392.5,-411.5 392.5,-392.5 288.5,-392.5"/>
<text text-anchor="middle" x="340.5" y="-399.5" font-family="Helvetica,sans-Serif" font-size="10.00">packet_io_types.h</text>
</a>
</g>
</g>
<!-- Node30&#45;&gt;Node31 -->
<g id="edge40" class="edge">
<title>Node30&#45;&gt;Node31</title>
<path fill="none" stroke="midnightblue" d="M276.95,-442.9C292.72,-433 313.31,-420.07 326.72,-411.65"/>
<polygon fill="midnightblue" stroke="midnightblue" points="274.93,-440.04 268.32,-448.32 278.65,-445.97 274.93,-440.04"/>
</g>
<!-- Node31&#45;&gt;Node16 -->
<g id="edge41" class="edge">
<title>Node31&#45;&gt;Node16</title>
<path fill="none" stroke="midnightblue" d="M313.25,-387.86C292.48,-377.85 264.48,-364.35 246.45,-355.65"/>
<polygon fill="midnightblue" stroke="midnightblue" points="311.98,-391.13 322.51,-392.32 315.02,-384.83 311.98,-391.13"/>
</g>
<!-- Node31&#45;&gt;Node18 -->
<g id="edge42" class="edge">
<title>Node31&#45;&gt;Node18</title>
<path fill="none" stroke="midnightblue" d="M381.87,-388.5C397.43,-381.55 413.53,-371.16 422.5,-356 444.35,-319.09 423.37,-264.63 413.75,-243.67"/>
<polygon fill="midnightblue" stroke="midnightblue" points="380.25,-385.37 372.31,-392.38 382.89,-391.86 380.25,-385.37"/>
</g>
<!-- Node31&#45;&gt;Node22 -->
<g id="edge44" class="edge">
<title>Node31&#45;&gt;Node22</title>
<path fill="none" stroke="midnightblue" d="M327.66,-383.81C316.55,-369.74 299.47,-349.96 281.5,-336 254.49,-315.02 238.71,-323.11 213.5,-300 195.28,-283.29 181.55,-257.02 175.27,-243.57"/>
<polygon fill="midnightblue" stroke="midnightblue" points="325.18,-386.32 334.05,-392.11 330.72,-382.05 325.18,-386.32"/>
</g>
<!-- Node31&#45;&gt;Node28 -->
<g id="edge43" class="edge">
<title>Node31&#45;&gt;Node28</title>
<path fill="none" stroke="midnightblue" d="M381.67,-389.66C419.26,-379.3 473.87,-364.25 507.19,-355.08"/>
<polygon fill="midnightblue" stroke="midnightblue" points="380.27,-386.41 371.56,-392.44 382.13,-393.16 380.27,-386.41"/>
</g>
<!-- Node32 -->
<g id="node32" class="node">
<title>Node32</title>
<g id="a_node32"><a xlink:href="api_2spec_2traffic__mngr_8h.html" target="_top" xlink:title=" ">
<polygon fill="white" stroke="black" points="329.5,-336.5 329.5,-355.5 413.5,-355.5 413.5,-336.5 329.5,-336.5"/>
<text text-anchor="middle" x="371.5" y="-343.5" font-family="Helvetica,sans-Serif" font-size="10.00">traffic_mngr.h</text>
</a>
</g>
</g>
<!-- Node31&#45;&gt;Node32 -->
<g id="edge45" class="edge">
<title>Node31&#45;&gt;Node32</title>
<path fill="none" stroke="midnightblue" d="M350.68,-383.27C355.97,-374.05 362.22,-363.17 366.48,-355.75"/>
<polygon fill="midnightblue" stroke="midnightblue" points="347.56,-381.67 345.62,-392.08 353.63,-385.15 347.56,-381.67"/>
</g>
<!-- Node33 -->
<g id="node33" class="node">
<title>Node33</title>
<g id="a_node33"><a xlink:href="api_2traffic__mngr_8h.html" target="_top" xlink:title=" ">
<polygon fill="white" stroke="black" points="329.5,-280.5 329.5,-299.5 413.5,-299.5 413.5,-280.5 329.5,-280.5"/>
<text text-anchor="middle" x="371.5" y="-287.5" font-family="Helvetica,sans-Serif" font-size="10.00">traffic_mngr.h</text>
</a>
</g>
</g>
<!-- Node32&#45;&gt;Node33 -->
<g id="edge46" class="edge">
<title>Node32&#45;&gt;Node33</title>
<path fill="none" stroke="midnightblue" d="M371.5,-325.8C371.5,-316.91 371.5,-306.78 371.5,-299.75"/>
<polygon fill="midnightblue" stroke="midnightblue" points="368,-326.08 371.5,-336.08 375,-326.08 368,-326.08"/>
</g>
<!-- Node33&#45;&gt;Node7 -->
<g id="edge48" class="edge">
<title>Node33&#45;&gt;Node7</title>
<path fill="none" stroke="midnightblue" d="M362.97,-271.28C353.49,-249.92 339.5,-212.67 339.5,-179 339.5,-179 339.5,-179 339.5,-121 339.5,-65.55 525.28,-28.75 601.48,-15.99"/>
<polygon fill="midnightblue" stroke="midnightblue" points="359.82,-272.79 367.18,-280.41 366.17,-269.86 359.82,-272.79"/>
</g>
<!-- Node33&#45;&gt;Node18 -->
<g id="edge47" class="edge">
<title>Node33&#45;&gt;Node18</title>
<path fill="none" stroke="midnightblue" d="M383.56,-271.86C390.14,-262.5 398.01,-251.33 403.34,-243.75"/>
<polygon fill="midnightblue" stroke="midnightblue" points="380.67,-269.89 377.77,-280.08 386.39,-273.92 380.67,-269.89"/>
</g>
<!-- Node35 -->
<g id="node35" class="node">
<title>Node35</title>
<g id="a_node35"><a xlink:href="api_2pool_8h.html" target="_top" xlink:title=" ">
<polygon fill="white" stroke="black" points="411,-392.5 411,-411.5 458,-411.5 458,-392.5 411,-392.5"/>
<text text-anchor="middle" x="434.5" y="-399.5" font-family="Helvetica,sans-Serif" font-size="10.00">pool.h</text>
</a>
</g>
</g>
<!-- Node34&#45;&gt;Node35 -->
<g id="edge50" class="edge">
<title>Node34&#45;&gt;Node35</title>
<path fill="none" stroke="midnightblue" d="M414.35,-439.27C419.47,-430.05 425.52,-419.17 429.64,-411.75"/>
<polygon fill="midnightblue" stroke="midnightblue" points="411.25,-437.64 409.45,-448.08 417.37,-441.04 411.25,-437.64"/>
</g>
<!-- Node35&#45;&gt;Node7 -->
<g id="edge51" class="edge">
<title>Node35&#45;&gt;Node7</title>
<path fill="none" stroke="midnightblue" d="M446.33,-383.96C459.66,-363.06 479.5,-326.07 479.5,-291 479.5,-291 479.5,-291 479.5,-121 479.5,-61.69 556.06,-31.33 601.22,-18.58"/>
<polygon fill="midnightblue" stroke="midnightblue" points="443.37,-382.1 440.76,-392.37 449.2,-385.97 443.37,-382.1"/>
</g>
<!-- Node37 -->
<g id="node37" class="node">
<title>Node37</title>
<g id="a_node37"><a xlink:href="api_2timer_8h.html" target="_top" xlink:title=" ">
<polygon fill="white" stroke="black" points="0,-392.5 0,-411.5 51,-411.5 51,-392.5 0,-392.5"/>
<text text-anchor="middle" x="25.5" y="-399.5" font-family="Helvetica,sans-Serif" font-size="10.00">timer.h</text>
</a>
</g>
</g>
<!-- Node36&#45;&gt;Node37 -->
<g id="edge53" class="edge">
<title>Node36&#45;&gt;Node37</title>
<path fill="none" stroke="midnightblue" d="M25.5,-437.8C25.5,-428.91 25.5,-418.78 25.5,-411.75"/>
<polygon fill="midnightblue" stroke="midnightblue" points="22,-438.08 25.5,-448.08 29,-438.08 22,-438.08"/>
</g>
<!-- Node37&#45;&gt;Node7 -->
<g id="edge54" class="edge">
<title>Node37&#45;&gt;Node7</title>
<path fill="none" stroke="midnightblue" d="M27.69,-382.28C30.06,-360.42 33.5,-323.14 33.5,-291 33.5,-291 33.5,-291 33.5,-121 33.5,-62.75 476.62,-23.38 601.24,-13.46"/>
<polygon fill="midnightblue" stroke="midnightblue" points="24.19,-382.13 26.55,-392.46 31.14,-382.91 24.19,-382.13"/>
</g>
<!-- Node39 -->
<g id="node39" class="node">
<title>Node39</title>
<g id="a_node39"><a xlink:href="packet__io__stats_8h.html" target="_top" xlink:title=" ">
<polygon fill="white" stroke="black" points="108,-504.5 108,-523.5 209,-523.5 209,-504.5 108,-504.5"/>
<text text-anchor="middle" x="158.5" y="-511.5" font-family="Helvetica,sans-Serif" font-size="10.00">packet_io_stats.h</text>
</a>
</g>
</g>
<!-- Node38&#45;&gt;Node39 -->
<g id="edge57" class="edge">
<title>Node38&#45;&gt;Node39</title>
<path fill="none" stroke="midnightblue" d="M209.85,-718.58C198.39,-673.14 169.08,-556.92 160.74,-523.88"/>
<polygon fill="midnightblue" stroke="midnightblue" points="206.47,-719.46 212.3,-728.3 213.25,-717.74 206.47,-719.46"/>
</g>
<!-- Node39&#45;&gt;Node22 -->
<g id="edge58" class="edge">
<title>Node39&#45;&gt;Node22</title>
<path fill="none" stroke="midnightblue" d="M147.56,-495.53C135.41,-474.44 117.5,-437.48 117.5,-403 117.5,-403 117.5,-403 117.5,-345 117.5,-303.52 148.83,-261.41 163.76,-243.69"/>
<polygon fill="midnightblue" stroke="midnightblue" points="144.66,-497.51 152.8,-504.29 150.66,-493.91 144.66,-497.51"/>
</g>
<!-- Node39&#45;&gt;Node30 -->
<g id="edge59" class="edge">
<title>Node39&#45;&gt;Node30</title>
<path fill="none" stroke="midnightblue" d="M183.07,-499.18C200.74,-489.24 224.01,-476.15 239.11,-467.65"/>
<polygon fill="midnightblue" stroke="midnightblue" points="180.92,-496.37 173.92,-504.32 184.36,-502.47 180.92,-496.37"/>
</g>
<!-- Node41 -->
<g id="node41" class="node">
<title>Node41</title>
<g id="a_node41"><a xlink:href="api_2packet__types_8h.html" target="_top" xlink:title=" ">
<polygon fill="white" stroke="black" points="618.5,-728.5 618.5,-747.5 708.5,-747.5 708.5,-728.5 618.5,-728.5"/>
<text text-anchor="middle" x="663.5" y="-735.5" font-family="Helvetica,sans-Serif" font-size="10.00">packet_types.h</text>
</a>
</g>
</g>
<!-- Node40&#45;&gt;Node41 -->
<g id="edge62" class="edge">
<title>Node40&#45;&gt;Node41</title>
<path fill="none" stroke="midnightblue" d="M651.7,-774.4C654.71,-765.36 658.19,-754.94 660.58,-747.75"/>
<polygon fill="midnightblue" stroke="midnightblue" points="648.31,-773.49 648.47,-784.08 654.96,-775.7 648.31,-773.49"/>
</g>
<!-- Node41&#45;&gt;Node5 -->
<g id="edge63" class="edge">
<title>Node41&#45;&gt;Node5</title>
<path fill="none" stroke="midnightblue" d="M718.8,-728.43C794.33,-716.67 922.87,-696.5 944.5,-692 947.2,-691.44 950.01,-690.8 952.81,-690.14"/>
<polygon fill="midnightblue" stroke="midnightblue" points="717.86,-725.03 708.51,-730.03 718.93,-731.95 717.86,-725.03"/>
</g>
<!-- Node41&#45;&gt;Node8 -->
<g id="edge66" class="edge">
<title>Node41&#45;&gt;Node8</title>
<path fill="none" stroke="midnightblue" d="M638.41,-723.45C619.95,-713.48 595.4,-700.23 579.53,-691.65"/>
<polygon fill="midnightblue" stroke="midnightblue" points="636.97,-726.65 647.43,-728.32 640.3,-720.49 636.97,-726.65"/>
</g>
<!-- Node41&#45;&gt;Node20 -->
<g id="edge70" class="edge">
<title>Node41&#45;&gt;Node20</title>
<path fill="none" stroke="midnightblue" d="M673.96,-719.73C702.13,-671.5 777.5,-530.54 777.5,-403 777.5,-403 777.5,-403 777.5,-233 777.5,-188.05 733.62,-148.65 711.69,-131.76"/>
<polygon fill="midnightblue" stroke="midnightblue" points="670.94,-717.96 668.85,-728.34 676.96,-721.53 670.94,-717.96"/>
</g>
<!-- Node41&#45;&gt;Node22 -->
<g id="edge75" class="edge">
<title>Node41&#45;&gt;Node22</title>
<path fill="none" stroke="midnightblue" d="M608.27,-734.29C493.02,-727.13 237.5,-702.72 237.5,-627 237.5,-627 237.5,-627 237.5,-569 237.5,-538.77 230.46,-531.3 217.5,-504 209.25,-486.63 200.6,-485.87 193.5,-468 174.87,-421.08 179.36,-406.25 174.5,-356 170.43,-313.96 170.9,-263.34 171.29,-243.53"/>
<polygon fill="midnightblue" stroke="midnightblue" points="608.12,-737.79 618.31,-734.9 608.54,-730.8 608.12,-737.79"/>
</g>
<!-- Node41&#45;&gt;Node24 -->
<g id="edge65" class="edge">
<title>Node41&#45;&gt;Node24</title>
<path fill="none" stroke="midnightblue" d="M665.69,-718.28C668.06,-696.42 671.5,-659.14 671.5,-627 671.5,-627 671.5,-627 671.5,-569 671.5,-529.72 691.04,-485.76 700.05,-467.58"/>
<polygon fill="midnightblue" stroke="midnightblue" points="662.19,-718.13 664.55,-728.46 669.14,-718.91 662.19,-718.13"/>
</g>
<!-- Node41&#45;&gt;Node26 -->
<g id="edge64" class="edge">
<title>Node41&#45;&gt;Node26</title>
<path fill="none" stroke="midnightblue" d="M718.89,-736.04C756.18,-732.46 803.94,-721.75 834.5,-692 856.07,-671.01 853.5,-657.1 853.5,-627 853.5,-627 853.5,-627 853.5,-345 853.5,-306.88 864.16,-262.29 869.07,-243.76"/>
<polygon fill="midnightblue" stroke="midnightblue" points="718.36,-732.57 708.68,-736.87 718.93,-739.55 718.36,-732.57"/>
</g>
<!-- Node41&#45;&gt;Node28 -->
<g id="edge71" class="edge">
<title>Node41&#45;&gt;Node28</title>
<path fill="none" stroke="midnightblue" d="M654.97,-719.28C645.49,-697.92 631.5,-660.67 631.5,-627 631.5,-627 631.5,-627 631.5,-513 631.5,-444.6 569.99,-378.79 545.96,-355.7"/>
<polygon fill="midnightblue" stroke="midnightblue" points="651.82,-720.79 659.18,-728.41 658.17,-717.86 651.82,-720.79"/>
</g>
<!-- Node41&#45;&gt;Node30 -->
<g id="edge76" class="edge">
<title>Node41&#45;&gt;Node30</title>
<path fill="none" stroke="midnightblue" d="M608.17,-727.94C523,-712.4 369.5,-677.4 369.5,-627 369.5,-627 369.5,-627 369.5,-569 369.5,-517.47 308.47,-482.64 275.33,-467.53"/>
<polygon fill="midnightblue" stroke="midnightblue" points="607.75,-731.42 618.21,-729.74 608.98,-724.53 607.75,-731.42"/>
</g>
<!-- Node42 -->
<g id="node42" class="node">
<title>Node42</title>
<g id="a_node42"><a xlink:href="api_2spec_2event_8h.html" target="_top" xlink:title=" ">
<polygon fill="white" stroke="black" points="882,-672.5 882,-691.5 935,-691.5 935,-672.5 882,-672.5"/>
<text text-anchor="middle" x="908.5" y="-679.5" font-family="Helvetica,sans-Serif" font-size="10.00">event.h</text>
</a>
</g>
</g>
<!-- Node41&#45;&gt;Node42 -->
<g id="edge67" class="edge">
<title>Node41&#45;&gt;Node42</title>
<path fill="none" stroke="midnightblue" d="M712.13,-726.28C763.11,-715.05 841.32,-697.81 881.94,-688.85"/>
<polygon fill="midnightblue" stroke="midnightblue" points="711.33,-722.87 702.32,-728.44 712.84,-729.71 711.33,-722.87"/>
</g>
<!-- Node44 -->
<g id="node44" class="node">
<title>Node44</title>
<g id="a_node44"><a xlink:href="api_2spec_2packet__flags_8h.html" target="_top" xlink:title=" ">
<polygon fill="white" stroke="black" points="739.5,-672.5 739.5,-691.5 825.5,-691.5 825.5,-672.5 739.5,-672.5"/>
<text text-anchor="middle" x="782.5" y="-679.5" font-family="Helvetica,sans-Serif" font-size="10.00">packet_flags.h</text>
</a>
</g>
</g>
<!-- Node41&#45;&gt;Node44 -->
<g id="edge72" class="edge">
<title>Node41&#45;&gt;Node44</title>
<path fill="none" stroke="midnightblue" d="M691.64,-724.23C713.9,-714.13 744.36,-700.31 763.73,-691.52"/>
<polygon fill="midnightblue" stroke="midnightblue" points="690.02,-721.12 682.36,-728.44 692.91,-727.5 690.02,-721.12"/>
</g>
<!-- Node43 -->
<g id="node43" class="node">
<title>Node43</title>
<g id="a_node43"><a xlink:href="api_2event_8h.html" target="_top" xlink:title=" ">
<polygon fill="white" stroke="black" points="883,-504.5 883,-523.5 936,-523.5 936,-504.5 883,-504.5"/>
<text text-anchor="middle" x="909.5" y="-511.5" font-family="Helvetica,sans-Serif" font-size="10.00">event.h</text>
</a>
</g>
</g>
<!-- Node42&#45;&gt;Node43 -->
<g id="edge68" class="edge">
<title>Node42&#45;&gt;Node43</title>
<path fill="none" stroke="midnightblue" d="M908.61,-661.93C908.83,-625.92 909.29,-549.23 909.45,-523.57"/>
<polygon fill="midnightblue" stroke="midnightblue" points="905.11,-662.05 908.55,-672.08 912.11,-662.1 905.11,-662.05"/>
</g>
<!-- Node43&#45;&gt;Node7 -->
<g id="edge69" class="edge">
<title>Node43&#45;&gt;Node7</title>
<path fill="none" stroke="midnightblue" d="M914.44,-494.37C919.77,-472.62 927.5,-435.46 927.5,-403 927.5,-403 927.5,-403 927.5,-121 927.5,-76.21 890.77,-75.59 850.5,-56 789.43,-26.29 709.42,-16.16 665.62,-12.73"/>
<polygon fill="midnightblue" stroke="midnightblue" points="911.01,-493.68 911.93,-504.24 917.79,-495.41 911.01,-493.68"/>
</g>
<!-- Node45 -->
<g id="node45" class="node">
<title>Node45</title>
<g id="a_node45"><a xlink:href="api_2packet__flags_8h.html" target="_top" xlink:title=" ">
<polygon fill="white" stroke="black" points="739.5,-616.5 739.5,-635.5 825.5,-635.5 825.5,-616.5 739.5,-616.5"/>
<text text-anchor="middle" x="782.5" y="-623.5" font-family="Helvetica,sans-Serif" font-size="10.00">packet_flags.h</text>
</a>
</g>
</g>
<!-- Node44&#45;&gt;Node45 -->
<g id="edge73" class="edge">
<title>Node44&#45;&gt;Node45</title>
<path fill="none" stroke="midnightblue" d="M782.5,-661.8C782.5,-652.91 782.5,-642.78 782.5,-635.75"/>
<polygon fill="midnightblue" stroke="midnightblue" points="779,-662.08 782.5,-672.08 786,-662.08 779,-662.08"/>
</g>
<!-- Node45&#45;&gt;Node7 -->
<g id="edge74" class="edge">
<title>Node45&#45;&gt;Node7</title>
<path fill="none" stroke="midnightblue" d="M791.29,-607.31C801.07,-585.97 815.5,-548.75 815.5,-515 815.5,-515 815.5,-515 815.5,-121 815.5,-51.77 717.87,-24.95 665.62,-15.54"/>
<polygon fill="midnightblue" stroke="midnightblue" points="788.09,-605.89 786.95,-616.42 794.41,-608.9 788.09,-605.89"/>
</g>
<!-- Node47 -->
<g id="node47" class="node">
<title>Node47</title>
<g id="a_node47"><a xlink:href="api_2queue_8h.html" target="_top" xlink:title=" ">
<polygon fill="white" stroke="black" points="993.5,-112.5 993.5,-131.5 1049.5,-131.5 1049.5,-112.5 993.5,-112.5"/>
<text text-anchor="middle" x="1021.5" y="-119.5" font-family="Helvetica,sans-Serif" font-size="10.00">queue.h</text>
</a>
</g>
</g>
<!-- Node46&#45;&gt;Node47 -->
<g id="edge78" class="edge">
<title>Node46&#45;&gt;Node47</title>
<path fill="none" stroke="midnightblue" d="M827.18,-781.07C894.1,-757.54 1034.5,-705.5 1034.5,-683 1034.5,-683 1034.5,-683 1034.5,-233 1034.5,-194.92 1026.72,-149.94 1023.2,-131.52"/>
<polygon fill="midnightblue" stroke="midnightblue" points="825.77,-777.85 817.49,-784.46 828.08,-784.46 825.77,-777.85"/>
</g>
<!-- Node47&#45;&gt;Node7 -->
<g id="edge79" class="edge">
<title>Node47&#45;&gt;Node7</title>
<path fill="none" stroke="midnightblue" d="M1014.77,-102.67C1008.2,-87.53 996.67,-66.84 979.5,-56 927.64,-23.25 741.33,-14.16 665.72,-11.78"/>
<polygon fill="midnightblue" stroke="midnightblue" points="1011.57,-104.09 1018.54,-112.07 1018.07,-101.49 1011.57,-104.09"/>
</g>
<!-- Node49 -->
<g id="node49" class="node">
<title>Node49</title>
<g id="a_node49"><a xlink:href="api_2schedule_8h.html" target="_top" xlink:title=" ">
<polygon fill="white" stroke="black" points="1040,-56.5 1040,-75.5 1109,-75.5 1109,-56.5 1040,-56.5"/>
<text text-anchor="middle" x="1074.5" y="-63.5" font-family="Helvetica,sans-Serif" font-size="10.00">schedule.h</text>
</a>
</g>
</g>
<!-- Node48&#45;&gt;Node49 -->
<g id="edge81" class="edge">
<title>Node48&#45;&gt;Node49</title>
<path fill="none" stroke="midnightblue" d="M918.1,-788.63C978.14,-780.01 1077.5,-754.89 1077.5,-683 1077.5,-683 1077.5,-683 1077.5,-177 1077.5,-139.17 1075.71,-94.06 1074.89,-75.56"/>
<polygon fill="midnightblue" stroke="midnightblue" points="917.55,-785.17 908.11,-789.97 918.48,-792.11 917.55,-785.17"/>
</g>
<!-- Node49&#45;&gt;Node7 -->
<g id="edge82" class="edge">
<title>Node49&#45;&gt;Node7</title>
<path fill="none" stroke="midnightblue" d="M1029.75,-57.09C1027.3,-56.71 1024.87,-56.34 1022.5,-56 890.45,-36.95 732.25,-20.66 665.6,-14.1"/>
<polygon fill="midnightblue" stroke="midnightblue" points="1029.43,-60.58 1039.86,-58.73 1030.55,-53.67 1029.43,-60.58"/>
</g>
</g>
</svg>
