<?xml version="1.0" encoding="UTF-8" standalone="no"?>
<!DOCTYPE svg PUBLIC "-//W3C//DTD SVG 1.1//EN"
 "http://www.w3.org/Graphics/SVG/1.1/DTD/svg11.dtd">
<!-- Generated by graphviz version 2.43.0 (0)
 -->
<!-- Title: align.h Pages: 1 -->
<svg width="2626pt" height="532pt"
 viewBox="0.00 0.00 2625.50 532.00" xmlns="http://www.w3.org/2000/svg" xmlns:xlink="http://www.w3.org/1999/xlink">
<g id="graph0" class="graph" transform="scale(1 1) rotate(0) translate(4 528)">
<title>align.h</title>
<polygon fill="white" stroke="transparent" points="-4,4 -4,-528 2621.5,-528 2621.5,4 -4,4"/>
<!-- Node1 -->
<g id="node1" class="node">
<title>Node1</title>
<g id="a_node1"><a xlink:title=" ">
<polygon fill="#bfbfbf" stroke="black" points="1393.5,-504.5 1393.5,-523.5 1443.5,-523.5 1443.5,-504.5 1393.5,-504.5"/>
<text text-anchor="middle" x="1418.5" y="-511.5" font-family="Helvetica,sans-Serif" font-size="10.00">align.h</text>
</a>
</g>
</g>
<!-- Node2 -->
<g id="node2" class="node">
<title>Node2</title>
<g id="a_node2"><a xlink:href="arch_2arm32-linux_2odp_2api_2abi_2align_8h_source.html" target="_top" xlink:title=" ">
<polygon fill="white" stroke="black" points="1223.5,-448.5 1223.5,-467.5 1273.5,-467.5 1273.5,-448.5 1223.5,-448.5"/>
<text text-anchor="middle" x="1248.5" y="-455.5" font-family="Helvetica,sans-Serif" font-size="10.00">align.h</text>
</a>
</g>
</g>
<!-- Node1&#45;&gt;Node2 -->
<g id="edge1" class="edge">
<title>Node1&#45;&gt;Node2</title>
<path fill="none" stroke="midnightblue" d="M1383.8,-501.98C1351.09,-491.59 1302.86,-476.27 1273.69,-467"/>
<polygon fill="midnightblue" stroke="midnightblue" points="1382.83,-505.34 1393.42,-505.03 1384.94,-498.67 1382.83,-505.34"/>
</g>
<!-- Node3 -->
<g id="node3" class="node">
<title>Node3</title>
<g id="a_node3"><a xlink:href="arch_2arm64-linux_2odp_2api_2abi_2align_8h_source.html" target="_top" xlink:title=" ">
<polygon fill="white" stroke="black" points="1291.5,-448.5 1291.5,-467.5 1341.5,-467.5 1341.5,-448.5 1291.5,-448.5"/>
<text text-anchor="middle" x="1316.5" y="-455.5" font-family="Helvetica,sans-Serif" font-size="10.00">align.h</text>
</a>
</g>
</g>
<!-- Node1&#45;&gt;Node3 -->
<g id="edge2" class="edge">
<title>Node1&#45;&gt;Node3</title>
<path fill="none" stroke="midnightblue" d="M1393.17,-499.59C1374.31,-489.61 1349.12,-476.27 1332.85,-467.65"/>
<polygon fill="midnightblue" stroke="midnightblue" points="1391.64,-502.74 1402.11,-504.32 1394.91,-496.55 1391.64,-502.74"/>
</g>
<!-- Node4 -->
<g id="node4" class="node">
<title>Node4</title>
<g id="a_node4"><a xlink:href="arch_2default-linux_2odp_2api_2abi_2align_8h_source.html" target="_top" xlink:title=" ">
<polygon fill="white" stroke="black" points="1359.5,-448.5 1359.5,-467.5 1409.5,-467.5 1409.5,-448.5 1359.5,-448.5"/>
<text text-anchor="middle" x="1384.5" y="-455.5" font-family="Helvetica,sans-Serif" font-size="10.00">align.h</text>
</a>
</g>
</g>
<!-- Node1&#45;&gt;Node4 -->
<g id="edge3" class="edge">
<title>Node1&#45;&gt;Node4</title>
<path fill="none" stroke="midnightblue" d="M1407.52,-495.57C1401.67,-486.27 1394.73,-475.25 1390.01,-467.75"/>
<polygon fill="midnightblue" stroke="midnightblue" points="1404.6,-497.49 1412.89,-504.08 1410.52,-493.76 1404.6,-497.49"/>
</g>
<!-- Node5 -->
<g id="node5" class="node">
<title>Node5</title>
<g id="a_node5"><a xlink:href="arch_2power64-linux_2odp_2api_2abi_2align_8h_source.html" target="_top" xlink:title=" ">
<polygon fill="white" stroke="black" points="1427.5,-448.5 1427.5,-467.5 1477.5,-467.5 1477.5,-448.5 1427.5,-448.5"/>
<text text-anchor="middle" x="1452.5" y="-455.5" font-family="Helvetica,sans-Serif" font-size="10.00">align.h</text>
</a>
</g>
</g>
<!-- Node1&#45;&gt;Node5 -->
<g id="edge4" class="edge">
<title>Node1&#45;&gt;Node5</title>
<path fill="none" stroke="midnightblue" d="M1429.48,-495.57C1435.33,-486.27 1442.27,-475.25 1446.99,-467.75"/>
<polygon fill="midnightblue" stroke="midnightblue" points="1426.48,-493.76 1424.11,-504.08 1432.4,-497.49 1426.48,-493.76"/>
</g>
<!-- Node6 -->
<g id="node6" class="node">
<title>Node6</title>
<g id="a_node6"><a xlink:href="arch_2x86__32-linux_2odp_2api_2abi_2align_8h_source.html" target="_top" xlink:title=" ">
<polygon fill="white" stroke="black" points="1495.5,-448.5 1495.5,-467.5 1545.5,-467.5 1545.5,-448.5 1495.5,-448.5"/>
<text text-anchor="middle" x="1520.5" y="-455.5" font-family="Helvetica,sans-Serif" font-size="10.00">align.h</text>
</a>
</g>
</g>
<!-- Node1&#45;&gt;Node6 -->
<g id="edge5" class="edge">
<title>Node1&#45;&gt;Node6</title>
<path fill="none" stroke="midnightblue" d="M1443.83,-499.59C1462.69,-489.61 1487.88,-476.27 1504.15,-467.65"/>
<polygon fill="midnightblue" stroke="midnightblue" points="1442.09,-496.55 1434.89,-504.32 1445.36,-502.74 1442.09,-496.55"/>
</g>
<!-- Node7 -->
<g id="node7" class="node">
<title>Node7</title>
<g id="a_node7"><a xlink:href="arch_2x86__64-linux_2odp_2api_2abi_2align_8h_source.html" target="_top" xlink:title=" ">
<polygon fill="white" stroke="black" points="1563.5,-448.5 1563.5,-467.5 1613.5,-467.5 1613.5,-448.5 1563.5,-448.5"/>
<text text-anchor="middle" x="1588.5" y="-455.5" font-family="Helvetica,sans-Serif" font-size="10.00">align.h</text>
</a>
</g>
</g>
<!-- Node1&#45;&gt;Node7 -->
<g id="edge6" class="edge">
<title>Node1&#45;&gt;Node7</title>
<path fill="none" stroke="midnightblue" d="M1453.2,-501.98C1485.91,-491.59 1534.14,-476.27 1563.31,-467"/>
<polygon fill="midnightblue" stroke="midnightblue" points="1452.06,-498.67 1443.58,-505.03 1454.17,-505.34 1452.06,-498.67"/>
</g>
<!-- Node8 -->
<g id="node8" class="node">
<title>Node8</title>
<g id="a_node8"><a xlink:href="api_2align_8h.html" target="_top" xlink:title=" ">
<polygon fill="white" stroke="black" points="1563.5,-392.5 1563.5,-411.5 1613.5,-411.5 1613.5,-392.5 1563.5,-392.5"/>
<text text-anchor="middle" x="1588.5" y="-399.5" font-family="Helvetica,sans-Serif" font-size="10.00">align.h</text>
</a>
</g>
</g>
<!-- Node7&#45;&gt;Node8 -->
<g id="edge7" class="edge">
<title>Node7&#45;&gt;Node8</title>
<path fill="none" stroke="midnightblue" d="M1588.5,-437.8C1588.5,-428.91 1588.5,-418.78 1588.5,-411.75"/>
<polygon fill="midnightblue" stroke="midnightblue" points="1585,-438.08 1588.5,-448.08 1592,-438.08 1585,-438.08"/>
</g>
<!-- Node9 -->
<g id="node9" class="node">
<title>Node9</title>
<g id="a_node9"><a xlink:href="api_2abi-default_2atomic_8h.html" target="_top" xlink:title=" ">
<polygon fill="white" stroke="black" points="154,-224.5 154,-243.5 213,-243.5 213,-224.5 154,-224.5"/>
<text text-anchor="middle" x="183.5" y="-231.5" font-family="Helvetica,sans-Serif" font-size="10.00">atomic.h</text>
</a>
</g>
</g>
<!-- Node8&#45;&gt;Node9 -->
<g id="edge8" class="edge">
<title>Node8&#45;&gt;Node9</title>
<path fill="none" stroke="midnightblue" d="M1553.18,-397.02C1398.95,-379.59 769.11,-308.04 252.5,-244 239.55,-242.39 225.25,-240.54 213.04,-238.94"/>
<polygon fill="midnightblue" stroke="midnightblue" points="1553.13,-400.53 1563.46,-398.18 1553.91,-393.58 1553.13,-400.53"/>
</g>
<!-- Node25 -->
<g id="node19" class="node">
<title>Node25</title>
<g id="a_node19"><a xlink:href="odp__api_8h.html" target="_top" xlink:title=" ">
<polygon fill="white" stroke="black" points="1932.5,-0.5 1932.5,-19.5 1996.5,-19.5 1996.5,-0.5 1932.5,-0.5"/>
<text text-anchor="middle" x="1964.5" y="-7.5" font-family="Helvetica,sans-Serif" font-size="10.00">odp_api.h</text>
</a>
</g>
</g>
<!-- Node8&#45;&gt;Node25 -->
<g id="edge61" class="edge">
<title>Node8&#45;&gt;Node25</title>
<path fill="none" stroke="midnightblue" d="M1623.7,-401.01C1804.21,-400.63 2617.5,-393.22 2617.5,-291 2617.5,-291 2617.5,-291 2617.5,-121 2617.5,-57.34 2128.64,-21.49 1996.88,-12.99"/>
<polygon fill="midnightblue" stroke="midnightblue" points="1623.68,-397.51 1613.68,-401.03 1623.69,-404.51 1623.68,-397.51"/>
</g>
<!-- Node50 -->
<g id="node20" class="node">
<title>Node50</title>
<g id="a_node20"><a xlink:href="api_2abi-default_2cpumask_8h.html" target="_top" xlink:title=" ">
<polygon fill="white" stroke="black" points="2212.5,-224.5 2212.5,-243.5 2282.5,-243.5 2282.5,-224.5 2212.5,-224.5"/>
<text text-anchor="middle" x="2247.5" y="-231.5" font-family="Helvetica,sans-Serif" font-size="10.00">cpumask.h</text>
</a>
</g>
</g>
<!-- Node8&#45;&gt;Node50 -->
<g id="edge20" class="edge">
<title>Node8&#45;&gt;Node50</title>
<path fill="none" stroke="midnightblue" d="M1623.52,-392.18C1738.11,-363.31 2101,-271.9 2213.75,-243.5"/>
<polygon fill="midnightblue" stroke="midnightblue" points="1622.37,-388.86 1613.53,-394.7 1624.08,-395.65 1622.37,-388.86"/>
</g>
<!-- Node118 -->
<g id="node29" class="node">
<title>Node118</title>
<g id="a_node29"><a xlink:href="api_2spec_2std__types_8h.html" target="_top" xlink:title=" ">
<polygon fill="white" stroke="black" points="1520,-336.5 1520,-355.5 1593,-355.5 1593,-336.5 1520,-336.5"/>
<text text-anchor="middle" x="1556.5" y="-343.5" font-family="Helvetica,sans-Serif" font-size="10.00">std_types.h</text>
</a>
</g>
</g>
<!-- Node8&#45;&gt;Node118 -->
<g id="edge30" class="edge">
<title>Node8&#45;&gt;Node118</title>
<path fill="none" stroke="midnightblue" d="M1578,-383.27C1572.53,-374.05 1566.08,-363.17 1561.69,-355.75"/>
<polygon fill="midnightblue" stroke="midnightblue" points="1575.11,-385.26 1583.22,-392.08 1581.13,-381.7 1575.11,-385.26"/>
</g>
<!-- Node10 -->
<g id="node10" class="node">
<title>Node10</title>
<g id="a_node10"><a xlink:href="arch_2arm32-linux_2odp_2api_2abi_2atomic_8h_source.html" target="_top" xlink:title=" ">
<polygon fill="white" stroke="black" points="154,-168.5 154,-187.5 213,-187.5 213,-168.5 154,-168.5"/>
<text text-anchor="middle" x="183.5" y="-175.5" font-family="Helvetica,sans-Serif" font-size="10.00">atomic.h</text>
</a>
</g>
</g>
<!-- Node9&#45;&gt;Node10 -->
<g id="edge9" class="edge">
<title>Node9&#45;&gt;Node10</title>
<path fill="none" stroke="midnightblue" d="M183.5,-213.8C183.5,-204.91 183.5,-194.78 183.5,-187.75"/>
<polygon fill="midnightblue" stroke="midnightblue" points="180,-214.08 183.5,-224.08 187,-214.08 180,-214.08"/>
</g>
<!-- Node11 -->
<g id="node11" class="node">
<title>Node11</title>
<g id="a_node11"><a xlink:href="arch_2arm64-linux_2odp_2api_2abi_2atomic_8h_source.html" target="_top" xlink:title=" ">
<polygon fill="white" stroke="black" points="231,-168.5 231,-187.5 290,-187.5 290,-168.5 231,-168.5"/>
<text text-anchor="middle" x="260.5" y="-175.5" font-family="Helvetica,sans-Serif" font-size="10.00">atomic.h</text>
</a>
</g>
</g>
<!-- Node9&#45;&gt;Node11 -->
<g id="edge10" class="edge">
<title>Node9&#45;&gt;Node11</title>
<path fill="none" stroke="midnightblue" d="M204.4,-218.34C218.41,-208.52 236.38,-195.91 248.16,-187.65"/>
<polygon fill="midnightblue" stroke="midnightblue" points="202.05,-215.72 195.87,-224.32 206.07,-221.45 202.05,-215.72"/>
</g>
<!-- Node12 -->
<g id="node12" class="node">
<title>Node12</title>
<g id="a_node12"><a xlink:href="arch_2default-linux_2odp_2api_2abi_2atomic_8h_source.html" target="_top" xlink:title=" ">
<polygon fill="white" stroke="black" points="308,-168.5 308,-187.5 367,-187.5 367,-168.5 308,-168.5"/>
<text text-anchor="middle" x="337.5" y="-175.5" font-family="Helvetica,sans-Serif" font-size="10.00">atomic.h</text>
</a>
</g>
</g>
<!-- Node9&#45;&gt;Node12 -->
<g id="edge11" class="edge">
<title>Node9&#45;&gt;Node12</title>
<path fill="none" stroke="midnightblue" d="M217.61,-221.04C246.59,-210.88 287.46,-196.55 313.21,-187.52"/>
<polygon fill="midnightblue" stroke="midnightblue" points="216.18,-217.83 207.9,-224.44 218.5,-224.44 216.18,-217.83"/>
</g>
<!-- Node13 -->
<g id="node13" class="node">
<title>Node13</title>
<g id="a_node13"><a xlink:href="arch_2power64-linux_2odp_2api_2abi_2atomic_8h_source.html" target="_top" xlink:title=" ">
<polygon fill="white" stroke="black" points="0,-168.5 0,-187.5 59,-187.5 59,-168.5 0,-168.5"/>
<text text-anchor="middle" x="29.5" y="-175.5" font-family="Helvetica,sans-Serif" font-size="10.00">atomic.h</text>
</a>
</g>
</g>
<!-- Node9&#45;&gt;Node13 -->
<g id="edge12" class="edge">
<title>Node9&#45;&gt;Node13</title>
<path fill="none" stroke="midnightblue" d="M149.39,-221.04C120.41,-210.88 79.54,-196.55 53.79,-187.52"/>
<polygon fill="midnightblue" stroke="midnightblue" points="148.5,-224.44 159.1,-224.44 150.82,-217.83 148.5,-224.44"/>
</g>
<!-- Node14 -->
<g id="node14" class="node">
<title>Node14</title>
<g id="a_node14"><a xlink:href="arch_2x86__32-linux_2odp_2api_2abi_2atomic_8h_source.html" target="_top" xlink:title=" ">
<polygon fill="white" stroke="black" points="77,-168.5 77,-187.5 136,-187.5 136,-168.5 77,-168.5"/>
<text text-anchor="middle" x="106.5" y="-175.5" font-family="Helvetica,sans-Serif" font-size="10.00">atomic.h</text>
</a>
</g>
</g>
<!-- Node9&#45;&gt;Node14 -->
<g id="edge13" class="edge">
<title>Node9&#45;&gt;Node14</title>
<path fill="none" stroke="midnightblue" d="M162.6,-218.34C148.59,-208.52 130.62,-195.91 118.84,-187.65"/>
<polygon fill="midnightblue" stroke="midnightblue" points="160.93,-221.45 171.13,-224.32 164.95,-215.72 160.93,-221.45"/>
</g>
<!-- Node15 -->
<g id="node15" class="node">
<title>Node15</title>
<g id="a_node15"><a xlink:href="arch_2x86__64-linux_2odp_2api_2abi_2atomic_8h_source.html" target="_top" xlink:title=" ">
<polygon fill="white" stroke="black" points="990,-168.5 990,-187.5 1049,-187.5 1049,-168.5 990,-168.5"/>
<text text-anchor="middle" x="1019.5" y="-175.5" font-family="Helvetica,sans-Serif" font-size="10.00">atomic.h</text>
</a>
</g>
</g>
<!-- Node9&#45;&gt;Node15 -->
<g id="edge14" class="edge">
<title>Node9&#45;&gt;Node15</title>
<path fill="none" stroke="midnightblue" d="M223.09,-224.62C224.58,-224.4 226.05,-224.19 227.5,-224 523.18,-185.57 885.19,-179.95 989.87,-179.14"/>
<polygon fill="midnightblue" stroke="midnightblue" points="222.49,-221.18 213.22,-226.31 223.67,-228.07 222.49,-221.18"/>
</g>
<!-- Node16 -->
<g id="node16" class="node">
<title>Node16</title>
<g id="a_node16"><a xlink:href="api_2atomic_8h.html" target="_top" xlink:title=" ">
<polygon fill="white" stroke="red" points="1756,-112.5 1756,-131.5 1815,-131.5 1815,-112.5 1756,-112.5"/>
<text text-anchor="middle" x="1785.5" y="-119.5" font-family="Helvetica,sans-Serif" font-size="10.00">atomic.h</text>
</a>
</g>
</g>
<!-- Node15&#45;&gt;Node16 -->
<g id="edge15" class="edge">
<title>Node15&#45;&gt;Node16</title>
<path fill="none" stroke="midnightblue" d="M1059.39,-174.19C1195.01,-164.63 1636.44,-133.51 1755.62,-125.11"/>
<polygon fill="midnightblue" stroke="midnightblue" points="1058.79,-170.72 1049.06,-174.92 1059.28,-177.7 1058.79,-170.72"/>
</g>
<!-- Node17 -->
<g id="node17" class="node">
<title>Node17</title>
<g id="a_node17"><a xlink:href="api_2abi-default_2barrier_8h.html" target="_top" xlink:title=" ">
<polygon fill="white" stroke="red" points="1879,-56.5 1879,-75.5 1936,-75.5 1936,-56.5 1879,-56.5"/>
<text text-anchor="middle" x="1907.5" y="-63.5" font-family="Helvetica,sans-Serif" font-size="10.00">barrier.h</text>
</a>
</g>
</g>
<!-- Node16&#45;&gt;Node17 -->
<g id="edge16" class="edge">
<title>Node16&#45;&gt;Node17</title>
<path fill="none" stroke="midnightblue" d="M1814.04,-108.37C1836.89,-98.26 1868.31,-84.35 1888.26,-75.52"/>
<polygon fill="midnightblue" stroke="midnightblue" points="1812.56,-105.2 1804.83,-112.44 1815.39,-111.6 1812.56,-105.2"/>
</g>
<!-- Node24 -->
<g id="node18" class="node">
<title>Node24</title>
<g id="a_node18"><a xlink:href="api_2barrier_8h.html" target="_top" xlink:title=" ">
<polygon fill="white" stroke="black" points="1804,-56.5 1804,-75.5 1861,-75.5 1861,-56.5 1804,-56.5"/>
<text text-anchor="middle" x="1832.5" y="-63.5" font-family="Helvetica,sans-Serif" font-size="10.00">barrier.h</text>
</a>
</g>
</g>
<!-- Node16&#45;&gt;Node24 -->
<g id="edge17" class="edge">
<title>Node16&#45;&gt;Node24</title>
<path fill="none" stroke="midnightblue" d="M1799.92,-104.43C1808.16,-94.97 1818.15,-83.48 1824.88,-75.75"/>
<polygon fill="midnightblue" stroke="midnightblue" points="1797.19,-102.24 1793.26,-112.08 1802.47,-106.84 1797.19,-102.24"/>
</g>
<!-- Node16&#45;&gt;Node25 -->
<g id="edge19" class="edge">
<title>Node16&#45;&gt;Node25</title>
<path fill="none" stroke="midnightblue" d="M1782.93,-101.97C1782.11,-87.63 1783.53,-68.38 1794.5,-56 1812.57,-35.6 1888.09,-21.77 1932.16,-15.27"/>
<polygon fill="midnightblue" stroke="midnightblue" points="1779.48,-102.58 1783.94,-112.19 1786.44,-101.9 1779.48,-102.58"/>
</g>
<!-- Node24&#45;&gt;Node25 -->
<g id="edge18" class="edge">
<title>Node24&#45;&gt;Node25</title>
<path fill="none" stroke="midnightblue" d="M1862.72,-52.64C1887.49,-42.5 1921.9,-28.43 1943.68,-19.52"/>
<polygon fill="midnightblue" stroke="midnightblue" points="1861.35,-49.42 1853.42,-56.44 1864,-55.9 1861.35,-49.42"/>
</g>
<!-- Node51 -->
<g id="node21" class="node">
<title>Node51</title>
<g id="a_node21"><a xlink:href="arch_2arm32-linux_2odp_2api_2abi_2cpumask_8h_source.html" target="_top" xlink:title=" ">
<polygon fill="white" stroke="black" points="2255.5,-168.5 2255.5,-187.5 2325.5,-187.5 2325.5,-168.5 2255.5,-168.5"/>
<text text-anchor="middle" x="2290.5" y="-175.5" font-family="Helvetica,sans-Serif" font-size="10.00">cpumask.h</text>
</a>
</g>
</g>
<!-- Node50&#45;&gt;Node51 -->
<g id="edge21" class="edge">
<title>Node50&#45;&gt;Node51</title>
<path fill="none" stroke="midnightblue" d="M2260.92,-216.14C2268.41,-206.74 2277.44,-195.4 2283.53,-187.75"/>
<polygon fill="midnightblue" stroke="midnightblue" points="2258.09,-214.08 2254.6,-224.08 2263.57,-218.44 2258.09,-214.08"/>
</g>
<!-- Node52 -->
<g id="node22" class="node">
<title>Node52</title>
<g id="a_node22"><a xlink:href="arch_2arm64-linux_2odp_2api_2abi_2cpumask_8h_source.html" target="_top" xlink:title=" ">
<polygon fill="white" stroke="black" points="2343.5,-168.5 2343.5,-187.5 2413.5,-187.5 2413.5,-168.5 2343.5,-168.5"/>
<text text-anchor="middle" x="2378.5" y="-175.5" font-family="Helvetica,sans-Serif" font-size="10.00">cpumask.h</text>
</a>
</g>
</g>
<!-- Node50&#45;&gt;Node52 -->
<g id="edge22" class="edge">
<title>Node50&#45;&gt;Node52</title>
<path fill="none" stroke="midnightblue" d="M2277.82,-220.5C2302.38,-210.38 2336.32,-196.39 2357.84,-187.52"/>
<polygon fill="midnightblue" stroke="midnightblue" points="2276.17,-217.4 2268.26,-224.44 2278.84,-223.87 2276.17,-217.4"/>
</g>
<!-- Node53 -->
<g id="node23" class="node">
<title>Node53</title>
<g id="a_node23"><a xlink:href="arch_2default-linux_2odp_2api_2abi_2cpumask_8h_source.html" target="_top" xlink:title=" ">
<polygon fill="white" stroke="black" points="2431.5,-168.5 2431.5,-187.5 2501.5,-187.5 2501.5,-168.5 2431.5,-168.5"/>
<text text-anchor="middle" x="2466.5" y="-175.5" font-family="Helvetica,sans-Serif" font-size="10.00">cpumask.h</text>
</a>
</g>
</g>
<!-- Node50&#45;&gt;Node53 -->
<g id="edge23" class="edge">
<title>Node50&#45;&gt;Node53</title>
<path fill="none" stroke="midnightblue" d="M2292.01,-222.02C2333.38,-211.82 2394.14,-196.84 2431.96,-187.52"/>
<polygon fill="midnightblue" stroke="midnightblue" points="2291.07,-218.65 2282.2,-224.44 2292.75,-225.45 2291.07,-218.65"/>
</g>
<!-- Node54 -->
<g id="node24" class="node">
<title>Node54</title>
<g id="a_node24"><a xlink:href="arch_2power64-linux_2odp_2api_2abi_2cpumask_8h_source.html" target="_top" xlink:title=" ">
<polygon fill="white" stroke="black" points="2079.5,-168.5 2079.5,-187.5 2149.5,-187.5 2149.5,-168.5 2079.5,-168.5"/>
<text text-anchor="middle" x="2114.5" y="-175.5" font-family="Helvetica,sans-Serif" font-size="10.00">cpumask.h</text>
</a>
</g>
</g>
<!-- Node50&#45;&gt;Node54 -->
<g id="edge24" class="edge">
<title>Node50&#45;&gt;Node54</title>
<path fill="none" stroke="midnightblue" d="M2217.05,-220.64C2192.09,-210.5 2157.42,-196.43 2135.48,-187.52"/>
<polygon fill="midnightblue" stroke="midnightblue" points="2215.84,-223.92 2226.43,-224.44 2218.48,-217.44 2215.84,-223.92"/>
</g>
<!-- Node55 -->
<g id="node25" class="node">
<title>Node55</title>
<g id="a_node25"><a xlink:href="arch_2x86__32-linux_2odp_2api_2abi_2cpumask_8h_source.html" target="_top" xlink:title=" ">
<polygon fill="white" stroke="black" points="2167.5,-168.5 2167.5,-187.5 2237.5,-187.5 2237.5,-168.5 2167.5,-168.5"/>
<text text-anchor="middle" x="2202.5" y="-175.5" font-family="Helvetica,sans-Serif" font-size="10.00">cpumask.h</text>
</a>
</g>
</g>
<!-- Node50&#45;&gt;Node55 -->
<g id="edge25" class="edge">
<title>Node50&#45;&gt;Node55</title>
<path fill="none" stroke="midnightblue" d="M2233.45,-216.14C2225.61,-206.74 2216.17,-195.4 2209.79,-187.75"/>
<polygon fill="midnightblue" stroke="midnightblue" points="2230.98,-218.64 2240.07,-224.08 2236.36,-214.16 2230.98,-218.64"/>
</g>
<!-- Node56 -->
<g id="node26" class="node">
<title>Node56</title>
<g id="a_node26"><a xlink:href="arch_2x86__64-linux_2odp_2api_2abi_2cpumask_8h_source.html" target="_top" xlink:title=" ">
<polygon fill="white" stroke="black" points="2519.5,-168.5 2519.5,-187.5 2589.5,-187.5 2589.5,-168.5 2519.5,-168.5"/>
<text text-anchor="middle" x="2554.5" y="-175.5" font-family="Helvetica,sans-Serif" font-size="10.00">cpumask.h</text>
</a>
</g>
</g>
<!-- Node50&#45;&gt;Node56 -->
<g id="edge26" class="edge">
<title>Node50&#45;&gt;Node56</title>
<path fill="none" stroke="midnightblue" d="M2292.87,-225.69C2345.35,-217.14 2434.31,-202.31 2510.5,-188 2513.41,-187.45 2516.43,-186.87 2519.46,-186.27"/>
<polygon fill="midnightblue" stroke="midnightblue" points="2292.18,-222.26 2282.87,-227.32 2293.3,-229.17 2292.18,-222.26"/>
</g>
<!-- Node57 -->
<g id="node27" class="node">
<title>Node57</title>
<g id="a_node27"><a xlink:href="api_2cpumask_8h.html" target="_top" xlink:title=" ">
<polygon fill="white" stroke="red" points="2083.5,-112.5 2083.5,-131.5 2153.5,-131.5 2153.5,-112.5 2083.5,-112.5"/>
<text text-anchor="middle" x="2118.5" y="-119.5" font-family="Helvetica,sans-Serif" font-size="10.00">cpumask.h</text>
</a>
</g>
</g>
<!-- Node56&#45;&gt;Node57 -->
<g id="edge27" class="edge">
<title>Node56&#45;&gt;Node57</title>
<path fill="none" stroke="midnightblue" d="M2509.2,-167.92C2371.81,-146.38 2220.54,-131.92 2153.51,-125.98"/>
<polygon fill="midnightblue" stroke="midnightblue" points="2509.06,-171.44 2519.49,-169.55 2510.16,-164.53 2509.06,-171.44"/>
</g>
<!-- Node57&#45;&gt;Node25 -->
<g id="edge29" class="edge">
<title>Node57&#45;&gt;Node25</title>
<path fill="none" stroke="midnightblue" d="M2116.9,-101.9C2114.72,-87.52 2109.59,-68.26 2097.5,-56 2070.63,-28.75 2026.69,-18 1996.73,-13.76"/>
<polygon fill="midnightblue" stroke="midnightblue" points="2113.46,-102.62 2118.09,-112.15 2120.41,-101.82 2113.46,-102.62"/>
</g>
<!-- Node114 -->
<g id="node28" class="node">
<title>Node114</title>
<g id="a_node28"><a xlink:href="api_2spec_2init_8h.html" target="_top" xlink:title=" ">
<polygon fill="white" stroke="red" points="2047,-56.5 2047,-75.5 2088,-75.5 2088,-56.5 2047,-56.5"/>
<text text-anchor="middle" x="2067.5" y="-63.5" font-family="Helvetica,sans-Serif" font-size="10.00">init.h</text>
</a>
</g>
</g>
<!-- Node57&#45;&gt;Node114 -->
<g id="edge28" class="edge">
<title>Node57&#45;&gt;Node114</title>
<path fill="none" stroke="midnightblue" d="M2103.12,-104.72C2094.13,-95.2 2083.14,-83.56 2075.76,-75.75"/>
<polygon fill="midnightblue" stroke="midnightblue" points="2100.67,-107.22 2110.08,-112.08 2105.76,-102.41 2100.67,-107.22"/>
</g>
<!-- Node119 -->
<g id="node30" class="node">
<title>Node119</title>
<g id="a_node30"><a xlink:href="api_2std__types_8h.html" target="_top" xlink:title=" ">
<polygon fill="white" stroke="red" points="1312,-280.5 1312,-299.5 1385,-299.5 1385,-280.5 1312,-280.5"/>
<text text-anchor="middle" x="1348.5" y="-287.5" font-family="Helvetica,sans-Serif" font-size="10.00">std_types.h</text>
</a>
</g>
</g>
<!-- Node118&#45;&gt;Node119 -->
<g id="edge31" class="edge">
<title>Node118&#45;&gt;Node119</title>
<path fill="none" stroke="midnightblue" d="M1513.72,-333.89C1474.44,-323.7 1417.07,-308.8 1381.3,-299.52"/>
<polygon fill="midnightblue" stroke="midnightblue" points="1512.98,-337.32 1523.54,-336.44 1514.74,-330.54 1512.98,-337.32"/>
</g>
<!-- Node119&#45;&gt;Node9 -->
<g id="edge32" class="edge">
<title>Node119&#45;&gt;Node9</title>
<path fill="none" stroke="midnightblue" d="M1301.72,-288.13C1117.34,-284.55 440.52,-269.89 227.5,-244 222.86,-243.44 217.97,-242.64 213.22,-241.76"/>
<polygon fill="midnightblue" stroke="midnightblue" points="1301.83,-291.63 1311.9,-288.33 1301.97,-284.64 1301.83,-291.63"/>
</g>
<!-- Node119&#45;&gt;Node17 -->
<g id="edge33" class="edge">
<title>Node119&#45;&gt;Node17</title>
<path fill="none" stroke="midnightblue" d="M1395.3,-287.81C1514.09,-284.39 1820.34,-272.83 1855.5,-244 1882.62,-221.76 1901.39,-108.04 1906.25,-75.63"/>
<polygon fill="midnightblue" stroke="midnightblue" points="1394.97,-284.32 1385.07,-288.1 1395.17,-291.32 1394.97,-284.32"/>
</g>
<!-- Node119&#45;&gt;Node24 -->
<g id="edge43" class="edge">
<title>Node119&#45;&gt;Node24</title>
<path fill="none" stroke="midnightblue" d="M1395.44,-288.17C1511.61,-285.63 1805.26,-276.07 1834.5,-244 1878.81,-195.4 1847.64,-104.37 1836.22,-75.81"/>
<polygon fill="midnightblue" stroke="midnightblue" points="1395.02,-284.68 1385.1,-288.39 1395.17,-291.68 1395.02,-284.68"/>
</g>
<!-- Node119&#45;&gt;Node25 -->
<g id="edge60" class="edge">
<title>Node119&#45;&gt;Node25</title>
<path fill="none" stroke="midnightblue" d="M1395.33,-287.8C1525.38,-284.12 1884.36,-271.55 1929.5,-244 1979.41,-213.54 1982.56,-188.25 1998.5,-132 2010.46,-89.8 1982.68,-39.27 1970.19,-19.51"/>
<polygon fill="midnightblue" stroke="midnightblue" points="1395.18,-284.3 1385.28,-288.08 1395.38,-291.3 1395.18,-284.3"/>
</g>
<!-- Node119&#45;&gt;Node50 -->
<g id="edge35" class="edge">
<title>Node119&#45;&gt;Node50</title>
<path fill="none" stroke="midnightblue" d="M1395.71,-287.17C1520.65,-282.16 1870.23,-267.04 2160.5,-244 2177.6,-242.64 2196.56,-240.73 2212.4,-239.02"/>
<polygon fill="midnightblue" stroke="midnightblue" points="1395.22,-283.69 1385.37,-287.58 1395.5,-290.68 1395.22,-283.69"/>
</g>
<!-- Node119&#45;&gt;Node114 -->
<g id="edge58" class="edge">
<title>Node119&#45;&gt;Node114</title>
<path fill="none" stroke="midnightblue" d="M1395.65,-289.08C1541.7,-288.88 1979.7,-284.87 2027.5,-244 2078.98,-199.98 2072.2,-105.06 2068.71,-75.78"/>
<polygon fill="midnightblue" stroke="midnightblue" points="1395.24,-285.58 1385.24,-289.09 1395.25,-292.58 1395.24,-285.58"/>
</g>
<!-- Node120 -->
<g id="node31" class="node">
<title>Node120</title>
<g id="a_node31"><a xlink:href="api_2abi-default_2byteorder_8h.html" target="_top" xlink:title=" ">
<polygon fill="white" stroke="red" points="2079.5,-224.5 2079.5,-243.5 2151.5,-243.5 2151.5,-224.5 2079.5,-224.5"/>
<text text-anchor="middle" x="2115.5" y="-231.5" font-family="Helvetica,sans-Serif" font-size="10.00">byteorder.h</text>
</a>
</g>
</g>
<!-- Node119&#45;&gt;Node120 -->
<g id="edge34" class="edge">
<title>Node119&#45;&gt;Node120</title>
<path fill="none" stroke="midnightblue" d="M1395.38,-287.93C1510.1,-284.9 1813.95,-274.43 2065.5,-244 2069.97,-243.46 2074.64,-242.78 2079.25,-242.03"/>
<polygon fill="midnightblue" stroke="midnightblue" points="1395.11,-284.44 1385.2,-288.19 1395.29,-291.43 1395.11,-284.44"/>
</g>
<!-- Node128 -->
<g id="node32" class="node">
<title>Node128</title>
<g id="a_node32"><a xlink:href="api_2abi-default_2init_8h.html" target="_top" xlink:title=" ">
<polygon fill="white" stroke="red" points="270,-224.5 270,-243.5 311,-243.5 311,-224.5 270,-224.5"/>
<text text-anchor="middle" x="290.5" y="-231.5" font-family="Helvetica,sans-Serif" font-size="10.00">init.h</text>
</a>
</g>
</g>
<!-- Node119&#45;&gt;Node128 -->
<g id="edge36" class="edge">
<title>Node119&#45;&gt;Node128</title>
<path fill="none" stroke="midnightblue" d="M1301.79,-288.55C1127.08,-286.62 512.21,-277.54 319.5,-244 316.8,-243.53 314,-242.88 311.25,-242.14"/>
<polygon fill="midnightblue" stroke="midnightblue" points="1301.9,-292.05 1311.94,-288.66 1301.98,-285.05 1301.9,-292.05"/>
</g>
<!-- Node135 -->
<g id="node33" class="node">
<title>Node135</title>
<g id="a_node33"><a xlink:href="api_2abi-default_2ipsec__types_8h_source.html" target="_top" xlink:title=" ">
<polygon fill="white" stroke="red" points="329,-224.5 329,-243.5 412,-243.5 412,-224.5 329,-224.5"/>
<text text-anchor="middle" x="370.5" y="-231.5" font-family="Helvetica,sans-Serif" font-size="10.00">ipsec_types.h</text>
</a>
</g>
</g>
<!-- Node119&#45;&gt;Node135 -->
<g id="edge37" class="edge">
<title>Node119&#45;&gt;Node135</title>
<path fill="none" stroke="midnightblue" d="M1301.62,-288.81C1165.3,-287.81 757.42,-281.64 421.5,-244 418.46,-243.66 415.33,-243.25 412.19,-242.8"/>
<polygon fill="midnightblue" stroke="midnightblue" points="1301.69,-292.31 1311.71,-288.88 1301.74,-285.31 1301.69,-292.31"/>
</g>
<!-- Node142 -->
<g id="node34" class="node">
<title>Node142</title>
<g id="a_node34"><a xlink:href="api_2abi-default_2packet__io__types_8h.html" target="_top" xlink:title=" ">
<polygon fill="white" stroke="red" points="430.5,-224.5 430.5,-243.5 534.5,-243.5 534.5,-224.5 430.5,-224.5"/>
<text text-anchor="middle" x="482.5" y="-231.5" font-family="Helvetica,sans-Serif" font-size="10.00">packet_io_types.h</text>
</a>
</g>
</g>
<!-- Node119&#45;&gt;Node142 -->
<g id="edge38" class="edge">
<title>Node119&#45;&gt;Node142</title>
<path fill="none" stroke="midnightblue" d="M1301.63,-287.86C1177.62,-284.54 830.71,-273.15 543.5,-244 540.62,-243.71 537.68,-243.38 534.7,-243.02"/>
<polygon fill="midnightblue" stroke="midnightblue" points="1301.81,-291.37 1311.9,-288.14 1302,-284.37 1301.81,-291.37"/>
</g>
<!-- Node34 -->
<g id="node35" class="node">
<title>Node34</title>
<g id="a_node35"><a xlink:href="api_2abi-default_2rwlock__recursive_8h.html" target="_top" xlink:title=" ">
<polygon fill="white" stroke="red" points="552.5,-224.5 552.5,-243.5 660.5,-243.5 660.5,-224.5 552.5,-224.5"/>
<text text-anchor="middle" x="606.5" y="-231.5" font-family="Helvetica,sans-Serif" font-size="10.00">rwlock_recursive.h</text>
</a>
</g>
</g>
<!-- Node119&#45;&gt;Node34 -->
<g id="edge39" class="edge">
<title>Node119&#45;&gt;Node34</title>
<path fill="none" stroke="midnightblue" d="M1301.87,-287.13C1191.66,-282.44 906.55,-268.75 669.5,-244 666.64,-243.7 663.72,-243.37 660.76,-243.02"/>
<polygon fill="midnightblue" stroke="midnightblue" points="1301.84,-290.63 1311.98,-287.55 1302.14,-283.64 1301.84,-290.63"/>
</g>
<!-- Node149 -->
<g id="node36" class="node">
<title>Node149</title>
<g id="a_node36"><a xlink:href="api_2abi-default_2schedule__types_8h.html" target="_top" xlink:title=" ">
<polygon fill="white" stroke="red" points="679,-224.5 679,-243.5 780,-243.5 780,-224.5 679,-224.5"/>
<text text-anchor="middle" x="729.5" y="-231.5" font-family="Helvetica,sans-Serif" font-size="10.00">schedule_types.h</text>
</a>
</g>
</g>
<!-- Node119&#45;&gt;Node149 -->
<g id="edge40" class="edge">
<title>Node119&#45;&gt;Node149</title>
<path fill="none" stroke="midnightblue" d="M1301.52,-286.31C1205.26,-280.56 978.75,-265.79 789.5,-244 786.47,-243.65 783.35,-243.27 780.21,-242.86"/>
<polygon fill="midnightblue" stroke="midnightblue" points="1301.6,-289.82 1311.79,-286.92 1302.01,-282.83 1301.6,-289.82"/>
</g>
<!-- Node156 -->
<g id="node37" class="node">
<title>Node156</title>
<g id="a_node37"><a xlink:href="api_2abi-default_2spinlock__recursive_8h.html" target="_top" xlink:title=" ">
<polygon fill="white" stroke="red" points="798.5,-224.5 798.5,-243.5 914.5,-243.5 914.5,-224.5 798.5,-224.5"/>
<text text-anchor="middle" x="856.5" y="-231.5" font-family="Helvetica,sans-Serif" font-size="10.00">spinlock_recursive.h</text>
</a>
</g>
</g>
<!-- Node119&#45;&gt;Node156 -->
<g id="edge41" class="edge">
<title>Node119&#45;&gt;Node156</title>
<path fill="none" stroke="midnightblue" d="M1301.77,-284.48C1223.45,-276.82 1060.8,-260.49 923.5,-244 920.59,-243.65 917.6,-243.28 914.59,-242.9"/>
<polygon fill="midnightblue" stroke="midnightblue" points="1301.5,-287.97 1311.79,-285.46 1302.18,-281.01 1301.5,-287.97"/>
</g>
<!-- Node164 -->
<g id="node38" class="node">
<title>Node164</title>
<g id="a_node38"><a xlink:href="api_2abi-default_2traffic__mngr_8h.html" target="_top" xlink:title=" ">
<polygon fill="white" stroke="red" points="932.5,-224.5 932.5,-243.5 1016.5,-243.5 1016.5,-224.5 932.5,-224.5"/>
<text text-anchor="middle" x="974.5" y="-231.5" font-family="Helvetica,sans-Serif" font-size="10.00">traffic_mngr.h</text>
</a>
</g>
</g>
<!-- Node119&#45;&gt;Node164 -->
<g id="edge42" class="edge">
<title>Node119&#45;&gt;Node164</title>
<path fill="none" stroke="midnightblue" d="M1301.97,-283.13C1238.96,-275.05 1123.05,-259.71 1024.5,-244 1021.97,-243.6 1019.38,-243.17 1016.76,-242.73"/>
<polygon fill="midnightblue" stroke="midnightblue" points="1301.62,-286.62 1311.99,-284.41 1302.51,-279.67 1301.62,-286.62"/>
</g>
<!-- Node83 -->
<g id="node39" class="node">
<title>Node83</title>
<g id="a_node39"><a xlink:href="api_2classification_8h.html" target="_top" xlink:title=" ">
<polygon fill="white" stroke="red" points="1683,-168.5 1683,-187.5 1772,-187.5 1772,-168.5 1683,-168.5"/>
<text text-anchor="middle" x="1727.5" y="-175.5" font-family="Helvetica,sans-Serif" font-size="10.00">classification.h</text>
</a>
</g>
</g>
<!-- Node119&#45;&gt;Node83 -->
<g id="edge44" class="edge">
<title>Node119&#45;&gt;Node83</title>
<path fill="none" stroke="midnightblue" d="M1301.54,-287.94C1095.25,-283.16 278.79,-263.06 260.5,-244 254.35,-237.59 254.31,-230.38 260.5,-224 285.89,-197.82 1439.73,-182.47 1682.83,-179.52"/>
<polygon fill="midnightblue" stroke="midnightblue" points="1301.66,-291.44 1311.74,-288.17 1301.82,-284.44 1301.66,-291.44"/>
</g>
<!-- Node171 -->
<g id="node40" class="node">
<title>Node171</title>
<g id="a_node40"><a xlink:href="api_2proto__stats_8h.html" target="_top" xlink:title=" ">
<polygon fill="white" stroke="black" points="1909.5,-112.5 1909.5,-131.5 1989.5,-131.5 1989.5,-112.5 1909.5,-112.5"/>
<text text-anchor="middle" x="1949.5" y="-119.5" font-family="Helvetica,sans-Serif" font-size="10.00">proto_stats.h</text>
</a>
</g>
</g>
<!-- Node119&#45;&gt;Node171 -->
<g id="edge46" class="edge">
<title>Node119&#45;&gt;Node171</title>
<path fill="none" stroke="midnightblue" d="M1395.5,-288.1C1522.61,-285.27 1866.39,-274.8 1906.5,-244 1943.1,-215.89 1948.63,-154.13 1949.4,-131.51"/>
<polygon fill="midnightblue" stroke="midnightblue" points="1395.22,-284.6 1385.3,-288.32 1395.37,-291.6 1395.22,-284.6"/>
</g>
<!-- Node80 -->
<g id="node41" class="node">
<title>Node80</title>
<g id="a_node41"><a xlink:href="api_2spec_2buffer_8h.html" target="_top" xlink:title=" ">
<polygon fill="white" stroke="red" points="1034,-224.5 1034,-243.5 1087,-243.5 1087,-224.5 1034,-224.5"/>
<text text-anchor="middle" x="1060.5" y="-231.5" font-family="Helvetica,sans-Serif" font-size="10.00">buffer.h</text>
</a>
</g>
</g>
<!-- Node119&#45;&gt;Node80 -->
<g id="edge48" class="edge">
<title>Node119&#45;&gt;Node80</title>
<path fill="none" stroke="midnightblue" d="M1301.61,-281.61C1250.86,-273.38 1167.65,-259.23 1096.5,-244 1093.48,-243.35 1090.32,-242.63 1087.19,-241.89"/>
<polygon fill="midnightblue" stroke="midnightblue" points="1301.19,-285.09 1311.62,-283.22 1302.31,-278.18 1301.19,-285.09"/>
</g>
<!-- Node172 -->
<g id="node42" class="node">
<title>Node172</title>
<g id="a_node42"><a xlink:href="spec_2chksum_8h.html" target="_top" xlink:title=" ">
<polygon fill="white" stroke="red" points="1105.5,-224.5 1105.5,-243.5 1169.5,-243.5 1169.5,-224.5 1105.5,-224.5"/>
<text text-anchor="middle" x="1137.5" y="-231.5" font-family="Helvetica,sans-Serif" font-size="10.00">chksum.h</text>
</a>
</g>
</g>
<!-- Node119&#45;&gt;Node172 -->
<g id="edge49" class="edge">
<title>Node119&#45;&gt;Node172</title>
<path fill="none" stroke="midnightblue" d="M1305.27,-277.94C1265.04,-267.64 1205.99,-252.53 1169.74,-243.25"/>
<polygon fill="midnightblue" stroke="midnightblue" points="1304.51,-281.35 1315.07,-280.44 1306.25,-274.57 1304.51,-281.35"/>
</g>
<!-- Node82 -->
<g id="node43" class="node">
<title>Node82</title>
<g id="a_node43"><a xlink:href="api_2spec_2classification_8h.html" target="_top" xlink:title=" ">
<polygon fill="white" stroke="black" points="1737,-224.5 1737,-243.5 1826,-243.5 1826,-224.5 1737,-224.5"/>
<text text-anchor="middle" x="1781.5" y="-231.5" font-family="Helvetica,sans-Serif" font-size="10.00">classification.h</text>
</a>
</g>
</g>
<!-- Node119&#45;&gt;Node82 -->
<g id="edge50" class="edge">
<title>Node119&#45;&gt;Node82</title>
<path fill="none" stroke="midnightblue" d="M1395.21,-284.17C1466.85,-276.6 1608.08,-261.03 1727.5,-244 1730.51,-243.57 1733.61,-243.11 1736.74,-242.63"/>
<polygon fill="midnightblue" stroke="midnightblue" points="1394.74,-280.7 1385.16,-285.23 1395.47,-287.66 1394.74,-280.7"/>
</g>
<!-- Node72 -->
<g id="node44" class="node">
<title>Node72</title>
<g id="a_node44"><a xlink:href="api_2spec_2comp_8h.html" target="_top" xlink:title=" ">
<polygon fill="white" stroke="red" points="1188,-224.5 1188,-243.5 1241,-243.5 1241,-224.5 1188,-224.5"/>
<text text-anchor="middle" x="1214.5" y="-231.5" font-family="Helvetica,sans-Serif" font-size="10.00">comp.h</text>
</a>
</g>
</g>
<!-- Node119&#45;&gt;Node72 -->
<g id="edge52" class="edge">
<title>Node119&#45;&gt;Node72</title>
<path fill="none" stroke="midnightblue" d="M1317.82,-276.64C1292.68,-266.5 1257.75,-252.43 1235.63,-243.52"/>
<polygon fill="midnightblue" stroke="midnightblue" points="1316.68,-279.95 1327.27,-280.44 1319.3,-273.46 1316.68,-279.95"/>
</g>
<!-- Node174 -->
<g id="node45" class="node">
<title>Node174</title>
<g id="a_node45"><a xlink:href="api_2spec_2cpu_8h.html" target="_top" xlink:title=" ">
<polygon fill="white" stroke="red" points="1259,-224.5 1259,-243.5 1302,-243.5 1302,-224.5 1259,-224.5"/>
<text text-anchor="middle" x="1280.5" y="-231.5" font-family="Helvetica,sans-Serif" font-size="10.00">cpu.h</text>
</a>
</g>
</g>
<!-- Node119&#45;&gt;Node174 -->
<g id="edge53" class="edge">
<title>Node119&#45;&gt;Node174</title>
<path fill="none" stroke="midnightblue" d="M1329.74,-274.1C1317.5,-264.38 1301.94,-252.03 1291.62,-243.83"/>
<polygon fill="midnightblue" stroke="midnightblue" points="1327.57,-276.85 1337.57,-280.32 1331.92,-271.36 1327.57,-276.85"/>
</g>
<!-- Node92 -->
<g id="node46" class="node">
<title>Node92</title>
<g id="a_node46"><a xlink:href="api_2spec_2crypto_8h.html" target="_top" xlink:title=" ">
<polygon fill="white" stroke="red" points="1320.5,-224.5 1320.5,-243.5 1376.5,-243.5 1376.5,-224.5 1320.5,-224.5"/>
<text text-anchor="middle" x="1348.5" y="-231.5" font-family="Helvetica,sans-Serif" font-size="10.00">crypto.h</text>
</a>
</g>
</g>
<!-- Node119&#45;&gt;Node92 -->
<g id="edge54" class="edge">
<title>Node119&#45;&gt;Node92</title>
<path fill="none" stroke="midnightblue" d="M1348.5,-269.8C1348.5,-260.91 1348.5,-250.78 1348.5,-243.75"/>
<polygon fill="midnightblue" stroke="midnightblue" points="1345,-270.08 1348.5,-280.08 1352,-270.08 1345,-270.08"/>
</g>
<!-- Node90 -->
<g id="node47" class="node">
<title>Node90</title>
<g id="a_node47"><a xlink:href="api_2spec_2crypto__types_8h.html" target="_top" xlink:title=" ">
<polygon fill="white" stroke="red" points="1395,-224.5 1395,-243.5 1484,-243.5 1484,-224.5 1395,-224.5"/>
<text text-anchor="middle" x="1439.5" y="-231.5" font-family="Helvetica,sans-Serif" font-size="10.00">crypto_types.h</text>
</a>
</g>
</g>
<!-- Node119&#45;&gt;Node90 -->
<g id="edge55" class="edge">
<title>Node119&#45;&gt;Node90</title>
<path fill="none" stroke="midnightblue" d="M1371.79,-275.18C1388.54,-265.24 1410.6,-252.15 1424.92,-243.65"/>
<polygon fill="midnightblue" stroke="midnightblue" points="1369.93,-272.21 1363.12,-280.32 1373.51,-278.23 1369.93,-272.21"/>
</g>
<!-- Node74 -->
<g id="node48" class="node">
<title>Node74</title>
<g id="a_node48"><a xlink:href="api_2spec_2dma__types_8h.html" target="_top" xlink:title=" ">
<polygon fill="white" stroke="red" points="1502.5,-224.5 1502.5,-243.5 1582.5,-243.5 1582.5,-224.5 1502.5,-224.5"/>
<text text-anchor="middle" x="1542.5" y="-231.5" font-family="Helvetica,sans-Serif" font-size="10.00">dma_types.h</text>
</a>
</g>
</g>
<!-- Node119&#45;&gt;Node74 -->
<g id="edge56" class="edge">
<title>Node119&#45;&gt;Node74</title>
<path fill="none" stroke="midnightblue" d="M1389.1,-277.7C1425.72,-267.51 1478.76,-252.74 1511.9,-243.52"/>
<polygon fill="midnightblue" stroke="midnightblue" points="1387.94,-274.39 1379.24,-280.44 1389.81,-281.13 1387.94,-274.39"/>
</g>
<!-- Node176 -->
<g id="node49" class="node">
<title>Node176</title>
<g id="a_node49"><a xlink:href="api_2spec_2hash_8h.html" target="_top" xlink:title=" ">
<polygon fill="white" stroke="red" points="1601,-224.5 1601,-243.5 1650,-243.5 1650,-224.5 1601,-224.5"/>
<text text-anchor="middle" x="1625.5" y="-231.5" font-family="Helvetica,sans-Serif" font-size="10.00">hash.h</text>
</a>
</g>
</g>
<!-- Node119&#45;&gt;Node176 -->
<g id="edge57" class="edge">
<title>Node119&#45;&gt;Node176</title>
<path fill="none" stroke="midnightblue" d="M1395.32,-281.41C1444.41,-273.2 1523.69,-259.23 1591.5,-244 1594.48,-243.33 1597.59,-242.58 1600.67,-241.8"/>
<polygon fill="midnightblue" stroke="midnightblue" points="1394.61,-277.98 1385.32,-283.07 1395.75,-284.89 1394.61,-277.98"/>
</g>
<!-- Node86 -->
<g id="node50" class="node">
<title>Node86</title>
<g id="a_node50"><a xlink:href="api_2spec_2ipsec_8h.html" target="_top" xlink:title=" ">
<polygon fill="white" stroke="red" points="1668,-224.5 1668,-243.5 1719,-243.5 1719,-224.5 1668,-224.5"/>
<text text-anchor="middle" x="1693.5" y="-231.5" font-family="Helvetica,sans-Serif" font-size="10.00">ipsec.h</text>
</a>
</g>
</g>
<!-- Node119&#45;&gt;Node86 -->
<g id="edge59" class="edge">
<title>Node119&#45;&gt;Node86</title>
<path fill="none" stroke="midnightblue" d="M1395.55,-283.77C1456.53,-276.62 1566.01,-262.55 1658.5,-244 1661.58,-243.38 1664.79,-242.66 1667.96,-241.91"/>
<polygon fill="midnightblue" stroke="midnightblue" points="1394.99,-280.31 1385.46,-284.94 1395.8,-287.26 1394.99,-280.31"/>
</g>
<!-- Node83&#45;&gt;Node25 -->
<g id="edge45" class="edge">
<title>Node83&#45;&gt;Node25</title>
<path fill="none" stroke="midnightblue" d="M1729.99,-158.27C1734.73,-130.86 1747.75,-80.43 1781.5,-56 1826.82,-23.19 1893.24,-14.13 1932.36,-11.74"/>
<polygon fill="midnightblue" stroke="midnightblue" points="1726.49,-158.05 1728.44,-168.47 1733.41,-159.11 1726.49,-158.05"/>
</g>
<!-- Node171&#45;&gt;Node25 -->
<g id="edge47" class="edge">
<title>Node171&#45;&gt;Node25</title>
<path fill="none" stroke="midnightblue" d="M1952.04,-102.35C1955.33,-78.25 1960.91,-37.31 1963.33,-19.59"/>
<polygon fill="midnightblue" stroke="midnightblue" points="1948.56,-101.99 1950.68,-112.37 1955.5,-102.93 1948.56,-101.99"/>
</g>
<!-- Node82&#45;&gt;Node83 -->
<g id="edge51" class="edge">
<title>Node82&#45;&gt;Node83</title>
<path fill="none" stroke="midnightblue" d="M1765.5,-217C1755.93,-207.43 1744.14,-195.64 1736.25,-187.75"/>
<polygon fill="midnightblue" stroke="midnightblue" points="1763.04,-219.49 1772.58,-224.08 1767.99,-214.54 1763.04,-219.49"/>
</g>
</g>
</svg>
