<?xml version="1.0" encoding="UTF-8" standalone="no"?>
<!DOCTYPE svg PUBLIC "-//W3C//DTD SVG 1.1//EN"
 "http://www.w3.org/Graphics/SVG/1.1/DTD/svg11.dtd">
<!-- Generated by graphviz version 2.43.0 (0)
 -->
<!-- Title: event.h Pages: 1 -->
<svg width="1207pt" height="878pt"
 viewBox="0.00 0.00 1207.00 878.00" xmlns="http://www.w3.org/2000/svg" xmlns:xlink="http://www.w3.org/1999/xlink">
<g id="graph0" class="graph" transform="scale(1 1) rotate(0) translate(4 874)">
<title>event.h</title>
<polygon fill="white" stroke="transparent" points="-4,4 -4,-874 1203,-874 1203,4 -4,4"/>
<!-- Node1 -->
<g id="node1" class="node">
<title>Node1</title>
<g id="a_node1"><a xlink:title=" ">
<polygon fill="#bfbfbf" stroke="black" points="334.5,-850.5 334.5,-869.5 387.5,-869.5 387.5,-850.5 334.5,-850.5"/>
<text text-anchor="middle" x="361" y="-857.5" font-family="Helvetica,sans-Serif" font-size="10.00">event.h</text>
</a>
</g>
</g>
<!-- Node2 -->
<g id="node2" class="node">
<title>Node2</title>
<g id="a_node2"><a xlink:title=" ">
<polygon fill="white" stroke="#bfbfbf" points="240,-794.5 240,-813.5 350,-813.5 350,-794.5 240,-794.5"/>
<text text-anchor="middle" x="295" y="-801.5" font-family="Helvetica,sans-Serif" font-size="10.00">odp/api/abi/event.h</text>
</a>
</g>
</g>
<!-- Node1&#45;&gt;Node2 -->
<g id="edge1" class="edge">
<title>Node1&#45;&gt;Node2</title>
<path fill="none" stroke="midnightblue" d="M350.4,-850.32C340.54,-842.26 325.65,-830.08 313.78,-820.37"/>
<polygon fill="midnightblue" stroke="midnightblue" points="315.75,-817.46 305.8,-813.83 311.32,-822.88 315.75,-817.46"/>
</g>
<!-- Node3 -->
<g id="node3" class="node">
<title>Node3</title>
<g id="a_node3"><a xlink:href="api_2spec_2event_8h.html" target="_top" xlink:title=" ">
<polygon fill="white" stroke="black" points="368,-794.5 368,-813.5 486,-813.5 486,-794.5 368,-794.5"/>
<text text-anchor="middle" x="427" y="-801.5" font-family="Helvetica,sans-Serif" font-size="10.00">odp/api/spec/event.h</text>
</a>
</g>
</g>
<!-- Node1&#45;&gt;Node3 -->
<g id="edge2" class="edge">
<title>Node1&#45;&gt;Node3</title>
<path fill="none" stroke="midnightblue" d="M371.6,-850.32C381.46,-842.26 396.35,-830.08 408.22,-820.37"/>
<polygon fill="midnightblue" stroke="midnightblue" points="410.68,-822.88 416.2,-813.83 406.25,-817.46 410.68,-822.88"/>
</g>
<!-- Node4 -->
<g id="node4" class="node">
<title>Node4</title>
<g id="a_node4"><a xlink:href="visibility__begin_8h_source.html" target="_top" xlink:title=" ">
<polygon fill="white" stroke="black" points="829.5,-0.5 829.5,-19.5 950.5,-19.5 950.5,-0.5 829.5,-0.5"/>
<text text-anchor="middle" x="890" y="-7.5" font-family="Helvetica,sans-Serif" font-size="10.00">odp/visibility_begin.h</text>
</a>
</g>
</g>
<!-- Node3&#45;&gt;Node4 -->
<g id="edge3" class="edge">
<title>Node3&#45;&gt;Node4</title>
<path fill="none" stroke="midnightblue" d="M486.3,-800.36C667.07,-791.55 1199,-759.49 1199,-687.5 1199,-687.5 1199,-687.5 1199,-132 1199,-91.32 1182.11,-78.16 1148,-56 1117.83,-36.39 1026.34,-23.83 960.89,-17.09"/>
<polygon fill="midnightblue" stroke="midnightblue" points="960.92,-13.58 950.62,-16.06 960.22,-20.55 960.92,-13.58"/>
</g>
<!-- Node5 -->
<g id="node5" class="node">
<title>Node5</title>
<g id="a_node5"><a xlink:href="api_2event__types_8h.html" target="_top" xlink:title=" ">
<polygon fill="white" stroke="black" points="113.5,-123.5 113.5,-142.5 238.5,-142.5 238.5,-123.5 113.5,-123.5"/>
<text text-anchor="middle" x="176" y="-130.5" font-family="Helvetica,sans-Serif" font-size="10.00">odp/api/event_types.h</text>
</a>
</g>
</g>
<!-- Node3&#45;&gt;Node5 -->
<g id="edge4" class="edge">
<title>Node3&#45;&gt;Node5</title>
<path fill="none" stroke="midnightblue" d="M388.43,-794.46C297.25,-773.74 76,-720.1 76,-687.5 76,-687.5 76,-687.5 76,-562.5 76,-477.25 114,-459.75 114,-374.5 114,-374.5 114,-374.5 114,-244 114,-206.62 141.5,-170.24 159.87,-150.1"/>
<polygon fill="midnightblue" stroke="midnightblue" points="162.51,-152.41 166.85,-142.75 157.43,-147.59 162.51,-152.41"/>
</g>
<!-- Node8 -->
<g id="node8" class="node">
<title>Node8</title>
<g id="a_node8"><a xlink:href="visibility__end_8h_source.html" target="_top" xlink:title=" ">
<polygon fill="white" stroke="black" points="258,-0.5 258,-19.5 370,-19.5 370,-0.5 258,-0.5"/>
<text text-anchor="middle" x="314" y="-7.5" font-family="Helvetica,sans-Serif" font-size="10.00">odp/visibility_end.h</text>
</a>
</g>
</g>
<!-- Node3&#45;&gt;Node8 -->
<g id="edge48" class="edge">
<title>Node3&#45;&gt;Node8</title>
<path fill="none" stroke="midnightblue" d="M371.7,-794.49C309.06,-784.61 211.04,-768.36 175,-758 94.41,-734.84 0,-771.35 0,-687.5 0,-687.5 0,-687.5 0,-132 0,-93.41 10.48,-78.26 42,-56 74.28,-33.2 178.09,-21.09 247.72,-15.37"/>
<polygon fill="midnightblue" stroke="midnightblue" points="248.04,-18.85 257.73,-14.57 247.48,-11.87 248.04,-18.85"/>
</g>
<!-- Node9 -->
<g id="node9" class="node">
<title>Node9</title>
<g id="a_node9"><a xlink:href="api_2packet__types_8h.html" target="_top" xlink:title=" ">
<polygon fill="white" stroke="black" points="713.5,-738.5 713.5,-757.5 842.5,-757.5 842.5,-738.5 713.5,-738.5"/>
<text text-anchor="middle" x="778" y="-745.5" font-family="Helvetica,sans-Serif" font-size="10.00">odp/api/packet_types.h</text>
</a>
</g>
</g>
<!-- Node3&#45;&gt;Node9 -->
<g id="edge9" class="edge">
<title>Node3&#45;&gt;Node9</title>
<path fill="none" stroke="midnightblue" d="M482.62,-794.44C545.13,-784.83 646.52,-769.23 712.73,-759.04"/>
<polygon fill="midnightblue" stroke="midnightblue" points="713.29,-762.5 722.64,-757.52 712.23,-755.58 713.29,-762.5"/>
</g>
<!-- Node6 -->
<g id="node6" class="node">
<title>Node6</title>
<g id="a_node6"><a xlink:title=" ">
<polygon fill="white" stroke="#bfbfbf" points="104.5,-62 104.5,-81 247.5,-81 247.5,-62 104.5,-62"/>
<text text-anchor="middle" x="176" y="-69" font-family="Helvetica,sans-Serif" font-size="10.00">odp/api/abi/event_types.h</text>
</a>
</g>
</g>
<!-- Node5&#45;&gt;Node6 -->
<g id="edge5" class="edge">
<title>Node5&#45;&gt;Node6</title>
<path fill="none" stroke="midnightblue" d="M176,-123.48C176,-115.08 176,-101.98 176,-91.16"/>
<polygon fill="midnightblue" stroke="midnightblue" points="179.5,-91.01 176,-81.01 172.5,-91.01 179.5,-91.01"/>
</g>
<!-- Node7 -->
<g id="node7" class="node">
<title>Node7</title>
<g id="a_node7"><a xlink:href="api_2spec_2event__types_8h.html" target="_top" xlink:title=" ">
<polygon fill="white" stroke="black" points="342.5,-56.5 342.5,-86.5 451.5,-86.5 451.5,-56.5 342.5,-56.5"/>
<text text-anchor="start" x="350.5" y="-74.5" font-family="Helvetica,sans-Serif" font-size="10.00">odp/api/spec/event</text>
<text text-anchor="middle" x="397" y="-63.5" font-family="Helvetica,sans-Serif" font-size="10.00">_types.h</text>
</a>
</g>
</g>
<!-- Node5&#45;&gt;Node7 -->
<g id="edge6" class="edge">
<title>Node5&#45;&gt;Node7</title>
<path fill="none" stroke="midnightblue" d="M207.66,-123.48C240.81,-114.55 293.71,-100.31 335.18,-89.14"/>
<polygon fill="midnightblue" stroke="midnightblue" points="336.17,-92.5 344.91,-86.52 334.35,-85.74 336.17,-92.5"/>
</g>
<!-- Node7&#45;&gt;Node4 -->
<g id="edge7" class="edge">
<title>Node7&#45;&gt;Node4</title>
<path fill="none" stroke="midnightblue" d="M451.64,-63.91C541.44,-53.07 720.15,-31.5 819.41,-19.52"/>
<polygon fill="midnightblue" stroke="midnightblue" points="819.84,-22.99 829.35,-18.32 819,-16.04 819.84,-22.99"/>
</g>
<!-- Node7&#45;&gt;Node8 -->
<g id="edge8" class="edge">
<title>Node7&#45;&gt;Node8</title>
<path fill="none" stroke="midnightblue" d="M377.33,-56.4C364.4,-47.13 347.51,-35.03 334.43,-25.65"/>
<polygon fill="midnightblue" stroke="midnightblue" points="336.24,-22.64 326.08,-19.66 332.17,-28.33 336.24,-22.64"/>
</g>
<!-- Node10 -->
<g id="node10" class="node">
<title>Node10</title>
<g id="a_node10"><a xlink:title=" ">
<polygon fill="white" stroke="#bfbfbf" points="789,-671.5 789,-701.5 895,-701.5 895,-671.5 789,-671.5"/>
<text text-anchor="start" x="797" y="-689.5" font-family="Helvetica,sans-Serif" font-size="10.00">odp/api/abi/packet</text>
<text text-anchor="middle" x="842" y="-678.5" font-family="Helvetica,sans-Serif" font-size="10.00">_io_types.h</text>
</a>
</g>
</g>
<!-- Node9&#45;&gt;Node10 -->
<g id="edge10" class="edge">
<title>Node9&#45;&gt;Node10</title>
<path fill="none" stroke="midnightblue" d="M787.17,-738.48C795.59,-730.64 808.42,-718.71 819.56,-708.37"/>
<polygon fill="midnightblue" stroke="midnightblue" points="821.98,-710.9 826.92,-701.52 817.21,-705.77 821.98,-710.9"/>
</g>
<!-- Node11 -->
<g id="node11" class="node">
<title>Node11</title>
<g id="a_node11"><a xlink:title=" ">
<polygon fill="white" stroke="#bfbfbf" points="913,-671.5 913,-701.5 1019,-701.5 1019,-671.5 913,-671.5"/>
<text text-anchor="start" x="921" y="-689.5" font-family="Helvetica,sans-Serif" font-size="10.00">odp/api/abi/packet</text>
<text text-anchor="middle" x="966" y="-678.5" font-family="Helvetica,sans-Serif" font-size="10.00">_types.h</text>
</a>
</g>
</g>
<!-- Node9&#45;&gt;Node11 -->
<g id="edge11" class="edge">
<title>Node9&#45;&gt;Node11</title>
<path fill="none" stroke="midnightblue" d="M804.94,-738.48C832.78,-729.66 877,-715.67 912.07,-704.57"/>
<polygon fill="midnightblue" stroke="midnightblue" points="913.21,-707.88 921.69,-701.52 911.1,-701.2 913.21,-707.88"/>
</g>
<!-- Node12 -->
<g id="node12" class="node">
<title>Node12</title>
<g id="a_node12"><a xlink:href="api_2spec_2packet__types_8h.html" target="_top" xlink:title=" ">
<polygon fill="white" stroke="black" points="657.5,-671.5 657.5,-701.5 770.5,-701.5 770.5,-671.5 657.5,-671.5"/>
<text text-anchor="start" x="665.5" y="-689.5" font-family="Helvetica,sans-Serif" font-size="10.00">odp/api/spec/packet</text>
<text text-anchor="middle" x="714" y="-678.5" font-family="Helvetica,sans-Serif" font-size="10.00">_types.h</text>
</a>
</g>
</g>
<!-- Node9&#45;&gt;Node12 -->
<g id="edge12" class="edge">
<title>Node9&#45;&gt;Node12</title>
<path fill="none" stroke="midnightblue" d="M768.83,-738.48C760.41,-730.64 747.58,-718.71 736.44,-708.37"/>
<polygon fill="midnightblue" stroke="midnightblue" points="738.79,-705.77 729.08,-701.52 734.02,-710.9 738.79,-705.77"/>
</g>
<!-- Node12&#45;&gt;Node4 -->
<g id="edge13" class="edge">
<title>Node12&#45;&gt;Node4</title>
<path fill="none" stroke="midnightblue" d="M770.61,-671.66C890.89,-642.07 1161,-574.5 1161,-564.5 1161,-564.5 1161,-564.5 1161,-132 1161,-44.29 1041.19,-19.73 960.89,-13.11"/>
<polygon fill="midnightblue" stroke="midnightblue" points="961.05,-9.61 950.82,-12.36 960.53,-16.59 961.05,-9.61"/>
</g>
<!-- Node12&#45;&gt;Node8 -->
<g id="edge47" class="edge">
<title>Node12&#45;&gt;Node8</title>
<path fill="none" stroke="midnightblue" d="M657.24,-682.36C494.51,-671.82 38,-630.87 38,-503 38,-503 38,-503 38,-132 38,-94.81 43.67,-78.86 73,-56 99.68,-35.21 186.09,-22.9 247.8,-16.54"/>
<polygon fill="midnightblue" stroke="midnightblue" points="248.26,-20.01 257.87,-15.53 247.57,-13.05 248.26,-20.01"/>
</g>
<!-- Node13 -->
<g id="node13" class="node">
<title>Node13</title>
<g id="a_node13"><a xlink:href="api_2proto__stats__types_8h.html" target="_top" xlink:title=" ">
<polygon fill="white" stroke="black" points="879,-358.5 879,-388.5 989,-388.5 989,-358.5 879,-358.5"/>
<text text-anchor="start" x="887" y="-376.5" font-family="Helvetica,sans-Serif" font-size="10.00">odp/api/proto_stats</text>
<text text-anchor="middle" x="934" y="-365.5" font-family="Helvetica,sans-Serif" font-size="10.00">_types.h</text>
</a>
</g>
</g>
<!-- Node12&#45;&gt;Node13 -->
<g id="edge14" class="edge">
<title>Node12&#45;&gt;Node13</title>
<path fill="none" stroke="midnightblue" d="M753.04,-671.38C812.52,-648.65 919,-602.62 919,-564.5 919,-564.5 919,-564.5 919,-501 919,-465.2 925,-424.1 929.41,-398.71"/>
<polygon fill="midnightblue" stroke="midnightblue" points="932.86,-399.31 931.18,-388.85 925.97,-398.08 932.86,-399.31"/>
</g>
<!-- Node23 -->
<g id="node23" class="node">
<title>Node23</title>
<g id="a_node23"><a xlink:href="api_2queue__types_8h.html" target="_top" xlink:title=" ">
<polygon fill="white" stroke="black" points="650.5,-615.5 650.5,-634.5 777.5,-634.5 777.5,-615.5 650.5,-615.5"/>
<text text-anchor="middle" x="714" y="-622.5" font-family="Helvetica,sans-Serif" font-size="10.00">odp/api/queue_types.h</text>
</a>
</g>
</g>
<!-- Node12&#45;&gt;Node23 -->
<g id="edge30" class="edge">
<title>Node12&#45;&gt;Node23</title>
<path fill="none" stroke="midnightblue" d="M714,-671.4C714,-663.47 714,-653.46 714,-644.86"/>
<polygon fill="midnightblue" stroke="midnightblue" points="717.5,-644.66 714,-634.66 710.5,-644.66 717.5,-644.66"/>
</g>
<!-- Node14 -->
<g id="node14" class="node">
<title>Node14</title>
<g id="a_node14"><a xlink:title=" ">
<polygon fill="white" stroke="#bfbfbf" points="1005,-291.5 1005,-321.5 1133,-321.5 1133,-291.5 1005,-291.5"/>
<text text-anchor="start" x="1013" y="-309.5" font-family="Helvetica,sans-Serif" font-size="10.00">odp/api/abi/proto_stats</text>
<text text-anchor="middle" x="1069" y="-298.5" font-family="Helvetica,sans-Serif" font-size="10.00">_types.h</text>
</a>
</g>
</g>
<!-- Node13&#45;&gt;Node14 -->
<g id="edge15" class="edge">
<title>Node13&#45;&gt;Node14</title>
<path fill="none" stroke="midnightblue" d="M963.29,-358.4C983.02,-348.9 1009.23,-336.28 1030.62,-325.98"/>
<polygon fill="midnightblue" stroke="midnightblue" points="1032.27,-329.07 1039.76,-321.58 1029.24,-322.76 1032.27,-329.07"/>
</g>
<!-- Node15 -->
<g id="node15" class="node">
<title>Node15</title>
<g id="a_node15"><a xlink:href="api_2spec_2proto__stats__types_8h.html" target="_top" xlink:title=" ">
<polygon fill="white" stroke="black" points="879.5,-291.5 879.5,-321.5 986.5,-321.5 986.5,-291.5 879.5,-291.5"/>
<text text-anchor="start" x="887.5" y="-309.5" font-family="Helvetica,sans-Serif" font-size="10.00">odp/api/spec/proto</text>
<text text-anchor="middle" x="933" y="-298.5" font-family="Helvetica,sans-Serif" font-size="10.00">_stats_types.h</text>
</a>
</g>
</g>
<!-- Node13&#45;&gt;Node15 -->
<g id="edge16" class="edge">
<title>Node13&#45;&gt;Node15</title>
<path fill="none" stroke="midnightblue" d="M933.78,-358.4C933.66,-350.64 933.51,-340.81 933.37,-331.86"/>
<polygon fill="midnightblue" stroke="midnightblue" points="936.87,-331.52 933.22,-321.58 929.87,-331.63 936.87,-331.52"/>
</g>
<!-- Node15&#45;&gt;Node4 -->
<g id="edge17" class="edge">
<title>Node15&#45;&gt;Node4</title>
<path fill="none" stroke="midnightblue" d="M939.84,-291.29C949.5,-269.85 966,-227.75 966,-190 966,-190 966,-190 966,-132 966,-96.58 961.46,-85.6 942,-56 934.21,-44.15 922.46,-33.62 912.1,-25.72"/>
<polygon fill="midnightblue" stroke="midnightblue" points="913.99,-22.77 903.84,-19.74 909.88,-28.44 913.99,-22.77"/>
</g>
<!-- Node15&#45;&gt;Node8 -->
<g id="edge29" class="edge">
<title>Node15&#45;&gt;Node8</title>
<path fill="none" stroke="midnightblue" d="M909.13,-291.34C882.02,-275.73 836.06,-250.77 794,-235 733.04,-212.14 711.11,-226.29 652,-199 612.92,-180.96 527.32,-114.24 494,-87 478.42,-74.26 478.41,-66.1 461,-56 433.12,-39.83 398.83,-28.9 370.39,-21.87"/>
<polygon fill="midnightblue" stroke="midnightblue" points="371.13,-18.45 360.59,-19.54 369.51,-25.26 371.13,-18.45"/>
</g>
<!-- Node16 -->
<g id="node16" class="node">
<title>Node16</title>
<g id="a_node16"><a xlink:href="api_2std__types_8h.html" target="_top" xlink:title=" ">
<polygon fill="white" stroke="black" points="673,-235.5 673,-254.5 785,-254.5 785,-235.5 673,-235.5"/>
<text text-anchor="middle" x="729" y="-242.5" font-family="Helvetica,sans-Serif" font-size="10.00">odp/api/std_types.h</text>
</a>
</g>
</g>
<!-- Node15&#45;&gt;Node16 -->
<g id="edge18" class="edge">
<title>Node15&#45;&gt;Node16</title>
<path fill="none" stroke="midnightblue" d="M884.91,-291.47C849.26,-281.08 801.27,-267.08 767.99,-257.37"/>
<polygon fill="midnightblue" stroke="midnightblue" points="768.74,-253.95 758.16,-254.51 766.78,-260.67 768.74,-253.95"/>
</g>
<!-- Node17 -->
<g id="node17" class="node">
<title>Node17</title>
<g id="a_node17"><a xlink:title=" ">
<polygon fill="white" stroke="#bfbfbf" points="474,-179.5 474,-198.5 604,-198.5 604,-179.5 474,-179.5"/>
<text text-anchor="middle" x="539" y="-186.5" font-family="Helvetica,sans-Serif" font-size="10.00">odp/api/abi/std_types.h</text>
</a>
</g>
</g>
<!-- Node16&#45;&gt;Node17 -->
<g id="edge19" class="edge">
<title>Node16&#45;&gt;Node17</title>
<path fill="none" stroke="midnightblue" d="M698.89,-235.44C666.37,-226.2 614.42,-211.44 578.61,-201.26"/>
<polygon fill="midnightblue" stroke="midnightblue" points="579.54,-197.88 568.97,-198.52 577.63,-204.62 579.54,-197.88"/>
</g>
<!-- Node18 -->
<g id="node18" class="node">
<title>Node18</title>
<g id="a_node18"><a xlink:href="api_2spec_2std__types_8h.html" target="_top" xlink:title=" ">
<polygon fill="white" stroke="black" points="660.5,-179.5 660.5,-198.5 797.5,-198.5 797.5,-179.5 660.5,-179.5"/>
<text text-anchor="middle" x="729" y="-186.5" font-family="Helvetica,sans-Serif" font-size="10.00">odp/api/spec/std_types.h</text>
</a>
</g>
</g>
<!-- Node16&#45;&gt;Node18 -->
<g id="edge20" class="edge">
<title>Node16&#45;&gt;Node18</title>
<path fill="none" stroke="midnightblue" d="M729,-235.08C729,-228.01 729,-217.86 729,-208.99"/>
<polygon fill="midnightblue" stroke="midnightblue" points="732.5,-208.75 729,-198.75 725.5,-208.75 732.5,-208.75"/>
</g>
<!-- Node18&#45;&gt;Node4 -->
<g id="edge21" class="edge">
<title>Node18&#45;&gt;Node4</title>
<path fill="none" stroke="midnightblue" d="M741.54,-179.32C753.14,-170.89 770.45,-157.31 783,-143 813.16,-108.61 808.16,-90.67 838,-56 847.49,-44.97 859.73,-34.24 869.95,-26.03"/>
<polygon fill="midnightblue" stroke="midnightblue" points="872.23,-28.69 877.96,-19.77 867.92,-23.17 872.23,-28.69"/>
</g>
<!-- Node18&#45;&gt;Node8 -->
<g id="edge28" class="edge">
<title>Node18&#45;&gt;Node8</title>
<path fill="none" stroke="midnightblue" d="M696.98,-179.43C671.2,-171.83 634.54,-159.39 605,-143 577.59,-127.8 522.15,-69.77 494,-56 458.31,-38.55 415.24,-27.47 380.17,-20.67"/>
<polygon fill="midnightblue" stroke="midnightblue" points="380.51,-17.17 370.04,-18.78 379.23,-24.05 380.51,-17.17"/>
</g>
<!-- Node19 -->
<g id="node19" class="node">
<title>Node19</title>
<g id="a_node19"><a xlink:title=" ">
<polygon fill="white" stroke="#bfbfbf" points="613.5,-123.5 613.5,-142.5 666.5,-142.5 666.5,-123.5 613.5,-123.5"/>
<text text-anchor="middle" x="640" y="-130.5" font-family="Helvetica,sans-Serif" font-size="10.00">stdint.h</text>
</a>
</g>
</g>
<!-- Node18&#45;&gt;Node19 -->
<g id="edge22" class="edge">
<title>Node18&#45;&gt;Node19</title>
<path fill="none" stroke="midnightblue" d="M714.7,-179.32C700.82,-170.9 679.51,-157.97 663.2,-148.07"/>
<polygon fill="midnightblue" stroke="midnightblue" points="664.63,-144.85 654.26,-142.65 661,-150.83 664.63,-144.85"/>
</g>
<!-- Node20 -->
<g id="node20" class="node">
<title>Node20</title>
<g id="a_node20"><a xlink:href="api_2align_8h.html" target="_top" xlink:title=" ">
<polygon fill="white" stroke="black" points="684.5,-123.5 684.5,-142.5 773.5,-142.5 773.5,-123.5 684.5,-123.5"/>
<text text-anchor="middle" x="729" y="-130.5" font-family="Helvetica,sans-Serif" font-size="10.00">odp/api/align.h</text>
</a>
</g>
</g>
<!-- Node18&#45;&gt;Node20 -->
<g id="edge23" class="edge">
<title>Node18&#45;&gt;Node20</title>
<path fill="none" stroke="midnightblue" d="M729,-179.08C729,-172.01 729,-161.86 729,-152.99"/>
<polygon fill="midnightblue" stroke="midnightblue" points="732.5,-152.75 729,-142.75 725.5,-152.75 732.5,-152.75"/>
</g>
<!-- Node21 -->
<g id="node21" class="node">
<title>Node21</title>
<g id="a_node21"><a xlink:title=" ">
<polygon fill="white" stroke="#bfbfbf" points="546.5,-62 546.5,-81 653.5,-81 653.5,-62 546.5,-62"/>
<text text-anchor="middle" x="600" y="-69" font-family="Helvetica,sans-Serif" font-size="10.00">odp/api/abi/align.h</text>
</a>
</g>
</g>
<!-- Node20&#45;&gt;Node21 -->
<g id="edge24" class="edge">
<title>Node20&#45;&gt;Node21</title>
<path fill="none" stroke="midnightblue" d="M710.52,-123.48C688.87,-113.49 652.79,-96.85 627.77,-85.31"/>
<polygon fill="midnightblue" stroke="midnightblue" points="628.99,-82.02 618.45,-81.01 626.06,-88.38 628.99,-82.02"/>
</g>
<!-- Node22 -->
<g id="node22" class="node">
<title>Node22</title>
<g id="a_node22"><a xlink:href="api_2spec_2align_8h.html" target="_top" xlink:title=" ">
<polygon fill="white" stroke="black" points="672,-62 672,-81 786,-81 786,-62 672,-62"/>
<text text-anchor="middle" x="729" y="-69" font-family="Helvetica,sans-Serif" font-size="10.00">odp/api/spec/align.h</text>
</a>
</g>
</g>
<!-- Node20&#45;&gt;Node22 -->
<g id="edge25" class="edge">
<title>Node20&#45;&gt;Node22</title>
<path fill="none" stroke="midnightblue" d="M729,-123.48C729,-115.08 729,-101.98 729,-91.16"/>
<polygon fill="midnightblue" stroke="midnightblue" points="732.5,-91.01 729,-81.01 725.5,-91.01 732.5,-91.01"/>
</g>
<!-- Node22&#45;&gt;Node4 -->
<g id="edge26" class="edge">
<title>Node22&#45;&gt;Node4</title>
<path fill="none" stroke="midnightblue" d="M752.07,-61.98C779.68,-51.77 826.12,-34.61 857.4,-23.05"/>
<polygon fill="midnightblue" stroke="midnightblue" points="858.81,-26.26 866.98,-19.51 856.38,-19.69 858.81,-26.26"/>
</g>
<!-- Node22&#45;&gt;Node8 -->
<g id="edge27" class="edge">
<title>Node22&#45;&gt;Node8</title>
<path fill="none" stroke="midnightblue" d="M692.8,-61.95C683.15,-59.83 672.71,-57.69 663,-56 565.05,-38.96 450.59,-25.4 380.2,-17.78"/>
<polygon fill="midnightblue" stroke="midnightblue" points="380.46,-14.29 370.14,-16.7 379.71,-21.25 380.46,-14.29"/>
</g>
<!-- Node24 -->
<g id="node24" class="node">
<title>Node24</title>
<g id="a_node24"><a xlink:title=" ">
<polygon fill="white" stroke="#bfbfbf" points="714.5,-554 714.5,-573 859.5,-573 859.5,-554 714.5,-554"/>
<text text-anchor="middle" x="787" y="-561" font-family="Helvetica,sans-Serif" font-size="10.00">odp/api/abi/queue_types.h</text>
</a>
</g>
</g>
<!-- Node23&#45;&gt;Node24 -->
<g id="edge31" class="edge">
<title>Node23&#45;&gt;Node24</title>
<path fill="none" stroke="midnightblue" d="M724.46,-615.48C735.95,-606.11 754.63,-590.88 768.59,-579.51"/>
<polygon fill="midnightblue" stroke="midnightblue" points="771.02,-582.04 776.56,-573.01 766.6,-576.61 771.02,-582.04"/>
</g>
<!-- Node25 -->
<g id="node25" class="node">
<title>Node25</title>
<g id="a_node25"><a xlink:href="api_2spec_2queue__types_8h.html" target="_top" xlink:title=" ">
<polygon fill="white" stroke="black" points="585.5,-548.5 585.5,-578.5 696.5,-578.5 696.5,-548.5 585.5,-548.5"/>
<text text-anchor="start" x="593.5" y="-566.5" font-family="Helvetica,sans-Serif" font-size="10.00">odp/api/spec/queue</text>
<text text-anchor="middle" x="641" y="-555.5" font-family="Helvetica,sans-Serif" font-size="10.00">_types.h</text>
</a>
</g>
</g>
<!-- Node23&#45;&gt;Node25 -->
<g id="edge32" class="edge">
<title>Node23&#45;&gt;Node25</title>
<path fill="none" stroke="midnightblue" d="M703.54,-615.48C693.84,-607.57 679.01,-595.48 666.23,-585.07"/>
<polygon fill="midnightblue" stroke="midnightblue" points="668.17,-582.13 658.2,-578.52 663.74,-587.55 668.17,-582.13"/>
</g>
<!-- Node25&#45;&gt;Node4 -->
<g id="edge33" class="edge">
<title>Node25&#45;&gt;Node4</title>
<path fill="none" stroke="midnightblue" d="M681.49,-548.36C742.51,-525.78 851,-480.21 851,-441.5 851,-441.5 851,-441.5 851,-372.5 851,-244.18 884.42,-214.96 894,-87 895.45,-67.68 893.92,-45.56 892.36,-30.19"/>
<polygon fill="midnightblue" stroke="midnightblue" points="895.8,-29.45 891.2,-19.9 888.84,-30.23 895.8,-29.45"/>
</g>
<!-- Node25&#45;&gt;Node8 -->
<g id="edge46" class="edge">
<title>Node25&#45;&gt;Node8</title>
<path fill="none" stroke="midnightblue" d="M585.28,-556.04C442.74,-537.97 76,-481.11 76,-374.5 76,-374.5 76,-374.5 76,-132 76,-97.07 70.65,-80.02 96,-56 117.55,-35.57 191.8,-23.45 247.7,-17.03"/>
<polygon fill="midnightblue" stroke="midnightblue" points="248.35,-20.48 257.9,-15.9 247.58,-13.52 248.35,-20.48"/>
</g>
<!-- Node26 -->
<g id="node26" class="node">
<title>Node26</title>
<g id="a_node26"><a xlink:href="api_2schedule__types_8h.html" target="_top" xlink:title=" ">
<polygon fill="white" stroke="black" points="571,-492.5 571,-511.5 711,-511.5 711,-492.5 571,-492.5"/>
<text text-anchor="middle" x="641" y="-499.5" font-family="Helvetica,sans-Serif" font-size="10.00">odp/api/schedule_types.h</text>
</a>
</g>
</g>
<!-- Node25&#45;&gt;Node26 -->
<g id="edge34" class="edge">
<title>Node25&#45;&gt;Node26</title>
<path fill="none" stroke="midnightblue" d="M641,-548.4C641,-540.47 641,-530.46 641,-521.86"/>
<polygon fill="midnightblue" stroke="midnightblue" points="644.5,-521.66 641,-511.66 637.5,-521.66 644.5,-521.66"/>
</g>
<!-- Node27 -->
<g id="node27" class="node">
<title>Node27</title>
<g id="a_node27"><a xlink:title=" ">
<polygon fill="white" stroke="#bfbfbf" points="705.5,-425.5 705.5,-455.5 822.5,-455.5 822.5,-425.5 705.5,-425.5"/>
<text text-anchor="start" x="713.5" y="-443.5" font-family="Helvetica,sans-Serif" font-size="10.00">odp/api/abi/schedule</text>
<text text-anchor="middle" x="764" y="-432.5" font-family="Helvetica,sans-Serif" font-size="10.00">_types.h</text>
</a>
</g>
</g>
<!-- Node26&#45;&gt;Node27 -->
<g id="edge35" class="edge">
<title>Node26&#45;&gt;Node27</title>
<path fill="none" stroke="midnightblue" d="M658.62,-492.48C676.06,-484.04 703.32,-470.86 725.74,-460.01"/>
<polygon fill="midnightblue" stroke="midnightblue" points="727.53,-463.03 735.01,-455.52 724.49,-456.73 727.53,-463.03"/>
</g>
<!-- Node28 -->
<g id="node28" class="node">
<title>Node28</title>
<g id="a_node28"><a xlink:href="api_2spec_2schedule__types_8h.html" target="_top" xlink:title=" ">
<polygon fill="white" stroke="black" points="562.5,-425.5 562.5,-455.5 687.5,-455.5 687.5,-425.5 562.5,-425.5"/>
<text text-anchor="start" x="570.5" y="-443.5" font-family="Helvetica,sans-Serif" font-size="10.00">odp/api/spec/schedule</text>
<text text-anchor="middle" x="625" y="-432.5" font-family="Helvetica,sans-Serif" font-size="10.00">_types.h</text>
</a>
</g>
</g>
<!-- Node26&#45;&gt;Node28 -->
<g id="edge36" class="edge">
<title>Node26&#45;&gt;Node28</title>
<path fill="none" stroke="midnightblue" d="M638.71,-492.48C636.8,-485.4 634,-474.97 631.42,-465.39"/>
<polygon fill="midnightblue" stroke="midnightblue" points="634.75,-464.27 628.77,-455.52 627.99,-466.09 634.75,-464.27"/>
</g>
<!-- Node28&#45;&gt;Node4 -->
<g id="edge37" class="edge">
<title>Node28&#45;&gt;Node4</title>
<path fill="none" stroke="midnightblue" d="M655.71,-425.45C672.74,-416.64 693.54,-404.1 709,-389 800.63,-299.54 809.11,-260.94 859,-143 875.3,-104.47 883.91,-55.83 887.65,-29.68"/>
<polygon fill="midnightblue" stroke="midnightblue" points="891.13,-30.03 889,-19.65 884.19,-29.09 891.13,-30.03"/>
</g>
<!-- Node28&#45;&gt;Node8 -->
<g id="edge45" class="edge">
<title>Node28&#45;&gt;Node8</title>
<path fill="none" stroke="midnightblue" d="M562.2,-429.03C461.72,-410.47 276,-367.99 276,-307.5 276,-307.5 276,-307.5 276,-132 276,-93.81 293.44,-51.83 304.69,-28.72"/>
<polygon fill="midnightblue" stroke="midnightblue" points="307.96,-30.02 309.34,-19.52 301.71,-26.86 307.96,-30.02"/>
</g>
<!-- Node28&#45;&gt;Node16 -->
<g id="edge38" class="edge">
<title>Node28&#45;&gt;Node16</title>
<path fill="none" stroke="midnightblue" d="M648.07,-425.39C661.09,-416.4 676.76,-403.69 687,-389 714.06,-350.2 723.89,-293.89 727.3,-264.87"/>
<polygon fill="midnightblue" stroke="midnightblue" points="730.82,-264.85 728.37,-254.54 723.86,-264.13 730.82,-264.85"/>
</g>
<!-- Node29 -->
<g id="node29" class="node">
<title>Node29</title>
<g id="a_node29"><a xlink:href="api_2thrmask_8h.html" target="_top" xlink:title=" ">
<polygon fill="white" stroke="black" points="572.5,-364 572.5,-383 677.5,-383 677.5,-364 572.5,-364"/>
<text text-anchor="middle" x="625" y="-371" font-family="Helvetica,sans-Serif" font-size="10.00">odp/api/thrmask.h</text>
</a>
</g>
</g>
<!-- Node28&#45;&gt;Node29 -->
<g id="edge39" class="edge">
<title>Node28&#45;&gt;Node29</title>
<path fill="none" stroke="midnightblue" d="M625,-425.4C625,-416.06 625,-403.71 625,-393.52"/>
<polygon fill="midnightblue" stroke="midnightblue" points="628.5,-393.19 625,-383.19 621.5,-393.19 628.5,-393.19"/>
</g>
<!-- Node30 -->
<g id="node30" class="node">
<title>Node30</title>
<g id="a_node30"><a xlink:title=" ">
<polygon fill="white" stroke="#bfbfbf" points="577.5,-297 577.5,-316 700.5,-316 700.5,-297 577.5,-297"/>
<text text-anchor="middle" x="639" y="-304" font-family="Helvetica,sans-Serif" font-size="10.00">odp/api/abi/thrmask.h</text>
</a>
</g>
</g>
<!-- Node29&#45;&gt;Node30 -->
<g id="edge40" class="edge">
<title>Node29&#45;&gt;Node30</title>
<path fill="none" stroke="midnightblue" d="M626.89,-363.73C628.97,-354.09 632.37,-338.3 635.04,-325.91"/>
<polygon fill="midnightblue" stroke="midnightblue" points="638.46,-326.64 637.14,-316.13 631.61,-325.17 638.46,-326.64"/>
</g>
<!-- Node31 -->
<g id="node31" class="node">
<title>Node31</title>
<g id="a_node31"><a xlink:href="api_2spec_2thrmask_8h.html" target="_top" xlink:title=" ">
<polygon fill="white" stroke="black" points="428.5,-297 428.5,-316 559.5,-316 559.5,-297 428.5,-297"/>
<text text-anchor="middle" x="494" y="-304" font-family="Helvetica,sans-Serif" font-size="10.00">odp/api/spec/thrmask.h</text>
</a>
</g>
</g>
<!-- Node29&#45;&gt;Node31 -->
<g id="edge41" class="edge">
<title>Node29&#45;&gt;Node31</title>
<path fill="none" stroke="midnightblue" d="M607.6,-363.87C585.39,-352.84 546.71,-333.66 520.74,-320.77"/>
<polygon fill="midnightblue" stroke="midnightblue" points="521.98,-317.48 511.47,-316.17 518.87,-323.75 521.98,-317.48"/>
</g>
<!-- Node31&#45;&gt;Node4 -->
<g id="edge42" class="edge">
<title>Node31&#45;&gt;Node4</title>
<path fill="none" stroke="midnightblue" d="M512.03,-296.99C542.72,-282.75 607.28,-253.79 664,-235 726.21,-214.39 756.91,-241.26 807,-199 834.59,-175.72 870.43,-71.75 884.23,-29.22"/>
<polygon fill="midnightblue" stroke="midnightblue" points="887.6,-30.2 887.32,-19.61 880.93,-28.06 887.6,-30.2"/>
</g>
<!-- Node31&#45;&gt;Node8 -->
<g id="edge44" class="edge">
<title>Node31&#45;&gt;Node8</title>
<path fill="none" stroke="midnightblue" d="M448.58,-296.98C395.25,-284.05 314,-253.86 314,-190 314,-190 314,-190 314,-132 314,-95.71 314,-53.31 314,-29.56"/>
<polygon fill="midnightblue" stroke="midnightblue" points="317.5,-29.51 314,-19.51 310.5,-29.51 317.5,-29.51"/>
</g>
<!-- Node31&#45;&gt;Node16 -->
<g id="edge43" class="edge">
<title>Node31&#45;&gt;Node16</title>
<path fill="none" stroke="midnightblue" d="M527.67,-296.98C569.2,-286.46 639.89,-268.56 685.5,-257.01"/>
<polygon fill="midnightblue" stroke="midnightblue" points="686.56,-260.36 695.39,-254.51 684.84,-253.57 686.56,-260.36"/>
</g>
</g>
</svg>
