<?xml version="1.0" encoding="UTF-8" standalone="no"?>
<!DOCTYPE svg PUBLIC "-//W3C//DTD SVG 1.1//EN"
 "http://www.w3.org/Graphics/SVG/1.1/DTD/svg11.dtd">
<!-- Generated by graphviz version 2.43.0 (0)
 -->
<!-- Title: buffer.h Pages: 1 -->
<svg width="1326pt" height="1102pt"
 viewBox="0.00 0.00 1326.00 1102.00" xmlns="http://www.w3.org/2000/svg" xmlns:xlink="http://www.w3.org/1999/xlink">
<g id="graph0" class="graph" transform="scale(1 1) rotate(0) translate(4 1098)">
<title>buffer.h</title>
<polygon fill="white" stroke="transparent" points="-4,4 -4,-1098 1322,-1098 1322,4 -4,4"/>
<!-- Node1 -->
<g id="node1" class="node">
<title>Node1</title>
<g id="a_node1"><a xlink:title=" ">
<polygon fill="#bfbfbf" stroke="black" points="159.5,-1074.5 159.5,-1093.5 212.5,-1093.5 212.5,-1074.5 159.5,-1074.5"/>
<text text-anchor="middle" x="186" y="-1081.5" font-family="Helvetica,sans-Serif" font-size="10.00">buffer.h</text>
</a>
</g>
</g>
<!-- Node2 -->
<g id="node2" class="node">
<title>Node2</title>
<g id="a_node2"><a xlink:title=" ">
<polygon fill="white" stroke="#bfbfbf" points="65,-1018.5 65,-1037.5 175,-1037.5 175,-1018.5 65,-1018.5"/>
<text text-anchor="middle" x="120" y="-1025.5" font-family="Helvetica,sans-Serif" font-size="10.00">odp/api/abi/buffer.h</text>
</a>
</g>
</g>
<!-- Node1&#45;&gt;Node2 -->
<g id="edge1" class="edge">
<title>Node1&#45;&gt;Node2</title>
<path fill="none" stroke="midnightblue" d="M175.4,-1074.32C165.54,-1066.26 150.65,-1054.08 138.78,-1044.37"/>
<polygon fill="midnightblue" stroke="midnightblue" points="140.75,-1041.46 130.8,-1037.83 136.32,-1046.88 140.75,-1041.46"/>
</g>
<!-- Node3 -->
<g id="node3" class="node">
<title>Node3</title>
<g id="a_node3"><a xlink:href="api_2spec_2buffer_8h.html" target="_top" xlink:title=" ">
<polygon fill="white" stroke="black" points="193,-1018.5 193,-1037.5 311,-1037.5 311,-1018.5 193,-1018.5"/>
<text text-anchor="middle" x="252" y="-1025.5" font-family="Helvetica,sans-Serif" font-size="10.00">odp/api/spec/buffer.h</text>
</a>
</g>
</g>
<!-- Node1&#45;&gt;Node3 -->
<g id="edge2" class="edge">
<title>Node1&#45;&gt;Node3</title>
<path fill="none" stroke="midnightblue" d="M196.6,-1074.32C206.46,-1066.26 221.35,-1054.08 233.22,-1044.37"/>
<polygon fill="midnightblue" stroke="midnightblue" points="235.68,-1046.88 241.2,-1037.83 231.25,-1041.46 235.68,-1046.88"/>
</g>
<!-- Node4 -->
<g id="node4" class="node">
<title>Node4</title>
<g id="a_node4"><a xlink:href="visibility__begin_8h_source.html" target="_top" xlink:title=" ">
<polygon fill="white" stroke="black" points="1010.5,-0.5 1010.5,-19.5 1131.5,-19.5 1131.5,-0.5 1010.5,-0.5"/>
<text text-anchor="middle" x="1071" y="-7.5" font-family="Helvetica,sans-Serif" font-size="10.00">odp/visibility_begin.h</text>
</a>
</g>
</g>
<!-- Node3&#45;&gt;Node4 -->
<g id="edge3" class="edge">
<title>Node3&#45;&gt;Node4</title>
<path fill="none" stroke="midnightblue" d="M311.21,-1027.16C535.2,-1026.97 1318,-1019.04 1318,-917 1318,-917 1318,-917 1318,-132 1318,-52.99 1214.81,-25.56 1141.82,-16.05"/>
<polygon fill="midnightblue" stroke="midnightblue" points="1142.09,-12.56 1131.74,-14.82 1141.24,-19.51 1142.09,-12.56"/>
</g>
<!-- Node5 -->
<g id="node5" class="node">
<title>Node5</title>
<g id="a_node5"><a xlink:href="api_2buffer__types_8h.html" target="_top" xlink:title=" ">
<polygon fill="white" stroke="black" points="142.5,-123.5 142.5,-142.5 267.5,-142.5 267.5,-123.5 142.5,-123.5"/>
<text text-anchor="middle" x="205" y="-130.5" font-family="Helvetica,sans-Serif" font-size="10.00">odp/api/buffer_types.h</text>
</a>
</g>
</g>
<!-- Node3&#45;&gt;Node5 -->
<g id="edge4" class="edge">
<title>Node3&#45;&gt;Node5</title>
<path fill="none" stroke="midnightblue" d="M203.91,-1018.4C151.8,-1005.99 76,-977.53 76,-917 76,-917 76,-917 76,-439.5 76,-321 159.38,-195.57 192.07,-150.95"/>
<polygon fill="midnightblue" stroke="midnightblue" points="194.9,-153.02 198.06,-142.91 189.28,-148.84 194.9,-153.02"/>
</g>
<!-- Node8 -->
<g id="node8" class="node">
<title>Node8</title>
<g id="a_node8"><a xlink:href="visibility__end_8h_source.html" target="_top" xlink:title=" ">
<polygon fill="white" stroke="black" points="296,-0.5 296,-19.5 408,-19.5 408,-0.5 296,-0.5"/>
<text text-anchor="middle" x="352" y="-7.5" font-family="Helvetica,sans-Serif" font-size="10.00">odp/visibility_end.h</text>
</a>
</g>
</g>
<!-- Node3&#45;&gt;Node8 -->
<g id="edge68" class="edge">
<title>Node3&#45;&gt;Node8</title>
<path fill="none" stroke="midnightblue" d="M212.9,-1018.47C142.12,-1001.89 0,-962.89 0,-917 0,-917 0,-917 0,-132 0,-92.05 14.52,-77.8 48,-56 86.13,-31.17 208.44,-19.45 285.8,-14.39"/>
<polygon fill="midnightblue" stroke="midnightblue" points="286.18,-17.88 295.94,-13.75 285.73,-10.89 286.18,-17.88"/>
</g>
<!-- Node9 -->
<g id="node9" class="node">
<title>Node9</title>
<g id="a_node9"><a xlink:href="api_2event__types_8h.html" target="_top" xlink:title=" ">
<polygon fill="white" stroke="black" points="189.5,-738.5 189.5,-757.5 314.5,-757.5 314.5,-738.5 189.5,-738.5"/>
<text text-anchor="middle" x="252" y="-745.5" font-family="Helvetica,sans-Serif" font-size="10.00">odp/api/event_types.h</text>
</a>
</g>
</g>
<!-- Node3&#45;&gt;Node9 -->
<g id="edge9" class="edge">
<title>Node3&#45;&gt;Node9</title>
<path fill="none" stroke="midnightblue" d="M235.04,-1018.36C206.51,-1002.49 152,-965.78 152,-917 152,-917 152,-917 152,-859 152,-814.98 196.38,-780.8 226.01,-762.87"/>
<polygon fill="midnightblue" stroke="midnightblue" points="228.14,-765.68 235.04,-757.64 224.63,-759.63 228.14,-765.68"/>
</g>
<!-- Node12 -->
<g id="node12" class="node">
<title>Node12</title>
<g id="a_node12"><a xlink:href="api_2pool__types_8h.html" target="_top" xlink:title=" ">
<polygon fill="white" stroke="black" points="813,-962.5 813,-981.5 931,-981.5 931,-962.5 813,-962.5"/>
<text text-anchor="middle" x="872" y="-969.5" font-family="Helvetica,sans-Serif" font-size="10.00">odp/api/pool_types.h</text>
</a>
</g>
</g>
<!-- Node3&#45;&gt;Node12 -->
<g id="edge14" class="edge">
<title>Node3&#45;&gt;Node12</title>
<path fill="none" stroke="midnightblue" d="M311.17,-1021.85C426.28,-1011.82 679.82,-989.74 802.62,-979.04"/>
<polygon fill="midnightblue" stroke="midnightblue" points="803.01,-982.52 812.67,-978.17 802.4,-975.55 803.01,-982.52"/>
</g>
<!-- Node15 -->
<g id="node15" class="node">
<title>Node15</title>
<g id="a_node15"><a xlink:href="api_2std__types_8h.html" target="_top" xlink:title=" ">
<polygon fill="white" stroke="black" points="675,-235.5 675,-254.5 787,-254.5 787,-235.5 675,-235.5"/>
<text text-anchor="middle" x="731" y="-242.5" font-family="Helvetica,sans-Serif" font-size="10.00">odp/api/std_types.h</text>
</a>
</g>
</g>
<!-- Node3&#45;&gt;Node15 -->
<g id="edge67" class="edge">
<title>Node3&#45;&gt;Node15</title>
<path fill="none" stroke="midnightblue" d="M268.96,-1018.36C297.49,-1002.49 352,-965.78 352,-917 352,-917 352,-917 352,-501 352,-460.84 635.04,-347.58 666,-322 687.23,-304.45 707.11,-279.47 719.16,-263.01"/>
<polygon fill="midnightblue" stroke="midnightblue" points="722.03,-265.01 725,-254.84 716.34,-260.93 722.03,-265.01"/>
</g>
<!-- Node6 -->
<g id="node6" class="node">
<title>Node6</title>
<g id="a_node6"><a xlink:title=" ">
<polygon fill="white" stroke="#bfbfbf" points="142,-56.5 142,-86.5 244,-86.5 244,-56.5 142,-56.5"/>
<text text-anchor="start" x="150" y="-74.5" font-family="Helvetica,sans-Serif" font-size="10.00">odp/api/abi/buffer</text>
<text text-anchor="middle" x="193" y="-63.5" font-family="Helvetica,sans-Serif" font-size="10.00">_types.h</text>
</a>
</g>
</g>
<!-- Node5&#45;&gt;Node6 -->
<g id="edge5" class="edge">
<title>Node5&#45;&gt;Node6</title>
<path fill="none" stroke="midnightblue" d="M203.28,-123.48C201.85,-116.4 199.75,-105.97 197.82,-96.39"/>
<polygon fill="midnightblue" stroke="midnightblue" points="201.24,-95.63 195.83,-86.52 194.37,-97.02 201.24,-95.63"/>
</g>
<!-- Node7 -->
<g id="node7" class="node">
<title>Node7</title>
<g id="a_node7"><a xlink:href="api_2spec_2buffer__types_8h.html" target="_top" xlink:title=" ">
<polygon fill="white" stroke="black" points="338,-56.5 338,-86.5 448,-86.5 448,-56.5 338,-56.5"/>
<text text-anchor="start" x="346" y="-74.5" font-family="Helvetica,sans-Serif" font-size="10.00">odp/api/spec/buffer</text>
<text text-anchor="middle" x="393" y="-63.5" font-family="Helvetica,sans-Serif" font-size="10.00">_types.h</text>
</a>
</g>
</g>
<!-- Node5&#45;&gt;Node7 -->
<g id="edge6" class="edge">
<title>Node5&#45;&gt;Node7</title>
<path fill="none" stroke="midnightblue" d="M231.94,-123.48C259.78,-114.66 304,-100.67 339.07,-89.57"/>
<polygon fill="midnightblue" stroke="midnightblue" points="340.21,-92.88 348.69,-86.52 338.1,-86.2 340.21,-92.88"/>
</g>
<!-- Node7&#45;&gt;Node4 -->
<g id="edge7" class="edge">
<title>Node7&#45;&gt;Node4</title>
<path fill="none" stroke="midnightblue" d="M448.25,-62.08C463.68,-59.91 480.47,-57.7 496,-56 677.28,-36.17 891.65,-21.78 1000.28,-15.12"/>
<polygon fill="midnightblue" stroke="midnightblue" points="1000.68,-18.61 1010.45,-14.5 1000.26,-11.62 1000.68,-18.61"/>
</g>
<!-- Node7&#45;&gt;Node8 -->
<g id="edge8" class="edge">
<title>Node7&#45;&gt;Node8</title>
<path fill="none" stroke="midnightblue" d="M383.28,-56.4C377.45,-47.93 369.98,-37.1 363.81,-28.14"/>
<polygon fill="midnightblue" stroke="midnightblue" points="366.52,-25.91 357.97,-19.66 360.76,-29.88 366.52,-25.91"/>
</g>
<!-- Node10 -->
<g id="node10" class="node">
<title>Node10</title>
<g id="a_node10"><a xlink:title=" ">
<polygon fill="white" stroke="#bfbfbf" points="142.5,-677 142.5,-696 285.5,-696 285.5,-677 142.5,-677"/>
<text text-anchor="middle" x="214" y="-684" font-family="Helvetica,sans-Serif" font-size="10.00">odp/api/abi/event_types.h</text>
</a>
</g>
</g>
<!-- Node9&#45;&gt;Node10 -->
<g id="edge10" class="edge">
<title>Node9&#45;&gt;Node10</title>
<path fill="none" stroke="midnightblue" d="M246.56,-738.48C240.91,-729.64 231.94,-715.59 224.84,-704.48"/>
<polygon fill="midnightblue" stroke="midnightblue" points="227.77,-702.55 219.43,-696.01 221.87,-706.32 227.77,-702.55"/>
</g>
<!-- Node11 -->
<g id="node11" class="node">
<title>Node11</title>
<g id="a_node11"><a xlink:href="api_2spec_2event__types_8h.html" target="_top" xlink:title=" ">
<polygon fill="white" stroke="black" points="504.5,-56.5 504.5,-86.5 613.5,-86.5 613.5,-56.5 504.5,-56.5"/>
<text text-anchor="start" x="512.5" y="-74.5" font-family="Helvetica,sans-Serif" font-size="10.00">odp/api/spec/event</text>
<text text-anchor="middle" x="559" y="-63.5" font-family="Helvetica,sans-Serif" font-size="10.00">_types.h</text>
</a>
</g>
</g>
<!-- Node9&#45;&gt;Node11 -->
<g id="edge11" class="edge">
<title>Node9&#45;&gt;Node11</title>
<path fill="none" stroke="midnightblue" d="M263.53,-738.37C273.57,-730.18 287.64,-716.92 295,-702 377.19,-535.41 285.88,-456.11 371,-291 413.9,-207.77 494.52,-129.48 534.81,-93.37"/>
<polygon fill="midnightblue" stroke="midnightblue" points="537.37,-95.78 542.53,-86.52 532.73,-90.54 537.37,-95.78"/>
</g>
<!-- Node11&#45;&gt;Node4 -->
<g id="edge12" class="edge">
<title>Node11&#45;&gt;Node4</title>
<path fill="none" stroke="midnightblue" d="M613.79,-64.13C707.17,-53.28 897.01,-31.22 1000.27,-19.22"/>
<polygon fill="midnightblue" stroke="midnightblue" points="1000.76,-22.69 1010.29,-18.06 999.95,-15.73 1000.76,-22.69"/>
</g>
<!-- Node11&#45;&gt;Node8 -->
<g id="edge13" class="edge">
<title>Node11&#45;&gt;Node8</title>
<path fill="none" stroke="midnightblue" d="M510.21,-56.47C474.03,-46.08 425.33,-32.08 391.56,-22.37"/>
<polygon fill="midnightblue" stroke="midnightblue" points="392.17,-18.91 381.59,-19.51 390.24,-25.63 392.17,-18.91"/>
</g>
<!-- Node13 -->
<g id="node13" class="node">
<title>Node13</title>
<g id="a_node13"><a xlink:title=" ">
<polygon fill="white" stroke="#bfbfbf" points="962,-906.5 962,-925.5 1098,-925.5 1098,-906.5 962,-906.5"/>
<text text-anchor="middle" x="1030" y="-913.5" font-family="Helvetica,sans-Serif" font-size="10.00">odp/api/abi/pool_types.h</text>
</a>
</g>
</g>
<!-- Node12&#45;&gt;Node13 -->
<g id="edge15" class="edge">
<title>Node12&#45;&gt;Node13</title>
<path fill="none" stroke="midnightblue" d="M897.04,-962.44C923.62,-953.36 965.81,-938.94 995.52,-928.78"/>
<polygon fill="midnightblue" stroke="midnightblue" points="996.75,-932.06 1005.08,-925.52 994.49,-925.44 996.75,-932.06"/>
</g>
<!-- Node14 -->
<g id="node14" class="node">
<title>Node14</title>
<g id="a_node14"><a xlink:href="api_2spec_2pool__types_8h.html" target="_top" xlink:title=" ">
<polygon fill="white" stroke="black" points="800.5,-906.5 800.5,-925.5 943.5,-925.5 943.5,-906.5 800.5,-906.5"/>
<text text-anchor="middle" x="872" y="-913.5" font-family="Helvetica,sans-Serif" font-size="10.00">odp/api/spec/pool_types.h</text>
</a>
</g>
</g>
<!-- Node12&#45;&gt;Node14 -->
<g id="edge16" class="edge">
<title>Node12&#45;&gt;Node14</title>
<path fill="none" stroke="midnightblue" d="M872,-962.08C872,-955.01 872,-944.86 872,-935.99"/>
<polygon fill="midnightblue" stroke="midnightblue" points="875.5,-935.75 872,-925.75 868.5,-935.75 875.5,-935.75"/>
</g>
<!-- Node14&#45;&gt;Node4 -->
<g id="edge17" class="edge">
<title>Node14&#45;&gt;Node4</title>
<path fill="none" stroke="midnightblue" d="M932.43,-906.46C997.95,-896.89 1098.11,-881.23 1135,-870 1202.56,-849.44 1280,-875.62 1280,-805 1280,-805 1280,-805 1280,-132 1280,-66.07 1201.15,-35.48 1140.31,-21.69"/>
<polygon fill="midnightblue" stroke="midnightblue" points="1140.84,-18.23 1130.33,-19.54 1139.37,-25.07 1140.84,-18.23"/>
</g>
<!-- Node14&#45;&gt;Node8 -->
<g id="edge66" class="edge">
<title>Node14&#45;&gt;Node8</title>
<path fill="none" stroke="midnightblue" d="M800.46,-914.64C663.56,-910.85 359.3,-887.26 147,-758 82.01,-718.43 38,-702.08 38,-626 38,-626 38,-626 38,-132 38,-91.57 54.15,-78.12 88,-56 119.79,-35.22 218.51,-22.64 285.8,-16.25"/>
<polygon fill="midnightblue" stroke="midnightblue" points="286.27,-19.72 295.9,-15.32 285.62,-12.75 286.27,-19.72"/>
</g>
<!-- Node14&#45;&gt;Node15 -->
<g id="edge18" class="edge">
<title>Node14&#45;&gt;Node15</title>
<path fill="none" stroke="midnightblue" d="M916.63,-906.47C1015.04,-887.04 1242,-838.59 1242,-805 1242,-805 1242,-805 1242,-501 1242,-380.64 1176.08,-349.71 1071,-291 1025.42,-265.54 882.73,-253.84 797.37,-249"/>
<polygon fill="midnightblue" stroke="midnightblue" points="797.43,-245.5 787.26,-248.44 797.05,-252.49 797.43,-245.5"/>
</g>
<!-- Node22 -->
<g id="node22" class="node">
<title>Node22</title>
<g id="a_node22"><a xlink:href="api_2dma__types_8h.html" target="_top" xlink:title=" ">
<polygon fill="white" stroke="black" points="812.5,-850.5 812.5,-869.5 931.5,-869.5 931.5,-850.5 812.5,-850.5"/>
<text text-anchor="middle" x="872" y="-857.5" font-family="Helvetica,sans-Serif" font-size="10.00">odp/api/dma_types.h</text>
</a>
</g>
</g>
<!-- Node14&#45;&gt;Node22 -->
<g id="edge29" class="edge">
<title>Node14&#45;&gt;Node22</title>
<path fill="none" stroke="midnightblue" d="M872,-906.08C872,-899.01 872,-888.86 872,-879.99"/>
<polygon fill="midnightblue" stroke="midnightblue" points="875.5,-879.75 872,-869.75 868.5,-879.75 875.5,-879.75"/>
</g>
<!-- Node16 -->
<g id="node16" class="node">
<title>Node16</title>
<g id="a_node16"><a xlink:title=" ">
<polygon fill="white" stroke="#bfbfbf" points="516,-179.5 516,-198.5 646,-198.5 646,-179.5 516,-179.5"/>
<text text-anchor="middle" x="581" y="-186.5" font-family="Helvetica,sans-Serif" font-size="10.00">odp/api/abi/std_types.h</text>
</a>
</g>
</g>
<!-- Node15&#45;&gt;Node16 -->
<g id="edge19" class="edge">
<title>Node15&#45;&gt;Node16</title>
<path fill="none" stroke="midnightblue" d="M707.23,-235.44C682.11,-226.4 642.29,-212.06 614.1,-201.92"/>
<polygon fill="midnightblue" stroke="midnightblue" points="615.25,-198.61 604.66,-198.52 612.88,-205.2 615.25,-198.61"/>
</g>
<!-- Node17 -->
<g id="node17" class="node">
<title>Node17</title>
<g id="a_node17"><a xlink:href="api_2spec_2std__types_8h.html" target="_top" xlink:title=" ">
<polygon fill="white" stroke="black" points="702.5,-179.5 702.5,-198.5 839.5,-198.5 839.5,-179.5 702.5,-179.5"/>
<text text-anchor="middle" x="771" y="-186.5" font-family="Helvetica,sans-Serif" font-size="10.00">odp/api/spec/std_types.h</text>
</a>
</g>
</g>
<!-- Node15&#45;&gt;Node17 -->
<g id="edge20" class="edge">
<title>Node15&#45;&gt;Node17</title>
<path fill="none" stroke="midnightblue" d="M737.61,-235.08C743.26,-227.46 751.54,-216.26 758.45,-206.94"/>
<polygon fill="midnightblue" stroke="midnightblue" points="761.38,-208.87 764.52,-198.75 755.75,-204.7 761.38,-208.87"/>
</g>
<!-- Node17&#45;&gt;Node4 -->
<g id="edge21" class="edge">
<title>Node17&#45;&gt;Node4</title>
<path fill="none" stroke="midnightblue" d="M815.51,-179.46C844.46,-172.58 882.21,-161.03 912,-143 959.05,-114.52 956.97,-90.25 1000,-56 1014.71,-44.29 1032.58,-32.98 1046.72,-24.62"/>
<polygon fill="midnightblue" stroke="midnightblue" points="1048.51,-27.63 1055.4,-19.58 1045,-21.58 1048.51,-27.63"/>
</g>
<!-- Node17&#45;&gt;Node8 -->
<g id="edge28" class="edge">
<title>Node17&#45;&gt;Node8</title>
<path fill="none" stroke="midnightblue" d="M763.65,-179.23C739.41,-150.36 663.17,-59.92 656,-56 616.19,-34.22 495.05,-21.52 418.25,-15.44"/>
<polygon fill="midnightblue" stroke="midnightblue" points="418.42,-11.95 408.18,-14.66 417.89,-18.93 418.42,-11.95"/>
</g>
<!-- Node18 -->
<g id="node18" class="node">
<title>Node18</title>
<g id="a_node18"><a xlink:title=" ">
<polygon fill="white" stroke="#bfbfbf" points="742.5,-123.5 742.5,-142.5 795.5,-142.5 795.5,-123.5 742.5,-123.5"/>
<text text-anchor="middle" x="769" y="-130.5" font-family="Helvetica,sans-Serif" font-size="10.00">stdint.h</text>
</a>
</g>
</g>
<!-- Node17&#45;&gt;Node18 -->
<g id="edge22" class="edge">
<title>Node17&#45;&gt;Node18</title>
<path fill="none" stroke="midnightblue" d="M770.67,-179.08C770.41,-172.01 770.03,-161.86 769.7,-152.99"/>
<polygon fill="midnightblue" stroke="midnightblue" points="773.19,-152.61 769.32,-142.75 766.2,-152.87 773.19,-152.61"/>
</g>
<!-- Node19 -->
<g id="node19" class="node">
<title>Node19</title>
<g id="a_node19"><a xlink:href="api_2align_8h.html" target="_top" xlink:title=" ">
<polygon fill="white" stroke="black" points="813.5,-123.5 813.5,-142.5 902.5,-142.5 902.5,-123.5 813.5,-123.5"/>
<text text-anchor="middle" x="858" y="-130.5" font-family="Helvetica,sans-Serif" font-size="10.00">odp/api/align.h</text>
</a>
</g>
</g>
<!-- Node17&#45;&gt;Node19 -->
<g id="edge23" class="edge">
<title>Node17&#45;&gt;Node19</title>
<path fill="none" stroke="midnightblue" d="M784.98,-179.32C798.55,-170.9 819.38,-157.97 835.32,-148.07"/>
<polygon fill="midnightblue" stroke="midnightblue" points="837.41,-150.9 844.06,-142.65 833.71,-144.95 837.41,-150.9"/>
</g>
<!-- Node20 -->
<g id="node20" class="node">
<title>Node20</title>
<g id="a_node20"><a xlink:title=" ">
<polygon fill="white" stroke="#bfbfbf" points="708.5,-62 708.5,-81 815.5,-81 815.5,-62 708.5,-62"/>
<text text-anchor="middle" x="762" y="-69" font-family="Helvetica,sans-Serif" font-size="10.00">odp/api/abi/align.h</text>
</a>
</g>
</g>
<!-- Node19&#45;&gt;Node20 -->
<g id="edge24" class="edge">
<title>Node19&#45;&gt;Node20</title>
<path fill="none" stroke="midnightblue" d="M844.25,-123.48C828.63,-113.8 802.94,-97.87 784.42,-86.39"/>
<polygon fill="midnightblue" stroke="midnightblue" points="786.07,-83.3 775.73,-81.01 782.38,-89.25 786.07,-83.3"/>
</g>
<!-- Node21 -->
<g id="node21" class="node">
<title>Node21</title>
<g id="a_node21"><a xlink:href="api_2spec_2align_8h.html" target="_top" xlink:title=" ">
<polygon fill="white" stroke="black" points="834,-62 834,-81 948,-81 948,-62 834,-62"/>
<text text-anchor="middle" x="891" y="-69" font-family="Helvetica,sans-Serif" font-size="10.00">odp/api/spec/align.h</text>
</a>
</g>
</g>
<!-- Node19&#45;&gt;Node21 -->
<g id="edge25" class="edge">
<title>Node19&#45;&gt;Node21</title>
<path fill="none" stroke="midnightblue" d="M862.73,-123.48C867.58,-114.73 875.27,-100.87 881.4,-89.81"/>
<polygon fill="midnightblue" stroke="midnightblue" points="884.49,-91.45 886.28,-81.01 878.37,-88.06 884.49,-91.45"/>
</g>
<!-- Node21&#45;&gt;Node4 -->
<g id="edge26" class="edge">
<title>Node21&#45;&gt;Node4</title>
<path fill="none" stroke="midnightblue" d="M916.79,-61.98C947.93,-51.68 1000.48,-34.31 1035.45,-22.75"/>
<polygon fill="midnightblue" stroke="midnightblue" points="1036.86,-25.97 1045.26,-19.51 1034.66,-19.32 1036.86,-25.97"/>
</g>
<!-- Node21&#45;&gt;Node8 -->
<g id="edge27" class="edge">
<title>Node21&#45;&gt;Node8</title>
<path fill="none" stroke="midnightblue" d="M855.87,-61.95C845.94,-59.76 835.08,-57.58 825,-56 680.86,-33.4 510.11,-20.55 418.33,-14.76"/>
<polygon fill="midnightblue" stroke="midnightblue" points="418.54,-11.27 408.34,-14.14 418.1,-18.25 418.54,-11.27"/>
</g>
<!-- Node23 -->
<g id="node23" class="node">
<title>Node23</title>
<g id="a_node23"><a xlink:title=" ">
<polygon fill="white" stroke="#bfbfbf" points="882.5,-794.5 882.5,-813.5 1019.5,-813.5 1019.5,-794.5 882.5,-794.5"/>
<text text-anchor="middle" x="951" y="-801.5" font-family="Helvetica,sans-Serif" font-size="10.00">odp/api/abi/dma_types.h</text>
</a>
</g>
</g>
<!-- Node22&#45;&gt;Node23 -->
<g id="edge30" class="edge">
<title>Node22&#45;&gt;Node23</title>
<path fill="none" stroke="midnightblue" d="M884.69,-850.32C896.9,-841.98 915.58,-829.21 930,-819.35"/>
<polygon fill="midnightblue" stroke="midnightblue" points="932.06,-822.19 938.34,-813.65 928.11,-816.41 932.06,-822.19"/>
</g>
<!-- Node24 -->
<g id="node24" class="node">
<title>Node24</title>
<g id="a_node24"><a xlink:href="api_2spec_2dma__types_8h.html" target="_top" xlink:title=" ">
<polygon fill="white" stroke="black" points="720,-794.5 720,-813.5 864,-813.5 864,-794.5 720,-794.5"/>
<text text-anchor="middle" x="792" y="-801.5" font-family="Helvetica,sans-Serif" font-size="10.00">odp/api/spec/dma_types.h</text>
</a>
</g>
</g>
<!-- Node22&#45;&gt;Node24 -->
<g id="edge31" class="edge">
<title>Node22&#45;&gt;Node24</title>
<path fill="none" stroke="midnightblue" d="M859.15,-850.32C846.78,-841.98 827.87,-829.21 813.26,-819.35"/>
<polygon fill="midnightblue" stroke="midnightblue" points="815.07,-816.35 804.82,-813.65 811.15,-822.15 815.07,-816.35"/>
</g>
<!-- Node24&#45;&gt;Node4 -->
<g id="edge32" class="edge">
<title>Node24&#45;&gt;Node4</title>
<path fill="none" stroke="midnightblue" d="M852.06,-794.47C916.86,-784.94 1015.65,-769.36 1052,-758 1123.08,-735.79 1204,-761.97 1204,-687.5 1204,-687.5 1204,-687.5 1204,-501 1204,-413.36 1242,-395.14 1242,-307.5 1242,-307.5 1242,-307.5 1242,-132 1242,-70.97 1168.52,-37.96 1117.9,-22.46"/>
<polygon fill="midnightblue" stroke="midnightblue" points="1118.69,-19.04 1108.1,-19.59 1116.72,-25.76 1118.69,-19.04"/>
</g>
<!-- Node24&#45;&gt;Node8 -->
<g id="edge65" class="edge">
<title>Node24&#45;&gt;Node8</title>
<path fill="none" stroke="midnightblue" d="M719.91,-800.83C568.6,-795.82 227.93,-782.02 181,-758 122.43,-728.03 114,-691.79 114,-626 114,-626 114,-626 114,-439.5 114,-269.05 6.13,-187.14 115,-56 136.35,-30.28 223.21,-19.14 285.59,-14.4"/>
<polygon fill="midnightblue" stroke="midnightblue" points="286.04,-17.87 295.76,-13.66 285.54,-10.89 286.04,-17.87"/>
</g>
<!-- Node24&#45;&gt;Node9 -->
<g id="edge33" class="edge">
<title>Node24&#45;&gt;Node9</title>
<path fill="none" stroke="midnightblue" d="M719.73,-795.77C616.55,-785.45 428.07,-766.61 324.66,-756.27"/>
<polygon fill="midnightblue" stroke="midnightblue" points="324.92,-752.77 314.62,-755.26 324.22,-759.74 324.92,-752.77"/>
</g>
<!-- Node24&#45;&gt;Node15 -->
<g id="edge64" class="edge">
<title>Node24&#45;&gt;Node15</title>
<path fill="none" stroke="midnightblue" d="M782.41,-794.48C763.45,-776.66 723,-733.28 723,-687.5 723,-687.5 723,-687.5 723,-372.5 723,-334.13 726.71,-289.33 729.08,-264.67"/>
<polygon fill="midnightblue" stroke="midnightblue" points="732.58,-264.87 730.08,-254.58 725.61,-264.18 732.58,-264.87"/>
</g>
<!-- Node25 -->
<g id="node25" class="node">
<title>Node25</title>
<g id="a_node25"><a xlink:href="api_2packet__types_8h.html" target="_top" xlink:title=" ">
<polygon fill="white" stroke="black" points="795.5,-738.5 795.5,-757.5 924.5,-757.5 924.5,-738.5 795.5,-738.5"/>
<text text-anchor="middle" x="860" y="-745.5" font-family="Helvetica,sans-Serif" font-size="10.00">odp/api/packet_types.h</text>
</a>
</g>
</g>
<!-- Node24&#45;&gt;Node25 -->
<g id="edge34" class="edge">
<title>Node24&#45;&gt;Node25</title>
<path fill="none" stroke="midnightblue" d="M802.93,-794.32C813.17,-786.18 828.72,-773.84 841,-764.09"/>
<polygon fill="midnightblue" stroke="midnightblue" points="843.22,-766.79 848.88,-757.83 838.87,-761.31 843.22,-766.79"/>
</g>
<!-- Node32 -->
<g id="node32" class="node">
<title>Node32</title>
<g id="a_node32"><a xlink:href="api_2queue__types_8h.html" target="_top" xlink:title=" ">
<polygon fill="white" stroke="black" points="879.5,-615.5 879.5,-634.5 1006.5,-634.5 1006.5,-615.5 879.5,-615.5"/>
<text text-anchor="middle" x="943" y="-622.5" font-family="Helvetica,sans-Serif" font-size="10.00">odp/api/queue_types.h</text>
</a>
</g>
</g>
<!-- Node24&#45;&gt;Node32 -->
<g id="edge63" class="edge">
<title>Node24&#45;&gt;Node32</title>
<path fill="none" stroke="midnightblue" d="M845.44,-794.46C930.1,-779.73 1088.91,-746.74 1122,-702 1153.48,-659.45 1079.27,-640.51 1017.02,-632.22"/>
<polygon fill="midnightblue" stroke="midnightblue" points="1017.11,-628.71 1006.75,-630.94 1016.24,-635.65 1017.11,-628.71"/>
</g>
<!-- Node26 -->
<g id="node26" class="node">
<title>Node26</title>
<g id="a_node26"><a xlink:title=" ">
<polygon fill="white" stroke="#bfbfbf" points="1007,-671.5 1007,-701.5 1113,-701.5 1113,-671.5 1007,-671.5"/>
<text text-anchor="start" x="1015" y="-689.5" font-family="Helvetica,sans-Serif" font-size="10.00">odp/api/abi/packet</text>
<text text-anchor="middle" x="1060" y="-678.5" font-family="Helvetica,sans-Serif" font-size="10.00">_io_types.h</text>
</a>
</g>
</g>
<!-- Node25&#45;&gt;Node26 -->
<g id="edge35" class="edge">
<title>Node25&#45;&gt;Node26</title>
<path fill="none" stroke="midnightblue" d="M888.66,-738.48C918.4,-729.63 965.72,-715.55 1003.1,-704.43"/>
<polygon fill="midnightblue" stroke="midnightblue" points="1004.28,-707.73 1012.86,-701.52 1002.28,-701.02 1004.28,-707.73"/>
</g>
<!-- Node27 -->
<g id="node27" class="node">
<title>Node27</title>
<g id="a_node27"><a xlink:title=" ">
<polygon fill="white" stroke="#bfbfbf" points="883,-671.5 883,-701.5 989,-701.5 989,-671.5 883,-671.5"/>
<text text-anchor="start" x="891" y="-689.5" font-family="Helvetica,sans-Serif" font-size="10.00">odp/api/abi/packet</text>
<text text-anchor="middle" x="936" y="-678.5" font-family="Helvetica,sans-Serif" font-size="10.00">_types.h</text>
</a>
</g>
</g>
<!-- Node25&#45;&gt;Node27 -->
<g id="edge36" class="edge">
<title>Node25&#45;&gt;Node27</title>
<path fill="none" stroke="midnightblue" d="M870.89,-738.48C881.09,-730.49 896.72,-718.25 910.11,-707.77"/>
<polygon fill="midnightblue" stroke="midnightblue" points="912.37,-710.44 918.09,-701.52 908.06,-704.93 912.37,-710.44"/>
</g>
<!-- Node28 -->
<g id="node28" class="node">
<title>Node28</title>
<g id="a_node28"><a xlink:href="api_2spec_2packet__types_8h.html" target="_top" xlink:title=" ">
<polygon fill="white" stroke="black" points="751.5,-671.5 751.5,-701.5 864.5,-701.5 864.5,-671.5 751.5,-671.5"/>
<text text-anchor="start" x="759.5" y="-689.5" font-family="Helvetica,sans-Serif" font-size="10.00">odp/api/spec/packet</text>
<text text-anchor="middle" x="808" y="-678.5" font-family="Helvetica,sans-Serif" font-size="10.00">_types.h</text>
</a>
</g>
</g>
<!-- Node25&#45;&gt;Node28 -->
<g id="edge37" class="edge">
<title>Node25&#45;&gt;Node28</title>
<path fill="none" stroke="midnightblue" d="M852.55,-738.48C845.9,-730.87 835.88,-719.4 827.02,-709.26"/>
<polygon fill="midnightblue" stroke="midnightblue" points="829.47,-706.75 820.26,-701.52 824.2,-711.36 829.47,-706.75"/>
</g>
<!-- Node28&#45;&gt;Node4 -->
<g id="edge38" class="edge">
<title>Node28&#45;&gt;Node4</title>
<path fill="none" stroke="midnightblue" d="M864.92,-673.03C916.49,-661.49 988.49,-644.69 1016,-635 1085.48,-610.52 1166,-638.16 1166,-564.5 1166,-564.5 1166,-564.5 1166,-439.5 1166,-351.86 1204,-333.64 1204,-246 1204,-246 1204,-246 1204,-132 1204,-77.75 1142.72,-41.4 1103.35,-23.64"/>
<polygon fill="midnightblue" stroke="midnightblue" points="1104.43,-20.3 1093.86,-19.53 1101.65,-26.72 1104.43,-20.3"/>
</g>
<!-- Node28&#45;&gt;Node8 -->
<g id="edge62" class="edge">
<title>Node28&#45;&gt;Node8</title>
<path fill="none" stroke="midnightblue" d="M751.19,-681C636.9,-670.37 390,-638.82 390,-564.5 390,-564.5 390,-564.5 390,-501 390,-403.2 165.7,-235.52 134,-143 121.47,-106.42 108.56,-85.97 133,-56 152.03,-32.66 228.46,-21.08 285.71,-15.58"/>
<polygon fill="midnightblue" stroke="midnightblue" points="286.16,-19.05 295.8,-14.65 285.52,-12.08 286.16,-19.05"/>
</g>
<!-- Node29 -->
<g id="node29" class="node">
<title>Node29</title>
<g id="a_node29"><a xlink:href="api_2proto__stats__types_8h.html" target="_top" xlink:title=" ">
<polygon fill="white" stroke="black" points="411,-358.5 411,-388.5 521,-388.5 521,-358.5 411,-358.5"/>
<text text-anchor="start" x="419" y="-376.5" font-family="Helvetica,sans-Serif" font-size="10.00">odp/api/proto_stats</text>
<text text-anchor="middle" x="466" y="-365.5" font-family="Helvetica,sans-Serif" font-size="10.00">_types.h</text>
</a>
</g>
</g>
<!-- Node28&#45;&gt;Node29 -->
<g id="edge39" class="edge">
<title>Node28&#45;&gt;Node29</title>
<path fill="none" stroke="midnightblue" d="M751.14,-677.39C653.89,-661.9 466,-624.25 466,-564.5 466,-564.5 466,-564.5 466,-501 466,-465.42 466,-424.2 466,-398.74"/>
<polygon fill="midnightblue" stroke="midnightblue" points="469.5,-398.54 466,-388.54 462.5,-398.54 469.5,-398.54"/>
</g>
<!-- Node28&#45;&gt;Node32 -->
<g id="edge45" class="edge">
<title>Node28&#45;&gt;Node32</title>
<path fill="none" stroke="midnightblue" d="M839.99,-671.4C862.44,-661.51 892.21,-648.38 913.98,-638.79"/>
<polygon fill="midnightblue" stroke="midnightblue" points="915.62,-641.89 923.36,-634.66 912.79,-635.49 915.62,-641.89"/>
</g>
<!-- Node30 -->
<g id="node30" class="node">
<title>Node30</title>
<g id="a_node30"><a xlink:title=" ">
<polygon fill="white" stroke="#bfbfbf" points="529,-291.5 529,-321.5 657,-321.5 657,-291.5 529,-291.5"/>
<text text-anchor="start" x="537" y="-309.5" font-family="Helvetica,sans-Serif" font-size="10.00">odp/api/abi/proto_stats</text>
<text text-anchor="middle" x="593" y="-298.5" font-family="Helvetica,sans-Serif" font-size="10.00">_types.h</text>
</a>
</g>
</g>
<!-- Node29&#45;&gt;Node30 -->
<g id="edge40" class="edge">
<title>Node29&#45;&gt;Node30</title>
<path fill="none" stroke="midnightblue" d="M493.56,-358.4C511.95,-348.98 536.33,-336.5 556.35,-326.26"/>
<polygon fill="midnightblue" stroke="midnightblue" points="558.19,-329.25 565.5,-321.58 555,-323.02 558.19,-329.25"/>
</g>
<!-- Node31 -->
<g id="node31" class="node">
<title>Node31</title>
<g id="a_node31"><a xlink:href="api_2spec_2proto__stats__types_8h.html" target="_top" xlink:title=" ">
<polygon fill="white" stroke="black" points="403.5,-291.5 403.5,-321.5 510.5,-321.5 510.5,-291.5 403.5,-291.5"/>
<text text-anchor="start" x="411.5" y="-309.5" font-family="Helvetica,sans-Serif" font-size="10.00">odp/api/spec/proto</text>
<text text-anchor="middle" x="457" y="-298.5" font-family="Helvetica,sans-Serif" font-size="10.00">_stats_types.h</text>
</a>
</g>
</g>
<!-- Node29&#45;&gt;Node31 -->
<g id="edge41" class="edge">
<title>Node29&#45;&gt;Node31</title>
<path fill="none" stroke="midnightblue" d="M464.05,-358.4C462.96,-350.56 461.58,-340.6 460.33,-331.57"/>
<polygon fill="midnightblue" stroke="midnightblue" points="463.79,-331 458.95,-321.58 456.85,-331.96 463.79,-331"/>
</g>
<!-- Node31&#45;&gt;Node4 -->
<g id="edge42" class="edge">
<title>Node31&#45;&gt;Node4</title>
<path fill="none" stroke="midnightblue" d="M493.93,-291.4C535.35,-275.98 604.75,-251.28 666,-235 746.11,-213.71 771.96,-229.59 849,-199 892.44,-181.76 900.97,-171.52 938,-143 985.68,-106.28 1033.9,-53.71 1056.98,-27.36"/>
<polygon fill="midnightblue" stroke="midnightblue" points="1059.65,-29.63 1063.56,-19.78 1054.36,-25.04 1059.65,-29.63"/>
</g>
<!-- Node31&#45;&gt;Node8 -->
<g id="edge44" class="edge">
<title>Node31&#45;&gt;Node8</title>
<path fill="none" stroke="midnightblue" d="M445.02,-291.39C417.85,-258.34 352.14,-172.28 329,-87 325.39,-73.7 325.78,-69.4 329,-56 331.31,-46.42 336.02,-36.58 340.58,-28.56"/>
<polygon fill="midnightblue" stroke="midnightblue" points="343.69,-30.17 345.9,-19.81 337.71,-26.54 343.69,-30.17"/>
</g>
<!-- Node31&#45;&gt;Node15 -->
<g id="edge43" class="edge">
<title>Node31&#45;&gt;Node15</title>
<path fill="none" stroke="midnightblue" d="M510.6,-293.1C513.78,-292.39 516.93,-291.68 520,-291 574.67,-278.88 637.46,-265.57 680.23,-256.59"/>
<polygon fill="midnightblue" stroke="midnightblue" points="681.04,-259.99 690.11,-254.52 679.61,-253.14 681.04,-259.99"/>
</g>
<!-- Node33 -->
<g id="node33" class="node">
<title>Node33</title>
<g id="a_node33"><a xlink:title=" ">
<polygon fill="white" stroke="#bfbfbf" points="943.5,-554 943.5,-573 1088.5,-573 1088.5,-554 943.5,-554"/>
<text text-anchor="middle" x="1016" y="-561" font-family="Helvetica,sans-Serif" font-size="10.00">odp/api/abi/queue_types.h</text>
</a>
</g>
</g>
<!-- Node32&#45;&gt;Node33 -->
<g id="edge46" class="edge">
<title>Node32&#45;&gt;Node33</title>
<path fill="none" stroke="midnightblue" d="M953.46,-615.48C964.95,-606.11 983.63,-590.88 997.59,-579.51"/>
<polygon fill="midnightblue" stroke="midnightblue" points="1000.02,-582.04 1005.56,-573.01 995.6,-576.61 1000.02,-582.04"/>
</g>
<!-- Node34 -->
<g id="node34" class="node">
<title>Node34</title>
<g id="a_node34"><a xlink:href="api_2spec_2queue__types_8h.html" target="_top" xlink:title=" ">
<polygon fill="white" stroke="black" points="814.5,-548.5 814.5,-578.5 925.5,-578.5 925.5,-548.5 814.5,-548.5"/>
<text text-anchor="start" x="822.5" y="-566.5" font-family="Helvetica,sans-Serif" font-size="10.00">odp/api/spec/queue</text>
<text text-anchor="middle" x="870" y="-555.5" font-family="Helvetica,sans-Serif" font-size="10.00">_types.h</text>
</a>
</g>
</g>
<!-- Node32&#45;&gt;Node34 -->
<g id="edge47" class="edge">
<title>Node32&#45;&gt;Node34</title>
<path fill="none" stroke="midnightblue" d="M932.54,-615.48C922.84,-607.57 908.01,-595.48 895.23,-585.07"/>
<polygon fill="midnightblue" stroke="midnightblue" points="897.17,-582.13 887.2,-578.52 892.74,-587.55 897.17,-582.13"/>
</g>
<!-- Node34&#45;&gt;Node4 -->
<g id="edge48" class="edge">
<title>Node34&#45;&gt;Node4</title>
<path fill="none" stroke="midnightblue" d="M925.35,-548.44C1001.16,-527.53 1128,-485.9 1128,-441.5 1128,-441.5 1128,-441.5 1128,-132 1128,-91.59 1101.66,-50.21 1084.79,-27.85"/>
<polygon fill="midnightblue" stroke="midnightblue" points="1087.37,-25.46 1078.45,-19.74 1081.85,-29.77 1087.37,-25.46"/>
</g>
<!-- Node34&#45;&gt;Node8 -->
<g id="edge61" class="edge">
<title>Node34&#45;&gt;Node8</title>
<path fill="none" stroke="midnightblue" d="M814.17,-560.24C710.84,-552.86 490.06,-521.54 377,-389 288.46,-285.21 334.27,-222.88 322,-87 320.76,-73.28 318.01,-69.19 322,-56 325.12,-45.7 331.45,-35.61 337.5,-27.6"/>
<polygon fill="midnightblue" stroke="midnightblue" points="340.23,-29.8 343.79,-19.82 334.78,-25.4 340.23,-29.8"/>
</g>
<!-- Node35 -->
<g id="node35" class="node">
<title>Node35</title>
<g id="a_node35"><a xlink:href="api_2schedule__types_8h.html" target="_top" xlink:title=" ">
<polygon fill="white" stroke="black" points="800,-492.5 800,-511.5 940,-511.5 940,-492.5 800,-492.5"/>
<text text-anchor="middle" x="870" y="-499.5" font-family="Helvetica,sans-Serif" font-size="10.00">odp/api/schedule_types.h</text>
</a>
</g>
</g>
<!-- Node34&#45;&gt;Node35 -->
<g id="edge49" class="edge">
<title>Node34&#45;&gt;Node35</title>
<path fill="none" stroke="midnightblue" d="M870,-548.4C870,-540.47 870,-530.46 870,-521.86"/>
<polygon fill="midnightblue" stroke="midnightblue" points="873.5,-521.66 870,-511.66 866.5,-521.66 873.5,-521.66"/>
</g>
<!-- Node36 -->
<g id="node36" class="node">
<title>Node36</title>
<g id="a_node36"><a xlink:title=" ">
<polygon fill="white" stroke="#bfbfbf" points="914.5,-425.5 914.5,-455.5 1031.5,-455.5 1031.5,-425.5 914.5,-425.5"/>
<text text-anchor="start" x="922.5" y="-443.5" font-family="Helvetica,sans-Serif" font-size="10.00">odp/api/abi/schedule</text>
<text text-anchor="middle" x="973" y="-432.5" font-family="Helvetica,sans-Serif" font-size="10.00">_types.h</text>
</a>
</g>
</g>
<!-- Node35&#45;&gt;Node36 -->
<g id="edge50" class="edge">
<title>Node35&#45;&gt;Node36</title>
<path fill="none" stroke="midnightblue" d="M884.76,-492.48C899.1,-484.19 921.37,-471.32 939.95,-460.59"/>
<polygon fill="midnightblue" stroke="midnightblue" points="941.82,-463.56 948.72,-455.52 938.32,-457.49 941.82,-463.56"/>
</g>
<!-- Node37 -->
<g id="node37" class="node">
<title>Node37</title>
<g id="a_node37"><a xlink:href="api_2spec_2schedule__types_8h.html" target="_top" xlink:title=" ">
<polygon fill="white" stroke="black" points="771.5,-425.5 771.5,-455.5 896.5,-455.5 896.5,-425.5 771.5,-425.5"/>
<text text-anchor="start" x="779.5" y="-443.5" font-family="Helvetica,sans-Serif" font-size="10.00">odp/api/spec/schedule</text>
<text text-anchor="middle" x="834" y="-432.5" font-family="Helvetica,sans-Serif" font-size="10.00">_types.h</text>
</a>
</g>
</g>
<!-- Node35&#45;&gt;Node37 -->
<g id="edge51" class="edge">
<title>Node35&#45;&gt;Node37</title>
<path fill="none" stroke="midnightblue" d="M864.84,-492.48C860.38,-485.09 853.71,-474.08 847.72,-464.17"/>
<polygon fill="midnightblue" stroke="midnightblue" points="850.66,-462.27 842.48,-455.52 844.67,-465.89 850.66,-462.27"/>
</g>
<!-- Node37&#45;&gt;Node4 -->
<g id="edge52" class="edge">
<title>Node37&#45;&gt;Node4</title>
<path fill="none" stroke="midnightblue" d="M881.85,-425.44C955.95,-402.22 1090,-353.82 1090,-307.5 1090,-307.5 1090,-307.5 1090,-132 1090,-95.29 1081.36,-53.06 1075.73,-29.45"/>
<polygon fill="midnightblue" stroke="midnightblue" points="1079.13,-28.6 1073.33,-19.73 1072.33,-30.28 1079.13,-28.6"/>
</g>
<!-- Node37&#45;&gt;Node8 -->
<g id="edge60" class="edge">
<title>Node37&#45;&gt;Node8</title>
<path fill="none" stroke="midnightblue" d="M771.28,-436.44C657.74,-430.3 427.47,-414.79 402,-389 296.58,-282.28 539.58,-181.23 457,-56 446.36,-39.86 428.61,-29.49 410.69,-22.83"/>
<polygon fill="midnightblue" stroke="midnightblue" points="411.37,-19.37 400.77,-19.5 409.14,-26 411.37,-19.37"/>
</g>
<!-- Node37&#45;&gt;Node15 -->
<g id="edge53" class="edge">
<title>Node37&#45;&gt;Node15</title>
<path fill="none" stroke="midnightblue" d="M821.05,-425.2C812.65,-415.47 801.85,-402.03 794,-389 768.53,-346.75 747.45,-292.36 737.38,-264.4"/>
<polygon fill="midnightblue" stroke="midnightblue" points="740.61,-263.02 733.97,-254.76 734.01,-265.35 740.61,-263.02"/>
</g>
<!-- Node38 -->
<g id="node38" class="node">
<title>Node38</title>
<g id="a_node38"><a xlink:href="api_2thrmask_8h.html" target="_top" xlink:title=" ">
<polygon fill="white" stroke="black" points="802.5,-364 802.5,-383 907.5,-383 907.5,-364 802.5,-364"/>
<text text-anchor="middle" x="855" y="-371" font-family="Helvetica,sans-Serif" font-size="10.00">odp/api/thrmask.h</text>
</a>
</g>
</g>
<!-- Node37&#45;&gt;Node38 -->
<g id="edge54" class="edge">
<title>Node37&#45;&gt;Node38</title>
<path fill="none" stroke="midnightblue" d="M838.56,-425.4C841.64,-415.86 845.73,-403.18 849.07,-392.86"/>
<polygon fill="midnightblue" stroke="midnightblue" points="852.45,-393.79 852.19,-383.19 845.79,-391.63 852.45,-393.79"/>
</g>
<!-- Node39 -->
<g id="node39" class="node">
<title>Node39</title>
<g id="a_node39"><a xlink:title=" ">
<polygon fill="white" stroke="#bfbfbf" points="938.5,-297 938.5,-316 1061.5,-316 1061.5,-297 938.5,-297"/>
<text text-anchor="middle" x="1000" y="-304" font-family="Helvetica,sans-Serif" font-size="10.00">odp/api/abi/thrmask.h</text>
</a>
</g>
</g>
<!-- Node38&#45;&gt;Node39 -->
<g id="edge55" class="edge">
<title>Node38&#45;&gt;Node39</title>
<path fill="none" stroke="midnightblue" d="M874.25,-363.87C899.17,-352.7 942.79,-333.15 971.53,-320.26"/>
<polygon fill="midnightblue" stroke="midnightblue" points="972.97,-323.45 980.67,-316.17 970.11,-317.06 972.97,-323.45"/>
</g>
<!-- Node40 -->
<g id="node40" class="node">
<title>Node40</title>
<g id="a_node40"><a xlink:href="api_2spec_2thrmask_8h.html" target="_top" xlink:title=" ">
<polygon fill="white" stroke="black" points="789.5,-297 789.5,-316 920.5,-316 920.5,-297 789.5,-297"/>
<text text-anchor="middle" x="855" y="-304" font-family="Helvetica,sans-Serif" font-size="10.00">odp/api/spec/thrmask.h</text>
</a>
</g>
</g>
<!-- Node38&#45;&gt;Node40 -->
<g id="edge56" class="edge">
<title>Node38&#45;&gt;Node40</title>
<path fill="none" stroke="midnightblue" d="M855,-363.73C855,-354.18 855,-338.62 855,-326.28"/>
<polygon fill="midnightblue" stroke="midnightblue" points="858.5,-326.13 855,-316.13 851.5,-326.13 858.5,-326.13"/>
</g>
<!-- Node40&#45;&gt;Node4 -->
<g id="edge57" class="edge">
<title>Node40&#45;&gt;Node4</title>
<path fill="none" stroke="midnightblue" d="M879.55,-296.88C932.36,-277.6 1052,-229.55 1052,-190 1052,-190 1052,-190 1052,-132 1052,-95.29 1060.64,-53.06 1066.27,-29.45"/>
<polygon fill="midnightblue" stroke="midnightblue" points="1069.67,-30.28 1068.67,-19.73 1062.87,-28.6 1069.67,-30.28"/>
</g>
<!-- Node40&#45;&gt;Node8 -->
<g id="edge59" class="edge">
<title>Node40&#45;&gt;Node8</title>
<path fill="none" stroke="midnightblue" d="M849.94,-296.84C840.92,-282.11 820.65,-252.11 796,-235 756.5,-207.59 730,-230.87 694,-199 640.87,-151.97 680.03,-98.22 623,-56 591.35,-32.57 487.78,-20.64 418.23,-15.13"/>
<polygon fill="midnightblue" stroke="midnightblue" points="418.47,-11.64 408.23,-14.36 417.94,-18.62 418.47,-11.64"/>
</g>
<!-- Node40&#45;&gt;Node15 -->
<g id="edge58" class="edge">
<title>Node40&#45;&gt;Node15</title>
<path fill="none" stroke="midnightblue" d="M837.23,-296.98C816.52,-287.03 782.05,-270.49 758.01,-258.96"/>
<polygon fill="midnightblue" stroke="midnightblue" points="759.26,-255.68 748.73,-254.51 756.23,-261.99 759.26,-255.68"/>
</g>
</g>
</svg>
