<?xml version="1.0" encoding="UTF-8" standalone="no"?>
<!DOCTYPE svg PUBLIC "-//W3C//DTD SVG 1.1//EN"
 "http://www.w3.org/Graphics/SVG/1.1/DTD/svg11.dtd">
<!-- Generated by graphviz version 2.43.0 (0)
 -->
<!-- Title: std_types.h Pages: 1 -->
<svg width="3934pt" height="252pt"
 viewBox="0.00 0.00 3934.11 252.00" xmlns="http://www.w3.org/2000/svg" xmlns:xlink="http://www.w3.org/1999/xlink">
<g id="graph0" class="graph" transform="scale(1 1) rotate(0) translate(4 248)">
<title>std_types.h</title>
<polygon fill="white" stroke="transparent" points="-4,4 -4,-248 3930.11,-248 3930.11,4 -4,4"/>
<!-- Node1 -->
<g id="node1" class="node">
<title>Node1</title>
<g id="a_node1"><a xlink:title=" ">
<polygon fill="#bfbfbf" stroke="black" points="1865,-224.5 1865,-243.5 1938,-243.5 1938,-224.5 1865,-224.5"/>
<text text-anchor="middle" x="1901.5" y="-231.5" font-family="Helvetica,sans-Serif" font-size="10.00">std_types.h</text>
</a>
</g>
</g>
<!-- Node2 -->
<g id="node2" class="node">
<title>Node2</title>
<g id="a_node2"><a xlink:href="api_2std__types_8h.html" target="_top" xlink:title=" ">
<polygon fill="white" stroke="black" points="1865,-168.5 1865,-187.5 1938,-187.5 1938,-168.5 1865,-168.5"/>
<text text-anchor="middle" x="1901.5" y="-175.5" font-family="Helvetica,sans-Serif" font-size="10.00">std_types.h</text>
</a>
</g>
</g>
<!-- Node1&#45;&gt;Node2 -->
<g id="edge1" class="edge">
<title>Node1&#45;&gt;Node2</title>
<path fill="none" stroke="midnightblue" d="M1901.5,-213.8C1901.5,-204.91 1901.5,-194.78 1901.5,-187.75"/>
<polygon fill="midnightblue" stroke="midnightblue" points="1898,-214.08 1901.5,-224.08 1905,-214.08 1898,-214.08"/>
</g>
<!-- Node3 -->
<g id="node3" class="node">
<title>Node3</title>
<g id="a_node3"><a xlink:href="api_2abi-default_2atomic_8h.html" target="_top" xlink:title=" ">
<polygon fill="white" stroke="red" points="0,-112.5 0,-131.5 59,-131.5 59,-112.5 0,-112.5"/>
<text text-anchor="middle" x="29.5" y="-119.5" font-family="Helvetica,sans-Serif" font-size="10.00">atomic.h</text>
</a>
</g>
</g>
<!-- Node2&#45;&gt;Node3 -->
<g id="edge2" class="edge">
<title>Node2&#45;&gt;Node3</title>
<path fill="none" stroke="midnightblue" d="M1854.54,-177.17C1604.58,-177.87 428.14,-178.61 67.5,-132 64.81,-131.65 62.03,-131.19 59.26,-130.67"/>
<polygon fill="midnightblue" stroke="midnightblue" points="1854.75,-180.67 1864.74,-177.14 1854.72,-173.67 1854.75,-180.67"/>
</g>
<!-- Node11 -->
<g id="node5" class="node">
<title>Node11</title>
<g id="a_node5"><a xlink:href="api_2abi-default_2barrier_8h.html" target="_top" xlink:title=" ">
<polygon fill="white" stroke="red" points="77,-112.5 77,-131.5 134,-131.5 134,-112.5 77,-112.5"/>
<text text-anchor="middle" x="105.5" y="-119.5" font-family="Helvetica,sans-Serif" font-size="10.00">barrier.h</text>
</a>
</g>
</g>
<!-- Node2&#45;&gt;Node11 -->
<g id="edge4" class="edge">
<title>Node2&#45;&gt;Node11</title>
<path fill="none" stroke="midnightblue" d="M1854.56,-177.11C1610.9,-177.49 488.26,-176.75 143.5,-132 140.41,-131.6 137.2,-131.05 134.02,-130.42"/>
<polygon fill="midnightblue" stroke="midnightblue" points="1854.85,-180.61 1864.84,-177.09 1854.84,-173.61 1854.85,-180.61"/>
</g>
<!-- Node44 -->
<g id="node6" class="node">
<title>Node44</title>
<g id="a_node6"><a xlink:href="api_2abi-default_2byteorder_8h.html" target="_top" xlink:title=" ">
<polygon fill="white" stroke="red" points="152.5,-112.5 152.5,-131.5 224.5,-131.5 224.5,-112.5 152.5,-112.5"/>
<text text-anchor="middle" x="188.5" y="-119.5" font-family="Helvetica,sans-Serif" font-size="10.00">byteorder.h</text>
</a>
</g>
</g>
<!-- Node2&#45;&gt;Node44 -->
<g id="edge5" class="edge">
<title>Node2&#45;&gt;Node44</title>
<path fill="none" stroke="midnightblue" d="M1854.36,-176.81C1617.98,-175.71 560.07,-168.79 233.5,-132 230.65,-131.68 227.71,-131.27 224.77,-130.8"/>
<polygon fill="midnightblue" stroke="midnightblue" points="1854.66,-180.32 1864.68,-176.86 1854.69,-173.32 1854.66,-180.32"/>
</g>
<!-- Node52 -->
<g id="node7" class="node">
<title>Node52</title>
<g id="a_node7"><a xlink:href="api_2abi-default_2cpumask_8h.html" target="_top" xlink:title=" ">
<polygon fill="white" stroke="red" points="242.5,-112.5 242.5,-131.5 312.5,-131.5 312.5,-112.5 242.5,-112.5"/>
<text text-anchor="middle" x="277.5" y="-119.5" font-family="Helvetica,sans-Serif" font-size="10.00">cpumask.h</text>
</a>
</g>
</g>
<!-- Node2&#45;&gt;Node52 -->
<g id="edge6" class="edge">
<title>Node2&#45;&gt;Node52</title>
<path fill="none" stroke="midnightblue" d="M1854.67,-176.76C1626.49,-175.43 629.76,-167.64 321.5,-132 318.71,-131.68 315.84,-131.27 312.96,-130.8"/>
<polygon fill="midnightblue" stroke="midnightblue" points="1854.93,-180.26 1864.95,-176.82 1854.97,-173.26 1854.93,-180.26"/>
</g>
<!-- Node120 -->
<g id="node8" class="node">
<title>Node120</title>
<g id="a_node8"><a xlink:href="api_2abi-default_2init_8h.html" target="_top" xlink:title=" ">
<polygon fill="white" stroke="red" points="331,-112.5 331,-131.5 372,-131.5 372,-112.5 331,-112.5"/>
<text text-anchor="middle" x="351.5" y="-119.5" font-family="Helvetica,sans-Serif" font-size="10.00">init.h</text>
</a>
</g>
</g>
<!-- Node2&#45;&gt;Node120 -->
<g id="edge7" class="edge">
<title>Node2&#45;&gt;Node120</title>
<path fill="none" stroke="midnightblue" d="M1854.88,-177.32C1632.1,-178.59 674.52,-181.03 380.5,-132 377.8,-131.55 374.99,-130.91 372.25,-130.18"/>
<polygon fill="midnightblue" stroke="midnightblue" points="1854.95,-180.82 1864.93,-177.26 1854.91,-173.82 1854.95,-180.82"/>
</g>
<!-- Node127 -->
<g id="node9" class="node">
<title>Node127</title>
<g id="a_node9"><a xlink:href="api_2abi-default_2ipsec__types_8h_source.html" target="_top" xlink:title=" ">
<polygon fill="white" stroke="red" points="390,-112.5 390,-131.5 473,-131.5 473,-112.5 390,-112.5"/>
<text text-anchor="middle" x="431.5" y="-119.5" font-family="Helvetica,sans-Serif" font-size="10.00">ipsec_types.h</text>
</a>
</g>
</g>
<!-- Node2&#45;&gt;Node127 -->
<g id="edge8" class="edge">
<title>Node2&#45;&gt;Node127</title>
<path fill="none" stroke="midnightblue" d="M1854.72,-176.42C1641.19,-173.62 757.65,-160.49 482.5,-132 479.46,-131.69 476.33,-131.3 473.18,-130.86"/>
<polygon fill="midnightblue" stroke="midnightblue" points="1854.91,-179.92 1864.96,-176.55 1855,-172.92 1854.91,-179.92"/>
</g>
<!-- Node134 -->
<g id="node10" class="node">
<title>Node134</title>
<g id="a_node10"><a xlink:href="api_2abi-default_2packet__io__types_8h.html" target="_top" xlink:title=" ">
<polygon fill="white" stroke="red" points="491.5,-112.5 491.5,-131.5 595.5,-131.5 595.5,-112.5 491.5,-112.5"/>
<text text-anchor="middle" x="543.5" y="-119.5" font-family="Helvetica,sans-Serif" font-size="10.00">packet_io_types.h</text>
</a>
</g>
</g>
<!-- Node2&#45;&gt;Node134 -->
<g id="edge9" class="edge">
<title>Node2&#45;&gt;Node134</title>
<path fill="none" stroke="midnightblue" d="M1854.74,-177.26C1685.89,-177.81 1091.87,-176.27 604.5,-132 601.62,-131.74 598.67,-131.43 595.7,-131.09"/>
<polygon fill="midnightblue" stroke="midnightblue" points="1854.8,-180.76 1864.78,-177.23 1854.77,-173.76 1854.8,-180.76"/>
</g>
<!-- Node28 -->
<g id="node11" class="node">
<title>Node28</title>
<g id="a_node11"><a xlink:href="api_2abi-default_2rwlock__recursive_8h.html" target="_top" xlink:title=" ">
<polygon fill="white" stroke="red" points="613.5,-112.5 613.5,-131.5 721.5,-131.5 721.5,-112.5 613.5,-112.5"/>
<text text-anchor="middle" x="667.5" y="-119.5" font-family="Helvetica,sans-Serif" font-size="10.00">rwlock_recursive.h</text>
</a>
</g>
</g>
<!-- Node2&#45;&gt;Node28 -->
<g id="edge10" class="edge">
<title>Node2&#45;&gt;Node28</title>
<path fill="none" stroke="midnightblue" d="M1854.66,-176.94C1696.28,-176.36 1166.26,-171.39 730.5,-132 727.64,-131.74 724.71,-131.44 721.75,-131.11"/>
<polygon fill="midnightblue" stroke="midnightblue" points="1854.98,-180.44 1864.99,-176.97 1855,-173.44 1854.98,-180.44"/>
</g>
<!-- Node141 -->
<g id="node12" class="node">
<title>Node141</title>
<g id="a_node12"><a xlink:href="api_2abi-default_2schedule__types_8h.html" target="_top" xlink:title=" ">
<polygon fill="white" stroke="red" points="740,-112.5 740,-131.5 841,-131.5 841,-112.5 740,-112.5"/>
<text text-anchor="middle" x="790.5" y="-119.5" font-family="Helvetica,sans-Serif" font-size="10.00">schedule_types.h</text>
</a>
</g>
</g>
<!-- Node2&#45;&gt;Node141 -->
<g id="edge11" class="edge">
<title>Node2&#45;&gt;Node141</title>
<path fill="none" stroke="midnightblue" d="M1854.54,-176.76C1706.6,-175.64 1237.08,-169.16 850.5,-132 847.46,-131.71 844.34,-131.37 841.19,-130.99"/>
<polygon fill="midnightblue" stroke="midnightblue" points="1854.61,-180.26 1864.63,-176.84 1854.66,-173.26 1854.61,-180.26"/>
</g>
<!-- Node148 -->
<g id="node13" class="node">
<title>Node148</title>
<g id="a_node13"><a xlink:href="api_2abi-default_2spinlock__recursive_8h.html" target="_top" xlink:title=" ">
<polygon fill="white" stroke="red" points="859.5,-112.5 859.5,-131.5 975.5,-131.5 975.5,-112.5 859.5,-112.5"/>
<text text-anchor="middle" x="917.5" y="-119.5" font-family="Helvetica,sans-Serif" font-size="10.00">spinlock_recursive.h</text>
</a>
</g>
</g>
<!-- Node2&#45;&gt;Node148 -->
<g id="edge12" class="edge">
<title>Node2&#45;&gt;Node148</title>
<path fill="none" stroke="midnightblue" d="M1854.72,-176.1C1719.59,-173.2 1317.1,-162.45 984.5,-132 981.58,-131.73 978.59,-131.43 975.57,-131.11"/>
<polygon fill="midnightblue" stroke="midnightblue" points="1854.66,-179.6 1864.73,-176.31 1854.81,-172.6 1854.66,-179.6"/>
</g>
<!-- Node156 -->
<g id="node14" class="node">
<title>Node156</title>
<g id="a_node14"><a xlink:href="api_2abi-default_2traffic__mngr_8h.html" target="_top" xlink:title=" ">
<polygon fill="white" stroke="red" points="993.5,-112.5 993.5,-131.5 1077.5,-131.5 1077.5,-112.5 993.5,-112.5"/>
<text text-anchor="middle" x="1035.5" y="-119.5" font-family="Helvetica,sans-Serif" font-size="10.00">traffic_mngr.h</text>
</a>
</g>
</g>
<!-- Node2&#45;&gt;Node156 -->
<g id="edge13" class="edge">
<title>Node2&#45;&gt;Node156</title>
<path fill="none" stroke="midnightblue" d="M1854.32,-176.09C1729.48,-173.31 1380.3,-163.14 1091.5,-132 1087,-131.51 1082.3,-130.91 1077.63,-130.25"/>
<polygon fill="midnightblue" stroke="midnightblue" points="1854.58,-179.6 1864.66,-176.31 1854.73,-172.6 1854.58,-179.6"/>
</g>
<!-- Node18 -->
<g id="node15" class="node">
<title>Node18</title>
<g id="a_node15"><a xlink:href="api_2barrier_8h.html" target="_top" xlink:title=" ">
<polygon fill="white" stroke="black" points="1276,-56.5 1276,-75.5 1333,-75.5 1333,-56.5 1276,-56.5"/>
<text text-anchor="middle" x="1304.5" y="-63.5" font-family="Helvetica,sans-Serif" font-size="10.00">barrier.h</text>
</a>
</g>
</g>
<!-- Node2&#45;&gt;Node18 -->
<g id="edge14" class="edge">
<title>Node2&#45;&gt;Node18</title>
<path fill="none" stroke="midnightblue" d="M1854.54,-177.28C1714.09,-177.63 1304.51,-174.93 1264.5,-132 1247.97,-114.26 1275.51,-88.67 1292.56,-75.51"/>
<polygon fill="midnightblue" stroke="midnightblue" points="1854.97,-180.78 1864.96,-177.25 1854.94,-173.78 1854.97,-180.78"/>
</g>
<!-- Node19 -->
<g id="node16" class="node">
<title>Node19</title>
<g id="a_node16"><a xlink:href="odp__api_8h.html" target="_top" xlink:title=" ">
<polygon fill="white" stroke="black" points="1182.5,-0.5 1182.5,-19.5 1246.5,-19.5 1246.5,-0.5 1182.5,-0.5"/>
<text text-anchor="middle" x="1214.5" y="-7.5" font-family="Helvetica,sans-Serif" font-size="10.00">odp_api.h</text>
</a>
</g>
</g>
<!-- Node2&#45;&gt;Node19 -->
<g id="edge55" class="edge">
<title>Node2&#45;&gt;Node19</title>
<path fill="none" stroke="midnightblue" d="M1854.52,-177.55C1721.44,-178.53 1344.21,-177.15 1230.5,-132 1194.11,-117.55 1179.21,-111.41 1162.5,-76 1151.71,-53.13 1179.97,-31.15 1198.94,-19.53"/>
<polygon fill="midnightblue" stroke="midnightblue" points="1854.81,-181.05 1864.78,-177.47 1854.76,-174.05 1854.81,-181.05"/>
</g>
<!-- Node85 -->
<g id="node17" class="node">
<title>Node85</title>
<g id="a_node17"><a xlink:href="api_2classification_8h.html" target="_top" xlink:title=" ">
<polygon fill="white" stroke="red" points="1395,-56.5 1395,-75.5 1484,-75.5 1484,-56.5 1395,-56.5"/>
<text text-anchor="middle" x="1439.5" y="-63.5" font-family="Helvetica,sans-Serif" font-size="10.00">classification.h</text>
</a>
</g>
</g>
<!-- Node2&#45;&gt;Node85 -->
<g id="edge16" class="edge">
<title>Node2&#45;&gt;Node85</title>
<path fill="none" stroke="midnightblue" d="M1854.54,-177.21C1716.06,-177.32 1316.57,-173.99 1277.5,-132 1240.45,-92.18 1335,-76.24 1394.82,-70.28"/>
<polygon fill="midnightblue" stroke="midnightblue" points="1854.83,-180.7 1864.82,-177.19 1854.81,-173.7 1854.83,-180.7"/>
</g>
<!-- Node86 -->
<g id="node18" class="node">
<title>Node86</title>
<g id="a_node18"><a xlink:href="api_2spec_2ipsec__types_8h.html" target="_top" xlink:title=" ">
<polygon fill="white" stroke="red" points="2648,-0.5 2648,-19.5 2731,-19.5 2731,-0.5 2648,-0.5"/>
<text text-anchor="middle" x="2689.5" y="-7.5" font-family="Helvetica,sans-Serif" font-size="10.00">ipsec_types.h</text>
</a>
</g>
</g>
<!-- Node2&#45;&gt;Node86 -->
<g id="edge33" class="edge">
<title>Node2&#45;&gt;Node86</title>
<path fill="none" stroke="midnightblue" d="M1948.09,-176.85C2247.15,-175.82 3885.84,-168.46 3921.5,-132 3927.72,-125.64 3927.52,-118.54 3921.5,-112 3839.11,-22.58 2937.11,-12.33 2731.19,-11.15"/>
<polygon fill="midnightblue" stroke="midnightblue" points="1948.01,-173.36 1938.02,-176.89 1948.03,-180.35 1948.01,-173.36"/>
</g>
<!-- Node163 -->
<g id="node19" class="node">
<title>Node163</title>
<g id="a_node19"><a xlink:href="api_2proto__stats_8h.html" target="_top" xlink:title=" ">
<polygon fill="white" stroke="black" points="1035.5,-56.5 1035.5,-75.5 1115.5,-75.5 1115.5,-56.5 1035.5,-56.5"/>
<text text-anchor="middle" x="1075.5" y="-63.5" font-family="Helvetica,sans-Serif" font-size="10.00">proto_stats.h</text>
</a>
</g>
</g>
<!-- Node2&#45;&gt;Node163 -->
<g id="edge19" class="edge">
<title>Node2&#45;&gt;Node163</title>
<path fill="none" stroke="midnightblue" d="M1854.6,-176.43C1697.2,-174.21 1194.07,-164.63 1129.5,-132 1104.88,-119.56 1087.3,-90.34 1079.7,-75.69"/>
<polygon fill="midnightblue" stroke="midnightblue" points="1854.84,-179.93 1864.89,-176.57 1854.94,-172.93 1854.84,-179.93"/>
</g>
<!-- Node82 -->
<g id="node20" class="node">
<title>Node82</title>
<g id="a_node20"><a xlink:href="api_2spec_2buffer_8h.html" target="_top" xlink:title=" ">
<polygon fill="white" stroke="red" points="1286,-112.5 1286,-131.5 1339,-131.5 1339,-112.5 1286,-112.5"/>
<text text-anchor="middle" x="1312.5" y="-119.5" font-family="Helvetica,sans-Serif" font-size="10.00">buffer.h</text>
</a>
</g>
</g>
<!-- Node2&#45;&gt;Node82 -->
<g id="edge21" class="edge">
<title>Node2&#45;&gt;Node82</title>
<path fill="none" stroke="midnightblue" d="M1854.46,-175.77C1758.66,-172.69 1534.24,-162.56 1348.5,-132 1345.45,-131.5 1342.28,-130.87 1339.13,-130.18"/>
<polygon fill="midnightblue" stroke="midnightblue" points="1854.58,-179.27 1864.69,-176.08 1854.8,-172.28 1854.58,-179.27"/>
</g>
<!-- Node164 -->
<g id="node21" class="node">
<title>Node164</title>
<g id="a_node21"><a xlink:href="spec_2chksum_8h.html" target="_top" xlink:title=" ">
<polygon fill="white" stroke="red" points="1357.5,-112.5 1357.5,-131.5 1421.5,-131.5 1421.5,-112.5 1357.5,-112.5"/>
<text text-anchor="middle" x="1389.5" y="-119.5" font-family="Helvetica,sans-Serif" font-size="10.00">chksum.h</text>
</a>
</g>
</g>
<!-- Node2&#45;&gt;Node164 -->
<g id="edge22" class="edge">
<title>Node2&#45;&gt;Node164</title>
<path fill="none" stroke="midnightblue" d="M1854.68,-174.32C1769.9,-169.06 1585.48,-155.79 1431.5,-132 1428.26,-131.5 1424.89,-130.9 1421.53,-130.26"/>
<polygon fill="midnightblue" stroke="midnightblue" points="1854.56,-177.82 1864.76,-174.93 1854.99,-170.83 1854.56,-177.82"/>
</g>
<!-- Node84 -->
<g id="node22" class="node">
<title>Node84</title>
<g id="a_node22"><a xlink:href="api_2spec_2classification_8h.html" target="_top" xlink:title=" ">
<polygon fill="white" stroke="black" points="1440,-112.5 1440,-131.5 1529,-131.5 1529,-112.5 1440,-112.5"/>
<text text-anchor="middle" x="1484.5" y="-119.5" font-family="Helvetica,sans-Serif" font-size="10.00">classification.h</text>
</a>
</g>
</g>
<!-- Node2&#45;&gt;Node84 -->
<g id="edge23" class="edge">
<title>Node2&#45;&gt;Node84</title>
<path fill="none" stroke="midnightblue" d="M1854.71,-171.83C1785.49,-164.05 1651.77,-148.45 1538.5,-132 1535.49,-131.56 1532.39,-131.09 1529.27,-130.61"/>
<polygon fill="midnightblue" stroke="midnightblue" points="1854.52,-175.33 1864.85,-172.97 1855.3,-168.38 1854.52,-175.33"/>
</g>
<!-- Node74 -->
<g id="node23" class="node">
<title>Node74</title>
<g id="a_node23"><a xlink:href="api_2spec_2comp_8h.html" target="_top" xlink:title=" ">
<polygon fill="white" stroke="red" points="1547,-112.5 1547,-131.5 1600,-131.5 1600,-112.5 1547,-112.5"/>
<text text-anchor="middle" x="1573.5" y="-119.5" font-family="Helvetica,sans-Serif" font-size="10.00">comp.h</text>
</a>
</g>
</g>
<!-- Node2&#45;&gt;Node74 -->
<g id="edge25" class="edge">
<title>Node2&#45;&gt;Node74</title>
<path fill="none" stroke="midnightblue" d="M1854.96,-171.17C1797.14,-163.63 1695.59,-149.36 1609.5,-132 1606.47,-131.39 1603.31,-130.69 1600.17,-129.96"/>
<polygon fill="midnightblue" stroke="midnightblue" points="1854.52,-174.65 1864.89,-172.46 1855.42,-167.7 1854.52,-174.65"/>
</g>
<!-- Node166 -->
<g id="node24" class="node">
<title>Node166</title>
<g id="a_node24"><a xlink:href="api_2spec_2cpu_8h.html" target="_top" xlink:title=" ">
<polygon fill="white" stroke="red" points="1618,-112.5 1618,-131.5 1661,-131.5 1661,-112.5 1618,-112.5"/>
<text text-anchor="middle" x="1639.5" y="-119.5" font-family="Helvetica,sans-Serif" font-size="10.00">cpu.h</text>
</a>
</g>
</g>
<!-- Node2&#45;&gt;Node166 -->
<g id="edge26" class="edge">
<title>Node2&#45;&gt;Node166</title>
<path fill="none" stroke="midnightblue" d="M1854.72,-169.16C1807.87,-161.02 1733.82,-147.33 1670.5,-132 1667.45,-131.26 1664.25,-130.42 1661.11,-129.54"/>
<polygon fill="midnightblue" stroke="midnightblue" points="1854.42,-172.66 1864.87,-170.92 1855.61,-165.77 1854.42,-172.66"/>
</g>
<!-- Node94 -->
<g id="node25" class="node">
<title>Node94</title>
<g id="a_node25"><a xlink:href="api_2spec_2crypto_8h.html" target="_top" xlink:title=" ">
<polygon fill="white" stroke="red" points="1679.5,-112.5 1679.5,-131.5 1735.5,-131.5 1735.5,-112.5 1679.5,-112.5"/>
<text text-anchor="middle" x="1707.5" y="-119.5" font-family="Helvetica,sans-Serif" font-size="10.00">crypto.h</text>
</a>
</g>
</g>
<!-- Node2&#45;&gt;Node94 -->
<g id="edge27" class="edge">
<title>Node2&#45;&gt;Node94</title>
<path fill="none" stroke="midnightblue" d="M1860.66,-165.63C1823.11,-155.18 1768.43,-139.96 1735.58,-130.82"/>
<polygon fill="midnightblue" stroke="midnightblue" points="1860.19,-169.13 1870.76,-168.44 1862.06,-162.39 1860.19,-169.13"/>
</g>
<!-- Node92 -->
<g id="node26" class="node">
<title>Node92</title>
<g id="a_node26"><a xlink:href="api_2spec_2crypto__types_8h.html" target="_top" xlink:title=" ">
<polygon fill="white" stroke="red" points="1754,-112.5 1754,-131.5 1843,-131.5 1843,-112.5 1754,-112.5"/>
<text text-anchor="middle" x="1798.5" y="-119.5" font-family="Helvetica,sans-Serif" font-size="10.00">crypto_types.h</text>
</a>
</g>
</g>
<!-- Node2&#45;&gt;Node92 -->
<g id="edge28" class="edge">
<title>Node2&#45;&gt;Node92</title>
<path fill="none" stroke="midnightblue" d="M1875.92,-163.59C1856.88,-153.61 1831.44,-140.27 1815.01,-131.65"/>
<polygon fill="midnightblue" stroke="midnightblue" points="1874.47,-166.78 1884.95,-168.32 1877.72,-160.58 1874.47,-166.78"/>
</g>
<!-- Node76 -->
<g id="node27" class="node">
<title>Node76</title>
<g id="a_node27"><a xlink:href="api_2spec_2dma__types_8h.html" target="_top" xlink:title=" ">
<polygon fill="white" stroke="red" points="1861.5,-112.5 1861.5,-131.5 1941.5,-131.5 1941.5,-112.5 1861.5,-112.5"/>
<text text-anchor="middle" x="1901.5" y="-119.5" font-family="Helvetica,sans-Serif" font-size="10.00">dma_types.h</text>
</a>
</g>
</g>
<!-- Node2&#45;&gt;Node76 -->
<g id="edge29" class="edge">
<title>Node2&#45;&gt;Node76</title>
<path fill="none" stroke="midnightblue" d="M1901.5,-157.8C1901.5,-148.91 1901.5,-138.78 1901.5,-131.75"/>
<polygon fill="midnightblue" stroke="midnightblue" points="1898,-158.08 1901.5,-168.08 1905,-158.08 1898,-158.08"/>
</g>
<!-- Node168 -->
<g id="node28" class="node">
<title>Node168</title>
<g id="a_node28"><a xlink:href="api_2spec_2hash_8h.html" target="_top" xlink:title=" ">
<polygon fill="white" stroke="red" points="1960,-112.5 1960,-131.5 2009,-131.5 2009,-112.5 1960,-112.5"/>
<text text-anchor="middle" x="1984.5" y="-119.5" font-family="Helvetica,sans-Serif" font-size="10.00">hash.h</text>
</a>
</g>
</g>
<!-- Node2&#45;&gt;Node168 -->
<g id="edge30" class="edge">
<title>Node2&#45;&gt;Node168</title>
<path fill="none" stroke="midnightblue" d="M1923.6,-162.62C1938.76,-152.76 1958.38,-139.99 1971.2,-131.65"/>
<polygon fill="midnightblue" stroke="midnightblue" points="1921.31,-159.94 1914.84,-168.32 1925.13,-165.8 1921.31,-159.94"/>
</g>
<!-- Node116 -->
<g id="node29" class="node">
<title>Node116</title>
<g id="a_node29"><a xlink:href="api_2spec_2init_8h.html" target="_top" xlink:title=" ">
<polygon fill="white" stroke="red" points="2027,-112.5 2027,-131.5 2068,-131.5 2068,-112.5 2027,-112.5"/>
<text text-anchor="middle" x="2047.5" y="-119.5" font-family="Helvetica,sans-Serif" font-size="10.00">init.h</text>
</a>
</g>
</g>
<!-- Node2&#45;&gt;Node116 -->
<g id="edge31" class="edge">
<title>Node2&#45;&gt;Node116</title>
<path fill="none" stroke="midnightblue" d="M1934.12,-164.93C1962.48,-154.44 2002.7,-139.57 2026.83,-130.64"/>
<polygon fill="midnightblue" stroke="midnightblue" points="1932.8,-161.69 1924.63,-168.44 1935.23,-168.26 1932.8,-161.69"/>
</g>
<!-- Node88 -->
<g id="node30" class="node">
<title>Node88</title>
<g id="a_node30"><a xlink:href="api_2spec_2ipsec_8h.html" target="_top" xlink:title=" ">
<polygon fill="white" stroke="red" points="2086,-112.5 2086,-131.5 2137,-131.5 2137,-112.5 2086,-112.5"/>
<text text-anchor="middle" x="2111.5" y="-119.5" font-family="Helvetica,sans-Serif" font-size="10.00">ipsec.h</text>
</a>
</g>
</g>
<!-- Node2&#45;&gt;Node88 -->
<g id="edge32" class="edge">
<title>Node2&#45;&gt;Node88</title>
<path fill="none" stroke="midnightblue" d="M1945.32,-165.9C1980.95,-156.86 2032.5,-143.71 2077.5,-132 2080.22,-131.29 2083.06,-130.55 2085.89,-129.8"/>
<polygon fill="midnightblue" stroke="midnightblue" points="1944.09,-162.61 1935.26,-168.46 1945.82,-169.39 1944.09,-162.61"/>
</g>
<!-- Node96 -->
<g id="node31" class="node">
<title>Node96</title>
<g id="a_node31"><a xlink:href="api_2spec_2packet_8h.html" target="_top" xlink:title=" ">
<polygon fill="white" stroke="red" points="2155.5,-112.5 2155.5,-131.5 2213.5,-131.5 2213.5,-112.5 2155.5,-112.5"/>
<text text-anchor="middle" x="2184.5" y="-119.5" font-family="Helvetica,sans-Serif" font-size="10.00">packet.h</text>
</a>
</g>
</g>
<!-- Node2&#45;&gt;Node96 -->
<g id="edge34" class="edge">
<title>Node2&#45;&gt;Node96</title>
<path fill="none" stroke="midnightblue" d="M1948.2,-169.15C1997.6,-160.68 2077.75,-146.45 2146.5,-132 2149.42,-131.39 2152.46,-130.72 2155.49,-130.03"/>
<polygon fill="midnightblue" stroke="midnightblue" points="1947.41,-165.74 1938.14,-170.87 1948.59,-172.64 1947.41,-165.74"/>
</g>
<!-- Node112 -->
<g id="node32" class="node">
<title>Node112</title>
<g id="a_node32"><a xlink:href="api_2spec_2packet__flags_8h.html" target="_top" xlink:title=" ">
<polygon fill="white" stroke="red" points="2231.5,-112.5 2231.5,-131.5 2317.5,-131.5 2317.5,-112.5 2231.5,-112.5"/>
<text text-anchor="middle" x="2274.5" y="-119.5" font-family="Helvetica,sans-Serif" font-size="10.00">packet_flags.h</text>
</a>
</g>
</g>
<!-- Node2&#45;&gt;Node112 -->
<g id="edge35" class="edge">
<title>Node2&#45;&gt;Node112</title>
<path fill="none" stroke="midnightblue" d="M1948.09,-170.95C2010.61,-162.71 2125.07,-147.26 2222.5,-132 2225.4,-131.55 2228.38,-131.07 2231.39,-130.57"/>
<polygon fill="midnightblue" stroke="midnightblue" points="1947.6,-167.48 1938.14,-172.25 1948.51,-174.42 1947.6,-167.48"/>
</g>
<!-- Node98 -->
<g id="node33" class="node">
<title>Node98</title>
<g id="a_node33"><a xlink:href="api_2spec_2packet__io__types_8h.html" target="_top" xlink:title=" ">
<polygon fill="white" stroke="red" points="2335.5,-112.5 2335.5,-131.5 2439.5,-131.5 2439.5,-112.5 2335.5,-112.5"/>
<text text-anchor="middle" x="2387.5" y="-119.5" font-family="Helvetica,sans-Serif" font-size="10.00">packet_io_types.h</text>
</a>
</g>
</g>
<!-- Node2&#45;&gt;Node98 -->
<g id="edge36" class="edge">
<title>Node2&#45;&gt;Node98</title>
<path fill="none" stroke="midnightblue" d="M1948.26,-172.68C2026.6,-165.3 2189.31,-149.38 2326.5,-132 2329.37,-131.64 2332.31,-131.25 2335.28,-130.85"/>
<polygon fill="midnightblue" stroke="midnightblue" points="1947.86,-169.2 1938.23,-173.62 1948.51,-176.17 1947.86,-169.2"/>
</g>
<!-- Node102 -->
<g id="node34" class="node">
<title>Node102</title>
<g id="a_node34"><a xlink:href="api_2spec_2pool_8h.html" target="_top" xlink:title=" ">
<polygon fill="white" stroke="red" points="2458,-112.5 2458,-131.5 2505,-131.5 2505,-112.5 2458,-112.5"/>
<text text-anchor="middle" x="2481.5" y="-119.5" font-family="Helvetica,sans-Serif" font-size="10.00">pool.h</text>
</a>
</g>
</g>
<!-- Node2&#45;&gt;Node102 -->
<g id="edge37" class="edge">
<title>Node2&#45;&gt;Node102</title>
<path fill="none" stroke="midnightblue" d="M1948.43,-176.04C2043.5,-173.47 2265.33,-164.23 2448.5,-132 2451.54,-131.46 2454.71,-130.78 2457.83,-130.02"/>
<polygon fill="midnightblue" stroke="midnightblue" points="1948.19,-172.55 1938.29,-176.31 1948.37,-179.55 1948.19,-172.55"/>
</g>
<!-- Node80 -->
<g id="node35" class="node">
<title>Node80</title>
<g id="a_node35"><a xlink:href="api_2spec_2pool__types_8h.html" target="_top" xlink:title=" ">
<polygon fill="white" stroke="red" points="2523,-112.5 2523,-131.5 2602,-131.5 2602,-112.5 2523,-112.5"/>
<text text-anchor="middle" x="2562.5" y="-119.5" font-family="Helvetica,sans-Serif" font-size="10.00">pool_types.h</text>
</a>
</g>
</g>
<!-- Node2&#45;&gt;Node80 -->
<g id="edge38" class="edge">
<title>Node2&#45;&gt;Node80</title>
<path fill="none" stroke="midnightblue" d="M1948.32,-175.35C2051.14,-171.35 2304.26,-159.34 2514.5,-132 2517.19,-131.65 2519.96,-131.25 2522.74,-130.81"/>
<polygon fill="midnightblue" stroke="midnightblue" points="1948.12,-171.86 1938.26,-175.74 1948.39,-178.85 1948.12,-171.86"/>
</g>
<!-- Node170 -->
<g id="node36" class="node">
<title>Node170</title>
<g id="a_node36"><a xlink:href="api_2spec_2proto__stats__types_8h.html" target="_top" xlink:title=" ">
<polygon fill="white" stroke="red" points="2620,-112.5 2620,-131.5 2733,-131.5 2733,-112.5 2620,-112.5"/>
<text text-anchor="middle" x="2676.5" y="-119.5" font-family="Helvetica,sans-Serif" font-size="10.00">proto_stats_types.h</text>
</a>
</g>
</g>
<!-- Node2&#45;&gt;Node170 -->
<g id="edge39" class="edge">
<title>Node2&#45;&gt;Node170</title>
<path fill="none" stroke="midnightblue" d="M1948.26,-175.24C2062.01,-170.69 2362.14,-157.13 2611.5,-132 2614.22,-131.73 2617,-131.42 2619.81,-131.1"/>
<polygon fill="midnightblue" stroke="midnightblue" points="1948.01,-171.75 1938.16,-175.64 1948.29,-178.74 1948.01,-171.75"/>
</g>
<!-- Node114 -->
<g id="node37" class="node">
<title>Node114</title>
<g id="a_node37"><a xlink:href="api_2spec_2queue_8h.html" target="_top" xlink:title=" ">
<polygon fill="white" stroke="red" points="2751.5,-112.5 2751.5,-131.5 2807.5,-131.5 2807.5,-112.5 2751.5,-112.5"/>
<text text-anchor="middle" x="2779.5" y="-119.5" font-family="Helvetica,sans-Serif" font-size="10.00">queue.h</text>
</a>
</g>
</g>
<!-- Node2&#45;&gt;Node114 -->
<g id="edge40" class="edge">
<title>Node2&#45;&gt;Node114</title>
<path fill="none" stroke="midnightblue" d="M1948.45,-177.52C2076.52,-178.29 2442.45,-176.13 2742.5,-132 2745.38,-131.58 2748.36,-131.03 2751.32,-130.42"/>
<polygon fill="midnightblue" stroke="midnightblue" points="1948.24,-174.02 1938.22,-177.45 1948.19,-181.02 1948.24,-174.02"/>
</g>
<!-- Node173 -->
<g id="node38" class="node">
<title>Node173</title>
<g id="a_node38"><a xlink:href="api_2spec_2random_8h.html" target="_top" xlink:title=" ">
<polygon fill="white" stroke="red" points="2826,-112.5 2826,-131.5 2889,-131.5 2889,-112.5 2826,-112.5"/>
<text text-anchor="middle" x="2857.5" y="-119.5" font-family="Helvetica,sans-Serif" font-size="10.00">random.h</text>
</a>
</g>
</g>
<!-- Node2&#45;&gt;Node173 -->
<g id="edge41" class="edge">
<title>Node2&#45;&gt;Node173</title>
<path fill="none" stroke="midnightblue" d="M1948.33,-177.45C2083.57,-178.14 2486.16,-176.07 2816.5,-132 2819.53,-131.6 2822.68,-131.08 2825.81,-130.5"/>
<polygon fill="midnightblue" stroke="midnightblue" points="1948.33,-173.95 1938.31,-177.39 1948.29,-180.95 1948.33,-173.95"/>
</g>
<!-- Node175 -->
<g id="node39" class="node">
<title>Node175</title>
<g id="a_node39"><a xlink:href="spec_2random__types_8h.html" target="_top" xlink:title=" ">
<polygon fill="white" stroke="red" points="2907,-112.5 2907,-131.5 3002,-131.5 3002,-112.5 2907,-112.5"/>
<text text-anchor="middle" x="2954.5" y="-119.5" font-family="Helvetica,sans-Serif" font-size="10.00">random_types.h</text>
</a>
</g>
</g>
<!-- Node2&#45;&gt;Node175 -->
<g id="edge42" class="edge">
<title>Node2&#45;&gt;Node175</title>
<path fill="none" stroke="midnightblue" d="M1948.44,-176.78C2091.43,-175.71 2534.03,-169.39 2898.5,-132 2901.24,-131.72 2904.06,-131.39 2906.89,-131.03"/>
<polygon fill="midnightblue" stroke="midnightblue" points="1948.25,-173.28 1938.28,-176.85 1948.3,-180.28 1948.25,-173.28"/>
</g>
<!-- Node177 -->
<g id="node40" class="node">
<title>Node177</title>
<g id="a_node40"><a xlink:href="spec_2reassembly_8h.html" target="_top" xlink:title=" ">
<polygon fill="white" stroke="red" points="3020,-112.5 3020,-131.5 3101,-131.5 3101,-112.5 3020,-112.5"/>
<text text-anchor="middle" x="3060.5" y="-119.5" font-family="Helvetica,sans-Serif" font-size="10.00">reassembly.h</text>
</a>
</g>
</g>
<!-- Node2&#45;&gt;Node177 -->
<g id="edge43" class="edge">
<title>Node2&#45;&gt;Node177</title>
<path fill="none" stroke="midnightblue" d="M1948.49,-177.46C2101.87,-178.46 2601.56,-177.73 3011.5,-132 3014.25,-131.69 3017.08,-131.32 3019.92,-130.91"/>
<polygon fill="midnightblue" stroke="midnightblue" points="1948.08,-173.96 1938.05,-177.39 1948.03,-180.96 1948.08,-173.96"/>
</g>
<!-- Node68 -->
<g id="node41" class="node">
<title>Node68</title>
<g id="a_node41"><a xlink:href="api_2spec_2schedule_8h.html" target="_top" xlink:title=" ">
<polygon fill="white" stroke="red" points="3119,-112.5 3119,-131.5 3188,-131.5 3188,-112.5 3119,-112.5"/>
<text text-anchor="middle" x="3153.5" y="-119.5" font-family="Helvetica,sans-Serif" font-size="10.00">schedule.h</text>
</a>
</g>
</g>
<!-- Node2&#45;&gt;Node68 -->
<g id="edge44" class="edge">
<title>Node2&#45;&gt;Node68</title>
<path fill="none" stroke="midnightblue" d="M1948.1,-176.32C2141.21,-173.34 2879.29,-160.29 3110.5,-132 3113.23,-131.67 3116.03,-131.25 3118.85,-130.78"/>
<polygon fill="midnightblue" stroke="midnightblue" points="1947.95,-172.82 1938,-176.47 1948.06,-179.82 1947.95,-172.82"/>
</g>
<!-- Node70 -->
<g id="node42" class="node">
<title>Node70</title>
<g id="a_node42"><a xlink:href="api_2spec_2schedule__types_8h.html" target="_top" xlink:title=" ">
<polygon fill="white" stroke="red" points="3206,-112.5 3206,-131.5 3307,-131.5 3307,-112.5 3206,-112.5"/>
<text text-anchor="middle" x="3256.5" y="-119.5" font-family="Helvetica,sans-Serif" font-size="10.00">schedule_types.h</text>
</a>
</g>
</g>
<!-- Node2&#45;&gt;Node70 -->
<g id="edge45" class="edge">
<title>Node2&#45;&gt;Node70</title>
<path fill="none" stroke="midnightblue" d="M1948.23,-177.34C2116.98,-178.16 2710.62,-177.43 3197.5,-132 3200.18,-131.75 3202.93,-131.46 3205.7,-131.13"/>
<polygon fill="midnightblue" stroke="midnightblue" points="1948.21,-173.84 1938.19,-177.29 1948.17,-180.84 1948.21,-173.84"/>
</g>
<!-- Node179 -->
<g id="node43" class="node">
<title>Node179</title>
<g id="a_node43"><a xlink:href="api_2spec_2stash__types_8h.html" target="_top" xlink:title=" ">
<polygon fill="white" stroke="red" points="3325.5,-112.5 3325.5,-131.5 3409.5,-131.5 3409.5,-112.5 3325.5,-112.5"/>
<text text-anchor="middle" x="3367.5" y="-119.5" font-family="Helvetica,sans-Serif" font-size="10.00">stash_types.h</text>
</a>
</g>
</g>
<!-- Node2&#45;&gt;Node179 -->
<g id="edge46" class="edge">
<title>Node2&#45;&gt;Node179</title>
<path fill="none" stroke="midnightblue" d="M1948.5,-176.41C2162.04,-173.58 3042.27,-160.41 3316.5,-132 3319.36,-131.7 3322.31,-131.34 3325.26,-130.93"/>
<polygon fill="midnightblue" stroke="midnightblue" points="1948.21,-172.91 1938.26,-176.54 1948.3,-179.91 1948.21,-172.91"/>
</g>
<!-- Node183 -->
<g id="node44" class="node">
<title>Node183</title>
<g id="a_node44"><a xlink:href="api_2spec_2std_8h.html" target="_top" xlink:title=" ">
<polygon fill="white" stroke="red" points="3428,-112.5 3428,-131.5 3469,-131.5 3469,-112.5 3428,-112.5"/>
<text text-anchor="middle" x="3448.5" y="-119.5" font-family="Helvetica,sans-Serif" font-size="10.00">std.h</text>
</a>
</g>
</g>
<!-- Node2&#45;&gt;Node183 -->
<g id="edge47" class="edge">
<title>Node2&#45;&gt;Node183</title>
<path fill="none" stroke="midnightblue" d="M1948.35,-177.26C2171.18,-178.23 3125.18,-179.5 3418.5,-132 3421.51,-131.51 3424.63,-130.81 3427.68,-130.01"/>
<polygon fill="midnightblue" stroke="midnightblue" points="1948.31,-173.76 1938.29,-177.21 1948.28,-180.76 1948.31,-173.76"/>
</g>
<!-- Node185 -->
<g id="node45" class="node">
<title>Node185</title>
<g id="a_node45"><a xlink:href="spec_2threshold_8h.html" target="_top" xlink:title=" ">
<polygon fill="white" stroke="red" points="3487,-112.5 3487,-131.5 3558,-131.5 3558,-112.5 3487,-112.5"/>
<text text-anchor="middle" x="3522.5" y="-119.5" font-family="Helvetica,sans-Serif" font-size="10.00">threshold.h</text>
</a>
</g>
</g>
<!-- Node2&#45;&gt;Node185 -->
<g id="edge48" class="edge">
<title>Node2&#45;&gt;Node185</title>
<path fill="none" stroke="midnightblue" d="M1948.62,-176.76C2177.07,-175.41 3171,-167.56 3478.5,-132 3481.13,-131.7 3483.84,-131.31 3486.56,-130.88"/>
<polygon fill="midnightblue" stroke="midnightblue" points="1948.3,-173.26 1938.32,-176.82 1948.34,-180.26 1948.3,-173.26"/>
</g>
<!-- Node187 -->
<g id="node46" class="node">
<title>Node187</title>
<g id="a_node46"><a xlink:href="api_2spec_2thrmask_8h.html" target="_top" xlink:title=" ">
<polygon fill="white" stroke="red" points="3576.5,-112.5 3576.5,-131.5 3642.5,-131.5 3642.5,-112.5 3576.5,-112.5"/>
<text text-anchor="middle" x="3609.5" y="-119.5" font-family="Helvetica,sans-Serif" font-size="10.00">thrmask.h</text>
</a>
</g>
</g>
<!-- Node2&#45;&gt;Node187 -->
<g id="edge49" class="edge">
<title>Node2&#45;&gt;Node187</title>
<path fill="none" stroke="midnightblue" d="M1948.59,-176.9C2184.74,-176.21 3241.58,-170.98 3567.5,-132 3570.31,-131.66 3573.22,-131.23 3576.12,-130.73"/>
<polygon fill="midnightblue" stroke="midnightblue" points="1948.28,-173.4 1938.29,-176.93 1948.3,-180.4 1948.28,-173.4"/>
</g>
<!-- Node188 -->
<g id="node47" class="node">
<title>Node188</title>
<g id="a_node47"><a xlink:href="api_2spec_2time_8h.html" target="_top" xlink:title=" ">
<polygon fill="white" stroke="red" points="3660.5,-112.5 3660.5,-131.5 3708.5,-131.5 3708.5,-112.5 3660.5,-112.5"/>
<text text-anchor="middle" x="3684.5" y="-119.5" font-family="Helvetica,sans-Serif" font-size="10.00">time.h</text>
</a>
</g>
</g>
<!-- Node2&#45;&gt;Node188 -->
<g id="edge50" class="edge">
<title>Node2&#45;&gt;Node188</title>
<path fill="none" stroke="midnightblue" d="M1948.25,-177.32C2190.95,-178.73 3309.11,-182.34 3651.5,-132 3654.44,-131.57 3657.49,-130.96 3660.49,-130.27"/>
<polygon fill="midnightblue" stroke="midnightblue" points="1948.04,-173.82 1938.02,-177.26 1947.99,-180.81 1948.04,-173.82"/>
</g>
<!-- Node190 -->
<g id="node48" class="node">
<title>Node190</title>
<g id="a_node48"><a xlink:href="api_2spec_2timer__types_8h.html" target="_top" xlink:title=" ">
<polygon fill="white" stroke="red" points="3726.5,-112.5 3726.5,-131.5 3810.5,-131.5 3810.5,-112.5 3726.5,-112.5"/>
<text text-anchor="middle" x="3768.5" y="-119.5" font-family="Helvetica,sans-Serif" font-size="10.00">timer_types.h</text>
</a>
</g>
</g>
<!-- Node2&#45;&gt;Node190 -->
<g id="edge51" class="edge">
<title>Node2&#45;&gt;Node190</title>
<path fill="none" stroke="midnightblue" d="M1948.36,-176.79C2196.51,-175.54 3359.41,-167.83 3717.5,-132 3720.36,-131.71 3723.31,-131.36 3726.27,-130.96"/>
<polygon fill="midnightblue" stroke="midnightblue" points="1948.22,-173.29 1938.23,-176.84 1948.25,-180.29 1948.22,-173.29"/>
</g>
<!-- Node100 -->
<g id="node49" class="node">
<title>Node100</title>
<g id="a_node49"><a xlink:href="api_2spec_2traffic__mngr_8h.html" target="_top" xlink:title=" ">
<polygon fill="white" stroke="red" points="3828.5,-112.5 3828.5,-131.5 3912.5,-131.5 3912.5,-112.5 3828.5,-112.5"/>
<text text-anchor="middle" x="3870.5" y="-119.5" font-family="Helvetica,sans-Serif" font-size="10.00">traffic_mngr.h</text>
</a>
</g>
</g>
<!-- Node2&#45;&gt;Node100 -->
<g id="edge52" class="edge">
<title>Node2&#45;&gt;Node100</title>
<path fill="none" stroke="midnightblue" d="M1948.09,-176.86C2203.89,-175.97 3439.87,-169.73 3819.5,-132 3822.36,-131.72 3825.31,-131.36 3828.27,-130.96"/>
<polygon fill="midnightblue" stroke="midnightblue" points="1948.01,-173.36 1938.02,-176.9 1948.03,-180.36 1948.01,-173.36"/>
</g>
<!-- Node192 -->
<g id="node50" class="node">
<title>Node192</title>
<g id="a_node50"><a xlink:href="system__info_8h.html" target="_top" xlink:title=" ">
<polygon fill="white" stroke="black" points="1171.5,-56.5 1171.5,-75.5 1257.5,-75.5 1257.5,-56.5 1171.5,-56.5"/>
<text text-anchor="middle" x="1214.5" y="-63.5" font-family="Helvetica,sans-Serif" font-size="10.00">system_info.h</text>
</a>
</g>
</g>
<!-- Node2&#45;&gt;Node192 -->
<g id="edge53" class="edge">
<title>Node2&#45;&gt;Node192</title>
<path fill="none" stroke="midnightblue" d="M1854.67,-176.2C1714.6,-173.45 1305.48,-162.86 1254.5,-132 1233.19,-119.1 1221.61,-90.09 1216.96,-75.59"/>
<polygon fill="midnightblue" stroke="midnightblue" points="1854.6,-179.7 1864.67,-176.39 1854.73,-172.7 1854.6,-179.7"/>
</g>
<!-- Node4 -->
<g id="node4" class="node">
<title>Node4</title>
<g id="a_node4"><a xlink:href="arch_2arm32-linux_2odp_2api_2abi_2atomic_8h_source.html" target="_top" xlink:title=" ">
<polygon fill="white" stroke="black" points="0,-56.5 0,-75.5 59,-75.5 59,-56.5 0,-56.5"/>
<text text-anchor="middle" x="29.5" y="-63.5" font-family="Helvetica,sans-Serif" font-size="10.00">atomic.h</text>
</a>
</g>
</g>
<!-- Node3&#45;&gt;Node4 -->
<g id="edge3" class="edge">
<title>Node3&#45;&gt;Node4</title>
<path fill="none" stroke="midnightblue" d="M29.5,-101.8C29.5,-92.91 29.5,-82.78 29.5,-75.75"/>
<polygon fill="midnightblue" stroke="midnightblue" points="26,-102.08 29.5,-112.08 33,-102.08 26,-102.08"/>
</g>
<!-- Node18&#45;&gt;Node19 -->
<g id="edge15" class="edge">
<title>Node18&#45;&gt;Node19</title>
<path fill="none" stroke="midnightblue" d="M1281.46,-51.18C1264.9,-41.24 1243.08,-28.15 1228.92,-19.65"/>
<polygon fill="midnightblue" stroke="midnightblue" points="1279.66,-54.18 1290.04,-56.32 1283.27,-48.18 1279.66,-54.18"/>
</g>
<!-- Node85&#45;&gt;Node19 -->
<g id="edge18" class="edge">
<title>Node85&#45;&gt;Node19</title>
<path fill="none" stroke="midnightblue" d="M1394.04,-54.09C1350.32,-43.6 1285.33,-28 1246.7,-18.73"/>
<polygon fill="midnightblue" stroke="midnightblue" points="1393.31,-57.51 1403.85,-56.44 1394.94,-50.71 1393.31,-57.51"/>
</g>
<!-- Node85&#45;&gt;Node86 -->
<g id="edge17" class="edge">
<title>Node85&#45;&gt;Node86</title>
<path fill="none" stroke="midnightblue" d="M1494.58,-62.62C1705.83,-53.49 2461.65,-20.84 2647.83,-12.8"/>
<polygon fill="midnightblue" stroke="midnightblue" points="1494.2,-59.13 1484.36,-63.06 1494.5,-66.13 1494.2,-59.13"/>
</g>
<!-- Node163&#45;&gt;Node19 -->
<g id="edge20" class="edge">
<title>Node163&#45;&gt;Node19</title>
<path fill="none" stroke="midnightblue" d="M1106.98,-52.77C1133.09,-42.63 1169.54,-28.47 1192.58,-19.52"/>
<polygon fill="midnightblue" stroke="midnightblue" points="1105.58,-49.56 1097.52,-56.44 1108.11,-56.08 1105.58,-49.56"/>
</g>
<!-- Node84&#45;&gt;Node85 -->
<g id="edge24" class="edge">
<title>Node84&#45;&gt;Node85</title>
<path fill="none" stroke="midnightblue" d="M1470.45,-104.14C1462.61,-94.74 1453.17,-83.4 1446.79,-75.75"/>
<polygon fill="midnightblue" stroke="midnightblue" points="1467.98,-106.64 1477.07,-112.08 1473.36,-102.16 1467.98,-106.64"/>
</g>
<!-- Node192&#45;&gt;Node19 -->
<g id="edge54" class="edge">
<title>Node192&#45;&gt;Node19</title>
<path fill="none" stroke="midnightblue" d="M1214.5,-45.8C1214.5,-36.91 1214.5,-26.78 1214.5,-19.75"/>
<polygon fill="midnightblue" stroke="midnightblue" points="1211,-46.08 1214.5,-56.08 1218,-46.08 1211,-46.08"/>
</g>
</g>
</svg>
