<?xml version="1.0" encoding="UTF-8" standalone="no"?>
<!DOCTYPE svg PUBLIC "-//W3C//DTD SVG 1.1//EN"
 "http://www.w3.org/Graphics/SVG/1.1/DTD/svg11.dtd">
<!-- Generated by graphviz version 2.43.0 (0)
 -->
<!-- Title: dma_types.h Pages: 1 -->
<svg width="651pt" height="644pt"
 viewBox="0.00 0.00 651.00 644.00" xmlns="http://www.w3.org/2000/svg" xmlns:xlink="http://www.w3.org/1999/xlink">
<g id="graph0" class="graph" transform="scale(1 1) rotate(0) translate(4 640)">
<title>dma_types.h</title>
<polygon fill="white" stroke="transparent" points="-4,4 -4,-640 647,-640 647,4 -4,4"/>
<!-- Node1 -->
<g id="node1" class="node">
<title>Node1</title>
<g id="a_node1"><a xlink:title=" ">
<polygon fill="#bfbfbf" stroke="black" points="191.5,-616.5 191.5,-635.5 271.5,-635.5 271.5,-616.5 191.5,-616.5"/>
<text text-anchor="middle" x="231.5" y="-623.5" font-family="Helvetica,sans-Serif" font-size="10.00">dma_types.h</text>
</a>
</g>
</g>
<!-- Node2 -->
<g id="node2" class="node">
<title>Node2</title>
<g id="a_node2"><a xlink:href="api_2spec_2dma_8h.html" target="_top" xlink:title=" ">
<polygon fill="white" stroke="black" points="84,-448.5 84,-467.5 131,-467.5 131,-448.5 84,-448.5"/>
<text text-anchor="middle" x="107.5" y="-455.5" font-family="Helvetica,sans-Serif" font-size="10.00">dma.h</text>
</a>
</g>
</g>
<!-- Node1&#45;&gt;Node2 -->
<g id="edge1" class="edge">
<title>Node1&#45;&gt;Node2</title>
<path fill="none" stroke="midnightblue" d="M218.62,-607.76C192.35,-572.59 133.4,-493.68 113.9,-467.57"/>
<polygon fill="midnightblue" stroke="midnightblue" points="216.04,-610.16 224.83,-616.08 221.65,-605.97 216.04,-610.16"/>
</g>
<!-- Node5 -->
<g id="node5" class="node">
<title>Node5</title>
<g id="a_node5"><a xlink:href="api_2spec_2pool__types_8h.html" target="_top" xlink:title=" ">
<polygon fill="white" stroke="black" points="226,-560.5 226,-579.5 305,-579.5 305,-560.5 226,-560.5"/>
<text text-anchor="middle" x="265.5" y="-567.5" font-family="Helvetica,sans-Serif" font-size="10.00">pool_types.h</text>
</a>
</g>
</g>
<!-- Node1&#45;&gt;Node5 -->
<g id="edge4" class="edge">
<title>Node1&#45;&gt;Node5</title>
<path fill="none" stroke="midnightblue" d="M242.48,-607.57C248.33,-598.27 255.27,-587.25 259.99,-579.75"/>
<polygon fill="midnightblue" stroke="midnightblue" points="239.48,-605.76 237.11,-616.08 245.4,-609.49 239.48,-605.76"/>
</g>
<!-- Node3 -->
<g id="node3" class="node">
<title>Node3</title>
<g id="a_node3"><a xlink:href="api_2dma_8h.html" target="_top" xlink:title=" ">
<polygon fill="white" stroke="black" points="0,-112.5 0,-131.5 47,-131.5 47,-112.5 0,-112.5"/>
<text text-anchor="middle" x="23.5" y="-119.5" font-family="Helvetica,sans-Serif" font-size="10.00">dma.h</text>
</a>
</g>
</g>
<!-- Node2&#45;&gt;Node3 -->
<g id="edge2" class="edge">
<title>Node2&#45;&gt;Node3</title>
<path fill="none" stroke="midnightblue" d="M86.19,-442.51C61.31,-423.68 23.5,-388.27 23.5,-347 23.5,-347 23.5,-347 23.5,-233 23.5,-195.19 23.5,-150.06 23.5,-131.56"/>
<polygon fill="midnightblue" stroke="midnightblue" points="84.23,-445.41 94.38,-448.46 88.35,-439.75 84.23,-445.41"/>
</g>
<!-- Node4 -->
<g id="node4" class="node">
<title>Node4</title>
<g id="a_node4"><a xlink:href="odp__api_8h.html" target="_top" xlink:title=" ">
<polygon fill="white" stroke="black" points="332.5,-0.5 332.5,-19.5 396.5,-19.5 396.5,-0.5 332.5,-0.5"/>
<text text-anchor="middle" x="364.5" y="-7.5" font-family="Helvetica,sans-Serif" font-size="10.00">odp_api.h</text>
</a>
</g>
</g>
<!-- Node3&#45;&gt;Node4 -->
<g id="edge3" class="edge">
<title>Node3&#45;&gt;Node4</title>
<path fill="none" stroke="midnightblue" d="M29.33,-102.35C35.05,-87.32 45.29,-66.96 61.5,-56 105.28,-26.4 263.71,-15.64 332.39,-12.3"/>
<polygon fill="midnightblue" stroke="midnightblue" points="25.91,-101.54 25.95,-112.13 32.53,-103.82 25.91,-101.54"/>
</g>
<!-- Node6 -->
<g id="node6" class="node">
<title>Node6</title>
<g id="a_node6"><a xlink:href="api_2pool__types_8h.html" target="_top" xlink:title=" ">
<polygon fill="white" stroke="black" points="315,-504.5 315,-523.5 394,-523.5 394,-504.5 315,-504.5"/>
<text text-anchor="middle" x="354.5" y="-511.5" font-family="Helvetica,sans-Serif" font-size="10.00">pool_types.h</text>
</a>
</g>
</g>
<!-- Node5&#45;&gt;Node6 -->
<g id="edge5" class="edge">
<title>Node5&#45;&gt;Node6</title>
<path fill="none" stroke="midnightblue" d="M288.74,-554.9C305.06,-545 326.37,-532.07 340.24,-523.65"/>
<polygon fill="midnightblue" stroke="midnightblue" points="286.53,-552.14 279.8,-560.32 290.16,-558.13 286.53,-552.14"/>
</g>
<!-- Node6&#45;&gt;Node2 -->
<g id="edge27" class="edge">
<title>Node6&#45;&gt;Node2</title>
<path fill="none" stroke="midnightblue" d="M304.98,-502.64C262.59,-493.69 199.96,-480.31 145.5,-468 140.87,-466.95 135.93,-465.81 131.2,-464.69"/>
<polygon fill="midnightblue" stroke="midnightblue" points="304.26,-506.06 314.77,-504.7 305.71,-499.21 304.26,-506.06"/>
</g>
<!-- Node7 -->
<g id="node7" class="node">
<title>Node7</title>
<g id="a_node7"><a xlink:href="api_2spec_2buffer_8h.html" target="_top" xlink:title=" ">
<polygon fill="white" stroke="black" points="590,-448.5 590,-467.5 643,-467.5 643,-448.5 590,-448.5"/>
<text text-anchor="middle" x="616.5" y="-455.5" font-family="Helvetica,sans-Serif" font-size="10.00">buffer.h</text>
</a>
</g>
</g>
<!-- Node6&#45;&gt;Node7 -->
<g id="edge6" class="edge">
<title>Node6&#45;&gt;Node7</title>
<path fill="none" stroke="midnightblue" d="M404.04,-504.01C450.14,-495.44 520.68,-481.84 581.5,-468 584.19,-467.39 586.99,-466.72 589.78,-466.03"/>
<polygon fill="midnightblue" stroke="midnightblue" points="403.21,-500.6 394.01,-505.86 404.48,-507.48 403.21,-500.6"/>
</g>
<!-- Node9 -->
<g id="node9" class="node">
<title>Node9</title>
<g id="a_node9"><a xlink:href="api_2spec_2classification_8h.html" target="_top" xlink:title=" ">
<polygon fill="white" stroke="black" points="52,-336.5 52,-355.5 141,-355.5 141,-336.5 52,-336.5"/>
<text text-anchor="middle" x="96.5" y="-343.5" font-family="Helvetica,sans-Serif" font-size="10.00">classification.h</text>
</a>
</g>
</g>
<!-- Node6&#45;&gt;Node9 -->
<g id="edge9" class="edge">
<title>Node6&#45;&gt;Node9</title>
<path fill="none" stroke="midnightblue" d="M304.89,-506.88C271.78,-500.97 228.44,-489.6 195.5,-468 148.74,-437.34 113.13,-377.67 101,-355.54"/>
<polygon fill="midnightblue" stroke="midnightblue" points="304.38,-510.34 314.82,-508.54 305.53,-503.44 304.38,-510.34"/>
</g>
<!-- Node17 -->
<g id="node17" class="node">
<title>Node17</title>
<g id="a_node17"><a xlink:href="api_2spec_2crypto__types_8h.html" target="_top" xlink:title=" ">
<polygon fill="white" stroke="black" points="310,-392.5 310,-411.5 399,-411.5 399,-392.5 310,-392.5"/>
<text text-anchor="middle" x="354.5" y="-399.5" font-family="Helvetica,sans-Serif" font-size="10.00">crypto_types.h</text>
</a>
</g>
</g>
<!-- Node6&#45;&gt;Node17 -->
<g id="edge20" class="edge">
<title>Node6&#45;&gt;Node17</title>
<path fill="none" stroke="midnightblue" d="M354.5,-494.35C354.5,-470.25 354.5,-429.31 354.5,-411.59"/>
<polygon fill="midnightblue" stroke="midnightblue" points="351,-494.37 354.5,-504.37 358,-494.37 351,-494.37"/>
</g>
<!-- Node21 -->
<g id="node21" class="node">
<title>Node21</title>
<g id="a_node21"><a xlink:href="api_2spec_2packet_8h.html" target="_top" xlink:title=" ">
<polygon fill="white" stroke="black" points="398.5,-336.5 398.5,-355.5 456.5,-355.5 456.5,-336.5 398.5,-336.5"/>
<text text-anchor="middle" x="427.5" y="-343.5" font-family="Helvetica,sans-Serif" font-size="10.00">packet.h</text>
</a>
</g>
</g>
<!-- Node6&#45;&gt;Node21 -->
<g id="edge28" class="edge">
<title>Node6&#45;&gt;Node21</title>
<path fill="none" stroke="midnightblue" d="M365.21,-495.64C377.03,-475.94 396.02,-442.55 408.5,-412 416.5,-392.41 422.64,-368.23 425.59,-355.6"/>
<polygon fill="midnightblue" stroke="midnightblue" points="362.1,-494.02 359.9,-504.38 368.09,-497.65 362.1,-494.02"/>
</g>
<!-- Node23 -->
<g id="node23" class="node">
<title>Node23</title>
<g id="a_node23"><a xlink:href="api_2spec_2packet__io__types_8h.html" target="_top" xlink:title=" ">
<polygon fill="white" stroke="black" points="204.5,-448.5 204.5,-467.5 308.5,-467.5 308.5,-448.5 204.5,-448.5"/>
<text text-anchor="middle" x="256.5" y="-455.5" font-family="Helvetica,sans-Serif" font-size="10.00">packet_io_types.h</text>
</a>
</g>
</g>
<!-- Node6&#45;&gt;Node23 -->
<g id="edge31" class="edge">
<title>Node6&#45;&gt;Node23</title>
<path fill="none" stroke="midnightblue" d="M329.91,-499.45C311.82,-489.48 287.77,-476.23 272.21,-467.65"/>
<polygon fill="midnightblue" stroke="midnightblue" points="328.31,-502.56 338.75,-504.32 331.69,-496.43 328.31,-502.56"/>
</g>
<!-- Node27 -->
<g id="node27" class="node">
<title>Node27</title>
<g id="a_node27"><a xlink:href="api_2spec_2pool_8h.html" target="_top" xlink:title=" ">
<polygon fill="white" stroke="black" points="456,-448.5 456,-467.5 503,-467.5 503,-448.5 456,-448.5"/>
<text text-anchor="middle" x="479.5" y="-455.5" font-family="Helvetica,sans-Serif" font-size="10.00">pool.h</text>
</a>
</g>
</g>
<!-- Node6&#45;&gt;Node27 -->
<g id="edge41" class="edge">
<title>Node6&#45;&gt;Node27</title>
<path fill="none" stroke="midnightblue" d="M383.74,-500.37C407.15,-490.26 439.34,-476.35 459.79,-467.52"/>
<polygon fill="midnightblue" stroke="midnightblue" points="382.1,-497.26 374.31,-504.44 384.87,-503.69 382.1,-497.26"/>
</g>
<!-- Node29 -->
<g id="node29" class="node">
<title>Node29</title>
<g id="a_node29"><a xlink:href="api_2spec_2timer_8h.html" target="_top" xlink:title=" ">
<polygon fill="white" stroke="black" points="521,-448.5 521,-467.5 572,-467.5 572,-448.5 521,-448.5"/>
<text text-anchor="middle" x="546.5" y="-455.5" font-family="Helvetica,sans-Serif" font-size="10.00">timer.h</text>
</a>
</g>
</g>
<!-- Node6&#45;&gt;Node29 -->
<g id="edge44" class="edge">
<title>Node6&#45;&gt;Node29</title>
<path fill="none" stroke="midnightblue" d="M394.65,-501.71C432.63,-491.02 488.51,-475.31 520.83,-466.22"/>
<polygon fill="midnightblue" stroke="midnightblue" points="393.6,-498.37 384.92,-504.44 395.5,-505.11 393.6,-498.37"/>
</g>
<!-- Node8 -->
<g id="node8" class="node">
<title>Node8</title>
<g id="a_node8"><a xlink:href="api_2buffer_8h.html" target="_top" xlink:title=" ">
<polygon fill="white" stroke="black" points="587,-56.5 587,-75.5 640,-75.5 640,-56.5 587,-56.5"/>
<text text-anchor="middle" x="613.5" y="-63.5" font-family="Helvetica,sans-Serif" font-size="10.00">buffer.h</text>
</a>
</g>
</g>
<!-- Node7&#45;&gt;Node8 -->
<g id="edge7" class="edge">
<title>Node7&#45;&gt;Node8</title>
<path fill="none" stroke="midnightblue" d="M616.23,-438.25C615.93,-416.36 615.5,-379.05 615.5,-347 615.5,-347 615.5,-347 615.5,-177 615.5,-139.18 614.3,-94.06 613.76,-75.56"/>
<polygon fill="midnightblue" stroke="midnightblue" points="612.73,-438.49 616.37,-448.44 619.73,-438.39 612.73,-438.49"/>
</g>
<!-- Node8&#45;&gt;Node4 -->
<g id="edge8" class="edge">
<title>Node8&#45;&gt;Node4</title>
<path fill="none" stroke="midnightblue" d="M577.07,-57.1C528.48,-46.56 443.23,-28.07 396.82,-18.01"/>
<polygon fill="midnightblue" stroke="midnightblue" points="576.34,-60.52 586.85,-59.22 577.82,-53.68 576.34,-60.52"/>
</g>
<!-- Node10 -->
<g id="node10" class="node">
<title>Node10</title>
<g id="a_node10"><a xlink:href="api_2classification_8h.html" target="_top" xlink:title=" ">
<polygon fill="white" stroke="black" points="52,-280.5 52,-299.5 141,-299.5 141,-280.5 52,-280.5"/>
<text text-anchor="middle" x="96.5" y="-287.5" font-family="Helvetica,sans-Serif" font-size="10.00">classification.h</text>
</a>
</g>
</g>
<!-- Node9&#45;&gt;Node10 -->
<g id="edge10" class="edge">
<title>Node9&#45;&gt;Node10</title>
<path fill="none" stroke="midnightblue" d="M96.5,-325.8C96.5,-316.91 96.5,-306.78 96.5,-299.75"/>
<polygon fill="midnightblue" stroke="midnightblue" points="93,-326.08 96.5,-336.08 100,-326.08 93,-326.08"/>
</g>
<!-- Node10&#45;&gt;Node4 -->
<g id="edge19" class="edge">
<title>Node10&#45;&gt;Node4</title>
<path fill="none" stroke="midnightblue" d="M90.73,-270.43C84.52,-248.72 75.5,-211.62 75.5,-179 75.5,-179 75.5,-179 75.5,-121 75.5,-66.51 257.22,-29.27 332.47,-16.19"/>
<polygon fill="midnightblue" stroke="midnightblue" points="87.46,-271.68 93.67,-280.27 94.17,-269.68 87.46,-271.68"/>
</g>
<!-- Node11 -->
<g id="node11" class="node">
<title>Node11</title>
<g id="a_node11"><a xlink:href="api_2spec_2ipsec__types_8h.html" target="_top" xlink:title=" ">
<polygon fill="white" stroke="black" points="232,-224.5 232,-243.5 315,-243.5 315,-224.5 232,-224.5"/>
<text text-anchor="middle" x="273.5" y="-231.5" font-family="Helvetica,sans-Serif" font-size="10.00">ipsec_types.h</text>
</a>
</g>
</g>
<!-- Node10&#45;&gt;Node11 -->
<g id="edge11" class="edge">
<title>Node10&#45;&gt;Node11</title>
<path fill="none" stroke="midnightblue" d="M134.4,-277.44C167.78,-267.26 215.6,-252.66 245.59,-243.52"/>
<polygon fill="midnightblue" stroke="midnightblue" points="133.09,-274.18 124.55,-280.44 135.13,-280.87 133.09,-274.18"/>
</g>
<!-- Node15 -->
<g id="node15" class="node">
<title>Node15</title>
<g id="a_node15"><a xlink:href="api_2spec_2packet__io_8h.html" target="_top" xlink:title=" ">
<polygon fill="white" stroke="black" points="103.5,-224.5 103.5,-243.5 175.5,-243.5 175.5,-224.5 103.5,-224.5"/>
<text text-anchor="middle" x="139.5" y="-231.5" font-family="Helvetica,sans-Serif" font-size="10.00">packet_io.h</text>
</a>
</g>
</g>
<!-- Node10&#45;&gt;Node15 -->
<g id="edge16" class="edge">
<title>Node10&#45;&gt;Node15</title>
<path fill="none" stroke="midnightblue" d="M109.92,-272.14C117.41,-262.74 126.44,-251.4 132.53,-243.75"/>
<polygon fill="midnightblue" stroke="midnightblue" points="107.09,-270.08 103.6,-280.08 112.57,-274.44 107.09,-270.08"/>
</g>
<!-- Node12 -->
<g id="node12" class="node">
<title>Node12</title>
<g id="a_node12"><a xlink:href="api_2ipsec__types_8h.html" target="_top" xlink:title=" ">
<polygon fill="white" stroke="black" points="232,-168.5 232,-187.5 315,-187.5 315,-168.5 232,-168.5"/>
<text text-anchor="middle" x="273.5" y="-175.5" font-family="Helvetica,sans-Serif" font-size="10.00">ipsec_types.h</text>
</a>
</g>
</g>
<!-- Node11&#45;&gt;Node12 -->
<g id="edge12" class="edge">
<title>Node11&#45;&gt;Node12</title>
<path fill="none" stroke="midnightblue" d="M273.5,-213.8C273.5,-204.91 273.5,-194.78 273.5,-187.75"/>
<polygon fill="midnightblue" stroke="midnightblue" points="270,-214.08 273.5,-224.08 277,-214.08 270,-214.08"/>
</g>
<!-- Node13 -->
<g id="node13" class="node">
<title>Node13</title>
<g id="a_node13"><a xlink:href="api_2spec_2ipsec_8h.html" target="_top" xlink:title=" ">
<polygon fill="white" stroke="black" points="312,-112.5 312,-131.5 363,-131.5 363,-112.5 312,-112.5"/>
<text text-anchor="middle" x="337.5" y="-119.5" font-family="Helvetica,sans-Serif" font-size="10.00">ipsec.h</text>
</a>
</g>
</g>
<!-- Node12&#45;&gt;Node13 -->
<g id="edge13" class="edge">
<title>Node12&#45;&gt;Node13</title>
<path fill="none" stroke="midnightblue" d="M291.49,-161.82C302.96,-152.15 317.41,-139.95 327.03,-131.83"/>
<polygon fill="midnightblue" stroke="midnightblue" points="289.17,-159.2 283.78,-168.32 293.68,-164.55 289.17,-159.2"/>
</g>
<!-- Node14 -->
<g id="node14" class="node">
<title>Node14</title>
<g id="a_node14"><a xlink:href="api_2ipsec_8h.html" target="_top" xlink:title=" ">
<polygon fill="white" stroke="black" points="312,-56.5 312,-75.5 363,-75.5 363,-56.5 312,-56.5"/>
<text text-anchor="middle" x="337.5" y="-63.5" font-family="Helvetica,sans-Serif" font-size="10.00">ipsec.h</text>
</a>
</g>
</g>
<!-- Node13&#45;&gt;Node14 -->
<g id="edge14" class="edge">
<title>Node13&#45;&gt;Node14</title>
<path fill="none" stroke="midnightblue" d="M337.5,-101.8C337.5,-92.91 337.5,-82.78 337.5,-75.75"/>
<polygon fill="midnightblue" stroke="midnightblue" points="334,-102.08 337.5,-112.08 341,-102.08 334,-102.08"/>
</g>
<!-- Node14&#45;&gt;Node4 -->
<g id="edge15" class="edge">
<title>Node14&#45;&gt;Node4</title>
<path fill="none" stroke="midnightblue" d="M346.51,-46.98C351.09,-37.82 356.45,-27.09 360.12,-19.75"/>
<polygon fill="midnightblue" stroke="midnightblue" points="343.3,-45.57 341.96,-56.08 349.56,-48.7 343.3,-45.57"/>
</g>
<!-- Node16 -->
<g id="node16" class="node">
<title>Node16</title>
<g id="a_node16"><a xlink:href="api_2packet__io_8h.html" target="_top" xlink:title=" ">
<polygon fill="white" stroke="black" points="103.5,-168.5 103.5,-187.5 175.5,-187.5 175.5,-168.5 103.5,-168.5"/>
<text text-anchor="middle" x="139.5" y="-175.5" font-family="Helvetica,sans-Serif" font-size="10.00">packet_io.h</text>
</a>
</g>
</g>
<!-- Node15&#45;&gt;Node16 -->
<g id="edge17" class="edge">
<title>Node15&#45;&gt;Node16</title>
<path fill="none" stroke="midnightblue" d="M139.5,-213.8C139.5,-204.91 139.5,-194.78 139.5,-187.75"/>
<polygon fill="midnightblue" stroke="midnightblue" points="136,-214.08 139.5,-224.08 143,-214.08 136,-214.08"/>
</g>
<!-- Node16&#45;&gt;Node4 -->
<g id="edge18" class="edge">
<title>Node16&#45;&gt;Node4</title>
<path fill="none" stroke="midnightblue" d="M141.92,-158.54C146.41,-131.89 158.57,-82.87 189.5,-56 229.88,-20.92 294.1,-12.61 332.49,-10.97"/>
<polygon fill="midnightblue" stroke="midnightblue" points="138.45,-158.06 140.43,-168.47 145.37,-159.1 138.45,-158.06"/>
</g>
<!-- Node18 -->
<g id="node18" class="node">
<title>Node18</title>
<g id="a_node18"><a xlink:href="api_2crypto__types_8h.html" target="_top" xlink:title=" ">
<polygon fill="white" stroke="black" points="338,-280.5 338,-299.5 427,-299.5 427,-280.5 338,-280.5"/>
<text text-anchor="middle" x="382.5" y="-287.5" font-family="Helvetica,sans-Serif" font-size="10.00">crypto_types.h</text>
</a>
</g>
</g>
<!-- Node17&#45;&gt;Node18 -->
<g id="edge21" class="edge">
<title>Node17&#45;&gt;Node18</title>
<path fill="none" stroke="midnightblue" d="M359.16,-382.67C365.29,-358.62 375.78,-317.39 380.31,-299.59"/>
<polygon fill="midnightblue" stroke="midnightblue" points="355.77,-381.81 356.7,-392.37 362.56,-383.54 355.77,-381.81"/>
</g>
<!-- Node18&#45;&gt;Node11 -->
<g id="edge26" class="edge">
<title>Node18&#45;&gt;Node11</title>
<path fill="none" stroke="midnightblue" d="M355.98,-275.86C335.77,-265.85 308.51,-252.35 290.97,-243.65"/>
<polygon fill="midnightblue" stroke="midnightblue" points="354.47,-279.02 364.99,-280.32 357.58,-272.75 354.47,-279.02"/>
</g>
<!-- Node18&#45;&gt;Node13 -->
<g id="edge25" class="edge">
<title>Node18&#45;&gt;Node13</title>
<path fill="none" stroke="midnightblue" d="M373.47,-271.06C369.66,-262.96 365.44,-253.16 362.5,-244 349.31,-202.95 341.42,-151.77 338.64,-131.67"/>
<polygon fill="midnightblue" stroke="midnightblue" points="370.42,-272.79 377.94,-280.26 376.71,-269.73 370.42,-272.79"/>
</g>
<!-- Node19 -->
<g id="node19" class="node">
<title>Node19</title>
<g id="a_node19"><a xlink:href="api_2spec_2crypto_8h.html" target="_top" xlink:title=" ">
<polygon fill="white" stroke="black" points="371.5,-224.5 371.5,-243.5 427.5,-243.5 427.5,-224.5 371.5,-224.5"/>
<text text-anchor="middle" x="399.5" y="-231.5" font-family="Helvetica,sans-Serif" font-size="10.00">crypto.h</text>
</a>
</g>
</g>
<!-- Node18&#45;&gt;Node19 -->
<g id="edge22" class="edge">
<title>Node18&#45;&gt;Node19</title>
<path fill="none" stroke="midnightblue" d="M388.36,-270.4C391.2,-261.36 394.48,-250.94 396.75,-243.75"/>
<polygon fill="midnightblue" stroke="midnightblue" points="384.97,-269.49 385.31,-280.08 391.65,-271.6 384.97,-269.49"/>
</g>
<!-- Node20 -->
<g id="node20" class="node">
<title>Node20</title>
<g id="a_node20"><a xlink:href="api_2crypto_8h.html" target="_top" xlink:title=" ">
<polygon fill="white" stroke="black" points="371.5,-168.5 371.5,-187.5 427.5,-187.5 427.5,-168.5 371.5,-168.5"/>
<text text-anchor="middle" x="399.5" y="-175.5" font-family="Helvetica,sans-Serif" font-size="10.00">crypto.h</text>
</a>
</g>
</g>
<!-- Node19&#45;&gt;Node20 -->
<g id="edge23" class="edge">
<title>Node19&#45;&gt;Node20</title>
<path fill="none" stroke="midnightblue" d="M399.5,-213.8C399.5,-204.91 399.5,-194.78 399.5,-187.75"/>
<polygon fill="midnightblue" stroke="midnightblue" points="396,-214.08 399.5,-224.08 403,-214.08 396,-214.08"/>
</g>
<!-- Node20&#45;&gt;Node4 -->
<g id="edge24" class="edge">
<title>Node20&#45;&gt;Node4</title>
<path fill="none" stroke="midnightblue" d="M395.48,-157.93C387.89,-121.92 371.72,-45.23 366.31,-19.57"/>
<polygon fill="midnightblue" stroke="midnightblue" points="392.13,-159.01 397.62,-168.08 398.98,-157.57 392.13,-159.01"/>
</g>
<!-- Node22 -->
<g id="node22" class="node">
<title>Node22</title>
<g id="a_node22"><a xlink:href="api_2packet_8h.html" target="_top" xlink:title=" ">
<polygon fill="white" stroke="black" points="419.5,-56.5 419.5,-75.5 477.5,-75.5 477.5,-56.5 419.5,-56.5"/>
<text text-anchor="middle" x="448.5" y="-63.5" font-family="Helvetica,sans-Serif" font-size="10.00">packet.h</text>
</a>
</g>
</g>
<!-- Node21&#45;&gt;Node22 -->
<g id="edge29" class="edge">
<title>Node21&#45;&gt;Node22</title>
<path fill="none" stroke="midnightblue" d="M431.82,-326.57C433.55,-318.47 435.4,-308.8 436.5,-300 447.41,-212.78 448.45,-106.01 448.51,-75.5"/>
<polygon fill="midnightblue" stroke="midnightblue" points="428.38,-325.91 429.6,-336.43 435.21,-327.44 428.38,-325.91"/>
</g>
<!-- Node22&#45;&gt;Node4 -->
<g id="edge30" class="edge">
<title>Node22&#45;&gt;Node4</title>
<path fill="none" stroke="midnightblue" d="M426.57,-50.9C411.16,-41 391.05,-28.07 377.96,-19.65"/>
<polygon fill="midnightblue" stroke="midnightblue" points="424.7,-53.86 435,-56.32 428.48,-47.97 424.7,-53.86"/>
</g>
<!-- Node24 -->
<g id="node24" class="node">
<title>Node24</title>
<g id="a_node24"><a xlink:href="api_2packet__io__types_8h.html" target="_top" xlink:title=" ">
<polygon fill="white" stroke="black" points="187.5,-392.5 187.5,-411.5 291.5,-411.5 291.5,-392.5 187.5,-392.5"/>
<text text-anchor="middle" x="239.5" y="-399.5" font-family="Helvetica,sans-Serif" font-size="10.00">packet_io_types.h</text>
</a>
</g>
</g>
<!-- Node23&#45;&gt;Node24 -->
<g id="edge32" class="edge">
<title>Node23&#45;&gt;Node24</title>
<path fill="none" stroke="midnightblue" d="M250.64,-438.4C247.8,-429.36 244.52,-418.94 242.25,-411.75"/>
<polygon fill="midnightblue" stroke="midnightblue" points="247.35,-439.6 253.69,-448.08 254.03,-437.49 247.35,-439.6"/>
</g>
<!-- Node24&#45;&gt;Node9 -->
<g id="edge33" class="edge">
<title>Node24&#45;&gt;Node9</title>
<path fill="none" stroke="midnightblue" d="M207.47,-388.91C180.59,-378.75 142.86,-364.51 119.05,-355.52"/>
<polygon fill="midnightblue" stroke="midnightblue" points="206.25,-392.19 216.84,-392.44 208.72,-385.64 206.25,-392.19"/>
</g>
<!-- Node24&#45;&gt;Node11 -->
<g id="edge34" class="edge">
<title>Node24&#45;&gt;Node11</title>
<path fill="none" stroke="midnightblue" d="M263.62,-386.47C273.94,-378.83 284.88,-368.44 290.5,-356 308.13,-316.94 287.35,-264.19 277.8,-243.67"/>
<polygon fill="midnightblue" stroke="midnightblue" points="261.49,-383.69 255.23,-392.24 265.46,-389.46 261.49,-383.69"/>
</g>
<!-- Node24&#45;&gt;Node15 -->
<g id="edge36" class="edge">
<title>Node24&#45;&gt;Node15</title>
<path fill="none" stroke="midnightblue" d="M218.63,-386.25C208.47,-378.23 196.71,-367.59 188.5,-356 161.91,-318.46 146.68,-264.37 141.51,-243.58"/>
<polygon fill="midnightblue" stroke="midnightblue" points="216.58,-389.09 226.67,-392.33 220.8,-383.5 216.58,-389.09"/>
</g>
<!-- Node24&#45;&gt;Node21 -->
<g id="edge35" class="edge">
<title>Node24&#45;&gt;Node21</title>
<path fill="none" stroke="midnightblue" d="M278.9,-389.68C314.61,-379.43 366.41,-364.55 398.47,-355.34"/>
<polygon fill="midnightblue" stroke="midnightblue" points="277.93,-386.32 269.29,-392.44 279.87,-393.05 277.93,-386.32"/>
</g>
<!-- Node25 -->
<g id="node25" class="node">
<title>Node25</title>
<g id="a_node25"><a xlink:href="api_2spec_2traffic__mngr_8h.html" target="_top" xlink:title=" ">
<polygon fill="white" stroke="black" points="197.5,-336.5 197.5,-355.5 281.5,-355.5 281.5,-336.5 197.5,-336.5"/>
<text text-anchor="middle" x="239.5" y="-343.5" font-family="Helvetica,sans-Serif" font-size="10.00">traffic_mngr.h</text>
</a>
</g>
</g>
<!-- Node24&#45;&gt;Node25 -->
<g id="edge37" class="edge">
<title>Node24&#45;&gt;Node25</title>
<path fill="none" stroke="midnightblue" d="M239.5,-381.8C239.5,-372.91 239.5,-362.78 239.5,-355.75"/>
<polygon fill="midnightblue" stroke="midnightblue" points="236,-382.08 239.5,-392.08 243,-382.08 236,-382.08"/>
</g>
<!-- Node26 -->
<g id="node26" class="node">
<title>Node26</title>
<g id="a_node26"><a xlink:href="api_2traffic__mngr_8h.html" target="_top" xlink:title=" ">
<polygon fill="white" stroke="black" points="197.5,-280.5 197.5,-299.5 281.5,-299.5 281.5,-280.5 197.5,-280.5"/>
<text text-anchor="middle" x="239.5" y="-287.5" font-family="Helvetica,sans-Serif" font-size="10.00">traffic_mngr.h</text>
</a>
</g>
</g>
<!-- Node25&#45;&gt;Node26 -->
<g id="edge38" class="edge">
<title>Node25&#45;&gt;Node26</title>
<path fill="none" stroke="midnightblue" d="M239.5,-325.8C239.5,-316.91 239.5,-306.78 239.5,-299.75"/>
<polygon fill="midnightblue" stroke="midnightblue" points="236,-326.08 239.5,-336.08 243,-326.08 236,-326.08"/>
</g>
<!-- Node26&#45;&gt;Node4 -->
<g id="edge40" class="edge">
<title>Node26&#45;&gt;Node4</title>
<path fill="none" stroke="midnightblue" d="M229.91,-271.4C219.24,-250.15 203.5,-213.02 203.5,-179 203.5,-179 203.5,-179 203.5,-121 203.5,-59.22 285.32,-29.62 332.31,-17.72"/>
<polygon fill="midnightblue" stroke="midnightblue" points="226.91,-273.23 234.64,-280.47 233.12,-269.99 226.91,-273.23"/>
</g>
<!-- Node26&#45;&gt;Node11 -->
<g id="edge39" class="edge">
<title>Node26&#45;&gt;Node11</title>
<path fill="none" stroke="midnightblue" d="M250.48,-271.57C256.33,-262.27 263.27,-251.25 267.99,-243.75"/>
<polygon fill="midnightblue" stroke="midnightblue" points="247.48,-269.76 245.11,-280.08 253.4,-273.49 247.48,-269.76"/>
</g>
<!-- Node28 -->
<g id="node28" class="node">
<title>Node28</title>
<g id="a_node28"><a xlink:href="api_2pool_8h.html" target="_top" xlink:title=" ">
<polygon fill="white" stroke="black" points="482,-112.5 482,-131.5 529,-131.5 529,-112.5 482,-112.5"/>
<text text-anchor="middle" x="505.5" y="-119.5" font-family="Helvetica,sans-Serif" font-size="10.00">pool.h</text>
</a>
</g>
</g>
<!-- Node27&#45;&gt;Node28 -->
<g id="edge42" class="edge">
<title>Node27&#45;&gt;Node28</title>
<path fill="none" stroke="midnightblue" d="M484.17,-438.36C489.2,-416.58 496.5,-379.42 496.5,-347 496.5,-347 496.5,-347 496.5,-233 496.5,-195.06 501.88,-150.01 504.32,-131.54"/>
<polygon fill="midnightblue" stroke="midnightblue" points="480.73,-437.69 481.79,-448.23 487.53,-439.33 480.73,-437.69"/>
</g>
<!-- Node28&#45;&gt;Node4 -->
<g id="edge43" class="edge">
<title>Node28&#45;&gt;Node4</title>
<path fill="none" stroke="midnightblue" d="M504.45,-102.02C502.69,-87.71 498.15,-68.48 486.5,-56 463.01,-30.83 424.21,-19.68 396.68,-14.78"/>
<polygon fill="midnightblue" stroke="midnightblue" points="500.98,-102.56 505.34,-112.22 507.96,-101.95 500.98,-102.56"/>
</g>
<!-- Node30 -->
<g id="node30" class="node">
<title>Node30</title>
<g id="a_node30"><a xlink:href="api_2timer_8h.html" target="_top" xlink:title=" ">
<polygon fill="white" stroke="black" points="531,-392.5 531,-411.5 582,-411.5 582,-392.5 531,-392.5"/>
<text text-anchor="middle" x="556.5" y="-399.5" font-family="Helvetica,sans-Serif" font-size="10.00">timer.h</text>
</a>
</g>
</g>
<!-- Node29&#45;&gt;Node30 -->
<g id="edge45" class="edge">
<title>Node29&#45;&gt;Node30</title>
<path fill="none" stroke="midnightblue" d="M550,-438.1C551.66,-429.14 553.56,-418.86 554.88,-411.75"/>
<polygon fill="midnightblue" stroke="midnightblue" points="546.53,-437.61 548.15,-448.08 553.41,-438.89 546.53,-437.61"/>
</g>
<!-- Node30&#45;&gt;Node4 -->
<g id="edge46" class="edge">
<title>Node30&#45;&gt;Node4</title>
<path fill="none" stroke="midnightblue" d="M556.77,-382.25C557.07,-360.36 557.5,-323.05 557.5,-291 557.5,-291 557.5,-291 557.5,-121 557.5,-47.92 451.75,-22.76 396.8,-14.62"/>
<polygon fill="midnightblue" stroke="midnightblue" points="553.27,-382.39 556.63,-392.44 560.27,-382.49 553.27,-382.39"/>
</g>
</g>
</svg>
