<?xml version="1.0" encoding="UTF-8" standalone="no"?>
<!DOCTYPE svg PUBLIC "-//W3C//DTD SVG 1.1//EN"
 "http://www.w3.org/Graphics/SVG/1.1/DTD/svg11.dtd">
<!-- Generated by graphviz version 2.43.0 (0)
 -->
<!-- Title: cpumask.h Pages: 1 -->
<svg width="1147pt" height="1148pt"
 viewBox="0.00 0.00 1147.00 1148.00" xmlns="http://www.w3.org/2000/svg" xmlns:xlink="http://www.w3.org/1999/xlink">
<g id="graph0" class="graph" transform="scale(1 1) rotate(0) translate(4 1144)">
<title>cpumask.h</title>
<polygon fill="white" stroke="transparent" points="-4,4 -4,-1144 1143,-1144 1143,4 -4,4"/>
<!-- Node1 -->
<g id="node1" class="node">
<title>Node1</title>
<g id="a_node1"><a xlink:title=" ">
<polygon fill="#bfbfbf" stroke="black" points="934,-1120.5 934,-1139.5 1004,-1139.5 1004,-1120.5 934,-1120.5"/>
<text text-anchor="middle" x="969" y="-1127.5" font-family="Helvetica,sans-Serif" font-size="10.00">cpumask.h</text>
</a>
</g>
</g>
<!-- Node2 -->
<g id="node2" class="node">
<title>Node2</title>
<g id="a_node2"><a xlink:href="api_2abi-default_2thrmask_8h.html" target="_top" xlink:title=" ">
<polygon fill="white" stroke="black" points="430,-1064.5 430,-1083.5 496,-1083.5 496,-1064.5 430,-1064.5"/>
<text text-anchor="middle" x="463" y="-1071.5" font-family="Helvetica,sans-Serif" font-size="10.00">thrmask.h</text>
</a>
</g>
</g>
<!-- Node1&#45;&gt;Node2 -->
<g id="edge1" class="edge">
<title>Node1&#45;&gt;Node2</title>
<path fill="none" stroke="midnightblue" d="M923.7,-1124.17C823.37,-1113.46 584.32,-1087.95 496.29,-1078.55"/>
<polygon fill="midnightblue" stroke="midnightblue" points="923.51,-1127.66 933.82,-1125.25 924.25,-1120.7 923.51,-1127.66"/>
</g>
<!-- Node12 -->
<g id="node12" class="node">
<title>Node12</title>
<g id="a_node12"><a xlink:href="odp__api_8h.html" target="_top" xlink:title=" ">
<polygon fill="white" stroke="black" points="699,-0.5 699,-19.5 763,-19.5 763,-0.5 699,-0.5"/>
<text text-anchor="middle" x="731" y="-7.5" font-family="Helvetica,sans-Serif" font-size="10.00">odp_api.h</text>
</a>
</g>
</g>
<!-- Node1&#45;&gt;Node12 -->
<g id="edge77" class="edge">
<title>Node1&#45;&gt;Node12</title>
<path fill="none" stroke="midnightblue" d="M969,-1110.25C969,-1088.36 969,-1051.05 969,-1019 969,-1019 969,-1019 969,-121 969,-31.33 828.06,-14.53 763.1,-11.55"/>
<polygon fill="midnightblue" stroke="midnightblue" points="965.5,-1110.44 969,-1120.44 972.5,-1110.44 965.5,-1110.44"/>
</g>
<!-- Node59 -->
<g id="node47" class="node">
<title>Node59</title>
<g id="a_node47"><a xlink:href="api_2spec_2init_8h.html" target="_top" xlink:title=" ">
<polygon fill="white" stroke="black" points="997.5,-1064.5 997.5,-1083.5 1038.5,-1083.5 1038.5,-1064.5 997.5,-1064.5"/>
<text text-anchor="middle" x="1018" y="-1071.5" font-family="Helvetica,sans-Serif" font-size="10.00">init.h</text>
</a>
</g>
</g>
<!-- Node1&#45;&gt;Node59 -->
<g id="edge71" class="edge">
<title>Node1&#45;&gt;Node59</title>
<path fill="none" stroke="midnightblue" d="M984.03,-1112.43C992.62,-1102.97 1003.04,-1091.48 1010.06,-1083.75"/>
<polygon fill="midnightblue" stroke="midnightblue" points="981.22,-1110.33 977.09,-1120.08 986.4,-1115.03 981.22,-1110.33"/>
</g>
<!-- Node3 -->
<g id="node3" class="node">
<title>Node3</title>
<g id="a_node3"><a xlink:href="arch_2arm32-linux_2odp_2api_2abi_2thrmask_8h_source.html" target="_top" xlink:title=" ">
<polygon fill="white" stroke="black" points="262,-1008.5 262,-1027.5 328,-1027.5 328,-1008.5 262,-1008.5"/>
<text text-anchor="middle" x="295" y="-1015.5" font-family="Helvetica,sans-Serif" font-size="10.00">thrmask.h</text>
</a>
</g>
</g>
<!-- Node2&#45;&gt;Node3 -->
<g id="edge2" class="edge">
<title>Node2&#45;&gt;Node3</title>
<path fill="none" stroke="midnightblue" d="M426.61,-1061.3C394.96,-1051.13 349.83,-1036.62 321.5,-1027.52"/>
<polygon fill="midnightblue" stroke="midnightblue" points="425.79,-1064.72 436.38,-1064.44 427.93,-1058.05 425.79,-1064.72"/>
</g>
<!-- Node4 -->
<g id="node4" class="node">
<title>Node4</title>
<g id="a_node4"><a xlink:href="arch_2arm64-linux_2odp_2api_2abi_2thrmask_8h_source.html" target="_top" xlink:title=" ">
<polygon fill="white" stroke="black" points="430,-1008.5 430,-1027.5 496,-1027.5 496,-1008.5 430,-1008.5"/>
<text text-anchor="middle" x="463" y="-1015.5" font-family="Helvetica,sans-Serif" font-size="10.00">thrmask.h</text>
</a>
</g>
</g>
<!-- Node2&#45;&gt;Node4 -->
<g id="edge3" class="edge">
<title>Node2&#45;&gt;Node4</title>
<path fill="none" stroke="midnightblue" d="M463,-1053.8C463,-1044.91 463,-1034.78 463,-1027.75"/>
<polygon fill="midnightblue" stroke="midnightblue" points="459.5,-1054.08 463,-1064.08 466.5,-1054.08 459.5,-1054.08"/>
</g>
<!-- Node5 -->
<g id="node5" class="node">
<title>Node5</title>
<g id="a_node5"><a xlink:href="arch_2default-linux_2odp_2api_2abi_2thrmask_8h_source.html" target="_top" xlink:title=" ">
<polygon fill="white" stroke="black" points="514,-1008.5 514,-1027.5 580,-1027.5 580,-1008.5 514,-1008.5"/>
<text text-anchor="middle" x="547" y="-1015.5" font-family="Helvetica,sans-Serif" font-size="10.00">thrmask.h</text>
</a>
</g>
</g>
<!-- Node2&#45;&gt;Node5 -->
<g id="edge4" class="edge">
<title>Node2&#45;&gt;Node5</title>
<path fill="none" stroke="midnightblue" d="M484.93,-1058.9C500.34,-1049 520.45,-1036.07 533.54,-1027.65"/>
<polygon fill="midnightblue" stroke="midnightblue" points="483.02,-1055.97 476.5,-1064.32 486.8,-1061.86 483.02,-1055.97"/>
</g>
<!-- Node6 -->
<g id="node6" class="node">
<title>Node6</title>
<g id="a_node6"><a xlink:href="arch_2power64-linux_2odp_2api_2abi_2thrmask_8h_source.html" target="_top" xlink:title=" ">
<polygon fill="white" stroke="black" points="598,-1008.5 598,-1027.5 664,-1027.5 664,-1008.5 598,-1008.5"/>
<text text-anchor="middle" x="631" y="-1015.5" font-family="Helvetica,sans-Serif" font-size="10.00">thrmask.h</text>
</a>
</g>
</g>
<!-- Node2&#45;&gt;Node6 -->
<g id="edge5" class="edge">
<title>Node2&#45;&gt;Node6</title>
<path fill="none" stroke="midnightblue" d="M499.39,-1061.3C531.04,-1051.13 576.17,-1036.62 604.5,-1027.52"/>
<polygon fill="midnightblue" stroke="midnightblue" points="498.07,-1058.05 489.62,-1064.44 500.21,-1064.72 498.07,-1058.05"/>
</g>
<!-- Node7 -->
<g id="node7" class="node">
<title>Node7</title>
<g id="a_node7"><a xlink:href="arch_2x86__32-linux_2odp_2api_2abi_2thrmask_8h_source.html" target="_top" xlink:title=" ">
<polygon fill="white" stroke="black" points="178,-1008.5 178,-1027.5 244,-1027.5 244,-1008.5 178,-1008.5"/>
<text text-anchor="middle" x="211" y="-1015.5" font-family="Helvetica,sans-Serif" font-size="10.00">thrmask.h</text>
</a>
</g>
</g>
<!-- Node2&#45;&gt;Node7 -->
<g id="edge6" class="edge">
<title>Node2&#45;&gt;Node7</title>
<path fill="none" stroke="midnightblue" d="M419.98,-1063.78C370.25,-1053.12 289.45,-1035.81 244.28,-1026.13"/>
<polygon fill="midnightblue" stroke="midnightblue" points="419.28,-1067.21 429.8,-1065.88 420.75,-1060.37 419.28,-1067.21"/>
</g>
<!-- Node8 -->
<g id="node8" class="node">
<title>Node8</title>
<g id="a_node8"><a xlink:href="arch_2x86__64-linux_2odp_2api_2abi_2thrmask_8h_source.html" target="_top" xlink:title=" ">
<polygon fill="white" stroke="black" points="346,-1008.5 346,-1027.5 412,-1027.5 412,-1008.5 346,-1008.5"/>
<text text-anchor="middle" x="379" y="-1015.5" font-family="Helvetica,sans-Serif" font-size="10.00">thrmask.h</text>
</a>
</g>
</g>
<!-- Node2&#45;&gt;Node8 -->
<g id="edge7" class="edge">
<title>Node2&#45;&gt;Node8</title>
<path fill="none" stroke="midnightblue" d="M441.07,-1058.9C425.66,-1049 405.55,-1036.07 392.46,-1027.65"/>
<polygon fill="midnightblue" stroke="midnightblue" points="439.2,-1061.86 449.5,-1064.32 442.98,-1055.97 439.2,-1061.86"/>
</g>
<!-- Node9 -->
<g id="node9" class="node">
<title>Node9</title>
<g id="a_node9"><a xlink:href="api_2thrmask_8h.html" target="_top" xlink:title=" ">
<polygon fill="white" stroke="black" points="69,-952.5 69,-971.5 135,-971.5 135,-952.5 69,-952.5"/>
<text text-anchor="middle" x="102" y="-959.5" font-family="Helvetica,sans-Serif" font-size="10.00">thrmask.h</text>
</a>
</g>
</g>
<!-- Node8&#45;&gt;Node9 -->
<g id="edge8" class="edge">
<title>Node8&#45;&gt;Node9</title>
<path fill="none" stroke="midnightblue" d="M336.04,-1007.84C258.28,-992.13 178.8,-977.21 135.13,-969.11"/>
<polygon fill="midnightblue" stroke="midnightblue" points="335.5,-1011.3 346,-1009.86 336.89,-1004.44 335.5,-1011.3"/>
</g>
<!-- Node10 -->
<g id="node10" class="node">
<title>Node10</title>
<g id="a_node10"><a xlink:href="api_2spec_2schedule_8h.html" target="_top" xlink:title=" ">
<polygon fill="white" stroke="black" points="28.5,-672.5 28.5,-691.5 97.5,-691.5 97.5,-672.5 28.5,-672.5"/>
<text text-anchor="middle" x="63" y="-679.5" font-family="Helvetica,sans-Serif" font-size="10.00">schedule.h</text>
</a>
</g>
</g>
<!-- Node9&#45;&gt;Node10 -->
<g id="edge9" class="edge">
<title>Node9&#45;&gt;Node10</title>
<path fill="none" stroke="midnightblue" d="M91.59,-943.46C80.04,-922.3 63,-885.28 63,-851 63,-851 63,-851 63,-793 63,-755.19 63,-710.06 63,-691.56"/>
<polygon fill="midnightblue" stroke="midnightblue" points="88.6,-945.28 96.58,-952.25 94.69,-941.83 88.6,-945.28"/>
</g>
<!-- Node9&#45;&gt;Node12 -->
<g id="edge70" class="edge">
<title>Node9&#45;&gt;Node12</title>
<path fill="none" stroke="midnightblue" d="M75.88,-947.49C45.66,-929.77 0,-895.61 0,-851 0,-851 0,-851 0,-121 0,-41.35 89.37,-73.8 167,-56 365.19,-10.56 611.63,-9.18 698.7,-10.32"/>
<polygon fill="midnightblue" stroke="midnightblue" points="74.27,-950.6 84.7,-952.45 77.7,-944.5 74.27,-950.6"/>
</g>
<!-- Node13 -->
<g id="node13" class="node">
<title>Node13</title>
<g id="a_node13"><a xlink:href="api_2spec_2schedule__types_8h.html" target="_top" xlink:title=" ">
<polygon fill="white" stroke="black" points="91.5,-896.5 91.5,-915.5 192.5,-915.5 192.5,-896.5 91.5,-896.5"/>
<text text-anchor="middle" x="142" y="-903.5" font-family="Helvetica,sans-Serif" font-size="10.00">schedule_types.h</text>
</a>
</g>
</g>
<!-- Node9&#45;&gt;Node13 -->
<g id="edge12" class="edge">
<title>Node9&#45;&gt;Node13</title>
<path fill="none" stroke="midnightblue" d="M114.7,-943.86C121.63,-934.5 129.91,-923.33 135.52,-915.75"/>
<polygon fill="midnightblue" stroke="midnightblue" points="111.75,-941.96 108.61,-952.08 117.37,-946.13 111.75,-941.96"/>
</g>
<!-- Node11 -->
<g id="node11" class="node">
<title>Node11</title>
<g id="a_node11"><a xlink:href="api_2schedule_8h.html" target="_top" xlink:title=" ">
<polygon fill="white" stroke="black" points="28.5,-504.5 28.5,-523.5 97.5,-523.5 97.5,-504.5 28.5,-504.5"/>
<text text-anchor="middle" x="63" y="-511.5" font-family="Helvetica,sans-Serif" font-size="10.00">schedule.h</text>
</a>
</g>
</g>
<!-- Node10&#45;&gt;Node11 -->
<g id="edge10" class="edge">
<title>Node10&#45;&gt;Node11</title>
<path fill="none" stroke="midnightblue" d="M63,-661.93C63,-625.92 63,-549.23 63,-523.57"/>
<polygon fill="midnightblue" stroke="midnightblue" points="59.5,-662.08 63,-672.08 66.5,-662.08 59.5,-662.08"/>
</g>
<!-- Node11&#45;&gt;Node12 -->
<g id="edge11" class="edge">
<title>Node11&#45;&gt;Node12</title>
<path fill="none" stroke="midnightblue" d="M66.29,-494.32C69.84,-472.49 75,-435.24 75,-403 75,-403 75,-403 75,-121 75,-56.98 567.21,-21.33 698.92,-12.94"/>
<polygon fill="midnightblue" stroke="midnightblue" points="62.79,-494.03 64.57,-504.48 69.69,-495.2 62.79,-494.03"/>
</g>
<!-- Node14 -->
<g id="node14" class="node">
<title>Node14</title>
<g id="a_node14"><a xlink:href="api_2schedule__types_8h.html" target="_top" xlink:title=" ">
<polygon fill="white" stroke="black" points="91.5,-840.5 91.5,-859.5 192.5,-859.5 192.5,-840.5 91.5,-840.5"/>
<text text-anchor="middle" x="142" y="-847.5" font-family="Helvetica,sans-Serif" font-size="10.00">schedule_types.h</text>
</a>
</g>
</g>
<!-- Node13&#45;&gt;Node14 -->
<g id="edge13" class="edge">
<title>Node13&#45;&gt;Node14</title>
<path fill="none" stroke="midnightblue" d="M142,-885.8C142,-876.91 142,-866.78 142,-859.75"/>
<polygon fill="midnightblue" stroke="midnightblue" points="138.5,-886.08 142,-896.08 145.5,-886.08 138.5,-886.08"/>
</g>
<!-- Node14&#45;&gt;Node10 -->
<g id="edge69" class="edge">
<title>Node14&#45;&gt;Node10</title>
<path fill="none" stroke="midnightblue" d="M133.37,-830.86C116.42,-795.25 79.4,-717.45 67.08,-691.57"/>
<polygon fill="midnightblue" stroke="midnightblue" points="130.29,-832.55 137.75,-840.08 136.62,-829.54 130.29,-832.55"/>
</g>
<!-- Node15 -->
<g id="node15" class="node">
<title>Node15</title>
<g id="a_node15"><a xlink:href="api_2spec_2queue__types_8h.html" target="_top" xlink:title=" ">
<polygon fill="white" stroke="black" points="337,-784.5 337,-803.5 425,-803.5 425,-784.5 337,-784.5"/>
<text text-anchor="middle" x="381" y="-791.5" font-family="Helvetica,sans-Serif" font-size="10.00">queue_types.h</text>
</a>
</g>
</g>
<!-- Node14&#45;&gt;Node15 -->
<g id="edge14" class="edge">
<title>Node14&#45;&gt;Node15</title>
<path fill="none" stroke="midnightblue" d="M189.72,-838.22C234.89,-828.01 301.77,-812.9 343.31,-803.52"/>
<polygon fill="midnightblue" stroke="midnightblue" points="188.85,-834.83 179.87,-840.44 190.4,-841.65 188.85,-834.83"/>
</g>
<!-- Node16 -->
<g id="node16" class="node">
<title>Node16</title>
<g id="a_node16"><a xlink:href="api_2queue__types_8h.html" target="_top" xlink:title=" ">
<polygon fill="white" stroke="black" points="570,-728.5 570,-747.5 658,-747.5 658,-728.5 570,-728.5"/>
<text text-anchor="middle" x="614" y="-735.5" font-family="Helvetica,sans-Serif" font-size="10.00">queue_types.h</text>
</a>
</g>
</g>
<!-- Node15&#45;&gt;Node16 -->
<g id="edge15" class="edge">
<title>Node15&#45;&gt;Node16</title>
<path fill="none" stroke="midnightblue" d="M427.8,-782.15C471.83,-771.95 536.85,-756.88 577.25,-747.52"/>
<polygon fill="midnightblue" stroke="midnightblue" points="426.87,-778.78 417.92,-784.44 428.45,-785.6 426.87,-778.78"/>
</g>
<!-- Node16&#45;&gt;Node10 -->
<g id="edge67" class="edge">
<title>Node16&#45;&gt;Node10</title>
<path fill="none" stroke="midnightblue" d="M559.65,-733.78C467.34,-727.94 274.16,-714.11 112,-692 107.37,-691.37 102.52,-690.6 97.74,-689.79"/>
<polygon fill="midnightblue" stroke="midnightblue" points="559.66,-737.28 569.86,-734.42 560.1,-730.3 559.66,-737.28"/>
</g>
<!-- Node17 -->
<g id="node17" class="node">
<title>Node17</title>
<g id="a_node17"><a xlink:href="api_2spec_2comp_8h.html" target="_top" xlink:title=" ">
<polygon fill="white" stroke="black" points="847.5,-560.5 847.5,-579.5 900.5,-579.5 900.5,-560.5 847.5,-560.5"/>
<text text-anchor="middle" x="874" y="-567.5" font-family="Helvetica,sans-Serif" font-size="10.00">comp.h</text>
</a>
</g>
</g>
<!-- Node16&#45;&gt;Node17 -->
<g id="edge16" class="edge">
<title>Node16&#45;&gt;Node17</title>
<path fill="none" stroke="midnightblue" d="M668.51,-731.99C725.22,-725.72 809.03,-713.16 833,-692 867.25,-661.76 872.93,-601.84 873.84,-579.58"/>
<polygon fill="midnightblue" stroke="midnightblue" points="667.82,-728.54 658.25,-733.09 668.57,-735.5 667.82,-728.54"/>
</g>
<!-- Node19 -->
<g id="node19" class="node">
<title>Node19</title>
<g id="a_node19"><a xlink:href="api_2spec_2dma__types_8h.html" target="_top" xlink:title=" ">
<polygon fill="white" stroke="black" points="154,-560.5 154,-579.5 234,-579.5 234,-560.5 154,-560.5"/>
<text text-anchor="middle" x="194" y="-567.5" font-family="Helvetica,sans-Serif" font-size="10.00">dma_types.h</text>
</a>
</g>
</g>
<!-- Node16&#45;&gt;Node19 -->
<g id="edge19" class="edge">
<title>Node16&#45;&gt;Node19</title>
<path fill="none" stroke="midnightblue" d="M582.62,-724.6C501.2,-692.42 284.73,-606.86 215.57,-579.52"/>
<polygon fill="midnightblue" stroke="midnightblue" points="581.72,-728 592.3,-728.42 584.29,-721.49 581.72,-728"/>
</g>
<!-- Node33 -->
<g id="node28" class="node">
<title>Node33</title>
<g id="a_node28"><a xlink:href="api_2spec_2packet__io_8h.html" target="_top" xlink:title=" ">
<polygon fill="white" stroke="black" points="695,-112.5 695,-131.5 767,-131.5 767,-112.5 695,-112.5"/>
<text text-anchor="middle" x="731" y="-119.5" font-family="Helvetica,sans-Serif" font-size="10.00">packet_io.h</text>
</a>
</g>
</g>
<!-- Node16&#45;&gt;Node33 -->
<g id="edge46" class="edge">
<title>Node16&#45;&gt;Node33</title>
<path fill="none" stroke="midnightblue" d="M668.45,-731.25C729.19,-721.47 819,-695.44 819,-627 819,-627 819,-627 819,-513 819,-437.69 853,-422.31 853,-347 853,-347 853,-347 853,-233 853,-180.24 789.29,-146.29 753.95,-131.52"/>
<polygon fill="midnightblue" stroke="midnightblue" points="667.6,-727.84 658.23,-732.79 668.64,-734.76 667.6,-727.84"/>
</g>
<!-- Node41 -->
<g id="node32" class="node">
<title>Node41</title>
<g id="a_node32"><a xlink:href="api_2spec_2packet__io__types_8h.html" target="_top" xlink:title=" ">
<polygon fill="white" stroke="black" points="571,-336.5 571,-355.5 675,-355.5 675,-336.5 571,-336.5"/>
<text text-anchor="middle" x="623" y="-343.5" font-family="Helvetica,sans-Serif" font-size="10.00">packet_io_types.h</text>
</a>
</g>
</g>
<!-- Node16&#45;&gt;Node41 -->
<g id="edge51" class="edge">
<title>Node16&#45;&gt;Node41</title>
<path fill="none" stroke="midnightblue" d="M620.14,-718.69C629.54,-689.67 647.12,-631.17 654,-580 665.15,-497.05 664.72,-472.83 643,-392 639.45,-378.79 632.53,-364.51 627.83,-355.67"/>
<polygon fill="midnightblue" stroke="midnightblue" points="616.79,-717.7 616.98,-728.29 623.44,-719.89 616.79,-717.7"/>
</g>
<!-- Node47 -->
<g id="node35" class="node">
<title>Node47</title>
<g id="a_node35"><a xlink:href="api_2spec_2timer_8h.html" target="_top" xlink:title=" ">
<polygon fill="white" stroke="black" points="214.5,-336.5 214.5,-355.5 265.5,-355.5 265.5,-336.5 214.5,-336.5"/>
<text text-anchor="middle" x="240" y="-343.5" font-family="Helvetica,sans-Serif" font-size="10.00">timer.h</text>
</a>
</g>
</g>
<!-- Node16&#45;&gt;Node47 -->
<g id="edge68" class="edge">
<title>Node16&#45;&gt;Node47</title>
<path fill="none" stroke="midnightblue" d="M559.53,-736.13C432.25,-732.63 126,-715.06 126,-627 126,-627 126,-627 126,-457 126,-405.71 186.5,-370.77 219.36,-355.58"/>
<polygon fill="midnightblue" stroke="midnightblue" points="559.75,-739.64 569.83,-736.4 559.93,-732.64 559.75,-739.64"/>
</g>
<!-- Node49 -->
<g id="node37" class="node">
<title>Node49</title>
<g id="a_node37"><a xlink:href="spec_2packet__io__stats_8h.html" target="_top" xlink:title=" ">
<polygon fill="white" stroke="black" points="689.5,-616.5 689.5,-635.5 790.5,-635.5 790.5,-616.5 689.5,-616.5"/>
<text text-anchor="middle" x="740" y="-623.5" font-family="Helvetica,sans-Serif" font-size="10.00">packet_io_stats.h</text>
</a>
</g>
</g>
<!-- Node16&#45;&gt;Node49 -->
<g id="edge47" class="edge">
<title>Node16&#45;&gt;Node49</title>
<path fill="none" stroke="midnightblue" d="M635.52,-722.32C647.48,-713.87 662.44,-702.81 675,-692 696.78,-673.26 720.06,-648.74 731.97,-635.83"/>
<polygon fill="midnightblue" stroke="midnightblue" points="633.25,-719.64 627.04,-728.23 637.25,-725.38 633.25,-719.64"/>
</g>
<!-- Node51 -->
<g id="node39" class="node">
<title>Node51</title>
<g id="a_node39"><a xlink:href="api_2spec_2packet__types_8h.html" target="_top" xlink:title=" ">
<polygon fill="white" stroke="black" points="522,-672.5 522,-691.5 612,-691.5 612,-672.5 522,-672.5"/>
<text text-anchor="middle" x="567" y="-679.5" font-family="Helvetica,sans-Serif" font-size="10.00">packet_types.h</text>
</a>
</g>
</g>
<!-- Node16&#45;&gt;Node51 -->
<g id="edge52" class="edge">
<title>Node16&#45;&gt;Node51</title>
<path fill="none" stroke="midnightblue" d="M599.58,-720.43C591.34,-710.97 581.35,-699.48 574.62,-691.75"/>
<polygon fill="midnightblue" stroke="midnightblue" points="597.03,-722.84 606.24,-728.08 602.31,-718.24 597.03,-722.84"/>
</g>
<!-- Node57 -->
<g id="node45" class="node">
<title>Node57</title>
<g id="a_node45"><a xlink:href="api_2spec_2queue_8h.html" target="_top" xlink:title=" ">
<polygon fill="white" stroke="black" points="885,-672.5 885,-691.5 941,-691.5 941,-672.5 885,-672.5"/>
<text text-anchor="middle" x="913" y="-679.5" font-family="Helvetica,sans-Serif" font-size="10.00">queue.h</text>
</a>
</g>
</g>
<!-- Node16&#45;&gt;Node57 -->
<g id="edge64" class="edge">
<title>Node16&#45;&gt;Node57</title>
<path fill="none" stroke="midnightblue" d="M668.23,-728.12C720.32,-719.44 801.18,-705.59 871,-692 875.39,-691.15 880.03,-690.2 884.56,-689.25"/>
<polygon fill="midnightblue" stroke="midnightblue" points="667.5,-724.69 658.21,-729.78 668.64,-731.59 667.5,-724.69"/>
</g>
<!-- Node18 -->
<g id="node18" class="node">
<title>Node18</title>
<g id="a_node18"><a xlink:href="api_2comp_8h.html" target="_top" xlink:title=" ">
<polygon fill="white" stroke="black" points="847.5,-448.5 847.5,-467.5 900.5,-467.5 900.5,-448.5 847.5,-448.5"/>
<text text-anchor="middle" x="874" y="-455.5" font-family="Helvetica,sans-Serif" font-size="10.00">comp.h</text>
</a>
</g>
</g>
<!-- Node17&#45;&gt;Node18 -->
<g id="edge17" class="edge">
<title>Node17&#45;&gt;Node18</title>
<path fill="none" stroke="midnightblue" d="M874,-550.35C874,-526.25 874,-485.31 874,-467.59"/>
<polygon fill="midnightblue" stroke="midnightblue" points="870.5,-550.37 874,-560.37 877.5,-550.37 870.5,-550.37"/>
</g>
<!-- Node18&#45;&gt;Node12 -->
<g id="edge18" class="edge">
<title>Node18&#45;&gt;Node12</title>
<path fill="none" stroke="midnightblue" d="M878.67,-438.36C883.7,-416.58 891,-379.42 891,-347 891,-347 891,-347 891,-121 891,-59.65 810.13,-29.93 763.38,-17.88"/>
<polygon fill="midnightblue" stroke="midnightblue" points="875.23,-437.69 876.29,-448.23 882.03,-439.33 875.23,-437.69"/>
</g>
<!-- Node20 -->
<g id="node20" class="node">
<title>Node20</title>
<g id="a_node20"><a xlink:href="api_2dma__types_8h.html" target="_top" xlink:title=" ">
<polygon fill="white" stroke="black" points="259,-504.5 259,-523.5 339,-523.5 339,-504.5 259,-504.5"/>
<text text-anchor="middle" x="299" y="-511.5" font-family="Helvetica,sans-Serif" font-size="10.00">dma_types.h</text>
</a>
</g>
</g>
<!-- Node19&#45;&gt;Node20 -->
<g id="edge20" class="edge">
<title>Node19&#45;&gt;Node20</title>
<path fill="none" stroke="midnightblue" d="M219.81,-555.73C239.25,-545.73 265.35,-532.31 282.17,-523.65"/>
<polygon fill="midnightblue" stroke="midnightblue" points="218.16,-552.64 210.87,-560.32 221.36,-558.86 218.16,-552.64"/>
</g>
<!-- Node21 -->
<g id="node21" class="node">
<title>Node21</title>
<g id="a_node21"><a xlink:href="api_2spec_2dma_8h.html" target="_top" xlink:title=" ">
<polygon fill="white" stroke="black" points="283.5,-336.5 283.5,-355.5 330.5,-355.5 330.5,-336.5 283.5,-336.5"/>
<text text-anchor="middle" x="307" y="-343.5" font-family="Helvetica,sans-Serif" font-size="10.00">dma.h</text>
</a>
</g>
</g>
<!-- Node20&#45;&gt;Node21 -->
<g id="edge21" class="edge">
<title>Node20&#45;&gt;Node21</title>
<path fill="none" stroke="midnightblue" d="M299.92,-493.93C301.65,-457.92 305.35,-381.23 306.59,-355.57"/>
<polygon fill="midnightblue" stroke="midnightblue" points="296.42,-493.92 299.43,-504.08 303.41,-494.26 296.42,-493.92"/>
</g>
<!-- Node23 -->
<g id="node23" class="node">
<title>Node23</title>
<g id="a_node23"><a xlink:href="api_2spec_2pool__types_8h.html" target="_top" xlink:title=" ">
<polygon fill="white" stroke="black" points="327.5,-448.5 327.5,-467.5 406.5,-467.5 406.5,-448.5 327.5,-448.5"/>
<text text-anchor="middle" x="367" y="-455.5" font-family="Helvetica,sans-Serif" font-size="10.00">pool_types.h</text>
</a>
</g>
</g>
<!-- Node20&#45;&gt;Node23 -->
<g id="edge24" class="edge">
<title>Node20&#45;&gt;Node23</title>
<path fill="none" stroke="midnightblue" d="M317.76,-498.1C330,-488.38 345.56,-476.03 355.88,-467.83"/>
<polygon fill="midnightblue" stroke="midnightblue" points="315.58,-495.36 309.93,-504.32 319.93,-500.85 315.58,-495.36"/>
</g>
<!-- Node22 -->
<g id="node22" class="node">
<title>Node22</title>
<g id="a_node22"><a xlink:href="api_2dma_8h.html" target="_top" xlink:title=" ">
<polygon fill="white" stroke="black" points="328.5,-168.5 328.5,-187.5 375.5,-187.5 375.5,-168.5 328.5,-168.5"/>
<text text-anchor="middle" x="352" y="-175.5" font-family="Helvetica,sans-Serif" font-size="10.00">dma.h</text>
</a>
</g>
</g>
<!-- Node21&#45;&gt;Node22 -->
<g id="edge22" class="edge">
<title>Node21&#45;&gt;Node22</title>
<path fill="none" stroke="midnightblue" d="M312.04,-326.39C321.75,-290.59 342.69,-213.34 349.68,-187.57"/>
<polygon fill="midnightblue" stroke="midnightblue" points="308.66,-325.51 309.42,-336.08 315.41,-327.34 308.66,-325.51"/>
</g>
<!-- Node22&#45;&gt;Node12 -->
<g id="edge23" class="edge">
<title>Node22&#45;&gt;Node12</title>
<path fill="none" stroke="midnightblue" d="M371.09,-161.74C404.03,-136.14 474.52,-84.56 542,-56 594.65,-33.71 660.44,-21.21 698.88,-15.31"/>
<polygon fill="midnightblue" stroke="midnightblue" points="368.53,-159.3 362.83,-168.23 372.85,-164.8 368.53,-159.3"/>
</g>
<!-- Node24 -->
<g id="node24" class="node">
<title>Node24</title>
<g id="a_node24"><a xlink:href="api_2pool__types_8h.html" target="_top" xlink:title=" ">
<polygon fill="white" stroke="red" points="327.5,-392.5 327.5,-411.5 406.5,-411.5 406.5,-392.5 327.5,-392.5"/>
<text text-anchor="middle" x="367" y="-399.5" font-family="Helvetica,sans-Serif" font-size="10.00">pool_types.h</text>
</a>
</g>
</g>
<!-- Node23&#45;&gt;Node24 -->
<g id="edge25" class="edge">
<title>Node23&#45;&gt;Node24</title>
<path fill="none" stroke="midnightblue" d="M367,-437.8C367,-428.91 367,-418.78 367,-411.75"/>
<polygon fill="midnightblue" stroke="midnightblue" points="363.5,-438.08 367,-448.08 370.5,-438.08 363.5,-438.08"/>
</g>
<!-- Node24&#45;&gt;Node21 -->
<g id="edge34" class="edge">
<title>Node24&#45;&gt;Node21</title>
<path fill="none" stroke="midnightblue" d="M349.82,-385.54C339.12,-375.91 325.74,-363.87 316.82,-355.83"/>
<polygon fill="midnightblue" stroke="midnightblue" points="347.59,-388.24 357.36,-392.32 352.27,-383.03 347.59,-388.24"/>
</g>
<!-- Node27 -->
<g id="node25" class="node">
<title>Node27</title>
<g id="a_node25"><a xlink:href="api_2spec_2classification_8h.html" target="_top" xlink:title=" ">
<polygon fill="white" stroke="black" points="435.5,-224.5 435.5,-243.5 524.5,-243.5 524.5,-224.5 435.5,-224.5"/>
<text text-anchor="middle" x="480" y="-231.5" font-family="Helvetica,sans-Serif" font-size="10.00">classification.h</text>
</a>
</g>
</g>
<!-- Node24&#45;&gt;Node27 -->
<g id="edge26" class="edge">
<title>Node24&#45;&gt;Node27</title>
<path fill="none" stroke="midnightblue" d="M378.73,-383.76C402.68,-348.59 456.4,-269.68 474.17,-243.57"/>
<polygon fill="midnightblue" stroke="midnightblue" points="375.81,-381.84 373.08,-392.08 381.6,-385.78 375.81,-381.84"/>
</g>
<!-- Node35 -->
<g id="node30" class="node">
<title>Node35</title>
<g id="a_node30"><a xlink:href="api_2spec_2crypto__types_8h.html" target="_top" xlink:title=" ">
<polygon fill="white" stroke="red" points="425.5,-336.5 425.5,-355.5 514.5,-355.5 514.5,-336.5 425.5,-336.5"/>
<text text-anchor="middle" x="470" y="-343.5" font-family="Helvetica,sans-Serif" font-size="10.00">crypto_types.h</text>
</a>
</g>
</g>
<!-- Node24&#45;&gt;Node35 -->
<g id="edge33" class="edge">
<title>Node24&#45;&gt;Node35</title>
<path fill="none" stroke="midnightblue" d="M392.58,-387.59C411.62,-377.61 437.06,-364.27 453.49,-355.65"/>
<polygon fill="midnightblue" stroke="midnightblue" points="390.78,-384.58 383.55,-392.32 394.03,-390.78 390.78,-384.58"/>
</g>
<!-- Node39 -->
<g id="node31" class="node">
<title>Node39</title>
<g id="a_node31"><a xlink:href="api_2spec_2packet_8h.html" target="_top" xlink:title=" ">
<polygon fill="white" stroke="red" points="359,-224.5 359,-243.5 417,-243.5 417,-224.5 359,-224.5"/>
<text text-anchor="middle" x="388" y="-231.5" font-family="Helvetica,sans-Serif" font-size="10.00">packet.h</text>
</a>
</g>
</g>
<!-- Node24&#45;&gt;Node39 -->
<g id="edge35" class="edge">
<title>Node24&#45;&gt;Node39</title>
<path fill="none" stroke="midnightblue" d="M369.41,-381.93C373.97,-345.92 383.67,-269.23 386.92,-243.57"/>
<polygon fill="midnightblue" stroke="midnightblue" points="365.91,-381.71 368.13,-392.08 372.86,-382.59 365.91,-381.71"/>
</g>
<!-- Node24&#45;&gt;Node41 -->
<g id="edge36" class="edge">
<title>Node24&#45;&gt;Node41</title>
<path fill="none" stroke="midnightblue" d="M416.64,-390.53C464.92,-380.35 537.37,-365.06 582.34,-355.58"/>
<polygon fill="midnightblue" stroke="midnightblue" points="415.78,-387.13 406.72,-392.62 417.23,-393.98 415.78,-387.13"/>
</g>
<!-- Node24&#45;&gt;Node47 -->
<g id="edge43" class="edge">
<title>Node24&#45;&gt;Node47</title>
<path fill="none" stroke="midnightblue" d="M337.61,-388.5C313.8,-378.38 280.89,-364.39 260.03,-355.52"/>
<polygon fill="midnightblue" stroke="midnightblue" points="336.3,-391.75 346.88,-392.44 339.04,-385.31 336.3,-391.75"/>
</g>
<!-- Node28 -->
<g id="node26" class="node">
<title>Node28</title>
<g id="a_node26"><a xlink:href="api_2classification_8h.html" target="_top" xlink:title=" ">
<polygon fill="white" stroke="black" points="435.5,-168.5 435.5,-187.5 524.5,-187.5 524.5,-168.5 435.5,-168.5"/>
<text text-anchor="middle" x="480" y="-175.5" font-family="Helvetica,sans-Serif" font-size="10.00">classification.h</text>
</a>
</g>
</g>
<!-- Node27&#45;&gt;Node28 -->
<g id="edge27" class="edge">
<title>Node27&#45;&gt;Node28</title>
<path fill="none" stroke="midnightblue" d="M480,-213.8C480,-204.91 480,-194.78 480,-187.75"/>
<polygon fill="midnightblue" stroke="midnightblue" points="476.5,-214.08 480,-224.08 483.5,-214.08 476.5,-214.08"/>
</g>
<!-- Node28&#45;&gt;Node12 -->
<g id="edge32" class="edge">
<title>Node28&#45;&gt;Node12</title>
<path fill="none" stroke="midnightblue" d="M481.91,-158.19C484.25,-143.97 489.46,-124.78 501,-112 554.5,-52.78 649.04,-26.62 698.61,-16.51"/>
<polygon fill="midnightblue" stroke="midnightblue" points="478.41,-157.94 480.58,-168.31 485.35,-158.85 478.41,-157.94"/>
</g>
<!-- Node29 -->
<g id="node27" class="node">
<title>Node29</title>
<g id="a_node27"><a xlink:href="api_2spec_2ipsec__types_8h.html" target="_top" xlink:title=" ">
<polygon fill="white" stroke="red" points="510.5,-112.5 510.5,-131.5 593.5,-131.5 593.5,-112.5 510.5,-112.5"/>
<text text-anchor="middle" x="552" y="-119.5" font-family="Helvetica,sans-Serif" font-size="10.00">ipsec_types.h</text>
</a>
</g>
</g>
<!-- Node28&#45;&gt;Node29 -->
<g id="edge28" class="edge">
<title>Node28&#45;&gt;Node29</title>
<path fill="none" stroke="midnightblue" d="M499.87,-162.1C512.82,-152.38 529.3,-140.03 540.22,-131.83"/>
<polygon fill="midnightblue" stroke="midnightblue" points="497.47,-159.52 491.57,-168.32 501.67,-165.12 497.47,-159.52"/>
</g>
<!-- Node28&#45;&gt;Node33 -->
<g id="edge29" class="edge">
<title>Node28&#45;&gt;Node33</title>
<path fill="none" stroke="midnightblue" d="M529.76,-166.29C578.39,-155.83 651.26,-140.16 694.67,-130.82"/>
<polygon fill="midnightblue" stroke="midnightblue" points="528.81,-162.92 519.77,-168.44 530.28,-169.76 528.81,-162.92"/>
</g>
<!-- Node34 -->
<g id="node29" class="node">
<title>Node34</title>
<g id="a_node29"><a xlink:href="api_2packet__io_8h.html" target="_top" xlink:title=" ">
<polygon fill="white" stroke="black" points="695,-56.5 695,-75.5 767,-75.5 767,-56.5 695,-56.5"/>
<text text-anchor="middle" x="731" y="-63.5" font-family="Helvetica,sans-Serif" font-size="10.00">packet_io.h</text>
</a>
</g>
</g>
<!-- Node33&#45;&gt;Node34 -->
<g id="edge30" class="edge">
<title>Node33&#45;&gt;Node34</title>
<path fill="none" stroke="midnightblue" d="M731,-101.8C731,-92.91 731,-82.78 731,-75.75"/>
<polygon fill="midnightblue" stroke="midnightblue" points="727.5,-102.08 731,-112.08 734.5,-102.08 727.5,-102.08"/>
</g>
<!-- Node34&#45;&gt;Node12 -->
<g id="edge31" class="edge">
<title>Node34&#45;&gt;Node12</title>
<path fill="none" stroke="midnightblue" d="M731,-45.8C731,-36.91 731,-26.78 731,-19.75"/>
<polygon fill="midnightblue" stroke="midnightblue" points="727.5,-46.08 731,-56.08 734.5,-46.08 727.5,-46.08"/>
</g>
<!-- Node42 -->
<g id="node33" class="node">
<title>Node42</title>
<g id="a_node33"><a xlink:href="api_2packet__io__types_8h.html" target="_top" xlink:title=" ">
<polygon fill="white" stroke="black" points="571,-280.5 571,-299.5 675,-299.5 675,-280.5 571,-280.5"/>
<text text-anchor="middle" x="623" y="-287.5" font-family="Helvetica,sans-Serif" font-size="10.00">packet_io_types.h</text>
</a>
</g>
</g>
<!-- Node41&#45;&gt;Node42 -->
<g id="edge37" class="edge">
<title>Node41&#45;&gt;Node42</title>
<path fill="none" stroke="midnightblue" d="M623,-325.8C623,-316.91 623,-306.78 623,-299.75"/>
<polygon fill="midnightblue" stroke="midnightblue" points="619.5,-326.08 623,-336.08 626.5,-326.08 619.5,-326.08"/>
</g>
<!-- Node42&#45;&gt;Node27 -->
<g id="edge38" class="edge">
<title>Node42&#45;&gt;Node27</title>
<path fill="none" stroke="midnightblue" d="M590.97,-276.91C564.09,-266.75 526.36,-252.51 502.55,-243.52"/>
<polygon fill="midnightblue" stroke="midnightblue" points="589.75,-280.19 600.34,-280.44 592.22,-273.64 589.75,-280.19"/>
</g>
<!-- Node42&#45;&gt;Node29 -->
<g id="edge39" class="edge">
<title>Node42&#45;&gt;Node29</title>
<path fill="none" stroke="midnightblue" d="M600.19,-274.33C589.96,-266.56 578.7,-256.1 572,-244 551.06,-206.19 550.75,-152.26 551.52,-131.55"/>
<polygon fill="midnightblue" stroke="midnightblue" points="598.25,-277.25 608.42,-280.21 602.32,-271.55 598.25,-277.25"/>
</g>
<!-- Node42&#45;&gt;Node33 -->
<g id="edge41" class="edge">
<title>Node42&#45;&gt;Node33</title>
<path fill="none" stroke="midnightblue" d="M643.61,-274.05C653.69,-265.98 665.47,-255.36 674,-244 702.3,-206.3 721.56,-152.31 728.32,-131.56"/>
<polygon fill="midnightblue" stroke="midnightblue" points="641.42,-271.31 635.64,-280.19 645.7,-276.86 641.42,-271.31"/>
</g>
<!-- Node42&#45;&gt;Node39 -->
<g id="edge40" class="edge">
<title>Node42&#45;&gt;Node39</title>
<path fill="none" stroke="midnightblue" d="M575.23,-278.2C535.32,-269.15 476.92,-255.85 426,-244 423.09,-243.32 420.07,-242.61 417.04,-241.9"/>
<polygon fill="midnightblue" stroke="midnightblue" points="574.69,-281.67 585.21,-280.46 576.23,-274.84 574.69,-281.67"/>
</g>
<!-- Node43 -->
<g id="node34" class="node">
<title>Node43</title>
<g id="a_node34"><a xlink:href="api_2spec_2traffic__mngr_8h.html" target="_top" xlink:title=" ">
<polygon fill="white" stroke="red" points="581,-224.5 581,-243.5 665,-243.5 665,-224.5 581,-224.5"/>
<text text-anchor="middle" x="623" y="-231.5" font-family="Helvetica,sans-Serif" font-size="10.00">traffic_mngr.h</text>
</a>
</g>
</g>
<!-- Node42&#45;&gt;Node43 -->
<g id="edge42" class="edge">
<title>Node42&#45;&gt;Node43</title>
<path fill="none" stroke="midnightblue" d="M623,-269.8C623,-260.91 623,-250.78 623,-243.75"/>
<polygon fill="midnightblue" stroke="midnightblue" points="619.5,-270.08 623,-280.08 626.5,-270.08 619.5,-270.08"/>
</g>
<!-- Node48 -->
<g id="node36" class="node">
<title>Node48</title>
<g id="a_node36"><a xlink:href="api_2timer_8h.html" target="_top" xlink:title=" ">
<polygon fill="white" stroke="black" points="228.5,-280.5 228.5,-299.5 279.5,-299.5 279.5,-280.5 228.5,-280.5"/>
<text text-anchor="middle" x="254" y="-287.5" font-family="Helvetica,sans-Serif" font-size="10.00">timer.h</text>
</a>
</g>
</g>
<!-- Node47&#45;&gt;Node48 -->
<g id="edge44" class="edge">
<title>Node47&#45;&gt;Node48</title>
<path fill="none" stroke="midnightblue" d="M244.82,-326.4C247.17,-317.36 249.87,-306.94 251.73,-299.75"/>
<polygon fill="midnightblue" stroke="midnightblue" points="241.43,-325.52 242.31,-336.08 248.21,-327.28 241.43,-325.52"/>
</g>
<!-- Node48&#45;&gt;Node12 -->
<g id="edge45" class="edge">
<title>Node48&#45;&gt;Node12</title>
<path fill="none" stroke="midnightblue" d="M257.02,-270.31C260.27,-248.47 265,-211.21 265,-179 265,-179 265,-179 265,-121 265,-31.64 593.69,-14.79 698.97,-11.68"/>
<polygon fill="midnightblue" stroke="midnightblue" points="253.51,-270.05 255.44,-280.47 260.43,-271.13 253.51,-270.05"/>
</g>
<!-- Node50 -->
<g id="node38" class="node">
<title>Node50</title>
<g id="a_node38"><a xlink:href="packet__io__stats_8h.html" target="_top" xlink:title=" ">
<polygon fill="white" stroke="black" points="723.5,-392.5 723.5,-411.5 824.5,-411.5 824.5,-392.5 723.5,-392.5"/>
<text text-anchor="middle" x="774" y="-399.5" font-family="Helvetica,sans-Serif" font-size="10.00">packet_io_stats.h</text>
</a>
</g>
</g>
<!-- Node49&#45;&gt;Node50 -->
<g id="edge48" class="edge">
<title>Node49&#45;&gt;Node50</title>
<path fill="none" stroke="midnightblue" d="M742.89,-606.47C744.16,-598.35 745.66,-588.7 747,-580 756.94,-515.48 768.74,-437.71 772.66,-411.84"/>
<polygon fill="midnightblue" stroke="midnightblue" points="739.43,-605.95 741.35,-616.37 746.35,-607.03 739.43,-605.95"/>
</g>
<!-- Node50&#45;&gt;Node33 -->
<g id="edge49" class="edge">
<title>Node50&#45;&gt;Node33</title>
<path fill="none" stroke="midnightblue" d="M772.63,-382.26C771.15,-360.38 769,-323.09 769,-291 769,-291 769,-291 769,-233 769,-193.4 746.73,-149.96 736.28,-131.77"/>
<polygon fill="midnightblue" stroke="midnightblue" points="769.15,-382.72 773.35,-392.45 776.14,-382.23 769.15,-382.72"/>
</g>
<!-- Node50&#45;&gt;Node41 -->
<g id="edge50" class="edge">
<title>Node50&#45;&gt;Node41</title>
<path fill="none" stroke="midnightblue" d="M740.55,-389.04C712.14,-378.88 672.06,-364.55 646.81,-355.52"/>
<polygon fill="midnightblue" stroke="midnightblue" points="739.48,-392.37 750.07,-392.44 741.84,-385.78 739.48,-392.37"/>
</g>
<!-- Node52 -->
<g id="node40" class="node">
<title>Node52</title>
<g id="a_node40"><a xlink:href="api_2packet__types_8h.html" target="_top" xlink:title=" ">
<polygon fill="white" stroke="black" points="500,-616.5 500,-635.5 590,-635.5 590,-616.5 500,-616.5"/>
<text text-anchor="middle" x="545" y="-623.5" font-family="Helvetica,sans-Serif" font-size="10.00">packet_types.h</text>
</a>
</g>
</g>
<!-- Node51&#45;&gt;Node52 -->
<g id="edge53" class="edge">
<title>Node51&#45;&gt;Node52</title>
<path fill="none" stroke="midnightblue" d="M559.54,-662.69C555.83,-653.59 551.52,-643.01 548.57,-635.75"/>
<polygon fill="midnightblue" stroke="midnightblue" points="556.35,-664.14 563.37,-672.08 562.84,-661.5 556.35,-664.14"/>
</g>
<!-- Node52&#45;&gt;Node17 -->
<g id="edge54" class="edge">
<title>Node52&#45;&gt;Node17</title>
<path fill="none" stroke="midnightblue" d="M600.22,-615.94C671.71,-604.2 793.47,-584.22 847.18,-575.4"/>
<polygon fill="midnightblue" stroke="midnightblue" points="599.36,-612.53 590.06,-617.6 600.49,-619.44 599.36,-612.53"/>
</g>
<!-- Node52&#45;&gt;Node19 -->
<g id="edge57" class="edge">
<title>Node52&#45;&gt;Node19</title>
<path fill="none" stroke="midnightblue" d="M489.79,-617.34C429.17,-608.8 329.01,-594.3 243,-580 240.1,-579.52 237.1,-579 234.09,-578.48"/>
<polygon fill="midnightblue" stroke="midnightblue" points="489.51,-620.84 499.9,-618.76 490.48,-613.91 489.51,-620.84"/>
</g>
<!-- Node52&#45;&gt;Node33 -->
<g id="edge62" class="edge">
<title>Node52&#45;&gt;Node33</title>
<path fill="none" stroke="midnightblue" d="M588.37,-613.39C632.67,-598.59 695,-568.29 695,-515 695,-515 695,-515 695,-457 695,-326.94 722.32,-170.03 729.36,-131.74"/>
<polygon fill="midnightblue" stroke="midnightblue" points="587.13,-610.11 578.66,-616.48 589.25,-616.78 587.13,-610.11"/>
</g>
<!-- Node52&#45;&gt;Node35 -->
<g id="edge56" class="edge">
<title>Node52&#45;&gt;Node35</title>
<path fill="none" stroke="midnightblue" d="M539.98,-606.39C525.27,-551.88 482.68,-393.99 472.3,-355.52"/>
<polygon fill="midnightblue" stroke="midnightblue" points="536.69,-607.63 542.67,-616.38 543.45,-605.81 536.69,-607.63"/>
</g>
<!-- Node52&#45;&gt;Node39 -->
<g id="edge60" class="edge">
<title>Node52&#45;&gt;Node39</title>
<path fill="none" stroke="midnightblue" d="M544.71,-605.9C544.16,-567.48 543,-478.1 543,-403 543,-403 543,-403 543,-345 543,-283.95 462.05,-253.69 417.15,-241.6"/>
<polygon fill="midnightblue" stroke="midnightblue" points="541.22,-606.17 544.86,-616.12 548.21,-606.07 541.22,-606.17"/>
</g>
<!-- Node52&#45;&gt;Node41 -->
<g id="edge63" class="edge">
<title>Node52&#45;&gt;Node41</title>
<path fill="none" stroke="midnightblue" d="M594.11,-612.89C611,-606.13 628.12,-595.75 638,-580 650.11,-560.68 629.35,-395.33 624.14,-355.57"/>
<polygon fill="midnightblue" stroke="midnightblue" points="592.46,-609.77 584.25,-616.48 594.85,-616.35 592.46,-609.77"/>
</g>
<!-- Node37 -->
<g id="node41" class="node">
<title>Node37</title>
<g id="a_node41"><a xlink:href="api_2spec_2crypto_8h.html" target="_top" xlink:title=" ">
<polygon fill="white" stroke="red" points="573,-560.5 573,-579.5 629,-579.5 629,-560.5 573,-560.5"/>
<text text-anchor="middle" x="601" y="-567.5" font-family="Helvetica,sans-Serif" font-size="10.00">crypto.h</text>
</a>
</g>
</g>
<!-- Node52&#45;&gt;Node37 -->
<g id="edge55" class="edge">
<title>Node52&#45;&gt;Node37</title>
<path fill="none" stroke="midnightblue" d="M561.33,-609.25C571.26,-599.67 583.59,-587.79 591.84,-579.83"/>
<polygon fill="midnightblue" stroke="midnightblue" points="558.77,-606.86 554,-616.32 563.63,-611.9 558.77,-606.86"/>
</g>
<!-- Node53 -->
<g id="node42" class="node">
<title>Node53</title>
<g id="a_node42"><a xlink:href="api_2spec_2event_8h.html" target="_top" xlink:title=" ">
<polygon fill="white" stroke="red" points="252.5,-560.5 252.5,-579.5 305.5,-579.5 305.5,-560.5 252.5,-560.5"/>
<text text-anchor="middle" x="279" y="-567.5" font-family="Helvetica,sans-Serif" font-size="10.00">event.h</text>
</a>
</g>
</g>
<!-- Node52&#45;&gt;Node53 -->
<g id="edge58" class="edge">
<title>Node52&#45;&gt;Node53</title>
<path fill="none" stroke="midnightblue" d="M489.73,-615.18C442.81,-606.63 373.78,-593.5 314,-580 311.31,-579.39 308.51,-578.73 305.71,-578.04"/>
<polygon fill="midnightblue" stroke="midnightblue" points="489.22,-618.65 499.69,-616.99 490.47,-611.76 489.22,-618.65"/>
</g>
<!-- Node31 -->
<g id="node43" class="node">
<title>Node31</title>
<g id="a_node43"><a xlink:href="api_2spec_2ipsec_8h.html" target="_top" xlink:title=" ">
<polygon fill="white" stroke="red" points="323.5,-560.5 323.5,-579.5 374.5,-579.5 374.5,-560.5 323.5,-560.5"/>
<text text-anchor="middle" x="349" y="-567.5" font-family="Helvetica,sans-Serif" font-size="10.00">ipsec.h</text>
</a>
</g>
</g>
<!-- Node52&#45;&gt;Node31 -->
<g id="edge59" class="edge">
<title>Node52&#45;&gt;Node31</title>
<path fill="none" stroke="midnightblue" d="M503.96,-613.69C464.94,-602.94 407.48,-587.11 374.6,-578.05"/>
<polygon fill="midnightblue" stroke="midnightblue" points="503.37,-617.16 513.94,-616.44 505.23,-610.41 503.37,-617.16"/>
</g>
<!-- Node55 -->
<g id="node44" class="node">
<title>Node55</title>
<g id="a_node44"><a xlink:href="api_2spec_2packet__flags_8h.html" target="_top" xlink:title=" ">
<polygon fill="white" stroke="red" points="393,-560.5 393,-579.5 479,-579.5 479,-560.5 393,-560.5"/>
<text text-anchor="middle" x="436" y="-567.5" font-family="Helvetica,sans-Serif" font-size="10.00">packet_flags.h</text>
</a>
</g>
</g>
<!-- Node52&#45;&gt;Node55 -->
<g id="edge61" class="edge">
<title>Node52&#45;&gt;Node55</title>
<path fill="none" stroke="midnightblue" d="M518.48,-611.86C498.27,-601.85 471.01,-588.35 453.47,-579.65"/>
<polygon fill="midnightblue" stroke="midnightblue" points="516.97,-615.02 527.49,-616.32 520.08,-608.75 516.97,-615.02"/>
</g>
<!-- Node58 -->
<g id="node46" class="node">
<title>Node58</title>
<g id="a_node46"><a xlink:href="api_2queue_8h.html" target="_top" xlink:title=" ">
<polygon fill="white" stroke="black" points="885,-616.5 885,-635.5 941,-635.5 941,-616.5 885,-616.5"/>
<text text-anchor="middle" x="913" y="-623.5" font-family="Helvetica,sans-Serif" font-size="10.00">queue.h</text>
</a>
</g>
</g>
<!-- Node57&#45;&gt;Node58 -->
<g id="edge65" class="edge">
<title>Node57&#45;&gt;Node58</title>
<path fill="none" stroke="midnightblue" d="M913,-661.8C913,-652.91 913,-642.78 913,-635.75"/>
<polygon fill="midnightblue" stroke="midnightblue" points="909.5,-662.08 913,-672.08 916.5,-662.08 909.5,-662.08"/>
</g>
<!-- Node58&#45;&gt;Node12 -->
<g id="edge66" class="edge">
<title>Node58&#45;&gt;Node12</title>
<path fill="none" stroke="midnightblue" d="M917.39,-606.34C922.13,-584.56 929,-547.37 929,-515 929,-515 929,-515 929,-121 929,-46.09 819.36,-21.75 763.25,-14.21"/>
<polygon fill="midnightblue" stroke="midnightblue" points="913.95,-605.7 915.16,-616.22 920.78,-607.24 913.95,-605.7"/>
</g>
<!-- Node60 -->
<g id="node48" class="node">
<title>Node60</title>
<g id="a_node48"><a xlink:href="api_2init_8h.html" target="_top" xlink:title=" ">
<polygon fill="white" stroke="black" points="997.5,-168.5 997.5,-187.5 1038.5,-187.5 1038.5,-168.5 997.5,-168.5"/>
<text text-anchor="middle" x="1018" y="-175.5" font-family="Helvetica,sans-Serif" font-size="10.00">init.h</text>
</a>
</g>
</g>
<!-- Node59&#45;&gt;Node60 -->
<g id="edge72" class="edge">
<title>Node59&#45;&gt;Node60</title>
<path fill="none" stroke="midnightblue" d="M1018,-1054.25C1018,-1032.36 1018,-995.05 1018,-963 1018,-963 1018,-963 1018,-289 1018,-251.19 1018,-206.06 1018,-187.56"/>
<polygon fill="midnightblue" stroke="midnightblue" points="1014.5,-1054.44 1018,-1064.44 1021.5,-1054.44 1014.5,-1054.44"/>
</g>
<!-- Node60&#45;&gt;Node12 -->
<g id="edge76" class="edge">
<title>Node60&#45;&gt;Node12</title>
<path fill="none" stroke="midnightblue" d="M1018.31,-158.05C1017.64,-131.16 1012.16,-82.26 983,-56 951.04,-27.23 823.42,-16.24 763.01,-12.59"/>
<polygon fill="midnightblue" stroke="midnightblue" points="1014.81,-158.42 1018.35,-168.41 1021.81,-158.39 1014.81,-158.42"/>
</g>
<!-- Node61 -->
<g id="node49" class="node">
<title>Node61</title>
<g id="a_node49"><a xlink:href="api_2spec_2shared__memory_8h.html" target="_top" xlink:title=" ">
<polygon fill="white" stroke="black" points="1035,-112.5 1035,-131.5 1139,-131.5 1139,-112.5 1035,-112.5"/>
<text text-anchor="middle" x="1087" y="-119.5" font-family="Helvetica,sans-Serif" font-size="10.00">shared_memory.h</text>
</a>
</g>
</g>
<!-- Node60&#45;&gt;Node61 -->
<g id="edge73" class="edge">
<title>Node60&#45;&gt;Node61</title>
<path fill="none" stroke="midnightblue" d="M1037.04,-162.1C1049.46,-152.38 1065.24,-140.03 1075.71,-131.83"/>
<polygon fill="midnightblue" stroke="midnightblue" points="1034.8,-159.4 1029.09,-168.32 1039.12,-164.92 1034.8,-159.4"/>
</g>
<!-- Node62 -->
<g id="node50" class="node">
<title>Node62</title>
<g id="a_node50"><a xlink:href="api_2shared__memory_8h.html" target="_top" xlink:title=" ">
<polygon fill="white" stroke="black" points="1035,-56.5 1035,-75.5 1139,-75.5 1139,-56.5 1035,-56.5"/>
<text text-anchor="middle" x="1087" y="-63.5" font-family="Helvetica,sans-Serif" font-size="10.00">shared_memory.h</text>
</a>
</g>
</g>
<!-- Node61&#45;&gt;Node62 -->
<g id="edge74" class="edge">
<title>Node61&#45;&gt;Node62</title>
<path fill="none" stroke="midnightblue" d="M1087,-101.8C1087,-92.91 1087,-82.78 1087,-75.75"/>
<polygon fill="midnightblue" stroke="midnightblue" points="1083.5,-102.08 1087,-112.08 1090.5,-102.08 1083.5,-102.08"/>
</g>
<!-- Node62&#45;&gt;Node12 -->
<g id="edge75" class="edge">
<title>Node62&#45;&gt;Node12</title>
<path fill="none" stroke="midnightblue" d="M1024.89,-55.58C948.62,-44.01 822.11,-24.82 763.13,-15.87"/>
<polygon fill="midnightblue" stroke="midnightblue" points="1024.44,-59.05 1034.85,-57.09 1025.49,-52.13 1024.44,-59.05"/>
</g>
</g>
</svg>
