<?xml version="1.0" encoding="UTF-8" standalone="no"?>
<!DOCTYPE svg PUBLIC "-//W3C//DTD SVG 1.1//EN"
 "http://www.w3.org/Graphics/SVG/1.1/DTD/svg11.dtd">
<!-- Generated by graphviz version 2.43.0 (0)
 -->
<!-- Title: align.h Pages: 1 -->
<svg width="3041pt" height="476pt"
 viewBox="0.00 0.00 3040.50 476.00" xmlns="http://www.w3.org/2000/svg" xmlns:xlink="http://www.w3.org/1999/xlink">
<g id="graph0" class="graph" transform="scale(1 1) rotate(0) translate(4 472)">
<title>align.h</title>
<polygon fill="white" stroke="transparent" points="-4,4 -4,-472 3036.5,-472 3036.5,4 -4,4"/>
<!-- Node1 -->
<g id="node1" class="node">
<title>Node1</title>
<g id="a_node1"><a xlink:title=" ">
<polygon fill="#bfbfbf" stroke="black" points="1918.5,-448.5 1918.5,-467.5 1968.5,-467.5 1968.5,-448.5 1918.5,-448.5"/>
<text text-anchor="middle" x="1943.5" y="-455.5" font-family="Helvetica,sans-Serif" font-size="10.00">align.h</text>
</a>
</g>
</g>
<!-- Node2 -->
<g id="node2" class="node">
<title>Node2</title>
<g id="a_node2"><a xlink:href="api_2align_8h.html" target="_top" xlink:title=" ">
<polygon fill="white" stroke="black" points="1918.5,-392.5 1918.5,-411.5 1968.5,-411.5 1968.5,-392.5 1918.5,-392.5"/>
<text text-anchor="middle" x="1943.5" y="-399.5" font-family="Helvetica,sans-Serif" font-size="10.00">align.h</text>
</a>
</g>
</g>
<!-- Node1&#45;&gt;Node2 -->
<g id="edge1" class="edge">
<title>Node1&#45;&gt;Node2</title>
<path fill="none" stroke="midnightblue" d="M1943.5,-437.8C1943.5,-428.91 1943.5,-418.78 1943.5,-411.75"/>
<polygon fill="midnightblue" stroke="midnightblue" points="1940,-438.08 1943.5,-448.08 1947,-438.08 1940,-438.08"/>
</g>
<!-- Node3 -->
<g id="node3" class="node">
<title>Node3</title>
<g id="a_node3"><a xlink:href="api_2abi-default_2atomic_8h.html" target="_top" xlink:title=" ">
<polygon fill="white" stroke="black" points="154,-224.5 154,-243.5 213,-243.5 213,-224.5 154,-224.5"/>
<text text-anchor="middle" x="183.5" y="-231.5" font-family="Helvetica,sans-Serif" font-size="10.00">atomic.h</text>
</a>
</g>
</g>
<!-- Node2&#45;&gt;Node3 -->
<g id="edge2" class="edge">
<title>Node2&#45;&gt;Node3</title>
<path fill="none" stroke="midnightblue" d="M1908.08,-399.64C1727.74,-392.3 894.02,-353.73 221.5,-244 218.82,-243.56 216.06,-243.04 213.29,-242.48"/>
<polygon fill="midnightblue" stroke="midnightblue" points="1908.17,-403.14 1918.3,-400.05 1908.45,-396.15 1908.17,-403.14"/>
</g>
<!-- Node19 -->
<g id="node13" class="node">
<title>Node19</title>
<g id="a_node13"><a xlink:href="odp__api_8h.html" target="_top" xlink:title=" ">
<polygon fill="white" stroke="black" points="2241.5,-0.5 2241.5,-19.5 2305.5,-19.5 2305.5,-0.5 2241.5,-0.5"/>
<text text-anchor="middle" x="2273.5" y="-7.5" font-family="Helvetica,sans-Serif" font-size="10.00">odp_api.h</text>
</a>
</g>
</g>
<!-- Node2&#45;&gt;Node19 -->
<g id="edge62" class="edge">
<title>Node2&#45;&gt;Node19</title>
<path fill="none" stroke="midnightblue" d="M1978.65,-401.22C2165.35,-401.96 3032.5,-399.52 3032.5,-291 3032.5,-291 3032.5,-291 3032.5,-121 3032.5,-46.35 2450.09,-18.08 2305.63,-12.21"/>
<polygon fill="midnightblue" stroke="midnightblue" points="1978.57,-397.72 1968.55,-401.18 1978.54,-404.72 1978.57,-397.72"/>
</g>
<!-- Node44 -->
<g id="node14" class="node">
<title>Node44</title>
<g id="a_node14"><a xlink:href="api_2abi-default_2cpumask_8h.html" target="_top" xlink:title=" ">
<polygon fill="white" stroke="black" points="2649.5,-224.5 2649.5,-243.5 2719.5,-243.5 2719.5,-224.5 2649.5,-224.5"/>
<text text-anchor="middle" x="2684.5" y="-231.5" font-family="Helvetica,sans-Serif" font-size="10.00">cpumask.h</text>
</a>
</g>
</g>
<!-- Node2&#45;&gt;Node44 -->
<g id="edge14" class="edge">
<title>Node2&#45;&gt;Node44</title>
<path fill="none" stroke="midnightblue" d="M1978.35,-393.19C2102.72,-365.33 2523.98,-270.96 2649.15,-242.92"/>
<polygon fill="midnightblue" stroke="midnightblue" points="1977.57,-389.78 1968.58,-395.38 1979.1,-396.61 1977.57,-389.78"/>
</g>
<!-- Node112 -->
<g id="node23" class="node">
<title>Node112</title>
<g id="a_node23"><a xlink:href="api_2spec_2std__types_8h.html" target="_top" xlink:title=" ">
<polygon fill="white" stroke="black" points="1875,-336.5 1875,-355.5 1948,-355.5 1948,-336.5 1875,-336.5"/>
<text text-anchor="middle" x="1911.5" y="-343.5" font-family="Helvetica,sans-Serif" font-size="10.00">std_types.h</text>
</a>
</g>
</g>
<!-- Node2&#45;&gt;Node112 -->
<g id="edge24" class="edge">
<title>Node2&#45;&gt;Node112</title>
<path fill="none" stroke="midnightblue" d="M1933,-383.27C1927.53,-374.05 1921.08,-363.17 1916.69,-355.75"/>
<polygon fill="midnightblue" stroke="midnightblue" points="1930.11,-385.26 1938.22,-392.08 1936.13,-381.7 1930.11,-385.26"/>
</g>
<!-- Node4 -->
<g id="node4" class="node">
<title>Node4</title>
<g id="a_node4"><a xlink:href="arch_2arm32-linux_2odp_2api_2abi_2atomic_8h_source.html" target="_top" xlink:title=" ">
<polygon fill="white" stroke="black" points="154,-168.5 154,-187.5 213,-187.5 213,-168.5 154,-168.5"/>
<text text-anchor="middle" x="183.5" y="-175.5" font-family="Helvetica,sans-Serif" font-size="10.00">atomic.h</text>
</a>
</g>
</g>
<!-- Node3&#45;&gt;Node4 -->
<g id="edge3" class="edge">
<title>Node3&#45;&gt;Node4</title>
<path fill="none" stroke="midnightblue" d="M183.5,-213.8C183.5,-204.91 183.5,-194.78 183.5,-187.75"/>
<polygon fill="midnightblue" stroke="midnightblue" points="180,-214.08 183.5,-224.08 187,-214.08 180,-214.08"/>
</g>
<!-- Node5 -->
<g id="node5" class="node">
<title>Node5</title>
<g id="a_node5"><a xlink:href="arch_2arm64-linux_2odp_2api_2abi_2atomic_8h_source.html" target="_top" xlink:title=" ">
<polygon fill="white" stroke="black" points="231,-168.5 231,-187.5 290,-187.5 290,-168.5 231,-168.5"/>
<text text-anchor="middle" x="260.5" y="-175.5" font-family="Helvetica,sans-Serif" font-size="10.00">atomic.h</text>
</a>
</g>
</g>
<!-- Node3&#45;&gt;Node5 -->
<g id="edge4" class="edge">
<title>Node3&#45;&gt;Node5</title>
<path fill="none" stroke="midnightblue" d="M204.4,-218.34C218.41,-208.52 236.38,-195.91 248.16,-187.65"/>
<polygon fill="midnightblue" stroke="midnightblue" points="202.05,-215.72 195.87,-224.32 206.07,-221.45 202.05,-215.72"/>
</g>
<!-- Node6 -->
<g id="node6" class="node">
<title>Node6</title>
<g id="a_node6"><a xlink:href="arch_2default-linux_2odp_2api_2abi_2atomic_8h_source.html" target="_top" xlink:title=" ">
<polygon fill="white" stroke="black" points="308,-168.5 308,-187.5 367,-187.5 367,-168.5 308,-168.5"/>
<text text-anchor="middle" x="337.5" y="-175.5" font-family="Helvetica,sans-Serif" font-size="10.00">atomic.h</text>
</a>
</g>
</g>
<!-- Node3&#45;&gt;Node6 -->
<g id="edge5" class="edge">
<title>Node3&#45;&gt;Node6</title>
<path fill="none" stroke="midnightblue" d="M217.61,-221.04C246.59,-210.88 287.46,-196.55 313.21,-187.52"/>
<polygon fill="midnightblue" stroke="midnightblue" points="216.18,-217.83 207.9,-224.44 218.5,-224.44 216.18,-217.83"/>
</g>
<!-- Node7 -->
<g id="node7" class="node">
<title>Node7</title>
<g id="a_node7"><a xlink:href="arch_2power64-linux_2odp_2api_2abi_2atomic_8h_source.html" target="_top" xlink:title=" ">
<polygon fill="white" stroke="black" points="0,-168.5 0,-187.5 59,-187.5 59,-168.5 0,-168.5"/>
<text text-anchor="middle" x="29.5" y="-175.5" font-family="Helvetica,sans-Serif" font-size="10.00">atomic.h</text>
</a>
</g>
</g>
<!-- Node3&#45;&gt;Node7 -->
<g id="edge6" class="edge">
<title>Node3&#45;&gt;Node7</title>
<path fill="none" stroke="midnightblue" d="M149.39,-221.04C120.41,-210.88 79.54,-196.55 53.79,-187.52"/>
<polygon fill="midnightblue" stroke="midnightblue" points="148.5,-224.44 159.1,-224.44 150.82,-217.83 148.5,-224.44"/>
</g>
<!-- Node8 -->
<g id="node8" class="node">
<title>Node8</title>
<g id="a_node8"><a xlink:href="arch_2x86__32-linux_2odp_2api_2abi_2atomic_8h_source.html" target="_top" xlink:title=" ">
<polygon fill="white" stroke="black" points="77,-168.5 77,-187.5 136,-187.5 136,-168.5 77,-168.5"/>
<text text-anchor="middle" x="106.5" y="-175.5" font-family="Helvetica,sans-Serif" font-size="10.00">atomic.h</text>
</a>
</g>
</g>
<!-- Node3&#45;&gt;Node8 -->
<g id="edge7" class="edge">
<title>Node3&#45;&gt;Node8</title>
<path fill="none" stroke="midnightblue" d="M162.6,-218.34C148.59,-208.52 130.62,-195.91 118.84,-187.65"/>
<polygon fill="midnightblue" stroke="midnightblue" points="160.93,-221.45 171.13,-224.32 164.95,-215.72 160.93,-221.45"/>
</g>
<!-- Node9 -->
<g id="node9" class="node">
<title>Node9</title>
<g id="a_node9"><a xlink:href="arch_2x86__64-linux_2odp_2api_2abi_2atomic_8h_source.html" target="_top" xlink:title=" ">
<polygon fill="white" stroke="black" points="1206,-168.5 1206,-187.5 1265,-187.5 1265,-168.5 1206,-168.5"/>
<text text-anchor="middle" x="1235.5" y="-175.5" font-family="Helvetica,sans-Serif" font-size="10.00">atomic.h</text>
</a>
</g>
</g>
<!-- Node3&#45;&gt;Node9 -->
<g id="edge8" class="edge">
<title>Node3&#45;&gt;Node9</title>
<path fill="none" stroke="midnightblue" d="M223.23,-224.05C438.83,-196.05 1061.69,-182.41 1205.6,-179.57"/>
<polygon fill="midnightblue" stroke="midnightblue" points="222.71,-220.58 213.27,-225.39 223.65,-227.52 222.71,-220.58"/>
</g>
<!-- Node10 -->
<g id="node10" class="node">
<title>Node10</title>
<g id="a_node10"><a xlink:href="api_2atomic_8h.html" target="_top" xlink:title=" ">
<polygon fill="white" stroke="red" points="2065,-112.5 2065,-131.5 2124,-131.5 2124,-112.5 2065,-112.5"/>
<text text-anchor="middle" x="2094.5" y="-119.5" font-family="Helvetica,sans-Serif" font-size="10.00">atomic.h</text>
</a>
</g>
</g>
<!-- Node9&#45;&gt;Node10 -->
<g id="edge9" class="edge">
<title>Node9&#45;&gt;Node10</title>
<path fill="none" stroke="midnightblue" d="M1275.45,-174.49C1422.96,-165.22 1935.19,-133.02 2064.61,-124.88"/>
<polygon fill="midnightblue" stroke="midnightblue" points="1274.83,-171.02 1265.07,-175.14 1275.27,-178.01 1274.83,-171.02"/>
</g>
<!-- Node11 -->
<g id="node11" class="node">
<title>Node11</title>
<g id="a_node11"><a xlink:href="api_2abi-default_2barrier_8h.html" target="_top" xlink:title=" ">
<polygon fill="white" stroke="red" points="2113,-56.5 2113,-75.5 2170,-75.5 2170,-56.5 2113,-56.5"/>
<text text-anchor="middle" x="2141.5" y="-63.5" font-family="Helvetica,sans-Serif" font-size="10.00">barrier.h</text>
</a>
</g>
</g>
<!-- Node10&#45;&gt;Node11 -->
<g id="edge10" class="edge">
<title>Node10&#45;&gt;Node11</title>
<path fill="none" stroke="midnightblue" d="M2108.92,-104.43C2117.16,-94.97 2127.15,-83.48 2133.88,-75.75"/>
<polygon fill="midnightblue" stroke="midnightblue" points="2106.19,-102.24 2102.26,-112.08 2111.47,-106.84 2106.19,-102.24"/>
</g>
<!-- Node18 -->
<g id="node12" class="node">
<title>Node18</title>
<g id="a_node12"><a xlink:href="api_2barrier_8h.html" target="_top" xlink:title=" ">
<polygon fill="white" stroke="black" points="2188,-56.5 2188,-75.5 2245,-75.5 2245,-56.5 2188,-56.5"/>
<text text-anchor="middle" x="2216.5" y="-63.5" font-family="Helvetica,sans-Serif" font-size="10.00">barrier.h</text>
</a>
</g>
</g>
<!-- Node10&#45;&gt;Node18 -->
<g id="edge11" class="edge">
<title>Node10&#45;&gt;Node18</title>
<path fill="none" stroke="midnightblue" d="M2123.04,-108.37C2145.89,-98.26 2177.31,-84.35 2197.26,-75.52"/>
<polygon fill="midnightblue" stroke="midnightblue" points="2121.56,-105.2 2113.83,-112.44 2124.39,-111.6 2121.56,-105.2"/>
</g>
<!-- Node10&#45;&gt;Node19 -->
<g id="edge13" class="edge">
<title>Node10&#45;&gt;Node19</title>
<path fill="none" stroke="midnightblue" d="M2091.93,-101.97C2091.11,-87.63 2092.53,-68.38 2103.5,-56 2121.57,-35.6 2197.09,-21.77 2241.16,-15.27"/>
<polygon fill="midnightblue" stroke="midnightblue" points="2088.48,-102.58 2092.94,-112.19 2095.44,-101.9 2088.48,-102.58"/>
</g>
<!-- Node18&#45;&gt;Node19 -->
<g id="edge12" class="edge">
<title>Node18&#45;&gt;Node19</title>
<path fill="none" stroke="midnightblue" d="M2233.12,-49.25C2243.23,-39.67 2255.78,-27.79 2264.18,-19.83"/>
<polygon fill="midnightblue" stroke="midnightblue" points="2230.51,-46.91 2225.66,-56.32 2235.32,-51.99 2230.51,-46.91"/>
</g>
<!-- Node45 -->
<g id="node15" class="node">
<title>Node45</title>
<g id="a_node15"><a xlink:href="arch_2arm32-linux_2odp_2api_2abi_2cpumask_8h_source.html" target="_top" xlink:title=" ">
<polygon fill="white" stroke="black" points="2846.5,-168.5 2846.5,-187.5 2916.5,-187.5 2916.5,-168.5 2846.5,-168.5"/>
<text text-anchor="middle" x="2881.5" y="-175.5" font-family="Helvetica,sans-Serif" font-size="10.00">cpumask.h</text>
</a>
</g>
</g>
<!-- Node44&#45;&gt;Node45 -->
<g id="edge15" class="edge">
<title>Node44&#45;&gt;Node45</title>
<path fill="none" stroke="midnightblue" d="M2725.73,-221.7C2762.91,-211.51 2816.77,-196.74 2850.43,-187.52"/>
<polygon fill="midnightblue" stroke="midnightblue" points="2724.43,-218.42 2715.72,-224.44 2726.28,-225.18 2724.43,-218.42"/>
</g>
<!-- Node46 -->
<g id="node16" class="node">
<title>Node46</title>
<g id="a_node16"><a xlink:href="arch_2arm64-linux_2odp_2api_2abi_2cpumask_8h_source.html" target="_top" xlink:title=" ">
<polygon fill="white" stroke="black" points="2934.5,-168.5 2934.5,-187.5 3004.5,-187.5 3004.5,-168.5 2934.5,-168.5"/>
<text text-anchor="middle" x="2969.5" y="-175.5" font-family="Helvetica,sans-Serif" font-size="10.00">cpumask.h</text>
</a>
</g>
</g>
<!-- Node44&#45;&gt;Node46 -->
<g id="edge16" class="edge">
<title>Node44&#45;&gt;Node46</title>
<path fill="none" stroke="midnightblue" d="M2729.51,-224.83C2777.96,-215.99 2857.25,-201.35 2925.5,-188 2928.41,-187.43 2931.42,-186.83 2934.45,-186.23"/>
<polygon fill="midnightblue" stroke="midnightblue" points="2728.87,-221.39 2719.66,-226.63 2730.12,-228.28 2728.87,-221.39"/>
</g>
<!-- Node47 -->
<g id="node17" class="node">
<title>Node47</title>
<g id="a_node17"><a xlink:href="arch_2default-linux_2odp_2api_2abi_2cpumask_8h_source.html" target="_top" xlink:title=" ">
<polygon fill="white" stroke="black" points="2582.5,-168.5 2582.5,-187.5 2652.5,-187.5 2652.5,-168.5 2582.5,-168.5"/>
<text text-anchor="middle" x="2617.5" y="-175.5" font-family="Helvetica,sans-Serif" font-size="10.00">cpumask.h</text>
</a>
</g>
</g>
<!-- Node44&#45;&gt;Node47 -->
<g id="edge17" class="edge">
<title>Node44&#45;&gt;Node47</title>
<path fill="none" stroke="midnightblue" d="M2665.67,-217.82C2653.66,-208.15 2638.53,-195.95 2628.46,-187.83"/>
<polygon fill="midnightblue" stroke="midnightblue" points="2663.75,-220.77 2673.74,-224.32 2668.15,-215.32 2663.75,-220.77"/>
</g>
<!-- Node48 -->
<g id="node18" class="node">
<title>Node48</title>
<g id="a_node18"><a xlink:href="arch_2power64-linux_2odp_2api_2abi_2cpumask_8h_source.html" target="_top" xlink:title=" ">
<polygon fill="white" stroke="black" points="2670.5,-168.5 2670.5,-187.5 2740.5,-187.5 2740.5,-168.5 2670.5,-168.5"/>
<text text-anchor="middle" x="2705.5" y="-175.5" font-family="Helvetica,sans-Serif" font-size="10.00">cpumask.h</text>
</a>
</g>
</g>
<!-- Node44&#45;&gt;Node48 -->
<g id="edge18" class="edge">
<title>Node44&#45;&gt;Node48</title>
<path fill="none" stroke="midnightblue" d="M2691.62,-214.69C2695.16,-205.59 2699.27,-195.01 2702.1,-187.75"/>
<polygon fill="midnightblue" stroke="midnightblue" points="2688.33,-213.49 2687.97,-224.08 2694.85,-216.03 2688.33,-213.49"/>
</g>
<!-- Node49 -->
<g id="node19" class="node">
<title>Node49</title>
<g id="a_node19"><a xlink:href="arch_2x86__32-linux_2odp_2api_2abi_2cpumask_8h_source.html" target="_top" xlink:title=" ">
<polygon fill="white" stroke="black" points="2758.5,-168.5 2758.5,-187.5 2828.5,-187.5 2828.5,-168.5 2758.5,-168.5"/>
<text text-anchor="middle" x="2793.5" y="-175.5" font-family="Helvetica,sans-Serif" font-size="10.00">cpumask.h</text>
</a>
</g>
</g>
<!-- Node44&#45;&gt;Node49 -->
<g id="edge19" class="edge">
<title>Node44&#45;&gt;Node49</title>
<path fill="none" stroke="midnightblue" d="M2711.02,-219.86C2731.23,-209.85 2758.49,-196.35 2776.03,-187.65"/>
<polygon fill="midnightblue" stroke="midnightblue" points="2709.42,-216.75 2702.01,-224.32 2712.53,-223.02 2709.42,-216.75"/>
</g>
<!-- Node50 -->
<g id="node20" class="node">
<title>Node50</title>
<g id="a_node20"><a xlink:href="arch_2x86__64-linux_2odp_2api_2abi_2cpumask_8h_source.html" target="_top" xlink:title=" ">
<polygon fill="white" stroke="black" points="2494.5,-168.5 2494.5,-187.5 2564.5,-187.5 2564.5,-168.5 2494.5,-168.5"/>
<text text-anchor="middle" x="2529.5" y="-175.5" font-family="Helvetica,sans-Serif" font-size="10.00">cpumask.h</text>
</a>
</g>
</g>
<!-- Node44&#45;&gt;Node50 -->
<g id="edge20" class="edge">
<title>Node44&#45;&gt;Node50</title>
<path fill="none" stroke="midnightblue" d="M2650.17,-221.04C2621,-210.88 2579.86,-196.55 2553.95,-187.52"/>
<polygon fill="midnightblue" stroke="midnightblue" points="2649.34,-224.46 2659.94,-224.44 2651.65,-217.85 2649.34,-224.46"/>
</g>
<!-- Node51 -->
<g id="node21" class="node">
<title>Node51</title>
<g id="a_node21"><a xlink:href="api_2cpumask_8h.html" target="_top" xlink:title=" ">
<polygon fill="white" stroke="red" points="2494.5,-112.5 2494.5,-131.5 2564.5,-131.5 2564.5,-112.5 2494.5,-112.5"/>
<text text-anchor="middle" x="2529.5" y="-119.5" font-family="Helvetica,sans-Serif" font-size="10.00">cpumask.h</text>
</a>
</g>
</g>
<!-- Node50&#45;&gt;Node51 -->
<g id="edge21" class="edge">
<title>Node50&#45;&gt;Node51</title>
<path fill="none" stroke="midnightblue" d="M2529.5,-157.8C2529.5,-148.91 2529.5,-138.78 2529.5,-131.75"/>
<polygon fill="midnightblue" stroke="midnightblue" points="2526,-158.08 2529.5,-168.08 2533,-158.08 2526,-158.08"/>
</g>
<!-- Node51&#45;&gt;Node19 -->
<g id="edge23" class="edge">
<title>Node51&#45;&gt;Node19</title>
<path fill="none" stroke="midnightblue" d="M2528.47,-102.33C2526.63,-87.59 2521.67,-67.64 2508.5,-56 2478.77,-29.73 2362.59,-17.61 2305.51,-13.15"/>
<polygon fill="midnightblue" stroke="midnightblue" points="2524.99,-102.7 2529.36,-112.35 2531.96,-102.09 2524.99,-102.7"/>
</g>
<!-- Node108 -->
<g id="node22" class="node">
<title>Node108</title>
<g id="a_node22"><a xlink:href="api_2spec_2init_8h.html" target="_top" xlink:title=" ">
<polygon fill="white" stroke="red" points="2458,-56.5 2458,-75.5 2499,-75.5 2499,-56.5 2458,-56.5"/>
<text text-anchor="middle" x="2478.5" y="-63.5" font-family="Helvetica,sans-Serif" font-size="10.00">init.h</text>
</a>
</g>
</g>
<!-- Node51&#45;&gt;Node108 -->
<g id="edge22" class="edge">
<title>Node51&#45;&gt;Node108</title>
<path fill="none" stroke="midnightblue" d="M2514.12,-104.72C2505.13,-95.2 2494.14,-83.56 2486.76,-75.75"/>
<polygon fill="midnightblue" stroke="midnightblue" points="2511.67,-107.22 2521.08,-112.08 2516.76,-102.41 2511.67,-107.22"/>
</g>
<!-- Node113 -->
<g id="node24" class="node">
<title>Node113</title>
<g id="a_node24"><a xlink:href="api_2std__types_8h.html" target="_top" xlink:title=" ">
<polygon fill="white" stroke="red" points="1632,-280.5 1632,-299.5 1705,-299.5 1705,-280.5 1632,-280.5"/>
<text text-anchor="middle" x="1668.5" y="-287.5" font-family="Helvetica,sans-Serif" font-size="10.00">std_types.h</text>
</a>
</g>
</g>
<!-- Node112&#45;&gt;Node113 -->
<g id="edge25" class="edge">
<title>Node112&#45;&gt;Node113</title>
<path fill="none" stroke="midnightblue" d="M1865.02,-334.67C1818.45,-324.32 1747.74,-308.61 1705.04,-299.12"/>
<polygon fill="midnightblue" stroke="midnightblue" points="1864.34,-338.1 1874.86,-336.86 1865.85,-331.27 1864.34,-338.1"/>
</g>
<!-- Node113&#45;&gt;Node3 -->
<g id="edge26" class="edge">
<title>Node113&#45;&gt;Node3</title>
<path fill="none" stroke="midnightblue" d="M1621.79,-288.81C1405.7,-287.75 501.57,-281.14 221.5,-244 218.81,-243.64 216.04,-243.18 213.27,-242.65"/>
<polygon fill="midnightblue" stroke="midnightblue" points="1621.83,-292.31 1631.85,-288.86 1621.87,-285.31 1621.83,-292.31"/>
</g>
<!-- Node113&#45;&gt;Node11 -->
<g id="edge27" class="edge">
<title>Node113&#45;&gt;Node11</title>
<path fill="none" stroke="midnightblue" d="M1715.51,-287.77C1826.95,-284.38 2100.03,-273.17 2128.5,-244 2174.77,-196.59 2152.49,-103.97 2144.17,-75.52"/>
<polygon fill="midnightblue" stroke="midnightblue" points="1715.13,-284.28 1705.24,-288.07 1715.34,-291.28 1715.13,-284.28"/>
</g>
<!-- Node113&#45;&gt;Node18 -->
<g id="edge37" class="edge">
<title>Node113&#45;&gt;Node18</title>
<path fill="none" stroke="midnightblue" d="M1715.55,-287.4C1829.88,-283.12 2115.46,-269.94 2149.5,-244 2178.12,-222.19 2206.8,-108.16 2214.5,-75.66"/>
<polygon fill="midnightblue" stroke="midnightblue" points="1715.22,-283.91 1705.36,-287.78 1715.48,-290.91 1715.22,-283.91"/>
</g>
<!-- Node113&#45;&gt;Node19 -->
<g id="edge61" class="edge">
<title>Node113&#45;&gt;Node19</title>
<path fill="none" stroke="midnightblue" d="M1715.11,-287.52C1820.41,-283.71 2069.46,-271.82 2094.5,-244 2100.45,-237.39 2096.27,-232.71 2094.5,-224 2085.66,-180.48 2064.34,-175.52 2055.5,-132 2048.09,-95.56 2060.38,-77.81 2090.5,-56 2135.82,-23.19 2202.24,-14.13 2241.36,-11.74"/>
<polygon fill="midnightblue" stroke="midnightblue" points="1714.96,-284.03 1705.09,-287.88 1715.2,-291.02 1714.96,-284.03"/>
</g>
<!-- Node113&#45;&gt;Node44 -->
<g id="edge29" class="edge">
<title>Node113&#45;&gt;Node44</title>
<path fill="none" stroke="midnightblue" d="M1715.3,-288.1C1853.24,-285.18 2270.1,-274.28 2614.5,-244 2625.85,-243 2638.19,-241.54 2649.31,-240.09"/>
<polygon fill="midnightblue" stroke="midnightblue" points="1715.02,-284.61 1705.1,-288.32 1715.17,-291.61 1715.02,-284.61"/>
</g>
<!-- Node113&#45;&gt;Node108 -->
<g id="edge53" class="edge">
<title>Node113&#45;&gt;Node108</title>
<path fill="none" stroke="midnightblue" d="M1715.24,-288.46C1897.43,-286.15 2551.38,-275.64 2581.5,-244 2587.63,-237.56 2586.56,-231.31 2581.5,-224 2555.54,-186.55 2512.53,-224.69 2485.5,-188 2460.04,-153.44 2470.71,-97.12 2476.1,-75.67"/>
<polygon fill="midnightblue" stroke="midnightblue" points="1715.13,-284.96 1705.17,-288.59 1715.22,-291.96 1715.13,-284.96"/>
</g>
<!-- Node114 -->
<g id="node25" class="node">
<title>Node114</title>
<g id="a_node25"><a xlink:href="api_2abi-default_2byteorder_8h.html" target="_top" xlink:title=" ">
<polygon fill="white" stroke="red" points="2440.5,-224.5 2440.5,-243.5 2512.5,-243.5 2512.5,-224.5 2440.5,-224.5"/>
<text text-anchor="middle" x="2476.5" y="-231.5" font-family="Helvetica,sans-Serif" font-size="10.00">byteorder.h</text>
</a>
</g>
</g>
<!-- Node113&#45;&gt;Node114 -->
<g id="edge28" class="edge">
<title>Node113&#45;&gt;Node114</title>
<path fill="none" stroke="midnightblue" d="M1715.48,-288.49C1835.31,-286.69 2161.94,-278.73 2431.5,-244 2434.34,-243.63 2437.28,-243.19 2440.22,-242.7"/>
<polygon fill="midnightblue" stroke="midnightblue" points="1715.15,-284.99 1705.2,-288.63 1715.25,-291.99 1715.15,-284.99"/>
</g>
<!-- Node122 -->
<g id="node26" class="node">
<title>Node122</title>
<g id="a_node26"><a xlink:href="api_2abi-default_2init_8h.html" target="_top" xlink:title=" ">
<polygon fill="white" stroke="red" points="2531,-224.5 2531,-243.5 2572,-243.5 2572,-224.5 2531,-224.5"/>
<text text-anchor="middle" x="2551.5" y="-231.5" font-family="Helvetica,sans-Serif" font-size="10.00">init.h</text>
</a>
</g>
</g>
<!-- Node113&#45;&gt;Node122 -->
<g id="edge30" class="edge">
<title>Node113&#45;&gt;Node122</title>
<path fill="none" stroke="midnightblue" d="M1715.45,-288C1870.39,-284.46 2364.57,-271.27 2521.5,-244 2524.61,-243.46 2527.85,-242.7 2531,-241.85"/>
<polygon fill="midnightblue" stroke="midnightblue" points="1715.23,-284.5 1705.31,-288.23 1715.39,-291.5 1715.23,-284.5"/>
</g>
<!-- Node129 -->
<g id="node27" class="node">
<title>Node129</title>
<g id="a_node27"><a xlink:href="api_2abi-default_2ipsec__types_8h_source.html" target="_top" xlink:title=" ">
<polygon fill="white" stroke="red" points="231,-224.5 231,-243.5 314,-243.5 314,-224.5 231,-224.5"/>
<text text-anchor="middle" x="272.5" y="-231.5" font-family="Helvetica,sans-Serif" font-size="10.00">ipsec_types.h</text>
</a>
</g>
</g>
<!-- Node113&#45;&gt;Node129 -->
<g id="edge31" class="edge">
<title>Node113&#45;&gt;Node129</title>
<path fill="none" stroke="midnightblue" d="M1621.5,-288.32C1414.53,-285.18 583.17,-271.12 323.5,-244 320.46,-243.68 317.33,-243.29 314.18,-242.85"/>
<polygon fill="midnightblue" stroke="midnightblue" points="1621.67,-291.82 1631.72,-288.47 1621.77,-284.82 1621.67,-291.82"/>
</g>
<!-- Node136 -->
<g id="node28" class="node">
<title>Node136</title>
<g id="a_node28"><a xlink:href="api_2abi-default_2packet__io__types_8h.html" target="_top" xlink:title=" ">
<polygon fill="white" stroke="red" points="332.5,-224.5 332.5,-243.5 436.5,-243.5 436.5,-224.5 332.5,-224.5"/>
<text text-anchor="middle" x="384.5" y="-231.5" font-family="Helvetica,sans-Serif" font-size="10.00">packet_io_types.h</text>
</a>
</g>
</g>
<!-- Node113&#45;&gt;Node136 -->
<g id="edge32" class="edge">
<title>Node113&#45;&gt;Node136</title>
<path fill="none" stroke="midnightblue" d="M1621.74,-289.12C1459.02,-289.16 902.53,-286 445.5,-244 442.62,-243.74 439.67,-243.43 436.7,-243.09"/>
<polygon fill="midnightblue" stroke="midnightblue" points="1621.89,-292.62 1631.89,-289.12 1621.89,-285.62 1621.89,-292.62"/>
</g>
<!-- Node28 -->
<g id="node29" class="node">
<title>Node28</title>
<g id="a_node29"><a xlink:href="api_2abi-default_2rwlock__recursive_8h.html" target="_top" xlink:title=" ">
<polygon fill="white" stroke="red" points="454.5,-224.5 454.5,-243.5 562.5,-243.5 562.5,-224.5 454.5,-224.5"/>
<text text-anchor="middle" x="508.5" y="-231.5" font-family="Helvetica,sans-Serif" font-size="10.00">rwlock_recursive.h</text>
</a>
</g>
</g>
<!-- Node113&#45;&gt;Node28 -->
<g id="edge33" class="edge">
<title>Node113&#45;&gt;Node28</title>
<path fill="none" stroke="midnightblue" d="M1621.61,-288.77C1469.62,-287.65 976.99,-281.18 571.5,-244 568.64,-243.74 565.71,-243.44 562.76,-243.11"/>
<polygon fill="midnightblue" stroke="midnightblue" points="1621.93,-292.27 1631.95,-288.84 1621.98,-285.27 1621.93,-292.27"/>
</g>
<!-- Node143 -->
<g id="node30" class="node">
<title>Node143</title>
<g id="a_node30"><a xlink:href="api_2abi-default_2schedule__types_8h.html" target="_top" xlink:title=" ">
<polygon fill="white" stroke="red" points="581,-224.5 581,-243.5 682,-243.5 682,-224.5 581,-224.5"/>
<text text-anchor="middle" x="631.5" y="-231.5" font-family="Helvetica,sans-Serif" font-size="10.00">schedule_types.h</text>
</a>
</g>
</g>
<!-- Node113&#45;&gt;Node143 -->
<g id="edge34" class="edge">
<title>Node113&#45;&gt;Node143</title>
<path fill="none" stroke="midnightblue" d="M1621.54,-288.55C1480.45,-286.82 1048.02,-278.86 691.5,-244 688.46,-243.7 685.34,-243.36 682.19,-242.98"/>
<polygon fill="midnightblue" stroke="midnightblue" points="1621.54,-292.05 1631.58,-288.67 1621.62,-285.05 1621.54,-292.05"/>
</g>
<!-- Node150 -->
<g id="node31" class="node">
<title>Node150</title>
<g id="a_node31"><a xlink:href="api_2abi-default_2spinlock__recursive_8h.html" target="_top" xlink:title=" ">
<polygon fill="white" stroke="red" points="700.5,-224.5 700.5,-243.5 816.5,-243.5 816.5,-224.5 700.5,-224.5"/>
<text text-anchor="middle" x="758.5" y="-231.5" font-family="Helvetica,sans-Serif" font-size="10.00">spinlock_recursive.h</text>
</a>
</g>
</g>
<!-- Node113&#45;&gt;Node150 -->
<g id="edge35" class="edge">
<title>Node113&#45;&gt;Node150</title>
<path fill="none" stroke="midnightblue" d="M1621.65,-287.82C1493.78,-284.31 1128.17,-272.36 825.5,-244 822.58,-243.73 819.59,-243.42 816.57,-243.09"/>
<polygon fill="midnightblue" stroke="midnightblue" points="1621.77,-291.32 1631.86,-288.09 1621.96,-284.32 1621.77,-291.32"/>
</g>
<!-- Node158 -->
<g id="node32" class="node">
<title>Node158</title>
<g id="a_node32"><a xlink:href="api_2abi-default_2traffic__mngr_8h.html" target="_top" xlink:title=" ">
<polygon fill="white" stroke="red" points="834.5,-224.5 834.5,-243.5 918.5,-243.5 918.5,-224.5 834.5,-224.5"/>
<text text-anchor="middle" x="876.5" y="-231.5" font-family="Helvetica,sans-Serif" font-size="10.00">traffic_mngr.h</text>
</a>
</g>
</g>
<!-- Node113&#45;&gt;Node158 -->
<g id="edge36" class="edge">
<title>Node113&#45;&gt;Node158</title>
<path fill="none" stroke="midnightblue" d="M1621.61,-288.07C1504.15,-285.32 1188.02,-275.36 926.5,-244 923.96,-243.7 921.35,-243.34 918.73,-242.96"/>
<polygon fill="midnightblue" stroke="midnightblue" points="1621.61,-291.57 1631.69,-288.3 1621.77,-284.57 1621.61,-291.57"/>
</g>
<!-- Node77 -->
<g id="node33" class="node">
<title>Node77</title>
<g id="a_node33"><a xlink:href="api_2classification_8h.html" target="_top" xlink:title=" ">
<polygon fill="white" stroke="red" points="2323,-168.5 2323,-187.5 2412,-187.5 2412,-168.5 2323,-168.5"/>
<text text-anchor="middle" x="2367.5" y="-175.5" font-family="Helvetica,sans-Serif" font-size="10.00">classification.h</text>
</a>
</g>
</g>
<!-- Node113&#45;&gt;Node77 -->
<g id="edge38" class="edge">
<title>Node113&#45;&gt;Node77</title>
<path fill="none" stroke="midnightblue" d="M1715.45,-288.93C1840.13,-288.21 2177.1,-282.63 2280.5,-244 2313.7,-231.6 2345.06,-202.36 2359.37,-187.7"/>
<polygon fill="midnightblue" stroke="midnightblue" points="1715.08,-285.43 1705.1,-288.98 1715.11,-292.43 1715.08,-285.43"/>
</g>
<!-- Node78 -->
<g id="node34" class="node">
<title>Node78</title>
<g id="a_node34"><a xlink:href="api_2spec_2ipsec__types_8h.html" target="_top" xlink:title=" ">
<polygon fill="white" stroke="red" points="2317,-112.5 2317,-131.5 2400,-131.5 2400,-112.5 2317,-112.5"/>
<text text-anchor="middle" x="2358.5" y="-119.5" font-family="Helvetica,sans-Serif" font-size="10.00">ipsec_types.h</text>
</a>
</g>
</g>
<!-- Node113&#45;&gt;Node78 -->
<g id="edge55" class="edge">
<title>Node113&#45;&gt;Node78</title>
<path fill="none" stroke="midnightblue" d="M1715.23,-289.12C1832.44,-288.82 2136.07,-284.07 2227.5,-244 2242.6,-237.38 2323.26,-158.01 2349.93,-131.53"/>
<polygon fill="midnightblue" stroke="midnightblue" points="1715.13,-285.62 1705.14,-289.14 1715.14,-292.62 1715.13,-285.62"/>
</g>
<!-- Node165 -->
<g id="node35" class="node">
<title>Node165</title>
<g id="a_node35"><a xlink:href="api_2proto__stats_8h.html" target="_top" xlink:title=" ">
<polygon fill="white" stroke="black" points="2218.5,-112.5 2218.5,-131.5 2298.5,-131.5 2298.5,-112.5 2218.5,-112.5"/>
<text text-anchor="middle" x="2258.5" y="-119.5" font-family="Helvetica,sans-Serif" font-size="10.00">proto_stats.h</text>
</a>
</g>
</g>
<!-- Node113&#45;&gt;Node165 -->
<g id="edge41" class="edge">
<title>Node113&#45;&gt;Node165</title>
<path fill="none" stroke="midnightblue" d="M1715.62,-287.76C1839.07,-284.13 2165.1,-271.97 2204.5,-244 2243.33,-216.43 2254.67,-154.33 2257.59,-131.57"/>
<polygon fill="midnightblue" stroke="midnightblue" points="1715.25,-284.27 1705.36,-288.05 1715.45,-291.26 1715.25,-284.27"/>
</g>
<!-- Node74 -->
<g id="node36" class="node">
<title>Node74</title>
<g id="a_node36"><a xlink:href="api_2spec_2buffer_8h.html" target="_top" xlink:title=" ">
<polygon fill="white" stroke="red" points="936,-224.5 936,-243.5 989,-243.5 989,-224.5 936,-224.5"/>
<text text-anchor="middle" x="962.5" y="-231.5" font-family="Helvetica,sans-Serif" font-size="10.00">buffer.h</text>
</a>
</g>
</g>
<!-- Node113&#45;&gt;Node74 -->
<g id="edge43" class="edge">
<title>Node113&#45;&gt;Node74</title>
<path fill="none" stroke="midnightblue" d="M1621.88,-288.71C1512.4,-287.42 1230.56,-280.5 998.5,-244 995.45,-243.52 992.27,-242.9 989.13,-242.22"/>
<polygon fill="midnightblue" stroke="midnightblue" points="1621.9,-292.21 1631.93,-288.82 1621.97,-285.21 1621.9,-292.21"/>
</g>
<!-- Node166 -->
<g id="node37" class="node">
<title>Node166</title>
<g id="a_node37"><a xlink:href="spec_2chksum_8h.html" target="_top" xlink:title=" ">
<polygon fill="white" stroke="red" points="1007.5,-224.5 1007.5,-243.5 1071.5,-243.5 1071.5,-224.5 1007.5,-224.5"/>
<text text-anchor="middle" x="1039.5" y="-231.5" font-family="Helvetica,sans-Serif" font-size="10.00">chksum.h</text>
</a>
</g>
</g>
<!-- Node113&#45;&gt;Node166 -->
<g id="edge44" class="edge">
<title>Node113&#45;&gt;Node166</title>
<path fill="none" stroke="midnightblue" d="M1621.77,-287.64C1521.92,-284.25 1280.56,-273.47 1080.5,-244 1077.62,-243.58 1074.63,-243.06 1071.65,-242.5"/>
<polygon fill="midnightblue" stroke="midnightblue" points="1621.72,-291.14 1631.83,-287.97 1621.95,-284.14 1621.72,-291.14"/>
</g>
<!-- Node76 -->
<g id="node38" class="node">
<title>Node76</title>
<g id="a_node38"><a xlink:href="api_2spec_2classification_8h.html" target="_top" xlink:title=" ">
<polygon fill="white" stroke="black" points="2333,-224.5 2333,-243.5 2422,-243.5 2422,-224.5 2333,-224.5"/>
<text text-anchor="middle" x="2377.5" y="-231.5" font-family="Helvetica,sans-Serif" font-size="10.00">classification.h</text>
</a>
</g>
</g>
<!-- Node113&#45;&gt;Node76 -->
<g id="edge45" class="edge">
<title>Node113&#45;&gt;Node76</title>
<path fill="none" stroke="midnightblue" d="M1715.39,-287.08C1822.51,-282.4 2093.27,-268.93 2318.5,-244 2323.13,-243.49 2327.96,-242.88 2332.77,-242.22"/>
<polygon fill="midnightblue" stroke="midnightblue" points="1715.09,-283.59 1705.25,-287.52 1715.39,-290.58 1715.09,-283.59"/>
</g>
<!-- Node66 -->
<g id="node39" class="node">
<title>Node66</title>
<g id="a_node39"><a xlink:href="api_2spec_2comp_8h.html" target="_top" xlink:title=" ">
<polygon fill="white" stroke="red" points="1090,-224.5 1090,-243.5 1143,-243.5 1143,-224.5 1090,-224.5"/>
<text text-anchor="middle" x="1116.5" y="-231.5" font-family="Helvetica,sans-Serif" font-size="10.00">comp.h</text>
</a>
</g>
</g>
<!-- Node113&#45;&gt;Node66 -->
<g id="edge47" class="edge">
<title>Node113&#45;&gt;Node66</title>
<path fill="none" stroke="midnightblue" d="M1621.89,-287.52C1530.87,-284.05 1323.38,-273.37 1151.5,-244 1148.78,-243.53 1145.96,-242.96 1143.16,-242.34"/>
<polygon fill="midnightblue" stroke="midnightblue" points="1621.76,-291.01 1631.88,-287.89 1622.02,-284.02 1621.76,-291.01"/>
</g>
<!-- Node168 -->
<g id="node40" class="node">
<title>Node168</title>
<g id="a_node40"><a xlink:href="api_2spec_2cpu_8h.html" target="_top" xlink:title=" ">
<polygon fill="white" stroke="red" points="1161,-224.5 1161,-243.5 1204,-243.5 1204,-224.5 1161,-224.5"/>
<text text-anchor="middle" x="1182.5" y="-231.5" font-family="Helvetica,sans-Serif" font-size="10.00">cpu.h</text>
</a>
</g>
</g>
<!-- Node113&#45;&gt;Node168 -->
<g id="edge48" class="edge">
<title>Node113&#45;&gt;Node168</title>
<path fill="none" stroke="midnightblue" d="M1621.8,-287.22C1538.91,-283.42 1360.93,-272.44 1213.5,-244 1210.42,-243.41 1207.2,-242.64 1204.06,-241.81"/>
<polygon fill="midnightblue" stroke="midnightblue" points="1621.75,-290.72 1631.9,-287.66 1622.06,-283.72 1621.75,-290.72"/>
</g>
<!-- Node86 -->
<g id="node41" class="node">
<title>Node86</title>
<g id="a_node41"><a xlink:href="api_2spec_2crypto_8h.html" target="_top" xlink:title=" ">
<polygon fill="white" stroke="red" points="1222.5,-224.5 1222.5,-243.5 1278.5,-243.5 1278.5,-224.5 1222.5,-224.5"/>
<text text-anchor="middle" x="1250.5" y="-231.5" font-family="Helvetica,sans-Serif" font-size="10.00">crypto.h</text>
</a>
</g>
</g>
<!-- Node113&#45;&gt;Node86 -->
<g id="edge49" class="edge">
<title>Node113&#45;&gt;Node86</title>
<path fill="none" stroke="midnightblue" d="M1621.64,-285.31C1549.49,-279.2 1406.99,-265.51 1287.5,-244 1284.64,-243.48 1281.67,-242.88 1278.71,-242.23"/>
<polygon fill="midnightblue" stroke="midnightblue" points="1621.51,-288.81 1631.77,-286.15 1622.09,-281.83 1621.51,-288.81"/>
</g>
<!-- Node84 -->
<g id="node42" class="node">
<title>Node84</title>
<g id="a_node42"><a xlink:href="api_2spec_2crypto__types_8h.html" target="_top" xlink:title=" ">
<polygon fill="white" stroke="red" points="1297,-224.5 1297,-243.5 1386,-243.5 1386,-224.5 1297,-224.5"/>
<text text-anchor="middle" x="1341.5" y="-231.5" font-family="Helvetica,sans-Serif" font-size="10.00">crypto_types.h</text>
</a>
</g>
</g>
<!-- Node113&#45;&gt;Node84 -->
<g id="edge50" class="edge">
<title>Node113&#45;&gt;Node84</title>
<path fill="none" stroke="midnightblue" d="M1621.83,-281.33C1567.47,-272.4 1474.97,-257.17 1395.5,-244 1392.5,-243.5 1389.41,-242.99 1386.29,-242.47"/>
<polygon fill="midnightblue" stroke="midnightblue" points="1621.41,-284.81 1631.85,-282.98 1622.55,-277.9 1621.41,-284.81"/>
</g>
<!-- Node68 -->
<g id="node43" class="node">
<title>Node68</title>
<g id="a_node43"><a xlink:href="api_2spec_2dma__types_8h.html" target="_top" xlink:title=" ">
<polygon fill="white" stroke="red" points="1404.5,-224.5 1404.5,-243.5 1484.5,-243.5 1484.5,-224.5 1404.5,-224.5"/>
<text text-anchor="middle" x="1444.5" y="-231.5" font-family="Helvetica,sans-Serif" font-size="10.00">dma_types.h</text>
</a>
</g>
</g>
<!-- Node113&#45;&gt;Node68 -->
<g id="edge51" class="edge">
<title>Node113&#45;&gt;Node68</title>
<path fill="none" stroke="midnightblue" d="M1623.24,-278.09C1580.92,-267.89 1518.59,-252.86 1479.83,-243.52"/>
<polygon fill="midnightblue" stroke="midnightblue" points="1622.46,-281.5 1633.01,-280.44 1624.11,-274.7 1622.46,-281.5"/>
</g>
<!-- Node170 -->
<g id="node44" class="node">
<title>Node170</title>
<g id="a_node44"><a xlink:href="api_2spec_2hash_8h.html" target="_top" xlink:title=" ">
<polygon fill="white" stroke="red" points="1503,-224.5 1503,-243.5 1552,-243.5 1552,-224.5 1503,-224.5"/>
<text text-anchor="middle" x="1527.5" y="-231.5" font-family="Helvetica,sans-Serif" font-size="10.00">hash.h</text>
</a>
</g>
</g>
<!-- Node113&#45;&gt;Node170 -->
<g id="edge52" class="edge">
<title>Node113&#45;&gt;Node170</title>
<path fill="none" stroke="midnightblue" d="M1636.57,-276.77C1610.09,-266.63 1573.11,-252.47 1549.74,-243.52"/>
<polygon fill="midnightblue" stroke="midnightblue" points="1635.57,-280.14 1646.16,-280.44 1638.07,-273.6 1635.57,-280.14"/>
</g>
<!-- Node80 -->
<g id="node45" class="node">
<title>Node80</title>
<g id="a_node45"><a xlink:href="api_2spec_2ipsec_8h.html" target="_top" xlink:title=" ">
<polygon fill="white" stroke="red" points="1570,-224.5 1570,-243.5 1621,-243.5 1621,-224.5 1570,-224.5"/>
<text text-anchor="middle" x="1595.5" y="-231.5" font-family="Helvetica,sans-Serif" font-size="10.00">ipsec.h</text>
</a>
</g>
</g>
<!-- Node113&#45;&gt;Node80 -->
<g id="edge54" class="edge">
<title>Node113&#45;&gt;Node80</title>
<path fill="none" stroke="midnightblue" d="M1648.36,-274.1C1635.22,-264.38 1618.52,-252.03 1607.44,-243.83"/>
<polygon fill="midnightblue" stroke="midnightblue" points="1646.65,-277.19 1656.77,-280.32 1650.81,-271.56 1646.65,-277.19"/>
</g>
<!-- Node88 -->
<g id="node46" class="node">
<title>Node88</title>
<g id="a_node46"><a xlink:href="api_2spec_2packet_8h.html" target="_top" xlink:title=" ">
<polygon fill="white" stroke="red" points="1639.5,-224.5 1639.5,-243.5 1697.5,-243.5 1697.5,-224.5 1639.5,-224.5"/>
<text text-anchor="middle" x="1668.5" y="-231.5" font-family="Helvetica,sans-Serif" font-size="10.00">packet.h</text>
</a>
</g>
</g>
<!-- Node113&#45;&gt;Node88 -->
<g id="edge56" class="edge">
<title>Node113&#45;&gt;Node88</title>
<path fill="none" stroke="midnightblue" d="M1668.5,-269.8C1668.5,-260.91 1668.5,-250.78 1668.5,-243.75"/>
<polygon fill="midnightblue" stroke="midnightblue" points="1665,-270.08 1668.5,-280.08 1672,-270.08 1665,-270.08"/>
</g>
<!-- Node104 -->
<g id="node47" class="node">
<title>Node104</title>
<g id="a_node47"><a xlink:href="api_2spec_2packet__flags_8h.html" target="_top" xlink:title=" ">
<polygon fill="white" stroke="red" points="1715.5,-224.5 1715.5,-243.5 1801.5,-243.5 1801.5,-224.5 1715.5,-224.5"/>
<text text-anchor="middle" x="1758.5" y="-231.5" font-family="Helvetica,sans-Serif" font-size="10.00">packet_flags.h</text>
</a>
</g>
</g>
<!-- Node113&#45;&gt;Node104 -->
<g id="edge57" class="edge">
<title>Node113&#45;&gt;Node104</title>
<path fill="none" stroke="midnightblue" d="M1691.54,-275.18C1708.1,-265.24 1729.92,-252.15 1744.08,-243.65"/>
<polygon fill="midnightblue" stroke="midnightblue" points="1689.73,-272.18 1682.96,-280.32 1693.34,-278.18 1689.73,-272.18"/>
</g>
<!-- Node90 -->
<g id="node48" class="node">
<title>Node90</title>
<g id="a_node48"><a xlink:href="api_2spec_2packet__io__types_8h.html" target="_top" xlink:title=" ">
<polygon fill="white" stroke="red" points="1819.5,-224.5 1819.5,-243.5 1923.5,-243.5 1923.5,-224.5 1819.5,-224.5"/>
<text text-anchor="middle" x="1871.5" y="-231.5" font-family="Helvetica,sans-Serif" font-size="10.00">packet_io_types.h</text>
</a>
</g>
</g>
<!-- Node113&#45;&gt;Node90 -->
<g id="edge58" class="edge">
<title>Node113&#45;&gt;Node90</title>
<path fill="none" stroke="midnightblue" d="M1710.49,-277.83C1748.82,-267.63 1804.65,-252.78 1839.48,-243.52"/>
<polygon fill="midnightblue" stroke="midnightblue" points="1709.43,-274.49 1700.67,-280.44 1711.23,-281.26 1709.43,-274.49"/>
</g>
<!-- Node94 -->
<g id="node49" class="node">
<title>Node94</title>
<g id="a_node49"><a xlink:href="api_2spec_2pool_8h.html" target="_top" xlink:title=" ">
<polygon fill="white" stroke="red" points="1942,-224.5 1942,-243.5 1989,-243.5 1989,-224.5 1942,-224.5"/>
<text text-anchor="middle" x="1965.5" y="-231.5" font-family="Helvetica,sans-Serif" font-size="10.00">pool.h</text>
</a>
</g>
</g>
<!-- Node113&#45;&gt;Node94 -->
<g id="edge59" class="edge">
<title>Node113&#45;&gt;Node94</title>
<path fill="none" stroke="midnightblue" d="M1715.11,-282.46C1768.07,-274.7 1856.95,-260.7 1932.5,-244 1935.52,-243.33 1938.67,-242.57 1941.78,-241.77"/>
<polygon fill="midnightblue" stroke="midnightblue" points="1714.41,-279.02 1705.02,-283.93 1715.41,-285.95 1714.41,-279.02"/>
</g>
<!-- Node72 -->
<g id="node50" class="node">
<title>Node72</title>
<g id="a_node50"><a xlink:href="api_2spec_2pool__types_8h.html" target="_top" xlink:title=" ">
<polygon fill="white" stroke="red" points="2007,-224.5 2007,-243.5 2086,-243.5 2086,-224.5 2007,-224.5"/>
<text text-anchor="middle" x="2046.5" y="-231.5" font-family="Helvetica,sans-Serif" font-size="10.00">pool_types.h</text>
</a>
</g>
</g>
<!-- Node113&#45;&gt;Node72 -->
<g id="edge60" class="edge">
<title>Node113&#45;&gt;Node72</title>
<path fill="none" stroke="midnightblue" d="M1715.25,-283.29C1779.12,-275.33 1897.2,-260.06 1997.5,-244 2000.57,-243.51 2003.75,-242.98 2006.95,-242.43"/>
<polygon fill="midnightblue" stroke="midnightblue" points="1714.59,-279.84 1705.09,-284.55 1715.45,-286.79 1714.59,-279.84"/>
</g>
<!-- Node77&#45;&gt;Node19 -->
<g id="edge40" class="edge">
<title>Node77&#45;&gt;Node19</title>
<path fill="none" stroke="midnightblue" d="M2387.99,-161.89C2402.72,-149.06 2418.52,-129.93 2409.5,-112 2385.52,-64.31 2327.18,-33.48 2295.26,-19.57"/>
<polygon fill="midnightblue" stroke="midnightblue" points="2385.63,-159.29 2380.08,-168.32 2390.05,-164.73 2385.63,-159.29"/>
</g>
<!-- Node77&#45;&gt;Node78 -->
<g id="edge39" class="edge">
<title>Node77&#45;&gt;Node78</title>
<path fill="none" stroke="midnightblue" d="M2364.35,-158.1C2362.86,-149.14 2361.14,-138.86 2359.96,-131.75"/>
<polygon fill="midnightblue" stroke="midnightblue" points="2360.92,-158.79 2366.01,-168.08 2367.82,-157.64 2360.92,-158.79"/>
</g>
<!-- Node165&#45;&gt;Node19 -->
<g id="edge42" class="edge">
<title>Node165&#45;&gt;Node19</title>
<path fill="none" stroke="midnightblue" d="M2261.04,-102.35C2264.33,-78.25 2269.91,-37.31 2272.33,-19.59"/>
<polygon fill="midnightblue" stroke="midnightblue" points="2257.56,-101.99 2259.68,-112.37 2264.5,-102.93 2257.56,-101.99"/>
</g>
<!-- Node76&#45;&gt;Node77 -->
<g id="edge46" class="edge">
<title>Node76&#45;&gt;Node77</title>
<path fill="none" stroke="midnightblue" d="M2374,-214.1C2372.34,-205.14 2370.44,-194.86 2369.12,-187.75"/>
<polygon fill="midnightblue" stroke="midnightblue" points="2370.59,-214.89 2375.85,-224.08 2377.47,-213.61 2370.59,-214.89"/>
</g>
</g>
</svg>
