<?xml version="1.0" encoding="UTF-8" standalone="no"?>
<!DOCTYPE svg PUBLIC "-//W3C//DTD SVG 1.1//EN"
 "http://www.w3.org/Graphics/SVG/1.1/DTD/svg11.dtd">
<!-- Generated by graphviz version 2.43.0 (0)
 -->
<!-- Title: packet_io_types.h Pages: 1 -->
<svg width="1626pt" height="868pt"
 viewBox="0.00 0.00 1625.50 868.00" xmlns="http://www.w3.org/2000/svg" xmlns:xlink="http://www.w3.org/1999/xlink">
<g id="graph0" class="graph" transform="scale(1 1) rotate(0) translate(4 864)">
<title>packet_io_types.h</title>
<polygon fill="white" stroke="transparent" points="-4,4 -4,-864 1621.5,-864 1621.5,4 -4,4"/>
<!-- Node1 -->
<g id="node1" class="node">
<title>Node1</title>
<g id="a_node1"><a xlink:title=" ">
<polygon fill="#bfbfbf" stroke="black" points="305,-840.5 305,-859.5 409,-859.5 409,-840.5 305,-840.5"/>
<text text-anchor="middle" x="357" y="-847.5" font-family="Helvetica,sans-Serif" font-size="10.00">packet_io_types.h</text>
</a>
</g>
</g>
<!-- Node2 -->
<g id="node2" class="node">
<title>Node2</title>
<g id="a_node2"><a xlink:href="arch_2arm32-linux_2odp_2api_2abi_2packet__io__types_8h_source.html" target="_top" xlink:title=" ">
<polygon fill="white" stroke="black" points="0,-784.5 0,-803.5 104,-803.5 104,-784.5 0,-784.5"/>
<text text-anchor="middle" x="52" y="-791.5" font-family="Helvetica,sans-Serif" font-size="10.00">packet_io_types.h</text>
</a>
</g>
</g>
<!-- Node1&#45;&gt;Node2 -->
<g id="edge1" class="edge">
<title>Node1&#45;&gt;Node2</title>
<path fill="none" stroke="midnightblue" d="M298.62,-838.66C240.98,-828.46 153.88,-813.04 100.1,-803.52"/>
<polygon fill="midnightblue" stroke="midnightblue" points="298.21,-842.15 308.67,-840.44 299.44,-835.25 298.21,-842.15"/>
</g>
<!-- Node3 -->
<g id="node3" class="node">
<title>Node3</title>
<g id="a_node3"><a xlink:href="arch_2arm64-linux_2odp_2api_2abi_2packet__io__types_8h_source.html" target="_top" xlink:title=" ">
<polygon fill="white" stroke="black" points="122,-784.5 122,-803.5 226,-803.5 226,-784.5 122,-784.5"/>
<text text-anchor="middle" x="174" y="-791.5" font-family="Helvetica,sans-Serif" font-size="10.00">packet_io_types.h</text>
</a>
</g>
</g>
<!-- Node1&#45;&gt;Node3 -->
<g id="edge2" class="edge">
<title>Node1&#45;&gt;Node3</title>
<path fill="none" stroke="midnightblue" d="M318.26,-837.57C283.74,-827.38 233.99,-812.7 202.86,-803.52"/>
<polygon fill="midnightblue" stroke="midnightblue" points="317.42,-840.97 328,-840.44 319.4,-834.26 317.42,-840.97"/>
</g>
<!-- Node4 -->
<g id="node4" class="node">
<title>Node4</title>
<g id="a_node4"><a xlink:href="arch_2default-linux_2odp_2api_2abi_2packet__io__types_8h_source.html" target="_top" xlink:title=" ">
<polygon fill="white" stroke="black" points="244,-784.5 244,-803.5 348,-803.5 348,-784.5 244,-784.5"/>
<text text-anchor="middle" x="296" y="-791.5" font-family="Helvetica,sans-Serif" font-size="10.00">packet_io_types.h</text>
</a>
</g>
</g>
<!-- Node1&#45;&gt;Node4 -->
<g id="edge3" class="edge">
<title>Node1&#45;&gt;Node4</title>
<path fill="none" stroke="midnightblue" d="M339.53,-833.54C328.66,-823.91 315.06,-811.87 305.98,-803.83"/>
<polygon fill="midnightblue" stroke="midnightblue" points="337.39,-836.32 347.2,-840.32 342.03,-831.07 337.39,-836.32"/>
</g>
<!-- Node5 -->
<g id="node5" class="node">
<title>Node5</title>
<g id="a_node5"><a xlink:href="arch_2power64-linux_2odp_2api_2abi_2packet__io__types_8h_source.html" target="_top" xlink:title=" ">
<polygon fill="white" stroke="black" points="366,-784.5 366,-803.5 470,-803.5 470,-784.5 366,-784.5"/>
<text text-anchor="middle" x="418" y="-791.5" font-family="Helvetica,sans-Serif" font-size="10.00">packet_io_types.h</text>
</a>
</g>
</g>
<!-- Node1&#45;&gt;Node5 -->
<g id="edge4" class="edge">
<title>Node1&#45;&gt;Node5</title>
<path fill="none" stroke="midnightblue" d="M374.47,-833.54C385.34,-823.91 398.94,-811.87 408.02,-803.83"/>
<polygon fill="midnightblue" stroke="midnightblue" points="371.97,-831.07 366.8,-840.32 376.61,-836.32 371.97,-831.07"/>
</g>
<!-- Node6 -->
<g id="node6" class="node">
<title>Node6</title>
<g id="a_node6"><a xlink:href="arch_2x86__32-linux_2odp_2api_2abi_2packet__io__types_8h_source.html" target="_top" xlink:title=" ">
<polygon fill="white" stroke="black" points="488,-784.5 488,-803.5 592,-803.5 592,-784.5 488,-784.5"/>
<text text-anchor="middle" x="540" y="-791.5" font-family="Helvetica,sans-Serif" font-size="10.00">packet_io_types.h</text>
</a>
</g>
</g>
<!-- Node1&#45;&gt;Node6 -->
<g id="edge5" class="edge">
<title>Node1&#45;&gt;Node6</title>
<path fill="none" stroke="midnightblue" d="M395.74,-837.57C430.26,-827.38 480.01,-812.7 511.14,-803.52"/>
<polygon fill="midnightblue" stroke="midnightblue" points="394.6,-834.26 386,-840.44 396.58,-840.97 394.6,-834.26"/>
</g>
<!-- Node7 -->
<g id="node7" class="node">
<title>Node7</title>
<g id="a_node7"><a xlink:href="arch_2x86__64-linux_2odp_2api_2abi_2packet__io__types_8h_source.html" target="_top" xlink:title=" ">
<polygon fill="white" stroke="black" points="610,-784.5 610,-803.5 714,-803.5 714,-784.5 610,-784.5"/>
<text text-anchor="middle" x="662" y="-791.5" font-family="Helvetica,sans-Serif" font-size="10.00">packet_io_types.h</text>
</a>
</g>
</g>
<!-- Node1&#45;&gt;Node7 -->
<g id="edge6" class="edge">
<title>Node1&#45;&gt;Node7</title>
<path fill="none" stroke="midnightblue" d="M415.38,-838.66C473.02,-828.46 560.12,-813.04 613.9,-803.52"/>
<polygon fill="midnightblue" stroke="midnightblue" points="414.56,-835.25 405.33,-840.44 415.79,-842.15 414.56,-835.25"/>
</g>
<!-- Node8 -->
<g id="node8" class="node">
<title>Node8</title>
<g id="a_node8"><a xlink:href="packet__io__stats_8h.html" target="_top" xlink:title=" ">
<polygon fill="white" stroke="black" points="590.5,-504.5 590.5,-523.5 691.5,-523.5 691.5,-504.5 590.5,-504.5"/>
<text text-anchor="middle" x="641" y="-511.5" font-family="Helvetica,sans-Serif" font-size="10.00">packet_io_stats.h</text>
</a>
</g>
</g>
<!-- Node7&#45;&gt;Node8 -->
<g id="edge7" class="edge">
<title>Node7&#45;&gt;Node8</title>
<path fill="none" stroke="midnightblue" d="M651.86,-775.43C640.6,-754.24 624,-717.19 624,-683 624,-683 624,-683 624,-625 624,-586.93 634.07,-542.31 638.71,-523.77"/>
<polygon fill="midnightblue" stroke="midnightblue" points="648.82,-777.17 656.72,-784.23 654.95,-773.78 648.82,-777.17"/>
</g>
<!-- Node13 -->
<g id="node13" class="node">
<title>Node13</title>
<g id="a_node13"><a xlink:href="api_2packet__io__types_8h.html" target="_top" xlink:title=" ">
<polygon fill="white" stroke="black" points="829,-392.5 829,-411.5 933,-411.5 933,-392.5 829,-392.5"/>
<text text-anchor="middle" x="881" y="-399.5" font-family="Helvetica,sans-Serif" font-size="10.00">packet_io_types.h</text>
</a>
</g>
</g>
<!-- Node7&#45;&gt;Node13 -->
<g id="edge31" class="edge">
<title>Node7&#45;&gt;Node13</title>
<path fill="none" stroke="midnightblue" d="M663.04,-774.22C667.14,-717.59 686.78,-546.39 777,-448 794.09,-429.37 820.22,-418.1 842.02,-411.5"/>
<polygon fill="midnightblue" stroke="midnightblue" points="659.55,-774.03 662.39,-784.23 666.53,-774.48 659.55,-774.03"/>
</g>
<!-- Node24 -->
<g id="node24" class="node">
<title>Node24</title>
<g id="a_node24"><a xlink:href="api_2packet__types_8h.html" target="_top" xlink:title=" ">
<polygon fill="white" stroke="black" points="1057,-728.5 1057,-747.5 1147,-747.5 1147,-728.5 1057,-728.5"/>
<text text-anchor="middle" x="1102" y="-735.5" font-family="Helvetica,sans-Serif" font-size="10.00">packet_types.h</text>
</a>
</g>
</g>
<!-- Node7&#45;&gt;Node24 -->
<g id="edge32" class="edge">
<title>Node7&#45;&gt;Node24</title>
<path fill="none" stroke="midnightblue" d="M724.24,-785.36C814.02,-774.34 977.73,-754.25 1056.83,-744.54"/>
<polygon fill="midnightblue" stroke="midnightblue" points="723.7,-781.9 714.2,-786.59 724.55,-788.85 723.7,-781.9"/>
</g>
<!-- Node9 -->
<g id="node9" class="node">
<title>Node9</title>
<g id="a_node9"><a xlink:href="api_2spec_2packet__io_8h.html" target="_top" xlink:title=" ">
<polygon fill="white" stroke="black" points="675,-224.5 675,-243.5 747,-243.5 747,-224.5 675,-224.5"/>
<text text-anchor="middle" x="711" y="-231.5" font-family="Helvetica,sans-Serif" font-size="10.00">packet_io.h</text>
</a>
</g>
</g>
<!-- Node8&#45;&gt;Node9 -->
<g id="edge8" class="edge">
<title>Node8&#45;&gt;Node9</title>
<path fill="none" stroke="midnightblue" d="M639.36,-494.27C637.58,-472.39 635,-435.1 635,-403 635,-403 635,-403 635,-345 635,-300.2 678.2,-260.43 699.46,-243.57"/>
<polygon fill="midnightblue" stroke="midnightblue" points="635.89,-494.78 640.22,-504.45 642.86,-494.19 635.89,-494.78"/>
</g>
<!-- Node12 -->
<g id="node12" class="node">
<title>Node12</title>
<g id="a_node12"><a xlink:href="api_2spec_2packet__io__types_8h.html" target="_top" xlink:title=" ">
<polygon fill="white" stroke="black" points="786,-448.5 786,-467.5 890,-467.5 890,-448.5 786,-448.5"/>
<text text-anchor="middle" x="838" y="-455.5" font-family="Helvetica,sans-Serif" font-size="10.00">packet_io_types.h</text>
</a>
</g>
</g>
<!-- Node8&#45;&gt;Node12 -->
<g id="edge11" class="edge">
<title>Node8&#45;&gt;Node12</title>
<path fill="none" stroke="midnightblue" d="M682.23,-501.7C719.41,-491.51 773.27,-476.74 806.93,-467.52"/>
<polygon fill="midnightblue" stroke="midnightblue" points="680.93,-498.42 672.22,-504.44 682.78,-505.18 680.93,-498.42"/>
</g>
<!-- Node10 -->
<g id="node10" class="node">
<title>Node10</title>
<g id="a_node10"><a xlink:href="api_2packet__io_8h.html" target="_top" xlink:title=" ">
<polygon fill="white" stroke="black" points="694,-168.5 694,-187.5 766,-187.5 766,-168.5 694,-168.5"/>
<text text-anchor="middle" x="730" y="-175.5" font-family="Helvetica,sans-Serif" font-size="10.00">packet_io.h</text>
</a>
</g>
</g>
<!-- Node9&#45;&gt;Node10 -->
<g id="edge9" class="edge">
<title>Node9&#45;&gt;Node10</title>
<path fill="none" stroke="midnightblue" d="M717.55,-214.4C720.72,-205.36 724.39,-194.94 726.92,-187.75"/>
<polygon fill="midnightblue" stroke="midnightblue" points="714.15,-213.49 714.14,-224.08 720.76,-215.81 714.15,-213.49"/>
</g>
<!-- Node11 -->
<g id="node11" class="node">
<title>Node11</title>
<g id="a_node11"><a xlink:href="odp__api_8h.html" target="_top" xlink:title=" ">
<polygon fill="white" stroke="black" points="1186,-0.5 1186,-19.5 1250,-19.5 1250,-0.5 1186,-0.5"/>
<text text-anchor="middle" x="1218" y="-7.5" font-family="Helvetica,sans-Serif" font-size="10.00">odp_api.h</text>
</a>
</g>
</g>
<!-- Node10&#45;&gt;Node11 -->
<g id="edge10" class="edge">
<title>Node10&#45;&gt;Node11</title>
<path fill="none" stroke="midnightblue" d="M736.55,-158.83C747.49,-131.37 772.29,-79.95 812,-56 874.85,-18.09 1101.51,-12.06 1185.98,-11.15"/>
<polygon fill="midnightblue" stroke="midnightblue" points="733.2,-157.79 732.92,-168.38 739.74,-160.27 733.2,-157.79"/>
</g>
<!-- Node12&#45;&gt;Node13 -->
<g id="edge12" class="edge">
<title>Node12&#45;&gt;Node13</title>
<path fill="none" stroke="midnightblue" d="M851.42,-440.14C858.91,-430.74 867.94,-419.4 874.03,-411.75"/>
<polygon fill="midnightblue" stroke="midnightblue" points="848.59,-438.08 845.1,-448.08 854.07,-442.44 848.59,-438.08"/>
</g>
<!-- Node13&#45;&gt;Node9 -->
<g id="edge26" class="edge">
<title>Node13&#45;&gt;Node9</title>
<path fill="none" stroke="midnightblue" d="M829.7,-389.49C808.56,-382.64 785.06,-372.05 768,-356 733.32,-323.39 717.63,-265.41 712.76,-243.61"/>
<polygon fill="midnightblue" stroke="midnightblue" points="828.95,-392.92 839.54,-392.47 830.98,-386.22 828.95,-392.92"/>
</g>
<!-- Node14 -->
<g id="node14" class="node">
<title>Node14</title>
<g id="a_node14"><a xlink:href="api_2spec_2classification_8h.html" target="_top" xlink:title=" ">
<polygon fill="white" stroke="black" points="777.5,-336.5 777.5,-355.5 866.5,-355.5 866.5,-336.5 777.5,-336.5"/>
<text text-anchor="middle" x="822" y="-343.5" font-family="Helvetica,sans-Serif" font-size="10.00">classification.h</text>
</a>
</g>
</g>
<!-- Node13&#45;&gt;Node14 -->
<g id="edge13" class="edge">
<title>Node13&#45;&gt;Node14</title>
<path fill="none" stroke="midnightblue" d="M864.11,-385.54C853.59,-375.91 840.43,-363.87 831.65,-355.83"/>
<polygon fill="midnightblue" stroke="midnightblue" points="861.78,-388.15 871.52,-392.32 866.51,-382.99 861.78,-388.15"/>
</g>
<!-- Node16 -->
<g id="node16" class="node">
<title>Node16</title>
<g id="a_node16"><a xlink:href="api_2spec_2ipsec__types_8h.html" target="_top" xlink:title=" ">
<polygon fill="white" stroke="black" points="954.5,-224.5 954.5,-243.5 1037.5,-243.5 1037.5,-224.5 954.5,-224.5"/>
<text text-anchor="middle" x="996" y="-231.5" font-family="Helvetica,sans-Serif" font-size="10.00">ipsec_types.h</text>
</a>
</g>
</g>
<!-- Node13&#45;&gt;Node16 -->
<g id="edge22" class="edge">
<title>Node13&#45;&gt;Node16</title>
<path fill="none" stroke="midnightblue" d="M928.61,-389.05C946.41,-382.22 965.16,-371.77 977,-356 1003.05,-321.31 999.65,-265.07 997.19,-243.66"/>
<polygon fill="midnightblue" stroke="midnightblue" points="927.14,-385.85 918.87,-392.48 929.46,-392.46 927.14,-385.85"/>
</g>
<!-- Node20 -->
<g id="node20" class="node">
<title>Node20</title>
<g id="a_node20"><a xlink:href="api_2spec_2packet_8h.html" target="_top" xlink:title=" ">
<polygon fill="white" stroke="black" points="663,-336.5 663,-355.5 721,-355.5 721,-336.5 663,-336.5"/>
<text text-anchor="middle" x="692" y="-343.5" font-family="Helvetica,sans-Serif" font-size="10.00">packet.h</text>
</a>
</g>
</g>
<!-- Node13&#45;&gt;Node20 -->
<g id="edge23" class="edge">
<title>Node13&#45;&gt;Node20</title>
<path fill="none" stroke="midnightblue" d="M841.39,-389.68C805.49,-379.43 753.42,-364.55 721.19,-355.34"/>
<polygon fill="midnightblue" stroke="midnightblue" points="840.48,-393.06 851.05,-392.44 842.4,-386.33 840.48,-393.06"/>
</g>
<!-- Node22 -->
<g id="node22" class="node">
<title>Node22</title>
<g id="a_node22"><a xlink:href="api_2spec_2traffic__mngr_8h.html" target="_top" xlink:title=" ">
<polygon fill="white" stroke="black" points="884,-336.5 884,-355.5 968,-355.5 968,-336.5 884,-336.5"/>
<text text-anchor="middle" x="926" y="-343.5" font-family="Helvetica,sans-Serif" font-size="10.00">traffic_mngr.h</text>
</a>
</g>
</g>
<!-- Node13&#45;&gt;Node22 -->
<g id="edge27" class="edge">
<title>Node13&#45;&gt;Node22</title>
<path fill="none" stroke="midnightblue" d="M895.05,-384.14C902.89,-374.74 912.33,-363.4 918.71,-355.75"/>
<polygon fill="midnightblue" stroke="midnightblue" points="892.14,-382.16 888.43,-392.08 897.52,-386.64 892.14,-382.16"/>
</g>
<!-- Node15 -->
<g id="node15" class="node">
<title>Node15</title>
<g id="a_node15"><a xlink:href="api_2classification_8h.html" target="_top" xlink:title=" ">
<polygon fill="white" stroke="black" points="777.5,-280.5 777.5,-299.5 866.5,-299.5 866.5,-280.5 777.5,-280.5"/>
<text text-anchor="middle" x="822" y="-287.5" font-family="Helvetica,sans-Serif" font-size="10.00">classification.h</text>
</a>
</g>
</g>
<!-- Node14&#45;&gt;Node15 -->
<g id="edge14" class="edge">
<title>Node14&#45;&gt;Node15</title>
<path fill="none" stroke="midnightblue" d="M822,-325.8C822,-316.91 822,-306.78 822,-299.75"/>
<polygon fill="midnightblue" stroke="midnightblue" points="818.5,-326.08 822,-336.08 825.5,-326.08 818.5,-326.08"/>
</g>
<!-- Node15&#45;&gt;Node9 -->
<g id="edge20" class="edge">
<title>Node15&#45;&gt;Node9</title>
<path fill="none" stroke="midnightblue" d="M794.99,-275.86C774.41,-265.85 746.66,-252.35 728.79,-243.65"/>
<polygon fill="midnightblue" stroke="midnightblue" points="793.64,-279.1 804.17,-280.32 796.7,-272.8 793.64,-279.1"/>
</g>
<!-- Node15&#45;&gt;Node11 -->
<g id="edge21" class="edge">
<title>Node15&#45;&gt;Node11</title>
<path fill="none" stroke="midnightblue" d="M836.53,-272.66C853.12,-252.25 878,-215.56 878,-179 878,-179 878,-179 878,-121 878,-56.71 1100.84,-24.42 1185.71,-14.45"/>
<polygon fill="midnightblue" stroke="midnightblue" points="833.8,-270.46 830.02,-280.36 839.15,-274.98 833.8,-270.46"/>
</g>
<!-- Node15&#45;&gt;Node16 -->
<g id="edge15" class="edge">
<title>Node15&#45;&gt;Node16</title>
<path fill="none" stroke="midnightblue" d="M859.26,-277.44C892.07,-267.26 939.08,-252.66 968.56,-243.52"/>
<polygon fill="midnightblue" stroke="midnightblue" points="858.08,-274.14 849.57,-280.44 860.16,-280.82 858.08,-274.14"/>
</g>
<!-- Node17 -->
<g id="node17" class="node">
<title>Node17</title>
<g id="a_node17"><a xlink:href="api_2ipsec__types_8h.html" target="_top" xlink:title=" ">
<polygon fill="white" stroke="black" points="956.5,-168.5 956.5,-187.5 1039.5,-187.5 1039.5,-168.5 956.5,-168.5"/>
<text text-anchor="middle" x="998" y="-175.5" font-family="Helvetica,sans-Serif" font-size="10.00">ipsec_types.h</text>
</a>
</g>
</g>
<!-- Node16&#45;&gt;Node17 -->
<g id="edge16" class="edge">
<title>Node16&#45;&gt;Node17</title>
<path fill="none" stroke="midnightblue" d="M996.71,-213.8C997.04,-204.91 997.42,-194.78 997.68,-187.75"/>
<polygon fill="midnightblue" stroke="midnightblue" points="993.2,-213.96 996.33,-224.08 1000.2,-214.22 993.2,-213.96"/>
</g>
<!-- Node18 -->
<g id="node18" class="node">
<title>Node18</title>
<g id="a_node18"><a xlink:href="api_2spec_2ipsec_8h.html" target="_top" xlink:title=" ">
<polygon fill="white" stroke="black" points="1057.5,-112.5 1057.5,-131.5 1108.5,-131.5 1108.5,-112.5 1057.5,-112.5"/>
<text text-anchor="middle" x="1083" y="-119.5" font-family="Helvetica,sans-Serif" font-size="10.00">ipsec.h</text>
</a>
</g>
</g>
<!-- Node17&#45;&gt;Node18 -->
<g id="edge17" class="edge">
<title>Node17&#45;&gt;Node18</title>
<path fill="none" stroke="midnightblue" d="M1020.19,-162.9C1035.78,-153 1056.13,-140.07 1069.38,-131.65"/>
<polygon fill="midnightblue" stroke="midnightblue" points="1018.22,-160.01 1011.66,-168.32 1021.97,-165.92 1018.22,-160.01"/>
</g>
<!-- Node19 -->
<g id="node19" class="node">
<title>Node19</title>
<g id="a_node19"><a xlink:href="api_2ipsec_8h.html" target="_top" xlink:title=" ">
<polygon fill="white" stroke="black" points="1064.5,-56.5 1064.5,-75.5 1115.5,-75.5 1115.5,-56.5 1064.5,-56.5"/>
<text text-anchor="middle" x="1090" y="-63.5" font-family="Helvetica,sans-Serif" font-size="10.00">ipsec.h</text>
</a>
</g>
</g>
<!-- Node18&#45;&gt;Node19 -->
<g id="edge18" class="edge">
<title>Node18&#45;&gt;Node19</title>
<path fill="none" stroke="midnightblue" d="M1085.45,-102.1C1086.61,-93.14 1087.94,-82.86 1088.87,-75.75"/>
<polygon fill="midnightblue" stroke="midnightblue" points="1081.97,-101.72 1084.16,-112.08 1088.91,-102.62 1081.97,-101.72"/>
</g>
<!-- Node19&#45;&gt;Node11 -->
<g id="edge19" class="edge">
<title>Node19&#45;&gt;Node11</title>
<path fill="none" stroke="midnightblue" d="M1119.62,-52.5C1143.62,-42.38 1176.78,-28.39 1197.81,-19.52"/>
<polygon fill="midnightblue" stroke="midnightblue" points="1118.14,-49.33 1110.28,-56.44 1120.86,-55.78 1118.14,-49.33"/>
</g>
<!-- Node21 -->
<g id="node21" class="node">
<title>Node21</title>
<g id="a_node21"><a xlink:href="api_2packet_8h.html" target="_top" xlink:title=" ">
<polygon fill="white" stroke="black" points="783,-224.5 783,-243.5 841,-243.5 841,-224.5 783,-224.5"/>
<text text-anchor="middle" x="812" y="-231.5" font-family="Helvetica,sans-Serif" font-size="10.00">packet.h</text>
</a>
</g>
</g>
<!-- Node20&#45;&gt;Node21 -->
<g id="edge24" class="edge">
<title>Node20&#45;&gt;Node21</title>
<path fill="none" stroke="midnightblue" d="M708.9,-329.51C734.54,-306.01 782.43,-262.11 802.63,-243.59"/>
<polygon fill="midnightblue" stroke="midnightblue" points="706.42,-327.03 701.42,-336.37 711.15,-332.19 706.42,-327.03"/>
</g>
<!-- Node21&#45;&gt;Node11 -->
<g id="edge25" class="edge">
<title>Node21&#45;&gt;Node11</title>
<path fill="none" stroke="midnightblue" d="M811.35,-213.98C811.23,-177.17 816.71,-96.3 864,-56 912.04,-15.06 1107.85,-10.78 1185.78,-10.74"/>
<polygon fill="midnightblue" stroke="midnightblue" points="807.86,-214.34 811.54,-224.27 814.86,-214.21 807.86,-214.34"/>
</g>
<!-- Node23 -->
<g id="node23" class="node">
<title>Node23</title>
<g id="a_node23"><a xlink:href="api_2traffic__mngr_8h.html" target="_top" xlink:title=" ">
<polygon fill="white" stroke="black" points="884,-280.5 884,-299.5 968,-299.5 968,-280.5 884,-280.5"/>
<text text-anchor="middle" x="926" y="-287.5" font-family="Helvetica,sans-Serif" font-size="10.00">traffic_mngr.h</text>
</a>
</g>
</g>
<!-- Node22&#45;&gt;Node23 -->
<g id="edge28" class="edge">
<title>Node22&#45;&gt;Node23</title>
<path fill="none" stroke="midnightblue" d="M926,-325.8C926,-316.91 926,-306.78 926,-299.75"/>
<polygon fill="midnightblue" stroke="midnightblue" points="922.5,-326.08 926,-336.08 929.5,-326.08 922.5,-326.08"/>
</g>
<!-- Node23&#45;&gt;Node11 -->
<g id="edge30" class="edge">
<title>Node23&#45;&gt;Node11</title>
<path fill="none" stroke="midnightblue" d="M926,-270.25C926,-248.36 926,-211.05 926,-179 926,-179 926,-179 926,-121 926,-65.95 1110.06,-28.97 1185.92,-16.07"/>
<polygon fill="midnightblue" stroke="midnightblue" points="922.5,-270.44 926,-280.44 929.5,-270.44 922.5,-270.44"/>
</g>
<!-- Node23&#45;&gt;Node16 -->
<g id="edge29" class="edge">
<title>Node23&#45;&gt;Node16</title>
<path fill="none" stroke="midnightblue" d="M945.31,-274.1C957.91,-264.38 973.93,-252.03 984.55,-243.83"/>
<polygon fill="midnightblue" stroke="midnightblue" points="943.03,-271.44 937.25,-280.32 947.3,-276.99 943.03,-271.44"/>
</g>
<!-- Node24&#45;&gt;Node9 -->
<g id="edge73" class="edge">
<title>Node24&#45;&gt;Node9</title>
<path fill="none" stroke="midnightblue" d="M1046.56,-734.06C908.8,-723.47 562,-675.32 562,-459 562,-459 562,-459 562,-345 562,-287.93 633.63,-257.12 677.56,-243.59"/>
<polygon fill="midnightblue" stroke="midnightblue" points="1046.66,-737.57 1056.89,-734.81 1047.17,-730.59 1046.66,-737.57"/>
</g>
<!-- Node24&#45;&gt;Node12 -->
<g id="edge74" class="edge">
<title>Node24&#45;&gt;Node12</title>
<path fill="none" stroke="midnightblue" d="M1046.82,-733.69C979.91,-726.35 876,-702.75 876,-627 876,-627 876,-627 876,-569 876,-529.4 853.73,-485.96 843.28,-467.77"/>
<polygon fill="midnightblue" stroke="midnightblue" points="1046.51,-737.18 1056.81,-734.7 1047.21,-730.21 1046.51,-737.18"/>
</g>
<!-- Node24&#45;&gt;Node18 -->
<g id="edge68" class="edge">
<title>Node24&#45;&gt;Node18</title>
<path fill="none" stroke="midnightblue" d="M1102,-718.25C1102,-696.36 1102,-659.05 1102,-627 1102,-627 1102,-627 1102,-513 1102,-409.06 1134.62,-383.17 1122,-280 1114.94,-222.29 1093.8,-155.26 1085.96,-131.71"/>
<polygon fill="midnightblue" stroke="midnightblue" points="1098.5,-718.44 1102,-728.44 1105.5,-718.44 1098.5,-718.44"/>
</g>
<!-- Node24&#45;&gt;Node20 -->
<g id="edge69" class="edge">
<title>Node24&#45;&gt;Node20</title>
<path fill="none" stroke="midnightblue" d="M1046.47,-734.4C1001.29,-730.22 937.2,-719.48 888,-692 793.31,-639.11 720,-623.46 720,-515 720,-515 720,-515 720,-457 720,-418.18 703.42,-373.97 695.78,-355.65"/>
<polygon fill="midnightblue" stroke="midnightblue" points="1046.4,-737.9 1056.66,-735.26 1046.99,-730.93 1046.4,-737.9"/>
</g>
<!-- Node25 -->
<g id="node25" class="node">
<title>Node25</title>
<g id="a_node25"><a xlink:href="api_2spec_2comp_8h.html" target="_top" xlink:title=" ">
<polygon fill="white" stroke="black" points="1564.5,-672.5 1564.5,-691.5 1617.5,-691.5 1617.5,-672.5 1564.5,-672.5"/>
<text text-anchor="middle" x="1591" y="-679.5" font-family="Helvetica,sans-Serif" font-size="10.00">comp.h</text>
</a>
</g>
</g>
<!-- Node24&#45;&gt;Node25 -->
<g id="edge33" class="edge">
<title>Node24&#45;&gt;Node25</title>
<path fill="none" stroke="midnightblue" d="M1157.33,-734.11C1243.03,-729.06 1412.83,-716.7 1555,-692 1558.05,-691.47 1561.22,-690.82 1564.36,-690.12"/>
<polygon fill="midnightblue" stroke="midnightblue" points="1157.08,-730.62 1147.3,-734.69 1157.49,-737.61 1157.08,-730.62"/>
</g>
<!-- Node27 -->
<g id="node27" class="node">
<title>Node27</title>
<g id="a_node27"><a xlink:href="api_2spec_2crypto_8h.html" target="_top" xlink:title=" ">
<polygon fill="white" stroke="black" points="1246,-224.5 1246,-243.5 1302,-243.5 1302,-224.5 1246,-224.5"/>
<text text-anchor="middle" x="1274" y="-231.5" font-family="Helvetica,sans-Serif" font-size="10.00">crypto.h</text>
</a>
</g>
</g>
<!-- Node24&#45;&gt;Node27 -->
<g id="edge36" class="edge">
<title>Node24&#45;&gt;Node27</title>
<path fill="none" stroke="midnightblue" d="M1148.64,-725.51C1171.36,-718.37 1198.19,-707.54 1219,-692 1319.56,-616.88 1350.63,-586.85 1391,-468 1422.44,-375.42 1317.53,-273.19 1283.98,-243.51"/>
<polygon fill="midnightblue" stroke="midnightblue" points="1147.43,-722.22 1138.86,-728.44 1149.44,-728.92 1147.43,-722.22"/>
</g>
<!-- Node29 -->
<g id="node29" class="node">
<title>Node29</title>
<g id="a_node29"><a xlink:href="api_2spec_2crypto__types_8h.html" target="_top" xlink:title=" ">
<polygon fill="white" stroke="black" points="908.5,-448.5 908.5,-467.5 997.5,-467.5 997.5,-448.5 908.5,-448.5"/>
<text text-anchor="middle" x="953" y="-455.5" font-family="Helvetica,sans-Serif" font-size="10.00">crypto_types.h</text>
</a>
</g>
</g>
<!-- Node24&#45;&gt;Node29 -->
<g id="edge39" class="edge">
<title>Node24&#45;&gt;Node29</title>
<path fill="none" stroke="midnightblue" d="M1078.01,-723.02C1050.16,-704.79 1008,-670.07 1008,-627 1008,-627 1008,-627 1008,-569 1008,-527.36 976.09,-485.33 960.88,-467.67"/>
<polygon fill="midnightblue" stroke="midnightblue" points="1076.15,-725.99 1086.48,-728.35 1079.88,-720.06 1076.15,-725.99"/>
</g>
<!-- Node31 -->
<g id="node31" class="node">
<title>Node31</title>
<g id="a_node31"><a xlink:href="api_2spec_2dma__types_8h.html" target="_top" xlink:title=" ">
<polygon fill="white" stroke="black" points="1130,-672.5 1130,-691.5 1210,-691.5 1210,-672.5 1130,-672.5"/>
<text text-anchor="middle" x="1170" y="-679.5" font-family="Helvetica,sans-Serif" font-size="10.00">dma_types.h</text>
</a>
</g>
</g>
<!-- Node24&#45;&gt;Node31 -->
<g id="edge44" class="edge">
<title>Node24&#45;&gt;Node31</title>
<path fill="none" stroke="midnightblue" d="M1120.76,-722.1C1133,-712.38 1148.56,-700.03 1158.88,-691.83"/>
<polygon fill="midnightblue" stroke="midnightblue" points="1118.58,-719.36 1112.93,-728.32 1122.93,-724.85 1118.58,-719.36"/>
</g>
<!-- Node43 -->
<g id="node43" class="node">
<title>Node43</title>
<g id="a_node43"><a xlink:href="api_2spec_2event_8h.html" target="_top" xlink:title=" ">
<polygon fill="white" stroke="black" points="1388.5,-672.5 1388.5,-691.5 1441.5,-691.5 1441.5,-672.5 1388.5,-672.5"/>
<text text-anchor="middle" x="1415" y="-679.5" font-family="Helvetica,sans-Serif" font-size="10.00">event.h</text>
</a>
</g>
</g>
<!-- Node24&#45;&gt;Node43 -->
<g id="edge65" class="edge">
<title>Node24&#45;&gt;Node43</title>
<path fill="none" stroke="midnightblue" d="M1157.27,-728.72C1212.33,-720.27 1299.22,-706.38 1374,-692 1378.58,-691.12 1383.43,-690.12 1388.14,-689.11"/>
<polygon fill="midnightblue" stroke="midnightblue" points="1156.72,-725.26 1147.37,-730.23 1157.78,-732.18 1156.72,-725.26"/>
</g>
<!-- Node45 -->
<g id="node45" class="node">
<title>Node45</title>
<g id="a_node45"><a xlink:href="api_2spec_2packet__flags_8h.html" target="_top" xlink:title=" ">
<polygon fill="white" stroke="black" points="1460,-672.5 1460,-691.5 1546,-691.5 1546,-672.5 1460,-672.5"/>
<text text-anchor="middle" x="1503" y="-679.5" font-family="Helvetica,sans-Serif" font-size="10.00">packet_flags.h</text>
</a>
</g>
</g>
<!-- Node24&#45;&gt;Node45 -->
<g id="edge70" class="edge">
<title>Node24&#45;&gt;Node45</title>
<path fill="none" stroke="midnightblue" d="M1157.29,-730.54C1226.01,-722.34 1346.85,-707.42 1450,-692 1453.23,-691.52 1456.57,-691 1459.92,-690.46"/>
<polygon fill="midnightblue" stroke="midnightblue" points="1156.64,-727.09 1147.13,-731.74 1157.47,-734.04 1156.64,-727.09"/>
</g>
<!-- Node26 -->
<g id="node26" class="node">
<title>Node26</title>
<g id="a_node26"><a xlink:href="api_2comp_8h.html" target="_top" xlink:title=" ">
<polygon fill="white" stroke="black" points="1558.5,-560.5 1558.5,-579.5 1611.5,-579.5 1611.5,-560.5 1558.5,-560.5"/>
<text text-anchor="middle" x="1585" y="-567.5" font-family="Helvetica,sans-Serif" font-size="10.00">comp.h</text>
</a>
</g>
</g>
<!-- Node25&#45;&gt;Node26 -->
<g id="edge34" class="edge">
<title>Node25&#45;&gt;Node26</title>
<path fill="none" stroke="midnightblue" d="M1589.98,-662.35C1588.67,-638.25 1586.43,-597.31 1585.47,-579.59"/>
<polygon fill="midnightblue" stroke="midnightblue" points="1586.49,-662.57 1590.53,-672.37 1593.48,-662.19 1586.49,-662.57"/>
</g>
<!-- Node26&#45;&gt;Node11 -->
<g id="edge35" class="edge">
<title>Node26&#45;&gt;Node11</title>
<path fill="none" stroke="midnightblue" d="M1584.45,-550.25C1583.86,-528.36 1583,-491.06 1583,-459 1583,-459 1583,-459 1583,-121 1583,-88.4 1575.69,-74.73 1549,-56 1501.18,-22.43 1323.57,-13.83 1250.12,-11.69"/>
<polygon fill="midnightblue" stroke="midnightblue" points="1580.96,-550.55 1584.74,-560.44 1587.96,-550.35 1580.96,-550.55"/>
</g>
<!-- Node28 -->
<g id="node28" class="node">
<title>Node28</title>
<g id="a_node28"><a xlink:href="api_2crypto_8h.html" target="_top" xlink:title=" ">
<polygon fill="white" stroke="black" points="1246,-168.5 1246,-187.5 1302,-187.5 1302,-168.5 1246,-168.5"/>
<text text-anchor="middle" x="1274" y="-175.5" font-family="Helvetica,sans-Serif" font-size="10.00">crypto.h</text>
</a>
</g>
</g>
<!-- Node27&#45;&gt;Node28 -->
<g id="edge37" class="edge">
<title>Node27&#45;&gt;Node28</title>
<path fill="none" stroke="midnightblue" d="M1274,-213.8C1274,-204.91 1274,-194.78 1274,-187.75"/>
<polygon fill="midnightblue" stroke="midnightblue" points="1270.5,-214.08 1274,-224.08 1277.5,-214.08 1270.5,-214.08"/>
</g>
<!-- Node28&#45;&gt;Node11 -->
<g id="edge38" class="edge">
<title>Node28&#45;&gt;Node11</title>
<path fill="none" stroke="midnightblue" d="M1267.72,-158.39C1255.64,-122.59 1229.59,-45.34 1220.89,-19.57"/>
<polygon fill="midnightblue" stroke="midnightblue" points="1264.48,-159.72 1270.99,-168.08 1271.11,-157.48 1264.48,-159.72"/>
</g>
<!-- Node30 -->
<g id="node30" class="node">
<title>Node30</title>
<g id="a_node30"><a xlink:href="api_2crypto__types_8h.html" target="_top" xlink:title=" ">
<polygon fill="white" stroke="black" points="1024.5,-280.5 1024.5,-299.5 1113.5,-299.5 1113.5,-280.5 1024.5,-280.5"/>
<text text-anchor="middle" x="1069" y="-287.5" font-family="Helvetica,sans-Serif" font-size="10.00">crypto_types.h</text>
</a>
</g>
</g>
<!-- Node29&#45;&gt;Node30 -->
<g id="edge40" class="edge">
<title>Node29&#45;&gt;Node30</title>
<path fill="none" stroke="midnightblue" d="M965.05,-439.76C989.62,-404.59 1044.77,-325.68 1063.01,-299.57"/>
<polygon fill="midnightblue" stroke="midnightblue" points="962.1,-437.87 959.24,-448.08 967.83,-441.88 962.1,-437.87"/>
</g>
<!-- Node30&#45;&gt;Node16 -->
<g id="edge43" class="edge">
<title>Node30&#45;&gt;Node16</title>
<path fill="none" stroke="midnightblue" d="M1048.86,-274.1C1035.72,-264.38 1019.02,-252.03 1007.94,-243.83"/>
<polygon fill="midnightblue" stroke="midnightblue" points="1047.15,-277.19 1057.27,-280.32 1051.31,-271.56 1047.15,-277.19"/>
</g>
<!-- Node30&#45;&gt;Node18 -->
<g id="edge42" class="edge">
<title>Node30&#45;&gt;Node18</title>
<path fill="none" stroke="midnightblue" d="M1070.61,-269.93C1073.65,-233.92 1080.11,-157.23 1082.28,-131.57"/>
<polygon fill="midnightblue" stroke="midnightblue" points="1067.11,-269.82 1069.75,-280.08 1074.08,-270.4 1067.11,-269.82"/>
</g>
<!-- Node30&#45;&gt;Node27 -->
<g id="edge41" class="edge">
<title>Node30&#45;&gt;Node27</title>
<path fill="none" stroke="midnightblue" d="M1111.29,-277.86C1151.61,-267.24 1211.19,-251.55 1245.95,-242.39"/>
<polygon fill="midnightblue" stroke="midnightblue" points="1110.26,-274.51 1101.48,-280.44 1112.04,-281.28 1110.26,-274.51"/>
</g>
<!-- Node32 -->
<g id="node32" class="node">
<title>Node32</title>
<g id="a_node32"><a xlink:href="api_2dma__types_8h.html" target="_top" xlink:title=" ">
<polygon fill="white" stroke="black" points="1130,-616.5 1130,-635.5 1210,-635.5 1210,-616.5 1130,-616.5"/>
<text text-anchor="middle" x="1170" y="-623.5" font-family="Helvetica,sans-Serif" font-size="10.00">dma_types.h</text>
</a>
</g>
</g>
<!-- Node31&#45;&gt;Node32 -->
<g id="edge45" class="edge">
<title>Node31&#45;&gt;Node32</title>
<path fill="none" stroke="midnightblue" d="M1170,-661.8C1170,-652.91 1170,-642.78 1170,-635.75"/>
<polygon fill="midnightblue" stroke="midnightblue" points="1166.5,-662.08 1170,-672.08 1173.5,-662.08 1166.5,-662.08"/>
</g>
<!-- Node33 -->
<g id="node33" class="node">
<title>Node33</title>
<g id="a_node33"><a xlink:href="api_2spec_2dma_8h.html" target="_top" xlink:title=" ">
<polygon fill="white" stroke="black" points="1335.5,-448.5 1335.5,-467.5 1382.5,-467.5 1382.5,-448.5 1335.5,-448.5"/>
<text text-anchor="middle" x="1359" y="-455.5" font-family="Helvetica,sans-Serif" font-size="10.00">dma.h</text>
</a>
</g>
</g>
<!-- Node32&#45;&gt;Node33 -->
<g id="edge46" class="edge">
<title>Node32&#45;&gt;Node33</title>
<path fill="none" stroke="midnightblue" d="M1187.79,-609.37C1226.84,-575.07 1318.97,-494.16 1349.2,-467.61"/>
<polygon fill="midnightblue" stroke="midnightblue" points="1185.1,-607.08 1179.9,-616.31 1189.72,-612.34 1185.1,-607.08"/>
</g>
<!-- Node35 -->
<g id="node35" class="node">
<title>Node35</title>
<g id="a_node35"><a xlink:href="api_2spec_2pool__types_8h.html" target="_top" xlink:title=" ">
<polygon fill="white" stroke="black" points="1130.5,-560.5 1130.5,-579.5 1209.5,-579.5 1209.5,-560.5 1130.5,-560.5"/>
<text text-anchor="middle" x="1170" y="-567.5" font-family="Helvetica,sans-Serif" font-size="10.00">pool_types.h</text>
</a>
</g>
</g>
<!-- Node32&#45;&gt;Node35 -->
<g id="edge49" class="edge">
<title>Node32&#45;&gt;Node35</title>
<path fill="none" stroke="midnightblue" d="M1170,-605.8C1170,-596.91 1170,-586.78 1170,-579.75"/>
<polygon fill="midnightblue" stroke="midnightblue" points="1166.5,-606.08 1170,-616.08 1173.5,-606.08 1166.5,-606.08"/>
</g>
<!-- Node34 -->
<g id="node34" class="node">
<title>Node34</title>
<g id="a_node34"><a xlink:href="api_2dma_8h.html" target="_top" xlink:title=" ">
<polygon fill="white" stroke="black" points="1356.5,-112.5 1356.5,-131.5 1403.5,-131.5 1403.5,-112.5 1356.5,-112.5"/>
<text text-anchor="middle" x="1380" y="-119.5" font-family="Helvetica,sans-Serif" font-size="10.00">dma.h</text>
</a>
</g>
</g>
<!-- Node33&#45;&gt;Node34 -->
<g id="edge47" class="edge">
<title>Node33&#45;&gt;Node34</title>
<path fill="none" stroke="midnightblue" d="M1362.92,-438.34C1368.99,-407.72 1380,-344.84 1380,-291 1380,-291 1380,-291 1380,-233 1380,-195.19 1380,-150.06 1380,-131.56"/>
<polygon fill="midnightblue" stroke="midnightblue" points="1359.43,-437.91 1360.86,-448.41 1366.29,-439.31 1359.43,-437.91"/>
</g>
<!-- Node34&#45;&gt;Node11 -->
<g id="edge48" class="edge">
<title>Node34&#45;&gt;Node11</title>
<path fill="none" stroke="midnightblue" d="M1373.36,-102.69C1367.25,-88.19 1356.87,-68.39 1342,-56 1315.44,-33.86 1277.07,-22.18 1250.06,-16.33"/>
<polygon fill="midnightblue" stroke="midnightblue" points="1370.15,-104.09 1377.06,-112.12 1376.67,-101.53 1370.15,-104.09"/>
</g>
<!-- Node36 -->
<g id="node36" class="node">
<title>Node36</title>
<g id="a_node36"><a xlink:href="api_2pool__types_8h.html" target="_top" xlink:title=" ">
<polygon fill="white" stroke="black" points="1130.5,-504.5 1130.5,-523.5 1209.5,-523.5 1209.5,-504.5 1130.5,-504.5"/>
<text text-anchor="middle" x="1170" y="-511.5" font-family="Helvetica,sans-Serif" font-size="10.00">pool_types.h</text>
</a>
</g>
</g>
<!-- Node35&#45;&gt;Node36 -->
<g id="edge50" class="edge">
<title>Node35&#45;&gt;Node36</title>
<path fill="none" stroke="midnightblue" d="M1170,-549.8C1170,-540.91 1170,-530.78 1170,-523.75"/>
<polygon fill="midnightblue" stroke="midnightblue" points="1166.5,-550.08 1170,-560.08 1173.5,-550.08 1166.5,-550.08"/>
</g>
<!-- Node36&#45;&gt;Node12 -->
<g id="edge58" class="edge">
<title>Node36&#45;&gt;Node12</title>
<path fill="none" stroke="midnightblue" d="M1120.36,-504.93C1058.44,-494.85 953.05,-477.71 890.03,-467.46"/>
<polygon fill="midnightblue" stroke="midnightblue" points="1119.85,-508.39 1130.28,-506.54 1120.97,-501.48 1119.85,-508.39"/>
</g>
<!-- Node36&#45;&gt;Node14 -->
<g id="edge54" class="edge">
<title>Node36&#45;&gt;Node14</title>
<path fill="none" stroke="midnightblue" d="M1146.5,-499.22C1105.71,-475.61 1018.78,-426.6 942,-392 910.15,-377.65 872.23,-363.98 847.67,-355.55"/>
<polygon fill="midnightblue" stroke="midnightblue" points="1144.99,-502.39 1155.39,-504.39 1148.51,-496.34 1144.99,-502.39"/>
</g>
<!-- Node36&#45;&gt;Node20 -->
<g id="edge57" class="edge">
<title>Node36&#45;&gt;Node20</title>
<path fill="none" stroke="midnightblue" d="M1136.46,-500.89C1112.51,-492.11 1079.6,-479.75 1051,-468 1030.76,-459.68 1026.88,-454.57 1006,-448 925.68,-422.74 899.64,-439.33 820,-412 776.15,-396.95 728.45,-369.46 705.64,-355.55"/>
<polygon fill="midnightblue" stroke="midnightblue" points="1135.54,-504.29 1146.14,-504.43 1137.95,-497.71 1135.54,-504.29"/>
</g>
<!-- Node36&#45;&gt;Node29 -->
<g id="edge55" class="edge">
<title>Node36&#45;&gt;Node29</title>
<path fill="none" stroke="midnightblue" d="M1125.89,-502.02C1084.9,-491.82 1024.7,-476.84 987.22,-467.52"/>
<polygon fill="midnightblue" stroke="midnightblue" points="1125.07,-505.43 1135.62,-504.44 1126.76,-498.63 1125.07,-505.43"/>
</g>
<!-- Node36&#45;&gt;Node33 -->
<g id="edge56" class="edge">
<title>Node36&#45;&gt;Node33</title>
<path fill="none" stroke="midnightblue" d="M1209.69,-501.66C1247.77,-490.78 1303.99,-474.72 1335.46,-465.73"/>
<polygon fill="midnightblue" stroke="midnightblue" points="1208.6,-498.33 1199.95,-504.44 1210.52,-505.06 1208.6,-498.33"/>
</g>
<!-- Node37 -->
<g id="node37" class="node">
<title>Node37</title>
<g id="a_node37"><a xlink:href="api_2spec_2buffer_8h.html" target="_top" xlink:title=" ">
<polygon fill="white" stroke="black" points="1130.5,-448.5 1130.5,-467.5 1183.5,-467.5 1183.5,-448.5 1130.5,-448.5"/>
<text text-anchor="middle" x="1157" y="-455.5" font-family="Helvetica,sans-Serif" font-size="10.00">buffer.h</text>
</a>
</g>
</g>
<!-- Node36&#45;&gt;Node37 -->
<g id="edge51" class="edge">
<title>Node36&#45;&gt;Node37</title>
<path fill="none" stroke="midnightblue" d="M1165.45,-494.1C1163.29,-485.14 1160.82,-474.86 1159.11,-467.75"/>
<polygon fill="midnightblue" stroke="midnightblue" points="1162.11,-495.18 1167.85,-504.08 1168.92,-493.54 1162.11,-495.18"/>
</g>
<!-- Node39 -->
<g id="node39" class="node">
<title>Node39</title>
<g id="a_node39"><a xlink:href="api_2spec_2pool_8h.html" target="_top" xlink:title=" ">
<polygon fill="white" stroke="black" points="1201.5,-448.5 1201.5,-467.5 1248.5,-467.5 1248.5,-448.5 1201.5,-448.5"/>
<text text-anchor="middle" x="1225" y="-455.5" font-family="Helvetica,sans-Serif" font-size="10.00">pool.h</text>
</a>
</g>
</g>
<!-- Node36&#45;&gt;Node39 -->
<g id="edge59" class="edge">
<title>Node36&#45;&gt;Node39</title>
<path fill="none" stroke="midnightblue" d="M1186.29,-497C1196.04,-487.43 1208.05,-475.64 1216.09,-467.75"/>
<polygon fill="midnightblue" stroke="midnightblue" points="1183.77,-494.58 1179.08,-504.08 1188.67,-499.57 1183.77,-494.58"/>
</g>
<!-- Node41 -->
<g id="node41" class="node">
<title>Node41</title>
<g id="a_node41"><a xlink:href="api_2spec_2timer_8h.html" target="_top" xlink:title=" ">
<polygon fill="white" stroke="black" points="1266.5,-448.5 1266.5,-467.5 1317.5,-467.5 1317.5,-448.5 1266.5,-448.5"/>
<text text-anchor="middle" x="1292" y="-455.5" font-family="Helvetica,sans-Serif" font-size="10.00">timer.h</text>
</a>
</g>
</g>
<!-- Node36&#45;&gt;Node41 -->
<g id="edge62" class="edge">
<title>Node36&#45;&gt;Node41</title>
<path fill="none" stroke="midnightblue" d="M1198.54,-500.37C1221.39,-490.26 1252.81,-476.35 1272.76,-467.52"/>
<polygon fill="midnightblue" stroke="midnightblue" points="1197.06,-497.2 1189.33,-504.44 1199.89,-503.6 1197.06,-497.2"/>
</g>
<!-- Node38 -->
<g id="node38" class="node">
<title>Node38</title>
<g id="a_node38"><a xlink:href="api_2buffer_8h.html" target="_top" xlink:title=" ">
<polygon fill="white" stroke="black" points="1136.5,-56.5 1136.5,-75.5 1189.5,-75.5 1189.5,-56.5 1136.5,-56.5"/>
<text text-anchor="middle" x="1163" y="-63.5" font-family="Helvetica,sans-Serif" font-size="10.00">buffer.h</text>
</a>
</g>
</g>
<!-- Node37&#45;&gt;Node38 -->
<g id="edge52" class="edge">
<title>Node37&#45;&gt;Node38</title>
<path fill="none" stroke="midnightblue" d="M1163.22,-438.76C1170.03,-417.14 1180,-379.88 1180,-347 1180,-347 1180,-347 1180,-177 1180,-138.93 1169.93,-94.31 1165.29,-75.77"/>
<polygon fill="midnightblue" stroke="midnightblue" points="1159.89,-437.7 1160.1,-448.29 1166.54,-439.88 1159.89,-437.7"/>
</g>
<!-- Node38&#45;&gt;Node11 -->
<g id="edge53" class="edge">
<title>Node38&#45;&gt;Node11</title>
<path fill="none" stroke="midnightblue" d="M1179.29,-49C1189.04,-39.43 1201.05,-27.64 1209.09,-19.75"/>
<polygon fill="midnightblue" stroke="midnightblue" points="1176.77,-46.58 1172.08,-56.08 1181.67,-51.57 1176.77,-46.58"/>
</g>
<!-- Node40 -->
<g id="node40" class="node">
<title>Node40</title>
<g id="a_node40"><a xlink:href="api_2pool_8h.html" target="_top" xlink:title=" ">
<polygon fill="white" stroke="black" points="1208.5,-392.5 1208.5,-411.5 1255.5,-411.5 1255.5,-392.5 1208.5,-392.5"/>
<text text-anchor="middle" x="1232" y="-399.5" font-family="Helvetica,sans-Serif" font-size="10.00">pool.h</text>
</a>
</g>
</g>
<!-- Node39&#45;&gt;Node40 -->
<g id="edge60" class="edge">
<title>Node39&#45;&gt;Node40</title>
<path fill="none" stroke="midnightblue" d="M1227.45,-438.1C1228.61,-429.14 1229.94,-418.86 1230.87,-411.75"/>
<polygon fill="midnightblue" stroke="midnightblue" points="1223.97,-437.72 1226.16,-448.08 1230.91,-438.62 1223.97,-437.72"/>
</g>
<!-- Node40&#45;&gt;Node11 -->
<g id="edge61" class="edge">
<title>Node40&#45;&gt;Node11</title>
<path fill="none" stroke="midnightblue" d="M1228.22,-382.64C1224.07,-360.88 1218,-323.46 1218,-291 1218,-291 1218,-291 1218,-121 1218,-83.19 1218,-38.06 1218,-19.56"/>
<polygon fill="midnightblue" stroke="midnightblue" points="1224.79,-383.36 1230.17,-392.49 1231.66,-382 1224.79,-383.36"/>
</g>
<!-- Node42 -->
<g id="node42" class="node">
<title>Node42</title>
<g id="a_node42"><a xlink:href="api_2timer_8h.html" target="_top" xlink:title=" ">
<polygon fill="white" stroke="black" points="1275.5,-392.5 1275.5,-411.5 1326.5,-411.5 1326.5,-392.5 1275.5,-392.5"/>
<text text-anchor="middle" x="1301" y="-399.5" font-family="Helvetica,sans-Serif" font-size="10.00">timer.h</text>
</a>
</g>
</g>
<!-- Node41&#45;&gt;Node42 -->
<g id="edge63" class="edge">
<title>Node41&#45;&gt;Node42</title>
<path fill="none" stroke="midnightblue" d="M1295.15,-438.1C1296.64,-429.14 1298.36,-418.86 1299.54,-411.75"/>
<polygon fill="midnightblue" stroke="midnightblue" points="1291.68,-437.64 1293.49,-448.08 1298.58,-438.79 1291.68,-437.64"/>
</g>
<!-- Node42&#45;&gt;Node11 -->
<g id="edge64" class="edge">
<title>Node42&#45;&gt;Node11</title>
<path fill="none" stroke="midnightblue" d="M1305.32,-382.47C1313.87,-342.54 1330.51,-245.73 1311,-168 1295.19,-105.01 1245.06,-42.23 1225.72,-19.71"/>
<polygon fill="midnightblue" stroke="midnightblue" points="1301.88,-381.84 1303.11,-392.36 1308.71,-383.36 1301.88,-381.84"/>
</g>
<!-- Node44 -->
<g id="node44" class="node">
<title>Node44</title>
<g id="a_node44"><a xlink:href="api_2event_8h.html" target="_top" xlink:title=" ">
<polygon fill="white" stroke="black" points="1421.5,-112.5 1421.5,-131.5 1474.5,-131.5 1474.5,-112.5 1421.5,-112.5"/>
<text text-anchor="middle" x="1448" y="-119.5" font-family="Helvetica,sans-Serif" font-size="10.00">event.h</text>
</a>
</g>
</g>
<!-- Node43&#45;&gt;Node44 -->
<g id="edge66" class="edge">
<title>Node43&#45;&gt;Node44</title>
<path fill="none" stroke="midnightblue" d="M1424.06,-663.34C1434.13,-642.03 1449,-604.84 1449,-571 1449,-571 1449,-571 1449,-233 1449,-195.19 1448.4,-150.06 1448.13,-131.56"/>
<polygon fill="midnightblue" stroke="midnightblue" points="1420.86,-661.92 1419.59,-672.44 1427.14,-665.01 1420.86,-661.92"/>
</g>
<!-- Node44&#45;&gt;Node11 -->
<g id="edge67" class="edge">
<title>Node44&#45;&gt;Node11</title>
<path fill="none" stroke="midnightblue" d="M1431.7,-105.23C1415.82,-90.64 1390.43,-69.26 1365,-56 1327.85,-36.62 1280.98,-24.09 1250.28,-17.29"/>
<polygon fill="midnightblue" stroke="midnightblue" points="1429.4,-107.87 1439.08,-112.16 1434.19,-102.77 1429.4,-107.87"/>
</g>
<!-- Node46 -->
<g id="node46" class="node">
<title>Node46</title>
<g id="a_node46"><a xlink:href="api_2packet__flags_8h.html" target="_top" xlink:title=" ">
<polygon fill="white" stroke="black" points="1454,-56.5 1454,-75.5 1540,-75.5 1540,-56.5 1454,-56.5"/>
<text text-anchor="middle" x="1497" y="-63.5" font-family="Helvetica,sans-Serif" font-size="10.00">packet_flags.h</text>
</a>
</g>
</g>
<!-- Node45&#45;&gt;Node46 -->
<g id="edge71" class="edge">
<title>Node45&#45;&gt;Node46</title>
<path fill="none" stroke="midnightblue" d="M1503,-662.25C1503,-640.36 1503,-603.05 1503,-571 1503,-571 1503,-571 1503,-177 1503,-139.13 1499.41,-94.04 1497.78,-75.55"/>
<polygon fill="midnightblue" stroke="midnightblue" points="1499.5,-662.44 1503,-672.44 1506.5,-662.44 1499.5,-662.44"/>
</g>
<!-- Node46&#45;&gt;Node11 -->
<g id="edge72" class="edge">
<title>Node46&#45;&gt;Node11</title>
<path fill="none" stroke="midnightblue" d="M1443.76,-54.7C1386.53,-43.62 1297.42,-26.37 1250.08,-17.21"/>
<polygon fill="midnightblue" stroke="midnightblue" points="1443.23,-58.16 1453.71,-56.62 1444.56,-51.29 1443.23,-58.16"/>
</g>
</g>
</svg>
