<?xml version="1.0" encoding="UTF-8" standalone="no"?>
<!DOCTYPE svg PUBLIC "-//W3C//DTD SVG 1.1//EN"
 "http://www.w3.org/Graphics/SVG/1.1/DTD/svg11.dtd">
<!-- Generated by graphviz version 2.43.0 (0)
 -->
<!-- Title: traffic_mngr.h Pages: 1 -->
<svg width="602pt" height="420pt"
 viewBox="0.00 0.00 602.00 420.00" xmlns="http://www.w3.org/2000/svg" xmlns:xlink="http://www.w3.org/1999/xlink">
<g id="graph0" class="graph" transform="scale(1 1) rotate(0) translate(4 416)">
<title>traffic_mngr.h</title>
<polygon fill="white" stroke="transparent" points="-4,4 -4,-416 598,-416 598,4 -4,4"/>
<!-- Node1 -->
<g id="node1" class="node">
<title>Node1</title>
<g id="a_node1"><a xlink:title=" ">
<polygon fill="#bfbfbf" stroke="black" points="255,-392.5 255,-411.5 339,-411.5 339,-392.5 255,-392.5"/>
<text text-anchor="middle" x="297" y="-399.5" font-family="Helvetica,sans-Serif" font-size="10.00">traffic_mngr.h</text>
</a>
</g>
</g>
<!-- Node2 -->
<g id="node2" class="node">
<title>Node2</title>
<g id="a_node2"><a xlink:href="arch_2arm32-linux_2odp_2api_2abi_2traffic__mngr_8h_source.html" target="_top" xlink:title=" ">
<polygon fill="white" stroke="black" points="0,-336.5 0,-355.5 84,-355.5 84,-336.5 0,-336.5"/>
<text text-anchor="middle" x="42" y="-343.5" font-family="Helvetica,sans-Serif" font-size="10.00">traffic_mngr.h</text>
</a>
</g>
</g>
<!-- Node1&#45;&gt;Node2 -->
<g id="edge1" class="edge">
<title>Node1&#45;&gt;Node2</title>
<path fill="none" stroke="midnightblue" d="M246.69,-390.35C198.5,-380.14 126.72,-364.94 82.22,-355.52"/>
<polygon fill="midnightblue" stroke="midnightblue" points="246.09,-393.8 256.59,-392.44 247.54,-386.95 246.09,-393.8"/>
</g>
<!-- Node3 -->
<g id="node3" class="node">
<title>Node3</title>
<g id="a_node3"><a xlink:href="arch_2arm64-linux_2odp_2api_2abi_2traffic__mngr_8h_source.html" target="_top" xlink:title=" ">
<polygon fill="white" stroke="black" points="102,-336.5 102,-355.5 186,-355.5 186,-336.5 102,-336.5"/>
<text text-anchor="middle" x="144" y="-343.5" font-family="Helvetica,sans-Serif" font-size="10.00">traffic_mngr.h</text>
</a>
</g>
</g>
<!-- Node1&#45;&gt;Node3 -->
<g id="edge2" class="edge">
<title>Node1&#45;&gt;Node3</title>
<path fill="none" stroke="midnightblue" d="M263.11,-389.04C234.32,-378.88 193.71,-364.55 168.13,-355.52"/>
<polygon fill="midnightblue" stroke="midnightblue" points="262.16,-392.42 272.76,-392.44 264.49,-385.81 262.16,-392.42"/>
</g>
<!-- Node4 -->
<g id="node4" class="node">
<title>Node4</title>
<g id="a_node4"><a xlink:href="arch_2default-linux_2odp_2api_2abi_2traffic__mngr_8h_source.html" target="_top" xlink:title=" ">
<polygon fill="white" stroke="black" points="204,-336.5 204,-355.5 288,-355.5 288,-336.5 204,-336.5"/>
<text text-anchor="middle" x="246" y="-343.5" font-family="Helvetica,sans-Serif" font-size="10.00">traffic_mngr.h</text>
</a>
</g>
</g>
<!-- Node1&#45;&gt;Node4 -->
<g id="edge3" class="edge">
<title>Node1&#45;&gt;Node4</title>
<path fill="none" stroke="midnightblue" d="M281.62,-384.72C272.63,-375.2 261.64,-363.56 254.26,-355.75"/>
<polygon fill="midnightblue" stroke="midnightblue" points="279.17,-387.22 288.58,-392.08 284.26,-382.41 279.17,-387.22"/>
</g>
<!-- Node5 -->
<g id="node5" class="node">
<title>Node5</title>
<g id="a_node5"><a xlink:href="arch_2power64-linux_2odp_2api_2abi_2traffic__mngr_8h_source.html" target="_top" xlink:title=" ">
<polygon fill="white" stroke="black" points="306,-336.5 306,-355.5 390,-355.5 390,-336.5 306,-336.5"/>
<text text-anchor="middle" x="348" y="-343.5" font-family="Helvetica,sans-Serif" font-size="10.00">traffic_mngr.h</text>
</a>
</g>
</g>
<!-- Node1&#45;&gt;Node5 -->
<g id="edge4" class="edge">
<title>Node1&#45;&gt;Node5</title>
<path fill="none" stroke="midnightblue" d="M312.38,-384.72C321.37,-375.2 332.36,-363.56 339.74,-355.75"/>
<polygon fill="midnightblue" stroke="midnightblue" points="309.74,-382.41 305.42,-392.08 314.83,-387.22 309.74,-382.41"/>
</g>
<!-- Node6 -->
<g id="node6" class="node">
<title>Node6</title>
<g id="a_node6"><a xlink:href="arch_2x86__32-linux_2odp_2api_2abi_2traffic__mngr_8h_source.html" target="_top" xlink:title=" ">
<polygon fill="white" stroke="black" points="408,-336.5 408,-355.5 492,-355.5 492,-336.5 408,-336.5"/>
<text text-anchor="middle" x="450" y="-343.5" font-family="Helvetica,sans-Serif" font-size="10.00">traffic_mngr.h</text>
</a>
</g>
</g>
<!-- Node1&#45;&gt;Node6 -->
<g id="edge5" class="edge">
<title>Node1&#45;&gt;Node6</title>
<path fill="none" stroke="midnightblue" d="M330.89,-389.04C359.68,-378.88 400.29,-364.55 425.87,-355.52"/>
<polygon fill="midnightblue" stroke="midnightblue" points="329.51,-385.81 321.24,-392.44 331.84,-392.42 329.51,-385.81"/>
</g>
<!-- Node7 -->
<g id="node7" class="node">
<title>Node7</title>
<g id="a_node7"><a xlink:href="arch_2x86__64-linux_2odp_2api_2abi_2traffic__mngr_8h_source.html" target="_top" xlink:title=" ">
<polygon fill="white" stroke="black" points="510,-336.5 510,-355.5 594,-355.5 594,-336.5 510,-336.5"/>
<text text-anchor="middle" x="552" y="-343.5" font-family="Helvetica,sans-Serif" font-size="10.00">traffic_mngr.h</text>
</a>
</g>
</g>
<!-- Node1&#45;&gt;Node7 -->
<g id="edge6" class="edge">
<title>Node1&#45;&gt;Node7</title>
<path fill="none" stroke="midnightblue" d="M347.31,-390.35C395.5,-380.14 467.28,-364.94 511.78,-355.52"/>
<polygon fill="midnightblue" stroke="midnightblue" points="346.46,-386.95 337.41,-392.44 347.91,-393.8 346.46,-386.95"/>
</g>
<!-- Node8 -->
<g id="node8" class="node">
<title>Node8</title>
<g id="a_node8"><a xlink:href="api_2traffic__mngr_8h.html" target="_top" xlink:title=" ">
<polygon fill="white" stroke="black" points="510,-280.5 510,-299.5 594,-299.5 594,-280.5 510,-280.5"/>
<text text-anchor="middle" x="552" y="-287.5" font-family="Helvetica,sans-Serif" font-size="10.00">traffic_mngr.h</text>
</a>
</g>
</g>
<!-- Node7&#45;&gt;Node8 -->
<g id="edge7" class="edge">
<title>Node7&#45;&gt;Node8</title>
<path fill="none" stroke="midnightblue" d="M552,-325.8C552,-316.91 552,-306.78 552,-299.75"/>
<polygon fill="midnightblue" stroke="midnightblue" points="548.5,-326.08 552,-336.08 555.5,-326.08 548.5,-326.08"/>
</g>
<!-- Node9 -->
<g id="node9" class="node">
<title>Node9</title>
<g id="a_node9"><a xlink:href="api_2spec_2ipsec__types_8h.html" target="_top" xlink:title=" ">
<polygon fill="white" stroke="black" points="475.5,-224.5 475.5,-243.5 558.5,-243.5 558.5,-224.5 475.5,-224.5"/>
<text text-anchor="middle" x="517" y="-231.5" font-family="Helvetica,sans-Serif" font-size="10.00">ipsec_types.h</text>
</a>
</g>
</g>
<!-- Node8&#45;&gt;Node9 -->
<g id="edge8" class="edge">
<title>Node8&#45;&gt;Node9</title>
<path fill="none" stroke="midnightblue" d="M540.7,-271.57C534.68,-262.27 527.53,-251.25 522.67,-243.75"/>
<polygon fill="midnightblue" stroke="midnightblue" points="537.84,-273.6 546.22,-280.08 543.72,-269.79 537.84,-273.6"/>
</g>
<!-- Node13 -->
<g id="node13" class="node">
<title>Node13</title>
<g id="a_node13"><a xlink:href="odp__api_8h.html" target="_top" xlink:title=" ">
<polygon fill="white" stroke="black" points="524,-0.5 524,-19.5 588,-19.5 588,-0.5 524,-0.5"/>
<text text-anchor="middle" x="556" y="-7.5" font-family="Helvetica,sans-Serif" font-size="10.00">odp_api.h</text>
</a>
</g>
</g>
<!-- Node8&#45;&gt;Node13 -->
<g id="edge13" class="edge">
<title>Node8&#45;&gt;Node13</title>
<path fill="none" stroke="midnightblue" d="M561.32,-271.37C571.69,-250.09 587,-212.93 587,-179 587,-179 587,-179 587,-121 587,-81.91 568.64,-37.84 560.18,-19.61"/>
<polygon fill="midnightblue" stroke="midnightblue" points="558.12,-269.95 556.72,-280.46 564.36,-273.12 558.12,-269.95"/>
</g>
<!-- Node10 -->
<g id="node10" class="node">
<title>Node10</title>
<g id="a_node10"><a xlink:href="api_2ipsec__types_8h.html" target="_top" xlink:title=" ">
<polygon fill="white" stroke="black" points="475.5,-168.5 475.5,-187.5 558.5,-187.5 558.5,-168.5 475.5,-168.5"/>
<text text-anchor="middle" x="517" y="-175.5" font-family="Helvetica,sans-Serif" font-size="10.00">ipsec_types.h</text>
</a>
</g>
</g>
<!-- Node9&#45;&gt;Node10 -->
<g id="edge9" class="edge">
<title>Node9&#45;&gt;Node10</title>
<path fill="none" stroke="midnightblue" d="M517,-213.8C517,-204.91 517,-194.78 517,-187.75"/>
<polygon fill="midnightblue" stroke="midnightblue" points="513.5,-214.08 517,-224.08 520.5,-214.08 513.5,-214.08"/>
</g>
<!-- Node11 -->
<g id="node11" class="node">
<title>Node11</title>
<g id="a_node11"><a xlink:href="api_2spec_2ipsec_8h.html" target="_top" xlink:title=" ">
<polygon fill="white" stroke="black" points="499.5,-112.5 499.5,-131.5 550.5,-131.5 550.5,-112.5 499.5,-112.5"/>
<text text-anchor="middle" x="525" y="-119.5" font-family="Helvetica,sans-Serif" font-size="10.00">ipsec.h</text>
</a>
</g>
</g>
<!-- Node10&#45;&gt;Node11 -->
<g id="edge10" class="edge">
<title>Node10&#45;&gt;Node11</title>
<path fill="none" stroke="midnightblue" d="M519.8,-158.1C521.13,-149.14 522.65,-138.86 523.7,-131.75"/>
<polygon fill="midnightblue" stroke="midnightblue" points="516.32,-157.68 518.32,-168.08 523.25,-158.7 516.32,-157.68"/>
</g>
<!-- Node12 -->
<g id="node12" class="node">
<title>Node12</title>
<g id="a_node12"><a xlink:href="api_2ipsec_8h.html" target="_top" xlink:title=" ">
<polygon fill="white" stroke="black" points="503.5,-56.5 503.5,-75.5 554.5,-75.5 554.5,-56.5 503.5,-56.5"/>
<text text-anchor="middle" x="529" y="-63.5" font-family="Helvetica,sans-Serif" font-size="10.00">ipsec.h</text>
</a>
</g>
</g>
<!-- Node11&#45;&gt;Node12 -->
<g id="edge11" class="edge">
<title>Node11&#45;&gt;Node12</title>
<path fill="none" stroke="midnightblue" d="M526.4,-102.1C527.06,-93.14 527.83,-82.86 528.35,-75.75"/>
<polygon fill="midnightblue" stroke="midnightblue" points="522.91,-101.85 525.66,-112.08 529.89,-102.37 522.91,-101.85"/>
</g>
<!-- Node12&#45;&gt;Node13 -->
<g id="edge12" class="edge">
<title>Node12&#45;&gt;Node13</title>
<path fill="none" stroke="midnightblue" d="M538.01,-46.98C542.59,-37.82 547.95,-27.09 551.62,-19.75"/>
<polygon fill="midnightblue" stroke="midnightblue" points="534.8,-45.57 533.46,-56.08 541.06,-48.7 534.8,-45.57"/>
</g>
</g>
</svg>
