<?xml version="1.0" encoding="UTF-8" standalone="no"?>
<!DOCTYPE svg PUBLIC "-//W3C//DTD SVG 1.1//EN"
 "http://www.w3.org/Graphics/SVG/1.1/DTD/svg11.dtd">
<!-- Generated by graphviz version 2.43.0 (0)
 -->
<!-- Title: buffer.h Pages: 1 -->
<svg width="1326pt" height="1046pt"
 viewBox="0.00 0.00 1326.00 1046.00" xmlns="http://www.w3.org/2000/svg" xmlns:xlink="http://www.w3.org/1999/xlink">
<g id="graph0" class="graph" transform="scale(1 1) rotate(0) translate(4 1042)">
<title>buffer.h</title>
<polygon fill="white" stroke="transparent" points="-4,4 -4,-1042 1322,-1042 1322,4 -4,4"/>
<!-- Node1 -->
<g id="node1" class="node">
<title>Node1</title>
<g id="a_node1"><a xlink:title=" ">
<polygon fill="#bfbfbf" stroke="black" points="225.5,-1018.5 225.5,-1037.5 278.5,-1037.5 278.5,-1018.5 225.5,-1018.5"/>
<text text-anchor="middle" x="252" y="-1025.5" font-family="Helvetica,sans-Serif" font-size="10.00">buffer.h</text>
</a>
</g>
</g>
<!-- Node2 -->
<g id="node2" class="node">
<title>Node2</title>
<g id="a_node2"><a xlink:href="visibility__begin_8h_source.html" target="_top" xlink:title=" ">
<polygon fill="white" stroke="black" points="1010.5,-0.5 1010.5,-19.5 1131.5,-19.5 1131.5,-0.5 1010.5,-0.5"/>
<text text-anchor="middle" x="1071" y="-7.5" font-family="Helvetica,sans-Serif" font-size="10.00">odp/visibility_begin.h</text>
</a>
</g>
</g>
<!-- Node1&#45;&gt;Node2 -->
<g id="edge1" class="edge">
<title>Node1&#45;&gt;Node2</title>
<path fill="none" stroke="midnightblue" d="M278.62,-1027.13C443.45,-1027.57 1318,-1024.85 1318,-917 1318,-917 1318,-917 1318,-132 1318,-52.99 1214.81,-25.56 1141.82,-16.05"/>
<polygon fill="midnightblue" stroke="midnightblue" points="1142.09,-12.56 1131.74,-14.82 1141.24,-19.51 1142.09,-12.56"/>
</g>
<!-- Node3 -->
<g id="node3" class="node">
<title>Node3</title>
<g id="a_node3"><a xlink:href="api_2buffer__types_8h.html" target="_top" xlink:title=" ">
<polygon fill="white" stroke="black" points="142.5,-123.5 142.5,-142.5 267.5,-142.5 267.5,-123.5 142.5,-123.5"/>
<text text-anchor="middle" x="205" y="-130.5" font-family="Helvetica,sans-Serif" font-size="10.00">odp/api/buffer_types.h</text>
</a>
</g>
</g>
<!-- Node1&#45;&gt;Node3 -->
<g id="edge2" class="edge">
<title>Node1&#45;&gt;Node3</title>
<path fill="none" stroke="midnightblue" d="M225.27,-1022.93C176.03,-1013.75 76,-986.54 76,-917 76,-917 76,-917 76,-439.5 76,-321 159.38,-195.57 192.07,-150.95"/>
<polygon fill="midnightblue" stroke="midnightblue" points="194.9,-153.02 198.06,-142.91 189.28,-148.84 194.9,-153.02"/>
</g>
<!-- Node6 -->
<g id="node6" class="node">
<title>Node6</title>
<g id="a_node6"><a xlink:href="visibility__end_8h_source.html" target="_top" xlink:title=" ">
<polygon fill="white" stroke="black" points="296,-0.5 296,-19.5 408,-19.5 408,-0.5 296,-0.5"/>
<text text-anchor="middle" x="352" y="-7.5" font-family="Helvetica,sans-Serif" font-size="10.00">odp/visibility_end.h</text>
</a>
</g>
</g>
<!-- Node1&#45;&gt;Node6 -->
<g id="edge66" class="edge">
<title>Node1&#45;&gt;Node6</title>
<path fill="none" stroke="midnightblue" d="M225.03,-1027.28C160.02,-1026.41 0,-1014.38 0,-917 0,-917 0,-917 0,-132 0,-92.05 14.52,-77.8 48,-56 86.13,-31.17 208.44,-19.45 285.8,-14.39"/>
<polygon fill="midnightblue" stroke="midnightblue" points="286.18,-17.88 295.94,-13.75 285.73,-10.89 286.18,-17.88"/>
</g>
<!-- Node7 -->
<g id="node7" class="node">
<title>Node7</title>
<g id="a_node7"><a xlink:href="api_2event__types_8h.html" target="_top" xlink:title=" ">
<polygon fill="white" stroke="black" points="189.5,-738.5 189.5,-757.5 314.5,-757.5 314.5,-738.5 189.5,-738.5"/>
<text text-anchor="middle" x="252" y="-745.5" font-family="Helvetica,sans-Serif" font-size="10.00">odp/api/event_types.h</text>
</a>
</g>
</g>
<!-- Node1&#45;&gt;Node7 -->
<g id="edge7" class="edge">
<title>Node1&#45;&gt;Node7</title>
<path fill="none" stroke="midnightblue" d="M235.04,-1018.36C206.51,-1002.49 152,-965.78 152,-917 152,-917 152,-917 152,-859 152,-814.98 196.38,-780.8 226.01,-762.87"/>
<polygon fill="midnightblue" stroke="midnightblue" points="228.14,-765.68 235.04,-757.64 224.63,-759.63 228.14,-765.68"/>
</g>
<!-- Node10 -->
<g id="node10" class="node">
<title>Node10</title>
<g id="a_node10"><a xlink:href="api_2pool__types_8h.html" target="_top" xlink:title=" ">
<polygon fill="white" stroke="black" points="941,-962.5 941,-981.5 1059,-981.5 1059,-962.5 941,-962.5"/>
<text text-anchor="middle" x="1000" y="-969.5" font-family="Helvetica,sans-Serif" font-size="10.00">odp/api/pool_types.h</text>
</a>
</g>
</g>
<!-- Node1&#45;&gt;Node10 -->
<g id="edge12" class="edge">
<title>Node1&#45;&gt;Node10</title>
<path fill="none" stroke="midnightblue" d="M278.62,-1025.08C383.6,-1017.5 770.96,-989.54 930.56,-978.01"/>
<polygon fill="midnightblue" stroke="midnightblue" points="931.02,-981.49 940.74,-977.28 930.52,-974.51 931.02,-981.49"/>
</g>
<!-- Node13 -->
<g id="node13" class="node">
<title>Node13</title>
<g id="a_node13"><a xlink:href="api_2std__types_8h.html" target="_top" xlink:title=" ">
<polygon fill="white" stroke="black" points="686,-235.5 686,-254.5 798,-254.5 798,-235.5 686,-235.5"/>
<text text-anchor="middle" x="742" y="-242.5" font-family="Helvetica,sans-Serif" font-size="10.00">odp/api/std_types.h</text>
</a>
</g>
</g>
<!-- Node1&#45;&gt;Node13 -->
<g id="edge65" class="edge">
<title>Node1&#45;&gt;Node13</title>
<path fill="none" stroke="midnightblue" d="M268.96,-1018.36C297.49,-1002.49 352,-965.78 352,-917 352,-917 352,-917 352,-501 352,-460.84 634.07,-346.36 666,-322 689.75,-303.88 713.52,-278.7 727.99,-262.38"/>
<polygon fill="midnightblue" stroke="midnightblue" points="730.73,-264.57 734.67,-254.73 725.45,-259.97 730.73,-264.57"/>
</g>
<!-- Node4 -->
<g id="node4" class="node">
<title>Node4</title>
<g id="a_node4"><a xlink:title=" ">
<polygon fill="white" stroke="#bfbfbf" points="142,-56.5 142,-86.5 244,-86.5 244,-56.5 142,-56.5"/>
<text text-anchor="start" x="150" y="-74.5" font-family="Helvetica,sans-Serif" font-size="10.00">odp/api/abi/buffer</text>
<text text-anchor="middle" x="193" y="-63.5" font-family="Helvetica,sans-Serif" font-size="10.00">_types.h</text>
</a>
</g>
</g>
<!-- Node3&#45;&gt;Node4 -->
<g id="edge3" class="edge">
<title>Node3&#45;&gt;Node4</title>
<path fill="none" stroke="midnightblue" d="M203.28,-123.48C201.85,-116.4 199.75,-105.97 197.82,-96.39"/>
<polygon fill="midnightblue" stroke="midnightblue" points="201.24,-95.63 195.83,-86.52 194.37,-97.02 201.24,-95.63"/>
</g>
<!-- Node5 -->
<g id="node5" class="node">
<title>Node5</title>
<g id="a_node5"><a xlink:href="api_2spec_2buffer__types_8h.html" target="_top" xlink:title=" ">
<polygon fill="white" stroke="black" points="338,-56.5 338,-86.5 448,-86.5 448,-56.5 338,-56.5"/>
<text text-anchor="start" x="346" y="-74.5" font-family="Helvetica,sans-Serif" font-size="10.00">odp/api/spec/buffer</text>
<text text-anchor="middle" x="393" y="-63.5" font-family="Helvetica,sans-Serif" font-size="10.00">_types.h</text>
</a>
</g>
</g>
<!-- Node3&#45;&gt;Node5 -->
<g id="edge4" class="edge">
<title>Node3&#45;&gt;Node5</title>
<path fill="none" stroke="midnightblue" d="M231.94,-123.48C259.78,-114.66 304,-100.67 339.07,-89.57"/>
<polygon fill="midnightblue" stroke="midnightblue" points="340.21,-92.88 348.69,-86.52 338.1,-86.2 340.21,-92.88"/>
</g>
<!-- Node5&#45;&gt;Node2 -->
<g id="edge5" class="edge">
<title>Node5&#45;&gt;Node2</title>
<path fill="none" stroke="midnightblue" d="M448.25,-62.08C463.68,-59.91 480.47,-57.7 496,-56 677.28,-36.17 891.65,-21.78 1000.28,-15.12"/>
<polygon fill="midnightblue" stroke="midnightblue" points="1000.68,-18.61 1010.45,-14.5 1000.26,-11.62 1000.68,-18.61"/>
</g>
<!-- Node5&#45;&gt;Node6 -->
<g id="edge6" class="edge">
<title>Node5&#45;&gt;Node6</title>
<path fill="none" stroke="midnightblue" d="M383.28,-56.4C377.45,-47.93 369.98,-37.1 363.81,-28.14"/>
<polygon fill="midnightblue" stroke="midnightblue" points="366.52,-25.91 357.97,-19.66 360.76,-29.88 366.52,-25.91"/>
</g>
<!-- Node8 -->
<g id="node8" class="node">
<title>Node8</title>
<g id="a_node8"><a xlink:title=" ">
<polygon fill="white" stroke="#bfbfbf" points="142.5,-677 142.5,-696 285.5,-696 285.5,-677 142.5,-677"/>
<text text-anchor="middle" x="214" y="-684" font-family="Helvetica,sans-Serif" font-size="10.00">odp/api/abi/event_types.h</text>
</a>
</g>
</g>
<!-- Node7&#45;&gt;Node8 -->
<g id="edge8" class="edge">
<title>Node7&#45;&gt;Node8</title>
<path fill="none" stroke="midnightblue" d="M246.56,-738.48C240.91,-729.64 231.94,-715.59 224.84,-704.48"/>
<polygon fill="midnightblue" stroke="midnightblue" points="227.77,-702.55 219.43,-696.01 221.87,-706.32 227.77,-702.55"/>
</g>
<!-- Node9 -->
<g id="node9" class="node">
<title>Node9</title>
<g id="a_node9"><a xlink:href="api_2spec_2event__types_8h.html" target="_top" xlink:title=" ">
<polygon fill="white" stroke="black" points="504.5,-56.5 504.5,-86.5 613.5,-86.5 613.5,-56.5 504.5,-56.5"/>
<text text-anchor="start" x="512.5" y="-74.5" font-family="Helvetica,sans-Serif" font-size="10.00">odp/api/spec/event</text>
<text text-anchor="middle" x="559" y="-63.5" font-family="Helvetica,sans-Serif" font-size="10.00">_types.h</text>
</a>
</g>
</g>
<!-- Node7&#45;&gt;Node9 -->
<g id="edge9" class="edge">
<title>Node7&#45;&gt;Node9</title>
<path fill="none" stroke="midnightblue" d="M263.53,-738.37C273.57,-730.18 287.64,-716.92 295,-702 377.19,-535.41 285.88,-456.11 371,-291 413.9,-207.77 494.52,-129.48 534.81,-93.37"/>
<polygon fill="midnightblue" stroke="midnightblue" points="537.37,-95.78 542.53,-86.52 532.73,-90.54 537.37,-95.78"/>
</g>
<!-- Node9&#45;&gt;Node2 -->
<g id="edge10" class="edge">
<title>Node9&#45;&gt;Node2</title>
<path fill="none" stroke="midnightblue" d="M613.79,-64.13C707.17,-53.28 897.01,-31.22 1000.27,-19.22"/>
<polygon fill="midnightblue" stroke="midnightblue" points="1000.76,-22.69 1010.29,-18.06 999.95,-15.73 1000.76,-22.69"/>
</g>
<!-- Node9&#45;&gt;Node6 -->
<g id="edge11" class="edge">
<title>Node9&#45;&gt;Node6</title>
<path fill="none" stroke="midnightblue" d="M510.21,-56.47C474.03,-46.08 425.33,-32.08 391.56,-22.37"/>
<polygon fill="midnightblue" stroke="midnightblue" points="392.17,-18.91 381.59,-19.51 390.24,-25.63 392.17,-18.91"/>
</g>
<!-- Node11 -->
<g id="node11" class="node">
<title>Node11</title>
<g id="a_node11"><a xlink:title=" ">
<polygon fill="white" stroke="#bfbfbf" points="1090,-906.5 1090,-925.5 1226,-925.5 1226,-906.5 1090,-906.5"/>
<text text-anchor="middle" x="1158" y="-913.5" font-family="Helvetica,sans-Serif" font-size="10.00">odp/api/abi/pool_types.h</text>
</a>
</g>
</g>
<!-- Node10&#45;&gt;Node11 -->
<g id="edge13" class="edge">
<title>Node10&#45;&gt;Node11</title>
<path fill="none" stroke="midnightblue" d="M1025.04,-962.44C1051.62,-953.36 1093.81,-938.94 1123.52,-928.78"/>
<polygon fill="midnightblue" stroke="midnightblue" points="1124.75,-932.06 1133.08,-925.52 1122.49,-925.44 1124.75,-932.06"/>
</g>
<!-- Node12 -->
<g id="node12" class="node">
<title>Node12</title>
<g id="a_node12"><a xlink:href="api_2spec_2pool__types_8h.html" target="_top" xlink:title=" ">
<polygon fill="white" stroke="black" points="928.5,-906.5 928.5,-925.5 1071.5,-925.5 1071.5,-906.5 928.5,-906.5"/>
<text text-anchor="middle" x="1000" y="-913.5" font-family="Helvetica,sans-Serif" font-size="10.00">odp/api/spec/pool_types.h</text>
</a>
</g>
</g>
<!-- Node10&#45;&gt;Node12 -->
<g id="edge14" class="edge">
<title>Node10&#45;&gt;Node12</title>
<path fill="none" stroke="midnightblue" d="M1000,-962.08C1000,-955.01 1000,-944.86 1000,-935.99"/>
<polygon fill="midnightblue" stroke="midnightblue" points="1003.5,-935.75 1000,-925.75 996.5,-935.75 1003.5,-935.75"/>
</g>
<!-- Node12&#45;&gt;Node2 -->
<g id="edge15" class="edge">
<title>Node12&#45;&gt;Node2</title>
<path fill="none" stroke="midnightblue" d="M1063.21,-906.43C1101.18,-899.74 1149.77,-888.4 1190,-870 1234.87,-849.47 1280,-854.34 1280,-805 1280,-805 1280,-805 1280,-132 1280,-66.07 1201.15,-35.48 1140.31,-21.69"/>
<polygon fill="midnightblue" stroke="midnightblue" points="1140.84,-18.23 1130.33,-19.54 1139.37,-25.07 1140.84,-18.23"/>
</g>
<!-- Node12&#45;&gt;Node6 -->
<g id="edge64" class="edge">
<title>Node12&#45;&gt;Node6</title>
<path fill="none" stroke="midnightblue" d="M928.43,-908.17C748.15,-889.96 280.23,-836.29 147,-758 81.4,-719.45 38,-702.08 38,-626 38,-626 38,-626 38,-132 38,-91.57 54.15,-78.12 88,-56 119.79,-35.22 218.51,-22.64 285.8,-16.25"/>
<polygon fill="midnightblue" stroke="midnightblue" points="286.27,-19.72 295.9,-15.32 285.62,-12.75 286.27,-19.72"/>
</g>
<!-- Node12&#45;&gt;Node13 -->
<g id="edge16" class="edge">
<title>Node12&#45;&gt;Node13</title>
<path fill="none" stroke="midnightblue" d="M1036.49,-906.45C1104.1,-889.54 1242,-849.59 1242,-805 1242,-805 1242,-805 1242,-501 1242,-380.64 1175.95,-349.93 1071,-291 1027.27,-266.44 891.01,-254.48 808.19,-249.33"/>
<polygon fill="midnightblue" stroke="midnightblue" points="808.31,-245.84 798.12,-248.73 807.89,-252.82 808.31,-245.84"/>
</g>
<!-- Node20 -->
<g id="node20" class="node">
<title>Node20</title>
<g id="a_node20"><a xlink:href="api_2dma__types_8h.html" target="_top" xlink:title=" ">
<polygon fill="white" stroke="black" points="940.5,-850.5 940.5,-869.5 1059.5,-869.5 1059.5,-850.5 940.5,-850.5"/>
<text text-anchor="middle" x="1000" y="-857.5" font-family="Helvetica,sans-Serif" font-size="10.00">odp/api/dma_types.h</text>
</a>
</g>
</g>
<!-- Node12&#45;&gt;Node20 -->
<g id="edge27" class="edge">
<title>Node12&#45;&gt;Node20</title>
<path fill="none" stroke="midnightblue" d="M1000,-906.08C1000,-899.01 1000,-888.86 1000,-879.99"/>
<polygon fill="midnightblue" stroke="midnightblue" points="1003.5,-879.75 1000,-869.75 996.5,-879.75 1003.5,-879.75"/>
</g>
<!-- Node14 -->
<g id="node14" class="node">
<title>Node14</title>
<g id="a_node14"><a xlink:title=" ">
<polygon fill="white" stroke="#bfbfbf" points="571,-179.5 571,-198.5 701,-198.5 701,-179.5 571,-179.5"/>
<text text-anchor="middle" x="636" y="-186.5" font-family="Helvetica,sans-Serif" font-size="10.00">odp/api/abi/std_types.h</text>
</a>
</g>
</g>
<!-- Node13&#45;&gt;Node14 -->
<g id="edge17" class="edge">
<title>Node13&#45;&gt;Node14</title>
<path fill="none" stroke="midnightblue" d="M724.97,-235.32C707.97,-226.66 681.62,-213.24 662.01,-203.25"/>
<polygon fill="midnightblue" stroke="midnightblue" points="663.49,-200.08 652.99,-198.65 660.31,-206.31 663.49,-200.08"/>
</g>
<!-- Node15 -->
<g id="node15" class="node">
<title>Node15</title>
<g id="a_node15"><a xlink:href="api_2spec_2std__types_8h.html" target="_top" xlink:title=" ">
<polygon fill="white" stroke="black" points="757.5,-179.5 757.5,-198.5 894.5,-198.5 894.5,-179.5 757.5,-179.5"/>
<text text-anchor="middle" x="826" y="-186.5" font-family="Helvetica,sans-Serif" font-size="10.00">odp/api/spec/std_types.h</text>
</a>
</g>
</g>
<!-- Node13&#45;&gt;Node15 -->
<g id="edge18" class="edge">
<title>Node13&#45;&gt;Node15</title>
<path fill="none" stroke="midnightblue" d="M755.5,-235.32C768.6,-226.9 788.71,-213.97 804.11,-204.07"/>
<polygon fill="midnightblue" stroke="midnightblue" points="806.02,-207.01 812.54,-198.65 802.23,-201.12 806.02,-207.01"/>
</g>
<!-- Node15&#45;&gt;Node2 -->
<g id="edge19" class="edge">
<title>Node15&#45;&gt;Node2</title>
<path fill="none" stroke="midnightblue" d="M845.84,-179.48C863.69,-171.36 890.23,-158.16 911,-143 955.68,-110.39 956.62,-90.33 1000,-56 1014.74,-44.34 1032.62,-33.02 1046.75,-24.65"/>
<polygon fill="midnightblue" stroke="midnightblue" points="1048.54,-27.66 1055.42,-19.61 1045.02,-21.61 1048.54,-27.66"/>
</g>
<!-- Node15&#45;&gt;Node6 -->
<g id="edge26" class="edge">
<title>Node15&#45;&gt;Node6</title>
<path fill="none" stroke="midnightblue" d="M802,-179.45C782.31,-171.74 754.3,-159.14 733,-143 691.85,-111.81 701.4,-80.6 656,-56 616.1,-34.38 494.99,-21.62 418.22,-15.5"/>
<polygon fill="midnightblue" stroke="midnightblue" points="418.4,-12 408.16,-14.71 417.86,-18.98 418.4,-12"/>
</g>
<!-- Node16 -->
<g id="node16" class="node">
<title>Node16</title>
<g id="a_node16"><a xlink:title=" ">
<polygon fill="white" stroke="#bfbfbf" points="741.5,-123.5 741.5,-142.5 794.5,-142.5 794.5,-123.5 741.5,-123.5"/>
<text text-anchor="middle" x="768" y="-130.5" font-family="Helvetica,sans-Serif" font-size="10.00">stdint.h</text>
</a>
</g>
</g>
<!-- Node15&#45;&gt;Node16 -->
<g id="edge20" class="edge">
<title>Node15&#45;&gt;Node16</title>
<path fill="none" stroke="midnightblue" d="M816.68,-179.32C808.11,-171.34 795.19,-159.31 784.81,-149.65"/>
<polygon fill="midnightblue" stroke="midnightblue" points="787.19,-147.09 777.49,-142.83 782.42,-152.21 787.19,-147.09"/>
</g>
<!-- Node17 -->
<g id="node17" class="node">
<title>Node17</title>
<g id="a_node17"><a xlink:href="api_2align_8h.html" target="_top" xlink:title=" ">
<polygon fill="white" stroke="black" points="812.5,-123.5 812.5,-142.5 901.5,-142.5 901.5,-123.5 812.5,-123.5"/>
<text text-anchor="middle" x="857" y="-130.5" font-family="Helvetica,sans-Serif" font-size="10.00">odp/api/align.h</text>
</a>
</g>
</g>
<!-- Node15&#45;&gt;Node17 -->
<g id="edge21" class="edge">
<title>Node15&#45;&gt;Node17</title>
<path fill="none" stroke="midnightblue" d="M831.12,-179.08C835.41,-171.61 841.66,-160.72 846.94,-151.52"/>
<polygon fill="midnightblue" stroke="midnightblue" points="850.03,-153.17 851.98,-142.75 843.96,-149.68 850.03,-153.17"/>
</g>
<!-- Node18 -->
<g id="node18" class="node">
<title>Node18</title>
<g id="a_node18"><a xlink:title=" ">
<polygon fill="white" stroke="#bfbfbf" points="708.5,-62 708.5,-81 815.5,-81 815.5,-62 708.5,-62"/>
<text text-anchor="middle" x="762" y="-69" font-family="Helvetica,sans-Serif" font-size="10.00">odp/api/abi/align.h</text>
</a>
</g>
</g>
<!-- Node17&#45;&gt;Node18 -->
<g id="edge22" class="edge">
<title>Node17&#45;&gt;Node18</title>
<path fill="none" stroke="midnightblue" d="M843.39,-123.48C827.94,-113.8 802.51,-97.87 784.18,-86.39"/>
<polygon fill="midnightblue" stroke="midnightblue" points="785.92,-83.35 775.59,-81.01 782.2,-89.28 785.92,-83.35"/>
</g>
<!-- Node19 -->
<g id="node19" class="node">
<title>Node19</title>
<g id="a_node19"><a xlink:href="api_2spec_2align_8h.html" target="_top" xlink:title=" ">
<polygon fill="white" stroke="black" points="834,-62 834,-81 948,-81 948,-62 834,-62"/>
<text text-anchor="middle" x="891" y="-69" font-family="Helvetica,sans-Serif" font-size="10.00">odp/api/spec/align.h</text>
</a>
</g>
</g>
<!-- Node17&#45;&gt;Node19 -->
<g id="edge23" class="edge">
<title>Node17&#45;&gt;Node19</title>
<path fill="none" stroke="midnightblue" d="M861.87,-123.48C866.87,-114.73 874.79,-100.87 881.11,-89.81"/>
<polygon fill="midnightblue" stroke="midnightblue" points="884.22,-91.43 886.14,-81.01 878.14,-87.96 884.22,-91.43"/>
</g>
<!-- Node19&#45;&gt;Node2 -->
<g id="edge24" class="edge">
<title>Node19&#45;&gt;Node2</title>
<path fill="none" stroke="midnightblue" d="M916.79,-61.98C947.93,-51.68 1000.48,-34.31 1035.45,-22.75"/>
<polygon fill="midnightblue" stroke="midnightblue" points="1036.86,-25.97 1045.26,-19.51 1034.66,-19.32 1036.86,-25.97"/>
</g>
<!-- Node19&#45;&gt;Node6 -->
<g id="edge25" class="edge">
<title>Node19&#45;&gt;Node6</title>
<path fill="none" stroke="midnightblue" d="M855.87,-61.95C845.94,-59.76 835.08,-57.58 825,-56 680.86,-33.4 510.11,-20.55 418.33,-14.76"/>
<polygon fill="midnightblue" stroke="midnightblue" points="418.54,-11.27 408.34,-14.14 418.1,-18.25 418.54,-11.27"/>
</g>
<!-- Node21 -->
<g id="node21" class="node">
<title>Node21</title>
<g id="a_node21"><a xlink:title=" ">
<polygon fill="white" stroke="#bfbfbf" points="955.5,-794.5 955.5,-813.5 1092.5,-813.5 1092.5,-794.5 955.5,-794.5"/>
<text text-anchor="middle" x="1024" y="-801.5" font-family="Helvetica,sans-Serif" font-size="10.00">odp/api/abi/dma_types.h</text>
</a>
</g>
</g>
<!-- Node20&#45;&gt;Node21 -->
<g id="edge28" class="edge">
<title>Node20&#45;&gt;Node21</title>
<path fill="none" stroke="midnightblue" d="M1003.96,-850.08C1007.21,-842.77 1011.92,-832.18 1015.95,-823.1"/>
<polygon fill="midnightblue" stroke="midnightblue" points="1019.25,-824.31 1020.11,-813.75 1012.85,-821.47 1019.25,-824.31"/>
</g>
<!-- Node22 -->
<g id="node22" class="node">
<title>Node22</title>
<g id="a_node22"><a xlink:href="api_2spec_2dma__types_8h.html" target="_top" xlink:title=" ">
<polygon fill="white" stroke="black" points="793,-794.5 793,-813.5 937,-813.5 937,-794.5 793,-794.5"/>
<text text-anchor="middle" x="865" y="-801.5" font-family="Helvetica,sans-Serif" font-size="10.00">odp/api/spec/dma_types.h</text>
</a>
</g>
</g>
<!-- Node20&#45;&gt;Node22 -->
<g id="edge29" class="edge">
<title>Node20&#45;&gt;Node22</title>
<path fill="none" stroke="midnightblue" d="M978.61,-850.44C956.29,-841.52 921.1,-827.44 895.79,-817.32"/>
<polygon fill="midnightblue" stroke="midnightblue" points="896.88,-813.98 886.29,-813.52 894.28,-820.48 896.88,-813.98"/>
</g>
<!-- Node22&#45;&gt;Node2 -->
<g id="edge30" class="edge">
<title>Node22&#45;&gt;Node2</title>
<path fill="none" stroke="midnightblue" d="M929.16,-794.49C1027.44,-779.63 1204,-744.94 1204,-687.5 1204,-687.5 1204,-687.5 1204,-501 1204,-413.36 1242,-395.14 1242,-307.5 1242,-307.5 1242,-307.5 1242,-132 1242,-70.97 1168.52,-37.96 1117.9,-22.46"/>
<polygon fill="midnightblue" stroke="midnightblue" points="1118.69,-19.04 1108.1,-19.59 1116.72,-25.76 1118.69,-19.04"/>
</g>
<!-- Node22&#45;&gt;Node6 -->
<g id="edge63" class="edge">
<title>Node22&#45;&gt;Node6</title>
<path fill="none" stroke="midnightblue" d="M792.78,-801.44C628.02,-797.43 234.51,-785.12 181,-758 122.32,-728.26 114,-691.79 114,-626 114,-626 114,-626 114,-439.5 114,-269.05 6.13,-187.14 115,-56 136.35,-30.28 223.21,-19.14 285.59,-14.4"/>
<polygon fill="midnightblue" stroke="midnightblue" points="286.04,-17.87 295.76,-13.66 285.54,-10.89 286.04,-17.87"/>
</g>
<!-- Node22&#45;&gt;Node7 -->
<g id="edge31" class="edge">
<title>Node22&#45;&gt;Node7</title>
<path fill="none" stroke="midnightblue" d="M792.88,-796.65C675.1,-786.27 442.78,-765.81 324.65,-755.4"/>
<polygon fill="midnightblue" stroke="midnightblue" points="324.89,-751.91 314.62,-754.52 324.27,-758.88 324.89,-751.91"/>
</g>
<!-- Node22&#45;&gt;Node13 -->
<g id="edge62" class="edge">
<title>Node22&#45;&gt;Node13</title>
<path fill="none" stroke="midnightblue" d="M837.28,-794.49C795.96,-779.87 723,-745.81 723,-687.5 723,-687.5 723,-687.5 723,-372.5 723,-333.77 731.82,-289.11 737.44,-264.57"/>
<polygon fill="midnightblue" stroke="midnightblue" points="740.92,-265.06 739.82,-254.52 734.11,-263.44 740.92,-265.06"/>
</g>
<!-- Node23 -->
<g id="node23" class="node">
<title>Node23</title>
<g id="a_node23"><a xlink:href="api_2packet__types_8h.html" target="_top" xlink:title=" ">
<polygon fill="white" stroke="black" points="824.5,-738.5 824.5,-757.5 953.5,-757.5 953.5,-738.5 824.5,-738.5"/>
<text text-anchor="middle" x="889" y="-745.5" font-family="Helvetica,sans-Serif" font-size="10.00">odp/api/packet_types.h</text>
</a>
</g>
</g>
<!-- Node22&#45;&gt;Node23 -->
<g id="edge32" class="edge">
<title>Node22&#45;&gt;Node23</title>
<path fill="none" stroke="midnightblue" d="M868.96,-794.08C872.21,-786.77 876.92,-776.18 880.95,-767.1"/>
<polygon fill="midnightblue" stroke="midnightblue" points="884.25,-768.31 885.11,-757.75 877.85,-765.47 884.25,-768.31"/>
</g>
<!-- Node30 -->
<g id="node30" class="node">
<title>Node30</title>
<g id="a_node30"><a xlink:href="api_2queue__types_8h.html" target="_top" xlink:title=" ">
<polygon fill="white" stroke="black" points="876.5,-615.5 876.5,-634.5 1003.5,-634.5 1003.5,-615.5 876.5,-615.5"/>
<text text-anchor="middle" x="940" y="-622.5" font-family="Helvetica,sans-Serif" font-size="10.00">odp/api/queue_types.h</text>
</a>
</g>
</g>
<!-- Node22&#45;&gt;Node30 -->
<g id="edge61" class="edge">
<title>Node22&#45;&gt;Node30</title>
<path fill="none" stroke="midnightblue" d="M899.8,-794.48C963.79,-778.03 1096.02,-740.13 1122,-702 1152.38,-657.41 1076.41,-638.92 1013.5,-631.29"/>
<polygon fill="midnightblue" stroke="midnightblue" points="1013.87,-627.81 1003.54,-630.16 1013.08,-634.77 1013.87,-627.81"/>
</g>
<!-- Node24 -->
<g id="node24" class="node">
<title>Node24</title>
<g id="a_node24"><a xlink:title=" ">
<polygon fill="white" stroke="#bfbfbf" points="1007,-671.5 1007,-701.5 1113,-701.5 1113,-671.5 1007,-671.5"/>
<text text-anchor="start" x="1015" y="-689.5" font-family="Helvetica,sans-Serif" font-size="10.00">odp/api/abi/packet</text>
<text text-anchor="middle" x="1060" y="-678.5" font-family="Helvetica,sans-Serif" font-size="10.00">_io_types.h</text>
</a>
</g>
</g>
<!-- Node23&#45;&gt;Node24 -->
<g id="edge33" class="edge">
<title>Node23&#45;&gt;Node24</title>
<path fill="none" stroke="midnightblue" d="M913.5,-738.48C938.61,-729.74 978.36,-715.91 1010.12,-704.86"/>
<polygon fill="midnightblue" stroke="midnightblue" points="1011.4,-708.11 1019.7,-701.52 1009.1,-701.5 1011.4,-708.11"/>
</g>
<!-- Node25 -->
<g id="node25" class="node">
<title>Node25</title>
<g id="a_node25"><a xlink:title=" ">
<polygon fill="white" stroke="#bfbfbf" points="883,-671.5 883,-701.5 989,-701.5 989,-671.5 883,-671.5"/>
<text text-anchor="start" x="891" y="-689.5" font-family="Helvetica,sans-Serif" font-size="10.00">odp/api/abi/packet</text>
<text text-anchor="middle" x="936" y="-678.5" font-family="Helvetica,sans-Serif" font-size="10.00">_types.h</text>
</a>
</g>
</g>
<!-- Node23&#45;&gt;Node25 -->
<g id="edge34" class="edge">
<title>Node23&#45;&gt;Node25</title>
<path fill="none" stroke="midnightblue" d="M895.73,-738.48C901.68,-730.94 910.62,-719.63 918.57,-709.57"/>
<polygon fill="midnightblue" stroke="midnightblue" points="921.47,-711.54 924.92,-701.52 915.98,-707.2 921.47,-711.54"/>
</g>
<!-- Node26 -->
<g id="node26" class="node">
<title>Node26</title>
<g id="a_node26"><a xlink:href="api_2spec_2packet__types_8h.html" target="_top" xlink:title=" ">
<polygon fill="white" stroke="black" points="751.5,-671.5 751.5,-701.5 864.5,-701.5 864.5,-671.5 751.5,-671.5"/>
<text text-anchor="start" x="759.5" y="-689.5" font-family="Helvetica,sans-Serif" font-size="10.00">odp/api/spec/packet</text>
<text text-anchor="middle" x="808" y="-678.5" font-family="Helvetica,sans-Serif" font-size="10.00">_types.h</text>
</a>
</g>
</g>
<!-- Node23&#45;&gt;Node26 -->
<g id="edge35" class="edge">
<title>Node23&#45;&gt;Node26</title>
<path fill="none" stroke="midnightblue" d="M877.39,-738.48C866.42,-730.42 849.55,-718.02 835.19,-707.47"/>
<polygon fill="midnightblue" stroke="midnightblue" points="837.22,-704.62 827.09,-701.52 833.08,-710.26 837.22,-704.62"/>
</g>
<!-- Node26&#45;&gt;Node2 -->
<g id="edge36" class="edge">
<title>Node26&#45;&gt;Node2</title>
<path fill="none" stroke="midnightblue" d="M864.56,-672.84C915.34,-661.24 985.93,-644.47 1013,-635 1083.67,-610.27 1166,-639.37 1166,-564.5 1166,-564.5 1166,-564.5 1166,-439.5 1166,-351.86 1204,-333.64 1204,-246 1204,-246 1204,-246 1204,-132 1204,-77.75 1142.72,-41.4 1103.35,-23.64"/>
<polygon fill="midnightblue" stroke="midnightblue" points="1104.43,-20.3 1093.86,-19.53 1101.65,-26.72 1104.43,-20.3"/>
</g>
<!-- Node26&#45;&gt;Node6 -->
<g id="edge60" class="edge">
<title>Node26&#45;&gt;Node6</title>
<path fill="none" stroke="midnightblue" d="M751.19,-681C636.9,-670.37 390,-638.82 390,-564.5 390,-564.5 390,-564.5 390,-501 390,-403.2 165.7,-235.52 134,-143 121.47,-106.42 108.56,-85.97 133,-56 152.03,-32.66 228.46,-21.08 285.71,-15.58"/>
<polygon fill="midnightblue" stroke="midnightblue" points="286.16,-19.05 295.8,-14.65 285.52,-12.08 286.16,-19.05"/>
</g>
<!-- Node27 -->
<g id="node27" class="node">
<title>Node27</title>
<g id="a_node27"><a xlink:href="api_2proto__stats__types_8h.html" target="_top" xlink:title=" ">
<polygon fill="white" stroke="black" points="411,-358.5 411,-388.5 521,-388.5 521,-358.5 411,-358.5"/>
<text text-anchor="start" x="419" y="-376.5" font-family="Helvetica,sans-Serif" font-size="10.00">odp/api/proto_stats</text>
<text text-anchor="middle" x="466" y="-365.5" font-family="Helvetica,sans-Serif" font-size="10.00">_types.h</text>
</a>
</g>
</g>
<!-- Node26&#45;&gt;Node27 -->
<g id="edge37" class="edge">
<title>Node26&#45;&gt;Node27</title>
<path fill="none" stroke="midnightblue" d="M751.14,-677.39C653.89,-661.9 466,-624.25 466,-564.5 466,-564.5 466,-564.5 466,-501 466,-465.42 466,-424.2 466,-398.74"/>
<polygon fill="midnightblue" stroke="midnightblue" points="469.5,-398.54 466,-388.54 462.5,-398.54 469.5,-398.54"/>
</g>
<!-- Node26&#45;&gt;Node30 -->
<g id="edge43" class="edge">
<title>Node26&#45;&gt;Node30</title>
<path fill="none" stroke="midnightblue" d="M839.28,-671.4C861.23,-661.51 890.34,-648.38 911.62,-638.79"/>
<polygon fill="midnightblue" stroke="midnightblue" points="913.11,-641.96 920.79,-634.66 910.24,-635.58 913.11,-641.96"/>
</g>
<!-- Node28 -->
<g id="node28" class="node">
<title>Node28</title>
<g id="a_node28"><a xlink:title=" ">
<polygon fill="white" stroke="#bfbfbf" points="529,-291.5 529,-321.5 657,-321.5 657,-291.5 529,-291.5"/>
<text text-anchor="start" x="537" y="-309.5" font-family="Helvetica,sans-Serif" font-size="10.00">odp/api/abi/proto_stats</text>
<text text-anchor="middle" x="593" y="-298.5" font-family="Helvetica,sans-Serif" font-size="10.00">_types.h</text>
</a>
</g>
</g>
<!-- Node27&#45;&gt;Node28 -->
<g id="edge38" class="edge">
<title>Node27&#45;&gt;Node28</title>
<path fill="none" stroke="midnightblue" d="M493.56,-358.4C511.95,-348.98 536.33,-336.5 556.35,-326.26"/>
<polygon fill="midnightblue" stroke="midnightblue" points="558.19,-329.25 565.5,-321.58 555,-323.02 558.19,-329.25"/>
</g>
<!-- Node29 -->
<g id="node29" class="node">
<title>Node29</title>
<g id="a_node29"><a xlink:href="api_2spec_2proto__stats__types_8h.html" target="_top" xlink:title=" ">
<polygon fill="white" stroke="black" points="403.5,-291.5 403.5,-321.5 510.5,-321.5 510.5,-291.5 403.5,-291.5"/>
<text text-anchor="start" x="411.5" y="-309.5" font-family="Helvetica,sans-Serif" font-size="10.00">odp/api/spec/proto</text>
<text text-anchor="middle" x="457" y="-298.5" font-family="Helvetica,sans-Serif" font-size="10.00">_stats_types.h</text>
</a>
</g>
</g>
<!-- Node27&#45;&gt;Node29 -->
<g id="edge39" class="edge">
<title>Node27&#45;&gt;Node29</title>
<path fill="none" stroke="midnightblue" d="M464.05,-358.4C462.96,-350.56 461.58,-340.6 460.33,-331.57"/>
<polygon fill="midnightblue" stroke="midnightblue" points="463.79,-331 458.95,-321.58 456.85,-331.96 463.79,-331"/>
</g>
<!-- Node29&#45;&gt;Node2 -->
<g id="edge40" class="edge">
<title>Node29&#45;&gt;Node2</title>
<path fill="none" stroke="midnightblue" d="M494.66,-291.49C538.07,-275.79 611.84,-250.51 677,-235 776.37,-211.34 814.4,-248.05 904,-199 980.28,-157.24 1038.96,-66.64 1061.25,-28.49"/>
<polygon fill="midnightblue" stroke="midnightblue" points="1064.41,-30.01 1066.34,-19.59 1058.34,-26.54 1064.41,-30.01"/>
</g>
<!-- Node29&#45;&gt;Node6 -->
<g id="edge42" class="edge">
<title>Node29&#45;&gt;Node6</title>
<path fill="none" stroke="midnightblue" d="M445.02,-291.39C417.85,-258.34 352.14,-172.28 329,-87 325.39,-73.7 325.78,-69.4 329,-56 331.31,-46.42 336.02,-36.58 340.58,-28.56"/>
<polygon fill="midnightblue" stroke="midnightblue" points="343.69,-30.17 345.9,-19.81 337.71,-26.54 343.69,-30.17"/>
</g>
<!-- Node29&#45;&gt;Node13 -->
<g id="edge41" class="edge">
<title>Node29&#45;&gt;Node13</title>
<path fill="none" stroke="midnightblue" d="M510.59,-293.06C513.78,-292.36 516.93,-291.66 520,-291 577.35,-278.59 643.27,-265.36 688.28,-256.48"/>
<polygon fill="midnightblue" stroke="midnightblue" points="688.99,-259.91 698.12,-254.54 687.63,-253.04 688.99,-259.91"/>
</g>
<!-- Node31 -->
<g id="node31" class="node">
<title>Node31</title>
<g id="a_node31"><a xlink:title=" ">
<polygon fill="white" stroke="#bfbfbf" points="940.5,-554 940.5,-573 1085.5,-573 1085.5,-554 940.5,-554"/>
<text text-anchor="middle" x="1013" y="-561" font-family="Helvetica,sans-Serif" font-size="10.00">odp/api/abi/queue_types.h</text>
</a>
</g>
</g>
<!-- Node30&#45;&gt;Node31 -->
<g id="edge44" class="edge">
<title>Node30&#45;&gt;Node31</title>
<path fill="none" stroke="midnightblue" d="M950.46,-615.48C961.95,-606.11 980.63,-590.88 994.59,-579.51"/>
<polygon fill="midnightblue" stroke="midnightblue" points="997.02,-582.04 1002.56,-573.01 992.6,-576.61 997.02,-582.04"/>
</g>
<!-- Node32 -->
<g id="node32" class="node">
<title>Node32</title>
<g id="a_node32"><a xlink:href="api_2spec_2queue__types_8h.html" target="_top" xlink:title=" ">
<polygon fill="white" stroke="black" points="811.5,-548.5 811.5,-578.5 922.5,-578.5 922.5,-548.5 811.5,-548.5"/>
<text text-anchor="start" x="819.5" y="-566.5" font-family="Helvetica,sans-Serif" font-size="10.00">odp/api/spec/queue</text>
<text text-anchor="middle" x="867" y="-555.5" font-family="Helvetica,sans-Serif" font-size="10.00">_types.h</text>
</a>
</g>
</g>
<!-- Node30&#45;&gt;Node32 -->
<g id="edge45" class="edge">
<title>Node30&#45;&gt;Node32</title>
<path fill="none" stroke="midnightblue" d="M929.54,-615.48C919.84,-607.57 905.01,-595.48 892.23,-585.07"/>
<polygon fill="midnightblue" stroke="midnightblue" points="894.17,-582.13 884.2,-578.52 889.74,-587.55 894.17,-582.13"/>
</g>
<!-- Node32&#45;&gt;Node2 -->
<g id="edge46" class="edge">
<title>Node32&#45;&gt;Node2</title>
<path fill="none" stroke="midnightblue" d="M922.67,-548.64C999.32,-527.89 1128,-486.39 1128,-441.5 1128,-441.5 1128,-441.5 1128,-132 1128,-91.59 1101.66,-50.21 1084.79,-27.85"/>
<polygon fill="midnightblue" stroke="midnightblue" points="1087.37,-25.46 1078.45,-19.74 1081.85,-29.77 1087.37,-25.46"/>
</g>
<!-- Node32&#45;&gt;Node6 -->
<g id="edge59" class="edge">
<title>Node32&#45;&gt;Node6</title>
<path fill="none" stroke="midnightblue" d="M811.5,-560.13C708.79,-552.56 489.33,-520.93 377,-389 288.56,-285.12 334.27,-222.88 322,-87 320.76,-73.28 318.01,-69.19 322,-56 325.12,-45.7 331.45,-35.61 337.5,-27.6"/>
<polygon fill="midnightblue" stroke="midnightblue" points="340.23,-29.8 343.79,-19.82 334.78,-25.4 340.23,-29.8"/>
</g>
<!-- Node33 -->
<g id="node33" class="node">
<title>Node33</title>
<g id="a_node33"><a xlink:href="api_2schedule__types_8h.html" target="_top" xlink:title=" ">
<polygon fill="white" stroke="black" points="797,-492.5 797,-511.5 937,-511.5 937,-492.5 797,-492.5"/>
<text text-anchor="middle" x="867" y="-499.5" font-family="Helvetica,sans-Serif" font-size="10.00">odp/api/schedule_types.h</text>
</a>
</g>
</g>
<!-- Node32&#45;&gt;Node33 -->
<g id="edge47" class="edge">
<title>Node32&#45;&gt;Node33</title>
<path fill="none" stroke="midnightblue" d="M867,-548.4C867,-540.47 867,-530.46 867,-521.86"/>
<polygon fill="midnightblue" stroke="midnightblue" points="870.5,-521.66 867,-511.66 863.5,-521.66 870.5,-521.66"/>
</g>
<!-- Node34 -->
<g id="node34" class="node">
<title>Node34</title>
<g id="a_node34"><a xlink:title=" ">
<polygon fill="white" stroke="#bfbfbf" points="915.5,-425.5 915.5,-455.5 1032.5,-455.5 1032.5,-425.5 915.5,-425.5"/>
<text text-anchor="start" x="923.5" y="-443.5" font-family="Helvetica,sans-Serif" font-size="10.00">odp/api/abi/schedule</text>
<text text-anchor="middle" x="974" y="-432.5" font-family="Helvetica,sans-Serif" font-size="10.00">_types.h</text>
</a>
</g>
</g>
<!-- Node33&#45;&gt;Node34 -->
<g id="edge48" class="edge">
<title>Node33&#45;&gt;Node34</title>
<path fill="none" stroke="midnightblue" d="M882.33,-492.48C897.3,-484.15 920.58,-471.21 939.93,-460.45"/>
<polygon fill="midnightblue" stroke="midnightblue" points="941.74,-463.44 948.78,-455.52 938.34,-457.32 941.74,-463.44"/>
</g>
<!-- Node35 -->
<g id="node35" class="node">
<title>Node35</title>
<g id="a_node35"><a xlink:href="api_2spec_2schedule__types_8h.html" target="_top" xlink:title=" ">
<polygon fill="white" stroke="black" points="772.5,-425.5 772.5,-455.5 897.5,-455.5 897.5,-425.5 772.5,-425.5"/>
<text text-anchor="start" x="780.5" y="-443.5" font-family="Helvetica,sans-Serif" font-size="10.00">odp/api/spec/schedule</text>
<text text-anchor="middle" x="835" y="-432.5" font-family="Helvetica,sans-Serif" font-size="10.00">_types.h</text>
</a>
</g>
</g>
<!-- Node33&#45;&gt;Node35 -->
<g id="edge49" class="edge">
<title>Node33&#45;&gt;Node35</title>
<path fill="none" stroke="midnightblue" d="M862.42,-492.48C858.49,-485.17 852.64,-474.3 847.36,-464.47"/>
<polygon fill="midnightblue" stroke="midnightblue" points="850.36,-462.67 842.54,-455.52 844.2,-465.99 850.36,-462.67"/>
</g>
<!-- Node35&#45;&gt;Node2 -->
<g id="edge50" class="edge">
<title>Node35&#45;&gt;Node2</title>
<path fill="none" stroke="midnightblue" d="M882.66,-425.41C956.47,-402.14 1090,-353.67 1090,-307.5 1090,-307.5 1090,-307.5 1090,-132 1090,-95.29 1081.36,-53.06 1075.73,-29.45"/>
<polygon fill="midnightblue" stroke="midnightblue" points="1079.13,-28.6 1073.33,-19.73 1072.33,-30.28 1079.13,-28.6"/>
</g>
<!-- Node35&#45;&gt;Node6 -->
<g id="edge58" class="edge">
<title>Node35&#45;&gt;Node6</title>
<path fill="none" stroke="midnightblue" d="M772.13,-436.45C658.33,-430.33 427.53,-414.84 402,-389 296.57,-282.3 539.58,-181.23 457,-56 446.36,-39.86 428.61,-29.49 410.69,-22.83"/>
<polygon fill="midnightblue" stroke="midnightblue" points="411.37,-19.37 400.77,-19.5 409.14,-26 411.37,-19.37"/>
</g>
<!-- Node35&#45;&gt;Node13 -->
<g id="edge51" class="edge">
<title>Node35&#45;&gt;Node13</title>
<path fill="none" stroke="midnightblue" d="M821.41,-425.42C812.67,-415.78 801.57,-402.36 794,-389 770.32,-347.2 754.04,-292.62 746.6,-264.52"/>
<polygon fill="midnightblue" stroke="midnightblue" points="749.99,-263.63 744.11,-254.82 743.21,-265.37 749.99,-263.63"/>
</g>
<!-- Node36 -->
<g id="node36" class="node">
<title>Node36</title>
<g id="a_node36"><a xlink:href="api_2thrmask_8h.html" target="_top" xlink:title=" ">
<polygon fill="white" stroke="black" points="802.5,-364 802.5,-383 907.5,-383 907.5,-364 802.5,-364"/>
<text text-anchor="middle" x="855" y="-371" font-family="Helvetica,sans-Serif" font-size="10.00">odp/api/thrmask.h</text>
</a>
</g>
</g>
<!-- Node35&#45;&gt;Node36 -->
<g id="edge52" class="edge">
<title>Node35&#45;&gt;Node36</title>
<path fill="none" stroke="midnightblue" d="M839.34,-425.4C842.27,-415.86 846.17,-403.18 849.35,-392.86"/>
<polygon fill="midnightblue" stroke="midnightblue" points="852.73,-393.78 852.32,-383.19 846.04,-391.72 852.73,-393.78"/>
</g>
<!-- Node37 -->
<g id="node37" class="node">
<title>Node37</title>
<g id="a_node37"><a xlink:title=" ">
<polygon fill="white" stroke="#bfbfbf" points="938.5,-297 938.5,-316 1061.5,-316 1061.5,-297 938.5,-297"/>
<text text-anchor="middle" x="1000" y="-304" font-family="Helvetica,sans-Serif" font-size="10.00">odp/api/abi/thrmask.h</text>
</a>
</g>
</g>
<!-- Node36&#45;&gt;Node37 -->
<g id="edge53" class="edge">
<title>Node36&#45;&gt;Node37</title>
<path fill="none" stroke="midnightblue" d="M874.25,-363.87C899.17,-352.7 942.79,-333.15 971.53,-320.26"/>
<polygon fill="midnightblue" stroke="midnightblue" points="972.97,-323.45 980.67,-316.17 970.11,-317.06 972.97,-323.45"/>
</g>
<!-- Node38 -->
<g id="node38" class="node">
<title>Node38</title>
<g id="a_node38"><a xlink:href="api_2spec_2thrmask_8h.html" target="_top" xlink:title=" ">
<polygon fill="white" stroke="black" points="789.5,-297 789.5,-316 920.5,-316 920.5,-297 789.5,-297"/>
<text text-anchor="middle" x="855" y="-304" font-family="Helvetica,sans-Serif" font-size="10.00">odp/api/spec/thrmask.h</text>
</a>
</g>
</g>
<!-- Node36&#45;&gt;Node38 -->
<g id="edge54" class="edge">
<title>Node36&#45;&gt;Node38</title>
<path fill="none" stroke="midnightblue" d="M855,-363.73C855,-354.18 855,-338.62 855,-326.28"/>
<polygon fill="midnightblue" stroke="midnightblue" points="858.5,-326.13 855,-316.13 851.5,-326.13 858.5,-326.13"/>
</g>
<!-- Node38&#45;&gt;Node2 -->
<g id="edge55" class="edge">
<title>Node38&#45;&gt;Node2</title>
<path fill="none" stroke="midnightblue" d="M879.55,-296.88C932.36,-277.6 1052,-229.55 1052,-190 1052,-190 1052,-190 1052,-132 1052,-95.29 1060.64,-53.06 1066.27,-29.45"/>
<polygon fill="midnightblue" stroke="midnightblue" points="1069.67,-30.28 1068.67,-19.73 1062.87,-28.6 1069.67,-30.28"/>
</g>
<!-- Node38&#45;&gt;Node6 -->
<g id="edge57" class="edge">
<title>Node38&#45;&gt;Node6</title>
<path fill="none" stroke="midnightblue" d="M850.66,-296.84C843.21,-282.64 826.88,-254.06 807,-235 785.1,-214 772.17,-218.59 749,-199 732.83,-185.33 641.52,-66.27 623,-56 588.79,-37.02 487.11,-23.88 418.5,-16.9"/>
<polygon fill="midnightblue" stroke="midnightblue" points="418.5,-13.38 408.21,-15.87 417.81,-20.35 418.5,-13.38"/>
</g>
<!-- Node38&#45;&gt;Node13 -->
<g id="edge56" class="edge">
<title>Node38&#45;&gt;Node13</title>
<path fill="none" stroke="midnightblue" d="M838.81,-296.98C820.1,-287.12 789.08,-270.79 767.2,-259.27"/>
<polygon fill="midnightblue" stroke="midnightblue" points="768.64,-256.07 758.16,-254.51 765.38,-262.27 768.64,-256.07"/>
</g>
</g>
</svg>
