<?xml version="1.0" encoding="UTF-8" standalone="no"?>
<!DOCTYPE svg PUBLIC "-//W3C//DTD SVG 1.1//EN"
 "http://www.w3.org/Graphics/SVG/1.1/DTD/svg11.dtd">
<!-- Generated by graphviz version 2.43.0 (0)
 -->
<!-- Title: cpumask.h Pages: 1 -->
<svg width="1241pt" height="1092pt"
 viewBox="0.00 0.00 1241.00 1092.00" xmlns="http://www.w3.org/2000/svg" xmlns:xlink="http://www.w3.org/1999/xlink">
<g id="graph0" class="graph" transform="scale(1 1) rotate(0) translate(4 1088)">
<title>cpumask.h</title>
<polygon fill="white" stroke="transparent" points="-4,4 -4,-1088 1237,-1088 1237,4 -4,4"/>
<!-- Node1 -->
<g id="node1" class="node">
<title>Node1</title>
<g id="a_node1"><a xlink:title=" ">
<polygon fill="#bfbfbf" stroke="black" points="1028,-1064.5 1028,-1083.5 1098,-1083.5 1098,-1064.5 1028,-1064.5"/>
<text text-anchor="middle" x="1063" y="-1071.5" font-family="Helvetica,sans-Serif" font-size="10.00">cpumask.h</text>
</a>
</g>
</g>
<!-- Node2 -->
<g id="node2" class="node">
<title>Node2</title>
<g id="a_node2"><a xlink:href="api_2cpumask_8h.html" target="_top" xlink:title=" ">
<polygon fill="white" stroke="black" points="1028,-1008.5 1028,-1027.5 1098,-1027.5 1098,-1008.5 1028,-1008.5"/>
<text text-anchor="middle" x="1063" y="-1015.5" font-family="Helvetica,sans-Serif" font-size="10.00">cpumask.h</text>
</a>
</g>
</g>
<!-- Node1&#45;&gt;Node2 -->
<g id="edge1" class="edge">
<title>Node1&#45;&gt;Node2</title>
<path fill="none" stroke="midnightblue" d="M1063,-1053.8C1063,-1044.91 1063,-1034.78 1063,-1027.75"/>
<polygon fill="midnightblue" stroke="midnightblue" points="1059.5,-1054.08 1063,-1064.08 1066.5,-1054.08 1059.5,-1054.08"/>
</g>
<!-- Node3 -->
<g id="node3" class="node">
<title>Node3</title>
<g id="a_node3"><a xlink:href="api_2abi-default_2thrmask_8h.html" target="_top" xlink:title=" ">
<polygon fill="white" stroke="black" points="479,-952.5 479,-971.5 545,-971.5 545,-952.5 479,-952.5"/>
<text text-anchor="middle" x="512" y="-959.5" font-family="Helvetica,sans-Serif" font-size="10.00">thrmask.h</text>
</a>
</g>
</g>
<!-- Node2&#45;&gt;Node3 -->
<g id="edge2" class="edge">
<title>Node2&#45;&gt;Node3</title>
<path fill="none" stroke="midnightblue" d="M1017.45,-1012.54C909.42,-1001.95 639.66,-975.51 545.26,-966.26"/>
<polygon fill="midnightblue" stroke="midnightblue" points="1017.4,-1016.05 1027.69,-1013.54 1018.08,-1009.08 1017.4,-1016.05"/>
</g>
<!-- Node13 -->
<g id="node13" class="node">
<title>Node13</title>
<g id="a_node13"><a xlink:href="odp__api_8h.html" target="_top" xlink:title=" ">
<polygon fill="white" stroke="black" points="609,-0.5 609,-19.5 673,-19.5 673,-0.5 609,-0.5"/>
<text text-anchor="middle" x="641" y="-7.5" font-family="Helvetica,sans-Serif" font-size="10.00">odp_api.h</text>
</a>
</g>
</g>
<!-- Node2&#45;&gt;Node13 -->
<g id="edge74" class="edge">
<title>Node2&#45;&gt;Node13</title>
<path fill="none" stroke="midnightblue" d="M1063,-998.25C1063,-976.36 1063,-939.05 1063,-907 1063,-907 1063,-907 1063,-121 1063,-40.46 771.54,-17.82 673.06,-12.46"/>
<polygon fill="midnightblue" stroke="midnightblue" points="1059.5,-998.44 1063,-1008.44 1066.5,-998.44 1059.5,-998.44"/>
</g>
<!-- Node60 -->
<g id="node47" class="node">
<title>Node60</title>
<g id="a_node47"><a xlink:href="api_2spec_2init_8h.html" target="_top" xlink:title=" ">
<polygon fill="white" stroke="black" points="1091.5,-952.5 1091.5,-971.5 1132.5,-971.5 1132.5,-952.5 1091.5,-952.5"/>
<text text-anchor="middle" x="1112" y="-959.5" font-family="Helvetica,sans-Serif" font-size="10.00">init.h</text>
</a>
</g>
</g>
<!-- Node2&#45;&gt;Node60 -->
<g id="edge68" class="edge">
<title>Node2&#45;&gt;Node60</title>
<path fill="none" stroke="midnightblue" d="M1078.03,-1000.43C1086.62,-990.97 1097.04,-979.48 1104.06,-971.75"/>
<polygon fill="midnightblue" stroke="midnightblue" points="1075.22,-998.33 1071.09,-1008.08 1080.4,-1003.03 1075.22,-998.33"/>
</g>
<!-- Node4 -->
<g id="node4" class="node">
<title>Node4</title>
<g id="a_node4"><a xlink:href="arch_2arm32-linux_2odp_2api_2abi_2thrmask_8h_source.html" target="_top" xlink:title=" ">
<polygon fill="white" stroke="black" points="311,-896.5 311,-915.5 377,-915.5 377,-896.5 311,-896.5"/>
<text text-anchor="middle" x="344" y="-903.5" font-family="Helvetica,sans-Serif" font-size="10.00">thrmask.h</text>
</a>
</g>
</g>
<!-- Node3&#45;&gt;Node4 -->
<g id="edge3" class="edge">
<title>Node3&#45;&gt;Node4</title>
<path fill="none" stroke="midnightblue" d="M475.61,-949.3C443.96,-939.13 398.83,-924.62 370.5,-915.52"/>
<polygon fill="midnightblue" stroke="midnightblue" points="474.79,-952.72 485.38,-952.44 476.93,-946.05 474.79,-952.72"/>
</g>
<!-- Node5 -->
<g id="node5" class="node">
<title>Node5</title>
<g id="a_node5"><a xlink:href="arch_2arm64-linux_2odp_2api_2abi_2thrmask_8h_source.html" target="_top" xlink:title=" ">
<polygon fill="white" stroke="black" points="479,-896.5 479,-915.5 545,-915.5 545,-896.5 479,-896.5"/>
<text text-anchor="middle" x="512" y="-903.5" font-family="Helvetica,sans-Serif" font-size="10.00">thrmask.h</text>
</a>
</g>
</g>
<!-- Node3&#45;&gt;Node5 -->
<g id="edge4" class="edge">
<title>Node3&#45;&gt;Node5</title>
<path fill="none" stroke="midnightblue" d="M512,-941.8C512,-932.91 512,-922.78 512,-915.75"/>
<polygon fill="midnightblue" stroke="midnightblue" points="508.5,-942.08 512,-952.08 515.5,-942.08 508.5,-942.08"/>
</g>
<!-- Node6 -->
<g id="node6" class="node">
<title>Node6</title>
<g id="a_node6"><a xlink:href="arch_2default-linux_2odp_2api_2abi_2thrmask_8h_source.html" target="_top" xlink:title=" ">
<polygon fill="white" stroke="black" points="563,-896.5 563,-915.5 629,-915.5 629,-896.5 563,-896.5"/>
<text text-anchor="middle" x="596" y="-903.5" font-family="Helvetica,sans-Serif" font-size="10.00">thrmask.h</text>
</a>
</g>
</g>
<!-- Node3&#45;&gt;Node6 -->
<g id="edge5" class="edge">
<title>Node3&#45;&gt;Node6</title>
<path fill="none" stroke="midnightblue" d="M533.93,-946.9C549.34,-937 569.45,-924.07 582.54,-915.65"/>
<polygon fill="midnightblue" stroke="midnightblue" points="532.02,-943.97 525.5,-952.32 535.8,-949.86 532.02,-943.97"/>
</g>
<!-- Node7 -->
<g id="node7" class="node">
<title>Node7</title>
<g id="a_node7"><a xlink:href="arch_2power64-linux_2odp_2api_2abi_2thrmask_8h_source.html" target="_top" xlink:title=" ">
<polygon fill="white" stroke="black" points="647,-896.5 647,-915.5 713,-915.5 713,-896.5 647,-896.5"/>
<text text-anchor="middle" x="680" y="-903.5" font-family="Helvetica,sans-Serif" font-size="10.00">thrmask.h</text>
</a>
</g>
</g>
<!-- Node3&#45;&gt;Node7 -->
<g id="edge6" class="edge">
<title>Node3&#45;&gt;Node7</title>
<path fill="none" stroke="midnightblue" d="M548.39,-949.3C580.04,-939.13 625.17,-924.62 653.5,-915.52"/>
<polygon fill="midnightblue" stroke="midnightblue" points="547.07,-946.05 538.62,-952.44 549.21,-952.72 547.07,-946.05"/>
</g>
<!-- Node8 -->
<g id="node8" class="node">
<title>Node8</title>
<g id="a_node8"><a xlink:href="arch_2x86__32-linux_2odp_2api_2abi_2thrmask_8h_source.html" target="_top" xlink:title=" ">
<polygon fill="white" stroke="black" points="227,-896.5 227,-915.5 293,-915.5 293,-896.5 227,-896.5"/>
<text text-anchor="middle" x="260" y="-903.5" font-family="Helvetica,sans-Serif" font-size="10.00">thrmask.h</text>
</a>
</g>
</g>
<!-- Node3&#45;&gt;Node8 -->
<g id="edge7" class="edge">
<title>Node3&#45;&gt;Node8</title>
<path fill="none" stroke="midnightblue" d="M468.98,-951.78C419.25,-941.12 338.45,-923.81 293.28,-914.13"/>
<polygon fill="midnightblue" stroke="midnightblue" points="468.28,-955.21 478.8,-953.88 469.75,-948.37 468.28,-955.21"/>
</g>
<!-- Node9 -->
<g id="node9" class="node">
<title>Node9</title>
<g id="a_node9"><a xlink:href="arch_2x86__64-linux_2odp_2api_2abi_2thrmask_8h_source.html" target="_top" xlink:title=" ">
<polygon fill="white" stroke="black" points="395,-896.5 395,-915.5 461,-915.5 461,-896.5 395,-896.5"/>
<text text-anchor="middle" x="428" y="-903.5" font-family="Helvetica,sans-Serif" font-size="10.00">thrmask.h</text>
</a>
</g>
</g>
<!-- Node3&#45;&gt;Node9 -->
<g id="edge8" class="edge">
<title>Node3&#45;&gt;Node9</title>
<path fill="none" stroke="midnightblue" d="M490.07,-946.9C474.66,-937 454.55,-924.07 441.46,-915.65"/>
<polygon fill="midnightblue" stroke="midnightblue" points="488.2,-949.86 498.5,-952.32 491.98,-943.97 488.2,-949.86"/>
</g>
<!-- Node10 -->
<g id="node10" class="node">
<title>Node10</title>
<g id="a_node10"><a xlink:href="api_2thrmask_8h.html" target="_top" xlink:title=" ">
<polygon fill="white" stroke="black" points="69,-840.5 69,-859.5 135,-859.5 135,-840.5 69,-840.5"/>
<text text-anchor="middle" x="102" y="-847.5" font-family="Helvetica,sans-Serif" font-size="10.00">thrmask.h</text>
</a>
</g>
</g>
<!-- Node9&#45;&gt;Node10 -->
<g id="edge9" class="edge">
<title>Node9&#45;&gt;Node10</title>
<path fill="none" stroke="midnightblue" d="M384.69,-895.83C288.64,-878.14 186.73,-863.04 135.33,-855.69"/>
<polygon fill="midnightblue" stroke="midnightblue" points="384.09,-899.28 394.56,-897.66 385.37,-892.4 384.09,-899.28"/>
</g>
<!-- Node11 -->
<g id="node11" class="node">
<title>Node11</title>
<g id="a_node11"><a xlink:href="api_2spec_2schedule_8h.html" target="_top" xlink:title=" ">
<polygon fill="white" stroke="black" points="28.5,-560.5 28.5,-579.5 97.5,-579.5 97.5,-560.5 28.5,-560.5"/>
<text text-anchor="middle" x="63" y="-567.5" font-family="Helvetica,sans-Serif" font-size="10.00">schedule.h</text>
</a>
</g>
</g>
<!-- Node10&#45;&gt;Node11 -->
<g id="edge10" class="edge">
<title>Node10&#45;&gt;Node11</title>
<path fill="none" stroke="midnightblue" d="M91.59,-831.46C80.04,-810.3 63,-773.28 63,-739 63,-739 63,-739 63,-681 63,-643.19 63,-598.06 63,-579.56"/>
<polygon fill="midnightblue" stroke="midnightblue" points="88.6,-833.28 96.58,-840.25 94.69,-829.83 88.6,-833.28"/>
</g>
<!-- Node10&#45;&gt;Node13 -->
<g id="edge67" class="edge">
<title>Node10&#45;&gt;Node13</title>
<path fill="none" stroke="midnightblue" d="M75.88,-835.49C45.66,-817.77 0,-783.61 0,-739 0,-739 0,-739 0,-121 0,-45.89 83.11,-74.12 156,-56 322.8,-14.54 530.46,-10.55 608.96,-10.66"/>
<polygon fill="midnightblue" stroke="midnightblue" points="74.27,-838.6 84.7,-840.45 77.7,-832.5 74.27,-838.6"/>
</g>
<!-- Node14 -->
<g id="node14" class="node">
<title>Node14</title>
<g id="a_node14"><a xlink:href="api_2spec_2schedule__types_8h.html" target="_top" xlink:title=" ">
<polygon fill="white" stroke="black" points="91.5,-784.5 91.5,-803.5 192.5,-803.5 192.5,-784.5 91.5,-784.5"/>
<text text-anchor="middle" x="142" y="-791.5" font-family="Helvetica,sans-Serif" font-size="10.00">schedule_types.h</text>
</a>
</g>
</g>
<!-- Node10&#45;&gt;Node14 -->
<g id="edge13" class="edge">
<title>Node10&#45;&gt;Node14</title>
<path fill="none" stroke="midnightblue" d="M114.7,-831.86C121.63,-822.5 129.91,-811.33 135.52,-803.75"/>
<polygon fill="midnightblue" stroke="midnightblue" points="111.75,-829.96 108.61,-840.08 117.37,-834.13 111.75,-829.96"/>
</g>
<!-- Node12 -->
<g id="node12" class="node">
<title>Node12</title>
<g id="a_node12"><a xlink:href="api_2schedule_8h.html" target="_top" xlink:title=" ">
<polygon fill="white" stroke="black" points="28.5,-392.5 28.5,-411.5 97.5,-411.5 97.5,-392.5 28.5,-392.5"/>
<text text-anchor="middle" x="63" y="-399.5" font-family="Helvetica,sans-Serif" font-size="10.00">schedule.h</text>
</a>
</g>
</g>
<!-- Node11&#45;&gt;Node12 -->
<g id="edge11" class="edge">
<title>Node11&#45;&gt;Node12</title>
<path fill="none" stroke="midnightblue" d="M63,-549.93C63,-513.92 63,-437.23 63,-411.57"/>
<polygon fill="midnightblue" stroke="midnightblue" points="59.5,-550.08 63,-560.08 66.5,-550.08 59.5,-550.08"/>
</g>
<!-- Node12&#45;&gt;Node13 -->
<g id="edge12" class="edge">
<title>Node12&#45;&gt;Node13</title>
<path fill="none" stroke="midnightblue" d="M62.73,-382.25C62.43,-360.36 62,-323.05 62,-291 62,-291 62,-291 62,-121 62,-64.92 486.7,-24.21 608.63,-13.68"/>
<polygon fill="midnightblue" stroke="midnightblue" points="59.23,-382.49 62.87,-392.44 66.23,-382.39 59.23,-382.49"/>
</g>
<!-- Node15 -->
<g id="node15" class="node">
<title>Node15</title>
<g id="a_node15"><a xlink:href="api_2schedule__types_8h.html" target="_top" xlink:title=" ">
<polygon fill="white" stroke="black" points="91.5,-728.5 91.5,-747.5 192.5,-747.5 192.5,-728.5 91.5,-728.5"/>
<text text-anchor="middle" x="142" y="-735.5" font-family="Helvetica,sans-Serif" font-size="10.00">schedule_types.h</text>
</a>
</g>
</g>
<!-- Node14&#45;&gt;Node15 -->
<g id="edge14" class="edge">
<title>Node14&#45;&gt;Node15</title>
<path fill="none" stroke="midnightblue" d="M142,-773.8C142,-764.91 142,-754.78 142,-747.75"/>
<polygon fill="midnightblue" stroke="midnightblue" points="138.5,-774.08 142,-784.08 145.5,-774.08 138.5,-774.08"/>
</g>
<!-- Node15&#45;&gt;Node11 -->
<g id="edge66" class="edge">
<title>Node15&#45;&gt;Node11</title>
<path fill="none" stroke="midnightblue" d="M133.37,-718.86C116.42,-683.25 79.4,-605.45 67.08,-579.57"/>
<polygon fill="midnightblue" stroke="midnightblue" points="130.29,-720.55 137.75,-728.08 136.62,-717.54 130.29,-720.55"/>
</g>
<!-- Node16 -->
<g id="node16" class="node">
<title>Node16</title>
<g id="a_node16"><a xlink:href="api_2spec_2queue__types_8h.html" target="_top" xlink:title=" ">
<polygon fill="white" stroke="black" points="322,-672.5 322,-691.5 410,-691.5 410,-672.5 322,-672.5"/>
<text text-anchor="middle" x="366" y="-679.5" font-family="Helvetica,sans-Serif" font-size="10.00">queue_types.h</text>
</a>
</g>
</g>
<!-- Node15&#45;&gt;Node16 -->
<g id="edge15" class="edge">
<title>Node15&#45;&gt;Node16</title>
<path fill="none" stroke="midnightblue" d="M187.26,-726.09C229.58,-715.89 291.91,-700.86 330.67,-691.52"/>
<polygon fill="midnightblue" stroke="midnightblue" points="186.39,-722.7 177.49,-728.44 188.04,-729.5 186.39,-722.7"/>
</g>
<!-- Node17 -->
<g id="node17" class="node">
<title>Node17</title>
<g id="a_node17"><a xlink:href="api_2queue__types_8h.html" target="_top" xlink:title=" ">
<polygon fill="white" stroke="black" points="592,-616.5 592,-635.5 680,-635.5 680,-616.5 592,-616.5"/>
<text text-anchor="middle" x="636" y="-623.5" font-family="Helvetica,sans-Serif" font-size="10.00">queue_types.h</text>
</a>
</g>
</g>
<!-- Node16&#45;&gt;Node17 -->
<g id="edge16" class="edge">
<title>Node16&#45;&gt;Node17</title>
<path fill="none" stroke="midnightblue" d="M418.63,-670.47C469.66,-660.27 546.1,-644.98 593.42,-635.52"/>
<polygon fill="midnightblue" stroke="midnightblue" points="417.9,-667.05 408.78,-672.44 419.27,-673.91 417.9,-667.05"/>
</g>
<!-- Node17&#45;&gt;Node11 -->
<g id="edge64" class="edge">
<title>Node17&#45;&gt;Node11</title>
<path fill="none" stroke="midnightblue" d="M581.69,-622.06C486.33,-616.51 282.69,-602.95 112,-580 107.37,-579.38 102.51,-578.62 97.73,-577.81"/>
<polygon fill="midnightblue" stroke="midnightblue" points="581.49,-625.55 591.68,-622.63 581.89,-618.56 581.49,-625.55"/>
</g>
<!-- Node18 -->
<g id="node18" class="node">
<title>Node18</title>
<g id="a_node18"><a xlink:href="api_2spec_2comp_8h.html" target="_top" xlink:title=" ">
<polygon fill="white" stroke="black" points="686.5,-448.5 686.5,-467.5 739.5,-467.5 739.5,-448.5 686.5,-448.5"/>
<text text-anchor="middle" x="713" y="-455.5" font-family="Helvetica,sans-Serif" font-size="10.00">comp.h</text>
</a>
</g>
</g>
<!-- Node17&#45;&gt;Node18 -->
<g id="edge17" class="edge">
<title>Node17&#45;&gt;Node18</title>
<path fill="none" stroke="midnightblue" d="M644.42,-606.86C660.93,-571.25 697.02,-493.45 709.03,-467.57"/>
<polygon fill="midnightblue" stroke="midnightblue" points="641.17,-605.53 640.14,-616.08 647.52,-608.48 641.17,-605.53"/>
</g>
<!-- Node20 -->
<g id="node20" class="node">
<title>Node20</title>
<g id="a_node20"><a xlink:href="api_2spec_2dma__types_8h.html" target="_top" xlink:title=" ">
<polygon fill="white" stroke="black" points="154,-448.5 154,-467.5 234,-467.5 234,-448.5 154,-448.5"/>
<text text-anchor="middle" x="194" y="-455.5" font-family="Helvetica,sans-Serif" font-size="10.00">dma_types.h</text>
</a>
</g>
</g>
<!-- Node17&#45;&gt;Node20 -->
<g id="edge20" class="edge">
<title>Node17&#45;&gt;Node20</title>
<path fill="none" stroke="midnightblue" d="M603.76,-612.89C518.69,-580.94 289.71,-494.94 216.7,-467.52"/>
<polygon fill="midnightblue" stroke="midnightblue" points="602.57,-616.19 613.17,-616.42 605.04,-609.63 602.57,-616.19"/>
</g>
<!-- Node42 -->
<g id="node29" class="node">
<title>Node42</title>
<g id="a_node29"><a xlink:href="api_2spec_2packet__io__types_8h.html" target="_top" xlink:title=" ">
<polygon fill="white" stroke="black" points="636,-224.5 636,-243.5 740,-243.5 740,-224.5 636,-224.5"/>
<text text-anchor="middle" x="688" y="-231.5" font-family="Helvetica,sans-Serif" font-size="10.00">packet_io_types.h</text>
</a>
</g>
</g>
<!-- Node17&#45;&gt;Node42 -->
<g id="edge48" class="edge">
<title>Node17&#45;&gt;Node42</title>
<path fill="none" stroke="midnightblue" d="M658.36,-610.69C704.5,-579.2 806,-499.03 806,-403 806,-403 806,-403 806,-345 806,-293.05 744.04,-258.63 709.92,-243.61"/>
<polygon fill="midnightblue" stroke="midnightblue" points="656.28,-607.86 649.91,-616.33 660.17,-613.69 656.28,-607.86"/>
</g>
<!-- Node34 -->
<g id="node32" class="node">
<title>Node34</title>
<g id="a_node32"><a xlink:href="api_2spec_2packet__io_8h.html" target="_top" xlink:title=" ">
<polygon fill="white" stroke="black" points="870,-112.5 870,-131.5 942,-131.5 942,-112.5 870,-112.5"/>
<text text-anchor="middle" x="906" y="-119.5" font-family="Helvetica,sans-Serif" font-size="10.00">packet_io.h</text>
</a>
</g>
</g>
<!-- Node17&#45;&gt;Node34 -->
<g id="edge43" class="edge">
<title>Node17&#45;&gt;Node34</title>
<path fill="none" stroke="midnightblue" d="M690.29,-625.35C760.95,-622.42 881.28,-605.03 931,-524 1013.99,-388.74 929.74,-177.2 909.95,-131.77"/>
<polygon fill="midnightblue" stroke="midnightblue" points="690.12,-621.85 680.24,-625.68 690.35,-628.85 690.12,-621.85"/>
</g>
<!-- Node48 -->
<g id="node35" class="node">
<title>Node48</title>
<g id="a_node35"><a xlink:href="api_2spec_2timer_8h.html" target="_top" xlink:title=" ">
<polygon fill="white" stroke="black" points="90.5,-224.5 90.5,-243.5 141.5,-243.5 141.5,-224.5 90.5,-224.5"/>
<text text-anchor="middle" x="116" y="-231.5" font-family="Helvetica,sans-Serif" font-size="10.00">timer.h</text>
</a>
</g>
</g>
<!-- Node17&#45;&gt;Node48 -->
<g id="edge65" class="edge">
<title>Node17&#45;&gt;Node48</title>
<path fill="none" stroke="midnightblue" d="M581.37,-624.66C449.78,-622.38 126,-607.38 126,-515 126,-515 126,-515 126,-345 126,-307.03 120.02,-261.99 117.31,-243.53"/>
<polygon fill="midnightblue" stroke="midnightblue" points="581.58,-628.17 591.63,-624.82 581.69,-621.17 581.58,-628.17"/>
</g>
<!-- Node50 -->
<g id="node37" class="node">
<title>Node50</title>
<g id="a_node37"><a xlink:href="spec_2packet__io__stats_8h.html" target="_top" xlink:title=" ">
<polygon fill="white" stroke="black" points="821.5,-504.5 821.5,-523.5 922.5,-523.5 922.5,-504.5 821.5,-504.5"/>
<text text-anchor="middle" x="872" y="-511.5" font-family="Helvetica,sans-Serif" font-size="10.00">packet_io_stats.h</text>
</a>
</g>
</g>
<!-- Node17&#45;&gt;Node50 -->
<g id="edge44" class="edge">
<title>Node17&#45;&gt;Node50</title>
<path fill="none" stroke="midnightblue" d="M690.28,-618.2C725.37,-612.05 771.02,-600.67 807,-580 832.74,-565.22 855.39,-537.6 865.85,-523.61"/>
<polygon fill="midnightblue" stroke="midnightblue" points="689.52,-614.78 680.22,-619.87 690.66,-621.68 689.52,-614.78"/>
</g>
<!-- Node52 -->
<g id="node39" class="node">
<title>Node52</title>
<g id="a_node39"><a xlink:href="api_2spec_2packet__types_8h.html" target="_top" xlink:title=" ">
<polygon fill="white" stroke="black" points="540,-560.5 540,-579.5 630,-579.5 630,-560.5 540,-560.5"/>
<text text-anchor="middle" x="585" y="-567.5" font-family="Helvetica,sans-Serif" font-size="10.00">packet_types.h</text>
</a>
</g>
</g>
<!-- Node17&#45;&gt;Node52 -->
<g id="edge49" class="edge">
<title>Node17&#45;&gt;Node52</title>
<path fill="none" stroke="midnightblue" d="M620.62,-608.72C611.63,-599.2 600.64,-587.56 593.26,-579.75"/>
<polygon fill="midnightblue" stroke="midnightblue" points="618.17,-611.22 627.58,-616.08 623.26,-606.41 618.17,-611.22"/>
</g>
<!-- Node58 -->
<g id="node45" class="node">
<title>Node58</title>
<g id="a_node45"><a xlink:href="api_2spec_2queue_8h.html" target="_top" xlink:title=" ">
<polygon fill="white" stroke="black" points="979,-560.5 979,-579.5 1035,-579.5 1035,-560.5 979,-560.5"/>
<text text-anchor="middle" x="1007" y="-567.5" font-family="Helvetica,sans-Serif" font-size="10.00">queue.h</text>
</a>
</g>
</g>
<!-- Node17&#45;&gt;Node58 -->
<g id="edge61" class="edge">
<title>Node17&#45;&gt;Node58</title>
<path fill="none" stroke="midnightblue" d="M690.14,-618.86C755.5,-611.16 868.65,-596.89 965,-580 969.41,-579.23 974.06,-578.32 978.59,-577.39"/>
<polygon fill="midnightblue" stroke="midnightblue" points="689.59,-615.4 680.07,-620.04 690.41,-622.35 689.59,-615.4"/>
</g>
<!-- Node19 -->
<g id="node19" class="node">
<title>Node19</title>
<g id="a_node19"><a xlink:href="api_2comp_8h.html" target="_top" xlink:title=" ">
<polygon fill="white" stroke="black" points="686.5,-336.5 686.5,-355.5 739.5,-355.5 739.5,-336.5 686.5,-336.5"/>
<text text-anchor="middle" x="713" y="-343.5" font-family="Helvetica,sans-Serif" font-size="10.00">comp.h</text>
</a>
</g>
</g>
<!-- Node18&#45;&gt;Node19 -->
<g id="edge18" class="edge">
<title>Node18&#45;&gt;Node19</title>
<path fill="none" stroke="midnightblue" d="M713,-438.35C713,-414.25 713,-373.31 713,-355.59"/>
<polygon fill="midnightblue" stroke="midnightblue" points="709.5,-438.37 713,-448.37 716.5,-438.37 709.5,-438.37"/>
</g>
<!-- Node19&#45;&gt;Node13 -->
<g id="edge19" class="edge">
<title>Node19&#45;&gt;Node13</title>
<path fill="none" stroke="midnightblue" d="M694.43,-329.42C657.69,-297.18 576.98,-218.87 550,-132 534.72,-82.8 596.18,-38.01 625.83,-19.72"/>
<polygon fill="midnightblue" stroke="midnightblue" points="692.5,-332.39 702.36,-336.27 697.08,-327.09 692.5,-332.39"/>
</g>
<!-- Node21 -->
<g id="node21" class="node">
<title>Node21</title>
<g id="a_node21"><a xlink:href="api_2dma__types_8h.html" target="_top" xlink:title=" ">
<polygon fill="white" stroke="black" points="154,-392.5 154,-411.5 234,-411.5 234,-392.5 154,-392.5"/>
<text text-anchor="middle" x="194" y="-399.5" font-family="Helvetica,sans-Serif" font-size="10.00">dma_types.h</text>
</a>
</g>
</g>
<!-- Node20&#45;&gt;Node21 -->
<g id="edge21" class="edge">
<title>Node20&#45;&gt;Node21</title>
<path fill="none" stroke="midnightblue" d="M194,-437.8C194,-428.91 194,-418.78 194,-411.75"/>
<polygon fill="midnightblue" stroke="midnightblue" points="190.5,-438.08 194,-448.08 197.5,-438.08 190.5,-438.08"/>
</g>
<!-- Node22 -->
<g id="node22" class="node">
<title>Node22</title>
<g id="a_node22"><a xlink:href="api_2spec_2dma_8h.html" target="_top" xlink:title=" ">
<polygon fill="white" stroke="black" points="159.5,-224.5 159.5,-243.5 206.5,-243.5 206.5,-224.5 159.5,-224.5"/>
<text text-anchor="middle" x="183" y="-231.5" font-family="Helvetica,sans-Serif" font-size="10.00">dma.h</text>
</a>
</g>
</g>
<!-- Node21&#45;&gt;Node22 -->
<g id="edge22" class="edge">
<title>Node21&#45;&gt;Node22</title>
<path fill="none" stroke="midnightblue" d="M189.54,-382.59C187.77,-374.49 185.95,-364.82 185,-356 180.49,-314.01 181.83,-263.37 182.61,-243.54"/>
<polygon fill="midnightblue" stroke="midnightblue" points="186.15,-383.49 191.81,-392.44 192.97,-381.91 186.15,-383.49"/>
</g>
<!-- Node24 -->
<g id="node24" class="node">
<title>Node24</title>
<g id="a_node24"><a xlink:href="api_2spec_2pool__types_8h.html" target="_top" xlink:title=" ">
<polygon fill="white" stroke="black" points="194.5,-336.5 194.5,-355.5 273.5,-355.5 273.5,-336.5 194.5,-336.5"/>
<text text-anchor="middle" x="234" y="-343.5" font-family="Helvetica,sans-Serif" font-size="10.00">pool_types.h</text>
</a>
</g>
</g>
<!-- Node21&#45;&gt;Node24 -->
<g id="edge25" class="edge">
<title>Node21&#45;&gt;Node24</title>
<path fill="none" stroke="midnightblue" d="M206.7,-383.86C213.63,-374.5 221.91,-363.33 227.52,-355.75"/>
<polygon fill="midnightblue" stroke="midnightblue" points="203.75,-381.96 200.61,-392.08 209.37,-386.13 203.75,-381.96"/>
</g>
<!-- Node23 -->
<g id="node23" class="node">
<title>Node23</title>
<g id="a_node23"><a xlink:href="api_2dma_8h.html" target="_top" xlink:title=" ">
<polygon fill="white" stroke="black" points="315.5,-56.5 315.5,-75.5 362.5,-75.5 362.5,-56.5 315.5,-56.5"/>
<text text-anchor="middle" x="339" y="-63.5" font-family="Helvetica,sans-Serif" font-size="10.00">dma.h</text>
</a>
</g>
</g>
<!-- Node22&#45;&gt;Node23 -->
<g id="edge23" class="edge">
<title>Node22&#45;&gt;Node23</title>
<path fill="none" stroke="midnightblue" d="M191.38,-215.15C198.27,-201.48 208.85,-182.55 221,-168 254.02,-128.47 303.45,-91.71 326.43,-75.58"/>
<polygon fill="midnightblue" stroke="midnightblue" points="188.09,-213.9 186.87,-224.42 194.39,-216.96 188.09,-213.9"/>
</g>
<!-- Node23&#45;&gt;Node13 -->
<g id="edge24" class="edge">
<title>Node23&#45;&gt;Node13</title>
<path fill="none" stroke="midnightblue" d="M372.56,-59C431.18,-48.52 551.43,-27.02 608.96,-16.73"/>
<polygon fill="midnightblue" stroke="midnightblue" points="371.93,-55.56 362.7,-60.76 373.16,-62.45 371.93,-55.56"/>
</g>
<!-- Node25 -->
<g id="node25" class="node">
<title>Node25</title>
<g id="a_node25"><a xlink:href="api_2pool__types_8h.html" target="_top" xlink:title=" ">
<polygon fill="white" stroke="red" points="194.5,-280.5 194.5,-299.5 273.5,-299.5 273.5,-280.5 194.5,-280.5"/>
<text text-anchor="middle" x="234" y="-287.5" font-family="Helvetica,sans-Serif" font-size="10.00">pool_types.h</text>
</a>
</g>
</g>
<!-- Node24&#45;&gt;Node25 -->
<g id="edge26" class="edge">
<title>Node24&#45;&gt;Node25</title>
<path fill="none" stroke="midnightblue" d="M234,-325.8C234,-316.91 234,-306.78 234,-299.75"/>
<polygon fill="midnightblue" stroke="midnightblue" points="230.5,-326.08 234,-336.08 237.5,-326.08 230.5,-326.08"/>
</g>
<!-- Node25&#45;&gt;Node22 -->
<g id="edge29" class="edge">
<title>Node25&#45;&gt;Node22</title>
<path fill="none" stroke="midnightblue" d="M218.62,-272.72C209.63,-263.2 198.64,-251.56 191.26,-243.75"/>
<polygon fill="midnightblue" stroke="midnightblue" points="216.17,-275.22 225.58,-280.08 221.26,-270.41 216.17,-275.22"/>
</g>
<!-- Node28 -->
<g id="node26" class="node">
<title>Node28</title>
<g id="a_node26"><a xlink:href="api_2spec_2classification_8h.html" target="_top" xlink:title=" ">
<polygon fill="white" stroke="red" points="559.5,-112.5 559.5,-131.5 648.5,-131.5 648.5,-112.5 559.5,-112.5"/>
<text text-anchor="middle" x="604" y="-119.5" font-family="Helvetica,sans-Serif" font-size="10.00">classification.h</text>
</a>
</g>
</g>
<!-- Node25&#45;&gt;Node28 -->
<g id="edge27" class="edge">
<title>Node25&#45;&gt;Node28</title>
<path fill="none" stroke="midnightblue" d="M245.63,-271.44C256.14,-256.83 272.88,-236.47 292,-224 377.38,-168.35 495.9,-141.14 559.47,-129.81"/>
<polygon fill="midnightblue" stroke="midnightblue" points="242.46,-269.86 239.65,-280.07 248.22,-273.84 242.46,-269.86"/>
</g>
<!-- Node36 -->
<g id="node27" class="node">
<title>Node36</title>
<g id="a_node27"><a xlink:href="api_2spec_2crypto__types_8h.html" target="_top" xlink:title=" ">
<polygon fill="white" stroke="red" points="301.5,-224.5 301.5,-243.5 390.5,-243.5 390.5,-224.5 301.5,-224.5"/>
<text text-anchor="middle" x="346" y="-231.5" font-family="Helvetica,sans-Serif" font-size="10.00">crypto_types.h</text>
</a>
</g>
</g>
<!-- Node25&#45;&gt;Node36 -->
<g id="edge28" class="edge">
<title>Node25&#45;&gt;Node36</title>
<path fill="none" stroke="midnightblue" d="M261.25,-275.86C282.02,-265.85 310.02,-252.35 328.05,-243.65"/>
<polygon fill="midnightblue" stroke="midnightblue" points="259.48,-272.83 251.99,-280.32 262.52,-279.13 259.48,-272.83"/>
</g>
<!-- Node40 -->
<g id="node28" class="node">
<title>Node40</title>
<g id="a_node28"><a xlink:href="api_2spec_2packet_8h.html" target="_top" xlink:title=" ">
<polygon fill="white" stroke="red" points="390,-112.5 390,-131.5 448,-131.5 448,-112.5 390,-112.5"/>
<text text-anchor="middle" x="419" y="-119.5" font-family="Helvetica,sans-Serif" font-size="10.00">packet.h</text>
</a>
</g>
</g>
<!-- Node25&#45;&gt;Node40 -->
<g id="edge30" class="edge">
<title>Node25&#45;&gt;Node40</title>
<path fill="none" stroke="midnightblue" d="M232.31,-270.18C231.04,-243.83 232.88,-196.02 259,-168 292.94,-131.59 353.78,-123.81 389.87,-122.62"/>
<polygon fill="midnightblue" stroke="midnightblue" points="228.83,-270.6 233.01,-280.34 235.81,-270.12 228.83,-270.6"/>
</g>
<!-- Node25&#45;&gt;Node42 -->
<g id="edge31" class="edge">
<title>Node25&#45;&gt;Node42</title>
<path fill="none" stroke="midnightblue" d="M283.99,-283.05C370.54,-272.76 547.48,-251.71 635.65,-241.23"/>
<polygon fill="midnightblue" stroke="midnightblue" points="283.41,-279.6 273.89,-284.26 284.23,-286.55 283.41,-279.6"/>
</g>
<!-- Node25&#45;&gt;Node48 -->
<g id="edge40" class="edge">
<title>Node25&#45;&gt;Node48</title>
<path fill="none" stroke="midnightblue" d="M206.1,-276.23C184.03,-266.13 153.82,-252.31 134.61,-243.52"/>
<polygon fill="midnightblue" stroke="midnightblue" points="204.75,-279.46 215.3,-280.44 207.67,-273.1 204.75,-279.46"/>
</g>
<!-- Node43 -->
<g id="node30" class="node">
<title>Node43</title>
<g id="a_node30"><a xlink:href="api_2packet__io__types_8h.html" target="_top" xlink:title=" ">
<polygon fill="white" stroke="black" points="636,-168.5 636,-187.5 740,-187.5 740,-168.5 636,-168.5"/>
<text text-anchor="middle" x="688" y="-175.5" font-family="Helvetica,sans-Serif" font-size="10.00">packet_io_types.h</text>
</a>
</g>
</g>
<!-- Node42&#45;&gt;Node43 -->
<g id="edge32" class="edge">
<title>Node42&#45;&gt;Node43</title>
<path fill="none" stroke="midnightblue" d="M688,-213.8C688,-204.91 688,-194.78 688,-187.75"/>
<polygon fill="midnightblue" stroke="midnightblue" points="684.5,-214.08 688,-224.08 691.5,-214.08 684.5,-214.08"/>
</g>
<!-- Node43&#45;&gt;Node28 -->
<g id="edge33" class="edge">
<title>Node43&#45;&gt;Node28</title>
<path fill="none" stroke="midnightblue" d="M666.07,-162.9C650.66,-153 630.55,-140.07 617.46,-131.65"/>
<polygon fill="midnightblue" stroke="midnightblue" points="664.2,-165.86 674.5,-168.32 667.98,-159.97 664.2,-165.86"/>
</g>
<!-- Node43&#45;&gt;Node40 -->
<g id="edge35" class="edge">
<title>Node43&#45;&gt;Node40</title>
<path fill="none" stroke="midnightblue" d="M635.3,-166.42C579.35,-155.19 492.95,-137.84 448.16,-128.85"/>
<polygon fill="midnightblue" stroke="midnightblue" points="634.88,-169.91 645.38,-168.44 636.26,-163.04 634.88,-169.91"/>
</g>
<!-- Node30 -->
<g id="node31" class="node">
<title>Node30</title>
<g id="a_node31"><a xlink:href="api_2spec_2ipsec__types_8h.html" target="_top" xlink:title=" ">
<polygon fill="white" stroke="red" points="768.5,-112.5 768.5,-131.5 851.5,-131.5 851.5,-112.5 768.5,-112.5"/>
<text text-anchor="middle" x="810" y="-119.5" font-family="Helvetica,sans-Serif" font-size="10.00">ipsec_types.h</text>
</a>
</g>
</g>
<!-- Node43&#45;&gt;Node30 -->
<g id="edge34" class="edge">
<title>Node43&#45;&gt;Node30</title>
<path fill="none" stroke="midnightblue" d="M716.54,-164.37C739.39,-154.26 770.81,-140.35 790.76,-131.52"/>
<polygon fill="midnightblue" stroke="midnightblue" points="715.06,-161.2 707.33,-168.44 717.89,-167.6 715.06,-161.2"/>
</g>
<!-- Node43&#45;&gt;Node34 -->
<g id="edge36" class="edge">
<title>Node43&#45;&gt;Node34</title>
<path fill="none" stroke="midnightblue" d="M732.31,-166.02C773.49,-155.82 833.97,-140.84 871.62,-131.52"/>
<polygon fill="midnightblue" stroke="midnightblue" points="731.41,-162.64 722.54,-168.44 733.09,-169.44 731.41,-162.64"/>
</g>
<!-- Node44 -->
<g id="node34" class="node">
<title>Node44</title>
<g id="a_node34"><a xlink:href="api_2spec_2traffic__mngr_8h.html" target="_top" xlink:title=" ">
<polygon fill="white" stroke="red" points="666,-112.5 666,-131.5 750,-131.5 750,-112.5 666,-112.5"/>
<text text-anchor="middle" x="708" y="-119.5" font-family="Helvetica,sans-Serif" font-size="10.00">traffic_mngr.h</text>
</a>
</g>
</g>
<!-- Node43&#45;&gt;Node44 -->
<g id="edge39" class="edge">
<title>Node43&#45;&gt;Node44</title>
<path fill="none" stroke="midnightblue" d="M694.78,-158.69C698.15,-149.59 702.07,-139.01 704.76,-131.75"/>
<polygon fill="midnightblue" stroke="midnightblue" points="691.49,-157.49 691.3,-168.08 698.06,-159.92 691.49,-157.49"/>
</g>
<!-- Node35 -->
<g id="node33" class="node">
<title>Node35</title>
<g id="a_node33"><a xlink:href="api_2packet__io_8h.html" target="_top" xlink:title=" ">
<polygon fill="white" stroke="black" points="715,-56.5 715,-75.5 787,-75.5 787,-56.5 715,-56.5"/>
<text text-anchor="middle" x="751" y="-63.5" font-family="Helvetica,sans-Serif" font-size="10.00">packet_io.h</text>
</a>
</g>
</g>
<!-- Node34&#45;&gt;Node35 -->
<g id="edge37" class="edge">
<title>Node34&#45;&gt;Node35</title>
<path fill="none" stroke="midnightblue" d="M871.67,-109.04C842.5,-98.88 801.36,-84.55 775.45,-75.52"/>
<polygon fill="midnightblue" stroke="midnightblue" points="870.84,-112.46 881.44,-112.44 873.15,-105.85 870.84,-112.46"/>
</g>
<!-- Node35&#45;&gt;Node13 -->
<g id="edge38" class="edge">
<title>Node35&#45;&gt;Node13</title>
<path fill="none" stroke="midnightblue" d="M724.24,-51.86C703.84,-41.85 676.33,-28.35 658.63,-19.65"/>
<polygon fill="midnightblue" stroke="midnightblue" points="722.81,-55.06 733.33,-56.32 725.89,-48.78 722.81,-55.06"/>
</g>
<!-- Node49 -->
<g id="node36" class="node">
<title>Node49</title>
<g id="a_node36"><a xlink:href="api_2timer_8h.html" target="_top" xlink:title=" ">
<polygon fill="white" stroke="black" points="97.5,-168.5 97.5,-187.5 148.5,-187.5 148.5,-168.5 97.5,-168.5"/>
<text text-anchor="middle" x="123" y="-175.5" font-family="Helvetica,sans-Serif" font-size="10.00">timer.h</text>
</a>
</g>
</g>
<!-- Node48&#45;&gt;Node49 -->
<g id="edge41" class="edge">
<title>Node48&#45;&gt;Node49</title>
<path fill="none" stroke="midnightblue" d="M118.45,-214.1C119.61,-205.14 120.94,-194.86 121.87,-187.75"/>
<polygon fill="midnightblue" stroke="midnightblue" points="114.97,-213.72 117.16,-224.08 121.91,-214.62 114.97,-213.72"/>
</g>
<!-- Node49&#45;&gt;Node13 -->
<g id="edge42" class="edge">
<title>Node49&#45;&gt;Node13</title>
<path fill="none" stroke="midnightblue" d="M140.09,-161.76C170.82,-135.31 238.52,-81.31 306,-56 411.77,-16.33 547.89,-10.87 608.91,-10.61"/>
<polygon fill="midnightblue" stroke="midnightblue" points="137.67,-159.23 132.43,-168.44 142.27,-164.5 137.67,-159.23"/>
</g>
<!-- Node51 -->
<g id="node38" class="node">
<title>Node51</title>
<g id="a_node38"><a xlink:href="packet__io__stats_8h.html" target="_top" xlink:title=" ">
<polygon fill="white" stroke="black" points="834.5,-280.5 834.5,-299.5 935.5,-299.5 935.5,-280.5 834.5,-280.5"/>
<text text-anchor="middle" x="885" y="-287.5" font-family="Helvetica,sans-Serif" font-size="10.00">packet_io_stats.h</text>
</a>
</g>
</g>
<!-- Node50&#45;&gt;Node51 -->
<g id="edge45" class="edge">
<title>Node50&#45;&gt;Node51</title>
<path fill="none" stroke="midnightblue" d="M873.1,-494.3C875.77,-448.64 882.55,-332.85 884.48,-299.88"/>
<polygon fill="midnightblue" stroke="midnightblue" points="869.6,-494.11 872.51,-504.3 876.59,-494.52 869.6,-494.11"/>
</g>
<!-- Node51&#45;&gt;Node42 -->
<g id="edge47" class="edge">
<title>Node51&#45;&gt;Node42</title>
<path fill="none" stroke="midnightblue" d="M843.77,-277.7C806.59,-267.51 752.73,-252.74 719.07,-243.52"/>
<polygon fill="midnightblue" stroke="midnightblue" points="843.22,-281.18 853.78,-280.44 845.07,-274.42 843.22,-281.18"/>
</g>
<!-- Node51&#45;&gt;Node34 -->
<g id="edge46" class="edge">
<title>Node51&#45;&gt;Node34</title>
<path fill="none" stroke="midnightblue" d="M887.41,-269.93C891.97,-233.92 901.67,-157.23 904.92,-131.57"/>
<polygon fill="midnightblue" stroke="midnightblue" points="883.91,-269.71 886.13,-280.08 890.86,-270.59 883.91,-269.71"/>
</g>
<!-- Node53 -->
<g id="node40" class="node">
<title>Node53</title>
<g id="a_node40"><a xlink:href="api_2packet__types_8h.html" target="_top" xlink:title=" ">
<polygon fill="white" stroke="black" points="485,-504.5 485,-523.5 575,-523.5 575,-504.5 485,-504.5"/>
<text text-anchor="middle" x="530" y="-511.5" font-family="Helvetica,sans-Serif" font-size="10.00">packet_types.h</text>
</a>
</g>
</g>
<!-- Node52&#45;&gt;Node53 -->
<g id="edge50" class="edge">
<title>Node52&#45;&gt;Node53</title>
<path fill="none" stroke="midnightblue" d="M568.71,-553C558.96,-543.43 546.95,-531.64 538.91,-523.75"/>
<polygon fill="midnightblue" stroke="midnightblue" points="566.33,-555.57 575.92,-560.08 571.23,-550.58 566.33,-555.57"/>
</g>
<!-- Node53&#45;&gt;Node18 -->
<g id="edge51" class="edge">
<title>Node53&#45;&gt;Node18</title>
<path fill="none" stroke="midnightblue" d="M568.95,-501.51C604.25,-491.09 655.32,-476.02 686.22,-466.9"/>
<polygon fill="midnightblue" stroke="midnightblue" points="567.6,-498.26 559,-504.44 569.58,-504.97 567.6,-498.26"/>
</g>
<!-- Node53&#45;&gt;Node20 -->
<g id="edge54" class="edge">
<title>Node53&#45;&gt;Node20</title>
<path fill="none" stroke="midnightblue" d="M474.35,-504.24C417.45,-495.25 326.54,-480.81 248,-468 243.5,-467.27 238.78,-466.49 234.1,-465.71"/>
<polygon fill="midnightblue" stroke="midnightblue" points="474.14,-507.75 484.56,-505.85 475.23,-500.83 474.14,-507.75"/>
</g>
<!-- Node53&#45;&gt;Node36 -->
<g id="edge53" class="edge">
<title>Node53&#45;&gt;Node36</title>
<path fill="none" stroke="midnightblue" d="M474.64,-508.93C418.82,-503.53 338.24,-491.78 319,-468 290.37,-432.62 332.31,-281.42 343.42,-243.6"/>
<polygon fill="midnightblue" stroke="midnightblue" points="474.47,-512.43 484.75,-509.86 475.12,-505.46 474.47,-512.43"/>
</g>
<!-- Node53&#45;&gt;Node40 -->
<g id="edge57" class="edge">
<title>Node53&#45;&gt;Node40</title>
<path fill="none" stroke="midnightblue" d="M474.34,-509.42C415.72,-504.36 329.05,-492.83 308,-468 245.7,-394.52 388.53,-271.6 399,-244 414.25,-203.78 417.89,-151.7 418.74,-131.51"/>
<polygon fill="midnightblue" stroke="midnightblue" points="474.32,-512.93 484.57,-510.26 474.89,-505.95 474.32,-512.93"/>
</g>
<!-- Node53&#45;&gt;Node42 -->
<g id="edge60" class="edge">
<title>Node53&#45;&gt;Node42</title>
<path fill="none" stroke="midnightblue" d="M582.09,-501.44C601.96,-494.67 623.33,-484.15 638,-468 658.32,-445.62 658,-433.23 658,-403 658,-403 658,-403 658,-345 658,-306 675.77,-261.89 683.95,-243.62"/>
<polygon fill="midnightblue" stroke="midnightblue" points="580.97,-498.13 572.49,-504.48 583.08,-504.8 580.97,-498.13"/>
</g>
<!-- Node53&#45;&gt;Node34 -->
<g id="edge59" class="edge">
<title>Node53&#45;&gt;Node34</title>
<path fill="none" stroke="midnightblue" d="M585.35,-507.98C641.88,-501.76 724.58,-489.29 748,-468 770.36,-447.67 768,-433.23 768,-403 768,-403 768,-403 768,-233 768,-177.54 836.99,-145.52 877.41,-131.51"/>
<polygon fill="midnightblue" stroke="midnightblue" points="584.69,-504.53 575.12,-509.07 585.43,-511.49 584.69,-504.53"/>
</g>
<!-- Node38 -->
<g id="node41" class="node">
<title>Node38</title>
<g id="a_node41"><a xlink:href="api_2spec_2crypto_8h.html" target="_top" xlink:title=" ">
<polygon fill="white" stroke="red" points="502,-448.5 502,-467.5 558,-467.5 558,-448.5 502,-448.5"/>
<text text-anchor="middle" x="530" y="-455.5" font-family="Helvetica,sans-Serif" font-size="10.00">crypto.h</text>
</a>
</g>
</g>
<!-- Node53&#45;&gt;Node38 -->
<g id="edge52" class="edge">
<title>Node53&#45;&gt;Node38</title>
<path fill="none" stroke="midnightblue" d="M530,-493.8C530,-484.91 530,-474.78 530,-467.75"/>
<polygon fill="midnightblue" stroke="midnightblue" points="526.5,-494.08 530,-504.08 533.5,-494.08 526.5,-494.08"/>
</g>
<!-- Node54 -->
<g id="node42" class="node">
<title>Node54</title>
<g id="a_node42"><a xlink:href="api_2spec_2event_8h.html" target="_top" xlink:title=" ">
<polygon fill="white" stroke="red" points="576.5,-448.5 576.5,-467.5 629.5,-467.5 629.5,-448.5 576.5,-448.5"/>
<text text-anchor="middle" x="603" y="-455.5" font-family="Helvetica,sans-Serif" font-size="10.00">event.h</text>
</a>
</g>
</g>
<!-- Node53&#45;&gt;Node54 -->
<g id="edge55" class="edge">
<title>Node53&#45;&gt;Node54</title>
<path fill="none" stroke="midnightblue" d="M550.14,-498.1C563.28,-488.38 579.98,-476.03 591.06,-467.83"/>
<polygon fill="midnightblue" stroke="midnightblue" points="547.69,-495.56 541.73,-504.32 551.85,-501.19 547.69,-495.56"/>
</g>
<!-- Node32 -->
<g id="node43" class="node">
<title>Node32</title>
<g id="a_node43"><a xlink:href="api_2spec_2ipsec_8h.html" target="_top" xlink:title=" ">
<polygon fill="white" stroke="red" points="328.5,-448.5 328.5,-467.5 379.5,-467.5 379.5,-448.5 328.5,-448.5"/>
<text text-anchor="middle" x="354" y="-455.5" font-family="Helvetica,sans-Serif" font-size="10.00">ipsec.h</text>
</a>
</g>
</g>
<!-- Node53&#45;&gt;Node32 -->
<g id="edge56" class="edge">
<title>Node53&#45;&gt;Node32</title>
<path fill="none" stroke="midnightblue" d="M492.54,-501.51C458.59,-491.09 409.47,-476.02 379.75,-466.9"/>
<polygon fill="midnightblue" stroke="midnightblue" points="491.53,-504.86 502.11,-504.44 493.58,-498.16 491.53,-504.86"/>
</g>
<!-- Node56 -->
<g id="node44" class="node">
<title>Node56</title>
<g id="a_node44"><a xlink:href="api_2spec_2packet__flags_8h.html" target="_top" xlink:title=" ">
<polygon fill="white" stroke="red" points="398,-448.5 398,-467.5 484,-467.5 484,-448.5 398,-448.5"/>
<text text-anchor="middle" x="441" y="-455.5" font-family="Helvetica,sans-Serif" font-size="10.00">packet_flags.h</text>
</a>
</g>
</g>
<!-- Node53&#45;&gt;Node56 -->
<g id="edge58" class="edge">
<title>Node53&#45;&gt;Node56</title>
<path fill="none" stroke="midnightblue" d="M506.76,-498.9C490.44,-489 469.13,-476.07 455.26,-467.65"/>
<polygon fill="midnightblue" stroke="midnightblue" points="505.34,-502.13 515.7,-504.32 508.97,-496.14 505.34,-502.13"/>
</g>
<!-- Node59 -->
<g id="node46" class="node">
<title>Node59</title>
<g id="a_node46"><a xlink:href="api_2queue_8h.html" target="_top" xlink:title=" ">
<polygon fill="white" stroke="black" points="979,-504.5 979,-523.5 1035,-523.5 1035,-504.5 979,-504.5"/>
<text text-anchor="middle" x="1007" y="-511.5" font-family="Helvetica,sans-Serif" font-size="10.00">queue.h</text>
</a>
</g>
</g>
<!-- Node58&#45;&gt;Node59 -->
<g id="edge62" class="edge">
<title>Node58&#45;&gt;Node59</title>
<path fill="none" stroke="midnightblue" d="M1007,-549.8C1007,-540.91 1007,-530.78 1007,-523.75"/>
<polygon fill="midnightblue" stroke="midnightblue" points="1003.5,-550.08 1007,-560.08 1010.5,-550.08 1003.5,-550.08"/>
</g>
<!-- Node59&#45;&gt;Node13 -->
<g id="edge63" class="edge">
<title>Node59&#45;&gt;Node13</title>
<path fill="none" stroke="midnightblue" d="M1005.9,-494.26C1004.72,-472.37 1003,-435.07 1003,-403 1003,-403 1003,-403 1003,-121 1003,-52.36 761.72,-22.48 673.13,-13.82"/>
<polygon fill="midnightblue" stroke="midnightblue" points="1002.42,-494.66 1006.48,-504.45 1009.41,-494.27 1002.42,-494.66"/>
</g>
<!-- Node61 -->
<g id="node48" class="node">
<title>Node61</title>
<g id="a_node48"><a xlink:href="api_2init_8h.html" target="_top" xlink:title=" ">
<polygon fill="white" stroke="black" points="1091.5,-168.5 1091.5,-187.5 1132.5,-187.5 1132.5,-168.5 1091.5,-168.5"/>
<text text-anchor="middle" x="1112" y="-175.5" font-family="Helvetica,sans-Serif" font-size="10.00">init.h</text>
</a>
</g>
</g>
<!-- Node60&#45;&gt;Node61 -->
<g id="edge69" class="edge">
<title>Node60&#45;&gt;Node61</title>
<path fill="none" stroke="midnightblue" d="M1112,-942.25C1112,-920.36 1112,-883.05 1112,-851 1112,-851 1112,-851 1112,-289 1112,-251.19 1112,-206.06 1112,-187.56"/>
<polygon fill="midnightblue" stroke="midnightblue" points="1108.5,-942.44 1112,-952.44 1115.5,-942.44 1108.5,-942.44"/>
</g>
<!-- Node61&#45;&gt;Node13 -->
<g id="edge73" class="edge">
<title>Node61&#45;&gt;Node13</title>
<path fill="none" stroke="midnightblue" d="M1112.57,-158.13C1112.25,-130.94 1107.25,-81.27 1077,-56 1046.12,-30.2 768.67,-16.32 673.14,-12.27"/>
<polygon fill="midnightblue" stroke="midnightblue" points="1109.06,-158.23 1112.47,-168.26 1116.06,-158.29 1109.06,-158.23"/>
</g>
<!-- Node62 -->
<g id="node49" class="node">
<title>Node62</title>
<g id="a_node49"><a xlink:href="api_2spec_2shared__memory_8h.html" target="_top" xlink:title=" ">
<polygon fill="white" stroke="black" points="1129,-112.5 1129,-131.5 1233,-131.5 1233,-112.5 1129,-112.5"/>
<text text-anchor="middle" x="1181" y="-119.5" font-family="Helvetica,sans-Serif" font-size="10.00">shared_memory.h</text>
</a>
</g>
</g>
<!-- Node61&#45;&gt;Node62 -->
<g id="edge70" class="edge">
<title>Node61&#45;&gt;Node62</title>
<path fill="none" stroke="midnightblue" d="M1131.04,-162.1C1143.46,-152.38 1159.24,-140.03 1169.71,-131.83"/>
<polygon fill="midnightblue" stroke="midnightblue" points="1128.8,-159.4 1123.09,-168.32 1133.12,-164.92 1128.8,-159.4"/>
</g>
<!-- Node63 -->
<g id="node50" class="node">
<title>Node63</title>
<g id="a_node50"><a xlink:href="api_2shared__memory_8h.html" target="_top" xlink:title=" ">
<polygon fill="white" stroke="black" points="1129,-56.5 1129,-75.5 1233,-75.5 1233,-56.5 1129,-56.5"/>
<text text-anchor="middle" x="1181" y="-63.5" font-family="Helvetica,sans-Serif" font-size="10.00">shared_memory.h</text>
</a>
</g>
</g>
<!-- Node62&#45;&gt;Node63 -->
<g id="edge71" class="edge">
<title>Node62&#45;&gt;Node63</title>
<path fill="none" stroke="midnightblue" d="M1181,-101.8C1181,-92.91 1181,-82.78 1181,-75.75"/>
<polygon fill="midnightblue" stroke="midnightblue" points="1177.5,-102.08 1181,-112.08 1184.5,-102.08 1177.5,-102.08"/>
</g>
<!-- Node63&#45;&gt;Node13 -->
<g id="edge72" class="edge">
<title>Node63&#45;&gt;Node13</title>
<path fill="none" stroke="midnightblue" d="M1118.82,-56.45C1117.53,-56.3 1116.26,-56.15 1115,-56 949.13,-36.82 749.9,-19.89 673.23,-13.6"/>
<polygon fill="midnightblue" stroke="midnightblue" points="1118.43,-59.93 1128.79,-57.68 1119.29,-52.98 1118.43,-59.93"/>
</g>
</g>
</svg>
