<?xml version="1.0" encoding="UTF-8" standalone="no"?>
<!DOCTYPE svg PUBLIC "-//W3C//DTD SVG 1.1//EN"
 "http://www.w3.org/Graphics/SVG/1.1/DTD/svg11.dtd">
<!-- Generated by graphviz version 2.43.0 (0)
 -->
<!-- Title: schedule_types.h Pages: 1 -->
<svg width="1040pt" height="1092pt"
 viewBox="0.00 0.00 1040.00 1092.00" xmlns="http://www.w3.org/2000/svg" xmlns:xlink="http://www.w3.org/1999/xlink">
<g id="graph0" class="graph" transform="scale(1 1) rotate(0) translate(4 1088)">
<title>schedule_types.h</title>
<polygon fill="white" stroke="transparent" points="-4,4 -4,-1088 1036,-1088 1036,4 -4,4"/>
<!-- Node1 -->
<g id="node1" class="node">
<title>Node1</title>
<g id="a_node1"><a xlink:title=" ">
<polygon fill="#bfbfbf" stroke="black" points="297,-1064.5 297,-1083.5 398,-1083.5 398,-1064.5 297,-1064.5"/>
<text text-anchor="middle" x="347.5" y="-1071.5" font-family="Helvetica,sans-Serif" font-size="10.00">schedule_types.h</text>
</a>
</g>
</g>
<!-- Node2 -->
<g id="node2" class="node">
<title>Node2</title>
<g id="a_node2"><a xlink:href="arch_2arm32-linux_2odp_2api_2abi_2schedule__types_8h_source.html" target="_top" xlink:title=" ">
<polygon fill="white" stroke="black" points="0,-1008.5 0,-1027.5 101,-1027.5 101,-1008.5 0,-1008.5"/>
<text text-anchor="middle" x="50.5" y="-1015.5" font-family="Helvetica,sans-Serif" font-size="10.00">schedule_types.h</text>
</a>
</g>
</g>
<!-- Node1&#45;&gt;Node2 -->
<g id="edge1" class="edge">
<title>Node1&#45;&gt;Node2</title>
<path fill="none" stroke="midnightblue" d="M290.3,-1062.6C234.17,-1052.4 149.6,-1037.02 97.34,-1027.52"/>
<polygon fill="midnightblue" stroke="midnightblue" points="289.97,-1066.1 300.44,-1064.44 291.23,-1059.21 289.97,-1066.1"/>
</g>
<!-- Node3 -->
<g id="node3" class="node">
<title>Node3</title>
<g id="a_node3"><a xlink:href="arch_2arm64-linux_2odp_2api_2abi_2schedule__types_8h_source.html" target="_top" xlink:title=" ">
<polygon fill="white" stroke="black" points="119,-1008.5 119,-1027.5 220,-1027.5 220,-1008.5 119,-1008.5"/>
<text text-anchor="middle" x="169.5" y="-1015.5" font-family="Helvetica,sans-Serif" font-size="10.00">schedule_types.h</text>
</a>
</g>
</g>
<!-- Node1&#45;&gt;Node3 -->
<g id="edge2" class="edge">
<title>Node1&#45;&gt;Node3</title>
<path fill="none" stroke="midnightblue" d="M309.38,-1061.44C275.82,-1051.26 227.73,-1036.66 197.57,-1027.52"/>
<polygon fill="midnightblue" stroke="midnightblue" points="308.71,-1064.89 319.3,-1064.44 310.74,-1058.19 308.71,-1064.89"/>
</g>
<!-- Node4 -->
<g id="node4" class="node">
<title>Node4</title>
<g id="a_node4"><a xlink:href="arch_2default-linux_2odp_2api_2abi_2schedule__types_8h_source.html" target="_top" xlink:title=" ">
<polygon fill="white" stroke="black" points="238,-1008.5 238,-1027.5 339,-1027.5 339,-1008.5 238,-1008.5"/>
<text text-anchor="middle" x="288.5" y="-1015.5" font-family="Helvetica,sans-Serif" font-size="10.00">schedule_types.h</text>
</a>
</g>
</g>
<!-- Node1&#45;&gt;Node4 -->
<g id="edge3" class="edge">
<title>Node1&#45;&gt;Node4</title>
<path fill="none" stroke="midnightblue" d="M330.61,-1057.54C320.09,-1047.91 306.93,-1035.87 298.15,-1027.83"/>
<polygon fill="midnightblue" stroke="midnightblue" points="328.28,-1060.15 338.02,-1064.32 333.01,-1054.99 328.28,-1060.15"/>
</g>
<!-- Node5 -->
<g id="node5" class="node">
<title>Node5</title>
<g id="a_node5"><a xlink:href="arch_2power64-linux_2odp_2api_2abi_2schedule__types_8h_source.html" target="_top" xlink:title=" ">
<polygon fill="white" stroke="black" points="357,-1008.5 357,-1027.5 458,-1027.5 458,-1008.5 357,-1008.5"/>
<text text-anchor="middle" x="407.5" y="-1015.5" font-family="Helvetica,sans-Serif" font-size="10.00">schedule_types.h</text>
</a>
</g>
</g>
<!-- Node1&#45;&gt;Node5 -->
<g id="edge4" class="edge">
<title>Node1&#45;&gt;Node5</title>
<path fill="none" stroke="midnightblue" d="M364.68,-1057.54C375.38,-1047.91 388.76,-1035.87 397.68,-1027.83"/>
<polygon fill="midnightblue" stroke="midnightblue" points="362.23,-1055.03 357.14,-1064.32 366.91,-1060.24 362.23,-1055.03"/>
</g>
<!-- Node6 -->
<g id="node6" class="node">
<title>Node6</title>
<g id="a_node6"><a xlink:href="arch_2x86__32-linux_2odp_2api_2abi_2schedule__types_8h_source.html" target="_top" xlink:title=" ">
<polygon fill="white" stroke="black" points="476,-1008.5 476,-1027.5 577,-1027.5 577,-1008.5 476,-1008.5"/>
<text text-anchor="middle" x="526.5" y="-1015.5" font-family="Helvetica,sans-Serif" font-size="10.00">schedule_types.h</text>
</a>
</g>
</g>
<!-- Node1&#45;&gt;Node6 -->
<g id="edge5" class="edge">
<title>Node1&#45;&gt;Node6</title>
<path fill="none" stroke="midnightblue" d="M385.83,-1061.44C419.58,-1051.26 467.95,-1036.66 498.27,-1027.52"/>
<polygon fill="midnightblue" stroke="midnightblue" points="384.43,-1058.2 375.86,-1064.44 386.45,-1064.91 384.43,-1058.2"/>
</g>
<!-- Node7 -->
<g id="node7" class="node">
<title>Node7</title>
<g id="a_node7"><a xlink:href="arch_2x86__64-linux_2odp_2api_2abi_2schedule__types_8h_source.html" target="_top" xlink:title=" ">
<polygon fill="white" stroke="black" points="595,-1008.5 595,-1027.5 696,-1027.5 696,-1008.5 595,-1008.5"/>
<text text-anchor="middle" x="645.5" y="-1015.5" font-family="Helvetica,sans-Serif" font-size="10.00">schedule_types.h</text>
</a>
</g>
</g>
<!-- Node1&#45;&gt;Node7 -->
<g id="edge6" class="edge">
<title>Node1&#45;&gt;Node7</title>
<path fill="none" stroke="midnightblue" d="M404.89,-1062.6C461.21,-1052.4 546.06,-1037.02 598.5,-1027.52"/>
<polygon fill="midnightblue" stroke="midnightblue" points="403.93,-1059.22 394.72,-1064.44 405.18,-1066.1 403.93,-1059.22"/>
</g>
<!-- Node8 -->
<g id="node8" class="node">
<title>Node8</title>
<g id="a_node8"><a xlink:href="api_2schedule__types_8h.html" target="_top" xlink:title=" ">
<polygon fill="white" stroke="black" points="595,-952.5 595,-971.5 696,-971.5 696,-952.5 595,-952.5"/>
<text text-anchor="middle" x="645.5" y="-959.5" font-family="Helvetica,sans-Serif" font-size="10.00">schedule_types.h</text>
</a>
</g>
</g>
<!-- Node7&#45;&gt;Node8 -->
<g id="edge7" class="edge">
<title>Node7&#45;&gt;Node8</title>
<path fill="none" stroke="midnightblue" d="M645.5,-997.8C645.5,-988.91 645.5,-978.78 645.5,-971.75"/>
<polygon fill="midnightblue" stroke="midnightblue" points="642,-998.08 645.5,-1008.08 649,-998.08 642,-998.08"/>
</g>
<!-- Node9 -->
<g id="node9" class="node">
<title>Node9</title>
<g id="a_node9"><a xlink:href="api_2spec_2queue__types_8h.html" target="_top" xlink:title=" ">
<polygon fill="white" stroke="black" points="565.5,-896.5 565.5,-915.5 653.5,-915.5 653.5,-896.5 565.5,-896.5"/>
<text text-anchor="middle" x="609.5" y="-903.5" font-family="Helvetica,sans-Serif" font-size="10.00">queue_types.h</text>
</a>
</g>
</g>
<!-- Node8&#45;&gt;Node9 -->
<g id="edge8" class="edge">
<title>Node8&#45;&gt;Node9</title>
<path fill="none" stroke="midnightblue" d="M633.88,-943.57C627.68,-934.27 620.33,-923.25 615.33,-915.75"/>
<polygon fill="midnightblue" stroke="midnightblue" points="631.1,-945.7 639.56,-952.08 636.92,-941.82 631.1,-945.7"/>
</g>
<!-- Node54 -->
<g id="node49" class="node">
<title>Node54</title>
<g id="a_node49"><a xlink:href="api_2spec_2schedule_8h.html" target="_top" xlink:title=" ">
<polygon fill="white" stroke="black" points="770,-784.5 770,-803.5 839,-803.5 839,-784.5 770,-784.5"/>
<text text-anchor="middle" x="804.5" y="-791.5" font-family="Helvetica,sans-Serif" font-size="10.00">schedule.h</text>
</a>
</g>
</g>
<!-- Node8&#45;&gt;Node54 -->
<g id="edge82" class="edge">
<title>Node8&#45;&gt;Node54</title>
<path fill="none" stroke="midnightblue" d="M661.16,-944.65C694.41,-909.94 771.07,-829.9 796.29,-803.57"/>
<polygon fill="midnightblue" stroke="midnightblue" points="658.44,-942.43 654.05,-952.08 663.49,-947.27 658.44,-942.43"/>
</g>
<!-- Node10 -->
<g id="node10" class="node">
<title>Node10</title>
<g id="a_node10"><a xlink:href="api_2queue__types_8h.html" target="_top" xlink:title=" ">
<polygon fill="white" stroke="black" points="477.5,-840.5 477.5,-859.5 565.5,-859.5 565.5,-840.5 477.5,-840.5"/>
<text text-anchor="middle" x="521.5" y="-847.5" font-family="Helvetica,sans-Serif" font-size="10.00">queue_types.h</text>
</a>
</g>
</g>
<!-- Node9&#45;&gt;Node10 -->
<g id="edge9" class="edge">
<title>Node9&#45;&gt;Node10</title>
<path fill="none" stroke="midnightblue" d="M586.52,-890.9C570.39,-881 549.32,-868.07 535.6,-859.65"/>
<polygon fill="midnightblue" stroke="midnightblue" points="585.01,-894.08 595.36,-896.32 588.67,-888.11 585.01,-894.08"/>
</g>
<!-- Node11 -->
<g id="node11" class="node">
<title>Node11</title>
<g id="a_node11"><a xlink:href="api_2spec_2comp_8h.html" target="_top" xlink:title=" ">
<polygon fill="white" stroke="black" points="877,-672.5 877,-691.5 930,-691.5 930,-672.5 877,-672.5"/>
<text text-anchor="middle" x="903.5" y="-679.5" font-family="Helvetica,sans-Serif" font-size="10.00">comp.h</text>
</a>
</g>
</g>
<!-- Node10&#45;&gt;Node11 -->
<g id="edge10" class="edge">
<title>Node10&#45;&gt;Node11</title>
<path fill="none" stroke="midnightblue" d="M558.54,-837.19C583.91,-828.76 618.14,-816.71 647.5,-804 665.38,-796.26 669,-792.56 686.5,-784 759.11,-748.5 846.65,-708.64 884.52,-691.54"/>
<polygon fill="midnightblue" stroke="midnightblue" points="557.34,-833.9 548.93,-840.35 559.53,-840.55 557.34,-833.9"/>
</g>
<!-- Node14 -->
<g id="node14" class="node">
<title>Node14</title>
<g id="a_node14"><a xlink:href="api_2spec_2dma__types_8h.html" target="_top" xlink:title=" ">
<polygon fill="white" stroke="black" points="375.5,-672.5 375.5,-691.5 455.5,-691.5 455.5,-672.5 375.5,-672.5"/>
<text text-anchor="middle" x="415.5" y="-679.5" font-family="Helvetica,sans-Serif" font-size="10.00">dma_types.h</text>
</a>
</g>
</g>
<!-- Node10&#45;&gt;Node14 -->
<g id="edge13" class="edge">
<title>Node10&#45;&gt;Node14</title>
<path fill="none" stroke="midnightblue" d="M500.38,-834.2C490.06,-826.17 478.06,-815.53 469.5,-804 441.66,-766.5 424.02,-712.39 417.91,-691.59"/>
<polygon fill="midnightblue" stroke="midnightblue" points="498.43,-837.11 508.53,-840.29 502.62,-831.5 498.43,-837.11"/>
</g>
<!-- Node28 -->
<g id="node26" class="node">
<title>Node28</title>
<g id="a_node26"><a xlink:href="api_2spec_2packet__io_8h.html" target="_top" xlink:title=" ">
<polygon fill="white" stroke="black" points="106.5,-224.5 106.5,-243.5 178.5,-243.5 178.5,-224.5 106.5,-224.5"/>
<text text-anchor="middle" x="142.5" y="-231.5" font-family="Helvetica,sans-Serif" font-size="10.00">packet_io.h</text>
</a>
</g>
</g>
<!-- Node10&#45;&gt;Node28 -->
<g id="edge55" class="edge">
<title>Node10&#45;&gt;Node28</title>
<path fill="none" stroke="midnightblue" d="M467.14,-847.9C341.66,-843.9 42.5,-825.31 42.5,-739 42.5,-739 42.5,-739 42.5,-345 42.5,-296.22 97.01,-259.51 125.54,-243.64"/>
<polygon fill="midnightblue" stroke="midnightblue" points="467.2,-851.41 477.3,-848.21 467.4,-844.41 467.2,-851.41"/>
</g>
<!-- Node36 -->
<g id="node34" class="node">
<title>Node36</title>
<g id="a_node34"><a xlink:href="api_2spec_2packet__io__types_8h.html" target="_top" xlink:title=" ">
<polygon fill="white" stroke="black" points="166.5,-448.5 166.5,-467.5 270.5,-467.5 270.5,-448.5 166.5,-448.5"/>
<text text-anchor="middle" x="218.5" y="-455.5" font-family="Helvetica,sans-Serif" font-size="10.00">packet_io_types.h</text>
</a>
</g>
</g>
<!-- Node10&#45;&gt;Node36 -->
<g id="edge60" class="edge">
<title>Node10&#45;&gt;Node36</title>
<path fill="none" stroke="midnightblue" d="M467.35,-839.38C385.2,-823.23 238.5,-787.58 238.5,-739 238.5,-739 238.5,-739 238.5,-569 238.5,-530.76 226.66,-486.23 221.2,-467.74"/>
<polygon fill="midnightblue" stroke="midnightblue" points="466.8,-842.84 477.28,-841.3 468.13,-835.97 466.8,-842.84"/>
</g>
<!-- Node42 -->
<g id="node38" class="node">
<title>Node42</title>
<g id="a_node38"><a xlink:href="api_2spec_2timer_8h.html" target="_top" xlink:title=" ">
<polygon fill="white" stroke="black" points="480,-448.5 480,-467.5 531,-467.5 531,-448.5 480,-448.5"/>
<text text-anchor="middle" x="505.5" y="-455.5" font-family="Helvetica,sans-Serif" font-size="10.00">timer.h</text>
</a>
</g>
</g>
<!-- Node10&#45;&gt;Node42 -->
<g id="edge81" class="edge">
<title>Node10&#45;&gt;Node42</title>
<path fill="none" stroke="midnightblue" d="M520.73,-830.17C517.86,-760.23 507.88,-516.97 505.86,-467.73"/>
<polygon fill="midnightblue" stroke="midnightblue" points="517.24,-830.64 521.15,-840.49 524.24,-830.36 517.24,-830.64"/>
</g>
<!-- Node44 -->
<g id="node40" class="node">
<title>Node44</title>
<g id="a_node40"><a xlink:href="spec_2packet__io__stats_8h.html" target="_top" xlink:title=" ">
<polygon fill="white" stroke="black" points="90,-728.5 90,-747.5 191,-747.5 191,-728.5 90,-728.5"/>
<text text-anchor="middle" x="140.5" y="-735.5" font-family="Helvetica,sans-Serif" font-size="10.00">packet_io_stats.h</text>
</a>
</g>
</g>
<!-- Node10&#45;&gt;Node44 -->
<g id="edge56" class="edge">
<title>Node10&#45;&gt;Node44</title>
<path fill="none" stroke="midnightblue" d="M467.11,-848.87C405.8,-846.92 304.27,-838.15 224.5,-804 192.97,-790.5 162.91,-762.31 148.83,-747.89"/>
<polygon fill="midnightblue" stroke="midnightblue" points="467.25,-852.38 477.34,-849.15 467.43,-845.38 467.25,-852.38"/>
</g>
<!-- Node46 -->
<g id="node42" class="node">
<title>Node46</title>
<g id="a_node42"><a xlink:href="api_2spec_2packet__types_8h.html" target="_top" xlink:title=" ">
<polygon fill="white" stroke="black" points="548.5,-784.5 548.5,-803.5 638.5,-803.5 638.5,-784.5 548.5,-784.5"/>
<text text-anchor="middle" x="593.5" y="-791.5" font-family="Helvetica,sans-Serif" font-size="10.00">packet_types.h</text>
</a>
</g>
</g>
<!-- Node10&#45;&gt;Node46 -->
<g id="edge61" class="edge">
<title>Node10&#45;&gt;Node46</title>
<path fill="none" stroke="midnightblue" d="M541.37,-834.1C554.32,-824.38 570.8,-812.03 581.72,-803.83"/>
<polygon fill="midnightblue" stroke="midnightblue" points="538.97,-831.52 533.07,-840.32 543.17,-837.12 538.97,-831.52"/>
</g>
<!-- Node52 -->
<g id="node47" class="node">
<title>Node52</title>
<g id="a_node47"><a xlink:href="api_2spec_2queue_8h.html" target="_top" xlink:title=" ">
<polygon fill="white" stroke="black" points="695.5,-784.5 695.5,-803.5 751.5,-803.5 751.5,-784.5 695.5,-784.5"/>
<text text-anchor="middle" x="723.5" y="-791.5" font-family="Helvetica,sans-Serif" font-size="10.00">queue.h</text>
</a>
</g>
</g>
<!-- Node10&#45;&gt;Node52 -->
<g id="edge75" class="edge">
<title>Node10&#45;&gt;Node52</title>
<path fill="none" stroke="midnightblue" d="M563.37,-837.81C602.85,-827.25 660.94,-811.72 695.23,-802.56"/>
<polygon fill="midnightblue" stroke="midnightblue" points="562.26,-834.48 553.51,-840.44 564.07,-841.24 562.26,-834.48"/>
</g>
<!-- Node10&#45;&gt;Node54 -->
<g id="edge78" class="edge">
<title>Node10&#45;&gt;Node54</title>
<path fill="none" stroke="midnightblue" d="M575.55,-839.07C624.02,-830.11 697.07,-816.46 760.5,-804 763.56,-803.4 766.74,-802.77 769.92,-802.13"/>
<polygon fill="midnightblue" stroke="midnightblue" points="574.79,-835.65 565.59,-840.91 576.06,-842.54 574.79,-835.65"/>
</g>
<!-- Node12 -->
<g id="node12" class="node">
<title>Node12</title>
<g id="a_node12"><a xlink:href="api_2comp_8h.html" target="_top" xlink:title=" ">
<polygon fill="white" stroke="black" points="877,-560.5 877,-579.5 930,-579.5 930,-560.5 877,-560.5"/>
<text text-anchor="middle" x="903.5" y="-567.5" font-family="Helvetica,sans-Serif" font-size="10.00">comp.h</text>
</a>
</g>
</g>
<!-- Node11&#45;&gt;Node12 -->
<g id="edge11" class="edge">
<title>Node11&#45;&gt;Node12</title>
<path fill="none" stroke="midnightblue" d="M903.5,-662.35C903.5,-638.25 903.5,-597.31 903.5,-579.59"/>
<polygon fill="midnightblue" stroke="midnightblue" points="900,-662.37 903.5,-672.37 907,-662.37 900,-662.37"/>
</g>
<!-- Node13 -->
<g id="node13" class="node">
<title>Node13</title>
<g id="a_node13"><a xlink:href="odp__api_8h.html" target="_top" xlink:title=" ">
<polygon fill="white" stroke="black" points="609.5,-0.5 609.5,-19.5 673.5,-19.5 673.5,-0.5 609.5,-0.5"/>
<text text-anchor="middle" x="641.5" y="-7.5" font-family="Helvetica,sans-Serif" font-size="10.00">odp_api.h</text>
</a>
</g>
</g>
<!-- Node12&#45;&gt;Node13 -->
<g id="edge12" class="edge">
<title>Node12&#45;&gt;Node13</title>
<path fill="none" stroke="midnightblue" d="M899.45,-550.66C895.01,-528.9 888.5,-491.5 888.5,-459 888.5,-459 888.5,-459 888.5,-121 888.5,-90.2 887.89,-76.03 864.5,-56 836.15,-31.72 728.11,-18.77 673.5,-13.65"/>
<polygon fill="midnightblue" stroke="midnightblue" points="896.04,-551.44 901.54,-560.5 902.89,-549.99 896.04,-551.44"/>
</g>
<!-- Node15 -->
<g id="node15" class="node">
<title>Node15</title>
<g id="a_node15"><a xlink:href="api_2dma__types_8h.html" target="_top" xlink:title=" ">
<polygon fill="white" stroke="black" points="375.5,-616.5 375.5,-635.5 455.5,-635.5 455.5,-616.5 375.5,-616.5"/>
<text text-anchor="middle" x="415.5" y="-623.5" font-family="Helvetica,sans-Serif" font-size="10.00">dma_types.h</text>
</a>
</g>
</g>
<!-- Node14&#45;&gt;Node15 -->
<g id="edge14" class="edge">
<title>Node14&#45;&gt;Node15</title>
<path fill="none" stroke="midnightblue" d="M415.5,-661.8C415.5,-652.91 415.5,-642.78 415.5,-635.75"/>
<polygon fill="midnightblue" stroke="midnightblue" points="412,-662.08 415.5,-672.08 419,-662.08 412,-662.08"/>
</g>
<!-- Node16 -->
<g id="node16" class="node">
<title>Node16</title>
<g id="a_node16"><a xlink:href="api_2spec_2dma_8h.html" target="_top" xlink:title=" ">
<polygon fill="white" stroke="black" points="415,-448.5 415,-467.5 462,-467.5 462,-448.5 415,-448.5"/>
<text text-anchor="middle" x="438.5" y="-455.5" font-family="Helvetica,sans-Serif" font-size="10.00">dma.h</text>
</a>
</g>
</g>
<!-- Node15&#45;&gt;Node16 -->
<g id="edge15" class="edge">
<title>Node15&#45;&gt;Node16</title>
<path fill="none" stroke="midnightblue" d="M424.79,-607.22C428.54,-599.14 432.45,-589.32 434.5,-580 443.57,-538.74 440.86,-487.68 439.28,-467.64"/>
<polygon fill="midnightblue" stroke="midnightblue" points="421.57,-605.84 420.28,-616.35 427.84,-608.93 421.57,-605.84"/>
</g>
<!-- Node18 -->
<g id="node18" class="node">
<title>Node18</title>
<g id="a_node18"><a xlink:href="api_2spec_2pool__types_8h.html" target="_top" xlink:title=" ">
<polygon fill="white" stroke="black" points="347,-560.5 347,-579.5 426,-579.5 426,-560.5 347,-560.5"/>
<text text-anchor="middle" x="386.5" y="-567.5" font-family="Helvetica,sans-Serif" font-size="10.00">pool_types.h</text>
</a>
</g>
</g>
<!-- Node15&#45;&gt;Node18 -->
<g id="edge18" class="edge">
<title>Node15&#45;&gt;Node18</title>
<path fill="none" stroke="midnightblue" d="M405.82,-606.98C400.9,-597.82 395.14,-587.09 391.2,-579.75"/>
<polygon fill="midnightblue" stroke="midnightblue" points="402.9,-608.93 410.71,-616.08 409.06,-605.62 402.9,-608.93"/>
</g>
<!-- Node17 -->
<g id="node17" class="node">
<title>Node17</title>
<g id="a_node17"><a xlink:href="api_2dma_8h.html" target="_top" xlink:title=" ">
<polygon fill="white" stroke="black" points="503,-112.5 503,-131.5 550,-131.5 550,-112.5 503,-112.5"/>
<text text-anchor="middle" x="526.5" y="-119.5" font-family="Helvetica,sans-Serif" font-size="10.00">dma.h</text>
</a>
</g>
</g>
<!-- Node16&#45;&gt;Node17 -->
<g id="edge16" class="edge">
<title>Node16&#45;&gt;Node17</title>
<path fill="none" stroke="midnightblue" d="M453.29,-440.76C477.39,-412.52 522.5,-351.59 522.5,-291 522.5,-291 522.5,-291 522.5,-233 522.5,-195.16 524.89,-150.05 525.98,-131.55"/>
<polygon fill="midnightblue" stroke="midnightblue" points="450.52,-438.61 446.55,-448.43 455.78,-443.22 450.52,-438.61"/>
</g>
<!-- Node17&#45;&gt;Node13 -->
<g id="edge17" class="edge">
<title>Node17&#45;&gt;Node13</title>
<path fill="none" stroke="midnightblue" d="M534.17,-102.5C540.68,-88.48 551.09,-69.4 564.5,-56 580.71,-39.8 603.91,-27.29 620.6,-19.62"/>
<polygon fill="midnightblue" stroke="midnightblue" points="530.79,-101.5 529.97,-112.06 537.2,-104.32 530.79,-101.5"/>
</g>
<!-- Node19 -->
<g id="node19" class="node">
<title>Node19</title>
<g id="a_node19"><a xlink:href="api_2pool__types_8h.html" target="_top" xlink:title=" ">
<polygon fill="white" stroke="red" points="347,-504.5 347,-523.5 426,-523.5 426,-504.5 347,-504.5"/>
<text text-anchor="middle" x="386.5" y="-511.5" font-family="Helvetica,sans-Serif" font-size="10.00">pool_types.h</text>
</a>
</g>
</g>
<!-- Node18&#45;&gt;Node19 -->
<g id="edge19" class="edge">
<title>Node18&#45;&gt;Node19</title>
<path fill="none" stroke="midnightblue" d="M386.5,-549.8C386.5,-540.91 386.5,-530.78 386.5,-523.75"/>
<polygon fill="midnightblue" stroke="midnightblue" points="383,-550.08 386.5,-560.08 390,-550.08 383,-550.08"/>
</g>
<!-- Node19&#45;&gt;Node16 -->
<g id="edge38" class="edge">
<title>Node19&#45;&gt;Node16</title>
<path fill="none" stroke="midnightblue" d="M402.18,-496.72C411.34,-487.2 422.55,-475.56 430.07,-467.75"/>
<polygon fill="midnightblue" stroke="midnightblue" points="399.5,-494.45 395.09,-504.08 404.54,-499.31 399.5,-494.45"/>
</g>
<!-- Node22 -->
<g id="node20" class="node">
<title>Node22</title>
<g id="a_node20"><a xlink:href="api_2spec_2classification_8h.html" target="_top" xlink:title=" ">
<polygon fill="white" stroke="black" points="190,-336.5 190,-355.5 279,-355.5 279,-336.5 190,-336.5"/>
<text text-anchor="middle" x="234.5" y="-343.5" font-family="Helvetica,sans-Serif" font-size="10.00">classification.h</text>
</a>
</g>
</g>
<!-- Node19&#45;&gt;Node22 -->
<g id="edge20" class="edge">
<title>Node19&#45;&gt;Node22</title>
<path fill="none" stroke="midnightblue" d="M363.93,-498.61C337.54,-480.87 293.87,-448.54 265.5,-412 251.55,-394.03 241.76,-368.76 237.28,-355.65"/>
<polygon fill="midnightblue" stroke="midnightblue" points="362.22,-501.67 372.49,-504.26 366.07,-495.83 362.22,-501.67"/>
</g>
<!-- Node30 -->
<g id="node28" class="node">
<title>Node30</title>
<g id="a_node28"><a xlink:href="api_2spec_2crypto__types_8h.html" target="_top" xlink:title=" ">
<polygon fill="white" stroke="black" points="622,-448.5 622,-467.5 711,-467.5 711,-448.5 622,-448.5"/>
<text text-anchor="middle" x="666.5" y="-455.5" font-family="Helvetica,sans-Serif" font-size="10.00">crypto_types.h</text>
</a>
</g>
</g>
<!-- Node19&#45;&gt;Node30 -->
<g id="edge31" class="edge">
<title>Node19&#45;&gt;Node30</title>
<path fill="none" stroke="midnightblue" d="M436.15,-503.42C488.88,-493.25 571.46,-477.33 622.1,-467.56"/>
<polygon fill="midnightblue" stroke="midnightblue" points="435.18,-500.05 426.02,-505.38 436.51,-506.92 435.18,-500.05"/>
</g>
<!-- Node34 -->
<g id="node32" class="node">
<title>Node34</title>
<g id="a_node32"><a xlink:href="api_2spec_2packet_8h.html" target="_top" xlink:title=" ">
<polygon fill="white" stroke="black" points="436.5,-336.5 436.5,-355.5 494.5,-355.5 494.5,-336.5 436.5,-336.5"/>
<text text-anchor="middle" x="465.5" y="-343.5" font-family="Helvetica,sans-Serif" font-size="10.00">packet.h</text>
</a>
</g>
</g>
<!-- Node19&#45;&gt;Node34 -->
<g id="edge39" class="edge">
<title>Node19&#45;&gt;Node34</title>
<path fill="none" stroke="midnightblue" d="M390.58,-494.53C393.82,-481.28 398.91,-463.16 405.5,-448 421.28,-411.72 447.6,-372.42 459.42,-355.52"/>
<polygon fill="midnightblue" stroke="midnightblue" points="387.15,-493.81 388.3,-504.35 393.97,-495.4 387.15,-493.81"/>
</g>
<!-- Node19&#45;&gt;Node36 -->
<g id="edge42" class="edge">
<title>Node19&#45;&gt;Node36</title>
<path fill="none" stroke="midnightblue" d="M350.11,-501.3C318.46,-491.13 273.33,-476.62 245,-467.52"/>
<polygon fill="midnightblue" stroke="midnightblue" points="349.29,-504.72 359.88,-504.44 351.43,-498.05 349.29,-504.72"/>
</g>
<!-- Node19&#45;&gt;Node42 -->
<g id="edge52" class="edge">
<title>Node19&#45;&gt;Node42</title>
<path fill="none" stroke="midnightblue" d="M414.64,-500.23C436.9,-490.13 467.36,-476.31 486.73,-467.52"/>
<polygon fill="midnightblue" stroke="midnightblue" points="413.02,-497.12 405.36,-504.44 415.91,-503.5 413.02,-497.12"/>
</g>
<!-- Node23 -->
<g id="node21" class="node">
<title>Node23</title>
<g id="a_node21"><a xlink:href="api_2classification_8h.html" target="_top" xlink:title=" ">
<polygon fill="white" stroke="black" points="190,-280.5 190,-299.5 279,-299.5 279,-280.5 190,-280.5"/>
<text text-anchor="middle" x="234.5" y="-287.5" font-family="Helvetica,sans-Serif" font-size="10.00">classification.h</text>
</a>
</g>
</g>
<!-- Node22&#45;&gt;Node23 -->
<g id="edge21" class="edge">
<title>Node22&#45;&gt;Node23</title>
<path fill="none" stroke="midnightblue" d="M234.5,-325.8C234.5,-316.91 234.5,-306.78 234.5,-299.75"/>
<polygon fill="midnightblue" stroke="midnightblue" points="231,-326.08 234.5,-336.08 238,-326.08 231,-326.08"/>
</g>
<!-- Node23&#45;&gt;Node13 -->
<g id="edge30" class="edge">
<title>Node23&#45;&gt;Node13</title>
<path fill="none" stroke="midnightblue" d="M245.44,-271.53C257.59,-250.44 275.5,-213.48 275.5,-179 275.5,-179 275.5,-179 275.5,-121 275.5,-51.58 520.03,-22.15 609.34,-13.72"/>
<polygon fill="midnightblue" stroke="midnightblue" points="242.34,-269.91 240.2,-280.29 248.34,-273.51 242.34,-269.91"/>
</g>
<!-- Node24 -->
<g id="node22" class="node">
<title>Node24</title>
<g id="a_node22"><a xlink:href="api_2spec_2ipsec__types_8h.html" target="_top" xlink:title=" ">
<polygon fill="white" stroke="black" points="363,-224.5 363,-243.5 446,-243.5 446,-224.5 363,-224.5"/>
<text text-anchor="middle" x="404.5" y="-231.5" font-family="Helvetica,sans-Serif" font-size="10.00">ipsec_types.h</text>
</a>
</g>
</g>
<!-- Node23&#45;&gt;Node24 -->
<g id="edge22" class="edge">
<title>Node23&#45;&gt;Node24</title>
<path fill="none" stroke="midnightblue" d="M271.32,-277.3C303.35,-267.13 349.02,-252.62 377.69,-243.52"/>
<polygon fill="midnightblue" stroke="midnightblue" points="269.91,-274.08 261.44,-280.44 272.03,-280.75 269.91,-274.08"/>
</g>
<!-- Node23&#45;&gt;Node28 -->
<g id="edge27" class="edge">
<title>Node23&#45;&gt;Node28</title>
<path fill="none" stroke="midnightblue" d="M210.95,-275.18C194.02,-265.24 171.72,-252.15 157.24,-243.65"/>
<polygon fill="midnightblue" stroke="midnightblue" points="209.32,-278.28 219.72,-280.32 212.87,-272.24 209.32,-278.28"/>
</g>
<!-- Node25 -->
<g id="node23" class="node">
<title>Node25</title>
<g id="a_node23"><a xlink:href="api_2ipsec__types_8h.html" target="_top" xlink:title=" ">
<polygon fill="white" stroke="black" points="589,-168.5 589,-187.5 672,-187.5 672,-168.5 589,-168.5"/>
<text text-anchor="middle" x="630.5" y="-175.5" font-family="Helvetica,sans-Serif" font-size="10.00">ipsec_types.h</text>
</a>
</g>
</g>
<!-- Node24&#45;&gt;Node25 -->
<g id="edge23" class="edge">
<title>Node24&#45;&gt;Node25</title>
<path fill="none" stroke="midnightblue" d="M450.17,-222.09C492.86,-211.89 555.75,-196.86 594.86,-187.52"/>
<polygon fill="midnightblue" stroke="midnightblue" points="449.22,-218.72 440.31,-224.44 450.85,-225.52 449.22,-218.72"/>
</g>
<!-- Node26 -->
<g id="node24" class="node">
<title>Node26</title>
<g id="a_node24"><a xlink:href="api_2spec_2ipsec_8h.html" target="_top" xlink:title=" ">
<polygon fill="white" stroke="black" points="646,-112.5 646,-131.5 697,-131.5 697,-112.5 646,-112.5"/>
<text text-anchor="middle" x="671.5" y="-119.5" font-family="Helvetica,sans-Serif" font-size="10.00">ipsec.h</text>
</a>
</g>
</g>
<!-- Node25&#45;&gt;Node26 -->
<g id="edge24" class="edge">
<title>Node25&#45;&gt;Node26</title>
<path fill="none" stroke="midnightblue" d="M643.52,-159.86C650.62,-150.5 659.1,-139.33 664.86,-131.75"/>
<polygon fill="midnightblue" stroke="midnightblue" points="640.53,-158 637.27,-168.08 646.11,-162.24 640.53,-158"/>
</g>
<!-- Node27 -->
<g id="node25" class="node">
<title>Node27</title>
<g id="a_node25"><a xlink:href="api_2ipsec_8h.html" target="_top" xlink:title=" ">
<polygon fill="white" stroke="black" points="646,-56.5 646,-75.5 697,-75.5 697,-56.5 646,-56.5"/>
<text text-anchor="middle" x="671.5" y="-63.5" font-family="Helvetica,sans-Serif" font-size="10.00">ipsec.h</text>
</a>
</g>
</g>
<!-- Node26&#45;&gt;Node27 -->
<g id="edge25" class="edge">
<title>Node26&#45;&gt;Node27</title>
<path fill="none" stroke="midnightblue" d="M671.5,-101.8C671.5,-92.91 671.5,-82.78 671.5,-75.75"/>
<polygon fill="midnightblue" stroke="midnightblue" points="668,-102.08 671.5,-112.08 675,-102.08 668,-102.08"/>
</g>
<!-- Node27&#45;&gt;Node13 -->
<g id="edge26" class="edge">
<title>Node27&#45;&gt;Node13</title>
<path fill="none" stroke="midnightblue" d="M661.65,-47.27C656.53,-38.05 650.48,-27.17 646.36,-19.75"/>
<polygon fill="midnightblue" stroke="midnightblue" points="658.63,-49.04 666.55,-56.08 664.75,-45.64 658.63,-49.04"/>
</g>
<!-- Node29 -->
<g id="node27" class="node">
<title>Node29</title>
<g id="a_node27"><a xlink:href="api_2packet__io_8h.html" target="_top" xlink:title=" ">
<polygon fill="white" stroke="black" points="132.5,-168.5 132.5,-187.5 204.5,-187.5 204.5,-168.5 132.5,-168.5"/>
<text text-anchor="middle" x="168.5" y="-175.5" font-family="Helvetica,sans-Serif" font-size="10.00">packet_io.h</text>
</a>
</g>
</g>
<!-- Node28&#45;&gt;Node29 -->
<g id="edge28" class="edge">
<title>Node28&#45;&gt;Node29</title>
<path fill="none" stroke="midnightblue" d="M151.17,-214.98C155.59,-205.82 160.75,-195.09 164.29,-187.75"/>
<polygon fill="midnightblue" stroke="midnightblue" points="147.98,-213.55 146.79,-224.08 154.29,-216.59 147.98,-213.55"/>
</g>
<!-- Node29&#45;&gt;Node13 -->
<g id="edge29" class="edge">
<title>Node29&#45;&gt;Node13</title>
<path fill="none" stroke="midnightblue" d="M176.47,-159.18C189.76,-131.8 219.22,-80.02 261.5,-56 320.71,-22.36 528.76,-13.74 609.31,-11.64"/>
<polygon fill="midnightblue" stroke="midnightblue" points="173.24,-157.83 172.18,-168.38 179.58,-160.8 173.24,-157.83"/>
</g>
<!-- Node31 -->
<g id="node29" class="node">
<title>Node31</title>
<g id="a_node29"><a xlink:href="api_2crypto__types_8h.html" target="_top" xlink:title=" ">
<polygon fill="white" stroke="black" points="622,-280.5 622,-299.5 711,-299.5 711,-280.5 622,-280.5"/>
<text text-anchor="middle" x="666.5" y="-287.5" font-family="Helvetica,sans-Serif" font-size="10.00">crypto_types.h</text>
</a>
</g>
</g>
<!-- Node30&#45;&gt;Node31 -->
<g id="edge32" class="edge">
<title>Node30&#45;&gt;Node31</title>
<path fill="none" stroke="midnightblue" d="M666.5,-437.93C666.5,-401.92 666.5,-325.23 666.5,-299.57"/>
<polygon fill="midnightblue" stroke="midnightblue" points="663,-438.08 666.5,-448.08 670,-438.08 663,-438.08"/>
</g>
<!-- Node31&#45;&gt;Node24 -->
<g id="edge37" class="edge">
<title>Node31&#45;&gt;Node24</title>
<path fill="none" stroke="midnightblue" d="M615.12,-278.41C565.6,-268.2 491.64,-252.96 445.82,-243.52"/>
<polygon fill="midnightblue" stroke="midnightblue" points="614.48,-281.85 624.99,-280.44 615.9,-275 614.48,-281.85"/>
</g>
<!-- Node31&#45;&gt;Node26 -->
<g id="edge36" class="edge">
<title>Node31&#45;&gt;Node26</title>
<path fill="none" stroke="midnightblue" d="M671.5,-270.43C677.27,-246.69 685.49,-204.33 681.5,-168 680.09,-155.11 676.46,-140.52 673.98,-131.53"/>
<polygon fill="midnightblue" stroke="midnightblue" points="668.09,-269.65 669,-280.2 674.87,-271.38 668.09,-269.65"/>
</g>
<!-- Node32 -->
<g id="node30" class="node">
<title>Node32</title>
<g id="a_node30"><a xlink:href="api_2spec_2crypto_8h.html" target="_top" xlink:title=" ">
<polygon fill="white" stroke="black" points="766.5,-224.5 766.5,-243.5 822.5,-243.5 822.5,-224.5 766.5,-224.5"/>
<text text-anchor="middle" x="794.5" y="-231.5" font-family="Helvetica,sans-Serif" font-size="10.00">crypto.h</text>
</a>
</g>
</g>
<!-- Node31&#45;&gt;Node32 -->
<g id="edge33" class="edge">
<title>Node31&#45;&gt;Node32</title>
<path fill="none" stroke="midnightblue" d="M696.12,-276.5C720.12,-266.38 753.28,-252.39 774.31,-243.52"/>
<polygon fill="midnightblue" stroke="midnightblue" points="694.64,-273.33 686.78,-280.44 697.36,-279.78 694.64,-273.33"/>
</g>
<!-- Node33 -->
<g id="node31" class="node">
<title>Node33</title>
<g id="a_node31"><a xlink:href="api_2crypto_8h.html" target="_top" xlink:title=" ">
<polygon fill="white" stroke="black" points="766.5,-168.5 766.5,-187.5 822.5,-187.5 822.5,-168.5 766.5,-168.5"/>
<text text-anchor="middle" x="794.5" y="-175.5" font-family="Helvetica,sans-Serif" font-size="10.00">crypto.h</text>
</a>
</g>
</g>
<!-- Node32&#45;&gt;Node33 -->
<g id="edge34" class="edge">
<title>Node32&#45;&gt;Node33</title>
<path fill="none" stroke="midnightblue" d="M794.5,-213.8C794.5,-204.91 794.5,-194.78 794.5,-187.75"/>
<polygon fill="midnightblue" stroke="midnightblue" points="791,-214.08 794.5,-224.08 798,-214.08 791,-214.08"/>
</g>
<!-- Node33&#45;&gt;Node13 -->
<g id="edge35" class="edge">
<title>Node33&#45;&gt;Node13</title>
<path fill="none" stroke="midnightblue" d="M784.3,-159.69C769.15,-134.91 738.9,-88.69 705.5,-56 690.45,-41.27 670.17,-27.88 656.5,-19.61"/>
<polygon fill="midnightblue" stroke="midnightblue" points="781.35,-161.58 789.5,-168.35 787.35,-157.98 781.35,-161.58"/>
</g>
<!-- Node35 -->
<g id="node33" class="node">
<title>Node35</title>
<g id="a_node33"><a xlink:href="api_2packet_8h.html" target="_top" xlink:title=" ">
<polygon fill="white" stroke="black" points="447.5,-56.5 447.5,-75.5 505.5,-75.5 505.5,-56.5 447.5,-56.5"/>
<text text-anchor="middle" x="476.5" y="-63.5" font-family="Helvetica,sans-Serif" font-size="10.00">packet.h</text>
</a>
</g>
</g>
<!-- Node34&#45;&gt;Node35 -->
<g id="edge40" class="edge">
<title>Node34&#45;&gt;Node35</title>
<path fill="none" stroke="midnightblue" d="M467.97,-326.29C470.63,-304.43 474.5,-267.16 474.5,-235 474.5,-235 474.5,-235 474.5,-177 474.5,-139.18 475.7,-94.06 476.24,-75.56"/>
<polygon fill="midnightblue" stroke="midnightblue" points="464.46,-326.1 466.68,-336.46 471.41,-326.98 464.46,-326.1"/>
</g>
<!-- Node35&#45;&gt;Node13 -->
<g id="edge41" class="edge">
<title>Node35&#45;&gt;Node13</title>
<path fill="none" stroke="midnightblue" d="M512.24,-53.3C543.33,-43.13 587.65,-28.62 615.48,-19.52"/>
<polygon fill="midnightblue" stroke="midnightblue" points="511.06,-50.01 502.64,-56.44 513.24,-56.66 511.06,-50.01"/>
</g>
<!-- Node37 -->
<g id="node35" class="node">
<title>Node37</title>
<g id="a_node35"><a xlink:href="api_2packet__io__types_8h.html" target="_top" xlink:title=" ">
<polygon fill="white" stroke="black" points="274.5,-392.5 274.5,-411.5 378.5,-411.5 378.5,-392.5 274.5,-392.5"/>
<text text-anchor="middle" x="326.5" y="-399.5" font-family="Helvetica,sans-Serif" font-size="10.00">packet_io_types.h</text>
</a>
</g>
</g>
<!-- Node36&#45;&gt;Node37 -->
<g id="edge43" class="edge">
<title>Node36&#45;&gt;Node37</title>
<path fill="none" stroke="midnightblue" d="M245.05,-443.73C265.05,-433.73 291.89,-420.31 309.19,-411.65"/>
<polygon fill="midnightblue" stroke="midnightblue" points="243.23,-440.72 235.85,-448.32 246.36,-446.98 243.23,-440.72"/>
</g>
<!-- Node37&#45;&gt;Node22 -->
<g id="edge44" class="edge">
<title>Node37&#45;&gt;Node22</title>
<path fill="none" stroke="midnightblue" d="M302.95,-387.18C286.02,-377.24 263.72,-364.15 249.24,-355.65"/>
<polygon fill="midnightblue" stroke="midnightblue" points="301.32,-390.28 311.72,-392.32 304.87,-384.24 301.32,-390.28"/>
</g>
<!-- Node37&#45;&gt;Node24 -->
<g id="edge45" class="edge">
<title>Node37&#45;&gt;Node24</title>
<path fill="none" stroke="midnightblue" d="M355.04,-387.5C367.68,-380.02 381.48,-369.48 389.5,-356 411.48,-319.08 408.03,-264.63 405.66,-243.66"/>
<polygon fill="midnightblue" stroke="midnightblue" points="353.21,-384.51 346.14,-392.4 356.59,-390.64 353.21,-384.51"/>
</g>
<!-- Node37&#45;&gt;Node28 -->
<g id="edge47" class="edge">
<title>Node37&#45;&gt;Node28</title>
<path fill="none" stroke="midnightblue" d="M264.36,-395.12C235.49,-389.37 202.7,-378.09 180.5,-356 148.5,-324.17 143.38,-265.73 142.61,-243.7"/>
<polygon fill="midnightblue" stroke="midnightblue" points="263.93,-398.6 274.39,-396.93 265.17,-391.71 263.93,-398.6"/>
</g>
<!-- Node37&#45;&gt;Node34 -->
<g id="edge46" class="edge">
<title>Node37&#45;&gt;Node34</title>
<path fill="none" stroke="midnightblue" d="M357.98,-388.77C384.09,-378.63 420.54,-364.47 443.58,-355.52"/>
<polygon fill="midnightblue" stroke="midnightblue" points="356.58,-385.56 348.52,-392.44 359.11,-392.08 356.58,-385.56"/>
</g>
<!-- Node38 -->
<g id="node36" class="node">
<title>Node38</title>
<g id="a_node36"><a xlink:href="api_2spec_2traffic__mngr_8h.html" target="_top" xlink:title=" ">
<polygon fill="white" stroke="black" points="296.5,-336.5 296.5,-355.5 380.5,-355.5 380.5,-336.5 296.5,-336.5"/>
<text text-anchor="middle" x="338.5" y="-343.5" font-family="Helvetica,sans-Serif" font-size="10.00">traffic_mngr.h</text>
</a>
</g>
</g>
<!-- Node37&#45;&gt;Node38 -->
<g id="edge48" class="edge">
<title>Node37&#45;&gt;Node38</title>
<path fill="none" stroke="midnightblue" d="M330.7,-382.1C332.69,-373.14 334.98,-362.86 336.56,-355.75"/>
<polygon fill="midnightblue" stroke="midnightblue" points="327.23,-381.56 328.48,-392.08 334.07,-383.08 327.23,-381.56"/>
</g>
<!-- Node39 -->
<g id="node37" class="node">
<title>Node39</title>
<g id="a_node37"><a xlink:href="api_2traffic__mngr_8h.html" target="_top" xlink:title=" ">
<polygon fill="white" stroke="black" points="296.5,-280.5 296.5,-299.5 380.5,-299.5 380.5,-280.5 296.5,-280.5"/>
<text text-anchor="middle" x="338.5" y="-287.5" font-family="Helvetica,sans-Serif" font-size="10.00">traffic_mngr.h</text>
</a>
</g>
</g>
<!-- Node38&#45;&gt;Node39 -->
<g id="edge49" class="edge">
<title>Node38&#45;&gt;Node39</title>
<path fill="none" stroke="midnightblue" d="M338.5,-325.8C338.5,-316.91 338.5,-306.78 338.5,-299.75"/>
<polygon fill="midnightblue" stroke="midnightblue" points="335,-326.08 338.5,-336.08 342,-326.08 335,-326.08"/>
</g>
<!-- Node39&#45;&gt;Node13 -->
<g id="edge51" class="edge">
<title>Node39&#45;&gt;Node13</title>
<path fill="none" stroke="midnightblue" d="M337.4,-270.26C336.22,-248.37 334.5,-211.07 334.5,-179 334.5,-179 334.5,-179 334.5,-121 334.5,-63.11 530.4,-27.51 609.23,-15.54"/>
<polygon fill="midnightblue" stroke="midnightblue" points="333.92,-270.66 337.98,-280.45 340.91,-270.27 333.92,-270.66"/>
</g>
<!-- Node39&#45;&gt;Node24 -->
<g id="edge50" class="edge">
<title>Node39&#45;&gt;Node24</title>
<path fill="none" stroke="midnightblue" d="M357.05,-273.82C368.88,-264.15 383.79,-251.95 393.7,-243.83"/>
<polygon fill="midnightblue" stroke="midnightblue" points="354.63,-271.28 349.1,-280.32 359.06,-276.7 354.63,-271.28"/>
</g>
<!-- Node43 -->
<g id="node39" class="node">
<title>Node43</title>
<g id="a_node39"><a xlink:href="api_2timer_8h.html" target="_top" xlink:title=" ">
<polygon fill="white" stroke="black" points="588,-392.5 588,-411.5 639,-411.5 639,-392.5 588,-392.5"/>
<text text-anchor="middle" x="613.5" y="-399.5" font-family="Helvetica,sans-Serif" font-size="10.00">timer.h</text>
</a>
</g>
</g>
<!-- Node42&#45;&gt;Node43 -->
<g id="edge53" class="edge">
<title>Node42&#45;&gt;Node43</title>
<path fill="none" stroke="midnightblue" d="M532.05,-443.73C552.05,-433.73 578.89,-420.31 596.19,-411.65"/>
<polygon fill="midnightblue" stroke="midnightblue" points="530.23,-440.72 522.85,-448.32 533.36,-446.98 530.23,-440.72"/>
</g>
<!-- Node43&#45;&gt;Node13 -->
<g id="edge54" class="edge">
<title>Node43&#45;&gt;Node13</title>
<path fill="none" stroke="midnightblue" d="M599.54,-384.25C583.83,-363.66 560.5,-327.01 560.5,-291 560.5,-291 560.5,-291 560.5,-233 560.5,-145.2 617.1,-49.06 635.67,-19.88"/>
<polygon fill="midnightblue" stroke="midnightblue" points="596.95,-386.62 605.91,-392.28 602.43,-382.27 596.95,-386.62"/>
</g>
<!-- Node45 -->
<g id="node41" class="node">
<title>Node45</title>
<g id="a_node41"><a xlink:href="packet__io__stats_8h.html" target="_top" xlink:title=" ">
<polygon fill="white" stroke="black" points="71,-504.5 71,-523.5 172,-523.5 172,-504.5 71,-504.5"/>
<text text-anchor="middle" x="121.5" y="-511.5" font-family="Helvetica,sans-Serif" font-size="10.00">packet_io_stats.h</text>
</a>
</g>
</g>
<!-- Node44&#45;&gt;Node45 -->
<g id="edge57" class="edge">
<title>Node44&#45;&gt;Node45</title>
<path fill="none" stroke="midnightblue" d="M138.9,-718.3C134.99,-672.64 125.08,-556.85 122.26,-523.88"/>
<polygon fill="midnightblue" stroke="midnightblue" points="135.42,-718.63 139.76,-728.3 142.39,-718.04 135.42,-718.63"/>
</g>
<!-- Node45&#45;&gt;Node28 -->
<g id="edge58" class="edge">
<title>Node45&#45;&gt;Node28</title>
<path fill="none" stroke="midnightblue" d="M111.91,-495.4C101.24,-474.15 85.5,-437.02 85.5,-403 85.5,-403 85.5,-403 85.5,-345 85.5,-303.06 118.57,-261.19 134.33,-243.62"/>
<polygon fill="midnightblue" stroke="midnightblue" points="108.91,-497.23 116.64,-504.47 115.12,-493.99 108.91,-497.23"/>
</g>
<!-- Node45&#45;&gt;Node36 -->
<g id="edge59" class="edge">
<title>Node45&#45;&gt;Node36</title>
<path fill="none" stroke="midnightblue" d="M145.84,-499.45C163.74,-489.48 187.55,-476.23 202.95,-467.65"/>
<polygon fill="midnightblue" stroke="midnightblue" points="144.12,-496.4 137.08,-504.32 147.52,-502.52 144.12,-496.4"/>
</g>
<!-- Node47 -->
<g id="node43" class="node">
<title>Node47</title>
<g id="a_node43"><a xlink:href="api_2packet__types_8h.html" target="_top" xlink:title=" ">
<polygon fill="white" stroke="black" points="549.5,-728.5 549.5,-747.5 639.5,-747.5 639.5,-728.5 549.5,-728.5"/>
<text text-anchor="middle" x="594.5" y="-735.5" font-family="Helvetica,sans-Serif" font-size="10.00">packet_types.h</text>
</a>
</g>
</g>
<!-- Node46&#45;&gt;Node47 -->
<g id="edge62" class="edge">
<title>Node46&#45;&gt;Node47</title>
<path fill="none" stroke="midnightblue" d="M593.86,-773.8C594.02,-764.91 594.21,-754.78 594.34,-747.75"/>
<polygon fill="midnightblue" stroke="midnightblue" points="590.35,-774.02 593.67,-784.08 597.35,-774.15 590.35,-774.02"/>
</g>
<!-- Node47&#45;&gt;Node11 -->
<g id="edge63" class="edge">
<title>Node47&#45;&gt;Node11</title>
<path fill="none" stroke="midnightblue" d="M649.79,-728.52C717.37,-718.04 827.78,-700.56 868.5,-692 871.2,-691.43 874.01,-690.79 876.8,-690.13"/>
<polygon fill="midnightblue" stroke="midnightblue" points="649.08,-725.08 639.73,-730.07 650.15,-732 649.08,-725.08"/>
</g>
<!-- Node47&#45;&gt;Node14 -->
<g id="edge66" class="edge">
<title>Node47&#45;&gt;Node14</title>
<path fill="none" stroke="midnightblue" d="M556.17,-725.44C522.42,-715.26 474.05,-700.66 443.73,-691.52"/>
<polygon fill="midnightblue" stroke="midnightblue" points="555.55,-728.91 566.14,-728.44 557.57,-722.2 555.55,-728.91"/>
</g>
<!-- Node47&#45;&gt;Node26 -->
<g id="edge70" class="edge">
<title>Node47&#45;&gt;Node26</title>
<path fill="none" stroke="midnightblue" d="M640.17,-725.37C660.97,-718.33 684.83,-707.62 702.5,-692 727.4,-669.98 739.5,-660.24 739.5,-627 739.5,-627 739.5,-627 739.5,-345 739.5,-263.94 724.57,-243.67 695.5,-168 690.42,-154.78 682.31,-140.5 676.95,-131.66"/>
<polygon fill="midnightblue" stroke="midnightblue" points="639.02,-722.06 630.56,-728.44 641.15,-728.73 639.02,-722.06"/>
</g>
<!-- Node47&#45;&gt;Node28 -->
<g id="edge73" class="edge">
<title>Node47&#45;&gt;Node28</title>
<path fill="none" stroke="midnightblue" d="M539.03,-735.53C490.73,-732.12 420.21,-721.87 366.5,-692 336.75,-675.46 171.29,-499.12 157.5,-468 121.71,-387.2 136,-275.05 141.03,-243.54"/>
<polygon fill="midnightblue" stroke="midnightblue" points="539.09,-739.04 549.29,-736.18 539.53,-732.06 539.09,-739.04"/>
</g>
<!-- Node47&#45;&gt;Node30 -->
<g id="edge65" class="edge">
<title>Node47&#45;&gt;Node30</title>
<path fill="none" stroke="midnightblue" d="M634.32,-724.68C651.32,-717.59 670.06,-707.03 682.5,-692 701.69,-668.81 701.5,-657.1 701.5,-627 701.5,-627 701.5,-627 701.5,-569 701.5,-529.52 680.77,-485.66 671.22,-467.54"/>
<polygon fill="midnightblue" stroke="midnightblue" points="632.63,-721.58 624.57,-728.46 635.16,-728.1 632.63,-721.58"/>
</g>
<!-- Node47&#45;&gt;Node32 -->
<g id="edge64" class="edge">
<title>Node47&#45;&gt;Node32</title>
<path fill="none" stroke="midnightblue" d="M649.78,-733.78C683.53,-729.08 725.44,-717.95 753.5,-692 776.11,-671.09 777.5,-657.8 777.5,-627 777.5,-627 777.5,-627 777.5,-345 777.5,-306.93 787.57,-262.31 792.21,-243.77"/>
<polygon fill="midnightblue" stroke="midnightblue" points="649.08,-730.34 639.59,-735.05 649.95,-737.29 649.08,-730.34"/>
</g>
<!-- Node47&#45;&gt;Node34 -->
<g id="edge71" class="edge">
<title>Node47&#45;&gt;Node34</title>
<path fill="none" stroke="midnightblue" d="M585.18,-719.37C574.81,-698.09 559.5,-660.93 559.5,-627 559.5,-627 559.5,-627 559.5,-457 559.5,-409.27 507.72,-371.8 481.02,-355.65"/>
<polygon fill="midnightblue" stroke="midnightblue" points="582.14,-721.12 589.78,-728.46 588.38,-717.95 582.14,-721.12"/>
</g>
<!-- Node47&#45;&gt;Node36 -->
<g id="edge74" class="edge">
<title>Node47&#45;&gt;Node36</title>
<path fill="none" stroke="midnightblue" d="M569.67,-723.55C543.8,-709.77 501.88,-688.15 464.5,-672 421.9,-653.6 404.45,-662.7 366.5,-636 348.48,-623.32 252.13,-501.72 225.39,-467.76"/>
<polygon fill="midnightblue" stroke="midnightblue" points="568.29,-726.78 578.76,-728.41 571.6,-720.61 568.29,-726.78"/>
</g>
<!-- Node48 -->
<g id="node44" class="node">
<title>Node48</title>
<g id="a_node44"><a xlink:href="api_2spec_2event_8h.html" target="_top" xlink:title=" ">
<polygon fill="white" stroke="black" points="806,-672.5 806,-691.5 859,-691.5 859,-672.5 806,-672.5"/>
<text text-anchor="middle" x="832.5" y="-679.5" font-family="Helvetica,sans-Serif" font-size="10.00">event.h</text>
</a>
</g>
</g>
<!-- Node47&#45;&gt;Node48 -->
<g id="edge67" class="edge">
<title>Node47&#45;&gt;Node48</title>
<path fill="none" stroke="midnightblue" d="M641.97,-726.23C691.07,-715.09 765.99,-698.09 805.67,-689.09"/>
<polygon fill="midnightblue" stroke="midnightblue" points="641.19,-722.82 632.21,-728.44 642.74,-729.64 641.19,-722.82"/>
</g>
<!-- Node50 -->
<g id="node46" class="node">
<title>Node50</title>
<g id="a_node46"><a xlink:href="api_2spec_2packet__flags_8h.html" target="_top" xlink:title=" ">
<polygon fill="white" stroke="red" points="587.5,-672.5 587.5,-691.5 673.5,-691.5 673.5,-672.5 587.5,-672.5"/>
<text text-anchor="middle" x="630.5" y="-679.5" font-family="Helvetica,sans-Serif" font-size="10.00">packet_flags.h</text>
</a>
</g>
</g>
<!-- Node47&#45;&gt;Node50 -->
<g id="edge72" class="edge">
<title>Node47&#45;&gt;Node50</title>
<path fill="none" stroke="midnightblue" d="M606.12,-719.57C612.32,-710.27 619.67,-699.25 624.67,-691.75"/>
<polygon fill="midnightblue" stroke="midnightblue" points="603.08,-717.82 600.44,-728.08 608.9,-721.7 603.08,-717.82"/>
</g>
<!-- Node49 -->
<g id="node45" class="node">
<title>Node49</title>
<g id="a_node45"><a xlink:href="api_2event_8h.html" target="_top" xlink:title=" ">
<polygon fill="white" stroke="black" points="814,-616.5 814,-635.5 867,-635.5 867,-616.5 814,-616.5"/>
<text text-anchor="middle" x="840.5" y="-623.5" font-family="Helvetica,sans-Serif" font-size="10.00">event.h</text>
</a>
</g>
</g>
<!-- Node48&#45;&gt;Node49 -->
<g id="edge68" class="edge">
<title>Node48&#45;&gt;Node49</title>
<path fill="none" stroke="midnightblue" d="M835.3,-662.1C836.63,-653.14 838.15,-642.86 839.2,-635.75"/>
<polygon fill="midnightblue" stroke="midnightblue" points="831.82,-661.68 833.82,-672.08 838.75,-662.7 831.82,-661.68"/>
</g>
<!-- Node49&#45;&gt;Node13 -->
<g id="edge69" class="edge">
<title>Node49&#45;&gt;Node13</title>
<path fill="none" stroke="midnightblue" d="M841.65,-606.1C844.28,-561.19 850.5,-444.53 850.5,-347 850.5,-347 850.5,-347 850.5,-121 850.5,-42.07 732.32,-19.64 673.7,-13.38"/>
<polygon fill="midnightblue" stroke="midnightblue" points="838.14,-606.17 841.04,-616.36 845.13,-606.58 838.14,-606.17"/>
</g>
<!-- Node53 -->
<g id="node48" class="node">
<title>Node53</title>
<g id="a_node48"><a xlink:href="api_2queue_8h.html" target="_top" xlink:title=" ">
<polygon fill="white" stroke="black" points="916.5,-112.5 916.5,-131.5 972.5,-131.5 972.5,-112.5 916.5,-112.5"/>
<text text-anchor="middle" x="944.5" y="-119.5" font-family="Helvetica,sans-Serif" font-size="10.00">queue.h</text>
</a>
</g>
</g>
<!-- Node52&#45;&gt;Node53 -->
<g id="edge76" class="edge">
<title>Node52&#45;&gt;Node53</title>
<path fill="none" stroke="midnightblue" d="M761.56,-783.57C828.08,-765.96 958.5,-725.95 958.5,-683 958.5,-683 958.5,-683 958.5,-233 958.5,-194.88 950.13,-149.93 946.33,-131.51"/>
<polygon fill="midnightblue" stroke="midnightblue" points="760.64,-780.19 751.85,-786.1 762.41,-786.96 760.64,-780.19"/>
</g>
<!-- Node53&#45;&gt;Node13 -->
<g id="edge77" class="edge">
<title>Node53&#45;&gt;Node13</title>
<path fill="none" stroke="midnightblue" d="M937.66,-102.85C931.02,-87.82 919.44,-67.19 902.5,-56 865.38,-31.47 735.26,-18.31 673.94,-13.35"/>
<polygon fill="midnightblue" stroke="midnightblue" points="934.45,-104.24 941.47,-112.17 940.92,-101.59 934.45,-104.24"/>
</g>
<!-- Node55 -->
<g id="node50" class="node">
<title>Node55</title>
<g id="a_node50"><a xlink:href="api_2schedule_8h.html" target="_top" xlink:title=" ">
<polygon fill="white" stroke="black" points="963,-56.5 963,-75.5 1032,-75.5 1032,-56.5 963,-56.5"/>
<text text-anchor="middle" x="997.5" y="-63.5" font-family="Helvetica,sans-Serif" font-size="10.00">schedule.h</text>
</a>
</g>
</g>
<!-- Node54&#45;&gt;Node55 -->
<g id="edge79" class="edge">
<title>Node54&#45;&gt;Node55</title>
<path fill="none" stroke="midnightblue" d="M849.09,-787.75C906.93,-778.18 1000.5,-752.02 1000.5,-683 1000.5,-683 1000.5,-683 1000.5,-177 1000.5,-139.17 998.71,-94.06 997.89,-75.56"/>
<polygon fill="midnightblue" stroke="midnightblue" points="848.44,-784.31 839.09,-789.3 849.51,-791.23 848.44,-784.31"/>
</g>
<!-- Node55&#45;&gt;Node13 -->
<g id="edge80" class="edge">
<title>Node55&#45;&gt;Node13</title>
<path fill="none" stroke="midnightblue" d="M952.74,-57.18C950.29,-56.78 947.87,-56.38 945.5,-56 846.73,-40.14 729.56,-23.37 673.93,-15.54"/>
<polygon fill="midnightblue" stroke="midnightblue" points="952.39,-60.67 962.84,-58.88 953.55,-53.77 952.39,-60.67"/>
</g>
</g>
</svg>
