<?xml version="1.0" encoding="UTF-8" standalone="no"?>
<!DOCTYPE svg PUBLIC "-//W3C//DTD SVG 1.1//EN"
 "http://www.w3.org/Graphics/SVG/1.1/DTD/svg11.dtd">
<!-- Generated by graphviz version 2.43.0 (0)
 -->
<!-- Title: packet_types.h Pages: 1 -->
<svg width="979pt" height="812pt"
 viewBox="0.00 0.00 978.50 812.00" xmlns="http://www.w3.org/2000/svg" xmlns:xlink="http://www.w3.org/1999/xlink">
<g id="graph0" class="graph" transform="scale(1 1) rotate(0) translate(4 808)">
<title>packet_types.h</title>
<polygon fill="white" stroke="transparent" points="-4,4 -4,-808 974.5,-808 974.5,4 -4,4"/>
<!-- Node1 -->
<g id="node1" class="node">
<title>Node1</title>
<g id="a_node1"><a xlink:title=" ">
<polygon fill="#bfbfbf" stroke="black" points="542.5,-784.5 542.5,-803.5 632.5,-803.5 632.5,-784.5 542.5,-784.5"/>
<text text-anchor="middle" x="587.5" y="-791.5" font-family="Helvetica,sans-Serif" font-size="10.00">packet_types.h</text>
</a>
</g>
</g>
<!-- Node2 -->
<g id="node2" class="node">
<title>Node2</title>
<g id="a_node2"><a xlink:href="api_2packet__types_8h.html" target="_top" xlink:title=" ">
<polygon fill="white" stroke="black" points="542.5,-728.5 542.5,-747.5 632.5,-747.5 632.5,-728.5 542.5,-728.5"/>
<text text-anchor="middle" x="587.5" y="-735.5" font-family="Helvetica,sans-Serif" font-size="10.00">packet_types.h</text>
</a>
</g>
</g>
<!-- Node1&#45;&gt;Node2 -->
<g id="edge1" class="edge">
<title>Node1&#45;&gt;Node2</title>
<path fill="none" stroke="midnightblue" d="M587.5,-773.8C587.5,-764.91 587.5,-754.78 587.5,-747.75"/>
<polygon fill="midnightblue" stroke="midnightblue" points="584,-774.08 587.5,-784.08 591,-774.08 584,-774.08"/>
</g>
<!-- Node3 -->
<g id="node3" class="node">
<title>Node3</title>
<g id="a_node3"><a xlink:href="api_2spec_2comp_8h.html" target="_top" xlink:title=" ">
<polygon fill="white" stroke="black" points="7,-672.5 7,-691.5 60,-691.5 60,-672.5 7,-672.5"/>
<text text-anchor="middle" x="33.5" y="-679.5" font-family="Helvetica,sans-Serif" font-size="10.00">comp.h</text>
</a>
</g>
</g>
<!-- Node2&#45;&gt;Node3 -->
<g id="edge2" class="edge">
<title>Node2&#45;&gt;Node3</title>
<path fill="none" stroke="midnightblue" d="M532.03,-734.27C437.95,-729.17 241.23,-716.41 76.5,-692 71.22,-691.22 65.61,-690.19 60.25,-689.11"/>
<polygon fill="midnightblue" stroke="midnightblue" points="532,-737.78 542.17,-734.82 532.38,-730.79 532,-737.78"/>
</g>
<!-- Node6 -->
<g id="node6" class="node">
<title>Node6</title>
<g id="a_node6"><a xlink:href="api_2spec_2crypto_8h.html" target="_top" xlink:title=" ">
<polygon fill="white" stroke="black" points="45.5,-224.5 45.5,-243.5 101.5,-243.5 101.5,-224.5 45.5,-224.5"/>
<text text-anchor="middle" x="73.5" y="-231.5" font-family="Helvetica,sans-Serif" font-size="10.00">crypto.h</text>
</a>
</g>
</g>
<!-- Node2&#45;&gt;Node6 -->
<g id="edge5" class="edge">
<title>Node2&#45;&gt;Node6</title>
<path fill="none" stroke="midnightblue" d="M532.13,-734.97C414.57,-730.19 148.08,-716.73 115.5,-692 90.85,-673.28 90.5,-657.95 90.5,-627 90.5,-627 90.5,-627 90.5,-345 90.5,-306.93 80.43,-262.31 75.79,-243.77"/>
<polygon fill="midnightblue" stroke="midnightblue" points="532.23,-738.47 542.36,-735.37 532.51,-731.48 532.23,-738.47"/>
</g>
<!-- Node8 -->
<g id="node8" class="node">
<title>Node8</title>
<g id="a_node8"><a xlink:href="api_2spec_2crypto__types_8h.html" target="_top" xlink:title=" ">
<polygon fill="white" stroke="black" points="158,-448.5 158,-467.5 247,-467.5 247,-448.5 158,-448.5"/>
<text text-anchor="middle" x="202.5" y="-455.5" font-family="Helvetica,sans-Serif" font-size="10.00">crypto_types.h</text>
</a>
</g>
</g>
<!-- Node2&#45;&gt;Node8 -->
<g id="edge8" class="edge">
<title>Node2&#45;&gt;Node8</title>
<path fill="none" stroke="midnightblue" d="M532.38,-730.88C435.41,-718.56 244.5,-686.72 244.5,-627 244.5,-627 244.5,-627 244.5,-569 244.5,-528.93 219.88,-485.74 208.34,-467.69"/>
<polygon fill="midnightblue" stroke="midnightblue" points="531.95,-734.35 542.31,-732.11 532.81,-727.4 531.95,-734.35"/>
</g>
<!-- Node10 -->
<g id="node10" class="node">
<title>Node10</title>
<g id="a_node10"><a xlink:href="api_2spec_2ipsec_8h.html" target="_top" xlink:title=" ">
<polygon fill="white" stroke="black" points="126,-112.5 126,-131.5 177,-131.5 177,-112.5 126,-112.5"/>
<text text-anchor="middle" x="151.5" y="-119.5" font-family="Helvetica,sans-Serif" font-size="10.00">ipsec.h</text>
</a>
</g>
</g>
<!-- Node2&#45;&gt;Node10 -->
<g id="edge58" class="edge">
<title>Node2&#45;&gt;Node10</title>
<path fill="none" stroke="midnightblue" d="M532.09,-735.28C410.19,-730 129.5,-708.94 129.5,-627 129.5,-627 129.5,-627 129.5,-233 129.5,-194.63 142.53,-150.18 148.53,-131.72"/>
<polygon fill="midnightblue" stroke="midnightblue" points="532.2,-738.79 542.33,-735.71 532.48,-731.8 532.2,-738.79"/>
</g>
<!-- Node14 -->
<g id="node14" class="node">
<title>Node14</title>
<g id="a_node14"><a xlink:href="api_2spec_2dma__types_8h.html" target="_top" xlink:title=" ">
<polygon fill="white" stroke="black" points="447.5,-672.5 447.5,-691.5 527.5,-691.5 527.5,-672.5 447.5,-672.5"/>
<text text-anchor="middle" x="487.5" y="-679.5" font-family="Helvetica,sans-Serif" font-size="10.00">dma_types.h</text>
</a>
</g>
</g>
<!-- Node2&#45;&gt;Node14 -->
<g id="edge17" class="edge">
<title>Node2&#45;&gt;Node14</title>
<path fill="none" stroke="midnightblue" d="M562.41,-723.45C543.95,-713.48 519.4,-700.23 503.53,-691.65"/>
<polygon fill="midnightblue" stroke="midnightblue" points="560.97,-726.65 571.43,-728.32 564.3,-720.49 560.97,-726.65"/>
</g>
<!-- Node24 -->
<g id="node24" class="node">
<title>Node24</title>
<g id="a_node24"><a xlink:href="api_2spec_2packet__io_8h.html" target="_top" xlink:title=" ">
<polygon fill="white" stroke="black" points="631.5,-224.5 631.5,-243.5 703.5,-243.5 703.5,-224.5 631.5,-224.5"/>
<text text-anchor="middle" x="667.5" y="-231.5" font-family="Helvetica,sans-Serif" font-size="10.00">packet_io.h</text>
</a>
</g>
</g>
<!-- Node2&#45;&gt;Node24 -->
<g id="edge63" class="edge">
<title>Node2&#45;&gt;Node24</title>
<path fill="none" stroke="midnightblue" d="M633.58,-725.43C679.27,-710.86 742.5,-680.95 742.5,-627 742.5,-627 742.5,-627 742.5,-569 742.5,-487.86 818.5,-484.14 818.5,-403 818.5,-403 818.5,-403 818.5,-345 818.5,-287.59 746.32,-256.98 701.76,-243.56"/>
<polygon fill="midnightblue" stroke="midnightblue" points="632.39,-722.13 623.84,-728.39 634.43,-728.83 632.39,-722.13"/>
</g>
<!-- Node26 -->
<g id="node26" class="node">
<title>Node26</title>
<g id="a_node26"><a xlink:href="api_2spec_2packet_8h.html" target="_top" xlink:title=" ">
<polygon fill="white" stroke="black" points="732.5,-336.5 732.5,-355.5 790.5,-355.5 790.5,-336.5 732.5,-336.5"/>
<text text-anchor="middle" x="761.5" y="-343.5" font-family="Helvetica,sans-Serif" font-size="10.00">packet.h</text>
</a>
</g>
</g>
<!-- Node2&#45;&gt;Node26 -->
<g id="edge59" class="edge">
<title>Node2&#45;&gt;Node26</title>
<path fill="none" stroke="midnightblue" d="M642.72,-735.07C679.12,-731.02 725.62,-720.12 756.5,-692 779.27,-671.27 780.5,-657.8 780.5,-627 780.5,-627 780.5,-627 780.5,-457 780.5,-418.82 769.25,-374.26 764.06,-355.75"/>
<polygon fill="midnightblue" stroke="midnightblue" points="642.35,-731.59 632.74,-736.05 643.03,-738.56 642.35,-731.59"/>
</g>
<!-- Node28 -->
<g id="node28" class="node">
<title>Node28</title>
<g id="a_node28"><a xlink:href="api_2spec_2packet__io__types_8h.html" target="_top" xlink:title=" ">
<polygon fill="white" stroke="black" points="573.5,-448.5 573.5,-467.5 677.5,-467.5 677.5,-448.5 573.5,-448.5"/>
<text text-anchor="middle" x="625.5" y="-455.5" font-family="Helvetica,sans-Serif" font-size="10.00">packet_io_types.h</text>
</a>
</g>
</g>
<!-- Node2&#45;&gt;Node28 -->
<g id="edge64" class="edge">
<title>Node2&#45;&gt;Node28</title>
<path fill="none" stroke="midnightblue" d="M591.01,-718.63C594.86,-696.85 600.5,-659.42 600.5,-627 600.5,-627 600.5,-627 600.5,-569 600.5,-530.42 615.3,-486.08 622.13,-467.69"/>
<polygon fill="midnightblue" stroke="midnightblue" points="587.57,-718.01 589.2,-728.48 594.45,-719.28 587.57,-718.01"/>
</g>
<!-- Node36 -->
<g id="node36" class="node">
<title>Node36</title>
<g id="a_node36"><a xlink:href="api_2spec_2event_8h.html" target="_top" xlink:title=" ">
<polygon fill="white" stroke="black" points="810,-672.5 810,-691.5 863,-691.5 863,-672.5 810,-672.5"/>
<text text-anchor="middle" x="836.5" y="-679.5" font-family="Helvetica,sans-Serif" font-size="10.00">event.h</text>
</a>
</g>
</g>
<!-- Node2&#45;&gt;Node36 -->
<g id="edge55" class="edge">
<title>Node2&#45;&gt;Node36</title>
<path fill="none" stroke="midnightblue" d="M636.96,-726.27C688.91,-715.01 768.69,-697.71 809.86,-688.78"/>
<polygon fill="midnightblue" stroke="midnightblue" points="635.99,-722.9 626.95,-728.44 637.47,-729.74 635.99,-722.9"/>
</g>
<!-- Node38 -->
<g id="node38" class="node">
<title>Node38</title>
<g id="a_node38"><a xlink:href="api_2spec_2packet__flags_8h.html" target="_top" xlink:title=" ">
<polygon fill="white" stroke="black" points="883.5,-672.5 883.5,-691.5 969.5,-691.5 969.5,-672.5 883.5,-672.5"/>
<text text-anchor="middle" x="926.5" y="-679.5" font-family="Helvetica,sans-Serif" font-size="10.00">packet_flags.h</text>
</a>
</g>
</g>
<!-- Node2&#45;&gt;Node38 -->
<g id="edge60" class="edge">
<title>Node2&#45;&gt;Node38</title>
<path fill="none" stroke="midnightblue" d="M642.69,-728.34C699.92,-719.34 792,-704.8 871.5,-692 875.32,-691.38 879.29,-690.74 883.27,-690.1"/>
<polygon fill="midnightblue" stroke="midnightblue" points="642.1,-724.89 632.76,-729.9 643.19,-731.8 642.1,-724.89"/>
</g>
<!-- Node4 -->
<g id="node4" class="node">
<title>Node4</title>
<g id="a_node4"><a xlink:href="api_2comp_8h.html" target="_top" xlink:title=" ">
<polygon fill="white" stroke="black" points="0,-560.5 0,-579.5 53,-579.5 53,-560.5 0,-560.5"/>
<text text-anchor="middle" x="26.5" y="-567.5" font-family="Helvetica,sans-Serif" font-size="10.00">comp.h</text>
</a>
</g>
</g>
<!-- Node3&#45;&gt;Node4 -->
<g id="edge3" class="edge">
<title>Node3&#45;&gt;Node4</title>
<path fill="none" stroke="midnightblue" d="M32.31,-662.35C30.78,-638.25 28.17,-597.31 27.05,-579.59"/>
<polygon fill="midnightblue" stroke="midnightblue" points="28.82,-662.61 32.95,-672.37 35.81,-662.17 28.82,-662.61"/>
</g>
<!-- Node5 -->
<g id="node5" class="node">
<title>Node5</title>
<g id="a_node5"><a xlink:href="odp__api_8h.html" target="_top" xlink:title=" ">
<polygon fill="white" stroke="black" points="396.5,-0.5 396.5,-19.5 460.5,-19.5 460.5,-0.5 396.5,-0.5"/>
<text text-anchor="middle" x="428.5" y="-7.5" font-family="Helvetica,sans-Serif" font-size="10.00">odp_api.h</text>
</a>
</g>
</g>
<!-- Node4&#45;&gt;Node5 -->
<g id="edge4" class="edge">
<title>Node4&#45;&gt;Node5</title>
<path fill="none" stroke="midnightblue" d="M24.03,-550.29C21.37,-528.43 17.5,-491.16 17.5,-459 17.5,-459 17.5,-459 17.5,-121 17.5,-42.7 299.36,-18.65 396.25,-12.69"/>
<polygon fill="midnightblue" stroke="midnightblue" points="20.59,-550.98 25.32,-560.46 27.54,-550.1 20.59,-550.98"/>
</g>
<!-- Node7 -->
<g id="node7" class="node">
<title>Node7</title>
<g id="a_node7"><a xlink:href="api_2crypto_8h.html" target="_top" xlink:title=" ">
<polygon fill="white" stroke="black" points="45.5,-168.5 45.5,-187.5 101.5,-187.5 101.5,-168.5 45.5,-168.5"/>
<text text-anchor="middle" x="73.5" y="-175.5" font-family="Helvetica,sans-Serif" font-size="10.00">crypto.h</text>
</a>
</g>
</g>
<!-- Node6&#45;&gt;Node7 -->
<g id="edge6" class="edge">
<title>Node6&#45;&gt;Node7</title>
<path fill="none" stroke="midnightblue" d="M73.5,-213.8C73.5,-204.91 73.5,-194.78 73.5,-187.75"/>
<polygon fill="midnightblue" stroke="midnightblue" points="70,-214.08 73.5,-224.08 77,-214.08 70,-214.08"/>
</g>
<!-- Node7&#45;&gt;Node5 -->
<g id="edge7" class="edge">
<title>Node7&#45;&gt;Node5</title>
<path fill="none" stroke="midnightblue" d="M76.86,-158.05C82.77,-130.77 97.75,-80.98 131.5,-56 173.05,-25.25 328.36,-15.14 396.32,-12.14"/>
<polygon fill="midnightblue" stroke="midnightblue" points="73.36,-157.73 74.86,-168.22 80.23,-159.09 73.36,-157.73"/>
</g>
<!-- Node9 -->
<g id="node9" class="node">
<title>Node9</title>
<g id="a_node9"><a xlink:href="api_2crypto__types_8h.html" target="_top" xlink:title=" ">
<polygon fill="white" stroke="black" points="158,-280.5 158,-299.5 247,-299.5 247,-280.5 158,-280.5"/>
<text text-anchor="middle" x="202.5" y="-287.5" font-family="Helvetica,sans-Serif" font-size="10.00">crypto_types.h</text>
</a>
</g>
</g>
<!-- Node8&#45;&gt;Node9 -->
<g id="edge9" class="edge">
<title>Node8&#45;&gt;Node9</title>
<path fill="none" stroke="midnightblue" d="M202.5,-437.93C202.5,-401.92 202.5,-325.23 202.5,-299.57"/>
<polygon fill="midnightblue" stroke="midnightblue" points="199,-438.08 202.5,-448.08 206,-438.08 199,-438.08"/>
</g>
<!-- Node9&#45;&gt;Node6 -->
<g id="edge10" class="edge">
<title>Node9&#45;&gt;Node6</title>
<path fill="none" stroke="midnightblue" d="M172.65,-276.5C148.46,-266.38 115.04,-252.39 93.84,-243.52"/>
<polygon fill="midnightblue" stroke="midnightblue" points="171.48,-279.81 182.06,-280.44 174.19,-273.35 171.48,-279.81"/>
</g>
<!-- Node9&#45;&gt;Node10 -->
<g id="edge11" class="edge">
<title>Node9&#45;&gt;Node10</title>
<path fill="none" stroke="midnightblue" d="M196.78,-270.39C185.78,-234.59 162.05,-157.34 154.13,-131.57"/>
<polygon fill="midnightblue" stroke="midnightblue" points="193.48,-271.54 199.76,-280.08 200.17,-269.49 193.48,-271.54"/>
</g>
<!-- Node12 -->
<g id="node12" class="node">
<title>Node12</title>
<g id="a_node12"><a xlink:href="api_2spec_2ipsec__types_8h.html" target="_top" xlink:title=" ">
<polygon fill="white" stroke="black" points="448,-224.5 448,-243.5 531,-243.5 531,-224.5 448,-224.5"/>
<text text-anchor="middle" x="489.5" y="-231.5" font-family="Helvetica,sans-Serif" font-size="10.00">ipsec_types.h</text>
</a>
</g>
</g>
<!-- Node9&#45;&gt;Node12 -->
<g id="edge14" class="edge">
<title>Node9&#45;&gt;Node12</title>
<path fill="none" stroke="midnightblue" d="M257.03,-278.74C312.51,-268.3 397.28,-252.35 447.67,-242.87"/>
<polygon fill="midnightblue" stroke="midnightblue" points="256.21,-275.33 247.03,-280.62 257.5,-282.21 256.21,-275.33"/>
</g>
<!-- Node11 -->
<g id="node11" class="node">
<title>Node11</title>
<g id="a_node11"><a xlink:href="api_2ipsec_8h.html" target="_top" xlink:title=" ">
<polygon fill="white" stroke="black" points="141,-56.5 141,-75.5 192,-75.5 192,-56.5 141,-56.5"/>
<text text-anchor="middle" x="166.5" y="-63.5" font-family="Helvetica,sans-Serif" font-size="10.00">ipsec.h</text>
</a>
</g>
</g>
<!-- Node10&#45;&gt;Node11 -->
<g id="edge12" class="edge">
<title>Node10&#45;&gt;Node11</title>
<path fill="none" stroke="midnightblue" d="M156.67,-102.4C159.18,-93.36 162.07,-82.94 164.07,-75.75"/>
<polygon fill="midnightblue" stroke="midnightblue" points="153.28,-101.51 153.98,-112.08 160.03,-103.38 153.28,-101.51"/>
</g>
<!-- Node11&#45;&gt;Node5 -->
<g id="edge13" class="edge">
<title>Node11&#45;&gt;Node5</title>
<path fill="none" stroke="midnightblue" d="M202.05,-57.67C253.26,-47.12 347.04,-27.79 396.31,-17.63"/>
<polygon fill="midnightblue" stroke="midnightblue" points="201.19,-54.28 192.1,-59.72 202.6,-61.13 201.19,-54.28"/>
</g>
<!-- Node13 -->
<g id="node13" class="node">
<title>Node13</title>
<g id="a_node13"><a xlink:href="api_2ipsec__types_8h.html" target="_top" xlink:title=" ">
<polygon fill="white" stroke="black" points="234,-168.5 234,-187.5 317,-187.5 317,-168.5 234,-168.5"/>
<text text-anchor="middle" x="275.5" y="-175.5" font-family="Helvetica,sans-Serif" font-size="10.00">ipsec_types.h</text>
</a>
</g>
</g>
<!-- Node12&#45;&gt;Node13 -->
<g id="edge15" class="edge">
<title>Node12&#45;&gt;Node13</title>
<path fill="none" stroke="midnightblue" d="M445.74,-221.96C405.33,-211.76 346.13,-196.82 309.25,-187.52"/>
<polygon fill="midnightblue" stroke="midnightblue" points="445.04,-225.39 455.59,-224.44 446.75,-218.6 445.04,-225.39"/>
</g>
<!-- Node13&#45;&gt;Node10 -->
<g id="edge16" class="edge">
<title>Node13&#45;&gt;Node10</title>
<path fill="none" stroke="midnightblue" d="M246.49,-164.37C223.27,-154.26 191.34,-140.35 171.06,-131.52"/>
<polygon fill="midnightblue" stroke="midnightblue" points="245.29,-167.66 255.85,-168.44 248.08,-161.24 245.29,-167.66"/>
</g>
<!-- Node15 -->
<g id="node15" class="node">
<title>Node15</title>
<g id="a_node15"><a xlink:href="api_2dma__types_8h.html" target="_top" xlink:title=" ">
<polygon fill="white" stroke="black" points="397.5,-616.5 397.5,-635.5 477.5,-635.5 477.5,-616.5 397.5,-616.5"/>
<text text-anchor="middle" x="437.5" y="-623.5" font-family="Helvetica,sans-Serif" font-size="10.00">dma_types.h</text>
</a>
</g>
</g>
<!-- Node14&#45;&gt;Node15 -->
<g id="edge18" class="edge">
<title>Node14&#45;&gt;Node15</title>
<path fill="none" stroke="midnightblue" d="M472.42,-664.72C463.61,-655.2 452.83,-643.56 445.6,-635.75"/>
<polygon fill="midnightblue" stroke="midnightblue" points="469.88,-667.12 479.24,-672.08 475.02,-662.37 469.88,-667.12"/>
</g>
<!-- Node16 -->
<g id="node16" class="node">
<title>Node16</title>
<g id="a_node16"><a xlink:href="api_2spec_2dma_8h.html" target="_top" xlink:title=" ">
<polygon fill="white" stroke="black" points="265,-448.5 265,-467.5 312,-467.5 312,-448.5 265,-448.5"/>
<text text-anchor="middle" x="288.5" y="-455.5" font-family="Helvetica,sans-Serif" font-size="10.00">dma.h</text>
</a>
</g>
</g>
<!-- Node15&#45;&gt;Node16 -->
<g id="edge19" class="edge">
<title>Node15&#45;&gt;Node16</title>
<path fill="none" stroke="midnightblue" d="M419.66,-609.68C410.12,-601.23 398.34,-590.37 388.5,-580 350.6,-540.07 310.25,-487.82 294.91,-467.55"/>
<polygon fill="midnightblue" stroke="midnightblue" points="417.53,-612.47 427.36,-616.42 422.14,-607.2 417.53,-612.47"/>
</g>
<!-- Node18 -->
<g id="node18" class="node">
<title>Node18</title>
<g id="a_node18"><a xlink:href="api_2spec_2pool__types_8h.html" target="_top" xlink:title=" ">
<polygon fill="white" stroke="black" points="398,-560.5 398,-579.5 477,-579.5 477,-560.5 398,-560.5"/>
<text text-anchor="middle" x="437.5" y="-567.5" font-family="Helvetica,sans-Serif" font-size="10.00">pool_types.h</text>
</a>
</g>
</g>
<!-- Node15&#45;&gt;Node18 -->
<g id="edge22" class="edge">
<title>Node15&#45;&gt;Node18</title>
<path fill="none" stroke="midnightblue" d="M437.5,-605.8C437.5,-596.91 437.5,-586.78 437.5,-579.75"/>
<polygon fill="midnightblue" stroke="midnightblue" points="434,-606.08 437.5,-616.08 441,-606.08 434,-606.08"/>
</g>
<!-- Node17 -->
<g id="node17" class="node">
<title>Node17</title>
<g id="a_node17"><a xlink:href="api_2dma_8h.html" target="_top" xlink:title=" ">
<polygon fill="white" stroke="black" points="223,-56.5 223,-75.5 270,-75.5 270,-56.5 223,-56.5"/>
<text text-anchor="middle" x="246.5" y="-63.5" font-family="Helvetica,sans-Serif" font-size="10.00">dma.h</text>
</a>
</g>
</g>
<!-- Node16&#45;&gt;Node17 -->
<g id="edge20" class="edge">
<title>Node16&#45;&gt;Node17</title>
<path fill="none" stroke="midnightblue" d="M285.88,-438.17C281.15,-405.61 270.3,-336.85 255.5,-280 242.49,-230.02 218.97,-219.35 224.5,-168 228.25,-133.21 239.05,-92.82 243.99,-75.54"/>
<polygon fill="midnightblue" stroke="midnightblue" points="282.47,-439.02 287.34,-448.43 289.4,-438.04 282.47,-439.02"/>
</g>
<!-- Node17&#45;&gt;Node5 -->
<g id="edge21" class="edge">
<title>Node17&#45;&gt;Node5</title>
<path fill="none" stroke="midnightblue" d="M280.31,-54.97C314.62,-44.79 367.17,-29.2 399.6,-19.58"/>
<polygon fill="midnightblue" stroke="midnightblue" points="278.88,-51.74 270.29,-57.94 280.88,-58.45 278.88,-51.74"/>
</g>
<!-- Node19 -->
<g id="node19" class="node">
<title>Node19</title>
<g id="a_node19"><a xlink:href="api_2pool__types_8h.html" target="_top" xlink:title=" ">
<polygon fill="white" stroke="black" points="398,-504.5 398,-523.5 477,-523.5 477,-504.5 398,-504.5"/>
<text text-anchor="middle" x="437.5" y="-511.5" font-family="Helvetica,sans-Serif" font-size="10.00">pool_types.h</text>
</a>
</g>
</g>
<!-- Node18&#45;&gt;Node19 -->
<g id="edge23" class="edge">
<title>Node18&#45;&gt;Node19</title>
<path fill="none" stroke="midnightblue" d="M437.5,-549.8C437.5,-540.91 437.5,-530.78 437.5,-523.75"/>
<polygon fill="midnightblue" stroke="midnightblue" points="434,-550.08 437.5,-560.08 441,-550.08 434,-550.08"/>
</g>
<!-- Node19&#45;&gt;Node8 -->
<g id="edge34" class="edge">
<title>Node19&#45;&gt;Node8</title>
<path fill="none" stroke="midnightblue" d="M390.29,-502.15C345.89,-491.95 280.31,-476.88 239.56,-467.52"/>
<polygon fill="midnightblue" stroke="midnightblue" points="389.73,-505.62 400.26,-504.44 391.3,-498.79 389.73,-505.62"/>
</g>
<!-- Node19&#45;&gt;Node16 -->
<g id="edge35" class="edge">
<title>Node19&#45;&gt;Node16</title>
<path fill="none" stroke="midnightblue" d="M404.13,-500.91C376.12,-490.75 336.8,-476.51 312,-467.52"/>
<polygon fill="midnightblue" stroke="midnightblue" points="403.3,-504.33 413.89,-504.44 405.68,-497.75 403.3,-504.33"/>
</g>
<!-- Node20 -->
<g id="node20" class="node">
<title>Node20</title>
<g id="a_node20"><a xlink:href="api_2spec_2buffer_8h.html" target="_top" xlink:title=" ">
<polygon fill="white" stroke="black" points="330,-448.5 330,-467.5 383,-467.5 383,-448.5 330,-448.5"/>
<text text-anchor="middle" x="356.5" y="-455.5" font-family="Helvetica,sans-Serif" font-size="10.00">buffer.h</text>
</a>
</g>
</g>
<!-- Node19&#45;&gt;Node20 -->
<g id="edge24" class="edge">
<title>Node19&#45;&gt;Node20</title>
<path fill="none" stroke="midnightblue" d="M415.93,-498.62C401.14,-488.76 381.99,-475.99 369.48,-467.65"/>
<polygon fill="midnightblue" stroke="midnightblue" points="414.22,-501.69 424.49,-504.32 418.11,-495.86 414.22,-501.69"/>
</g>
<!-- Node22 -->
<g id="node22" class="node">
<title>Node22</title>
<g id="a_node22"><a xlink:href="api_2spec_2classification_8h.html" target="_top" xlink:title=" ">
<polygon fill="white" stroke="black" points="587,-336.5 587,-355.5 676,-355.5 676,-336.5 587,-336.5"/>
<text text-anchor="middle" x="631.5" y="-343.5" font-family="Helvetica,sans-Serif" font-size="10.00">classification.h</text>
</a>
</g>
</g>
<!-- Node19&#45;&gt;Node22 -->
<g id="edge27" class="edge">
<title>Node19&#45;&gt;Node22</title>
<path fill="none" stroke="midnightblue" d="M472.87,-500.71C490.3,-493.3 510.7,-482.48 525.5,-468 552.94,-441.16 540.91,-420.6 566.5,-392 580.41,-376.45 600.72,-363.5 614.92,-355.55"/>
<polygon fill="midnightblue" stroke="midnightblue" points="471.51,-497.48 463.55,-504.47 474.13,-503.97 471.51,-497.48"/>
</g>
<!-- Node19&#45;&gt;Node26 -->
<g id="edge36" class="edge">
<title>Node19&#45;&gt;Node26</title>
<path fill="none" stroke="midnightblue" d="M487.21,-508.8C550.3,-502.68 654.76,-489.59 686.5,-468 728.6,-439.36 751.51,-378.46 758.85,-355.77"/>
<polygon fill="midnightblue" stroke="midnightblue" points="486.71,-505.34 477.08,-509.76 487.37,-512.31 486.71,-505.34"/>
</g>
<!-- Node19&#45;&gt;Node28 -->
<g id="edge39" class="edge">
<title>Node19&#45;&gt;Node28</title>
<path fill="none" stroke="midnightblue" d="M477.3,-501.57C512.77,-491.38 563.87,-476.7 595.85,-467.52"/>
<polygon fill="midnightblue" stroke="midnightblue" points="475.93,-498.32 467.29,-504.44 477.87,-505.05 475.93,-498.32"/>
</g>
<!-- Node32 -->
<g id="node32" class="node">
<title>Node32</title>
<g id="a_node32"><a xlink:href="api_2spec_2pool_8h.html" target="_top" xlink:title=" ">
<polygon fill="white" stroke="black" points="401,-448.5 401,-467.5 448,-467.5 448,-448.5 401,-448.5"/>
<text text-anchor="middle" x="424.5" y="-455.5" font-family="Helvetica,sans-Serif" font-size="10.00">pool.h</text>
</a>
</g>
</g>
<!-- Node19&#45;&gt;Node32 -->
<g id="edge49" class="edge">
<title>Node19&#45;&gt;Node32</title>
<path fill="none" stroke="midnightblue" d="M432.95,-494.1C430.79,-485.14 428.32,-474.86 426.61,-467.75"/>
<polygon fill="midnightblue" stroke="midnightblue" points="429.61,-495.18 435.35,-504.08 436.42,-493.54 429.61,-495.18"/>
</g>
<!-- Node34 -->
<g id="node34" class="node">
<title>Node34</title>
<g id="a_node34"><a xlink:href="api_2spec_2timer_8h.html" target="_top" xlink:title=" ">
<polygon fill="white" stroke="black" points="466,-448.5 466,-467.5 517,-467.5 517,-448.5 466,-448.5"/>
<text text-anchor="middle" x="491.5" y="-455.5" font-family="Helvetica,sans-Serif" font-size="10.00">timer.h</text>
</a>
</g>
</g>
<!-- Node19&#45;&gt;Node34 -->
<g id="edge52" class="edge">
<title>Node19&#45;&gt;Node34</title>
<path fill="none" stroke="midnightblue" d="M453.5,-497C463.07,-487.43 474.86,-475.64 482.75,-467.75"/>
<polygon fill="midnightblue" stroke="midnightblue" points="451.01,-494.54 446.42,-504.08 455.96,-499.49 451.01,-494.54"/>
</g>
<!-- Node21 -->
<g id="node21" class="node">
<title>Node21</title>
<g id="a_node21"><a xlink:href="api_2buffer_8h.html" target="_top" xlink:title=" ">
<polygon fill="white" stroke="black" points="299,-112.5 299,-131.5 352,-131.5 352,-112.5 299,-112.5"/>
<text text-anchor="middle" x="325.5" y="-119.5" font-family="Helvetica,sans-Serif" font-size="10.00">buffer.h</text>
</a>
</g>
</g>
<!-- Node20&#45;&gt;Node21 -->
<g id="edge25" class="edge">
<title>Node20&#45;&gt;Node21</title>
<path fill="none" stroke="midnightblue" d="M352.99,-438.63C349.14,-416.85 343.5,-379.42 343.5,-347 343.5,-347 343.5,-347 343.5,-289 343.5,-228.41 331.5,-156.11 327.1,-131.6"/>
<polygon fill="midnightblue" stroke="midnightblue" points="349.55,-439.28 354.8,-448.48 356.43,-438.01 349.55,-439.28"/>
</g>
<!-- Node21&#45;&gt;Node5 -->
<g id="edge26" class="edge">
<title>Node21&#45;&gt;Node5</title>
<path fill="none" stroke="midnightblue" d="M326.71,-102.46C328.49,-88.38 332.85,-69.25 343.5,-56 357.83,-38.17 381.17,-26.54 399.76,-19.57"/>
<polygon fill="midnightblue" stroke="midnightblue" points="323.22,-102.17 325.77,-112.45 330.19,-102.83 323.22,-102.17"/>
</g>
<!-- Node23 -->
<g id="node23" class="node">
<title>Node23</title>
<g id="a_node23"><a xlink:href="api_2classification_8h.html" target="_top" xlink:title=" ">
<polygon fill="white" stroke="black" points="587,-280.5 587,-299.5 676,-299.5 676,-280.5 587,-280.5"/>
<text text-anchor="middle" x="631.5" y="-287.5" font-family="Helvetica,sans-Serif" font-size="10.00">classification.h</text>
</a>
</g>
</g>
<!-- Node22&#45;&gt;Node23 -->
<g id="edge28" class="edge">
<title>Node22&#45;&gt;Node23</title>
<path fill="none" stroke="midnightblue" d="M631.5,-325.8C631.5,-316.91 631.5,-306.78 631.5,-299.75"/>
<polygon fill="midnightblue" stroke="midnightblue" points="628,-326.08 631.5,-336.08 635,-326.08 628,-326.08"/>
</g>
<!-- Node23&#45;&gt;Node5 -->
<g id="edge33" class="edge">
<title>Node23&#45;&gt;Node5</title>
<path fill="none" stroke="midnightblue" d="M622.71,-271.31C612.93,-249.97 598.5,-212.75 598.5,-179 598.5,-179 598.5,-179 598.5,-121 598.5,-56.14 510.2,-27.64 460.88,-16.77"/>
<polygon fill="midnightblue" stroke="midnightblue" points="619.59,-272.9 627.05,-280.42 625.91,-269.89 619.59,-272.9"/>
</g>
<!-- Node23&#45;&gt;Node12 -->
<g id="edge29" class="edge">
<title>Node23&#45;&gt;Node12</title>
<path fill="none" stroke="midnightblue" d="M599.34,-276.77C572.67,-266.63 535.43,-252.47 511.9,-243.52"/>
<polygon fill="midnightblue" stroke="midnightblue" points="598.41,-280.16 609,-280.44 600.9,-273.62 598.41,-280.16"/>
</g>
<!-- Node23&#45;&gt;Node24 -->
<g id="edge30" class="edge">
<title>Node23&#45;&gt;Node24</title>
<path fill="none" stroke="midnightblue" d="M643.12,-271.57C649.32,-262.27 656.67,-251.25 661.67,-243.75"/>
<polygon fill="midnightblue" stroke="midnightblue" points="640.08,-269.82 637.44,-280.08 645.9,-273.7 640.08,-269.82"/>
</g>
<!-- Node25 -->
<g id="node25" class="node">
<title>Node25</title>
<g id="a_node25"><a xlink:href="api_2packet__io_8h.html" target="_top" xlink:title=" ">
<polygon fill="white" stroke="black" points="630.5,-168.5 630.5,-187.5 702.5,-187.5 702.5,-168.5 630.5,-168.5"/>
<text text-anchor="middle" x="666.5" y="-175.5" font-family="Helvetica,sans-Serif" font-size="10.00">packet_io.h</text>
</a>
</g>
</g>
<!-- Node24&#45;&gt;Node25 -->
<g id="edge31" class="edge">
<title>Node24&#45;&gt;Node25</title>
<path fill="none" stroke="midnightblue" d="M667.14,-213.8C666.98,-204.91 666.79,-194.78 666.66,-187.75"/>
<polygon fill="midnightblue" stroke="midnightblue" points="663.65,-214.15 667.33,-224.08 670.65,-214.02 663.65,-214.15"/>
</g>
<!-- Node25&#45;&gt;Node5 -->
<g id="edge32" class="edge">
<title>Node25&#45;&gt;Node5</title>
<path fill="none" stroke="midnightblue" d="M663.48,-158.47C658.11,-131.71 644.34,-82.57 612.5,-56 568.95,-19.65 500.54,-11.86 460.56,-10.64"/>
<polygon fill="midnightblue" stroke="midnightblue" points="660.06,-159.22 665.29,-168.43 666.94,-157.97 660.06,-159.22"/>
</g>
<!-- Node27 -->
<g id="node27" class="node">
<title>Node27</title>
<g id="a_node27"><a xlink:href="api_2packet_8h.html" target="_top" xlink:title=" ">
<polygon fill="white" stroke="black" points="729.5,-224.5 729.5,-243.5 787.5,-243.5 787.5,-224.5 729.5,-224.5"/>
<text text-anchor="middle" x="758.5" y="-231.5" font-family="Helvetica,sans-Serif" font-size="10.00">packet.h</text>
</a>
</g>
</g>
<!-- Node26&#45;&gt;Node27 -->
<g id="edge37" class="edge">
<title>Node26&#45;&gt;Node27</title>
<path fill="none" stroke="midnightblue" d="M760.99,-326.35C760.33,-302.25 759.22,-261.31 758.73,-243.59"/>
<polygon fill="midnightblue" stroke="midnightblue" points="757.49,-326.47 761.26,-336.37 764.49,-326.28 757.49,-326.47"/>
</g>
<!-- Node27&#45;&gt;Node5 -->
<g id="edge38" class="edge">
<title>Node27&#45;&gt;Node5</title>
<path fill="none" stroke="midnightblue" d="M751.37,-214.93C736.06,-178.58 696.4,-96.67 635.5,-56 581.67,-20.05 504.02,-12.26 460.74,-10.91"/>
<polygon fill="midnightblue" stroke="midnightblue" points="748.17,-216.34 755.19,-224.27 754.65,-213.69 748.17,-216.34"/>
</g>
<!-- Node29 -->
<g id="node29" class="node">
<title>Node29</title>
<g id="a_node29"><a xlink:href="api_2packet__io__types_8h.html" target="_top" xlink:title=" ">
<polygon fill="white" stroke="black" points="575.5,-392.5 575.5,-411.5 679.5,-411.5 679.5,-392.5 575.5,-392.5"/>
<text text-anchor="middle" x="627.5" y="-399.5" font-family="Helvetica,sans-Serif" font-size="10.00">packet_io_types.h</text>
</a>
</g>
</g>
<!-- Node28&#45;&gt;Node29 -->
<g id="edge40" class="edge">
<title>Node28&#45;&gt;Node29</title>
<path fill="none" stroke="midnightblue" d="M626.21,-437.8C626.54,-428.91 626.92,-418.78 627.18,-411.75"/>
<polygon fill="midnightblue" stroke="midnightblue" points="622.7,-437.96 625.83,-448.08 629.7,-438.22 622.7,-437.96"/>
</g>
<!-- Node29&#45;&gt;Node12 -->
<g id="edge42" class="edge">
<title>Node29&#45;&gt;Node12</title>
<path fill="none" stroke="midnightblue" d="M565.03,-399.19C533.14,-394.7 496.86,-383.31 476.5,-356 450.74,-321.44 474.29,-265.13 484.92,-243.67"/>
<polygon fill="midnightblue" stroke="midnightblue" points="564.86,-402.7 575.21,-400.42 565.7,-395.75 564.86,-402.7"/>
</g>
<!-- Node29&#45;&gt;Node22 -->
<g id="edge41" class="edge">
<title>Node29&#45;&gt;Node22</title>
<path fill="none" stroke="midnightblue" d="M628.9,-382.1C629.56,-373.14 630.33,-362.86 630.85,-355.75"/>
<polygon fill="midnightblue" stroke="midnightblue" points="625.41,-381.85 628.16,-392.08 632.39,-382.37 625.41,-381.85"/>
</g>
<!-- Node29&#45;&gt;Node24 -->
<g id="edge44" class="edge">
<title>Node29&#45;&gt;Node24</title>
<path fill="none" stroke="midnightblue" d="M654.17,-387.22C665.75,-379.7 678.1,-369.2 684.5,-356 703.19,-317.44 681.8,-264.39 671.94,-243.73"/>
<polygon fill="midnightblue" stroke="midnightblue" points="652.34,-384.23 645.58,-392.39 655.95,-390.23 652.34,-384.23"/>
</g>
<!-- Node29&#45;&gt;Node26 -->
<g id="edge43" class="edge">
<title>Node29&#45;&gt;Node26</title>
<path fill="none" stroke="midnightblue" d="M658.18,-388.64C683.32,-378.5 718.25,-364.43 740.37,-355.52"/>
<polygon fill="midnightblue" stroke="midnightblue" points="656.7,-385.46 648.73,-392.44 659.32,-391.95 656.7,-385.46"/>
</g>
<!-- Node30 -->
<g id="node30" class="node">
<title>Node30</title>
<g id="a_node30"><a xlink:href="api_2spec_2traffic__mngr_8h.html" target="_top" xlink:title=" ">
<polygon fill="white" stroke="black" points="485.5,-336.5 485.5,-355.5 569.5,-355.5 569.5,-336.5 485.5,-336.5"/>
<text text-anchor="middle" x="527.5" y="-343.5" font-family="Helvetica,sans-Serif" font-size="10.00">traffic_mngr.h</text>
</a>
</g>
</g>
<!-- Node29&#45;&gt;Node30 -->
<g id="edge45" class="edge">
<title>Node29&#45;&gt;Node30</title>
<path fill="none" stroke="midnightblue" d="M602.41,-387.45C583.95,-377.48 559.4,-364.23 543.53,-355.65"/>
<polygon fill="midnightblue" stroke="midnightblue" points="600.97,-390.65 611.43,-392.32 604.3,-384.49 600.97,-390.65"/>
</g>
<!-- Node31 -->
<g id="node31" class="node">
<title>Node31</title>
<g id="a_node31"><a xlink:href="api_2traffic__mngr_8h.html" target="_top" xlink:title=" ">
<polygon fill="white" stroke="black" points="485.5,-280.5 485.5,-299.5 569.5,-299.5 569.5,-280.5 485.5,-280.5"/>
<text text-anchor="middle" x="527.5" y="-287.5" font-family="Helvetica,sans-Serif" font-size="10.00">traffic_mngr.h</text>
</a>
</g>
</g>
<!-- Node30&#45;&gt;Node31 -->
<g id="edge46" class="edge">
<title>Node30&#45;&gt;Node31</title>
<path fill="none" stroke="midnightblue" d="M527.5,-325.8C527.5,-316.91 527.5,-306.78 527.5,-299.75"/>
<polygon fill="midnightblue" stroke="midnightblue" points="524,-326.08 527.5,-336.08 531,-326.08 524,-326.08"/>
</g>
<!-- Node31&#45;&gt;Node5 -->
<g id="edge48" class="edge">
<title>Node31&#45;&gt;Node5</title>
<path fill="none" stroke="midnightblue" d="M536.03,-271.28C545.51,-249.92 559.5,-212.67 559.5,-179 559.5,-179 559.5,-179 559.5,-121 559.5,-66.8 492.92,-33.97 454.69,-19.59"/>
<polygon fill="midnightblue" stroke="midnightblue" points="532.83,-269.86 531.82,-280.41 539.18,-272.79 532.83,-269.86"/>
</g>
<!-- Node31&#45;&gt;Node12 -->
<g id="edge47" class="edge">
<title>Node31&#45;&gt;Node12</title>
<path fill="none" stroke="midnightblue" d="M515.44,-271.86C508.86,-262.5 500.99,-251.33 495.66,-243.75"/>
<polygon fill="midnightblue" stroke="midnightblue" points="512.61,-273.92 521.23,-280.08 518.33,-269.89 512.61,-273.92"/>
</g>
<!-- Node33 -->
<g id="node33" class="node">
<title>Node33</title>
<g id="a_node33"><a xlink:href="api_2pool_8h.html" target="_top" xlink:title=" ">
<polygon fill="white" stroke="black" points="353,-56.5 353,-75.5 400,-75.5 400,-56.5 353,-56.5"/>
<text text-anchor="middle" x="376.5" y="-63.5" font-family="Helvetica,sans-Serif" font-size="10.00">pool.h</text>
</a>
</g>
</g>
<!-- Node32&#45;&gt;Node33 -->
<g id="edge50" class="edge">
<title>Node32&#45;&gt;Node33</title>
<path fill="none" stroke="midnightblue" d="M413.02,-439.6C400.28,-418.58 381.5,-381.69 381.5,-347 381.5,-347 381.5,-347 381.5,-289 381.5,-206.11 377.97,-105.87 376.84,-75.88"/>
<polygon fill="midnightblue" stroke="midnightblue" points="410.23,-441.73 418.52,-448.33 416.15,-438 410.23,-441.73"/>
</g>
<!-- Node33&#45;&gt;Node5 -->
<g id="edge51" class="edge">
<title>Node33&#45;&gt;Node5</title>
<path fill="none" stroke="midnightblue" d="M392.18,-48.72C401.34,-39.2 412.55,-27.56 420.07,-19.75"/>
<polygon fill="midnightblue" stroke="midnightblue" points="389.5,-46.45 385.09,-56.08 394.54,-51.31 389.5,-46.45"/>
</g>
<!-- Node35 -->
<g id="node35" class="node">
<title>Node35</title>
<g id="a_node35"><a xlink:href="api_2timer_8h.html" target="_top" xlink:title=" ">
<polygon fill="white" stroke="black" points="435,-392.5 435,-411.5 486,-411.5 486,-392.5 435,-392.5"/>
<text text-anchor="middle" x="460.5" y="-399.5" font-family="Helvetica,sans-Serif" font-size="10.00">timer.h</text>
</a>
</g>
</g>
<!-- Node34&#45;&gt;Node35 -->
<g id="edge53" class="edge">
<title>Node34&#45;&gt;Node35</title>
<path fill="none" stroke="midnightblue" d="M481.32,-439.27C476.03,-430.05 469.78,-419.17 465.52,-411.75"/>
<polygon fill="midnightblue" stroke="midnightblue" points="478.37,-441.15 486.38,-448.08 484.44,-437.67 478.37,-441.15"/>
</g>
<!-- Node35&#45;&gt;Node5 -->
<g id="edge54" class="edge">
<title>Node35&#45;&gt;Node5</title>
<path fill="none" stroke="midnightblue" d="M457.25,-382.09C452.33,-352.67 443.07,-294.09 438.5,-244 430.55,-156.91 428.9,-50.91 428.57,-19.91"/>
<polygon fill="midnightblue" stroke="midnightblue" points="453.84,-382.91 458.96,-392.18 460.74,-381.74 453.84,-382.91"/>
</g>
<!-- Node37 -->
<g id="node37" class="node">
<title>Node37</title>
<g id="a_node37"><a xlink:href="api_2event_8h.html" target="_top" xlink:title=" ">
<polygon fill="white" stroke="black" points="821,-504.5 821,-523.5 874,-523.5 874,-504.5 821,-504.5"/>
<text text-anchor="middle" x="847.5" y="-511.5" font-family="Helvetica,sans-Serif" font-size="10.00">event.h</text>
</a>
</g>
</g>
<!-- Node36&#45;&gt;Node37 -->
<g id="edge56" class="edge">
<title>Node36&#45;&gt;Node37</title>
<path fill="none" stroke="midnightblue" d="M837.76,-661.93C840.15,-625.92 845.23,-549.23 846.93,-523.57"/>
<polygon fill="midnightblue" stroke="midnightblue" points="834.26,-661.87 837.09,-672.08 841.25,-662.33 834.26,-661.87"/>
</g>
<!-- Node37&#45;&gt;Node5 -->
<g id="edge57" class="edge">
<title>Node37&#45;&gt;Node5</title>
<path fill="none" stroke="midnightblue" d="M849.97,-494.29C852.63,-472.43 856.5,-435.16 856.5,-403 856.5,-403 856.5,-403 856.5,-121 856.5,-39.29 560.21,-17.4 460.67,-12.35"/>
<polygon fill="midnightblue" stroke="midnightblue" points="846.46,-494.1 848.68,-504.46 853.41,-494.98 846.46,-494.1"/>
</g>
<!-- Node39 -->
<g id="node39" class="node">
<title>Node39</title>
<g id="a_node39"><a xlink:href="api_2packet__flags_8h.html" target="_top" xlink:title=" ">
<polygon fill="white" stroke="black" points="884.5,-112.5 884.5,-131.5 970.5,-131.5 970.5,-112.5 884.5,-112.5"/>
<text text-anchor="middle" x="927.5" y="-119.5" font-family="Helvetica,sans-Serif" font-size="10.00">packet_flags.h</text>
</a>
</g>
</g>
<!-- Node38&#45;&gt;Node39 -->
<g id="edge61" class="edge">
<title>Node38&#45;&gt;Node39</title>
<path fill="none" stroke="midnightblue" d="M926.77,-662.25C927.07,-640.36 927.5,-603.05 927.5,-571 927.5,-571 927.5,-571 927.5,-233 927.5,-195.19 927.5,-150.06 927.5,-131.56"/>
<polygon fill="midnightblue" stroke="midnightblue" points="923.27,-662.39 926.63,-672.44 930.27,-662.49 923.27,-662.39"/>
</g>
<!-- Node39&#45;&gt;Node5 -->
<g id="edge62" class="edge">
<title>Node39&#45;&gt;Node5</title>
<path fill="none" stroke="midnightblue" d="M917.67,-103.81C907.86,-88.43 891.27,-66.71 870.5,-56 798.95,-19.1 550.19,-12.46 460.8,-11.26"/>
<polygon fill="midnightblue" stroke="midnightblue" points="914.7,-105.68 922.88,-112.42 920.69,-102.05 914.7,-105.68"/>
</g>
</g>
</svg>
