<?xml version="1.0" encoding="UTF-8" standalone="no"?>
<!DOCTYPE svg PUBLIC "-//W3C//DTD SVG 1.1//EN"
 "http://www.w3.org/Graphics/SVG/1.1/DTD/svg11.dtd">
<!-- Generated by graphviz version 2.43.0 (0)
 -->
<!-- Title: proto_stats_types.h Pages: 1 -->
<svg width="1091pt" height="868pt"
 viewBox="0.00 0.00 1091.00 868.00" xmlns="http://www.w3.org/2000/svg" xmlns:xlink="http://www.w3.org/1999/xlink">
<g id="graph0" class="graph" transform="scale(1 1) rotate(0) translate(4 864)">
<title>proto_stats_types.h</title>
<polygon fill="white" stroke="transparent" points="-4,4 -4,-864 1087,-864 1087,4 -4,4"/>
<!-- Node1 -->
<g id="node1" class="node">
<title>Node1</title>
<g id="a_node1"><a xlink:title=" ">
<polygon fill="#bfbfbf" stroke="black" points="918.5,-840.5 918.5,-859.5 1031.5,-859.5 1031.5,-840.5 918.5,-840.5"/>
<text text-anchor="middle" x="975" y="-847.5" font-family="Helvetica,sans-Serif" font-size="10.00">proto_stats_types.h</text>
</a>
</g>
</g>
<!-- Node2 -->
<g id="node2" class="node">
<title>Node2</title>
<g id="a_node2"><a xlink:href="api_2spec_2packet_8h.html" target="_top" xlink:title=" ">
<polygon fill="white" stroke="black" points="727,-336.5 727,-355.5 785,-355.5 785,-336.5 727,-336.5"/>
<text text-anchor="middle" x="756" y="-343.5" font-family="Helvetica,sans-Serif" font-size="10.00">packet.h</text>
</a>
</g>
</g>
<!-- Node1&#45;&gt;Node2 -->
<g id="edge1" class="edge">
<title>Node1&#45;&gt;Node2</title>
<path fill="none" stroke="midnightblue" d="M975,-830.25C975,-808.36 975,-771.05 975,-739 975,-739 975,-739 975,-569 975,-456.39 830.43,-380.22 776.21,-355.61"/>
<polygon fill="midnightblue" stroke="midnightblue" points="971.5,-830.44 975,-840.44 978.5,-830.44 971.5,-830.44"/>
</g>
<!-- Node5 -->
<g id="node5" class="node">
<title>Node5</title>
<g id="a_node5"><a xlink:href="api_2spec_2packet__types_8h.html" target="_top" xlink:title=" ">
<polygon fill="white" stroke="black" points="732,-784.5 732,-803.5 822,-803.5 822,-784.5 732,-784.5"/>
<text text-anchor="middle" x="777" y="-791.5" font-family="Helvetica,sans-Serif" font-size="10.00">packet_types.h</text>
</a>
</g>
</g>
<!-- Node1&#45;&gt;Node5 -->
<g id="edge4" class="edge">
<title>Node1&#45;&gt;Node5</title>
<path fill="none" stroke="midnightblue" d="M933.56,-837.7C896.19,-827.51 842.06,-812.74 808.23,-803.52"/>
<polygon fill="midnightblue" stroke="midnightblue" points="933.06,-841.19 943.63,-840.44 934.9,-834.44 933.06,-841.19"/>
</g>
<!-- Node41 -->
<g id="node41" class="node">
<title>Node41</title>
<g id="a_node41"><a xlink:href="api_2spec_2proto__stats_8h.html" target="_top" xlink:title=" ">
<polygon fill="white" stroke="black" points="1003,-784.5 1003,-803.5 1083,-803.5 1083,-784.5 1003,-784.5"/>
<text text-anchor="middle" x="1043" y="-791.5" font-family="Helvetica,sans-Serif" font-size="10.00">proto_stats.h</text>
</a>
</g>
</g>
<!-- Node1&#45;&gt;Node41 -->
<g id="edge67" class="edge">
<title>Node1&#45;&gt;Node41</title>
<path fill="none" stroke="midnightblue" d="M993.76,-834.1C1006,-824.38 1021.56,-812.03 1031.88,-803.83"/>
<polygon fill="midnightblue" stroke="midnightblue" points="991.58,-831.36 985.93,-840.32 995.93,-836.85 991.58,-831.36"/>
</g>
<!-- Node3 -->
<g id="node3" class="node">
<title>Node3</title>
<g id="a_node3"><a xlink:href="api_2packet_8h.html" target="_top" xlink:title=" ">
<polygon fill="white" stroke="black" points="708,-224.5 708,-243.5 766,-243.5 766,-224.5 708,-224.5"/>
<text text-anchor="middle" x="737" y="-231.5" font-family="Helvetica,sans-Serif" font-size="10.00">packet.h</text>
</a>
</g>
</g>
<!-- Node2&#45;&gt;Node3 -->
<g id="edge2" class="edge">
<title>Node2&#45;&gt;Node3</title>
<path fill="none" stroke="midnightblue" d="M752.78,-326.35C748.62,-302.25 741.54,-261.31 738.48,-243.59"/>
<polygon fill="midnightblue" stroke="midnightblue" points="749.36,-327.11 754.51,-336.37 756.26,-325.92 749.36,-327.11"/>
</g>
<!-- Node4 -->
<g id="node4" class="node">
<title>Node4</title>
<g id="a_node4"><a xlink:href="odp__api_8h.html" target="_top" xlink:title=" ">
<polygon fill="white" stroke="black" points="519,-0.5 519,-19.5 583,-19.5 583,-0.5 519,-0.5"/>
<text text-anchor="middle" x="551" y="-7.5" font-family="Helvetica,sans-Serif" font-size="10.00">odp_api.h</text>
</a>
</g>
</g>
<!-- Node3&#45;&gt;Node4 -->
<g id="edge3" class="edge">
<title>Node3&#45;&gt;Node4</title>
<path fill="none" stroke="midnightblue" d="M726.18,-215.85C705.05,-183 655.87,-109.69 605,-56 591.74,-42 574.28,-28.14 562.85,-19.58"/>
<polygon fill="midnightblue" stroke="midnightblue" points="723.27,-217.79 731.6,-224.34 729.17,-214.03 723.27,-217.79"/>
</g>
<!-- Node6 -->
<g id="node6" class="node">
<title>Node6</title>
<g id="a_node6"><a xlink:href="api_2packet__types_8h.html" target="_top" xlink:title=" ">
<polygon fill="white" stroke="black" points="606,-728.5 606,-747.5 696,-747.5 696,-728.5 606,-728.5"/>
<text text-anchor="middle" x="651" y="-735.5" font-family="Helvetica,sans-Serif" font-size="10.00">packet_types.h</text>
</a>
</g>
</g>
<!-- Node5&#45;&gt;Node6 -->
<g id="edge5" class="edge">
<title>Node5&#45;&gt;Node6</title>
<path fill="none" stroke="midnightblue" d="M747.84,-780.5C724.22,-770.38 691.57,-756.39 670.87,-747.52"/>
<polygon fill="midnightblue" stroke="midnightblue" points="746.46,-783.72 757.03,-784.44 749.22,-777.29 746.46,-783.72"/>
</g>
<!-- Node6&#45;&gt;Node2 -->
<g id="edge61" class="edge">
<title>Node6&#45;&gt;Node2</title>
<path fill="none" stroke="midnightblue" d="M656.86,-718.8C659.44,-710.63 662.46,-700.86 665,-692 703.31,-558.64 744.25,-394.52 753.89,-355.57"/>
<polygon fill="midnightblue" stroke="midnightblue" points="653.5,-717.82 653.8,-728.41 660.17,-719.94 653.5,-717.82"/>
</g>
<!-- Node7 -->
<g id="node7" class="node">
<title>Node7</title>
<g id="a_node7"><a xlink:href="api_2spec_2comp_8h.html" target="_top" xlink:title=" ">
<polygon fill="white" stroke="black" points="893.5,-672.5 893.5,-691.5 946.5,-691.5 946.5,-672.5 893.5,-672.5"/>
<text text-anchor="middle" x="920" y="-679.5" font-family="Helvetica,sans-Serif" font-size="10.00">comp.h</text>
</a>
</g>
</g>
<!-- Node6&#45;&gt;Node7 -->
<g id="edge6" class="edge">
<title>Node6&#45;&gt;Node7</title>
<path fill="none" stroke="midnightblue" d="M706.29,-727.19C753.61,-718.59 823.48,-705.4 884,-692 887.02,-691.33 890.17,-690.6 893.3,-689.85"/>
<polygon fill="midnightblue" stroke="midnightblue" points="705.47,-723.79 696.25,-729.01 706.72,-730.67 705.47,-723.79"/>
</g>
<!-- Node9 -->
<g id="node9" class="node">
<title>Node9</title>
<g id="a_node9"><a xlink:href="api_2spec_2crypto_8h.html" target="_top" xlink:title=" ">
<polygon fill="white" stroke="black" points="0,-224.5 0,-243.5 56,-243.5 56,-224.5 0,-224.5"/>
<text text-anchor="middle" x="28" y="-231.5" font-family="Helvetica,sans-Serif" font-size="10.00">crypto.h</text>
</a>
</g>
</g>
<!-- Node6&#45;&gt;Node9 -->
<g id="edge9" class="edge">
<title>Node6&#45;&gt;Node9</title>
<path fill="none" stroke="midnightblue" d="M595.54,-735.68C477.38,-732.33 204.49,-721.55 117,-692 66.07,-674.8 15,-680.76 15,-627 15,-627 15,-627 15,-345 15,-306.92 22.78,-261.94 26.3,-243.52"/>
<polygon fill="midnightblue" stroke="midnightblue" points="595.71,-739.19 605.8,-735.97 595.9,-732.19 595.71,-739.19"/>
</g>
<!-- Node11 -->
<g id="node11" class="node">
<title>Node11</title>
<g id="a_node11"><a xlink:href="api_2spec_2crypto__types_8h.html" target="_top" xlink:title=" ">
<polygon fill="white" stroke="black" points="43.5,-448.5 43.5,-467.5 132.5,-467.5 132.5,-448.5 43.5,-448.5"/>
<text text-anchor="middle" x="88" y="-455.5" font-family="Helvetica,sans-Serif" font-size="10.00">crypto_types.h</text>
</a>
</g>
</g>
<!-- Node6&#45;&gt;Node11 -->
<g id="edge12" class="edge">
<title>Node6&#45;&gt;Node11</title>
<path fill="none" stroke="midnightblue" d="M595.35,-734.77C472.24,-729.46 184.68,-714.75 147,-692 117.55,-674.23 105,-661.39 105,-627 105,-627 105,-627 105,-569 105,-530.93 94.93,-486.31 90.29,-467.77"/>
<polygon fill="midnightblue" stroke="midnightblue" points="595.55,-738.28 605.69,-735.21 595.85,-731.29 595.55,-738.28"/>
</g>
<!-- Node13 -->
<g id="node13" class="node">
<title>Node13</title>
<g id="a_node13"><a xlink:href="api_2spec_2ipsec_8h.html" target="_top" xlink:title=" ">
<polygon fill="white" stroke="black" points="139.5,-112.5 139.5,-131.5 190.5,-131.5 190.5,-112.5 139.5,-112.5"/>
<text text-anchor="middle" x="165" y="-119.5" font-family="Helvetica,sans-Serif" font-size="10.00">ipsec.h</text>
</a>
</g>
</g>
<!-- Node6&#45;&gt;Node13 -->
<g id="edge60" class="edge">
<title>Node6&#45;&gt;Node13</title>
<path fill="none" stroke="midnightblue" d="M595.77,-736.16C467.64,-732.73 161,-715.28 161,-627 161,-627 161,-627 161,-345 161,-265.83 121.8,-244.8 141,-168 144.39,-154.43 152.74,-140.47 158.63,-131.77"/>
<polygon fill="midnightblue" stroke="midnightblue" points="595.7,-739.66 605.78,-736.41 595.87,-732.66 595.7,-739.66"/>
</g>
<!-- Node17 -->
<g id="node17" class="node">
<title>Node17</title>
<g id="a_node17"><a xlink:href="api_2spec_2dma__types_8h.html" target="_top" xlink:title=" ">
<polygon fill="white" stroke="black" points="451,-672.5 451,-691.5 531,-691.5 531,-672.5 451,-672.5"/>
<text text-anchor="middle" x="491" y="-679.5" font-family="Helvetica,sans-Serif" font-size="10.00">dma_types.h</text>
</a>
</g>
</g>
<!-- Node6&#45;&gt;Node17 -->
<g id="edge21" class="edge">
<title>Node6&#45;&gt;Node17</title>
<path fill="none" stroke="midnightblue" d="M615.95,-725.17C585.83,-715 543.1,-700.59 516.23,-691.52"/>
<polygon fill="midnightblue" stroke="midnightblue" points="615.05,-728.56 625.65,-728.44 617.29,-721.93 615.05,-728.56"/>
</g>
<!-- Node27 -->
<g id="node27" class="node">
<title>Node27</title>
<g id="a_node27"><a xlink:href="api_2spec_2packet__io_8h.html" target="_top" xlink:title=" ">
<polygon fill="white" stroke="black" points="603,-224.5 603,-243.5 675,-243.5 675,-224.5 603,-224.5"/>
<text text-anchor="middle" x="639" y="-231.5" font-family="Helvetica,sans-Serif" font-size="10.00">packet_io.h</text>
</a>
</g>
</g>
<!-- Node6&#45;&gt;Node27 -->
<g id="edge65" class="edge">
<title>Node6&#45;&gt;Node27</title>
<path fill="none" stroke="midnightblue" d="M651,-718.25C651,-696.36 651,-659.05 651,-627 651,-627 651,-627 651,-457 651,-378.05 687.07,-356.08 666,-280 662.16,-266.13 652.77,-252.24 646.15,-243.64"/>
<polygon fill="midnightblue" stroke="midnightblue" points="647.5,-718.44 651,-728.44 654.5,-718.44 647.5,-718.44"/>
</g>
<!-- Node29 -->
<g id="node29" class="node">
<title>Node29</title>
<g id="a_node29"><a xlink:href="api_2spec_2packet__io__types_8h.html" target="_top" xlink:title=" ">
<polygon fill="white" stroke="black" points="519,-448.5 519,-467.5 623,-467.5 623,-448.5 519,-448.5"/>
<text text-anchor="middle" x="571" y="-455.5" font-family="Helvetica,sans-Serif" font-size="10.00">packet_io_types.h</text>
</a>
</g>
</g>
<!-- Node6&#45;&gt;Node29 -->
<g id="edge66" class="edge">
<title>Node6&#45;&gt;Node29</title>
<path fill="none" stroke="midnightblue" d="M635.69,-720.79C618.21,-700.53 592,-663.98 592,-627 592,-627 592,-627 592,-569 592,-530.7 579.56,-486.21 573.83,-467.73"/>
<polygon fill="midnightblue" stroke="midnightblue" points="633.26,-723.33 642.55,-728.44 638.47,-718.66 633.26,-723.33"/>
</g>
<!-- Node37 -->
<g id="node37" class="node">
<title>Node37</title>
<g id="a_node37"><a xlink:href="api_2spec_2event_8h.html" target="_top" xlink:title=" ">
<polygon fill="white" stroke="black" points="717.5,-672.5 717.5,-691.5 770.5,-691.5 770.5,-672.5 717.5,-672.5"/>
<text text-anchor="middle" x="744" y="-679.5" font-family="Helvetica,sans-Serif" font-size="10.00">event.h</text>
</a>
</g>
</g>
<!-- Node6&#45;&gt;Node37 -->
<g id="edge57" class="edge">
<title>Node6&#45;&gt;Node37</title>
<path fill="none" stroke="midnightblue" d="M674.81,-723.18C691.92,-713.24 714.47,-700.15 729.1,-691.65"/>
<polygon fill="midnightblue" stroke="midnightblue" points="672.83,-720.28 665.94,-728.32 676.35,-726.33 672.83,-720.28"/>
</g>
<!-- Node39 -->
<g id="node39" class="node">
<title>Node39</title>
<g id="a_node39"><a xlink:href="api_2spec_2packet__flags_8h.html" target="_top" xlink:title=" ">
<polygon fill="white" stroke="black" points="789,-672.5 789,-691.5 875,-691.5 875,-672.5 789,-672.5"/>
<text text-anchor="middle" x="832" y="-679.5" font-family="Helvetica,sans-Serif" font-size="10.00">packet_flags.h</text>
</a>
</g>
</g>
<!-- Node6&#45;&gt;Node39 -->
<g id="edge62" class="edge">
<title>Node6&#45;&gt;Node39</title>
<path fill="none" stroke="midnightblue" d="M689.32,-725.57C723.46,-715.38 772.66,-700.7 803.45,-691.52"/>
<polygon fill="midnightblue" stroke="midnightblue" points="688.26,-722.23 679.68,-728.44 690.26,-728.94 688.26,-722.23"/>
</g>
<!-- Node8 -->
<g id="node8" class="node">
<title>Node8</title>
<g id="a_node8"><a xlink:href="api_2comp_8h.html" target="_top" xlink:title=" ">
<polygon fill="white" stroke="black" points="893.5,-504.5 893.5,-523.5 946.5,-523.5 946.5,-504.5 893.5,-504.5"/>
<text text-anchor="middle" x="920" y="-511.5" font-family="Helvetica,sans-Serif" font-size="10.00">comp.h</text>
</a>
</g>
</g>
<!-- Node7&#45;&gt;Node8 -->
<g id="edge7" class="edge">
<title>Node7&#45;&gt;Node8</title>
<path fill="none" stroke="midnightblue" d="M920,-661.93C920,-625.92 920,-549.23 920,-523.57"/>
<polygon fill="midnightblue" stroke="midnightblue" points="916.5,-662.08 920,-672.08 923.5,-662.08 916.5,-662.08"/>
</g>
<!-- Node8&#45;&gt;Node4 -->
<g id="edge8" class="edge">
<title>Node8&#45;&gt;Node4</title>
<path fill="none" stroke="midnightblue" d="M925.77,-494.43C931.98,-472.72 941,-435.62 941,-403 941,-403 941,-403 941,-121 941,-89.18 936.68,-74.78 911,-56 859.14,-18.08 661.33,-12.02 583.11,-11.12"/>
<polygon fill="midnightblue" stroke="midnightblue" points="922.33,-493.68 922.83,-504.27 929.04,-495.68 922.33,-493.68"/>
</g>
<!-- Node10 -->
<g id="node10" class="node">
<title>Node10</title>
<g id="a_node10"><a xlink:href="api_2crypto_8h.html" target="_top" xlink:title=" ">
<polygon fill="white" stroke="black" points="0,-168.5 0,-187.5 56,-187.5 56,-168.5 0,-168.5"/>
<text text-anchor="middle" x="28" y="-175.5" font-family="Helvetica,sans-Serif" font-size="10.00">crypto.h</text>
</a>
</g>
</g>
<!-- Node9&#45;&gt;Node10 -->
<g id="edge10" class="edge">
<title>Node9&#45;&gt;Node10</title>
<path fill="none" stroke="midnightblue" d="M28,-213.8C28,-204.91 28,-194.78 28,-187.75"/>
<polygon fill="midnightblue" stroke="midnightblue" points="24.5,-214.08 28,-224.08 31.5,-214.08 24.5,-214.08"/>
</g>
<!-- Node10&#45;&gt;Node4 -->
<g id="edge11" class="edge">
<title>Node10&#45;&gt;Node4</title>
<path fill="none" stroke="midnightblue" d="M41.05,-160.19C63.21,-133.02 111.11,-80.05 165,-56 228.23,-27.78 438.2,-15.89 518.96,-12.28"/>
<polygon fill="midnightblue" stroke="midnightblue" points="38.05,-158.34 34.54,-168.34 43.52,-162.71 38.05,-158.34"/>
</g>
<!-- Node12 -->
<g id="node12" class="node">
<title>Node12</title>
<g id="a_node12"><a xlink:href="api_2crypto__types_8h.html" target="_top" xlink:title=" ">
<polygon fill="white" stroke="black" points="43.5,-280.5 43.5,-299.5 132.5,-299.5 132.5,-280.5 43.5,-280.5"/>
<text text-anchor="middle" x="88" y="-287.5" font-family="Helvetica,sans-Serif" font-size="10.00">crypto_types.h</text>
</a>
</g>
</g>
<!-- Node11&#45;&gt;Node12 -->
<g id="edge13" class="edge">
<title>Node11&#45;&gt;Node12</title>
<path fill="none" stroke="midnightblue" d="M88,-437.93C88,-401.92 88,-325.23 88,-299.57"/>
<polygon fill="midnightblue" stroke="midnightblue" points="84.5,-438.08 88,-448.08 91.5,-438.08 84.5,-438.08"/>
</g>
<!-- Node12&#45;&gt;Node9 -->
<g id="edge14" class="edge">
<title>Node12&#45;&gt;Node9</title>
<path fill="none" stroke="midnightblue" d="M70.82,-273.54C60.12,-263.91 46.74,-251.87 37.82,-243.83"/>
<polygon fill="midnightblue" stroke="midnightblue" points="68.59,-276.24 78.36,-280.32 73.27,-271.03 68.59,-276.24"/>
</g>
<!-- Node12&#45;&gt;Node13 -->
<g id="edge15" class="edge">
<title>Node12&#45;&gt;Node13</title>
<path fill="none" stroke="midnightblue" d="M87.05,-270.07C86.66,-244.98 89.04,-200.13 108,-168 117.55,-151.82 135.29,-139.23 148.45,-131.53"/>
<polygon fill="midnightblue" stroke="midnightblue" points="83.57,-270.5 87.39,-280.38 90.56,-270.27 83.57,-270.5"/>
</g>
<!-- Node15 -->
<g id="node15" class="node">
<title>Node15</title>
<g id="a_node15"><a xlink:href="api_2spec_2ipsec__types_8h.html" target="_top" xlink:title=" ">
<polygon fill="white" stroke="black" points="404.5,-224.5 404.5,-243.5 487.5,-243.5 487.5,-224.5 404.5,-224.5"/>
<text text-anchor="middle" x="446" y="-231.5" font-family="Helvetica,sans-Serif" font-size="10.00">ipsec_types.h</text>
</a>
</g>
</g>
<!-- Node12&#45;&gt;Node15 -->
<g id="edge18" class="edge">
<title>Node12&#45;&gt;Node15</title>
<path fill="none" stroke="midnightblue" d="M142.85,-280.73C214.86,-269.86 339.72,-251.03 404.43,-241.27"/>
<polygon fill="midnightblue" stroke="midnightblue" points="141.98,-277.32 132.62,-282.27 143.03,-284.24 141.98,-277.32"/>
</g>
<!-- Node14 -->
<g id="node14" class="node">
<title>Node14</title>
<g id="a_node14"><a xlink:href="api_2ipsec_8h.html" target="_top" xlink:title=" ">
<polygon fill="white" stroke="black" points="174.5,-56.5 174.5,-75.5 225.5,-75.5 225.5,-56.5 174.5,-56.5"/>
<text text-anchor="middle" x="200" y="-63.5" font-family="Helvetica,sans-Serif" font-size="10.00">ipsec.h</text>
</a>
</g>
</g>
<!-- Node13&#45;&gt;Node14 -->
<g id="edge16" class="edge">
<title>Node13&#45;&gt;Node14</title>
<path fill="none" stroke="midnightblue" d="M176.3,-103.57C182.32,-94.27 189.47,-83.25 194.33,-75.75"/>
<polygon fill="midnightblue" stroke="midnightblue" points="173.28,-101.79 170.78,-112.08 179.16,-105.6 173.28,-101.79"/>
</g>
<!-- Node14&#45;&gt;Node4 -->
<g id="edge17" class="edge">
<title>Node14&#45;&gt;Node4</title>
<path fill="none" stroke="midnightblue" d="M235.73,-58.15C239.86,-57.4 244.02,-56.67 248,-56 346.34,-39.48 463.17,-23.02 518.65,-15.39"/>
<polygon fill="midnightblue" stroke="midnightblue" points="234.83,-54.75 225.63,-60.01 236.1,-61.64 234.83,-54.75"/>
</g>
<!-- Node16 -->
<g id="node16" class="node">
<title>Node16</title>
<g id="a_node16"><a xlink:href="api_2ipsec__types_8h.html" target="_top" xlink:title=" ">
<polygon fill="white" stroke="black" points="150.5,-168.5 150.5,-187.5 233.5,-187.5 233.5,-168.5 150.5,-168.5"/>
<text text-anchor="middle" x="192" y="-175.5" font-family="Helvetica,sans-Serif" font-size="10.00">ipsec_types.h</text>
</a>
</g>
</g>
<!-- Node15&#45;&gt;Node16 -->
<g id="edge19" class="edge">
<title>Node15&#45;&gt;Node16</title>
<path fill="none" stroke="midnightblue" d="M395.88,-222.35C347.88,-212.14 276.38,-196.94 232.06,-187.52"/>
<polygon fill="midnightblue" stroke="midnightblue" points="395.24,-225.79 405.75,-224.44 396.7,-218.94 395.24,-225.79"/>
</g>
<!-- Node16&#45;&gt;Node13 -->
<g id="edge20" class="edge">
<title>Node16&#45;&gt;Node13</title>
<path fill="none" stroke="midnightblue" d="M182.99,-158.98C178.41,-149.82 173.05,-139.09 169.38,-131.75"/>
<polygon fill="midnightblue" stroke="midnightblue" points="179.94,-160.7 187.54,-168.08 186.2,-157.57 179.94,-160.7"/>
</g>
<!-- Node18 -->
<g id="node18" class="node">
<title>Node18</title>
<g id="a_node18"><a xlink:href="api_2dma__types_8h.html" target="_top" xlink:title=" ">
<polygon fill="white" stroke="black" points="406,-616.5 406,-635.5 486,-635.5 486,-616.5 406,-616.5"/>
<text text-anchor="middle" x="446" y="-623.5" font-family="Helvetica,sans-Serif" font-size="10.00">dma_types.h</text>
</a>
</g>
</g>
<!-- Node17&#45;&gt;Node18 -->
<g id="edge22" class="edge">
<title>Node17&#45;&gt;Node18</title>
<path fill="none" stroke="midnightblue" d="M476.95,-664.14C469.11,-654.74 459.67,-643.4 453.29,-635.75"/>
<polygon fill="midnightblue" stroke="midnightblue" points="474.48,-666.64 483.57,-672.08 479.86,-662.16 474.48,-666.64"/>
</g>
<!-- Node19 -->
<g id="node19" class="node">
<title>Node19</title>
<g id="a_node19"><a xlink:href="api_2spec_2dma_8h.html" target="_top" xlink:title=" ">
<polygon fill="white" stroke="black" points="398.5,-448.5 398.5,-467.5 445.5,-467.5 445.5,-448.5 398.5,-448.5"/>
<text text-anchor="middle" x="422" y="-455.5" font-family="Helvetica,sans-Serif" font-size="10.00">dma.h</text>
</a>
</g>
</g>
<!-- Node18&#45;&gt;Node19 -->
<g id="edge23" class="edge">
<title>Node18&#45;&gt;Node19</title>
<path fill="none" stroke="midnightblue" d="M443.24,-605.93C438.04,-569.92 426.95,-493.23 423.24,-467.57"/>
<polygon fill="midnightblue" stroke="midnightblue" points="439.81,-606.68 444.71,-616.08 446.74,-605.68 439.81,-606.68"/>
</g>
<!-- Node21 -->
<g id="node21" class="node">
<title>Node21</title>
<g id="a_node21"><a xlink:href="api_2spec_2pool__types_8h.html" target="_top" xlink:title=" ">
<polygon fill="white" stroke="black" points="338.5,-560.5 338.5,-579.5 417.5,-579.5 417.5,-560.5 338.5,-560.5"/>
<text text-anchor="middle" x="378" y="-567.5" font-family="Helvetica,sans-Serif" font-size="10.00">pool_types.h</text>
</a>
</g>
</g>
<!-- Node18&#45;&gt;Node21 -->
<g id="edge26" class="edge">
<title>Node18&#45;&gt;Node21</title>
<path fill="none" stroke="midnightblue" d="M427.24,-610.1C415,-600.38 399.44,-588.03 389.12,-579.83"/>
<polygon fill="midnightblue" stroke="midnightblue" points="425.07,-612.85 435.07,-616.32 429.42,-607.36 425.07,-612.85"/>
</g>
<!-- Node20 -->
<g id="node20" class="node">
<title>Node20</title>
<g id="a_node20"><a xlink:href="api_2dma_8h.html" target="_top" xlink:title=" ">
<polygon fill="white" stroke="black" points="411.5,-112.5 411.5,-131.5 458.5,-131.5 458.5,-112.5 411.5,-112.5"/>
<text text-anchor="middle" x="435" y="-119.5" font-family="Helvetica,sans-Serif" font-size="10.00">dma.h</text>
</a>
</g>
</g>
<!-- Node19&#45;&gt;Node20 -->
<g id="edge24" class="edge">
<title>Node19&#45;&gt;Node20</title>
<path fill="none" stroke="midnightblue" d="M409.91,-440C396.28,-419.14 376,-382.18 376,-347 376,-347 376,-347 376,-233 376,-190.74 410.23,-149.04 426.55,-131.56"/>
<polygon fill="midnightblue" stroke="midnightblue" points="407.09,-442.08 415.6,-448.39 412.88,-438.15 407.09,-442.08"/>
</g>
<!-- Node20&#45;&gt;Node4 -->
<g id="edge25" class="edge">
<title>Node20&#45;&gt;Node4</title>
<path fill="none" stroke="midnightblue" d="M451.66,-105.21C476.52,-81.63 522.5,-38.03 541.94,-19.59"/>
<polygon fill="midnightblue" stroke="midnightblue" points="448.95,-102.95 444.1,-112.37 453.77,-108.03 448.95,-102.95"/>
</g>
<!-- Node22 -->
<g id="node22" class="node">
<title>Node22</title>
<g id="a_node22"><a xlink:href="api_2pool__types_8h.html" target="_top" xlink:title=" ">
<polygon fill="white" stroke="black" points="338.5,-504.5 338.5,-523.5 417.5,-523.5 417.5,-504.5 338.5,-504.5"/>
<text text-anchor="middle" x="378" y="-511.5" font-family="Helvetica,sans-Serif" font-size="10.00">pool_types.h</text>
</a>
</g>
</g>
<!-- Node21&#45;&gt;Node22 -->
<g id="edge27" class="edge">
<title>Node21&#45;&gt;Node22</title>
<path fill="none" stroke="midnightblue" d="M378,-549.8C378,-540.91 378,-530.78 378,-523.75"/>
<polygon fill="midnightblue" stroke="midnightblue" points="374.5,-550.08 378,-560.08 381.5,-550.08 374.5,-550.08"/>
</g>
<!-- Node22&#45;&gt;Node2 -->
<g id="edge40" class="edge">
<title>Node22&#45;&gt;Node2</title>
<path fill="none" stroke="midnightblue" d="M427.92,-512.72C481.22,-510.53 566.82,-501.46 632,-468 646.18,-460.72 721.91,-382.52 747.53,-355.85"/>
<polygon fill="midnightblue" stroke="midnightblue" points="427.57,-509.23 417.7,-513.07 427.81,-516.23 427.57,-509.23"/>
</g>
<!-- Node22&#45;&gt;Node11 -->
<g id="edge38" class="edge">
<title>Node22&#45;&gt;Node11</title>
<path fill="none" stroke="midnightblue" d="M328.44,-503.77C273.56,-493.55 185.89,-477.23 132.94,-467.37"/>
<polygon fill="midnightblue" stroke="midnightblue" points="327.81,-507.21 338.28,-505.6 329.09,-500.33 327.81,-507.21"/>
</g>
<!-- Node22&#45;&gt;Node19 -->
<g id="edge39" class="edge">
<title>Node22&#45;&gt;Node19</title>
<path fill="none" stroke="midnightblue" d="M391.73,-496.14C399.4,-486.74 408.63,-475.4 414.87,-467.75"/>
<polygon fill="midnightblue" stroke="midnightblue" points="388.87,-494.12 385.27,-504.08 394.3,-498.54 388.87,-494.12"/>
</g>
<!-- Node23 -->
<g id="node23" class="node">
<title>Node23</title>
<g id="a_node23"><a xlink:href="api_2spec_2buffer_8h.html" target="_top" xlink:title=" ">
<polygon fill="white" stroke="black" points="327.5,-448.5 327.5,-467.5 380.5,-467.5 380.5,-448.5 327.5,-448.5"/>
<text text-anchor="middle" x="354" y="-455.5" font-family="Helvetica,sans-Serif" font-size="10.00">buffer.h</text>
</a>
</g>
</g>
<!-- Node22&#45;&gt;Node23 -->
<g id="edge28" class="edge">
<title>Node22&#45;&gt;Node23</title>
<path fill="none" stroke="midnightblue" d="M369.86,-494.69C365.82,-485.59 361.12,-475.01 357.89,-467.75"/>
<polygon fill="midnightblue" stroke="midnightblue" points="366.78,-496.37 374.04,-504.08 373.17,-493.52 366.78,-496.37"/>
</g>
<!-- Node25 -->
<g id="node25" class="node">
<title>Node25</title>
<g id="a_node25"><a xlink:href="api_2spec_2classification_8h.html" target="_top" xlink:title=" ">
<polygon fill="white" stroke="black" points="543.5,-336.5 543.5,-355.5 632.5,-355.5 632.5,-336.5 543.5,-336.5"/>
<text text-anchor="middle" x="588" y="-343.5" font-family="Helvetica,sans-Serif" font-size="10.00">classification.h</text>
</a>
</g>
</g>
<!-- Node22&#45;&gt;Node25 -->
<g id="edge31" class="edge">
<title>Node22&#45;&gt;Node25</title>
<path fill="none" stroke="midnightblue" d="M405.85,-499.97C421.07,-492.04 439.68,-480.95 454,-468 485.12,-439.86 478.72,-419.97 510,-392 527.6,-376.27 551.57,-363.44 568.28,-355.56"/>
<polygon fill="midnightblue" stroke="midnightblue" points="404.23,-496.87 396.88,-504.49 407.38,-503.12 404.23,-496.87"/>
</g>
<!-- Node22&#45;&gt;Node29 -->
<g id="edge41" class="edge">
<title>Node22&#45;&gt;Node29</title>
<path fill="none" stroke="midnightblue" d="M418.39,-501.7C454.82,-491.51 507.59,-476.74 540.56,-467.52"/>
<polygon fill="midnightblue" stroke="midnightblue" points="417.27,-498.38 408.58,-504.44 419.15,-505.12 417.27,-498.38"/>
</g>
<!-- Node33 -->
<g id="node33" class="node">
<title>Node33</title>
<g id="a_node33"><a xlink:href="api_2spec_2pool_8h.html" target="_top" xlink:title=" ">
<polygon fill="white" stroke="black" points="193.5,-448.5 193.5,-467.5 240.5,-467.5 240.5,-448.5 193.5,-448.5"/>
<text text-anchor="middle" x="217" y="-455.5" font-family="Helvetica,sans-Serif" font-size="10.00">pool.h</text>
</a>
</g>
</g>
<!-- Node22&#45;&gt;Node33 -->
<g id="edge51" class="edge">
<title>Node22&#45;&gt;Node33</title>
<path fill="none" stroke="midnightblue" d="M342.93,-501.24C311.91,-490.83 267.51,-475.94 240.56,-466.9"/>
<polygon fill="midnightblue" stroke="midnightblue" points="341.9,-504.58 352.49,-504.44 344.12,-497.95 341.9,-504.58"/>
</g>
<!-- Node35 -->
<g id="node35" class="node">
<title>Node35</title>
<g id="a_node35"><a xlink:href="api_2spec_2timer_8h.html" target="_top" xlink:title=" ">
<polygon fill="white" stroke="black" points="258.5,-448.5 258.5,-467.5 309.5,-467.5 309.5,-448.5 258.5,-448.5"/>
<text text-anchor="middle" x="284" y="-455.5" font-family="Helvetica,sans-Serif" font-size="10.00">timer.h</text>
</a>
</g>
</g>
<!-- Node22&#45;&gt;Node35 -->
<g id="edge54" class="edge">
<title>Node22&#45;&gt;Node35</title>
<path fill="none" stroke="midnightblue" d="M353.94,-499.18C336.64,-489.24 313.85,-476.15 299.07,-467.65"/>
<polygon fill="midnightblue" stroke="midnightblue" points="352.48,-502.38 362.9,-504.32 355.97,-496.31 352.48,-502.38"/>
</g>
<!-- Node24 -->
<g id="node24" class="node">
<title>Node24</title>
<g id="a_node24"><a xlink:href="api_2buffer_8h.html" target="_top" xlink:title=" ">
<polygon fill="white" stroke="black" points="353.5,-56.5 353.5,-75.5 406.5,-75.5 406.5,-56.5 353.5,-56.5"/>
<text text-anchor="middle" x="380" y="-63.5" font-family="Helvetica,sans-Serif" font-size="10.00">buffer.h</text>
</a>
</g>
</g>
<!-- Node23&#45;&gt;Node24 -->
<g id="edge29" class="edge">
<title>Node23&#45;&gt;Node24</title>
<path fill="none" stroke="midnightblue" d="M349.61,-438.34C344.87,-416.56 338,-379.37 338,-347 338,-347 338,-347 338,-177 338,-136.93 362.62,-93.74 374.16,-75.69"/>
<polygon fill="midnightblue" stroke="midnightblue" points="346.22,-439.24 351.84,-448.22 353.05,-437.7 346.22,-439.24"/>
</g>
<!-- Node24&#45;&gt;Node4 -->
<g id="edge30" class="edge">
<title>Node24&#45;&gt;Node4</title>
<path fill="none" stroke="midnightblue" d="M416.64,-53.43C448.84,-43.26 494.94,-28.7 523.9,-19.56"/>
<polygon fill="midnightblue" stroke="midnightblue" points="415.2,-50.21 406.72,-56.56 417.31,-56.89 415.2,-50.21"/>
</g>
<!-- Node26 -->
<g id="node26" class="node">
<title>Node26</title>
<g id="a_node26"><a xlink:href="api_2classification_8h.html" target="_top" xlink:title=" ">
<polygon fill="white" stroke="black" points="543.5,-280.5 543.5,-299.5 632.5,-299.5 632.5,-280.5 543.5,-280.5"/>
<text text-anchor="middle" x="588" y="-287.5" font-family="Helvetica,sans-Serif" font-size="10.00">classification.h</text>
</a>
</g>
</g>
<!-- Node25&#45;&gt;Node26 -->
<g id="edge32" class="edge">
<title>Node25&#45;&gt;Node26</title>
<path fill="none" stroke="midnightblue" d="M588,-325.8C588,-316.91 588,-306.78 588,-299.75"/>
<polygon fill="midnightblue" stroke="midnightblue" points="584.5,-326.08 588,-336.08 591.5,-326.08 584.5,-326.08"/>
</g>
<!-- Node26&#45;&gt;Node4 -->
<g id="edge37" class="edge">
<title>Node26&#45;&gt;Node4</title>
<path fill="none" stroke="midnightblue" d="M583.33,-270.36C578.3,-248.58 571,-211.42 571,-179 571,-179 571,-179 571,-121 571,-82.76 559.16,-38.23 553.7,-19.74"/>
<polygon fill="midnightblue" stroke="midnightblue" points="579.97,-271.33 585.71,-280.23 586.77,-269.69 579.97,-271.33"/>
</g>
<!-- Node26&#45;&gt;Node15 -->
<g id="edge33" class="edge">
<title>Node26&#45;&gt;Node15</title>
<path fill="none" stroke="midnightblue" d="M555.84,-276.77C529.17,-266.63 491.93,-252.47 468.4,-243.52"/>
<polygon fill="midnightblue" stroke="midnightblue" points="554.91,-280.16 565.5,-280.44 557.4,-273.62 554.91,-280.16"/>
</g>
<!-- Node26&#45;&gt;Node27 -->
<g id="edge34" class="edge">
<title>Node26&#45;&gt;Node27</title>
<path fill="none" stroke="midnightblue" d="M603.38,-272.72C612.37,-263.2 623.36,-251.56 630.74,-243.75"/>
<polygon fill="midnightblue" stroke="midnightblue" points="600.74,-270.41 596.42,-280.08 605.83,-275.22 600.74,-270.41"/>
</g>
<!-- Node28 -->
<g id="node28" class="node">
<title>Node28</title>
<g id="a_node28"><a xlink:href="api_2packet__io_8h.html" target="_top" xlink:title=" ">
<polygon fill="white" stroke="black" points="603,-168.5 603,-187.5 675,-187.5 675,-168.5 603,-168.5"/>
<text text-anchor="middle" x="639" y="-175.5" font-family="Helvetica,sans-Serif" font-size="10.00">packet_io.h</text>
</a>
</g>
</g>
<!-- Node27&#45;&gt;Node28 -->
<g id="edge35" class="edge">
<title>Node27&#45;&gt;Node28</title>
<path fill="none" stroke="midnightblue" d="M639,-213.8C639,-204.91 639,-194.78 639,-187.75"/>
<polygon fill="midnightblue" stroke="midnightblue" points="635.5,-214.08 639,-224.08 642.5,-214.08 635.5,-214.08"/>
</g>
<!-- Node28&#45;&gt;Node4 -->
<g id="edge36" class="edge">
<title>Node28&#45;&gt;Node4</title>
<path fill="none" stroke="midnightblue" d="M632.38,-158.81C623.22,-134.57 605.49,-90.7 585,-56 577.03,-42.51 565.74,-28.3 558.4,-19.55"/>
<polygon fill="midnightblue" stroke="midnightblue" points="629.2,-160.3 635.96,-168.46 635.76,-157.87 629.2,-160.3"/>
</g>
<!-- Node30 -->
<g id="node30" class="node">
<title>Node30</title>
<g id="a_node30"><a xlink:href="api_2packet__io__types_8h.html" target="_top" xlink:title=" ">
<polygon fill="white" stroke="black" points="519,-392.5 519,-411.5 623,-411.5 623,-392.5 519,-392.5"/>
<text text-anchor="middle" x="571" y="-399.5" font-family="Helvetica,sans-Serif" font-size="10.00">packet_io_types.h</text>
</a>
</g>
</g>
<!-- Node29&#45;&gt;Node30 -->
<g id="edge42" class="edge">
<title>Node29&#45;&gt;Node30</title>
<path fill="none" stroke="midnightblue" d="M571,-437.8C571,-428.91 571,-418.78 571,-411.75"/>
<polygon fill="midnightblue" stroke="midnightblue" points="567.5,-438.08 571,-448.08 574.5,-438.08 567.5,-438.08"/>
</g>
<!-- Node30&#45;&gt;Node2 -->
<g id="edge45" class="edge">
<title>Node30&#45;&gt;Node2</title>
<path fill="none" stroke="midnightblue" d="M610.17,-389.57C645.07,-379.38 695.35,-364.7 726.82,-355.52"/>
<polygon fill="midnightblue" stroke="midnightblue" points="608.93,-386.28 600.31,-392.44 610.89,-393 608.93,-386.28"/>
</g>
<!-- Node30&#45;&gt;Node15 -->
<g id="edge44" class="edge">
<title>Node30&#45;&gt;Node15</title>
<path fill="none" stroke="midnightblue" d="M508.84,-396.79C480.92,-391.42 450.4,-379.98 433,-356 407.68,-321.12 430.97,-264.99 441.48,-243.63"/>
<polygon fill="midnightblue" stroke="midnightblue" points="508.54,-400.29 518.99,-398.5 509.71,-393.39 508.54,-400.29"/>
</g>
<!-- Node30&#45;&gt;Node25 -->
<g id="edge43" class="edge">
<title>Node30&#45;&gt;Node25</title>
<path fill="none" stroke="midnightblue" d="M576.86,-382.4C579.7,-373.36 582.98,-362.94 585.25,-355.75"/>
<polygon fill="midnightblue" stroke="midnightblue" points="573.47,-381.49 573.81,-392.08 580.15,-383.6 573.47,-381.49"/>
</g>
<!-- Node30&#45;&gt;Node27 -->
<g id="edge46" class="edge">
<title>Node30&#45;&gt;Node27</title>
<path fill="none" stroke="midnightblue" d="M604.82,-387.96C618.64,-380.76 633.18,-370.32 641,-356 661.44,-318.57 648.2,-264.42 641.85,-243.6"/>
<polygon fill="midnightblue" stroke="midnightblue" points="602.98,-384.97 595.47,-392.44 606,-391.28 602.98,-384.97"/>
</g>
<!-- Node31 -->
<g id="node31" class="node">
<title>Node31</title>
<g id="a_node31"><a xlink:href="api_2spec_2traffic__mngr_8h.html" target="_top" xlink:title=" ">
<polygon fill="white" stroke="black" points="442,-336.5 442,-355.5 526,-355.5 526,-336.5 442,-336.5"/>
<text text-anchor="middle" x="484" y="-343.5" font-family="Helvetica,sans-Serif" font-size="10.00">traffic_mngr.h</text>
</a>
</g>
</g>
<!-- Node30&#45;&gt;Node31 -->
<g id="edge47" class="edge">
<title>Node30&#45;&gt;Node31</title>
<path fill="none" stroke="midnightblue" d="M548.28,-386.9C532.33,-377 511.5,-364.07 497.94,-355.65"/>
<polygon fill="midnightblue" stroke="midnightblue" points="546.68,-390.02 557.02,-392.32 550.37,-384.08 546.68,-390.02"/>
</g>
<!-- Node32 -->
<g id="node32" class="node">
<title>Node32</title>
<g id="a_node32"><a xlink:href="api_2traffic__mngr_8h.html" target="_top" xlink:title=" ">
<polygon fill="white" stroke="black" points="442,-280.5 442,-299.5 526,-299.5 526,-280.5 442,-280.5"/>
<text text-anchor="middle" x="484" y="-287.5" font-family="Helvetica,sans-Serif" font-size="10.00">traffic_mngr.h</text>
</a>
</g>
</g>
<!-- Node31&#45;&gt;Node32 -->
<g id="edge48" class="edge">
<title>Node31&#45;&gt;Node32</title>
<path fill="none" stroke="midnightblue" d="M484,-325.8C484,-316.91 484,-306.78 484,-299.75"/>
<polygon fill="midnightblue" stroke="midnightblue" points="480.5,-326.08 484,-336.08 487.5,-326.08 480.5,-326.08"/>
</g>
<!-- Node32&#45;&gt;Node4 -->
<g id="edge50" class="edge">
<title>Node32&#45;&gt;Node4</title>
<path fill="none" stroke="midnightblue" d="M494.68,-271.5C506.53,-250.37 524,-213.38 524,-179 524,-179 524,-179 524,-121 524,-82.26 539.99,-38 547.36,-19.66"/>
<polygon fill="midnightblue" stroke="midnightblue" points="491.58,-269.87 489.56,-280.27 497.62,-273.39 491.58,-269.87"/>
</g>
<!-- Node32&#45;&gt;Node15 -->
<g id="edge49" class="edge">
<title>Node32&#45;&gt;Node15</title>
<path fill="none" stroke="midnightblue" d="M471.94,-271.86C465.36,-262.5 457.49,-251.33 452.16,-243.75"/>
<polygon fill="midnightblue" stroke="midnightblue" points="469.11,-273.92 477.73,-280.08 474.83,-269.89 469.11,-273.92"/>
</g>
<!-- Node34 -->
<g id="node34" class="node">
<title>Node34</title>
<g id="a_node34"><a xlink:href="api_2pool_8h.html" target="_top" xlink:title=" ">
<polygon fill="white" stroke="black" points="193.5,-392.5 193.5,-411.5 240.5,-411.5 240.5,-392.5 193.5,-392.5"/>
<text text-anchor="middle" x="217" y="-399.5" font-family="Helvetica,sans-Serif" font-size="10.00">pool.h</text>
</a>
</g>
</g>
<!-- Node33&#45;&gt;Node34 -->
<g id="edge52" class="edge">
<title>Node33&#45;&gt;Node34</title>
<path fill="none" stroke="midnightblue" d="M217,-437.8C217,-428.91 217,-418.78 217,-411.75"/>
<polygon fill="midnightblue" stroke="midnightblue" points="213.5,-438.08 217,-448.08 220.5,-438.08 213.5,-438.08"/>
</g>
<!-- Node34&#45;&gt;Node4 -->
<g id="edge53" class="edge">
<title>Node34&#45;&gt;Node4</title>
<path fill="none" stroke="midnightblue" d="M228.83,-383.96C242.16,-363.06 262,-326.07 262,-291 262,-291 262,-291 262,-121 262,-84 282.3,-75.08 314,-56 378.95,-16.91 470.53,-10.6 518.62,-10.26"/>
<polygon fill="midnightblue" stroke="midnightblue" points="225.87,-382.1 223.26,-392.37 231.7,-385.97 225.87,-382.1"/>
</g>
<!-- Node36 -->
<g id="node36" class="node">
<title>Node36</title>
<g id="a_node36"><a xlink:href="api_2timer_8h.html" target="_top" xlink:title=" ">
<polygon fill="white" stroke="black" points="258.5,-392.5 258.5,-411.5 309.5,-411.5 309.5,-392.5 258.5,-392.5"/>
<text text-anchor="middle" x="284" y="-399.5" font-family="Helvetica,sans-Serif" font-size="10.00">timer.h</text>
</a>
</g>
</g>
<!-- Node35&#45;&gt;Node36 -->
<g id="edge55" class="edge">
<title>Node35&#45;&gt;Node36</title>
<path fill="none" stroke="midnightblue" d="M284,-437.8C284,-428.91 284,-418.78 284,-411.75"/>
<polygon fill="midnightblue" stroke="midnightblue" points="280.5,-438.08 284,-448.08 287.5,-438.08 280.5,-438.08"/>
</g>
<!-- Node36&#45;&gt;Node4 -->
<g id="edge56" class="edge">
<title>Node36&#45;&gt;Node4</title>
<path fill="none" stroke="midnightblue" d="M288.39,-382.34C293.13,-360.56 300,-323.37 300,-291 300,-291 300,-291 300,-121 300,-26.44 451.29,-12.4 518.96,-10.86"/>
<polygon fill="midnightblue" stroke="midnightblue" points="284.95,-381.7 286.16,-392.22 291.78,-383.24 284.95,-381.7"/>
</g>
<!-- Node38 -->
<g id="node38" class="node">
<title>Node38</title>
<g id="a_node38"><a xlink:href="api_2event_8h.html" target="_top" xlink:title=" ">
<polygon fill="white" stroke="black" points="779.5,-112.5 779.5,-131.5 832.5,-131.5 832.5,-112.5 779.5,-112.5"/>
<text text-anchor="middle" x="806" y="-119.5" font-family="Helvetica,sans-Serif" font-size="10.00">event.h</text>
</a>
</g>
</g>
<!-- Node37&#45;&gt;Node38 -->
<g id="edge58" class="edge">
<title>Node37&#45;&gt;Node38</title>
<path fill="none" stroke="midnightblue" d="M761.67,-665.51C782.12,-645.79 813,-609.61 813,-571 813,-571 813,-571 813,-233 813,-195.11 808.81,-150.03 806.92,-131.55"/>
<polygon fill="midnightblue" stroke="midnightblue" points="759.13,-663.1 754.18,-672.46 763.89,-668.23 759.13,-663.1"/>
</g>
<!-- Node38&#45;&gt;Node4 -->
<g id="edge59" class="edge">
<title>Node38&#45;&gt;Node4</title>
<path fill="none" stroke="midnightblue" d="M791.54,-104.95C777.3,-90.11 754.21,-68.51 730,-56 682.32,-31.36 620.4,-19.7 583.29,-14.58"/>
<polygon fill="midnightblue" stroke="midnightblue" points="789.11,-107.48 798.5,-112.4 794.23,-102.7 789.11,-107.48"/>
</g>
<!-- Node40 -->
<g id="node40" class="node">
<title>Node40</title>
<g id="a_node40"><a xlink:href="api_2packet__flags_8h.html" target="_top" xlink:title=" ">
<polygon fill="white" stroke="black" points="816,-56.5 816,-75.5 902,-75.5 902,-56.5 816,-56.5"/>
<text text-anchor="middle" x="859" y="-63.5" font-family="Helvetica,sans-Serif" font-size="10.00">packet_flags.h</text>
</a>
</g>
</g>
<!-- Node39&#45;&gt;Node40 -->
<g id="edge63" class="edge">
<title>Node39&#45;&gt;Node40</title>
<path fill="none" stroke="midnightblue" d="M840.79,-663.31C850.57,-641.97 865,-604.75 865,-571 865,-571 865,-571 865,-513 865,-438.46 889,-421.54 889,-347 889,-347 889,-347 889,-177 889,-138 871.23,-93.89 863.05,-75.62"/>
<polygon fill="midnightblue" stroke="midnightblue" points="837.59,-661.89 836.45,-672.42 843.91,-664.9 837.59,-661.89"/>
</g>
<!-- Node40&#45;&gt;Node4 -->
<g id="edge64" class="edge">
<title>Node40&#45;&gt;Node4</title>
<path fill="none" stroke="midnightblue" d="M805.93,-55.7C741.79,-44.45 635.91,-25.89 583.07,-16.62"/>
<polygon fill="midnightblue" stroke="midnightblue" points="805.4,-59.16 815.85,-57.43 806.6,-52.26 805.4,-59.16"/>
</g>
<!-- Node42 -->
<g id="node42" class="node">
<title>Node42</title>
<g id="a_node42"><a xlink:href="api_2proto__stats_8h.html" target="_top" xlink:title=" ">
<polygon fill="white" stroke="black" points="1003,-560.5 1003,-579.5 1083,-579.5 1083,-560.5 1003,-560.5"/>
<text text-anchor="middle" x="1043" y="-567.5" font-family="Helvetica,sans-Serif" font-size="10.00">proto_stats.h</text>
</a>
</g>
</g>
<!-- Node41&#45;&gt;Node42 -->
<g id="edge68" class="edge">
<title>Node41&#45;&gt;Node42</title>
<path fill="none" stroke="midnightblue" d="M1043,-774.3C1043,-728.64 1043,-612.85 1043,-579.88"/>
<polygon fill="midnightblue" stroke="midnightblue" points="1039.5,-774.3 1043,-784.3 1046.5,-774.3 1039.5,-774.3"/>
</g>
<!-- Node42&#45;&gt;Node4 -->
<g id="edge69" class="edge">
<title>Node42&#45;&gt;Node4</title>
<path fill="none" stroke="midnightblue" d="M1038.95,-550.66C1034.51,-528.9 1028,-491.5 1028,-459 1028,-459 1028,-459 1028,-121 1028,-29.43 689.99,-14.08 583.04,-11.51"/>
<polygon fill="midnightblue" stroke="midnightblue" points="1035.54,-551.44 1041.04,-560.5 1042.39,-549.99 1035.54,-551.44"/>
</g>
</g>
</svg>
