<?xml version="1.0" encoding="UTF-8" standalone="no"?>
<!DOCTYPE svg PUBLIC "-//W3C//DTD SVG 1.1//EN"
 "http://www.w3.org/Graphics/SVG/1.1/DTD/svg11.dtd">
<!-- Generated by graphviz version 2.43.0 (0)
 -->
<!-- Title: pool_types.h Pages: 1 -->
<svg width="676pt" height="532pt"
 viewBox="0.00 0.00 676.00 532.00" xmlns="http://www.w3.org/2000/svg" xmlns:xlink="http://www.w3.org/1999/xlink">
<g id="graph0" class="graph" transform="scale(1 1) rotate(0) translate(4 528)">
<title>pool_types.h</title>
<polygon fill="white" stroke="transparent" points="-4,4 -4,-528 672,-528 672,4 -4,4"/>
<!-- Node1 -->
<g id="node1" class="node">
<title>Node1</title>
<g id="a_node1"><a xlink:title=" ">
<polygon fill="#bfbfbf" stroke="black" points="303,-504.5 303,-523.5 382,-523.5 382,-504.5 303,-504.5"/>
<text text-anchor="middle" x="342.5" y="-511.5" font-family="Helvetica,sans-Serif" font-size="10.00">pool_types.h</text>
</a>
</g>
</g>
<!-- Node2 -->
<g id="node2" class="node">
<title>Node2</title>
<g id="a_node2"><a xlink:href="api_2spec_2buffer_8h.html" target="_top" xlink:title=" ">
<polygon fill="white" stroke="black" points="24,-448.5 24,-467.5 77,-467.5 77,-448.5 24,-448.5"/>
<text text-anchor="middle" x="50.5" y="-455.5" font-family="Helvetica,sans-Serif" font-size="10.00">buffer.h</text>
</a>
</g>
</g>
<!-- Node1&#45;&gt;Node2 -->
<g id="edge1" class="edge">
<title>Node1&#45;&gt;Node2</title>
<path fill="none" stroke="midnightblue" d="M292.82,-503.81C230.49,-492.29 125.89,-472.94 77.08,-463.92"/>
<polygon fill="midnightblue" stroke="midnightblue" points="292.35,-507.28 302.82,-505.66 293.62,-500.4 292.35,-507.28"/>
</g>
<!-- Node5 -->
<g id="node5" class="node">
<title>Node5</title>
<g id="a_node5"><a xlink:href="api_2spec_2classification_8h.html" target="_top" xlink:title=" ">
<polygon fill="white" stroke="black" points="256,-336.5 256,-355.5 345,-355.5 345,-336.5 256,-336.5"/>
<text text-anchor="middle" x="300.5" y="-343.5" font-family="Helvetica,sans-Serif" font-size="10.00">classification.h</text>
</a>
</g>
</g>
<!-- Node1&#45;&gt;Node5 -->
<g id="edge4" class="edge">
<title>Node1&#45;&gt;Node5</title>
<path fill="none" stroke="midnightblue" d="M332.98,-495.42C328.91,-487.28 324.44,-477.36 321.5,-468 308.66,-427.11 303.04,-375.84 301.21,-355.69"/>
<polygon fill="midnightblue" stroke="midnightblue" points="329.88,-497.06 337.6,-504.31 336.09,-493.83 329.88,-497.06"/>
</g>
<!-- Node13 -->
<g id="node13" class="node">
<title>Node13</title>
<g id="a_node13"><a xlink:href="api_2spec_2crypto__types_8h.html" target="_top" xlink:title=" ">
<polygon fill="white" stroke="black" points="155,-392.5 155,-411.5 244,-411.5 244,-392.5 155,-392.5"/>
<text text-anchor="middle" x="199.5" y="-399.5" font-family="Helvetica,sans-Serif" font-size="10.00">crypto_types.h</text>
</a>
</g>
</g>
<!-- Node1&#45;&gt;Node13 -->
<g id="edge15" class="edge">
<title>Node1&#45;&gt;Node13</title>
<path fill="none" stroke="midnightblue" d="M323.15,-498.12C292.8,-474.77 234.95,-430.27 210.67,-411.59"/>
<polygon fill="midnightblue" stroke="midnightblue" points="321.22,-501.05 331.28,-504.37 325.49,-495.5 321.22,-501.05"/>
</g>
<!-- Node17 -->
<g id="node17" class="node">
<title>Node17</title>
<g id="a_node17"><a xlink:href="api_2spec_2dma_8h.html" target="_top" xlink:title=" ">
<polygon fill="white" stroke="black" points="149,-448.5 149,-467.5 196,-467.5 196,-448.5 149,-448.5"/>
<text text-anchor="middle" x="172.5" y="-455.5" font-family="Helvetica,sans-Serif" font-size="10.00">dma.h</text>
</a>
</g>
</g>
<!-- Node1&#45;&gt;Node17 -->
<g id="edge22" class="edge">
<title>Node1&#45;&gt;Node17</title>
<path fill="none" stroke="midnightblue" d="M305.74,-501.32C272.46,-490.75 224.41,-475.49 196.03,-466.47"/>
<polygon fill="midnightblue" stroke="midnightblue" points="304.97,-504.75 315.56,-504.44 307.09,-498.08 304.97,-504.75"/>
</g>
<!-- Node19 -->
<g id="node19" class="node">
<title>Node19</title>
<g id="a_node19"><a xlink:href="api_2spec_2packet_8h.html" target="_top" xlink:title=" ">
<polygon fill="white" stroke="black" points="502.5,-336.5 502.5,-355.5 560.5,-355.5 560.5,-336.5 502.5,-336.5"/>
<text text-anchor="middle" x="531.5" y="-343.5" font-family="Helvetica,sans-Serif" font-size="10.00">packet.h</text>
</a>
</g>
</g>
<!-- Node1&#45;&gt;Node19 -->
<g id="edge25" class="edge">
<title>Node1&#45;&gt;Node19</title>
<path fill="none" stroke="midnightblue" d="M381.57,-501.04C401.49,-493.65 425.29,-482.74 443.5,-468 484.89,-434.49 516.42,-377.06 527.34,-355.5"/>
<polygon fill="midnightblue" stroke="midnightblue" points="380.4,-497.74 372.14,-504.38 382.74,-504.34 380.4,-497.74"/>
</g>
<!-- Node21 -->
<g id="node21" class="node">
<title>Node21</title>
<g id="a_node21"><a xlink:href="api_2spec_2packet__io__types_8h.html" target="_top" xlink:title=" ">
<polygon fill="white" stroke="black" points="330.5,-448.5 330.5,-467.5 434.5,-467.5 434.5,-448.5 330.5,-448.5"/>
<text text-anchor="middle" x="382.5" y="-455.5" font-family="Helvetica,sans-Serif" font-size="10.00">packet_io_types.h</text>
</a>
</g>
</g>
<!-- Node1&#45;&gt;Node21 -->
<g id="edge28" class="edge">
<title>Node1&#45;&gt;Node21</title>
<path fill="none" stroke="midnightblue" d="M355.2,-495.86C362.13,-486.5 370.41,-475.33 376.02,-467.75"/>
<polygon fill="midnightblue" stroke="midnightblue" points="352.25,-493.96 349.11,-504.08 357.87,-498.13 352.25,-493.96"/>
</g>
<!-- Node25 -->
<g id="node25" class="node">
<title>Node25</title>
<g id="a_node25"><a xlink:href="api_2spec_2pool_8h.html" target="_top" xlink:title=" ">
<polygon fill="white" stroke="black" points="516,-448.5 516,-467.5 563,-467.5 563,-448.5 516,-448.5"/>
<text text-anchor="middle" x="539.5" y="-455.5" font-family="Helvetica,sans-Serif" font-size="10.00">pool.h</text>
</a>
</g>
</g>
<!-- Node1&#45;&gt;Node25 -->
<g id="edge38" class="edge">
<title>Node1&#45;&gt;Node25</title>
<path fill="none" stroke="midnightblue" d="M383.45,-501.78C423.5,-490.8 483.11,-474.46 515.85,-465.48"/>
<polygon fill="midnightblue" stroke="midnightblue" points="382.43,-498.42 373.72,-504.44 384.28,-505.18 382.43,-498.42"/>
</g>
<!-- Node27 -->
<g id="node27" class="node">
<title>Node27</title>
<g id="a_node27"><a xlink:href="api_2spec_2timer_8h.html" target="_top" xlink:title=" ">
<polygon fill="white" stroke="black" points="612,-448.5 612,-467.5 663,-467.5 663,-448.5 612,-448.5"/>
<text text-anchor="middle" x="637.5" y="-455.5" font-family="Helvetica,sans-Serif" font-size="10.00">timer.h</text>
</a>
</g>
</g>
<!-- Node1&#45;&gt;Node27 -->
<g id="edge41" class="edge">
<title>Node1&#45;&gt;Node27</title>
<path fill="none" stroke="midnightblue" d="M392.45,-503.86C455.88,-492.25 562.91,-472.65 611.78,-463.71"/>
<polygon fill="midnightblue" stroke="midnightblue" points="391.49,-500.47 382.29,-505.72 392.75,-507.36 391.49,-500.47"/>
</g>
<!-- Node3 -->
<g id="node3" class="node">
<title>Node3</title>
<g id="a_node3"><a xlink:href="api_2buffer_8h.html" target="_top" xlink:title=" ">
<polygon fill="white" stroke="black" points="0,-112.5 0,-131.5 53,-131.5 53,-112.5 0,-112.5"/>
<text text-anchor="middle" x="26.5" y="-119.5" font-family="Helvetica,sans-Serif" font-size="10.00">buffer.h</text>
</a>
</g>
</g>
<!-- Node2&#45;&gt;Node3 -->
<g id="edge2" class="edge">
<title>Node2&#45;&gt;Node3</title>
<path fill="none" stroke="midnightblue" d="M46.11,-438.34C41.37,-416.56 34.5,-379.37 34.5,-347 34.5,-347 34.5,-347 34.5,-233 34.5,-195.09 29.71,-150.02 27.55,-131.54"/>
<polygon fill="midnightblue" stroke="midnightblue" points="42.72,-439.24 48.34,-448.22 49.55,-437.7 42.72,-439.24"/>
</g>
<!-- Node4 -->
<g id="node4" class="node">
<title>Node4</title>
<g id="a_node4"><a xlink:href="odp__api_8h.html" target="_top" xlink:title=" ">
<polygon fill="white" stroke="black" points="337.5,-0.5 337.5,-19.5 401.5,-19.5 401.5,-0.5 337.5,-0.5"/>
<text text-anchor="middle" x="369.5" y="-7.5" font-family="Helvetica,sans-Serif" font-size="10.00">odp_api.h</text>
</a>
</g>
</g>
<!-- Node3&#45;&gt;Node4 -->
<g id="edge3" class="edge">
<title>Node3&#45;&gt;Node4</title>
<path fill="none" stroke="midnightblue" d="M38.56,-103.6C50.06,-88.45 68.82,-67.19 90.5,-56 133.12,-34 273.35,-19.36 337.26,-13.67"/>
<polygon fill="midnightblue" stroke="midnightblue" points="35.42,-101.96 32.37,-112.11 41.08,-106.08 35.42,-101.96"/>
</g>
<!-- Node6 -->
<g id="node6" class="node">
<title>Node6</title>
<g id="a_node6"><a xlink:href="api_2classification_8h.html" target="_top" xlink:title=" ">
<polygon fill="white" stroke="black" points="256,-280.5 256,-299.5 345,-299.5 345,-280.5 256,-280.5"/>
<text text-anchor="middle" x="300.5" y="-287.5" font-family="Helvetica,sans-Serif" font-size="10.00">classification.h</text>
</a>
</g>
</g>
<!-- Node5&#45;&gt;Node6 -->
<g id="edge5" class="edge">
<title>Node5&#45;&gt;Node6</title>
<path fill="none" stroke="midnightblue" d="M300.5,-325.8C300.5,-316.91 300.5,-306.78 300.5,-299.75"/>
<polygon fill="midnightblue" stroke="midnightblue" points="297,-326.08 300.5,-336.08 304,-326.08 297,-326.08"/>
</g>
<!-- Node6&#45;&gt;Node4 -->
<g id="edge14" class="edge">
<title>Node6&#45;&gt;Node4</title>
<path fill="none" stroke="midnightblue" d="M313.45,-272.44C328.26,-251.79 350.5,-214.82 350.5,-179 350.5,-179 350.5,-179 350.5,-121 350.5,-82.82 361.75,-38.26 366.94,-19.75"/>
<polygon fill="midnightblue" stroke="midnightblue" points="310.62,-270.37 307.45,-280.48 316.23,-274.55 310.62,-270.37"/>
</g>
<!-- Node7 -->
<g id="node7" class="node">
<title>Node7</title>
<g id="a_node7"><a xlink:href="api_2spec_2ipsec__types_8h.html" target="_top" xlink:title=" ">
<polygon fill="white" stroke="black" points="239,-224.5 239,-243.5 322,-243.5 322,-224.5 239,-224.5"/>
<text text-anchor="middle" x="280.5" y="-231.5" font-family="Helvetica,sans-Serif" font-size="10.00">ipsec_types.h</text>
</a>
</g>
</g>
<!-- Node6&#45;&gt;Node7 -->
<g id="edge6" class="edge">
<title>Node6&#45;&gt;Node7</title>
<path fill="none" stroke="midnightblue" d="M293.72,-270.69C290.35,-261.59 286.43,-251.01 283.74,-243.75"/>
<polygon fill="midnightblue" stroke="midnightblue" points="290.44,-271.92 297.2,-280.08 297.01,-269.49 290.44,-271.92"/>
</g>
<!-- Node11 -->
<g id="node11" class="node">
<title>Node11</title>
<g id="a_node11"><a xlink:href="api_2spec_2packet__io_8h.html" target="_top" xlink:title=" ">
<polygon fill="white" stroke="black" points="416.5,-224.5 416.5,-243.5 488.5,-243.5 488.5,-224.5 416.5,-224.5"/>
<text text-anchor="middle" x="452.5" y="-231.5" font-family="Helvetica,sans-Serif" font-size="10.00">packet_io.h</text>
</a>
</g>
</g>
<!-- Node6&#45;&gt;Node11 -->
<g id="edge11" class="edge">
<title>Node6&#45;&gt;Node11</title>
<path fill="none" stroke="midnightblue" d="M334.17,-277.04C362.77,-266.88 403.11,-252.55 428.53,-243.52"/>
<polygon fill="midnightblue" stroke="midnightblue" points="332.84,-273.8 324.58,-280.44 335.18,-280.39 332.84,-273.8"/>
</g>
<!-- Node8 -->
<g id="node8" class="node">
<title>Node8</title>
<g id="a_node8"><a xlink:href="api_2ipsec__types_8h.html" target="_top" xlink:title=" ">
<polygon fill="white" stroke="black" points="239,-168.5 239,-187.5 322,-187.5 322,-168.5 239,-168.5"/>
<text text-anchor="middle" x="280.5" y="-175.5" font-family="Helvetica,sans-Serif" font-size="10.00">ipsec_types.h</text>
</a>
</g>
</g>
<!-- Node7&#45;&gt;Node8 -->
<g id="edge7" class="edge">
<title>Node7&#45;&gt;Node8</title>
<path fill="none" stroke="midnightblue" d="M280.5,-213.8C280.5,-204.91 280.5,-194.78 280.5,-187.75"/>
<polygon fill="midnightblue" stroke="midnightblue" points="277,-214.08 280.5,-224.08 284,-214.08 277,-214.08"/>
</g>
<!-- Node9 -->
<g id="node9" class="node">
<title>Node9</title>
<g id="a_node9"><a xlink:href="api_2spec_2ipsec_8h.html" target="_top" xlink:title=" ">
<polygon fill="white" stroke="black" points="255,-112.5 255,-131.5 306,-131.5 306,-112.5 255,-112.5"/>
<text text-anchor="middle" x="280.5" y="-119.5" font-family="Helvetica,sans-Serif" font-size="10.00">ipsec.h</text>
</a>
</g>
</g>
<!-- Node8&#45;&gt;Node9 -->
<g id="edge8" class="edge">
<title>Node8&#45;&gt;Node9</title>
<path fill="none" stroke="midnightblue" d="M280.5,-157.8C280.5,-148.91 280.5,-138.78 280.5,-131.75"/>
<polygon fill="midnightblue" stroke="midnightblue" points="277,-158.08 280.5,-168.08 284,-158.08 277,-158.08"/>
</g>
<!-- Node10 -->
<g id="node10" class="node">
<title>Node10</title>
<g id="a_node10"><a xlink:href="api_2ipsec_8h.html" target="_top" xlink:title=" ">
<polygon fill="white" stroke="black" points="263,-56.5 263,-75.5 314,-75.5 314,-56.5 263,-56.5"/>
<text text-anchor="middle" x="288.5" y="-63.5" font-family="Helvetica,sans-Serif" font-size="10.00">ipsec.h</text>
</a>
</g>
</g>
<!-- Node9&#45;&gt;Node10 -->
<g id="edge9" class="edge">
<title>Node9&#45;&gt;Node10</title>
<path fill="none" stroke="midnightblue" d="M283.3,-102.1C284.63,-93.14 286.15,-82.86 287.2,-75.75"/>
<polygon fill="midnightblue" stroke="midnightblue" points="279.82,-101.68 281.82,-112.08 286.75,-102.7 279.82,-101.68"/>
</g>
<!-- Node10&#45;&gt;Node4 -->
<g id="edge10" class="edge">
<title>Node10&#45;&gt;Node4</title>
<path fill="none" stroke="midnightblue" d="M310.07,-50.62C324.86,-40.76 344.01,-27.99 356.52,-19.65"/>
<polygon fill="midnightblue" stroke="midnightblue" points="307.89,-47.86 301.51,-56.32 311.78,-53.69 307.89,-47.86"/>
</g>
<!-- Node12 -->
<g id="node12" class="node">
<title>Node12</title>
<g id="a_node12"><a xlink:href="api_2packet__io_8h.html" target="_top" xlink:title=" ">
<polygon fill="white" stroke="black" points="416.5,-168.5 416.5,-187.5 488.5,-187.5 488.5,-168.5 416.5,-168.5"/>
<text text-anchor="middle" x="452.5" y="-175.5" font-family="Helvetica,sans-Serif" font-size="10.00">packet_io.h</text>
</a>
</g>
</g>
<!-- Node11&#45;&gt;Node12 -->
<g id="edge12" class="edge">
<title>Node11&#45;&gt;Node12</title>
<path fill="none" stroke="midnightblue" d="M452.5,-213.8C452.5,-204.91 452.5,-194.78 452.5,-187.75"/>
<polygon fill="midnightblue" stroke="midnightblue" points="449,-214.08 452.5,-224.08 456,-214.08 449,-214.08"/>
</g>
<!-- Node12&#45;&gt;Node4 -->
<g id="edge13" class="edge">
<title>Node12&#45;&gt;Node4</title>
<path fill="none" stroke="midnightblue" d="M446.53,-158.81C438.24,-134.57 422.02,-90.7 402.5,-56 394.9,-42.49 383.91,-28.29 376.74,-19.54"/>
<polygon fill="midnightblue" stroke="midnightblue" points="443.27,-160.09 449.77,-168.46 449.91,-157.87 443.27,-160.09"/>
</g>
<!-- Node14 -->
<g id="node14" class="node">
<title>Node14</title>
<g id="a_node14"><a xlink:href="api_2crypto__types_8h.html" target="_top" xlink:title=" ">
<polygon fill="white" stroke="black" points="110,-280.5 110,-299.5 199,-299.5 199,-280.5 110,-280.5"/>
<text text-anchor="middle" x="154.5" y="-287.5" font-family="Helvetica,sans-Serif" font-size="10.00">crypto_types.h</text>
</a>
</g>
</g>
<!-- Node13&#45;&gt;Node14 -->
<g id="edge16" class="edge">
<title>Node13&#45;&gt;Node14</title>
<path fill="none" stroke="midnightblue" d="M192.14,-383C182.32,-359 165.33,-317.47 158.01,-299.59"/>
<polygon fill="midnightblue" stroke="midnightblue" points="188.94,-384.44 195.97,-392.37 195.42,-381.79 188.94,-384.44"/>
</g>
<!-- Node14&#45;&gt;Node7 -->
<g id="edge21" class="edge">
<title>Node14&#45;&gt;Node7</title>
<path fill="none" stroke="midnightblue" d="M183.66,-276.5C207.28,-266.38 239.93,-252.39 260.63,-243.52"/>
<polygon fill="midnightblue" stroke="midnightblue" points="182.28,-273.29 174.47,-280.44 185.04,-279.72 182.28,-273.29"/>
</g>
<!-- Node14&#45;&gt;Node9 -->
<g id="edge20" class="edge">
<title>Node14&#45;&gt;Node9</title>
<path fill="none" stroke="midnightblue" d="M169.14,-273.01C176.35,-264.7 184.89,-254.18 191.5,-244 212.07,-212.33 206.47,-197.93 229.5,-168 240.73,-153.4 257.21,-139.88 268.38,-131.55"/>
<polygon fill="midnightblue" stroke="midnightblue" points="166.52,-270.69 162.49,-280.49 171.75,-275.34 166.52,-270.69"/>
</g>
<!-- Node15 -->
<g id="node15" class="node">
<title>Node15</title>
<g id="a_node15"><a xlink:href="api_2spec_2crypto_8h.html" target="_top" xlink:title=" ">
<polygon fill="white" stroke="black" points="126.5,-224.5 126.5,-243.5 182.5,-243.5 182.5,-224.5 126.5,-224.5"/>
<text text-anchor="middle" x="154.5" y="-231.5" font-family="Helvetica,sans-Serif" font-size="10.00">crypto.h</text>
</a>
</g>
</g>
<!-- Node14&#45;&gt;Node15 -->
<g id="edge17" class="edge">
<title>Node14&#45;&gt;Node15</title>
<path fill="none" stroke="midnightblue" d="M154.5,-269.8C154.5,-260.91 154.5,-250.78 154.5,-243.75"/>
<polygon fill="midnightblue" stroke="midnightblue" points="151,-270.08 154.5,-280.08 158,-270.08 151,-270.08"/>
</g>
<!-- Node16 -->
<g id="node16" class="node">
<title>Node16</title>
<g id="a_node16"><a xlink:href="api_2crypto_8h.html" target="_top" xlink:title=" ">
<polygon fill="white" stroke="black" points="126.5,-168.5 126.5,-187.5 182.5,-187.5 182.5,-168.5 126.5,-168.5"/>
<text text-anchor="middle" x="154.5" y="-175.5" font-family="Helvetica,sans-Serif" font-size="10.00">crypto.h</text>
</a>
</g>
</g>
<!-- Node15&#45;&gt;Node16 -->
<g id="edge18" class="edge">
<title>Node15&#45;&gt;Node16</title>
<path fill="none" stroke="midnightblue" d="M154.5,-213.8C154.5,-204.91 154.5,-194.78 154.5,-187.75"/>
<polygon fill="midnightblue" stroke="midnightblue" points="151,-214.08 154.5,-224.08 158,-214.08 151,-214.08"/>
</g>
<!-- Node16&#45;&gt;Node4 -->
<g id="edge19" class="edge">
<title>Node16&#45;&gt;Node4</title>
<path fill="none" stroke="midnightblue" d="M164.57,-159.69C180.43,-133.81 213.56,-84.97 253.5,-56 278.85,-37.61 312.7,-25.61 337.29,-18.67"/>
<polygon fill="midnightblue" stroke="midnightblue" points="161.49,-158.02 159.36,-168.4 167.5,-161.61 161.49,-158.02"/>
</g>
<!-- Node18 -->
<g id="node18" class="node">
<title>Node18</title>
<g id="a_node18"><a xlink:href="api_2dma_8h.html" target="_top" xlink:title=" ">
<polygon fill="white" stroke="black" points="100,-56.5 100,-75.5 147,-75.5 147,-56.5 100,-56.5"/>
<text text-anchor="middle" x="123.5" y="-63.5" font-family="Helvetica,sans-Serif" font-size="10.00">dma.h</text>
</a>
</g>
</g>
<!-- Node17&#45;&gt;Node18 -->
<g id="edge23" class="edge">
<title>Node17&#45;&gt;Node18</title>
<path fill="none" stroke="midnightblue" d="M149.35,-442.88C122.39,-424.47 81.5,-389.53 81.5,-347 81.5,-347 81.5,-347 81.5,-177 81.5,-136.93 106.12,-93.74 117.66,-75.69"/>
<polygon fill="midnightblue" stroke="midnightblue" points="147.6,-445.92 157.88,-448.48 151.44,-440.07 147.6,-445.92"/>
</g>
<!-- Node18&#45;&gt;Node4 -->
<g id="edge24" class="edge">
<title>Node18&#45;&gt;Node4</title>
<path fill="none" stroke="midnightblue" d="M157.15,-57.61C204.55,-47.21 290.41,-28.36 337.12,-18.11"/>
<polygon fill="midnightblue" stroke="midnightblue" points="156.1,-54.26 147.09,-59.82 157.61,-61.1 156.1,-54.26"/>
</g>
<!-- Node20 -->
<g id="node20" class="node">
<title>Node20</title>
<g id="a_node20"><a xlink:href="api_2packet_8h.html" target="_top" xlink:title=" ">
<polygon fill="white" stroke="black" points="479.5,-56.5 479.5,-75.5 537.5,-75.5 537.5,-56.5 479.5,-56.5"/>
<text text-anchor="middle" x="508.5" y="-63.5" font-family="Helvetica,sans-Serif" font-size="10.00">packet.h</text>
</a>
</g>
</g>
<!-- Node19&#45;&gt;Node20 -->
<g id="edge26" class="edge">
<title>Node19&#45;&gt;Node20</title>
<path fill="none" stroke="midnightblue" d="M531.5,-326.25C531.5,-304.36 531.5,-267.05 531.5,-235 531.5,-235 531.5,-235 531.5,-177 531.5,-138.56 517.88,-94.14 511.6,-75.71"/>
<polygon fill="midnightblue" stroke="midnightblue" points="528,-326.44 531.5,-336.44 535,-326.44 528,-326.44"/>
</g>
<!-- Node20&#45;&gt;Node4 -->
<g id="edge27" class="edge">
<title>Node20&#45;&gt;Node4</title>
<path fill="none" stroke="midnightblue" d="M477.02,-52.77C450.91,-42.63 414.46,-28.47 391.42,-19.52"/>
<polygon fill="midnightblue" stroke="midnightblue" points="475.89,-56.08 486.48,-56.44 478.42,-49.56 475.89,-56.08"/>
</g>
<!-- Node22 -->
<g id="node22" class="node">
<title>Node22</title>
<g id="a_node22"><a xlink:href="api_2packet__io__types_8h.html" target="_top" xlink:title=" ">
<polygon fill="white" stroke="black" points="342.5,-392.5 342.5,-411.5 446.5,-411.5 446.5,-392.5 342.5,-392.5"/>
<text text-anchor="middle" x="394.5" y="-399.5" font-family="Helvetica,sans-Serif" font-size="10.00">packet_io_types.h</text>
</a>
</g>
</g>
<!-- Node21&#45;&gt;Node22 -->
<g id="edge29" class="edge">
<title>Node21&#45;&gt;Node22</title>
<path fill="none" stroke="midnightblue" d="M386.7,-438.1C388.69,-429.14 390.98,-418.86 392.56,-411.75"/>
<polygon fill="midnightblue" stroke="midnightblue" points="383.23,-437.56 384.48,-448.08 390.07,-439.08 383.23,-437.56"/>
</g>
<!-- Node22&#45;&gt;Node5 -->
<g id="edge30" class="edge">
<title>Node22&#45;&gt;Node5</title>
<path fill="none" stroke="midnightblue" d="M370.44,-387.18C353.14,-377.24 330.35,-364.15 315.57,-355.65"/>
<polygon fill="midnightblue" stroke="midnightblue" points="368.98,-390.38 379.4,-392.32 372.47,-384.31 368.98,-390.38"/>
</g>
<!-- Node22&#45;&gt;Node7 -->
<g id="edge31" class="edge">
<title>Node22&#45;&gt;Node7</title>
<path fill="none" stroke="midnightblue" d="M332.56,-398.74C301.46,-394.08 266.27,-382.67 246.5,-356 226.39,-328.86 235.76,-312.03 246.5,-280 251.36,-265.52 262.92,-251.98 271.21,-243.61"/>
<polygon fill="midnightblue" stroke="midnightblue" points="332.13,-402.22 342.49,-400.03 333.03,-395.27 332.13,-402.22"/>
</g>
<!-- Node22&#45;&gt;Node11 -->
<g id="edge33" class="edge">
<title>Node22&#45;&gt;Node11</title>
<path fill="none" stroke="midnightblue" d="M423.5,-387.33C435.73,-379.92 448.69,-369.48 455.5,-356 474.73,-317.92 461.58,-264.15 455.3,-243.52"/>
<polygon fill="midnightblue" stroke="midnightblue" points="421.43,-384.48 414.41,-392.41 424.84,-390.59 421.43,-384.48"/>
</g>
<!-- Node22&#45;&gt;Node19 -->
<g id="edge32" class="edge">
<title>Node22&#45;&gt;Node19</title>
<path fill="none" stroke="midnightblue" d="M425.52,-388.77C451.26,-378.63 487.19,-364.47 509.89,-355.52"/>
<polygon fill="midnightblue" stroke="midnightblue" points="424.23,-385.52 416.21,-392.44 426.79,-392.03 424.23,-385.52"/>
</g>
<!-- Node23 -->
<g id="node23" class="node">
<title>Node23</title>
<g id="a_node23"><a xlink:href="api_2spec_2traffic__mngr_8h.html" target="_top" xlink:title=" ">
<polygon fill="white" stroke="black" points="362.5,-336.5 362.5,-355.5 446.5,-355.5 446.5,-336.5 362.5,-336.5"/>
<text text-anchor="middle" x="404.5" y="-343.5" font-family="Helvetica,sans-Serif" font-size="10.00">traffic_mngr.h</text>
</a>
</g>
</g>
<!-- Node22&#45;&gt;Node23 -->
<g id="edge34" class="edge">
<title>Node22&#45;&gt;Node23</title>
<path fill="none" stroke="midnightblue" d="M398,-382.1C399.66,-373.14 401.56,-362.86 402.88,-355.75"/>
<polygon fill="midnightblue" stroke="midnightblue" points="394.53,-381.61 396.15,-392.08 401.41,-382.89 394.53,-381.61"/>
</g>
<!-- Node24 -->
<g id="node24" class="node">
<title>Node24</title>
<g id="a_node24"><a xlink:href="api_2traffic__mngr_8h.html" target="_top" xlink:title=" ">
<polygon fill="white" stroke="black" points="362.5,-280.5 362.5,-299.5 446.5,-299.5 446.5,-280.5 362.5,-280.5"/>
<text text-anchor="middle" x="404.5" y="-287.5" font-family="Helvetica,sans-Serif" font-size="10.00">traffic_mngr.h</text>
</a>
</g>
</g>
<!-- Node23&#45;&gt;Node24 -->
<g id="edge35" class="edge">
<title>Node23&#45;&gt;Node24</title>
<path fill="none" stroke="midnightblue" d="M404.5,-325.8C404.5,-316.91 404.5,-306.78 404.5,-299.75"/>
<polygon fill="midnightblue" stroke="midnightblue" points="401,-326.08 404.5,-336.08 408,-326.08 401,-326.08"/>
</g>
<!-- Node24&#45;&gt;Node4 -->
<g id="edge37" class="edge">
<title>Node24&#45;&gt;Node4</title>
<path fill="none" stroke="midnightblue" d="M400.11,-270.34C395.37,-248.56 388.5,-211.37 388.5,-179 388.5,-179 388.5,-179 388.5,-121 388.5,-82.82 377.25,-38.26 372.06,-19.75"/>
<polygon fill="midnightblue" stroke="midnightblue" points="396.72,-271.24 402.34,-280.22 403.55,-269.7 396.72,-271.24"/>
</g>
<!-- Node24&#45;&gt;Node7 -->
<g id="edge36" class="edge">
<title>Node24&#45;&gt;Node7</title>
<path fill="none" stroke="midnightblue" d="M375.49,-276.37C352.27,-266.26 320.34,-252.35 300.06,-243.52"/>
<polygon fill="midnightblue" stroke="midnightblue" points="374.29,-279.66 384.85,-280.44 377.08,-273.24 374.29,-279.66"/>
</g>
<!-- Node26 -->
<g id="node26" class="node">
<title>Node26</title>
<g id="a_node26"><a xlink:href="api_2pool_8h.html" target="_top" xlink:title=" ">
<polygon fill="white" stroke="black" points="563,-112.5 563,-131.5 610,-131.5 610,-112.5 563,-112.5"/>
<text text-anchor="middle" x="586.5" y="-119.5" font-family="Helvetica,sans-Serif" font-size="10.00">pool.h</text>
</a>
</g>
</g>
<!-- Node25&#45;&gt;Node26 -->
<g id="edge39" class="edge">
<title>Node25&#45;&gt;Node26</title>
<path fill="none" stroke="midnightblue" d="M552.38,-440.12C566.9,-419.37 588.5,-382.53 588.5,-347 588.5,-347 588.5,-347 588.5,-233 588.5,-195.18 587.3,-150.06 586.76,-131.56"/>
<polygon fill="midnightblue" stroke="midnightblue" points="549.37,-438.31 546.31,-448.46 555.03,-442.43 549.37,-438.31"/>
</g>
<!-- Node26&#45;&gt;Node4 -->
<g id="edge40" class="edge">
<title>Node26&#45;&gt;Node4</title>
<path fill="none" stroke="midnightblue" d="M579.8,-102.76C573.45,-87.98 562.48,-67.75 546.5,-56 503.2,-24.16 439.65,-14.76 401.64,-12.04"/>
<polygon fill="midnightblue" stroke="midnightblue" points="576.67,-104.35 583.62,-112.35 583.17,-101.77 576.67,-104.35"/>
</g>
<!-- Node28 -->
<g id="node28" class="node">
<title>Node28</title>
<g id="a_node28"><a xlink:href="api_2timer_8h.html" target="_top" xlink:title=" ">
<polygon fill="white" stroke="black" points="617,-392.5 617,-411.5 668,-411.5 668,-392.5 617,-392.5"/>
<text text-anchor="middle" x="642.5" y="-399.5" font-family="Helvetica,sans-Serif" font-size="10.00">timer.h</text>
</a>
</g>
</g>
<!-- Node27&#45;&gt;Node28 -->
<g id="edge42" class="edge">
<title>Node27&#45;&gt;Node28</title>
<path fill="none" stroke="midnightblue" d="M639.25,-438.1C640.08,-429.14 641.03,-418.86 641.69,-411.75"/>
<polygon fill="midnightblue" stroke="midnightblue" points="635.76,-437.8 638.33,-448.08 642.73,-438.45 635.76,-437.8"/>
</g>
<!-- Node28&#45;&gt;Node4 -->
<g id="edge43" class="edge">
<title>Node28&#45;&gt;Node4</title>
<path fill="none" stroke="midnightblue" d="M641.95,-382.25C641.36,-360.36 640.5,-323.06 640.5,-291 640.5,-291 640.5,-291 640.5,-121 640.5,-78.54 608.07,-75.77 570.5,-56 515.59,-27.11 442.79,-16.71 401.56,-13.01"/>
<polygon fill="midnightblue" stroke="midnightblue" points="638.46,-382.55 642.24,-392.44 645.46,-382.35 638.46,-382.55"/>
</g>
</g>
</svg>
