<?xml version="1.0" encoding="UTF-8" standalone="no"?>
<!DOCTYPE svg PUBLIC "-//W3C//DTD SVG 1.1//EN"
 "http://www.w3.org/Graphics/SVG/1.1/DTD/svg11.dtd">
<!-- Generated by graphviz version 2.43.0 (0)
 -->
<!-- Title: cpumask.h Pages: 1 -->
<svg width="1049pt" height="924pt"
 viewBox="0.00 0.00 1049.36 924.00" xmlns="http://www.w3.org/2000/svg" xmlns:xlink="http://www.w3.org/1999/xlink">
<g id="graph0" class="graph" transform="scale(1 1) rotate(0) translate(4 920)">
<title>cpumask.h</title>
<polygon fill="white" stroke="transparent" points="-4,4 -4,-920 1045.36,-920 1045.36,4 -4,4"/>
<!-- Node1 -->
<g id="node1" class="node">
<title>Node1</title>
<g id="a_node1"><a xlink:title=" ">
<polygon fill="#bfbfbf" stroke="black" points="631,-896.5 631,-915.5 701,-915.5 701,-896.5 631,-896.5"/>
<text text-anchor="middle" x="666" y="-903.5" font-family="Helvetica,sans-Serif" font-size="10.00">cpumask.h</text>
</a>
</g>
</g>
<!-- Node2 -->
<g id="node2" class="node">
<title>Node2</title>
<g id="a_node2"><a xlink:href="arch_2arm32-linux_2odp_2api_2abi_2cpumask_8h_source.html" target="_top" xlink:title=" ">
<polygon fill="white" stroke="black" points="411,-840.5 411,-859.5 481,-859.5 481,-840.5 411,-840.5"/>
<text text-anchor="middle" x="446" y="-847.5" font-family="Helvetica,sans-Serif" font-size="10.00">cpumask.h</text>
</a>
</g>
</g>
<!-- Node1&#45;&gt;Node2 -->
<g id="edge1" class="edge">
<title>Node1&#45;&gt;Node2</title>
<path fill="none" stroke="midnightblue" d="M621.28,-894.02C579.72,-883.82 518.69,-868.84 480.7,-859.52"/>
<polygon fill="midnightblue" stroke="midnightblue" points="620.59,-897.46 631.14,-896.44 622.26,-890.66 620.59,-897.46"/>
</g>
<!-- Node3 -->
<g id="node3" class="node">
<title>Node3</title>
<g id="a_node3"><a xlink:href="arch_2arm64-linux_2odp_2api_2abi_2cpumask_8h_source.html" target="_top" xlink:title=" ">
<polygon fill="white" stroke="black" points="499,-840.5 499,-859.5 569,-859.5 569,-840.5 499,-840.5"/>
<text text-anchor="middle" x="534" y="-847.5" font-family="Helvetica,sans-Serif" font-size="10.00">cpumask.h</text>
</a>
</g>
</g>
<!-- Node1&#45;&gt;Node3 -->
<g id="edge2" class="edge">
<title>Node1&#45;&gt;Node3</title>
<path fill="none" stroke="midnightblue" d="M635.78,-892.64C611.01,-882.5 576.6,-868.43 554.82,-859.52"/>
<polygon fill="midnightblue" stroke="midnightblue" points="634.5,-895.9 645.08,-896.44 637.15,-889.42 634.5,-895.9"/>
</g>
<!-- Node4 -->
<g id="node4" class="node">
<title>Node4</title>
<g id="a_node4"><a xlink:href="arch_2default-linux_2odp_2api_2abi_2cpumask_8h_source.html" target="_top" xlink:title=" ">
<polygon fill="white" stroke="black" points="587,-840.5 587,-859.5 657,-859.5 657,-840.5 587,-840.5"/>
<text text-anchor="middle" x="622" y="-847.5" font-family="Helvetica,sans-Serif" font-size="10.00">cpumask.h</text>
</a>
</g>
</g>
<!-- Node1&#45;&gt;Node4 -->
<g id="edge3" class="edge">
<title>Node1&#45;&gt;Node4</title>
<path fill="none" stroke="midnightblue" d="M652.27,-888.14C644.6,-878.74 635.37,-867.4 629.13,-859.75"/>
<polygon fill="midnightblue" stroke="midnightblue" points="649.7,-890.54 658.73,-896.08 655.13,-886.12 649.7,-890.54"/>
</g>
<!-- Node5 -->
<g id="node5" class="node">
<title>Node5</title>
<g id="a_node5"><a xlink:href="arch_2power64-linux_2odp_2api_2abi_2cpumask_8h_source.html" target="_top" xlink:title=" ">
<polygon fill="white" stroke="black" points="675,-840.5 675,-859.5 745,-859.5 745,-840.5 675,-840.5"/>
<text text-anchor="middle" x="710" y="-847.5" font-family="Helvetica,sans-Serif" font-size="10.00">cpumask.h</text>
</a>
</g>
</g>
<!-- Node1&#45;&gt;Node5 -->
<g id="edge4" class="edge">
<title>Node1&#45;&gt;Node5</title>
<path fill="none" stroke="midnightblue" d="M679.73,-888.14C687.4,-878.74 696.63,-867.4 702.87,-859.75"/>
<polygon fill="midnightblue" stroke="midnightblue" points="676.87,-886.12 673.27,-896.08 682.3,-890.54 676.87,-886.12"/>
</g>
<!-- Node6 -->
<g id="node6" class="node">
<title>Node6</title>
<g id="a_node6"><a xlink:href="arch_2x86__32-linux_2odp_2api_2abi_2cpumask_8h_source.html" target="_top" xlink:title=" ">
<polygon fill="white" stroke="black" points="763,-840.5 763,-859.5 833,-859.5 833,-840.5 763,-840.5"/>
<text text-anchor="middle" x="798" y="-847.5" font-family="Helvetica,sans-Serif" font-size="10.00">cpumask.h</text>
</a>
</g>
</g>
<!-- Node1&#45;&gt;Node6 -->
<g id="edge5" class="edge">
<title>Node1&#45;&gt;Node6</title>
<path fill="none" stroke="midnightblue" d="M696.22,-892.64C720.99,-882.5 755.4,-868.43 777.18,-859.52"/>
<polygon fill="midnightblue" stroke="midnightblue" points="694.85,-889.42 686.92,-896.44 697.5,-895.9 694.85,-889.42"/>
</g>
<!-- Node7 -->
<g id="node7" class="node">
<title>Node7</title>
<g id="a_node7"><a xlink:href="arch_2x86__64-linux_2odp_2api_2abi_2cpumask_8h_source.html" target="_top" xlink:title=" ">
<polygon fill="white" stroke="black" points="851,-840.5 851,-859.5 921,-859.5 921,-840.5 851,-840.5"/>
<text text-anchor="middle" x="886" y="-847.5" font-family="Helvetica,sans-Serif" font-size="10.00">cpumask.h</text>
</a>
</g>
</g>
<!-- Node1&#45;&gt;Node7 -->
<g id="edge6" class="edge">
<title>Node1&#45;&gt;Node7</title>
<path fill="none" stroke="midnightblue" d="M710.72,-894.02C752.28,-883.82 813.31,-868.84 851.3,-859.52"/>
<polygon fill="midnightblue" stroke="midnightblue" points="709.74,-890.66 700.86,-896.44 711.41,-897.46 709.74,-890.66"/>
</g>
<!-- Node8 -->
<g id="node8" class="node">
<title>Node8</title>
<g id="a_node8"><a xlink:href="api_2cpumask_8h.html" target="_top" xlink:title=" ">
<polygon fill="white" stroke="black" points="851,-784.5 851,-803.5 921,-803.5 921,-784.5 851,-784.5"/>
<text text-anchor="middle" x="886" y="-791.5" font-family="Helvetica,sans-Serif" font-size="10.00">cpumask.h</text>
</a>
</g>
</g>
<!-- Node7&#45;&gt;Node8 -->
<g id="edge7" class="edge">
<title>Node7&#45;&gt;Node8</title>
<path fill="none" stroke="midnightblue" d="M886,-829.8C886,-820.91 886,-810.78 886,-803.75"/>
<polygon fill="midnightblue" stroke="midnightblue" points="882.5,-830.08 886,-840.08 889.5,-830.08 882.5,-830.08"/>
</g>
<!-- Node9 -->
<g id="node9" class="node">
<title>Node9</title>
<g id="a_node9"><a xlink:href="api_2abi-default_2thrmask_8h.html" target="_top" xlink:title=" ">
<polygon fill="white" stroke="black" points="577,-728.5 577,-747.5 643,-747.5 643,-728.5 577,-728.5"/>
<text text-anchor="middle" x="610" y="-735.5" font-family="Helvetica,sans-Serif" font-size="10.00">thrmask.h</text>
</a>
</g>
</g>
<!-- Node8&#45;&gt;Node9 -->
<g id="edge8" class="edge">
<title>Node8&#45;&gt;Node9</title>
<path fill="none" stroke="midnightblue" d="M840.87,-784.17C785.43,-773.32 692.68,-755.18 643.3,-745.52"/>
<polygon fill="midnightblue" stroke="midnightblue" points="840.28,-787.62 850.76,-786.11 841.62,-780.75 840.28,-787.62"/>
</g>
<!-- Node19 -->
<g id="node19" class="node">
<title>Node19</title>
<g id="a_node19"><a xlink:href="odp__api_8h.html" target="_top" xlink:title=" ">
<polygon fill="white" stroke="black" points="710,-0.5 710,-19.5 774,-19.5 774,-0.5 710,-0.5"/>
<text text-anchor="middle" x="742" y="-7.5" font-family="Helvetica,sans-Serif" font-size="10.00">odp_api.h</text>
</a>
</g>
</g>
<!-- Node8&#45;&gt;Node19 -->
<g id="edge67" class="edge">
<title>Node8&#45;&gt;Node19</title>
<path fill="none" stroke="midnightblue" d="M886,-774.25C886,-752.36 886,-715.05 886,-683 886,-683 886,-683 886,-121 886,-90.77 886.84,-77.9 866,-56 841.77,-30.53 802.01,-19.43 774.06,-14.62"/>
<polygon fill="midnightblue" stroke="midnightblue" points="882.5,-774.44 886,-784.44 889.5,-774.44 882.5,-774.44"/>
</g>
<!-- Node66 -->
<g id="node47" class="node">
<title>Node66</title>
<g id="a_node47"><a xlink:href="api_2spec_2init_8h.html" target="_top" xlink:title=" ">
<polygon fill="white" stroke="black" points="922.5,-728.5 922.5,-747.5 963.5,-747.5 963.5,-728.5 922.5,-728.5"/>
<text text-anchor="middle" x="943" y="-735.5" font-family="Helvetica,sans-Serif" font-size="10.00">init.h</text>
</a>
</g>
</g>
<!-- Node8&#45;&gt;Node66 -->
<g id="edge61" class="edge">
<title>Node8&#45;&gt;Node66</title>
<path fill="none" stroke="midnightblue" d="M902.62,-777.25C912.73,-767.67 925.28,-755.79 933.68,-747.83"/>
<polygon fill="midnightblue" stroke="midnightblue" points="900.01,-774.91 895.16,-784.32 904.82,-779.99 900.01,-774.91"/>
</g>
<!-- Node10 -->
<g id="node10" class="node">
<title>Node10</title>
<g id="a_node10"><a xlink:href="arch_2arm32-linux_2odp_2api_2abi_2thrmask_8h_source.html" target="_top" xlink:title=" ">
<polygon fill="white" stroke="black" points="325,-672.5 325,-691.5 391,-691.5 391,-672.5 325,-672.5"/>
<text text-anchor="middle" x="358" y="-679.5" font-family="Helvetica,sans-Serif" font-size="10.00">thrmask.h</text>
</a>
</g>
</g>
<!-- Node9&#45;&gt;Node10 -->
<g id="edge9" class="edge">
<title>Node9&#45;&gt;Node10</title>
<path fill="none" stroke="midnightblue" d="M566.98,-727.78C517.25,-717.12 436.45,-699.81 391.28,-690.13"/>
<polygon fill="midnightblue" stroke="midnightblue" points="566.28,-731.21 576.8,-729.88 567.75,-724.37 566.28,-731.21"/>
</g>
<!-- Node11 -->
<g id="node11" class="node">
<title>Node11</title>
<g id="a_node11"><a xlink:href="arch_2arm64-linux_2odp_2api_2abi_2thrmask_8h_source.html" target="_top" xlink:title=" ">
<polygon fill="white" stroke="black" points="409,-672.5 409,-691.5 475,-691.5 475,-672.5 409,-672.5"/>
<text text-anchor="middle" x="442" y="-679.5" font-family="Helvetica,sans-Serif" font-size="10.00">thrmask.h</text>
</a>
</g>
</g>
<!-- Node9&#45;&gt;Node11 -->
<g id="edge10" class="edge">
<title>Node9&#45;&gt;Node11</title>
<path fill="none" stroke="midnightblue" d="M573.61,-725.3C541.96,-715.13 496.83,-700.62 468.5,-691.52"/>
<polygon fill="midnightblue" stroke="midnightblue" points="572.79,-728.72 583.38,-728.44 574.93,-722.05 572.79,-728.72"/>
</g>
<!-- Node12 -->
<g id="node12" class="node">
<title>Node12</title>
<g id="a_node12"><a xlink:href="arch_2default-linux_2odp_2api_2abi_2thrmask_8h_source.html" target="_top" xlink:title=" ">
<polygon fill="white" stroke="black" points="493,-672.5 493,-691.5 559,-691.5 559,-672.5 493,-672.5"/>
<text text-anchor="middle" x="526" y="-679.5" font-family="Helvetica,sans-Serif" font-size="10.00">thrmask.h</text>
</a>
</g>
</g>
<!-- Node9&#45;&gt;Node12 -->
<g id="edge11" class="edge">
<title>Node9&#45;&gt;Node12</title>
<path fill="none" stroke="midnightblue" d="M588.07,-722.9C572.66,-713 552.55,-700.07 539.46,-691.65"/>
<polygon fill="midnightblue" stroke="midnightblue" points="586.2,-725.86 596.5,-728.32 589.98,-719.97 586.2,-725.86"/>
</g>
<!-- Node13 -->
<g id="node13" class="node">
<title>Node13</title>
<g id="a_node13"><a xlink:href="arch_2power64-linux_2odp_2api_2abi_2thrmask_8h_source.html" target="_top" xlink:title=" ">
<polygon fill="white" stroke="black" points="577,-672.5 577,-691.5 643,-691.5 643,-672.5 577,-672.5"/>
<text text-anchor="middle" x="610" y="-679.5" font-family="Helvetica,sans-Serif" font-size="10.00">thrmask.h</text>
</a>
</g>
</g>
<!-- Node9&#45;&gt;Node13 -->
<g id="edge12" class="edge">
<title>Node9&#45;&gt;Node13</title>
<path fill="none" stroke="midnightblue" d="M610,-717.8C610,-708.91 610,-698.78 610,-691.75"/>
<polygon fill="midnightblue" stroke="midnightblue" points="606.5,-718.08 610,-728.08 613.5,-718.08 606.5,-718.08"/>
</g>
<!-- Node14 -->
<g id="node14" class="node">
<title>Node14</title>
<g id="a_node14"><a xlink:href="arch_2x86__32-linux_2odp_2api_2abi_2thrmask_8h_source.html" target="_top" xlink:title=" ">
<polygon fill="white" stroke="black" points="661,-672.5 661,-691.5 727,-691.5 727,-672.5 661,-672.5"/>
<text text-anchor="middle" x="694" y="-679.5" font-family="Helvetica,sans-Serif" font-size="10.00">thrmask.h</text>
</a>
</g>
</g>
<!-- Node9&#45;&gt;Node14 -->
<g id="edge13" class="edge">
<title>Node9&#45;&gt;Node14</title>
<path fill="none" stroke="midnightblue" d="M631.93,-722.9C647.34,-713 667.45,-700.07 680.54,-691.65"/>
<polygon fill="midnightblue" stroke="midnightblue" points="630.02,-719.97 623.5,-728.32 633.8,-725.86 630.02,-719.97"/>
</g>
<!-- Node15 -->
<g id="node15" class="node">
<title>Node15</title>
<g id="a_node15"><a xlink:href="arch_2x86__64-linux_2odp_2api_2abi_2thrmask_8h_source.html" target="_top" xlink:title=" ">
<polygon fill="white" stroke="black" points="745,-672.5 745,-691.5 811,-691.5 811,-672.5 745,-672.5"/>
<text text-anchor="middle" x="778" y="-679.5" font-family="Helvetica,sans-Serif" font-size="10.00">thrmask.h</text>
</a>
</g>
</g>
<!-- Node9&#45;&gt;Node15 -->
<g id="edge14" class="edge">
<title>Node9&#45;&gt;Node15</title>
<path fill="none" stroke="midnightblue" d="M646.39,-725.3C678.04,-715.13 723.17,-700.62 751.5,-691.52"/>
<polygon fill="midnightblue" stroke="midnightblue" points="645.07,-722.05 636.62,-728.44 647.21,-728.72 645.07,-722.05"/>
</g>
<!-- Node16 -->
<g id="node16" class="node">
<title>Node16</title>
<g id="a_node16"><a xlink:href="api_2thrmask_8h.html" target="_top" xlink:title=" ">
<polygon fill="white" stroke="black" points="662,-616.5 662,-635.5 728,-635.5 728,-616.5 662,-616.5"/>
<text text-anchor="middle" x="695" y="-623.5" font-family="Helvetica,sans-Serif" font-size="10.00">thrmask.h</text>
</a>
</g>
</g>
<!-- Node15&#45;&gt;Node16 -->
<g id="edge15" class="edge">
<title>Node15&#45;&gt;Node16</title>
<path fill="none" stroke="midnightblue" d="M755.9,-666.62C740.74,-656.76 721.12,-643.99 708.3,-635.65"/>
<polygon fill="midnightblue" stroke="midnightblue" points="754.37,-669.8 764.66,-672.32 758.19,-663.94 754.37,-669.8"/>
</g>
<!-- Node17 -->
<g id="node17" class="node">
<title>Node17</title>
<g id="a_node17"><a xlink:href="api_2spec_2schedule_8h.html" target="_top" xlink:title=" ">
<polygon fill="white" stroke="black" points="699.5,-336.5 699.5,-355.5 768.5,-355.5 768.5,-336.5 699.5,-336.5"/>
<text text-anchor="middle" x="734" y="-343.5" font-family="Helvetica,sans-Serif" font-size="10.00">schedule.h</text>
</a>
</g>
</g>
<!-- Node16&#45;&gt;Node17 -->
<g id="edge16" class="edge">
<title>Node16&#45;&gt;Node17</title>
<path fill="none" stroke="midnightblue" d="M705.41,-607.46C716.96,-586.3 734,-549.28 734,-515 734,-515 734,-515 734,-457 734,-419.19 734,-374.06 734,-355.56"/>
<polygon fill="midnightblue" stroke="midnightblue" points="702.31,-605.83 700.42,-616.25 708.4,-609.28 702.31,-605.83"/>
</g>
<!-- Node16&#45;&gt;Node19 -->
<g id="edge60" class="edge">
<title>Node16&#45;&gt;Node19</title>
<path fill="none" stroke="midnightblue" d="M651.61,-622.74C499.56,-614.24 0,-581.29 0,-515 0,-515 0,-515 0,-121 0,-59.56 62.97,-73.04 122,-56 234.11,-23.64 599.23,-13.84 709.91,-11.58"/>
<polygon fill="midnightblue" stroke="midnightblue" points="651.77,-626.25 661.95,-623.31 652.15,-619.26 651.77,-626.25"/>
</g>
<!-- Node20 -->
<g id="node20" class="node">
<title>Node20</title>
<g id="a_node20"><a xlink:href="api_2spec_2schedule__types_8h.html" target="_top" xlink:title=" ">
<polygon fill="white" stroke="black" points="604.5,-560.5 604.5,-579.5 705.5,-579.5 705.5,-560.5 604.5,-560.5"/>
<text text-anchor="middle" x="655" y="-567.5" font-family="Helvetica,sans-Serif" font-size="10.00">schedule_types.h</text>
</a>
</g>
</g>
<!-- Node16&#45;&gt;Node20 -->
<g id="edge19" class="edge">
<title>Node16&#45;&gt;Node20</title>
<path fill="none" stroke="midnightblue" d="M682.3,-607.86C675.37,-598.5 667.09,-587.33 661.48,-579.75"/>
<polygon fill="midnightblue" stroke="midnightblue" points="679.63,-610.13 688.39,-616.08 685.25,-605.96 679.63,-610.13"/>
</g>
<!-- Node18 -->
<g id="node18" class="node">
<title>Node18</title>
<g id="a_node18"><a xlink:href="api_2schedule_8h.html" target="_top" xlink:title=" ">
<polygon fill="white" stroke="black" points="788.5,-56.5 788.5,-75.5 857.5,-75.5 857.5,-56.5 788.5,-56.5"/>
<text text-anchor="middle" x="823" y="-63.5" font-family="Helvetica,sans-Serif" font-size="10.00">schedule.h</text>
</a>
</g>
</g>
<!-- Node17&#45;&gt;Node18 -->
<g id="edge17" class="edge">
<title>Node17&#45;&gt;Node18</title>
<path fill="none" stroke="midnightblue" d="M751.42,-329.46C771.57,-309.69 802,-273.45 802,-235 802,-235 802,-235 802,-177 802,-138.7 814.44,-94.21 820.17,-75.73"/>
<polygon fill="midnightblue" stroke="midnightblue" points="748.9,-327.02 744.03,-336.43 753.71,-332.11 748.9,-327.02"/>
</g>
<!-- Node18&#45;&gt;Node19 -->
<g id="edge18" class="edge">
<title>Node18&#45;&gt;Node19</title>
<path fill="none" stroke="midnightblue" d="M801.43,-50.62C786.64,-40.76 767.49,-27.99 754.98,-19.65"/>
<polygon fill="midnightblue" stroke="midnightblue" points="799.72,-53.69 809.99,-56.32 803.61,-47.86 799.72,-53.69"/>
</g>
<!-- Node21 -->
<g id="node21" class="node">
<title>Node21</title>
<g id="a_node21"><a xlink:href="api_2schedule__types_8h.html" target="_top" xlink:title=" ">
<polygon fill="white" stroke="black" points="604.5,-504.5 604.5,-523.5 705.5,-523.5 705.5,-504.5 604.5,-504.5"/>
<text text-anchor="middle" x="655" y="-511.5" font-family="Helvetica,sans-Serif" font-size="10.00">schedule_types.h</text>
</a>
</g>
</g>
<!-- Node20&#45;&gt;Node21 -->
<g id="edge20" class="edge">
<title>Node20&#45;&gt;Node21</title>
<path fill="none" stroke="midnightblue" d="M655,-549.8C655,-540.91 655,-530.78 655,-523.75"/>
<polygon fill="midnightblue" stroke="midnightblue" points="651.5,-550.08 655,-560.08 658.5,-550.08 651.5,-550.08"/>
</g>
<!-- Node21&#45;&gt;Node17 -->
<g id="edge59" class="edge">
<title>Node21&#45;&gt;Node17</title>
<path fill="none" stroke="midnightblue" d="M663.63,-494.86C680.58,-459.25 717.6,-381.45 729.92,-355.57"/>
<polygon fill="midnightblue" stroke="midnightblue" points="660.38,-493.54 659.25,-504.08 666.71,-496.55 660.38,-493.54"/>
</g>
<!-- Node22 -->
<g id="node22" class="node">
<title>Node22</title>
<g id="a_node22"><a xlink:href="api_2spec_2queue__types_8h.html" target="_top" xlink:title=" ">
<polygon fill="white" stroke="black" points="532,-448.5 532,-467.5 620,-467.5 620,-448.5 532,-448.5"/>
<text text-anchor="middle" x="576" y="-455.5" font-family="Helvetica,sans-Serif" font-size="10.00">queue_types.h</text>
</a>
</g>
</g>
<!-- Node21&#45;&gt;Node22 -->
<g id="edge21" class="edge">
<title>Node21&#45;&gt;Node22</title>
<path fill="none" stroke="midnightblue" d="M633.97,-498.62C619.53,-488.76 600.86,-475.99 588.66,-467.65"/>
<polygon fill="midnightblue" stroke="midnightblue" points="632.08,-501.57 642.31,-504.32 636.03,-495.79 632.08,-501.57"/>
</g>
<!-- Node23 -->
<g id="node23" class="node">
<title>Node23</title>
<g id="a_node23"><a xlink:href="api_2queue__types_8h.html" target="_top" xlink:title=" ">
<polygon fill="white" stroke="black" points="479,-392.5 479,-411.5 567,-411.5 567,-392.5 479,-392.5"/>
<text text-anchor="middle" x="523" y="-399.5" font-family="Helvetica,sans-Serif" font-size="10.00">queue_types.h</text>
</a>
</g>
</g>
<!-- Node22&#45;&gt;Node23 -->
<g id="edge22" class="edge">
<title>Node22&#45;&gt;Node23</title>
<path fill="none" stroke="midnightblue" d="M560.02,-440.72C550.68,-431.2 539.25,-419.56 531.59,-411.75"/>
<polygon fill="midnightblue" stroke="midnightblue" points="557.75,-443.4 567.25,-448.08 562.74,-438.49 557.75,-443.4"/>
</g>
<!-- Node23&#45;&gt;Node17 -->
<g id="edge55" class="edge">
<title>Node23&#45;&gt;Node17</title>
<path fill="none" stroke="midnightblue" d="M566.14,-389.96C605.99,-379.76 664.36,-364.82 700.72,-355.52"/>
<polygon fill="midnightblue" stroke="midnightblue" points="565.25,-386.57 556.43,-392.44 566.99,-393.35 565.25,-386.57"/>
</g>
<!-- Node24 -->
<g id="node24" class="node">
<title>Node24</title>
<g id="a_node24"><a xlink:href="api_2spec_2comp_8h.html" target="_top" xlink:title=" ">
<polygon fill="white" stroke="black" points="637.5,-224.5 637.5,-243.5 690.5,-243.5 690.5,-224.5 637.5,-224.5"/>
<text text-anchor="middle" x="664" y="-231.5" font-family="Helvetica,sans-Serif" font-size="10.00">comp.h</text>
</a>
</g>
</g>
<!-- Node23&#45;&gt;Node24 -->
<g id="edge23" class="edge">
<title>Node23&#45;&gt;Node24</title>
<path fill="none" stroke="midnightblue" d="M537.26,-384.21C566.94,-349.26 634.45,-269.79 656.72,-243.57"/>
<polygon fill="midnightblue" stroke="midnightblue" points="534.39,-382.19 530.58,-392.08 539.72,-386.72 534.39,-382.19"/>
</g>
<!-- Node26 -->
<g id="node26" class="node">
<title>Node26</title>
<g id="a_node26"><a xlink:href="api_2spec_2dma__types_8h.html" target="_top" xlink:title=" ">
<polygon fill="white" stroke="black" points="539,-224.5 539,-243.5 619,-243.5 619,-224.5 539,-224.5"/>
<text text-anchor="middle" x="579" y="-231.5" font-family="Helvetica,sans-Serif" font-size="10.00">dma_types.h</text>
</a>
</g>
</g>
<!-- Node23&#45;&gt;Node26 -->
<g id="edge26" class="edge">
<title>Node23&#45;&gt;Node26</title>
<path fill="none" stroke="midnightblue" d="M530.1,-382.82C533.23,-374.66 536.89,-364.88 540,-356 554.65,-314.13 570.34,-263.41 576.4,-243.56"/>
<polygon fill="midnightblue" stroke="midnightblue" points="526.73,-381.83 526.39,-392.42 533.26,-384.36 526.73,-381.83"/>
</g>
<!-- Node40 -->
<g id="node30" class="node">
<title>Node40</title>
<g id="a_node30"><a xlink:href="api_2spec_2packet__io_8h.html" target="_top" xlink:title=" ">
<polygon fill="white" stroke="black" points="66,-112.5 66,-131.5 138,-131.5 138,-112.5 66,-112.5"/>
<text text-anchor="middle" x="102" y="-119.5" font-family="Helvetica,sans-Serif" font-size="10.00">packet_io.h</text>
</a>
</g>
</g>
<!-- Node23&#45;&gt;Node40 -->
<g id="edge30" class="edge">
<title>Node23&#45;&gt;Node40</title>
<path fill="none" stroke="midnightblue" d="M468.62,-399.46C414.36,-396.15 329.69,-386.09 263,-356 220.93,-337.02 182,-337.16 182,-291 182,-291 182,-291 182,-233 182,-187.66 137,-148.46 114.5,-131.69"/>
<polygon fill="midnightblue" stroke="midnightblue" points="468.54,-402.96 478.72,-400.02 468.93,-395.97 468.54,-402.96"/>
</g>
<!-- Node56 -->
<g id="node32" class="node">
<title>Node56</title>
<g id="a_node32"><a xlink:href="spec_2packet__io__stats_8h.html" target="_top" xlink:title=" ">
<polygon fill="white" stroke="black" points="272.5,-336.5 272.5,-355.5 373.5,-355.5 373.5,-336.5 272.5,-336.5"/>
<text text-anchor="middle" x="323" y="-343.5" font-family="Helvetica,sans-Serif" font-size="10.00">packet_io_stats.h</text>
</a>
</g>
</g>
<!-- Node23&#45;&gt;Node56 -->
<g id="edge33" class="edge">
<title>Node23&#45;&gt;Node56</title>
<path fill="none" stroke="midnightblue" d="M481.63,-389.83C443.86,-379.63 388.86,-364.78 354.54,-355.52"/>
<polygon fill="midnightblue" stroke="midnightblue" points="480.74,-393.22 491.31,-392.44 482.57,-386.46 480.74,-393.22"/>
</g>
<!-- Node48 -->
<g id="node34" class="node">
<title>Node48</title>
<g id="a_node34"><a xlink:href="api_2spec_2packet__io__types_8h.html" target="_top" xlink:title=" ">
<polygon fill="white" stroke="black" points="266,-224.5 266,-243.5 370,-243.5 370,-224.5 266,-224.5"/>
<text text-anchor="middle" x="318" y="-231.5" font-family="Helvetica,sans-Serif" font-size="10.00">packet_io_types.h</text>
</a>
</g>
</g>
<!-- Node23&#45;&gt;Node48 -->
<g id="edge43" class="edge">
<title>Node23&#45;&gt;Node48</title>
<path fill="none" stroke="midnightblue" d="M488.32,-388.55C470.28,-380.96 448.58,-370.02 432,-356 400.16,-329.08 406.11,-309.85 377,-280 362.97,-265.61 344.13,-252.05 331.55,-243.65"/>
<polygon fill="midnightblue" stroke="midnightblue" points="487.34,-391.92 497.92,-392.42 489.95,-385.43 487.34,-391.92"/>
</g>
<!-- Node58 -->
<g id="node40" class="node">
<title>Node58</title>
<g id="a_node40"><a xlink:href="api_2spec_2packet__types_8h.html" target="_top" xlink:title=" ">
<polygon fill="white" stroke="black" points="441,-336.5 441,-355.5 531,-355.5 531,-336.5 441,-336.5"/>
<text text-anchor="middle" x="486" y="-343.5" font-family="Helvetica,sans-Serif" font-size="10.00">packet_types.h</text>
</a>
</g>
</g>
<!-- Node23&#45;&gt;Node58 -->
<g id="edge44" class="edge">
<title>Node23&#45;&gt;Node58</title>
<path fill="none" stroke="midnightblue" d="M511.05,-383.57C504.69,-374.27 497.13,-363.25 492,-355.75"/>
<polygon fill="midnightblue" stroke="midnightblue" points="508.35,-385.81 516.89,-392.08 514.13,-381.86 508.35,-385.81"/>
</g>
<!-- Node64 -->
<g id="node43" class="node">
<title>Node64</title>
<g id="a_node43"><a xlink:href="api_2spec_2queue_8h.html" target="_top" xlink:title=" ">
<polygon fill="white" stroke="black" points="625,-336.5 625,-355.5 681,-355.5 681,-336.5 625,-336.5"/>
<text text-anchor="middle" x="653" y="-343.5" font-family="Helvetica,sans-Serif" font-size="10.00">queue.h</text>
</a>
</g>
</g>
<!-- Node23&#45;&gt;Node64 -->
<g id="edge52" class="edge">
<title>Node23&#45;&gt;Node64</title>
<path fill="none" stroke="midnightblue" d="M553.09,-388.5C577.46,-378.38 611.14,-364.39 632.5,-355.52"/>
<polygon fill="midnightblue" stroke="midnightblue" points="551.49,-385.38 543.6,-392.44 554.18,-391.84 551.49,-385.38"/>
</g>
<!-- Node54 -->
<g id="node45" class="node">
<title>Node54</title>
<g id="a_node45"><a xlink:href="api_2spec_2timer_8h.html" target="_top" xlink:title=" ">
<polygon fill="white" stroke="black" points="54.5,-336.5 54.5,-355.5 105.5,-355.5 105.5,-336.5 54.5,-336.5"/>
<text text-anchor="middle" x="80" y="-343.5" font-family="Helvetica,sans-Serif" font-size="10.00">timer.h</text>
</a>
</g>
</g>
<!-- Node23&#45;&gt;Node54 -->
<g id="edge56" class="edge">
<title>Node23&#45;&gt;Node54</title>
<path fill="none" stroke="midnightblue" d="M468.81,-394.39C372.69,-382.68 175.88,-358.69 105.63,-350.12"/>
<polygon fill="midnightblue" stroke="midnightblue" points="468.55,-397.89 478.9,-395.62 469.4,-390.94 468.55,-397.89"/>
</g>
<!-- Node25 -->
<g id="node25" class="node">
<title>Node25</title>
<g id="a_node25"><a xlink:href="api_2comp_8h.html" target="_top" xlink:title=" ">
<polygon fill="white" stroke="black" points="655.5,-168.5 655.5,-187.5 708.5,-187.5 708.5,-168.5 655.5,-168.5"/>
<text text-anchor="middle" x="682" y="-175.5" font-family="Helvetica,sans-Serif" font-size="10.00">comp.h</text>
</a>
</g>
</g>
<!-- Node24&#45;&gt;Node25 -->
<g id="edge24" class="edge">
<title>Node24&#45;&gt;Node25</title>
<path fill="none" stroke="midnightblue" d="M670.2,-214.4C673.21,-205.36 676.69,-194.94 679.08,-187.75"/>
<polygon fill="midnightblue" stroke="midnightblue" points="666.81,-213.49 666.97,-224.08 673.46,-215.7 666.81,-213.49"/>
</g>
<!-- Node25&#45;&gt;Node19 -->
<g id="edge25" class="edge">
<title>Node25&#45;&gt;Node19</title>
<path fill="none" stroke="midnightblue" d="M687.9,-158.9C690.38,-150.75 693.13,-140.97 695,-132 701.97,-98.65 691.44,-87.25 705,-56 711.28,-41.53 723.65,-27.98 732.35,-19.61"/>
<polygon fill="midnightblue" stroke="midnightblue" points="684.55,-157.88 684.88,-168.47 691.23,-159.99 684.55,-157.88"/>
</g>
<!-- Node27 -->
<g id="node27" class="node">
<title>Node27</title>
<g id="a_node27"><a xlink:href="api_2dma__types_8h.html" target="_top" xlink:title=" ">
<polygon fill="white" stroke="black" points="542,-168.5 542,-187.5 622,-187.5 622,-168.5 542,-168.5"/>
<text text-anchor="middle" x="582" y="-175.5" font-family="Helvetica,sans-Serif" font-size="10.00">dma_types.h</text>
</a>
</g>
</g>
<!-- Node26&#45;&gt;Node27 -->
<g id="edge27" class="edge">
<title>Node26&#45;&gt;Node27</title>
<path fill="none" stroke="midnightblue" d="M580.07,-213.8C580.56,-204.91 581.12,-194.78 581.51,-187.75"/>
<polygon fill="midnightblue" stroke="midnightblue" points="576.56,-213.9 579.5,-224.08 583.54,-214.29 576.56,-213.9"/>
</g>
<!-- Node28 -->
<g id="node28" class="node">
<title>Node28</title>
<g id="a_node28"><a xlink:href="api_2spec_2dma_8h.html" target="_top" xlink:title=" ">
<polygon fill="white" stroke="red" points="639.5,-112.5 639.5,-131.5 686.5,-131.5 686.5,-112.5 639.5,-112.5"/>
<text text-anchor="middle" x="663" y="-119.5" font-family="Helvetica,sans-Serif" font-size="10.00">dma.h</text>
</a>
</g>
</g>
<!-- Node27&#45;&gt;Node28 -->
<g id="edge28" class="edge">
<title>Node27&#45;&gt;Node28</title>
<path fill="none" stroke="midnightblue" d="M603.57,-162.62C618.36,-152.76 637.51,-139.99 650.02,-131.65"/>
<polygon fill="midnightblue" stroke="midnightblue" points="601.39,-159.86 595.01,-168.32 605.28,-165.69 601.39,-159.86"/>
</g>
<!-- Node30 -->
<g id="node29" class="node">
<title>Node30</title>
<g id="a_node29"><a xlink:href="api_2spec_2pool__types_8h.html" target="_top" xlink:title=" ">
<polygon fill="white" stroke="red" points="542.5,-112.5 542.5,-131.5 621.5,-131.5 621.5,-112.5 542.5,-112.5"/>
<text text-anchor="middle" x="582" y="-119.5" font-family="Helvetica,sans-Serif" font-size="10.00">pool_types.h</text>
</a>
</g>
</g>
<!-- Node27&#45;&gt;Node30 -->
<g id="edge29" class="edge">
<title>Node27&#45;&gt;Node30</title>
<path fill="none" stroke="midnightblue" d="M582,-157.8C582,-148.91 582,-138.78 582,-131.75"/>
<polygon fill="midnightblue" stroke="midnightblue" points="578.5,-158.08 582,-168.08 585.5,-158.08 578.5,-158.08"/>
</g>
<!-- Node41 -->
<g id="node31" class="node">
<title>Node41</title>
<g id="a_node31"><a xlink:href="api_2packet__io_8h.html" target="_top" xlink:title=" ">
<polygon fill="white" stroke="black" points="310,-56.5 310,-75.5 382,-75.5 382,-56.5 310,-56.5"/>
<text text-anchor="middle" x="346" y="-63.5" font-family="Helvetica,sans-Serif" font-size="10.00">packet_io.h</text>
</a>
</g>
</g>
<!-- Node40&#45;&gt;Node41 -->
<g id="edge31" class="edge">
<title>Node40&#45;&gt;Node41</title>
<path fill="none" stroke="midnightblue" d="M147.91,-110.84C194.85,-100.45 266.8,-84.53 309.85,-75"/>
<polygon fill="midnightblue" stroke="midnightblue" points="147.01,-107.45 138,-113.03 148.52,-114.29 147.01,-107.45"/>
</g>
<!-- Node41&#45;&gt;Node19 -->
<g id="edge32" class="edge">
<title>Node41&#45;&gt;Node19</title>
<path fill="none" stroke="midnightblue" d="M392.13,-58.71C473.37,-47.63 639.98,-24.91 709.94,-15.37"/>
<polygon fill="midnightblue" stroke="midnightblue" points="391.63,-55.25 382.19,-60.06 392.57,-62.18 391.63,-55.25"/>
</g>
<!-- Node57 -->
<g id="node33" class="node">
<title>Node57</title>
<g id="a_node33"><a xlink:href="packet__io__stats_8h.html" target="_top" xlink:title=" ">
<polygon fill="white" stroke="black" points="267.5,-280.5 267.5,-299.5 368.5,-299.5 368.5,-280.5 267.5,-280.5"/>
<text text-anchor="middle" x="318" y="-287.5" font-family="Helvetica,sans-Serif" font-size="10.00">packet_io_stats.h</text>
</a>
</g>
</g>
<!-- Node56&#45;&gt;Node57 -->
<g id="edge34" class="edge">
<title>Node56&#45;&gt;Node57</title>
<path fill="none" stroke="midnightblue" d="M321.25,-326.1C320.42,-317.14 319.47,-306.86 318.81,-299.75"/>
<polygon fill="midnightblue" stroke="midnightblue" points="317.77,-326.45 322.17,-336.08 324.74,-325.8 317.77,-326.45"/>
</g>
<!-- Node57&#45;&gt;Node40 -->
<g id="edge35" class="edge">
<title>Node57&#45;&gt;Node40</title>
<path fill="none" stroke="midnightblue" d="M295.55,-274.52C283.53,-266.27 268.8,-255.33 257,-244 225.76,-214 229.94,-194.91 196,-168 175.16,-151.47 147.26,-139.09 127.28,-131.54"/>
<polygon fill="midnightblue" stroke="midnightblue" points="293.87,-277.61 304.13,-280.27 297.77,-271.8 293.87,-277.61"/>
</g>
<!-- Node57&#45;&gt;Node48 -->
<g id="edge36" class="edge">
<title>Node57&#45;&gt;Node48</title>
<path fill="none" stroke="midnightblue" d="M318,-269.8C318,-260.91 318,-250.78 318,-243.75"/>
<polygon fill="midnightblue" stroke="midnightblue" points="314.5,-270.08 318,-280.08 321.5,-270.08 314.5,-270.08"/>
</g>
<!-- Node49 -->
<g id="node35" class="node">
<title>Node49</title>
<g id="a_node35"><a xlink:href="api_2packet__io__types_8h.html" target="_top" xlink:title=" ">
<polygon fill="white" stroke="black" points="305,-168.5 305,-187.5 409,-187.5 409,-168.5 305,-168.5"/>
<text text-anchor="middle" x="357" y="-175.5" font-family="Helvetica,sans-Serif" font-size="10.00">packet_io_types.h</text>
</a>
</g>
</g>
<!-- Node48&#45;&gt;Node49 -->
<g id="edge37" class="edge">
<title>Node48&#45;&gt;Node49</title>
<path fill="none" stroke="midnightblue" d="M330.38,-215.86C337.14,-206.5 345.21,-195.33 350.68,-187.75"/>
<polygon fill="midnightblue" stroke="midnightblue" points="327.46,-213.93 324.44,-224.08 333.13,-218.03 327.46,-213.93"/>
</g>
<!-- Node49&#45;&gt;Node40 -->
<g id="edge41" class="edge">
<title>Node49&#45;&gt;Node40</title>
<path fill="none" stroke="midnightblue" d="M306.7,-166.35C256.99,-155.82 182.17,-139.98 138.09,-130.64"/>
<polygon fill="midnightblue" stroke="midnightblue" points="306.09,-169.8 316.59,-168.44 307.54,-162.95 306.09,-169.8"/>
</g>
<!-- Node34 -->
<g id="node36" class="node">
<title>Node34</title>
<g id="a_node36"><a xlink:href="api_2spec_2classification_8h.html" target="_top" xlink:title=" ">
<polygon fill="white" stroke="red" points="359.5,-112.5 359.5,-131.5 448.5,-131.5 448.5,-112.5 359.5,-112.5"/>
<text text-anchor="middle" x="404" y="-119.5" font-family="Helvetica,sans-Serif" font-size="10.00">classification.h</text>
</a>
</g>
</g>
<!-- Node49&#45;&gt;Node34 -->
<g id="edge38" class="edge">
<title>Node49&#45;&gt;Node34</title>
<path fill="none" stroke="midnightblue" d="M371.42,-160.43C379.66,-150.97 389.65,-139.48 396.38,-131.75"/>
<polygon fill="midnightblue" stroke="midnightblue" points="368.69,-158.24 364.76,-168.08 373.97,-162.84 368.69,-158.24"/>
</g>
<!-- Node36 -->
<g id="node37" class="node">
<title>Node36</title>
<g id="a_node37"><a xlink:href="api_2spec_2ipsec__types_8h.html" target="_top" xlink:title=" ">
<polygon fill="white" stroke="red" points="156.5,-112.5 156.5,-131.5 239.5,-131.5 239.5,-112.5 156.5,-112.5"/>
<text text-anchor="middle" x="198" y="-119.5" font-family="Helvetica,sans-Serif" font-size="10.00">ipsec_types.h</text>
</a>
</g>
</g>
<!-- Node49&#45;&gt;Node36 -->
<g id="edge39" class="edge">
<title>Node49&#45;&gt;Node36</title>
<path fill="none" stroke="midnightblue" d="M322.17,-165.17C292.23,-155 249.78,-140.59 223.08,-131.52"/>
<polygon fill="midnightblue" stroke="midnightblue" points="321.21,-168.54 331.81,-168.44 323.46,-161.91 321.21,-168.54"/>
</g>
<!-- Node46 -->
<g id="node38" class="node">
<title>Node46</title>
<g id="a_node38"><a xlink:href="api_2spec_2packet_8h.html" target="_top" xlink:title=" ">
<polygon fill="white" stroke="red" points="466,-112.5 466,-131.5 524,-131.5 524,-112.5 466,-112.5"/>
<text text-anchor="middle" x="495" y="-119.5" font-family="Helvetica,sans-Serif" font-size="10.00">packet.h</text>
</a>
</g>
</g>
<!-- Node49&#45;&gt;Node46 -->
<g id="edge40" class="edge">
<title>Node49&#45;&gt;Node46</title>
<path fill="none" stroke="midnightblue" d="M388.25,-164.77C414.17,-154.63 450.36,-140.47 473.24,-131.52"/>
<polygon fill="midnightblue" stroke="midnightblue" points="386.9,-161.54 378.87,-168.44 389.45,-168.06 386.9,-161.54"/>
</g>
<!-- Node50 -->
<g id="node39" class="node">
<title>Node50</title>
<g id="a_node39"><a xlink:href="api_2spec_2traffic__mngr_8h.html" target="_top" xlink:title=" ">
<polygon fill="white" stroke="red" points="258,-112.5 258,-131.5 342,-131.5 342,-112.5 258,-112.5"/>
<text text-anchor="middle" x="300" y="-119.5" font-family="Helvetica,sans-Serif" font-size="10.00">traffic_mngr.h</text>
</a>
</g>
</g>
<!-- Node49&#45;&gt;Node50 -->
<g id="edge42" class="edge">
<title>Node49&#45;&gt;Node50</title>
<path fill="none" stroke="midnightblue" d="M340.38,-161.25C330.27,-151.67 317.72,-139.79 309.32,-131.83"/>
<polygon fill="midnightblue" stroke="midnightblue" points="338.18,-163.99 347.84,-168.32 342.99,-158.91 338.18,-163.99"/>
</g>
<!-- Node59 -->
<g id="node41" class="node">
<title>Node59</title>
<g id="a_node41"><a xlink:href="api_2packet__types_8h.html" target="_top" xlink:title=" ">
<polygon fill="white" stroke="red" points="441,-280.5 441,-299.5 531,-299.5 531,-280.5 441,-280.5"/>
<text text-anchor="middle" x="486" y="-287.5" font-family="Helvetica,sans-Serif" font-size="10.00">packet_types.h</text>
</a>
</g>
</g>
<!-- Node58&#45;&gt;Node59 -->
<g id="edge45" class="edge">
<title>Node58&#45;&gt;Node59</title>
<path fill="none" stroke="midnightblue" d="M486,-325.8C486,-316.91 486,-306.78 486,-299.75"/>
<polygon fill="midnightblue" stroke="midnightblue" points="482.5,-326.08 486,-336.08 489.5,-326.08 482.5,-326.08"/>
</g>
<!-- Node59&#45;&gt;Node24 -->
<g id="edge46" class="edge">
<title>Node59&#45;&gt;Node24</title>
<path fill="none" stroke="midnightblue" d="M523.83,-277.52C557.95,-267.17 607.25,-252.21 637.38,-243.08"/>
<polygon fill="midnightblue" stroke="midnightblue" points="522.76,-274.19 514.2,-280.44 524.79,-280.89 522.76,-274.19"/>
</g>
<!-- Node59&#45;&gt;Node26 -->
<g id="edge48" class="edge">
<title>Node59&#45;&gt;Node26</title>
<path fill="none" stroke="midnightblue" d="M509.81,-275.18C526.92,-265.24 549.47,-252.15 564.1,-243.65"/>
<polygon fill="midnightblue" stroke="midnightblue" points="507.83,-272.28 500.94,-280.32 511.35,-278.33 507.83,-272.28"/>
</g>
<!-- Node59&#45;&gt;Node40 -->
<g id="edge50" class="edge">
<title>Node59&#45;&gt;Node40</title>
<path fill="none" stroke="midnightblue" d="M465.14,-274.63C444.06,-260.52 410.23,-239 379,-224 291.79,-182.11 182.37,-147.02 131.07,-131.53"/>
<polygon fill="midnightblue" stroke="midnightblue" points="463.36,-277.66 473.61,-280.36 467.28,-271.86 463.36,-277.66"/>
</g>
<!-- Node59&#45;&gt;Node48 -->
<g id="edge51" class="edge">
<title>Node59&#45;&gt;Node48</title>
<path fill="none" stroke="midnightblue" d="M449.61,-277.3C417.96,-267.13 372.83,-252.62 344.5,-243.52"/>
<polygon fill="midnightblue" stroke="midnightblue" points="448.79,-280.72 459.38,-280.44 450.93,-274.05 448.79,-280.72"/>
</g>
<!-- Node59&#45;&gt;Node46 -->
<g id="edge49" class="edge">
<title>Node59&#45;&gt;Node46</title>
<path fill="none" stroke="midnightblue" d="M471.5,-272.4C465.45,-264.39 459.12,-254.3 456,-244 453.42,-235.49 454.37,-232.74 456,-224 462.68,-188.15 481.63,-148.63 490.42,-131.59"/>
<polygon fill="midnightblue" stroke="midnightblue" points="468.78,-274.6 477.79,-280.18 474.23,-270.2 468.78,-274.6"/>
</g>
<!-- Node44 -->
<g id="node42" class="node">
<title>Node44</title>
<g id="a_node42"><a xlink:href="api_2spec_2crypto_8h.html" target="_top" xlink:title=" ">
<polygon fill="white" stroke="red" points="465,-224.5 465,-243.5 521,-243.5 521,-224.5 465,-224.5"/>
<text text-anchor="middle" x="493" y="-231.5" font-family="Helvetica,sans-Serif" font-size="10.00">crypto.h</text>
</a>
</g>
</g>
<!-- Node59&#45;&gt;Node44 -->
<g id="edge47" class="edge">
<title>Node59&#45;&gt;Node44</title>
<path fill="none" stroke="midnightblue" d="M488.45,-270.1C489.61,-261.14 490.94,-250.86 491.87,-243.75"/>
<polygon fill="midnightblue" stroke="midnightblue" points="484.97,-269.72 487.16,-280.08 491.91,-270.62 484.97,-269.72"/>
</g>
<!-- Node65 -->
<g id="node44" class="node">
<title>Node65</title>
<g id="a_node44"><a xlink:href="api_2queue_8h.html" target="_top" xlink:title=" ">
<polygon fill="white" stroke="black" points="714,-56.5 714,-75.5 770,-75.5 770,-56.5 714,-56.5"/>
<text text-anchor="middle" x="742" y="-63.5" font-family="Helvetica,sans-Serif" font-size="10.00">queue.h</text>
</a>
</g>
</g>
<!-- Node64&#45;&gt;Node65 -->
<g id="edge53" class="edge">
<title>Node64&#45;&gt;Node65</title>
<path fill="none" stroke="midnightblue" d="M678.99,-331.13C708.62,-313.2 753,-279.02 753,-235 753,-235 753,-235 753,-177 753,-139 746.42,-93.98 743.44,-75.53"/>
<polygon fill="midnightblue" stroke="midnightblue" points="676.86,-328.32 669.96,-336.36 680.37,-334.37 676.86,-328.32"/>
</g>
<!-- Node65&#45;&gt;Node19 -->
<g id="edge54" class="edge">
<title>Node65&#45;&gt;Node19</title>
<path fill="none" stroke="midnightblue" d="M742,-45.8C742,-36.91 742,-26.78 742,-19.75"/>
<polygon fill="midnightblue" stroke="midnightblue" points="738.5,-46.08 742,-56.08 745.5,-46.08 738.5,-46.08"/>
</g>
<!-- Node55 -->
<g id="node46" class="node">
<title>Node55</title>
<g id="a_node46"><a xlink:href="api_2timer_8h.html" target="_top" xlink:title=" ">
<polygon fill="white" stroke="black" points="30.5,-280.5 30.5,-299.5 81.5,-299.5 81.5,-280.5 30.5,-280.5"/>
<text text-anchor="middle" x="56" y="-287.5" font-family="Helvetica,sans-Serif" font-size="10.00">timer.h</text>
</a>
</g>
</g>
<!-- Node54&#45;&gt;Node55 -->
<g id="edge57" class="edge">
<title>Node54&#45;&gt;Node55</title>
<path fill="none" stroke="midnightblue" d="M71.86,-326.69C67.82,-317.59 63.12,-307.01 59.89,-299.75"/>
<polygon fill="midnightblue" stroke="midnightblue" points="68.78,-328.37 76.04,-336.08 75.17,-325.52 68.78,-328.37"/>
</g>
<!-- Node55&#45;&gt;Node19 -->
<g id="edge58" class="edge">
<title>Node55&#45;&gt;Node19</title>
<path fill="none" stroke="midnightblue" d="M51.06,-270.37C45.73,-248.62 38,-211.46 38,-179 38,-179 38,-179 38,-121 38,-52.03 572.2,-19.75 709.92,-12.57"/>
<polygon fill="midnightblue" stroke="midnightblue" points="47.71,-271.41 53.57,-280.24 54.49,-269.68 47.71,-271.41"/>
</g>
<!-- Node67 -->
<g id="node48" class="node">
<title>Node67</title>
<g id="a_node48"><a xlink:href="api_2init_8h.html" target="_top" xlink:title=" ">
<polygon fill="white" stroke="black" points="945.5,-168.5 945.5,-187.5 986.5,-187.5 986.5,-168.5 945.5,-168.5"/>
<text text-anchor="middle" x="966" y="-175.5" font-family="Helvetica,sans-Serif" font-size="10.00">init.h</text>
</a>
</g>
</g>
<!-- Node66&#45;&gt;Node67 -->
<g id="edge62" class="edge">
<title>Node66&#45;&gt;Node67</title>
<path fill="none" stroke="midnightblue" d="M945.19,-718.28C947.56,-696.42 951,-659.14 951,-627 951,-627 951,-627 951,-289 951,-250.84 959.97,-205.91 964.04,-187.5"/>
<polygon fill="midnightblue" stroke="midnightblue" points="941.69,-718.13 944.05,-728.46 948.64,-718.91 941.69,-718.13"/>
</g>
<!-- Node67&#45;&gt;Node19 -->
<g id="edge66" class="edge">
<title>Node67&#45;&gt;Node19</title>
<path fill="none" stroke="midnightblue" d="M995,-163.33C1007.23,-155.92 1020.19,-145.48 1027,-132 1042.23,-101.85 1048.94,-81.68 1027,-56 994.74,-18.25 841.53,-11.98 774.04,-11.07"/>
<polygon fill="midnightblue" stroke="midnightblue" points="992.93,-160.48 985.91,-168.41 996.34,-166.59 992.93,-160.48"/>
</g>
<!-- Node68 -->
<g id="node49" class="node">
<title>Node68</title>
<g id="a_node49"><a xlink:href="api_2spec_2shared__memory_8h.html" target="_top" xlink:title=" ">
<polygon fill="white" stroke="black" points="914,-112.5 914,-131.5 1018,-131.5 1018,-112.5 914,-112.5"/>
<text text-anchor="middle" x="966" y="-119.5" font-family="Helvetica,sans-Serif" font-size="10.00">shared_memory.h</text>
</a>
</g>
</g>
<!-- Node67&#45;&gt;Node68 -->
<g id="edge63" class="edge">
<title>Node67&#45;&gt;Node68</title>
<path fill="none" stroke="midnightblue" d="M966,-157.8C966,-148.91 966,-138.78 966,-131.75"/>
<polygon fill="midnightblue" stroke="midnightblue" points="962.5,-158.08 966,-168.08 969.5,-158.08 962.5,-158.08"/>
</g>
<!-- Node69 -->
<g id="node50" class="node">
<title>Node69</title>
<g id="a_node50"><a xlink:href="api_2shared__memory_8h.html" target="_top" xlink:title=" ">
<polygon fill="white" stroke="black" points="914,-56.5 914,-75.5 1018,-75.5 1018,-56.5 914,-56.5"/>
<text text-anchor="middle" x="966" y="-63.5" font-family="Helvetica,sans-Serif" font-size="10.00">shared_memory.h</text>
</a>
</g>
</g>
<!-- Node68&#45;&gt;Node69 -->
<g id="edge64" class="edge">
<title>Node68&#45;&gt;Node69</title>
<path fill="none" stroke="midnightblue" d="M966,-101.8C966,-92.91 966,-82.78 966,-75.75"/>
<polygon fill="midnightblue" stroke="midnightblue" points="962.5,-102.08 966,-112.08 969.5,-102.08 962.5,-102.08"/>
</g>
<!-- Node69&#45;&gt;Node19 -->
<g id="edge65" class="edge">
<title>Node69&#45;&gt;Node19</title>
<path fill="none" stroke="midnightblue" d="M920.74,-54.09C877.21,-43.6 812.51,-28 774.06,-18.73"/>
<polygon fill="midnightblue" stroke="midnightblue" points="919.96,-57.5 930.51,-56.44 921.61,-50.7 919.96,-57.5"/>
</g>
</g>
</svg>
