<?xml version="1.0" encoding="UTF-8" standalone="no"?>
<!DOCTYPE svg PUBLIC "-//W3C//DTD SVG 1.1//EN"
 "http://www.w3.org/Graphics/SVG/1.1/DTD/svg11.dtd">
<!-- Generated by graphviz version 2.43.0 (0)
 -->
<!-- Title: packet_io_types.h Pages: 1 -->
<svg width="1420pt" height="1046pt"
 viewBox="0.00 0.00 1420.00 1046.00" xmlns="http://www.w3.org/2000/svg" xmlns:xlink="http://www.w3.org/1999/xlink">
<g id="graph0" class="graph" transform="scale(1 1) rotate(0) translate(4 1042)">
<title>packet_io_types.h</title>
<polygon fill="white" stroke="transparent" points="-4,4 -4,-1042 1416,-1042 1416,4 -4,4"/>
<!-- Node1 -->
<g id="node1" class="node">
<title>Node1</title>
<g id="a_node1"><a xlink:title=" ">
<polygon fill="#bfbfbf" stroke="black" points="760,-1018.5 760,-1037.5 864,-1037.5 864,-1018.5 760,-1018.5"/>
<text text-anchor="middle" x="812" y="-1025.5" font-family="Helvetica,sans-Serif" font-size="10.00">packet_io_types.h</text>
</a>
</g>
</g>
<!-- Node2 -->
<g id="node2" class="node">
<title>Node2</title>
<g id="a_node2"><a xlink:href="visibility__begin_8h_source.html" target="_top" xlink:title=" ">
<polygon fill="white" stroke="black" points="234.5,-0.5 234.5,-19.5 355.5,-19.5 355.5,-0.5 234.5,-0.5"/>
<text text-anchor="middle" x="295" y="-7.5" font-family="Helvetica,sans-Serif" font-size="10.00">odp/visibility_begin.h</text>
</a>
</g>
</g>
<!-- Node1&#45;&gt;Node2 -->
<g id="edge1" class="edge">
<title>Node1&#45;&gt;Node2</title>
<path fill="none" stroke="midnightblue" d="M759.97,-1025.45C580.75,-1019.43 0,-994 0,-917 0,-917 0,-917 0,-132 0,-94.43 6.98,-78.59 37,-56 65.84,-34.3 158.13,-22.21 224.08,-16.15"/>
<polygon fill="midnightblue" stroke="midnightblue" points="224.78,-19.6 234.43,-15.23 224.16,-12.63 224.78,-19.6"/>
</g>
<!-- Node3 -->
<g id="node3" class="node">
<title>Node3</title>
<g id="a_node3"><a xlink:href="api_2packet__types_8h.html" target="_top" xlink:title=" ">
<polygon fill="white" stroke="black" points="540.5,-738.5 540.5,-757.5 669.5,-757.5 669.5,-738.5 540.5,-738.5"/>
<text text-anchor="middle" x="605" y="-745.5" font-family="Helvetica,sans-Serif" font-size="10.00">odp/api/packet_types.h</text>
</a>
</g>
</g>
<!-- Node1&#45;&gt;Node3 -->
<g id="edge2" class="edge">
<title>Node1&#45;&gt;Node3</title>
<path fill="none" stroke="midnightblue" d="M783.41,-1018.49C742.99,-1004.48 674,-972.46 674,-917 674,-917 674,-917 674,-859 674,-820.39 643.12,-784.21 622.67,-764.49"/>
<polygon fill="midnightblue" stroke="midnightblue" points="624.89,-761.77 615.18,-757.54 620.13,-766.9 624.89,-761.77"/>
</g>
<!-- Node10 -->
<g id="node10" class="node">
<title>Node10</title>
<g id="a_node10"><a xlink:href="api_2std__types_8h.html" target="_top" xlink:title=" ">
<polygon fill="white" stroke="black" points="885,-235.5 885,-254.5 997,-254.5 997,-235.5 885,-235.5"/>
<text text-anchor="middle" x="941" y="-242.5" font-family="Helvetica,sans-Serif" font-size="10.00">odp/api/std_types.h</text>
</a>
</g>
</g>
<!-- Node1&#45;&gt;Node10 -->
<g id="edge72" class="edge">
<title>Node1&#45;&gt;Node10</title>
<path fill="none" stroke="midnightblue" d="M822.33,-1018.5C841.8,-1001.44 882,-960.91 882,-917 882,-917 882,-917 882,-685.5 882,-599.84 944,-588.66 944,-503 944,-503 944,-503 944,-372.5 944,-334.19 942.61,-289.38 941.72,-264.69"/>
<polygon fill="midnightblue" stroke="midnightblue" points="945.21,-264.45 941.34,-254.59 938.22,-264.71 945.21,-264.45"/>
</g>
<!-- Node17 -->
<g id="node17" class="node">
<title>Node17</title>
<g id="a_node17"><a xlink:href="visibility__end_8h_source.html" target="_top" xlink:title=" ">
<polygon fill="white" stroke="black" points="1128,-0.5 1128,-19.5 1240,-19.5 1240,-0.5 1128,-0.5"/>
<text text-anchor="middle" x="1184" y="-7.5" font-family="Helvetica,sans-Serif" font-size="10.00">odp/visibility_end.h</text>
</a>
</g>
</g>
<!-- Node1&#45;&gt;Node17 -->
<g id="edge73" class="edge">
<title>Node1&#45;&gt;Node17</title>
<path fill="none" stroke="midnightblue" d="M864.17,-1024.52C970.15,-1019.07 1207.2,-1004.7 1285,-982 1345.87,-964.24 1412,-980.41 1412,-917 1412,-917 1412,-917 1412,-132 1412,-58.15 1317.52,-29.24 1250.2,-18.01"/>
<polygon fill="midnightblue" stroke="midnightblue" points="1250.49,-14.51 1240.07,-16.42 1249.4,-21.43 1250.49,-14.51"/>
</g>
<!-- Node18 -->
<g id="node18" class="node">
<title>Node18</title>
<g id="a_node18"><a xlink:href="api_2queue__types_8h.html" target="_top" xlink:title=" ">
<polygon fill="white" stroke="black" points="430.5,-615.5 430.5,-634.5 557.5,-634.5 557.5,-615.5 430.5,-615.5"/>
<text text-anchor="middle" x="494" y="-622.5" font-family="Helvetica,sans-Serif" font-size="10.00">odp/api/queue_types.h</text>
</a>
</g>
</g>
<!-- Node1&#45;&gt;Node18 -->
<g id="edge66" class="edge">
<title>Node1&#45;&gt;Node18</title>
<path fill="none" stroke="midnightblue" d="M759.74,-1018.88C673.79,-1004.03 512,-969.15 512,-917 512,-917 512,-917 512,-747 512,-710.5 503.89,-668.47 498.55,-644.79"/>
<polygon fill="midnightblue" stroke="midnightblue" points="501.89,-643.68 496.21,-634.74 495.07,-645.27 501.89,-643.68"/>
</g>
<!-- Node27 -->
<g id="node27" class="node">
<title>Node27</title>
<g id="a_node27"><a xlink:href="packet__io__stats_8h.html" target="_top" xlink:title=" ">
<polygon fill="white" stroke="black" points="344,-738.5 344,-757.5 484,-757.5 484,-738.5 344,-738.5"/>
<text text-anchor="middle" x="414" y="-745.5" font-family="Helvetica,sans-Serif" font-size="10.00">odp/api/packet_io_stats.h</text>
</a>
</g>
</g>
<!-- Node1&#45;&gt;Node27 -->
<g id="edge41" class="edge">
<title>Node1&#45;&gt;Node27</title>
<path fill="none" stroke="midnightblue" d="M759.74,-1024.05C682.38,-1018.92 541.8,-1006.5 498,-982 465.22,-963.67 444,-954.56 444,-917 444,-917 444,-917 444,-859 444,-825.64 431,-788.53 422.11,-767.07"/>
<polygon fill="midnightblue" stroke="midnightblue" points="425.22,-765.42 418.05,-757.62 418.79,-768.19 425.22,-765.42"/>
</g>
<!-- Node29 -->
<g id="node29" class="node">
<title>Node29</title>
<g id="a_node29"><a xlink:href="api_2pool__types_8h.html" target="_top" xlink:title=" ">
<polygon fill="white" stroke="black" points="921,-962.5 921,-981.5 1039,-981.5 1039,-962.5 921,-962.5"/>
<text text-anchor="middle" x="980" y="-969.5" font-family="Helvetica,sans-Serif" font-size="10.00">odp/api/pool_types.h</text>
</a>
</g>
</g>
<!-- Node1&#45;&gt;Node29 -->
<g id="edge47" class="edge">
<title>Node1&#45;&gt;Node29</title>
<path fill="none" stroke="midnightblue" d="M838.62,-1018.44C867.01,-1009.32 912.14,-994.81 943.75,-984.65"/>
<polygon fill="midnightblue" stroke="midnightblue" points="945.06,-987.91 953.5,-981.52 942.91,-981.24 945.06,-987.91"/>
</g>
<!-- Node38 -->
<g id="node38" class="node">
<title>Node38</title>
<g id="a_node38"><a xlink:href="reassembly_8h.html" target="_top" xlink:title=" ">
<polygon fill="white" stroke="black" points="1156,-962.5 1156,-981.5 1276,-981.5 1276,-962.5 1156,-962.5"/>
<text text-anchor="middle" x="1216" y="-969.5" font-family="Helvetica,sans-Serif" font-size="10.00">odp/api/reassembly.h</text>
</a>
</g>
</g>
<!-- Node1&#45;&gt;Node38 -->
<g id="edge67" class="edge">
<title>Node1&#45;&gt;Node38</title>
<path fill="none" stroke="midnightblue" d="M864.4,-1020C936.27,-1010.39 1065.6,-993.1 1145.79,-982.39"/>
<polygon fill="midnightblue" stroke="midnightblue" points="1146.35,-985.84 1155.8,-981.05 1145.42,-978.9 1146.35,-985.84"/>
</g>
<!-- Node4 -->
<g id="node4" class="node">
<title>Node4</title>
<g id="a_node4"><a xlink:title=" ">
<polygon fill="white" stroke="#bfbfbf" points="378,-671.5 378,-701.5 484,-701.5 484,-671.5 378,-671.5"/>
<text text-anchor="start" x="386" y="-689.5" font-family="Helvetica,sans-Serif" font-size="10.00">odp/api/abi/packet</text>
<text text-anchor="middle" x="431" y="-678.5" font-family="Helvetica,sans-Serif" font-size="10.00">_io_types.h</text>
</a>
</g>
</g>
<!-- Node3&#45;&gt;Node4 -->
<g id="edge3" class="edge">
<title>Node3&#45;&gt;Node4</title>
<path fill="none" stroke="midnightblue" d="M580.07,-738.48C554.52,-729.74 514.07,-715.91 481.75,-704.86"/>
<polygon fill="midnightblue" stroke="midnightblue" points="482.6,-701.45 472.01,-701.52 480.34,-708.07 482.6,-701.45"/>
</g>
<!-- Node5 -->
<g id="node5" class="node">
<title>Node5</title>
<g id="a_node5"><a xlink:title=" ">
<polygon fill="white" stroke="#bfbfbf" points="540,-671.5 540,-701.5 646,-701.5 646,-671.5 540,-671.5"/>
<text text-anchor="start" x="548" y="-689.5" font-family="Helvetica,sans-Serif" font-size="10.00">odp/api/abi/packet</text>
<text text-anchor="middle" x="593" y="-678.5" font-family="Helvetica,sans-Serif" font-size="10.00">_types.h</text>
</a>
</g>
</g>
<!-- Node3&#45;&gt;Node5 -->
<g id="edge4" class="edge">
<title>Node3&#45;&gt;Node5</title>
<path fill="none" stroke="midnightblue" d="M603.28,-738.48C601.85,-731.4 599.75,-720.97 597.82,-711.39"/>
<polygon fill="midnightblue" stroke="midnightblue" points="601.24,-710.63 595.83,-701.52 594.37,-712.02 601.24,-710.63"/>
</g>
<!-- Node6 -->
<g id="node6" class="node">
<title>Node6</title>
<g id="a_node6"><a xlink:href="api_2spec_2packet__types_8h.html" target="_top" xlink:title=" ">
<polygon fill="white" stroke="black" points="702.5,-671.5 702.5,-701.5 815.5,-701.5 815.5,-671.5 702.5,-671.5"/>
<text text-anchor="start" x="710.5" y="-689.5" font-family="Helvetica,sans-Serif" font-size="10.00">odp/api/spec/packet</text>
<text text-anchor="middle" x="759" y="-678.5" font-family="Helvetica,sans-Serif" font-size="10.00">_types.h</text>
</a>
</g>
</g>
<!-- Node3&#45;&gt;Node6 -->
<g id="edge5" class="edge">
<title>Node3&#45;&gt;Node6</title>
<path fill="none" stroke="midnightblue" d="M627.06,-738.48C649.48,-729.81 684.86,-716.15 713.34,-705.14"/>
<polygon fill="midnightblue" stroke="midnightblue" points="714.64,-708.39 722.71,-701.52 712.12,-701.86 714.64,-708.39"/>
</g>
<!-- Node6&#45;&gt;Node2 -->
<g id="edge6" class="edge">
<title>Node6&#45;&gt;Node2</title>
<path fill="none" stroke="midnightblue" d="M737.76,-671.47C707.77,-651.5 651.47,-613.48 605,-579 587.22,-565.81 586.57,-556.19 566,-548 394.01,-479.49 320.01,-587.58 151,-512 109.24,-493.32 76,-487.25 76,-441.5 76,-441.5 76,-441.5 76,-132 76,-94.24 84.53,-79.61 114,-56 145.07,-31.11 188.04,-19.75 224.32,-14.66"/>
<polygon fill="midnightblue" stroke="midnightblue" points="224.88,-18.12 234.36,-13.39 224,-11.17 224.88,-18.12"/>
</g>
<!-- Node7 -->
<g id="node7" class="node">
<title>Node7</title>
<g id="a_node7"><a xlink:href="api_2proto__stats__types_8h.html" target="_top" xlink:title=" ">
<polygon fill="white" stroke="black" points="699,-358.5 699,-388.5 809,-388.5 809,-358.5 699,-358.5"/>
<text text-anchor="start" x="707" y="-376.5" font-family="Helvetica,sans-Serif" font-size="10.00">odp/api/proto_stats</text>
<text text-anchor="middle" x="754" y="-365.5" font-family="Helvetica,sans-Serif" font-size="10.00">_types.h</text>
</a>
</g>
</g>
<!-- Node6&#45;&gt;Node7 -->
<g id="edge7" class="edge">
<title>Node6&#45;&gt;Node7</title>
<path fill="none" stroke="midnightblue" d="M758.04,-671.35C756.58,-648.77 754,-603.19 754,-564.5 754,-564.5 754,-564.5 754,-501 754,-465.42 754,-424.2 754,-398.74"/>
<polygon fill="midnightblue" stroke="midnightblue" points="757.5,-398.54 754,-388.54 750.5,-398.54 757.5,-398.54"/>
</g>
<!-- Node6&#45;&gt;Node17 -->
<g id="edge40" class="edge">
<title>Node6&#45;&gt;Node17</title>
<path fill="none" stroke="midnightblue" d="M778.42,-671.36C799.72,-656.23 835.23,-632.1 868,-615 1062.12,-513.68 1298,-593.47 1298,-374.5 1298,-374.5 1298,-374.5 1298,-132 1298,-81.35 1244.42,-43.28 1210.73,-24.34"/>
<polygon fill="midnightblue" stroke="midnightblue" points="1212.27,-21.2 1201.81,-19.52 1208.94,-27.36 1212.27,-21.2"/>
</g>
<!-- Node6&#45;&gt;Node18 -->
<g id="edge23" class="edge">
<title>Node6&#45;&gt;Node18</title>
<path fill="none" stroke="midnightblue" d="M702.48,-672.81C654.71,-662.08 587.05,-646.89 541.9,-636.76"/>
<polygon fill="midnightblue" stroke="midnightblue" points="542.59,-633.32 532.07,-634.55 541.06,-640.15 542.59,-633.32"/>
</g>
<!-- Node8 -->
<g id="node8" class="node">
<title>Node8</title>
<g id="a_node8"><a xlink:title=" ">
<polygon fill="white" stroke="#bfbfbf" points="750,-291.5 750,-321.5 878,-321.5 878,-291.5 750,-291.5"/>
<text text-anchor="start" x="758" y="-309.5" font-family="Helvetica,sans-Serif" font-size="10.00">odp/api/abi/proto_stats</text>
<text text-anchor="middle" x="814" y="-298.5" font-family="Helvetica,sans-Serif" font-size="10.00">_types.h</text>
</a>
</g>
</g>
<!-- Node7&#45;&gt;Node8 -->
<g id="edge8" class="edge">
<title>Node7&#45;&gt;Node8</title>
<path fill="none" stroke="midnightblue" d="M767.02,-358.4C774.96,-349.79 785.27,-338.63 794.2,-328.94"/>
<polygon fill="midnightblue" stroke="midnightblue" points="796.8,-331.3 801.01,-321.58 791.65,-326.55 796.8,-331.3"/>
</g>
<!-- Node9 -->
<g id="node9" class="node">
<title>Node9</title>
<g id="a_node9"><a xlink:href="api_2spec_2proto__stats__types_8h.html" target="_top" xlink:title=" ">
<polygon fill="white" stroke="black" points="624.5,-291.5 624.5,-321.5 731.5,-321.5 731.5,-291.5 624.5,-291.5"/>
<text text-anchor="start" x="632.5" y="-309.5" font-family="Helvetica,sans-Serif" font-size="10.00">odp/api/spec/proto</text>
<text text-anchor="middle" x="678" y="-298.5" font-family="Helvetica,sans-Serif" font-size="10.00">_stats_types.h</text>
</a>
</g>
</g>
<!-- Node7&#45;&gt;Node9 -->
<g id="edge9" class="edge">
<title>Node7&#45;&gt;Node9</title>
<path fill="none" stroke="midnightblue" d="M737.51,-358.4C727.15,-349.54 713.62,-337.96 702.07,-328.09"/>
<polygon fill="midnightblue" stroke="midnightblue" points="704.33,-325.42 694.46,-321.58 699.78,-330.74 704.33,-325.42"/>
</g>
<!-- Node9&#45;&gt;Node2 -->
<g id="edge10" class="edge">
<title>Node9&#45;&gt;Node2</title>
<path fill="none" stroke="midnightblue" d="M659.78,-291.49C595.61,-242.15 380.32,-76.61 314.37,-25.89"/>
<polygon fill="midnightblue" stroke="midnightblue" points="316.15,-22.85 306.09,-19.52 311.88,-28.39 316.15,-22.85"/>
</g>
<!-- Node9&#45;&gt;Node10 -->
<g id="edge11" class="edge">
<title>Node9&#45;&gt;Node10</title>
<path fill="none" stroke="midnightblue" d="M731.61,-293.14C734.79,-292.42 737.94,-291.7 741,-291 792.83,-279.21 852.25,-265.86 892.77,-256.78"/>
<polygon fill="midnightblue" stroke="midnightblue" points="893.65,-260.17 902.65,-254.57 892.12,-253.34 893.65,-260.17"/>
</g>
<!-- Node9&#45;&gt;Node17 -->
<g id="edge22" class="edge">
<title>Node9&#45;&gt;Node17</title>
<path fill="none" stroke="midnightblue" d="M712.09,-291.49C764.03,-269.05 857,-224.12 857,-190 857,-190 857,-190 857,-132 857,-97.18 850.18,-79.36 876,-56 910.47,-24.81 1037.69,-15.22 1117.45,-12.28"/>
<polygon fill="midnightblue" stroke="midnightblue" points="1118.01,-15.77 1127.89,-11.93 1117.78,-8.77 1118.01,-15.77"/>
</g>
<!-- Node11 -->
<g id="node11" class="node">
<title>Node11</title>
<g id="a_node11"><a xlink:title=" ">
<polygon fill="white" stroke="#bfbfbf" points="885,-179.5 885,-198.5 1015,-198.5 1015,-179.5 885,-179.5"/>
<text text-anchor="middle" x="950" y="-186.5" font-family="Helvetica,sans-Serif" font-size="10.00">odp/api/abi/std_types.h</text>
</a>
</g>
</g>
<!-- Node10&#45;&gt;Node11 -->
<g id="edge12" class="edge">
<title>Node10&#45;&gt;Node11</title>
<path fill="none" stroke="midnightblue" d="M942.49,-235.08C943.68,-227.93 945.39,-217.64 946.88,-208.69"/>
<polygon fill="midnightblue" stroke="midnightblue" points="950.35,-209.19 948.54,-198.75 943.45,-208.04 950.35,-209.19"/>
</g>
<!-- Node12 -->
<g id="node12" class="node">
<title>Node12</title>
<g id="a_node12"><a xlink:href="api_2spec_2std__types_8h.html" target="_top" xlink:title=" ">
<polygon fill="white" stroke="black" points="691.5,-179.5 691.5,-198.5 828.5,-198.5 828.5,-179.5 691.5,-179.5"/>
<text text-anchor="middle" x="760" y="-186.5" font-family="Helvetica,sans-Serif" font-size="10.00">odp/api/spec/std_types.h</text>
</a>
</g>
</g>
<!-- Node10&#45;&gt;Node12 -->
<g id="edge13" class="edge">
<title>Node10&#45;&gt;Node12</title>
<path fill="none" stroke="midnightblue" d="M912.32,-235.44C881.47,-226.24 832.27,-211.56 798.17,-201.39"/>
<polygon fill="midnightblue" stroke="midnightblue" points="799.13,-198.02 788.55,-198.52 797.13,-204.73 799.13,-198.02"/>
</g>
<!-- Node12&#45;&gt;Node2 -->
<g id="edge14" class="edge">
<title>Node12&#45;&gt;Node2</title>
<path fill="none" stroke="midnightblue" d="M722.19,-179.44C689.37,-171.52 640.83,-158.63 600,-143 518.13,-111.67 503.82,-89.93 423,-56 392.9,-43.36 357.87,-31.22 332.07,-22.74"/>
<polygon fill="midnightblue" stroke="midnightblue" points="332.92,-19.33 322.32,-19.56 330.75,-25.99 332.92,-19.33"/>
</g>
<!-- Node13 -->
<g id="node13" class="node">
<title>Node13</title>
<g id="a_node13"><a xlink:title=" ">
<polygon fill="white" stroke="#bfbfbf" points="755.5,-123.5 755.5,-142.5 808.5,-142.5 808.5,-123.5 755.5,-123.5"/>
<text text-anchor="middle" x="782" y="-130.5" font-family="Helvetica,sans-Serif" font-size="10.00">stdint.h</text>
</a>
</g>
</g>
<!-- Node12&#45;&gt;Node13 -->
<g id="edge15" class="edge">
<title>Node12&#45;&gt;Node13</title>
<path fill="none" stroke="midnightblue" d="M763.63,-179.08C766.61,-171.77 770.93,-161.18 774.62,-152.1"/>
<polygon fill="midnightblue" stroke="midnightblue" points="777.9,-153.33 778.43,-142.75 771.42,-150.69 777.9,-153.33"/>
</g>
<!-- Node14 -->
<g id="node14" class="node">
<title>Node14</title>
<g id="a_node14"><a xlink:href="api_2align_8h.html" target="_top" xlink:title=" ">
<polygon fill="white" stroke="black" points="609.5,-123.5 609.5,-142.5 698.5,-142.5 698.5,-123.5 609.5,-123.5"/>
<text text-anchor="middle" x="654" y="-130.5" font-family="Helvetica,sans-Serif" font-size="10.00">odp/api/align.h</text>
</a>
</g>
</g>
<!-- Node12&#45;&gt;Node14 -->
<g id="edge16" class="edge">
<title>Node12&#45;&gt;Node14</title>
<path fill="none" stroke="midnightblue" d="M742.97,-179.32C725.97,-170.66 699.62,-157.24 680.01,-147.25"/>
<polygon fill="midnightblue" stroke="midnightblue" points="681.49,-144.08 670.99,-142.65 678.31,-150.31 681.49,-144.08"/>
</g>
<!-- Node12&#45;&gt;Node17 -->
<g id="edge21" class="edge">
<title>Node12&#45;&gt;Node17</title>
<path fill="none" stroke="midnightblue" d="M828.63,-182.29C938.8,-172.82 1144.04,-153.86 1156,-143 1187.84,-114.07 1188.41,-58.73 1186.19,-29.75"/>
<polygon fill="midnightblue" stroke="midnightblue" points="1189.66,-29.34 1185.22,-19.73 1182.7,-30.02 1189.66,-29.34"/>
</g>
<!-- Node15 -->
<g id="node15" class="node">
<title>Node15</title>
<g id="a_node15"><a xlink:title=" ">
<polygon fill="white" stroke="#bfbfbf" points="683.5,-62 683.5,-81 790.5,-81 790.5,-62 683.5,-62"/>
<text text-anchor="middle" x="737" y="-69" font-family="Helvetica,sans-Serif" font-size="10.00">odp/api/abi/align.h</text>
</a>
</g>
</g>
<!-- Node14&#45;&gt;Node15 -->
<g id="edge17" class="edge">
<title>Node14&#45;&gt;Node15</title>
<path fill="none" stroke="midnightblue" d="M665.89,-123.48C679.2,-113.93 701,-98.31 716.96,-86.87"/>
<polygon fill="midnightblue" stroke="midnightblue" points="719.04,-89.68 725.13,-81.01 714.96,-83.99 719.04,-89.68"/>
</g>
<!-- Node16 -->
<g id="node16" class="node">
<title>Node16</title>
<g id="a_node16"><a xlink:href="api_2spec_2align_8h.html" target="_top" xlink:title=" ">
<polygon fill="white" stroke="black" points="551,-62 551,-81 665,-81 665,-62 551,-62"/>
<text text-anchor="middle" x="608" y="-69" font-family="Helvetica,sans-Serif" font-size="10.00">odp/api/spec/align.h</text>
</a>
</g>
</g>
<!-- Node14&#45;&gt;Node16 -->
<g id="edge18" class="edge">
<title>Node14&#45;&gt;Node16</title>
<path fill="none" stroke="midnightblue" d="M647.41,-123.48C640.51,-114.55 629.5,-100.31 620.87,-89.14"/>
<polygon fill="midnightblue" stroke="midnightblue" points="623.46,-86.78 614.58,-81.01 617.93,-91.06 623.46,-86.78"/>
</g>
<!-- Node16&#45;&gt;Node2 -->
<g id="edge19" class="edge">
<title>Node16&#45;&gt;Node2</title>
<path fill="none" stroke="midnightblue" d="M566.73,-61.94C556.99,-59.96 546.63,-57.88 537,-56 473.96,-43.7 401.52,-30.33 352.45,-21.39"/>
<polygon fill="midnightblue" stroke="midnightblue" points="352.81,-17.9 342.35,-19.55 351.56,-24.78 352.81,-17.9"/>
</g>
<!-- Node16&#45;&gt;Node17 -->
<g id="edge20" class="edge">
<title>Node16&#45;&gt;Node17</title>
<path fill="none" stroke="midnightblue" d="M642.78,-61.98C652.81,-59.77 663.8,-57.56 674,-56 832.26,-31.74 1020.3,-19.34 1117.86,-14.12"/>
<polygon fill="midnightblue" stroke="midnightblue" points="1118.07,-17.62 1127.87,-13.59 1117.7,-10.62 1118.07,-17.62"/>
</g>
<!-- Node19 -->
<g id="node19" class="node">
<title>Node19</title>
<g id="a_node19"><a xlink:title=" ">
<polygon fill="white" stroke="#bfbfbf" points="412.5,-554 412.5,-573 557.5,-573 557.5,-554 412.5,-554"/>
<text text-anchor="middle" x="485" y="-561" font-family="Helvetica,sans-Serif" font-size="10.00">odp/api/abi/queue_types.h</text>
</a>
</g>
</g>
<!-- Node18&#45;&gt;Node19 -->
<g id="edge24" class="edge">
<title>Node18&#45;&gt;Node19</title>
<path fill="none" stroke="midnightblue" d="M492.71,-615.48C491.44,-607.08 489.46,-593.98 487.82,-583.16"/>
<polygon fill="midnightblue" stroke="midnightblue" points="491.24,-582.37 486.29,-573.01 484.32,-583.42 491.24,-582.37"/>
</g>
<!-- Node20 -->
<g id="node20" class="node">
<title>Node20</title>
<g id="a_node20"><a xlink:href="api_2spec_2queue__types_8h.html" target="_top" xlink:title=" ">
<polygon fill="white" stroke="black" points="614.5,-548.5 614.5,-578.5 725.5,-578.5 725.5,-548.5 614.5,-548.5"/>
<text text-anchor="start" x="622.5" y="-566.5" font-family="Helvetica,sans-Serif" font-size="10.00">odp/api/spec/queue</text>
<text text-anchor="middle" x="670" y="-555.5" font-family="Helvetica,sans-Serif" font-size="10.00">_types.h</text>
</a>
</g>
</g>
<!-- Node18&#45;&gt;Node20 -->
<g id="edge25" class="edge">
<title>Node18&#45;&gt;Node20</title>
<path fill="none" stroke="midnightblue" d="M519.22,-615.48C545.06,-606.74 585.97,-592.91 618.66,-581.86"/>
<polygon fill="midnightblue" stroke="midnightblue" points="620.17,-585.04 628.52,-578.52 617.93,-578.41 620.17,-585.04"/>
</g>
<!-- Node20&#45;&gt;Node2 -->
<g id="edge26" class="edge">
<title>Node20&#45;&gt;Node2</title>
<path fill="none" stroke="midnightblue" d="M614.3,-550.5C609.47,-549.6 604.66,-548.75 600,-548 490.86,-530.33 114,-552.06 114,-441.5 114,-441.5 114,-441.5 114,-132 114,-96.58 112.62,-80.71 138,-56 161,-33.61 194.36,-22.22 224.42,-16.48"/>
<polygon fill="midnightblue" stroke="midnightblue" points="225.21,-19.9 234.46,-14.75 224.01,-13 225.21,-19.9"/>
</g>
<!-- Node20&#45;&gt;Node17 -->
<g id="edge39" class="edge">
<title>Node20&#45;&gt;Node17</title>
<path fill="none" stroke="midnightblue" d="M704.28,-548.37C741,-533.47 801.14,-509.74 854,-492 1032.09,-432.23 1260,-562.35 1260,-374.5 1260,-374.5 1260,-374.5 1260,-132 1260,-88.48 1224.3,-47.77 1201.84,-26.47"/>
<polygon fill="midnightblue" stroke="midnightblue" points="1203.99,-23.7 1194.25,-19.53 1199.27,-28.86 1203.99,-23.7"/>
</g>
<!-- Node21 -->
<g id="node21" class="node">
<title>Node21</title>
<g id="a_node21"><a xlink:href="api_2schedule__types_8h.html" target="_top" xlink:title=" ">
<polygon fill="white" stroke="black" points="302,-492.5 302,-511.5 442,-511.5 442,-492.5 302,-492.5"/>
<text text-anchor="middle" x="372" y="-499.5" font-family="Helvetica,sans-Serif" font-size="10.00">odp/api/schedule_types.h</text>
</a>
</g>
</g>
<!-- Node20&#45;&gt;Node21 -->
<g id="edge27" class="edge">
<title>Node20&#45;&gt;Node21</title>
<path fill="none" stroke="midnightblue" d="M614.23,-550.9C609.42,-549.91 604.62,-548.93 600,-548 540.44,-535.95 472.05,-522.51 425.83,-513.48"/>
<polygon fill="midnightblue" stroke="midnightblue" points="426.22,-509.99 415.73,-511.51 424.88,-516.86 426.22,-509.99"/>
</g>
<!-- Node22 -->
<g id="node22" class="node">
<title>Node22</title>
<g id="a_node22"><a xlink:title=" ">
<polygon fill="white" stroke="#bfbfbf" points="142.5,-425.5 142.5,-455.5 259.5,-455.5 259.5,-425.5 142.5,-425.5"/>
<text text-anchor="start" x="150.5" y="-443.5" font-family="Helvetica,sans-Serif" font-size="10.00">odp/api/abi/schedule</text>
<text text-anchor="middle" x="201" y="-432.5" font-family="Helvetica,sans-Serif" font-size="10.00">_types.h</text>
</a>
</g>
</g>
<!-- Node21&#45;&gt;Node22 -->
<g id="edge28" class="edge">
<title>Node21&#45;&gt;Node22</title>
<path fill="none" stroke="midnightblue" d="M347.5,-492.48C322.39,-483.74 282.64,-469.91 250.88,-458.86"/>
<polygon fill="midnightblue" stroke="midnightblue" points="251.9,-455.5 241.3,-455.52 249.6,-462.11 251.9,-455.5"/>
</g>
<!-- Node23 -->
<g id="node23" class="node">
<title>Node23</title>
<g id="a_node23"><a xlink:href="api_2spec_2schedule__types_8h.html" target="_top" xlink:title=" ">
<polygon fill="white" stroke="black" points="316.5,-425.5 316.5,-455.5 441.5,-455.5 441.5,-425.5 316.5,-425.5"/>
<text text-anchor="start" x="324.5" y="-443.5" font-family="Helvetica,sans-Serif" font-size="10.00">odp/api/spec/schedule</text>
<text text-anchor="middle" x="379" y="-432.5" font-family="Helvetica,sans-Serif" font-size="10.00">_types.h</text>
</a>
</g>
</g>
<!-- Node21&#45;&gt;Node23 -->
<g id="edge29" class="edge">
<title>Node21&#45;&gt;Node23</title>
<path fill="none" stroke="midnightblue" d="M373,-492.48C373.83,-485.47 375.04,-475.19 376.15,-465.7"/>
<polygon fill="midnightblue" stroke="midnightblue" points="379.66,-465.86 377.35,-455.52 372.71,-465.05 379.66,-465.86"/>
</g>
<!-- Node23&#45;&gt;Node2 -->
<g id="edge30" class="edge">
<title>Node23&#45;&gt;Node2</title>
<path fill="none" stroke="midnightblue" d="M321.52,-425.48C265.92,-408.08 190,-372.44 190,-307.5 190,-307.5 190,-307.5 190,-132 190,-83.14 239.44,-44.36 270.47,-24.84"/>
<polygon fill="midnightblue" stroke="midnightblue" points="272.32,-27.81 279.05,-19.62 268.69,-21.82 272.32,-27.81"/>
</g>
<!-- Node23&#45;&gt;Node10 -->
<g id="edge31" class="edge">
<title>Node23&#45;&gt;Node10</title>
<path fill="none" stroke="midnightblue" d="M441.67,-437.24C546.63,-432.64 752.83,-419.89 818,-389 874.61,-362.17 915.3,-295.59 932.25,-263.65"/>
<polygon fill="midnightblue" stroke="midnightblue" points="935.45,-265.08 936.91,-254.59 929.22,-261.88 935.45,-265.08"/>
</g>
<!-- Node23&#45;&gt;Node17 -->
<g id="edge38" class="edge">
<title>Node23&#45;&gt;Node17</title>
<path fill="none" stroke="midnightblue" d="M410.87,-425.36C452.07,-406.06 524.61,-368.48 576,-322 634.67,-268.93 628.37,-237.16 682,-179 707.62,-151.21 715.62,-145.48 746,-123 757.35,-114.6 840.71,-60.78 854,-56 941.59,-24.48 1049.52,-14.81 1117.57,-11.97"/>
<polygon fill="midnightblue" stroke="midnightblue" points="1117.86,-15.46 1127.72,-11.59 1117.6,-8.47 1117.86,-15.46"/>
</g>
<!-- Node24 -->
<g id="node24" class="node">
<title>Node24</title>
<g id="a_node24"><a xlink:href="api_2thrmask_8h.html" target="_top" xlink:title=" ">
<polygon fill="white" stroke="black" points="298.5,-364 298.5,-383 403.5,-383 403.5,-364 298.5,-364"/>
<text text-anchor="middle" x="351" y="-371" font-family="Helvetica,sans-Serif" font-size="10.00">odp/api/thrmask.h</text>
</a>
</g>
</g>
<!-- Node23&#45;&gt;Node24 -->
<g id="edge32" class="edge">
<title>Node23&#45;&gt;Node24</title>
<path fill="none" stroke="midnightblue" d="M372.92,-425.4C368.77,-415.76 363.24,-402.91 358.77,-392.54"/>
<polygon fill="midnightblue" stroke="midnightblue" points="361.92,-390.99 354.75,-383.19 355.49,-393.76 361.92,-390.99"/>
</g>
<!-- Node25 -->
<g id="node25" class="node">
<title>Node25</title>
<g id="a_node25"><a xlink:title=" ">
<polygon fill="white" stroke="#bfbfbf" points="218.5,-297 218.5,-316 341.5,-316 341.5,-297 218.5,-297"/>
<text text-anchor="middle" x="280" y="-304" font-family="Helvetica,sans-Serif" font-size="10.00">odp/api/abi/thrmask.h</text>
</a>
</g>
</g>
<!-- Node24&#45;&gt;Node25 -->
<g id="edge33" class="edge">
<title>Node24&#45;&gt;Node25</title>
<path fill="none" stroke="midnightblue" d="M341.42,-363.73C330.03,-353.31 310.81,-335.71 296.9,-322.97"/>
<polygon fill="midnightblue" stroke="midnightblue" points="299.16,-320.3 289.42,-316.13 294.44,-325.46 299.16,-320.3"/>
</g>
<!-- Node26 -->
<g id="node26" class="node">
<title>Node26</title>
<g id="a_node26"><a xlink:href="api_2spec_2thrmask_8h.html" target="_top" xlink:title=" ">
<polygon fill="white" stroke="black" points="436.5,-297 436.5,-316 567.5,-316 567.5,-297 436.5,-297"/>
<text text-anchor="middle" x="502" y="-304" font-family="Helvetica,sans-Serif" font-size="10.00">odp/api/spec/thrmask.h</text>
</a>
</g>
</g>
<!-- Node24&#45;&gt;Node26 -->
<g id="edge34" class="edge">
<title>Node24&#45;&gt;Node26</title>
<path fill="none" stroke="midnightblue" d="M371.05,-363.87C397,-352.7 442.42,-333.15 472.36,-320.26"/>
<polygon fill="midnightblue" stroke="midnightblue" points="474.06,-323.34 481.87,-316.17 471.3,-316.91 474.06,-323.34"/>
</g>
<!-- Node26&#45;&gt;Node2 -->
<g id="edge35" class="edge">
<title>Node26&#45;&gt;Node2</title>
<path fill="none" stroke="midnightblue" d="M485.83,-296.82C457.7,-280.96 399.57,-244.67 366,-199 355.45,-184.65 316.57,-73.61 301.26,-29.24"/>
<polygon fill="midnightblue" stroke="midnightblue" points="304.54,-28.03 297.98,-19.71 297.92,-30.31 304.54,-28.03"/>
</g>
<!-- Node26&#45;&gt;Node10 -->
<g id="edge36" class="edge">
<title>Node26&#45;&gt;Node10</title>
<path fill="none" stroke="midnightblue" d="M564.9,-296.98C647.26,-285.81 790.99,-266.33 874.9,-254.96"/>
<polygon fill="midnightblue" stroke="midnightblue" points="875.39,-258.42 884.83,-253.61 874.45,-251.49 875.39,-258.42"/>
</g>
<!-- Node26&#45;&gt;Node17 -->
<g id="edge37" class="edge">
<title>Node26&#45;&gt;Node17</title>
<path fill="none" stroke="midnightblue" d="M500.13,-296.94C492.83,-261.09 470.14,-121.73 542,-56 583.78,-17.78 961.96,-11.87 1117.57,-11.07"/>
<polygon fill="midnightblue" stroke="midnightblue" points="1117.96,-14.57 1127.94,-11.02 1117.92,-7.57 1117.96,-14.57"/>
</g>
<!-- Node27&#45;&gt;Node4 -->
<g id="edge42" class="edge">
<title>Node27&#45;&gt;Node4</title>
<path fill="none" stroke="midnightblue" d="M416.44,-738.48C418.46,-731.4 421.44,-720.97 424.17,-711.39"/>
<polygon fill="midnightblue" stroke="midnightblue" points="427.61,-712.1 426.99,-701.52 420.88,-710.18 427.61,-712.1"/>
</g>
<!-- Node28 -->
<g id="node28" class="node">
<title>Node28</title>
<g id="a_node28"><a xlink:href="spec_2packet__io__stats_8h.html" target="_top" xlink:title=" ">
<polygon fill="white" stroke="black" points="246.5,-671.5 246.5,-701.5 359.5,-701.5 359.5,-671.5 246.5,-671.5"/>
<text text-anchor="start" x="254.5" y="-689.5" font-family="Helvetica,sans-Serif" font-size="10.00">odp/api/spec/packet</text>
<text text-anchor="middle" x="303" y="-678.5" font-family="Helvetica,sans-Serif" font-size="10.00">_io_stats.h</text>
</a>
</g>
</g>
<!-- Node27&#45;&gt;Node28 -->
<g id="edge43" class="edge">
<title>Node27&#45;&gt;Node28</title>
<path fill="none" stroke="midnightblue" d="M398.1,-738.48C382.5,-730.12 358.2,-717.09 338.07,-706.3"/>
<polygon fill="midnightblue" stroke="midnightblue" points="339.63,-703.16 329.16,-701.52 336.32,-709.33 339.63,-703.16"/>
</g>
<!-- Node28&#45;&gt;Node2 -->
<g id="edge44" class="edge">
<title>Node28&#45;&gt;Node2</title>
<path fill="none" stroke="midnightblue" d="M246.48,-683.89C168.65,-678.31 38,-655.41 38,-564.5 38,-564.5 38,-564.5 38,-132 38,-96.58 35.55,-79.57 62,-56 85.63,-34.95 164.79,-22.96 224.34,-16.73"/>
<polygon fill="midnightblue" stroke="midnightblue" points="224.86,-20.2 234.46,-15.71 224.16,-13.23 224.86,-20.2"/>
</g>
<!-- Node28&#45;&gt;Node17 -->
<g id="edge46" class="edge">
<title>Node28&#45;&gt;Node17</title>
<path fill="none" stroke="midnightblue" d="M311.41,-671.17C327.24,-644.93 363.43,-588.16 403,-548 421.72,-529.01 439.07,-535.85 451,-512 495.18,-423.63 409.58,-388.25 427,-291 446.64,-181.37 424.78,-122.66 514,-56 561.58,-20.45 957.93,-12.98 1117.67,-11.42"/>
<polygon fill="midnightblue" stroke="midnightblue" points="1117.87,-14.91 1127.84,-11.32 1117.81,-7.91 1117.87,-14.91"/>
</g>
<!-- Node28&#45;&gt;Node18 -->
<g id="edge45" class="edge">
<title>Node28&#45;&gt;Node18</title>
<path fill="none" stroke="midnightblue" d="M348.26,-671.4C381.41,-661.07 425.85,-647.23 456.9,-637.56"/>
<polygon fill="midnightblue" stroke="midnightblue" points="457.98,-640.89 466.49,-634.57 455.9,-634.2 457.98,-640.89"/>
</g>
<!-- Node30 -->
<g id="node30" class="node">
<title>Node30</title>
<g id="a_node30"><a xlink:title=" ">
<polygon fill="white" stroke="#bfbfbf" points="912,-906.5 912,-925.5 1048,-925.5 1048,-906.5 912,-906.5"/>
<text text-anchor="middle" x="980" y="-913.5" font-family="Helvetica,sans-Serif" font-size="10.00">odp/api/abi/pool_types.h</text>
</a>
</g>
</g>
<!-- Node29&#45;&gt;Node30 -->
<g id="edge48" class="edge">
<title>Node29&#45;&gt;Node30</title>
<path fill="none" stroke="midnightblue" d="M980,-962.08C980,-955.01 980,-944.86 980,-935.99"/>
<polygon fill="midnightblue" stroke="midnightblue" points="983.5,-935.75 980,-925.75 976.5,-935.75 983.5,-935.75"/>
</g>
<!-- Node31 -->
<g id="node31" class="node">
<title>Node31</title>
<g id="a_node31"><a xlink:href="api_2spec_2pool__types_8h.html" target="_top" xlink:title=" ">
<polygon fill="white" stroke="black" points="1068.5,-906.5 1068.5,-925.5 1211.5,-925.5 1211.5,-906.5 1068.5,-906.5"/>
<text text-anchor="middle" x="1140" y="-913.5" font-family="Helvetica,sans-Serif" font-size="10.00">odp/api/spec/pool_types.h</text>
</a>
</g>
</g>
<!-- Node29&#45;&gt;Node31 -->
<g id="edge49" class="edge">
<title>Node29&#45;&gt;Node31</title>
<path fill="none" stroke="midnightblue" d="M1005.35,-962.44C1032.27,-953.36 1075,-938.94 1105.09,-928.78"/>
<polygon fill="midnightblue" stroke="midnightblue" points="1106.41,-932.03 1114.77,-925.52 1104.17,-925.4 1106.41,-932.03"/>
</g>
<!-- Node31&#45;&gt;Node2 -->
<g id="edge50" class="edge">
<title>Node31&#45;&gt;Node2</title>
<path fill="none" stroke="midnightblue" d="M1086.74,-906.44C1001.52,-891.23 844,-856.19 844,-805 844,-805 844,-805 844,-685.5 844,-607.24 800.55,-589.18 734,-548 651.46,-496.92 394.74,-497.51 307,-456 286.98,-446.53 286.29,-437.48 268,-425 207.39,-383.64 152,-380.88 152,-307.5 152,-307.5 152,-307.5 152,-132 152,-75.73 217.32,-40.25 259.67,-23.16"/>
<polygon fill="midnightblue" stroke="midnightblue" points="261.05,-26.38 269.1,-19.5 258.51,-19.85 261.05,-26.38"/>
</g>
<!-- Node31&#45;&gt;Node10 -->
<g id="edge51" class="edge">
<title>Node31&#45;&gt;Node10</title>
<path fill="none" stroke="midnightblue" d="M1161.86,-906.4C1177.5,-899.1 1197.71,-887.05 1209,-870 1227.81,-841.59 1227.66,-826.95 1219,-794 1173.28,-620 1020,-621.41 1020,-441.5 1020,-441.5 1020,-441.5 1020,-372.5 1020,-326.64 982.18,-283.69 958.88,-261.57"/>
<polygon fill="midnightblue" stroke="midnightblue" points="961.06,-258.82 951.33,-254.64 956.33,-263.98 961.06,-258.82"/>
</g>
<!-- Node31&#45;&gt;Node17 -->
<g id="edge65" class="edge">
<title>Node31&#45;&gt;Node17</title>
<path fill="none" stroke="midnightblue" d="M1170.06,-906.45C1189.2,-899.54 1213.1,-887.96 1228,-870 1374.55,-693.27 1374,-604.08 1374,-374.5 1374,-374.5 1374,-374.5 1374,-132 1374,-68.18 1296.78,-36.55 1240.8,-22.01"/>
<polygon fill="midnightblue" stroke="midnightblue" points="1241.51,-18.58 1230.97,-19.57 1239.83,-25.38 1241.51,-18.58"/>
</g>
<!-- Node32 -->
<g id="node32" class="node">
<title>Node32</title>
<g id="a_node32"><a xlink:href="api_2dma__types_8h.html" target="_top" xlink:title=" ">
<polygon fill="white" stroke="black" points="1080.5,-850.5 1080.5,-869.5 1199.5,-869.5 1199.5,-850.5 1080.5,-850.5"/>
<text text-anchor="middle" x="1140" y="-857.5" font-family="Helvetica,sans-Serif" font-size="10.00">odp/api/dma_types.h</text>
</a>
</g>
</g>
<!-- Node31&#45;&gt;Node32 -->
<g id="edge52" class="edge">
<title>Node31&#45;&gt;Node32</title>
<path fill="none" stroke="midnightblue" d="M1140,-906.08C1140,-899.01 1140,-888.86 1140,-879.99"/>
<polygon fill="midnightblue" stroke="midnightblue" points="1143.5,-879.75 1140,-869.75 1136.5,-879.75 1143.5,-879.75"/>
</g>
<!-- Node33 -->
<g id="node33" class="node">
<title>Node33</title>
<g id="a_node33"><a xlink:title=" ">
<polygon fill="white" stroke="#bfbfbf" points="1072.5,-794.5 1072.5,-813.5 1209.5,-813.5 1209.5,-794.5 1072.5,-794.5"/>
<text text-anchor="middle" x="1141" y="-801.5" font-family="Helvetica,sans-Serif" font-size="10.00">odp/api/abi/dma_types.h</text>
</a>
</g>
</g>
<!-- Node32&#45;&gt;Node33 -->
<g id="edge53" class="edge">
<title>Node32&#45;&gt;Node33</title>
<path fill="none" stroke="midnightblue" d="M1140.17,-850.08C1140.3,-843.01 1140.48,-832.86 1140.65,-823.99"/>
<polygon fill="midnightblue" stroke="midnightblue" points="1144.15,-823.81 1140.84,-813.75 1137.15,-823.68 1144.15,-823.81"/>
</g>
<!-- Node34 -->
<g id="node34" class="node">
<title>Node34</title>
<g id="a_node34"><a xlink:href="api_2spec_2dma__types_8h.html" target="_top" xlink:title=" ">
<polygon fill="white" stroke="black" points="910,-794.5 910,-813.5 1054,-813.5 1054,-794.5 910,-794.5"/>
<text text-anchor="middle" x="982" y="-801.5" font-family="Helvetica,sans-Serif" font-size="10.00">odp/api/spec/dma_types.h</text>
</a>
</g>
</g>
<!-- Node32&#45;&gt;Node34 -->
<g id="edge54" class="edge">
<title>Node32&#45;&gt;Node34</title>
<path fill="none" stroke="midnightblue" d="M1114.96,-850.44C1088.38,-841.36 1046.19,-826.94 1016.48,-816.78"/>
<polygon fill="midnightblue" stroke="midnightblue" points="1017.51,-813.44 1006.92,-813.52 1015.25,-820.06 1017.51,-813.44"/>
</g>
<!-- Node34&#45;&gt;Node2 -->
<g id="edge55" class="edge">
<title>Node34&#45;&gt;Node2</title>
<path fill="none" stroke="midnightblue" d="M980.62,-794.49C973.71,-754.65 939.4,-584.53 844,-492 700.33,-352.65 579.02,-452.18 427,-322 333.4,-241.85 304.53,-83.8 297.18,-29.69"/>
<polygon fill="midnightblue" stroke="midnightblue" points="300.62,-29.01 295.9,-19.53 293.68,-29.89 300.62,-29.01"/>
</g>
<!-- Node34&#45;&gt;Node3 -->
<g id="edge61" class="edge">
<title>Node34&#45;&gt;Node3</title>
<path fill="none" stroke="midnightblue" d="M922.26,-794.44C854.98,-784.81 745.77,-769.16 674.66,-758.98"/>
<polygon fill="midnightblue" stroke="midnightblue" points="674.85,-755.47 664.46,-757.52 673.86,-762.4 674.85,-755.47"/>
</g>
<!-- Node34&#45;&gt;Node10 -->
<g id="edge63" class="edge">
<title>Node34&#45;&gt;Node10</title>
<path fill="none" stroke="midnightblue" d="M982,-794.31C982,-775.06 982,-727.4 982,-687.5 982,-687.5 982,-687.5 982,-372.5 982,-331.9 962.65,-287.38 950.54,-263.49"/>
<polygon fill="midnightblue" stroke="midnightblue" points="953.61,-261.81 945.86,-254.58 947.41,-265.06 953.61,-261.81"/>
</g>
<!-- Node34&#45;&gt;Node17 -->
<g id="edge64" class="edge">
<title>Node34&#45;&gt;Node17</title>
<path fill="none" stroke="midnightblue" d="M1004.82,-794.4C1025.05,-786.32 1055.02,-773.21 1079,-758 1111.77,-737.21 1119.19,-730.06 1146,-702 1262.25,-580.33 1336,-542.78 1336,-374.5 1336,-374.5 1336,-374.5 1336,-132 1336,-74.18 1267.85,-39.54 1222.81,-22.96"/>
<polygon fill="midnightblue" stroke="midnightblue" points="1223.9,-19.64 1213.31,-19.6 1221.57,-26.24 1223.9,-19.64"/>
</g>
<!-- Node34&#45;&gt;Node18 -->
<g id="edge62" class="edge">
<title>Node34&#45;&gt;Node18</title>
<path fill="none" stroke="midnightblue" d="M944.68,-794.4C887.87,-780.36 777.41,-749.24 693,-702 673.98,-691.35 674.35,-681.03 655,-671 623.62,-654.72 585.64,-643.75 554.46,-636.71"/>
<polygon fill="midnightblue" stroke="midnightblue" points="555.11,-633.27 544.59,-634.57 553.62,-640.11 555.11,-633.27"/>
</g>
<!-- Node35 -->
<g id="node35" class="node">
<title>Node35</title>
<g id="a_node35"><a xlink:href="api_2event__types_8h.html" target="_top" xlink:title=" ">
<polygon fill="white" stroke="black" points="1021.5,-123.5 1021.5,-142.5 1146.5,-142.5 1146.5,-123.5 1021.5,-123.5"/>
<text text-anchor="middle" x="1084" y="-130.5" font-family="Helvetica,sans-Serif" font-size="10.00">odp/api/event_types.h</text>
</a>
</g>
</g>
<!-- Node34&#45;&gt;Node35 -->
<g id="edge56" class="edge">
<title>Node34&#45;&gt;Node35</title>
<path fill="none" stroke="midnightblue" d="M997.01,-794.31C1049.55,-762.66 1222,-647.74 1222,-503 1222,-503 1222,-503 1222,-305.5 1222,-233.15 1146.53,-174.01 1107.21,-148.12"/>
<polygon fill="midnightblue" stroke="midnightblue" points="1108.82,-144.99 1098.51,-142.54 1105.04,-150.88 1108.82,-144.99"/>
</g>
<!-- Node36 -->
<g id="node36" class="node">
<title>Node36</title>
<g id="a_node36"><a xlink:title=" ">
<polygon fill="white" stroke="#bfbfbf" points="1012.5,-62 1012.5,-81 1155.5,-81 1155.5,-62 1012.5,-62"/>
<text text-anchor="middle" x="1084" y="-69" font-family="Helvetica,sans-Serif" font-size="10.00">odp/api/abi/event_types.h</text>
</a>
</g>
</g>
<!-- Node35&#45;&gt;Node36 -->
<g id="edge57" class="edge">
<title>Node35&#45;&gt;Node36</title>
<path fill="none" stroke="midnightblue" d="M1084,-123.48C1084,-115.08 1084,-101.98 1084,-91.16"/>
<polygon fill="midnightblue" stroke="midnightblue" points="1087.5,-91.01 1084,-81.01 1080.5,-91.01 1087.5,-91.01"/>
</g>
<!-- Node37 -->
<g id="node37" class="node">
<title>Node37</title>
<g id="a_node37"><a xlink:href="api_2spec_2event__types_8h.html" target="_top" xlink:title=" ">
<polygon fill="white" stroke="black" points="885.5,-56.5 885.5,-86.5 994.5,-86.5 994.5,-56.5 885.5,-56.5"/>
<text text-anchor="start" x="893.5" y="-74.5" font-family="Helvetica,sans-Serif" font-size="10.00">odp/api/spec/event</text>
<text text-anchor="middle" x="940" y="-63.5" font-family="Helvetica,sans-Serif" font-size="10.00">_types.h</text>
</a>
</g>
</g>
<!-- Node35&#45;&gt;Node37 -->
<g id="edge58" class="edge">
<title>Node35&#45;&gt;Node37</title>
<path fill="none" stroke="midnightblue" d="M1063.37,-123.48C1042.59,-114.89 1009.9,-101.38 983.39,-90.43"/>
<polygon fill="midnightblue" stroke="midnightblue" points="984.52,-87.11 973.94,-86.52 981.84,-93.58 984.52,-87.11"/>
</g>
<!-- Node37&#45;&gt;Node2 -->
<g id="edge59" class="edge">
<title>Node37&#45;&gt;Node2</title>
<path fill="none" stroke="midnightblue" d="M885.45,-64.72C859.3,-61.99 827.54,-58.74 799,-56 644.44,-41.15 463.06,-25.36 365.57,-17"/>
<polygon fill="midnightblue" stroke="midnightblue" points="365.8,-13.51 355.54,-16.14 365.2,-20.48 365.8,-13.51"/>
</g>
<!-- Node37&#45;&gt;Node17 -->
<g id="edge60" class="edge">
<title>Node37&#45;&gt;Node17</title>
<path fill="none" stroke="midnightblue" d="M994.76,-57.15C1038.28,-46.53 1098.41,-31.87 1139.11,-21.95"/>
<polygon fill="midnightblue" stroke="midnightblue" points="1140.14,-25.3 1149.02,-19.53 1138.48,-18.5 1140.14,-25.3"/>
</g>
<!-- Node39 -->
<g id="node39" class="node">
<title>Node39</title>
<g id="a_node39"><a xlink:href="spec_2reassembly_8h.html" target="_top" xlink:title=" ">
<polygon fill="white" stroke="black" points="1048,-297 1048,-316 1194,-316 1194,-297 1048,-297"/>
<text text-anchor="middle" x="1121" y="-304" font-family="Helvetica,sans-Serif" font-size="10.00">odp/api/spec/reassembly.h</text>
</a>
</g>
</g>
<!-- Node38&#45;&gt;Node39 -->
<g id="edge68" class="edge">
<title>Node38&#45;&gt;Node39</title>
<path fill="none" stroke="midnightblue" d="M1232.62,-962.27C1260.58,-946.26 1314,-909.34 1314,-861 1314,-861 1314,-861 1314,-803 1314,-657.69 1184,-648.31 1184,-503 1184,-503 1184,-503 1184,-439.5 1184,-394.24 1153.46,-348.02 1134.91,-324.11"/>
<polygon fill="midnightblue" stroke="midnightblue" points="1137.46,-321.7 1128.47,-316.09 1132,-326.08 1137.46,-321.7"/>
</g>
<!-- Node39&#45;&gt;Node2 -->
<g id="edge69" class="edge">
<title>Node39&#45;&gt;Node2</title>
<path fill="none" stroke="midnightblue" d="M1110.71,-296.98C1091.5,-281.61 1048.31,-249.51 1006,-235 868.95,-188.01 822.06,-236.07 682,-199 621.18,-182.91 609.74,-167.97 552,-143 494.63,-118.19 475.47,-120.96 423,-87 405.83,-75.89 405.96,-67.43 389,-56 369.58,-42.91 345.76,-31.56 326.97,-23.53"/>
<polygon fill="midnightblue" stroke="midnightblue" points="328.22,-20.26 317.64,-19.64 325.53,-26.72 328.22,-20.26"/>
</g>
<!-- Node39&#45;&gt;Node10 -->
<g id="edge70" class="edge">
<title>Node39&#45;&gt;Node10</title>
<path fill="none" stroke="midnightblue" d="M1095.21,-296.98C1064.07,-286.68 1011.52,-269.31 976.55,-257.75"/>
<polygon fill="midnightblue" stroke="midnightblue" points="977.34,-254.32 966.74,-254.51 975.14,-260.97 977.34,-254.32"/>
</g>
<!-- Node39&#45;&gt;Node17 -->
<g id="edge71" class="edge">
<title>Node39&#45;&gt;Node17</title>
<path fill="none" stroke="midnightblue" d="M1125.42,-296.64C1139.67,-267.55 1184.29,-171.93 1199,-87 1201.35,-73.42 1201.21,-69.6 1199,-56 1197.53,-46.96 1194.51,-37.28 1191.56,-29.22"/>
<polygon fill="midnightblue" stroke="midnightblue" points="1194.76,-27.79 1187.86,-19.75 1188.24,-30.34 1194.76,-27.79"/>
</g>
</g>
</svg>
