<?xml version="1.0" encoding="UTF-8" standalone="no"?>
<!DOCTYPE svg PUBLIC "-//W3C//DTD SVG 1.1//EN"
 "http://www.w3.org/Graphics/SVG/1.1/DTD/svg11.dtd">
<!-- Generated by graphviz version 2.43.0 (0)
 -->
<!-- Title: align.h Pages: 1 -->
<svg width="3172pt" height="420pt"
 viewBox="0.00 0.00 3171.50 420.00" xmlns="http://www.w3.org/2000/svg" xmlns:xlink="http://www.w3.org/1999/xlink">
<g id="graph0" class="graph" transform="scale(1 1) rotate(0) translate(4 416)">
<title>align.h</title>
<polygon fill="white" stroke="transparent" points="-4,4 -4,-416 3167.5,-416 3167.5,4 -4,4"/>
<!-- Node1 -->
<g id="node1" class="node">
<title>Node1</title>
<g id="a_node1"><a xlink:title=" ">
<polygon fill="#bfbfbf" stroke="black" points="1995.5,-392.5 1995.5,-411.5 2045.5,-411.5 2045.5,-392.5 1995.5,-392.5"/>
<text text-anchor="middle" x="2020.5" y="-399.5" font-family="Helvetica,sans-Serif" font-size="10.00">align.h</text>
</a>
</g>
</g>
<!-- Node2 -->
<g id="node2" class="node">
<title>Node2</title>
<g id="a_node2"><a xlink:href="api_2abi-default_2atomic_8h.html" target="_top" xlink:title=" ">
<polygon fill="white" stroke="black" points="154,-224.5 154,-243.5 213,-243.5 213,-224.5 154,-224.5"/>
<text text-anchor="middle" x="183.5" y="-231.5" font-family="Helvetica,sans-Serif" font-size="10.00">atomic.h</text>
</a>
</g>
</g>
<!-- Node1&#45;&gt;Node2 -->
<g id="edge1" class="edge">
<title>Node1&#45;&gt;Node2</title>
<path fill="none" stroke="midnightblue" d="M1985.28,-399.83C1800.66,-393.33 926.32,-357.6 221.5,-244 218.82,-243.57 216.05,-243.05 213.29,-242.49"/>
<polygon fill="midnightblue" stroke="midnightblue" points="1985.37,-403.34 1995.48,-400.19 1985.61,-396.34 1985.37,-403.34"/>
</g>
<!-- Node18 -->
<g id="node12" class="node">
<title>Node18</title>
<g id="a_node12"><a xlink:href="odp__api_8h.html" target="_top" xlink:title=" ">
<polygon fill="white" stroke="black" points="2372.5,-0.5 2372.5,-19.5 2436.5,-19.5 2436.5,-0.5 2372.5,-0.5"/>
<text text-anchor="middle" x="2404.5" y="-7.5" font-family="Helvetica,sans-Serif" font-size="10.00">odp_api.h</text>
</a>
</g>
</g>
<!-- Node1&#45;&gt;Node18 -->
<g id="edge62" class="edge">
<title>Node1&#45;&gt;Node18</title>
<path fill="none" stroke="midnightblue" d="M2055.85,-401.39C2248.53,-403.09 3163.5,-405.15 3163.5,-291 3163.5,-291 3163.5,-291 3163.5,-121 3163.5,-46.35 2581.09,-18.08 2436.63,-12.21"/>
<polygon fill="midnightblue" stroke="midnightblue" points="2055.74,-397.89 2045.71,-401.3 2055.67,-404.89 2055.74,-397.89"/>
</g>
<!-- Node43 -->
<g id="node13" class="node">
<title>Node43</title>
<g id="a_node13"><a xlink:href="api_2abi-default_2cpumask_8h.html" target="_top" xlink:title=" ">
<polygon fill="white" stroke="black" points="2780.5,-224.5 2780.5,-243.5 2850.5,-243.5 2850.5,-224.5 2780.5,-224.5"/>
<text text-anchor="middle" x="2815.5" y="-231.5" font-family="Helvetica,sans-Serif" font-size="10.00">cpumask.h</text>
</a>
</g>
</g>
<!-- Node1&#45;&gt;Node43 -->
<g id="edge13" class="edge">
<title>Node1&#45;&gt;Node43</title>
<path fill="none" stroke="midnightblue" d="M2055.52,-393.69C2186.71,-366.29 2648.22,-269.93 2780.08,-242.4"/>
<polygon fill="midnightblue" stroke="midnightblue" points="2054.68,-390.29 2045.61,-395.76 2056.11,-397.14 2054.68,-390.29"/>
</g>
<!-- Node111 -->
<g id="node22" class="node">
<title>Node111</title>
<g id="a_node22"><a xlink:href="api_2spec_2std__types_8h.html" target="_top" xlink:title=" ">
<polygon fill="white" stroke="black" points="1952,-336.5 1952,-355.5 2025,-355.5 2025,-336.5 1952,-336.5"/>
<text text-anchor="middle" x="1988.5" y="-343.5" font-family="Helvetica,sans-Serif" font-size="10.00">std_types.h</text>
</a>
</g>
</g>
<!-- Node1&#45;&gt;Node111 -->
<g id="edge23" class="edge">
<title>Node1&#45;&gt;Node111</title>
<path fill="none" stroke="midnightblue" d="M2010,-383.27C2004.53,-374.05 1998.08,-363.17 1993.69,-355.75"/>
<polygon fill="midnightblue" stroke="midnightblue" points="2007.11,-385.26 2015.22,-392.08 2013.13,-381.7 2007.11,-385.26"/>
</g>
<!-- Node3 -->
<g id="node3" class="node">
<title>Node3</title>
<g id="a_node3"><a xlink:href="arch_2arm32-linux_2odp_2api_2abi_2atomic_8h_source.html" target="_top" xlink:title=" ">
<polygon fill="white" stroke="black" points="154,-168.5 154,-187.5 213,-187.5 213,-168.5 154,-168.5"/>
<text text-anchor="middle" x="183.5" y="-175.5" font-family="Helvetica,sans-Serif" font-size="10.00">atomic.h</text>
</a>
</g>
</g>
<!-- Node2&#45;&gt;Node3 -->
<g id="edge2" class="edge">
<title>Node2&#45;&gt;Node3</title>
<path fill="none" stroke="midnightblue" d="M183.5,-213.8C183.5,-204.91 183.5,-194.78 183.5,-187.75"/>
<polygon fill="midnightblue" stroke="midnightblue" points="180,-214.08 183.5,-224.08 187,-214.08 180,-214.08"/>
</g>
<!-- Node4 -->
<g id="node4" class="node">
<title>Node4</title>
<g id="a_node4"><a xlink:href="arch_2arm64-linux_2odp_2api_2abi_2atomic_8h_source.html" target="_top" xlink:title=" ">
<polygon fill="white" stroke="black" points="231,-168.5 231,-187.5 290,-187.5 290,-168.5 231,-168.5"/>
<text text-anchor="middle" x="260.5" y="-175.5" font-family="Helvetica,sans-Serif" font-size="10.00">atomic.h</text>
</a>
</g>
</g>
<!-- Node2&#45;&gt;Node4 -->
<g id="edge3" class="edge">
<title>Node2&#45;&gt;Node4</title>
<path fill="none" stroke="midnightblue" d="M204.4,-218.34C218.41,-208.52 236.38,-195.91 248.16,-187.65"/>
<polygon fill="midnightblue" stroke="midnightblue" points="202.05,-215.72 195.87,-224.32 206.07,-221.45 202.05,-215.72"/>
</g>
<!-- Node5 -->
<g id="node5" class="node">
<title>Node5</title>
<g id="a_node5"><a xlink:href="arch_2default-linux_2odp_2api_2abi_2atomic_8h_source.html" target="_top" xlink:title=" ">
<polygon fill="white" stroke="black" points="308,-168.5 308,-187.5 367,-187.5 367,-168.5 308,-168.5"/>
<text text-anchor="middle" x="337.5" y="-175.5" font-family="Helvetica,sans-Serif" font-size="10.00">atomic.h</text>
</a>
</g>
</g>
<!-- Node2&#45;&gt;Node5 -->
<g id="edge4" class="edge">
<title>Node2&#45;&gt;Node5</title>
<path fill="none" stroke="midnightblue" d="M217.61,-221.04C246.59,-210.88 287.46,-196.55 313.21,-187.52"/>
<polygon fill="midnightblue" stroke="midnightblue" points="216.18,-217.83 207.9,-224.44 218.5,-224.44 216.18,-217.83"/>
</g>
<!-- Node6 -->
<g id="node6" class="node">
<title>Node6</title>
<g id="a_node6"><a xlink:href="arch_2power64-linux_2odp_2api_2abi_2atomic_8h_source.html" target="_top" xlink:title=" ">
<polygon fill="white" stroke="black" points="0,-168.5 0,-187.5 59,-187.5 59,-168.5 0,-168.5"/>
<text text-anchor="middle" x="29.5" y="-175.5" font-family="Helvetica,sans-Serif" font-size="10.00">atomic.h</text>
</a>
</g>
</g>
<!-- Node2&#45;&gt;Node6 -->
<g id="edge5" class="edge">
<title>Node2&#45;&gt;Node6</title>
<path fill="none" stroke="midnightblue" d="M149.39,-221.04C120.41,-210.88 79.54,-196.55 53.79,-187.52"/>
<polygon fill="midnightblue" stroke="midnightblue" points="148.5,-224.44 159.1,-224.44 150.82,-217.83 148.5,-224.44"/>
</g>
<!-- Node7 -->
<g id="node7" class="node">
<title>Node7</title>
<g id="a_node7"><a xlink:href="arch_2x86__32-linux_2odp_2api_2abi_2atomic_8h_source.html" target="_top" xlink:title=" ">
<polygon fill="white" stroke="black" points="77,-168.5 77,-187.5 136,-187.5 136,-168.5 77,-168.5"/>
<text text-anchor="middle" x="106.5" y="-175.5" font-family="Helvetica,sans-Serif" font-size="10.00">atomic.h</text>
</a>
</g>
</g>
<!-- Node2&#45;&gt;Node7 -->
<g id="edge6" class="edge">
<title>Node2&#45;&gt;Node7</title>
<path fill="none" stroke="midnightblue" d="M162.6,-218.34C148.59,-208.52 130.62,-195.91 118.84,-187.65"/>
<polygon fill="midnightblue" stroke="midnightblue" points="160.93,-221.45 171.13,-224.32 164.95,-215.72 160.93,-221.45"/>
</g>
<!-- Node8 -->
<g id="node8" class="node">
<title>Node8</title>
<g id="a_node8"><a xlink:href="arch_2x86__64-linux_2odp_2api_2abi_2atomic_8h_source.html" target="_top" xlink:title=" ">
<polygon fill="white" stroke="black" points="1271,-168.5 1271,-187.5 1330,-187.5 1330,-168.5 1271,-168.5"/>
<text text-anchor="middle" x="1300.5" y="-175.5" font-family="Helvetica,sans-Serif" font-size="10.00">atomic.h</text>
</a>
</g>
</g>
<!-- Node2&#45;&gt;Node8 -->
<g id="edge7" class="edge">
<title>Node2&#45;&gt;Node8</title>
<path fill="none" stroke="midnightblue" d="M223.2,-224.05C452.54,-194.51 1121.38,-181.96 1270.72,-179.47"/>
<polygon fill="midnightblue" stroke="midnightblue" points="222.72,-220.59 213.27,-225.38 223.65,-227.53 222.72,-220.59"/>
</g>
<!-- Node9 -->
<g id="node9" class="node">
<title>Node9</title>
<g id="a_node9"><a xlink:href="api_2atomic_8h.html" target="_top" xlink:title=" ">
<polygon fill="white" stroke="red" points="2196,-112.5 2196,-131.5 2255,-131.5 2255,-112.5 2196,-112.5"/>
<text text-anchor="middle" x="2225.5" y="-119.5" font-family="Helvetica,sans-Serif" font-size="10.00">atomic.h</text>
</a>
</g>
</g>
<!-- Node8&#45;&gt;Node9 -->
<g id="edge8" class="edge">
<title>Node8&#45;&gt;Node9</title>
<path fill="none" stroke="midnightblue" d="M1340.28,-174.68C1495.69,-165.6 2059.93,-132.67 2195.88,-124.73"/>
<polygon fill="midnightblue" stroke="midnightblue" points="1340.01,-171.19 1330.23,-175.26 1340.42,-178.18 1340.01,-171.19"/>
</g>
<!-- Node10 -->
<g id="node10" class="node">
<title>Node10</title>
<g id="a_node10"><a xlink:href="api_2abi-default_2barrier_8h.html" target="_top" xlink:title=" ">
<polygon fill="white" stroke="red" points="2244,-56.5 2244,-75.5 2301,-75.5 2301,-56.5 2244,-56.5"/>
<text text-anchor="middle" x="2272.5" y="-63.5" font-family="Helvetica,sans-Serif" font-size="10.00">barrier.h</text>
</a>
</g>
</g>
<!-- Node9&#45;&gt;Node10 -->
<g id="edge9" class="edge">
<title>Node9&#45;&gt;Node10</title>
<path fill="none" stroke="midnightblue" d="M2239.92,-104.43C2248.16,-94.97 2258.15,-83.48 2264.88,-75.75"/>
<polygon fill="midnightblue" stroke="midnightblue" points="2237.19,-102.24 2233.26,-112.08 2242.47,-106.84 2237.19,-102.24"/>
</g>
<!-- Node17 -->
<g id="node11" class="node">
<title>Node17</title>
<g id="a_node11"><a xlink:href="api_2barrier_8h.html" target="_top" xlink:title=" ">
<polygon fill="white" stroke="black" points="2319,-56.5 2319,-75.5 2376,-75.5 2376,-56.5 2319,-56.5"/>
<text text-anchor="middle" x="2347.5" y="-63.5" font-family="Helvetica,sans-Serif" font-size="10.00">barrier.h</text>
</a>
</g>
</g>
<!-- Node9&#45;&gt;Node17 -->
<g id="edge10" class="edge">
<title>Node9&#45;&gt;Node17</title>
<path fill="none" stroke="midnightblue" d="M2254.04,-108.37C2276.89,-98.26 2308.31,-84.35 2328.26,-75.52"/>
<polygon fill="midnightblue" stroke="midnightblue" points="2252.56,-105.2 2244.83,-112.44 2255.39,-111.6 2252.56,-105.2"/>
</g>
<!-- Node9&#45;&gt;Node18 -->
<g id="edge12" class="edge">
<title>Node9&#45;&gt;Node18</title>
<path fill="none" stroke="midnightblue" d="M2223.27,-101.94C2222.7,-87.59 2224.43,-68.33 2235.5,-56 2253.6,-35.84 2328.63,-21.91 2372.39,-15.33"/>
<polygon fill="midnightblue" stroke="midnightblue" points="2219.81,-102.49 2224.1,-112.18 2226.78,-101.93 2219.81,-102.49"/>
</g>
<!-- Node17&#45;&gt;Node18 -->
<g id="edge11" class="edge">
<title>Node17&#45;&gt;Node18</title>
<path fill="none" stroke="midnightblue" d="M2364.12,-49.25C2374.23,-39.67 2386.78,-27.79 2395.18,-19.83"/>
<polygon fill="midnightblue" stroke="midnightblue" points="2361.51,-46.91 2356.66,-56.32 2366.32,-51.99 2361.51,-46.91"/>
</g>
<!-- Node44 -->
<g id="node14" class="node">
<title>Node44</title>
<g id="a_node14"><a xlink:href="arch_2arm32-linux_2odp_2api_2abi_2cpumask_8h_source.html" target="_top" xlink:title=" ">
<polygon fill="white" stroke="black" points="2977.5,-168.5 2977.5,-187.5 3047.5,-187.5 3047.5,-168.5 2977.5,-168.5"/>
<text text-anchor="middle" x="3012.5" y="-175.5" font-family="Helvetica,sans-Serif" font-size="10.00">cpumask.h</text>
</a>
</g>
</g>
<!-- Node43&#45;&gt;Node44 -->
<g id="edge14" class="edge">
<title>Node43&#45;&gt;Node44</title>
<path fill="none" stroke="midnightblue" d="M2856.73,-221.7C2893.91,-211.51 2947.77,-196.74 2981.43,-187.52"/>
<polygon fill="midnightblue" stroke="midnightblue" points="2855.43,-218.42 2846.72,-224.44 2857.28,-225.18 2855.43,-218.42"/>
</g>
<!-- Node45 -->
<g id="node15" class="node">
<title>Node45</title>
<g id="a_node15"><a xlink:href="arch_2arm64-linux_2odp_2api_2abi_2cpumask_8h_source.html" target="_top" xlink:title=" ">
<polygon fill="white" stroke="black" points="3065.5,-168.5 3065.5,-187.5 3135.5,-187.5 3135.5,-168.5 3065.5,-168.5"/>
<text text-anchor="middle" x="3100.5" y="-175.5" font-family="Helvetica,sans-Serif" font-size="10.00">cpumask.h</text>
</a>
</g>
</g>
<!-- Node43&#45;&gt;Node45 -->
<g id="edge15" class="edge">
<title>Node43&#45;&gt;Node45</title>
<path fill="none" stroke="midnightblue" d="M2860.51,-224.83C2908.96,-215.99 2988.25,-201.35 3056.5,-188 3059.41,-187.43 3062.42,-186.83 3065.45,-186.23"/>
<polygon fill="midnightblue" stroke="midnightblue" points="2859.87,-221.39 2850.66,-226.63 2861.12,-228.28 2859.87,-221.39"/>
</g>
<!-- Node46 -->
<g id="node16" class="node">
<title>Node46</title>
<g id="a_node16"><a xlink:href="arch_2default-linux_2odp_2api_2abi_2cpumask_8h_source.html" target="_top" xlink:title=" ">
<polygon fill="white" stroke="black" points="2713.5,-168.5 2713.5,-187.5 2783.5,-187.5 2783.5,-168.5 2713.5,-168.5"/>
<text text-anchor="middle" x="2748.5" y="-175.5" font-family="Helvetica,sans-Serif" font-size="10.00">cpumask.h</text>
</a>
</g>
</g>
<!-- Node43&#45;&gt;Node46 -->
<g id="edge16" class="edge">
<title>Node43&#45;&gt;Node46</title>
<path fill="none" stroke="midnightblue" d="M2796.67,-217.82C2784.66,-208.15 2769.53,-195.95 2759.46,-187.83"/>
<polygon fill="midnightblue" stroke="midnightblue" points="2794.75,-220.77 2804.74,-224.32 2799.15,-215.32 2794.75,-220.77"/>
</g>
<!-- Node47 -->
<g id="node17" class="node">
<title>Node47</title>
<g id="a_node17"><a xlink:href="arch_2power64-linux_2odp_2api_2abi_2cpumask_8h_source.html" target="_top" xlink:title=" ">
<polygon fill="white" stroke="black" points="2801.5,-168.5 2801.5,-187.5 2871.5,-187.5 2871.5,-168.5 2801.5,-168.5"/>
<text text-anchor="middle" x="2836.5" y="-175.5" font-family="Helvetica,sans-Serif" font-size="10.00">cpumask.h</text>
</a>
</g>
</g>
<!-- Node43&#45;&gt;Node47 -->
<g id="edge17" class="edge">
<title>Node43&#45;&gt;Node47</title>
<path fill="none" stroke="midnightblue" d="M2822.62,-214.69C2826.16,-205.59 2830.27,-195.01 2833.1,-187.75"/>
<polygon fill="midnightblue" stroke="midnightblue" points="2819.33,-213.49 2818.97,-224.08 2825.85,-216.03 2819.33,-213.49"/>
</g>
<!-- Node48 -->
<g id="node18" class="node">
<title>Node48</title>
<g id="a_node18"><a xlink:href="arch_2x86__32-linux_2odp_2api_2abi_2cpumask_8h_source.html" target="_top" xlink:title=" ">
<polygon fill="white" stroke="black" points="2889.5,-168.5 2889.5,-187.5 2959.5,-187.5 2959.5,-168.5 2889.5,-168.5"/>
<text text-anchor="middle" x="2924.5" y="-175.5" font-family="Helvetica,sans-Serif" font-size="10.00">cpumask.h</text>
</a>
</g>
</g>
<!-- Node43&#45;&gt;Node48 -->
<g id="edge18" class="edge">
<title>Node43&#45;&gt;Node48</title>
<path fill="none" stroke="midnightblue" d="M2842.02,-219.86C2862.23,-209.85 2889.49,-196.35 2907.03,-187.65"/>
<polygon fill="midnightblue" stroke="midnightblue" points="2840.42,-216.75 2833.01,-224.32 2843.53,-223.02 2840.42,-216.75"/>
</g>
<!-- Node49 -->
<g id="node19" class="node">
<title>Node49</title>
<g id="a_node19"><a xlink:href="arch_2x86__64-linux_2odp_2api_2abi_2cpumask_8h_source.html" target="_top" xlink:title=" ">
<polygon fill="white" stroke="black" points="2625.5,-168.5 2625.5,-187.5 2695.5,-187.5 2695.5,-168.5 2625.5,-168.5"/>
<text text-anchor="middle" x="2660.5" y="-175.5" font-family="Helvetica,sans-Serif" font-size="10.00">cpumask.h</text>
</a>
</g>
</g>
<!-- Node43&#45;&gt;Node49 -->
<g id="edge19" class="edge">
<title>Node43&#45;&gt;Node49</title>
<path fill="none" stroke="midnightblue" d="M2781.17,-221.04C2752,-210.88 2710.86,-196.55 2684.95,-187.52"/>
<polygon fill="midnightblue" stroke="midnightblue" points="2780.34,-224.46 2790.94,-224.44 2782.65,-217.85 2780.34,-224.46"/>
</g>
<!-- Node50 -->
<g id="node20" class="node">
<title>Node50</title>
<g id="a_node20"><a xlink:href="api_2cpumask_8h.html" target="_top" xlink:title=" ">
<polygon fill="white" stroke="red" points="2625.5,-112.5 2625.5,-131.5 2695.5,-131.5 2695.5,-112.5 2625.5,-112.5"/>
<text text-anchor="middle" x="2660.5" y="-119.5" font-family="Helvetica,sans-Serif" font-size="10.00">cpumask.h</text>
</a>
</g>
</g>
<!-- Node49&#45;&gt;Node50 -->
<g id="edge20" class="edge">
<title>Node49&#45;&gt;Node50</title>
<path fill="none" stroke="midnightblue" d="M2660.5,-157.8C2660.5,-148.91 2660.5,-138.78 2660.5,-131.75"/>
<polygon fill="midnightblue" stroke="midnightblue" points="2657,-158.08 2660.5,-168.08 2664,-158.08 2657,-158.08"/>
</g>
<!-- Node50&#45;&gt;Node18 -->
<g id="edge22" class="edge">
<title>Node50&#45;&gt;Node18</title>
<path fill="none" stroke="midnightblue" d="M2659.47,-102.33C2657.63,-87.59 2652.67,-67.64 2639.5,-56 2609.77,-29.73 2493.59,-17.61 2436.51,-13.15"/>
<polygon fill="midnightblue" stroke="midnightblue" points="2655.99,-102.7 2660.36,-112.35 2662.96,-102.09 2655.99,-102.7"/>
</g>
<!-- Node107 -->
<g id="node21" class="node">
<title>Node107</title>
<g id="a_node21"><a xlink:href="api_2spec_2init_8h.html" target="_top" xlink:title=" ">
<polygon fill="white" stroke="red" points="2589,-56.5 2589,-75.5 2630,-75.5 2630,-56.5 2589,-56.5"/>
<text text-anchor="middle" x="2609.5" y="-63.5" font-family="Helvetica,sans-Serif" font-size="10.00">init.h</text>
</a>
</g>
</g>
<!-- Node50&#45;&gt;Node107 -->
<g id="edge21" class="edge">
<title>Node50&#45;&gt;Node107</title>
<path fill="none" stroke="midnightblue" d="M2645.12,-104.72C2636.13,-95.2 2625.14,-83.56 2617.76,-75.75"/>
<polygon fill="midnightblue" stroke="midnightblue" points="2642.67,-107.22 2652.08,-112.08 2647.76,-102.41 2642.67,-107.22"/>
</g>
<!-- Node112 -->
<g id="node23" class="node">
<title>Node112</title>
<g id="a_node23"><a xlink:href="api_2std__types_8h.html" target="_top" xlink:title=" ">
<polygon fill="white" stroke="red" points="1677,-280.5 1677,-299.5 1750,-299.5 1750,-280.5 1677,-280.5"/>
<text text-anchor="middle" x="1713.5" y="-287.5" font-family="Helvetica,sans-Serif" font-size="10.00">std_types.h</text>
</a>
</g>
</g>
<!-- Node111&#45;&gt;Node112 -->
<g id="edge24" class="edge">
<title>Node111&#45;&gt;Node112</title>
<path fill="none" stroke="midnightblue" d="M1941.96,-335.86C1887.86,-325.24 1799.66,-307.92 1750.17,-298.2"/>
<polygon fill="midnightblue" stroke="midnightblue" points="1941.5,-339.34 1951.98,-337.83 1942.84,-332.47 1941.5,-339.34"/>
</g>
<!-- Node112&#45;&gt;Node2 -->
<g id="edge25" class="edge">
<title>Node112&#45;&gt;Node2</title>
<path fill="none" stroke="midnightblue" d="M1666.79,-288.15C1429.95,-283.79 367.46,-263.28 221.5,-244 218.81,-243.64 216.04,-243.18 213.26,-242.65"/>
<polygon fill="midnightblue" stroke="midnightblue" points="1666.73,-291.65 1676.8,-288.34 1666.86,-284.65 1666.73,-291.65"/>
</g>
<!-- Node112&#45;&gt;Node10 -->
<g id="edge26" class="edge">
<title>Node112&#45;&gt;Node10</title>
<path fill="none" stroke="midnightblue" d="M1760.39,-288.55C1886.31,-286.87 2224.7,-279.11 2259.5,-244 2306.13,-196.95 2283.61,-104.08 2275.19,-75.55"/>
<polygon fill="midnightblue" stroke="midnightblue" points="1760.24,-285.05 1750.28,-288.68 1760.33,-292.05 1760.24,-285.05"/>
</g>
<!-- Node112&#45;&gt;Node17 -->
<g id="edge36" class="edge">
<title>Node112&#45;&gt;Node17</title>
<path fill="none" stroke="midnightblue" d="M1760.68,-288.1C1889.14,-285.25 2238.36,-274.74 2279.5,-244 2308.38,-222.43 2337.61,-108.23 2345.46,-75.67"/>
<polygon fill="midnightblue" stroke="midnightblue" points="1760.3,-284.61 1750.38,-288.32 1760.45,-291.6 1760.3,-284.61"/>
</g>
<!-- Node112&#45;&gt;Node18 -->
<g id="edge61" class="edge">
<title>Node112&#45;&gt;Node18</title>
<path fill="none" stroke="midnightblue" d="M1760.16,-288.42C1880.7,-286.44 2195.32,-278.03 2226.5,-244 2232.5,-237.45 2228.31,-232.7 2226.5,-224 2217.42,-180.35 2195.58,-175.65 2186.5,-132 2178.93,-95.59 2191.38,-77.81 2221.5,-56 2266.82,-23.19 2333.24,-14.13 2372.36,-11.74"/>
<polygon fill="midnightblue" stroke="midnightblue" points="1760.07,-284.92 1750.12,-288.58 1760.18,-291.92 1760.07,-284.92"/>
</g>
<!-- Node112&#45;&gt;Node43 -->
<g id="edge28" class="edge">
<title>Node112&#45;&gt;Node43</title>
<path fill="none" stroke="midnightblue" d="M1760.52,-288.36C1906.73,-286.07 2366.36,-276.58 2745.5,-244 2756.85,-243.02 2769.2,-241.57 2780.31,-240.11"/>
<polygon fill="midnightblue" stroke="midnightblue" points="1760.08,-284.87 1750.13,-288.52 1760.19,-291.87 1760.08,-284.87"/>
</g>
<!-- Node112&#45;&gt;Node107 -->
<g id="edge52" class="edge">
<title>Node112&#45;&gt;Node107</title>
<path fill="none" stroke="midnightblue" d="M1760.14,-288.67C1952.94,-287.08 2679.22,-278.81 2712.5,-244 2718.64,-237.57 2717.56,-231.31 2712.5,-224 2686.54,-186.55 2643.53,-224.69 2616.5,-188 2591.04,-153.44 2601.71,-97.12 2607.1,-75.67"/>
<polygon fill="midnightblue" stroke="midnightblue" points="1760.02,-285.17 1750.05,-288.75 1760.07,-292.17 1760.02,-285.17"/>
</g>
<!-- Node113 -->
<g id="node24" class="node">
<title>Node113</title>
<g id="a_node24"><a xlink:href="api_2abi-default_2byteorder_8h.html" target="_top" xlink:title=" ">
<polygon fill="white" stroke="red" points="2571.5,-224.5 2571.5,-243.5 2643.5,-243.5 2643.5,-224.5 2571.5,-224.5"/>
<text text-anchor="middle" x="2607.5" y="-231.5" font-family="Helvetica,sans-Serif" font-size="10.00">byteorder.h</text>
</a>
</g>
</g>
<!-- Node112&#45;&gt;Node113 -->
<g id="edge27" class="edge">
<title>Node112&#45;&gt;Node113</title>
<path fill="none" stroke="midnightblue" d="M1760.35,-288.89C1889,-288.06 2258.38,-282.27 2562.5,-244 2565.35,-243.64 2568.28,-243.21 2571.22,-242.72"/>
<polygon fill="midnightblue" stroke="midnightblue" points="1760.06,-285.39 1750.08,-288.94 1760.1,-292.39 1760.06,-285.39"/>
</g>
<!-- Node121 -->
<g id="node25" class="node">
<title>Node121</title>
<g id="a_node25"><a xlink:href="api_2abi-default_2init_8h.html" target="_top" xlink:title=" ">
<polygon fill="white" stroke="red" points="2662,-224.5 2662,-243.5 2703,-243.5 2703,-224.5 2662,-224.5"/>
<text text-anchor="middle" x="2682.5" y="-231.5" font-family="Helvetica,sans-Serif" font-size="10.00">init.h</text>
</a>
</g>
</g>
<!-- Node112&#45;&gt;Node121 -->
<g id="edge29" class="edge">
<title>Node112&#45;&gt;Node121</title>
<path fill="none" stroke="midnightblue" d="M1760.4,-288.26C1925.33,-285.43 2478.07,-273.88 2652.5,-244 2655.5,-243.49 2658.63,-242.77 2661.67,-241.95"/>
<polygon fill="midnightblue" stroke="midnightblue" points="1760.04,-284.77 1750.1,-288.44 1760.16,-291.77 1760.04,-284.77"/>
</g>
<!-- Node128 -->
<g id="node26" class="node">
<title>Node128</title>
<g id="a_node26"><a xlink:href="api_2abi-default_2ipsec__types_8h_source.html" target="_top" xlink:title=" ">
<polygon fill="white" stroke="red" points="231,-224.5 231,-243.5 314,-243.5 314,-224.5 231,-224.5"/>
<text text-anchor="middle" x="272.5" y="-231.5" font-family="Helvetica,sans-Serif" font-size="10.00">ipsec_types.h</text>
</a>
</g>
</g>
<!-- Node112&#45;&gt;Node128 -->
<g id="edge30" class="edge">
<title>Node112&#45;&gt;Node128</title>
<path fill="none" stroke="midnightblue" d="M1666.64,-288.38C1455.67,-285.45 592.58,-271.95 323.5,-244 320.46,-243.68 317.33,-243.29 314.18,-242.85"/>
<polygon fill="midnightblue" stroke="midnightblue" points="1666.72,-291.88 1676.76,-288.52 1666.81,-284.88 1666.72,-291.88"/>
</g>
<!-- Node135 -->
<g id="node27" class="node">
<title>Node135</title>
<g id="a_node27"><a xlink:href="api_2abi-default_2packet__io__types_8h.html" target="_top" xlink:title=" ">
<polygon fill="white" stroke="red" points="332.5,-224.5 332.5,-243.5 436.5,-243.5 436.5,-224.5 332.5,-224.5"/>
<text text-anchor="middle" x="384.5" y="-231.5" font-family="Helvetica,sans-Serif" font-size="10.00">packet_io_types.h</text>
</a>
</g>
</g>
<!-- Node112&#45;&gt;Node135 -->
<g id="edge31" class="edge">
<title>Node112&#45;&gt;Node135</title>
<path fill="none" stroke="midnightblue" d="M1666.45,-289.21C1499.59,-289.56 920.69,-287.35 445.5,-244 442.62,-243.74 439.67,-243.43 436.7,-243.09"/>
<polygon fill="midnightblue" stroke="midnightblue" points="1666.85,-292.71 1676.84,-289.18 1666.83,-285.71 1666.85,-292.71"/>
</g>
<!-- Node27 -->
<g id="node28" class="node">
<title>Node27</title>
<g id="a_node28"><a xlink:href="api_2abi-default_2rwlock__recursive_8h.html" target="_top" xlink:title=" ">
<polygon fill="white" stroke="red" points="454.5,-224.5 454.5,-243.5 562.5,-243.5 562.5,-224.5 454.5,-224.5"/>
<text text-anchor="middle" x="508.5" y="-231.5" font-family="Helvetica,sans-Serif" font-size="10.00">rwlock_recursive.h</text>
</a>
</g>
</g>
<!-- Node112&#45;&gt;Node27 -->
<g id="edge32" class="edge">
<title>Node112&#45;&gt;Node27</title>
<path fill="none" stroke="midnightblue" d="M1666.77,-288.87C1511.01,-288.09 995.5,-282.54 571.5,-244 568.64,-243.74 565.71,-243.44 562.75,-243.11"/>
<polygon fill="midnightblue" stroke="midnightblue" points="1666.91,-292.37 1676.93,-288.92 1666.94,-285.37 1666.91,-292.37"/>
</g>
<!-- Node142 -->
<g id="node29" class="node">
<title>Node142</title>
<g id="a_node29"><a xlink:href="api_2abi-default_2schedule__types_8h.html" target="_top" xlink:title=" ">
<polygon fill="white" stroke="red" points="581,-224.5 581,-243.5 682,-243.5 682,-224.5 581,-224.5"/>
<text text-anchor="middle" x="631.5" y="-231.5" font-family="Helvetica,sans-Serif" font-size="10.00">schedule_types.h</text>
</a>
</g>
</g>
<!-- Node112&#45;&gt;Node142 -->
<g id="edge33" class="edge">
<title>Node112&#45;&gt;Node142</title>
<path fill="none" stroke="midnightblue" d="M1666.41,-288.68C1520.97,-287.32 1066.17,-280.25 691.5,-244 688.46,-243.71 685.34,-243.36 682.19,-242.99"/>
<polygon fill="midnightblue" stroke="midnightblue" points="1666.71,-292.18 1676.74,-288.77 1666.77,-285.18 1666.71,-292.18"/>
</g>
<!-- Node149 -->
<g id="node30" class="node">
<title>Node149</title>
<g id="a_node30"><a xlink:href="api_2abi-default_2spinlock__recursive_8h.html" target="_top" xlink:title=" ">
<polygon fill="white" stroke="red" points="700.5,-224.5 700.5,-243.5 816.5,-243.5 816.5,-224.5 700.5,-224.5"/>
<text text-anchor="middle" x="758.5" y="-231.5" font-family="Helvetica,sans-Serif" font-size="10.00">spinlock_recursive.h</text>
</a>
</g>
</g>
<!-- Node112&#45;&gt;Node149 -->
<g id="edge34" class="edge">
<title>Node112&#45;&gt;Node149</title>
<path fill="none" stroke="midnightblue" d="M1666.42,-287.99C1533.85,-284.84 1146.14,-273.61 825.5,-244 822.58,-243.73 819.59,-243.43 816.57,-243.1"/>
<polygon fill="midnightblue" stroke="midnightblue" points="1666.55,-291.49 1676.63,-288.23 1666.71,-284.49 1666.55,-291.49"/>
</g>
<!-- Node157 -->
<g id="node31" class="node">
<title>Node157</title>
<g id="a_node31"><a xlink:href="api_2abi-default_2traffic__mngr_8h.html" target="_top" xlink:title=" ">
<polygon fill="white" stroke="red" points="834.5,-224.5 834.5,-243.5 918.5,-243.5 918.5,-224.5 834.5,-224.5"/>
<text text-anchor="middle" x="876.5" y="-231.5" font-family="Helvetica,sans-Serif" font-size="10.00">traffic_mngr.h</text>
</a>
</g>
</g>
<!-- Node112&#45;&gt;Node157 -->
<g id="edge35" class="edge">
<title>Node112&#45;&gt;Node157</title>
<path fill="none" stroke="midnightblue" d="M1666.76,-288.3C1544.65,-286.04 1206.14,-277.04 926.5,-244 923.96,-243.7 921.35,-243.35 918.73,-242.97"/>
<polygon fill="midnightblue" stroke="midnightblue" points="1666.82,-291.8 1676.88,-288.48 1666.95,-284.8 1666.82,-291.8"/>
</g>
<!-- Node76 -->
<g id="node32" class="node">
<title>Node76</title>
<g id="a_node32"><a xlink:href="api_2classification_8h.html" target="_top" xlink:title=" ">
<polygon fill="white" stroke="red" points="2454,-168.5 2454,-187.5 2543,-187.5 2543,-168.5 2454,-168.5"/>
<text text-anchor="middle" x="2498.5" y="-175.5" font-family="Helvetica,sans-Serif" font-size="10.00">classification.h</text>
</a>
</g>
</g>
<!-- Node112&#45;&gt;Node76 -->
<g id="edge37" class="edge">
<title>Node112&#45;&gt;Node76</title>
<path fill="none" stroke="midnightblue" d="M1760.41,-289.43C1896.88,-290.13 2291.57,-288.19 2411.5,-244 2444.76,-231.75 2476.09,-202.43 2490.39,-187.73"/>
<polygon fill="midnightblue" stroke="midnightblue" points="1760.31,-285.93 1750.28,-289.37 1760.26,-292.93 1760.31,-285.93"/>
</g>
<!-- Node77 -->
<g id="node33" class="node">
<title>Node77</title>
<g id="a_node33"><a xlink:href="api_2spec_2ipsec__types_8h.html" target="_top" xlink:title=" ">
<polygon fill="white" stroke="red" points="2448,-112.5 2448,-131.5 2531,-131.5 2531,-112.5 2448,-112.5"/>
<text text-anchor="middle" x="2489.5" y="-119.5" font-family="Helvetica,sans-Serif" font-size="10.00">ipsec_types.h</text>
</a>
</g>
</g>
<!-- Node112&#45;&gt;Node77 -->
<g id="edge54" class="edge">
<title>Node112&#45;&gt;Node77</title>
<path fill="none" stroke="midnightblue" d="M1760.75,-287.51C1900.27,-282.86 2304.08,-267.5 2358.5,-244 2373.64,-237.46 2454.27,-158.04 2480.93,-131.54"/>
<polygon fill="midnightblue" stroke="midnightblue" points="1760.28,-284.02 1750.4,-287.85 1760.51,-291.02 1760.28,-284.02"/>
</g>
<!-- Node164 -->
<g id="node34" class="node">
<title>Node164</title>
<g id="a_node34"><a xlink:href="api_2proto__stats_8h.html" target="_top" xlink:title=" ">
<polygon fill="white" stroke="black" points="2349.5,-112.5 2349.5,-131.5 2429.5,-131.5 2429.5,-112.5 2349.5,-112.5"/>
<text text-anchor="middle" x="2389.5" y="-119.5" font-family="Helvetica,sans-Serif" font-size="10.00">proto_stats.h</text>
</a>
</g>
</g>
<!-- Node112&#45;&gt;Node164 -->
<g id="edge40" class="edge">
<title>Node112&#45;&gt;Node164</title>
<path fill="none" stroke="midnightblue" d="M1760.53,-288.35C1897.41,-286.08 2288.8,-276.76 2335.5,-244 2374.49,-216.66 2385.73,-154.42 2388.61,-131.6"/>
<polygon fill="midnightblue" stroke="midnightblue" points="1760.31,-284.85 1750.37,-288.51 1760.42,-291.85 1760.31,-284.85"/>
</g>
<!-- Node73 -->
<g id="node35" class="node">
<title>Node73</title>
<g id="a_node35"><a xlink:href="api_2spec_2buffer_8h.html" target="_top" xlink:title=" ">
<polygon fill="white" stroke="red" points="936,-224.5 936,-243.5 989,-243.5 989,-224.5 936,-224.5"/>
<text text-anchor="middle" x="962.5" y="-231.5" font-family="Helvetica,sans-Serif" font-size="10.00">buffer.h</text>
</a>
</g>
</g>
<!-- Node112&#45;&gt;Node73 -->
<g id="edge42" class="edge">
<title>Node112&#45;&gt;Node73</title>
<path fill="none" stroke="midnightblue" d="M1666.6,-288.99C1551.87,-288.33 1248.2,-282.74 998.5,-244 995.44,-243.53 992.27,-242.91 989.13,-242.23"/>
<polygon fill="midnightblue" stroke="midnightblue" points="1666.77,-292.49 1676.79,-289.04 1666.8,-285.49 1666.77,-292.49"/>
</g>
<!-- Node165 -->
<g id="node36" class="node">
<title>Node165</title>
<g id="a_node36"><a xlink:href="spec_2chksum_8h.html" target="_top" xlink:title=" ">
<polygon fill="white" stroke="red" points="1007.5,-224.5 1007.5,-243.5 1071.5,-243.5 1071.5,-224.5 1007.5,-224.5"/>
<text text-anchor="middle" x="1039.5" y="-231.5" font-family="Helvetica,sans-Serif" font-size="10.00">chksum.h</text>
</a>
</g>
</g>
<!-- Node112&#45;&gt;Node165 -->
<g id="edge43" class="edge">
<title>Node112&#45;&gt;Node165</title>
<path fill="none" stroke="midnightblue" d="M1666.63,-287.99C1561.32,-285.22 1298.19,-275.46 1080.5,-244 1077.61,-243.58 1074.63,-243.08 1071.65,-242.52"/>
<polygon fill="midnightblue" stroke="midnightblue" points="1666.82,-291.5 1676.91,-288.25 1667,-284.5 1666.82,-291.5"/>
</g>
<!-- Node75 -->
<g id="node37" class="node">
<title>Node75</title>
<g id="a_node37"><a xlink:href="api_2spec_2classification_8h.html" target="_top" xlink:title=" ">
<polygon fill="white" stroke="black" points="2464,-224.5 2464,-243.5 2553,-243.5 2553,-224.5 2464,-224.5"/>
<text text-anchor="middle" x="2508.5" y="-231.5" font-family="Helvetica,sans-Serif" font-size="10.00">classification.h</text>
</a>
</g>
</g>
<!-- Node112&#45;&gt;Node75 -->
<g id="edge44" class="edge">
<title>Node112&#45;&gt;Node75</title>
<path fill="none" stroke="midnightblue" d="M1760.38,-287.6C1877.1,-283.81 2190.01,-271.67 2449.5,-244 2454.14,-243.51 2458.97,-242.91 2463.78,-242.26"/>
<polygon fill="midnightblue" stroke="midnightblue" points="1760.24,-284.11 1750.36,-287.92 1760.46,-291.1 1760.24,-284.11"/>
</g>
<!-- Node65 -->
<g id="node38" class="node">
<title>Node65</title>
<g id="a_node38"><a xlink:href="api_2spec_2comp_8h.html" target="_top" xlink:title=" ">
<polygon fill="white" stroke="red" points="1090,-224.5 1090,-243.5 1143,-243.5 1143,-224.5 1090,-224.5"/>
<text text-anchor="middle" x="1116.5" y="-231.5" font-family="Helvetica,sans-Serif" font-size="10.00">comp.h</text>
</a>
</g>
</g>
<!-- Node112&#45;&gt;Node65 -->
<g id="edge46" class="edge">
<title>Node112&#45;&gt;Node65</title>
<path fill="none" stroke="midnightblue" d="M1666.69,-287.97C1569.87,-285.23 1340.82,-275.68 1151.5,-244 1148.78,-243.54 1145.96,-242.98 1143.15,-242.36"/>
<polygon fill="midnightblue" stroke="midnightblue" points="1666.65,-291.47 1676.74,-288.24 1666.84,-284.47 1666.65,-291.47"/>
</g>
<!-- Node167 -->
<g id="node39" class="node">
<title>Node167</title>
<g id="a_node39"><a xlink:href="api_2spec_2cpu_8h.html" target="_top" xlink:title=" ">
<polygon fill="white" stroke="red" points="1161,-224.5 1161,-243.5 1204,-243.5 1204,-224.5 1161,-224.5"/>
<text text-anchor="middle" x="1182.5" y="-231.5" font-family="Helvetica,sans-Serif" font-size="10.00">cpu.h</text>
</a>
</g>
</g>
<!-- Node112&#45;&gt;Node167 -->
<g id="edge47" class="edge">
<title>Node112&#45;&gt;Node167</title>
<path fill="none" stroke="midnightblue" d="M1666.74,-287.79C1577.77,-284.84 1378.28,-275.03 1213.5,-244 1210.42,-243.42 1207.2,-242.66 1204.05,-241.83"/>
<polygon fill="midnightblue" stroke="midnightblue" points="1666.67,-291.29 1676.78,-288.11 1666.9,-284.3 1666.67,-291.29"/>
</g>
<!-- Node85 -->
<g id="node40" class="node">
<title>Node85</title>
<g id="a_node40"><a xlink:href="api_2spec_2crypto_8h.html" target="_top" xlink:title=" ">
<polygon fill="white" stroke="red" points="1222.5,-224.5 1222.5,-243.5 1278.5,-243.5 1278.5,-224.5 1222.5,-224.5"/>
<text text-anchor="middle" x="1250.5" y="-231.5" font-family="Helvetica,sans-Serif" font-size="10.00">crypto.h</text>
</a>
</g>
</g>
<!-- Node112&#45;&gt;Node85 -->
<g id="edge48" class="edge">
<title>Node112&#45;&gt;Node85</title>
<path fill="none" stroke="midnightblue" d="M1666.72,-286.11C1588,-280.78 1424.24,-267.74 1287.5,-244 1284.63,-243.5 1281.66,-242.91 1278.7,-242.27"/>
<polygon fill="midnightblue" stroke="midnightblue" points="1666.59,-289.61 1676.8,-286.78 1667.06,-282.62 1666.59,-289.61"/>
</g>
<!-- Node83 -->
<g id="node41" class="node">
<title>Node83</title>
<g id="a_node41"><a xlink:href="api_2spec_2crypto__types_8h.html" target="_top" xlink:title=" ">
<polygon fill="white" stroke="red" points="1297,-224.5 1297,-243.5 1386,-243.5 1386,-224.5 1297,-224.5"/>
<text text-anchor="middle" x="1341.5" y="-231.5" font-family="Helvetica,sans-Serif" font-size="10.00">crypto_types.h</text>
</a>
</g>
</g>
<!-- Node112&#45;&gt;Node83 -->
<g id="edge49" class="edge">
<title>Node112&#45;&gt;Node83</title>
<path fill="none" stroke="midnightblue" d="M1666.47,-282.71C1604.37,-274.33 1491.61,-258.81 1395.5,-244 1392.49,-243.54 1389.4,-243.05 1386.28,-242.55"/>
<polygon fill="midnightblue" stroke="midnightblue" points="1666.35,-286.23 1676.73,-284.1 1667.29,-279.29 1666.35,-286.23"/>
</g>
<!-- Node67 -->
<g id="node42" class="node">
<title>Node67</title>
<g id="a_node42"><a xlink:href="api_2spec_2dma__types_8h.html" target="_top" xlink:title=" ">
<polygon fill="white" stroke="red" points="1404.5,-224.5 1404.5,-243.5 1484.5,-243.5 1484.5,-224.5 1404.5,-224.5"/>
<text text-anchor="middle" x="1444.5" y="-231.5" font-family="Helvetica,sans-Serif" font-size="10.00">dma_types.h</text>
</a>
</g>
</g>
<!-- Node112&#45;&gt;Node67 -->
<g id="edge50" class="edge">
<title>Node112&#45;&gt;Node67</title>
<path fill="none" stroke="midnightblue" d="M1667.1,-279.68C1615.73,-269.37 1533.76,-252.92 1484.93,-243.12"/>
<polygon fill="midnightblue" stroke="midnightblue" points="1666.45,-283.12 1676.94,-281.66 1667.83,-276.26 1666.45,-283.12"/>
</g>
<!-- Node169 -->
<g id="node43" class="node">
<title>Node169</title>
<g id="a_node43"><a xlink:href="api_2spec_2hash_8h.html" target="_top" xlink:title=" ">
<polygon fill="white" stroke="red" points="1503,-224.5 1503,-243.5 1552,-243.5 1552,-224.5 1503,-224.5"/>
<text text-anchor="middle" x="1527.5" y="-231.5" font-family="Helvetica,sans-Serif" font-size="10.00">hash.h</text>
</a>
</g>
</g>
<!-- Node112&#45;&gt;Node169 -->
<g id="edge51" class="edge">
<title>Node112&#45;&gt;Node169</title>
<path fill="none" stroke="midnightblue" d="M1674.11,-277.56C1637.2,-266.85 1583.2,-251.17 1552.08,-242.14"/>
<polygon fill="midnightblue" stroke="midnightblue" points="1673.45,-281.02 1684.03,-280.44 1675.4,-274.29 1673.45,-281.02"/>
</g>
<!-- Node79 -->
<g id="node44" class="node">
<title>Node79</title>
<g id="a_node44"><a xlink:href="api_2spec_2ipsec_8h.html" target="_top" xlink:title=" ">
<polygon fill="white" stroke="red" points="1570,-224.5 1570,-243.5 1621,-243.5 1621,-224.5 1570,-224.5"/>
<text text-anchor="middle" x="1595.5" y="-231.5" font-family="Helvetica,sans-Serif" font-size="10.00">ipsec.h</text>
</a>
</g>
</g>
<!-- Node112&#45;&gt;Node79 -->
<g id="edge53" class="edge">
<title>Node112&#45;&gt;Node79</title>
<path fill="none" stroke="midnightblue" d="M1685.6,-276.23C1663.53,-266.13 1633.32,-252.31 1614.11,-243.52"/>
<polygon fill="midnightblue" stroke="midnightblue" points="1684.25,-279.46 1694.8,-280.44 1687.17,-273.1 1684.25,-279.46"/>
</g>
<!-- Node87 -->
<g id="node45" class="node">
<title>Node87</title>
<g id="a_node45"><a xlink:href="api_2spec_2packet_8h.html" target="_top" xlink:title=" ">
<polygon fill="white" stroke="red" points="1639.5,-224.5 1639.5,-243.5 1697.5,-243.5 1697.5,-224.5 1639.5,-224.5"/>
<text text-anchor="middle" x="1668.5" y="-231.5" font-family="Helvetica,sans-Serif" font-size="10.00">packet.h</text>
</a>
</g>
</g>
<!-- Node112&#45;&gt;Node87 -->
<g id="edge55" class="edge">
<title>Node112&#45;&gt;Node87</title>
<path fill="none" stroke="midnightblue" d="M1699.45,-272.14C1691.61,-262.74 1682.17,-251.4 1675.79,-243.75"/>
<polygon fill="midnightblue" stroke="midnightblue" points="1696.98,-274.64 1706.07,-280.08 1702.36,-270.16 1696.98,-274.64"/>
</g>
<!-- Node103 -->
<g id="node46" class="node">
<title>Node103</title>
<g id="a_node46"><a xlink:href="api_2spec_2packet__flags_8h.html" target="_top" xlink:title=" ">
<polygon fill="white" stroke="red" points="1715.5,-224.5 1715.5,-243.5 1801.5,-243.5 1801.5,-224.5 1715.5,-224.5"/>
<text text-anchor="middle" x="1758.5" y="-231.5" font-family="Helvetica,sans-Serif" font-size="10.00">packet_flags.h</text>
</a>
</g>
</g>
<!-- Node112&#45;&gt;Node103 -->
<g id="edge56" class="edge">
<title>Node112&#45;&gt;Node103</title>
<path fill="none" stroke="midnightblue" d="M1727.55,-272.14C1735.39,-262.74 1744.83,-251.4 1751.21,-243.75"/>
<polygon fill="midnightblue" stroke="midnightblue" points="1724.64,-270.16 1720.93,-280.08 1730.02,-274.64 1724.64,-270.16"/>
</g>
<!-- Node89 -->
<g id="node47" class="node">
<title>Node89</title>
<g id="a_node47"><a xlink:href="api_2spec_2packet__io__types_8h.html" target="_top" xlink:title=" ">
<polygon fill="white" stroke="red" points="1819.5,-224.5 1819.5,-243.5 1923.5,-243.5 1923.5,-224.5 1819.5,-224.5"/>
<text text-anchor="middle" x="1871.5" y="-231.5" font-family="Helvetica,sans-Serif" font-size="10.00">packet_io_types.h</text>
</a>
</g>
</g>
<!-- Node112&#45;&gt;Node89 -->
<g id="edge57" class="edge">
<title>Node112&#45;&gt;Node89</title>
<path fill="none" stroke="midnightblue" d="M1748.11,-277.17C1777.86,-267 1820.05,-252.59 1846.58,-243.52"/>
<polygon fill="midnightblue" stroke="midnightblue" points="1746.87,-273.9 1738.54,-280.44 1749.13,-280.52 1746.87,-273.9"/>
</g>
<!-- Node93 -->
<g id="node48" class="node">
<title>Node93</title>
<g id="a_node48"><a xlink:href="api_2spec_2pool_8h.html" target="_top" xlink:title=" ">
<polygon fill="white" stroke="red" points="1942,-224.5 1942,-243.5 1989,-243.5 1989,-224.5 1942,-224.5"/>
<text text-anchor="middle" x="1965.5" y="-231.5" font-family="Helvetica,sans-Serif" font-size="10.00">pool.h</text>
</a>
</g>
</g>
<!-- Node112&#45;&gt;Node93 -->
<g id="edge58" class="edge">
<title>Node112&#45;&gt;Node93</title>
<path fill="none" stroke="midnightblue" d="M1760.01,-280.33C1804.47,-271.84 1873.31,-258.14 1932.5,-244 1935.5,-243.28 1938.65,-242.49 1941.75,-241.67"/>
<polygon fill="midnightblue" stroke="midnightblue" points="1759.25,-276.91 1750.08,-282.22 1760.56,-283.79 1759.25,-276.91"/>
</g>
<!-- Node71 -->
<g id="node49" class="node">
<title>Node71</title>
<g id="a_node49"><a xlink:href="api_2spec_2pool__types_8h.html" target="_top" xlink:title=" ">
<polygon fill="white" stroke="red" points="2007,-224.5 2007,-243.5 2086,-243.5 2086,-224.5 2007,-224.5"/>
<text text-anchor="middle" x="2046.5" y="-231.5" font-family="Helvetica,sans-Serif" font-size="10.00">pool_types.h</text>
</a>
</g>
</g>
<!-- Node112&#45;&gt;Node71 -->
<g id="edge59" class="edge">
<title>Node112&#45;&gt;Node71</title>
<path fill="none" stroke="midnightblue" d="M1760.34,-281.94C1816.69,-273.36 1914.12,-258.26 1997.5,-244 2000.57,-243.48 2003.74,-242.92 2006.93,-242.35"/>
<polygon fill="midnightblue" stroke="midnightblue" points="1759.67,-278.5 1750.31,-283.46 1760.72,-285.42 1759.67,-278.5"/>
</g>
<!-- Node171 -->
<g id="node50" class="node">
<title>Node171</title>
<g id="a_node50"><a xlink:href="api_2spec_2proto__stats__types_8h.html" target="_top" xlink:title=" ">
<polygon fill="white" stroke="red" points="2104,-224.5 2104,-243.5 2217,-243.5 2217,-224.5 2104,-224.5"/>
<text text-anchor="middle" x="2160.5" y="-231.5" font-family="Helvetica,sans-Serif" font-size="10.00">proto_stats_types.h</text>
</a>
</g>
</g>
<!-- Node112&#45;&gt;Node171 -->
<g id="edge60" class="edge">
<title>Node112&#45;&gt;Node171</title>
<path fill="none" stroke="midnightblue" d="M1760.12,-283.77C1831.96,-275.64 1974.06,-259.32 2094.5,-244 2097.6,-243.61 2100.78,-243.19 2103.98,-242.77"/>
<polygon fill="midnightblue" stroke="midnightblue" points="1759.58,-280.31 1750.04,-284.91 1760.37,-287.26 1759.58,-280.31"/>
</g>
<!-- Node76&#45;&gt;Node18 -->
<g id="edge39" class="edge">
<title>Node76&#45;&gt;Node18</title>
<path fill="none" stroke="midnightblue" d="M2518.99,-161.89C2533.72,-149.06 2549.52,-129.93 2540.5,-112 2516.52,-64.31 2458.18,-33.48 2426.26,-19.57"/>
<polygon fill="midnightblue" stroke="midnightblue" points="2516.63,-159.29 2511.08,-168.32 2521.05,-164.73 2516.63,-159.29"/>
</g>
<!-- Node76&#45;&gt;Node77 -->
<g id="edge38" class="edge">
<title>Node76&#45;&gt;Node77</title>
<path fill="none" stroke="midnightblue" d="M2495.35,-158.1C2493.86,-149.14 2492.14,-138.86 2490.96,-131.75"/>
<polygon fill="midnightblue" stroke="midnightblue" points="2491.92,-158.79 2497.01,-168.08 2498.82,-157.64 2491.92,-158.79"/>
</g>
<!-- Node164&#45;&gt;Node18 -->
<g id="edge41" class="edge">
<title>Node164&#45;&gt;Node18</title>
<path fill="none" stroke="midnightblue" d="M2392.04,-102.35C2395.33,-78.25 2400.91,-37.31 2403.33,-19.59"/>
<polygon fill="midnightblue" stroke="midnightblue" points="2388.56,-101.99 2390.68,-112.37 2395.5,-102.93 2388.56,-101.99"/>
</g>
<!-- Node75&#45;&gt;Node76 -->
<g id="edge45" class="edge">
<title>Node75&#45;&gt;Node76</title>
<path fill="none" stroke="midnightblue" d="M2505,-214.1C2503.34,-205.14 2501.44,-194.86 2500.12,-187.75"/>
<polygon fill="midnightblue" stroke="midnightblue" points="2501.59,-214.89 2506.85,-224.08 2508.47,-213.61 2501.59,-214.89"/>
</g>
</g>
</svg>
