<?xml version="1.0" encoding="UTF-8" standalone="no"?>
<!DOCTYPE svg PUBLIC "-//W3C//DTD SVG 1.1//EN"
 "http://www.w3.org/Graphics/SVG/1.1/DTD/svg11.dtd">
<!-- Generated by graphviz version 2.43.0 (0)
 -->
<!-- Title: queue_types.h Pages: 1 -->
<svg width="1131pt" height="924pt"
 viewBox="0.00 0.00 1131.00 924.00" xmlns="http://www.w3.org/2000/svg" xmlns:xlink="http://www.w3.org/1999/xlink">
<g id="graph0" class="graph" transform="scale(1 1) rotate(0) translate(4 920)">
<title>queue_types.h</title>
<polygon fill="white" stroke="transparent" points="-4,4 -4,-920 1127,-920 1127,4 -4,4"/>
<!-- Node1 -->
<g id="node1" class="node">
<title>Node1</title>
<g id="a_node1"><a xlink:title=" ">
<polygon fill="#bfbfbf" stroke="black" points="296.5,-896.5 296.5,-915.5 384.5,-915.5 384.5,-896.5 296.5,-896.5"/>
<text text-anchor="middle" x="340.5" y="-903.5" font-family="Helvetica,sans-Serif" font-size="10.00">queue_types.h</text>
</a>
</g>
</g>
<!-- Node2 -->
<g id="node2" class="node">
<title>Node2</title>
<g id="a_node2"><a xlink:href="api_2queue__types_8h.html" target="_top" xlink:title=" ">
<polygon fill="white" stroke="black" points="296.5,-840.5 296.5,-859.5 384.5,-859.5 384.5,-840.5 296.5,-840.5"/>
<text text-anchor="middle" x="340.5" y="-847.5" font-family="Helvetica,sans-Serif" font-size="10.00">queue_types.h</text>
</a>
</g>
</g>
<!-- Node1&#45;&gt;Node2 -->
<g id="edge1" class="edge">
<title>Node1&#45;&gt;Node2</title>
<path fill="none" stroke="midnightblue" d="M340.5,-885.8C340.5,-876.91 340.5,-866.78 340.5,-859.75"/>
<polygon fill="midnightblue" stroke="midnightblue" points="337,-886.08 340.5,-896.08 344,-886.08 337,-886.08"/>
</g>
<!-- Node3 -->
<g id="node3" class="node">
<title>Node3</title>
<g id="a_node3"><a xlink:href="api_2spec_2comp_8h.html" target="_top" xlink:title=" ">
<polygon fill="white" stroke="black" points="0,-672.5 0,-691.5 53,-691.5 53,-672.5 0,-672.5"/>
<text text-anchor="middle" x="26.5" y="-679.5" font-family="Helvetica,sans-Serif" font-size="10.00">comp.h</text>
</a>
</g>
</g>
<!-- Node2&#45;&gt;Node3 -->
<g id="edge2" class="edge">
<title>Node2&#45;&gt;Node3</title>
<path fill="none" stroke="midnightblue" d="M286.02,-846.54C216,-842.3 99.64,-831.27 67.5,-804 32.66,-774.43 27.34,-714.1 26.59,-691.66"/>
<polygon fill="midnightblue" stroke="midnightblue" points="286.23,-850.06 296.41,-847.14 286.63,-843.07 286.23,-850.06"/>
</g>
<!-- Node6 -->
<g id="node6" class="node">
<title>Node6</title>
<g id="a_node6"><a xlink:href="api_2spec_2dma__types_8h.html" target="_top" xlink:title=" ">
<polygon fill="white" stroke="black" points="300.5,-672.5 300.5,-691.5 380.5,-691.5 380.5,-672.5 300.5,-672.5"/>
<text text-anchor="middle" x="340.5" y="-679.5" font-family="Helvetica,sans-Serif" font-size="10.00">dma_types.h</text>
</a>
</g>
</g>
<!-- Node2&#45;&gt;Node6 -->
<g id="edge5" class="edge">
<title>Node2&#45;&gt;Node6</title>
<path fill="none" stroke="midnightblue" d="M340.5,-829.93C340.5,-793.92 340.5,-717.23 340.5,-691.57"/>
<polygon fill="midnightblue" stroke="midnightblue" points="337,-830.08 340.5,-840.08 344,-830.08 337,-830.08"/>
</g>
<!-- Node20 -->
<g id="node20" class="node">
<title>Node20</title>
<g id="a_node20"><a xlink:href="api_2spec_2packet__io_8h.html" target="_top" xlink:title=" ">
<polygon fill="white" stroke="black" points="119.5,-224.5 119.5,-243.5 191.5,-243.5 191.5,-224.5 119.5,-224.5"/>
<text text-anchor="middle" x="155.5" y="-231.5" font-family="Helvetica,sans-Serif" font-size="10.00">packet_io.h</text>
</a>
</g>
</g>
<!-- Node2&#45;&gt;Node20 -->
<g id="edge53" class="edge">
<title>Node2&#45;&gt;Node20</title>
<path fill="none" stroke="midnightblue" d="M285.92,-848.94C209.93,-845.65 81.5,-827.07 81.5,-739 81.5,-739 81.5,-739 81.5,-625 81.5,-551.19 76.5,-532.81 76.5,-459 76.5,-459 76.5,-459 76.5,-345 76.5,-299.86 120.94,-260.55 143.16,-243.72"/>
<polygon fill="midnightblue" stroke="midnightblue" points="286.15,-852.45 296.27,-849.31 286.4,-845.45 286.15,-852.45"/>
</g>
<!-- Node28 -->
<g id="node28" class="node">
<title>Node28</title>
<g id="a_node28"><a xlink:href="api_2spec_2packet__io__types_8h.html" target="_top" xlink:title=" ">
<polygon fill="white" stroke="black" points="189.5,-448.5 189.5,-467.5 293.5,-467.5 293.5,-448.5 189.5,-448.5"/>
<text text-anchor="middle" x="241.5" y="-455.5" font-family="Helvetica,sans-Serif" font-size="10.00">packet_io_types.h</text>
</a>
</g>
</g>
<!-- Node2&#45;&gt;Node28 -->
<g id="edge58" class="edge">
<title>Node2&#45;&gt;Node28</title>
<path fill="none" stroke="midnightblue" d="M323.08,-833.46C302.93,-813.69 272.5,-777.45 272.5,-739 272.5,-739 272.5,-739 272.5,-569 272.5,-529.91 254.14,-485.84 245.68,-467.61"/>
<polygon fill="midnightblue" stroke="midnightblue" points="320.79,-836.11 330.47,-840.43 325.6,-831.02 320.79,-836.11"/>
</g>
<!-- Node34 -->
<g id="node34" class="node">
<title>Node34</title>
<g id="a_node34"><a xlink:href="api_2spec_2timer_8h.html" target="_top" xlink:title=" ">
<polygon fill="white" stroke="black" points="591,-448.5 591,-467.5 642,-467.5 642,-448.5 591,-448.5"/>
<text text-anchor="middle" x="616.5" y="-455.5" font-family="Helvetica,sans-Serif" font-size="10.00">timer.h</text>
</a>
</g>
</g>
<!-- Node2&#45;&gt;Node34 -->
<g id="edge81" class="edge">
<title>Node2&#45;&gt;Node34</title>
<path fill="none" stroke="midnightblue" d="M394.74,-847.04C464.98,-841.26 578.5,-819.48 578.5,-739 578.5,-739 578.5,-739 578.5,-569 578.5,-529.4 600.77,-485.96 611.22,-467.77"/>
<polygon fill="midnightblue" stroke="midnightblue" points="394.42,-843.55 384.71,-847.78 394.94,-850.53 394.42,-843.55"/>
</g>
<!-- Node36 -->
<g id="node36" class="node">
<title>Node36</title>
<g id="a_node36"><a xlink:href="spec_2packet__io__stats_8h.html" target="_top" xlink:title=" ">
<polygon fill="white" stroke="black" points="143,-728.5 143,-747.5 244,-747.5 244,-728.5 143,-728.5"/>
<text text-anchor="middle" x="193.5" y="-735.5" font-family="Helvetica,sans-Serif" font-size="10.00">packet_io_stats.h</text>
</a>
</g>
</g>
<!-- Node2&#45;&gt;Node36 -->
<g id="edge54" class="edge">
<title>Node2&#45;&gt;Node36</title>
<path fill="none" stroke="midnightblue" d="M312.25,-836C295.86,-827.85 275.22,-816.55 258.5,-804 235.27,-786.57 212.21,-761.07 200.83,-747.78"/>
<polygon fill="midnightblue" stroke="midnightblue" points="310.82,-839.19 321.35,-840.41 313.88,-832.89 310.82,-839.19"/>
</g>
<!-- Node38 -->
<g id="node38" class="node">
<title>Node38</title>
<g id="a_node38"><a xlink:href="api_2spec_2packet__types_8h.html" target="_top" xlink:title=" ">
<polygon fill="white" stroke="black" points="615.5,-784.5 615.5,-803.5 705.5,-803.5 705.5,-784.5 615.5,-784.5"/>
<text text-anchor="middle" x="660.5" y="-791.5" font-family="Helvetica,sans-Serif" font-size="10.00">packet_types.h</text>
</a>
</g>
</g>
<!-- Node2&#45;&gt;Node38 -->
<g id="edge59" class="edge">
<title>Node2&#45;&gt;Node38</title>
<path fill="none" stroke="midnightblue" d="M394.65,-839.86C456.68,-829.39 557.21,-812.43 615.25,-802.64"/>
<polygon fill="midnightblue" stroke="midnightblue" points="393.94,-836.43 384.66,-841.55 395.1,-843.34 393.94,-836.43"/>
</g>
<!-- Node44 -->
<g id="node44" class="node">
<title>Node44</title>
<g id="a_node44"><a xlink:href="api_2spec_2queue_8h.html" target="_top" xlink:title=" ">
<polygon fill="white" stroke="black" points="851.5,-784.5 851.5,-803.5 907.5,-803.5 907.5,-784.5 851.5,-784.5"/>
<text text-anchor="middle" x="879.5" y="-791.5" font-family="Helvetica,sans-Serif" font-size="10.00">queue.h</text>
</a>
</g>
</g>
<!-- Node2&#45;&gt;Node44 -->
<g id="edge75" class="edge">
<title>Node2&#45;&gt;Node44</title>
<path fill="none" stroke="midnightblue" d="M394.78,-843.56C507.98,-832.22 765.86,-806.39 851.37,-797.82"/>
<polygon fill="midnightblue" stroke="midnightblue" points="394.21,-840.1 384.61,-844.58 394.91,-847.07 394.21,-840.1"/>
</g>
<!-- Node46 -->
<g id="node46" class="node">
<title>Node46</title>
<g id="a_node46"><a xlink:href="api_2spec_2schedule_8h.html" target="_top" xlink:title=" ">
<polygon fill="white" stroke="black" points="990,-784.5 990,-803.5 1059,-803.5 1059,-784.5 990,-784.5"/>
<text text-anchor="middle" x="1024.5" y="-791.5" font-family="Helvetica,sans-Serif" font-size="10.00">schedule.h</text>
</a>
</g>
</g>
<!-- Node2&#45;&gt;Node46 -->
<g id="edge78" class="edge">
<title>Node2&#45;&gt;Node46</title>
<path fill="none" stroke="midnightblue" d="M394.65,-844.86C496.74,-837.04 724.63,-819.49 916.5,-804 941.07,-802.02 968.77,-799.71 989.97,-797.92"/>
<polygon fill="midnightblue" stroke="midnightblue" points="394.29,-841.38 384.59,-845.63 394.82,-848.36 394.29,-841.38"/>
</g>
<!-- Node4 -->
<g id="node4" class="node">
<title>Node4</title>
<g id="a_node4"><a xlink:href="api_2comp_8h.html" target="_top" xlink:title=" ">
<polygon fill="white" stroke="black" points="0,-560.5 0,-579.5 53,-579.5 53,-560.5 0,-560.5"/>
<text text-anchor="middle" x="26.5" y="-567.5" font-family="Helvetica,sans-Serif" font-size="10.00">comp.h</text>
</a>
</g>
</g>
<!-- Node3&#45;&gt;Node4 -->
<g id="edge3" class="edge">
<title>Node3&#45;&gt;Node4</title>
<path fill="none" stroke="midnightblue" d="M26.5,-662.35C26.5,-638.25 26.5,-597.31 26.5,-579.59"/>
<polygon fill="midnightblue" stroke="midnightblue" points="23,-662.37 26.5,-672.37 30,-662.37 23,-662.37"/>
</g>
<!-- Node5 -->
<g id="node5" class="node">
<title>Node5</title>
<g id="a_node5"><a xlink:href="odp__api_8h.html" target="_top" xlink:title=" ">
<polygon fill="white" stroke="black" points="574.5,-0.5 574.5,-19.5 638.5,-19.5 638.5,-0.5 574.5,-0.5"/>
<text text-anchor="middle" x="606.5" y="-7.5" font-family="Helvetica,sans-Serif" font-size="10.00">odp_api.h</text>
</a>
</g>
</g>
<!-- Node4&#45;&gt;Node5 -->
<g id="edge4" class="edge">
<title>Node4&#45;&gt;Node5</title>
<path fill="none" stroke="midnightblue" d="M28.69,-550.28C31.06,-528.42 34.5,-491.14 34.5,-459 34.5,-459 34.5,-459 34.5,-121 34.5,-65.63 453.1,-24.49 574.11,-13.76"/>
<polygon fill="midnightblue" stroke="midnightblue" points="25.19,-550.13 27.55,-560.46 32.14,-550.91 25.19,-550.13"/>
</g>
<!-- Node7 -->
<g id="node7" class="node">
<title>Node7</title>
<g id="a_node7"><a xlink:href="api_2dma__types_8h.html" target="_top" xlink:title=" ">
<polygon fill="white" stroke="black" points="413.5,-616.5 413.5,-635.5 493.5,-635.5 493.5,-616.5 413.5,-616.5"/>
<text text-anchor="middle" x="453.5" y="-623.5" font-family="Helvetica,sans-Serif" font-size="10.00">dma_types.h</text>
</a>
</g>
</g>
<!-- Node6&#45;&gt;Node7 -->
<g id="edge6" class="edge">
<title>Node6&#45;&gt;Node7</title>
<path fill="none" stroke="midnightblue" d="M367.5,-668.1C388.61,-658.01 417.36,-644.27 435.68,-635.52"/>
<polygon fill="midnightblue" stroke="midnightblue" points="365.92,-664.97 358.41,-672.44 368.94,-671.29 365.92,-664.97"/>
</g>
<!-- Node8 -->
<g id="node8" class="node">
<title>Node8</title>
<g id="a_node8"><a xlink:href="api_2spec_2dma_8h.html" target="_top" xlink:title=" ">
<polygon fill="white" stroke="black" points="312,-448.5 312,-467.5 359,-467.5 359,-448.5 312,-448.5"/>
<text text-anchor="middle" x="335.5" y="-455.5" font-family="Helvetica,sans-Serif" font-size="10.00">dma.h</text>
</a>
</g>
</g>
<!-- Node7&#45;&gt;Node8 -->
<g id="edge7" class="edge">
<title>Node7&#45;&gt;Node8</title>
<path fill="none" stroke="midnightblue" d="M448.62,-606.45C441.26,-581.16 425.36,-535.4 399.5,-504 386.46,-488.17 366.54,-475.36 352.39,-467.51"/>
<polygon fill="midnightblue" stroke="midnightblue" points="445.29,-607.52 451.33,-616.22 452.03,-605.65 445.29,-607.52"/>
</g>
<!-- Node10 -->
<g id="node10" class="node">
<title>Node10</title>
<g id="a_node10"><a xlink:href="api_2spec_2pool__types_8h.html" target="_top" xlink:title=" ">
<polygon fill="white" stroke="black" points="452,-560.5 452,-579.5 531,-579.5 531,-560.5 452,-560.5"/>
<text text-anchor="middle" x="491.5" y="-567.5" font-family="Helvetica,sans-Serif" font-size="10.00">pool_types.h</text>
</a>
</g>
</g>
<!-- Node7&#45;&gt;Node10 -->
<g id="edge10" class="edge">
<title>Node7&#45;&gt;Node10</title>
<path fill="none" stroke="midnightblue" d="M465.56,-607.86C472.14,-598.5 480.01,-587.33 485.34,-579.75"/>
<polygon fill="midnightblue" stroke="midnightblue" points="462.67,-605.89 459.77,-616.08 468.39,-609.92 462.67,-605.89"/>
</g>
<!-- Node9 -->
<g id="node9" class="node">
<title>Node9</title>
<g id="a_node9"><a xlink:href="api_2dma_8h.html" target="_top" xlink:title=" ">
<polygon fill="white" stroke="black" points="214,-112.5 214,-131.5 261,-131.5 261,-112.5 214,-112.5"/>
<text text-anchor="middle" x="237.5" y="-119.5" font-family="Helvetica,sans-Serif" font-size="10.00">dma.h</text>
</a>
</g>
</g>
<!-- Node8&#45;&gt;Node9 -->
<g id="edge8" class="edge">
<title>Node8&#45;&gt;Node9</title>
<path fill="none" stroke="midnightblue" d="M316.15,-441.9C294.9,-424 261.89,-392.04 247.5,-356 214.93,-274.4 230.39,-163.72 235.86,-131.89"/>
<polygon fill="midnightblue" stroke="midnightblue" points="313.97,-444.63 323.92,-448.26 318.4,-439.21 313.97,-444.63"/>
</g>
<!-- Node9&#45;&gt;Node5 -->
<g id="edge9" class="edge">
<title>Node9&#45;&gt;Node5</title>
<path fill="none" stroke="midnightblue" d="M249.93,-103.97C262.05,-88.75 281.91,-67.17 304.5,-56 351.55,-32.75 506.48,-18.54 574.26,-13.3"/>
<polygon fill="midnightblue" stroke="midnightblue" points="247.03,-102.01 243.73,-112.07 252.58,-106.26 247.03,-102.01"/>
</g>
<!-- Node11 -->
<g id="node11" class="node">
<title>Node11</title>
<g id="a_node11"><a xlink:href="api_2pool__types_8h.html" target="_top" xlink:title=" ">
<polygon fill="white" stroke="black" points="452,-504.5 452,-523.5 531,-523.5 531,-504.5 452,-504.5"/>
<text text-anchor="middle" x="491.5" y="-511.5" font-family="Helvetica,sans-Serif" font-size="10.00">pool_types.h</text>
</a>
</g>
</g>
<!-- Node10&#45;&gt;Node11 -->
<g id="edge11" class="edge">
<title>Node10&#45;&gt;Node11</title>
<path fill="none" stroke="midnightblue" d="M491.5,-549.8C491.5,-540.91 491.5,-530.78 491.5,-523.75"/>
<polygon fill="midnightblue" stroke="midnightblue" points="488,-550.08 491.5,-560.08 495,-550.08 488,-550.08"/>
</g>
<!-- Node11&#45;&gt;Node8 -->
<g id="edge33" class="edge">
<title>Node11&#45;&gt;Node8</title>
<path fill="none" stroke="midnightblue" d="M457.21,-501.13C427.46,-490.83 385.17,-476.19 359.08,-467.16"/>
<polygon fill="midnightblue" stroke="midnightblue" points="456.19,-504.48 466.78,-504.44 458.48,-497.86 456.19,-504.48"/>
</g>
<!-- Node12 -->
<g id="node12" class="node">
<title>Node12</title>
<g id="a_node12"><a xlink:href="api_2spec_2buffer_8h.html" target="_top" xlink:title=" ">
<polygon fill="white" stroke="black" points="520,-448.5 520,-467.5 573,-467.5 573,-448.5 520,-448.5"/>
<text text-anchor="middle" x="546.5" y="-455.5" font-family="Helvetica,sans-Serif" font-size="10.00">buffer.h</text>
</a>
</g>
</g>
<!-- Node11&#45;&gt;Node12 -->
<g id="edge12" class="edge">
<title>Node11&#45;&gt;Node12</title>
<path fill="none" stroke="midnightblue" d="M507.79,-497C517.54,-487.43 529.55,-475.64 537.59,-467.75"/>
<polygon fill="midnightblue" stroke="midnightblue" points="505.27,-494.58 500.58,-504.08 510.17,-499.57 505.27,-494.58"/>
</g>
<!-- Node14 -->
<g id="node14" class="node">
<title>Node14</title>
<g id="a_node14"><a xlink:href="api_2spec_2classification_8h.html" target="_top" xlink:title=" ">
<polygon fill="white" stroke="black" points="257,-336.5 257,-355.5 346,-355.5 346,-336.5 257,-336.5"/>
<text text-anchor="middle" x="301.5" y="-343.5" font-family="Helvetica,sans-Serif" font-size="10.00">classification.h</text>
</a>
</g>
</g>
<!-- Node11&#45;&gt;Node14 -->
<g id="edge15" class="edge">
<title>Node11&#45;&gt;Node14</title>
<path fill="none" stroke="midnightblue" d="M460.19,-500.42C424.66,-484.67 367.16,-454.51 332.5,-412 318.12,-394.36 308.52,-368.95 304.17,-355.73"/>
<polygon fill="midnightblue" stroke="midnightblue" points="459.02,-503.73 469.59,-504.48 461.79,-497.3 459.02,-503.73"/>
</g>
<!-- Node22 -->
<g id="node22" class="node">
<title>Node22</title>
<g id="a_node22"><a xlink:href="api_2spec_2crypto__types_8h.html" target="_top" xlink:title=" ">
<polygon fill="white" stroke="black" points="699,-448.5 699,-467.5 788,-467.5 788,-448.5 699,-448.5"/>
<text text-anchor="middle" x="743.5" y="-455.5" font-family="Helvetica,sans-Serif" font-size="10.00">crypto_types.h</text>
</a>
</g>
</g>
<!-- Node11&#45;&gt;Node22 -->
<g id="edge26" class="edge">
<title>Node11&#45;&gt;Node22</title>
<path fill="none" stroke="midnightblue" d="M540.93,-502.41C588.52,-492.21 659.59,-476.98 703.66,-467.54"/>
<polygon fill="midnightblue" stroke="midnightblue" points="540.2,-498.99 531.15,-504.5 541.66,-505.83 540.2,-498.99"/>
</g>
<!-- Node26 -->
<g id="node26" class="node">
<title>Node26</title>
<g id="a_node26"><a xlink:href="api_2spec_2packet_8h.html" target="_top" xlink:title=" ">
<polygon fill="white" stroke="black" points="541.5,-336.5 541.5,-355.5 599.5,-355.5 599.5,-336.5 541.5,-336.5"/>
<text text-anchor="middle" x="570.5" y="-343.5" font-family="Helvetica,sans-Serif" font-size="10.00">packet.h</text>
</a>
</g>
</g>
<!-- Node11&#45;&gt;Node26 -->
<g id="edge34" class="edge">
<title>Node11&#45;&gt;Node26</title>
<path fill="none" stroke="midnightblue" d="M495.58,-494.53C498.82,-481.28 503.91,-463.16 510.5,-448 526.28,-411.72 552.6,-372.42 564.42,-355.52"/>
<polygon fill="midnightblue" stroke="midnightblue" points="492.15,-493.81 493.3,-504.35 498.97,-495.4 492.15,-493.81"/>
</g>
<!-- Node11&#45;&gt;Node28 -->
<g id="edge37" class="edge">
<title>Node11&#45;&gt;Node28</title>
<path fill="none" stroke="midnightblue" d="M441.88,-502.28C394.63,-492.08 324.46,-476.92 280.93,-467.52"/>
<polygon fill="midnightblue" stroke="midnightblue" points="441.37,-505.75 451.89,-504.44 442.85,-498.91 441.37,-505.75"/>
</g>
<!-- Node32 -->
<g id="node32" class="node">
<title>Node32</title>
<g id="a_node32"><a xlink:href="api_2spec_2pool_8h.html" target="_top" xlink:title=" ">
<polygon fill="white" stroke="black" points="416,-448.5 416,-467.5 463,-467.5 463,-448.5 416,-448.5"/>
<text text-anchor="middle" x="439.5" y="-455.5" font-family="Helvetica,sans-Serif" font-size="10.00">pool.h</text>
</a>
</g>
</g>
<!-- Node11&#45;&gt;Node32 -->
<g id="edge47" class="edge">
<title>Node11&#45;&gt;Node32</title>
<path fill="none" stroke="midnightblue" d="M475.82,-496.72C466.66,-487.2 455.45,-475.56 447.93,-467.75"/>
<polygon fill="midnightblue" stroke="midnightblue" points="473.46,-499.31 482.91,-504.08 478.5,-494.45 473.46,-499.31"/>
</g>
<!-- Node11&#45;&gt;Node34 -->
<g id="edge50" class="edge">
<title>Node11&#45;&gt;Node34</title>
<path fill="none" stroke="midnightblue" d="M520.74,-500.37C544.15,-490.26 576.34,-476.35 596.79,-467.52"/>
<polygon fill="midnightblue" stroke="midnightblue" points="519.1,-497.26 511.31,-504.44 521.87,-503.69 519.1,-497.26"/>
</g>
<!-- Node13 -->
<g id="node13" class="node">
<title>Node13</title>
<g id="a_node13"><a xlink:href="api_2buffer_8h.html" target="_top" xlink:title=" ">
<polygon fill="white" stroke="black" points="580,-56.5 580,-75.5 633,-75.5 633,-56.5 580,-56.5"/>
<text text-anchor="middle" x="606.5" y="-63.5" font-family="Helvetica,sans-Serif" font-size="10.00">buffer.h</text>
</a>
</g>
</g>
<!-- Node12&#45;&gt;Node13 -->
<g id="edge13" class="edge">
<title>Node12&#45;&gt;Node13</title>
<path fill="none" stroke="midnightblue" d="M567.36,-442.09C591.36,-423.01 627.5,-387.55 627.5,-347 627.5,-347 627.5,-347 627.5,-289 627.5,-205.77 612.69,-105.75 607.94,-75.85"/>
<polygon fill="midnightblue" stroke="midnightblue" points="564.98,-439.5 559.16,-448.35 569.23,-445.06 564.98,-439.5"/>
</g>
<!-- Node13&#45;&gt;Node5 -->
<g id="edge14" class="edge">
<title>Node13&#45;&gt;Node5</title>
<path fill="none" stroke="midnightblue" d="M606.5,-45.8C606.5,-36.91 606.5,-26.78 606.5,-19.75"/>
<polygon fill="midnightblue" stroke="midnightblue" points="603,-46.08 606.5,-56.08 610,-46.08 603,-46.08"/>
</g>
<!-- Node15 -->
<g id="node15" class="node">
<title>Node15</title>
<g id="a_node15"><a xlink:href="api_2classification_8h.html" target="_top" xlink:title=" ">
<polygon fill="white" stroke="black" points="257,-280.5 257,-299.5 346,-299.5 346,-280.5 257,-280.5"/>
<text text-anchor="middle" x="301.5" y="-287.5" font-family="Helvetica,sans-Serif" font-size="10.00">classification.h</text>
</a>
</g>
</g>
<!-- Node14&#45;&gt;Node15 -->
<g id="edge16" class="edge">
<title>Node14&#45;&gt;Node15</title>
<path fill="none" stroke="midnightblue" d="M301.5,-325.8C301.5,-316.91 301.5,-306.78 301.5,-299.75"/>
<polygon fill="midnightblue" stroke="midnightblue" points="298,-326.08 301.5,-336.08 305,-326.08 298,-326.08"/>
</g>
<!-- Node15&#45;&gt;Node5 -->
<g id="edge25" class="edge">
<title>Node15&#45;&gt;Node5</title>
<path fill="none" stroke="midnightblue" d="M306.17,-270.36C311.2,-248.58 318.5,-211.42 318.5,-179 318.5,-179 318.5,-179 318.5,-121 318.5,-79.51 348.81,-75.36 385.5,-56 446.97,-23.56 529.44,-14.47 574.24,-11.95"/>
<polygon fill="midnightblue" stroke="midnightblue" points="302.73,-269.69 303.79,-280.23 309.53,-271.33 302.73,-269.69"/>
</g>
<!-- Node16 -->
<g id="node16" class="node">
<title>Node16</title>
<g id="a_node16"><a xlink:href="api_2spec_2ipsec__types_8h.html" target="_top" xlink:title=" ">
<polygon fill="white" stroke="black" points="402,-224.5 402,-243.5 485,-243.5 485,-224.5 402,-224.5"/>
<text text-anchor="middle" x="443.5" y="-231.5" font-family="Helvetica,sans-Serif" font-size="10.00">ipsec_types.h</text>
</a>
</g>
</g>
<!-- Node15&#45;&gt;Node16 -->
<g id="edge17" class="edge">
<title>Node15&#45;&gt;Node16</title>
<path fill="none" stroke="midnightblue" d="M333.66,-276.77C360.33,-266.63 397.57,-252.47 421.1,-243.52"/>
<polygon fill="midnightblue" stroke="midnightblue" points="332.1,-273.62 324,-280.44 334.59,-280.16 332.1,-273.62"/>
</g>
<!-- Node15&#45;&gt;Node20 -->
<g id="edge22" class="edge">
<title>Node15&#45;&gt;Node20</title>
<path fill="none" stroke="midnightblue" d="M268.8,-276.91C241.35,-266.75 202.83,-252.51 178.53,-243.52"/>
<polygon fill="midnightblue" stroke="midnightblue" points="267.77,-280.26 278.37,-280.44 270.2,-273.69 267.77,-280.26"/>
</g>
<!-- Node17 -->
<g id="node17" class="node">
<title>Node17</title>
<g id="a_node17"><a xlink:href="api_2ipsec__types_8h.html" target="_top" xlink:title=" ">
<polygon fill="white" stroke="black" points="673,-168.5 673,-187.5 756,-187.5 756,-168.5 673,-168.5"/>
<text text-anchor="middle" x="714.5" y="-175.5" font-family="Helvetica,sans-Serif" font-size="10.00">ipsec_types.h</text>
</a>
</g>
</g>
<!-- Node16&#45;&gt;Node17 -->
<g id="edge18" class="edge">
<title>Node16&#45;&gt;Node17</title>
<path fill="none" stroke="midnightblue" d="M495.19,-222.7C546.74,-212.43 624.94,-196.85 672.7,-187.33"/>
<polygon fill="midnightblue" stroke="midnightblue" points="494.37,-219.29 485.25,-224.68 495.74,-226.16 494.37,-219.29"/>
</g>
<!-- Node18 -->
<g id="node18" class="node">
<title>Node18</title>
<g id="a_node18"><a xlink:href="api_2spec_2ipsec_8h.html" target="_top" xlink:title=" ">
<polygon fill="white" stroke="black" points="694,-112.5 694,-131.5 745,-131.5 745,-112.5 694,-112.5"/>
<text text-anchor="middle" x="719.5" y="-119.5" font-family="Helvetica,sans-Serif" font-size="10.00">ipsec.h</text>
</a>
</g>
</g>
<!-- Node17&#45;&gt;Node18 -->
<g id="edge19" class="edge">
<title>Node17&#45;&gt;Node18</title>
<path fill="none" stroke="midnightblue" d="M716.25,-158.1C717.08,-149.14 718.03,-138.86 718.69,-131.75"/>
<polygon fill="midnightblue" stroke="midnightblue" points="712.76,-157.8 715.33,-168.08 719.73,-158.45 712.76,-157.8"/>
</g>
<!-- Node19 -->
<g id="node19" class="node">
<title>Node19</title>
<g id="a_node19"><a xlink:href="api_2ipsec_8h.html" target="_top" xlink:title=" ">
<polygon fill="white" stroke="black" points="694,-56.5 694,-75.5 745,-75.5 745,-56.5 694,-56.5"/>
<text text-anchor="middle" x="719.5" y="-63.5" font-family="Helvetica,sans-Serif" font-size="10.00">ipsec.h</text>
</a>
</g>
</g>
<!-- Node18&#45;&gt;Node19 -->
<g id="edge20" class="edge">
<title>Node18&#45;&gt;Node19</title>
<path fill="none" stroke="midnightblue" d="M719.5,-101.8C719.5,-92.91 719.5,-82.78 719.5,-75.75"/>
<polygon fill="midnightblue" stroke="midnightblue" points="716,-102.08 719.5,-112.08 723,-102.08 716,-102.08"/>
</g>
<!-- Node19&#45;&gt;Node5 -->
<g id="edge21" class="edge">
<title>Node19&#45;&gt;Node5</title>
<path fill="none" stroke="midnightblue" d="M692.5,-52.1C671.39,-42.01 642.64,-28.27 624.32,-19.52"/>
<polygon fill="midnightblue" stroke="midnightblue" points="691.06,-55.29 701.59,-56.44 694.08,-48.97 691.06,-55.29"/>
</g>
<!-- Node21 -->
<g id="node21" class="node">
<title>Node21</title>
<g id="a_node21"><a xlink:href="api_2packet__io_8h.html" target="_top" xlink:title=" ">
<polygon fill="white" stroke="black" points="125.5,-168.5 125.5,-187.5 197.5,-187.5 197.5,-168.5 125.5,-168.5"/>
<text text-anchor="middle" x="161.5" y="-175.5" font-family="Helvetica,sans-Serif" font-size="10.00">packet_io.h</text>
</a>
</g>
</g>
<!-- Node20&#45;&gt;Node21 -->
<g id="edge23" class="edge">
<title>Node20&#45;&gt;Node21</title>
<path fill="none" stroke="midnightblue" d="M157.6,-214.1C158.6,-205.14 159.74,-194.86 160.53,-187.75"/>
<polygon fill="midnightblue" stroke="midnightblue" points="154.12,-213.76 156.49,-224.08 161.07,-214.53 154.12,-213.76"/>
</g>
<!-- Node21&#45;&gt;Node5 -->
<g id="edge24" class="edge">
<title>Node21&#45;&gt;Node5</title>
<path fill="none" stroke="midnightblue" d="M171.06,-159.57C187.62,-131.47 224.61,-77.13 273.5,-56 327.32,-32.73 501.91,-18.26 574.44,-13.12"/>
<polygon fill="midnightblue" stroke="midnightblue" points="167.99,-157.9 166.07,-168.33 174.07,-161.37 167.99,-157.9"/>
</g>
<!-- Node23 -->
<g id="node23" class="node">
<title>Node23</title>
<g id="a_node23"><a xlink:href="api_2crypto__types_8h.html" target="_top" xlink:title=" ">
<polygon fill="white" stroke="black" points="699,-280.5 699,-299.5 788,-299.5 788,-280.5 699,-280.5"/>
<text text-anchor="middle" x="743.5" y="-287.5" font-family="Helvetica,sans-Serif" font-size="10.00">crypto_types.h</text>
</a>
</g>
</g>
<!-- Node22&#45;&gt;Node23 -->
<g id="edge27" class="edge">
<title>Node22&#45;&gt;Node23</title>
<path fill="none" stroke="midnightblue" d="M748.54,-438.62C750.51,-430.53 752.53,-420.86 753.5,-412 758.12,-369.89 749.32,-319.31 745.33,-299.52"/>
<polygon fill="midnightblue" stroke="midnightblue" points="745.11,-437.91 745.98,-448.47 751.88,-439.67 745.11,-437.91"/>
</g>
<!-- Node23&#45;&gt;Node16 -->
<g id="edge32" class="edge">
<title>Node23&#45;&gt;Node16</title>
<path fill="none" stroke="midnightblue" d="M688.73,-279.14C630.15,-268.6 538.53,-252.11 485.43,-242.55"/>
<polygon fill="midnightblue" stroke="midnightblue" points="688.45,-282.65 698.91,-280.97 689.69,-275.76 688.45,-282.65"/>
</g>
<!-- Node23&#45;&gt;Node18 -->
<g id="edge31" class="edge">
<title>Node23&#45;&gt;Node18</title>
<path fill="none" stroke="midnightblue" d="M752.44,-271.4C763.42,-247.24 778.92,-202.82 764.5,-168 758.07,-152.48 743.41,-139.53 732.56,-131.56"/>
<polygon fill="midnightblue" stroke="midnightblue" points="749.28,-269.9 748.11,-280.43 755.59,-272.93 749.28,-269.9"/>
</g>
<!-- Node24 -->
<g id="node24" class="node">
<title>Node24</title>
<g id="a_node24"><a xlink:href="api_2spec_2crypto_8h.html" target="_top" xlink:title=" ">
<polygon fill="white" stroke="black" points="850.5,-224.5 850.5,-243.5 906.5,-243.5 906.5,-224.5 850.5,-224.5"/>
<text text-anchor="middle" x="878.5" y="-231.5" font-family="Helvetica,sans-Serif" font-size="10.00">crypto.h</text>
</a>
</g>
</g>
<!-- Node23&#45;&gt;Node24 -->
<g id="edge28" class="edge">
<title>Node23&#45;&gt;Node24</title>
<path fill="none" stroke="midnightblue" d="M774.41,-276.64C799.74,-266.5 834.93,-252.43 857.21,-243.52"/>
<polygon fill="midnightblue" stroke="midnightblue" points="772.88,-273.48 764.89,-280.44 775.48,-279.98 772.88,-273.48"/>
</g>
<!-- Node25 -->
<g id="node25" class="node">
<title>Node25</title>
<g id="a_node25"><a xlink:href="api_2crypto_8h.html" target="_top" xlink:title=" ">
<polygon fill="white" stroke="black" points="850.5,-168.5 850.5,-187.5 906.5,-187.5 906.5,-168.5 850.5,-168.5"/>
<text text-anchor="middle" x="878.5" y="-175.5" font-family="Helvetica,sans-Serif" font-size="10.00">crypto.h</text>
</a>
</g>
</g>
<!-- Node24&#45;&gt;Node25 -->
<g id="edge29" class="edge">
<title>Node24&#45;&gt;Node25</title>
<path fill="none" stroke="midnightblue" d="M878.5,-213.8C878.5,-204.91 878.5,-194.78 878.5,-187.75"/>
<polygon fill="midnightblue" stroke="midnightblue" points="875,-214.08 878.5,-224.08 882,-214.08 875,-214.08"/>
</g>
<!-- Node25&#45;&gt;Node5 -->
<g id="edge30" class="edge">
<title>Node25&#45;&gt;Node5</title>
<path fill="none" stroke="midnightblue" d="M865.55,-160.11C844.7,-134.06 801.2,-84.15 753.5,-56 717.18,-34.57 669.7,-22.45 638.67,-16.31"/>
<polygon fill="midnightblue" stroke="midnightblue" points="863.01,-162.55 871.94,-168.25 868.52,-158.23 863.01,-162.55"/>
</g>
<!-- Node27 -->
<g id="node27" class="node">
<title>Node27</title>
<g id="a_node27"><a xlink:href="api_2packet_8h.html" target="_top" xlink:title=" ">
<polygon fill="white" stroke="black" points="541.5,-224.5 541.5,-243.5 599.5,-243.5 599.5,-224.5 541.5,-224.5"/>
<text text-anchor="middle" x="570.5" y="-231.5" font-family="Helvetica,sans-Serif" font-size="10.00">packet.h</text>
</a>
</g>
</g>
<!-- Node26&#45;&gt;Node27 -->
<g id="edge35" class="edge">
<title>Node26&#45;&gt;Node27</title>
<path fill="none" stroke="midnightblue" d="M570.5,-326.35C570.5,-302.25 570.5,-261.31 570.5,-243.59"/>
<polygon fill="midnightblue" stroke="midnightblue" points="567,-326.37 570.5,-336.37 574,-326.37 567,-326.37"/>
</g>
<!-- Node27&#45;&gt;Node5 -->
<g id="edge36" class="edge">
<title>Node27&#45;&gt;Node5</title>
<path fill="none" stroke="midnightblue" d="M566.52,-214.1C560.41,-180.97 551.3,-110.73 570.5,-56 575.6,-41.46 587.59,-28.13 596.34,-19.81"/>
<polygon fill="midnightblue" stroke="midnightblue" points="563.14,-215.05 568.51,-224.19 570.01,-213.7 563.14,-215.05"/>
</g>
<!-- Node29 -->
<g id="node29" class="node">
<title>Node29</title>
<g id="a_node29"><a xlink:href="api_2packet__io__types_8h.html" target="_top" xlink:title=" ">
<polygon fill="white" stroke="black" points="341.5,-392.5 341.5,-411.5 445.5,-411.5 445.5,-392.5 341.5,-392.5"/>
<text text-anchor="middle" x="393.5" y="-399.5" font-family="Helvetica,sans-Serif" font-size="10.00">packet_io_types.h</text>
</a>
</g>
</g>
<!-- Node28&#45;&gt;Node29 -->
<g id="edge38" class="edge">
<title>Node28&#45;&gt;Node29</title>
<path fill="none" stroke="midnightblue" d="M275.17,-445.04C303.77,-434.88 344.11,-420.55 369.53,-411.52"/>
<polygon fill="midnightblue" stroke="midnightblue" points="273.84,-441.8 265.58,-448.44 276.18,-448.39 273.84,-441.8"/>
</g>
<!-- Node29&#45;&gt;Node14 -->
<g id="edge39" class="edge">
<title>Node29&#45;&gt;Node14</title>
<path fill="none" stroke="midnightblue" d="M369.95,-387.18C353.02,-377.24 330.72,-364.15 316.24,-355.65"/>
<polygon fill="midnightblue" stroke="midnightblue" points="368.32,-390.28 378.72,-392.32 371.87,-384.24 368.32,-390.28"/>
</g>
<!-- Node29&#45;&gt;Node16 -->
<g id="edge40" class="edge">
<title>Node29&#45;&gt;Node16</title>
<path fill="none" stroke="midnightblue" d="M423.32,-387.61C435.98,-380.23 449.42,-369.75 456.5,-356 476.13,-317.86 456.45,-264.12 447.46,-243.51"/>
<polygon fill="midnightblue" stroke="midnightblue" points="421.5,-384.61 414.35,-392.43 424.81,-390.78 421.5,-384.61"/>
</g>
<!-- Node29&#45;&gt;Node20 -->
<g id="edge42" class="edge">
<title>Node29&#45;&gt;Node20</title>
<path fill="none" stroke="midnightblue" d="M331.45,-390.81C303.95,-384.14 272.29,-373.32 247.5,-356 203.15,-325.02 170.84,-266.06 159.72,-243.8"/>
<polygon fill="midnightblue" stroke="midnightblue" points="330.84,-394.26 341.37,-393.08 332.41,-387.44 330.84,-394.26"/>
</g>
<!-- Node29&#45;&gt;Node26 -->
<g id="edge41" class="edge">
<title>Node29&#45;&gt;Node26</title>
<path fill="none" stroke="midnightblue" d="M431.4,-389.44C464.78,-379.26 512.6,-364.66 542.59,-355.52"/>
<polygon fill="midnightblue" stroke="midnightblue" points="430.09,-386.18 421.55,-392.44 432.13,-392.87 430.09,-386.18"/>
</g>
<!-- Node30 -->
<g id="node30" class="node">
<title>Node30</title>
<g id="a_node30"><a xlink:href="api_2spec_2traffic__mngr_8h.html" target="_top" xlink:title=" ">
<polygon fill="white" stroke="black" points="363.5,-336.5 363.5,-355.5 447.5,-355.5 447.5,-336.5 363.5,-336.5"/>
<text text-anchor="middle" x="405.5" y="-343.5" font-family="Helvetica,sans-Serif" font-size="10.00">traffic_mngr.h</text>
</a>
</g>
</g>
<!-- Node29&#45;&gt;Node30 -->
<g id="edge43" class="edge">
<title>Node29&#45;&gt;Node30</title>
<path fill="none" stroke="midnightblue" d="M397.7,-382.1C399.69,-373.14 401.98,-362.86 403.56,-355.75"/>
<polygon fill="midnightblue" stroke="midnightblue" points="394.23,-381.56 395.48,-392.08 401.07,-383.08 394.23,-381.56"/>
</g>
<!-- Node31 -->
<g id="node31" class="node">
<title>Node31</title>
<g id="a_node31"><a xlink:href="api_2traffic__mngr_8h.html" target="_top" xlink:title=" ">
<polygon fill="white" stroke="black" points="363.5,-280.5 363.5,-299.5 447.5,-299.5 447.5,-280.5 363.5,-280.5"/>
<text text-anchor="middle" x="405.5" y="-287.5" font-family="Helvetica,sans-Serif" font-size="10.00">traffic_mngr.h</text>
</a>
</g>
</g>
<!-- Node30&#45;&gt;Node31 -->
<g id="edge44" class="edge">
<title>Node30&#45;&gt;Node31</title>
<path fill="none" stroke="midnightblue" d="M405.5,-325.8C405.5,-316.91 405.5,-306.78 405.5,-299.75"/>
<polygon fill="midnightblue" stroke="midnightblue" points="402,-326.08 405.5,-336.08 409,-326.08 402,-326.08"/>
</g>
<!-- Node31&#45;&gt;Node5 -->
<g id="edge46" class="edge">
<title>Node31&#45;&gt;Node5</title>
<path fill="none" stroke="midnightblue" d="M396.97,-271.28C387.49,-249.92 373.5,-212.67 373.5,-179 373.5,-179 373.5,-179 373.5,-121 373.5,-33.32 510.08,-15.42 574.1,-11.85"/>
<polygon fill="midnightblue" stroke="midnightblue" points="393.82,-272.79 401.18,-280.41 400.17,-269.86 393.82,-272.79"/>
</g>
<!-- Node31&#45;&gt;Node16 -->
<g id="edge45" class="edge">
<title>Node31&#45;&gt;Node16</title>
<path fill="none" stroke="midnightblue" d="M417.56,-271.86C424.14,-262.5 432.01,-251.33 437.34,-243.75"/>
<polygon fill="midnightblue" stroke="midnightblue" points="414.67,-269.89 411.77,-280.08 420.39,-273.92 414.67,-269.89"/>
</g>
<!-- Node33 -->
<g id="node33" class="node">
<title>Node33</title>
<g id="a_node33"><a xlink:href="api_2pool_8h.html" target="_top" xlink:title=" ">
<polygon fill="white" stroke="black" points="464,-392.5 464,-411.5 511,-411.5 511,-392.5 464,-392.5"/>
<text text-anchor="middle" x="487.5" y="-399.5" font-family="Helvetica,sans-Serif" font-size="10.00">pool.h</text>
</a>
</g>
</g>
<!-- Node32&#45;&gt;Node33 -->
<g id="edge48" class="edge">
<title>Node32&#45;&gt;Node33</title>
<path fill="none" stroke="midnightblue" d="M454.23,-440.43C462.64,-430.97 472.85,-419.48 479.72,-411.75"/>
<polygon fill="midnightblue" stroke="midnightblue" points="451.45,-438.28 447.43,-448.08 456.69,-442.93 451.45,-438.28"/>
</g>
<!-- Node33&#45;&gt;Node5 -->
<g id="edge49" class="edge">
<title>Node33&#45;&gt;Node5</title>
<path fill="none" stroke="midnightblue" d="M494.53,-382.83C502.23,-361.27 513.5,-324.07 513.5,-291 513.5,-291 513.5,-291 513.5,-121 513.5,-73.49 564.73,-35.91 591.14,-19.69"/>
<polygon fill="midnightblue" stroke="midnightblue" points="491.21,-381.73 491.01,-392.32 497.77,-384.17 491.21,-381.73"/>
</g>
<!-- Node35 -->
<g id="node35" class="node">
<title>Node35</title>
<g id="a_node35"><a xlink:href="api_2timer_8h.html" target="_top" xlink:title=" ">
<polygon fill="white" stroke="black" points="694,-392.5 694,-411.5 745,-411.5 745,-392.5 694,-392.5"/>
<text text-anchor="middle" x="719.5" y="-399.5" font-family="Helvetica,sans-Serif" font-size="10.00">timer.h</text>
</a>
</g>
</g>
<!-- Node34&#45;&gt;Node35 -->
<g id="edge51" class="edge">
<title>Node34&#45;&gt;Node35</title>
<path fill="none" stroke="midnightblue" d="M642.08,-443.59C661.12,-433.61 686.56,-420.27 702.99,-411.65"/>
<polygon fill="midnightblue" stroke="midnightblue" points="640.28,-440.58 633.05,-448.32 643.53,-446.78 640.28,-440.58"/>
</g>
<!-- Node35&#45;&gt;Node5 -->
<g id="edge52" class="edge">
<title>Node35&#45;&gt;Node5</title>
<path fill="none" stroke="midnightblue" d="M713.69,-382.68C707.39,-362.51 697.19,-329.1 689.5,-300 676.44,-250.6 673.48,-238.12 663.5,-188 651.88,-129.67 665.38,-110.47 641.5,-56 635.3,-41.86 623.66,-28.24 615.51,-19.76"/>
<polygon fill="midnightblue" stroke="midnightblue" points="710.41,-383.92 716.75,-392.4 717.09,-381.81 710.41,-383.92"/>
</g>
<!-- Node37 -->
<g id="node37" class="node">
<title>Node37</title>
<g id="a_node37"><a xlink:href="packet__io__stats_8h.html" target="_top" xlink:title=" ">
<polygon fill="white" stroke="black" points="143,-504.5 143,-523.5 244,-523.5 244,-504.5 143,-504.5"/>
<text text-anchor="middle" x="193.5" y="-511.5" font-family="Helvetica,sans-Serif" font-size="10.00">packet_io_stats.h</text>
</a>
</g>
</g>
<!-- Node36&#45;&gt;Node37 -->
<g id="edge55" class="edge">
<title>Node36&#45;&gt;Node37</title>
<path fill="none" stroke="midnightblue" d="M193.5,-718.3C193.5,-672.64 193.5,-556.85 193.5,-523.88"/>
<polygon fill="midnightblue" stroke="midnightblue" points="190,-718.3 193.5,-728.3 197,-718.3 190,-718.3"/>
</g>
<!-- Node37&#45;&gt;Node20 -->
<g id="edge56" class="edge">
<title>Node37&#45;&gt;Node20</title>
<path fill="none" stroke="midnightblue" d="M182.56,-495.53C170.41,-474.44 152.5,-437.48 152.5,-403 152.5,-403 152.5,-403 152.5,-345 152.5,-307.17 154.29,-262.06 155.11,-243.56"/>
<polygon fill="midnightblue" stroke="midnightblue" points="179.66,-497.51 187.8,-504.29 185.66,-493.91 179.66,-497.51"/>
</g>
<!-- Node37&#45;&gt;Node28 -->
<g id="edge57" class="edge">
<title>Node37&#45;&gt;Node28</title>
<path fill="none" stroke="midnightblue" d="M208.23,-496.43C216.64,-486.97 226.85,-475.48 233.72,-467.75"/>
<polygon fill="midnightblue" stroke="midnightblue" points="205.45,-494.28 201.43,-504.08 210.69,-498.93 205.45,-494.28"/>
</g>
<!-- Node39 -->
<g id="node39" class="node">
<title>Node39</title>
<g id="a_node39"><a xlink:href="api_2packet__types_8h.html" target="_top" xlink:title=" ">
<polygon fill="white" stroke="black" points="625.5,-728.5 625.5,-747.5 715.5,-747.5 715.5,-728.5 625.5,-728.5"/>
<text text-anchor="middle" x="670.5" y="-735.5" font-family="Helvetica,sans-Serif" font-size="10.00">packet_types.h</text>
</a>
</g>
</g>
<!-- Node38&#45;&gt;Node39 -->
<g id="edge60" class="edge">
<title>Node38&#45;&gt;Node39</title>
<path fill="none" stroke="midnightblue" d="M664,-774.1C665.66,-765.14 667.56,-754.86 668.88,-747.75"/>
<polygon fill="midnightblue" stroke="midnightblue" points="660.53,-773.61 662.15,-784.08 667.41,-774.89 660.53,-773.61"/>
</g>
<!-- Node39&#45;&gt;Node3 -->
<g id="edge61" class="edge">
<title>Node39&#45;&gt;Node3</title>
<path fill="none" stroke="midnightblue" d="M615.14,-732.36C482.41,-721.23 149.92,-693.35 53.25,-685.24"/>
<polygon fill="midnightblue" stroke="midnightblue" points="615.21,-735.88 625.47,-733.22 615.8,-728.9 615.21,-735.88"/>
</g>
<!-- Node39&#45;&gt;Node6 -->
<g id="edge64" class="edge">
<title>Node39&#45;&gt;Node6</title>
<path fill="none" stroke="midnightblue" d="M615.05,-728.02C559.32,-718.98 470.94,-704.6 394.5,-692 390,-691.26 385.29,-690.48 380.6,-689.7"/>
<polygon fill="midnightblue" stroke="midnightblue" points="614.64,-731.5 625.07,-729.64 615.76,-724.59 614.64,-731.5"/>
</g>
<!-- Node39&#45;&gt;Node18 -->
<g id="edge68" class="edge">
<title>Node39&#45;&gt;Node18</title>
<path fill="none" stroke="midnightblue" d="M693.11,-722.66C703.95,-714.77 716.31,-704.13 724.5,-692 799.89,-580.26 816.5,-537.8 816.5,-403 816.5,-403 816.5,-403 816.5,-345 816.5,-264.81 824.71,-235.55 781.5,-168 770.96,-151.53 752.09,-139.14 737.92,-131.57"/>
<polygon fill="midnightblue" stroke="midnightblue" points="691.09,-719.8 684.86,-728.37 695.07,-725.56 691.09,-719.8"/>
</g>
<!-- Node39&#45;&gt;Node20 -->
<g id="edge73" class="edge">
<title>Node39&#45;&gt;Node20</title>
<path fill="none" stroke="midnightblue" d="M615.2,-728.76C573.33,-721.59 514.81,-709.57 465.5,-692 289.12,-629.16 114.5,-646.24 114.5,-459 114.5,-459 114.5,-459 114.5,-345 114.5,-305.05 138.53,-261.8 149.8,-243.71"/>
<polygon fill="midnightblue" stroke="midnightblue" points="614.76,-732.23 625.2,-730.43 615.92,-725.33 614.76,-732.23"/>
</g>
<!-- Node39&#45;&gt;Node22 -->
<g id="edge63" class="edge">
<title>Node39&#45;&gt;Node22</title>
<path fill="none" stroke="midnightblue" d="M684.77,-720.61C701.07,-700.16 725.5,-663.43 725.5,-627 725.5,-627 725.5,-627 725.5,-569 725.5,-530.88 736.16,-486.29 741.07,-467.76"/>
<polygon fill="midnightblue" stroke="midnightblue" points="682.06,-718.4 678.38,-728.33 687.45,-722.86 682.06,-718.4"/>
</g>
<!-- Node39&#45;&gt;Node24 -->
<g id="edge62" class="edge">
<title>Node39&#45;&gt;Node24</title>
<path fill="none" stroke="midnightblue" d="M726.01,-733.61C756.79,-728.75 793.23,-717.51 815.5,-692 884.56,-612.92 854.5,-564 854.5,-459 854.5,-459 854.5,-459 854.5,-345 854.5,-306.49 868.71,-262.11 875.26,-243.7"/>
<polygon fill="midnightblue" stroke="midnightblue" points="725.24,-730.19 715.82,-735.03 726.21,-737.12 725.24,-730.19"/>
</g>
<!-- Node39&#45;&gt;Node26 -->
<g id="edge69" class="edge">
<title>Node39&#45;&gt;Node26</title>
<path fill="none" stroke="midnightblue" d="M670.5,-718.25C670.5,-696.36 670.5,-659.05 670.5,-627 670.5,-627 670.5,-627 670.5,-513 670.5,-443.69 605.75,-378.44 580.45,-355.59"/>
<polygon fill="midnightblue" stroke="midnightblue" points="667,-718.44 670.5,-728.44 674,-718.44 667,-718.44"/>
</g>
<!-- Node39&#45;&gt;Node28 -->
<g id="edge74" class="edge">
<title>Node39&#45;&gt;Node28</title>
<path fill="none" stroke="midnightblue" d="M621.63,-725.95C565.6,-711.66 472.72,-682.88 404.5,-636 388.29,-624.86 300.02,-518.29 286.5,-504 274.35,-491.16 259.81,-476.79 250.61,-467.82"/>
<polygon fill="midnightblue" stroke="midnightblue" points="621.1,-729.43 631.65,-728.45 622.79,-722.64 621.1,-729.43"/>
</g>
<!-- Node40 -->
<g id="node40" class="node">
<title>Node40</title>
<g id="a_node40"><a xlink:href="api_2spec_2event_8h.html" target="_top" xlink:title=" ">
<polygon fill="white" stroke="black" points="868,-672.5 868,-691.5 921,-691.5 921,-672.5 868,-672.5"/>
<text text-anchor="middle" x="894.5" y="-679.5" font-family="Helvetica,sans-Serif" font-size="10.00">event.h</text>
</a>
</g>
</g>
<!-- Node39&#45;&gt;Node40 -->
<g id="edge65" class="edge">
<title>Node39&#45;&gt;Node40</title>
<path fill="none" stroke="midnightblue" d="M715.94,-726.05C761.62,-715.03 830.48,-698.43 867.94,-689.4"/>
<polygon fill="midnightblue" stroke="midnightblue" points="714.89,-722.7 705.99,-728.44 716.54,-729.5 714.89,-722.7"/>
</g>
<!-- Node42 -->
<g id="node42" class="node">
<title>Node42</title>
<g id="a_node42"><a xlink:href="api_2spec_2packet__flags_8h.html" target="_top" xlink:title=" ">
<polygon fill="white" stroke="black" points="939.5,-672.5 939.5,-691.5 1025.5,-691.5 1025.5,-672.5 939.5,-672.5"/>
<text text-anchor="middle" x="982.5" y="-679.5" font-family="Helvetica,sans-Serif" font-size="10.00">packet_flags.h</text>
</a>
</g>
</g>
<!-- Node39&#45;&gt;Node42 -->
<g id="edge70" class="edge">
<title>Node39&#45;&gt;Node42</title>
<path fill="none" stroke="midnightblue" d="M725.75,-727.44C786.81,-716.87 883.84,-700.08 939.49,-690.44"/>
<polygon fill="midnightblue" stroke="midnightblue" points="724.79,-724.05 715.53,-729.21 725.98,-730.95 724.79,-724.05"/>
</g>
<!-- Node41 -->
<g id="node41" class="node">
<title>Node41</title>
<g id="a_node41"><a xlink:href="api_2event_8h.html" target="_top" xlink:title=" ">
<polygon fill="white" stroke="black" points="891,-504.5 891,-523.5 944,-523.5 944,-504.5 891,-504.5"/>
<text text-anchor="middle" x="917.5" y="-511.5" font-family="Helvetica,sans-Serif" font-size="10.00">event.h</text>
</a>
</g>
</g>
<!-- Node40&#45;&gt;Node41 -->
<g id="edge66" class="edge">
<title>Node40&#45;&gt;Node41</title>
<path fill="none" stroke="midnightblue" d="M897.14,-661.93C902.13,-625.92 912.76,-549.23 916.31,-523.57"/>
<polygon fill="midnightblue" stroke="midnightblue" points="893.64,-661.69 895.74,-672.08 900.58,-662.65 893.64,-661.69"/>
</g>
<!-- Node41&#45;&gt;Node5 -->
<g id="edge67" class="edge">
<title>Node41&#45;&gt;Node5</title>
<path fill="none" stroke="midnightblue" d="M922.17,-494.36C927.2,-472.58 934.5,-435.42 934.5,-403 934.5,-403 934.5,-403 934.5,-121 934.5,-58.99 721.08,-25.44 638.55,-14.79"/>
<polygon fill="midnightblue" stroke="midnightblue" points="918.73,-493.69 919.79,-504.23 925.53,-495.33 918.73,-493.69"/>
</g>
<!-- Node43 -->
<g id="node43" class="node">
<title>Node43</title>
<g id="a_node43"><a xlink:href="api_2packet__flags_8h.html" target="_top" xlink:title=" ">
<polygon fill="white" stroke="black" points="936.5,-616.5 936.5,-635.5 1022.5,-635.5 1022.5,-616.5 936.5,-616.5"/>
<text text-anchor="middle" x="979.5" y="-623.5" font-family="Helvetica,sans-Serif" font-size="10.00">packet_flags.h</text>
</a>
</g>
</g>
<!-- Node42&#45;&gt;Node43 -->
<g id="edge71" class="edge">
<title>Node42&#45;&gt;Node43</title>
<path fill="none" stroke="midnightblue" d="M981.43,-661.8C980.94,-652.91 980.38,-642.78 979.99,-635.75"/>
<polygon fill="midnightblue" stroke="midnightblue" points="977.96,-662.29 982,-672.08 984.94,-661.9 977.96,-662.29"/>
</g>
<!-- Node43&#45;&gt;Node5 -->
<g id="edge72" class="edge">
<title>Node43&#45;&gt;Node5</title>
<path fill="none" stroke="midnightblue" d="M978.68,-606.26C977.79,-584.37 976.5,-547.06 976.5,-515 976.5,-515 976.5,-515 976.5,-121 976.5,-50.8 728.71,-21.83 638.69,-13.62"/>
<polygon fill="midnightblue" stroke="midnightblue" points="975.19,-606.6 979.11,-616.44 982.18,-606.31 975.19,-606.6"/>
</g>
<!-- Node45 -->
<g id="node45" class="node">
<title>Node45</title>
<g id="a_node45"><a xlink:href="api_2queue_8h.html" target="_top" xlink:title=" ">
<polygon fill="white" stroke="black" points="1005.5,-112.5 1005.5,-131.5 1061.5,-131.5 1061.5,-112.5 1005.5,-112.5"/>
<text text-anchor="middle" x="1033.5" y="-119.5" font-family="Helvetica,sans-Serif" font-size="10.00">queue.h</text>
</a>
</g>
</g>
<!-- Node44&#45;&gt;Node45 -->
<g id="edge76" class="edge">
<title>Node44&#45;&gt;Node45</title>
<path fill="none" stroke="midnightblue" d="M917.92,-786.35C969.17,-775.02 1053.5,-746.69 1053.5,-683 1053.5,-683 1053.5,-683 1053.5,-233 1053.5,-194.76 1041.66,-150.23 1036.2,-131.74"/>
<polygon fill="midnightblue" stroke="midnightblue" points="916.92,-782.98 907.84,-788.45 918.35,-789.83 916.92,-782.98"/>
</g>
<!-- Node45&#45;&gt;Node5 -->
<g id="edge77" class="edge">
<title>Node45&#45;&gt;Node5</title>
<path fill="none" stroke="midnightblue" d="M1026.75,-103.09C1020.01,-87.88 1008.1,-66.83 990.5,-56 931.76,-19.86 719.88,-12.75 638.58,-11.34"/>
<polygon fill="midnightblue" stroke="midnightblue" points="1023.57,-104.57 1030.6,-112.5 1030.05,-101.92 1023.57,-104.57"/>
</g>
<!-- Node47 -->
<g id="node47" class="node">
<title>Node47</title>
<g id="a_node47"><a xlink:href="api_2schedule_8h.html" target="_top" xlink:title=" ">
<polygon fill="white" stroke="black" points="1054,-56.5 1054,-75.5 1123,-75.5 1123,-56.5 1054,-56.5"/>
<text text-anchor="middle" x="1088.5" y="-63.5" font-family="Helvetica,sans-Serif" font-size="10.00">schedule.h</text>
</a>
</g>
</g>
<!-- Node46&#45;&gt;Node47 -->
<g id="edge79" class="edge">
<title>Node46&#45;&gt;Node47</title>
<path fill="none" stroke="midnightblue" d="M1041.66,-777.41C1061.51,-757.58 1091.5,-721.3 1091.5,-683 1091.5,-683 1091.5,-683 1091.5,-177 1091.5,-139.17 1089.71,-94.06 1088.89,-75.56"/>
<polygon fill="midnightblue" stroke="midnightblue" points="1039.17,-774.95 1034.39,-784.4 1044.02,-780 1039.17,-774.95"/>
</g>
<!-- Node47&#45;&gt;Node5 -->
<g id="edge80" class="edge">
<title>Node47&#45;&gt;Node5</title>
<path fill="none" stroke="midnightblue" d="M1043.71,-57.19C1040.94,-56.77 1038.18,-56.37 1035.5,-56 887.67,-35.72 710.08,-19.75 638.6,-13.66"/>
<polygon fill="midnightblue" stroke="midnightblue" points="1043.34,-60.67 1053.77,-58.78 1044.44,-53.76 1043.34,-60.67"/>
</g>
</g>
</svg>
