<?xml version="1.0" encoding="UTF-8" standalone="no"?>
<!DOCTYPE svg PUBLIC "-//W3C//DTD SVG 1.1//EN"
 "http://www.w3.org/Graphics/SVG/1.1/DTD/svg11.dtd">
<!-- Generated by graphviz version 2.43.0 (0)
 -->
<!-- Title: thrmask.h Pages: 1 -->
<svg width="993pt" height="1092pt"
 viewBox="0.00 0.00 992.50 1092.00" xmlns="http://www.w3.org/2000/svg" xmlns:xlink="http://www.w3.org/1999/xlink">
<g id="graph0" class="graph" transform="scale(1 1) rotate(0) translate(4 1088)">
<title>thrmask.h</title>
<polygon fill="white" stroke="transparent" points="-4,4 -4,-1088 988.5,-1088 988.5,4 -4,4"/>
<!-- Node1 -->
<g id="node1" class="node">
<title>Node1</title>
<g id="a_node1"><a xlink:title=" ">
<polygon fill="#bfbfbf" stroke="black" points="536,-1064.5 536,-1083.5 602,-1083.5 602,-1064.5 536,-1064.5"/>
<text text-anchor="middle" x="569" y="-1071.5" font-family="Helvetica,sans-Serif" font-size="10.00">thrmask.h</text>
</a>
</g>
</g>
<!-- Node2 -->
<g id="node2" class="node">
<title>Node2</title>
<g id="a_node2"><a xlink:href="arch_2arm32-linux_2odp_2api_2abi_2thrmask_8h_source.html" target="_top" xlink:title=" ">
<polygon fill="white" stroke="black" points="326,-1008.5 326,-1027.5 392,-1027.5 392,-1008.5 326,-1008.5"/>
<text text-anchor="middle" x="359" y="-1015.5" font-family="Helvetica,sans-Serif" font-size="10.00">thrmask.h</text>
</a>
</g>
</g>
<!-- Node1&#45;&gt;Node2 -->
<g id="edge1" class="edge">
<title>Node1&#45;&gt;Node2</title>
<path fill="none" stroke="midnightblue" d="M525.81,-1061.89C486.15,-1051.7 428.23,-1036.8 392.12,-1027.52"/>
<polygon fill="midnightblue" stroke="midnightblue" points="525.17,-1065.34 535.72,-1064.44 526.91,-1058.56 525.17,-1065.34"/>
</g>
<!-- Node3 -->
<g id="node3" class="node">
<title>Node3</title>
<g id="a_node3"><a xlink:href="arch_2arm64-linux_2odp_2api_2abi_2thrmask_8h_source.html" target="_top" xlink:title=" ">
<polygon fill="white" stroke="black" points="410,-1008.5 410,-1027.5 476,-1027.5 476,-1008.5 410,-1008.5"/>
<text text-anchor="middle" x="443" y="-1015.5" font-family="Helvetica,sans-Serif" font-size="10.00">thrmask.h</text>
</a>
</g>
</g>
<!-- Node1&#45;&gt;Node3 -->
<g id="edge2" class="edge">
<title>Node1&#45;&gt;Node3</title>
<path fill="none" stroke="midnightblue" d="M539.84,-1060.5C516.22,-1050.38 483.57,-1036.39 462.87,-1027.52"/>
<polygon fill="midnightblue" stroke="midnightblue" points="538.46,-1063.72 549.03,-1064.44 541.22,-1057.29 538.46,-1063.72"/>
</g>
<!-- Node4 -->
<g id="node4" class="node">
<title>Node4</title>
<g id="a_node4"><a xlink:href="arch_2default-linux_2odp_2api_2abi_2thrmask_8h_source.html" target="_top" xlink:title=" ">
<polygon fill="white" stroke="black" points="494,-1008.5 494,-1027.5 560,-1027.5 560,-1008.5 494,-1008.5"/>
<text text-anchor="middle" x="527" y="-1015.5" font-family="Helvetica,sans-Serif" font-size="10.00">thrmask.h</text>
</a>
</g>
</g>
<!-- Node1&#45;&gt;Node4 -->
<g id="edge3" class="edge">
<title>Node1&#45;&gt;Node4</title>
<path fill="none" stroke="midnightblue" d="M555.89,-1056.14C548.57,-1046.74 539.76,-1035.4 533.81,-1027.75"/>
<polygon fill="midnightblue" stroke="midnightblue" points="553.16,-1058.34 562.06,-1064.08 558.69,-1054.04 553.16,-1058.34"/>
</g>
<!-- Node5 -->
<g id="node5" class="node">
<title>Node5</title>
<g id="a_node5"><a xlink:href="arch_2power64-linux_2odp_2api_2abi_2thrmask_8h_source.html" target="_top" xlink:title=" ">
<polygon fill="white" stroke="black" points="578,-1008.5 578,-1027.5 644,-1027.5 644,-1008.5 578,-1008.5"/>
<text text-anchor="middle" x="611" y="-1015.5" font-family="Helvetica,sans-Serif" font-size="10.00">thrmask.h</text>
</a>
</g>
</g>
<!-- Node1&#45;&gt;Node5 -->
<g id="edge4" class="edge">
<title>Node1&#45;&gt;Node5</title>
<path fill="none" stroke="midnightblue" d="M582.11,-1056.14C589.43,-1046.74 598.24,-1035.4 604.19,-1027.75"/>
<polygon fill="midnightblue" stroke="midnightblue" points="579.31,-1054.04 575.94,-1064.08 584.84,-1058.34 579.31,-1054.04"/>
</g>
<!-- Node6 -->
<g id="node6" class="node">
<title>Node6</title>
<g id="a_node6"><a xlink:href="arch_2x86__32-linux_2odp_2api_2abi_2thrmask_8h_source.html" target="_top" xlink:title=" ">
<polygon fill="white" stroke="black" points="662,-1008.5 662,-1027.5 728,-1027.5 728,-1008.5 662,-1008.5"/>
<text text-anchor="middle" x="695" y="-1015.5" font-family="Helvetica,sans-Serif" font-size="10.00">thrmask.h</text>
</a>
</g>
</g>
<!-- Node1&#45;&gt;Node6 -->
<g id="edge5" class="edge">
<title>Node1&#45;&gt;Node6</title>
<path fill="none" stroke="midnightblue" d="M598.16,-1060.5C621.78,-1050.38 654.43,-1036.39 675.13,-1027.52"/>
<polygon fill="midnightblue" stroke="midnightblue" points="596.78,-1057.29 588.97,-1064.44 599.54,-1063.72 596.78,-1057.29"/>
</g>
<!-- Node7 -->
<g id="node7" class="node">
<title>Node7</title>
<g id="a_node7"><a xlink:href="arch_2x86__64-linux_2odp_2api_2abi_2thrmask_8h_source.html" target="_top" xlink:title=" ">
<polygon fill="white" stroke="black" points="746,-1008.5 746,-1027.5 812,-1027.5 812,-1008.5 746,-1008.5"/>
<text text-anchor="middle" x="779" y="-1015.5" font-family="Helvetica,sans-Serif" font-size="10.00">thrmask.h</text>
</a>
</g>
</g>
<!-- Node1&#45;&gt;Node7 -->
<g id="edge6" class="edge">
<title>Node1&#45;&gt;Node7</title>
<path fill="none" stroke="midnightblue" d="M612.19,-1061.89C651.85,-1051.7 709.77,-1036.8 745.88,-1027.52"/>
<polygon fill="midnightblue" stroke="midnightblue" points="611.09,-1058.56 602.28,-1064.44 612.83,-1065.34 611.09,-1058.56"/>
</g>
<!-- Node8 -->
<g id="node8" class="node">
<title>Node8</title>
<g id="a_node8"><a xlink:href="api_2thrmask_8h.html" target="_top" xlink:title=" ">
<polygon fill="white" stroke="black" points="746,-952.5 746,-971.5 812,-971.5 812,-952.5 746,-952.5"/>
<text text-anchor="middle" x="779" y="-959.5" font-family="Helvetica,sans-Serif" font-size="10.00">thrmask.h</text>
</a>
</g>
</g>
<!-- Node7&#45;&gt;Node8 -->
<g id="edge7" class="edge">
<title>Node7&#45;&gt;Node8</title>
<path fill="none" stroke="midnightblue" d="M779,-997.8C779,-988.91 779,-978.78 779,-971.75"/>
<polygon fill="midnightblue" stroke="midnightblue" points="775.5,-998.08 779,-1008.08 782.5,-998.08 775.5,-998.08"/>
</g>
<!-- Node9 -->
<g id="node9" class="node">
<title>Node9</title>
<g id="a_node9"><a xlink:href="api_2spec_2schedule_8h.html" target="_top" xlink:title=" ">
<polygon fill="white" stroke="black" points="915.5,-672.5 915.5,-691.5 984.5,-691.5 984.5,-672.5 915.5,-672.5"/>
<text text-anchor="middle" x="950" y="-679.5" font-family="Helvetica,sans-Serif" font-size="10.00">schedule.h</text>
</a>
</g>
</g>
<!-- Node8&#45;&gt;Node9 -->
<g id="edge8" class="edge">
<title>Node8&#45;&gt;Node9</title>
<path fill="none" stroke="midnightblue" d="M822.03,-951.53C870.03,-938.14 941,-908.61 941,-851 941,-851 941,-851 941,-793 941,-755.06 946.38,-710.01 948.82,-691.54"/>
<polygon fill="midnightblue" stroke="midnightblue" points="820.94,-948.2 812.17,-954.15 822.74,-954.97 820.94,-948.2"/>
</g>
<!-- Node11 -->
<g id="node11" class="node">
<title>Node11</title>
<g id="a_node11"><a xlink:href="odp__api_8h.html" target="_top" xlink:title=" ">
<polygon fill="white" stroke="black" points="652,-0.5 652,-19.5 716,-19.5 716,-0.5 652,-0.5"/>
<text text-anchor="middle" x="684" y="-7.5" font-family="Helvetica,sans-Serif" font-size="10.00">odp_api.h</text>
</a>
</g>
</g>
<!-- Node8&#45;&gt;Node11 -->
<g id="edge82" class="edge">
<title>Node8&#45;&gt;Node11</title>
<path fill="none" stroke="midnightblue" d="M735.38,-959.16C576.5,-951.87 38,-921.96 38,-851 38,-851 38,-851 38,-121 38,-58 521.62,-21.67 651.96,-13.02"/>
<polygon fill="midnightblue" stroke="midnightblue" points="735.57,-962.67 745.72,-959.62 735.89,-955.68 735.57,-962.67"/>
</g>
<!-- Node12 -->
<g id="node12" class="node">
<title>Node12</title>
<g id="a_node12"><a xlink:href="api_2spec_2schedule__types_8h.html" target="_top" xlink:title=" ">
<polygon fill="white" stroke="black" points="728.5,-896.5 728.5,-915.5 829.5,-915.5 829.5,-896.5 728.5,-896.5"/>
<text text-anchor="middle" x="779" y="-903.5" font-family="Helvetica,sans-Serif" font-size="10.00">schedule_types.h</text>
</a>
</g>
</g>
<!-- Node8&#45;&gt;Node12 -->
<g id="edge11" class="edge">
<title>Node8&#45;&gt;Node12</title>
<path fill="none" stroke="midnightblue" d="M779,-941.8C779,-932.91 779,-922.78 779,-915.75"/>
<polygon fill="midnightblue" stroke="midnightblue" points="775.5,-942.08 779,-952.08 782.5,-942.08 775.5,-942.08"/>
</g>
<!-- Node10 -->
<g id="node10" class="node">
<title>Node10</title>
<g id="a_node10"><a xlink:href="api_2schedule_8h.html" target="_top" xlink:title=" ">
<polygon fill="white" stroke="black" points="915.5,-504.5 915.5,-523.5 984.5,-523.5 984.5,-504.5 915.5,-504.5"/>
<text text-anchor="middle" x="950" y="-511.5" font-family="Helvetica,sans-Serif" font-size="10.00">schedule.h</text>
</a>
</g>
</g>
<!-- Node9&#45;&gt;Node10 -->
<g id="edge9" class="edge">
<title>Node9&#45;&gt;Node10</title>
<path fill="none" stroke="midnightblue" d="M950,-661.93C950,-625.92 950,-549.23 950,-523.57"/>
<polygon fill="midnightblue" stroke="midnightblue" points="946.5,-662.08 950,-672.08 953.5,-662.08 946.5,-662.08"/>
</g>
<!-- Node10&#45;&gt;Node11 -->
<g id="edge10" class="edge">
<title>Node10&#45;&gt;Node11</title>
<path fill="none" stroke="midnightblue" d="M946.71,-494.32C943.16,-472.49 938,-435.24 938,-403 938,-403 938,-403 938,-121 938,-25.37 784.52,-11.95 716.17,-10.71"/>
<polygon fill="midnightblue" stroke="midnightblue" points="943.31,-495.2 948.43,-504.48 950.21,-494.03 943.31,-495.2"/>
</g>
<!-- Node13 -->
<g id="node13" class="node">
<title>Node13</title>
<g id="a_node13"><a xlink:href="api_2schedule__types_8h.html" target="_top" xlink:title=" ">
<polygon fill="white" stroke="black" points="728.5,-840.5 728.5,-859.5 829.5,-859.5 829.5,-840.5 728.5,-840.5"/>
<text text-anchor="middle" x="779" y="-847.5" font-family="Helvetica,sans-Serif" font-size="10.00">schedule_types.h</text>
</a>
</g>
</g>
<!-- Node12&#45;&gt;Node13 -->
<g id="edge12" class="edge">
<title>Node12&#45;&gt;Node13</title>
<path fill="none" stroke="midnightblue" d="M779,-885.8C779,-876.91 779,-866.78 779,-859.75"/>
<polygon fill="midnightblue" stroke="midnightblue" points="775.5,-886.08 779,-896.08 782.5,-886.08 775.5,-886.08"/>
</g>
<!-- Node13&#45;&gt;Node9 -->
<g id="edge81" class="edge">
<title>Node13&#45;&gt;Node9</title>
<path fill="none" stroke="midnightblue" d="M795.39,-833.09C830.9,-798.62 913.94,-718.01 941.17,-691.57"/>
<polygon fill="midnightblue" stroke="midnightblue" points="792.93,-830.6 788.19,-840.08 797.81,-835.62 792.93,-830.6"/>
</g>
<!-- Node14 -->
<g id="node14" class="node">
<title>Node14</title>
<g id="a_node14"><a xlink:href="api_2spec_2queue__types_8h.html" target="_top" xlink:title=" ">
<polygon fill="white" stroke="black" points="720,-784.5 720,-803.5 808,-803.5 808,-784.5 720,-784.5"/>
<text text-anchor="middle" x="764" y="-791.5" font-family="Helvetica,sans-Serif" font-size="10.00">queue_types.h</text>
</a>
</g>
</g>
<!-- Node13&#45;&gt;Node14 -->
<g id="edge13" class="edge">
<title>Node13&#45;&gt;Node14</title>
<path fill="none" stroke="midnightblue" d="M773.83,-830.4C771.32,-821.36 768.43,-810.94 766.43,-803.75"/>
<polygon fill="midnightblue" stroke="midnightblue" points="770.47,-831.38 776.52,-840.08 777.22,-829.51 770.47,-831.38"/>
</g>
<!-- Node15 -->
<g id="node15" class="node">
<title>Node15</title>
<g id="a_node15"><a xlink:href="api_2queue__types_8h.html" target="_top" xlink:title=" ">
<polygon fill="white" stroke="black" points="687,-728.5 687,-747.5 775,-747.5 775,-728.5 687,-728.5"/>
<text text-anchor="middle" x="731" y="-735.5" font-family="Helvetica,sans-Serif" font-size="10.00">queue_types.h</text>
</a>
</g>
</g>
<!-- Node14&#45;&gt;Node15 -->
<g id="edge14" class="edge">
<title>Node14&#45;&gt;Node15</title>
<path fill="none" stroke="midnightblue" d="M753.17,-775.27C747.53,-766.05 740.88,-755.17 736.35,-747.75"/>
<polygon fill="midnightblue" stroke="midnightblue" points="750.35,-777.38 758.55,-784.08 756.32,-773.73 750.35,-777.38"/>
</g>
<!-- Node15&#45;&gt;Node9 -->
<g id="edge79" class="edge">
<title>Node15&#45;&gt;Node9</title>
<path fill="none" stroke="midnightblue" d="M775.51,-726.02C816.88,-715.82 877.64,-700.84 915.46,-691.52"/>
<polygon fill="midnightblue" stroke="midnightblue" points="774.57,-722.65 765.7,-728.44 776.25,-729.45 774.57,-722.65"/>
</g>
<!-- Node16 -->
<g id="node16" class="node">
<title>Node16</title>
<g id="a_node16"><a xlink:href="api_2spec_2comp_8h.html" target="_top" xlink:title=" ">
<polygon fill="white" stroke="black" points="764.5,-560.5 764.5,-579.5 817.5,-579.5 817.5,-560.5 764.5,-560.5"/>
<text text-anchor="middle" x="791" y="-567.5" font-family="Helvetica,sans-Serif" font-size="10.00">comp.h</text>
</a>
</g>
</g>
<!-- Node15&#45;&gt;Node16 -->
<g id="edge15" class="edge">
<title>Node15&#45;&gt;Node16</title>
<path fill="none" stroke="midnightblue" d="M737.72,-718.39C750.67,-682.59 778.59,-605.34 787.9,-579.57"/>
<polygon fill="midnightblue" stroke="midnightblue" points="734.33,-717.48 734.23,-728.08 740.92,-719.86 734.33,-717.48"/>
</g>
<!-- Node18 -->
<g id="node18" class="node">
<title>Node18</title>
<g id="a_node18"><a xlink:href="api_2spec_2dma__types_8h.html" target="_top" xlink:title=" ">
<polygon fill="white" stroke="black" points="666,-560.5 666,-579.5 746,-579.5 746,-560.5 666,-560.5"/>
<text text-anchor="middle" x="706" y="-567.5" font-family="Helvetica,sans-Serif" font-size="10.00">dma_types.h</text>
</a>
</g>
</g>
<!-- Node15&#45;&gt;Node18 -->
<g id="edge18" class="edge">
<title>Node15&#45;&gt;Node18</title>
<path fill="none" stroke="midnightblue" d="M728.13,-717.93C722.7,-681.92 711.16,-605.23 707.29,-579.57"/>
<polygon fill="midnightblue" stroke="midnightblue" points="724.71,-718.71 729.66,-728.08 731.63,-717.67 724.71,-718.71"/>
</g>
<!-- Node32 -->
<g id="node29" class="node">
<title>Node32</title>
<g id="a_node29"><a xlink:href="api_2spec_2packet__io_8h.html" target="_top" xlink:title=" ">
<polygon fill="white" stroke="black" points="217,-112.5 217,-131.5 289,-131.5 289,-112.5 217,-112.5"/>
<text text-anchor="middle" x="253" y="-119.5" font-family="Helvetica,sans-Serif" font-size="10.00">packet_io.h</text>
</a>
</g>
</g>
<!-- Node15&#45;&gt;Node32 -->
<g id="edge58" class="edge">
<title>Node15&#45;&gt;Node32</title>
<path fill="none" stroke="midnightblue" d="M676.56,-737.22C540.41,-736.31 196,-724.38 196,-627 196,-627 196,-627 196,-233 196,-191.06 229.07,-149.19 244.83,-131.62"/>
<polygon fill="midnightblue" stroke="midnightblue" points="676.75,-740.72 686.76,-737.27 676.78,-733.72 676.75,-740.72"/>
</g>
<!-- Node40 -->
<g id="node37" class="node">
<title>Node40</title>
<g id="a_node37"><a xlink:href="api_2spec_2packet__io__types_8h.html" target="_top" xlink:title=" ">
<polygon fill="white" stroke="black" points="279,-336.5 279,-355.5 383,-355.5 383,-336.5 279,-336.5"/>
<text text-anchor="middle" x="331" y="-343.5" font-family="Helvetica,sans-Serif" font-size="10.00">packet_io_types.h</text>
</a>
</g>
</g>
<!-- Node15&#45;&gt;Node40 -->
<g id="edge63" class="edge">
<title>Node15&#45;&gt;Node40</title>
<path fill="none" stroke="midnightblue" d="M676.64,-732.97C590.26,-723.28 424.08,-690.48 352,-580 303.4,-505.51 322.58,-387.95 329.14,-355.53"/>
<polygon fill="midnightblue" stroke="midnightblue" points="676.45,-736.47 686.76,-734.04 677.19,-729.51 676.45,-736.47"/>
</g>
<!-- Node46 -->
<g id="node41" class="node">
<title>Node46</title>
<g id="a_node41"><a xlink:href="api_2spec_2timer_8h.html" target="_top" xlink:title=" ">
<polygon fill="white" stroke="black" points="807.5,-336.5 807.5,-355.5 858.5,-355.5 858.5,-336.5 807.5,-336.5"/>
<text text-anchor="middle" x="833" y="-343.5" font-family="Helvetica,sans-Serif" font-size="10.00">timer.h</text>
</a>
</g>
</g>
<!-- Node15&#45;&gt;Node46 -->
<g id="edge80" class="edge">
<title>Node15&#45;&gt;Node46</title>
<path fill="none" stroke="midnightblue" d="M745.32,-720.59C767.85,-693.53 810.6,-636.88 826,-580 848.95,-495.23 838.02,-386.76 834.16,-355.67"/>
<polygon fill="midnightblue" stroke="midnightblue" points="742.58,-718.41 738.78,-728.3 747.92,-722.94 742.58,-718.41"/>
</g>
<!-- Node48 -->
<g id="node43" class="node">
<title>Node48</title>
<g id="a_node43"><a xlink:href="spec_2packet__io__stats_8h.html" target="_top" xlink:title=" ">
<polygon fill="white" stroke="black" points="66.5,-616.5 66.5,-635.5 167.5,-635.5 167.5,-616.5 66.5,-616.5"/>
<text text-anchor="middle" x="117" y="-623.5" font-family="Helvetica,sans-Serif" font-size="10.00">packet_io_stats.h</text>
</a>
</g>
</g>
<!-- Node15&#45;&gt;Node48 -->
<g id="edge59" class="edge">
<title>Node15&#45;&gt;Node48</title>
<path fill="none" stroke="midnightblue" d="M676.88,-737.25C556.22,-737.06 268.96,-732.26 182,-692 154.77,-679.39 132.48,-650.25 122.56,-635.65"/>
<polygon fill="midnightblue" stroke="midnightblue" points="677,-740.75 687,-737.26 677,-733.75 677,-740.75"/>
</g>
<!-- Node50 -->
<g id="node45" class="node">
<title>Node50</title>
<g id="a_node45"><a xlink:href="api_2spec_2packet__types_8h.html" target="_top" xlink:title=" ">
<polygon fill="white" stroke="black" points="556,-672.5 556,-691.5 646,-691.5 646,-672.5 556,-672.5"/>
<text text-anchor="middle" x="601" y="-679.5" font-family="Helvetica,sans-Serif" font-size="10.00">packet_types.h</text>
</a>
</g>
</g>
<!-- Node15&#45;&gt;Node50 -->
<g id="edge64" class="edge">
<title>Node15&#45;&gt;Node50</title>
<path fill="none" stroke="midnightblue" d="M700.91,-724.5C676.54,-714.38 642.86,-700.39 621.5,-691.52"/>
<polygon fill="midnightblue" stroke="midnightblue" points="699.82,-727.84 710.4,-728.44 702.51,-721.38 699.82,-727.84"/>
</g>
<!-- Node56 -->
<g id="node49" class="node">
<title>Node56</title>
<g id="a_node49"><a xlink:href="api_2spec_2queue_8h.html" target="_top" xlink:title=" ">
<polygon fill="white" stroke="black" points="841,-672.5 841,-691.5 897,-691.5 897,-672.5 841,-672.5"/>
<text text-anchor="middle" x="869" y="-679.5" font-family="Helvetica,sans-Serif" font-size="10.00">queue.h</text>
</a>
</g>
</g>
<!-- Node15&#45;&gt;Node56 -->
<g id="edge76" class="edge">
<title>Node15&#45;&gt;Node56</title>
<path fill="none" stroke="midnightblue" d="M762.25,-724.77C788.17,-714.63 824.36,-700.47 847.24,-691.52"/>
<polygon fill="midnightblue" stroke="midnightblue" points="760.9,-721.54 752.87,-728.44 763.45,-728.06 760.9,-721.54"/>
</g>
<!-- Node17 -->
<g id="node17" class="node">
<title>Node17</title>
<g id="a_node17"><a xlink:href="api_2comp_8h.html" target="_top" xlink:title=" ">
<polygon fill="white" stroke="black" points="766.5,-448.5 766.5,-467.5 819.5,-467.5 819.5,-448.5 766.5,-448.5"/>
<text text-anchor="middle" x="793" y="-455.5" font-family="Helvetica,sans-Serif" font-size="10.00">comp.h</text>
</a>
</g>
</g>
<!-- Node16&#45;&gt;Node17 -->
<g id="edge16" class="edge">
<title>Node16&#45;&gt;Node17</title>
<path fill="none" stroke="midnightblue" d="M791.34,-550.35C791.78,-526.25 792.52,-485.31 792.84,-467.59"/>
<polygon fill="midnightblue" stroke="midnightblue" points="787.84,-550.31 791.16,-560.37 794.84,-550.43 787.84,-550.31"/>
</g>
<!-- Node17&#45;&gt;Node11 -->
<g id="edge17" class="edge">
<title>Node17&#45;&gt;Node11</title>
<path fill="none" stroke="midnightblue" d="M789.22,-438.64C785.07,-416.88 779,-379.46 779,-347 779,-347 779,-347 779,-121 779,-73.06 726.67,-35.69 699.69,-19.6"/>
<polygon fill="midnightblue" stroke="midnightblue" points="785.79,-439.36 791.17,-448.49 792.66,-438 785.79,-439.36"/>
</g>
<!-- Node19 -->
<g id="node19" class="node">
<title>Node19</title>
<g id="a_node19"><a xlink:href="api_2dma__types_8h.html" target="_top" xlink:title=" ">
<polygon fill="white" stroke="black" points="666,-504.5 666,-523.5 746,-523.5 746,-504.5 666,-504.5"/>
<text text-anchor="middle" x="706" y="-511.5" font-family="Helvetica,sans-Serif" font-size="10.00">dma_types.h</text>
</a>
</g>
</g>
<!-- Node18&#45;&gt;Node19 -->
<g id="edge19" class="edge">
<title>Node18&#45;&gt;Node19</title>
<path fill="none" stroke="midnightblue" d="M706,-549.8C706,-540.91 706,-530.78 706,-523.75"/>
<polygon fill="midnightblue" stroke="midnightblue" points="702.5,-550.08 706,-560.08 709.5,-550.08 702.5,-550.08"/>
</g>
<!-- Node20 -->
<g id="node20" class="node">
<title>Node20</title>
<g id="a_node20"><a xlink:href="api_2spec_2dma_8h.html" target="_top" xlink:title=" ">
<polygon fill="white" stroke="black" points="703.5,-336.5 703.5,-355.5 750.5,-355.5 750.5,-336.5 703.5,-336.5"/>
<text text-anchor="middle" x="727" y="-343.5" font-family="Helvetica,sans-Serif" font-size="10.00">dma.h</text>
</a>
</g>
</g>
<!-- Node19&#45;&gt;Node20 -->
<g id="edge20" class="edge">
<title>Node19&#45;&gt;Node20</title>
<path fill="none" stroke="midnightblue" d="M711.73,-494.64C714.03,-486.55 716.5,-476.88 718,-468 725.06,-426.25 726.58,-375.47 726.91,-355.57"/>
<polygon fill="midnightblue" stroke="midnightblue" points="708.3,-493.89 708.78,-504.48 715,-495.9 708.3,-493.89"/>
</g>
<!-- Node22 -->
<g id="node22" class="node">
<title>Node22</title>
<g id="a_node22"><a xlink:href="api_2spec_2pool__types_8h.html" target="_top" xlink:title=" ">
<polygon fill="white" stroke="black" points="630.5,-448.5 630.5,-467.5 709.5,-467.5 709.5,-448.5 630.5,-448.5"/>
<text text-anchor="middle" x="670" y="-455.5" font-family="Helvetica,sans-Serif" font-size="10.00">pool_types.h</text>
</a>
</g>
</g>
<!-- Node19&#45;&gt;Node22 -->
<g id="edge23" class="edge">
<title>Node19&#45;&gt;Node22</title>
<path fill="none" stroke="midnightblue" d="M694.38,-495.57C688.18,-486.27 680.83,-475.25 675.83,-467.75"/>
<polygon fill="midnightblue" stroke="midnightblue" points="691.6,-497.7 700.06,-504.08 697.42,-493.82 691.6,-497.7"/>
</g>
<!-- Node21 -->
<g id="node21" class="node">
<title>Node21</title>
<g id="a_node21"><a xlink:href="api_2dma_8h.html" target="_top" xlink:title=" ">
<polygon fill="white" stroke="black" points="703.5,-280.5 703.5,-299.5 750.5,-299.5 750.5,-280.5 703.5,-280.5"/>
<text text-anchor="middle" x="727" y="-287.5" font-family="Helvetica,sans-Serif" font-size="10.00">dma.h</text>
</a>
</g>
</g>
<!-- Node20&#45;&gt;Node21 -->
<g id="edge21" class="edge">
<title>Node20&#45;&gt;Node21</title>
<path fill="none" stroke="midnightblue" d="M727,-325.8C727,-316.91 727,-306.78 727,-299.75"/>
<polygon fill="midnightblue" stroke="midnightblue" points="723.5,-326.08 727,-336.08 730.5,-326.08 723.5,-326.08"/>
</g>
<!-- Node21&#45;&gt;Node11 -->
<g id="edge22" class="edge">
<title>Node21&#45;&gt;Node11</title>
<path fill="none" stroke="midnightblue" d="M730.78,-270.64C734.93,-248.88 741,-211.46 741,-179 741,-179 741,-179 741,-121 741,-79.06 707.93,-37.19 692.17,-19.62"/>
<polygon fill="midnightblue" stroke="midnightblue" points="727.34,-270 728.83,-280.49 734.21,-271.36 727.34,-270"/>
</g>
<!-- Node23 -->
<g id="node23" class="node">
<title>Node23</title>
<g id="a_node23"><a xlink:href="api_2pool__types_8h.html" target="_top" xlink:title=" ">
<polygon fill="white" stroke="red" points="592.5,-392.5 592.5,-411.5 671.5,-411.5 671.5,-392.5 592.5,-392.5"/>
<text text-anchor="middle" x="632" y="-399.5" font-family="Helvetica,sans-Serif" font-size="10.00">pool_types.h</text>
</a>
</g>
</g>
<!-- Node22&#45;&gt;Node23 -->
<g id="edge24" class="edge">
<title>Node22&#45;&gt;Node23</title>
<path fill="none" stroke="midnightblue" d="M657.94,-439.86C651.36,-430.5 643.49,-419.33 638.16,-411.75"/>
<polygon fill="midnightblue" stroke="midnightblue" points="655.11,-441.92 663.73,-448.08 660.83,-437.89 655.11,-441.92"/>
</g>
<!-- Node23&#45;&gt;Node20 -->
<g id="edge41" class="edge">
<title>Node23&#45;&gt;Node20</title>
<path fill="none" stroke="midnightblue" d="M656.32,-387.18C673.8,-377.24 696.83,-364.15 711.77,-355.65"/>
<polygon fill="midnightblue" stroke="midnightblue" points="654.23,-384.34 647.26,-392.32 657.69,-390.43 654.23,-384.34"/>
</g>
<!-- Node26 -->
<g id="node24" class="node">
<title>Node26</title>
<g id="a_node24"><a xlink:href="api_2spec_2classification_8h.html" target="_top" xlink:title=" ">
<polygon fill="white" stroke="black" points="440.5,-224.5 440.5,-243.5 529.5,-243.5 529.5,-224.5 440.5,-224.5"/>
<text text-anchor="middle" x="485" y="-231.5" font-family="Helvetica,sans-Serif" font-size="10.00">classification.h</text>
</a>
</g>
</g>
<!-- Node23&#45;&gt;Node26 -->
<g id="edge25" class="edge">
<title>Node23&#45;&gt;Node26</title>
<path fill="none" stroke="midnightblue" d="M617.13,-384.21C586.19,-349.26 515.81,-269.79 492.59,-243.57"/>
<polygon fill="midnightblue" stroke="midnightblue" points="614.85,-386.91 624.1,-392.08 620.09,-382.27 614.85,-386.91"/>
</g>
<!-- Node34 -->
<g id="node31" class="node">
<title>Node34</title>
<g id="a_node31"><a xlink:href="api_2spec_2crypto__types_8h.html" target="_top" xlink:title=" ">
<polygon fill="white" stroke="black" points="401.5,-336.5 401.5,-355.5 490.5,-355.5 490.5,-336.5 401.5,-336.5"/>
<text text-anchor="middle" x="446" y="-343.5" font-family="Helvetica,sans-Serif" font-size="10.00">crypto_types.h</text>
</a>
</g>
</g>
<!-- Node23&#45;&gt;Node34 -->
<g id="edge34" class="edge">
<title>Node23&#45;&gt;Node34</title>
<path fill="none" stroke="midnightblue" d="M592.62,-389.57C557.53,-379.38 506.98,-364.7 475.33,-355.52"/>
<polygon fill="midnightblue" stroke="midnightblue" points="591.95,-393.02 602.53,-392.44 593.9,-386.29 591.95,-393.02"/>
</g>
<!-- Node38 -->
<g id="node35" class="node">
<title>Node38</title>
<g id="a_node35"><a xlink:href="api_2spec_2packet_8h.html" target="_top" xlink:title=" ">
<polygon fill="white" stroke="black" points="587,-224.5 587,-243.5 645,-243.5 645,-224.5 587,-224.5"/>
<text text-anchor="middle" x="616" y="-231.5" font-family="Helvetica,sans-Serif" font-size="10.00">packet.h</text>
</a>
</g>
</g>
<!-- Node23&#45;&gt;Node38 -->
<g id="edge42" class="edge">
<title>Node23&#45;&gt;Node38</title>
<path fill="none" stroke="midnightblue" d="M630.16,-381.93C626.69,-345.92 619.3,-269.23 616.83,-243.57"/>
<polygon fill="midnightblue" stroke="midnightblue" points="626.7,-382.46 631.14,-392.08 633.66,-381.79 626.7,-382.46"/>
</g>
<!-- Node23&#45;&gt;Node40 -->
<g id="edge45" class="edge">
<title>Node23&#45;&gt;Node40</title>
<path fill="none" stroke="midnightblue" d="M582.2,-392.07C525.64,-381.92 434.01,-365.48 378.44,-355.51"/>
<polygon fill="midnightblue" stroke="midnightblue" points="581.88,-395.56 592.34,-393.88 583.12,-388.67 581.88,-395.56"/>
</g>
<!-- Node23&#45;&gt;Node46 -->
<g id="edge55" class="edge">
<title>Node23&#45;&gt;Node46</title>
<path fill="none" stroke="midnightblue" d="M673.64,-389.81C713.9,-379 773.62,-362.95 807.36,-353.89"/>
<polygon fill="midnightblue" stroke="midnightblue" points="672.6,-386.47 663.85,-392.44 674.41,-393.23 672.6,-386.47"/>
</g>
<!-- Node27 -->
<g id="node25" class="node">
<title>Node27</title>
<g id="a_node25"><a xlink:href="api_2classification_8h.html" target="_top" xlink:title=" ">
<polygon fill="white" stroke="black" points="440.5,-168.5 440.5,-187.5 529.5,-187.5 529.5,-168.5 440.5,-168.5"/>
<text text-anchor="middle" x="485" y="-175.5" font-family="Helvetica,sans-Serif" font-size="10.00">classification.h</text>
</a>
</g>
</g>
<!-- Node26&#45;&gt;Node27 -->
<g id="edge26" class="edge">
<title>Node26&#45;&gt;Node27</title>
<path fill="none" stroke="midnightblue" d="M485,-213.8C485,-204.91 485,-194.78 485,-187.75"/>
<polygon fill="midnightblue" stroke="midnightblue" points="481.5,-214.08 485,-224.08 488.5,-214.08 481.5,-214.08"/>
</g>
<!-- Node27&#45;&gt;Node11 -->
<g id="edge33" class="edge">
<title>Node27&#45;&gt;Node11</title>
<path fill="none" stroke="midnightblue" d="M494.99,-159.54C510.48,-133.82 542.54,-85.6 581,-56 603.11,-38.98 632.66,-26.93 654.44,-19.61"/>
<polygon fill="midnightblue" stroke="midnightblue" points="491.78,-158.1 489.73,-168.5 497.81,-161.65 491.78,-158.1"/>
</g>
<!-- Node28 -->
<g id="node26" class="node">
<title>Node28</title>
<g id="a_node26"><a xlink:href="api_2spec_2ipsec__types_8h.html" target="_top" xlink:title=" ">
<polygon fill="white" stroke="black" points="370.5,-112.5 370.5,-131.5 453.5,-131.5 453.5,-112.5 370.5,-112.5"/>
<text text-anchor="middle" x="412" y="-119.5" font-family="Helvetica,sans-Serif" font-size="10.00">ipsec_types.h</text>
</a>
</g>
</g>
<!-- Node27&#45;&gt;Node28 -->
<g id="edge27" class="edge">
<title>Node27&#45;&gt;Node28</title>
<path fill="none" stroke="midnightblue" d="M464.86,-162.1C451.72,-152.38 435.02,-140.03 423.94,-131.83"/>
<polygon fill="midnightblue" stroke="midnightblue" points="463.15,-165.19 473.27,-168.32 467.31,-159.56 463.15,-165.19"/>
</g>
<!-- Node27&#45;&gt;Node32 -->
<g id="edge30" class="edge">
<title>Node27&#45;&gt;Node32</title>
<path fill="none" stroke="midnightblue" d="M438.37,-166.15C394.39,-155.91 329.4,-140.78 289.21,-131.43"/>
<polygon fill="midnightblue" stroke="midnightblue" points="437.71,-169.59 448.24,-168.44 439.29,-162.77 437.71,-169.59"/>
</g>
<!-- Node29 -->
<g id="node27" class="node">
<title>Node29</title>
<g id="a_node27"><a xlink:href="api_2ipsec__types_8h.html" target="_top" xlink:title=" ">
<polygon fill="white" stroke="black" points="275.5,-56.5 275.5,-75.5 358.5,-75.5 358.5,-56.5 275.5,-56.5"/>
<text text-anchor="middle" x="317" y="-63.5" font-family="Helvetica,sans-Serif" font-size="10.00">ipsec_types.h</text>
</a>
</g>
</g>
<!-- Node28&#45;&gt;Node29 -->
<g id="edge28" class="edge">
<title>Node28&#45;&gt;Node29</title>
<path fill="none" stroke="midnightblue" d="M387.68,-107.18C370.2,-97.24 347.17,-84.15 332.23,-75.65"/>
<polygon fill="midnightblue" stroke="midnightblue" points="386.31,-110.43 396.74,-112.32 389.77,-104.34 386.31,-110.43"/>
</g>
<!-- Node30 -->
<g id="node28" class="node">
<title>Node30</title>
<g id="a_node28"><a xlink:href="api_2spec_2ipsec_8h.html" target="_top" xlink:title=" ">
<polygon fill="white" stroke="red" points="291.5,-0.5 291.5,-19.5 342.5,-19.5 342.5,-0.5 291.5,-0.5"/>
<text text-anchor="middle" x="317" y="-7.5" font-family="Helvetica,sans-Serif" font-size="10.00">ipsec.h</text>
</a>
</g>
</g>
<!-- Node29&#45;&gt;Node30 -->
<g id="edge29" class="edge">
<title>Node29&#45;&gt;Node30</title>
<path fill="none" stroke="midnightblue" d="M317,-45.8C317,-36.91 317,-26.78 317,-19.75"/>
<polygon fill="midnightblue" stroke="midnightblue" points="313.5,-46.08 317,-56.08 320.5,-46.08 313.5,-46.08"/>
</g>
<!-- Node33 -->
<g id="node30" class="node">
<title>Node33</title>
<g id="a_node30"><a xlink:href="api_2packet__io_8h.html" target="_top" xlink:title=" ">
<polygon fill="white" stroke="black" points="377,-56.5 377,-75.5 449,-75.5 449,-56.5 377,-56.5"/>
<text text-anchor="middle" x="413" y="-63.5" font-family="Helvetica,sans-Serif" font-size="10.00">packet_io.h</text>
</a>
</g>
</g>
<!-- Node32&#45;&gt;Node33 -->
<g id="edge31" class="edge">
<title>Node32&#45;&gt;Node33</title>
<path fill="none" stroke="midnightblue" d="M288.05,-109.17C318.17,-99 360.9,-84.59 387.77,-75.52"/>
<polygon fill="midnightblue" stroke="midnightblue" points="286.71,-105.93 278.35,-112.44 288.95,-112.56 286.71,-105.93"/>
</g>
<!-- Node33&#45;&gt;Node11 -->
<g id="edge32" class="edge">
<title>Node33&#45;&gt;Node11</title>
<path fill="none" stroke="midnightblue" d="M459.41,-55.75C514.23,-44.83 604,-26.94 651.75,-17.43"/>
<polygon fill="midnightblue" stroke="midnightblue" points="458.39,-52.39 449.27,-57.77 459.76,-59.25 458.39,-52.39"/>
</g>
<!-- Node35 -->
<g id="node32" class="node">
<title>Node35</title>
<g id="a_node32"><a xlink:href="api_2crypto__types_8h.html" target="_top" xlink:title=" ">
<polygon fill="white" stroke="black" points="547.5,-168.5 547.5,-187.5 636.5,-187.5 636.5,-168.5 547.5,-168.5"/>
<text text-anchor="middle" x="592" y="-175.5" font-family="Helvetica,sans-Serif" font-size="10.00">crypto_types.h</text>
</a>
</g>
</g>
<!-- Node34&#45;&gt;Node35 -->
<g id="edge35" class="edge">
<title>Node34&#45;&gt;Node35</title>
<path fill="none" stroke="midnightblue" d="M461.01,-328.98C479.41,-309.23 511.44,-274.53 538,-244 555.33,-224.08 574.99,-200.04 585.13,-187.52"/>
<polygon fill="midnightblue" stroke="midnightblue" points="458.28,-326.78 454.01,-336.47 463.39,-331.55 458.28,-326.78"/>
</g>
<!-- Node35&#45;&gt;Node28 -->
<g id="edge40" class="edge">
<title>Node35&#45;&gt;Node28</title>
<path fill="none" stroke="midnightblue" d="M553.89,-165.57C519.94,-155.38 471.01,-140.7 440.39,-131.52"/>
<polygon fill="midnightblue" stroke="midnightblue" points="552.89,-168.92 563.48,-168.44 554.91,-162.22 552.89,-168.92"/>
</g>
<!-- Node35&#45;&gt;Node30 -->
<g id="edge39" class="edge">
<title>Node35&#45;&gt;Node30</title>
<path fill="none" stroke="midnightblue" d="M578.1,-160.57C555.44,-134.77 508.05,-84.77 458,-56 420.69,-34.55 371.84,-21.91 342.52,-15.73"/>
<polygon fill="midnightblue" stroke="midnightblue" points="575.61,-163.04 584.8,-168.32 580.91,-158.47 575.61,-163.04"/>
</g>
<!-- Node36 -->
<g id="node33" class="node">
<title>Node36</title>
<g id="a_node33"><a xlink:href="api_2spec_2crypto_8h.html" target="_top" xlink:title=" ">
<polygon fill="white" stroke="black" points="581,-112.5 581,-131.5 637,-131.5 637,-112.5 581,-112.5"/>
<text text-anchor="middle" x="609" y="-119.5" font-family="Helvetica,sans-Serif" font-size="10.00">crypto.h</text>
</a>
</g>
</g>
<!-- Node35&#45;&gt;Node36 -->
<g id="edge36" class="edge">
<title>Node35&#45;&gt;Node36</title>
<path fill="none" stroke="midnightblue" d="M597.86,-158.4C600.7,-149.36 603.98,-138.94 606.25,-131.75"/>
<polygon fill="midnightblue" stroke="midnightblue" points="594.47,-157.49 594.81,-168.08 601.15,-159.6 594.47,-157.49"/>
</g>
<!-- Node37 -->
<g id="node34" class="node">
<title>Node37</title>
<g id="a_node34"><a xlink:href="api_2crypto_8h.html" target="_top" xlink:title=" ">
<polygon fill="white" stroke="black" points="590,-56.5 590,-75.5 646,-75.5 646,-56.5 590,-56.5"/>
<text text-anchor="middle" x="618" y="-63.5" font-family="Helvetica,sans-Serif" font-size="10.00">crypto.h</text>
</a>
</g>
</g>
<!-- Node36&#45;&gt;Node37 -->
<g id="edge37" class="edge">
<title>Node36&#45;&gt;Node37</title>
<path fill="none" stroke="midnightblue" d="M612.15,-102.1C613.64,-93.14 615.36,-82.86 616.54,-75.75"/>
<polygon fill="midnightblue" stroke="midnightblue" points="608.68,-101.64 610.49,-112.08 615.58,-102.79 608.68,-101.64"/>
</g>
<!-- Node37&#45;&gt;Node11 -->
<g id="edge38" class="edge">
<title>Node37&#45;&gt;Node11</title>
<path fill="none" stroke="midnightblue" d="M636.55,-49.82C648.38,-40.15 663.29,-27.95 673.2,-19.83"/>
<polygon fill="midnightblue" stroke="midnightblue" points="634.13,-47.28 628.6,-56.32 638.56,-52.7 634.13,-47.28"/>
</g>
<!-- Node39 -->
<g id="node36" class="node">
<title>Node39</title>
<g id="a_node36"><a xlink:href="api_2packet_8h.html" target="_top" xlink:title=" ">
<polygon fill="white" stroke="black" points="655,-112.5 655,-131.5 713,-131.5 713,-112.5 655,-112.5"/>
<text text-anchor="middle" x="684" y="-119.5" font-family="Helvetica,sans-Serif" font-size="10.00">packet.h</text>
</a>
</g>
</g>
<!-- Node38&#45;&gt;Node39 -->
<g id="edge43" class="edge">
<title>Node38&#45;&gt;Node39</title>
<path fill="none" stroke="midnightblue" d="M627.19,-215.92C632.63,-207.55 639.22,-197.29 645,-188 657.37,-168.11 671.39,-144.45 678.79,-131.89"/>
<polygon fill="midnightblue" stroke="midnightblue" points="624.17,-214.14 621.64,-224.43 630.04,-217.96 624.17,-214.14"/>
</g>
<!-- Node39&#45;&gt;Node11 -->
<g id="edge44" class="edge">
<title>Node39&#45;&gt;Node11</title>
<path fill="none" stroke="midnightblue" d="M684,-102.35C684,-78.25 684,-37.31 684,-19.59"/>
<polygon fill="midnightblue" stroke="midnightblue" points="680.5,-102.37 684,-112.37 687.5,-102.37 680.5,-102.37"/>
</g>
<!-- Node41 -->
<g id="node38" class="node">
<title>Node41</title>
<g id="a_node38"><a xlink:href="api_2packet__io__types_8h.html" target="_top" xlink:title=" ">
<polygon fill="white" stroke="black" points="325,-280.5 325,-299.5 429,-299.5 429,-280.5 325,-280.5"/>
<text text-anchor="middle" x="377" y="-287.5" font-family="Helvetica,sans-Serif" font-size="10.00">packet_io_types.h</text>
</a>
</g>
</g>
<!-- Node40&#45;&gt;Node41 -->
<g id="edge46" class="edge">
<title>Node40&#45;&gt;Node41</title>
<path fill="none" stroke="midnightblue" d="M345.11,-328.43C353.18,-318.97 362.96,-307.48 369.55,-299.75"/>
<polygon fill="midnightblue" stroke="midnightblue" points="342.42,-326.2 338.6,-336.08 347.75,-330.74 342.42,-326.2"/>
</g>
<!-- Node41&#45;&gt;Node26 -->
<g id="edge47" class="edge">
<title>Node41&#45;&gt;Node26</title>
<path fill="none" stroke="midnightblue" d="M403.55,-275.73C423.55,-265.73 450.39,-252.31 467.69,-243.65"/>
<polygon fill="midnightblue" stroke="midnightblue" points="401.73,-272.72 394.35,-280.32 404.86,-278.98 401.73,-272.72"/>
</g>
<!-- Node41&#45;&gt;Node28 -->
<g id="edge48" class="edge">
<title>Node41&#45;&gt;Node28</title>
<path fill="none" stroke="midnightblue" d="M384.38,-270.68C387.41,-262.61 390.73,-252.94 393,-244 403.52,-202.57 409.23,-151.61 411.2,-131.62"/>
<polygon fill="midnightblue" stroke="midnightblue" points="381.05,-269.6 380.68,-280.19 387.57,-272.14 381.05,-269.6"/>
</g>
<!-- Node41&#45;&gt;Node32 -->
<g id="edge50" class="edge">
<title>Node41&#45;&gt;Node32</title>
<path fill="none" stroke="midnightblue" d="M338.58,-276.52C321.9,-269.37 303.38,-258.8 291,-244 262.18,-209.54 255.16,-153.17 253.5,-131.68"/>
<polygon fill="midnightblue" stroke="midnightblue" points="337.54,-279.88 348.13,-280.35 340.15,-273.38 337.54,-279.88"/>
</g>
<!-- Node41&#45;&gt;Node38 -->
<g id="edge49" class="edge">
<title>Node41&#45;&gt;Node38</title>
<path fill="none" stroke="midnightblue" d="M424.81,-278.2C473.26,-267.25 546.65,-250.67 586.95,-241.56"/>
<polygon fill="midnightblue" stroke="midnightblue" points="423.85,-274.83 414.87,-280.44 425.4,-281.65 423.85,-274.83"/>
</g>
<!-- Node42 -->
<g id="node39" class="node">
<title>Node42</title>
<g id="a_node39"><a xlink:href="api_2spec_2traffic__mngr_8h.html" target="_top" xlink:title=" ">
<polygon fill="white" stroke="black" points="300,-224.5 300,-243.5 384,-243.5 384,-224.5 300,-224.5"/>
<text text-anchor="middle" x="342" y="-231.5" font-family="Helvetica,sans-Serif" font-size="10.00">traffic_mngr.h</text>
</a>
</g>
</g>
<!-- Node41&#45;&gt;Node42 -->
<g id="edge51" class="edge">
<title>Node41&#45;&gt;Node42</title>
<path fill="none" stroke="midnightblue" d="M365.7,-271.57C359.68,-262.27 352.53,-251.25 347.67,-243.75"/>
<polygon fill="midnightblue" stroke="midnightblue" points="362.84,-273.6 371.22,-280.08 368.72,-269.79 362.84,-273.6"/>
</g>
<!-- Node43 -->
<g id="node40" class="node">
<title>Node43</title>
<g id="a_node40"><a xlink:href="api_2traffic__mngr_8h.html" target="_top" xlink:title=" ">
<polygon fill="white" stroke="black" points="300,-168.5 300,-187.5 384,-187.5 384,-168.5 300,-168.5"/>
<text text-anchor="middle" x="342" y="-175.5" font-family="Helvetica,sans-Serif" font-size="10.00">traffic_mngr.h</text>
</a>
</g>
</g>
<!-- Node42&#45;&gt;Node43 -->
<g id="edge52" class="edge">
<title>Node42&#45;&gt;Node43</title>
<path fill="none" stroke="midnightblue" d="M342,-213.8C342,-204.91 342,-194.78 342,-187.75"/>
<polygon fill="midnightblue" stroke="midnightblue" points="338.5,-214.08 342,-224.08 345.5,-214.08 338.5,-214.08"/>
</g>
<!-- Node43&#45;&gt;Node11 -->
<g id="edge54" class="edge">
<title>Node43&#45;&gt;Node11</title>
<path fill="none" stroke="midnightblue" d="M342.88,-157.85C344.54,-143.45 349.04,-124.18 361,-112 371.64,-101.16 575.77,-41.95 653.92,-19.57"/>
<polygon fill="midnightblue" stroke="midnightblue" points="339.36,-157.89 342.07,-168.13 346.34,-158.44 339.36,-157.89"/>
</g>
<!-- Node43&#45;&gt;Node28 -->
<g id="edge53" class="edge">
<title>Node43&#45;&gt;Node28</title>
<path fill="none" stroke="midnightblue" d="M361.31,-162.1C373.91,-152.38 389.93,-140.03 400.55,-131.83"/>
<polygon fill="midnightblue" stroke="midnightblue" points="359.03,-159.44 353.25,-168.32 363.3,-164.99 359.03,-159.44"/>
</g>
<!-- Node47 -->
<g id="node42" class="node">
<title>Node47</title>
<g id="a_node42"><a xlink:href="api_2timer_8h.html" target="_top" xlink:title=" ">
<polygon fill="white" stroke="black" points="807.5,-280.5 807.5,-299.5 858.5,-299.5 858.5,-280.5 807.5,-280.5"/>
<text text-anchor="middle" x="833" y="-287.5" font-family="Helvetica,sans-Serif" font-size="10.00">timer.h</text>
</a>
</g>
</g>
<!-- Node46&#45;&gt;Node47 -->
<g id="edge56" class="edge">
<title>Node46&#45;&gt;Node47</title>
<path fill="none" stroke="midnightblue" d="M833,-325.8C833,-316.91 833,-306.78 833,-299.75"/>
<polygon fill="midnightblue" stroke="midnightblue" points="829.5,-326.08 833,-336.08 836.5,-326.08 829.5,-326.08"/>
</g>
<!-- Node47&#45;&gt;Node11 -->
<g id="edge57" class="edge">
<title>Node47&#45;&gt;Node11</title>
<path fill="none" stroke="midnightblue" d="M830.81,-270.28C828.44,-248.42 825,-211.14 825,-179 825,-179 825,-179 825,-121 825,-88.8 816.51,-78.01 793,-56 771.63,-35.99 740.12,-24.3 716.47,-17.87"/>
<polygon fill="midnightblue" stroke="midnightblue" points="827.36,-270.91 831.95,-280.46 834.31,-270.13 827.36,-270.91"/>
</g>
<!-- Node49 -->
<g id="node44" class="node">
<title>Node49</title>
<g id="a_node44"><a xlink:href="packet__io__stats_8h.html" target="_top" xlink:title=" ">
<polygon fill="white" stroke="black" points="66.5,-392.5 66.5,-411.5 167.5,-411.5 167.5,-392.5 66.5,-392.5"/>
<text text-anchor="middle" x="117" y="-399.5" font-family="Helvetica,sans-Serif" font-size="10.00">packet_io_stats.h</text>
</a>
</g>
</g>
<!-- Node48&#45;&gt;Node49 -->
<g id="edge60" class="edge">
<title>Node48&#45;&gt;Node49</title>
<path fill="none" stroke="midnightblue" d="M117,-606.3C117,-560.64 117,-444.85 117,-411.88"/>
<polygon fill="midnightblue" stroke="midnightblue" points="113.5,-606.3 117,-616.3 120.5,-606.3 113.5,-606.3"/>
</g>
<!-- Node49&#45;&gt;Node32 -->
<g id="edge61" class="edge">
<title>Node49&#45;&gt;Node32</title>
<path fill="none" stroke="midnightblue" d="M122.77,-382.43C128.98,-360.72 138,-323.62 138,-291 138,-291 138,-291 138,-233 138,-181.47 199.03,-146.64 232.17,-131.53"/>
<polygon fill="midnightblue" stroke="midnightblue" points="119.33,-381.68 119.83,-392.27 126.04,-383.68 119.33,-381.68"/>
</g>
<!-- Node49&#45;&gt;Node40 -->
<g id="edge62" class="edge">
<title>Node49&#45;&gt;Node40</title>
<path fill="none" stroke="midnightblue" d="M160.76,-389.96C201.17,-379.76 260.37,-364.82 297.25,-355.52"/>
<polygon fill="midnightblue" stroke="midnightblue" points="159.75,-386.6 150.91,-392.44 161.46,-393.39 159.75,-386.6"/>
</g>
<!-- Node51 -->
<g id="node46" class="node">
<title>Node51</title>
<g id="a_node46"><a xlink:href="api_2packet__types_8h.html" target="_top" xlink:title=" ">
<polygon fill="white" stroke="black" points="517,-616.5 517,-635.5 607,-635.5 607,-616.5 517,-616.5"/>
<text text-anchor="middle" x="562" y="-623.5" font-family="Helvetica,sans-Serif" font-size="10.00">packet_types.h</text>
</a>
</g>
</g>
<!-- Node50&#45;&gt;Node51 -->
<g id="edge65" class="edge">
<title>Node50&#45;&gt;Node51</title>
<path fill="none" stroke="midnightblue" d="M588.62,-663.86C581.86,-654.5 573.79,-643.33 568.32,-635.75"/>
<polygon fill="midnightblue" stroke="midnightblue" points="585.87,-666.03 594.56,-672.08 591.54,-661.93 585.87,-666.03"/>
</g>
<!-- Node51&#45;&gt;Node16 -->
<g id="edge66" class="edge">
<title>Node51&#45;&gt;Node16</title>
<path fill="none" stroke="midnightblue" d="M609.19,-614.22C648.3,-605.23 705.31,-592 755,-580 758.01,-579.27 761.15,-578.5 764.28,-577.73"/>
<polygon fill="midnightblue" stroke="midnightblue" points="608.36,-610.82 599.4,-616.46 609.93,-617.64 608.36,-610.82"/>
</g>
<!-- Node51&#45;&gt;Node18 -->
<g id="edge69" class="edge">
<title>Node51&#45;&gt;Node18</title>
<path fill="none" stroke="midnightblue" d="M594.25,-612.91C621.32,-602.75 659.32,-588.51 683.29,-579.52"/>
<polygon fill="midnightblue" stroke="midnightblue" points="592.95,-609.66 584.82,-616.44 595.41,-616.21 592.95,-609.66"/>
</g>
<!-- Node51&#45;&gt;Node30 -->
<g id="edge71" class="edge">
<title>Node51&#45;&gt;Node30</title>
<path fill="none" stroke="midnightblue" d="M506.75,-623.03C365.1,-614.75 0,-571.61 0,-347 0,-347 0,-347 0,-121 0,-90.2 0.15,-75.48 24,-56 64.76,-22.72 227.37,-13.89 291.15,-11.69"/>
<polygon fill="midnightblue" stroke="midnightblue" points="506.78,-626.54 516.96,-623.59 507.17,-619.55 506.78,-626.54"/>
</g>
<!-- Node51&#45;&gt;Node32 -->
<g id="edge74" class="edge">
<title>Node51&#45;&gt;Node32</title>
<path fill="none" stroke="midnightblue" d="M506.6,-624.35C461.47,-621.34 397.92,-611.21 352,-580 273.81,-526.85 234,-497.55 234,-403 234,-403 234,-403 234,-233 234,-194.82 245.25,-150.26 250.44,-131.75"/>
<polygon fill="midnightblue" stroke="midnightblue" points="506.61,-627.85 516.79,-624.93 507.01,-620.87 506.61,-627.85"/>
</g>
<!-- Node51&#45;&gt;Node34 -->
<g id="edge68" class="edge">
<title>Node51&#45;&gt;Node34</title>
<path fill="none" stroke="midnightblue" d="M507,-619.87C455.59,-613.8 384.24,-601.67 367,-580 308.77,-506.8 407.98,-388.32 437.88,-355.61"/>
<polygon fill="midnightblue" stroke="midnightblue" points="506.66,-623.35 516.99,-621 507.45,-616.4 506.66,-623.35"/>
</g>
<!-- Node51&#45;&gt;Node36 -->
<g id="edge67" class="edge">
<title>Node51&#45;&gt;Node36</title>
<path fill="none" stroke="midnightblue" d="M569.52,-607.15C572.88,-598.94 576.8,-589.03 580,-580 600.53,-522.1 583.24,-496.45 621,-448 639.88,-423.77 664.96,-438.79 680,-412 706.81,-364.23 667.19,-218.08 645,-168 638.68,-153.73 626.69,-140.14 618.29,-131.7"/>
<polygon fill="midnightblue" stroke="midnightblue" points="566.26,-605.87 565.66,-616.45 572.72,-608.56 566.26,-605.87"/>
</g>
<!-- Node51&#45;&gt;Node38 -->
<g id="edge72" class="edge">
<title>Node51&#45;&gt;Node38</title>
<path fill="none" stroke="midnightblue" d="M562.93,-606.49C565.08,-566.94 571.13,-471.33 583,-392 591.53,-334.98 607.84,-267.52 613.77,-243.79"/>
<polygon fill="midnightblue" stroke="midnightblue" points="559.43,-606.32 562.41,-616.49 566.42,-606.69 559.43,-606.32"/>
</g>
<!-- Node51&#45;&gt;Node40 -->
<g id="edge75" class="edge">
<title>Node51&#45;&gt;Node40</title>
<path fill="none" stroke="midnightblue" d="M559.12,-606.42C556.42,-592.85 551.5,-574.39 543,-560 486.99,-465.22 379.29,-381.98 343.16,-355.65"/>
<polygon fill="midnightblue" stroke="midnightblue" points="555.7,-607.22 560.88,-616.46 562.6,-606.01 555.7,-607.22"/>
</g>
<!-- Node52 -->
<g id="node47" class="node">
<title>Node52</title>
<g id="a_node47"><a xlink:href="api_2spec_2event_8h.html" target="_top" xlink:title=" ">
<polygon fill="white" stroke="red" points="376.5,-560.5 376.5,-579.5 429.5,-579.5 429.5,-560.5 376.5,-560.5"/>
<text text-anchor="middle" x="403" y="-567.5" font-family="Helvetica,sans-Serif" font-size="10.00">event.h</text>
</a>
</g>
</g>
<!-- Node51&#45;&gt;Node52 -->
<g id="edge70" class="edge">
<title>Node51&#45;&gt;Node52</title>
<path fill="none" stroke="midnightblue" d="M527.17,-613.17C497.23,-603 454.78,-588.59 428.08,-579.52"/>
<polygon fill="midnightblue" stroke="midnightblue" points="526.21,-616.54 536.81,-616.44 528.46,-609.91 526.21,-616.54"/>
</g>
<!-- Node54 -->
<g id="node48" class="node">
<title>Node54</title>
<g id="a_node48"><a xlink:href="api_2spec_2packet__flags_8h.html" target="_top" xlink:title=" ">
<polygon fill="white" stroke="red" points="448,-560.5 448,-579.5 534,-579.5 534,-560.5 448,-560.5"/>
<text text-anchor="middle" x="491" y="-567.5" font-family="Helvetica,sans-Serif" font-size="10.00">packet_flags.h</text>
</a>
</g>
</g>
<!-- Node51&#45;&gt;Node54 -->
<g id="edge73" class="edge">
<title>Node51&#45;&gt;Node54</title>
<path fill="none" stroke="midnightblue" d="M542.41,-610.1C529.63,-600.38 513.39,-588.03 502.61,-579.83"/>
<polygon fill="midnightblue" stroke="midnightblue" points="540.51,-613.06 550.59,-616.32 544.75,-607.48 540.51,-613.06"/>
</g>
<!-- Node57 -->
<g id="node50" class="node">
<title>Node57</title>
<g id="a_node50"><a xlink:href="api_2queue_8h.html" target="_top" xlink:title=" ">
<polygon fill="white" stroke="black" points="855,-616.5 855,-635.5 911,-635.5 911,-616.5 855,-616.5"/>
<text text-anchor="middle" x="883" y="-623.5" font-family="Helvetica,sans-Serif" font-size="10.00">queue.h</text>
</a>
</g>
</g>
<!-- Node56&#45;&gt;Node57 -->
<g id="edge77" class="edge">
<title>Node56&#45;&gt;Node57</title>
<path fill="none" stroke="midnightblue" d="M873.82,-662.4C876.17,-653.36 878.87,-642.94 880.73,-635.75"/>
<polygon fill="midnightblue" stroke="midnightblue" points="870.43,-661.52 871.31,-672.08 877.21,-663.28 870.43,-661.52"/>
</g>
<!-- Node57&#45;&gt;Node11 -->
<g id="edge78" class="edge">
<title>Node57&#45;&gt;Node11</title>
<path fill="none" stroke="midnightblue" d="M884.1,-606.26C885.28,-584.37 887,-547.07 887,-515 887,-515 887,-515 887,-121 887,-44.24 773.41,-20.77 716.17,-13.81"/>
<polygon fill="midnightblue" stroke="midnightblue" points="880.59,-606.27 883.52,-616.45 887.58,-606.66 880.59,-606.27"/>
</g>
</g>
</svg>
