<?xml version="1.0" encoding="UTF-8" standalone="no"?>
<!DOCTYPE svg PUBLIC "-//W3C//DTD SVG 1.1//EN"
 "http://www.w3.org/Graphics/SVG/1.1/DTD/svg11.dtd">
<!-- Generated by graphviz version 2.43.0 (0)
 -->
<!-- Title: deprecated.h Pages: 1 -->
<svg width="1680pt" height="476pt"
 viewBox="0.00 0.00 1680.26 476.00" xmlns="http://www.w3.org/2000/svg" xmlns:xlink="http://www.w3.org/1999/xlink">
<g id="graph0" class="graph" transform="scale(1 1) rotate(0) translate(4 472)">
<title>deprecated.h</title>
<polygon fill="white" stroke="transparent" points="-4,4 -4,-472 1676.26,-472 1676.26,4 -4,4"/>
<!-- Node1 -->
<g id="node1" class="node">
<title>Node1</title>
<g id="a_node1"><a xlink:title=" ">
<polygon fill="#bfbfbf" stroke="black" points="1226,-448.5 1226,-467.5 1306,-467.5 1306,-448.5 1226,-448.5"/>
<text text-anchor="middle" x="1266" y="-455.5" font-family="Helvetica,sans-Serif" font-size="10.00">deprecated.h</text>
</a>
</g>
</g>
<!-- Node2 -->
<g id="node2" class="node">
<title>Node2</title>
<g id="a_node2"><a xlink:href="api_2abi-default_2event__types_8h_source.html" target="_top" xlink:title=" ">
<polygon fill="white" stroke="black" points="312,-392.5 312,-411.5 398,-411.5 398,-392.5 312,-392.5"/>
<text text-anchor="middle" x="355" y="-399.5" font-family="Helvetica,sans-Serif" font-size="10.00">event_types.h</text>
</a>
</g>
</g>
<!-- Node1&#45;&gt;Node2 -->
<g id="edge1" class="edge">
<title>Node1&#45;&gt;Node2</title>
<path fill="none" stroke="midnightblue" d="M1215.84,-454.03C1054.24,-444.45 549.03,-414.5 398.04,-405.55"/>
<polygon fill="midnightblue" stroke="midnightblue" points="1215.79,-457.53 1225.98,-454.63 1216.2,-450.54 1215.79,-457.53"/>
</g>
<!-- Node12 -->
<g id="node12" class="node">
<title>Node12</title>
<g id="a_node12"><a xlink:href="odp__api_8h.html" target="_top" xlink:title=" ">
<polygon fill="white" stroke="black" points="766,-0.5 766,-19.5 830,-19.5 830,-0.5 766,-0.5"/>
<text text-anchor="middle" x="798" y="-7.5" font-family="Helvetica,sans-Serif" font-size="10.00">odp_api.h</text>
</a>
</g>
</g>
<!-- Node1&#45;&gt;Node12 -->
<g id="edge74" class="edge">
<title>Node1&#45;&gt;Node12</title>
<path fill="none" stroke="midnightblue" d="M1215.51,-456.46C1102.02,-454.64 830.07,-446.68 746,-412 710.12,-397.2 695.44,-391.16 679,-356 648.28,-290.28 767.74,-66.07 793.28,-19.51"/>
<polygon fill="midnightblue" stroke="midnightblue" points="1215.62,-459.96 1225.67,-456.62 1215.72,-452.97 1215.62,-459.96"/>
</g>
<!-- Node41 -->
<g id="node27" class="node">
<title>Node41</title>
<g id="a_node27"><a xlink:href="api_2spec_2timer_8h.html" target="_top" xlink:title=" ">
<polygon fill="white" stroke="black" points="799.5,-112.5 799.5,-131.5 850.5,-131.5 850.5,-112.5 799.5,-112.5"/>
<text text-anchor="middle" x="825" y="-119.5" font-family="Helvetica,sans-Serif" font-size="10.00">timer.h</text>
</a>
</g>
</g>
<!-- Node1&#45;&gt;Node41 -->
<g id="edge72" class="edge">
<title>Node1&#45;&gt;Node41</title>
<path fill="none" stroke="midnightblue" d="M1301.67,-444.94C1353.39,-425.47 1439.54,-384.36 1406,-336 1371.98,-286.95 959.13,-162.53 850.86,-130.57"/>
<polygon fill="midnightblue" stroke="midnightblue" points="1300.33,-441.71 1292.14,-448.43 1302.73,-448.28 1300.33,-441.71"/>
</g>
<!-- Node49 -->
<g id="node29" class="node">
<title>Node49</title>
<g id="a_node29"><a xlink:href="api_2spec_2timer__types_8h.html" target="_top" xlink:title=" ">
<polygon fill="white" stroke="black" points="758,-224.5 758,-243.5 842,-243.5 842,-224.5 758,-224.5"/>
<text text-anchor="middle" x="800" y="-231.5" font-family="Helvetica,sans-Serif" font-size="10.00">timer_types.h</text>
</a>
</g>
</g>
<!-- Node1&#45;&gt;Node49 -->
<g id="edge73" class="edge">
<title>Node1&#45;&gt;Node49</title>
<path fill="none" stroke="midnightblue" d="M1215.56,-456.05C1088.16,-452.5 758.83,-435.62 692,-356 655.79,-312.87 742.08,-263.28 781.56,-243.64"/>
<polygon fill="midnightblue" stroke="midnightblue" points="1215.72,-459.56 1225.81,-456.32 1215.91,-452.56 1215.72,-459.56"/>
</g>
<!-- Node51 -->
<g id="node31" class="node">
<title>Node51</title>
<g id="a_node31"><a xlink:href="api_2abi-default_2schedule__types_8h.html" target="_top" xlink:title=" ">
<polygon fill="white" stroke="black" points="1057.5,-392.5 1057.5,-411.5 1158.5,-411.5 1158.5,-392.5 1057.5,-392.5"/>
<text text-anchor="middle" x="1108" y="-399.5" font-family="Helvetica,sans-Serif" font-size="10.00">schedule_types.h</text>
</a>
</g>
</g>
<!-- Node1&#45;&gt;Node51 -->
<g id="edge38" class="edge">
<title>Node1&#45;&gt;Node51</title>
<path fill="none" stroke="midnightblue" d="M1231.39,-445.17C1201.64,-435 1159.45,-420.59 1132.92,-411.52"/>
<polygon fill="midnightblue" stroke="midnightblue" points="1230.37,-448.52 1240.96,-448.44 1232.63,-441.9 1230.37,-448.52"/>
</g>
<!-- Node21 -->
<g id="node43" class="node">
<title>Node21</title>
<g id="a_node43"><a xlink:href="api_2spec_2classification_8h.html" target="_top" xlink:title=" ">
<polygon fill="white" stroke="black" points="1453.5,-392.5 1453.5,-411.5 1542.5,-411.5 1542.5,-392.5 1453.5,-392.5"/>
<text text-anchor="middle" x="1498" y="-399.5" font-family="Helvetica,sans-Serif" font-size="10.00">classification.h</text>
</a>
</g>
</g>
<!-- Node1&#45;&gt;Node21 -->
<g id="edge57" class="edge">
<title>Node1&#45;&gt;Node21</title>
<path fill="none" stroke="midnightblue" d="M1312.6,-446.15C1356.44,-435.95 1421.18,-420.88 1461.41,-411.52"/>
<polygon fill="midnightblue" stroke="midnightblue" points="1311.71,-442.77 1302.76,-448.44 1313.29,-449.59 1311.71,-442.77"/>
</g>
<!-- Node31 -->
<g id="node47" class="node">
<title>Node31</title>
<g id="a_node47"><a xlink:href="api_2spec_2crypto_8h.html" target="_top" xlink:title=" ">
<polygon fill="white" stroke="black" points="1596,-280.5 1596,-299.5 1652,-299.5 1652,-280.5 1596,-280.5"/>
<text text-anchor="middle" x="1624" y="-287.5" font-family="Helvetica,sans-Serif" font-size="10.00">crypto.h</text>
</a>
</g>
</g>
<!-- Node1&#45;&gt;Node31 -->
<g id="edge64" class="edge">
<title>Node1&#45;&gt;Node31</title>
<path fill="none" stroke="midnightblue" d="M1316.49,-454.9C1417.45,-450.19 1636.57,-437.15 1659,-412 1681.48,-386.79 1669.96,-367.95 1659,-336 1653.99,-321.4 1642.09,-307.88 1633.56,-299.55"/>
<polygon fill="midnightblue" stroke="midnightblue" points="1316.05,-451.42 1306.22,-455.37 1316.37,-458.41 1316.05,-451.42"/>
</g>
<!-- Node29 -->
<g id="node49" class="node">
<title>Node29</title>
<g id="a_node49"><a xlink:href="api_2spec_2crypto__types_8h.html" target="_top" xlink:title=" ">
<polygon fill="white" stroke="black" points="1560.5,-392.5 1560.5,-411.5 1649.5,-411.5 1649.5,-392.5 1560.5,-392.5"/>
<text text-anchor="middle" x="1605" y="-399.5" font-family="Helvetica,sans-Serif" font-size="10.00">crypto_types.h</text>
</a>
</g>
</g>
<!-- Node1&#45;&gt;Node29 -->
<g id="edge67" class="edge">
<title>Node1&#45;&gt;Node29</title>
<path fill="none" stroke="midnightblue" d="M1316.5,-449.24C1373.66,-440.42 1469.58,-425.48 1552,-412 1554.76,-411.55 1557.61,-411.08 1560.47,-410.6"/>
<polygon fill="midnightblue" stroke="midnightblue" points="1315.63,-445.84 1306.28,-450.82 1316.7,-452.75 1315.63,-445.84"/>
</g>
<!-- Node3 -->
<g id="node3" class="node">
<title>Node3</title>
<g id="a_node3"><a xlink:href="arch_2arm32-linux_2odp_2api_2abi_2event__types_8h_source.html" target="_top" xlink:title=" ">
<polygon fill="white" stroke="black" points="0,-336.5 0,-355.5 86,-355.5 86,-336.5 0,-336.5"/>
<text text-anchor="middle" x="43" y="-343.5" font-family="Helvetica,sans-Serif" font-size="10.00">event_types.h</text>
</a>
</g>
</g>
<!-- Node2&#45;&gt;Node3 -->
<g id="edge2" class="edge">
<title>Node2&#45;&gt;Node3</title>
<path fill="none" stroke="midnightblue" d="M301.77,-391.79C240.9,-381.25 142.4,-364.2 86.11,-354.46"/>
<polygon fill="midnightblue" stroke="midnightblue" points="301.49,-395.29 311.95,-393.55 302.69,-388.39 301.49,-395.29"/>
</g>
<!-- Node4 -->
<g id="node4" class="node">
<title>Node4</title>
<g id="a_node4"><a xlink:href="arch_2arm64-linux_2odp_2api_2abi_2event__types_8h_source.html" target="_top" xlink:title=" ">
<polygon fill="white" stroke="black" points="104,-336.5 104,-355.5 190,-355.5 190,-336.5 104,-336.5"/>
<text text-anchor="middle" x="147" y="-343.5" font-family="Helvetica,sans-Serif" font-size="10.00">event_types.h</text>
</a>
</g>
</g>
<!-- Node2&#45;&gt;Node4 -->
<g id="edge3" class="edge">
<title>Node2&#45;&gt;Node4</title>
<path fill="none" stroke="midnightblue" d="M312.22,-389.89C272.94,-379.7 215.57,-364.8 179.8,-355.52"/>
<polygon fill="midnightblue" stroke="midnightblue" points="311.48,-393.32 322.04,-392.44 313.24,-386.54 311.48,-393.32"/>
</g>
<!-- Node5 -->
<g id="node5" class="node">
<title>Node5</title>
<g id="a_node5"><a xlink:href="arch_2default-linux_2odp_2api_2abi_2event__types_8h_source.html" target="_top" xlink:title=" ">
<polygon fill="white" stroke="black" points="208,-336.5 208,-355.5 294,-355.5 294,-336.5 208,-336.5"/>
<text text-anchor="middle" x="251" y="-343.5" font-family="Helvetica,sans-Serif" font-size="10.00">event_types.h</text>
</a>
</g>
</g>
<!-- Node2&#45;&gt;Node5 -->
<g id="edge4" class="edge">
<title>Node2&#45;&gt;Node5</title>
<path fill="none" stroke="midnightblue" d="M329.17,-387.59C309.94,-377.61 284.26,-364.27 267.67,-355.65"/>
<polygon fill="midnightblue" stroke="midnightblue" points="327.8,-390.82 338.29,-392.32 331.03,-384.61 327.8,-390.82"/>
</g>
<!-- Node6 -->
<g id="node6" class="node">
<title>Node6</title>
<g id="a_node6"><a xlink:href="arch_2power64-linux_2odp_2api_2abi_2event__types_8h_source.html" target="_top" xlink:title=" ">
<polygon fill="white" stroke="black" points="312,-336.5 312,-355.5 398,-355.5 398,-336.5 312,-336.5"/>
<text text-anchor="middle" x="355" y="-343.5" font-family="Helvetica,sans-Serif" font-size="10.00">event_types.h</text>
</a>
</g>
</g>
<!-- Node2&#45;&gt;Node6 -->
<g id="edge5" class="edge">
<title>Node2&#45;&gt;Node6</title>
<path fill="none" stroke="midnightblue" d="M355,-381.8C355,-372.91 355,-362.78 355,-355.75"/>
<polygon fill="midnightblue" stroke="midnightblue" points="351.5,-382.08 355,-392.08 358.5,-382.08 351.5,-382.08"/>
</g>
<!-- Node7 -->
<g id="node7" class="node">
<title>Node7</title>
<g id="a_node7"><a xlink:href="arch_2x86__32-linux_2odp_2api_2abi_2event__types_8h_source.html" target="_top" xlink:title=" ">
<polygon fill="white" stroke="black" points="416,-336.5 416,-355.5 502,-355.5 502,-336.5 416,-336.5"/>
<text text-anchor="middle" x="459" y="-343.5" font-family="Helvetica,sans-Serif" font-size="10.00">event_types.h</text>
</a>
</g>
</g>
<!-- Node2&#45;&gt;Node7 -->
<g id="edge6" class="edge">
<title>Node2&#45;&gt;Node7</title>
<path fill="none" stroke="midnightblue" d="M380.83,-387.59C400.06,-377.61 425.74,-364.27 442.33,-355.65"/>
<polygon fill="midnightblue" stroke="midnightblue" points="378.97,-384.61 371.71,-392.32 382.2,-390.82 378.97,-384.61"/>
</g>
<!-- Node8 -->
<g id="node8" class="node">
<title>Node8</title>
<g id="a_node8"><a xlink:href="arch_2x86__64-linux_2odp_2api_2abi_2event__types_8h_source.html" target="_top" xlink:title=" ">
<polygon fill="white" stroke="black" points="520,-336.5 520,-355.5 606,-355.5 606,-336.5 520,-336.5"/>
<text text-anchor="middle" x="563" y="-343.5" font-family="Helvetica,sans-Serif" font-size="10.00">event_types.h</text>
</a>
</g>
</g>
<!-- Node2&#45;&gt;Node8 -->
<g id="edge7" class="edge">
<title>Node2&#45;&gt;Node8</title>
<path fill="none" stroke="midnightblue" d="M397.78,-389.89C437.06,-379.7 494.43,-364.8 530.2,-355.52"/>
<polygon fill="midnightblue" stroke="midnightblue" points="396.76,-386.54 387.96,-392.44 398.52,-393.32 396.76,-386.54"/>
</g>
<!-- Node9 -->
<g id="node9" class="node">
<title>Node9</title>
<g id="a_node9"><a xlink:href="api_2event__types_8h.html" target="_top" xlink:title=" ">
<polygon fill="white" stroke="black" points="520,-280.5 520,-299.5 606,-299.5 606,-280.5 520,-280.5"/>
<text text-anchor="middle" x="563" y="-287.5" font-family="Helvetica,sans-Serif" font-size="10.00">event_types.h</text>
</a>
</g>
</g>
<!-- Node8&#45;&gt;Node9 -->
<g id="edge8" class="edge">
<title>Node8&#45;&gt;Node9</title>
<path fill="none" stroke="midnightblue" d="M563,-325.8C563,-316.91 563,-306.78 563,-299.75"/>
<polygon fill="midnightblue" stroke="midnightblue" points="559.5,-326.08 563,-336.08 566.5,-326.08 559.5,-326.08"/>
</g>
<!-- Node10 -->
<g id="node10" class="node">
<title>Node10</title>
<g id="a_node10"><a xlink:href="api_2spec_2buffer_8h.html" target="_top" xlink:title=" ">
<polygon fill="white" stroke="black" points="424.5,-224.5 424.5,-243.5 477.5,-243.5 477.5,-224.5 424.5,-224.5"/>
<text text-anchor="middle" x="451" y="-231.5" font-family="Helvetica,sans-Serif" font-size="10.00">buffer.h</text>
</a>
</g>
</g>
<!-- Node9&#45;&gt;Node10 -->
<g id="edge9" class="edge">
<title>Node9&#45;&gt;Node10</title>
<path fill="none" stroke="midnightblue" d="M535.75,-275.86C514.98,-265.85 486.98,-252.35 468.95,-243.65"/>
<polygon fill="midnightblue" stroke="midnightblue" points="534.48,-279.13 545.01,-280.32 537.52,-272.83 534.48,-279.13"/>
</g>
<!-- Node13 -->
<g id="node13" class="node">
<title>Node13</title>
<g id="a_node13"><a xlink:href="api_2spec_2comp_8h.html" target="_top" xlink:title=" ">
<polygon fill="white" stroke="black" points="479.5,-112.5 479.5,-131.5 532.5,-131.5 532.5,-112.5 479.5,-112.5"/>
<text text-anchor="middle" x="506" y="-119.5" font-family="Helvetica,sans-Serif" font-size="10.00">comp.h</text>
</a>
</g>
</g>
<!-- Node9&#45;&gt;Node13 -->
<g id="edge12" class="edge">
<title>Node9&#45;&gt;Node13</title>
<path fill="none" stroke="midnightblue" d="M556.61,-270.39C544.32,-234.59 517.79,-157.34 508.94,-131.57"/>
<polygon fill="midnightblue" stroke="midnightblue" points="553.38,-271.75 559.94,-280.08 560,-269.48 553.38,-271.75"/>
</g>
<!-- Node15 -->
<g id="node15" class="node">
<title>Node15</title>
<g id="a_node15"><a xlink:href="api_2spec_2dma__types_8h.html" target="_top" xlink:title=" ">
<polygon fill="white" stroke="black" points="551,-112.5 551,-131.5 631,-131.5 631,-112.5 551,-112.5"/>
<text text-anchor="middle" x="591" y="-119.5" font-family="Helvetica,sans-Serif" font-size="10.00">dma_types.h</text>
</a>
</g>
</g>
<!-- Node9&#45;&gt;Node15 -->
<g id="edge15" class="edge">
<title>Node9&#45;&gt;Node15</title>
<path fill="none" stroke="midnightblue" d="M561.31,-270.07C559.72,-245.94 558.77,-203.13 568,-168 571.57,-154.42 579.66,-140.24 585.23,-131.51"/>
<polygon fill="midnightblue" stroke="midnightblue" points="557.84,-270.6 562.11,-280.3 564.82,-270.06 557.84,-270.6"/>
</g>
<!-- Node43 -->
<g id="node17" class="node">
<title>Node43</title>
<g id="a_node17"><a xlink:href="api_2spec_2event_8h.html" target="_top" xlink:title=" ">
<polygon fill="white" stroke="black" points="610.5,-224.5 610.5,-243.5 663.5,-243.5 663.5,-224.5 610.5,-224.5"/>
<text text-anchor="middle" x="637" y="-231.5" font-family="Helvetica,sans-Serif" font-size="10.00">event.h</text>
</a>
</g>
</g>
<!-- Node9&#45;&gt;Node43 -->
<g id="edge17" class="edge">
<title>Node9&#45;&gt;Node43</title>
<path fill="none" stroke="midnightblue" d="M583.03,-274.38C596.41,-264.62 613.56,-252.11 624.89,-243.83"/>
<polygon fill="midnightblue" stroke="midnightblue" points="580.9,-271.6 574.89,-280.32 585.03,-277.26 580.9,-271.6"/>
</g>
<!-- Node25 -->
<g id="node19" class="node">
<title>Node25</title>
<g id="a_node19"><a xlink:href="api_2spec_2ipsec_8h.html" target="_top" xlink:title=" ">
<polygon fill="white" stroke="black" points="1468.5,-168.5 1468.5,-187.5 1519.5,-187.5 1519.5,-168.5 1468.5,-168.5"/>
<text text-anchor="middle" x="1494" y="-175.5" font-family="Helvetica,sans-Serif" font-size="10.00">ipsec.h</text>
</a>
</g>
</g>
<!-- Node9&#45;&gt;Node25 -->
<g id="edge20" class="edge">
<title>Node9&#45;&gt;Node25</title>
<path fill="none" stroke="midnightblue" d="M616.12,-285.98C712.82,-280.16 923.98,-266.01 1101,-244 1240.31,-226.68 1405.8,-195.96 1468.35,-183.98"/>
<polygon fill="midnightblue" stroke="midnightblue" points="615.78,-282.49 606.01,-286.58 616.2,-289.48 615.78,-282.49"/>
</g>
<!-- Node33 -->
<g id="node21" class="node">
<title>Node33</title>
<g id="a_node21"><a xlink:href="api_2spec_2packet_8h.html" target="_top" xlink:title=" ">
<polygon fill="white" stroke="black" points="348,-224.5 348,-243.5 406,-243.5 406,-224.5 348,-224.5"/>
<text text-anchor="middle" x="377" y="-231.5" font-family="Helvetica,sans-Serif" font-size="10.00">packet.h</text>
</a>
</g>
</g>
<!-- Node9&#45;&gt;Node33 -->
<g id="edge23" class="edge">
<title>Node9&#45;&gt;Node33</title>
<path fill="none" stroke="midnightblue" d="M523.59,-277.56C488.39,-267.34 437.64,-252.61 406.03,-243.43"/>
<polygon fill="midnightblue" stroke="midnightblue" points="522.95,-281.02 533.53,-280.44 524.9,-274.29 522.95,-281.02"/>
</g>
<!-- Node45 -->
<g id="node23" class="node">
<title>Node45</title>
<g id="a_node23"><a xlink:href="api_2spec_2queue_8h.html" target="_top" xlink:title=" ">
<polygon fill="white" stroke="black" points="649,-112.5 649,-131.5 705,-131.5 705,-112.5 649,-112.5"/>
<text text-anchor="middle" x="677" y="-119.5" font-family="Helvetica,sans-Serif" font-size="10.00">queue.h</text>
</a>
</g>
</g>
<!-- Node9&#45;&gt;Node45 -->
<g id="edge26" class="edge">
<title>Node9&#45;&gt;Node45</title>
<path fill="none" stroke="midnightblue" d="M564.91,-270.24C568.37,-244.68 577.72,-198.58 602,-168 615.5,-150.99 637.32,-138.95 653.95,-131.62"/>
<polygon fill="midnightblue" stroke="midnightblue" points="561.41,-270.07 563.71,-280.42 568.36,-270.9 561.41,-270.07"/>
</g>
<!-- Node47 -->
<g id="node25" class="node">
<title>Node47</title>
<g id="a_node25"><a xlink:href="api_2spec_2schedule_8h.html" target="_top" xlink:title=" ">
<polygon fill="white" stroke="black" points="868.5,-112.5 868.5,-131.5 937.5,-131.5 937.5,-112.5 868.5,-112.5"/>
<text text-anchor="middle" x="903" y="-119.5" font-family="Helvetica,sans-Serif" font-size="10.00">schedule.h</text>
</a>
</g>
</g>
<!-- Node9&#45;&gt;Node47 -->
<g id="edge29" class="edge">
<title>Node9&#45;&gt;Node47</title>
<path fill="none" stroke="midnightblue" d="M616.2,-284.29C715.4,-274.18 921.8,-246.41 957,-188 970.33,-165.88 939.81,-143.46 919.43,-131.6"/>
<polygon fill="midnightblue" stroke="midnightblue" points="615.68,-280.82 606.08,-285.3 616.38,-287.79 615.68,-280.82"/>
</g>
<!-- Node9&#45;&gt;Node41 -->
<g id="edge32" class="edge">
<title>Node9&#45;&gt;Node41</title>
<path fill="none" stroke="midnightblue" d="M602.23,-277.22C624.11,-269.63 651.25,-258.47 673,-244 712.78,-217.55 711.26,-197.29 749,-168 767.9,-153.33 791.99,-139.83 807.92,-131.52"/>
<polygon fill="midnightblue" stroke="midnightblue" points="600.95,-273.96 592.58,-280.45 603.17,-280.59 600.95,-273.96"/>
</g>
<!-- Node9&#45;&gt;Node49 -->
<g id="edge35" class="edge">
<title>Node9&#45;&gt;Node49</title>
<path fill="none" stroke="midnightblue" d="M610.32,-278.22C655.11,-268.01 721.44,-252.9 762.62,-243.52"/>
<polygon fill="midnightblue" stroke="midnightblue" points="609.53,-274.81 600.55,-280.44 611.08,-281.63 609.53,-274.81"/>
</g>
<!-- Node11 -->
<g id="node11" class="node">
<title>Node11</title>
<g id="a_node11"><a xlink:href="api_2buffer_8h.html" target="_top" xlink:title=" ">
<polygon fill="white" stroke="black" points="408.5,-56.5 408.5,-75.5 461.5,-75.5 461.5,-56.5 408.5,-56.5"/>
<text text-anchor="middle" x="435" y="-63.5" font-family="Helvetica,sans-Serif" font-size="10.00">buffer.h</text>
</a>
</g>
</g>
<!-- Node10&#45;&gt;Node11 -->
<g id="edge10" class="edge">
<title>Node10&#45;&gt;Node11</title>
<path fill="none" stroke="midnightblue" d="M449.16,-213.93C445.69,-177.92 438.3,-101.23 435.83,-75.57"/>
<polygon fill="midnightblue" stroke="midnightblue" points="445.7,-214.46 450.14,-224.08 452.66,-213.79 445.7,-214.46"/>
</g>
<!-- Node11&#45;&gt;Node12 -->
<g id="edge11" class="edge">
<title>Node11&#45;&gt;Node12</title>
<path fill="none" stroke="midnightblue" d="M471.55,-55.87C584.7,-34.07 708.28,-20.11 765.67,-14.18"/>
<polygon fill="midnightblue" stroke="midnightblue" points="470.82,-52.45 461.68,-57.8 472.17,-59.32 470.82,-52.45"/>
</g>
<!-- Node14 -->
<g id="node14" class="node">
<title>Node14</title>
<g id="a_node14"><a xlink:href="api_2comp_8h.html" target="_top" xlink:title=" ">
<polygon fill="white" stroke="black" points="479.5,-56.5 479.5,-75.5 532.5,-75.5 532.5,-56.5 479.5,-56.5"/>
<text text-anchor="middle" x="506" y="-63.5" font-family="Helvetica,sans-Serif" font-size="10.00">comp.h</text>
</a>
</g>
</g>
<!-- Node13&#45;&gt;Node14 -->
<g id="edge13" class="edge">
<title>Node13&#45;&gt;Node14</title>
<path fill="none" stroke="midnightblue" d="M506,-101.8C506,-92.91 506,-82.78 506,-75.75"/>
<polygon fill="midnightblue" stroke="midnightblue" points="502.5,-102.08 506,-112.08 509.5,-102.08 502.5,-102.08"/>
</g>
<!-- Node14&#45;&gt;Node12 -->
<g id="edge14" class="edge">
<title>Node14&#45;&gt;Node12</title>
<path fill="none" stroke="midnightblue" d="M542.66,-55.99C629.11,-37.83 719.11,-23.19 765.93,-15.89"/>
<polygon fill="midnightblue" stroke="midnightblue" points="541.74,-52.61 532.69,-58.1 543.2,-59.45 541.74,-52.61"/>
</g>
<!-- Node16 -->
<g id="node16" class="node">
<title>Node16</title>
<g id="a_node16"><a xlink:href="api_2dma__types_8h.html" target="_top" xlink:title=" ">
<polygon fill="white" stroke="red" points="551,-56.5 551,-75.5 631,-75.5 631,-56.5 551,-56.5"/>
<text text-anchor="middle" x="591" y="-63.5" font-family="Helvetica,sans-Serif" font-size="10.00">dma_types.h</text>
</a>
</g>
</g>
<!-- Node15&#45;&gt;Node16 -->
<g id="edge16" class="edge">
<title>Node15&#45;&gt;Node16</title>
<path fill="none" stroke="midnightblue" d="M591,-101.8C591,-92.91 591,-82.78 591,-75.75"/>
<polygon fill="midnightblue" stroke="midnightblue" points="587.5,-102.08 591,-112.08 594.5,-102.08 587.5,-102.08"/>
</g>
<!-- Node44 -->
<g id="node18" class="node">
<title>Node44</title>
<g id="a_node18"><a xlink:href="api_2event_8h.html" target="_top" xlink:title=" ">
<polygon fill="white" stroke="black" points="610.5,-168.5 610.5,-187.5 663.5,-187.5 663.5,-168.5 610.5,-168.5"/>
<text text-anchor="middle" x="637" y="-175.5" font-family="Helvetica,sans-Serif" font-size="10.00">event.h</text>
</a>
</g>
</g>
<!-- Node43&#45;&gt;Node44 -->
<g id="edge18" class="edge">
<title>Node43&#45;&gt;Node44</title>
<path fill="none" stroke="midnightblue" d="M637,-213.8C637,-204.91 637,-194.78 637,-187.75"/>
<polygon fill="midnightblue" stroke="midnightblue" points="633.5,-214.08 637,-224.08 640.5,-214.08 633.5,-214.08"/>
</g>
<!-- Node44&#45;&gt;Node12 -->
<g id="edge19" class="edge">
<title>Node44&#45;&gt;Node12</title>
<path fill="none" stroke="midnightblue" d="M667.09,-164.08C682.46,-156.4 700.68,-145.51 714,-132 741.25,-104.37 734.23,-87.43 757,-56 766.8,-42.48 780.12,-28.5 788.88,-19.79"/>
<polygon fill="midnightblue" stroke="midnightblue" points="665.47,-160.97 657.96,-168.44 668.49,-167.29 665.47,-160.97"/>
</g>
<!-- Node26 -->
<g id="node20" class="node">
<title>Node26</title>
<g id="a_node20"><a xlink:href="api_2ipsec_8h.html" target="_top" xlink:title=" ">
<polygon fill="white" stroke="black" points="1460.5,-112.5 1460.5,-131.5 1511.5,-131.5 1511.5,-112.5 1460.5,-112.5"/>
<text text-anchor="middle" x="1486" y="-119.5" font-family="Helvetica,sans-Serif" font-size="10.00">ipsec.h</text>
</a>
</g>
</g>
<!-- Node25&#45;&gt;Node26 -->
<g id="edge21" class="edge">
<title>Node25&#45;&gt;Node26</title>
<path fill="none" stroke="midnightblue" d="M1491.2,-158.1C1489.87,-149.14 1488.35,-138.86 1487.3,-131.75"/>
<polygon fill="midnightblue" stroke="midnightblue" points="1487.75,-158.7 1492.68,-168.08 1494.68,-157.68 1487.75,-158.7"/>
</g>
<!-- Node26&#45;&gt;Node12 -->
<g id="edge22" class="edge">
<title>Node26&#45;&gt;Node12</title>
<path fill="none" stroke="midnightblue" d="M1479.1,-102.88C1472.21,-87.52 1460.04,-66.39 1442,-56 1388.71,-25.29 953.35,-14.16 830.29,-11.61"/>
<polygon fill="midnightblue" stroke="midnightblue" points="1475.98,-104.48 1483.03,-112.39 1482.45,-101.81 1475.98,-104.48"/>
</g>
<!-- Node34 -->
<g id="node22" class="node">
<title>Node34</title>
<g id="a_node22"><a xlink:href="api_2packet_8h.html" target="_top" xlink:title=" ">
<polygon fill="white" stroke="black" points="350,-168.5 350,-187.5 408,-187.5 408,-168.5 350,-168.5"/>
<text text-anchor="middle" x="379" y="-175.5" font-family="Helvetica,sans-Serif" font-size="10.00">packet.h</text>
</a>
</g>
</g>
<!-- Node33&#45;&gt;Node34 -->
<g id="edge24" class="edge">
<title>Node33&#45;&gt;Node34</title>
<path fill="none" stroke="midnightblue" d="M377.71,-213.8C378.04,-204.91 378.42,-194.78 378.68,-187.75"/>
<polygon fill="midnightblue" stroke="midnightblue" points="374.2,-213.96 377.33,-224.08 381.2,-214.22 374.2,-213.96"/>
</g>
<!-- Node34&#45;&gt;Node12 -->
<g id="edge25" class="edge">
<title>Node34&#45;&gt;Node12</title>
<path fill="none" stroke="midnightblue" d="M375.91,-158.43C372.62,-131.63 371.17,-82.43 399,-56 425.47,-30.86 675.83,-16.73 765.91,-12.43"/>
<polygon fill="midnightblue" stroke="midnightblue" points="372.46,-159.02 377.35,-168.41 379.38,-158.01 372.46,-159.02"/>
</g>
<!-- Node46 -->
<g id="node24" class="node">
<title>Node46</title>
<g id="a_node24"><a xlink:href="api_2queue_8h.html" target="_top" xlink:title=" ">
<polygon fill="white" stroke="black" points="649,-56.5 649,-75.5 705,-75.5 705,-56.5 649,-56.5"/>
<text text-anchor="middle" x="677" y="-63.5" font-family="Helvetica,sans-Serif" font-size="10.00">queue.h</text>
</a>
</g>
</g>
<!-- Node45&#45;&gt;Node46 -->
<g id="edge27" class="edge">
<title>Node45&#45;&gt;Node46</title>
<path fill="none" stroke="midnightblue" d="M677,-101.8C677,-92.91 677,-82.78 677,-75.75"/>
<polygon fill="midnightblue" stroke="midnightblue" points="673.5,-102.08 677,-112.08 680.5,-102.08 673.5,-102.08"/>
</g>
<!-- Node46&#45;&gt;Node12 -->
<g id="edge28" class="edge">
<title>Node46&#45;&gt;Node12</title>
<path fill="none" stroke="midnightblue" d="M705.31,-52.37C727.97,-42.26 759.13,-28.35 778.92,-19.52"/>
<polygon fill="midnightblue" stroke="midnightblue" points="703.88,-49.17 696.17,-56.44 706.73,-55.56 703.88,-49.17"/>
</g>
<!-- Node48 -->
<g id="node26" class="node">
<title>Node48</title>
<g id="a_node26"><a xlink:href="api_2schedule_8h.html" target="_top" xlink:title=" ">
<polygon fill="white" stroke="black" points="868.5,-56.5 868.5,-75.5 937.5,-75.5 937.5,-56.5 868.5,-56.5"/>
<text text-anchor="middle" x="903" y="-63.5" font-family="Helvetica,sans-Serif" font-size="10.00">schedule.h</text>
</a>
</g>
</g>
<!-- Node47&#45;&gt;Node48 -->
<g id="edge30" class="edge">
<title>Node47&#45;&gt;Node48</title>
<path fill="none" stroke="midnightblue" d="M903,-101.8C903,-92.91 903,-82.78 903,-75.75"/>
<polygon fill="midnightblue" stroke="midnightblue" points="899.5,-102.08 903,-112.08 906.5,-102.08 899.5,-102.08"/>
</g>
<!-- Node48&#45;&gt;Node12 -->
<g id="edge31" class="edge">
<title>Node48&#45;&gt;Node12</title>
<path fill="none" stroke="midnightblue" d="M877.19,-51.73C857.75,-41.73 831.65,-28.31 814.83,-19.65"/>
<polygon fill="midnightblue" stroke="midnightblue" points="875.64,-54.86 886.13,-56.32 878.84,-48.64 875.64,-54.86"/>
</g>
<!-- Node42 -->
<g id="node28" class="node">
<title>Node42</title>
<g id="a_node28"><a xlink:href="api_2timer_8h.html" target="_top" xlink:title=" ">
<polygon fill="white" stroke="black" points="799.5,-56.5 799.5,-75.5 850.5,-75.5 850.5,-56.5 799.5,-56.5"/>
<text text-anchor="middle" x="825" y="-63.5" font-family="Helvetica,sans-Serif" font-size="10.00">timer.h</text>
</a>
</g>
</g>
<!-- Node41&#45;&gt;Node42 -->
<g id="edge33" class="edge">
<title>Node41&#45;&gt;Node42</title>
<path fill="none" stroke="midnightblue" d="M825,-101.8C825,-92.91 825,-82.78 825,-75.75"/>
<polygon fill="midnightblue" stroke="midnightblue" points="821.5,-102.08 825,-112.08 828.5,-102.08 821.5,-102.08"/>
</g>
<!-- Node42&#45;&gt;Node12 -->
<g id="edge34" class="edge">
<title>Node42&#45;&gt;Node12</title>
<path fill="none" stroke="midnightblue" d="M815.99,-46.98C811.41,-37.82 806.05,-27.09 802.38,-19.75"/>
<polygon fill="midnightblue" stroke="midnightblue" points="812.94,-48.7 820.54,-56.08 819.2,-45.57 812.94,-48.7"/>
</g>
<!-- Node50 -->
<g id="node30" class="node">
<title>Node50</title>
<g id="a_node30"><a xlink:href="api_2timer__types_8h.html" target="_top" xlink:title=" ">
<polygon fill="white" stroke="black" points="864,-168.5 864,-187.5 948,-187.5 948,-168.5 864,-168.5"/>
<text text-anchor="middle" x="906" y="-175.5" font-family="Helvetica,sans-Serif" font-size="10.00">timer_types.h</text>
</a>
</g>
</g>
<!-- Node49&#45;&gt;Node50 -->
<g id="edge36" class="edge">
<title>Node49&#45;&gt;Node50</title>
<path fill="none" stroke="midnightblue" d="M826.06,-219.73C845.68,-209.73 872.03,-196.31 889.01,-187.65"/>
<polygon fill="midnightblue" stroke="midnightblue" points="824.35,-216.67 817.03,-224.32 827.53,-222.9 824.35,-216.67"/>
</g>
<!-- Node50&#45;&gt;Node41 -->
<g id="edge37" class="edge">
<title>Node50&#45;&gt;Node41</title>
<path fill="none" stroke="midnightblue" d="M884.43,-162.62C869.64,-152.76 850.49,-139.99 837.98,-131.65"/>
<polygon fill="midnightblue" stroke="midnightblue" points="882.72,-165.69 892.99,-168.32 886.61,-159.86 882.72,-165.69"/>
</g>
<!-- Node52 -->
<g id="node32" class="node">
<title>Node52</title>
<g id="a_node32"><a xlink:href="arch_2arm32-linux_2odp_2api_2abi_2schedule__types_8h_source.html" target="_top" xlink:title=" ">
<polygon fill="white" stroke="black" points="819.5,-336.5 819.5,-355.5 920.5,-355.5 920.5,-336.5 819.5,-336.5"/>
<text text-anchor="middle" x="870" y="-343.5" font-family="Helvetica,sans-Serif" font-size="10.00">schedule_types.h</text>
</a>
</g>
</g>
<!-- Node51&#45;&gt;Node52 -->
<g id="edge39" class="edge">
<title>Node51&#45;&gt;Node52</title>
<path fill="none" stroke="midnightblue" d="M1060.48,-390.22C1015.5,-380.01 948.9,-364.9 907.54,-355.52"/>
<polygon fill="midnightblue" stroke="midnightblue" points="1059.76,-393.64 1070.29,-392.44 1061.31,-386.82 1059.76,-393.64"/>
</g>
<!-- Node53 -->
<g id="node33" class="node">
<title>Node53</title>
<g id="a_node33"><a xlink:href="arch_2arm64-linux_2odp_2api_2abi_2schedule__types_8h_source.html" target="_top" xlink:title=" ">
<polygon fill="white" stroke="black" points="938.5,-336.5 938.5,-355.5 1039.5,-355.5 1039.5,-336.5 938.5,-336.5"/>
<text text-anchor="middle" x="989" y="-343.5" font-family="Helvetica,sans-Serif" font-size="10.00">schedule_types.h</text>
</a>
</g>
</g>
<!-- Node51&#45;&gt;Node53 -->
<g id="edge40" class="edge">
<title>Node51&#45;&gt;Node53</title>
<path fill="none" stroke="midnightblue" d="M1079.86,-388.23C1057.6,-378.13 1027.14,-364.31 1007.77,-355.52"/>
<polygon fill="midnightblue" stroke="midnightblue" points="1078.59,-391.5 1089.14,-392.44 1081.48,-385.12 1078.59,-391.5"/>
</g>
<!-- Node54 -->
<g id="node34" class="node">
<title>Node54</title>
<g id="a_node34"><a xlink:href="arch_2default-linux_2odp_2api_2abi_2schedule__types_8h_source.html" target="_top" xlink:title=" ">
<polygon fill="white" stroke="black" points="1057.5,-336.5 1057.5,-355.5 1158.5,-355.5 1158.5,-336.5 1057.5,-336.5"/>
<text text-anchor="middle" x="1108" y="-343.5" font-family="Helvetica,sans-Serif" font-size="10.00">schedule_types.h</text>
</a>
</g>
</g>
<!-- Node51&#45;&gt;Node54 -->
<g id="edge41" class="edge">
<title>Node51&#45;&gt;Node54</title>
<path fill="none" stroke="midnightblue" d="M1108,-381.8C1108,-372.91 1108,-362.78 1108,-355.75"/>
<polygon fill="midnightblue" stroke="midnightblue" points="1104.5,-382.08 1108,-392.08 1111.5,-382.08 1104.5,-382.08"/>
</g>
<!-- Node55 -->
<g id="node35" class="node">
<title>Node55</title>
<g id="a_node35"><a xlink:href="arch_2power64-linux_2odp_2api_2abi_2schedule__types_8h_source.html" target="_top" xlink:title=" ">
<polygon fill="white" stroke="black" points="1176.5,-336.5 1176.5,-355.5 1277.5,-355.5 1277.5,-336.5 1176.5,-336.5"/>
<text text-anchor="middle" x="1227" y="-343.5" font-family="Helvetica,sans-Serif" font-size="10.00">schedule_types.h</text>
</a>
</g>
</g>
<!-- Node51&#45;&gt;Node55 -->
<g id="edge42" class="edge">
<title>Node51&#45;&gt;Node55</title>
<path fill="none" stroke="midnightblue" d="M1136.14,-388.23C1158.4,-378.13 1188.86,-364.31 1208.23,-355.52"/>
<polygon fill="midnightblue" stroke="midnightblue" points="1134.52,-385.12 1126.86,-392.44 1137.41,-391.5 1134.52,-385.12"/>
</g>
<!-- Node56 -->
<g id="node36" class="node">
<title>Node56</title>
<g id="a_node36"><a xlink:href="arch_2x86__32-linux_2odp_2api_2abi_2schedule__types_8h_source.html" target="_top" xlink:title=" ">
<polygon fill="white" stroke="black" points="1295.5,-336.5 1295.5,-355.5 1396.5,-355.5 1396.5,-336.5 1295.5,-336.5"/>
<text text-anchor="middle" x="1346" y="-343.5" font-family="Helvetica,sans-Serif" font-size="10.00">schedule_types.h</text>
</a>
</g>
</g>
<!-- Node51&#45;&gt;Node56 -->
<g id="edge43" class="edge">
<title>Node51&#45;&gt;Node56</title>
<path fill="none" stroke="midnightblue" d="M1155.52,-390.22C1200.5,-380.01 1267.1,-364.9 1308.46,-355.52"/>
<polygon fill="midnightblue" stroke="midnightblue" points="1154.69,-386.82 1145.71,-392.44 1156.24,-393.64 1154.69,-386.82"/>
</g>
<!-- Node57 -->
<g id="node37" class="node">
<title>Node57</title>
<g id="a_node37"><a xlink:href="arch_2x86__64-linux_2odp_2api_2abi_2schedule__types_8h_source.html" target="_top" xlink:title=" ">
<polygon fill="white" stroke="black" points="700.5,-336.5 700.5,-355.5 801.5,-355.5 801.5,-336.5 700.5,-336.5"/>
<text text-anchor="middle" x="751" y="-343.5" font-family="Helvetica,sans-Serif" font-size="10.00">schedule_types.h</text>
</a>
</g>
</g>
<!-- Node51&#45;&gt;Node57 -->
<g id="edge44" class="edge">
<title>Node51&#45;&gt;Node57</title>
<path fill="none" stroke="midnightblue" d="M1046.92,-391.76C977.7,-381.29 866.15,-364.42 801.6,-354.65"/>
<polygon fill="midnightblue" stroke="midnightblue" points="1046.82,-395.29 1057.23,-393.32 1047.87,-388.36 1046.82,-395.29"/>
</g>
<!-- Node58 -->
<g id="node38" class="node">
<title>Node58</title>
<g id="a_node38"><a xlink:href="api_2schedule__types_8h.html" target="_top" xlink:title=" ">
<polygon fill="white" stroke="black" points="997.5,-280.5 997.5,-299.5 1098.5,-299.5 1098.5,-280.5 997.5,-280.5"/>
<text text-anchor="middle" x="1048" y="-287.5" font-family="Helvetica,sans-Serif" font-size="10.00">schedule_types.h</text>
</a>
</g>
</g>
<!-- Node57&#45;&gt;Node58 -->
<g id="edge45" class="edge">
<title>Node57&#45;&gt;Node58</title>
<path fill="none" stroke="midnightblue" d="M808.2,-334.6C864.33,-324.4 948.9,-309.02 1001.16,-299.52"/>
<polygon fill="midnightblue" stroke="midnightblue" points="807.27,-331.21 798.06,-336.44 808.53,-338.1 807.27,-331.21"/>
</g>
<!-- Node58&#45;&gt;Node47 -->
<g id="edge56" class="edge">
<title>Node58&#45;&gt;Node47</title>
<path fill="none" stroke="midnightblue" d="M1072.88,-274.86C1091.72,-262.23 1112.55,-242.87 1101,-224 1081.2,-191.67 975.14,-149.46 926.91,-131.59"/>
<polygon fill="midnightblue" stroke="midnightblue" points="1070.81,-272.03 1064.21,-280.33 1074.54,-277.95 1070.81,-272.03"/>
</g>
<!-- Node59 -->
<g id="node39" class="node">
<title>Node59</title>
<g id="a_node39"><a xlink:href="api_2spec_2queue__types_8h.html" target="_top" xlink:title=" ">
<polygon fill="white" stroke="black" points="1004,-224.5 1004,-243.5 1092,-243.5 1092,-224.5 1004,-224.5"/>
<text text-anchor="middle" x="1048" y="-231.5" font-family="Helvetica,sans-Serif" font-size="10.00">queue_types.h</text>
</a>
</g>
</g>
<!-- Node58&#45;&gt;Node59 -->
<g id="edge46" class="edge">
<title>Node58&#45;&gt;Node59</title>
<path fill="none" stroke="midnightblue" d="M1048,-269.8C1048,-260.91 1048,-250.78 1048,-243.75"/>
<polygon fill="midnightblue" stroke="midnightblue" points="1044.5,-270.08 1048,-280.08 1051.5,-270.08 1044.5,-270.08"/>
</g>
<!-- Node60 -->
<g id="node40" class="node">
<title>Node60</title>
<g id="a_node40"><a xlink:href="api_2queue__types_8h.html" target="_top" xlink:title=" ">
<polygon fill="white" stroke="red" points="758,-168.5 758,-187.5 846,-187.5 846,-168.5 758,-168.5"/>
<text text-anchor="middle" x="802" y="-175.5" font-family="Helvetica,sans-Serif" font-size="10.00">queue_types.h</text>
</a>
</g>
</g>
<!-- Node59&#45;&gt;Node60 -->
<g id="edge47" class="edge">
<title>Node59&#45;&gt;Node60</title>
<path fill="none" stroke="midnightblue" d="M999.17,-222.28C952.68,-212.08 883.64,-196.92 840.8,-187.52"/>
<polygon fill="midnightblue" stroke="midnightblue" points="998.5,-225.72 1009.02,-224.44 1000,-218.88 998.5,-225.72"/>
</g>
<!-- Node60&#45;&gt;Node13 -->
<g id="edge48" class="edge">
<title>Node60&#45;&gt;Node13</title>
<path fill="none" stroke="midnightblue" d="M747.5,-168.76C694.74,-160.51 612.59,-146.91 542,-132 538.97,-131.36 535.82,-130.65 532.69,-129.9"/>
<polygon fill="midnightblue" stroke="midnightblue" points="747.23,-172.26 757.65,-170.34 748.3,-165.35 747.23,-172.26"/>
</g>
<!-- Node60&#45;&gt;Node15 -->
<g id="edge49" class="edge">
<title>Node60&#45;&gt;Node15</title>
<path fill="none" stroke="midnightblue" d="M758.86,-165.96C719.01,-155.76 660.64,-140.82 624.28,-131.52"/>
<polygon fill="midnightblue" stroke="midnightblue" points="758.01,-169.35 768.57,-168.44 759.75,-162.57 758.01,-169.35"/>
</g>
<!-- Node60&#45;&gt;Node45 -->
<g id="edge53" class="edge">
<title>Node60&#45;&gt;Node45</title>
<path fill="none" stroke="midnightblue" d="M772.76,-164.37C749.35,-154.26 717.16,-140.35 696.71,-131.52"/>
<polygon fill="midnightblue" stroke="midnightblue" points="771.63,-167.69 782.19,-168.44 774.4,-161.26 771.63,-167.69"/>
</g>
<!-- Node60&#45;&gt;Node47 -->
<g id="edge54" class="edge">
<title>Node60&#45;&gt;Node47</title>
<path fill="none" stroke="midnightblue" d="M827.08,-163.59C845.76,-153.61 870.7,-140.27 886.81,-131.65"/>
<polygon fill="midnightblue" stroke="midnightblue" points="825.4,-160.52 818.23,-168.32 828.7,-166.7 825.4,-160.52"/>
</g>
<!-- Node60&#45;&gt;Node41 -->
<g id="edge55" class="edge">
<title>Node60&#45;&gt;Node41</title>
<path fill="none" stroke="midnightblue" d="M809.8,-158.69C813.68,-149.59 818.18,-139.01 821.27,-131.75"/>
<polygon fill="midnightblue" stroke="midnightblue" points="806.5,-157.51 805.8,-168.08 812.94,-160.25 806.5,-157.51"/>
</g>
<!-- Node27 -->
<g id="node41" class="node">
<title>Node27</title>
<g id="a_node41"><a xlink:href="api_2spec_2packet__io_8h.html" target="_top" xlink:title=" ">
<polygon fill="white" stroke="black" points="956,-112.5 956,-131.5 1028,-131.5 1028,-112.5 956,-112.5"/>
<text text-anchor="middle" x="992" y="-119.5" font-family="Helvetica,sans-Serif" font-size="10.00">packet_io.h</text>
</a>
</g>
</g>
<!-- Node60&#45;&gt;Node27 -->
<g id="edge50" class="edge">
<title>Node60&#45;&gt;Node27</title>
<path fill="none" stroke="midnightblue" d="M841.76,-165.7C877.62,-155.51 929.57,-140.74 962.03,-131.52"/>
<polygon fill="midnightblue" stroke="midnightblue" points="840.77,-162.34 832.11,-168.44 842.68,-169.08 840.77,-162.34"/>
</g>
<!-- Node28 -->
<g id="node42" class="node">
<title>Node28</title>
<g id="a_node42"><a xlink:href="api_2packet__io_8h.html" target="_top" xlink:title=" ">
<polygon fill="white" stroke="black" points="956,-56.5 956,-75.5 1028,-75.5 1028,-56.5 956,-56.5"/>
<text text-anchor="middle" x="992" y="-63.5" font-family="Helvetica,sans-Serif" font-size="10.00">packet_io.h</text>
</a>
</g>
</g>
<!-- Node27&#45;&gt;Node28 -->
<g id="edge51" class="edge">
<title>Node27&#45;&gt;Node28</title>
<path fill="none" stroke="midnightblue" d="M992,-101.8C992,-92.91 992,-82.78 992,-75.75"/>
<polygon fill="midnightblue" stroke="midnightblue" points="988.5,-102.08 992,-112.08 995.5,-102.08 988.5,-102.08"/>
</g>
<!-- Node28&#45;&gt;Node12 -->
<g id="edge52" class="edge">
<title>Node28&#45;&gt;Node12</title>
<path fill="none" stroke="midnightblue" d="M951.4,-53.7C914.78,-43.51 861.74,-28.74 828.6,-19.52"/>
<polygon fill="midnightblue" stroke="midnightblue" points="950.69,-57.13 961.26,-56.44 952.56,-50.39 950.69,-57.13"/>
</g>
<!-- Node22 -->
<g id="node44" class="node">
<title>Node22</title>
<g id="a_node44"><a xlink:href="api_2classification_8h.html" target="_top" xlink:title=" ">
<polygon fill="white" stroke="black" points="1453.5,-336.5 1453.5,-355.5 1542.5,-355.5 1542.5,-336.5 1453.5,-336.5"/>
<text text-anchor="middle" x="1498" y="-343.5" font-family="Helvetica,sans-Serif" font-size="10.00">classification.h</text>
</a>
</g>
</g>
<!-- Node21&#45;&gt;Node22 -->
<g id="edge58" class="edge">
<title>Node21&#45;&gt;Node22</title>
<path fill="none" stroke="midnightblue" d="M1498,-381.8C1498,-372.91 1498,-362.78 1498,-355.75"/>
<polygon fill="midnightblue" stroke="midnightblue" points="1494.5,-382.08 1498,-392.08 1501.5,-382.08 1494.5,-382.08"/>
</g>
<!-- Node22&#45;&gt;Node12 -->
<g id="edge63" class="edge">
<title>Node22&#45;&gt;Node12</title>
<path fill="none" stroke="midnightblue" d="M1477.12,-330.46C1467.06,-322.49 1455.56,-311.84 1448,-300 1431.73,-274.52 1428,-265.23 1428,-235 1428,-235 1428,-235 1428,-121 1428,-59.66 958.49,-22.25 830.11,-13.17"/>
<polygon fill="midnightblue" stroke="midnightblue" points="1475.03,-333.26 1485.12,-336.48 1479.24,-327.67 1475.03,-333.26"/>
</g>
<!-- Node22&#45;&gt;Node27 -->
<g id="edge62" class="edge">
<title>Node22&#45;&gt;Node27</title>
<path fill="none" stroke="midnightblue" d="M1469.65,-331.87C1452.9,-323.62 1431.6,-312.24 1414,-300 1372.13,-270.87 1372.57,-248.81 1328,-224 1227.27,-167.94 1091.85,-139.57 1028.07,-128.58"/>
<polygon fill="midnightblue" stroke="midnightblue" points="1468.4,-335.15 1478.92,-336.35 1471.44,-328.85 1468.4,-335.15"/>
</g>
<!-- Node23 -->
<g id="node45" class="node">
<title>Node23</title>
<g id="a_node45"><a xlink:href="api_2spec_2ipsec__types_8h.html" target="_top" xlink:title=" ">
<polygon fill="white" stroke="black" points="1456.5,-280.5 1456.5,-299.5 1539.5,-299.5 1539.5,-280.5 1456.5,-280.5"/>
<text text-anchor="middle" x="1498" y="-287.5" font-family="Helvetica,sans-Serif" font-size="10.00">ipsec_types.h</text>
</a>
</g>
</g>
<!-- Node22&#45;&gt;Node23 -->
<g id="edge59" class="edge">
<title>Node22&#45;&gt;Node23</title>
<path fill="none" stroke="midnightblue" d="M1498,-325.8C1498,-316.91 1498,-306.78 1498,-299.75"/>
<polygon fill="midnightblue" stroke="midnightblue" points="1494.5,-326.08 1498,-336.08 1501.5,-326.08 1494.5,-326.08"/>
</g>
<!-- Node24 -->
<g id="node46" class="node">
<title>Node24</title>
<g id="a_node46"><a xlink:href="api_2ipsec__types_8h.html" target="_top" xlink:title=" ">
<polygon fill="white" stroke="black" points="1456.5,-224.5 1456.5,-243.5 1539.5,-243.5 1539.5,-224.5 1456.5,-224.5"/>
<text text-anchor="middle" x="1498" y="-231.5" font-family="Helvetica,sans-Serif" font-size="10.00">ipsec_types.h</text>
</a>
</g>
</g>
<!-- Node23&#45;&gt;Node24 -->
<g id="edge60" class="edge">
<title>Node23&#45;&gt;Node24</title>
<path fill="none" stroke="midnightblue" d="M1498,-269.8C1498,-260.91 1498,-250.78 1498,-243.75"/>
<polygon fill="midnightblue" stroke="midnightblue" points="1494.5,-270.08 1498,-280.08 1501.5,-270.08 1494.5,-270.08"/>
</g>
<!-- Node24&#45;&gt;Node25 -->
<g id="edge61" class="edge">
<title>Node24&#45;&gt;Node25</title>
<path fill="none" stroke="midnightblue" d="M1496.6,-214.1C1495.94,-205.14 1495.17,-194.86 1494.65,-187.75"/>
<polygon fill="midnightblue" stroke="midnightblue" points="1493.11,-214.37 1497.34,-224.08 1500.09,-213.85 1493.11,-214.37"/>
</g>
<!-- Node32 -->
<g id="node48" class="node">
<title>Node32</title>
<g id="a_node48"><a xlink:href="api_2crypto_8h.html" target="_top" xlink:title=" ">
<polygon fill="white" stroke="black" points="1562,-168.5 1562,-187.5 1618,-187.5 1618,-168.5 1562,-168.5"/>
<text text-anchor="middle" x="1590" y="-175.5" font-family="Helvetica,sans-Serif" font-size="10.00">crypto.h</text>
</a>
</g>
</g>
<!-- Node31&#45;&gt;Node32 -->
<g id="edge65" class="edge">
<title>Node31&#45;&gt;Node32</title>
<path fill="none" stroke="midnightblue" d="M1618.34,-270.67C1610.9,-246.62 1598.16,-205.39 1592.66,-187.59"/>
<polygon fill="midnightblue" stroke="midnightblue" points="1615.04,-271.85 1621.33,-280.37 1621.72,-269.78 1615.04,-271.85"/>
</g>
<!-- Node32&#45;&gt;Node12 -->
<g id="edge66" class="edge">
<title>Node32&#45;&gt;Node12</title>
<path fill="none" stroke="midnightblue" d="M1578.71,-159.92C1559.38,-132.34 1517.07,-78.82 1466,-56 1407.57,-29.89 955.22,-15.4 830.02,-11.86"/>
<polygon fill="midnightblue" stroke="midnightblue" points="1575.83,-161.91 1584.36,-168.19 1581.61,-157.96 1575.83,-161.91"/>
</g>
<!-- Node30 -->
<g id="node50" class="node">
<title>Node30</title>
<g id="a_node50"><a xlink:href="api_2crypto__types_8h.html" target="_top" xlink:title=" ">
<polygon fill="white" stroke="black" points="1560.5,-336.5 1560.5,-355.5 1649.5,-355.5 1649.5,-336.5 1560.5,-336.5"/>
<text text-anchor="middle" x="1605" y="-343.5" font-family="Helvetica,sans-Serif" font-size="10.00">crypto_types.h</text>
</a>
</g>
</g>
<!-- Node29&#45;&gt;Node30 -->
<g id="edge68" class="edge">
<title>Node29&#45;&gt;Node30</title>
<path fill="none" stroke="midnightblue" d="M1605,-381.8C1605,-372.91 1605,-362.78 1605,-355.75"/>
<polygon fill="midnightblue" stroke="midnightblue" points="1601.5,-382.08 1605,-392.08 1608.5,-382.08 1601.5,-382.08"/>
</g>
<!-- Node30&#45;&gt;Node25 -->
<g id="edge70" class="edge">
<title>Node30&#45;&gt;Node25</title>
<path fill="none" stroke="midnightblue" d="M1597.71,-326.69C1585.81,-297.27 1562.2,-241.03 1549,-224 1537.36,-208.98 1519.82,-195.75 1507.69,-187.59"/>
<polygon fill="midnightblue" stroke="midnightblue" points="1594.56,-328.22 1601.53,-336.2 1601.05,-325.61 1594.56,-328.22"/>
</g>
<!-- Node30&#45;&gt;Node23 -->
<g id="edge71" class="edge">
<title>Node30&#45;&gt;Node23</title>
<path fill="none" stroke="midnightblue" d="M1578.7,-331.73C1558.89,-321.73 1532.29,-308.31 1515.15,-299.65"/>
<polygon fill="midnightblue" stroke="midnightblue" points="1577.3,-334.94 1587.81,-336.32 1580.46,-328.69 1577.3,-334.94"/>
</g>
<!-- Node30&#45;&gt;Node31 -->
<g id="edge69" class="edge">
<title>Node30&#45;&gt;Node31</title>
<path fill="none" stroke="midnightblue" d="M1611.55,-326.4C1614.72,-317.36 1618.39,-306.94 1620.92,-299.75"/>
<polygon fill="midnightblue" stroke="midnightblue" points="1608.15,-325.49 1608.14,-336.08 1614.76,-327.81 1608.15,-325.49"/>
</g>
</g>
</svg>
