<?xml version="1.0" encoding="UTF-8" standalone="no"?>
<!DOCTYPE svg PUBLIC "-//W3C//DTD SVG 1.1//EN"
 "http://www.w3.org/Graphics/SVG/1.1/DTD/svg11.dtd">
<!-- Generated by graphviz version 2.43.0 (0)
 -->
<!-- Title: odp_api.h Pages: 1 -->
<svg width="5362pt" height="140pt"
 viewBox="0.00 0.00 5361.50 140.00" xmlns="http://www.w3.org/2000/svg" xmlns:xlink="http://www.w3.org/1999/xlink">
<g id="graph0" class="graph" transform="scale(1 1) rotate(0) translate(4 136)">
<title>odp_api.h</title>
<polygon fill="white" stroke="transparent" points="-4,4 -4,-136 5357.5,-136 5357.5,4 -4,4"/>
<!-- Node1 -->
<g id="node1" class="node">
<title>Node1</title>
<g id="a_node1"><a xlink:title=" ">
<polygon fill="#bfbfbf" stroke="black" points="2582.5,-112.5 2582.5,-131.5 2646.5,-131.5 2646.5,-112.5 2582.5,-112.5"/>
<text text-anchor="middle" x="2614.5" y="-119.5" font-family="Helvetica,sans-Serif" font-size="10.00">odp_api.h</text>
</a>
</g>
</g>
<!-- Node2 -->
<g id="node2" class="node">
<title>Node2</title>
<g id="a_node2"><a xlink:href="deprecated_8h.html" target="_top" xlink:title=" ">
<polygon fill="white" stroke="black" points="24,-56.5 24,-75.5 143,-75.5 143,-56.5 24,-56.5"/>
<text text-anchor="middle" x="83.5" y="-63.5" font-family="Helvetica,sans-Serif" font-size="10.00">odp/api/deprecated.h</text>
</a>
</g>
</g>
<!-- Node1&#45;&gt;Node2 -->
<g id="edge1" class="edge">
<title>Node1&#45;&gt;Node2</title>
<path fill="none" stroke="midnightblue" d="M2582.33,-120.83C2329.95,-119.45 664.61,-109.13 162.5,-76 159.59,-75.81 156.63,-75.59 153.64,-75.34"/>
<polygon fill="midnightblue" stroke="midnightblue" points="153.67,-71.83 143.4,-74.43 153.05,-78.8 153.67,-71.83"/>
</g>
<!-- Node6 -->
<g id="node4" class="node">
<title>Node6</title>
<g id="a_node4"><a xlink:href="api_2version_8h.html" target="_top" xlink:title=" ">
<polygon fill="white" stroke="black" points="172,-56.5 172,-75.5 273,-75.5 273,-56.5 172,-56.5"/>
<text text-anchor="middle" x="222.5" y="-63.5" font-family="Helvetica,sans-Serif" font-size="10.00">odp/api/version.h</text>
</a>
</g>
</g>
<!-- Node1&#45;&gt;Node6 -->
<g id="edge3" class="edge">
<title>Node1&#45;&gt;Node6</title>
<path fill="none" stroke="midnightblue" d="M2582.43,-120.9C2337.71,-120.08 762.58,-113.35 287.5,-76 286.19,-75.9 284.87,-75.79 283.53,-75.67"/>
<polygon fill="midnightblue" stroke="midnightblue" points="283.48,-72.14 273.18,-74.61 282.77,-79.11 283.48,-72.14"/>
</g>
<!-- Node9 -->
<g id="node7" class="node">
<title>Node9</title>
<g id="a_node7"><a xlink:href="api_2std__types_8h.html" target="_top" xlink:title=" ">
<polygon fill="white" stroke="red" points="1871.5,-0.5 1871.5,-19.5 1983.5,-19.5 1983.5,-0.5 1871.5,-0.5"/>
<text text-anchor="middle" x="1927.5" y="-7.5" font-family="Helvetica,sans-Serif" font-size="10.00">odp/api/std_types.h</text>
</a>
</g>
</g>
<!-- Node1&#45;&gt;Node9 -->
<g id="edge6" class="edge">
<title>Node1&#45;&gt;Node9</title>
<path fill="none" stroke="midnightblue" d="M2646.68,-120.5C2797.16,-118 3425.25,-105.81 3453.5,-76 3459.61,-69.55 3459.69,-62.38 3453.5,-56 3427.72,-29.45 2285.2,-14.97 1994.32,-11.71"/>
<polygon fill="midnightblue" stroke="midnightblue" points="1993.97,-8.21 1983.93,-11.6 1993.89,-15.21 1993.97,-8.21"/>
</g>
<!-- Node13 -->
<g id="node8" class="node">
<title>Node13</title>
<g id="a_node8"><a xlink:href="api_2align_8h.html" target="_top" xlink:title=" ">
<polygon fill="white" stroke="red" points="330,-56.5 330,-75.5 419,-75.5 419,-56.5 330,-56.5"/>
<text text-anchor="middle" x="374.5" y="-63.5" font-family="Helvetica,sans-Serif" font-size="10.00">odp/api/align.h</text>
</a>
</g>
</g>
<!-- Node1&#45;&gt;Node13 -->
<g id="edge7" class="edge">
<title>Node1&#45;&gt;Node13</title>
<path fill="none" stroke="midnightblue" d="M2582.49,-120.99C2348.16,-120.83 893.74,-118.14 429.37,-76.02"/>
<polygon fill="midnightblue" stroke="midnightblue" points="429.54,-72.52 419.26,-75.08 428.89,-79.49 429.54,-72.52"/>
</g>
<!-- Node16 -->
<g id="node9" class="node">
<title>Node16</title>
<g id="a_node9"><a xlink:href="api_2hash_8h.html" target="_top" xlink:title=" ">
<polygon fill="white" stroke="red" points="436.5,-56.5 436.5,-75.5 524.5,-75.5 524.5,-56.5 436.5,-56.5"/>
<text text-anchor="middle" x="480.5" y="-63.5" font-family="Helvetica,sans-Serif" font-size="10.00">odp/api/hash.h</text>
</a>
</g>
</g>
<!-- Node1&#45;&gt;Node16 -->
<g id="edge8" class="edge">
<title>Node1&#45;&gt;Node16</title>
<path fill="none" stroke="midnightblue" d="M2582.24,-120.94C2353.85,-120.4 977.44,-115.59 534.6,-75.8"/>
<polygon fill="midnightblue" stroke="midnightblue" points="534.92,-72.32 524.64,-74.89 534.27,-79.29 534.92,-72.32"/>
</g>
<!-- Node19 -->
<g id="node10" class="node">
<title>Node19</title>
<g id="a_node10"><a xlink:href="chksum_8h.html" target="_top" xlink:title=" ">
<polygon fill="white" stroke="red" points="543,-56.5 543,-75.5 646,-75.5 646,-56.5 543,-56.5"/>
<text text-anchor="middle" x="594.5" y="-63.5" font-family="Helvetica,sans-Serif" font-size="10.00">odp/api/chksum.h</text>
</a>
</g>
</g>
<!-- Node1&#45;&gt;Node19 -->
<g id="edge9" class="edge">
<title>Node1&#45;&gt;Node19</title>
<path fill="none" stroke="midnightblue" d="M2582.37,-120.81C2362.22,-119.4 1073.11,-109.84 656.02,-75.89"/>
<polygon fill="midnightblue" stroke="midnightblue" points="656.29,-72.4 646.03,-75.06 655.71,-79.38 656.29,-72.4"/>
</g>
<!-- Node21 -->
<g id="node11" class="node">
<title>Node21</title>
<g id="a_node11"><a xlink:href="api_2comp_8h.html" target="_top" xlink:title=" ">
<polygon fill="white" stroke="red" points="664.5,-56.5 664.5,-75.5 756.5,-75.5 756.5,-56.5 664.5,-56.5"/>
<text text-anchor="middle" x="710.5" y="-63.5" font-family="Helvetica,sans-Serif" font-size="10.00">odp/api/comp.h</text>
</a>
</g>
</g>
<!-- Node1&#45;&gt;Node21 -->
<g id="edge10" class="edge">
<title>Node1&#45;&gt;Node21</title>
<path fill="none" stroke="midnightblue" d="M2582.49,-120.81C2370.03,-119.48 1160.33,-110.5 766.58,-75.81"/>
<polygon fill="midnightblue" stroke="midnightblue" points="766.86,-72.32 756.58,-74.91 766.23,-79.3 766.86,-72.32"/>
</g>
<!-- Node43 -->
<g id="node12" class="node">
<title>Node43</title>
<g id="a_node12"><a xlink:href="hints_8h.html" target="_top" xlink:title=" ">
<polygon fill="white" stroke="red" points="775,-56.5 775,-75.5 864,-75.5 864,-56.5 775,-56.5"/>
<text text-anchor="middle" x="819.5" y="-63.5" font-family="Helvetica,sans-Serif" font-size="10.00">odp/api/hints.h</text>
</a>
</g>
</g>
<!-- Node1&#45;&gt;Node43 -->
<g id="edge11" class="edge">
<title>Node1&#45;&gt;Node43</title>
<path fill="none" stroke="midnightblue" d="M2582.36,-120.78C2376.93,-119.29 1244.86,-109.71 874.43,-75.9"/>
<polygon fill="midnightblue" stroke="midnightblue" points="874.51,-72.4 864.23,-74.95 873.86,-79.36 874.51,-72.4"/>
</g>
<!-- Node45 -->
<g id="node13" class="node">
<title>Node45</title>
<g id="a_node13"><a xlink:href="api_2debug_8h.html" target="_top" xlink:title=" ">
<polygon fill="white" stroke="red" points="882,-56.5 882,-75.5 977,-75.5 977,-56.5 882,-56.5"/>
<text text-anchor="middle" x="929.5" y="-63.5" font-family="Helvetica,sans-Serif" font-size="10.00">odp/api/debug.h</text>
</a>
</g>
</g>
<!-- Node1&#45;&gt;Node45 -->
<g id="edge12" class="edge">
<title>Node1&#45;&gt;Node45</title>
<path fill="none" stroke="midnightblue" d="M2582.23,-120.68C2384.44,-118.61 1333.55,-106.38 987.07,-75.88"/>
<polygon fill="midnightblue" stroke="midnightblue" points="987.3,-72.39 977.03,-74.97 986.67,-79.36 987.3,-72.39"/>
</g>
<!-- Node48 -->
<g id="node14" class="node">
<title>Node48</title>
<g id="a_node14"><a xlink:href="api_2byteorder_8h.html" target="_top" xlink:title=" ">
<polygon fill="white" stroke="red" points="995,-56.5 995,-75.5 1106,-75.5 1106,-56.5 995,-56.5"/>
<text text-anchor="middle" x="1050.5" y="-63.5" font-family="Helvetica,sans-Serif" font-size="10.00">odp/api/byteorder.h</text>
</a>
</g>
</g>
<!-- Node1&#45;&gt;Node48 -->
<g id="edge13" class="edge">
<title>Node1&#45;&gt;Node48</title>
<path fill="none" stroke="midnightblue" d="M2582.26,-121.32C2423.67,-122.6 1710.57,-125.27 1116.18,-75.94"/>
<polygon fill="midnightblue" stroke="midnightblue" points="1116.38,-72.45 1106.13,-75.1 1115.8,-79.42 1116.38,-72.45"/>
</g>
<!-- Node51 -->
<g id="node15" class="node">
<title>Node51</title>
<g id="a_node15"><a xlink:href="api_2cpu_8h.html" target="_top" xlink:title=" ">
<polygon fill="white" stroke="red" points="1124.5,-56.5 1124.5,-75.5 1206.5,-75.5 1206.5,-56.5 1124.5,-56.5"/>
<text text-anchor="middle" x="1165.5" y="-63.5" font-family="Helvetica,sans-Serif" font-size="10.00">odp/api/cpu.h</text>
</a>
</g>
</g>
<!-- Node1&#45;&gt;Node51 -->
<g id="edge14" class="edge">
<title>Node1&#45;&gt;Node51</title>
<path fill="none" stroke="midnightblue" d="M2582.27,-120.53C2400.05,-117.78 1497.34,-103 1220.5,-76 1219.23,-75.88 1217.94,-75.74 1216.64,-75.6"/>
<polygon fill="midnightblue" stroke="midnightblue" points="1216.93,-72.1 1206.57,-74.32 1216.05,-79.05 1216.93,-72.1"/>
</g>
<!-- Node53 -->
<g id="node16" class="node">
<title>Node53</title>
<g id="a_node16"><a xlink:href="api_2thread_8h.html" target="_top" xlink:title=" ">
<polygon fill="white" stroke="red" points="860.5,-0.5 860.5,-19.5 956.5,-19.5 956.5,-0.5 860.5,-0.5"/>
<text text-anchor="middle" x="908.5" y="-7.5" font-family="Helvetica,sans-Serif" font-size="10.00">odp/api/thread.h</text>
</a>
</g>
</g>
<!-- Node1&#45;&gt;Node53 -->
<g id="edge25" class="edge">
<title>Node1&#45;&gt;Node53</title>
<path fill="none" stroke="midnightblue" d="M2582.25,-120.99C2307.04,-120.84 361.96,-118.28 320.5,-76 314.28,-69.65 314.46,-62.52 320.5,-56 356.01,-17.67 708.79,-11.86 850.26,-11.07"/>
<polygon fill="midnightblue" stroke="midnightblue" points="850.49,-14.57 860.48,-11.02 850.46,-7.57 850.49,-14.57"/>
</g>
<!-- Node58 -->
<g id="node17" class="node">
<title>Node58</title>
<g id="a_node17"><a xlink:href="api_2cpumask_8h.html" target="_top" xlink:title=" ">
<polygon fill="white" stroke="red" points="1263,-56.5 1263,-75.5 1372,-75.5 1372,-56.5 1263,-56.5"/>
<text text-anchor="middle" x="1317.5" y="-63.5" font-family="Helvetica,sans-Serif" font-size="10.00">odp/api/cpumask.h</text>
</a>
</g>
</g>
<!-- Node1&#45;&gt;Node58 -->
<g id="edge16" class="edge">
<title>Node1&#45;&gt;Node58</title>
<path fill="none" stroke="midnightblue" d="M2582.04,-121.04C2440.79,-120.98 1865.55,-118.07 1382.59,-75.99"/>
<polygon fill="midnightblue" stroke="midnightblue" points="1382.54,-72.47 1372.27,-75.08 1381.93,-79.44 1382.54,-72.47"/>
</g>
<!-- Node61 -->
<g id="node18" class="node">
<title>Node61</title>
<g id="a_node18"><a xlink:href="api_2barrier_8h.html" target="_top" xlink:title=" ">
<polygon fill="white" stroke="red" points="1390.5,-56.5 1390.5,-75.5 1486.5,-75.5 1486.5,-56.5 1390.5,-56.5"/>
<text text-anchor="middle" x="1438.5" y="-63.5" font-family="Helvetica,sans-Serif" font-size="10.00">odp/api/barrier.h</text>
</a>
</g>
</g>
<!-- Node1&#45;&gt;Node61 -->
<g id="edge17" class="edge">
<title>Node1&#45;&gt;Node61</title>
<path fill="none" stroke="midnightblue" d="M2582.39,-121.04C2448.89,-120.93 1924.75,-117.71 1496.5,-76 1496.4,-75.99 1496.3,-75.98 1496.2,-75.97"/>
<polygon fill="midnightblue" stroke="midnightblue" points="1496.88,-72.53 1486.55,-74.89 1496.1,-79.48 1496.88,-72.53"/>
</g>
<!-- Node62 -->
<g id="node19" class="node">
<title>Node62</title>
<g id="a_node19"><a xlink:href="api_2atomic_8h.html" target="_top" xlink:title=" ">
<polygon fill="white" stroke="red" points="1287.5,-0.5 1287.5,-19.5 1385.5,-19.5 1385.5,-0.5 1287.5,-0.5"/>
<text text-anchor="middle" x="1336.5" y="-7.5" font-family="Helvetica,sans-Serif" font-size="10.00">odp/api/atomic.h</text>
</a>
</g>
</g>
<!-- Node1&#45;&gt;Node62 -->
<g id="edge21" class="edge">
<title>Node1&#45;&gt;Node62</title>
<path fill="none" stroke="midnightblue" d="M2582.46,-121.18C2381.55,-122.19 1302.16,-125.26 1254.5,-76 1234.55,-55.38 1270.41,-35.47 1300.82,-23.24"/>
<polygon fill="midnightblue" stroke="midnightblue" points="1302.35,-26.4 1310.43,-19.54 1299.84,-19.86 1302.35,-26.4"/>
</g>
<!-- Node68 -->
<g id="node20" class="node">
<title>Node68</title>
<g id="a_node20"><a xlink:href="api_2spinlock_8h.html" target="_top" xlink:title=" ">
<polygon fill="white" stroke="red" points="1642,-56.5 1642,-75.5 1747,-75.5 1747,-56.5 1642,-56.5"/>
<text text-anchor="middle" x="1694.5" y="-63.5" font-family="Helvetica,sans-Serif" font-size="10.00">odp/api/spinlock.h</text>
</a>
</g>
</g>
<!-- Node1&#45;&gt;Node68 -->
<g id="edge20" class="edge">
<title>Node1&#45;&gt;Node68</title>
<path fill="none" stroke="midnightblue" d="M2582.48,-120.38C2470.49,-117.99 2085.88,-107.9 1757.42,-75.99"/>
<polygon fill="midnightblue" stroke="midnightblue" points="1757.52,-72.48 1747.22,-74.99 1756.84,-79.45 1757.52,-72.48"/>
</g>
<!-- Node71 -->
<g id="node21" class="node">
<title>Node71</title>
<g id="a_node21"><a xlink:href="api_2init_8h.html" target="_top" xlink:title=" ">
<polygon fill="white" stroke="red" points="1765.5,-56.5 1765.5,-75.5 1845.5,-75.5 1845.5,-56.5 1765.5,-56.5"/>
<text text-anchor="middle" x="1805.5" y="-63.5" font-family="Helvetica,sans-Serif" font-size="10.00">odp/api/init.h</text>
</a>
</g>
</g>
<!-- Node1&#45;&gt;Node71 -->
<g id="edge22" class="edge">
<title>Node1&#45;&gt;Node71</title>
<path fill="none" stroke="midnightblue" d="M2582.15,-120.5C2478.15,-118.6 2142.96,-110.13 1855.75,-75.99"/>
<polygon fill="midnightblue" stroke="midnightblue" points="1855.9,-72.49 1845.55,-74.77 1855.06,-79.44 1855.9,-72.49"/>
</g>
<!-- Node74 -->
<g id="node22" class="node">
<title>Node74</title>
<g id="a_node22"><a xlink:href="system__info_8h.html" target="_top" xlink:title=" ">
<polygon fill="white" stroke="red" points="3614,-56.5 3614,-75.5 3739,-75.5 3739,-56.5 3614,-56.5"/>
<text text-anchor="middle" x="3676.5" y="-63.5" font-family="Helvetica,sans-Serif" font-size="10.00">odp/api/system_info.h</text>
</a>
</g>
</g>
<!-- Node1&#45;&gt;Node74 -->
<g id="edge23" class="edge">
<title>Node1&#45;&gt;Node74</title>
<path fill="none" stroke="midnightblue" d="M2646.64,-120.48C2769.5,-118.31 3221.24,-108.51 3603.65,-76.09"/>
<polygon fill="midnightblue" stroke="midnightblue" points="3604.14,-79.56 3613.81,-75.23 3603.55,-72.59 3604.14,-79.56"/>
</g>
<!-- Node76 -->
<g id="node23" class="node">
<title>Node76</title>
<g id="a_node23"><a xlink:href="api_2shared__memory_8h.html" target="_top" xlink:title=" ">
<polygon fill="white" stroke="red" points="2010,-56.5 2010,-75.5 2153,-75.5 2153,-56.5 2010,-56.5"/>
<text text-anchor="middle" x="2081.5" y="-63.5" font-family="Helvetica,sans-Serif" font-size="10.00">odp/api/shared_memory.h</text>
</a>
</g>
</g>
<!-- Node1&#45;&gt;Node76 -->
<g id="edge26" class="edge">
<title>Node1&#45;&gt;Node76</title>
<path fill="none" stroke="midnightblue" d="M2582.43,-117.93C2509.93,-110.98 2327.62,-93.33 2163.34,-76.08"/>
<polygon fill="midnightblue" stroke="midnightblue" points="2163.36,-72.56 2153.05,-74.99 2162.63,-79.52 2163.36,-72.56"/>
</g>
<!-- Node78 -->
<g id="node24" class="node">
<title>Node78</title>
<g id="a_node24"><a xlink:href="api_2buffer_8h.html" target="_top" xlink:title=" ">
<polygon fill="white" stroke="red" points="2171.5,-56.5 2171.5,-75.5 2263.5,-75.5 2263.5,-56.5 2171.5,-56.5"/>
<text text-anchor="middle" x="2217.5" y="-63.5" font-family="Helvetica,sans-Serif" font-size="10.00">odp/api/buffer.h</text>
</a>
</g>
</g>
<!-- Node1&#45;&gt;Node78 -->
<g id="edge27" class="edge">
<title>Node1&#45;&gt;Node78</title>
<path fill="none" stroke="midnightblue" d="M2582.39,-117.12C2523.41,-109.91 2393.6,-93.7 2273.78,-76.15"/>
<polygon fill="midnightblue" stroke="midnightblue" points="2274.1,-72.66 2263.7,-74.67 2273.08,-79.59 2274.1,-72.66"/>
</g>
<!-- Node90 -->
<g id="node25" class="node">
<title>Node90</title>
<g id="a_node25"><a xlink:href="api_2pool_8h.html" target="_top" xlink:title=" ">
<polygon fill="white" stroke="red" points="2281.5,-56.5 2281.5,-75.5 2367.5,-75.5 2367.5,-56.5 2281.5,-56.5"/>
<text text-anchor="middle" x="2324.5" y="-63.5" font-family="Helvetica,sans-Serif" font-size="10.00">odp/api/pool.h</text>
</a>
</g>
</g>
<!-- Node1&#45;&gt;Node90 -->
<g id="edge28" class="edge">
<title>Node1&#45;&gt;Node90</title>
<path fill="none" stroke="midnightblue" d="M2582.36,-115.01C2532.87,-105.8 2437.48,-88.04 2377.62,-76.89"/>
<polygon fill="midnightblue" stroke="midnightblue" points="2378.07,-73.42 2367.6,-75.03 2376.79,-80.3 2378.07,-73.42"/>
</g>
<!-- Node93 -->
<g id="node26" class="node">
<title>Node93</title>
<g id="a_node26"><a xlink:href="api_2queue_8h.html" target="_top" xlink:title=" ">
<polygon fill="white" stroke="red" points="2386,-56.5 2386,-75.5 2481,-75.5 2481,-56.5 2386,-56.5"/>
<text text-anchor="middle" x="2433.5" y="-63.5" font-family="Helvetica,sans-Serif" font-size="10.00">odp/api/queue.h</text>
</a>
</g>
</g>
<!-- Node1&#45;&gt;Node93 -->
<g id="edge29" class="edge">
<title>Node1&#45;&gt;Node93</title>
<path fill="none" stroke="midnightblue" d="M2585.82,-112.44C2554.97,-103.24 2505.77,-88.56 2471.67,-78.39"/>
<polygon fill="midnightblue" stroke="midnightblue" points="2472.63,-75.02 2462.05,-75.52 2470.63,-81.73 2472.63,-75.02"/>
</g>
<!-- Node96 -->
<g id="node27" class="node">
<title>Node96</title>
<g id="a_node27"><a xlink:href="api_2ticketlock_8h.html" target="_top" xlink:title=" ">
<polygon fill="white" stroke="red" points="2499.5,-56.5 2499.5,-75.5 2611.5,-75.5 2611.5,-56.5 2499.5,-56.5"/>
<text text-anchor="middle" x="2555.5" y="-63.5" font-family="Helvetica,sans-Serif" font-size="10.00">odp/api/ticketlock.h</text>
</a>
</g>
</g>
<!-- Node1&#45;&gt;Node96 -->
<g id="edge30" class="edge">
<title>Node1&#45;&gt;Node96</title>
<path fill="none" stroke="midnightblue" d="M2605.02,-112.32C2596.3,-104.34 2583.16,-92.31 2572.6,-82.65"/>
<polygon fill="midnightblue" stroke="midnightblue" points="2574.89,-80 2565.15,-75.83 2570.17,-85.17 2574.89,-80"/>
</g>
<!-- Node99 -->
<g id="node28" class="node">
<title>Node99</title>
<g id="a_node28"><a xlink:href="api_2time_8h.html" target="_top" xlink:title=" ">
<polygon fill="white" stroke="red" points="2630,-56.5 2630,-75.5 2717,-75.5 2717,-56.5 2630,-56.5"/>
<text text-anchor="middle" x="2673.5" y="-63.5" font-family="Helvetica,sans-Serif" font-size="10.00">odp/api/time.h</text>
</a>
</g>
</g>
<!-- Node1&#45;&gt;Node99 -->
<g id="edge31" class="edge">
<title>Node1&#45;&gt;Node99</title>
<path fill="none" stroke="midnightblue" d="M2623.98,-112.32C2632.7,-104.34 2645.84,-92.31 2656.4,-82.65"/>
<polygon fill="midnightblue" stroke="midnightblue" points="2658.83,-85.17 2663.85,-75.83 2654.11,-80 2658.83,-85.17"/>
</g>
<!-- Node105 -->
<g id="node29" class="node">
<title>Node105</title>
<g id="a_node29"><a xlink:href="api_2timer_8h.html" target="_top" xlink:title=" ">
<polygon fill="white" stroke="red" points="2735.5,-56.5 2735.5,-75.5 2825.5,-75.5 2825.5,-56.5 2735.5,-56.5"/>
<text text-anchor="middle" x="2780.5" y="-63.5" font-family="Helvetica,sans-Serif" font-size="10.00">odp/api/timer.h</text>
</a>
</g>
</g>
<!-- Node1&#45;&gt;Node105 -->
<g id="edge32" class="edge">
<title>Node1&#45;&gt;Node105</title>
<path fill="none" stroke="midnightblue" d="M2640.8,-112.44C2668.85,-103.32 2713.44,-88.81 2744.68,-78.65"/>
<polygon fill="midnightblue" stroke="midnightblue" points="2745.89,-81.94 2754.32,-75.52 2743.73,-75.28 2745.89,-81.94"/>
</g>
<!-- Node111 -->
<g id="node30" class="node">
<title>Node111</title>
<g id="a_node30"><a xlink:href="api_2schedule_8h.html" target="_top" xlink:title=" ">
<polygon fill="white" stroke="red" points="2843.5,-56.5 2843.5,-75.5 2951.5,-75.5 2951.5,-56.5 2843.5,-56.5"/>
<text text-anchor="middle" x="2897.5" y="-63.5" font-family="Helvetica,sans-Serif" font-size="10.00">odp/api/schedule.h</text>
</a>
</g>
</g>
<!-- Node1&#45;&gt;Node111 -->
<g id="edge33" class="edge">
<title>Node1&#45;&gt;Node111</title>
<path fill="none" stroke="midnightblue" d="M2646.69,-114.86C2694.38,-105.76 2784.45,-88.57 2842.67,-77.46"/>
<polygon fill="midnightblue" stroke="midnightblue" points="2843.63,-80.84 2852.8,-75.53 2842.32,-73.97 2843.63,-80.84"/>
</g>
<!-- Node114 -->
<g id="node31" class="node">
<title>Node114</title>
<g id="a_node31"><a xlink:href="api_2sync_8h.html" target="_top" xlink:title=" ">
<polygon fill="white" stroke="red" points="2970,-56.5 2970,-75.5 3057,-75.5 3057,-56.5 2970,-56.5"/>
<text text-anchor="middle" x="3013.5" y="-63.5" font-family="Helvetica,sans-Serif" font-size="10.00">odp/api/sync.h</text>
</a>
</g>
</g>
<!-- Node1&#45;&gt;Node114 -->
<g id="edge34" class="edge">
<title>Node1&#45;&gt;Node114</title>
<path fill="none" stroke="midnightblue" d="M2646.52,-117.26C2705.98,-110.22 2837.72,-94.19 2959.6,-76.08"/>
<polygon fill="midnightblue" stroke="midnightblue" points="2960.48,-79.49 2969.85,-74.55 2959.44,-72.57 2960.48,-79.49"/>
</g>
<!-- Node117 -->
<g id="node32" class="node">
<title>Node117</title>
<g id="a_node32"><a xlink:href="api_2packet_8h.html" target="_top" xlink:title=" ">
<polygon fill="white" stroke="red" points="3075,-56.5 3075,-75.5 3172,-75.5 3172,-56.5 3075,-56.5"/>
<text text-anchor="middle" x="3123.5" y="-63.5" font-family="Helvetica,sans-Serif" font-size="10.00">odp/api/packet.h</text>
</a>
</g>
</g>
<!-- Node1&#45;&gt;Node117 -->
<g id="edge35" class="edge">
<title>Node1&#45;&gt;Node117</title>
<path fill="none" stroke="midnightblue" d="M2646.63,-118.44C2719.25,-112.51 2901.79,-96.86 3064.52,-76.2"/>
<polygon fill="midnightblue" stroke="midnightblue" points="3065.23,-79.63 3074.71,-74.89 3064.35,-72.69 3065.23,-79.63"/>
</g>
<!-- Node126 -->
<g id="node33" class="node">
<title>Node126</title>
<g id="a_node33"><a xlink:href="api_2packet__flags_8h.html" target="_top" xlink:title=" ">
<polygon fill="white" stroke="red" points="3190,-56.5 3190,-75.5 3315,-75.5 3315,-56.5 3190,-56.5"/>
<text text-anchor="middle" x="3252.5" y="-63.5" font-family="Helvetica,sans-Serif" font-size="10.00">odp/api/packet_flags.h</text>
</a>
</g>
</g>
<!-- Node1&#45;&gt;Node126 -->
<g id="edge36" class="edge">
<title>Node1&#45;&gt;Node126</title>
<path fill="none" stroke="midnightblue" d="M2646.52,-118.99C2731.55,-113.53 2970.31,-97.47 3179.54,-76.16"/>
<polygon fill="midnightblue" stroke="midnightblue" points="3180.21,-79.61 3189.8,-75.11 3179.49,-72.65 3180.21,-79.61"/>
</g>
<!-- Node129 -->
<g id="node34" class="node">
<title>Node129</title>
<g id="a_node34"><a xlink:href="api_2packet__io_8h.html" target="_top" xlink:title=" ">
<polygon fill="white" stroke="red" points="3333,-56.5 3333,-75.5 3444,-75.5 3444,-56.5 3333,-56.5"/>
<text text-anchor="middle" x="3388.5" y="-63.5" font-family="Helvetica,sans-Serif" font-size="10.00">odp/api/packet_io.h</text>
</a>
</g>
</g>
<!-- Node1&#45;&gt;Node129 -->
<g id="edge37" class="edge">
<title>Node1&#45;&gt;Node129</title>
<path fill="none" stroke="midnightblue" d="M2646.77,-119.83C2746.02,-116.06 3055.7,-102.9 3322.42,-76.14"/>
<polygon fill="midnightblue" stroke="midnightblue" points="3323.09,-79.59 3332.68,-75.11 3322.38,-72.63 3323.09,-79.59"/>
</g>
<!-- Node137 -->
<g id="node35" class="node">
<title>Node137</title>
<g id="a_node35"><a xlink:href="api_2proto__stats_8h.html" target="_top" xlink:title=" ">
<polygon fill="white" stroke="red" points="1505,-56.5 1505,-75.5 1624,-75.5 1624,-56.5 1505,-56.5"/>
<text text-anchor="middle" x="1564.5" y="-63.5" font-family="Helvetica,sans-Serif" font-size="10.00">odp/api/proto_stats.h</text>
</a>
</g>
</g>
<!-- Node1&#45;&gt;Node137 -->
<g id="edge38" class="edge">
<title>Node1&#45;&gt;Node137</title>
<path fill="none" stroke="midnightblue" d="M2582.26,-120.5C2460.02,-118.41 2013.39,-108.9 1634.37,-75.99"/>
<polygon fill="midnightblue" stroke="midnightblue" points="1634.57,-72.5 1624.31,-75.11 1633.96,-79.47 1634.57,-72.5"/>
</g>
<!-- Node140 -->
<g id="node36" class="node">
<title>Node140</title>
<g id="a_node36"><a xlink:href="api_2crypto_8h.html" target="_top" xlink:title=" ">
<polygon fill="white" stroke="red" points="3501,-56.5 3501,-75.5 3596,-75.5 3596,-56.5 3501,-56.5"/>
<text text-anchor="middle" x="3548.5" y="-63.5" font-family="Helvetica,sans-Serif" font-size="10.00">odp/api/crypto.h</text>
</a>
</g>
</g>
<!-- Node1&#45;&gt;Node140 -->
<g id="edge40" class="edge">
<title>Node1&#45;&gt;Node140</title>
<path fill="none" stroke="midnightblue" d="M2646.65,-120.41C2761.12,-118.1 3159.5,-108.1 3486.5,-76 3487.81,-75.87 3489.13,-75.74 3490.47,-75.59"/>
<polygon fill="midnightblue" stroke="midnightblue" points="3491.3,-79.02 3500.83,-74.37 3490.49,-72.07 3491.3,-79.02"/>
</g>
<!-- Node132 -->
<g id="node37" class="node">
<title>Node132</title>
<g id="a_node37"><a xlink:href="api_2classification_8h.html" target="_top" xlink:title=" ">
<polygon fill="white" stroke="red" points="1863.5,-56.5 1863.5,-75.5 1991.5,-75.5 1991.5,-56.5 1863.5,-56.5"/>
<text text-anchor="middle" x="1927.5" y="-63.5" font-family="Helvetica,sans-Serif" font-size="10.00">odp/api/classification.h</text>
</a>
</g>
</g>
<!-- Node1&#45;&gt;Node132 -->
<g id="edge41" class="edge">
<title>Node1&#45;&gt;Node132</title>
<path fill="none" stroke="midnightblue" d="M2582.22,-119.18C2492.28,-113.98 2231.01,-98.08 2001.85,-75.98"/>
<polygon fill="midnightblue" stroke="midnightblue" points="2001.95,-72.48 1991.65,-74.99 2001.27,-79.44 2001.95,-72.48"/>
</g>
<!-- Node146 -->
<g id="node38" class="node">
<title>Node146</title>
<g id="a_node38"><a xlink:href="api_2rwlock_8h.html" target="_top" xlink:title=" ">
<polygon fill="white" stroke="red" points="3757,-56.5 3757,-75.5 3854,-75.5 3854,-56.5 3757,-56.5"/>
<text text-anchor="middle" x="3805.5" y="-63.5" font-family="Helvetica,sans-Serif" font-size="10.00">odp/api/rwlock.h</text>
</a>
</g>
</g>
<!-- Node1&#45;&gt;Node146 -->
<g id="edge43" class="edge">
<title>Node1&#45;&gt;Node146</title>
<path fill="none" stroke="midnightblue" d="M2646.61,-121.1C2780.27,-121.22 3305.65,-118.84 3746.66,-76.07"/>
<polygon fill="midnightblue" stroke="midnightblue" points="3747.12,-79.54 3756.73,-75.08 3746.44,-72.57 3747.12,-79.54"/>
</g>
<!-- Node149 -->
<g id="node39" class="node">
<title>Node149</title>
<g id="a_node39"><a xlink:href="api_2event_8h.html" target="_top" xlink:title=" ">
<polygon fill="white" stroke="red" points="3872.5,-56.5 3872.5,-75.5 3964.5,-75.5 3964.5,-56.5 3872.5,-56.5"/>
<text text-anchor="middle" x="3918.5" y="-63.5" font-family="Helvetica,sans-Serif" font-size="10.00">odp/api/event.h</text>
</a>
</g>
</g>
<!-- Node1&#45;&gt;Node149 -->
<g id="edge44" class="edge">
<title>Node1&#45;&gt;Node149</title>
<path fill="none" stroke="midnightblue" d="M2646.93,-121.33C2789.31,-122.48 3373.41,-123.91 3862.26,-75.98"/>
<polygon fill="midnightblue" stroke="midnightblue" points="3862.74,-79.45 3872.34,-74.99 3862.05,-72.49 3862.74,-79.45"/>
</g>
<!-- Node152 -->
<g id="node40" class="node">
<title>Node152</title>
<g id="a_node40"><a xlink:href="api_2random_8h.html" target="_top" xlink:title=" ">
<polygon fill="white" stroke="red" points="3982.5,-56.5 3982.5,-75.5 4084.5,-75.5 4084.5,-56.5 3982.5,-56.5"/>
<text text-anchor="middle" x="4033.5" y="-63.5" font-family="Helvetica,sans-Serif" font-size="10.00">odp/api/random.h</text>
</a>
</g>
</g>
<!-- Node1&#45;&gt;Node152 -->
<g id="edge45" class="edge">
<title>Node1&#45;&gt;Node152</title>
<path fill="none" stroke="midnightblue" d="M2646.69,-121.31C2796.09,-122.45 3436.93,-124.19 3972.24,-75.99"/>
<polygon fill="midnightblue" stroke="midnightblue" points="3972.84,-79.45 3982.49,-75.06 3972.21,-72.48 3972.84,-79.45"/>
</g>
<!-- Node157 -->
<g id="node41" class="node">
<title>Node157</title>
<g id="a_node41"><a xlink:href="api_2errno_8h.html" target="_top" xlink:title=" ">
<polygon fill="white" stroke="red" points="4102.5,-56.5 4102.5,-75.5 4192.5,-75.5 4192.5,-56.5 4102.5,-56.5"/>
<text text-anchor="middle" x="4147.5" y="-63.5" font-family="Helvetica,sans-Serif" font-size="10.00">odp/api/errno.h</text>
</a>
</g>
</g>
<!-- Node1&#45;&gt;Node157 -->
<g id="edge46" class="edge">
<title>Node1&#45;&gt;Node157</title>
<path fill="none" stroke="midnightblue" d="M2646.52,-120.61C2832.7,-118.28 3778.07,-105.2 4092.46,-75.93"/>
<polygon fill="midnightblue" stroke="midnightblue" points="4092.86,-79.41 4102.48,-74.97 4092.19,-72.44 4092.86,-79.41"/>
</g>
<!-- Node40 -->
<g id="node42" class="node">
<title>Node40</title>
<g id="a_node42"><a xlink:href="api_2thrmask_8h.html" target="_top" xlink:title=" ">
<polygon fill="white" stroke="red" points="4211,-56.5 4211,-75.5 4316,-75.5 4316,-56.5 4211,-56.5"/>
<text text-anchor="middle" x="4263.5" y="-63.5" font-family="Helvetica,sans-Serif" font-size="10.00">odp/api/thrmask.h</text>
</a>
</g>
</g>
<!-- Node1&#45;&gt;Node40 -->
<g id="edge47" class="edge">
<title>Node1&#45;&gt;Node40</title>
<path fill="none" stroke="midnightblue" d="M2646.59,-120.6C2840.92,-118.08 3862.89,-103.77 4200.75,-75.93"/>
<polygon fill="midnightblue" stroke="midnightblue" points="4201.11,-79.41 4210.78,-75.08 4200.52,-72.43 4201.11,-79.41"/>
</g>
<!-- Node160 -->
<g id="node43" class="node">
<title>Node160</title>
<g id="a_node43"><a xlink:href="api_2traffic__mngr_8h.html" target="_top" xlink:title=" ">
<polygon fill="white" stroke="red" points="4334,-56.5 4334,-75.5 4457,-75.5 4457,-56.5 4334,-56.5"/>
<text text-anchor="middle" x="4395.5" y="-63.5" font-family="Helvetica,sans-Serif" font-size="10.00">odp/api/traffic_mngr.h</text>
</a>
</g>
</g>
<!-- Node1&#45;&gt;Node160 -->
<g id="edge48" class="edge">
<title>Node1&#45;&gt;Node160</title>
<path fill="none" stroke="midnightblue" d="M2646.73,-120.6C2850.29,-118.01 3960.4,-102.87 4323.69,-76.05"/>
<polygon fill="midnightblue" stroke="midnightblue" points="4323.99,-79.54 4333.7,-75.29 4323.46,-72.56 4323.99,-79.54"/>
</g>
<!-- Node163 -->
<g id="node44" class="node">
<title>Node163</title>
<g id="a_node44"><a xlink:href="api_2spinlock__recursive_8h.html" target="_top" xlink:title=" ">
<polygon fill="white" stroke="red" points="4475,-56.5 4475,-75.5 4630,-75.5 4630,-56.5 4475,-56.5"/>
<text text-anchor="middle" x="4552.5" y="-63.5" font-family="Helvetica,sans-Serif" font-size="10.00">odp/api/spinlock_recursive.h</text>
</a>
</g>
</g>
<!-- Node1&#45;&gt;Node163 -->
<g id="edge49" class="edge">
<title>Node1&#45;&gt;Node163</title>
<path fill="none" stroke="midnightblue" d="M2646.54,-121.18C2825.75,-121.98 3722.15,-123.38 4464.61,-76.07"/>
<polygon fill="midnightblue" stroke="midnightblue" points="4464.95,-79.56 4474.71,-75.42 4464.5,-72.57 4464.95,-79.56"/>
</g>
<!-- Node166 -->
<g id="node45" class="node">
<title>Node166</title>
<g id="a_node45"><a xlink:href="api_2rwlock__recursive_8h.html" target="_top" xlink:title=" ">
<polygon fill="white" stroke="red" points="4648,-56.5 4648,-75.5 4795,-75.5 4795,-56.5 4648,-56.5"/>
<text text-anchor="middle" x="4721.5" y="-63.5" font-family="Helvetica,sans-Serif" font-size="10.00">odp/api/rwlock_recursive.h</text>
</a>
</g>
</g>
<!-- Node1&#45;&gt;Node166 -->
<g id="edge50" class="edge">
<title>Node1&#45;&gt;Node166</title>
<path fill="none" stroke="midnightblue" d="M2646.61,-120.67C2870.93,-118.31 4207.19,-103.32 4637.77,-76.05"/>
<polygon fill="midnightblue" stroke="midnightblue" points="4638.02,-79.54 4647.77,-75.4 4637.56,-72.55 4638.02,-79.54"/>
</g>
<!-- Node169 -->
<g id="node46" class="node">
<title>Node169</title>
<g id="a_node46"><a xlink:href="api_2std_8h_source.html" target="_top" xlink:title=" ">
<polygon fill="white" stroke="red" points="4813.5,-56.5 4813.5,-75.5 4893.5,-75.5 4893.5,-56.5 4813.5,-56.5"/>
<text text-anchor="middle" x="4853.5" y="-63.5" font-family="Helvetica,sans-Serif" font-size="10.00">odp/api/std.h</text>
</a>
</g>
</g>
<!-- Node1&#45;&gt;Node169 -->
<g id="edge51" class="edge">
<title>Node1&#45;&gt;Node169</title>
<path fill="none" stroke="midnightblue" d="M2646.56,-121.05C2881.26,-121.32 4337.91,-121.15 4803.32,-75.91"/>
<polygon fill="midnightblue" stroke="midnightblue" points="4803.86,-79.37 4813.46,-74.9 4803.17,-72.4 4803.86,-79.37"/>
</g>
<!-- Node172 -->
<g id="node47" class="node">
<title>Node172</title>
<g id="a_node47"><a xlink:href="api_2ipsec_8h.html" target="_top" xlink:title=" ">
<polygon fill="white" stroke="red" points="4911.5,-56.5 4911.5,-75.5 5001.5,-75.5 5001.5,-56.5 4911.5,-56.5"/>
<text text-anchor="middle" x="4956.5" y="-63.5" font-family="Helvetica,sans-Serif" font-size="10.00">odp/api/ipsec.h</text>
</a>
</g>
</g>
<!-- Node1&#45;&gt;Node172 -->
<g id="edge52" class="edge">
<title>Node1&#45;&gt;Node172</title>
<path fill="none" stroke="midnightblue" d="M2646.82,-121.01C2888.3,-121 4414.6,-119.22 4901.23,-75.94"/>
<polygon fill="midnightblue" stroke="midnightblue" points="4901.84,-79.4 4911.48,-75.01 4901.21,-72.43 4901.84,-79.4"/>
</g>
<!-- Node180 -->
<g id="node48" class="node">
<title>Node180</title>
<g id="a_node48"><a xlink:href="api_2stash_8h.html" target="_top" xlink:title=" ">
<polygon fill="white" stroke="red" points="5020,-56.5 5020,-75.5 5111,-75.5 5111,-56.5 5020,-56.5"/>
<text text-anchor="middle" x="5065.5" y="-63.5" font-family="Helvetica,sans-Serif" font-size="10.00">odp/api/stash.h</text>
</a>
</g>
</g>
<!-- Node1&#45;&gt;Node180 -->
<g id="edge53" class="edge">
<title>Node1&#45;&gt;Node180</title>
<path fill="none" stroke="midnightblue" d="M2646.74,-121.03C2894.49,-121.18 4499.95,-120.4 5009.94,-75.86"/>
<polygon fill="midnightblue" stroke="midnightblue" points="5010.3,-79.35 5019.95,-74.97 5009.67,-72.37 5010.3,-79.35"/>
</g>
<!-- Node124 -->
<g id="node49" class="node">
<title>Node124</title>
<g id="a_node49"><a xlink:href="reassembly_8h.html" target="_top" xlink:title=" ">
<polygon fill="white" stroke="red" points="5129.5,-56.5 5129.5,-75.5 5249.5,-75.5 5249.5,-56.5 5129.5,-56.5"/>
<text text-anchor="middle" x="5189.5" y="-63.5" font-family="Helvetica,sans-Serif" font-size="10.00">odp/api/reassembly.h</text>
</a>
</g>
</g>
<!-- Node1&#45;&gt;Node124 -->
<g id="edge54" class="edge">
<title>Node1&#45;&gt;Node124</title>
<path fill="none" stroke="midnightblue" d="M2646.57,-120.92C2900.14,-120.2 4585.49,-114.05 5119.24,-75.98"/>
<polygon fill="midnightblue" stroke="midnightblue" points="5119.61,-79.47 5129.33,-75.25 5119.1,-72.49 5119.61,-79.47"/>
</g>
<!-- Node186 -->
<g id="node50" class="node">
<title>Node186</title>
<g id="a_node50"><a xlink:href="api_2dma_8h.html" target="_top" xlink:title=" ">
<polygon fill="white" stroke="red" points="5267.5,-56.5 5267.5,-75.5 5353.5,-75.5 5353.5,-56.5 5267.5,-56.5"/>
<text text-anchor="middle" x="5310.5" y="-63.5" font-family="Helvetica,sans-Serif" font-size="10.00">odp/api/dma.h</text>
</a>
</g>
</g>
<!-- Node1&#45;&gt;Node186 -->
<g id="edge55" class="edge">
<title>Node1&#45;&gt;Node186</title>
<path fill="none" stroke="midnightblue" d="M2646.66,-121.14C2908.5,-122.15 4694.61,-127.14 5257.21,-75.93"/>
<polygon fill="midnightblue" stroke="midnightblue" points="5257.81,-79.39 5267.44,-74.98 5257.16,-72.42 5257.81,-79.39"/>
</g>
<!-- Node3 -->
<g id="node3" class="node">
<title>Node3</title>
<g id="a_node3"><a xlink:href="spec_2deprecated_8h.html" target="_top" xlink:title=" ">
<polygon fill="white" stroke="red" points="0,-0.5 0,-19.5 145,-19.5 145,-0.5 0,-0.5"/>
<text text-anchor="middle" x="72.5" y="-7.5" font-family="Helvetica,sans-Serif" font-size="10.00">odp/api/spec/deprecated.h</text>
</a>
</g>
</g>
<!-- Node2&#45;&gt;Node3 -->
<g id="edge2" class="edge">
<title>Node2&#45;&gt;Node3</title>
<path fill="none" stroke="midnightblue" d="M81.68,-56.08C80.23,-48.93 78.13,-38.64 76.31,-29.69"/>
<polygon fill="midnightblue" stroke="midnightblue" points="79.71,-28.85 74.28,-19.75 72.85,-30.25 79.71,-28.85"/>
</g>
<!-- Node7 -->
<g id="node5" class="node">
<title>Node7</title>
<g id="a_node5"><a xlink:title=" ">
<polygon fill="white" stroke="#bfbfbf" points="163,-0.5 163,-19.5 282,-19.5 282,-0.5 163,-0.5"/>
<text text-anchor="middle" x="222.5" y="-7.5" font-family="Helvetica,sans-Serif" font-size="10.00">odp/api/abi/version.h</text>
</a>
</g>
</g>
<!-- Node6&#45;&gt;Node7 -->
<g id="edge4" class="edge">
<title>Node6&#45;&gt;Node7</title>
<path fill="none" stroke="midnightblue" d="M222.5,-56.08C222.5,-49.01 222.5,-38.86 222.5,-29.99"/>
<polygon fill="midnightblue" stroke="midnightblue" points="226,-29.75 222.5,-19.75 219,-29.75 226,-29.75"/>
</g>
<!-- Node8 -->
<g id="node6" class="node">
<title>Node8</title>
<g id="a_node6"><a xlink:href="api_2spec_2version_8h.html" target="_top" xlink:title=" ">
<polygon fill="white" stroke="red" points="300.5,-0.5 300.5,-19.5 426.5,-19.5 426.5,-0.5 300.5,-0.5"/>
<text text-anchor="middle" x="363.5" y="-7.5" font-family="Helvetica,sans-Serif" font-size="10.00">odp/api/spec/version.h</text>
</a>
</g>
</g>
<!-- Node6&#45;&gt;Node8 -->
<g id="edge5" class="edge">
<title>Node6&#45;&gt;Node8</title>
<path fill="none" stroke="midnightblue" d="M244.84,-56.44C268.25,-47.48 305.24,-33.31 331.69,-23.18"/>
<polygon fill="midnightblue" stroke="midnightblue" points="333.18,-26.36 341.26,-19.52 330.67,-19.82 333.18,-26.36"/>
</g>
<!-- Node51&#45;&gt;Node53 -->
<g id="edge15" class="edge">
<title>Node51&#45;&gt;Node53</title>
<path fill="none" stroke="midnightblue" d="M1124.78,-56.44C1079.85,-47 1007.5,-31.8 959,-21.61"/>
<polygon fill="midnightblue" stroke="midnightblue" points="959.54,-18.15 949.03,-19.52 958.1,-25 959.54,-18.15"/>
</g>
<!-- Node61&#45;&gt;Node9 -->
<g id="edge18" class="edge">
<title>Node61&#45;&gt;Node9</title>
<path fill="none" stroke="midnightblue" d="M1486.58,-57.35C1489.93,-56.87 1493.27,-56.42 1496.5,-56 1625.37,-39.28 1776.55,-24.64 1861.27,-16.88"/>
<polygon fill="midnightblue" stroke="midnightblue" points="1861.62,-20.36 1871.26,-15.97 1860.98,-13.39 1861.62,-20.36"/>
</g>
<!-- Node61&#45;&gt;Node62 -->
<g id="edge19" class="edge">
<title>Node61&#45;&gt;Node62</title>
<path fill="none" stroke="midnightblue" d="M1422.11,-56.32C1405.83,-47.7 1380.63,-34.36 1361.78,-24.39"/>
<polygon fill="midnightblue" stroke="midnightblue" points="1363.32,-21.24 1352.85,-19.65 1360.05,-27.43 1363.32,-21.24"/>
</g>
<!-- Node74&#45;&gt;Node9 -->
<g id="edge24" class="edge">
<title>Node74&#45;&gt;Node9</title>
<path fill="none" stroke="midnightblue" d="M3613.81,-56.71C3611.01,-56.45 3608.23,-56.21 3605.5,-56 3284.01,-31.37 2264.59,-15.7 1993.98,-11.9"/>
<polygon fill="midnightblue" stroke="midnightblue" points="1993.97,-8.4 1983.92,-11.76 1993.87,-15.4 1993.97,-8.4"/>
</g>
<!-- Node137&#45;&gt;Node9 -->
<g id="edge39" class="edge">
<title>Node137&#45;&gt;Node9</title>
<path fill="none" stroke="midnightblue" d="M1622.02,-56.44C1687.05,-46.77 1792.76,-31.04 1861.21,-20.86"/>
<polygon fill="midnightblue" stroke="midnightblue" points="1862.07,-24.27 1871.44,-19.34 1861.04,-17.35 1862.07,-24.27"/>
</g>
<!-- Node132&#45;&gt;Node9 -->
<g id="edge42" class="edge">
<title>Node132&#45;&gt;Node9</title>
<path fill="none" stroke="midnightblue" d="M1927.5,-56.08C1927.5,-49.01 1927.5,-38.86 1927.5,-29.99"/>
<polygon fill="midnightblue" stroke="midnightblue" points="1931,-29.75 1927.5,-19.75 1924,-29.75 1931,-29.75"/>
</g>
</g>
</svg>
