<?xml version="1.0" encoding="UTF-8" standalone="no"?>
<!DOCTYPE svg PUBLIC "-//W3C//DTD SVG 1.1//EN"
 "http://www.w3.org/Graphics/SVG/1.1/DTD/svg11.dtd">
<!-- Generated by graphviz version 2.43.0 (0)
 -->
<!-- Title: deprecated.h Pages: 1 -->
<svg width="1680pt" height="532pt"
 viewBox="0.00 0.00 1680.10 532.00" xmlns="http://www.w3.org/2000/svg" xmlns:xlink="http://www.w3.org/1999/xlink">
<g id="graph0" class="graph" transform="scale(1 1) rotate(0) translate(4 528)">
<title>deprecated.h</title>
<polygon fill="white" stroke="transparent" points="-4,4 -4,-528 1676.1,-528 1676.1,4 -4,4"/>
<!-- Node1 -->
<g id="node1" class="node">
<title>Node1</title>
<g id="a_node1"><a xlink:title=" ">
<polygon fill="#bfbfbf" stroke="black" points="839,-504.5 839,-523.5 919,-523.5 919,-504.5 839,-504.5"/>
<text text-anchor="middle" x="879" y="-511.5" font-family="Helvetica,sans-Serif" font-size="10.00">deprecated.h</text>
</a>
</g>
</g>
<!-- Node2 -->
<g id="node2" class="node">
<title>Node2</title>
<g id="a_node2"><a xlink:href="deprecated_8h.html" target="_top" xlink:title=" ">
<polygon fill="white" stroke="black" points="839,-448.5 839,-467.5 919,-467.5 919,-448.5 839,-448.5"/>
<text text-anchor="middle" x="879" y="-455.5" font-family="Helvetica,sans-Serif" font-size="10.00">deprecated.h</text>
</a>
</g>
</g>
<!-- Node1&#45;&gt;Node2 -->
<g id="edge1" class="edge">
<title>Node1&#45;&gt;Node2</title>
<path fill="none" stroke="midnightblue" d="M879,-493.8C879,-484.91 879,-474.78 879,-467.75"/>
<polygon fill="midnightblue" stroke="midnightblue" points="875.5,-494.08 879,-504.08 882.5,-494.08 875.5,-494.08"/>
</g>
<!-- Node3 -->
<g id="node3" class="node">
<title>Node3</title>
<g id="a_node3"><a xlink:href="api_2abi-default_2event__types_8h_source.html" target="_top" xlink:title=" ">
<polygon fill="white" stroke="black" points="312,-392.5 312,-411.5 398,-411.5 398,-392.5 312,-392.5"/>
<text text-anchor="middle" x="355" y="-399.5" font-family="Helvetica,sans-Serif" font-size="10.00">event_types.h</text>
</a>
</g>
</g>
<!-- Node2&#45;&gt;Node3 -->
<g id="edge2" class="edge">
<title>Node2&#45;&gt;Node3</title>
<path fill="none" stroke="midnightblue" d="M828.65,-451.81C726.11,-441.24 494.62,-417.39 398.31,-407.46"/>
<polygon fill="midnightblue" stroke="midnightblue" points="828.45,-455.31 838.75,-452.85 829.16,-448.35 828.45,-455.31"/>
</g>
<!-- Node13 -->
<g id="node13" class="node">
<title>Node13</title>
<g id="a_node13"><a xlink:href="odp__api_8h.html" target="_top" xlink:title=" ">
<polygon fill="white" stroke="black" points="602,-0.5 602,-19.5 666,-19.5 666,-0.5 602,-0.5"/>
<text text-anchor="middle" x="634" y="-7.5" font-family="Helvetica,sans-Serif" font-size="10.00">odp_api.h</text>
</a>
</g>
</g>
<!-- Node2&#45;&gt;Node13 -->
<g id="edge68" class="edge">
<title>Node2&#45;&gt;Node13</title>
<path fill="none" stroke="midnightblue" d="M828.57,-454.97C759.78,-449.19 645,-427.49 645,-347 645,-347 645,-347 645,-289 645,-182.74 636.88,-53.8 634.59,-19.64"/>
<polygon fill="midnightblue" stroke="midnightblue" points="828.54,-458.48 838.77,-455.74 829.07,-451.5 828.54,-458.48"/>
</g>
<!-- Node42 -->
<g id="node28" class="node">
<title>Node42</title>
<g id="a_node28"><a xlink:href="api_2spec_2timer_8h.html" target="_top" xlink:title=" ">
<polygon fill="white" stroke="black" points="676.5,-112.5 676.5,-131.5 727.5,-131.5 727.5,-112.5 676.5,-112.5"/>
<text text-anchor="middle" x="702" y="-119.5" font-family="Helvetica,sans-Serif" font-size="10.00">timer.h</text>
</a>
</g>
</g>
<!-- Node2&#45;&gt;Node42 -->
<g id="edge66" class="edge">
<title>Node2&#45;&gt;Node42</title>
<path fill="none" stroke="midnightblue" d="M847.33,-444.27C813.92,-428.92 763.13,-399.62 741,-356 736.98,-348.07 739.82,-344.81 741,-336 746.6,-294 760.4,-286 766,-244 770.47,-210.52 781.57,-197.98 766,-168 757.11,-150.88 738.39,-138.91 723.48,-131.64"/>
<polygon fill="midnightblue" stroke="midnightblue" points="846.11,-447.56 856.67,-448.41 848.94,-441.16 846.11,-447.56"/>
</g>
<!-- Node50 -->
<g id="node30" class="node">
<title>Node50</title>
<g id="a_node30"><a xlink:href="api_2spec_2timer__types_8h.html" target="_top" xlink:title=" ">
<polygon fill="white" stroke="black" points="673,-224.5 673,-243.5 757,-243.5 757,-224.5 673,-224.5"/>
<text text-anchor="middle" x="715" y="-231.5" font-family="Helvetica,sans-Serif" font-size="10.00">timer_types.h</text>
</a>
</g>
</g>
<!-- Node2&#45;&gt;Node50 -->
<g id="edge67" class="edge">
<title>Node2&#45;&gt;Node50</title>
<path fill="none" stroke="midnightblue" d="M828.87,-450.7C783.6,-443.85 721.86,-431.25 707,-412 666.77,-359.89 699.39,-271.22 711.18,-243.52"/>
<polygon fill="midnightblue" stroke="midnightblue" points="828.43,-454.17 838.83,-452.15 829.44,-447.24 828.43,-454.17"/>
</g>
<!-- Node52 -->
<g id="node32" class="node">
<title>Node52</title>
<g id="a_node32"><a xlink:href="api_2abi-default_2schedule__types_8h.html" target="_top" xlink:title=" ">
<polygon fill="white" stroke="black" points="987.5,-392.5 987.5,-411.5 1088.5,-411.5 1088.5,-392.5 987.5,-392.5"/>
<text text-anchor="middle" x="1038" y="-399.5" font-family="Helvetica,sans-Serif" font-size="10.00">schedule_types.h</text>
</a>
</g>
</g>
<!-- Node2&#45;&gt;Node52 -->
<g id="edge39" class="edge">
<title>Node2&#45;&gt;Node52</title>
<path fill="none" stroke="midnightblue" d="M913.83,-445.17C943.77,-435 986.22,-420.59 1012.92,-411.52"/>
<polygon fill="midnightblue" stroke="midnightblue" points="912.54,-441.91 904.19,-448.44 914.79,-448.54 912.54,-441.91"/>
</g>
<!-- Node22 -->
<g id="node41" class="node">
<title>Node22</title>
<g id="a_node41"><a xlink:href="api_2spec_2classification_8h.html" target="_top" xlink:title=" ">
<polygon fill="white" stroke="black" points="1196.5,-392.5 1196.5,-411.5 1285.5,-411.5 1285.5,-392.5 1196.5,-392.5"/>
<text text-anchor="middle" x="1241" y="-399.5" font-family="Helvetica,sans-Serif" font-size="10.00">classification.h</text>
</a>
</g>
</g>
<!-- Node2&#45;&gt;Node22 -->
<g id="edge49" class="edge">
<title>Node2&#45;&gt;Node22</title>
<path fill="none" stroke="midnightblue" d="M929.16,-449.52C1000.12,-438.93 1128.7,-419.75 1196.46,-409.64"/>
<polygon fill="midnightblue" stroke="midnightblue" points="928.5,-446.08 919.12,-451.01 929.53,-453 928.5,-446.08"/>
</g>
<!-- Node32 -->
<g id="node47" class="node">
<title>Node32</title>
<g id="a_node47"><a xlink:href="api_2spec_2crypto_8h.html" target="_top" xlink:title=" ">
<polygon fill="white" stroke="black" points="1596,-280.5 1596,-299.5 1652,-299.5 1652,-280.5 1596,-280.5"/>
<text text-anchor="middle" x="1624" y="-287.5" font-family="Helvetica,sans-Serif" font-size="10.00">crypto.h</text>
</a>
</g>
</g>
<!-- Node2&#45;&gt;Node32 -->
<g id="edge58" class="edge">
<title>Node2&#45;&gt;Node32</title>
<path fill="none" stroke="midnightblue" d="M929.4,-456.97C1069.09,-456.38 1458.88,-451.18 1580,-412 1624.47,-397.62 1646.41,-396.91 1669,-356 1680.74,-334.73 1654.74,-311.8 1637.57,-299.67"/>
<polygon fill="midnightblue" stroke="midnightblue" points="929.38,-453.47 919.39,-457.01 929.4,-460.47 929.38,-453.47"/>
</g>
<!-- Node30 -->
<g id="node49" class="node">
<title>Node30</title>
<g id="a_node49"><a xlink:href="api_2spec_2crypto__types_8h.html" target="_top" xlink:title=" ">
<polygon fill="white" stroke="black" points="1481.5,-392.5 1481.5,-411.5 1570.5,-411.5 1570.5,-392.5 1481.5,-392.5"/>
<text text-anchor="middle" x="1526" y="-399.5" font-family="Helvetica,sans-Serif" font-size="10.00">crypto_types.h</text>
</a>
</g>
</g>
<!-- Node2&#45;&gt;Node30 -->
<g id="edge61" class="edge">
<title>Node2&#45;&gt;Node30</title>
<path fill="none" stroke="midnightblue" d="M929.73,-452.77C1052.65,-442.51 1364.85,-416.45 1481.3,-406.73"/>
<polygon fill="midnightblue" stroke="midnightblue" points="929.15,-449.3 919.47,-453.62 929.73,-456.28 929.15,-449.3"/>
</g>
<!-- Node4 -->
<g id="node4" class="node">
<title>Node4</title>
<g id="a_node4"><a xlink:href="arch_2arm32-linux_2odp_2api_2abi_2event__types_8h_source.html" target="_top" xlink:title=" ">
<polygon fill="white" stroke="black" points="0,-336.5 0,-355.5 86,-355.5 86,-336.5 0,-336.5"/>
<text text-anchor="middle" x="43" y="-343.5" font-family="Helvetica,sans-Serif" font-size="10.00">event_types.h</text>
</a>
</g>
</g>
<!-- Node3&#45;&gt;Node4 -->
<g id="edge3" class="edge">
<title>Node3&#45;&gt;Node4</title>
<path fill="none" stroke="midnightblue" d="M301.77,-391.79C240.9,-381.25 142.4,-364.2 86.11,-354.46"/>
<polygon fill="midnightblue" stroke="midnightblue" points="301.49,-395.29 311.95,-393.55 302.69,-388.39 301.49,-395.29"/>
</g>
<!-- Node5 -->
<g id="node5" class="node">
<title>Node5</title>
<g id="a_node5"><a xlink:href="arch_2arm64-linux_2odp_2api_2abi_2event__types_8h_source.html" target="_top" xlink:title=" ">
<polygon fill="white" stroke="black" points="104,-336.5 104,-355.5 190,-355.5 190,-336.5 104,-336.5"/>
<text text-anchor="middle" x="147" y="-343.5" font-family="Helvetica,sans-Serif" font-size="10.00">event_types.h</text>
</a>
</g>
</g>
<!-- Node3&#45;&gt;Node5 -->
<g id="edge4" class="edge">
<title>Node3&#45;&gt;Node5</title>
<path fill="none" stroke="midnightblue" d="M312.22,-389.89C272.94,-379.7 215.57,-364.8 179.8,-355.52"/>
<polygon fill="midnightblue" stroke="midnightblue" points="311.48,-393.32 322.04,-392.44 313.24,-386.54 311.48,-393.32"/>
</g>
<!-- Node6 -->
<g id="node6" class="node">
<title>Node6</title>
<g id="a_node6"><a xlink:href="arch_2default-linux_2odp_2api_2abi_2event__types_8h_source.html" target="_top" xlink:title=" ">
<polygon fill="white" stroke="black" points="208,-336.5 208,-355.5 294,-355.5 294,-336.5 208,-336.5"/>
<text text-anchor="middle" x="251" y="-343.5" font-family="Helvetica,sans-Serif" font-size="10.00">event_types.h</text>
</a>
</g>
</g>
<!-- Node3&#45;&gt;Node6 -->
<g id="edge5" class="edge">
<title>Node3&#45;&gt;Node6</title>
<path fill="none" stroke="midnightblue" d="M329.17,-387.59C309.94,-377.61 284.26,-364.27 267.67,-355.65"/>
<polygon fill="midnightblue" stroke="midnightblue" points="327.8,-390.82 338.29,-392.32 331.03,-384.61 327.8,-390.82"/>
</g>
<!-- Node7 -->
<g id="node7" class="node">
<title>Node7</title>
<g id="a_node7"><a xlink:href="arch_2power64-linux_2odp_2api_2abi_2event__types_8h_source.html" target="_top" xlink:title=" ">
<polygon fill="white" stroke="black" points="312,-336.5 312,-355.5 398,-355.5 398,-336.5 312,-336.5"/>
<text text-anchor="middle" x="355" y="-343.5" font-family="Helvetica,sans-Serif" font-size="10.00">event_types.h</text>
</a>
</g>
</g>
<!-- Node3&#45;&gt;Node7 -->
<g id="edge6" class="edge">
<title>Node3&#45;&gt;Node7</title>
<path fill="none" stroke="midnightblue" d="M355,-381.8C355,-372.91 355,-362.78 355,-355.75"/>
<polygon fill="midnightblue" stroke="midnightblue" points="351.5,-382.08 355,-392.08 358.5,-382.08 351.5,-382.08"/>
</g>
<!-- Node8 -->
<g id="node8" class="node">
<title>Node8</title>
<g id="a_node8"><a xlink:href="arch_2x86__32-linux_2odp_2api_2abi_2event__types_8h_source.html" target="_top" xlink:title=" ">
<polygon fill="white" stroke="black" points="416,-336.5 416,-355.5 502,-355.5 502,-336.5 416,-336.5"/>
<text text-anchor="middle" x="459" y="-343.5" font-family="Helvetica,sans-Serif" font-size="10.00">event_types.h</text>
</a>
</g>
</g>
<!-- Node3&#45;&gt;Node8 -->
<g id="edge7" class="edge">
<title>Node3&#45;&gt;Node8</title>
<path fill="none" stroke="midnightblue" d="M380.83,-387.59C400.06,-377.61 425.74,-364.27 442.33,-355.65"/>
<polygon fill="midnightblue" stroke="midnightblue" points="378.97,-384.61 371.71,-392.32 382.2,-390.82 378.97,-384.61"/>
</g>
<!-- Node9 -->
<g id="node9" class="node">
<title>Node9</title>
<g id="a_node9"><a xlink:href="arch_2x86__64-linux_2odp_2api_2abi_2event__types_8h_source.html" target="_top" xlink:title=" ">
<polygon fill="white" stroke="black" points="520,-336.5 520,-355.5 606,-355.5 606,-336.5 520,-336.5"/>
<text text-anchor="middle" x="563" y="-343.5" font-family="Helvetica,sans-Serif" font-size="10.00">event_types.h</text>
</a>
</g>
</g>
<!-- Node3&#45;&gt;Node9 -->
<g id="edge8" class="edge">
<title>Node3&#45;&gt;Node9</title>
<path fill="none" stroke="midnightblue" d="M397.78,-389.89C437.06,-379.7 494.43,-364.8 530.2,-355.52"/>
<polygon fill="midnightblue" stroke="midnightblue" points="396.76,-386.54 387.96,-392.44 398.52,-393.32 396.76,-386.54"/>
</g>
<!-- Node10 -->
<g id="node10" class="node">
<title>Node10</title>
<g id="a_node10"><a xlink:href="api_2event__types_8h.html" target="_top" xlink:title=" ">
<polygon fill="white" stroke="black" points="509,-280.5 509,-299.5 595,-299.5 595,-280.5 509,-280.5"/>
<text text-anchor="middle" x="552" y="-287.5" font-family="Helvetica,sans-Serif" font-size="10.00">event_types.h</text>
</a>
</g>
</g>
<!-- Node9&#45;&gt;Node10 -->
<g id="edge9" class="edge">
<title>Node9&#45;&gt;Node10</title>
<path fill="none" stroke="midnightblue" d="M559.15,-326.1C557.32,-317.14 555.23,-306.86 553.78,-299.75"/>
<polygon fill="midnightblue" stroke="midnightblue" points="555.76,-326.98 561.18,-336.08 562.62,-325.59 555.76,-326.98"/>
</g>
<!-- Node11 -->
<g id="node11" class="node">
<title>Node11</title>
<g id="a_node11"><a xlink:href="api_2spec_2buffer_8h.html" target="_top" xlink:title=" ">
<polygon fill="white" stroke="black" points="454.5,-224.5 454.5,-243.5 507.5,-243.5 507.5,-224.5 454.5,-224.5"/>
<text text-anchor="middle" x="481" y="-231.5" font-family="Helvetica,sans-Serif" font-size="10.00">buffer.h</text>
</a>
</g>
</g>
<!-- Node10&#45;&gt;Node11 -->
<g id="edge10" class="edge">
<title>Node10&#45;&gt;Node11</title>
<path fill="none" stroke="midnightblue" d="M532.41,-274.1C519.63,-264.38 503.39,-252.03 492.61,-243.83"/>
<polygon fill="midnightblue" stroke="midnightblue" points="530.51,-277.06 540.59,-280.32 534.75,-271.48 530.51,-277.06"/>
</g>
<!-- Node14 -->
<g id="node14" class="node">
<title>Node14</title>
<g id="a_node14"><a xlink:href="api_2spec_2comp_8h.html" target="_top" xlink:title=" ">
<polygon fill="white" stroke="black" points="525.5,-224.5 525.5,-243.5 578.5,-243.5 578.5,-224.5 525.5,-224.5"/>
<text text-anchor="middle" x="552" y="-231.5" font-family="Helvetica,sans-Serif" font-size="10.00">comp.h</text>
</a>
</g>
</g>
<!-- Node10&#45;&gt;Node14 -->
<g id="edge13" class="edge">
<title>Node10&#45;&gt;Node14</title>
<path fill="none" stroke="midnightblue" d="M552,-269.8C552,-260.91 552,-250.78 552,-243.75"/>
<polygon fill="midnightblue" stroke="midnightblue" points="548.5,-270.08 552,-280.08 555.5,-270.08 548.5,-270.08"/>
</g>
<!-- Node16 -->
<g id="node16" class="node">
<title>Node16</title>
<g id="a_node16"><a xlink:href="api_2spec_2dma__types_8h.html" target="_top" xlink:title=" ">
<polygon fill="white" stroke="black" points="206,-224.5 206,-243.5 286,-243.5 286,-224.5 206,-224.5"/>
<text text-anchor="middle" x="246" y="-231.5" font-family="Helvetica,sans-Serif" font-size="10.00">dma_types.h</text>
</a>
</g>
</g>
<!-- Node10&#45;&gt;Node16 -->
<g id="edge16" class="edge">
<title>Node10&#45;&gt;Node16</title>
<path fill="none" stroke="midnightblue" d="M498.79,-279.82C446.8,-270.81 365.43,-256.63 295,-244 292.11,-243.48 289.12,-242.94 286.11,-242.39"/>
<polygon fill="midnightblue" stroke="midnightblue" points="498.33,-283.29 508.78,-281.55 499.53,-276.39 498.33,-283.29"/>
</g>
<!-- Node44 -->
<g id="node18" class="node">
<title>Node44</title>
<g id="a_node18"><a xlink:href="api_2spec_2event_8h.html" target="_top" xlink:title=" ">
<polygon fill="white" stroke="black" points="134.5,-224.5 134.5,-243.5 187.5,-243.5 187.5,-224.5 134.5,-224.5"/>
<text text-anchor="middle" x="161" y="-231.5" font-family="Helvetica,sans-Serif" font-size="10.00">event.h</text>
</a>
</g>
</g>
<!-- Node10&#45;&gt;Node44 -->
<g id="edge18" class="edge">
<title>Node10&#45;&gt;Node44</title>
<path fill="none" stroke="midnightblue" d="M498.56,-284.22C428.81,-277.54 303.14,-263.92 197,-244 193.96,-243.43 190.8,-242.76 187.66,-242.04"/>
<polygon fill="midnightblue" stroke="midnightblue" points="498.56,-287.74 508.85,-285.2 499.22,-280.77 498.56,-287.74"/>
</g>
<!-- Node26 -->
<g id="node20" class="node">
<title>Node26</title>
<g id="a_node20"><a xlink:href="api_2spec_2ipsec_8h.html" target="_top" xlink:title=" ">
<polygon fill="white" stroke="black" points="1443.5,-168.5 1443.5,-187.5 1494.5,-187.5 1494.5,-168.5 1443.5,-168.5"/>
<text text-anchor="middle" x="1469" y="-175.5" font-family="Helvetica,sans-Serif" font-size="10.00">ipsec.h</text>
</a>
</g>
</g>
<!-- Node10&#45;&gt;Node26 -->
<g id="edge21" class="edge">
<title>Node10&#45;&gt;Node26</title>
<path fill="none" stroke="midnightblue" d="M605.49,-283.63C672.69,-276.49 791.4,-262.58 892,-244 929.74,-237.03 938.13,-230.2 976,-224 1153.48,-194.92 1370.2,-183.32 1443.44,-180.05"/>
<polygon fill="midnightblue" stroke="midnightblue" points="604.74,-280.19 595.16,-284.72 605.47,-287.15 604.74,-280.19"/>
</g>
<!-- Node34 -->
<g id="node22" class="node">
<title>Node34</title>
<g id="a_node22"><a xlink:href="api_2spec_2packet_8h.html" target="_top" xlink:title=" ">
<polygon fill="white" stroke="black" points="304,-224.5 304,-243.5 362,-243.5 362,-224.5 304,-224.5"/>
<text text-anchor="middle" x="333" y="-231.5" font-family="Helvetica,sans-Serif" font-size="10.00">packet.h</text>
</a>
</g>
</g>
<!-- Node10&#45;&gt;Node34 -->
<g id="edge24" class="edge">
<title>Node10&#45;&gt;Node34</title>
<path fill="none" stroke="midnightblue" d="M507.58,-278.05C464.24,-267.36 399.54,-251.41 362.28,-242.22"/>
<polygon fill="midnightblue" stroke="midnightblue" points="506.75,-281.45 517.3,-280.44 508.43,-274.65 506.75,-281.45"/>
</g>
<!-- Node46 -->
<g id="node24" class="node">
<title>Node46</title>
<g id="a_node24"><a xlink:href="api_2spec_2queue_8h.html" target="_top" xlink:title=" ">
<polygon fill="white" stroke="black" points="380,-224.5 380,-243.5 436,-243.5 436,-224.5 380,-224.5"/>
<text text-anchor="middle" x="408" y="-231.5" font-family="Helvetica,sans-Serif" font-size="10.00">queue.h</text>
</a>
</g>
</g>
<!-- Node10&#45;&gt;Node46 -->
<g id="edge27" class="edge">
<title>Node10&#45;&gt;Node46</title>
<path fill="none" stroke="midnightblue" d="M519.75,-276.91C492.68,-266.75 454.68,-252.51 430.71,-243.52"/>
<polygon fill="midnightblue" stroke="midnightblue" points="518.59,-280.21 529.18,-280.44 521.05,-273.66 518.59,-280.21"/>
</g>
<!-- Node48 -->
<g id="node26" class="node">
<title>Node48</title>
<g id="a_node26"><a xlink:href="api_2spec_2schedule_8h.html" target="_top" xlink:title=" ">
<polygon fill="white" stroke="black" points="813.5,-224.5 813.5,-243.5 882.5,-243.5 882.5,-224.5 813.5,-224.5"/>
<text text-anchor="middle" x="848" y="-231.5" font-family="Helvetica,sans-Serif" font-size="10.00">schedule.h</text>
</a>
</g>
</g>
<!-- Node10&#45;&gt;Node48 -->
<g id="edge30" class="edge">
<title>Node10&#45;&gt;Node48</title>
<path fill="none" stroke="midnightblue" d="M605.12,-279.31C665.36,-268.32 761.88,-250.71 813.23,-241.34"/>
<polygon fill="midnightblue" stroke="midnightblue" points="604.25,-275.91 595.04,-281.15 605.51,-282.8 604.25,-275.91"/>
</g>
<!-- Node10&#45;&gt;Node42 -->
<g id="edge33" class="edge">
<title>Node10&#45;&gt;Node42</title>
<path fill="none" stroke="midnightblue" d="M566.77,-272.65C598.14,-237.94 670.47,-157.9 694.26,-131.57"/>
<polygon fill="midnightblue" stroke="midnightblue" points="564.17,-270.31 560.06,-280.08 569.37,-275 564.17,-270.31"/>
</g>
<!-- Node10&#45;&gt;Node50 -->
<g id="edge36" class="edge">
<title>Node10&#45;&gt;Node50</title>
<path fill="none" stroke="midnightblue" d="M587.7,-277.17C618.4,-267 661.92,-252.59 689.29,-243.52"/>
<polygon fill="midnightblue" stroke="midnightblue" points="586.22,-273.98 577.83,-280.44 588.42,-280.62 586.22,-273.98"/>
</g>
<!-- Node12 -->
<g id="node12" class="node">
<title>Node12</title>
<g id="a_node12"><a xlink:href="api_2buffer_8h.html" target="_top" xlink:title=" ">
<polygon fill="white" stroke="black" points="478.5,-56.5 478.5,-75.5 531.5,-75.5 531.5,-56.5 478.5,-56.5"/>
<text text-anchor="middle" x="505" y="-63.5" font-family="Helvetica,sans-Serif" font-size="10.00">buffer.h</text>
</a>
</g>
</g>
<!-- Node11&#45;&gt;Node12 -->
<g id="edge11" class="edge">
<title>Node11&#45;&gt;Node12</title>
<path fill="none" stroke="midnightblue" d="M483.76,-213.93C488.96,-177.92 500.05,-101.23 503.76,-75.57"/>
<polygon fill="midnightblue" stroke="midnightblue" points="480.26,-213.68 482.29,-224.08 487.19,-214.68 480.26,-213.68"/>
</g>
<!-- Node12&#45;&gt;Node13 -->
<g id="edge12" class="edge">
<title>Node12&#45;&gt;Node13</title>
<path fill="none" stroke="midnightblue" d="M534.85,-52.5C559.04,-42.38 592.46,-28.39 613.66,-19.52"/>
<polygon fill="midnightblue" stroke="midnightblue" points="533.31,-49.35 525.44,-56.44 536.02,-55.81 533.31,-49.35"/>
</g>
<!-- Node15 -->
<g id="node15" class="node">
<title>Node15</title>
<g id="a_node15"><a xlink:href="api_2comp_8h.html" target="_top" xlink:title=" ">
<polygon fill="white" stroke="black" points="525.5,-112.5 525.5,-131.5 578.5,-131.5 578.5,-112.5 525.5,-112.5"/>
<text text-anchor="middle" x="552" y="-119.5" font-family="Helvetica,sans-Serif" font-size="10.00">comp.h</text>
</a>
</g>
</g>
<!-- Node14&#45;&gt;Node15 -->
<g id="edge14" class="edge">
<title>Node14&#45;&gt;Node15</title>
<path fill="none" stroke="midnightblue" d="M552,-214.35C552,-190.25 552,-149.31 552,-131.59"/>
<polygon fill="midnightblue" stroke="midnightblue" points="548.5,-214.37 552,-224.37 555.5,-214.37 548.5,-214.37"/>
</g>
<!-- Node15&#45;&gt;Node13 -->
<g id="edge15" class="edge">
<title>Node15&#45;&gt;Node13</title>
<path fill="none" stroke="midnightblue" d="M561.85,-103.57C569.71,-90.16 581.29,-71.37 593,-56 603.25,-42.55 616.7,-28.33 625.35,-19.56"/>
<polygon fill="midnightblue" stroke="midnightblue" points="558.81,-101.85 556.85,-112.27 564.87,-105.35 558.81,-101.85"/>
</g>
<!-- Node17 -->
<g id="node17" class="node">
<title>Node17</title>
<g id="a_node17"><a xlink:href="api_2dma__types_8h.html" target="_top" xlink:title=" ">
<polygon fill="white" stroke="red" points="206,-168.5 206,-187.5 286,-187.5 286,-168.5 206,-168.5"/>
<text text-anchor="middle" x="246" y="-175.5" font-family="Helvetica,sans-Serif" font-size="10.00">dma_types.h</text>
</a>
</g>
</g>
<!-- Node16&#45;&gt;Node17 -->
<g id="edge17" class="edge">
<title>Node16&#45;&gt;Node17</title>
<path fill="none" stroke="midnightblue" d="M246,-213.8C246,-204.91 246,-194.78 246,-187.75"/>
<polygon fill="midnightblue" stroke="midnightblue" points="242.5,-214.08 246,-224.08 249.5,-214.08 242.5,-214.08"/>
</g>
<!-- Node45 -->
<g id="node19" class="node">
<title>Node45</title>
<g id="a_node19"><a xlink:href="api_2event_8h.html" target="_top" xlink:title=" ">
<polygon fill="white" stroke="black" points="188.5,-56.5 188.5,-75.5 241.5,-75.5 241.5,-56.5 188.5,-56.5"/>
<text text-anchor="middle" x="215" y="-63.5" font-family="Helvetica,sans-Serif" font-size="10.00">event.h</text>
</a>
</g>
</g>
<!-- Node44&#45;&gt;Node45 -->
<g id="edge19" class="edge">
<title>Node44&#45;&gt;Node45</title>
<path fill="none" stroke="midnightblue" d="M167.05,-214.39C178.7,-178.59 203.83,-101.34 212.21,-75.57"/>
<polygon fill="midnightblue" stroke="midnightblue" points="163.67,-213.48 163.9,-224.08 170.33,-215.65 163.67,-213.48"/>
</g>
<!-- Node45&#45;&gt;Node13 -->
<g id="edge20" class="edge">
<title>Node45&#45;&gt;Node13</title>
<path fill="none" stroke="midnightblue" d="M251.74,-60.26C332.74,-49.83 525.52,-24.98 601.97,-15.13"/>
<polygon fill="midnightblue" stroke="midnightblue" points="251,-56.83 241.53,-61.58 251.89,-63.77 251,-56.83"/>
</g>
<!-- Node27 -->
<g id="node21" class="node">
<title>Node27</title>
<g id="a_node21"><a xlink:href="api_2ipsec_8h.html" target="_top" xlink:title=" ">
<polygon fill="white" stroke="black" points="1434.5,-112.5 1434.5,-131.5 1485.5,-131.5 1485.5,-112.5 1434.5,-112.5"/>
<text text-anchor="middle" x="1460" y="-119.5" font-family="Helvetica,sans-Serif" font-size="10.00">ipsec.h</text>
</a>
</g>
</g>
<!-- Node26&#45;&gt;Node27 -->
<g id="edge22" class="edge">
<title>Node26&#45;&gt;Node27</title>
<path fill="none" stroke="midnightblue" d="M1465.85,-158.1C1464.36,-149.14 1462.64,-138.86 1461.46,-131.75"/>
<polygon fill="midnightblue" stroke="midnightblue" points="1462.42,-158.79 1467.51,-168.08 1469.32,-157.64 1462.42,-158.79"/>
</g>
<!-- Node27&#45;&gt;Node13 -->
<g id="edge23" class="edge">
<title>Node27&#45;&gt;Node13</title>
<path fill="none" stroke="midnightblue" d="M1452.29,-103.23C1444.55,-87.78 1431.02,-66.3 1412,-56 1345.67,-20.09 804.55,-12.59 666.14,-11.26"/>
<polygon fill="midnightblue" stroke="midnightblue" points="1449.14,-104.76 1456.55,-112.34 1455.48,-101.79 1449.14,-104.76"/>
</g>
<!-- Node35 -->
<g id="node23" class="node">
<title>Node35</title>
<g id="a_node23"><a xlink:href="api_2packet_8h.html" target="_top" xlink:title=" ">
<polygon fill="white" stroke="black" points="307,-112.5 307,-131.5 365,-131.5 365,-112.5 307,-112.5"/>
<text text-anchor="middle" x="336" y="-119.5" font-family="Helvetica,sans-Serif" font-size="10.00">packet.h</text>
</a>
</g>
</g>
<!-- Node34&#45;&gt;Node35 -->
<g id="edge25" class="edge">
<title>Node34&#45;&gt;Node35</title>
<path fill="none" stroke="midnightblue" d="M333.51,-214.35C334.17,-190.25 335.28,-149.31 335.77,-131.59"/>
<polygon fill="midnightblue" stroke="midnightblue" points="330.01,-214.28 333.24,-224.37 337.01,-214.47 330.01,-214.28"/>
</g>
<!-- Node35&#45;&gt;Node13 -->
<g id="edge26" class="edge">
<title>Node35&#45;&gt;Node13</title>
<path fill="none" stroke="midnightblue" d="M343.96,-102.85C351.52,-87.83 364.36,-67.2 382,-56 418.11,-33.07 542.4,-19.18 601.84,-13.7"/>
<polygon fill="midnightblue" stroke="midnightblue" points="340.66,-101.63 339.57,-112.17 346.99,-104.61 340.66,-101.63"/>
</g>
<!-- Node47 -->
<g id="node25" class="node">
<title>Node47</title>
<g id="a_node25"><a xlink:href="api_2queue_8h.html" target="_top" xlink:title=" ">
<polygon fill="white" stroke="black" points="391,-56.5 391,-75.5 447,-75.5 447,-56.5 391,-56.5"/>
<text text-anchor="middle" x="419" y="-63.5" font-family="Helvetica,sans-Serif" font-size="10.00">queue.h</text>
</a>
</g>
</g>
<!-- Node46&#45;&gt;Node47 -->
<g id="edge28" class="edge">
<title>Node46&#45;&gt;Node47</title>
<path fill="none" stroke="midnightblue" d="M409.26,-213.93C411.65,-177.92 416.73,-101.23 418.43,-75.57"/>
<polygon fill="midnightblue" stroke="midnightblue" points="405.76,-213.87 408.59,-224.08 412.75,-214.33 405.76,-213.87"/>
</g>
<!-- Node47&#45;&gt;Node13 -->
<g id="edge29" class="edge">
<title>Node47&#45;&gt;Node13</title>
<path fill="none" stroke="midnightblue" d="M457.02,-55.45C498.12,-45.13 562.94,-28.85 601.67,-19.12"/>
<polygon fill="midnightblue" stroke="midnightblue" points="455.95,-52.11 447.11,-57.94 457.66,-58.9 455.95,-52.11"/>
</g>
<!-- Node49 -->
<g id="node27" class="node">
<title>Node49</title>
<g id="a_node27"><a xlink:href="api_2schedule_8h.html" target="_top" xlink:title=" ">
<polygon fill="white" stroke="black" points="813.5,-168.5 813.5,-187.5 882.5,-187.5 882.5,-168.5 813.5,-168.5"/>
<text text-anchor="middle" x="848" y="-175.5" font-family="Helvetica,sans-Serif" font-size="10.00">schedule.h</text>
</a>
</g>
</g>
<!-- Node48&#45;&gt;Node49 -->
<g id="edge31" class="edge">
<title>Node48&#45;&gt;Node49</title>
<path fill="none" stroke="midnightblue" d="M848,-213.8C848,-204.91 848,-194.78 848,-187.75"/>
<polygon fill="midnightblue" stroke="midnightblue" points="844.5,-214.08 848,-224.08 851.5,-214.08 844.5,-214.08"/>
</g>
<!-- Node49&#45;&gt;Node13 -->
<g id="edge32" class="edge">
<title>Node49&#45;&gt;Node13</title>
<path fill="none" stroke="midnightblue" d="M834.1,-160.7C812.3,-135.84 767.9,-87.96 723,-56 701.42,-40.64 673.84,-27.56 655.15,-19.53"/>
<polygon fill="midnightblue" stroke="midnightblue" points="831.64,-163.21 840.84,-168.47 836.93,-158.62 831.64,-163.21"/>
</g>
<!-- Node43 -->
<g id="node29" class="node">
<title>Node43</title>
<g id="a_node29"><a xlink:href="api_2timer_8h.html" target="_top" xlink:title=" ">
<polygon fill="white" stroke="black" points="662.5,-56.5 662.5,-75.5 713.5,-75.5 713.5,-56.5 662.5,-56.5"/>
<text text-anchor="middle" x="688" y="-63.5" font-family="Helvetica,sans-Serif" font-size="10.00">timer.h</text>
</a>
</g>
</g>
<!-- Node42&#45;&gt;Node43 -->
<g id="edge34" class="edge">
<title>Node42&#45;&gt;Node43</title>
<path fill="none" stroke="midnightblue" d="M697.18,-102.4C694.83,-93.36 692.13,-82.94 690.27,-75.75"/>
<polygon fill="midnightblue" stroke="midnightblue" points="693.79,-103.28 699.69,-112.08 700.57,-101.52 693.79,-103.28"/>
</g>
<!-- Node43&#45;&gt;Node13 -->
<g id="edge35" class="edge">
<title>Node43&#45;&gt;Node13</title>
<path fill="none" stroke="midnightblue" d="M672,-49C662.43,-39.43 650.64,-27.64 642.75,-19.75"/>
<polygon fill="midnightblue" stroke="midnightblue" points="669.54,-51.49 679.08,-56.08 674.49,-46.54 669.54,-51.49"/>
</g>
<!-- Node51 -->
<g id="node31" class="node">
<title>Node51</title>
<g id="a_node31"><a xlink:href="api_2timer__types_8h.html" target="_top" xlink:title=" ">
<polygon fill="white" stroke="black" points="673,-168.5 673,-187.5 757,-187.5 757,-168.5 673,-168.5"/>
<text text-anchor="middle" x="715" y="-175.5" font-family="Helvetica,sans-Serif" font-size="10.00">timer_types.h</text>
</a>
</g>
</g>
<!-- Node50&#45;&gt;Node51 -->
<g id="edge37" class="edge">
<title>Node50&#45;&gt;Node51</title>
<path fill="none" stroke="midnightblue" d="M715,-213.8C715,-204.91 715,-194.78 715,-187.75"/>
<polygon fill="midnightblue" stroke="midnightblue" points="711.5,-214.08 715,-224.08 718.5,-214.08 711.5,-214.08"/>
</g>
<!-- Node51&#45;&gt;Node42 -->
<g id="edge38" class="edge">
<title>Node51&#45;&gt;Node42</title>
<path fill="none" stroke="midnightblue" d="M710.45,-158.1C708.29,-149.14 705.82,-138.86 704.11,-131.75"/>
<polygon fill="midnightblue" stroke="midnightblue" points="707.11,-159.18 712.85,-168.08 713.92,-157.54 707.11,-159.18"/>
</g>
<!-- Node53 -->
<g id="node33" class="node">
<title>Node53</title>
<g id="a_node33"><a xlink:href="arch_2arm32-linux_2odp_2api_2abi_2schedule__types_8h_source.html" target="_top" xlink:title=" ">
<polygon fill="white" stroke="black" points="749.5,-336.5 749.5,-355.5 850.5,-355.5 850.5,-336.5 749.5,-336.5"/>
<text text-anchor="middle" x="800" y="-343.5" font-family="Helvetica,sans-Serif" font-size="10.00">schedule_types.h</text>
</a>
</g>
</g>
<!-- Node52&#45;&gt;Node53 -->
<g id="edge40" class="edge">
<title>Node52&#45;&gt;Node53</title>
<path fill="none" stroke="midnightblue" d="M990.48,-390.22C945.5,-380.01 878.9,-364.9 837.54,-355.52"/>
<polygon fill="midnightblue" stroke="midnightblue" points="989.76,-393.64 1000.29,-392.44 991.31,-386.82 989.76,-393.64"/>
</g>
<!-- Node54 -->
<g id="node34" class="node">
<title>Node54</title>
<g id="a_node34"><a xlink:href="arch_2arm64-linux_2odp_2api_2abi_2schedule__types_8h_source.html" target="_top" xlink:title=" ">
<polygon fill="white" stroke="black" points="868.5,-336.5 868.5,-355.5 969.5,-355.5 969.5,-336.5 868.5,-336.5"/>
<text text-anchor="middle" x="919" y="-343.5" font-family="Helvetica,sans-Serif" font-size="10.00">schedule_types.h</text>
</a>
</g>
</g>
<!-- Node52&#45;&gt;Node54 -->
<g id="edge41" class="edge">
<title>Node52&#45;&gt;Node54</title>
<path fill="none" stroke="midnightblue" d="M1009.86,-388.23C987.6,-378.13 957.14,-364.31 937.77,-355.52"/>
<polygon fill="midnightblue" stroke="midnightblue" points="1008.59,-391.5 1019.14,-392.44 1011.48,-385.12 1008.59,-391.5"/>
</g>
<!-- Node55 -->
<g id="node35" class="node">
<title>Node55</title>
<g id="a_node35"><a xlink:href="arch_2default-linux_2odp_2api_2abi_2schedule__types_8h_source.html" target="_top" xlink:title=" ">
<polygon fill="white" stroke="black" points="987.5,-336.5 987.5,-355.5 1088.5,-355.5 1088.5,-336.5 987.5,-336.5"/>
<text text-anchor="middle" x="1038" y="-343.5" font-family="Helvetica,sans-Serif" font-size="10.00">schedule_types.h</text>
</a>
</g>
</g>
<!-- Node52&#45;&gt;Node55 -->
<g id="edge42" class="edge">
<title>Node52&#45;&gt;Node55</title>
<path fill="none" stroke="midnightblue" d="M1038,-381.8C1038,-372.91 1038,-362.78 1038,-355.75"/>
<polygon fill="midnightblue" stroke="midnightblue" points="1034.5,-382.08 1038,-392.08 1041.5,-382.08 1034.5,-382.08"/>
</g>
<!-- Node56 -->
<g id="node36" class="node">
<title>Node56</title>
<g id="a_node36"><a xlink:href="arch_2power64-linux_2odp_2api_2abi_2schedule__types_8h_source.html" target="_top" xlink:title=" ">
<polygon fill="white" stroke="black" points="1106.5,-336.5 1106.5,-355.5 1207.5,-355.5 1207.5,-336.5 1106.5,-336.5"/>
<text text-anchor="middle" x="1157" y="-343.5" font-family="Helvetica,sans-Serif" font-size="10.00">schedule_types.h</text>
</a>
</g>
</g>
<!-- Node52&#45;&gt;Node56 -->
<g id="edge43" class="edge">
<title>Node52&#45;&gt;Node56</title>
<path fill="none" stroke="midnightblue" d="M1066.14,-388.23C1088.4,-378.13 1118.86,-364.31 1138.23,-355.52"/>
<polygon fill="midnightblue" stroke="midnightblue" points="1064.52,-385.12 1056.86,-392.44 1067.41,-391.5 1064.52,-385.12"/>
</g>
<!-- Node57 -->
<g id="node37" class="node">
<title>Node57</title>
<g id="a_node37"><a xlink:href="arch_2x86__32-linux_2odp_2api_2abi_2schedule__types_8h_source.html" target="_top" xlink:title=" ">
<polygon fill="white" stroke="black" points="1225.5,-336.5 1225.5,-355.5 1326.5,-355.5 1326.5,-336.5 1225.5,-336.5"/>
<text text-anchor="middle" x="1276" y="-343.5" font-family="Helvetica,sans-Serif" font-size="10.00">schedule_types.h</text>
</a>
</g>
</g>
<!-- Node52&#45;&gt;Node57 -->
<g id="edge44" class="edge">
<title>Node52&#45;&gt;Node57</title>
<path fill="none" stroke="midnightblue" d="M1085.52,-390.22C1130.5,-380.01 1197.1,-364.9 1238.46,-355.52"/>
<polygon fill="midnightblue" stroke="midnightblue" points="1084.69,-386.82 1075.71,-392.44 1086.24,-393.64 1084.69,-386.82"/>
</g>
<!-- Node58 -->
<g id="node38" class="node">
<title>Node58</title>
<g id="a_node38"><a xlink:href="arch_2x86__64-linux_2odp_2api_2abi_2schedule__types_8h_source.html" target="_top" xlink:title=" ">
<polygon fill="white" stroke="black" points="1344.5,-336.5 1344.5,-355.5 1445.5,-355.5 1445.5,-336.5 1344.5,-336.5"/>
<text text-anchor="middle" x="1395" y="-343.5" font-family="Helvetica,sans-Serif" font-size="10.00">schedule_types.h</text>
</a>
</g>
</g>
<!-- Node52&#45;&gt;Node58 -->
<g id="edge45" class="edge">
<title>Node52&#45;&gt;Node58</title>
<path fill="none" stroke="midnightblue" d="M1098.72,-391.86C1158.94,-382.79 1253.85,-368.47 1336,-356 1338.77,-355.58 1341.6,-355.15 1344.47,-354.71"/>
<polygon fill="midnightblue" stroke="midnightblue" points="1097.99,-388.43 1088.62,-393.38 1099.03,-395.35 1097.99,-388.43"/>
</g>
<!-- Node59 -->
<g id="node39" class="node">
<title>Node59</title>
<g id="a_node39"><a xlink:href="api_2schedule__types_8h.html" target="_top" xlink:title=" ">
<polygon fill="white" stroke="black" points="978.5,-280.5 978.5,-299.5 1079.5,-299.5 1079.5,-280.5 978.5,-280.5"/>
<text text-anchor="middle" x="1029" y="-287.5" font-family="Helvetica,sans-Serif" font-size="10.00">schedule_types.h</text>
</a>
</g>
</g>
<!-- Node58&#45;&gt;Node59 -->
<g id="edge46" class="edge">
<title>Node58&#45;&gt;Node59</title>
<path fill="none" stroke="midnightblue" d="M1334.32,-335.76C1238.55,-321.45 1138.31,-306.84 1079.53,-298.32"/>
<polygon fill="midnightblue" stroke="midnightblue" points="1334.06,-339.26 1344.47,-337.27 1335.1,-332.33 1334.06,-339.26"/>
</g>
<!-- Node59&#45;&gt;Node48 -->
<g id="edge48" class="edge">
<title>Node59&#45;&gt;Node48</title>
<path fill="none" stroke="midnightblue" d="M990.68,-277.57C956.54,-267.38 907.34,-252.7 876.55,-243.52"/>
<polygon fill="midnightblue" stroke="midnightblue" points="989.74,-280.94 1000.32,-280.44 991.74,-274.23 989.74,-280.94"/>
</g>
<!-- Node60 -->
<g id="node40" class="node">
<title>Node60</title>
<g id="a_node40"><a xlink:href="api_2spec_2queue__types_8h.html" target="_top" xlink:title=" ">
<polygon fill="white" stroke="red" points="985,-224.5 985,-243.5 1073,-243.5 1073,-224.5 985,-224.5"/>
<text text-anchor="middle" x="1029" y="-231.5" font-family="Helvetica,sans-Serif" font-size="10.00">queue_types.h</text>
</a>
</g>
</g>
<!-- Node59&#45;&gt;Node60 -->
<g id="edge47" class="edge">
<title>Node59&#45;&gt;Node60</title>
<path fill="none" stroke="midnightblue" d="M1029,-269.8C1029,-260.91 1029,-250.78 1029,-243.75"/>
<polygon fill="midnightblue" stroke="midnightblue" points="1025.5,-270.08 1029,-280.08 1032.5,-270.08 1025.5,-270.08"/>
</g>
<!-- Node23 -->
<g id="node42" class="node">
<title>Node23</title>
<g id="a_node42"><a xlink:href="api_2classification_8h.html" target="_top" xlink:title=" ">
<polygon fill="white" stroke="black" points="1463.5,-336.5 1463.5,-355.5 1552.5,-355.5 1552.5,-336.5 1463.5,-336.5"/>
<text text-anchor="middle" x="1508" y="-343.5" font-family="Helvetica,sans-Serif" font-size="10.00">classification.h</text>
</a>
</g>
</g>
<!-- Node22&#45;&gt;Node23 -->
<g id="edge50" class="edge">
<title>Node22&#45;&gt;Node23</title>
<path fill="none" stroke="midnightblue" d="M1293.36,-390.41C1343.82,-380.2 1419.2,-364.96 1465.89,-355.52"/>
<polygon fill="midnightblue" stroke="midnightblue" points="1292.41,-387.03 1283.31,-392.44 1293.8,-393.89 1292.41,-387.03"/>
</g>
<!-- Node23&#45;&gt;Node13 -->
<g id="edge57" class="edge">
<title>Node23&#45;&gt;Node13</title>
<path fill="none" stroke="midnightblue" d="M1479.47,-331.84C1446.88,-314.61 1398,-281.09 1398,-235 1398,-235 1398,-235 1398,-121 1398,-45.87 811.76,-17.96 666.34,-12.19"/>
<polygon fill="midnightblue" stroke="midnightblue" points="1478.09,-335.06 1488.59,-336.46 1481.25,-328.82 1478.09,-335.06"/>
</g>
<!-- Node24 -->
<g id="node43" class="node">
<title>Node24</title>
<g id="a_node43"><a xlink:href="api_2spec_2ipsec__types_8h.html" target="_top" xlink:title=" ">
<polygon fill="white" stroke="black" points="1456.5,-280.5 1456.5,-299.5 1539.5,-299.5 1539.5,-280.5 1456.5,-280.5"/>
<text text-anchor="middle" x="1498" y="-287.5" font-family="Helvetica,sans-Serif" font-size="10.00">ipsec_types.h</text>
</a>
</g>
</g>
<!-- Node23&#45;&gt;Node24 -->
<g id="edge51" class="edge">
<title>Node23&#45;&gt;Node24</title>
<path fill="none" stroke="midnightblue" d="M1504.5,-326.1C1502.84,-317.14 1500.94,-306.86 1499.62,-299.75"/>
<polygon fill="midnightblue" stroke="midnightblue" points="1501.09,-326.89 1506.35,-336.08 1507.97,-325.61 1501.09,-326.89"/>
</g>
<!-- Node28 -->
<g id="node45" class="node">
<title>Node28</title>
<g id="a_node45"><a xlink:href="api_2spec_2packet__io_8h.html" target="_top" xlink:title=" ">
<polygon fill="white" stroke="black" points="1231,-280.5 1231,-299.5 1303,-299.5 1303,-280.5 1231,-280.5"/>
<text text-anchor="middle" x="1267" y="-287.5" font-family="Helvetica,sans-Serif" font-size="10.00">packet_io.h</text>
</a>
</g>
</g>
<!-- Node23&#45;&gt;Node28 -->
<g id="edge54" class="edge">
<title>Node23&#45;&gt;Node28</title>
<path fill="none" stroke="midnightblue" d="M1460.02,-334.25C1413.76,-323.88 1344.79,-308.43 1303.04,-299.08"/>
<polygon fill="midnightblue" stroke="midnightblue" points="1459.29,-337.67 1469.81,-336.44 1460.82,-330.84 1459.29,-337.67"/>
</g>
<!-- Node25 -->
<g id="node44" class="node">
<title>Node25</title>
<g id="a_node44"><a xlink:href="api_2ipsec__types_8h.html" target="_top" xlink:title=" ">
<polygon fill="white" stroke="black" points="1443.5,-224.5 1443.5,-243.5 1526.5,-243.5 1526.5,-224.5 1443.5,-224.5"/>
<text text-anchor="middle" x="1485" y="-231.5" font-family="Helvetica,sans-Serif" font-size="10.00">ipsec_types.h</text>
</a>
</g>
</g>
<!-- Node24&#45;&gt;Node25 -->
<g id="edge52" class="edge">
<title>Node24&#45;&gt;Node25</title>
<path fill="none" stroke="midnightblue" d="M1493.45,-270.1C1491.29,-261.14 1488.82,-250.86 1487.11,-243.75"/>
<polygon fill="midnightblue" stroke="midnightblue" points="1490.11,-271.18 1495.85,-280.08 1496.92,-269.54 1490.11,-271.18"/>
</g>
<!-- Node25&#45;&gt;Node26 -->
<g id="edge53" class="edge">
<title>Node25&#45;&gt;Node26</title>
<path fill="none" stroke="midnightblue" d="M1479.49,-214.4C1476.81,-205.36 1473.72,-194.94 1471.59,-187.75"/>
<polygon fill="midnightblue" stroke="midnightblue" points="1476.16,-215.49 1482.36,-224.08 1482.87,-213.5 1476.16,-215.49"/>
</g>
<!-- Node29 -->
<g id="node46" class="node">
<title>Node29</title>
<g id="a_node46"><a xlink:href="api_2packet__io_8h.html" target="_top" xlink:title=" ">
<polygon fill="white" stroke="black" points="1077,-56.5 1077,-75.5 1149,-75.5 1149,-56.5 1077,-56.5"/>
<text text-anchor="middle" x="1113" y="-63.5" font-family="Helvetica,sans-Serif" font-size="10.00">packet_io.h</text>
</a>
</g>
</g>
<!-- Node28&#45;&gt;Node29 -->
<g id="edge55" class="edge">
<title>Node28&#45;&gt;Node29</title>
<path fill="none" stroke="midnightblue" d="M1255.21,-272C1224.41,-227.6 1142.32,-109.27 1119.16,-75.88"/>
<polygon fill="midnightblue" stroke="midnightblue" points="1252.39,-274.08 1260.96,-280.3 1258.14,-270.09 1252.39,-274.08"/>
</g>
<!-- Node29&#45;&gt;Node13 -->
<g id="edge56" class="edge">
<title>Node29&#45;&gt;Node13</title>
<path fill="none" stroke="midnightblue" d="M1066.96,-59.81C970.51,-48.94 749.28,-24 666.26,-14.64"/>
<polygon fill="midnightblue" stroke="midnightblue" points="1066.67,-63.3 1077,-60.94 1067.45,-56.34 1066.67,-63.3"/>
</g>
<!-- Node33 -->
<g id="node48" class="node">
<title>Node33</title>
<g id="a_node48"><a xlink:href="api_2crypto_8h.html" target="_top" xlink:title=" ">
<polygon fill="white" stroke="black" points="1547,-112.5 1547,-131.5 1603,-131.5 1603,-112.5 1547,-112.5"/>
<text text-anchor="middle" x="1575" y="-119.5" font-family="Helvetica,sans-Serif" font-size="10.00">crypto.h</text>
</a>
</g>
</g>
<!-- Node32&#45;&gt;Node33 -->
<g id="edge59" class="edge">
<title>Node32&#45;&gt;Node33</title>
<path fill="none" stroke="midnightblue" d="M1618.51,-270.39C1607.94,-234.59 1585.14,-157.34 1577.53,-131.57"/>
<polygon fill="midnightblue" stroke="midnightblue" points="1615.18,-271.48 1621.37,-280.08 1621.89,-269.49 1615.18,-271.48"/>
</g>
<!-- Node33&#45;&gt;Node13 -->
<g id="edge60" class="edge">
<title>Node33&#45;&gt;Node13</title>
<path fill="none" stroke="midnightblue" d="M1552.73,-107.2C1526.26,-91.6 1480.21,-66.95 1437,-56 1287.27,-18.07 796.56,-12.09 666.09,-11.17"/>
<polygon fill="midnightblue" stroke="midnightblue" points="1551.19,-110.35 1561.56,-112.5 1554.79,-104.35 1551.19,-110.35"/>
</g>
<!-- Node31 -->
<g id="node50" class="node">
<title>Node31</title>
<g id="a_node50"><a xlink:href="api_2crypto__types_8h.html" target="_top" xlink:title=" ">
<polygon fill="white" stroke="black" points="1570.5,-336.5 1570.5,-355.5 1659.5,-355.5 1659.5,-336.5 1570.5,-336.5"/>
<text text-anchor="middle" x="1615" y="-343.5" font-family="Helvetica,sans-Serif" font-size="10.00">crypto_types.h</text>
</a>
</g>
</g>
<!-- Node30&#45;&gt;Node31 -->
<g id="edge62" class="edge">
<title>Node30&#45;&gt;Node31</title>
<path fill="none" stroke="midnightblue" d="M1549.24,-386.9C1565.56,-377 1586.87,-364.07 1600.74,-355.65"/>
<polygon fill="midnightblue" stroke="midnightblue" points="1547.03,-384.14 1540.3,-392.32 1550.66,-390.13 1547.03,-384.14"/>
</g>
<!-- Node31&#45;&gt;Node26 -->
<g id="edge64" class="edge">
<title>Node31&#45;&gt;Node26</title>
<path fill="none" stroke="midnightblue" d="M1604.28,-327.76C1584.72,-296.43 1544.46,-232.58 1536,-224 1520.94,-208.74 1499.95,-195.65 1485.5,-187.58"/>
<polygon fill="midnightblue" stroke="midnightblue" points="1601.37,-329.71 1609.63,-336.34 1607.31,-326.01 1601.37,-329.71"/>
</g>
<!-- Node31&#45;&gt;Node24 -->
<g id="edge65" class="edge">
<title>Node31&#45;&gt;Node24</title>
<path fill="none" stroke="midnightblue" d="M1587.34,-332.23C1565.45,-322.13 1535.5,-308.31 1516.45,-299.52"/>
<polygon fill="midnightblue" stroke="midnightblue" points="1585.91,-335.43 1596.46,-336.44 1588.85,-329.08 1585.91,-335.43"/>
</g>
<!-- Node31&#45;&gt;Node32 -->
<g id="edge63" class="edge">
<title>Node31&#45;&gt;Node32</title>
<path fill="none" stroke="midnightblue" d="M1618.15,-326.1C1619.64,-317.14 1621.36,-306.86 1622.54,-299.75"/>
<polygon fill="midnightblue" stroke="midnightblue" points="1614.68,-325.64 1616.49,-336.08 1621.58,-326.79 1614.68,-325.64"/>
</g>
</g>
</svg>
