<?xml version="1.0" encoding="UTF-8" standalone="no"?>
<!DOCTYPE svg PUBLIC "-//W3C//DTD SVG 1.1//EN"
 "http://www.w3.org/Graphics/SVG/1.1/DTD/svg11.dtd">
<!-- Generated by graphviz version 2.43.0 (0)
 -->
<!-- Title: schedule_types.h Pages: 1 -->
<svg width="559pt" height="308pt"
 viewBox="0.00 0.00 559.00 308.00" xmlns="http://www.w3.org/2000/svg" xmlns:xlink="http://www.w3.org/1999/xlink">
<g id="graph0" class="graph" transform="scale(1 1) rotate(0) translate(4 304)">
<title>schedule_types.h</title>
<polygon fill="white" stroke="transparent" points="-4,4 -4,-304 555,-304 555,4 -4,4"/>
<!-- Node1 -->
<g id="node1" class="node">
<title>Node1</title>
<g id="a_node1"><a xlink:title=" ">
<polygon fill="#bfbfbf" stroke="black" points="338,-280.5 338,-299.5 439,-299.5 439,-280.5 338,-280.5"/>
<text text-anchor="middle" x="388.5" y="-287.5" font-family="Helvetica,sans-Serif" font-size="10.00">schedule_types.h</text>
</a>
</g>
</g>
<!-- Node2 -->
<g id="node2" class="node">
<title>Node2</title>
<g id="a_node2"><a xlink:href="deprecated_8h.html" target="_top" xlink:title=" ">
<polygon fill="white" stroke="black" points="403,-224.5 403,-243.5 522,-243.5 522,-224.5 403,-224.5"/>
<text text-anchor="middle" x="462.5" y="-231.5" font-family="Helvetica,sans-Serif" font-size="10.00">odp/api/deprecated.h</text>
</a>
</g>
</g>
<!-- Node1&#45;&gt;Node2 -->
<g id="edge1" class="edge">
<title>Node1&#45;&gt;Node2</title>
<path fill="none" stroke="midnightblue" d="M400.39,-280.32C411.65,-272.11 428.79,-259.6 442.21,-249.81"/>
<polygon fill="midnightblue" stroke="midnightblue" points="444.38,-252.56 450.39,-243.83 440.25,-246.9 444.38,-252.56"/>
</g>
<!-- Node6 -->
<g id="node6" class="node">
<title>Node6</title>
<g id="a_node6"><a xlink:href="std__types_8h.html" target="_top" xlink:title=" ">
<polygon fill="white" stroke="black" points="265.5,-224.5 265.5,-243.5 377.5,-243.5 377.5,-224.5 265.5,-224.5"/>
<text text-anchor="middle" x="321.5" y="-231.5" font-family="Helvetica,sans-Serif" font-size="10.00">odp/api/std_types.h</text>
</a>
</g>
</g>
<!-- Node1&#45;&gt;Node6 -->
<g id="edge5" class="edge">
<title>Node1&#45;&gt;Node6</title>
<path fill="none" stroke="midnightblue" d="M377.74,-280.32C367.73,-272.26 352.61,-260.08 340.57,-250.37"/>
<polygon fill="midnightblue" stroke="midnightblue" points="342.44,-247.38 332.46,-243.83 338.05,-252.83 342.44,-247.38"/>
</g>
<!-- Node3 -->
<g id="node3" class="node">
<title>Node3</title>
<g id="a_node3"><a xlink:href="spec_2deprecated_8h.html" target="_top" xlink:title=" ">
<polygon fill="white" stroke="black" points="406,-56.5 406,-75.5 551,-75.5 551,-56.5 406,-56.5"/>
<text text-anchor="middle" x="478.5" y="-63.5" font-family="Helvetica,sans-Serif" font-size="10.00">odp/api/spec/deprecated.h</text>
</a>
</g>
</g>
<!-- Node2&#45;&gt;Node3 -->
<g id="edge2" class="edge">
<title>Node2&#45;&gt;Node3</title>
<path fill="none" stroke="midnightblue" d="M463.36,-224.08C465.88,-197.95 473.27,-121.21 476.71,-85.58"/>
<polygon fill="midnightblue" stroke="midnightblue" points="480.2,-85.86 477.67,-75.57 473.23,-85.19 480.2,-85.86"/>
</g>
<!-- Node4 -->
<g id="node4" class="node">
<title>Node4</title>
<g id="a_node4"><a xlink:title=" ">
<polygon fill="white" stroke="#bfbfbf" points="342,-0.5 342,-19.5 463,-19.5 463,-0.5 342,-0.5"/>
<text text-anchor="middle" x="402.5" y="-7.5" font-family="Helvetica,sans-Serif" font-size="10.00">odp/visibility_begin.h</text>
</a>
</g>
</g>
<!-- Node3&#45;&gt;Node4 -->
<g id="edge3" class="edge">
<title>Node3&#45;&gt;Node4</title>
<path fill="none" stroke="midnightblue" d="M466.29,-56.32C454.72,-48.11 437.12,-35.6 423.34,-25.81"/>
<polygon fill="midnightblue" stroke="midnightblue" points="425.11,-22.77 414.93,-19.83 421.06,-28.48 425.11,-22.77"/>
</g>
<!-- Node5 -->
<g id="node5" class="node">
<title>Node5</title>
<g id="a_node5"><a xlink:title=" ">
<polygon fill="white" stroke="#bfbfbf" points="211.5,-0.5 211.5,-19.5 323.5,-19.5 323.5,-0.5 211.5,-0.5"/>
<text text-anchor="middle" x="267.5" y="-7.5" font-family="Helvetica,sans-Serif" font-size="10.00">odp/visibility_end.h</text>
</a>
</g>
</g>
<!-- Node3&#45;&gt;Node5 -->
<g id="edge4" class="edge">
<title>Node3&#45;&gt;Node5</title>
<path fill="none" stroke="midnightblue" d="M445.07,-56.44C408.64,-47.12 350.27,-32.18 310.47,-22"/>
<polygon fill="midnightblue" stroke="midnightblue" points="311.33,-18.61 300.78,-19.52 309.6,-25.39 311.33,-18.61"/>
</g>
<!-- Node7 -->
<g id="node7" class="node">
<title>Node7</title>
<g id="a_node7"><a xlink:title=" ">
<polygon fill="white" stroke="#bfbfbf" points="256.5,-168.5 256.5,-187.5 386.5,-187.5 386.5,-168.5 256.5,-168.5"/>
<text text-anchor="middle" x="321.5" y="-175.5" font-family="Helvetica,sans-Serif" font-size="10.00">odp/api/abi/std_types.h</text>
</a>
</g>
</g>
<!-- Node6&#45;&gt;Node7 -->
<g id="edge6" class="edge">
<title>Node6&#45;&gt;Node7</title>
<path fill="none" stroke="midnightblue" d="M321.5,-224.08C321.5,-217.01 321.5,-206.86 321.5,-197.99"/>
<polygon fill="midnightblue" stroke="midnightblue" points="325,-197.75 321.5,-187.75 318,-197.75 325,-197.75"/>
</g>
<!-- Node8 -->
<g id="node8" class="node">
<title>Node8</title>
<g id="a_node8"><a xlink:href="spec_2std__types_8h.html" target="_top" xlink:title=" ">
<polygon fill="white" stroke="black" points="97,-168.5 97,-187.5 234,-187.5 234,-168.5 97,-168.5"/>
<text text-anchor="middle" x="165.5" y="-175.5" font-family="Helvetica,sans-Serif" font-size="10.00">odp/api/spec/std_types.h</text>
</a>
</g>
</g>
<!-- Node6&#45;&gt;Node8 -->
<g id="edge7" class="edge">
<title>Node6&#45;&gt;Node8</title>
<path fill="none" stroke="midnightblue" d="M296.78,-224.44C270.65,-215.4 229.24,-201.06 199.92,-190.92"/>
<polygon fill="midnightblue" stroke="midnightblue" points="200.7,-187.48 190.1,-187.52 198.41,-194.1 200.7,-187.48"/>
</g>
<!-- Node8&#45;&gt;Node4 -->
<g id="edge8" class="edge">
<title>Node8&#45;&gt;Node4</title>
<path fill="none" stroke="midnightblue" d="M190.72,-168.41C230.02,-154.07 306.74,-122.22 358.5,-76 373.55,-62.56 385.91,-42.92 393.66,-28.75"/>
<polygon fill="midnightblue" stroke="midnightblue" points="396.93,-30.05 398.45,-19.57 390.72,-26.81 396.93,-30.05"/>
</g>
<!-- Node8&#45;&gt;Node5 -->
<g id="edge15" class="edge">
<title>Node8&#45;&gt;Node5</title>
<path fill="none" stroke="midnightblue" d="M150.19,-168.34C137.77,-160.49 120.83,-147.75 111.5,-132 94.1,-102.64 79.74,-83.09 100.5,-56 113.07,-39.6 160.4,-27.82 201.48,-20.44"/>
<polygon fill="midnightblue" stroke="midnightblue" points="202.24,-23.86 211.5,-18.71 201.04,-16.97 202.24,-23.86"/>
</g>
<!-- Node9 -->
<g id="node9" class="node">
<title>Node9</title>
<g id="a_node9"><a xlink:title=" ">
<polygon fill="white" stroke="#bfbfbf" points="0,-112.5 0,-131.5 53,-131.5 53,-112.5 0,-112.5"/>
<text text-anchor="middle" x="26.5" y="-119.5" font-family="Helvetica,sans-Serif" font-size="10.00">stdint.h</text>
</a>
</g>
</g>
<!-- Node8&#45;&gt;Node9 -->
<g id="edge9" class="edge">
<title>Node8&#45;&gt;Node9</title>
<path fill="none" stroke="midnightblue" d="M143.48,-168.44C120.4,-159.48 83.94,-145.31 57.86,-135.18"/>
<polygon fill="midnightblue" stroke="midnightblue" points="59.01,-131.88 48.42,-131.52 56.48,-138.4 59.01,-131.88"/>
</g>
<!-- Node10 -->
<g id="node10" class="node">
<title>Node10</title>
<g id="a_node10"><a xlink:href="align_8h.html" target="_top" xlink:title=" ">
<polygon fill="white" stroke="black" points="121,-112.5 121,-131.5 210,-131.5 210,-112.5 121,-112.5"/>
<text text-anchor="middle" x="165.5" y="-119.5" font-family="Helvetica,sans-Serif" font-size="10.00">odp/api/align.h</text>
</a>
</g>
</g>
<!-- Node8&#45;&gt;Node10 -->
<g id="edge10" class="edge">
<title>Node8&#45;&gt;Node10</title>
<path fill="none" stroke="midnightblue" d="M165.5,-168.08C165.5,-161.01 165.5,-150.86 165.5,-141.99"/>
<polygon fill="midnightblue" stroke="midnightblue" points="169,-141.75 165.5,-131.75 162,-141.75 169,-141.75"/>
</g>
<!-- Node11 -->
<g id="node11" class="node">
<title>Node11</title>
<g id="a_node11"><a xlink:title=" ">
<polygon fill="white" stroke="#bfbfbf" points="110,-56.5 110,-75.5 217,-75.5 217,-56.5 110,-56.5"/>
<text text-anchor="middle" x="163.5" y="-63.5" font-family="Helvetica,sans-Serif" font-size="10.00">odp/api/abi/align.h</text>
</a>
</g>
</g>
<!-- Node10&#45;&gt;Node11 -->
<g id="edge11" class="edge">
<title>Node10&#45;&gt;Node11</title>
<path fill="none" stroke="midnightblue" d="M165.17,-112.08C164.91,-105.01 164.53,-94.86 164.2,-85.99"/>
<polygon fill="midnightblue" stroke="midnightblue" points="167.69,-85.61 163.82,-75.75 160.7,-85.87 167.69,-85.61"/>
</g>
<!-- Node12 -->
<g id="node12" class="node">
<title>Node12</title>
<g id="a_node12"><a xlink:href="spec_2align_8h.html" target="_top" xlink:title=" ">
<polygon fill="white" stroke="black" points="235.5,-56.5 235.5,-75.5 349.5,-75.5 349.5,-56.5 235.5,-56.5"/>
<text text-anchor="middle" x="292.5" y="-63.5" font-family="Helvetica,sans-Serif" font-size="10.00">odp/api/spec/align.h</text>
</a>
</g>
</g>
<!-- Node10&#45;&gt;Node12 -->
<g id="edge12" class="edge">
<title>Node10&#45;&gt;Node12</title>
<path fill="none" stroke="midnightblue" d="M185.62,-112.44C206.52,-103.56 239.43,-89.56 263.22,-79.45"/>
<polygon fill="midnightblue" stroke="midnightblue" points="264.64,-82.65 272.47,-75.52 261.9,-76.21 264.64,-82.65"/>
</g>
<!-- Node12&#45;&gt;Node4 -->
<g id="edge13" class="edge">
<title>Node12&#45;&gt;Node4</title>
<path fill="none" stroke="midnightblue" d="M310.17,-56.32C327.89,-47.62 355.4,-34.12 375.79,-24.11"/>
<polygon fill="midnightblue" stroke="midnightblue" points="377.44,-27.2 384.87,-19.65 374.35,-20.92 377.44,-27.2"/>
</g>
<!-- Node12&#45;&gt;Node5 -->
<g id="edge14" class="edge">
<title>Node12&#45;&gt;Node5</title>
<path fill="none" stroke="midnightblue" d="M288.37,-56.08C284.99,-48.77 280.08,-38.18 275.88,-29.1"/>
<polygon fill="midnightblue" stroke="midnightblue" points="278.93,-27.36 271.55,-19.75 272.58,-30.3 278.93,-27.36"/>
</g>
</g>
</svg>
