<?xml version="1.0" encoding="UTF-8" standalone="no"?>
<!DOCTYPE svg PUBLIC "-//W3C//DTD SVG 1.1//EN"
 "http://www.w3.org/Graphics/SVG/1.1/DTD/svg11.dtd">
<!-- Generated by graphviz version 2.43.0 (0)
 -->
<!-- Title: align.h Pages: 1 -->
<svg width="4087pt" height="308pt"
 viewBox="0.00 0.00 4086.50 308.00" xmlns="http://www.w3.org/2000/svg" xmlns:xlink="http://www.w3.org/1999/xlink">
<g id="graph0" class="graph" transform="scale(1 1) rotate(0) translate(4 304)">
<title>align.h</title>
<polygon fill="white" stroke="transparent" points="-4,4 -4,-304 4082.5,-304 4082.5,4 -4,4"/>
<!-- Node1 -->
<g id="node1" class="node">
<title>Node1</title>
<g id="a_node1"><a xlink:title=" ">
<polygon fill="#bfbfbf" stroke="black" points="119.5,-280.5 119.5,-299.5 169.5,-299.5 169.5,-280.5 119.5,-280.5"/>
<text text-anchor="middle" x="144.5" y="-287.5" font-family="Helvetica,sans-Serif" font-size="10.00">align.h</text>
</a>
</g>
</g>
<!-- Node2 -->
<g id="node2" class="node">
<title>Node2</title>
<g id="a_node2"><a xlink:href="abi-default_2atomic_8h.html" target="_top" xlink:title=" ">
<polygon fill="white" stroke="black" points="0,-112.5 0,-131.5 59,-131.5 59,-112.5 0,-112.5"/>
<text text-anchor="middle" x="29.5" y="-119.5" font-family="Helvetica,sans-Serif" font-size="10.00">atomic.h</text>
</a>
</g>
</g>
<!-- Node1&#45;&gt;Node2 -->
<g id="edge1" class="edge">
<title>Node1&#45;&gt;Node2</title>
<path fill="none" stroke="midnightblue" d="M132.56,-271.76C108.19,-236.59 53.52,-157.68 35.44,-131.57"/>
<polygon fill="midnightblue" stroke="midnightblue" points="129.75,-273.85 138.32,-280.08 135.5,-269.86 129.75,-273.85"/>
</g>
<!-- Node3 -->
<g id="node3" class="node">
<title>Node3</title>
<g id="a_node3"><a xlink:href="abi-default_2cpumask_8h.html" target="_top" xlink:title=" ">
<polygon fill="white" stroke="black" points="77.5,-112.5 77.5,-131.5 147.5,-131.5 147.5,-112.5 77.5,-112.5"/>
<text text-anchor="middle" x="112.5" y="-119.5" font-family="Helvetica,sans-Serif" font-size="10.00">cpumask.h</text>
</a>
</g>
</g>
<!-- Node1&#45;&gt;Node3 -->
<g id="edge2" class="edge">
<title>Node1&#45;&gt;Node3</title>
<path fill="none" stroke="midnightblue" d="M138.7,-270.88C136.24,-262.73 133.49,-252.94 131.5,-244 122.24,-202.27 115.81,-151.48 113.47,-131.58"/>
<polygon fill="midnightblue" stroke="midnightblue" points="135.37,-271.95 141.68,-280.46 142.05,-269.87 135.37,-271.95"/>
</g>
<!-- Node4 -->
<g id="node4" class="node">
<title>Node4</title>
<g id="a_node4"><a xlink:href="spec_2std__types_8h.html" target="_top" xlink:title=" ">
<polygon fill="white" stroke="black" points="141,-224.5 141,-243.5 214,-243.5 214,-224.5 141,-224.5"/>
<text text-anchor="middle" x="177.5" y="-231.5" font-family="Helvetica,sans-Serif" font-size="10.00">std_types.h</text>
</a>
</g>
</g>
<!-- Node1&#45;&gt;Node4 -->
<g id="edge3" class="edge">
<title>Node1&#45;&gt;Node4</title>
<path fill="none" stroke="midnightblue" d="M155.33,-271.27C160.97,-262.05 167.62,-251.17 172.15,-243.75"/>
<polygon fill="midnightblue" stroke="midnightblue" points="152.18,-269.73 149.95,-280.08 158.15,-273.38 152.18,-269.73"/>
</g>
<!-- Node122 -->
<g id="node50" class="node">
<title>Node122</title>
<g id="a_node50"><a xlink:href="time__inlines_8h_source.html" target="_top" xlink:title=" ">
<polygon fill="white" stroke="black" points="232.5,-224.5 232.5,-243.5 318.5,-243.5 318.5,-224.5 232.5,-224.5"/>
<text text-anchor="middle" x="275.5" y="-231.5" font-family="Helvetica,sans-Serif" font-size="10.00">time_inlines.h</text>
</a>
</g>
</g>
<!-- Node1&#45;&gt;Node122 -->
<g id="edge53" class="edge">
<title>Node1&#45;&gt;Node122</title>
<path fill="none" stroke="midnightblue" d="M174.82,-276.5C199.38,-266.38 233.32,-252.39 254.84,-243.52"/>
<polygon fill="midnightblue" stroke="midnightblue" points="173.17,-273.4 165.26,-280.44 175.84,-279.87 173.17,-273.4"/>
</g>
<!-- Node5 -->
<g id="node5" class="node">
<title>Node5</title>
<g id="a_node5"><a xlink:href="std__types_8h.html" target="_top" xlink:title=" ">
<polygon fill="white" stroke="red" points="1838,-168.5 1838,-187.5 1911,-187.5 1911,-168.5 1838,-168.5"/>
<text text-anchor="middle" x="1874.5" y="-175.5" font-family="Helvetica,sans-Serif" font-size="10.00">std_types.h</text>
</a>
</g>
</g>
<!-- Node4&#45;&gt;Node5 -->
<g id="edge4" class="edge">
<title>Node4&#45;&gt;Node5</title>
<path fill="none" stroke="midnightblue" d="M224.17,-224.18C572.49,-187.54 1627.15,-180.28 1837.71,-179.17"/>
<polygon fill="midnightblue" stroke="midnightblue" points="223.64,-220.72 214.07,-225.28 224.39,-227.68 223.64,-220.72"/>
</g>
<!-- Node5&#45;&gt;Node2 -->
<g id="edge5" class="edge">
<title>Node5&#45;&gt;Node2</title>
<path fill="none" stroke="midnightblue" d="M1827.86,-177.11C1580.89,-177.51 423.57,-176.92 68.5,-132 65.47,-131.62 62.32,-131.1 59.2,-130.5"/>
<polygon fill="midnightblue" stroke="midnightblue" points="1827.94,-180.61 1837.94,-177.09 1827.93,-173.61 1827.94,-180.61"/>
</g>
<!-- Node5&#45;&gt;Node3 -->
<g id="edge8" class="edge">
<title>Node5&#45;&gt;Node3</title>
<path fill="none" stroke="midnightblue" d="M1827.88,-176.89C1588.28,-176.13 493.68,-170.6 156.5,-132 153.71,-131.68 150.84,-131.27 147.96,-130.81"/>
<polygon fill="midnightblue" stroke="midnightblue" points="1827.98,-180.39 1837.99,-176.92 1828,-173.39 1827.98,-180.39"/>
</g>
<!-- Node6 -->
<g id="node6" class="node">
<title>Node6</title>
<g id="a_node6"><a xlink:href="abi-default_2barrier_8h.html" target="_top" xlink:title=" ">
<polygon fill="white" stroke="black" points="3522,-112.5 3522,-131.5 3579,-131.5 3579,-112.5 3522,-112.5"/>
<text text-anchor="middle" x="3550.5" y="-119.5" font-family="Helvetica,sans-Serif" font-size="10.00">barrier.h</text>
</a>
</g>
</g>
<!-- Node5&#45;&gt;Node6 -->
<g id="edge6" class="edge">
<title>Node5&#45;&gt;Node6</title>
<path fill="none" stroke="midnightblue" d="M1921.19,-177.01C2154.21,-176.86 3192.67,-173.82 3512.5,-132 3515.59,-131.6 3518.8,-131.05 3521.98,-130.42"/>
<polygon fill="midnightblue" stroke="midnightblue" points="1921.02,-173.51 1911.03,-177.01 1921.03,-180.51 1921.02,-173.51"/>
</g>
<!-- Node7 -->
<g id="node7" class="node">
<title>Node7</title>
<g id="a_node7"><a xlink:href="abi-default_2byteorder_8h.html" target="_top" xlink:title=" ">
<polygon fill="white" stroke="black" points="3597.5,-112.5 3597.5,-131.5 3669.5,-131.5 3669.5,-112.5 3597.5,-112.5"/>
<text text-anchor="middle" x="3633.5" y="-119.5" font-family="Helvetica,sans-Serif" font-size="10.00">byteorder.h</text>
</a>
</g>
</g>
<!-- Node5&#45;&gt;Node7 -->
<g id="edge7" class="edge">
<title>Node5&#45;&gt;Node7</title>
<path fill="none" stroke="midnightblue" d="M1921.4,-176.85C2161.22,-175.94 3252.21,-169.76 3588.5,-132 3591.35,-131.68 3594.29,-131.27 3597.23,-130.81"/>
<polygon fill="midnightblue" stroke="midnightblue" points="1921.26,-173.35 1911.27,-176.89 1921.29,-180.35 1921.26,-173.35"/>
</g>
<!-- Node8 -->
<g id="node8" class="node">
<title>Node8</title>
<g id="a_node8"><a xlink:href="abi-default_2init_8h.html" target="_top" xlink:title=" ">
<polygon fill="white" stroke="black" points="3688,-112.5 3688,-131.5 3729,-131.5 3729,-112.5 3688,-112.5"/>
<text text-anchor="middle" x="3708.5" y="-119.5" font-family="Helvetica,sans-Serif" font-size="10.00">init.h</text>
</a>
</g>
</g>
<!-- Node5&#45;&gt;Node8 -->
<g id="edge9" class="edge">
<title>Node5&#45;&gt;Node8</title>
<path fill="none" stroke="midnightblue" d="M1921.29,-176.58C2187.02,-174.08 3500.66,-160.37 3678.5,-132 3681.51,-131.52 3684.63,-130.82 3687.68,-130.02"/>
<polygon fill="midnightblue" stroke="midnightblue" points="1921.17,-173.08 1911.2,-176.67 1921.24,-180.08 1921.17,-173.08"/>
</g>
<!-- Node9 -->
<g id="node9" class="node">
<title>Node9</title>
<g id="a_node9"><a xlink:href="abi-default_2ipsec__types_8h_source.html" target="_top" xlink:title=" ">
<polygon fill="white" stroke="black" points="3747,-112.5 3747,-131.5 3830,-131.5 3830,-112.5 3747,-112.5"/>
<text text-anchor="middle" x="3788.5" y="-119.5" font-family="Helvetica,sans-Serif" font-size="10.00">ipsec_types.h</text>
</a>
</g>
</g>
<!-- Node5&#45;&gt;Node9 -->
<g id="edge10" class="edge">
<title>Node5&#45;&gt;Node9</title>
<path fill="none" stroke="midnightblue" d="M1921.37,-176.85C2173.45,-175.88 3370.41,-169.35 3738.5,-132 3741.22,-131.72 3744.01,-131.38 3746.83,-131"/>
<polygon fill="midnightblue" stroke="midnightblue" points="1921.08,-173.35 1911.09,-176.89 1921.11,-180.35 1921.08,-173.35"/>
</g>
<!-- Node10 -->
<g id="node10" class="node">
<title>Node10</title>
<g id="a_node10"><a xlink:href="abi-default_2packet__io__types_8h.html" target="_top" xlink:title=" ">
<polygon fill="white" stroke="black" points="3848.5,-112.5 3848.5,-131.5 3952.5,-131.5 3952.5,-112.5 3848.5,-112.5"/>
<text text-anchor="middle" x="3900.5" y="-119.5" font-family="Helvetica,sans-Serif" font-size="10.00">packet_io_types.h</text>
</a>
</g>
</g>
<!-- Node5&#45;&gt;Node10 -->
<g id="edge11" class="edge">
<title>Node5&#45;&gt;Node10</title>
<path fill="none" stroke="midnightblue" d="M1921.37,-176.71C2181.46,-175.01 3449.64,-165.1 3839.5,-132 3842.38,-131.76 3845.33,-131.46 3848.31,-131.13"/>
<polygon fill="midnightblue" stroke="midnightblue" points="1921.12,-173.22 1911.14,-176.78 1921.17,-180.22 1921.12,-173.22"/>
</g>
<!-- Node11 -->
<g id="node11" class="node">
<title>Node11</title>
<g id="a_node11"><a xlink:href="abi-default_2rwlock__recursive_8h.html" target="_top" xlink:title=" ">
<polygon fill="white" stroke="black" points="3970.5,-112.5 3970.5,-131.5 4078.5,-131.5 4078.5,-112.5 3970.5,-112.5"/>
<text text-anchor="middle" x="4024.5" y="-119.5" font-family="Helvetica,sans-Serif" font-size="10.00">rwlock_recursive.h</text>
</a>
</g>
</g>
<!-- Node5&#45;&gt;Node11 -->
<g id="edge12" class="edge">
<title>Node5&#45;&gt;Node11</title>
<path fill="none" stroke="midnightblue" d="M1921.24,-176.76C2190.46,-175.25 3545.8,-166.05 3961.5,-132 3964.36,-131.77 3967.29,-131.49 3970.25,-131.17"/>
<polygon fill="midnightblue" stroke="midnightblue" points="1921.02,-173.26 1911.04,-176.81 1921.06,-180.26 1921.02,-173.26"/>
</g>
<!-- Node12 -->
<g id="node12" class="node">
<title>Node12</title>
<g id="a_node12"><a xlink:href="abi-default_2schedule__types_8h.html" target="_top" xlink:title=" ">
<polygon fill="white" stroke="black" points="166,-112.5 166,-131.5 267,-131.5 267,-112.5 166,-112.5"/>
<text text-anchor="middle" x="216.5" y="-119.5" font-family="Helvetica,sans-Serif" font-size="10.00">schedule_types.h</text>
</a>
</g>
</g>
<!-- Node5&#45;&gt;Node12 -->
<g id="edge13" class="edge">
<title>Node5&#45;&gt;Node12</title>
<path fill="none" stroke="midnightblue" d="M1827.89,-176.45C1598.65,-173.62 589.44,-159.77 276.5,-132 273.46,-131.73 270.33,-131.41 267.19,-131.04"/>
<polygon fill="midnightblue" stroke="midnightblue" points="1827.86,-179.95 1837.9,-176.57 1827.94,-172.95 1827.86,-179.95"/>
</g>
<!-- Node13 -->
<g id="node13" class="node">
<title>Node13</title>
<g id="a_node13"><a xlink:href="abi-default_2spinlock__recursive_8h.html" target="_top" xlink:title=" ">
<polygon fill="white" stroke="black" points="285.5,-112.5 285.5,-131.5 401.5,-131.5 401.5,-112.5 285.5,-112.5"/>
<text text-anchor="middle" x="343.5" y="-119.5" font-family="Helvetica,sans-Serif" font-size="10.00">spinlock_recursive.h</text>
</a>
</g>
</g>
<!-- Node5&#45;&gt;Node13 -->
<g id="edge14" class="edge">
<title>Node5&#45;&gt;Node13</title>
<path fill="none" stroke="midnightblue" d="M1827.91,-177.31C1646.11,-178.14 967.06,-177.81 410.5,-132 407.58,-131.76 404.58,-131.48 401.57,-131.17"/>
<polygon fill="midnightblue" stroke="midnightblue" points="1827.94,-180.81 1837.93,-177.26 1827.91,-173.81 1827.94,-180.81"/>
</g>
<!-- Node14 -->
<g id="node14" class="node">
<title>Node14</title>
<g id="a_node14"><a xlink:href="abi-default_2traffic__mngr_8h.html" target="_top" xlink:title=" ">
<polygon fill="white" stroke="black" points="419.5,-112.5 419.5,-131.5 503.5,-131.5 503.5,-112.5 419.5,-112.5"/>
<text text-anchor="middle" x="461.5" y="-119.5" font-family="Helvetica,sans-Serif" font-size="10.00">traffic_mngr.h</text>
</a>
</g>
</g>
<!-- Node5&#45;&gt;Node14 -->
<g id="edge15" class="edge">
<title>Node5&#45;&gt;Node14</title>
<path fill="none" stroke="midnightblue" d="M1827.59,-176.34C1619.17,-173.29 775.74,-159.44 512.5,-132 509.64,-131.7 506.7,-131.34 503.74,-130.93"/>
<polygon fill="midnightblue" stroke="midnightblue" points="1827.83,-179.85 1837.88,-176.49 1827.93,-172.85 1827.83,-179.85"/>
</g>
<!-- Node15 -->
<g id="node15" class="node">
<title>Node15</title>
<g id="a_node15"><a xlink:href="barrier_8h.html" target="_top" xlink:title=" ">
<polygon fill="white" stroke="black" points="522,-112.5 522,-131.5 579,-131.5 579,-112.5 522,-112.5"/>
<text text-anchor="middle" x="550.5" y="-119.5" font-family="Helvetica,sans-Serif" font-size="10.00">barrier.h</text>
</a>
</g>
</g>
<!-- Node5&#45;&gt;Node15 -->
<g id="edge16" class="edge">
<title>Node5&#45;&gt;Node15</title>
<path fill="none" stroke="midnightblue" d="M1827.77,-176.43C1627.36,-173.82 839.56,-161.85 593.5,-132 588.81,-131.43 583.86,-130.61 579.07,-129.69"/>
<polygon fill="midnightblue" stroke="midnightblue" points="1827.92,-179.93 1837.96,-176.56 1828.01,-172.93 1827.92,-179.93"/>
</g>
<!-- Node16 -->
<g id="node16" class="node">
<title>Node16</title>
<g id="a_node16"><a xlink:href="classification_8h.html" target="_top" xlink:title=" ">
<polygon fill="white" stroke="red" points="636,-56.5 636,-75.5 725,-75.5 725,-56.5 636,-56.5"/>
<text text-anchor="middle" x="680.5" y="-63.5" font-family="Helvetica,sans-Serif" font-size="10.00">classification.h</text>
</a>
</g>
</g>
<!-- Node5&#45;&gt;Node16 -->
<g id="edge17" class="edge">
<title>Node5&#45;&gt;Node16</title>
<path fill="none" stroke="midnightblue" d="M1827.6,-177.05C1609.86,-177.07 706.5,-174.55 665.5,-132 650.71,-116.65 664.93,-89.79 674.1,-75.89"/>
<polygon fill="midnightblue" stroke="midnightblue" points="1827.74,-180.55 1837.74,-177.05 1827.74,-173.55 1827.74,-180.55"/>
</g>
<!-- Node17 -->
<g id="node17" class="node">
<title>Node17</title>
<g id="a_node17"><a xlink:href="spec_2ipsec__types_8h.html" target="_top" xlink:title=" ">
<polygon fill="white" stroke="red" points="602,-0.5 602,-19.5 685,-19.5 685,-0.5 602,-0.5"/>
<text text-anchor="middle" x="643.5" y="-7.5" font-family="Helvetica,sans-Serif" font-size="10.00">ipsec_types.h</text>
</a>
</g>
</g>
<!-- Node5&#45;&gt;Node17 -->
<g id="edge32" class="edge">
<title>Node5&#45;&gt;Node17</title>
<path fill="none" stroke="midnightblue" d="M1827.6,-176.58C1609.85,-174.49 705.82,-163.9 655.5,-132 624.96,-112.65 620.01,-91.57 626.5,-56 628.9,-42.86 634.94,-28.56 639.13,-19.69"/>
<polygon fill="midnightblue" stroke="midnightblue" points="1827.71,-180.09 1837.74,-176.68 1827.78,-173.09 1827.71,-180.09"/>
</g>
<!-- Node24 -->
<g id="node18" class="node">
<title>Node24</title>
<g id="a_node18"><a xlink:href="proto__stats_8h.html" target="_top" xlink:title=" ">
<polygon fill="white" stroke="black" points="781.5,-112.5 781.5,-131.5 861.5,-131.5 861.5,-112.5 781.5,-112.5"/>
<text text-anchor="middle" x="821.5" y="-119.5" font-family="Helvetica,sans-Serif" font-size="10.00">proto_stats.h</text>
</a>
</g>
</g>
<!-- Node5&#45;&gt;Node24 -->
<g id="edge19" class="edge">
<title>Node5&#45;&gt;Node24</title>
<path fill="none" stroke="midnightblue" d="M1827.74,-177.11C1684.33,-176.98 1238.22,-173.05 871.5,-132 868.26,-131.64 864.91,-131.19 861.55,-130.69"/>
<polygon fill="midnightblue" stroke="midnightblue" points="1827.93,-180.61 1837.93,-177.11 1827.93,-173.61 1827.93,-180.61"/>
</g>
<!-- Node25 -->
<g id="node19" class="node">
<title>Node25</title>
<g id="a_node19"><a xlink:href="spec_2buffer_8h.html" target="_top" xlink:title=" ">
<polygon fill="white" stroke="red" points="880,-112.5 880,-131.5 933,-131.5 933,-112.5 880,-112.5"/>
<text text-anchor="middle" x="906.5" y="-119.5" font-family="Helvetica,sans-Serif" font-size="10.00">buffer.h</text>
</a>
</g>
</g>
<!-- Node5&#45;&gt;Node25 -->
<g id="edge20" class="edge">
<title>Node5&#45;&gt;Node25</title>
<path fill="none" stroke="midnightblue" d="M1827.72,-175.96C1663.83,-172.12 1116.17,-157.65 942.5,-132 939.44,-131.55 936.26,-130.95 933.12,-130.27"/>
<polygon fill="midnightblue" stroke="midnightblue" points="1827.87,-179.46 1837.95,-176.2 1828.04,-172.47 1827.87,-179.46"/>
</g>
<!-- Node28 -->
<g id="node20" class="node">
<title>Node28</title>
<g id="a_node20"><a xlink:href="spec_2chksum_8h.html" target="_top" xlink:title=" ">
<polygon fill="white" stroke="red" points="951.5,-112.5 951.5,-131.5 1015.5,-131.5 1015.5,-112.5 951.5,-112.5"/>
<text text-anchor="middle" x="983.5" y="-119.5" font-family="Helvetica,sans-Serif" font-size="10.00">chksum.h</text>
</a>
</g>
</g>
<!-- Node5&#45;&gt;Node28 -->
<g id="edge21" class="edge">
<title>Node5&#45;&gt;Node28</title>
<path fill="none" stroke="midnightblue" d="M1827.62,-177.11C1698.9,-176.85 1329.35,-172.35 1025.5,-132 1022.25,-131.57 1018.87,-131.02 1015.51,-130.41"/>
<polygon fill="midnightblue" stroke="midnightblue" points="1827.9,-180.61 1837.9,-177.12 1827.9,-173.61 1827.9,-180.61"/>
</g>
<!-- Node30 -->
<g id="node21" class="node">
<title>Node30</title>
<g id="a_node21"><a xlink:href="spec_2classification_8h.html" target="_top" xlink:title=" ">
<polygon fill="white" stroke="black" points="674,-112.5 674,-131.5 763,-131.5 763,-112.5 674,-112.5"/>
<text text-anchor="middle" x="718.5" y="-119.5" font-family="Helvetica,sans-Serif" font-size="10.00">classification.h</text>
</a>
</g>
</g>
<!-- Node5&#45;&gt;Node30 -->
<g id="edge22" class="edge">
<title>Node5&#45;&gt;Node30</title>
<path fill="none" stroke="midnightblue" d="M1827.35,-177.17C1674.56,-177.26 1179.38,-174.05 772.5,-132 769.47,-131.69 766.36,-131.31 763.23,-130.9"/>
<polygon fill="midnightblue" stroke="midnightblue" points="1827.76,-180.67 1837.76,-177.15 1827.75,-173.67 1827.76,-180.67"/>
</g>
<!-- Node31 -->
<g id="node22" class="node">
<title>Node31</title>
<g id="a_node22"><a xlink:href="spec_2comp_8h.html" target="_top" xlink:title=" ">
<polygon fill="white" stroke="red" points="1034,-112.5 1034,-131.5 1087,-131.5 1087,-112.5 1034,-112.5"/>
<text text-anchor="middle" x="1060.5" y="-119.5" font-family="Helvetica,sans-Serif" font-size="10.00">comp.h</text>
</a>
</g>
</g>
<!-- Node5&#45;&gt;Node31 -->
<g id="edge24" class="edge">
<title>Node5&#45;&gt;Node31</title>
<path fill="none" stroke="midnightblue" d="M1827.72,-177.33C1706.3,-177.54 1371.37,-173.93 1096.5,-132 1093.44,-131.53 1090.27,-130.93 1087.12,-130.25"/>
<polygon fill="midnightblue" stroke="midnightblue" points="1827.8,-180.83 1837.79,-177.31 1827.78,-173.83 1827.8,-180.83"/>
</g>
<!-- Node33 -->
<g id="node23" class="node">
<title>Node33</title>
<g id="a_node23"><a xlink:href="spec_2cpu_8h.html" target="_top" xlink:title=" ">
<polygon fill="white" stroke="red" points="1105,-112.5 1105,-131.5 1148,-131.5 1148,-112.5 1105,-112.5"/>
<text text-anchor="middle" x="1126.5" y="-119.5" font-family="Helvetica,sans-Serif" font-size="10.00">cpu.h</text>
</a>
</g>
</g>
<!-- Node5&#45;&gt;Node33 -->
<g id="edge25" class="edge">
<title>Node5&#45;&gt;Node33</title>
<path fill="none" stroke="midnightblue" d="M1827.78,-177.6C1712.83,-178.31 1407.42,-175.57 1157.5,-132 1154.41,-131.46 1151.19,-130.73 1148.04,-129.91"/>
<polygon fill="midnightblue" stroke="midnightblue" points="1828.01,-181.1 1837.98,-177.52 1827.96,-174.1 1828.01,-181.1"/>
</g>
<!-- Node38 -->
<g id="node24" class="node">
<title>Node38</title>
<g id="a_node24"><a xlink:href="spec_2crypto_8h.html" target="_top" xlink:title=" ">
<polygon fill="white" stroke="red" points="1166.5,-112.5 1166.5,-131.5 1222.5,-131.5 1222.5,-112.5 1166.5,-112.5"/>
<text text-anchor="middle" x="1194.5" y="-119.5" font-family="Helvetica,sans-Serif" font-size="10.00">crypto.h</text>
</a>
</g>
</g>
<!-- Node5&#45;&gt;Node38 -->
<g id="edge26" class="edge">
<title>Node5&#45;&gt;Node38</title>
<path fill="none" stroke="midnightblue" d="M1827.63,-176.32C1721.23,-174.21 1453.51,-165.69 1232.5,-132 1229.28,-131.51 1225.94,-130.89 1222.62,-130.2"/>
<polygon fill="midnightblue" stroke="midnightblue" points="1827.65,-179.82 1837.72,-176.51 1827.78,-172.82 1827.65,-179.82"/>
</g>
<!-- Node40 -->
<g id="node25" class="node">
<title>Node40</title>
<g id="a_node25"><a xlink:href="spec_2crypto__types_8h.html" target="_top" xlink:title=" ">
<polygon fill="white" stroke="red" points="1241,-112.5 1241,-131.5 1330,-131.5 1330,-112.5 1241,-112.5"/>
<text text-anchor="middle" x="1285.5" y="-119.5" font-family="Helvetica,sans-Serif" font-size="10.00">crypto_types.h</text>
</a>
</g>
</g>
<!-- Node5&#45;&gt;Node40 -->
<g id="edge27" class="edge">
<title>Node5&#45;&gt;Node40</title>
<path fill="none" stroke="midnightblue" d="M1827.51,-174.34C1734.23,-168.76 1519.17,-154.49 1339.5,-132 1336.48,-131.62 1333.38,-131.2 1330.25,-130.75"/>
<polygon fill="midnightblue" stroke="midnightblue" points="1827.56,-177.84 1837.74,-174.94 1827.97,-170.86 1827.56,-177.84"/>
</g>
<!-- Node43 -->
<g id="node26" class="node">
<title>Node43</title>
<g id="a_node26"><a xlink:href="spec_2dma__types_8h.html" target="_top" xlink:title=" ">
<polygon fill="white" stroke="red" points="1348.5,-112.5 1348.5,-131.5 1428.5,-131.5 1428.5,-112.5 1348.5,-112.5"/>
<text text-anchor="middle" x="1388.5" y="-119.5" font-family="Helvetica,sans-Serif" font-size="10.00">dma_types.h</text>
</a>
</g>
</g>
<!-- Node5&#45;&gt;Node43 -->
<g id="edge28" class="edge">
<title>Node5&#45;&gt;Node43</title>
<path fill="none" stroke="midnightblue" d="M1827.69,-173.33C1747.7,-166.8 1579.65,-151.96 1438.5,-132 1435.27,-131.54 1431.93,-131.03 1428.57,-130.49"/>
<polygon fill="midnightblue" stroke="midnightblue" points="1827.68,-176.84 1837.93,-174.16 1828.24,-169.87 1827.68,-176.84"/>
</g>
<!-- Node63 -->
<g id="node27" class="node">
<title>Node63</title>
<g id="a_node27"><a xlink:href="spec_2hash_8h.html" target="_top" xlink:title=" ">
<polygon fill="white" stroke="red" points="1447,-112.5 1447,-131.5 1496,-131.5 1496,-112.5 1447,-112.5"/>
<text text-anchor="middle" x="1471.5" y="-119.5" font-family="Helvetica,sans-Serif" font-size="10.00">hash.h</text>
</a>
</g>
</g>
<!-- Node5&#45;&gt;Node63 -->
<g id="edge29" class="edge">
<title>Node5&#45;&gt;Node63</title>
<path fill="none" stroke="midnightblue" d="M1827.53,-173.35C1757.11,-167.42 1620.18,-154.06 1505.5,-132 1502.5,-131.42 1499.38,-130.73 1496.29,-129.98"/>
<polygon fill="midnightblue" stroke="midnightblue" points="1827.59,-176.87 1837.84,-174.21 1828.16,-169.89 1827.59,-176.87"/>
</g>
<!-- Node65 -->
<g id="node28" class="node">
<title>Node65</title>
<g id="a_node28"><a xlink:href="spec_2init_8h.html" target="_top" xlink:title=" ">
<polygon fill="white" stroke="red" points="1514,-112.5 1514,-131.5 1555,-131.5 1555,-112.5 1514,-112.5"/>
<text text-anchor="middle" x="1534.5" y="-119.5" font-family="Helvetica,sans-Serif" font-size="10.00">init.h</text>
</a>
</g>
</g>
<!-- Node5&#45;&gt;Node65 -->
<g id="edge30" class="edge">
<title>Node5&#45;&gt;Node65</title>
<path fill="none" stroke="midnightblue" d="M1827.83,-172.39C1766.82,-165.88 1656.86,-152.44 1564.5,-132 1561.42,-131.32 1558.2,-130.48 1555.05,-129.6"/>
<polygon fill="midnightblue" stroke="midnightblue" points="1827.6,-175.89 1837.91,-173.45 1828.34,-168.93 1827.6,-175.89"/>
</g>
<!-- Node19 -->
<g id="node29" class="node">
<title>Node19</title>
<g id="a_node29"><a xlink:href="spec_2ipsec_8h.html" target="_top" xlink:title=" ">
<polygon fill="white" stroke="red" points="1573,-112.5 1573,-131.5 1624,-131.5 1624,-112.5 1573,-112.5"/>
<text text-anchor="middle" x="1598.5" y="-119.5" font-family="Helvetica,sans-Serif" font-size="10.00">ipsec.h</text>
</a>
</g>
</g>
<!-- Node5&#45;&gt;Node19 -->
<g id="edge31" class="edge">
<title>Node5&#45;&gt;Node19</title>
<path fill="none" stroke="midnightblue" d="M1827.67,-169.21C1778.97,-160.89 1700.62,-146.88 1633.5,-132 1630.44,-131.32 1627.24,-130.56 1624.07,-129.79"/>
<polygon fill="midnightblue" stroke="midnightblue" points="1827.15,-172.68 1837.6,-170.9 1828.33,-165.78 1827.15,-172.68"/>
</g>
<!-- Node49 -->
<g id="node30" class="node">
<title>Node49</title>
<g id="a_node30"><a xlink:href="spec_2packet_8h.html" target="_top" xlink:title=" ">
<polygon fill="white" stroke="red" points="1642.5,-112.5 1642.5,-131.5 1700.5,-131.5 1700.5,-112.5 1642.5,-112.5"/>
<text text-anchor="middle" x="1671.5" y="-119.5" font-family="Helvetica,sans-Serif" font-size="10.00">packet.h</text>
</a>
</g>
</g>
<!-- Node5&#45;&gt;Node49 -->
<g id="edge33" class="edge">
<title>Node5&#45;&gt;Node49</title>
<path fill="none" stroke="midnightblue" d="M1832.48,-165.82C1793.05,-155.33 1735.11,-139.92 1700.56,-130.73"/>
<polygon fill="midnightblue" stroke="midnightblue" points="1831.77,-169.26 1842.33,-168.44 1833.57,-162.49 1831.77,-169.26"/>
</g>
<!-- Node76 -->
<g id="node31" class="node">
<title>Node76</title>
<g id="a_node31"><a xlink:href="spec_2packet__flags_8h.html" target="_top" xlink:title=" ">
<polygon fill="white" stroke="red" points="1718.5,-112.5 1718.5,-131.5 1804.5,-131.5 1804.5,-112.5 1718.5,-112.5"/>
<text text-anchor="middle" x="1761.5" y="-119.5" font-family="Helvetica,sans-Serif" font-size="10.00">packet_flags.h</text>
</a>
</g>
</g>
<!-- Node5&#45;&gt;Node76 -->
<g id="edge34" class="edge">
<title>Node5&#45;&gt;Node76</title>
<path fill="none" stroke="midnightblue" d="M1847.5,-164.1C1826.39,-154.01 1797.64,-140.27 1779.32,-131.52"/>
<polygon fill="midnightblue" stroke="midnightblue" points="1846.06,-167.29 1856.59,-168.44 1849.08,-160.97 1846.06,-167.29"/>
</g>
<!-- Node51 -->
<g id="node32" class="node">
<title>Node51</title>
<g id="a_node32"><a xlink:href="spec_2packet__io__types_8h.html" target="_top" xlink:title=" ">
<polygon fill="white" stroke="red" points="1822.5,-112.5 1822.5,-131.5 1926.5,-131.5 1926.5,-112.5 1822.5,-112.5"/>
<text text-anchor="middle" x="1874.5" y="-119.5" font-family="Helvetica,sans-Serif" font-size="10.00">packet_io_types.h</text>
</a>
</g>
</g>
<!-- Node5&#45;&gt;Node51 -->
<g id="edge35" class="edge">
<title>Node5&#45;&gt;Node51</title>
<path fill="none" stroke="midnightblue" d="M1874.5,-157.8C1874.5,-148.91 1874.5,-138.78 1874.5,-131.75"/>
<polygon fill="midnightblue" stroke="midnightblue" points="1871,-158.08 1874.5,-168.08 1878,-158.08 1871,-158.08"/>
</g>
<!-- Node55 -->
<g id="node33" class="node">
<title>Node55</title>
<g id="a_node33"><a xlink:href="spec_2pool_8h.html" target="_top" xlink:title=" ">
<polygon fill="white" stroke="red" points="1945,-112.5 1945,-131.5 1992,-131.5 1992,-112.5 1945,-112.5"/>
<text text-anchor="middle" x="1968.5" y="-119.5" font-family="Helvetica,sans-Serif" font-size="10.00">pool.h</text>
</a>
</g>
</g>
<!-- Node5&#45;&gt;Node55 -->
<g id="edge36" class="edge">
<title>Node5&#45;&gt;Node55</title>
<path fill="none" stroke="midnightblue" d="M1898.56,-163.18C1915.86,-153.24 1938.65,-140.15 1953.43,-131.65"/>
<polygon fill="midnightblue" stroke="midnightblue" points="1896.53,-160.31 1889.6,-168.32 1900.02,-166.38 1896.53,-160.31"/>
</g>
<!-- Node47 -->
<g id="node34" class="node">
<title>Node47</title>
<g id="a_node34"><a xlink:href="spec_2pool__types_8h.html" target="_top" xlink:title=" ">
<polygon fill="white" stroke="red" points="2010,-112.5 2010,-131.5 2089,-131.5 2089,-112.5 2010,-112.5"/>
<text text-anchor="middle" x="2049.5" y="-119.5" font-family="Helvetica,sans-Serif" font-size="10.00">pool_types.h</text>
</a>
</g>
</g>
<!-- Node5&#45;&gt;Node47 -->
<g id="edge37" class="edge">
<title>Node5&#45;&gt;Node47</title>
<path fill="none" stroke="midnightblue" d="M1911.97,-165.44C1944.97,-155.26 1992.26,-140.66 2021.9,-131.52"/>
<polygon fill="midnightblue" stroke="midnightblue" points="1910.75,-162.15 1902.23,-168.44 1912.82,-168.84 1910.75,-162.15"/>
</g>
<!-- Node78 -->
<g id="node35" class="node">
<title>Node78</title>
<g id="a_node35"><a xlink:href="spec_2proto__stats__types_8h.html" target="_top" xlink:title=" ">
<polygon fill="white" stroke="red" points="2107,-112.5 2107,-131.5 2220,-131.5 2220,-112.5 2107,-112.5"/>
<text text-anchor="middle" x="2163.5" y="-119.5" font-family="Helvetica,sans-Serif" font-size="10.00">proto_stats_types.h</text>
</a>
</g>
</g>
<!-- Node5&#45;&gt;Node78 -->
<g id="edge38" class="edge">
<title>Node5&#45;&gt;Node78</title>
<path fill="none" stroke="midnightblue" d="M1921.12,-168.29C1975.23,-158.18 2063.91,-141.61 2117.68,-131.56"/>
<polygon fill="midnightblue" stroke="midnightblue" points="1920.29,-164.88 1911.1,-170.16 1921.57,-171.76 1920.29,-164.88"/>
</g>
<!-- Node88 -->
<g id="node36" class="node">
<title>Node88</title>
<g id="a_node36"><a xlink:href="spec_2queue_8h.html" target="_top" xlink:title=" ">
<polygon fill="white" stroke="red" points="2238.5,-112.5 2238.5,-131.5 2294.5,-131.5 2294.5,-112.5 2238.5,-112.5"/>
<text text-anchor="middle" x="2266.5" y="-119.5" font-family="Helvetica,sans-Serif" font-size="10.00">queue.h</text>
</a>
</g>
</g>
<!-- Node5&#45;&gt;Node88 -->
<g id="edge39" class="edge">
<title>Node5&#45;&gt;Node88</title>
<path fill="none" stroke="midnightblue" d="M1921.24,-172.77C1989.38,-166.21 2119.81,-152.23 2229.5,-132 2232.36,-131.47 2235.33,-130.86 2238.29,-130.21"/>
<polygon fill="midnightblue" stroke="midnightblue" points="1920.87,-169.29 1911.25,-173.72 1921.54,-176.25 1920.87,-169.29"/>
</g>
<!-- Node90 -->
<g id="node37" class="node">
<title>Node90</title>
<g id="a_node37"><a xlink:href="spec_2random_8h.html" target="_top" xlink:title=" ">
<polygon fill="white" stroke="red" points="2313,-112.5 2313,-131.5 2376,-131.5 2376,-112.5 2313,-112.5"/>
<text text-anchor="middle" x="2344.5" y="-119.5" font-family="Helvetica,sans-Serif" font-size="10.00">random.h</text>
</a>
</g>
</g>
<!-- Node5&#45;&gt;Node90 -->
<g id="edge40" class="edge">
<title>Node5&#45;&gt;Node90</title>
<path fill="none" stroke="midnightblue" d="M1921.24,-173.81C2000.32,-168.04 2165.36,-154.34 2303.5,-132 2306.52,-131.51 2309.66,-130.94 2312.78,-130.33"/>
<polygon fill="midnightblue" stroke="midnightblue" points="1920.85,-170.33 1911.12,-174.54 1921.35,-177.31 1920.85,-170.33"/>
</g>
<!-- Node92 -->
<g id="node38" class="node">
<title>Node92</title>
<g id="a_node38"><a xlink:href="spec_2random__types_8h.html" target="_top" xlink:title=" ">
<polygon fill="white" stroke="red" points="2394,-112.5 2394,-131.5 2489,-131.5 2489,-112.5 2394,-112.5"/>
<text text-anchor="middle" x="2441.5" y="-119.5" font-family="Helvetica,sans-Serif" font-size="10.00">random_types.h</text>
</a>
</g>
</g>
<!-- Node5&#45;&gt;Node92 -->
<g id="edge41" class="edge">
<title>Node5&#45;&gt;Node92</title>
<path fill="none" stroke="midnightblue" d="M1921.31,-174C2011.39,-167.99 2215.05,-153.17 2385.5,-132 2388.24,-131.66 2391.04,-131.29 2393.87,-130.89"/>
<polygon fill="midnightblue" stroke="midnightblue" points="1920.9,-170.52 1911.15,-174.68 1921.36,-177.51 1920.9,-170.52"/>
</g>
<!-- Node94 -->
<g id="node39" class="node">
<title>Node94</title>
<g id="a_node39"><a xlink:href="spec_2reassembly_8h.html" target="_top" xlink:title=" ">
<polygon fill="white" stroke="red" points="2507,-112.5 2507,-131.5 2588,-131.5 2588,-112.5 2507,-112.5"/>
<text text-anchor="middle" x="2547.5" y="-119.5" font-family="Helvetica,sans-Serif" font-size="10.00">reassembly.h</text>
</a>
</g>
</g>
<!-- Node5&#45;&gt;Node94 -->
<g id="edge42" class="edge">
<title>Node5&#45;&gt;Node94</title>
<path fill="none" stroke="midnightblue" d="M1921.39,-175.38C2025.55,-171.39 2283.92,-159.36 2498.5,-132 2501.25,-131.65 2504.07,-131.25 2506.91,-130.81"/>
<polygon fill="midnightblue" stroke="midnightblue" points="1921.07,-171.89 1911.21,-175.76 1921.34,-178.88 1921.07,-171.89"/>
</g>
<!-- Node96 -->
<g id="node40" class="node">
<title>Node96</title>
<g id="a_node40"><a xlink:href="spec_2schedule_8h.html" target="_top" xlink:title=" ">
<polygon fill="white" stroke="red" points="2606,-112.5 2606,-131.5 2675,-131.5 2675,-112.5 2606,-112.5"/>
<text text-anchor="middle" x="2640.5" y="-119.5" font-family="Helvetica,sans-Serif" font-size="10.00">schedule.h</text>
</a>
</g>
</g>
<!-- Node5&#45;&gt;Node96 -->
<g id="edge43" class="edge">
<title>Node5&#45;&gt;Node96</title>
<path fill="none" stroke="midnightblue" d="M1921.42,-176.42C2036.91,-174.48 2344,-166.24 2597.5,-132 2600.22,-131.63 2603.03,-131.19 2605.84,-130.7"/>
<polygon fill="midnightblue" stroke="midnightblue" points="1921.11,-172.92 1911.17,-176.58 1921.23,-179.92 1921.11,-172.92"/>
</g>
<!-- Node98 -->
<g id="node41" class="node">
<title>Node98</title>
<g id="a_node41"><a xlink:href="spec_2schedule__types_8h.html" target="_top" xlink:title=" ">
<polygon fill="white" stroke="red" points="2693,-112.5 2693,-131.5 2794,-131.5 2794,-112.5 2693,-112.5"/>
<text text-anchor="middle" x="2743.5" y="-119.5" font-family="Helvetica,sans-Serif" font-size="10.00">schedule_types.h</text>
</a>
</g>
</g>
<!-- Node5&#45;&gt;Node98 -->
<g id="edge44" class="edge">
<title>Node5&#45;&gt;Node98</title>
<path fill="none" stroke="midnightblue" d="M1921.67,-175.96C2046.47,-172.87 2395.58,-161.99 2684.5,-132 2687.18,-131.72 2689.92,-131.41 2692.69,-131.07"/>
<polygon fill="midnightblue" stroke="midnightblue" points="1921.24,-172.47 1911.33,-176.21 1921.41,-179.47 1921.24,-172.47"/>
</g>
<!-- Node106 -->
<g id="node42" class="node">
<title>Node106</title>
<g id="a_node42"><a xlink:href="spec_2stash__types_8h.html" target="_top" xlink:title=" ">
<polygon fill="white" stroke="red" points="2812.5,-112.5 2812.5,-131.5 2896.5,-131.5 2896.5,-112.5 2812.5,-112.5"/>
<text text-anchor="middle" x="2854.5" y="-119.5" font-family="Helvetica,sans-Serif" font-size="10.00">stash_types.h</text>
</a>
</g>
</g>
<!-- Node5&#45;&gt;Node106 -->
<g id="edge45" class="edge">
<title>Node5&#45;&gt;Node106</title>
<path fill="none" stroke="midnightblue" d="M1921.48,-176.82C2058.1,-175.83 2466.86,-169.7 2803.5,-132 2806.36,-131.68 2809.3,-131.3 2812.26,-130.88"/>
<polygon fill="midnightblue" stroke="midnightblue" points="1921.34,-173.32 1911.37,-176.88 1921.39,-180.32 1921.34,-173.32"/>
</g>
<!-- Node110 -->
<g id="node43" class="node">
<title>Node110</title>
<g id="a_node43"><a xlink:href="spec_2std_8h.html" target="_top" xlink:title=" ">
<polygon fill="white" stroke="red" points="2915,-112.5 2915,-131.5 2956,-131.5 2956,-112.5 2915,-112.5"/>
<text text-anchor="middle" x="2935.5" y="-119.5" font-family="Helvetica,sans-Serif" font-size="10.00">std.h</text>
</a>
</g>
</g>
<!-- Node5&#45;&gt;Node110 -->
<g id="edge46" class="edge">
<title>Node5&#45;&gt;Node110</title>
<path fill="none" stroke="midnightblue" d="M1921.29,-176.5C2096.31,-174.37 2712.26,-164.68 2905.5,-132 2908.5,-131.49 2911.63,-130.78 2914.68,-129.97"/>
<polygon fill="midnightblue" stroke="midnightblue" points="1921.08,-173 1911.12,-176.62 1921.16,-180 1921.08,-173"/>
</g>
<!-- Node112 -->
<g id="node44" class="node">
<title>Node112</title>
<g id="a_node44"><a xlink:href="spec_2threshold_8h.html" target="_top" xlink:title=" ">
<polygon fill="white" stroke="red" points="2974,-112.5 2974,-131.5 3045,-131.5 3045,-112.5 2974,-112.5"/>
<text text-anchor="middle" x="3009.5" y="-119.5" font-family="Helvetica,sans-Serif" font-size="10.00">threshold.h</text>
</a>
</g>
</g>
<!-- Node5&#45;&gt;Node112 -->
<g id="edge47" class="edge">
<title>Node5&#45;&gt;Node112</title>
<path fill="none" stroke="midnightblue" d="M1921.23,-176.07C2102.41,-172.32 2758.64,-157.26 2965.5,-132 2968.13,-131.68 2970.84,-131.28 2973.56,-130.84"/>
<polygon fill="midnightblue" stroke="midnightblue" points="1921.15,-172.57 1911.22,-176.28 1921.29,-179.57 1921.15,-172.57"/>
</g>
<!-- Node114 -->
<g id="node45" class="node">
<title>Node114</title>
<g id="a_node45"><a xlink:href="spec_2thrmask_8h.html" target="_top" xlink:title=" ">
<polygon fill="white" stroke="red" points="3063.5,-112.5 3063.5,-131.5 3129.5,-131.5 3129.5,-112.5 3063.5,-112.5"/>
<text text-anchor="middle" x="3096.5" y="-119.5" font-family="Helvetica,sans-Serif" font-size="10.00">thrmask.h</text>
</a>
</g>
</g>
<!-- Node5&#45;&gt;Node114 -->
<g id="edge48" class="edge">
<title>Node5&#45;&gt;Node114</title>
<path fill="none" stroke="midnightblue" d="M1921.53,-176.29C2112.38,-173.26 2829.52,-160.18 3054.5,-132 3057.31,-131.65 3060.21,-131.2 3063.12,-130.7"/>
<polygon fill="midnightblue" stroke="midnightblue" points="1921.22,-172.8 1911.28,-176.45 1921.33,-179.8 1921.22,-172.8"/>
</g>
<!-- Node116 -->
<g id="node46" class="node">
<title>Node116</title>
<g id="a_node46"><a xlink:href="spec_2time_8h.html" target="_top" xlink:title=" ">
<polygon fill="white" stroke="red" points="3147.5,-112.5 3147.5,-131.5 3195.5,-131.5 3195.5,-112.5 3147.5,-112.5"/>
<text text-anchor="middle" x="3171.5" y="-119.5" font-family="Helvetica,sans-Serif" font-size="10.00">time.h</text>
</a>
</g>
</g>
<!-- Node5&#45;&gt;Node116 -->
<g id="edge49" class="edge">
<title>Node5&#45;&gt;Node116</title>
<path fill="none" stroke="midnightblue" d="M1921.31,-176.78C2120.33,-175.61 2896.97,-168.73 3138.5,-132 3141.44,-131.55 3144.48,-130.94 3147.49,-130.24"/>
<polygon fill="midnightblue" stroke="midnightblue" points="1921.17,-173.28 1911.19,-176.83 1921.21,-180.28 1921.17,-173.28"/>
</g>
<!-- Node118 -->
<g id="node47" class="node">
<title>Node118</title>
<g id="a_node47"><a xlink:href="spec_2timer__types_8h.html" target="_top" xlink:title=" ">
<polygon fill="white" stroke="red" points="3213.5,-112.5 3213.5,-131.5 3297.5,-131.5 3297.5,-112.5 3213.5,-112.5"/>
<text text-anchor="middle" x="3255.5" y="-119.5" font-family="Helvetica,sans-Serif" font-size="10.00">timer_types.h</text>
</a>
</g>
</g>
<!-- Node5&#45;&gt;Node118 -->
<g id="edge50" class="edge">
<title>Node5&#45;&gt;Node118</title>
<path fill="none" stroke="midnightblue" d="M1921.32,-176.3C2126.54,-173.1 2947.87,-158.85 3204.5,-132 3207.36,-131.7 3210.3,-131.34 3213.26,-130.93"/>
<polygon fill="midnightblue" stroke="midnightblue" points="1921.12,-172.8 1911.18,-176.46 1921.23,-179.8 1921.12,-172.8"/>
</g>
<!-- Node53 -->
<g id="node48" class="node">
<title>Node53</title>
<g id="a_node48"><a xlink:href="spec_2traffic__mngr_8h.html" target="_top" xlink:title=" ">
<polygon fill="white" stroke="red" points="3315.5,-112.5 3315.5,-131.5 3399.5,-131.5 3399.5,-112.5 3315.5,-112.5"/>
<text text-anchor="middle" x="3357.5" y="-119.5" font-family="Helvetica,sans-Serif" font-size="10.00">traffic_mngr.h</text>
</a>
</g>
</g>
<!-- Node5&#45;&gt;Node53 -->
<g id="edge51" class="edge">
<title>Node5&#45;&gt;Node53</title>
<path fill="none" stroke="midnightblue" d="M1921.35,-176.43C2136.21,-173.68 3028.67,-160.73 3306.5,-132 3309.36,-131.7 3312.31,-131.34 3315.26,-130.93"/>
<polygon fill="midnightblue" stroke="midnightblue" points="1921.01,-172.94 1911.06,-176.56 1921.1,-179.93 1921.01,-172.94"/>
</g>
<!-- Node120 -->
<g id="node49" class="node">
<title>Node120</title>
<g id="a_node49"><a xlink:href="system__info_8h.html" target="_top" xlink:title=" ">
<polygon fill="white" stroke="black" points="3417.5,-112.5 3417.5,-131.5 3503.5,-131.5 3503.5,-112.5 3417.5,-112.5"/>
<text text-anchor="middle" x="3460.5" y="-119.5" font-family="Helvetica,sans-Serif" font-size="10.00">system_info.h</text>
</a>
</g>
</g>
<!-- Node5&#45;&gt;Node120 -->
<g id="edge52" class="edge">
<title>Node5&#45;&gt;Node120</title>
<path fill="none" stroke="midnightblue" d="M1921.4,-176.52C2145.59,-174.11 3109.38,-162.12 3408.5,-132 3411.42,-131.71 3414.42,-131.35 3417.43,-130.94"/>
<polygon fill="midnightblue" stroke="midnightblue" points="1921.26,-173.02 1911.29,-176.63 1921.33,-180.02 1921.26,-173.02"/>
</g>
<!-- Node16&#45;&gt;Node17 -->
<g id="edge18" class="edge">
<title>Node16&#45;&gt;Node17</title>
<path fill="none" stroke="midnightblue" d="M668.55,-47.57C662.19,-38.27 654.63,-27.25 649.5,-19.75"/>
<polygon fill="midnightblue" stroke="midnightblue" points="665.85,-49.81 674.39,-56.08 671.63,-45.86 665.85,-49.81"/>
</g>
<!-- Node30&#45;&gt;Node16 -->
<g id="edge23" class="edge">
<title>Node30&#45;&gt;Node16</title>
<path fill="none" stroke="midnightblue" d="M706.44,-103.86C699.86,-94.5 691.99,-83.33 686.66,-75.75"/>
<polygon fill="midnightblue" stroke="midnightblue" points="703.61,-105.92 712.23,-112.08 709.33,-101.89 703.61,-105.92"/>
</g>
</g>
</svg>
