<?xml version="1.0" encoding="UTF-8" standalone="no"?>
<!DOCTYPE svg PUBLIC "-//W3C//DTD SVG 1.1//EN"
 "http://www.w3.org/Graphics/SVG/1.1/DTD/svg11.dtd">
<!-- Generated by graphviz version 2.43.0 (0)
 -->
<!-- Title: crypto.h Pages: 1 -->
<svg width="1441pt" height="1225pt"
 viewBox="0.00 0.00 1441.00 1225.00" xmlns="http://www.w3.org/2000/svg" xmlns:xlink="http://www.w3.org/1999/xlink">
<g id="graph0" class="graph" transform="scale(1 1) rotate(0) translate(4 1221)">
<title>crypto.h</title>
<polygon fill="white" stroke="transparent" points="-4,4 -4,-1221 1437,-1221 1437,4 -4,4"/>
<!-- Node1 -->
<g id="node1" class="node">
<title>Node1</title>
<g id="a_node1"><a xlink:title=" ">
<polygon fill="#bfbfbf" stroke="black" points="1014,-1197.5 1014,-1216.5 1070,-1216.5 1070,-1197.5 1014,-1197.5"/>
<text text-anchor="middle" x="1042" y="-1204.5" font-family="Helvetica,sans-Serif" font-size="10.00">crypto.h</text>
</a>
</g>
</g>
<!-- Node2 -->
<g id="node2" class="node">
<title>Node2</title>
<g id="a_node2"><a xlink:title=" ">
<polygon fill="white" stroke="#bfbfbf" points="918.5,-1141.5 918.5,-1160.5 1031.5,-1160.5 1031.5,-1141.5 918.5,-1141.5"/>
<text text-anchor="middle" x="975" y="-1148.5" font-family="Helvetica,sans-Serif" font-size="10.00">odp/api/abi/crypto.h</text>
</a>
</g>
</g>
<!-- Node1&#45;&gt;Node2 -->
<g id="edge1" class="edge">
<title>Node1&#45;&gt;Node2</title>
<path fill="none" stroke="midnightblue" d="M1031.24,-1197.32C1021.23,-1189.26 1006.11,-1177.08 994.07,-1167.37"/>
<polygon fill="midnightblue" stroke="midnightblue" points="995.94,-1164.38 985.96,-1160.83 991.55,-1169.83 995.94,-1164.38"/>
</g>
<!-- Node3 -->
<g id="node3" class="node">
<title>Node3</title>
<g id="a_node3"><a xlink:href="spec_2crypto_8h.html" target="_top" xlink:title=" ">
<polygon fill="white" stroke="black" points="1049.5,-1141.5 1049.5,-1160.5 1170.5,-1160.5 1170.5,-1141.5 1049.5,-1141.5"/>
<text text-anchor="middle" x="1110" y="-1148.5" font-family="Helvetica,sans-Serif" font-size="10.00">odp/api/spec/crypto.h</text>
</a>
</g>
</g>
<!-- Node1&#45;&gt;Node3 -->
<g id="edge2" class="edge">
<title>Node1&#45;&gt;Node3</title>
<path fill="none" stroke="midnightblue" d="M1052.93,-1197.32C1063.17,-1189.18 1078.72,-1176.84 1091,-1167.09"/>
<polygon fill="midnightblue" stroke="midnightblue" points="1093.22,-1169.79 1098.88,-1160.83 1088.87,-1164.31 1093.22,-1169.79"/>
</g>
<!-- Node4 -->
<g id="node4" class="node">
<title>Node4</title>
<g id="a_node4"><a xlink:title=" ">
<polygon fill="white" stroke="#bfbfbf" points="329.5,-0.5 329.5,-19.5 450.5,-19.5 450.5,-0.5 329.5,-0.5"/>
<text text-anchor="middle" x="390" y="-7.5" font-family="Helvetica,sans-Serif" font-size="10.00">odp/visibility_begin.h</text>
</a>
</g>
</g>
<!-- Node3&#45;&gt;Node4 -->
<g id="edge3" class="edge">
<title>Node3&#45;&gt;Node4</title>
<path fill="none" stroke="midnightblue" d="M1049.43,-1142C1046.58,-1141.66 1043.76,-1141.32 1041,-1141 925.51,-1127.56 0,-1150.77 0,-1034.5 0,-1034.5 0,-1034.5 0,-132 0,-92.05 14.35,-77.53 48,-56 91.67,-28.06 232.72,-17.33 319.44,-13.31"/>
<polygon fill="midnightblue" stroke="midnightblue" points="319.64,-16.8 329.47,-12.86 319.33,-9.81 319.64,-16.8"/>
</g>
<!-- Node5 -->
<g id="node5" class="node">
<title>Node5</title>
<g id="a_node5"><a xlink:href="crypto__types_8h.html" target="_top" xlink:title=" ">
<polygon fill="white" stroke="black" points="881,-1085.5 881,-1104.5 1009,-1104.5 1009,-1085.5 881,-1085.5"/>
<text text-anchor="middle" x="945" y="-1092.5" font-family="Helvetica,sans-Serif" font-size="10.00">odp/api/crypto_types.h</text>
</a>
</g>
</g>
<!-- Node3&#45;&gt;Node5 -->
<g id="edge4" class="edge">
<title>Node3&#45;&gt;Node5</title>
<path fill="none" stroke="midnightblue" d="M1083.86,-1141.44C1055.98,-1132.32 1011.65,-1117.81 980.6,-1107.65"/>
<polygon fill="midnightblue" stroke="midnightblue" points="981.62,-1104.3 971.02,-1104.52 979.44,-1110.95 981.62,-1104.3"/>
</g>
<!-- Node8 -->
<g id="node8" class="node">
<title>Node8</title>
<g id="a_node8"><a xlink:href="deprecated_8h.html" target="_top" xlink:title=" ">
<polygon fill="white" stroke="black" points="39.5,-962.5 39.5,-981.5 158.5,-981.5 158.5,-962.5 39.5,-962.5"/>
<text text-anchor="middle" x="99" y="-969.5" font-family="Helvetica,sans-Serif" font-size="10.00">odp/api/deprecated.h</text>
</a>
</g>
</g>
<!-- Node3&#45;&gt;Node8 -->
<g id="edge72" class="edge">
<title>Node3&#45;&gt;Node8</title>
<path fill="none" stroke="midnightblue" d="M1061.24,-1141.46C893.33,-1112.07 339.43,-1015.09 157.48,-983.24"/>
<polygon fill="midnightblue" stroke="midnightblue" points="158.02,-979.78 147.57,-981.5 156.81,-986.68 158.02,-979.78"/>
</g>
<!-- Node10 -->
<g id="node10" class="node">
<title>Node10</title>
<g id="a_node10"><a xlink:title=" ">
<polygon fill="white" stroke="#bfbfbf" points="1149,-0.5 1149,-19.5 1261,-19.5 1261,-0.5 1149,-0.5"/>
<text text-anchor="middle" x="1205" y="-7.5" font-family="Helvetica,sans-Serif" font-size="10.00">odp/visibility_end.h</text>
</a>
</g>
</g>
<!-- Node3&#45;&gt;Node10 -->
<g id="edge75" class="edge">
<title>Node3&#45;&gt;Node10</title>
<path fill="none" stroke="midnightblue" d="M1170.65,-1144.74C1238.1,-1138.04 1342.04,-1124.86 1376,-1105 1410.78,-1084.66 1433,-1074.79 1433,-1034.5 1433,-1034.5 1433,-1034.5 1433,-132 1433,-58.15 1338.52,-29.24 1271.2,-18.01"/>
<polygon fill="midnightblue" stroke="midnightblue" points="1271.49,-14.51 1261.07,-16.42 1270.4,-21.43 1271.49,-14.51"/>
</g>
<!-- Node11 -->
<g id="node11" class="node">
<title>Node11</title>
<g id="a_node11"><a xlink:href="packet__types_8h.html" target="_top" xlink:title=" ">
<polygon fill="white" stroke="black" points="989.5,-738.5 989.5,-757.5 1118.5,-757.5 1118.5,-738.5 989.5,-738.5"/>
<text text-anchor="middle" x="1054" y="-745.5" font-family="Helvetica,sans-Serif" font-size="10.00">odp/api/packet_types.h</text>
</a>
</g>
</g>
<!-- Node3&#45;&gt;Node11 -->
<g id="edge73" class="edge">
<title>Node3&#45;&gt;Node11</title>
<path fill="none" stroke="midnightblue" d="M1147.44,-1141.47C1196.12,-1127.91 1275,-1096.39 1275,-1034.5 1275,-1034.5 1275,-1034.5 1275,-859 1275,-792.08 1192.78,-765.87 1128.64,-755.61"/>
<polygon fill="midnightblue" stroke="midnightblue" points="1128.92,-752.11 1118.52,-754.09 1127.89,-759.03 1128.92,-752.11"/>
</g>
<!-- Node18 -->
<g id="node18" class="node">
<title>Node18</title>
<g id="a_node18"><a xlink:href="std__types_8h.html" target="_top" xlink:title=" ">
<polygon fill="white" stroke="black" points="824,-235.5 824,-254.5 936,-254.5 936,-235.5 824,-235.5"/>
<text text-anchor="middle" x="880" y="-242.5" font-family="Helvetica,sans-Serif" font-size="10.00">odp/api/std_types.h</text>
</a>
</g>
</g>
<!-- Node3&#45;&gt;Node18 -->
<g id="edge74" class="edge">
<title>Node3&#45;&gt;Node18</title>
<path fill="none" stroke="midnightblue" d="M1170.54,-1150.41C1252.59,-1147.42 1389,-1128.34 1389,-1034.5 1389,-1034.5 1389,-1034.5 1389,-624 1389,-458.83 1358.39,-387.03 1224,-291 1180.75,-260.1 1033.6,-250.41 946.39,-247.38"/>
<polygon fill="midnightblue" stroke="midnightblue" points="946.43,-243.88 936.32,-247.05 946.2,-250.88 946.43,-243.88"/>
</g>
<!-- Node6 -->
<g id="node6" class="node">
<title>Node6</title>
<g id="a_node6"><a xlink:title=" ">
<polygon fill="white" stroke="#bfbfbf" points="767,-1018.5 767,-1048.5 871,-1048.5 871,-1018.5 767,-1018.5"/>
<text text-anchor="start" x="775" y="-1036.5" font-family="Helvetica,sans-Serif" font-size="10.00">odp/api/abi/crypto</text>
<text text-anchor="middle" x="819" y="-1025.5" font-family="Helvetica,sans-Serif" font-size="10.00">_types.h</text>
</a>
</g>
</g>
<!-- Node5&#45;&gt;Node6 -->
<g id="edge5" class="edge">
<title>Node5&#45;&gt;Node6</title>
<path fill="none" stroke="midnightblue" d="M926.95,-1085.48C909.01,-1077 880.91,-1063.74 857.89,-1052.86"/>
<polygon fill="midnightblue" stroke="midnightblue" points="859.23,-1049.63 848.7,-1048.52 856.24,-1055.96 859.23,-1049.63"/>
</g>
<!-- Node7 -->
<g id="node7" class="node">
<title>Node7</title>
<g id="a_node7"><a xlink:href="spec_2crypto__types_8h.html" target="_top" xlink:title=" ">
<polygon fill="white" stroke="black" points="889,-1018.5 889,-1048.5 1001,-1048.5 1001,-1018.5 889,-1018.5"/>
<text text-anchor="start" x="897" y="-1036.5" font-family="Helvetica,sans-Serif" font-size="10.00">odp/api/spec/crypto</text>
<text text-anchor="middle" x="945" y="-1025.5" font-family="Helvetica,sans-Serif" font-size="10.00">_types.h</text>
</a>
</g>
</g>
<!-- Node5&#45;&gt;Node7 -->
<g id="edge6" class="edge">
<title>Node5&#45;&gt;Node7</title>
<path fill="none" stroke="midnightblue" d="M945,-1085.48C945,-1078.47 945,-1068.19 945,-1058.7"/>
<polygon fill="midnightblue" stroke="midnightblue" points="948.5,-1058.52 945,-1048.52 941.5,-1058.52 948.5,-1058.52"/>
</g>
<!-- Node7&#45;&gt;Node4 -->
<g id="edge7" class="edge">
<title>Node7&#45;&gt;Node4</title>
<path fill="none" stroke="midnightblue" d="M888.98,-1019.99C728.01,-983.97 273.68,-881.86 243,-870 129.23,-826 38,-809.48 38,-687.5 38,-687.5 38,-687.5 38,-132 38,-90.82 56.01,-77.72 91,-56 128.08,-32.98 243.14,-20.88 319.23,-15.22"/>
<polygon fill="midnightblue" stroke="midnightblue" points="319.52,-18.71 329.24,-14.5 319.01,-11.73 319.52,-18.71"/>
</g>
<!-- Node7&#45;&gt;Node8 -->
<g id="edge8" class="edge">
<title>Node7&#45;&gt;Node8</title>
<path fill="none" stroke="midnightblue" d="M888.73,-1019.34C885.79,-1018.84 882.86,-1018.39 880,-1018 568.24,-975.6 486.47,-1009.01 173,-982 171.69,-981.89 170.38,-981.77 169.05,-981.65"/>
<polygon fill="midnightblue" stroke="midnightblue" points="169.03,-978.13 158.74,-980.63 168.34,-985.1 169.03,-978.13"/>
</g>
<!-- Node7&#45;&gt;Node10 -->
<g id="edge71" class="edge">
<title>Node7&#45;&gt;Node10</title>
<path fill="none" stroke="midnightblue" d="M1001.03,-1020.95C1112.4,-994.36 1351,-917.72 1351,-749 1351,-749 1351,-749 1351,-624 1351,-511.4 1395,-487.1 1395,-374.5 1395,-374.5 1395,-374.5 1395,-132 1395,-68.18 1317.78,-36.55 1261.8,-22.01"/>
<polygon fill="midnightblue" stroke="midnightblue" points="1262.51,-18.58 1251.97,-19.57 1260.83,-25.38 1262.51,-18.58"/>
</g>
<!-- Node7&#45;&gt;Node11 -->
<g id="edge12" class="edge">
<title>Node7&#45;&gt;Node11</title>
<path fill="none" stroke="midnightblue" d="M955.6,-1018.4C970.28,-997.45 995,-956.33 995,-917 995,-917 995,-917 995,-859 995,-822.02 1021.21,-785.47 1038.69,-765.21"/>
<polygon fill="midnightblue" stroke="midnightblue" points="1041.47,-767.34 1045.55,-757.56 1036.26,-762.67 1041.47,-767.34"/>
</g>
<!-- Node7&#45;&gt;Node18 -->
<g id="edge70" class="edge">
<title>Node7&#45;&gt;Node18</title>
<path fill="none" stroke="midnightblue" d="M942.79,-1018.35C933.11,-956.01 895,-705.46 895,-626 895,-626 895,-626 895,-372.5 895,-333.93 888.04,-289.21 883.6,-264.62"/>
<polygon fill="midnightblue" stroke="midnightblue" points="887,-263.73 881.72,-254.55 880.12,-265.02 887,-263.73"/>
</g>
<!-- Node34 -->
<g id="node34" class="node">
<title>Node34</title>
<g id="a_node34"><a xlink:href="pool__types_8h.html" target="_top" xlink:title=" ">
<polygon fill="white" stroke="black" points="786,-962.5 786,-981.5 904,-981.5 904,-962.5 786,-962.5"/>
<text text-anchor="middle" x="845" y="-969.5" font-family="Helvetica,sans-Serif" font-size="10.00">odp/api/pool_types.h</text>
</a>
</g>
</g>
<!-- Node7&#45;&gt;Node34 -->
<g id="edge51" class="edge">
<title>Node7&#45;&gt;Node34</title>
<path fill="none" stroke="midnightblue" d="M921.3,-1018.4C905.27,-1008.86 884.2,-996.32 868.26,-986.84"/>
<polygon fill="midnightblue" stroke="midnightblue" points="869.93,-983.76 859.55,-981.66 866.36,-989.78 869.93,-983.76"/>
</g>
<!-- Node9 -->
<g id="node9" class="node">
<title>Node9</title>
<g id="a_node9"><a xlink:href="spec_2deprecated_8h.html" target="_top" xlink:title=" ">
<polygon fill="white" stroke="black" points="659.5,-62 659.5,-81 804.5,-81 804.5,-62 659.5,-62"/>
<text text-anchor="middle" x="732" y="-69" font-family="Helvetica,sans-Serif" font-size="10.00">odp/api/spec/deprecated.h</text>
</a>
</g>
</g>
<!-- Node8&#45;&gt;Node9 -->
<g id="edge9" class="edge">
<title>Node8&#45;&gt;Node9</title>
<path fill="none" stroke="midnightblue" d="M101.11,-962.33C116.9,-898.97 222.57,-504.1 451,-291 541.63,-206.45 662.74,-120.26 710.93,-86.9"/>
<polygon fill="midnightblue" stroke="midnightblue" points="713.07,-89.68 719.31,-81.13 709.09,-83.92 713.07,-89.68"/>
</g>
<!-- Node9&#45;&gt;Node4 -->
<g id="edge10" class="edge">
<title>Node9&#45;&gt;Node4</title>
<path fill="none" stroke="midnightblue" d="M683.88,-61.96C672.75,-59.99 660.97,-57.92 650,-56 581.47,-44.01 502.74,-30.41 450.04,-21.33"/>
<polygon fill="midnightblue" stroke="midnightblue" points="450.3,-17.82 439.85,-19.57 449.11,-24.72 450.3,-17.82"/>
</g>
<!-- Node9&#45;&gt;Node10 -->
<g id="edge11" class="edge">
<title>Node9&#45;&gt;Node10</title>
<path fill="none" stroke="midnightblue" d="M777.46,-61.96C789.33,-59.86 802.13,-57.73 814,-56 927.73,-39.42 1060.8,-25.2 1138.7,-17.4"/>
<polygon fill="midnightblue" stroke="midnightblue" points="1139.25,-20.86 1148.85,-16.39 1138.56,-13.89 1139.25,-20.86"/>
</g>
<!-- Node12 -->
<g id="node12" class="node">
<title>Node12</title>
<g id="a_node12"><a xlink:title=" ">
<polygon fill="white" stroke="#bfbfbf" points="1055,-671.5 1055,-701.5 1161,-701.5 1161,-671.5 1055,-671.5"/>
<text text-anchor="start" x="1063" y="-689.5" font-family="Helvetica,sans-Serif" font-size="10.00">odp/api/abi/packet</text>
<text text-anchor="middle" x="1108" y="-678.5" font-family="Helvetica,sans-Serif" font-size="10.00">_io_types.h</text>
</a>
</g>
</g>
<!-- Node11&#45;&gt;Node12 -->
<g id="edge13" class="edge">
<title>Node11&#45;&gt;Node12</title>
<path fill="none" stroke="midnightblue" d="M1061.74,-738.48C1068.71,-730.79 1079.26,-719.17 1088.52,-708.96"/>
<polygon fill="midnightblue" stroke="midnightblue" points="1091.14,-711.28 1095.27,-701.52 1085.96,-706.58 1091.14,-711.28"/>
</g>
<!-- Node13 -->
<g id="node13" class="node">
<title>Node13</title>
<g id="a_node13"><a xlink:title=" ">
<polygon fill="white" stroke="#bfbfbf" points="1179,-671.5 1179,-701.5 1285,-701.5 1285,-671.5 1179,-671.5"/>
<text text-anchor="start" x="1187" y="-689.5" font-family="Helvetica,sans-Serif" font-size="10.00">odp/api/abi/packet</text>
<text text-anchor="middle" x="1232" y="-678.5" font-family="Helvetica,sans-Serif" font-size="10.00">_types.h</text>
</a>
</g>
</g>
<!-- Node11&#45;&gt;Node13 -->
<g id="edge14" class="edge">
<title>Node11&#45;&gt;Node13</title>
<path fill="none" stroke="midnightblue" d="M1079.5,-738.48C1105.75,-729.7 1147.37,-715.79 1180.51,-704.71"/>
<polygon fill="midnightblue" stroke="midnightblue" points="1181.67,-708.01 1190.05,-701.52 1179.46,-701.37 1181.67,-708.01"/>
</g>
<!-- Node14 -->
<g id="node14" class="node">
<title>Node14</title>
<g id="a_node14"><a xlink:href="spec_2packet__types_8h.html" target="_top" xlink:title=" ">
<polygon fill="white" stroke="black" points="923.5,-671.5 923.5,-701.5 1036.5,-701.5 1036.5,-671.5 923.5,-671.5"/>
<text text-anchor="start" x="931.5" y="-689.5" font-family="Helvetica,sans-Serif" font-size="10.00">odp/api/spec/packet</text>
<text text-anchor="middle" x="980" y="-678.5" font-family="Helvetica,sans-Serif" font-size="10.00">_types.h</text>
</a>
</g>
</g>
<!-- Node11&#45;&gt;Node14 -->
<g id="edge15" class="edge">
<title>Node11&#45;&gt;Node14</title>
<path fill="none" stroke="midnightblue" d="M1043.4,-738.48C1033.56,-730.57 1018.54,-718.48 1005.58,-708.07"/>
<polygon fill="midnightblue" stroke="midnightblue" points="1007.43,-705.06 997.44,-701.52 1003.04,-710.52 1007.43,-705.06"/>
</g>
<!-- Node14&#45;&gt;Node4 -->
<g id="edge16" class="edge">
<title>Node14&#45;&gt;Node4</title>
<path fill="none" stroke="midnightblue" d="M923.29,-686.39C837.6,-686.12 671.03,-679.22 538,-635 491.13,-619.42 471.36,-618.72 442,-579 311.83,-402.9 367.75,-107.18 385.39,-29.92"/>
<polygon fill="midnightblue" stroke="midnightblue" points="388.89,-30.34 387.77,-19.8 382.08,-28.73 388.89,-30.34"/>
</g>
<!-- Node14&#45;&gt;Node10 -->
<g id="edge50" class="edge">
<title>Node14&#45;&gt;Node10</title>
<path fill="none" stroke="midnightblue" d="M1003.03,-671.4C1079.33,-622.75 1319,-453.42 1319,-246 1319,-246 1319,-246 1319,-132 1319,-81.35 1265.42,-43.28 1231.73,-24.34"/>
<polygon fill="midnightblue" stroke="midnightblue" points="1233.27,-21.2 1222.81,-19.52 1229.94,-27.36 1233.27,-21.2"/>
</g>
<!-- Node15 -->
<g id="node15" class="node">
<title>Node15</title>
<g id="a_node15"><a xlink:href="proto__stats__types_8h.html" target="_top" xlink:title=" ">
<polygon fill="white" stroke="black" points="960,-358.5 960,-388.5 1070,-388.5 1070,-358.5 960,-358.5"/>
<text text-anchor="start" x="968" y="-376.5" font-family="Helvetica,sans-Serif" font-size="10.00">odp/api/proto_stats</text>
<text text-anchor="middle" x="1015" y="-365.5" font-family="Helvetica,sans-Serif" font-size="10.00">_types.h</text>
</a>
</g>
</g>
<!-- Node14&#45;&gt;Node15 -->
<g id="edge17" class="edge">
<title>Node14&#45;&gt;Node15</title>
<path fill="none" stroke="midnightblue" d="M983.28,-671.43C988.22,-648.96 997,-603.53 997,-564.5 997,-564.5 997,-564.5 997,-501 997,-465.09 1004.2,-424.02 1009.49,-398.66"/>
<polygon fill="midnightblue" stroke="midnightblue" points="1012.92,-399.34 1011.61,-388.82 1006.08,-397.86 1012.92,-399.34"/>
</g>
<!-- Node25 -->
<g id="node25" class="node">
<title>Node25</title>
<g id="a_node25"><a xlink:href="queue__types_8h.html" target="_top" xlink:title=" ">
<polygon fill="white" stroke="black" points="547.5,-615.5 547.5,-634.5 674.5,-634.5 674.5,-615.5 547.5,-615.5"/>
<text text-anchor="middle" x="611" y="-622.5" font-family="Helvetica,sans-Serif" font-size="10.00">odp/api/queue_types.h</text>
</a>
</g>
</g>
<!-- Node14&#45;&gt;Node25 -->
<g id="edge33" class="edge">
<title>Node14&#45;&gt;Node25</title>
<path fill="none" stroke="midnightblue" d="M923.15,-676.33C855.71,-665.46 743.64,-647.39 673.72,-636.11"/>
<polygon fill="midnightblue" stroke="midnightblue" points="674.15,-632.64 663.72,-634.5 673.04,-639.55 674.15,-632.64"/>
</g>
<!-- Node16 -->
<g id="node16" class="node">
<title>Node16</title>
<g id="a_node16"><a xlink:title=" ">
<polygon fill="white" stroke="#bfbfbf" points="1087,-291.5 1087,-321.5 1215,-321.5 1215,-291.5 1087,-291.5"/>
<text text-anchor="start" x="1095" y="-309.5" font-family="Helvetica,sans-Serif" font-size="10.00">odp/api/abi/proto_stats</text>
<text text-anchor="middle" x="1151" y="-298.5" font-family="Helvetica,sans-Serif" font-size="10.00">_types.h</text>
</a>
</g>
</g>
<!-- Node15&#45;&gt;Node16 -->
<g id="edge18" class="edge">
<title>Node15&#45;&gt;Node16</title>
<path fill="none" stroke="midnightblue" d="M1044.51,-358.4C1064.38,-348.9 1090.79,-336.28 1112.34,-325.98"/>
<polygon fill="midnightblue" stroke="midnightblue" points="1114.03,-329.05 1121.55,-321.58 1111.02,-322.73 1114.03,-329.05"/>
</g>
<!-- Node17 -->
<g id="node17" class="node">
<title>Node17</title>
<g id="a_node17"><a xlink:href="spec_2proto__stats__types_8h.html" target="_top" xlink:title=" ">
<polygon fill="white" stroke="black" points="961.5,-291.5 961.5,-321.5 1068.5,-321.5 1068.5,-291.5 961.5,-291.5"/>
<text text-anchor="start" x="969.5" y="-309.5" font-family="Helvetica,sans-Serif" font-size="10.00">odp/api/spec/proto</text>
<text text-anchor="middle" x="1015" y="-298.5" font-family="Helvetica,sans-Serif" font-size="10.00">_stats_types.h</text>
</a>
</g>
</g>
<!-- Node15&#45;&gt;Node17 -->
<g id="edge19" class="edge">
<title>Node15&#45;&gt;Node17</title>
<path fill="none" stroke="midnightblue" d="M1015,-358.4C1015,-350.64 1015,-340.81 1015,-331.86"/>
<polygon fill="midnightblue" stroke="midnightblue" points="1018.5,-331.58 1015,-321.58 1011.5,-331.58 1018.5,-331.58"/>
</g>
<!-- Node17&#45;&gt;Node4 -->
<g id="edge20" class="edge">
<title>Node17&#45;&gt;Node4</title>
<path fill="none" stroke="midnightblue" d="M1004.8,-291.32C992.46,-275.22 970.18,-249.34 945,-235 888.05,-202.56 865.2,-216.36 802,-199 655.89,-158.87 609.29,-166.01 480,-87 451.51,-69.59 422.75,-43.47 405.65,-26.83"/>
<polygon fill="midnightblue" stroke="midnightblue" points="407.82,-24.06 398.25,-19.51 402.9,-29.03 407.82,-24.06"/>
</g>
<!-- Node17&#45;&gt;Node10 -->
<g id="edge32" class="edge">
<title>Node17&#45;&gt;Node10</title>
<path fill="none" stroke="midnightblue" d="M1063.63,-291.48C1130.59,-270.7 1243,-229.88 1243,-190 1243,-190 1243,-190 1243,-132 1243,-93.81 1225.56,-51.83 1214.31,-28.72"/>
<polygon fill="midnightblue" stroke="midnightblue" points="1217.29,-26.86 1209.66,-19.52 1211.04,-30.02 1217.29,-26.86"/>
</g>
<!-- Node17&#45;&gt;Node18 -->
<g id="edge21" class="edge">
<title>Node17&#45;&gt;Node18</title>
<path fill="none" stroke="midnightblue" d="M983.01,-291.4C960.56,-281.51 930.79,-268.38 909.02,-258.79"/>
<polygon fill="midnightblue" stroke="midnightblue" points="910.21,-255.49 899.64,-254.66 907.38,-261.89 910.21,-255.49"/>
</g>
<!-- Node19 -->
<g id="node19" class="node">
<title>Node19</title>
<g id="a_node19"><a xlink:title=" ">
<polygon fill="white" stroke="#bfbfbf" points="1043,-179.5 1043,-198.5 1173,-198.5 1173,-179.5 1043,-179.5"/>
<text text-anchor="middle" x="1108" y="-186.5" font-family="Helvetica,sans-Serif" font-size="10.00">odp/api/abi/std_types.h</text>
</a>
</g>
</g>
<!-- Node18&#45;&gt;Node19 -->
<g id="edge22" class="edge">
<title>Node18&#45;&gt;Node19</title>
<path fill="none" stroke="midnightblue" d="M916.13,-235.44C955.65,-226.08 1019.1,-211.06 1062.11,-200.87"/>
<polygon fill="midnightblue" stroke="midnightblue" points="1063.12,-204.23 1072.04,-198.52 1061.5,-197.42 1063.12,-204.23"/>
</g>
<!-- Node20 -->
<g id="node20" class="node">
<title>Node20</title>
<g id="a_node20"><a xlink:href="spec_2std__types_8h.html" target="_top" xlink:title=" ">
<polygon fill="white" stroke="black" points="811.5,-179.5 811.5,-198.5 948.5,-198.5 948.5,-179.5 811.5,-179.5"/>
<text text-anchor="middle" x="880" y="-186.5" font-family="Helvetica,sans-Serif" font-size="10.00">odp/api/spec/std_types.h</text>
</a>
</g>
</g>
<!-- Node18&#45;&gt;Node20 -->
<g id="edge23" class="edge">
<title>Node18&#45;&gt;Node20</title>
<path fill="none" stroke="midnightblue" d="M880,-235.08C880,-228.01 880,-217.86 880,-208.99"/>
<polygon fill="midnightblue" stroke="midnightblue" points="883.5,-208.75 880,-198.75 876.5,-208.75 883.5,-208.75"/>
</g>
<!-- Node20&#45;&gt;Node4 -->
<g id="edge24" class="edge">
<title>Node20&#45;&gt;Node4</title>
<path fill="none" stroke="midnightblue" d="M829.52,-179.48C758.5,-166.23 626.23,-136.89 523,-87 501.79,-76.75 500.16,-68.2 480,-56 460.2,-44.02 436.79,-32.39 418.81,-23.95"/>
<polygon fill="midnightblue" stroke="midnightblue" points="419.99,-20.64 409.44,-19.61 417.04,-26.99 419.99,-20.64"/>
</g>
<!-- Node20&#45;&gt;Node10 -->
<g id="edge31" class="edge">
<title>Node20&#45;&gt;Node10</title>
<path fill="none" stroke="midnightblue" d="M912.57,-179.43C938.55,-171.87 975.37,-159.47 1005,-143 1059.48,-112.71 1062.4,-89.45 1115,-56 1134.4,-43.66 1157.65,-32.11 1175.65,-23.81"/>
<polygon fill="midnightblue" stroke="midnightblue" points="1177.4,-26.86 1185.06,-19.54 1174.5,-20.48 1177.4,-26.86"/>
</g>
<!-- Node21 -->
<g id="node21" class="node">
<title>Node21</title>
<g id="a_node21"><a xlink:title=" ">
<polygon fill="white" stroke="#bfbfbf" points="942.5,-123.5 942.5,-142.5 995.5,-142.5 995.5,-123.5 942.5,-123.5"/>
<text text-anchor="middle" x="969" y="-130.5" font-family="Helvetica,sans-Serif" font-size="10.00">stdint.h</text>
</a>
</g>
</g>
<!-- Node20&#45;&gt;Node21 -->
<g id="edge25" class="edge">
<title>Node20&#45;&gt;Node21</title>
<path fill="none" stroke="midnightblue" d="M894.3,-179.32C908.18,-170.9 929.49,-157.97 945.8,-148.07"/>
<polygon fill="midnightblue" stroke="midnightblue" points="948,-150.83 954.74,-142.65 944.37,-144.85 948,-150.83"/>
</g>
<!-- Node22 -->
<g id="node22" class="node">
<title>Node22</title>
<g id="a_node22"><a xlink:href="align_8h.html" target="_top" xlink:title=" ">
<polygon fill="white" stroke="black" points="835.5,-123.5 835.5,-142.5 924.5,-142.5 924.5,-123.5 835.5,-123.5"/>
<text text-anchor="middle" x="880" y="-130.5" font-family="Helvetica,sans-Serif" font-size="10.00">odp/api/align.h</text>
</a>
</g>
</g>
<!-- Node20&#45;&gt;Node22 -->
<g id="edge26" class="edge">
<title>Node20&#45;&gt;Node22</title>
<path fill="none" stroke="midnightblue" d="M880,-179.08C880,-172.01 880,-161.86 880,-152.99"/>
<polygon fill="midnightblue" stroke="midnightblue" points="883.5,-152.75 880,-142.75 876.5,-152.75 883.5,-152.75"/>
</g>
<!-- Node23 -->
<g id="node23" class="node">
<title>Node23</title>
<g id="a_node23"><a xlink:title=" ">
<polygon fill="white" stroke="#bfbfbf" points="955.5,-62 955.5,-81 1062.5,-81 1062.5,-62 955.5,-62"/>
<text text-anchor="middle" x="1009" y="-69" font-family="Helvetica,sans-Serif" font-size="10.00">odp/api/abi/align.h</text>
</a>
</g>
</g>
<!-- Node22&#45;&gt;Node23 -->
<g id="edge27" class="edge">
<title>Node22&#45;&gt;Node23</title>
<path fill="none" stroke="midnightblue" d="M898.48,-123.48C920.13,-113.49 956.21,-96.85 981.23,-85.31"/>
<polygon fill="midnightblue" stroke="midnightblue" points="982.94,-88.38 990.55,-81.01 980.01,-82.02 982.94,-88.38"/>
</g>
<!-- Node24 -->
<g id="node24" class="node">
<title>Node24</title>
<g id="a_node24"><a xlink:href="spec_2align_8h.html" target="_top" xlink:title=" ">
<polygon fill="white" stroke="black" points="823,-62 823,-81 937,-81 937,-62 823,-62"/>
<text text-anchor="middle" x="880" y="-69" font-family="Helvetica,sans-Serif" font-size="10.00">odp/api/spec/align.h</text>
</a>
</g>
</g>
<!-- Node22&#45;&gt;Node24 -->
<g id="edge28" class="edge">
<title>Node22&#45;&gt;Node24</title>
<path fill="none" stroke="midnightblue" d="M880,-123.48C880,-115.08 880,-101.98 880,-91.16"/>
<polygon fill="midnightblue" stroke="midnightblue" points="883.5,-91.01 880,-81.01 876.5,-91.01 883.5,-91.01"/>
</g>
<!-- Node24&#45;&gt;Node4 -->
<g id="edge29" class="edge">
<title>Node24&#45;&gt;Node4</title>
<path fill="none" stroke="midnightblue" d="M843.97,-61.96C833.98,-59.8 823.11,-57.63 813,-56 689.81,-36.18 544.98,-22.92 460.73,-16.19"/>
<polygon fill="midnightblue" stroke="midnightblue" points="460.76,-12.69 450.51,-15.39 460.21,-19.66 460.76,-12.69"/>
</g>
<!-- Node24&#45;&gt;Node10 -->
<g id="edge30" class="edge">
<title>Node24&#45;&gt;Node10</title>
<path fill="none" stroke="midnightblue" d="M918.21,-61.95C927.61,-59.93 937.66,-57.83 947,-56 1013.52,-43.01 1090.05,-29.89 1142.37,-21.19"/>
<polygon fill="midnightblue" stroke="midnightblue" points="1143.21,-24.6 1152.51,-19.52 1142.07,-17.7 1143.21,-24.6"/>
</g>
<!-- Node26 -->
<g id="node26" class="node">
<title>Node26</title>
<g id="a_node26"><a xlink:title=" ">
<polygon fill="white" stroke="#bfbfbf" points="451.5,-554 451.5,-573 596.5,-573 596.5,-554 451.5,-554"/>
<text text-anchor="middle" x="524" y="-561" font-family="Helvetica,sans-Serif" font-size="10.00">odp/api/abi/queue_types.h</text>
</a>
</g>
</g>
<!-- Node25&#45;&gt;Node26 -->
<g id="edge34" class="edge">
<title>Node25&#45;&gt;Node26</title>
<path fill="none" stroke="midnightblue" d="M598.54,-615.48C584.58,-605.93 561.74,-590.31 545.01,-578.87"/>
<polygon fill="midnightblue" stroke="midnightblue" points="546.67,-575.77 536.44,-573.01 542.72,-581.54 546.67,-575.77"/>
</g>
<!-- Node27 -->
<g id="node27" class="node">
<title>Node27</title>
<g id="a_node27"><a xlink:href="spec_2queue__types_8h.html" target="_top" xlink:title=" ">
<polygon fill="white" stroke="black" points="614.5,-548.5 614.5,-578.5 725.5,-578.5 725.5,-548.5 614.5,-548.5"/>
<text text-anchor="start" x="622.5" y="-566.5" font-family="Helvetica,sans-Serif" font-size="10.00">odp/api/spec/queue</text>
<text text-anchor="middle" x="670" y="-555.5" font-family="Helvetica,sans-Serif" font-size="10.00">_types.h</text>
</a>
</g>
</g>
<!-- Node25&#45;&gt;Node27 -->
<g id="edge35" class="edge">
<title>Node25&#45;&gt;Node27</title>
<path fill="none" stroke="midnightblue" d="M619.45,-615.48C627.15,-607.72 638.82,-595.94 649.01,-585.66"/>
<polygon fill="midnightblue" stroke="midnightblue" points="651.54,-588.09 656.09,-578.52 646.57,-583.16 651.54,-588.09"/>
</g>
<!-- Node27&#45;&gt;Node4 -->
<g id="edge36" class="edge">
<title>Node27&#45;&gt;Node4</title>
<path fill="none" stroke="midnightblue" d="M635.48,-548.42C594,-530.54 523.46,-497.05 471,-456 326.77,-343.15 269.91,-313.48 203,-143 188.78,-106.77 168.74,-86.43 193,-56 208.76,-36.24 269.17,-24.47 318.99,-17.95"/>
<polygon fill="midnightblue" stroke="midnightblue" points="319.63,-21.4 329.12,-16.68 318.76,-14.45 319.63,-21.4"/>
</g>
<!-- Node27&#45;&gt;Node10 -->
<g id="edge49" class="edge">
<title>Node27&#45;&gt;Node10</title>
<path fill="none" stroke="midnightblue" d="M725.57,-559.56C876.19,-548.31 1281,-494.93 1281,-246 1281,-246 1281,-246 1281,-132 1281,-88.48 1245.3,-47.77 1222.84,-26.47"/>
<polygon fill="midnightblue" stroke="midnightblue" points="1224.99,-23.7 1215.25,-19.53 1220.27,-28.86 1224.99,-23.7"/>
</g>
<!-- Node28 -->
<g id="node28" class="node">
<title>Node28</title>
<g id="a_node28"><a xlink:href="schedule__types_8h.html" target="_top" xlink:title=" ">
<polygon fill="white" stroke="black" points="600,-492.5 600,-511.5 740,-511.5 740,-492.5 600,-492.5"/>
<text text-anchor="middle" x="670" y="-499.5" font-family="Helvetica,sans-Serif" font-size="10.00">odp/api/schedule_types.h</text>
</a>
</g>
</g>
<!-- Node27&#45;&gt;Node28 -->
<g id="edge37" class="edge">
<title>Node27&#45;&gt;Node28</title>
<path fill="none" stroke="midnightblue" d="M670,-548.4C670,-540.47 670,-530.46 670,-521.86"/>
<polygon fill="midnightblue" stroke="midnightblue" points="673.5,-521.66 670,-511.66 666.5,-521.66 673.5,-521.66"/>
</g>
<!-- Node29 -->
<g id="node29" class="node">
<title>Node29</title>
<g id="a_node29"><a xlink:title=" ">
<polygon fill="white" stroke="#bfbfbf" points="480.5,-425.5 480.5,-455.5 597.5,-455.5 597.5,-425.5 480.5,-425.5"/>
<text text-anchor="start" x="488.5" y="-443.5" font-family="Helvetica,sans-Serif" font-size="10.00">odp/api/abi/schedule</text>
<text text-anchor="middle" x="539" y="-432.5" font-family="Helvetica,sans-Serif" font-size="10.00">_types.h</text>
</a>
</g>
</g>
<!-- Node28&#45;&gt;Node29 -->
<g id="edge38" class="edge">
<title>Node28&#45;&gt;Node29</title>
<path fill="none" stroke="midnightblue" d="M651.23,-492.48C632.49,-483.96 603.11,-470.62 579.11,-459.72"/>
<polygon fill="midnightblue" stroke="midnightblue" points="580.43,-456.47 569.87,-455.52 577.53,-462.85 580.43,-456.47"/>
</g>
<!-- Node30 -->
<g id="node30" class="node">
<title>Node30</title>
<g id="a_node30"><a xlink:href="spec_2schedule__types_8h.html" target="_top" xlink:title=" ">
<polygon fill="white" stroke="black" points="615.5,-425.5 615.5,-455.5 740.5,-455.5 740.5,-425.5 615.5,-425.5"/>
<text text-anchor="start" x="623.5" y="-443.5" font-family="Helvetica,sans-Serif" font-size="10.00">odp/api/spec/schedule</text>
<text text-anchor="middle" x="678" y="-432.5" font-family="Helvetica,sans-Serif" font-size="10.00">_types.h</text>
</a>
</g>
</g>
<!-- Node28&#45;&gt;Node30 -->
<g id="edge39" class="edge">
<title>Node28&#45;&gt;Node30</title>
<path fill="none" stroke="midnightblue" d="M671.15,-492.48C672.09,-485.47 673.47,-475.19 674.75,-465.7"/>
<polygon fill="midnightblue" stroke="midnightblue" points="678.25,-465.9 676.11,-455.52 671.31,-464.97 678.25,-465.9"/>
</g>
<!-- Node30&#45;&gt;Node4 -->
<g id="edge40" class="edge">
<title>Node30&#45;&gt;Node4</title>
<path fill="none" stroke="midnightblue" d="M632.93,-425.48C537.51,-393.18 315.84,-303.68 218,-143 197.78,-109.8 185.06,-86.62 209,-56 222.81,-38.33 274.67,-26.61 319.36,-19.57"/>
<polygon fill="midnightblue" stroke="midnightblue" points="320,-23.01 329.36,-18.05 318.95,-16.09 320,-23.01"/>
</g>
<!-- Node30&#45;&gt;Node10 -->
<g id="edge48" class="edge">
<title>Node30&#45;&gt;Node10</title>
<path fill="none" stroke="midnightblue" d="M701.81,-425.45C748.91,-397.93 857.7,-335.7 953,-291 1052.3,-244.42 1115.16,-285.97 1182,-199 1220.87,-148.42 1214.04,-66.53 1208.45,-29.84"/>
<polygon fill="midnightblue" stroke="midnightblue" points="1211.84,-28.89 1206.73,-19.61 1204.93,-30.05 1211.84,-28.89"/>
</g>
<!-- Node30&#45;&gt;Node18 -->
<g id="edge41" class="edge">
<title>Node30&#45;&gt;Node18</title>
<path fill="none" stroke="midnightblue" d="M648.99,-425.41C598.47,-399.08 503.68,-340.57 547,-291 580.93,-252.18 726.75,-245.51 813.78,-245.11"/>
<polygon fill="midnightblue" stroke="midnightblue" points="813.83,-248.61 823.83,-245.09 813.82,-241.61 813.83,-248.61"/>
</g>
<!-- Node31 -->
<g id="node31" class="node">
<title>Node31</title>
<g id="a_node31"><a xlink:href="thrmask_8h.html" target="_top" xlink:title=" ">
<polygon fill="white" stroke="black" points="625.5,-364 625.5,-383 730.5,-383 730.5,-364 625.5,-364"/>
<text text-anchor="middle" x="678" y="-371" font-family="Helvetica,sans-Serif" font-size="10.00">odp/api/thrmask.h</text>
</a>
</g>
</g>
<!-- Node30&#45;&gt;Node31 -->
<g id="edge42" class="edge">
<title>Node30&#45;&gt;Node31</title>
<path fill="none" stroke="midnightblue" d="M678,-425.4C678,-416.06 678,-403.71 678,-393.52"/>
<polygon fill="midnightblue" stroke="midnightblue" points="681.5,-393.19 678,-383.19 674.5,-393.19 681.5,-393.19"/>
</g>
<!-- Node32 -->
<g id="node32" class="node">
<title>Node32</title>
<g id="a_node32"><a xlink:title=" ">
<polygon fill="white" stroke="#bfbfbf" points="556.5,-297 556.5,-316 679.5,-316 679.5,-297 556.5,-297"/>
<text text-anchor="middle" x="618" y="-304" font-family="Helvetica,sans-Serif" font-size="10.00">odp/api/abi/thrmask.h</text>
</a>
</g>
</g>
<!-- Node31&#45;&gt;Node32 -->
<g id="edge43" class="edge">
<title>Node31&#45;&gt;Node32</title>
<path fill="none" stroke="midnightblue" d="M669.91,-363.73C660.46,-353.5 644.64,-336.36 632.95,-323.69"/>
<polygon fill="midnightblue" stroke="midnightblue" points="635.32,-321.1 625.96,-316.13 630.17,-325.85 635.32,-321.1"/>
</g>
<!-- Node33 -->
<g id="node33" class="node">
<title>Node33</title>
<g id="a_node33"><a xlink:href="spec_2thrmask_8h.html" target="_top" xlink:title=" ">
<polygon fill="white" stroke="black" points="697.5,-297 697.5,-316 828.5,-316 828.5,-297 697.5,-297"/>
<text text-anchor="middle" x="763" y="-304" font-family="Helvetica,sans-Serif" font-size="10.00">odp/api/spec/thrmask.h</text>
</a>
</g>
</g>
<!-- Node31&#45;&gt;Node33 -->
<g id="edge44" class="edge">
<title>Node31&#45;&gt;Node33</title>
<path fill="none" stroke="midnightblue" d="M689.46,-363.73C703.36,-353.11 726.98,-335.05 743.69,-322.26"/>
<polygon fill="midnightblue" stroke="midnightblue" points="745.9,-324.98 751.72,-316.13 741.65,-319.42 745.9,-324.98"/>
</g>
<!-- Node33&#45;&gt;Node4 -->
<g id="edge45" class="edge">
<title>Node33&#45;&gt;Node4</title>
<path fill="none" stroke="midnightblue" d="M732.91,-296.97C672.33,-278.41 534.41,-228.98 452,-143 435.32,-125.59 409.14,-61.02 396.83,-29.1"/>
<polygon fill="midnightblue" stroke="midnightblue" points="400.05,-27.74 393.22,-19.64 393.51,-30.23 400.05,-27.74"/>
</g>
<!-- Node33&#45;&gt;Node10 -->
<g id="edge47" class="edge">
<title>Node33&#45;&gt;Node10</title>
<path fill="none" stroke="midnightblue" d="M766.73,-296.96C773.8,-281.86 790.65,-250.56 815,-235 882.28,-192.01 915.18,-224.01 991,-199 1011.02,-192.4 1014.4,-186.76 1034,-179 1081.43,-160.21 1104.82,-176.84 1143,-143 1161.04,-127 1186.56,-61.74 1198.44,-29.38"/>
<polygon fill="midnightblue" stroke="midnightblue" points="1201.8,-30.37 1201.91,-19.78 1195.22,-27.99 1201.8,-30.37"/>
</g>
<!-- Node33&#45;&gt;Node18 -->
<g id="edge46" class="edge">
<title>Node33&#45;&gt;Node18</title>
<path fill="none" stroke="midnightblue" d="M779.76,-296.98C799.22,-287.08 831.55,-270.64 854.21,-259.12"/>
<polygon fill="midnightblue" stroke="midnightblue" points="855.94,-262.16 863.27,-254.51 852.77,-255.92 855.94,-262.16"/>
</g>
<!-- Node35 -->
<g id="node35" class="node">
<title>Node35</title>
<g id="a_node35"><a xlink:title=" ">
<polygon fill="white" stroke="#bfbfbf" points="619,-906.5 619,-925.5 755,-925.5 755,-906.5 619,-906.5"/>
<text text-anchor="middle" x="687" y="-913.5" font-family="Helvetica,sans-Serif" font-size="10.00">odp/api/abi/pool_types.h</text>
</a>
</g>
</g>
<!-- Node34&#45;&gt;Node35 -->
<g id="edge52" class="edge">
<title>Node34&#45;&gt;Node35</title>
<path fill="none" stroke="midnightblue" d="M819.96,-962.44C793.38,-953.36 751.19,-938.94 721.48,-928.78"/>
<polygon fill="midnightblue" stroke="midnightblue" points="722.51,-925.44 711.92,-925.52 720.25,-932.06 722.51,-925.44"/>
</g>
<!-- Node36 -->
<g id="node36" class="node">
<title>Node36</title>
<g id="a_node36"><a xlink:href="spec_2pool__types_8h.html" target="_top" xlink:title=" ">
<polygon fill="white" stroke="black" points="773.5,-906.5 773.5,-925.5 916.5,-925.5 916.5,-906.5 773.5,-906.5"/>
<text text-anchor="middle" x="845" y="-913.5" font-family="Helvetica,sans-Serif" font-size="10.00">odp/api/spec/pool_types.h</text>
</a>
</g>
</g>
<!-- Node34&#45;&gt;Node36 -->
<g id="edge53" class="edge">
<title>Node34&#45;&gt;Node36</title>
<path fill="none" stroke="midnightblue" d="M845,-962.08C845,-955.01 845,-944.86 845,-935.99"/>
<polygon fill="midnightblue" stroke="midnightblue" points="848.5,-935.75 845,-925.75 841.5,-935.75 848.5,-935.75"/>
</g>
<!-- Node36&#45;&gt;Node4 -->
<g id="edge54" class="edge">
<title>Node36&#45;&gt;Node4</title>
<path fill="none" stroke="midnightblue" d="M773.46,-906.95C770.26,-906.62 767.1,-906.31 764,-906 577.99,-887.68 528.04,-907.82 345,-870 267.92,-854.08 241.54,-859.05 177,-814 118.01,-772.82 76,-759.44 76,-687.5 76,-687.5 76,-687.5 76,-132 76,-84.23 109.77,-78.32 152,-56 203.81,-28.62 269.73,-17.72 319.05,-13.46"/>
<polygon fill="midnightblue" stroke="midnightblue" points="319.61,-16.93 329.31,-12.65 319.06,-9.95 319.61,-16.93"/>
</g>
<!-- Node36&#45;&gt;Node10 -->
<g id="edge69" class="edge">
<title>Node36&#45;&gt;Node10</title>
<path fill="none" stroke="midnightblue" d="M906.18,-906.44C1033.04,-886.98 1313,-834.35 1313,-749 1313,-749 1313,-749 1313,-562.5 1313,-447.49 1357,-422.51 1357,-307.5 1357,-307.5 1357,-307.5 1357,-132 1357,-74.18 1288.85,-39.54 1243.81,-22.96"/>
<polygon fill="midnightblue" stroke="midnightblue" points="1244.9,-19.64 1234.31,-19.6 1242.57,-26.24 1244.9,-19.64"/>
</g>
<!-- Node36&#45;&gt;Node18 -->
<g id="edge55" class="edge">
<title>Node36&#45;&gt;Node18</title>
<path fill="none" stroke="midnightblue" d="M846.57,-906.48C849.82,-888.04 857,-843.04 857,-805 857,-805 857,-805 857,-372.5 857,-333.59 867.66,-289.02 874.47,-264.54"/>
<polygon fill="midnightblue" stroke="midnightblue" points="877.87,-265.37 877.27,-254.8 871.14,-263.44 877.87,-265.37"/>
</g>
<!-- Node37 -->
<g id="node37" class="node">
<title>Node37</title>
<g id="a_node37"><a xlink:href="dma__types_8h.html" target="_top" xlink:title=" ">
<polygon fill="white" stroke="black" points="354.5,-850.5 354.5,-869.5 473.5,-869.5 473.5,-850.5 354.5,-850.5"/>
<text text-anchor="middle" x="414" y="-857.5" font-family="Helvetica,sans-Serif" font-size="10.00">odp/api/dma_types.h</text>
</a>
</g>
</g>
<!-- Node36&#45;&gt;Node37 -->
<g id="edge56" class="edge">
<title>Node36&#45;&gt;Node37</title>
<path fill="none" stroke="midnightblue" d="M776.71,-906.44C696.58,-896.4 564.45,-879.85 483.71,-869.73"/>
<polygon fill="midnightblue" stroke="midnightblue" points="484,-866.24 473.65,-868.47 483.13,-873.19 484,-866.24"/>
</g>
<!-- Node38 -->
<g id="node38" class="node">
<title>Node38</title>
<g id="a_node38"><a xlink:title=" ">
<polygon fill="white" stroke="#bfbfbf" points="186.5,-794.5 186.5,-813.5 323.5,-813.5 323.5,-794.5 186.5,-794.5"/>
<text text-anchor="middle" x="255" y="-801.5" font-family="Helvetica,sans-Serif" font-size="10.00">odp/api/abi/dma_types.h</text>
</a>
</g>
</g>
<!-- Node37&#45;&gt;Node38 -->
<g id="edge57" class="edge">
<title>Node37&#45;&gt;Node38</title>
<path fill="none" stroke="midnightblue" d="M388.81,-850.44C362.06,-841.36 319.6,-826.94 289.69,-816.78"/>
<polygon fill="midnightblue" stroke="midnightblue" points="290.67,-813.42 280.08,-813.52 288.42,-820.05 290.67,-813.42"/>
</g>
<!-- Node39 -->
<g id="node39" class="node">
<title>Node39</title>
<g id="a_node39"><a xlink:href="spec_2dma__types_8h.html" target="_top" xlink:title=" ">
<polygon fill="white" stroke="black" points="342,-794.5 342,-813.5 486,-813.5 486,-794.5 342,-794.5"/>
<text text-anchor="middle" x="414" y="-801.5" font-family="Helvetica,sans-Serif" font-size="10.00">odp/api/spec/dma_types.h</text>
</a>
</g>
</g>
<!-- Node37&#45;&gt;Node39 -->
<g id="edge58" class="edge">
<title>Node37&#45;&gt;Node39</title>
<path fill="none" stroke="midnightblue" d="M414,-850.08C414,-843.01 414,-832.86 414,-823.99"/>
<polygon fill="midnightblue" stroke="midnightblue" points="417.5,-823.75 414,-813.75 410.5,-823.75 417.5,-823.75"/>
</g>
<!-- Node39&#45;&gt;Node4 -->
<g id="edge59" class="edge">
<title>Node39&#45;&gt;Node4</title>
<path fill="none" stroke="midnightblue" d="M364.21,-794.44C321.9,-786.3 265.36,-773.08 248,-758 227.56,-740.24 231.39,-728.05 224,-702 145.42,-425.1 -3.17,-279.67 178,-56 195.67,-34.19 264.76,-22.51 319.33,-16.57"/>
<polygon fill="midnightblue" stroke="midnightblue" points="319.75,-20.05 329.34,-15.53 319.03,-13.08 319.75,-20.05"/>
</g>
<!-- Node39&#45;&gt;Node10 -->
<g id="edge68" class="edge">
<title>Node39&#45;&gt;Node10</title>
<path fill="none" stroke="midnightblue" d="M403.11,-794.42C382.1,-776.82 338,-734.31 338,-687.5 338,-687.5 338,-687.5 338,-501 338,-443.13 442.47,-320.94 492,-291 582.34,-236.4 861.4,-241.56 958,-199 983.87,-187.6 1133.26,-68.6 1186.31,-26.03"/>
<polygon fill="midnightblue" stroke="midnightblue" points="1188.63,-28.66 1194.24,-19.67 1184.25,-23.2 1188.63,-28.66"/>
</g>
<!-- Node39&#45;&gt;Node11 -->
<g id="edge65" class="edge">
<title>Node39&#45;&gt;Node11</title>
<path fill="none" stroke="midnightblue" d="M486.17,-796.91C608.43,-786.59 855.05,-765.79 979.12,-755.32"/>
<polygon fill="midnightblue" stroke="midnightblue" points="979.61,-758.79 989.28,-754.46 979.03,-751.81 979.61,-758.79"/>
</g>
<!-- Node39&#45;&gt;Node18 -->
<g id="edge67" class="edge">
<title>Node39&#45;&gt;Node18</title>
<path fill="none" stroke="midnightblue" d="M414,-794.31C414,-775.06 414,-727.4 414,-687.5 414,-687.5 414,-687.5 414,-562.5 414,-430.93 426.16,-369.16 532,-291 575.43,-258.93 725.52,-249.7 813.77,-247.05"/>
<polygon fill="midnightblue" stroke="midnightblue" points="814.05,-250.54 823.95,-246.77 813.86,-243.55 814.05,-250.54"/>
</g>
<!-- Node39&#45;&gt;Node25 -->
<g id="edge66" class="edge">
<title>Node39&#45;&gt;Node25</title>
<path fill="none" stroke="midnightblue" d="M423.5,-794.46C454.56,-766.55 553.42,-677.74 593.68,-641.56"/>
<polygon fill="midnightblue" stroke="midnightblue" points="596.03,-644.16 601.13,-634.87 591.35,-638.95 596.03,-644.16"/>
</g>
<!-- Node40 -->
<g id="node40" class="node">
<title>Node40</title>
<g id="a_node40"><a xlink:href="event__types_8h.html" target="_top" xlink:title=" ">
<polygon fill="white" stroke="black" points="227.5,-123.5 227.5,-142.5 352.5,-142.5 352.5,-123.5 227.5,-123.5"/>
<text text-anchor="middle" x="290" y="-130.5" font-family="Helvetica,sans-Serif" font-size="10.00">odp/api/event_types.h</text>
</a>
</g>
</g>
<!-- Node39&#45;&gt;Node40 -->
<g id="edge60" class="edge">
<title>Node39&#45;&gt;Node40</title>
<path fill="none" stroke="midnightblue" d="M364.64,-794.42C309.54,-781.67 228,-751.93 228,-687.5 228,-687.5 228,-687.5 228,-244 228,-206.62 255.5,-170.24 273.87,-150.1"/>
<polygon fill="midnightblue" stroke="midnightblue" points="276.51,-152.41 280.85,-142.75 271.43,-147.59 276.51,-152.41"/>
</g>
<!-- Node41 -->
<g id="node41" class="node">
<title>Node41</title>
<g id="a_node41"><a xlink:title=" ">
<polygon fill="white" stroke="#bfbfbf" points="218.5,-62 218.5,-81 361.5,-81 361.5,-62 218.5,-62"/>
<text text-anchor="middle" x="290" y="-69" font-family="Helvetica,sans-Serif" font-size="10.00">odp/api/abi/event_types.h</text>
</a>
</g>
</g>
<!-- Node40&#45;&gt;Node41 -->
<g id="edge61" class="edge">
<title>Node40&#45;&gt;Node41</title>
<path fill="none" stroke="midnightblue" d="M290,-123.48C290,-115.08 290,-101.98 290,-91.16"/>
<polygon fill="midnightblue" stroke="midnightblue" points="293.5,-91.01 290,-81.01 286.5,-91.01 293.5,-91.01"/>
</g>
<!-- Node42 -->
<g id="node42" class="node">
<title>Node42</title>
<g id="a_node42"><a xlink:href="spec_2event__types_8h.html" target="_top" xlink:title=" ">
<polygon fill="white" stroke="black" points="532.5,-56.5 532.5,-86.5 641.5,-86.5 641.5,-56.5 532.5,-56.5"/>
<text text-anchor="start" x="540.5" y="-74.5" font-family="Helvetica,sans-Serif" font-size="10.00">odp/api/spec/event</text>
<text text-anchor="middle" x="587" y="-63.5" font-family="Helvetica,sans-Serif" font-size="10.00">_types.h</text>
</a>
</g>
</g>
<!-- Node40&#45;&gt;Node42 -->
<g id="edge62" class="edge">
<title>Node40&#45;&gt;Node42</title>
<path fill="none" stroke="midnightblue" d="M332.55,-123.48C382.18,-113.53 464.76,-96.99 522.33,-85.46"/>
<polygon fill="midnightblue" stroke="midnightblue" points="523.3,-88.83 532.42,-83.43 521.92,-81.97 523.3,-88.83"/>
</g>
<!-- Node42&#45;&gt;Node4 -->
<g id="edge63" class="edge">
<title>Node42&#45;&gt;Node4</title>
<path fill="none" stroke="midnightblue" d="M540.31,-56.4C506.12,-46.07 460.29,-32.23 428.26,-22.56"/>
<polygon fill="midnightblue" stroke="midnightblue" points="428.96,-19.11 418.38,-19.57 426.94,-25.81 428.96,-19.11"/>
</g>
<!-- Node42&#45;&gt;Node10 -->
<g id="edge64" class="edge">
<title>Node42&#45;&gt;Node10</title>
<path fill="none" stroke="midnightblue" d="M641.54,-57.44C644.4,-56.91 647.23,-56.43 650,-56 825.2,-28.88 1034.21,-17.52 1138.67,-13.26"/>
<polygon fill="midnightblue" stroke="midnightblue" points="1138.9,-16.76 1148.75,-12.86 1138.62,-9.76 1138.9,-16.76"/>
</g>
</g>
</svg>
