<?xml version="1.0" encoding="UTF-8" standalone="no"?>
<!DOCTYPE svg PUBLIC "-//W3C//DTD SVG 1.1//EN"
 "http://www.w3.org/Graphics/SVG/1.1/DTD/svg11.dtd">
<!-- Generated by graphviz version 2.43.0 (0)
 -->
<!-- Title: debug_inlines.h Pages: 1 -->
<svg width="1207pt" height="95pt"
 viewBox="0.00 0.00 1206.50 95.00" xmlns="http://www.w3.org/2000/svg" xmlns:xlink="http://www.w3.org/1999/xlink">
<g id="graph0" class="graph" transform="scale(1 1) rotate(0) translate(4 91)">
<title>debug_inlines.h</title>
<polygon fill="white" stroke="transparent" points="-4,4 -4,-91 1202.5,-91 1202.5,4 -4,4"/>
<!-- Node1 -->
<g id="node1" class="node">
<title>Node1</title>
<g id="a_node1"><a xlink:title=" ">
<polygon fill="#bfbfbf" stroke="black" points="498.5,-67.5 498.5,-86.5 591.5,-86.5 591.5,-67.5 498.5,-67.5"/>
<text text-anchor="middle" x="545" y="-74.5" font-family="Helvetica,sans-Serif" font-size="10.00">debug_inlines.h</text>
</a>
</g>
</g>
<!-- Node2 -->
<g id="node2" class="node">
<title>Node2</title>
<g id="a_node2"><a xlink:href="buffer__inlines_8h_source.html" target="_top" xlink:title=" ">
<polygon fill="white" stroke="black" points="0,-6 0,-25 92,-25 92,-6 0,-6"/>
<text text-anchor="middle" x="46" y="-13" font-family="Helvetica,sans-Serif" font-size="10.00">buffer_inlines.h</text>
</a>
</g>
</g>
<!-- Node1&#45;&gt;Node2 -->
<g id="edge1" class="edge">
<title>Node1&#45;&gt;Node2</title>
<path fill="none" stroke="midnightblue" d="M488.13,-73.1C403.28,-68.12 238.77,-55.98 101,-31 92.45,-29.45 83.28,-27.25 74.92,-25.03"/>
<polygon fill="midnightblue" stroke="midnightblue" points="488.14,-76.6 498.32,-73.68 488.54,-69.61 488.14,-76.6"/>
</g>
<!-- Node3 -->
<g id="node3" class="node">
<title>Node3</title>
<g id="a_node3"><a xlink:href="crypto__inlines_8h_source.html" target="_top" xlink:title=" ">
<polygon fill="white" stroke="black" points="110,-6 110,-25 204,-25 204,-6 110,-6"/>
<text text-anchor="middle" x="157" y="-13" font-family="Helvetica,sans-Serif" font-size="10.00">crypto_inlines.h</text>
</a>
</g>
</g>
<!-- Node1&#45;&gt;Node3 -->
<g id="edge2" class="edge">
<title>Node1&#45;&gt;Node3</title>
<path fill="none" stroke="midnightblue" d="M488,-70.35C421.6,-63.3 308.76,-49.82 213,-31 204.62,-29.35 195.64,-27.2 187.37,-25.06"/>
<polygon fill="midnightblue" stroke="midnightblue" points="487.94,-73.87 498.25,-71.43 488.67,-66.91 487.94,-73.87"/>
</g>
<!-- Node4 -->
<g id="node4" class="node">
<title>Node4</title>
<g id="a_node4"><a xlink:href="dma__inlines_8h_source.html" target="_top" xlink:title=" ">
<polygon fill="white" stroke="black" points="222.5,-6 222.5,-25 307.5,-25 307.5,-6 222.5,-6"/>
<text text-anchor="middle" x="265" y="-13" font-family="Helvetica,sans-Serif" font-size="10.00">dma_inlines.h</text>
</a>
</g>
</g>
<!-- Node1&#45;&gt;Node4 -->
<g id="edge3" class="edge">
<title>Node1&#45;&gt;Node4</title>
<path fill="none" stroke="midnightblue" d="M488.37,-66.22C441.86,-57.87 374.36,-45.01 316,-31 308.66,-29.24 300.79,-27.12 293.48,-25.05"/>
<polygon fill="midnightblue" stroke="midnightblue" points="487.8,-69.68 498.26,-67.99 489.03,-62.79 487.8,-69.68"/>
</g>
<!-- Node5 -->
<g id="node5" class="node">
<title>Node5</title>
<g id="a_node5"><a xlink:href="ipsec__inlines_8h_source.html" target="_top" xlink:title=" ">
<polygon fill="white" stroke="black" points="325.5,-6 325.5,-25 414.5,-25 414.5,-6 325.5,-6"/>
<text text-anchor="middle" x="370" y="-13" font-family="Helvetica,sans-Serif" font-size="10.00">ipsec_inlines.h</text>
</a>
</g>
</g>
<!-- Node1&#45;&gt;Node5 -->
<g id="edge4" class="edge">
<title>Node1&#45;&gt;Node5</title>
<path fill="none" stroke="midnightblue" d="M510.39,-64.23C476.37,-52.67 425.28,-35.3 395.03,-25.01"/>
<polygon fill="midnightblue" stroke="midnightblue" points="509.33,-67.57 519.93,-67.48 511.59,-60.94 509.33,-67.57"/>
</g>
<!-- Node6 -->
<g id="node6" class="node">
<title>Node6</title>
<g id="a_node6"><a xlink:href="packet__inlines_8h.html" target="_top" xlink:title=" ">
<polygon fill="white" stroke="black" points="432.5,-6 432.5,-25 527.5,-25 527.5,-6 432.5,-6"/>
<text text-anchor="middle" x="480" y="-13" font-family="Helvetica,sans-Serif" font-size="10.00">packet_inlines.h</text>
</a>
</g>
</g>
<!-- Node1&#45;&gt;Node6 -->
<g id="edge5" class="edge">
<title>Node1&#45;&gt;Node6</title>
<path fill="none" stroke="midnightblue" d="M528.23,-60.65C515.84,-49.31 499.42,-34.28 489.3,-25.01"/>
<polygon fill="midnightblue" stroke="midnightblue" points="525.95,-63.3 535.69,-67.48 530.67,-58.14 525.95,-63.3"/>
</g>
<!-- Node7 -->
<g id="node7" class="node">
<title>Node7</title>
<g id="a_node7"><a xlink:href="packet__vector__inlines_8h.html" target="_top" xlink:title=" ">
<polygon fill="white" stroke="black" points="545.5,-6 545.5,-25 676.5,-25 676.5,-6 545.5,-6"/>
<text text-anchor="middle" x="611" y="-13" font-family="Helvetica,sans-Serif" font-size="10.00">packet_vector_inlines.h</text>
</a>
</g>
</g>
<!-- Node1&#45;&gt;Node7 -->
<g id="edge6" class="edge">
<title>Node1&#45;&gt;Node7</title>
<path fill="none" stroke="midnightblue" d="M562.03,-60.65C574.61,-49.31 591.28,-34.28 601.56,-25.01"/>
<polygon fill="midnightblue" stroke="midnightblue" points="559.54,-58.18 554.46,-67.48 564.23,-63.38 559.54,-58.18"/>
</g>
<!-- Node8 -->
<g id="node8" class="node">
<title>Node8</title>
<g id="a_node8"><a xlink:href="rwlock__recursive__inlines_8h_source.html" target="_top" xlink:title=" ">
<polygon fill="white" stroke="black" points="695,-6 695,-25 841,-25 841,-6 695,-6"/>
<text text-anchor="middle" x="768" y="-13" font-family="Helvetica,sans-Serif" font-size="10.00">rwlock_recursive_inlines.h</text>
</a>
</g>
</g>
<!-- Node1&#45;&gt;Node8 -->
<g id="edge7" class="edge">
<title>Node1&#45;&gt;Node8</title>
<path fill="none" stroke="midnightblue" d="M586.62,-64.9C629.93,-53.34 696.81,-35.5 736.11,-25.01"/>
<polygon fill="midnightblue" stroke="midnightblue" points="585.71,-61.52 576.95,-67.48 587.51,-68.28 585.71,-61.52"/>
</g>
<!-- Node9 -->
<g id="node9" class="node">
<title>Node9</title>
<g id="a_node9"><a xlink:href="schedule__inlines_8h_source.html" target="_top" xlink:title=" ">
<polygon fill="white" stroke="black" points="859.5,-6 859.5,-25 966.5,-25 966.5,-6 859.5,-6"/>
<text text-anchor="middle" x="913" y="-13" font-family="Helvetica,sans-Serif" font-size="10.00">schedule_inlines.h</text>
</a>
</g>
</g>
<!-- Node1&#45;&gt;Node9 -->
<g id="edge8" class="edge">
<title>Node1&#45;&gt;Node9</title>
<path fill="none" stroke="midnightblue" d="M601.96,-68.98C663.4,-61.08 763.98,-47.22 850,-31 859.15,-29.27 868.99,-27.14 878.11,-25.05"/>
<polygon fill="midnightblue" stroke="midnightblue" points="601.17,-65.55 591.7,-70.29 602.06,-72.49 601.17,-65.55"/>
</g>
<!-- Node10 -->
<g id="node10" class="node">
<title>Node10</title>
<g id="a_node10"><a xlink:href="spinlock__recursive__inlines_8h_source.html" target="_top" xlink:title=" ">
<polygon fill="white" stroke="black" points="984.5,-0.5 984.5,-30.5 1091.5,-30.5 1091.5,-0.5 984.5,-0.5"/>
<text text-anchor="start" x="992.5" y="-18.5" font-family="Helvetica,sans-Serif" font-size="10.00">spinlock_recursive</text>
<text text-anchor="middle" x="1038" y="-7.5" font-family="Helvetica,sans-Serif" font-size="10.00">_inlines.h</text>
</a>
</g>
</g>
<!-- Node1&#45;&gt;Node10 -->
<g id="edge9" class="edge">
<title>Node1&#45;&gt;Node10</title>
<path fill="none" stroke="midnightblue" d="M601.69,-72.36C684.39,-66.54 842.78,-53.44 976,-31 978.73,-30.54 981.51,-30.03 984.32,-29.49"/>
<polygon fill="midnightblue" stroke="midnightblue" points="601.23,-68.89 591.5,-73.07 601.72,-75.87 601.23,-68.89"/>
</g>
<!-- Node11 -->
<g id="node11" class="node">
<title>Node11</title>
<g id="a_node11"><a xlink:href="timer__inlines_8h_source.html" target="_top" xlink:title=" ">
<polygon fill="white" stroke="black" points="1109.5,-6 1109.5,-25 1198.5,-25 1198.5,-6 1109.5,-6"/>
<text text-anchor="middle" x="1154" y="-13" font-family="Helvetica,sans-Serif" font-size="10.00">timer_inlines.h</text>
</a>
</g>
</g>
<!-- Node1&#45;&gt;Node11 -->
<g id="edge10" class="edge">
<title>Node1&#45;&gt;Node11</title>
<path fill="none" stroke="midnightblue" d="M601.79,-74.89C702.89,-72.14 920.44,-62.72 1101,-31 1109.46,-29.51 1118.52,-27.28 1126.71,-25.01"/>
<polygon fill="midnightblue" stroke="midnightblue" points="601.41,-71.4 591.5,-75.16 601.59,-78.39 601.41,-71.4"/>
</g>
</g>
</svg>
