<?xml version="1.0" encoding="UTF-8" standalone="no"?>
<!DOCTYPE svg PUBLIC "-//W3C//DTD SVG 1.1//EN"
 "http://www.w3.org/Graphics/SVG/1.1/DTD/svg11.dtd">
<!-- Generated by graphviz version 2.43.0 (0)
 -->
<!-- Title: debug_inlines.h Pages: 1 -->
<svg width="938pt" height="498pt"
 viewBox="0.00 0.00 938.11 498.00" xmlns="http://www.w3.org/2000/svg" xmlns:xlink="http://www.w3.org/1999/xlink">
<g id="graph0" class="graph" transform="scale(1 1) rotate(0) translate(4 494)">
<title>debug_inlines.h</title>
<polygon fill="white" stroke="transparent" points="-4,4 -4,-494 934.11,-494 934.11,4 -4,4"/>
<!-- Node1 -->
<g id="node1" class="node">
<title>Node1</title>
<g id="a_node1"><a xlink:title=" ">
<polygon fill="#bfbfbf" stroke="black" points="388.11,-470.5 388.11,-489.5 481.11,-489.5 481.11,-470.5 388.11,-470.5"/>
<text text-anchor="middle" x="434.61" y="-477.5" font-family="Helvetica,sans-Serif" font-size="10.00">debug_inlines.h</text>
</a>
</g>
</g>
<!-- Node2 -->
<g id="node2" class="node">
<title>Node2</title>
<g id="a_node2"><a xlink:title=" ">
<polygon fill="white" stroke="#bfbfbf" points="239.61,-409 239.61,-428 387.61,-428 387.61,-409 239.61,-409"/>
<text text-anchor="middle" x="313.61" y="-416" font-family="Helvetica,sans-Serif" font-size="10.00">odp/autoheader_external.h</text>
</a>
</g>
</g>
<!-- Node1&#45;&gt;Node2 -->
<g id="edge1" class="edge">
<title>Node1&#45;&gt;Node2</title>
<path fill="none" stroke="midnightblue" d="M417.28,-470.48C397.06,-460.53 363.43,-443.99 339.97,-432.46"/>
<polygon fill="midnightblue" stroke="midnightblue" points="341.44,-429.28 330.92,-428.01 338.35,-435.56 341.44,-429.28"/>
</g>
<!-- Node3 -->
<g id="node3" class="node">
<title>Node3</title>
<g id="a_node3"><a xlink:href="hints_8h.html" target="_top" xlink:title=" ">
<polygon fill="white" stroke="black" points="6.11,-230 6.11,-249 95.11,-249 95.11,-230 6.11,-230"/>
<text text-anchor="middle" x="50.61" y="-237" font-family="Helvetica,sans-Serif" font-size="10.00">odp/api/hints.h</text>
</a>
</g>
</g>
<!-- Node1&#45;&gt;Node3 -->
<g id="edge2" class="edge">
<title>Node1&#45;&gt;Node3</title>
<path fill="none" stroke="midnightblue" d="M432.34,-470.35C427.89,-454.96 416.67,-422.57 396.61,-403 309.28,-317.79 168.93,-271.16 96.76,-251.64"/>
<polygon fill="midnightblue" stroke="midnightblue" points="97.6,-248.24 87.04,-249.07 95.81,-255.01 97.6,-248.24"/>
</g>
<!-- Node7 -->
<g id="node7" class="node">
<title>Node7</title>
<g id="a_node7"><a xlink:href="init_8h.html" target="_top" xlink:title=" ">
<polygon fill="white" stroke="black" points="486.61,-347.5 486.61,-366.5 566.61,-366.5 566.61,-347.5 486.61,-347.5"/>
<text text-anchor="middle" x="526.61" y="-354.5" font-family="Helvetica,sans-Serif" font-size="10.00">odp/api/init.h</text>
</a>
</g>
</g>
<!-- Node1&#45;&gt;Node7 -->
<g id="edge6" class="edge">
<title>Node1&#45;&gt;Node7</title>
<path fill="none" stroke="midnightblue" d="M437.74,-470.39C443.38,-455.59 456.29,-424.85 473.61,-403 482.64,-391.62 494.89,-381 505.33,-372.93"/>
<polygon fill="midnightblue" stroke="midnightblue" points="507.64,-375.58 513.58,-366.8 503.46,-369.96 507.64,-375.58"/>
</g>
<!-- Node21 -->
<g id="node21" class="node">
<title>Node21</title>
<g id="a_node21"><a xlink:href="thread__inline__types_8h_source.html" target="_top" xlink:title=" ">
<polygon fill="white" stroke="black" points="482.11,-403.5 482.11,-433.5 591.11,-433.5 591.11,-403.5 482.11,-403.5"/>
<text text-anchor="start" x="490.11" y="-421.5" font-family="Helvetica,sans-Serif" font-size="10.00">odp/api/plat/thread</text>
<text text-anchor="middle" x="536.61" y="-410.5" font-family="Helvetica,sans-Serif" font-size="10.00">_inline_types.h</text>
</a>
</g>
</g>
<!-- Node1&#45;&gt;Node21 -->
<g id="edge29" class="edge">
<title>Node1&#45;&gt;Node21</title>
<path fill="none" stroke="midnightblue" d="M449.23,-470.48C463.43,-462.19 485.49,-449.32 503.89,-438.59"/>
<polygon fill="midnightblue" stroke="midnightblue" points="505.7,-441.58 512.57,-433.52 502.17,-435.54 505.7,-441.58"/>
</g>
<!-- Node4 -->
<g id="node4" class="node">
<title>Node4</title>
<g id="a_node4"><a xlink:href="spec_2hints_8h.html" target="_top" xlink:title=" ">
<polygon fill="white" stroke="black" points="14.61,-56.5 14.61,-75.5 128.61,-75.5 128.61,-56.5 14.61,-56.5"/>
<text text-anchor="middle" x="71.61" y="-63.5" font-family="Helvetica,sans-Serif" font-size="10.00">odp/api/spec/hints.h</text>
</a>
</g>
</g>
<!-- Node3&#45;&gt;Node4 -->
<g id="edge3" class="edge">
<title>Node3&#45;&gt;Node4</title>
<path fill="none" stroke="midnightblue" d="M51.68,-229.76C54.94,-203.15 64.79,-122.71 69.31,-85.84"/>
<polygon fill="midnightblue" stroke="midnightblue" points="72.83,-85.87 70.57,-75.52 65.88,-85.02 72.83,-85.87"/>
</g>
<!-- Node5 -->
<g id="node5" class="node">
<title>Node5</title>
<g id="a_node5"><a xlink:title=" ">
<polygon fill="white" stroke="#bfbfbf" points="392.11,-0.5 392.11,-19.5 513.11,-19.5 513.11,-0.5 392.11,-0.5"/>
<text text-anchor="middle" x="452.61" y="-7.5" font-family="Helvetica,sans-Serif" font-size="10.00">odp/visibility_begin.h</text>
</a>
</g>
</g>
<!-- Node4&#45;&gt;Node5 -->
<g id="edge4" class="edge">
<title>Node4&#45;&gt;Node5</title>
<path fill="none" stroke="midnightblue" d="M128.65,-56.92C196.36,-47.32 309.27,-31.32 382.31,-20.96"/>
<polygon fill="midnightblue" stroke="midnightblue" points="382.94,-24.41 392.35,-19.54 381.96,-17.48 382.94,-24.41"/>
</g>
<!-- Node6 -->
<g id="node6" class="node">
<title>Node6</title>
<g id="a_node6"><a xlink:title=" ">
<polygon fill="white" stroke="#bfbfbf" points="100.61,-0.5 100.61,-19.5 212.61,-19.5 212.61,-0.5 100.61,-0.5"/>
<text text-anchor="middle" x="156.61" y="-7.5" font-family="Helvetica,sans-Serif" font-size="10.00">odp/visibility_end.h</text>
</a>
</g>
</g>
<!-- Node4&#45;&gt;Node6 -->
<g id="edge5" class="edge">
<title>Node4&#45;&gt;Node6</title>
<path fill="none" stroke="midnightblue" d="M85.27,-56.32C98.53,-47.9 118.88,-34.97 134.46,-25.07"/>
<polygon fill="midnightblue" stroke="midnightblue" points="136.43,-27.97 142.99,-19.65 132.67,-22.06 136.43,-27.97"/>
</g>
<!-- Node8 -->
<g id="node8" class="node">
<title>Node8</title>
<g id="a_node8"><a xlink:title=" ">
<polygon fill="white" stroke="#bfbfbf" points="587.61,-291.5 587.61,-310.5 685.61,-310.5 685.61,-291.5 587.61,-291.5"/>
<text text-anchor="middle" x="636.61" y="-298.5" font-family="Helvetica,sans-Serif" font-size="10.00">odp/api/abi/init.h</text>
</a>
</g>
</g>
<!-- Node7&#45;&gt;Node8 -->
<g id="edge7" class="edge">
<title>Node7&#45;&gt;Node8</title>
<path fill="none" stroke="midnightblue" d="M544.29,-347.32C562.01,-338.62 589.52,-325.12 609.9,-315.11"/>
<polygon fill="midnightblue" stroke="midnightblue" points="611.55,-318.2 618.98,-310.65 608.46,-311.92 611.55,-318.2"/>
</g>
<!-- Node9 -->
<g id="node9" class="node">
<title>Node9</title>
<g id="a_node9"><a xlink:href="spec_2init_8h.html" target="_top" xlink:title=" ">
<polygon fill="white" stroke="black" points="463.61,-291.5 463.61,-310.5 569.61,-310.5 569.61,-291.5 463.61,-291.5"/>
<text text-anchor="middle" x="516.61" y="-298.5" font-family="Helvetica,sans-Serif" font-size="10.00">odp/api/spec/init.h</text>
</a>
</g>
</g>
<!-- Node7&#45;&gt;Node9 -->
<g id="edge8" class="edge">
<title>Node7&#45;&gt;Node9</title>
<path fill="none" stroke="midnightblue" d="M524.96,-347.08C523.64,-339.93 521.73,-329.64 520.07,-320.69"/>
<polygon fill="midnightblue" stroke="midnightblue" points="523.5,-319.95 518.23,-310.75 516.61,-321.22 523.5,-319.95"/>
</g>
<!-- Node9&#45;&gt;Node3 -->
<g id="edge21" class="edge">
<title>Node9&#45;&gt;Node3</title>
<path fill="none" stroke="midnightblue" d="M463.32,-294.5C360.9,-283.88 143.65,-261.04 109.61,-255 103.82,-253.97 97.76,-252.71 91.81,-251.35"/>
<polygon fill="midnightblue" stroke="midnightblue" points="92.53,-247.92 81.99,-249.02 90.91,-254.73 92.53,-247.92"/>
</g>
<!-- Node9&#45;&gt;Node5 -->
<g id="edge9" class="edge">
<title>Node9&#45;&gt;Node5</title>
<path fill="none" stroke="midnightblue" d="M554.72,-291.45C629.58,-273.56 788.61,-229.59 788.61,-179 788.61,-179 788.61,-179 788.61,-121 788.61,-90.9 792.37,-75.7 769.61,-56 733.81,-25 605.23,-15.33 523.24,-12.33"/>
<polygon fill="midnightblue" stroke="midnightblue" points="523.35,-8.83 513.23,-11.99 523.11,-15.83 523.35,-8.83"/>
</g>
<!-- Node9&#45;&gt;Node6 -->
<g id="edge28" class="edge">
<title>Node9&#45;&gt;Node6</title>
<path fill="none" stroke="midnightblue" d="M463.51,-295.46C354.53,-282.91 107.33,-237.16 5.61,-76 -17.52,-39.34 39.94,-23.3 90.51,-16.32"/>
<polygon fill="midnightblue" stroke="midnightblue" points="91.03,-19.78 100.51,-15.04 90.14,-12.84 91.03,-19.78"/>
</g>
<!-- Node10 -->
<g id="node10" class="node">
<title>Node10</title>
<g id="a_node10"><a xlink:href="std__types_8h.html" target="_top" xlink:title=" ">
<polygon fill="white" stroke="black" points="414.61,-230 414.61,-249 526.61,-249 526.61,-230 414.61,-230"/>
<text text-anchor="middle" x="470.61" y="-237" font-family="Helvetica,sans-Serif" font-size="10.00">odp/api/std_types.h</text>
</a>
</g>
</g>
<!-- Node9&#45;&gt;Node10 -->
<g id="edge10" class="edge">
<title>Node9&#45;&gt;Node10</title>
<path fill="none" stroke="midnightblue" d="M510.02,-291.48C503.12,-282.55 492.11,-268.31 483.48,-257.14"/>
<polygon fill="midnightblue" stroke="midnightblue" points="486.08,-254.78 477.19,-249.01 480.54,-259.06 486.08,-254.78"/>
</g>
<!-- Node17 -->
<g id="node17" class="node">
<title>Node17</title>
<g id="a_node17"><a xlink:href="thread__types_8h.html" target="_top" xlink:title=" ">
<polygon fill="white" stroke="black" points="817.11,-224.5 817.11,-254.5 930.11,-254.5 930.11,-224.5 817.11,-224.5"/>
<text text-anchor="start" x="825.11" y="-242.5" font-family="Helvetica,sans-Serif" font-size="10.00">odp/api/spec/thread</text>
<text text-anchor="middle" x="873.61" y="-231.5" font-family="Helvetica,sans-Serif" font-size="10.00">_types.h</text>
</a>
</g>
</g>
<!-- Node9&#45;&gt;Node17 -->
<g id="edge22" class="edge">
<title>Node9&#45;&gt;Node17</title>
<path fill="none" stroke="midnightblue" d="M569.9,-291.91C639.89,-281.24 759.02,-262.88 802.61,-255 804.08,-254.73 805.57,-254.46 807.07,-254.18"/>
<polygon fill="midnightblue" stroke="midnightblue" points="807.9,-257.59 817.08,-252.29 806.6,-250.71 807.9,-257.59"/>
</g>
<!-- Node18 -->
<g id="node18" class="node">
<title>Node18</title>
<g id="a_node18"><a xlink:href="cpumask_8h.html" target="_top" xlink:title=" ">
<polygon fill="white" stroke="black" points="509.11,-112.5 509.11,-131.5 618.11,-131.5 618.11,-112.5 509.11,-112.5"/>
<text text-anchor="middle" x="563.61" y="-119.5" font-family="Helvetica,sans-Serif" font-size="10.00">odp/api/cpumask.h</text>
</a>
</g>
</g>
<!-- Node9&#45;&gt;Node18 -->
<g id="edge23" class="edge">
<title>Node9&#45;&gt;Node18</title>
<path fill="none" stroke="midnightblue" d="M520.91,-291.22C525.14,-282.29 531.55,-267.95 535.61,-255 548.02,-215.48 556.65,-167.57 560.8,-141.72"/>
<polygon fill="midnightblue" stroke="midnightblue" points="564.26,-142.22 562.34,-131.8 557.35,-141.14 564.26,-142.22"/>
</g>
<!-- Node11 -->
<g id="node11" class="node">
<title>Node11</title>
<g id="a_node11"><a xlink:title=" ">
<polygon fill="white" stroke="#bfbfbf" points="405.61,-168.5 405.61,-187.5 535.61,-187.5 535.61,-168.5 405.61,-168.5"/>
<text text-anchor="middle" x="470.61" y="-175.5" font-family="Helvetica,sans-Serif" font-size="10.00">odp/api/abi/std_types.h</text>
</a>
</g>
</g>
<!-- Node10&#45;&gt;Node11 -->
<g id="edge11" class="edge">
<title>Node10&#45;&gt;Node11</title>
<path fill="none" stroke="midnightblue" d="M470.61,-229.98C470.61,-221.58 470.61,-208.48 470.61,-197.66"/>
<polygon fill="midnightblue" stroke="midnightblue" points="474.11,-197.51 470.61,-187.51 467.11,-197.51 474.11,-197.51"/>
</g>
<!-- Node12 -->
<g id="node12" class="node">
<title>Node12</title>
<g id="a_node12"><a xlink:href="spec_2std__types_8h.html" target="_top" xlink:title=" ">
<polygon fill="white" stroke="black" points="250.11,-168.5 250.11,-187.5 387.11,-187.5 387.11,-168.5 250.11,-168.5"/>
<text text-anchor="middle" x="318.61" y="-175.5" font-family="Helvetica,sans-Serif" font-size="10.00">odp/api/spec/std_types.h</text>
</a>
</g>
</g>
<!-- Node10&#45;&gt;Node12 -->
<g id="edge12" class="edge">
<title>Node10&#45;&gt;Node12</title>
<path fill="none" stroke="midnightblue" d="M448.84,-229.98C422.87,-219.81 379.3,-202.76 349.78,-191.2"/>
<polygon fill="midnightblue" stroke="midnightblue" points="350.94,-187.9 340.35,-187.51 348.39,-194.41 350.94,-187.9"/>
</g>
<!-- Node12&#45;&gt;Node5 -->
<g id="edge13" class="edge">
<title>Node12&#45;&gt;Node5</title>
<path fill="none" stroke="midnightblue" d="M335.22,-168.35C350.1,-160.14 372.07,-146.88 388.61,-132 412.35,-110.65 418.85,-104.31 433.61,-76 441.26,-61.34 446.24,-43.17 449.17,-29.77"/>
<polygon fill="midnightblue" stroke="midnightblue" points="452.63,-30.32 451.17,-19.82 445.77,-28.94 452.63,-30.32"/>
</g>
<!-- Node12&#45;&gt;Node6 -->
<g id="edge20" class="edge">
<title>Node12&#45;&gt;Node6</title>
<path fill="none" stroke="midnightblue" d="M283.56,-168.39C260.84,-161.45 231.68,-149.87 210.61,-132 178.99,-105.18 165.13,-56.14 159.69,-29.47"/>
<polygon fill="midnightblue" stroke="midnightblue" points="163.12,-28.73 157.85,-19.54 156.23,-30.01 163.12,-28.73"/>
</g>
<!-- Node13 -->
<g id="node13" class="node">
<title>Node13</title>
<g id="a_node13"><a xlink:title=" ">
<polygon fill="white" stroke="#bfbfbf" points="220.11,-112.5 220.11,-131.5 273.11,-131.5 273.11,-112.5 220.11,-112.5"/>
<text text-anchor="middle" x="246.61" y="-119.5" font-family="Helvetica,sans-Serif" font-size="10.00">stdint.h</text>
</a>
</g>
</g>
<!-- Node12&#45;&gt;Node13 -->
<g id="edge14" class="edge">
<title>Node12&#45;&gt;Node13</title>
<path fill="none" stroke="midnightblue" d="M307.05,-168.32C296.19,-160.18 279.73,-147.84 266.73,-138.09"/>
<polygon fill="midnightblue" stroke="midnightblue" points="268.49,-135.03 258.39,-131.83 264.29,-140.63 268.49,-135.03"/>
</g>
<!-- Node14 -->
<g id="node14" class="node">
<title>Node14</title>
<g id="a_node14"><a xlink:href="align_8h.html" target="_top" xlink:title=" ">
<polygon fill="white" stroke="black" points="291.11,-112.5 291.11,-131.5 380.11,-131.5 380.11,-112.5 291.11,-112.5"/>
<text text-anchor="middle" x="335.61" y="-119.5" font-family="Helvetica,sans-Serif" font-size="10.00">odp/api/align.h</text>
</a>
</g>
</g>
<!-- Node12&#45;&gt;Node14 -->
<g id="edge15" class="edge">
<title>Node12&#45;&gt;Node14</title>
<path fill="none" stroke="midnightblue" d="M321.42,-168.08C323.7,-160.85 326.98,-150.41 329.82,-141.4"/>
<polygon fill="midnightblue" stroke="midnightblue" points="333.19,-142.34 332.86,-131.75 326.52,-140.24 333.19,-142.34"/>
</g>
<!-- Node15 -->
<g id="node15" class="node">
<title>Node15</title>
<g id="a_node15"><a xlink:title=" ">
<polygon fill="white" stroke="#bfbfbf" points="185.11,-56.5 185.11,-75.5 292.11,-75.5 292.11,-56.5 185.11,-56.5"/>
<text text-anchor="middle" x="238.61" y="-63.5" font-family="Helvetica,sans-Serif" font-size="10.00">odp/api/abi/align.h</text>
</a>
</g>
</g>
<!-- Node14&#45;&gt;Node15 -->
<g id="edge16" class="edge">
<title>Node14&#45;&gt;Node15</title>
<path fill="none" stroke="midnightblue" d="M320.03,-112.32C304.61,-103.74 280.8,-90.49 262.9,-80.52"/>
<polygon fill="midnightblue" stroke="midnightblue" points="264.6,-77.46 254.16,-75.65 261.19,-83.58 264.6,-77.46"/>
</g>
<!-- Node16 -->
<g id="node16" class="node">
<title>Node16</title>
<g id="a_node16"><a xlink:href="spec_2align_8h.html" target="_top" xlink:title=" ">
<polygon fill="white" stroke="black" points="310.61,-56.5 310.61,-75.5 424.61,-75.5 424.61,-56.5 310.61,-56.5"/>
<text text-anchor="middle" x="367.61" y="-63.5" font-family="Helvetica,sans-Serif" font-size="10.00">odp/api/spec/align.h</text>
</a>
</g>
</g>
<!-- Node14&#45;&gt;Node16 -->
<g id="edge17" class="edge">
<title>Node14&#45;&gt;Node16</title>
<path fill="none" stroke="midnightblue" d="M340.9,-112.08C345.32,-104.61 351.78,-93.72 357.23,-84.52"/>
<polygon fill="midnightblue" stroke="midnightblue" points="360.34,-86.14 362.43,-75.75 354.32,-82.57 360.34,-86.14"/>
</g>
<!-- Node16&#45;&gt;Node5 -->
<g id="edge18" class="edge">
<title>Node16&#45;&gt;Node5</title>
<path fill="none" stroke="midnightblue" d="M381.27,-56.32C394.53,-47.9 414.88,-34.97 430.46,-25.07"/>
<polygon fill="midnightblue" stroke="midnightblue" points="432.43,-27.97 438.99,-19.65 428.67,-22.06 432.43,-27.97"/>
</g>
<!-- Node16&#45;&gt;Node6 -->
<g id="edge19" class="edge">
<title>Node16&#45;&gt;Node6</title>
<path fill="none" stroke="midnightblue" d="M334.18,-56.44C297.76,-47.12 239.38,-32.18 199.58,-22"/>
<polygon fill="midnightblue" stroke="midnightblue" points="200.45,-18.61 189.89,-19.52 198.71,-25.39 200.45,-18.61"/>
</g>
<!-- Node19 -->
<g id="node19" class="node">
<title>Node19</title>
<g id="a_node19"><a xlink:title=" ">
<polygon fill="white" stroke="#bfbfbf" points="633.11,-56.5 633.11,-75.5 760.11,-75.5 760.11,-56.5 633.11,-56.5"/>
<text text-anchor="middle" x="696.61" y="-63.5" font-family="Helvetica,sans-Serif" font-size="10.00">odp/api/abi/cpumask.h</text>
</a>
</g>
</g>
<!-- Node18&#45;&gt;Node19 -->
<g id="edge24" class="edge">
<title>Node18&#45;&gt;Node19</title>
<path fill="none" stroke="midnightblue" d="M584.69,-112.44C606.67,-103.52 641.35,-89.44 666.28,-79.32"/>
<polygon fill="midnightblue" stroke="midnightblue" points="667.69,-82.52 675.64,-75.52 665.06,-76.04 667.69,-82.52"/>
</g>
<!-- Node20 -->
<g id="node20" class="node">
<title>Node20</title>
<g id="a_node20"><a xlink:href="spec_2cpumask_8h.html" target="_top" xlink:title=" ">
<polygon fill="white" stroke="black" points="480.61,-56.5 480.61,-75.5 614.61,-75.5 614.61,-56.5 480.61,-56.5"/>
<text text-anchor="middle" x="547.61" y="-63.5" font-family="Helvetica,sans-Serif" font-size="10.00">odp/api/spec/cpumask.h</text>
</a>
</g>
</g>
<!-- Node18&#45;&gt;Node20 -->
<g id="edge25" class="edge">
<title>Node18&#45;&gt;Node20</title>
<path fill="none" stroke="midnightblue" d="M560.97,-112.08C558.83,-104.85 555.73,-94.41 553.06,-85.4"/>
<polygon fill="midnightblue" stroke="midnightblue" points="556.4,-84.34 550.21,-75.75 549.69,-86.33 556.4,-84.34"/>
</g>
<!-- Node20&#45;&gt;Node5 -->
<g id="edge26" class="edge">
<title>Node20&#45;&gt;Node5</title>
<path fill="none" stroke="midnightblue" d="M532.35,-56.32C517.39,-47.82 494.36,-34.73 476.89,-24.8"/>
<polygon fill="midnightblue" stroke="midnightblue" points="478.26,-21.55 467.84,-19.65 474.8,-27.64 478.26,-21.55"/>
</g>
<!-- Node20&#45;&gt;Node6 -->
<g id="edge27" class="edge">
<title>Node20&#45;&gt;Node6</title>
<path fill="none" stroke="midnightblue" d="M485.66,-56.44C413.98,-46.54 296.44,-30.31 222.96,-20.16"/>
<polygon fill="midnightblue" stroke="midnightblue" points="223.27,-16.67 212.89,-18.77 222.32,-23.61 223.27,-16.67"/>
</g>
<!-- Node21&#45;&gt;Node7 -->
<g id="edge30" class="edge">
<title>Node21&#45;&gt;Node7</title>
<path fill="none" stroke="midnightblue" d="M534.24,-403.4C532.89,-395.38 531.19,-385.23 529.73,-376.57"/>
<polygon fill="midnightblue" stroke="midnightblue" points="533.18,-375.94 528.07,-366.66 526.27,-377.1 533.18,-375.94"/>
</g>
<!-- Node21&#45;&gt;Node17 -->
<g id="edge31" class="edge">
<title>Node21&#45;&gt;Node17</title>
<path fill="none" stroke="midnightblue" d="M563.34,-403.46C623.56,-371.84 769.88,-294.98 837.83,-259.29"/>
<polygon fill="midnightblue" stroke="midnightblue" points="839.66,-262.29 846.88,-254.54 836.4,-256.09 839.66,-262.29"/>
</g>
</g>
</svg>
