<?xml version="1.0" encoding="UTF-8" standalone="no"?>
<!DOCTYPE svg PUBLIC "-//W3C//DTD SVG 1.1//EN"
 "http://www.w3.org/Graphics/SVG/1.1/DTD/svg11.dtd">
<!-- Generated by graphviz version 2.43.0 (0)
 -->
<!-- Title: dma.h Pages: 1 -->
<svg width="1202pt" height="1102pt"
 viewBox="0.00 0.00 1202.00 1102.00" xmlns="http://www.w3.org/2000/svg" xmlns:xlink="http://www.w3.org/1999/xlink">
<g id="graph0" class="graph" transform="scale(1 1) rotate(0) translate(4 1098)">
<title>dma.h</title>
<polygon fill="white" stroke="transparent" points="-4,4 -4,-1098 1198,-1098 1198,4 -4,4"/>
<!-- Node1 -->
<g id="node1" class="node">
<title>Node1</title>
<g id="a_node1"><a xlink:title=" ">
<polygon fill="#bfbfbf" stroke="black" points="770.5,-1074.5 770.5,-1093.5 817.5,-1093.5 817.5,-1074.5 770.5,-1074.5"/>
<text text-anchor="middle" x="794" y="-1081.5" font-family="Helvetica,sans-Serif" font-size="10.00">dma.h</text>
</a>
</g>
</g>
<!-- Node2 -->
<g id="node2" class="node">
<title>Node2</title>
<g id="a_node2"><a xlink:title=" ">
<polygon fill="white" stroke="#bfbfbf" points="679,-1018.5 679,-1037.5 783,-1037.5 783,-1018.5 679,-1018.5"/>
<text text-anchor="middle" x="731" y="-1025.5" font-family="Helvetica,sans-Serif" font-size="10.00">odp/api/abi/dma.h</text>
</a>
</g>
</g>
<!-- Node1&#45;&gt;Node2 -->
<g id="edge1" class="edge">
<title>Node1&#45;&gt;Node2</title>
<path fill="none" stroke="midnightblue" d="M783.88,-1074.32C774.47,-1066.26 760.26,-1054.08 748.93,-1044.37"/>
<polygon fill="midnightblue" stroke="midnightblue" points="751.18,-1041.68 741.31,-1037.83 746.62,-1047 751.18,-1041.68"/>
</g>
<!-- Node3 -->
<g id="node3" class="node">
<title>Node3</title>
<g id="a_node3"><a xlink:href="spec_2dma_8h.html" target="_top" xlink:title=" ">
<polygon fill="white" stroke="black" points="801,-1018.5 801,-1037.5 913,-1037.5 913,-1018.5 801,-1018.5"/>
<text text-anchor="middle" x="857" y="-1025.5" font-family="Helvetica,sans-Serif" font-size="10.00">odp/api/spec/dma.h</text>
</a>
</g>
</g>
<!-- Node1&#45;&gt;Node3 -->
<g id="edge2" class="edge">
<title>Node1&#45;&gt;Node3</title>
<path fill="none" stroke="midnightblue" d="M804.12,-1074.32C813.53,-1066.26 827.74,-1054.08 839.07,-1044.37"/>
<polygon fill="midnightblue" stroke="midnightblue" points="841.38,-1047 846.69,-1037.83 836.82,-1041.68 841.38,-1047"/>
</g>
<!-- Node4 -->
<g id="node4" class="node">
<title>Node4</title>
<g id="a_node4"><a xlink:title=" ">
<polygon fill="white" stroke="#bfbfbf" points="336.5,-0.5 336.5,-19.5 457.5,-19.5 457.5,-0.5 336.5,-0.5"/>
<text text-anchor="middle" x="397" y="-7.5" font-family="Helvetica,sans-Serif" font-size="10.00">odp/visibility_begin.h</text>
</a>
</g>
</g>
<!-- Node3&#45;&gt;Node4 -->
<g id="edge3" class="edge">
<title>Node3&#45;&gt;Node4</title>
<path fill="none" stroke="midnightblue" d="M800.99,-1019.21C797.95,-1018.79 794.94,-1018.39 792,-1018 704.06,-1006.31 0,-1005.71 0,-917 0,-917 0,-917 0,-132 0,-78.62 44.17,-77.57 93,-56 168,-22.86 262.52,-13.29 326.09,-10.94"/>
<polygon fill="midnightblue" stroke="midnightblue" points="326.53,-14.43 336.41,-10.61 326.3,-7.43 326.53,-14.43"/>
</g>
<!-- Node5 -->
<g id="node5" class="node">
<title>Node5</title>
<g id="a_node5"><a xlink:href="dma__types_8h.html" target="_top" xlink:title=" ">
<polygon fill="white" stroke="black" points="741.5,-850.5 741.5,-869.5 860.5,-869.5 860.5,-850.5 741.5,-850.5"/>
<text text-anchor="middle" x="801" y="-857.5" font-family="Helvetica,sans-Serif" font-size="10.00">odp/api/dma_types.h</text>
</a>
</g>
</g>
<!-- Node3&#45;&gt;Node5 -->
<g id="edge4" class="edge">
<title>Node3&#45;&gt;Node5</title>
<path fill="none" stroke="midnightblue" d="M851.86,-1018.28C846.79,-1009.4 839.07,-995.09 834,-982 820.36,-946.77 810.05,-903.71 804.82,-879.62"/>
<polygon fill="midnightblue" stroke="midnightblue" points="808.22,-878.76 802.73,-869.7 801.37,-880.21 808.22,-878.76"/>
</g>
<!-- Node11 -->
<g id="node11" class="node">
<title>Node11</title>
<g id="a_node11"><a xlink:title=" ">
<polygon fill="white" stroke="#bfbfbf" points="948,-0.5 948,-19.5 1060,-19.5 1060,-0.5 948,-0.5"/>
<text text-anchor="middle" x="1004" y="-7.5" font-family="Helvetica,sans-Serif" font-size="10.00">odp/visibility_end.h</text>
</a>
</g>
</g>
<!-- Node3&#45;&gt;Node11 -->
<g id="edge62" class="edge">
<title>Node3&#45;&gt;Node11</title>
<path fill="none" stroke="midnightblue" d="M913.03,-1020.44C1008.85,-1007.66 1194,-975.39 1194,-917 1194,-917 1194,-917 1194,-132 1194,-68.18 1116.78,-36.55 1060.8,-22.01"/>
<polygon fill="midnightblue" stroke="midnightblue" points="1061.51,-18.58 1050.97,-19.57 1059.83,-25.38 1061.51,-18.58"/>
</g>
<!-- Node35 -->
<g id="node35" class="node">
<title>Node35</title>
<g id="a_node35"><a xlink:href="pool__types_8h.html" target="_top" xlink:title=" ">
<polygon fill="white" stroke="black" points="843,-962.5 843,-981.5 961,-981.5 961,-962.5 843,-962.5"/>
<text text-anchor="middle" x="902" y="-969.5" font-family="Helvetica,sans-Serif" font-size="10.00">odp/api/pool_types.h</text>
</a>
</g>
</g>
<!-- Node3&#45;&gt;Node35 -->
<g id="edge55" class="edge">
<title>Node3&#45;&gt;Node35</title>
<path fill="none" stroke="midnightblue" d="M864.43,-1018.08C870.85,-1010.38 880.31,-999.03 888.12,-989.65"/>
<polygon fill="midnightblue" stroke="midnightblue" points="890.99,-991.67 894.71,-981.75 885.62,-987.19 890.99,-991.67"/>
</g>
<!-- Node6 -->
<g id="node6" class="node">
<title>Node6</title>
<g id="a_node6"><a xlink:title=" ">
<polygon fill="white" stroke="#bfbfbf" points="571.5,-794.5 571.5,-813.5 708.5,-813.5 708.5,-794.5 571.5,-794.5"/>
<text text-anchor="middle" x="640" y="-801.5" font-family="Helvetica,sans-Serif" font-size="10.00">odp/api/abi/dma_types.h</text>
</a>
</g>
</g>
<!-- Node5&#45;&gt;Node6 -->
<g id="edge5" class="edge">
<title>Node5&#45;&gt;Node6</title>
<path fill="none" stroke="midnightblue" d="M775.49,-850.44C748.4,-841.36 705.41,-826.94 675.13,-816.78"/>
<polygon fill="midnightblue" stroke="midnightblue" points="675.99,-813.38 665.39,-813.52 673.76,-820.01 675.99,-813.38"/>
</g>
<!-- Node7 -->
<g id="node7" class="node">
<title>Node7</title>
<g id="a_node7"><a xlink:href="spec_2dma__types_8h.html" target="_top" xlink:title=" ">
<polygon fill="white" stroke="black" points="727,-794.5 727,-813.5 871,-813.5 871,-794.5 727,-794.5"/>
<text text-anchor="middle" x="799" y="-801.5" font-family="Helvetica,sans-Serif" font-size="10.00">odp/api/spec/dma_types.h</text>
</a>
</g>
</g>
<!-- Node5&#45;&gt;Node7 -->
<g id="edge6" class="edge">
<title>Node5&#45;&gt;Node7</title>
<path fill="none" stroke="midnightblue" d="M800.67,-850.08C800.41,-843.01 800.03,-832.86 799.7,-823.99"/>
<polygon fill="midnightblue" stroke="midnightblue" points="803.19,-823.61 799.32,-813.75 796.2,-823.87 803.19,-823.61"/>
</g>
<!-- Node7&#45;&gt;Node4 -->
<g id="edge7" class="edge">
<title>Node7&#45;&gt;Node4</title>
<path fill="none" stroke="midnightblue" d="M828.65,-794.47C869.19,-781.28 941.52,-752.1 982,-702 1040.06,-630.15 1042,-595.38 1042,-503 1042,-503 1042,-503 1042,-305.5 1042,-149.46 935.4,-124.08 795,-56 738.95,-28.82 566.42,-17.64 467.9,-13.38"/>
<polygon fill="midnightblue" stroke="midnightblue" points="467.86,-9.88 457.72,-12.96 467.57,-16.87 467.86,-9.88"/>
</g>
<!-- Node8 -->
<g id="node8" class="node">
<title>Node8</title>
<g id="a_node8"><a xlink:href="event__types_8h.html" target="_top" xlink:title=" ">
<polygon fill="white" stroke="black" points="151.5,-123.5 151.5,-142.5 276.5,-142.5 276.5,-123.5 151.5,-123.5"/>
<text text-anchor="middle" x="214" y="-130.5" font-family="Helvetica,sans-Serif" font-size="10.00">odp/api/event_types.h</text>
</a>
</g>
</g>
<!-- Node7&#45;&gt;Node8 -->
<g id="edge8" class="edge">
<title>Node7&#45;&gt;Node8</title>
<path fill="none" stroke="midnightblue" d="M726.57,-795.03C723.33,-794.68 720.13,-794.34 717,-794 578.44,-779.15 99,-826.86 99,-687.5 99,-687.5 99,-687.5 99,-305.5 99,-237.71 161.75,-176.49 194.54,-149.13"/>
<polygon fill="midnightblue" stroke="midnightblue" points="197,-151.64 202.55,-142.62 192.58,-146.21 197,-151.64"/>
</g>
<!-- Node7&#45;&gt;Node11 -->
<g id="edge54" class="edge">
<title>Node7&#45;&gt;Node11</title>
<path fill="none" stroke="midnightblue" d="M871.08,-796.05C926.3,-789.31 996.56,-777.26 1018,-758 1085.19,-697.66 1080,-654.81 1080,-564.5 1080,-564.5 1080,-564.5 1080,-372.5 1080,-289.65 1118,-272.85 1118,-190 1118,-190 1118,-190 1118,-132 1118,-81.35 1064.42,-43.28 1030.73,-24.34"/>
<polygon fill="midnightblue" stroke="midnightblue" points="1032.27,-21.2 1021.81,-19.52 1028.94,-27.36 1032.27,-21.2"/>
</g>
<!-- Node12 -->
<g id="node12" class="node">
<title>Node12</title>
<g id="a_node12"><a xlink:href="packet__types_8h.html" target="_top" xlink:title=" ">
<polygon fill="white" stroke="black" points="724.5,-738.5 724.5,-757.5 853.5,-757.5 853.5,-738.5 724.5,-738.5"/>
<text text-anchor="middle" x="789" y="-745.5" font-family="Helvetica,sans-Serif" font-size="10.00">odp/api/packet_types.h</text>
</a>
</g>
</g>
<!-- Node7&#45;&gt;Node12 -->
<g id="edge13" class="edge">
<title>Node7&#45;&gt;Node12</title>
<path fill="none" stroke="midnightblue" d="M797.35,-794.08C796.02,-786.93 794.12,-776.64 792.46,-767.69"/>
<polygon fill="midnightblue" stroke="midnightblue" points="795.88,-766.95 790.62,-757.75 789,-768.22 795.88,-766.95"/>
</g>
<!-- Node19 -->
<g id="node19" class="node">
<title>Node19</title>
<g id="a_node19"><a xlink:href="std__types_8h.html" target="_top" xlink:title=" ">
<polygon fill="white" stroke="black" points="458,-235.5 458,-254.5 570,-254.5 570,-235.5 458,-235.5"/>
<text text-anchor="middle" x="514" y="-242.5" font-family="Helvetica,sans-Serif" font-size="10.00">odp/api/std_types.h</text>
</a>
</g>
</g>
<!-- Node7&#45;&gt;Node19 -->
<g id="edge53" class="edge">
<title>Node7&#45;&gt;Node19</title>
<path fill="none" stroke="midnightblue" d="M734.86,-794.48C575.63,-772.88 175,-715.75 175,-687.5 175,-687.5 175,-687.5 175,-562.5 175,-434.66 172.91,-374.16 270,-291 296.15,-268.6 384.78,-256.63 447.66,-250.8"/>
<polygon fill="midnightblue" stroke="midnightblue" points="448.26,-254.26 457.91,-249.88 447.64,-247.29 448.26,-254.26"/>
</g>
<!-- Node26 -->
<g id="node26" class="node">
<title>Node26</title>
<g id="a_node26"><a xlink:href="queue__types_8h.html" target="_top" xlink:title=" ">
<polygon fill="white" stroke="black" points="519.5,-615.5 519.5,-634.5 646.5,-634.5 646.5,-615.5 519.5,-615.5"/>
<text text-anchor="middle" x="583" y="-622.5" font-family="Helvetica,sans-Serif" font-size="10.00">odp/api/queue_types.h</text>
</a>
</g>
</g>
<!-- Node7&#45;&gt;Node26 -->
<g id="edge52" class="edge">
<title>Node7&#45;&gt;Node26</title>
<path fill="none" stroke="midnightblue" d="M763.34,-794.46C718.77,-781.89 643.34,-754.08 602,-702 588.95,-685.56 584.73,-661.31 583.43,-644.65"/>
<polygon fill="midnightblue" stroke="midnightblue" points="586.92,-644.33 582.93,-634.51 579.93,-644.67 586.92,-644.33"/>
</g>
<!-- Node9 -->
<g id="node9" class="node">
<title>Node9</title>
<g id="a_node9"><a xlink:title=" ">
<polygon fill="white" stroke="#bfbfbf" points="142.5,-62 142.5,-81 285.5,-81 285.5,-62 142.5,-62"/>
<text text-anchor="middle" x="214" y="-69" font-family="Helvetica,sans-Serif" font-size="10.00">odp/api/abi/event_types.h</text>
</a>
</g>
</g>
<!-- Node8&#45;&gt;Node9 -->
<g id="edge9" class="edge">
<title>Node8&#45;&gt;Node9</title>
<path fill="none" stroke="midnightblue" d="M214,-123.48C214,-115.08 214,-101.98 214,-91.16"/>
<polygon fill="midnightblue" stroke="midnightblue" points="217.5,-91.01 214,-81.01 210.5,-91.01 217.5,-91.01"/>
</g>
<!-- Node10 -->
<g id="node10" class="node">
<title>Node10</title>
<g id="a_node10"><a xlink:href="spec_2event__types_8h.html" target="_top" xlink:title=" ">
<polygon fill="white" stroke="black" points="342.5,-56.5 342.5,-86.5 451.5,-86.5 451.5,-56.5 342.5,-56.5"/>
<text text-anchor="start" x="350.5" y="-74.5" font-family="Helvetica,sans-Serif" font-size="10.00">odp/api/spec/event</text>
<text text-anchor="middle" x="397" y="-63.5" font-family="Helvetica,sans-Serif" font-size="10.00">_types.h</text>
</a>
</g>
</g>
<!-- Node8&#45;&gt;Node10 -->
<g id="edge10" class="edge">
<title>Node8&#45;&gt;Node10</title>
<path fill="none" stroke="midnightblue" d="M240.22,-123.48C267.2,-114.7 310,-100.79 344.06,-89.71"/>
<polygon fill="midnightblue" stroke="midnightblue" points="345.44,-92.94 353.87,-86.52 343.28,-86.29 345.44,-92.94"/>
</g>
<!-- Node10&#45;&gt;Node4 -->
<g id="edge11" class="edge">
<title>Node10&#45;&gt;Node4</title>
<path fill="none" stroke="midnightblue" d="M397,-56.4C397,-48.47 397,-38.46 397,-29.86"/>
<polygon fill="midnightblue" stroke="midnightblue" points="400.5,-29.66 397,-19.66 393.5,-29.66 400.5,-29.66"/>
</g>
<!-- Node10&#45;&gt;Node11 -->
<g id="edge12" class="edge">
<title>Node10&#45;&gt;Node11</title>
<path fill="none" stroke="midnightblue" d="M451.51,-64.76C477.41,-62.06 508.8,-58.82 537,-56 679.81,-41.72 847.28,-25.78 937.8,-17.23"/>
<polygon fill="midnightblue" stroke="midnightblue" points="938.29,-20.7 947.92,-16.27 937.63,-13.73 938.29,-20.7"/>
</g>
<!-- Node13 -->
<g id="node13" class="node">
<title>Node13</title>
<g id="a_node13"><a xlink:title=" ">
<polygon fill="white" stroke="#bfbfbf" points="611,-671.5 611,-701.5 717,-701.5 717,-671.5 611,-671.5"/>
<text text-anchor="start" x="619" y="-689.5" font-family="Helvetica,sans-Serif" font-size="10.00">odp/api/abi/packet</text>
<text text-anchor="middle" x="664" y="-678.5" font-family="Helvetica,sans-Serif" font-size="10.00">_io_types.h</text>
</a>
</g>
</g>
<!-- Node12&#45;&gt;Node13 -->
<g id="edge14" class="edge">
<title>Node12&#45;&gt;Node13</title>
<path fill="none" stroke="midnightblue" d="M771.09,-738.48C753.29,-730 725.42,-716.74 702.58,-705.86"/>
<polygon fill="midnightblue" stroke="midnightblue" points="703.99,-702.66 693.46,-701.52 700.99,-708.98 703.99,-702.66"/>
</g>
<!-- Node14 -->
<g id="node14" class="node">
<title>Node14</title>
<g id="a_node14"><a xlink:title=" ">
<polygon fill="white" stroke="#bfbfbf" points="735,-671.5 735,-701.5 841,-701.5 841,-671.5 735,-671.5"/>
<text text-anchor="start" x="743" y="-689.5" font-family="Helvetica,sans-Serif" font-size="10.00">odp/api/abi/packet</text>
<text text-anchor="middle" x="788" y="-678.5" font-family="Helvetica,sans-Serif" font-size="10.00">_types.h</text>
</a>
</g>
</g>
<!-- Node12&#45;&gt;Node14 -->
<g id="edge15" class="edge">
<title>Node12&#45;&gt;Node14</title>
<path fill="none" stroke="midnightblue" d="M788.86,-738.48C788.74,-731.47 788.57,-721.19 788.41,-711.7"/>
<polygon fill="midnightblue" stroke="midnightblue" points="791.9,-711.46 788.24,-701.52 784.9,-711.58 791.9,-711.46"/>
</g>
<!-- Node15 -->
<g id="node15" class="node">
<title>Node15</title>
<g id="a_node15"><a xlink:href="spec_2packet__types_8h.html" target="_top" xlink:title=" ">
<polygon fill="white" stroke="black" points="859.5,-671.5 859.5,-701.5 972.5,-701.5 972.5,-671.5 859.5,-671.5"/>
<text text-anchor="start" x="867.5" y="-689.5" font-family="Helvetica,sans-Serif" font-size="10.00">odp/api/spec/packet</text>
<text text-anchor="middle" x="916" y="-678.5" font-family="Helvetica,sans-Serif" font-size="10.00">_types.h</text>
</a>
</g>
</g>
<!-- Node12&#45;&gt;Node15 -->
<g id="edge16" class="edge">
<title>Node12&#45;&gt;Node15</title>
<path fill="none" stroke="midnightblue" d="M807.2,-738.48C825.28,-730 853.59,-716.74 876.81,-705.86"/>
<polygon fill="midnightblue" stroke="midnightblue" points="878.5,-708.93 886.07,-701.52 875.53,-702.6 878.5,-708.93"/>
</g>
<!-- Node15&#45;&gt;Node4 -->
<g id="edge17" class="edge">
<title>Node15&#45;&gt;Node4</title>
<path fill="none" stroke="midnightblue" d="M859.2,-672.6C856.09,-672.03 853.01,-671.49 850,-671 689.32,-644.92 137,-665.78 137,-503 137,-503 137,-503 137,-439.5 137,-427.54 325.15,-65.03 333,-56 343.89,-43.46 358.99,-32.63 371.78,-24.74"/>
<polygon fill="midnightblue" stroke="midnightblue" points="373.77,-27.63 380.6,-19.53 370.21,-21.6 373.77,-27.63"/>
</g>
<!-- Node15&#45;&gt;Node11 -->
<g id="edge51" class="edge">
<title>Node15&#45;&gt;Node11</title>
<path fill="none" stroke="midnightblue" d="M923.05,-671.33C943.93,-628.04 1004,-493.18 1004,-374.5 1004,-374.5 1004,-374.5 1004,-305.5 1004,-201.33 1004,-76.44 1004,-29.79"/>
<polygon fill="midnightblue" stroke="midnightblue" points="1007.5,-29.67 1004,-19.67 1000.5,-29.67 1007.5,-29.67"/>
</g>
<!-- Node16 -->
<g id="node16" class="node">
<title>Node16</title>
<g id="a_node16"><a xlink:href="proto__stats__types_8h.html" target="_top" xlink:title=" ">
<polygon fill="white" stroke="black" points="781,-358.5 781,-388.5 891,-388.5 891,-358.5 781,-358.5"/>
<text text-anchor="start" x="789" y="-376.5" font-family="Helvetica,sans-Serif" font-size="10.00">odp/api/proto_stats</text>
<text text-anchor="middle" x="836" y="-365.5" font-family="Helvetica,sans-Serif" font-size="10.00">_types.h</text>
</a>
</g>
</g>
<!-- Node15&#45;&gt;Node16 -->
<g id="edge18" class="edge">
<title>Node15&#45;&gt;Node16</title>
<path fill="none" stroke="midnightblue" d="M905.27,-671.48C889.79,-649.79 863,-606.24 863,-564.5 863,-564.5 863,-564.5 863,-501 863,-464.65 852.2,-423.69 844.27,-398.49"/>
<polygon fill="midnightblue" stroke="midnightblue" points="847.51,-397.13 841.08,-388.71 840.85,-399.3 847.51,-397.13"/>
</g>
<!-- Node15&#45;&gt;Node26 -->
<g id="edge34" class="edge">
<title>Node15&#45;&gt;Node26</title>
<path fill="none" stroke="midnightblue" d="M859.16,-672.83C856.06,-672.19 852.99,-671.58 850,-671 781.5,-657.71 702.67,-644.7 648.52,-636.12"/>
<polygon fill="midnightblue" stroke="midnightblue" points="648.79,-632.62 638.37,-634.52 647.7,-639.53 648.79,-632.62"/>
</g>
<!-- Node17 -->
<g id="node17" class="node">
<title>Node17</title>
<g id="a_node17"><a xlink:title=" ">
<polygon fill="white" stroke="#bfbfbf" points="772,-291.5 772,-321.5 900,-321.5 900,-291.5 772,-291.5"/>
<text text-anchor="start" x="780" y="-309.5" font-family="Helvetica,sans-Serif" font-size="10.00">odp/api/abi/proto_stats</text>
<text text-anchor="middle" x="836" y="-298.5" font-family="Helvetica,sans-Serif" font-size="10.00">_types.h</text>
</a>
</g>
</g>
<!-- Node16&#45;&gt;Node17 -->
<g id="edge19" class="edge">
<title>Node16&#45;&gt;Node17</title>
<path fill="none" stroke="midnightblue" d="M836,-358.4C836,-350.64 836,-340.81 836,-331.86"/>
<polygon fill="midnightblue" stroke="midnightblue" points="839.5,-331.58 836,-321.58 832.5,-331.58 839.5,-331.58"/>
</g>
<!-- Node18 -->
<g id="node18" class="node">
<title>Node18</title>
<g id="a_node18"><a xlink:href="spec_2proto__stats__types_8h.html" target="_top" xlink:title=" ">
<polygon fill="white" stroke="black" points="646.5,-291.5 646.5,-321.5 753.5,-321.5 753.5,-291.5 646.5,-291.5"/>
<text text-anchor="start" x="654.5" y="-309.5" font-family="Helvetica,sans-Serif" font-size="10.00">odp/api/spec/proto</text>
<text text-anchor="middle" x="700" y="-298.5" font-family="Helvetica,sans-Serif" font-size="10.00">_stats_types.h</text>
</a>
</g>
</g>
<!-- Node16&#45;&gt;Node18 -->
<g id="edge20" class="edge">
<title>Node16&#45;&gt;Node18</title>
<path fill="none" stroke="midnightblue" d="M806.49,-358.4C786.62,-348.9 760.21,-336.28 738.66,-325.98"/>
<polygon fill="midnightblue" stroke="midnightblue" points="739.98,-322.73 729.45,-321.58 736.97,-329.05 739.98,-322.73"/>
</g>
<!-- Node18&#45;&gt;Node4 -->
<g id="edge21" class="edge">
<title>Node18&#45;&gt;Node4</title>
<path fill="none" stroke="midnightblue" d="M691.81,-291.17C672.96,-258.9 623.98,-179.03 570,-123 536.14,-87.85 524.11,-82.3 483,-56 464.37,-44.08 442.24,-32.56 425.09,-24.15"/>
<polygon fill="midnightblue" stroke="midnightblue" points="426.17,-20.78 415.64,-19.59 423.12,-27.09 426.17,-20.78"/>
</g>
<!-- Node18&#45;&gt;Node11 -->
<g id="edge33" class="edge">
<title>Node18&#45;&gt;Node11</title>
<path fill="none" stroke="midnightblue" d="M753.61,-291.75C798.84,-279.74 857.56,-263 866,-255 911.3,-212.05 883.37,-177.39 914,-123 935.18,-85.39 968.84,-47.46 988.44,-26.82"/>
<polygon fill="midnightblue" stroke="midnightblue" points="991.02,-29.18 995.44,-19.55 985.98,-24.33 991.02,-29.18"/>
</g>
<!-- Node18&#45;&gt;Node19 -->
<g id="edge22" class="edge">
<title>Node18&#45;&gt;Node19</title>
<path fill="none" stroke="midnightblue" d="M655.92,-291.4C623.78,-281.12 580.74,-267.35 550.52,-257.68"/>
<polygon fill="midnightblue" stroke="midnightblue" points="551.38,-254.28 540.79,-254.57 549.25,-260.95 551.38,-254.28"/>
</g>
<!-- Node20 -->
<g id="node20" class="node">
<title>Node20</title>
<g id="a_node20"><a xlink:title=" ">
<polygon fill="white" stroke="#bfbfbf" points="297,-179.5 297,-198.5 427,-198.5 427,-179.5 297,-179.5"/>
<text text-anchor="middle" x="362" y="-186.5" font-family="Helvetica,sans-Serif" font-size="10.00">odp/api/abi/std_types.h</text>
</a>
</g>
</g>
<!-- Node19&#45;&gt;Node20 -->
<g id="edge23" class="edge">
<title>Node19&#45;&gt;Node20</title>
<path fill="none" stroke="midnightblue" d="M489.92,-235.44C464.46,-226.4 424.11,-212.06 395.54,-201.92"/>
<polygon fill="midnightblue" stroke="midnightblue" points="396.57,-198.57 385.97,-198.52 394.22,-205.16 396.57,-198.57"/>
</g>
<!-- Node21 -->
<g id="node21" class="node">
<title>Node21</title>
<g id="a_node21"><a xlink:href="spec_2std__types_8h.html" target="_top" xlink:title=" ">
<polygon fill="white" stroke="black" points="445.5,-179.5 445.5,-198.5 582.5,-198.5 582.5,-179.5 445.5,-179.5"/>
<text text-anchor="middle" x="514" y="-186.5" font-family="Helvetica,sans-Serif" font-size="10.00">odp/api/spec/std_types.h</text>
</a>
</g>
</g>
<!-- Node19&#45;&gt;Node21 -->
<g id="edge24" class="edge">
<title>Node19&#45;&gt;Node21</title>
<path fill="none" stroke="midnightblue" d="M514,-235.08C514,-228.01 514,-217.86 514,-208.99"/>
<polygon fill="midnightblue" stroke="midnightblue" points="517.5,-208.75 514,-198.75 510.5,-208.75 517.5,-208.75"/>
</g>
<!-- Node21&#45;&gt;Node4 -->
<g id="edge25" class="edge">
<title>Node21&#45;&gt;Node4</title>
<path fill="none" stroke="midnightblue" d="M511.21,-179.47C502.63,-153.6 476.29,-76.58 460,-56 449.93,-43.28 435.35,-32.55 422.75,-24.76"/>
<polygon fill="midnightblue" stroke="midnightblue" points="424.42,-21.68 414.02,-19.62 420.87,-27.71 424.42,-21.68"/>
</g>
<!-- Node21&#45;&gt;Node11 -->
<g id="edge32" class="edge">
<title>Node21&#45;&gt;Node11</title>
<path fill="none" stroke="midnightblue" d="M572.27,-179.45C613.3,-172.37 669.07,-160.59 716,-143 791.79,-114.59 802.03,-88.86 876,-56 905.46,-42.91 939.99,-30.96 965.76,-22.67"/>
<polygon fill="midnightblue" stroke="midnightblue" points="967.06,-25.93 975.53,-19.56 964.94,-19.26 967.06,-25.93"/>
</g>
<!-- Node22 -->
<g id="node22" class="node">
<title>Node22</title>
<g id="a_node22"><a xlink:title=" ">
<polygon fill="white" stroke="#bfbfbf" points="508.5,-123.5 508.5,-142.5 561.5,-142.5 561.5,-123.5 508.5,-123.5"/>
<text text-anchor="middle" x="535" y="-130.5" font-family="Helvetica,sans-Serif" font-size="10.00">stdint.h</text>
</a>
</g>
</g>
<!-- Node21&#45;&gt;Node22 -->
<g id="edge26" class="edge">
<title>Node21&#45;&gt;Node22</title>
<path fill="none" stroke="midnightblue" d="M517.47,-179.08C520.31,-171.77 524.43,-161.18 527.96,-152.1"/>
<polygon fill="midnightblue" stroke="midnightblue" points="531.23,-153.34 531.6,-142.75 524.71,-150.8 531.23,-153.34"/>
</g>
<!-- Node23 -->
<g id="node23" class="node">
<title>Node23</title>
<g id="a_node23"><a xlink:href="align_8h.html" target="_top" xlink:title=" ">
<polygon fill="white" stroke="black" points="618.5,-123.5 618.5,-142.5 707.5,-142.5 707.5,-123.5 618.5,-123.5"/>
<text text-anchor="middle" x="663" y="-130.5" font-family="Helvetica,sans-Serif" font-size="10.00">odp/api/align.h</text>
</a>
</g>
</g>
<!-- Node21&#45;&gt;Node23 -->
<g id="edge27" class="edge">
<title>Node21&#45;&gt;Node23</title>
<path fill="none" stroke="midnightblue" d="M537.61,-179.44C562.46,-170.44 601.77,-156.19 629.75,-146.05"/>
<polygon fill="midnightblue" stroke="midnightblue" points="631.29,-149.21 639.5,-142.52 628.91,-142.63 631.29,-149.21"/>
</g>
<!-- Node24 -->
<g id="node24" class="node">
<title>Node24</title>
<g id="a_node24"><a xlink:title=" ">
<polygon fill="white" stroke="#bfbfbf" points="546.5,-62 546.5,-81 653.5,-81 653.5,-62 546.5,-62"/>
<text text-anchor="middle" x="600" y="-69" font-family="Helvetica,sans-Serif" font-size="10.00">odp/api/abi/align.h</text>
</a>
</g>
</g>
<!-- Node23&#45;&gt;Node24 -->
<g id="edge28" class="edge">
<title>Node23&#45;&gt;Node24</title>
<path fill="none" stroke="midnightblue" d="M653.97,-123.48C644.24,-114.28 628.54,-99.46 616.58,-88.16"/>
<polygon fill="midnightblue" stroke="midnightblue" points="618.68,-85.33 609.01,-81.01 613.88,-90.42 618.68,-85.33"/>
</g>
<!-- Node25 -->
<g id="node25" class="node">
<title>Node25</title>
<g id="a_node25"><a xlink:href="spec_2align_8h.html" target="_top" xlink:title=" ">
<polygon fill="white" stroke="black" points="672,-62 672,-81 786,-81 786,-62 672,-62"/>
<text text-anchor="middle" x="729" y="-69" font-family="Helvetica,sans-Serif" font-size="10.00">odp/api/spec/align.h</text>
</a>
</g>
</g>
<!-- Node23&#45;&gt;Node25 -->
<g id="edge29" class="edge">
<title>Node23&#45;&gt;Node25</title>
<path fill="none" stroke="midnightblue" d="M672.46,-123.48C682.75,-114.2 699.42,-99.17 711.99,-87.83"/>
<polygon fill="midnightblue" stroke="midnightblue" points="714.48,-90.3 719.56,-81.01 709.79,-85.11 714.48,-90.3"/>
</g>
<!-- Node25&#45;&gt;Node4 -->
<g id="edge30" class="edge">
<title>Node25&#45;&gt;Node4</title>
<path fill="none" stroke="midnightblue" d="M691.15,-62C681.65,-59.95 671.47,-57.83 662,-56 593.77,-42.83 515.26,-29.76 461.51,-21.12"/>
<polygon fill="midnightblue" stroke="midnightblue" points="461.86,-17.64 451.43,-19.51 460.76,-24.55 461.86,-17.64"/>
</g>
<!-- Node25&#45;&gt;Node11 -->
<g id="edge31" class="edge">
<title>Node25&#45;&gt;Node11</title>
<path fill="none" stroke="midnightblue" d="M768.4,-61.98C817.51,-51.35 901.47,-33.18 954.77,-21.65"/>
<polygon fill="midnightblue" stroke="midnightblue" points="955.64,-25.04 964.67,-19.51 954.16,-18.2 955.64,-25.04"/>
</g>
<!-- Node27 -->
<g id="node27" class="node">
<title>Node27</title>
<g id="a_node27"><a xlink:title=" ">
<polygon fill="white" stroke="#bfbfbf" points="364.5,-554 364.5,-573 509.5,-573 509.5,-554 364.5,-554"/>
<text text-anchor="middle" x="437" y="-561" font-family="Helvetica,sans-Serif" font-size="10.00">odp/api/abi/queue_types.h</text>
</a>
</g>
</g>
<!-- Node26&#45;&gt;Node27 -->
<g id="edge35" class="edge">
<title>Node26&#45;&gt;Node27</title>
<path fill="none" stroke="midnightblue" d="M562.08,-615.48C537.25,-605.36 495.66,-588.4 467.31,-576.85"/>
<polygon fill="midnightblue" stroke="midnightblue" points="468.46,-573.54 457.88,-573.01 465.82,-580.02 468.46,-573.54"/>
</g>
<!-- Node28 -->
<g id="node28" class="node">
<title>Node28</title>
<g id="a_node28"><a xlink:href="spec_2queue__types_8h.html" target="_top" xlink:title=" ">
<polygon fill="white" stroke="black" points="527.5,-548.5 527.5,-578.5 638.5,-578.5 638.5,-548.5 527.5,-548.5"/>
<text text-anchor="start" x="535.5" y="-566.5" font-family="Helvetica,sans-Serif" font-size="10.00">odp/api/spec/queue</text>
<text text-anchor="middle" x="583" y="-555.5" font-family="Helvetica,sans-Serif" font-size="10.00">_types.h</text>
</a>
</g>
</g>
<!-- Node26&#45;&gt;Node28 -->
<g id="edge36" class="edge">
<title>Node26&#45;&gt;Node28</title>
<path fill="none" stroke="midnightblue" d="M583,-615.48C583,-608.47 583,-598.19 583,-588.7"/>
<polygon fill="midnightblue" stroke="midnightblue" points="586.5,-588.52 583,-578.52 579.5,-588.52 586.5,-588.52"/>
</g>
<!-- Node28&#45;&gt;Node4 -->
<g id="edge37" class="edge">
<title>Node28&#45;&gt;Node4</title>
<path fill="none" stroke="midnightblue" d="M548.76,-548.43C505.9,-530.1 431.06,-495.66 373,-456 224.83,-354.8 170.73,-314.51 118,-143 106.56,-105.8 82.68,-85.56 108,-56 135.54,-23.84 249.83,-14.48 326.17,-11.87"/>
<polygon fill="midnightblue" stroke="midnightblue" points="326.33,-15.37 336.21,-11.56 326.11,-8.37 326.33,-15.37"/>
</g>
<!-- Node28&#45;&gt;Node11 -->
<g id="edge50" class="edge">
<title>Node28&#45;&gt;Node11</title>
<path fill="none" stroke="midnightblue" d="M638.69,-552.32C744.92,-529.35 966,-462.87 966,-307.5 966,-307.5 966,-307.5 966,-244 966,-163.25 988.51,-68.79 998.88,-29.55"/>
<polygon fill="midnightblue" stroke="midnightblue" points="1002.28,-30.37 1001.51,-19.8 995.52,-28.55 1002.28,-30.37"/>
</g>
<!-- Node29 -->
<g id="node29" class="node">
<title>Node29</title>
<g id="a_node29"><a xlink:href="schedule__types_8h.html" target="_top" xlink:title=" ">
<polygon fill="white" stroke="black" points="510,-492.5 510,-511.5 650,-511.5 650,-492.5 510,-492.5"/>
<text text-anchor="middle" x="580" y="-499.5" font-family="Helvetica,sans-Serif" font-size="10.00">odp/api/schedule_types.h</text>
</a>
</g>
</g>
<!-- Node28&#45;&gt;Node29 -->
<g id="edge38" class="edge">
<title>Node28&#45;&gt;Node29</title>
<path fill="none" stroke="midnightblue" d="M582.29,-548.4C581.89,-540.47 581.38,-530.46 580.95,-521.86"/>
<polygon fill="midnightblue" stroke="midnightblue" points="584.44,-521.47 580.44,-511.66 577.44,-521.82 584.44,-521.47"/>
</g>
<!-- Node30 -->
<g id="node30" class="node">
<title>Node30</title>
<g id="a_node30"><a xlink:title=" ">
<polygon fill="white" stroke="#bfbfbf" points="382.5,-425.5 382.5,-455.5 499.5,-455.5 499.5,-425.5 382.5,-425.5"/>
<text text-anchor="start" x="390.5" y="-443.5" font-family="Helvetica,sans-Serif" font-size="10.00">odp/api/abi/schedule</text>
<text text-anchor="middle" x="441" y="-432.5" font-family="Helvetica,sans-Serif" font-size="10.00">_types.h</text>
</a>
</g>
</g>
<!-- Node29&#45;&gt;Node30 -->
<g id="edge39" class="edge">
<title>Node29&#45;&gt;Node30</title>
<path fill="none" stroke="midnightblue" d="M560.08,-492.48C540.12,-483.93 508.75,-470.5 483.22,-459.57"/>
<polygon fill="midnightblue" stroke="midnightblue" points="484.33,-456.24 473.76,-455.52 481.58,-462.68 484.33,-456.24"/>
</g>
<!-- Node31 -->
<g id="node31" class="node">
<title>Node31</title>
<g id="a_node31"><a xlink:href="spec_2schedule__types_8h.html" target="_top" xlink:title=" ">
<polygon fill="white" stroke="black" points="517.5,-425.5 517.5,-455.5 642.5,-455.5 642.5,-425.5 517.5,-425.5"/>
<text text-anchor="start" x="525.5" y="-443.5" font-family="Helvetica,sans-Serif" font-size="10.00">odp/api/spec/schedule</text>
<text text-anchor="middle" x="580" y="-432.5" font-family="Helvetica,sans-Serif" font-size="10.00">_types.h</text>
</a>
</g>
</g>
<!-- Node29&#45;&gt;Node31 -->
<g id="edge40" class="edge">
<title>Node29&#45;&gt;Node31</title>
<path fill="none" stroke="midnightblue" d="M580,-492.48C580,-485.47 580,-475.19 580,-465.7"/>
<polygon fill="midnightblue" stroke="midnightblue" points="583.5,-465.52 580,-455.52 576.5,-465.52 583.5,-465.52"/>
</g>
<!-- Node31&#45;&gt;Node4 -->
<g id="edge41" class="edge">
<title>Node31&#45;&gt;Node4</title>
<path fill="none" stroke="midnightblue" d="M532.48,-425.43C501.36,-415.9 459.94,-402.6 424,-389 264.65,-328.71 192.63,-301.45 130,-143 115.76,-106.98 99.95,-85.54 125,-56 150.3,-26.17 254.19,-16.08 325.99,-12.69"/>
<polygon fill="midnightblue" stroke="midnightblue" points="326.5,-16.18 336.34,-12.24 326.19,-9.18 326.5,-16.18"/>
</g>
<!-- Node31&#45;&gt;Node11 -->
<g id="edge49" class="edge">
<title>Node31&#45;&gt;Node11</title>
<path fill="none" stroke="midnightblue" d="M642.76,-437.13C724.67,-432.79 862.03,-420.86 900,-389 929.34,-364.38 928,-345.8 928,-307.5 928,-307.5 928,-307.5 928,-188 928,-154.69 974.02,-66.05 994.44,-28.36"/>
<polygon fill="midnightblue" stroke="midnightblue" points="997.53,-30 999.25,-19.55 991.38,-26.65 997.53,-30"/>
</g>
<!-- Node31&#45;&gt;Node19 -->
<g id="edge42" class="edge">
<title>Node31&#45;&gt;Node19</title>
<path fill="none" stroke="midnightblue" d="M581.05,-425.1C582.45,-397.49 582.52,-335.87 560,-291 554.17,-279.38 544.13,-269.03 534.92,-261.19"/>
<polygon fill="midnightblue" stroke="midnightblue" points="536.83,-258.24 526.84,-254.73 532.47,-263.71 536.83,-258.24"/>
</g>
<!-- Node32 -->
<g id="node32" class="node">
<title>Node32</title>
<g id="a_node32"><a xlink:href="thrmask_8h.html" target="_top" xlink:title=" ">
<polygon fill="white" stroke="black" points="433.5,-364 433.5,-383 538.5,-383 538.5,-364 433.5,-364"/>
<text text-anchor="middle" x="486" y="-371" font-family="Helvetica,sans-Serif" font-size="10.00">odp/api/thrmask.h</text>
</a>
</g>
</g>
<!-- Node31&#45;&gt;Node32 -->
<g id="edge43" class="edge">
<title>Node31&#45;&gt;Node32</title>
<path fill="none" stroke="midnightblue" d="M559.6,-425.4C543.99,-414.6 522.52,-399.76 506.81,-388.89"/>
<polygon fill="midnightblue" stroke="midnightblue" points="508.52,-385.82 498.3,-383.01 504.54,-391.57 508.52,-385.82"/>
</g>
<!-- Node33 -->
<g id="node33" class="node">
<title>Node33</title>
<g id="a_node33"><a xlink:title=" ">
<polygon fill="white" stroke="#bfbfbf" points="279.5,-297 279.5,-316 402.5,-316 402.5,-297 279.5,-297"/>
<text text-anchor="middle" x="341" y="-304" font-family="Helvetica,sans-Serif" font-size="10.00">odp/api/abi/thrmask.h</text>
</a>
</g>
</g>
<!-- Node32&#45;&gt;Node33 -->
<g id="edge44" class="edge">
<title>Node32&#45;&gt;Node33</title>
<path fill="none" stroke="midnightblue" d="M466.75,-363.87C441.83,-352.7 398.21,-333.15 369.47,-320.26"/>
<polygon fill="midnightblue" stroke="midnightblue" points="370.89,-317.06 360.33,-316.17 368.03,-323.45 370.89,-317.06"/>
</g>
<!-- Node34 -->
<g id="node34" class="node">
<title>Node34</title>
<g id="a_node34"><a xlink:href="spec_2thrmask_8h.html" target="_top" xlink:title=" ">
<polygon fill="white" stroke="black" points="420.5,-297 420.5,-316 551.5,-316 551.5,-297 420.5,-297"/>
<text text-anchor="middle" x="486" y="-304" font-family="Helvetica,sans-Serif" font-size="10.00">odp/api/spec/thrmask.h</text>
</a>
</g>
</g>
<!-- Node32&#45;&gt;Node34 -->
<g id="edge45" class="edge">
<title>Node32&#45;&gt;Node34</title>
<path fill="none" stroke="midnightblue" d="M486,-363.73C486,-354.18 486,-338.62 486,-326.28"/>
<polygon fill="midnightblue" stroke="midnightblue" points="489.5,-326.13 486,-316.13 482.5,-326.13 489.5,-326.13"/>
</g>
<!-- Node34&#45;&gt;Node4 -->
<g id="edge46" class="edge">
<title>Node34&#45;&gt;Node4</title>
<path fill="none" stroke="midnightblue" d="M460.45,-296.93C387.97,-272.1 183.61,-198.38 142,-143 126.86,-122.85 135.01,-112.13 133,-87 131.9,-73.27 124.11,-66.53 133,-56 157.29,-27.21 256.6,-16.84 326.22,-13.1"/>
<polygon fill="midnightblue" stroke="midnightblue" points="326.46,-16.6 336.27,-12.6 326.1,-9.6 326.46,-16.6"/>
</g>
<!-- Node34&#45;&gt;Node11 -->
<g id="edge48" class="edge">
<title>Node34&#45;&gt;Node11</title>
<path fill="none" stroke="midnightblue" d="M502.19,-296.86C520.8,-286.89 552.21,-269.96 579,-255 733.03,-168.98 916.37,-62.23 980.48,-24.76"/>
<polygon fill="midnightblue" stroke="midnightblue" points="982.52,-27.62 989.39,-19.55 978.99,-21.58 982.52,-27.62"/>
</g>
<!-- Node34&#45;&gt;Node19 -->
<g id="edge47" class="edge">
<title>Node34&#45;&gt;Node19</title>
<path fill="none" stroke="midnightblue" d="M490.01,-296.98C494.09,-288.32 500.52,-274.65 505.7,-263.65"/>
<polygon fill="midnightblue" stroke="midnightblue" points="508.9,-265.05 510,-254.51 502.57,-262.07 508.9,-265.05"/>
</g>
<!-- Node36 -->
<g id="node36" class="node">
<title>Node36</title>
<g id="a_node36"><a xlink:title=" ">
<polygon fill="white" stroke="#bfbfbf" points="834,-906.5 834,-925.5 970,-925.5 970,-906.5 834,-906.5"/>
<text text-anchor="middle" x="902" y="-913.5" font-family="Helvetica,sans-Serif" font-size="10.00">odp/api/abi/pool_types.h</text>
</a>
</g>
</g>
<!-- Node35&#45;&gt;Node36 -->
<g id="edge56" class="edge">
<title>Node35&#45;&gt;Node36</title>
<path fill="none" stroke="midnightblue" d="M902,-962.08C902,-955.01 902,-944.86 902,-935.99"/>
<polygon fill="midnightblue" stroke="midnightblue" points="905.5,-935.75 902,-925.75 898.5,-935.75 905.5,-935.75"/>
</g>
<!-- Node37 -->
<g id="node37" class="node">
<title>Node37</title>
<g id="a_node37"><a xlink:href="spec_2pool__types_8h.html" target="_top" xlink:title=" ">
<polygon fill="white" stroke="black" points="1008.5,-906.5 1008.5,-925.5 1151.5,-925.5 1151.5,-906.5 1008.5,-906.5"/>
<text text-anchor="middle" x="1080" y="-913.5" font-family="Helvetica,sans-Serif" font-size="10.00">odp/api/spec/pool_types.h</text>
</a>
</g>
</g>
<!-- Node35&#45;&gt;Node37 -->
<g id="edge57" class="edge">
<title>Node35&#45;&gt;Node37</title>
<path fill="none" stroke="midnightblue" d="M930.2,-962.44C960.41,-953.28 1008.51,-938.69 1042.03,-928.52"/>
<polygon fill="midnightblue" stroke="midnightblue" points="1043.37,-931.77 1051.93,-925.52 1041.34,-925.07 1043.37,-931.77"/>
</g>
<!-- Node37&#45;&gt;Node4 -->
<g id="edge58" class="edge">
<title>Node37&#45;&gt;Node4</title>
<path fill="none" stroke="midnightblue" d="M1085.28,-906.23C1095.73,-888.04 1118,-844.6 1118,-805 1118,-805 1118,-805 1118,-372.5 1118,-185.57 1019.4,-111.84 841,-56 773.22,-34.78 574.8,-20.88 467.63,-14.69"/>
<polygon fill="midnightblue" stroke="midnightblue" points="467.73,-11.19 457.55,-14.12 467.33,-18.18 467.73,-11.19"/>
</g>
<!-- Node37&#45;&gt;Node5 -->
<g id="edge60" class="edge">
<title>Node37&#45;&gt;Node5</title>
<path fill="none" stroke="midnightblue" d="M1035.79,-906.44C986.71,-896.94 907.49,-881.61 854.84,-871.42"/>
<polygon fill="midnightblue" stroke="midnightblue" points="855.48,-867.98 845,-869.52 854.15,-874.85 855.48,-867.98"/>
</g>
<!-- Node37&#45;&gt;Node11 -->
<g id="edge61" class="edge">
<title>Node37&#45;&gt;Node11</title>
<path fill="none" stroke="midnightblue" d="M1093.2,-906.46C1104.84,-898.33 1121.53,-885.12 1132,-870 1149.53,-844.68 1156,-835.8 1156,-805 1156,-805 1156,-805 1156,-132 1156,-74.18 1087.85,-39.54 1042.81,-22.96"/>
<polygon fill="midnightblue" stroke="midnightblue" points="1043.9,-19.64 1033.31,-19.6 1041.57,-26.24 1043.9,-19.64"/>
</g>
<!-- Node37&#45;&gt;Node19 -->
<g id="edge59" class="edge">
<title>Node37&#45;&gt;Node19</title>
<path fill="none" stroke="midnightblue" d="M1080,-906.44C1080,-887.94 1080,-842.81 1080,-805 1080,-805 1080,-805 1080,-747 1080,-599.39 642.93,-324.33 536.94,-259.8"/>
<polygon fill="midnightblue" stroke="midnightblue" points="538.64,-256.73 528.27,-254.54 535.01,-262.72 538.64,-256.73"/>
</g>
</g>
</svg>
