<?xml version="1.0" encoding="UTF-8" standalone="no"?>
<!DOCTYPE svg PUBLIC "-//W3C//DTD SVG 1.1//EN"
 "http://www.w3.org/Graphics/SVG/1.1/DTD/svg11.dtd">
<!-- Generated by graphviz version 2.43.0 (0)
 -->
<!-- Title: dma_types.h Pages: 1 -->
<svg width="1109pt" height="588pt"
 viewBox="0.00 0.00 1108.50 588.00" xmlns="http://www.w3.org/2000/svg" xmlns:xlink="http://www.w3.org/1999/xlink">
<g id="graph0" class="graph" transform="scale(1 1) rotate(0) translate(4 584)">
<title>dma_types.h</title>
<polygon fill="white" stroke="transparent" points="-4,4 -4,-584 1104.5,-584 1104.5,4 -4,4"/>
<!-- Node1 -->
<g id="node1" class="node">
<title>Node1</title>
<g id="a_node1"><a xlink:title=" ">
<polygon fill="#bfbfbf" stroke="black" points="421.5,-560.5 421.5,-579.5 501.5,-579.5 501.5,-560.5 421.5,-560.5"/>
<text text-anchor="middle" x="461.5" y="-567.5" font-family="Helvetica,sans-Serif" font-size="10.00">dma_types.h</text>
</a>
</g>
</g>
<!-- Node2 -->
<g id="node2" class="node">
<title>Node2</title>
<g id="a_node2"><a xlink:href="spec_2dma_8h.html" target="_top" xlink:title=" ">
<polygon fill="white" stroke="black" points="69,-392.5 69,-411.5 116,-411.5 116,-392.5 69,-392.5"/>
<text text-anchor="middle" x="92.5" y="-399.5" font-family="Helvetica,sans-Serif" font-size="10.00">dma.h</text>
</a>
</g>
</g>
<!-- Node1&#45;&gt;Node2 -->
<g id="edge1" class="edge">
<title>Node1&#45;&gt;Node2</title>
<path fill="none" stroke="midnightblue" d="M433.06,-556.21C360.96,-523.77 172.43,-438.96 111.67,-411.62"/>
<polygon fill="midnightblue" stroke="midnightblue" points="431.88,-559.51 442.44,-560.42 434.75,-553.13 431.88,-559.51"/>
</g>
<!-- Node4 -->
<g id="node4" class="node">
<title>Node4</title>
<g id="a_node4"><a xlink:href="spec_2pool__types_8h.html" target="_top" xlink:title=" ">
<polygon fill="white" stroke="black" points="422,-504.5 422,-523.5 501,-523.5 501,-504.5 422,-504.5"/>
<text text-anchor="middle" x="461.5" y="-511.5" font-family="Helvetica,sans-Serif" font-size="10.00">pool_types.h</text>
</a>
</g>
</g>
<!-- Node1&#45;&gt;Node4 -->
<g id="edge3" class="edge">
<title>Node1&#45;&gt;Node4</title>
<path fill="none" stroke="midnightblue" d="M461.5,-549.8C461.5,-540.91 461.5,-530.78 461.5,-523.75"/>
<polygon fill="midnightblue" stroke="midnightblue" points="458,-550.08 461.5,-560.08 465,-550.08 458,-550.08"/>
</g>
<!-- Node8 -->
<g id="node8" class="node">
<title>Node8</title>
<g id="a_node8"><a xlink:href="dma__inlines_8h_source.html" target="_top" xlink:title=" ">
<polygon fill="white" stroke="black" points="1003,-280.5 1003,-299.5 1088,-299.5 1088,-280.5 1003,-280.5"/>
<text text-anchor="middle" x="1045.5" y="-287.5" font-family="Helvetica,sans-Serif" font-size="10.00">dma_inlines.h</text>
</a>
</g>
</g>
<!-- Node1&#45;&gt;Node8 -->
<g id="edge47" class="edge">
<title>Node1&#45;&gt;Node8</title>
<path fill="none" stroke="midnightblue" d="M512.35,-565.61C663.64,-554.83 1100.5,-518.57 1100.5,-459 1100.5,-459 1100.5,-459 1100.5,-401 1100.5,-370.9 1095.39,-362.7 1081.5,-336 1074.21,-321.98 1062.2,-308.12 1054.08,-299.57"/>
<polygon fill="midnightblue" stroke="midnightblue" points="511.69,-562.14 501.96,-566.34 512.18,-569.13 511.69,-562.14"/>
</g>
<!-- Node3 -->
<g id="node3" class="node">
<title>Node3</title>
<g id="a_node3"><a xlink:href="dma_8h.html" target="_top" xlink:title=" ">
<polygon fill="white" stroke="black" points="0,-336.5 0,-355.5 47,-355.5 47,-336.5 0,-336.5"/>
<text text-anchor="middle" x="23.5" y="-343.5" font-family="Helvetica,sans-Serif" font-size="10.00">dma.h</text>
</a>
</g>
</g>
<!-- Node2&#45;&gt;Node3 -->
<g id="edge2" class="edge">
<title>Node2&#45;&gt;Node3</title>
<path fill="none" stroke="midnightblue" d="M73.46,-386.1C61.04,-376.38 45.26,-364.03 34.79,-355.83"/>
<polygon fill="midnightblue" stroke="midnightblue" points="71.38,-388.92 81.41,-392.32 75.7,-383.4 71.38,-388.92"/>
</g>
<!-- Node5 -->
<g id="node5" class="node">
<title>Node5</title>
<g id="a_node5"><a xlink:href="pool__types_8h.html" target="_top" xlink:title=" ">
<polygon fill="white" stroke="black" points="422,-448.5 422,-467.5 501,-467.5 501,-448.5 422,-448.5"/>
<text text-anchor="middle" x="461.5" y="-455.5" font-family="Helvetica,sans-Serif" font-size="10.00">pool_types.h</text>
</a>
</g>
</g>
<!-- Node4&#45;&gt;Node5 -->
<g id="edge4" class="edge">
<title>Node4&#45;&gt;Node5</title>
<path fill="none" stroke="midnightblue" d="M461.5,-493.8C461.5,-484.91 461.5,-474.78 461.5,-467.75"/>
<polygon fill="midnightblue" stroke="midnightblue" points="458,-494.08 461.5,-504.08 465,-494.08 458,-494.08"/>
</g>
<!-- Node5&#45;&gt;Node2 -->
<g id="edge24" class="edge">
<title>Node5&#45;&gt;Node2</title>
<path fill="none" stroke="midnightblue" d="M411.85,-451.78C346.89,-444.6 229.68,-430.44 130.5,-412 125.83,-411.13 120.88,-410.07 116.14,-408.98"/>
<polygon fill="midnightblue" stroke="midnightblue" points="411.49,-455.26 421.81,-452.87 412.25,-448.3 411.49,-455.26"/>
</g>
<!-- Node6 -->
<g id="node6" class="node">
<title>Node6</title>
<g id="a_node6"><a xlink:href="spec_2buffer_8h.html" target="_top" xlink:title=" ">
<polygon fill="white" stroke="black" points="1019,-392.5 1019,-411.5 1072,-411.5 1072,-392.5 1019,-392.5"/>
<text text-anchor="middle" x="1045.5" y="-399.5" font-family="Helvetica,sans-Serif" font-size="10.00">buffer.h</text>
</a>
</g>
</g>
<!-- Node5&#45;&gt;Node6 -->
<g id="edge5" class="edge">
<title>Node5&#45;&gt;Node6</title>
<path fill="none" stroke="midnightblue" d="M511.51,-455.09C607.53,-450.92 824.18,-439.14 1004.5,-412 1009.11,-411.31 1013.98,-410.4 1018.69,-409.42"/>
<polygon fill="midnightblue" stroke="midnightblue" points="511.07,-451.6 501.23,-455.52 511.37,-458.6 511.07,-451.6"/>
</g>
<!-- Node5&#45;&gt;Node8 -->
<g id="edge43" class="edge">
<title>Node5&#45;&gt;Node8</title>
<path fill="none" stroke="midnightblue" d="M511.33,-455.32C632.21,-450.86 933.88,-437.32 971.5,-412 1003,-390.8 990.09,-368.01 1010.5,-336 1019.01,-322.65 1030.56,-308.41 1038.02,-299.61"/>
<polygon fill="midnightblue" stroke="midnightblue" points="511.1,-451.83 501.23,-455.69 511.35,-458.82 511.1,-451.83"/>
</g>
<!-- Node9 -->
<g id="node9" class="node">
<title>Node9</title>
<g id="a_node9"><a xlink:href="spec_2classification_8h.html" target="_top" xlink:title=" ">
<polygon fill="white" stroke="black" points="450,-280.5 450,-299.5 539,-299.5 539,-280.5 450,-280.5"/>
<text text-anchor="middle" x="494.5" y="-287.5" font-family="Helvetica,sans-Serif" font-size="10.00">classification.h</text>
</a>
</g>
</g>
<!-- Node5&#45;&gt;Node9 -->
<g id="edge8" class="edge">
<title>Node5&#45;&gt;Node9</title>
<path fill="none" stroke="midnightblue" d="M412.3,-447.01C393.06,-440.44 372.91,-429.64 361.5,-412 343.16,-383.64 341.81,-363.45 361.5,-336 372.4,-320.8 418.05,-307.65 452.85,-299.55"/>
<polygon fill="midnightblue" stroke="midnightblue" points="411.34,-450.38 421.93,-449.99 413.41,-443.69 411.34,-450.38"/>
</g>
<!-- Node18 -->
<g id="node18" class="node">
<title>Node18</title>
<g id="a_node18"><a xlink:href="spec_2crypto__types_8h.html" target="_top" xlink:title=" ">
<polygon fill="white" stroke="black" points="65,-336.5 65,-355.5 154,-355.5 154,-336.5 65,-336.5"/>
<text text-anchor="middle" x="109.5" y="-343.5" font-family="Helvetica,sans-Serif" font-size="10.00">crypto_types.h</text>
</a>
</g>
</g>
<!-- Node5&#45;&gt;Node18 -->
<g id="edge17" class="edge">
<title>Node5&#45;&gt;Node18</title>
<path fill="none" stroke="midnightblue" d="M411.75,-453.39C339.48,-447.46 209.6,-434.09 168.5,-412 143.53,-398.58 123.7,-370.35 114.72,-355.91"/>
<polygon fill="midnightblue" stroke="midnightblue" points="411.73,-456.89 421.98,-454.21 412.29,-449.92 411.73,-456.89"/>
</g>
<!-- Node23 -->
<g id="node23" class="node">
<title>Node23</title>
<g id="a_node23"><a xlink:href="spec_2packet_8h.html" target="_top" xlink:title=" ">
<polygon fill="white" stroke="black" points="141.5,-280.5 141.5,-299.5 199.5,-299.5 199.5,-280.5 141.5,-280.5"/>
<text text-anchor="middle" x="170.5" y="-287.5" font-family="Helvetica,sans-Serif" font-size="10.00">packet.h</text>
</a>
</g>
</g>
<!-- Node5&#45;&gt;Node23 -->
<g id="edge25" class="edge">
<title>Node5&#45;&gt;Node23</title>
<path fill="none" stroke="midnightblue" d="M411.58,-454.68C344.82,-450.55 231.37,-439.58 201.5,-412 168.68,-381.69 168.61,-321.81 169.83,-299.58"/>
<polygon fill="midnightblue" stroke="midnightblue" points="411.69,-458.19 421.87,-455.29 412.1,-451.21 411.69,-458.19"/>
</g>
<!-- Node25 -->
<g id="node25" class="node">
<title>Node25</title>
<g id="a_node25"><a xlink:href="spec_2packet__io__types_8h.html" target="_top" xlink:title=" ">
<polygon fill="white" stroke="black" points="210.5,-392.5 210.5,-411.5 314.5,-411.5 314.5,-392.5 210.5,-392.5"/>
<text text-anchor="middle" x="262.5" y="-399.5" font-family="Helvetica,sans-Serif" font-size="10.00">packet_io_types.h</text>
</a>
</g>
</g>
<!-- Node5&#45;&gt;Node25 -->
<g id="edge29" class="edge">
<title>Node5&#45;&gt;Node25</title>
<path fill="none" stroke="midnightblue" d="M419.85,-445.7C382.29,-435.51 327.89,-420.74 293.88,-411.52"/>
<polygon fill="midnightblue" stroke="midnightblue" points="419.4,-449.2 429.97,-448.44 421.23,-442.45 419.4,-449.2"/>
</g>
<!-- Node29 -->
<g id="node29" class="node">
<title>Node29</title>
<g id="a_node29"><a xlink:href="spec_2pool_8h.html" target="_top" xlink:title=" ">
<polygon fill="white" stroke="black" points="371,-392.5 371,-411.5 418,-411.5 418,-392.5 371,-392.5"/>
<text text-anchor="middle" x="394.5" y="-399.5" font-family="Helvetica,sans-Serif" font-size="10.00">pool.h</text>
</a>
</g>
</g>
<!-- Node5&#45;&gt;Node29 -->
<g id="edge38" class="edge">
<title>Node5&#45;&gt;Node29</title>
<path fill="none" stroke="midnightblue" d="M442.67,-441.82C430.66,-432.15 415.53,-419.95 405.46,-411.83"/>
<polygon fill="midnightblue" stroke="midnightblue" points="440.75,-444.77 450.74,-448.32 445.15,-439.32 440.75,-444.77"/>
</g>
<!-- Node31 -->
<g id="node31" class="node">
<title>Node31</title>
<g id="a_node31"><a xlink:href="spec_2timer_8h.html" target="_top" xlink:title=" ">
<polygon fill="white" stroke="black" points="436,-392.5 436,-411.5 487,-411.5 487,-392.5 436,-392.5"/>
<text text-anchor="middle" x="461.5" y="-399.5" font-family="Helvetica,sans-Serif" font-size="10.00">timer.h</text>
</a>
</g>
</g>
<!-- Node5&#45;&gt;Node31 -->
<g id="edge40" class="edge">
<title>Node5&#45;&gt;Node31</title>
<path fill="none" stroke="midnightblue" d="M461.5,-437.8C461.5,-428.91 461.5,-418.78 461.5,-411.75"/>
<polygon fill="midnightblue" stroke="midnightblue" points="458,-438.08 461.5,-448.08 465,-438.08 458,-438.08"/>
</g>
<!-- Node33 -->
<g id="node33" class="node">
<title>Node33</title>
<g id="a_node33"><a xlink:href="buffer__inlines_8h_source.html" target="_top" xlink:title=" ">
<polygon fill="white" stroke="black" points="505.5,-392.5 505.5,-411.5 597.5,-411.5 597.5,-392.5 505.5,-392.5"/>
<text text-anchor="middle" x="551.5" y="-399.5" font-family="Helvetica,sans-Serif" font-size="10.00">buffer_inlines.h</text>
</a>
</g>
</g>
<!-- Node5&#45;&gt;Node33 -->
<g id="edge42" class="edge">
<title>Node5&#45;&gt;Node33</title>
<path fill="none" stroke="midnightblue" d="M484.54,-443.18C501.1,-433.24 522.92,-420.15 537.08,-411.65"/>
<polygon fill="midnightblue" stroke="midnightblue" points="482.73,-440.18 475.96,-448.32 486.34,-446.18 482.73,-440.18"/>
</g>
<!-- Node34 -->
<g id="node34" class="node">
<title>Node34</title>
<g id="a_node34"><a xlink:href="packet__inlines_8h.html" target="_top" xlink:title=" ">
<polygon fill="white" stroke="black" points="616,-392.5 616,-411.5 711,-411.5 711,-392.5 616,-392.5"/>
<text text-anchor="middle" x="663.5" y="-399.5" font-family="Helvetica,sans-Serif" font-size="10.00">packet_inlines.h</text>
</a>
</g>
</g>
<!-- Node5&#45;&gt;Node34 -->
<g id="edge44" class="edge">
<title>Node5&#45;&gt;Node34</title>
<path fill="none" stroke="midnightblue" d="M503.29,-445.83C541.43,-435.63 596.98,-420.78 631.64,-411.52"/>
<polygon fill="midnightblue" stroke="midnightblue" points="502.26,-442.48 493.51,-448.44 504.07,-449.24 502.26,-442.48"/>
</g>
<!-- Node35 -->
<g id="node35" class="node">
<title>Node35</title>
<g id="a_node35"><a xlink:href="packet__vector__inlines_8h.html" target="_top" xlink:title=" ">
<polygon fill="white" stroke="black" points="729,-392.5 729,-411.5 860,-411.5 860,-392.5 729,-392.5"/>
<text text-anchor="middle" x="794.5" y="-399.5" font-family="Helvetica,sans-Serif" font-size="10.00">packet_vector_inlines.h</text>
</a>
</g>
</g>
<!-- Node5&#45;&gt;Node35 -->
<g id="edge45" class="edge">
<title>Node5&#45;&gt;Node35</title>
<path fill="none" stroke="midnightblue" d="M510.93,-448.98C572.86,-438.94 678.53,-421.81 741.91,-411.53"/>
<polygon fill="midnightblue" stroke="midnightblue" points="510.32,-445.54 501.01,-450.59 511.44,-452.45 510.32,-445.54"/>
</g>
<!-- Node36 -->
<g id="node36" class="node">
<title>Node36</title>
<g id="a_node36"><a xlink:href="pool__inlines_8h_source.html" target="_top" xlink:title=" ">
<polygon fill="white" stroke="black" points="878.5,-392.5 878.5,-411.5 962.5,-411.5 962.5,-392.5 878.5,-392.5"/>
<text text-anchor="middle" x="920.5" y="-399.5" font-family="Helvetica,sans-Serif" font-size="10.00">pool_inlines.h</text>
</a>
</g>
</g>
<!-- Node5&#45;&gt;Node36 -->
<g id="edge46" class="edge">
<title>Node5&#45;&gt;Node36</title>
<path fill="none" stroke="midnightblue" d="M511.65,-452.52C588.76,-445.41 740.98,-430.41 869.5,-412 872.35,-411.59 875.28,-411.15 878.23,-410.68"/>
<polygon fill="midnightblue" stroke="midnightblue" points="510.92,-449.08 501.28,-453.48 511.56,-456.05 510.92,-449.08"/>
</g>
<!-- Node7 -->
<g id="node7" class="node">
<title>Node7</title>
<g id="a_node7"><a xlink:href="buffer_8h.html" target="_top" xlink:title=" ">
<polygon fill="white" stroke="black" points="1019,-336.5 1019,-355.5 1072,-355.5 1072,-336.5 1019,-336.5"/>
<text text-anchor="middle" x="1045.5" y="-343.5" font-family="Helvetica,sans-Serif" font-size="10.00">buffer.h</text>
</a>
</g>
</g>
<!-- Node6&#45;&gt;Node7 -->
<g id="edge6" class="edge">
<title>Node6&#45;&gt;Node7</title>
<path fill="none" stroke="midnightblue" d="M1045.5,-381.8C1045.5,-372.91 1045.5,-362.78 1045.5,-355.75"/>
<polygon fill="midnightblue" stroke="midnightblue" points="1042,-382.08 1045.5,-392.08 1049,-382.08 1042,-382.08"/>
</g>
<!-- Node7&#45;&gt;Node8 -->
<g id="edge7" class="edge">
<title>Node7&#45;&gt;Node8</title>
<path fill="none" stroke="midnightblue" d="M1045.5,-325.8C1045.5,-316.91 1045.5,-306.78 1045.5,-299.75"/>
<polygon fill="midnightblue" stroke="midnightblue" points="1042,-326.08 1045.5,-336.08 1049,-326.08 1042,-326.08"/>
</g>
<!-- Node10 -->
<g id="node10" class="node">
<title>Node10</title>
<g id="a_node10"><a xlink:href="classification_8h.html" target="_top" xlink:title=" ">
<polygon fill="white" stroke="black" points="358,-224.5 358,-243.5 447,-243.5 447,-224.5 358,-224.5"/>
<text text-anchor="middle" x="402.5" y="-231.5" font-family="Helvetica,sans-Serif" font-size="10.00">classification.h</text>
</a>
</g>
</g>
<!-- Node9&#45;&gt;Node10 -->
<g id="edge9" class="edge">
<title>Node9&#45;&gt;Node10</title>
<path fill="none" stroke="midnightblue" d="M470.95,-275.18C454.02,-265.24 431.72,-252.15 417.24,-243.65"/>
<polygon fill="midnightblue" stroke="midnightblue" points="469.32,-278.28 479.72,-280.32 472.87,-272.24 469.32,-278.28"/>
</g>
<!-- Node11 -->
<g id="node11" class="node">
<title>Node11</title>
<g id="a_node11"><a xlink:href="spec_2ipsec__types_8h.html" target="_top" xlink:title=" ">
<polygon fill="white" stroke="black" points="274,-168.5 274,-187.5 357,-187.5 357,-168.5 274,-168.5"/>
<text text-anchor="middle" x="315.5" y="-175.5" font-family="Helvetica,sans-Serif" font-size="10.00">ipsec_types.h</text>
</a>
</g>
</g>
<!-- Node10&#45;&gt;Node11 -->
<g id="edge10" class="edge">
<title>Node10&#45;&gt;Node11</title>
<path fill="none" stroke="midnightblue" d="M379.78,-218.9C363.83,-209 343,-196.07 329.44,-187.65"/>
<polygon fill="midnightblue" stroke="midnightblue" points="378.18,-222.02 388.52,-224.32 381.87,-216.08 378.18,-222.02"/>
</g>
<!-- Node16 -->
<g id="node16" class="node">
<title>Node16</title>
<g id="a_node16"><a xlink:href="spec_2packet__io_8h.html" target="_top" xlink:title=" ">
<polygon fill="white" stroke="black" points="407.5,-168.5 407.5,-187.5 479.5,-187.5 479.5,-168.5 407.5,-168.5"/>
<text text-anchor="middle" x="443.5" y="-175.5" font-family="Helvetica,sans-Serif" font-size="10.00">packet_io.h</text>
</a>
</g>
</g>
<!-- Node10&#45;&gt;Node16 -->
<g id="edge15" class="edge">
<title>Node10&#45;&gt;Node16</title>
<path fill="none" stroke="midnightblue" d="M415.52,-215.86C422.62,-206.5 431.1,-195.33 436.86,-187.75"/>
<polygon fill="midnightblue" stroke="midnightblue" points="412.53,-214 409.27,-224.08 418.11,-218.24 412.53,-214"/>
</g>
<!-- Node12 -->
<g id="node12" class="node">
<title>Node12</title>
<g id="a_node12"><a xlink:href="ipsec__types_8h.html" target="_top" xlink:title=" ">
<polygon fill="white" stroke="black" points="134,-112.5 134,-131.5 217,-131.5 217,-112.5 134,-112.5"/>
<text text-anchor="middle" x="175.5" y="-119.5" font-family="Helvetica,sans-Serif" font-size="10.00">ipsec_types.h</text>
</a>
</g>
</g>
<!-- Node11&#45;&gt;Node12 -->
<g id="edge11" class="edge">
<title>Node11&#45;&gt;Node12</title>
<path fill="none" stroke="midnightblue" d="M283.8,-164.77C257.5,-154.63 220.78,-140.47 197.58,-131.52"/>
<polygon fill="midnightblue" stroke="midnightblue" points="282.73,-168.11 293.32,-168.44 285.25,-161.58 282.73,-168.11"/>
</g>
<!-- Node13 -->
<g id="node13" class="node">
<title>Node13</title>
<g id="a_node13"><a xlink:href="spec_2ipsec_8h.html" target="_top" xlink:title=" ">
<polygon fill="white" stroke="black" points="64,-56.5 64,-75.5 115,-75.5 115,-56.5 64,-56.5"/>
<text text-anchor="middle" x="89.5" y="-63.5" font-family="Helvetica,sans-Serif" font-size="10.00">ipsec.h</text>
</a>
</g>
</g>
<!-- Node12&#45;&gt;Node13 -->
<g id="edge12" class="edge">
<title>Node12&#45;&gt;Node13</title>
<path fill="none" stroke="midnightblue" d="M153.05,-106.9C137.28,-97 116.69,-84.07 103.28,-75.65"/>
<polygon fill="midnightblue" stroke="midnightblue" points="151.35,-109.97 161.68,-112.32 155.07,-104.04 151.35,-109.97"/>
</g>
<!-- Node15 -->
<g id="node15" class="node">
<title>Node15</title>
<g id="a_node15"><a xlink:href="ipsec__inlines_8h_source.html" target="_top" xlink:title=" ">
<polygon fill="white" stroke="black" points="166,-56.5 166,-75.5 255,-75.5 255,-56.5 166,-56.5"/>
<text text-anchor="middle" x="210.5" y="-63.5" font-family="Helvetica,sans-Serif" font-size="10.00">ipsec_inlines.h</text>
</a>
</g>
</g>
<!-- Node12&#45;&gt;Node15 -->
<g id="edge14" class="edge">
<title>Node12&#45;&gt;Node15</title>
<path fill="none" stroke="midnightblue" d="M186.8,-103.57C192.82,-94.27 199.97,-83.25 204.83,-75.75"/>
<polygon fill="midnightblue" stroke="midnightblue" points="183.78,-101.79 181.28,-112.08 189.66,-105.6 183.78,-101.79"/>
</g>
<!-- Node14 -->
<g id="node14" class="node">
<title>Node14</title>
<g id="a_node14"><a xlink:href="ipsec_8h.html" target="_top" xlink:title=" ">
<polygon fill="white" stroke="black" points="64,-0.5 64,-19.5 115,-19.5 115,-0.5 64,-0.5"/>
<text text-anchor="middle" x="89.5" y="-7.5" font-family="Helvetica,sans-Serif" font-size="10.00">ipsec.h</text>
</a>
</g>
</g>
<!-- Node13&#45;&gt;Node14 -->
<g id="edge13" class="edge">
<title>Node13&#45;&gt;Node14</title>
<path fill="none" stroke="midnightblue" d="M89.5,-45.8C89.5,-36.91 89.5,-26.78 89.5,-19.75"/>
<polygon fill="midnightblue" stroke="midnightblue" points="86,-46.08 89.5,-56.08 93,-46.08 86,-46.08"/>
</g>
<!-- Node17 -->
<g id="node17" class="node">
<title>Node17</title>
<g id="a_node17"><a xlink:href="packet__io_8h.html" target="_top" xlink:title=" ">
<polygon fill="white" stroke="black" points="407.5,-112.5 407.5,-131.5 479.5,-131.5 479.5,-112.5 407.5,-112.5"/>
<text text-anchor="middle" x="443.5" y="-119.5" font-family="Helvetica,sans-Serif" font-size="10.00">packet_io.h</text>
</a>
</g>
</g>
<!-- Node16&#45;&gt;Node17 -->
<g id="edge16" class="edge">
<title>Node16&#45;&gt;Node17</title>
<path fill="none" stroke="midnightblue" d="M443.5,-157.8C443.5,-148.91 443.5,-138.78 443.5,-131.75"/>
<polygon fill="midnightblue" stroke="midnightblue" points="440,-158.08 443.5,-168.08 447,-158.08 440,-158.08"/>
</g>
<!-- Node19 -->
<g id="node19" class="node">
<title>Node19</title>
<g id="a_node19"><a xlink:href="crypto__types_8h.html" target="_top" xlink:title=" ">
<polygon fill="white" stroke="black" points="35,-224.5 35,-243.5 124,-243.5 124,-224.5 35,-224.5"/>
<text text-anchor="middle" x="79.5" y="-231.5" font-family="Helvetica,sans-Serif" font-size="10.00">crypto_types.h</text>
</a>
</g>
</g>
<!-- Node18&#45;&gt;Node19 -->
<g id="edge18" class="edge">
<title>Node18&#45;&gt;Node19</title>
<path fill="none" stroke="midnightblue" d="M104.5,-326.67C97.94,-302.62 86.7,-261.39 81.84,-243.59"/>
<polygon fill="midnightblue" stroke="midnightblue" points="101.14,-327.64 107.15,-336.37 107.89,-325.8 101.14,-327.64"/>
</g>
<!-- Node19&#45;&gt;Node11 -->
<g id="edge22" class="edge">
<title>Node19&#45;&gt;Node11</title>
<path fill="none" stroke="midnightblue" d="M126.91,-222.15C171.5,-211.95 237.35,-196.88 278.28,-187.52"/>
<polygon fill="midnightblue" stroke="midnightblue" points="125.86,-218.8 116.89,-224.44 127.42,-225.62 125.86,-218.8"/>
</g>
<!-- Node19&#45;&gt;Node13 -->
<g id="edge21" class="edge">
<title>Node19&#45;&gt;Node13</title>
<path fill="none" stroke="midnightblue" d="M60.92,-217.32C53.02,-209.44 44.67,-199.19 40.5,-188 28.69,-156.35 26.91,-142.92 40.5,-112 47.47,-96.14 63.09,-83.42 74.84,-75.6"/>
<polygon fill="midnightblue" stroke="midnightblue" points="58.8,-220.13 68.51,-224.37 63.56,-215 58.8,-220.13"/>
</g>
<!-- Node20 -->
<g id="node20" class="node">
<title>Node20</title>
<g id="a_node20"><a xlink:href="spec_2crypto_8h.html" target="_top" xlink:title=" ">
<polygon fill="white" stroke="black" points="49.5,-168.5 49.5,-187.5 105.5,-187.5 105.5,-168.5 49.5,-168.5"/>
<text text-anchor="middle" x="77.5" y="-175.5" font-family="Helvetica,sans-Serif" font-size="10.00">crypto.h</text>
</a>
</g>
</g>
<!-- Node19&#45;&gt;Node20 -->
<g id="edge19" class="edge">
<title>Node19&#45;&gt;Node20</title>
<path fill="none" stroke="midnightblue" d="M78.79,-213.8C78.46,-204.91 78.08,-194.78 77.82,-187.75"/>
<polygon fill="midnightblue" stroke="midnightblue" points="75.3,-214.22 79.17,-224.08 82.3,-213.96 75.3,-214.22"/>
</g>
<!-- Node22 -->
<g id="node22" class="node">
<title>Node22</title>
<g id="a_node22"><a xlink:href="crypto__inlines_8h_source.html" target="_top" xlink:title=" ">
<polygon fill="white" stroke="black" points="123.5,-168.5 123.5,-187.5 217.5,-187.5 217.5,-168.5 123.5,-168.5"/>
<text text-anchor="middle" x="170.5" y="-175.5" font-family="Helvetica,sans-Serif" font-size="10.00">crypto_inlines.h</text>
</a>
</g>
</g>
<!-- Node19&#45;&gt;Node22 -->
<g id="edge23" class="edge">
<title>Node19&#45;&gt;Node22</title>
<path fill="none" stroke="midnightblue" d="M102.79,-219.18C119.54,-209.24 141.6,-196.15 155.92,-187.65"/>
<polygon fill="midnightblue" stroke="midnightblue" points="100.93,-216.21 94.12,-224.32 104.51,-222.23 100.93,-216.21"/>
</g>
<!-- Node21 -->
<g id="node21" class="node">
<title>Node21</title>
<g id="a_node21"><a xlink:href="crypto_8h.html" target="_top" xlink:title=" ">
<polygon fill="white" stroke="black" points="49.5,-112.5 49.5,-131.5 105.5,-131.5 105.5,-112.5 49.5,-112.5"/>
<text text-anchor="middle" x="77.5" y="-119.5" font-family="Helvetica,sans-Serif" font-size="10.00">crypto.h</text>
</a>
</g>
</g>
<!-- Node20&#45;&gt;Node21 -->
<g id="edge20" class="edge">
<title>Node20&#45;&gt;Node21</title>
<path fill="none" stroke="midnightblue" d="M77.5,-157.8C77.5,-148.91 77.5,-138.78 77.5,-131.75"/>
<polygon fill="midnightblue" stroke="midnightblue" points="74,-158.08 77.5,-168.08 81,-158.08 74,-158.08"/>
</g>
<!-- Node24 -->
<g id="node24" class="node">
<title>Node24</title>
<g id="a_node24"><a xlink:href="packet_8h.html" target="_top" xlink:title=" ">
<polygon fill="white" stroke="black" points="141.5,-224.5 141.5,-243.5 199.5,-243.5 199.5,-224.5 141.5,-224.5"/>
<text text-anchor="middle" x="170.5" y="-231.5" font-family="Helvetica,sans-Serif" font-size="10.00">packet.h</text>
</a>
</g>
</g>
<!-- Node23&#45;&gt;Node24 -->
<g id="edge26" class="edge">
<title>Node23&#45;&gt;Node24</title>
<path fill="none" stroke="midnightblue" d="M170.5,-269.8C170.5,-260.91 170.5,-250.78 170.5,-243.75"/>
<polygon fill="midnightblue" stroke="midnightblue" points="167,-270.08 170.5,-280.08 174,-270.08 167,-270.08"/>
</g>
<!-- Node24&#45;&gt;Node15 -->
<g id="edge28" class="edge">
<title>Node24&#45;&gt;Node15</title>
<path fill="none" stroke="midnightblue" d="M196.82,-219.05C208.16,-211.51 220.25,-201.05 226.5,-188 245,-149.4 224.34,-96.38 214.8,-75.73"/>
<polygon fill="midnightblue" stroke="midnightblue" points="194.69,-216.25 188,-224.46 198.35,-222.21 194.69,-216.25"/>
</g>
<!-- Node24&#45;&gt;Node22 -->
<g id="edge27" class="edge">
<title>Node24&#45;&gt;Node22</title>
<path fill="none" stroke="midnightblue" d="M170.5,-213.8C170.5,-204.91 170.5,-194.78 170.5,-187.75"/>
<polygon fill="midnightblue" stroke="midnightblue" points="167,-214.08 170.5,-224.08 174,-214.08 167,-214.08"/>
</g>
<!-- Node26 -->
<g id="node26" class="node">
<title>Node26</title>
<g id="a_node26"><a xlink:href="packet__io__types_8h.html" target="_top" xlink:title=" ">
<polygon fill="white" stroke="black" points="210.5,-336.5 210.5,-355.5 314.5,-355.5 314.5,-336.5 210.5,-336.5"/>
<text text-anchor="middle" x="262.5" y="-343.5" font-family="Helvetica,sans-Serif" font-size="10.00">packet_io_types.h</text>
</a>
</g>
</g>
<!-- Node25&#45;&gt;Node26 -->
<g id="edge30" class="edge">
<title>Node25&#45;&gt;Node26</title>
<path fill="none" stroke="midnightblue" d="M262.5,-381.8C262.5,-372.91 262.5,-362.78 262.5,-355.75"/>
<polygon fill="midnightblue" stroke="midnightblue" points="259,-382.08 262.5,-392.08 266,-382.08 259,-382.08"/>
</g>
<!-- Node26&#45;&gt;Node9 -->
<g id="edge31" class="edge">
<title>Node26&#45;&gt;Node9</title>
<path fill="none" stroke="midnightblue" d="M309.1,-334.15C352.94,-323.95 417.68,-308.88 457.91,-299.52"/>
<polygon fill="midnightblue" stroke="midnightblue" points="308.21,-330.77 299.26,-336.44 309.79,-337.59 308.21,-330.77"/>
</g>
<!-- Node26&#45;&gt;Node11 -->
<g id="edge32" class="edge">
<title>Node26&#45;&gt;Node11</title>
<path fill="none" stroke="midnightblue" d="M284.91,-330.16C294.61,-322.42 304.98,-312.05 310.5,-300 328.18,-261.39 321.07,-208.37 317.29,-187.73"/>
<polygon fill="midnightblue" stroke="midnightblue" points="282.64,-327.48 276.7,-336.26 286.82,-333.1 282.64,-327.48"/>
</g>
<!-- Node26&#45;&gt;Node16 -->
<g id="edge34" class="edge">
<title>Node26&#45;&gt;Node16</title>
<path fill="none" stroke="midnightblue" d="M314.23,-333.8C360.31,-320.79 425.03,-294.33 455.5,-244 466.32,-226.13 455.69,-200.82 448.64,-187.68"/>
<polygon fill="midnightblue" stroke="midnightblue" points="313.15,-330.47 304.4,-336.46 314.97,-337.23 313.15,-330.47"/>
</g>
<!-- Node26&#45;&gt;Node23 -->
<g id="edge33" class="edge">
<title>Node26&#45;&gt;Node23</title>
<path fill="none" stroke="midnightblue" d="M238.95,-331.18C222.02,-321.24 199.72,-308.15 185.24,-299.65"/>
<polygon fill="midnightblue" stroke="midnightblue" points="237.32,-334.28 247.72,-336.32 240.87,-328.24 237.32,-334.28"/>
</g>
<!-- Node27 -->
<g id="node27" class="node">
<title>Node27</title>
<g id="a_node27"><a xlink:href="spec_2traffic__mngr_8h.html" target="_top" xlink:title=" ">
<polygon fill="white" stroke="black" points="217.5,-280.5 217.5,-299.5 301.5,-299.5 301.5,-280.5 217.5,-280.5"/>
<text text-anchor="middle" x="259.5" y="-287.5" font-family="Helvetica,sans-Serif" font-size="10.00">traffic_mngr.h</text>
</a>
</g>
</g>
<!-- Node26&#45;&gt;Node27 -->
<g id="edge35" class="edge">
<title>Node26&#45;&gt;Node27</title>
<path fill="none" stroke="midnightblue" d="M261.43,-325.8C260.94,-316.91 260.38,-306.78 259.99,-299.75"/>
<polygon fill="midnightblue" stroke="midnightblue" points="257.96,-326.29 262,-336.08 264.94,-325.9 257.96,-326.29"/>
</g>
<!-- Node28 -->
<g id="node28" class="node">
<title>Node28</title>
<g id="a_node28"><a xlink:href="traffic__mngr_8h.html" target="_top" xlink:title=" ">
<polygon fill="white" stroke="black" points="217.5,-224.5 217.5,-243.5 301.5,-243.5 301.5,-224.5 217.5,-224.5"/>
<text text-anchor="middle" x="259.5" y="-231.5" font-family="Helvetica,sans-Serif" font-size="10.00">traffic_mngr.h</text>
</a>
</g>
</g>
<!-- Node27&#45;&gt;Node28 -->
<g id="edge36" class="edge">
<title>Node27&#45;&gt;Node28</title>
<path fill="none" stroke="midnightblue" d="M259.5,-269.8C259.5,-260.91 259.5,-250.78 259.5,-243.75"/>
<polygon fill="midnightblue" stroke="midnightblue" points="256,-270.08 259.5,-280.08 263,-270.08 256,-270.08"/>
</g>
<!-- Node28&#45;&gt;Node11 -->
<g id="edge37" class="edge">
<title>Node28&#45;&gt;Node11</title>
<path fill="none" stroke="midnightblue" d="M275.83,-217.25C285.76,-207.67 298.09,-195.79 306.34,-187.83"/>
<polygon fill="midnightblue" stroke="midnightblue" points="273.27,-214.86 268.5,-224.32 278.13,-219.9 273.27,-214.86"/>
</g>
<!-- Node30 -->
<g id="node30" class="node">
<title>Node30</title>
<g id="a_node30"><a xlink:href="pool_8h.html" target="_top" xlink:title=" ">
<polygon fill="white" stroke="black" points="371,-336.5 371,-355.5 418,-355.5 418,-336.5 371,-336.5"/>
<text text-anchor="middle" x="394.5" y="-343.5" font-family="Helvetica,sans-Serif" font-size="10.00">pool.h</text>
</a>
</g>
</g>
<!-- Node29&#45;&gt;Node30 -->
<g id="edge39" class="edge">
<title>Node29&#45;&gt;Node30</title>
<path fill="none" stroke="midnightblue" d="M394.5,-381.8C394.5,-372.91 394.5,-362.78 394.5,-355.75"/>
<polygon fill="midnightblue" stroke="midnightblue" points="391,-382.08 394.5,-392.08 398,-382.08 391,-382.08"/>
</g>
<!-- Node32 -->
<g id="node32" class="node">
<title>Node32</title>
<g id="a_node32"><a xlink:href="timer_8h.html" target="_top" xlink:title=" ">
<polygon fill="white" stroke="black" points="436,-336.5 436,-355.5 487,-355.5 487,-336.5 436,-336.5"/>
<text text-anchor="middle" x="461.5" y="-343.5" font-family="Helvetica,sans-Serif" font-size="10.00">timer.h</text>
</a>
</g>
</g>
<!-- Node31&#45;&gt;Node32 -->
<g id="edge41" class="edge">
<title>Node31&#45;&gt;Node32</title>
<path fill="none" stroke="midnightblue" d="M461.5,-381.8C461.5,-372.91 461.5,-362.78 461.5,-355.75"/>
<polygon fill="midnightblue" stroke="midnightblue" points="458,-382.08 461.5,-392.08 465,-382.08 458,-382.08"/>
</g>
</g>
</svg>
