<?xml version="1.0" encoding="UTF-8" standalone="no"?>
<!DOCTYPE svg PUBLIC "-//W3C//DTD SVG 1.1//EN"
 "http://www.w3.org/Graphics/SVG/1.1/DTD/svg11.dtd">
<!-- Generated by graphviz version 2.43.0 (0)
 -->
<!-- Title: event_types.h Pages: 1 -->
<svg width="2001pt" height="532pt"
 viewBox="0.00 0.00 2000.50 532.00" xmlns="http://www.w3.org/2000/svg" xmlns:xlink="http://www.w3.org/1999/xlink">
<g id="graph0" class="graph" transform="scale(1 1) rotate(0) translate(4 528)">
<title>event_types.h</title>
<polygon fill="white" stroke="transparent" points="-4,4 -4,-528 1996.5,-528 1996.5,4 -4,4"/>
<!-- Node1 -->
<g id="node1" class="node">
<title>Node1</title>
<g id="a_node1"><a xlink:title=" ">
<polygon fill="#bfbfbf" stroke="black" points="1234,-504.5 1234,-523.5 1320,-523.5 1320,-504.5 1234,-504.5"/>
<text text-anchor="middle" x="1277" y="-511.5" font-family="Helvetica,sans-Serif" font-size="10.00">event_types.h</text>
</a>
</g>
</g>
<!-- Node2 -->
<g id="node2" class="node">
<title>Node2</title>
<g id="a_node2"><a xlink:href="spec_2buffer_8h.html" target="_top" xlink:title=" ">
<polygon fill="white" stroke="black" points="66.5,-224.5 66.5,-243.5 119.5,-243.5 119.5,-224.5 66.5,-224.5"/>
<text text-anchor="middle" x="93" y="-231.5" font-family="Helvetica,sans-Serif" font-size="10.00">buffer.h</text>
</a>
</g>
</g>
<!-- Node1&#45;&gt;Node2 -->
<g id="edge1" class="edge">
<title>Node1&#45;&gt;Node2</title>
<path fill="none" stroke="midnightblue" d="M1223.66,-510.95C990.93,-501.67 76,-461.48 76,-403 76,-403 76,-403 76,-345 76,-306.93 86.07,-262.31 90.71,-243.77"/>
<polygon fill="midnightblue" stroke="midnightblue" points="1223.77,-514.46 1233.9,-511.36 1224.05,-507.47 1223.77,-514.46"/>
</g>
<!-- Node4 -->
<g id="node4" class="node">
<title>Node4</title>
<g id="a_node4"><a xlink:href="dma__inlines_8h_source.html" target="_top" xlink:title=" ">
<polygon fill="white" stroke="black" points="23.5,-112.5 23.5,-131.5 108.5,-131.5 108.5,-112.5 23.5,-112.5"/>
<text text-anchor="middle" x="66" y="-119.5" font-family="Helvetica,sans-Serif" font-size="10.00">dma_inlines.h</text>
</a>
</g>
</g>
<!-- Node1&#45;&gt;Node4 -->
<g id="edge65" class="edge">
<title>Node1&#45;&gt;Node4</title>
<path fill="none" stroke="midnightblue" d="M1223.76,-511.93C1043.96,-508.12 460.06,-494.01 274,-468 150.05,-450.67 0,-528.16 0,-403 0,-403 0,-403 0,-233 0,-189.79 37.9,-148.9 56.26,-131.63"/>
<polygon fill="midnightblue" stroke="midnightblue" points="1223.7,-515.43 1233.77,-512.14 1223.85,-508.43 1223.7,-515.43"/>
</g>
<!-- Node5 -->
<g id="node5" class="node">
<title>Node5</title>
<g id="a_node5"><a xlink:href="spec_2comp_8h.html" target="_top" xlink:title=" ">
<polygon fill="white" stroke="black" points="521.5,-448.5 521.5,-467.5 574.5,-467.5 574.5,-448.5 521.5,-448.5"/>
<text text-anchor="middle" x="548" y="-455.5" font-family="Helvetica,sans-Serif" font-size="10.00">comp.h</text>
</a>
</g>
</g>
<!-- Node1&#45;&gt;Node5 -->
<g id="edge4" class="edge">
<title>Node1&#45;&gt;Node5</title>
<path fill="none" stroke="midnightblue" d="M1223.87,-509.06C1079.09,-498.34 681.32,-468.88 574.63,-460.97"/>
<polygon fill="midnightblue" stroke="midnightblue" points="1223.62,-512.56 1233.85,-509.8 1224.14,-505.57 1223.62,-512.56"/>
</g>
<!-- Node7 -->
<g id="node7" class="node">
<title>Node7</title>
<g id="a_node7"><a xlink:href="spec_2dma__types_8h.html" target="_top" xlink:title=" ">
<polygon fill="white" stroke="black" points="877,-448.5 877,-467.5 957,-467.5 957,-448.5 877,-448.5"/>
<text text-anchor="middle" x="917" y="-455.5" font-family="Helvetica,sans-Serif" font-size="10.00">dma_types.h</text>
</a>
</g>
</g>
<!-- Node1&#45;&gt;Node7 -->
<g id="edge6" class="edge">
<title>Node1&#45;&gt;Node7</title>
<path fill="none" stroke="midnightblue" d="M1223.62,-504.99C1150.85,-494.08 1022.16,-474.77 957.08,-465.01"/>
<polygon fill="midnightblue" stroke="midnightblue" points="1223.52,-508.52 1233.93,-506.54 1224.56,-501.6 1223.52,-508.52"/>
</g>
<!-- Node17 -->
<g id="node20" class="node">
<title>Node17</title>
<g id="a_node20"><a xlink:href="spec_2ipsec_8h.html" target="_top" xlink:title=" ">
<polygon fill="white" stroke="black" points="1093.5,-112.5 1093.5,-131.5 1144.5,-131.5 1144.5,-112.5 1093.5,-112.5"/>
<text text-anchor="middle" x="1119" y="-119.5" font-family="Helvetica,sans-Serif" font-size="10.00">ipsec.h</text>
</a>
</g>
</g>
<!-- Node1&#45;&gt;Node17 -->
<g id="edge53" class="edge">
<title>Node1&#45;&gt;Node17</title>
<path fill="none" stroke="midnightblue" d="M1260.09,-497.36C1240.54,-477.48 1211,-441.14 1211,-403 1211,-403 1211,-403 1211,-233 1211,-185.7 1160.32,-148.02 1134.19,-131.73"/>
<polygon fill="midnightblue" stroke="midnightblue" points="1257.67,-499.88 1267.26,-504.37 1262.56,-494.88 1257.67,-499.88"/>
</g>
<!-- Node27 -->
<g id="node23" class="node">
<title>Node27</title>
<g id="a_node23"><a xlink:href="spec_2packet_8h.html" target="_top" xlink:title=" ">
<polygon fill="white" stroke="black" points="811,-112.5 811,-131.5 869,-131.5 869,-112.5 811,-112.5"/>
<text text-anchor="middle" x="840" y="-119.5" font-family="Helvetica,sans-Serif" font-size="10.00">packet.h</text>
</a>
</g>
</g>
<!-- Node1&#45;&gt;Node27 -->
<g id="edge54" class="edge">
<title>Node1&#45;&gt;Node27</title>
<path fill="none" stroke="midnightblue" d="M1249.88,-499.34C1219.06,-481.68 1173,-447.78 1173,-403 1173,-403 1173,-403 1173,-289 1173,-153.83 950.52,-128.72 869.26,-124.06"/>
<polygon fill="midnightblue" stroke="midnightblue" points="1248.44,-502.54 1258.88,-504.3 1251.81,-496.41 1248.44,-502.54"/>
</g>
<!-- Node35 -->
<g id="node30" class="node">
<title>Node35</title>
<g id="a_node30"><a xlink:href="spec_2timer_8h.html" target="_top" xlink:title=" ">
<polygon fill="white" stroke="black" points="1239.5,-224.5 1239.5,-243.5 1290.5,-243.5 1290.5,-224.5 1239.5,-224.5"/>
<text text-anchor="middle" x="1265" y="-231.5" font-family="Helvetica,sans-Serif" font-size="10.00">timer.h</text>
</a>
</g>
</g>
<!-- Node1&#45;&gt;Node35 -->
<g id="edge59" class="edge">
<title>Node1&#45;&gt;Node35</title>
<path fill="none" stroke="midnightblue" d="M1269.43,-494.88C1261.13,-473.37 1249,-436.21 1249,-403 1249,-403 1249,-403 1249,-345 1249,-306.98 1258.47,-262.34 1262.84,-243.78"/>
<polygon fill="midnightblue" stroke="midnightblue" points="1266.25,-496.37 1273.22,-504.35 1272.75,-493.77 1266.25,-496.37"/>
</g>
<!-- Node41 -->
<g id="node36" class="node">
<title>Node41</title>
<g id="a_node36"><a xlink:href="spec_2event_8h.html" target="_top" xlink:title=" ">
<polygon fill="white" stroke="black" points="1081.5,-336.5 1081.5,-355.5 1134.5,-355.5 1134.5,-336.5 1081.5,-336.5"/>
<text text-anchor="middle" x="1108" y="-343.5" font-family="Helvetica,sans-Serif" font-size="10.00">event.h</text>
</a>
</g>
</g>
<!-- Node1&#45;&gt;Node41 -->
<g id="edge45" class="edge">
<title>Node1&#45;&gt;Node41</title>
<path fill="none" stroke="midnightblue" d="M1224.24,-502.64C1201.81,-495.96 1176.79,-485.18 1159,-468 1125.39,-435.53 1112.9,-377.47 1109.26,-355.63"/>
<polygon fill="midnightblue" stroke="midnightblue" points="1223.42,-506.05 1234,-505.35 1225.29,-499.3 1223.42,-506.05"/>
</g>
<!-- Node44 -->
<g id="node39" class="node">
<title>Node44</title>
<g id="a_node39"><a xlink:href="spec_2queue_8h.html" target="_top" xlink:title=" ">
<polygon fill="white" stroke="black" points="1277,-448.5 1277,-467.5 1333,-467.5 1333,-448.5 1277,-448.5"/>
<text text-anchor="middle" x="1305" y="-455.5" font-family="Helvetica,sans-Serif" font-size="10.00">queue.h</text>
</a>
</g>
</g>
<!-- Node1&#45;&gt;Node44 -->
<g id="edge55" class="edge">
<title>Node1&#45;&gt;Node44</title>
<path fill="none" stroke="midnightblue" d="M1286.34,-494.98C1291.09,-485.82 1296.66,-475.09 1300.46,-467.75"/>
<polygon fill="midnightblue" stroke="midnightblue" points="1283.12,-493.59 1281.62,-504.08 1289.33,-496.82 1283.12,-493.59"/>
</g>
<!-- Node46 -->
<g id="node41" class="node">
<title>Node46</title>
<g id="a_node41"><a xlink:href="spec_2schedule_8h.html" target="_top" xlink:title=" ">
<polygon fill="white" stroke="black" points="1351.5,-448.5 1351.5,-467.5 1420.5,-467.5 1420.5,-448.5 1351.5,-448.5"/>
<text text-anchor="middle" x="1386" y="-455.5" font-family="Helvetica,sans-Serif" font-size="10.00">schedule.h</text>
</a>
</g>
</g>
<!-- Node1&#45;&gt;Node46 -->
<g id="edge57" class="edge">
<title>Node1&#45;&gt;Node46</title>
<path fill="none" stroke="midnightblue" d="M1303.52,-499.86C1323.73,-489.85 1350.99,-476.35 1368.53,-467.65"/>
<polygon fill="midnightblue" stroke="midnightblue" points="1301.92,-496.75 1294.51,-504.32 1305.03,-503.02 1301.92,-496.75"/>
</g>
<!-- Node48 -->
<g id="node43" class="node">
<title>Node48</title>
<g id="a_node43"><a xlink:href="spec_2timer__types_8h.html" target="_top" xlink:title=" ">
<polygon fill="white" stroke="black" points="1343,-336.5 1343,-355.5 1427,-355.5 1427,-336.5 1343,-336.5"/>
<text text-anchor="middle" x="1385" y="-343.5" font-family="Helvetica,sans-Serif" font-size="10.00">timer_types.h</text>
</a>
</g>
</g>
<!-- Node1&#45;&gt;Node48 -->
<g id="edge60" class="edge">
<title>Node1&#45;&gt;Node48</title>
<path fill="none" stroke="midnightblue" d="M1330.49,-512.44C1364.59,-508.95 1406.46,-498.17 1429,-468 1449.21,-440.94 1441.75,-423.28 1429,-392 1422.73,-376.62 1408.39,-363.64 1397.78,-355.63"/>
<polygon fill="midnightblue" stroke="midnightblue" points="1329.86,-508.98 1320.19,-513.3 1330.44,-515.96 1329.86,-508.98"/>
</g>
<!-- Node50 -->
<g id="node45" class="node">
<title>Node50</title>
<g id="a_node45"><a xlink:href="event__inlines_8h_source.html" target="_top" xlink:title=" ">
<polygon fill="white" stroke="black" points="1434.5,-224.5 1434.5,-243.5 1525.5,-243.5 1525.5,-224.5 1434.5,-224.5"/>
<text text-anchor="middle" x="1480" y="-231.5" font-family="Helvetica,sans-Serif" font-size="10.00">event_inlines.h</text>
</a>
</g>
</g>
<!-- Node1&#45;&gt;Node50 -->
<g id="edge66" class="edge">
<title>Node1&#45;&gt;Node50</title>
<path fill="none" stroke="midnightblue" d="M1330.07,-508.1C1392.28,-499.09 1487,-473.76 1487,-403 1487,-403 1487,-403 1487,-345 1487,-307.11 1482.81,-262.03 1480.92,-243.55"/>
<polygon fill="midnightblue" stroke="midnightblue" points="1329.45,-504.65 1320,-509.45 1330.38,-511.59 1329.45,-504.65"/>
</g>
<!-- Node51 -->
<g id="node46" class="node">
<title>Node51</title>
<g id="a_node46"><a xlink:href="event__validation__external_8h.html" target="_top" xlink:title=" ">
<polygon fill="white" stroke="black" points="1515.5,-448.5 1515.5,-467.5 1668.5,-467.5 1668.5,-448.5 1515.5,-448.5"/>
<text text-anchor="middle" x="1592" y="-455.5" font-family="Helvetica,sans-Serif" font-size="10.00">event_validation_external.h</text>
</a>
</g>
</g>
<!-- Node1&#45;&gt;Node51 -->
<g id="edge67" class="edge">
<title>Node1&#45;&gt;Node51</title>
<path fill="none" stroke="midnightblue" d="M1330.05,-503.91C1389.33,-493.74 1484.54,-477.42 1542.39,-467.51"/>
<polygon fill="midnightblue" stroke="midnightblue" points="1329.4,-500.47 1320.14,-505.6 1330.59,-507.36 1329.4,-500.47"/>
</g>
<!-- Node53 -->
<g id="node48" class="node">
<title>Node53</title>
<g id="a_node48"><a xlink:href="queue__inline__types_8h_source.html" target="_top" xlink:title=" ">
<polygon fill="white" stroke="black" points="1687,-448.5 1687,-467.5 1807,-467.5 1807,-448.5 1687,-448.5"/>
<text text-anchor="middle" x="1747" y="-455.5" font-family="Helvetica,sans-Serif" font-size="10.00">queue_inline_types.h</text>
</a>
</g>
</g>
<!-- Node1&#45;&gt;Node53 -->
<g id="edge69" class="edge">
<title>Node1&#45;&gt;Node53</title>
<path fill="none" stroke="midnightblue" d="M1330.6,-507.24C1407.38,-498.93 1553.09,-482.94 1677,-468 1680.16,-467.62 1683.41,-467.22 1686.68,-466.82"/>
<polygon fill="midnightblue" stroke="midnightblue" points="1329.8,-503.81 1320.24,-508.36 1330.55,-510.77 1329.8,-503.81"/>
</g>
<!-- Node54 -->
<g id="node49" class="node">
<title>Node54</title>
<g id="a_node49"><a xlink:href="schedule__inline__types_8h_source.html" target="_top" xlink:title=" ">
<polygon fill="white" stroke="black" points="1825,-448.5 1825,-467.5 1959,-467.5 1959,-448.5 1825,-448.5"/>
<text text-anchor="middle" x="1892" y="-455.5" font-family="Helvetica,sans-Serif" font-size="10.00">schedule_inline_types.h</text>
</a>
</g>
</g>
<!-- Node1&#45;&gt;Node54 -->
<g id="edge71" class="edge">
<title>Node1&#45;&gt;Node54</title>
<path fill="none" stroke="midnightblue" d="M1330.13,-509.18C1426.87,-502.08 1638.19,-485.94 1816,-468 1818.91,-467.71 1821.88,-467.4 1824.88,-467.08"/>
<polygon fill="midnightblue" stroke="midnightblue" points="1329.73,-505.7 1320.02,-509.92 1330.24,-512.68 1329.73,-505.7"/>
</g>
<!-- Node55 -->
<g id="node50" class="node">
<title>Node55</title>
<g id="a_node50"><a xlink:href="schedule__inlines_8h_source.html" target="_top" xlink:title=" ">
<polygon fill="white" stroke="black" points="1885.5,-392.5 1885.5,-411.5 1992.5,-411.5 1992.5,-392.5 1885.5,-392.5"/>
<text text-anchor="middle" x="1939" y="-399.5" font-family="Helvetica,sans-Serif" font-size="10.00">schedule_inlines.h</text>
</a>
</g>
</g>
<!-- Node1&#45;&gt;Node55 -->
<g id="edge73" class="edge">
<title>Node1&#45;&gt;Node55</title>
<path fill="none" stroke="midnightblue" d="M1330.27,-513.61C1484.76,-514.84 1924.71,-514.2 1968,-468 1983.55,-451.41 1961.76,-425.09 1948.28,-411.6"/>
<polygon fill="midnightblue" stroke="midnightblue" points="1330.12,-510.11 1320.09,-513.53 1330.06,-517.11 1330.12,-510.11"/>
</g>
<!-- Node3 -->
<g id="node3" class="node">
<title>Node3</title>
<g id="a_node3"><a xlink:href="buffer_8h.html" target="_top" xlink:title=" ">
<polygon fill="white" stroke="black" points="66.5,-168.5 66.5,-187.5 119.5,-187.5 119.5,-168.5 66.5,-168.5"/>
<text text-anchor="middle" x="93" y="-175.5" font-family="Helvetica,sans-Serif" font-size="10.00">buffer.h</text>
</a>
</g>
</g>
<!-- Node2&#45;&gt;Node3 -->
<g id="edge2" class="edge">
<title>Node2&#45;&gt;Node3</title>
<path fill="none" stroke="midnightblue" d="M93,-213.8C93,-204.91 93,-194.78 93,-187.75"/>
<polygon fill="midnightblue" stroke="midnightblue" points="89.5,-214.08 93,-224.08 96.5,-214.08 89.5,-214.08"/>
</g>
<!-- Node3&#45;&gt;Node4 -->
<g id="edge3" class="edge">
<title>Node3&#45;&gt;Node4</title>
<path fill="none" stroke="midnightblue" d="M83.99,-158.98C79.41,-149.82 74.05,-139.09 70.38,-131.75"/>
<polygon fill="midnightblue" stroke="midnightblue" points="80.94,-160.7 88.54,-168.08 87.2,-157.57 80.94,-160.7"/>
</g>
<!-- Node6 -->
<g id="node6" class="node">
<title>Node6</title>
<g id="a_node6"><a xlink:href="comp_8h.html" target="_top" xlink:title=" ">
<polygon fill="white" stroke="black" points="386.5,-392.5 386.5,-411.5 439.5,-411.5 439.5,-392.5 386.5,-392.5"/>
<text text-anchor="middle" x="413" y="-399.5" font-family="Helvetica,sans-Serif" font-size="10.00">comp.h</text>
</a>
</g>
</g>
<!-- Node5&#45;&gt;Node6 -->
<g id="edge5" class="edge">
<title>Node5&#45;&gt;Node6</title>
<path fill="none" stroke="midnightblue" d="M517.09,-444.64C491.76,-434.5 456.57,-420.43 434.29,-411.52"/>
<polygon fill="midnightblue" stroke="midnightblue" points="516.02,-447.98 526.61,-448.44 518.62,-441.48 516.02,-447.98"/>
</g>
<!-- Node8 -->
<g id="node8" class="node">
<title>Node8</title>
<g id="a_node8"><a xlink:href="dma__types_8h.html" target="_top" xlink:title=" ">
<polygon fill="white" stroke="black" points="458,-392.5 458,-411.5 538,-411.5 538,-392.5 458,-392.5"/>
<text text-anchor="middle" x="498" y="-399.5" font-family="Helvetica,sans-Serif" font-size="10.00">dma_types.h</text>
</a>
</g>
</g>
<!-- Node7&#45;&gt;Node8 -->
<g id="edge7" class="edge">
<title>Node7&#45;&gt;Node8</title>
<path fill="none" stroke="midnightblue" d="M866.74,-450.52C782.59,-439.68 614.84,-418.06 538.05,-408.16"/>
<polygon fill="midnightblue" stroke="midnightblue" points="866.46,-454.02 876.82,-451.82 867.35,-447.07 866.46,-454.02"/>
</g>
<!-- Node8&#45;&gt;Node4 -->
<g id="edge44" class="edge">
<title>Node8&#45;&gt;Node4</title>
<path fill="none" stroke="midnightblue" d="M447.72,-390.66C342.15,-367.82 103.33,-309.85 57,-244 32.27,-208.85 52.67,-152.89 61.98,-131.6"/>
<polygon fill="midnightblue" stroke="midnightblue" points="447.3,-394.15 457.81,-392.82 448.77,-387.31 447.3,-394.15"/>
</g>
<!-- Node9 -->
<g id="node9" class="node">
<title>Node9</title>
<g id="a_node9"><a xlink:href="spec_2dma_8h.html" target="_top" xlink:title=" ">
<polygon fill="white" stroke="black" points="137.5,-224.5 137.5,-243.5 184.5,-243.5 184.5,-224.5 137.5,-224.5"/>
<text text-anchor="middle" x="161" y="-231.5" font-family="Helvetica,sans-Serif" font-size="10.00">dma.h</text>
</a>
</g>
</g>
<!-- Node8&#45;&gt;Node9 -->
<g id="edge8" class="edge">
<title>Node8&#45;&gt;Node9</title>
<path fill="none" stroke="midnightblue" d="M471.35,-387.87C404.99,-355.19 233.73,-270.83 178.47,-243.61"/>
<polygon fill="midnightblue" stroke="midnightblue" points="469.84,-391.03 480.36,-392.31 472.93,-384.75 469.84,-391.03"/>
</g>
<!-- Node11 -->
<g id="node11" class="node">
<title>Node11</title>
<g id="a_node11"><a xlink:href="spec_2pool__types_8h.html" target="_top" xlink:title=" ">
<polygon fill="white" stroke="black" points="458.5,-336.5 458.5,-355.5 537.5,-355.5 537.5,-336.5 458.5,-336.5"/>
<text text-anchor="middle" x="498" y="-343.5" font-family="Helvetica,sans-Serif" font-size="10.00">pool_types.h</text>
</a>
</g>
</g>
<!-- Node8&#45;&gt;Node11 -->
<g id="edge10" class="edge">
<title>Node8&#45;&gt;Node11</title>
<path fill="none" stroke="midnightblue" d="M498,-381.8C498,-372.91 498,-362.78 498,-355.75"/>
<polygon fill="midnightblue" stroke="midnightblue" points="494.5,-382.08 498,-392.08 501.5,-382.08 494.5,-382.08"/>
</g>
<!-- Node10 -->
<g id="node10" class="node">
<title>Node10</title>
<g id="a_node10"><a xlink:href="dma_8h.html" target="_top" xlink:title=" ">
<polygon fill="white" stroke="black" points="137.5,-168.5 137.5,-187.5 184.5,-187.5 184.5,-168.5 137.5,-168.5"/>
<text text-anchor="middle" x="161" y="-175.5" font-family="Helvetica,sans-Serif" font-size="10.00">dma.h</text>
</a>
</g>
</g>
<!-- Node9&#45;&gt;Node10 -->
<g id="edge9" class="edge">
<title>Node9&#45;&gt;Node10</title>
<path fill="none" stroke="midnightblue" d="M161,-213.8C161,-204.91 161,-194.78 161,-187.75"/>
<polygon fill="midnightblue" stroke="midnightblue" points="157.5,-214.08 161,-224.08 164.5,-214.08 157.5,-214.08"/>
</g>
<!-- Node12 -->
<g id="node12" class="node">
<title>Node12</title>
<g id="a_node12"><a xlink:href="pool__types_8h.html" target="_top" xlink:title=" ">
<polygon fill="white" stroke="black" points="458.5,-280.5 458.5,-299.5 537.5,-299.5 537.5,-280.5 458.5,-280.5"/>
<text text-anchor="middle" x="498" y="-287.5" font-family="Helvetica,sans-Serif" font-size="10.00">pool_types.h</text>
</a>
</g>
</g>
<!-- Node11&#45;&gt;Node12 -->
<g id="edge11" class="edge">
<title>Node11&#45;&gt;Node12</title>
<path fill="none" stroke="midnightblue" d="M498,-325.8C498,-316.91 498,-306.78 498,-299.75"/>
<polygon fill="midnightblue" stroke="midnightblue" points="494.5,-326.08 498,-336.08 501.5,-326.08 494.5,-326.08"/>
</g>
<!-- Node12&#45;&gt;Node2 -->
<g id="edge12" class="edge">
<title>Node12&#45;&gt;Node2</title>
<path fill="none" stroke="midnightblue" d="M448.26,-285.03C376.93,-278.87 241.64,-265.43 128,-244 125.29,-243.49 122.47,-242.89 119.67,-242.24"/>
<polygon fill="midnightblue" stroke="midnightblue" points="448.05,-288.53 458.31,-285.89 448.65,-281.55 448.05,-288.53"/>
</g>
<!-- Node12&#45;&gt;Node4 -->
<g id="edge40" class="edge">
<title>Node12&#45;&gt;Node4</title>
<path fill="none" stroke="midnightblue" d="M475.11,-275.13C433.35,-250.37 341.41,-198.31 258,-168 208.13,-149.87 148.26,-137.2 108.79,-130.02"/>
<polygon fill="midnightblue" stroke="midnightblue" points="473.54,-278.27 483.92,-280.4 477.13,-272.26 473.54,-278.27"/>
</g>
<!-- Node12&#45;&gt;Node9 -->
<g id="edge24" class="edge">
<title>Node12&#45;&gt;Node9</title>
<path fill="none" stroke="midnightblue" d="M448.16,-283.63C387.48,-276.63 282.07,-263.01 193,-244 190.29,-243.42 187.47,-242.74 184.68,-242.02"/>
<polygon fill="midnightblue" stroke="midnightblue" points="447.9,-287.12 458.23,-284.78 448.69,-280.17 447.9,-287.12"/>
</g>
<!-- Node13 -->
<g id="node13" class="node">
<title>Node13</title>
<g id="a_node13"><a xlink:href="spec_2classification_8h.html" target="_top" xlink:title=" ">
<polygon fill="white" stroke="black" points="376.5,-112.5 376.5,-131.5 465.5,-131.5 465.5,-112.5 376.5,-112.5"/>
<text text-anchor="middle" x="421" y="-119.5" font-family="Helvetica,sans-Serif" font-size="10.00">classification.h</text>
</a>
</g>
</g>
<!-- Node12&#45;&gt;Node13 -->
<g id="edge13" class="edge">
<title>Node12&#45;&gt;Node13</title>
<path fill="none" stroke="midnightblue" d="M470.3,-275.21C458.09,-267.68 444.78,-257.18 437,-244 415.13,-206.96 417.88,-152.58 419.96,-131.65"/>
<polygon fill="midnightblue" stroke="midnightblue" points="468.89,-278.43 479.3,-280.38 472.37,-272.36 468.89,-278.43"/>
</g>
<!-- Node22 -->
<g id="node17" class="node">
<title>Node22</title>
<g id="a_node17"><a xlink:href="spec_2crypto__types_8h.html" target="_top" xlink:title=" ">
<polygon fill="white" stroke="black" points="568.5,-224.5 568.5,-243.5 657.5,-243.5 657.5,-224.5 568.5,-224.5"/>
<text text-anchor="middle" x="613" y="-231.5" font-family="Helvetica,sans-Serif" font-size="10.00">crypto_types.h</text>
</a>
</g>
</g>
<!-- Node12&#45;&gt;Node22 -->
<g id="edge17" class="edge">
<title>Node12&#45;&gt;Node22</title>
<path fill="none" stroke="midnightblue" d="M525.48,-276.1C546.97,-266.01 576.22,-252.27 594.86,-243.52"/>
<polygon fill="midnightblue" stroke="midnightblue" points="523.79,-273.02 516.22,-280.44 526.76,-279.36 523.79,-273.02"/>
</g>
<!-- Node12&#45;&gt;Node27 -->
<g id="edge25" class="edge">
<title>Node12&#45;&gt;Node27</title>
<path fill="none" stroke="midnightblue" d="M547.94,-280.35C582.2,-273.29 628.15,-261.57 666,-244 734.41,-212.24 804.84,-153.75 830.18,-131.71"/>
<polygon fill="midnightblue" stroke="midnightblue" points="546.82,-277 537.7,-282.39 548.19,-283.87 546.82,-277"/>
</g>
<!-- Node29 -->
<g id="node26" class="node">
<title>Node29</title>
<g id="a_node26"><a xlink:href="spec_2packet__io__types_8h.html" target="_top" xlink:title=" ">
<polygon fill="white" stroke="black" points="446,-224.5 446,-243.5 550,-243.5 550,-224.5 446,-224.5"/>
<text text-anchor="middle" x="498" y="-231.5" font-family="Helvetica,sans-Serif" font-size="10.00">packet_io_types.h</text>
</a>
</g>
</g>
<!-- Node12&#45;&gt;Node29 -->
<g id="edge29" class="edge">
<title>Node12&#45;&gt;Node29</title>
<path fill="none" stroke="midnightblue" d="M498,-269.8C498,-260.91 498,-250.78 498,-243.75"/>
<polygon fill="midnightblue" stroke="midnightblue" points="494.5,-270.08 498,-280.08 501.5,-270.08 494.5,-270.08"/>
</g>
<!-- Node33 -->
<g id="node28" class="node">
<title>Node33</title>
<g id="a_node28"><a xlink:href="spec_2pool_8h.html" target="_top" xlink:title=" ">
<polygon fill="white" stroke="black" points="202.5,-224.5 202.5,-243.5 249.5,-243.5 249.5,-224.5 202.5,-224.5"/>
<text text-anchor="middle" x="226" y="-231.5" font-family="Helvetica,sans-Serif" font-size="10.00">pool.h</text>
</a>
</g>
</g>
<!-- Node12&#45;&gt;Node33 -->
<g id="edge35" class="edge">
<title>Node12&#45;&gt;Node33</title>
<path fill="none" stroke="midnightblue" d="M448.55,-280.88C400.05,-272.64 324.11,-258.98 259,-244 255.99,-243.31 252.84,-242.52 249.74,-241.72"/>
<polygon fill="midnightblue" stroke="midnightblue" points="448.02,-284.34 458.47,-282.56 449.19,-277.44 448.02,-284.34"/>
</g>
<!-- Node12&#45;&gt;Node35 -->
<g id="edge37" class="edge">
<title>Node12&#45;&gt;Node35</title>
<path fill="none" stroke="midnightblue" d="M547.77,-285.5C695.75,-275.08 1129.49,-244.54 1239.44,-236.8"/>
<polygon fill="midnightblue" stroke="midnightblue" points="547.35,-282.02 537.62,-286.21 547.84,-289 547.35,-282.02"/>
</g>
<!-- Node37 -->
<g id="node32" class="node">
<title>Node37</title>
<g id="a_node32"><a xlink:href="buffer__inlines_8h_source.html" target="_top" xlink:title=" ">
<polygon fill="white" stroke="black" points="714,-224.5 714,-243.5 806,-243.5 806,-224.5 714,-224.5"/>
<text text-anchor="middle" x="760" y="-231.5" font-family="Helvetica,sans-Serif" font-size="10.00">buffer_inlines.h</text>
</a>
</g>
</g>
<!-- Node12&#45;&gt;Node37 -->
<g id="edge39" class="edge">
<title>Node12&#45;&gt;Node37</title>
<path fill="none" stroke="midnightblue" d="M547.34,-278.83C596.75,-268.65 671.96,-253.14 718.44,-243.57"/>
<polygon fill="midnightblue" stroke="midnightblue" points="546.6,-275.41 537.51,-280.86 548.01,-282.27 546.6,-275.41"/>
</g>
<!-- Node38 -->
<g id="node33" class="node">
<title>Node38</title>
<g id="a_node33"><a xlink:href="packet__inlines_8h.html" target="_top" xlink:title=" ">
<polygon fill="white" stroke="black" points="824.5,-224.5 824.5,-243.5 919.5,-243.5 919.5,-224.5 824.5,-224.5"/>
<text text-anchor="middle" x="872" y="-231.5" font-family="Helvetica,sans-Serif" font-size="10.00">packet_inlines.h</text>
</a>
</g>
</g>
<!-- Node12&#45;&gt;Node38 -->
<g id="edge41" class="edge">
<title>Node12&#45;&gt;Node38</title>
<path fill="none" stroke="midnightblue" d="M547.53,-282.21C609.94,-273.6 720.49,-258.17 815,-244 818.07,-243.54 821.23,-243.06 824.42,-242.57"/>
<polygon fill="midnightblue" stroke="midnightblue" points="546.99,-278.75 537.56,-283.59 547.95,-285.69 546.99,-278.75"/>
</g>
<!-- Node39 -->
<g id="node34" class="node">
<title>Node39</title>
<g id="a_node34"><a xlink:href="packet__vector__inlines_8h.html" target="_top" xlink:title=" ">
<polygon fill="white" stroke="black" points="937.5,-224.5 937.5,-243.5 1068.5,-243.5 1068.5,-224.5 937.5,-224.5"/>
<text text-anchor="middle" x="1003" y="-231.5" font-family="Helvetica,sans-Serif" font-size="10.00">packet_vector_inlines.h</text>
</a>
</g>
</g>
<!-- Node12&#45;&gt;Node39 -->
<g id="edge42" class="edge">
<title>Node12&#45;&gt;Node39</title>
<path fill="none" stroke="midnightblue" d="M548.04,-284.01C628.26,-275.96 790.58,-259.43 928,-244 931,-243.66 934.06,-243.31 937.16,-242.96"/>
<polygon fill="midnightblue" stroke="midnightblue" points="547.34,-280.56 537.74,-285.04 548.04,-287.53 547.34,-280.56"/>
</g>
<!-- Node40 -->
<g id="node35" class="node">
<title>Node40</title>
<g id="a_node35"><a xlink:href="pool__inlines_8h_source.html" target="_top" xlink:title=" ">
<polygon fill="white" stroke="black" points="268,-224.5 268,-243.5 352,-243.5 352,-224.5 268,-224.5"/>
<text text-anchor="middle" x="310" y="-231.5" font-family="Helvetica,sans-Serif" font-size="10.00">pool_inlines.h</text>
</a>
</g>
</g>
<!-- Node12&#45;&gt;Node40 -->
<g id="edge43" class="edge">
<title>Node12&#45;&gt;Node40</title>
<path fill="none" stroke="midnightblue" d="M458.2,-277.57C422.73,-267.38 371.63,-252.7 339.65,-243.52"/>
<polygon fill="midnightblue" stroke="midnightblue" points="457.63,-281.05 468.21,-280.44 459.57,-274.32 457.63,-281.05"/>
</g>
<!-- Node14 -->
<g id="node14" class="node">
<title>Node14</title>
<g id="a_node14"><a xlink:href="classification_8h.html" target="_top" xlink:title=" ">
<polygon fill="white" stroke="black" points="376.5,-56.5 376.5,-75.5 465.5,-75.5 465.5,-56.5 376.5,-56.5"/>
<text text-anchor="middle" x="421" y="-63.5" font-family="Helvetica,sans-Serif" font-size="10.00">classification.h</text>
</a>
</g>
</g>
<!-- Node13&#45;&gt;Node14 -->
<g id="edge14" class="edge">
<title>Node13&#45;&gt;Node14</title>
<path fill="none" stroke="midnightblue" d="M421,-101.8C421,-92.91 421,-82.78 421,-75.75"/>
<polygon fill="midnightblue" stroke="midnightblue" points="417.5,-102.08 421,-112.08 424.5,-102.08 417.5,-102.08"/>
</g>
<!-- Node15 -->
<g id="node15" class="node">
<title>Node15</title>
<g id="a_node15"><a xlink:href="spec_2ipsec__types_8h.html" target="_top" xlink:title=" ">
<polygon fill="white" stroke="red" points="432.5,-0.5 432.5,-19.5 515.5,-19.5 515.5,-0.5 432.5,-0.5"/>
<text text-anchor="middle" x="474" y="-7.5" font-family="Helvetica,sans-Serif" font-size="10.00">ipsec_types.h</text>
</a>
</g>
</g>
<!-- Node14&#45;&gt;Node15 -->
<g id="edge15" class="edge">
<title>Node14&#45;&gt;Node15</title>
<path fill="none" stroke="midnightblue" d="M436.98,-48.72C446.32,-39.2 457.75,-27.56 465.41,-19.75"/>
<polygon fill="midnightblue" stroke="midnightblue" points="434.26,-46.49 429.75,-56.08 439.25,-51.4 434.26,-46.49"/>
</g>
<!-- Node20 -->
<g id="node16" class="node">
<title>Node20</title>
<g id="a_node16"><a xlink:href="spec_2packet__io_8h.html" target="_top" xlink:title=" ">
<polygon fill="white" stroke="red" points="534,-0.5 534,-19.5 606,-19.5 606,-0.5 534,-0.5"/>
<text text-anchor="middle" x="570" y="-7.5" font-family="Helvetica,sans-Serif" font-size="10.00">packet_io.h</text>
</a>
</g>
</g>
<!-- Node14&#45;&gt;Node20 -->
<g id="edge16" class="edge">
<title>Node14&#45;&gt;Node20</title>
<path fill="none" stroke="midnightblue" d="M454.37,-52.91C482.38,-42.75 521.7,-28.51 546.5,-19.52"/>
<polygon fill="midnightblue" stroke="midnightblue" points="452.82,-49.75 444.61,-56.44 455.2,-56.33 452.82,-49.75"/>
</g>
<!-- Node23 -->
<g id="node18" class="node">
<title>Node23</title>
<g id="a_node18"><a xlink:href="crypto__types_8h.html" target="_top" xlink:title=" ">
<polygon fill="white" stroke="black" points="568.5,-168.5 568.5,-187.5 657.5,-187.5 657.5,-168.5 568.5,-168.5"/>
<text text-anchor="middle" x="613" y="-175.5" font-family="Helvetica,sans-Serif" font-size="10.00">crypto_types.h</text>
</a>
</g>
</g>
<!-- Node22&#45;&gt;Node23 -->
<g id="edge18" class="edge">
<title>Node22&#45;&gt;Node23</title>
<path fill="none" stroke="midnightblue" d="M613,-213.8C613,-204.91 613,-194.78 613,-187.75"/>
<polygon fill="midnightblue" stroke="midnightblue" points="609.5,-214.08 613,-224.08 616.5,-214.08 609.5,-214.08"/>
</g>
<!-- Node23&#45;&gt;Node15 -->
<g id="edge22" class="edge">
<title>Node23&#45;&gt;Node15</title>
<path fill="none" stroke="midnightblue" d="M598.94,-160.21C569.68,-125.26 503.13,-45.79 481.17,-19.57"/>
<polygon fill="midnightblue" stroke="midnightblue" points="596.42,-162.66 605.53,-168.08 601.79,-158.16 596.42,-162.66"/>
</g>
<!-- Node24 -->
<g id="node19" class="node">
<title>Node24</title>
<g id="a_node19"><a xlink:href="spec_2crypto_8h.html" target="_top" xlink:title=" ">
<polygon fill="white" stroke="red" points="598,-112.5 598,-131.5 654,-131.5 654,-112.5 598,-112.5"/>
<text text-anchor="middle" x="626" y="-119.5" font-family="Helvetica,sans-Serif" font-size="10.00">crypto.h</text>
</a>
</g>
</g>
<!-- Node23&#45;&gt;Node24 -->
<g id="edge19" class="edge">
<title>Node23&#45;&gt;Node24</title>
<path fill="none" stroke="midnightblue" d="M617.55,-158.1C619.71,-149.14 622.18,-138.86 623.89,-131.75"/>
<polygon fill="midnightblue" stroke="midnightblue" points="614.08,-157.54 615.15,-168.08 620.89,-159.18 614.08,-157.54"/>
</g>
<!-- Node23&#45;&gt;Node17 -->
<g id="edge20" class="edge">
<title>Node23&#45;&gt;Node17</title>
<path fill="none" stroke="midnightblue" d="M668,-171.13C776.6,-159.54 1014.84,-134.12 1093.35,-125.74"/>
<polygon fill="midnightblue" stroke="midnightblue" points="667.48,-167.67 657.9,-172.21 668.22,-174.63 667.48,-167.67"/>
</g>
<!-- Node26 -->
<g id="node22" class="node">
<title>Node26</title>
<g id="a_node22"><a xlink:href="crypto__inlines_8h_source.html" target="_top" xlink:title=" ">
<polygon fill="white" stroke="black" points="825,-0.5 825,-19.5 919,-19.5 919,-0.5 825,-0.5"/>
<text text-anchor="middle" x="872" y="-7.5" font-family="Helvetica,sans-Serif" font-size="10.00">crypto_inlines.h</text>
</a>
</g>
</g>
<!-- Node23&#45;&gt;Node26 -->
<g id="edge23" class="edge">
<title>Node23&#45;&gt;Node26</title>
<path fill="none" stroke="midnightblue" d="M635.07,-162.85C687.17,-129.46 816.54,-46.55 858.57,-19.61"/>
<polygon fill="midnightblue" stroke="midnightblue" points="633.09,-159.97 626.56,-168.31 636.87,-165.86 633.09,-159.97"/>
</g>
<!-- Node18 -->
<g id="node21" class="node">
<title>Node18</title>
<g id="a_node21"><a xlink:href="ipsec_8h.html" target="_top" xlink:title=" ">
<polygon fill="white" stroke="black" points="1093.5,-56.5 1093.5,-75.5 1144.5,-75.5 1144.5,-56.5 1093.5,-56.5"/>
<text text-anchor="middle" x="1119" y="-63.5" font-family="Helvetica,sans-Serif" font-size="10.00">ipsec.h</text>
</a>
</g>
</g>
<!-- Node17&#45;&gt;Node18 -->
<g id="edge21" class="edge">
<title>Node17&#45;&gt;Node18</title>
<path fill="none" stroke="midnightblue" d="M1119,-101.8C1119,-92.91 1119,-82.78 1119,-75.75"/>
<polygon fill="midnightblue" stroke="midnightblue" points="1115.5,-102.08 1119,-112.08 1122.5,-102.08 1115.5,-102.08"/>
</g>
<!-- Node28 -->
<g id="node24" class="node">
<title>Node28</title>
<g id="a_node24"><a xlink:href="packet_8h.html" target="_top" xlink:title=" ">
<polygon fill="white" stroke="black" points="843,-56.5 843,-75.5 901,-75.5 901,-56.5 843,-56.5"/>
<text text-anchor="middle" x="872" y="-63.5" font-family="Helvetica,sans-Serif" font-size="10.00">packet.h</text>
</a>
</g>
</g>
<!-- Node27&#45;&gt;Node28 -->
<g id="edge26" class="edge">
<title>Node27&#45;&gt;Node28</title>
<path fill="none" stroke="midnightblue" d="M850.5,-103.27C855.97,-94.05 862.42,-83.17 866.81,-75.75"/>
<polygon fill="midnightblue" stroke="midnightblue" points="847.37,-101.7 845.28,-112.08 853.39,-105.26 847.37,-101.7"/>
</g>
<!-- Node28&#45;&gt;Node26 -->
<g id="edge27" class="edge">
<title>Node28&#45;&gt;Node26</title>
<path fill="none" stroke="midnightblue" d="M872,-45.8C872,-36.91 872,-26.78 872,-19.75"/>
<polygon fill="midnightblue" stroke="midnightblue" points="868.5,-46.08 872,-56.08 875.5,-46.08 868.5,-46.08"/>
</g>
<!-- Node19 -->
<g id="node25" class="node">
<title>Node19</title>
<g id="a_node25"><a xlink:href="ipsec__inlines_8h_source.html" target="_top" xlink:title=" ">
<polygon fill="white" stroke="black" points="1032.5,-0.5 1032.5,-19.5 1121.5,-19.5 1121.5,-0.5 1032.5,-0.5"/>
<text text-anchor="middle" x="1077" y="-7.5" font-family="Helvetica,sans-Serif" font-size="10.00">ipsec_inlines.h</text>
</a>
</g>
</g>
<!-- Node28&#45;&gt;Node19 -->
<g id="edge28" class="edge">
<title>Node28&#45;&gt;Node19</title>
<path fill="none" stroke="midnightblue" d="M911.25,-54.66C949.98,-44.46 1008.49,-29.05 1044.64,-19.52"/>
<polygon fill="midnightblue" stroke="midnightblue" points="910.15,-51.33 901.37,-57.26 911.93,-58.1 910.15,-51.33"/>
</g>
<!-- Node30 -->
<g id="node27" class="node">
<title>Node30</title>
<g id="a_node27"><a xlink:href="packet__io__types_8h.html" target="_top" xlink:title=" ">
<polygon fill="white" stroke="red" points="446,-168.5 446,-187.5 550,-187.5 550,-168.5 446,-168.5"/>
<text text-anchor="middle" x="498" y="-175.5" font-family="Helvetica,sans-Serif" font-size="10.00">packet_io_types.h</text>
</a>
</g>
</g>
<!-- Node29&#45;&gt;Node30 -->
<g id="edge30" class="edge">
<title>Node29&#45;&gt;Node30</title>
<path fill="none" stroke="midnightblue" d="M498,-213.8C498,-204.91 498,-194.78 498,-187.75"/>
<polygon fill="midnightblue" stroke="midnightblue" points="494.5,-214.08 498,-224.08 501.5,-214.08 494.5,-214.08"/>
</g>
<!-- Node30&#45;&gt;Node13 -->
<g id="edge31" class="edge">
<title>Node30&#45;&gt;Node13</title>
<path fill="none" stroke="midnightblue" d="M477.1,-162.34C463.09,-152.52 445.12,-139.91 433.34,-131.65"/>
<polygon fill="midnightblue" stroke="midnightblue" points="475.43,-165.45 485.63,-168.32 479.45,-159.72 475.43,-165.45"/>
</g>
<!-- Node30&#45;&gt;Node15 -->
<g id="edge32" class="edge">
<title>Node30&#45;&gt;Node15</title>
<path fill="none" stroke="midnightblue" d="M495.24,-157.93C490.04,-121.92 478.95,-45.23 475.24,-19.57"/>
<polygon fill="midnightblue" stroke="midnightblue" points="491.81,-158.68 496.71,-168.08 498.74,-157.68 491.81,-158.68"/>
</g>
<!-- Node30&#45;&gt;Node20 -->
<g id="edge34" class="edge">
<title>Node30&#45;&gt;Node20</title>
<path fill="none" stroke="midnightblue" d="M505.87,-158.86C521.31,-123.25 555.06,-45.45 566.28,-19.57"/>
<polygon fill="midnightblue" stroke="midnightblue" points="502.64,-157.51 501.87,-168.08 509.06,-160.29 502.64,-157.51"/>
</g>
<!-- Node30&#45;&gt;Node27 -->
<g id="edge33" class="edge">
<title>Node30&#45;&gt;Node27</title>
<path fill="none" stroke="midnightblue" d="M560.48,-167.13C634.81,-155.4 755.77,-136.3 810.93,-127.59"/>
<polygon fill="midnightblue" stroke="midnightblue" points="559.65,-163.72 550.31,-168.74 560.74,-170.64 559.65,-163.72"/>
</g>
<!-- Node34 -->
<g id="node29" class="node">
<title>Node34</title>
<g id="a_node29"><a xlink:href="pool_8h.html" target="_top" xlink:title=" ">
<polygon fill="white" stroke="black" points="202.5,-168.5 202.5,-187.5 249.5,-187.5 249.5,-168.5 202.5,-168.5"/>
<text text-anchor="middle" x="226" y="-175.5" font-family="Helvetica,sans-Serif" font-size="10.00">pool.h</text>
</a>
</g>
</g>
<!-- Node33&#45;&gt;Node34 -->
<g id="edge36" class="edge">
<title>Node33&#45;&gt;Node34</title>
<path fill="none" stroke="midnightblue" d="M226,-213.8C226,-204.91 226,-194.78 226,-187.75"/>
<polygon fill="midnightblue" stroke="midnightblue" points="222.5,-214.08 226,-224.08 229.5,-214.08 222.5,-214.08"/>
</g>
<!-- Node36 -->
<g id="node31" class="node">
<title>Node36</title>
<g id="a_node31"><a xlink:href="timer_8h.html" target="_top" xlink:title=" ">
<polygon fill="white" stroke="black" points="1239.5,-168.5 1239.5,-187.5 1290.5,-187.5 1290.5,-168.5 1239.5,-168.5"/>
<text text-anchor="middle" x="1265" y="-175.5" font-family="Helvetica,sans-Serif" font-size="10.00">timer.h</text>
</a>
</g>
</g>
<!-- Node35&#45;&gt;Node36 -->
<g id="edge38" class="edge">
<title>Node35&#45;&gt;Node36</title>
<path fill="none" stroke="midnightblue" d="M1265,-213.8C1265,-204.91 1265,-194.78 1265,-187.75"/>
<polygon fill="midnightblue" stroke="midnightblue" points="1261.5,-214.08 1265,-224.08 1268.5,-214.08 1261.5,-214.08"/>
</g>
<!-- Node42 -->
<g id="node37" class="node">
<title>Node42</title>
<g id="a_node37"><a xlink:href="event_8h.html" target="_top" xlink:title=" ">
<polygon fill="white" stroke="black" points="1070.5,-280.5 1070.5,-299.5 1123.5,-299.5 1123.5,-280.5 1070.5,-280.5"/>
<text text-anchor="middle" x="1097" y="-287.5" font-family="Helvetica,sans-Serif" font-size="10.00">event.h</text>
</a>
</g>
</g>
<!-- Node41&#45;&gt;Node42 -->
<g id="edge46" class="edge">
<title>Node41&#45;&gt;Node42</title>
<path fill="none" stroke="midnightblue" d="M1104.15,-326.1C1102.32,-317.14 1100.23,-306.86 1098.78,-299.75"/>
<polygon fill="midnightblue" stroke="midnightblue" points="1100.76,-326.98 1106.18,-336.08 1107.62,-325.59 1100.76,-326.98"/>
</g>
<!-- Node42&#45;&gt;Node26 -->
<g id="edge48" class="edge">
<title>Node42&#45;&gt;Node26</title>
<path fill="none" stroke="midnightblue" d="M1093.71,-270.46C1090.75,-256.91 1085.52,-238.46 1077,-224 1022.03,-130.69 918.41,-46.5 883.68,-19.78"/>
<polygon fill="midnightblue" stroke="midnightblue" points="1090.32,-271.35 1095.69,-280.49 1097.19,-270 1090.32,-271.35"/>
</g>
<!-- Node42&#45;&gt;Node19 -->
<g id="edge49" class="edge">
<title>Node42&#45;&gt;Node19</title>
<path fill="none" stroke="midnightblue" d="M1109.05,-271.91C1135.8,-231.69 1194.58,-128.94 1153,-56 1142.75,-38.02 1122.17,-26.49 1105.02,-19.6"/>
<polygon fill="midnightblue" stroke="midnightblue" points="1106.05,-270.1 1103.3,-280.33 1111.83,-274.04 1106.05,-270.1"/>
</g>
<!-- Node42&#45;&gt;Node37 -->
<g id="edge47" class="edge">
<title>Node42&#45;&gt;Node37</title>
<path fill="none" stroke="midnightblue" d="M1060.07,-283.15C1006.18,-274.61 902.87,-258.2 815,-244 812.13,-243.54 809.19,-243.06 806.21,-242.58"/>
<polygon fill="midnightblue" stroke="midnightblue" points="1059.74,-286.65 1070.17,-284.75 1060.84,-279.73 1059.74,-286.65"/>
</g>
<!-- Node42&#45;&gt;Node38 -->
<g id="edge50" class="edge">
<title>Node42&#45;&gt;Node38</title>
<path fill="none" stroke="midnightblue" d="M1060.44,-280.23C1018.24,-270.1 949.3,-253.55 907.54,-243.53"/>
<polygon fill="midnightblue" stroke="midnightblue" points="1059.77,-283.66 1070.31,-282.59 1061.4,-276.86 1059.77,-283.66"/>
</g>
<!-- Node42&#45;&gt;Node39 -->
<g id="edge51" class="edge">
<title>Node42&#45;&gt;Node39</title>
<path fill="none" stroke="midnightblue" d="M1072.94,-275.18C1055.64,-265.24 1032.85,-252.15 1018.07,-243.65"/>
<polygon fill="midnightblue" stroke="midnightblue" points="1071.48,-278.38 1081.9,-280.32 1074.97,-272.31 1071.48,-278.38"/>
</g>
<!-- Node43 -->
<g id="node38" class="node">
<title>Node43</title>
<g id="a_node38"><a xlink:href="timer__inlines_8h_source.html" target="_top" xlink:title=" ">
<polygon fill="white" stroke="black" points="1321.5,-224.5 1321.5,-243.5 1410.5,-243.5 1410.5,-224.5 1321.5,-224.5"/>
<text text-anchor="middle" x="1366" y="-231.5" font-family="Helvetica,sans-Serif" font-size="10.00">timer_inlines.h</text>
</a>
</g>
</g>
<!-- Node42&#45;&gt;Node43 -->
<g id="edge52" class="edge">
<title>Node42&#45;&gt;Node43</title>
<path fill="none" stroke="midnightblue" d="M1133.73,-281.63C1183.25,-271.69 1271.22,-254.03 1323.52,-243.53"/>
<polygon fill="midnightblue" stroke="midnightblue" points="1132.89,-278.23 1123.78,-283.62 1134.27,-285.09 1132.89,-278.23"/>
</g>
<!-- Node45 -->
<g id="node40" class="node">
<title>Node45</title>
<g id="a_node40"><a xlink:href="queue_8h.html" target="_top" xlink:title=" ">
<polygon fill="white" stroke="black" points="1277,-392.5 1277,-411.5 1333,-411.5 1333,-392.5 1277,-392.5"/>
<text text-anchor="middle" x="1305" y="-399.5" font-family="Helvetica,sans-Serif" font-size="10.00">queue.h</text>
</a>
</g>
</g>
<!-- Node44&#45;&gt;Node45 -->
<g id="edge56" class="edge">
<title>Node44&#45;&gt;Node45</title>
<path fill="none" stroke="midnightblue" d="M1305,-437.8C1305,-428.91 1305,-418.78 1305,-411.75"/>
<polygon fill="midnightblue" stroke="midnightblue" points="1301.5,-438.08 1305,-448.08 1308.5,-438.08 1301.5,-438.08"/>
</g>
<!-- Node47 -->
<g id="node42" class="node">
<title>Node47</title>
<g id="a_node42"><a xlink:href="schedule_8h.html" target="_top" xlink:title=" ">
<polygon fill="white" stroke="black" points="1351.5,-392.5 1351.5,-411.5 1420.5,-411.5 1420.5,-392.5 1351.5,-392.5"/>
<text text-anchor="middle" x="1386" y="-399.5" font-family="Helvetica,sans-Serif" font-size="10.00">schedule.h</text>
</a>
</g>
</g>
<!-- Node46&#45;&gt;Node47 -->
<g id="edge58" class="edge">
<title>Node46&#45;&gt;Node47</title>
<path fill="none" stroke="midnightblue" d="M1386,-437.8C1386,-428.91 1386,-418.78 1386,-411.75"/>
<polygon fill="midnightblue" stroke="midnightblue" points="1382.5,-438.08 1386,-448.08 1389.5,-438.08 1382.5,-438.08"/>
</g>
<!-- Node49 -->
<g id="node44" class="node">
<title>Node49</title>
<g id="a_node44"><a xlink:href="timer__types_8h.html" target="_top" xlink:title=" ">
<polygon fill="white" stroke="black" points="1334,-280.5 1334,-299.5 1418,-299.5 1418,-280.5 1334,-280.5"/>
<text text-anchor="middle" x="1376" y="-287.5" font-family="Helvetica,sans-Serif" font-size="10.00">timer_types.h</text>
</a>
</g>
</g>
<!-- Node48&#45;&gt;Node49 -->
<g id="edge61" class="edge">
<title>Node48&#45;&gt;Node49</title>
<path fill="none" stroke="midnightblue" d="M1381.85,-326.1C1380.36,-317.14 1378.64,-306.86 1377.46,-299.75"/>
<polygon fill="midnightblue" stroke="midnightblue" points="1378.42,-326.79 1383.51,-336.08 1385.32,-325.64 1378.42,-326.79"/>
</g>
<!-- Node49&#45;&gt;Node35 -->
<g id="edge62" class="edge">
<title>Node49&#45;&gt;Node35</title>
<path fill="none" stroke="midnightblue" d="M1348.99,-275.86C1328.41,-265.85 1300.66,-252.35 1282.79,-243.65"/>
<polygon fill="midnightblue" stroke="midnightblue" points="1347.64,-279.1 1358.17,-280.32 1350.7,-272.8 1347.64,-279.1"/>
</g>
<!-- Node49&#45;&gt;Node43 -->
<g id="edge64" class="edge">
<title>Node49&#45;&gt;Node43</title>
<path fill="none" stroke="midnightblue" d="M1372.5,-270.1C1370.84,-261.14 1368.94,-250.86 1367.62,-243.75"/>
<polygon fill="midnightblue" stroke="midnightblue" points="1369.09,-270.89 1374.35,-280.08 1375.97,-269.61 1369.09,-270.89"/>
</g>
<!-- Node49&#45;&gt;Node50 -->
<g id="edge63" class="edge">
<title>Node49&#45;&gt;Node50</title>
<path fill="none" stroke="midnightblue" d="M1401.83,-275.59C1421.06,-265.61 1446.74,-252.27 1463.33,-243.65"/>
<polygon fill="midnightblue" stroke="midnightblue" points="1399.97,-272.61 1392.71,-280.32 1403.2,-278.82 1399.97,-272.61"/>
</g>
<!-- Node52 -->
<g id="node47" class="node">
<title>Node52</title>
<g id="a_node47"><a xlink:href="queue__inlines_8h_source.html" target="_top" xlink:title=" ">
<polygon fill="white" stroke="black" points="1623.5,-392.5 1623.5,-411.5 1716.5,-411.5 1716.5,-392.5 1623.5,-392.5"/>
<text text-anchor="middle" x="1670" y="-399.5" font-family="Helvetica,sans-Serif" font-size="10.00">queue_inlines.h</text>
</a>
</g>
</g>
<!-- Node51&#45;&gt;Node52 -->
<g id="edge68" class="edge">
<title>Node51&#45;&gt;Node52</title>
<path fill="none" stroke="midnightblue" d="M1612.77,-442.62C1627.02,-432.76 1645.46,-419.99 1657.5,-411.65"/>
<polygon fill="midnightblue" stroke="midnightblue" points="1610.76,-439.75 1604.53,-448.32 1614.75,-445.51 1610.76,-439.75"/>
</g>
<!-- Node53&#45;&gt;Node52 -->
<g id="edge70" class="edge">
<title>Node53&#45;&gt;Node52</title>
<path fill="none" stroke="midnightblue" d="M1726.1,-442.34C1712.09,-432.52 1694.12,-419.91 1682.34,-411.65"/>
<polygon fill="midnightblue" stroke="midnightblue" points="1724.43,-445.45 1734.63,-448.32 1728.45,-439.72 1724.43,-445.45"/>
</g>
<!-- Node54&#45;&gt;Node55 -->
<g id="edge72" class="edge">
<title>Node54&#45;&gt;Node55</title>
<path fill="none" stroke="midnightblue" d="M1906.42,-440.43C1914.66,-430.97 1924.65,-419.48 1931.38,-411.75"/>
<polygon fill="midnightblue" stroke="midnightblue" points="1903.69,-438.24 1899.76,-448.08 1908.97,-442.84 1903.69,-438.24"/>
</g>
</g>
</svg>
