<?xml version="1.0" encoding="UTF-8" standalone="no"?>
<!DOCTYPE svg PUBLIC "-//W3C//DTD SVG 1.1//EN"
 "http://www.w3.org/Graphics/SVG/1.1/DTD/svg11.dtd">
<!-- Generated by graphviz version 2.43.0 (0)
 -->
<!-- Title: packet_io_types.h Pages: 1 -->
<svg width="1458pt" height="1113pt"
 viewBox="0.00 0.00 1458.00 1113.00" xmlns="http://www.w3.org/2000/svg" xmlns:xlink="http://www.w3.org/1999/xlink">
<g id="graph0" class="graph" transform="scale(1 1) rotate(0) translate(4 1109)">
<title>packet_io_types.h</title>
<polygon fill="white" stroke="transparent" points="-4,4 -4,-1109 1454,-1109 1454,4 -4,4"/>
<!-- Node1 -->
<g id="node1" class="node">
<title>Node1</title>
<g id="a_node1"><a xlink:title=" ">
<polygon fill="#bfbfbf" stroke="black" points="185,-1085.5 185,-1104.5 289,-1104.5 289,-1085.5 185,-1085.5"/>
<text text-anchor="middle" x="237" y="-1092.5" font-family="Helvetica,sans-Serif" font-size="10.00">packet_io_types.h</text>
</a>
</g>
</g>
<!-- Node2 -->
<g id="node2" class="node">
<title>Node2</title>
<g id="a_node2"><a xlink:title=" ">
<polygon fill="white" stroke="#bfbfbf" points="240,-671.5 240,-701.5 346,-701.5 346,-671.5 240,-671.5"/>
<text text-anchor="start" x="248" y="-689.5" font-family="Helvetica,sans-Serif" font-size="10.00">odp/api/abi/packet</text>
<text text-anchor="middle" x="293" y="-678.5" font-family="Helvetica,sans-Serif" font-size="10.00">_io_types.h</text>
</a>
</g>
</g>
<!-- Node1&#45;&gt;Node2 -->
<g id="edge1" class="edge">
<title>Node1&#45;&gt;Node2</title>
<path fill="none" stroke="midnightblue" d="M184.99,-1090.12C115.22,-1081.76 0,-1055.46 0,-973 0,-973 0,-973 0,-803 0,-778.06 148.85,-729.99 234.37,-704.44"/>
<polygon fill="midnightblue" stroke="midnightblue" points="235.37,-707.79 243.96,-701.59 233.38,-701.08 235.37,-707.79"/>
</g>
<!-- Node3 -->
<g id="node3" class="node">
<title>Node3</title>
<g id="a_node3"><a xlink:href="spec_2packet__io__types_8h.html" target="_top" xlink:title=" ">
<polygon fill="white" stroke="black" points="419.5,-1018.5 419.5,-1048.5 532.5,-1048.5 532.5,-1018.5 419.5,-1018.5"/>
<text text-anchor="start" x="427.5" y="-1036.5" font-family="Helvetica,sans-Serif" font-size="10.00">odp/api/spec/packet</text>
<text text-anchor="middle" x="476" y="-1025.5" font-family="Helvetica,sans-Serif" font-size="10.00">_io_types.h</text>
</a>
</g>
</g>
<!-- Node1&#45;&gt;Node3 -->
<g id="edge2" class="edge">
<title>Node1&#45;&gt;Node3</title>
<path fill="none" stroke="midnightblue" d="M271.24,-1085.48C307.24,-1076.51 364.78,-1062.19 409.71,-1051"/>
<polygon fill="midnightblue" stroke="midnightblue" points="410.81,-1054.34 419.67,-1048.52 409.12,-1047.54 410.81,-1054.34"/>
</g>
<!-- Node4 -->
<g id="node4" class="node">
<title>Node4</title>
<g id="a_node4"><a xlink:title=" ">
<polygon fill="white" stroke="#bfbfbf" points="272.5,-0.5 272.5,-19.5 393.5,-19.5 393.5,-0.5 272.5,-0.5"/>
<text text-anchor="middle" x="333" y="-7.5" font-family="Helvetica,sans-Serif" font-size="10.00">odp/visibility_begin.h</text>
</a>
</g>
</g>
<!-- Node3&#45;&gt;Node4 -->
<g id="edge3" class="edge">
<title>Node3&#45;&gt;Node4</title>
<path fill="none" stroke="midnightblue" d="M419.19,-1029.42C300.68,-1021.44 38,-994.95 38,-917 38,-917 38,-917 38,-132 38,-93.19 49.33,-78.43 81,-56 109.53,-35.79 198.17,-23.43 262.27,-16.9"/>
<polygon fill="midnightblue" stroke="midnightblue" points="262.72,-20.37 272.33,-15.9 262.03,-13.4 262.72,-20.37"/>
</g>
<!-- Node5 -->
<g id="node5" class="node">
<title>Node5</title>
<g id="a_node5"><a xlink:href="packet__types_8h.html" target="_top" xlink:title=" ">
<polygon fill="white" stroke="black" points="411.5,-738.5 411.5,-757.5 540.5,-757.5 540.5,-738.5 411.5,-738.5"/>
<text text-anchor="middle" x="476" y="-745.5" font-family="Helvetica,sans-Serif" font-size="10.00">odp/api/packet_types.h</text>
</a>
</g>
</g>
<!-- Node3&#45;&gt;Node5 -->
<g id="edge4" class="edge">
<title>Node3&#45;&gt;Node5</title>
<path fill="none" stroke="midnightblue" d="M476,-1018.28C476,-996.48 476,-953.49 476,-917 476,-917 476,-917 476,-859 476,-826.95 476,-789.64 476,-767.75"/>
<polygon fill="midnightblue" stroke="midnightblue" points="479.5,-767.56 476,-757.56 472.5,-767.56 479.5,-767.56"/>
</g>
<!-- Node11 -->
<g id="node11" class="node">
<title>Node11</title>
<g id="a_node11"><a xlink:href="std__types_8h.html" target="_top" xlink:title=" ">
<polygon fill="white" stroke="black" points="926,-235.5 926,-254.5 1038,-254.5 1038,-235.5 926,-235.5"/>
<text text-anchor="middle" x="982" y="-242.5" font-family="Helvetica,sans-Serif" font-size="10.00">odp/api/std_types.h</text>
</a>
</g>
</g>
<!-- Node3&#45;&gt;Node11 -->
<g id="edge74" class="edge">
<title>Node3&#45;&gt;Node11</title>
<path fill="none" stroke="midnightblue" d="M532.56,-1028.8C695.27,-1017.4 1153,-979.75 1153,-917 1153,-917 1153,-917 1153,-747 1153,-566.84 1091.28,-530.41 1039,-358 1029.94,-328.14 1032.67,-318.55 1018,-291 1012.49,-280.64 1004.47,-270.33 997.4,-262.2"/>
<polygon fill="midnightblue" stroke="midnightblue" points="999.83,-259.66 990.52,-254.6 994.64,-264.36 999.83,-259.66"/>
</g>
<!-- Node18 -->
<g id="node18" class="node">
<title>Node18</title>
<g id="a_node18"><a xlink:title=" ">
<polygon fill="white" stroke="#bfbfbf" points="1166,-0.5 1166,-19.5 1278,-19.5 1278,-0.5 1166,-0.5"/>
<text text-anchor="middle" x="1222" y="-7.5" font-family="Helvetica,sans-Serif" font-size="10.00">odp/visibility_end.h</text>
</a>
</g>
</g>
<!-- Node3&#45;&gt;Node18 -->
<g id="edge75" class="edge">
<title>Node3&#45;&gt;Node18</title>
<path fill="none" stroke="midnightblue" d="M532.51,-1031.81C695.17,-1029.41 1162.25,-1019.35 1310,-982 1376.51,-965.19 1450,-985.6 1450,-917 1450,-917 1450,-917 1450,-132 1450,-58.15 1355.52,-29.24 1288.2,-18.01"/>
<polygon fill="midnightblue" stroke="midnightblue" points="1288.49,-14.51 1278.07,-16.42 1287.4,-21.43 1288.49,-14.51"/>
</g>
<!-- Node19 -->
<g id="node19" class="node">
<title>Node19</title>
<g id="a_node19"><a xlink:href="queue__types_8h.html" target="_top" xlink:title=" ">
<polygon fill="white" stroke="black" points="329.5,-615.5 329.5,-634.5 456.5,-634.5 456.5,-615.5 329.5,-615.5"/>
<text text-anchor="middle" x="393" y="-622.5" font-family="Helvetica,sans-Serif" font-size="10.00">odp/api/queue_types.h</text>
</a>
</g>
</g>
<!-- Node3&#45;&gt;Node19 -->
<g id="edge68" class="edge">
<title>Node3&#45;&gt;Node19</title>
<path fill="none" stroke="midnightblue" d="M453.49,-1018.33C425.96,-999.06 383,-961.8 383,-917 383,-917 383,-917 383,-747 383,-710.77 387.51,-668.65 390.47,-644.87"/>
<polygon fill="midnightblue" stroke="midnightblue" points="393.96,-645.15 391.77,-634.79 387.02,-644.25 393.96,-645.15"/>
</g>
<!-- Node28 -->
<g id="node28" class="node">
<title>Node28</title>
<g id="a_node28"><a xlink:href="packet__io__stats_8h.html" target="_top" xlink:title=" ">
<polygon fill="white" stroke="black" points="215,-738.5 215,-757.5 355,-757.5 355,-738.5 215,-738.5"/>
<text text-anchor="middle" x="285" y="-745.5" font-family="Helvetica,sans-Serif" font-size="10.00">odp/api/packet_io_stats.h</text>
</a>
</g>
</g>
<!-- Node3&#45;&gt;Node28 -->
<g id="edge43" class="edge">
<title>Node3&#45;&gt;Node28</title>
<path fill="none" stroke="midnightblue" d="M422.84,-1018.42C375.94,-1002.41 315,-971.18 315,-917 315,-917 315,-917 315,-859 315,-825.64 302,-788.53 293.11,-767.07"/>
<polygon fill="midnightblue" stroke="midnightblue" points="296.22,-765.42 289.05,-757.62 289.79,-768.19 296.22,-765.42"/>
</g>
<!-- Node30 -->
<g id="node30" class="node">
<title>Node30</title>
<g id="a_node30"><a xlink:href="pool__types_8h.html" target="_top" xlink:title=" ">
<polygon fill="white" stroke="black" points="801,-962.5 801,-981.5 919,-981.5 919,-962.5 801,-962.5"/>
<text text-anchor="middle" x="860" y="-969.5" font-family="Helvetica,sans-Serif" font-size="10.00">odp/api/pool_types.h</text>
</a>
</g>
</g>
<!-- Node3&#45;&gt;Node30 -->
<g id="edge49" class="edge">
<title>Node3&#45;&gt;Node30</title>
<path fill="none" stroke="midnightblue" d="M532.66,-1023.72C602.6,-1012.88 721.28,-994.49 794.9,-983.09"/>
<polygon fill="midnightblue" stroke="midnightblue" points="795.63,-986.52 804.98,-981.53 794.56,-979.6 795.63,-986.52"/>
</g>
<!-- Node39 -->
<g id="node39" class="node">
<title>Node39</title>
<g id="a_node39"><a xlink:href="reassembly_8h.html" target="_top" xlink:title=" ">
<polygon fill="white" stroke="black" points="1181,-962.5 1181,-981.5 1301,-981.5 1301,-962.5 1181,-962.5"/>
<text text-anchor="middle" x="1241" y="-969.5" font-family="Helvetica,sans-Serif" font-size="10.00">odp/api/reassembly.h</text>
</a>
</g>
</g>
<!-- Node3&#45;&gt;Node39 -->
<g id="edge69" class="edge">
<title>Node3&#45;&gt;Node39</title>
<path fill="none" stroke="midnightblue" d="M532.51,-1029.29C650.52,-1022.39 931.75,-1004.89 1167,-982 1168.27,-981.88 1169.55,-981.75 1170.84,-981.62"/>
<polygon fill="midnightblue" stroke="midnightblue" points="1171.27,-985.09 1180.85,-980.56 1170.54,-978.13 1171.27,-985.09"/>
</g>
<!-- Node5&#45;&gt;Node2 -->
<g id="edge5" class="edge">
<title>Node5&#45;&gt;Node2</title>
<path fill="none" stroke="midnightblue" d="M449.78,-738.48C422.8,-729.7 380,-715.79 345.94,-704.71"/>
<polygon fill="midnightblue" stroke="midnightblue" points="346.72,-701.29 336.13,-701.52 344.56,-707.94 346.72,-701.29"/>
</g>
<!-- Node6 -->
<g id="node6" class="node">
<title>Node6</title>
<g id="a_node6"><a xlink:title=" ">
<polygon fill="white" stroke="#bfbfbf" points="417,-671.5 417,-701.5 523,-701.5 523,-671.5 417,-671.5"/>
<text text-anchor="start" x="425" y="-689.5" font-family="Helvetica,sans-Serif" font-size="10.00">odp/api/abi/packet</text>
<text text-anchor="middle" x="470" y="-678.5" font-family="Helvetica,sans-Serif" font-size="10.00">_types.h</text>
</a>
</g>
</g>
<!-- Node5&#45;&gt;Node6 -->
<g id="edge6" class="edge">
<title>Node5&#45;&gt;Node6</title>
<path fill="none" stroke="midnightblue" d="M475.14,-738.48C474.43,-731.47 473.4,-721.19 472.44,-711.7"/>
<polygon fill="midnightblue" stroke="midnightblue" points="475.9,-711.12 471.41,-701.52 468.94,-711.82 475.9,-711.12"/>
</g>
<!-- Node7 -->
<g id="node7" class="node">
<title>Node7</title>
<g id="a_node7"><a xlink:href="spec_2packet__types_8h.html" target="_top" xlink:title=" ">
<polygon fill="white" stroke="black" points="579.5,-671.5 579.5,-701.5 692.5,-701.5 692.5,-671.5 579.5,-671.5"/>
<text text-anchor="start" x="587.5" y="-689.5" font-family="Helvetica,sans-Serif" font-size="10.00">odp/api/spec/packet</text>
<text text-anchor="middle" x="636" y="-678.5" font-family="Helvetica,sans-Serif" font-size="10.00">_types.h</text>
</a>
</g>
</g>
<!-- Node5&#45;&gt;Node7 -->
<g id="edge7" class="edge">
<title>Node5&#45;&gt;Node7</title>
<path fill="none" stroke="midnightblue" d="M498.92,-738.48C522.21,-729.81 558.97,-716.15 588.56,-705.14"/>
<polygon fill="midnightblue" stroke="midnightblue" points="590.14,-708.29 598.29,-701.52 587.7,-701.73 590.14,-708.29"/>
</g>
<!-- Node7&#45;&gt;Node4 -->
<g id="edge8" class="edge">
<title>Node7&#45;&gt;Node4</title>
<path fill="none" stroke="midnightblue" d="M626.68,-671.26C602.37,-635.29 533.18,-540.22 451,-492 395.96,-459.7 369.91,-482.81 312,-456 290.29,-445.95 289.07,-436.33 268,-425 229.33,-404.21 205.67,-421.36 176,-389 150.48,-361.17 152,-345.26 152,-307.5 152,-307.5 152,-307.5 152,-132 152,-96.58 150.62,-80.71 176,-56 199,-33.61 232.36,-22.22 262.42,-16.48"/>
<polygon fill="midnightblue" stroke="midnightblue" points="263.21,-19.9 272.46,-14.75 262.01,-13 263.21,-19.9"/>
</g>
<!-- Node8 -->
<g id="node8" class="node">
<title>Node8</title>
<g id="a_node8"><a xlink:href="proto__stats__types_8h.html" target="_top" xlink:title=" ">
<polygon fill="white" stroke="black" points="700,-358.5 700,-388.5 810,-388.5 810,-358.5 700,-358.5"/>
<text text-anchor="start" x="708" y="-376.5" font-family="Helvetica,sans-Serif" font-size="10.00">odp/api/proto_stats</text>
<text text-anchor="middle" x="755" y="-365.5" font-family="Helvetica,sans-Serif" font-size="10.00">_types.h</text>
</a>
</g>
</g>
<!-- Node7&#45;&gt;Node8 -->
<g id="edge9" class="edge">
<title>Node7&#45;&gt;Node8</title>
<path fill="none" stroke="midnightblue" d="M637.74,-671.37C640.35,-648.81 645,-603.26 645,-564.5 645,-564.5 645,-564.5 645,-501 645,-454.05 688.69,-416.03 721,-394.34"/>
<polygon fill="midnightblue" stroke="midnightblue" points="723.27,-397.04 729.76,-388.66 719.47,-391.16 723.27,-397.04"/>
</g>
<!-- Node7&#45;&gt;Node18 -->
<g id="edge42" class="edge">
<title>Node7&#45;&gt;Node18</title>
<path fill="none" stroke="midnightblue" d="M673.14,-671.43C817.86,-615.46 1336,-404.02 1336,-246 1336,-246 1336,-246 1336,-132 1336,-81.35 1282.42,-43.28 1248.73,-24.34"/>
<polygon fill="midnightblue" stroke="midnightblue" points="1250.27,-21.2 1239.81,-19.52 1246.94,-27.36 1250.27,-21.2"/>
</g>
<!-- Node7&#45;&gt;Node19 -->
<g id="edge25" class="edge">
<title>Node7&#45;&gt;Node19</title>
<path fill="none" stroke="midnightblue" d="M579.33,-671.62C536.15,-661.05 477.52,-646.69 437.64,-636.93"/>
<polygon fill="midnightblue" stroke="midnightblue" points="438.47,-633.53 427.92,-634.55 436.8,-640.33 438.47,-633.53"/>
</g>
<!-- Node9 -->
<g id="node9" class="node">
<title>Node9</title>
<g id="a_node9"><a xlink:title=" ">
<polygon fill="white" stroke="#bfbfbf" points="788,-291.5 788,-321.5 916,-321.5 916,-291.5 788,-291.5"/>
<text text-anchor="start" x="796" y="-309.5" font-family="Helvetica,sans-Serif" font-size="10.00">odp/api/abi/proto_stats</text>
<text text-anchor="middle" x="852" y="-298.5" font-family="Helvetica,sans-Serif" font-size="10.00">_types.h</text>
</a>
</g>
</g>
<!-- Node8&#45;&gt;Node9 -->
<g id="edge10" class="edge">
<title>Node8&#45;&gt;Node9</title>
<path fill="none" stroke="midnightblue" d="M776.05,-358.4C789.65,-349.28 807.54,-337.29 822.55,-327.24"/>
<polygon fill="midnightblue" stroke="midnightblue" points="824.63,-330.05 830.99,-321.58 820.74,-324.24 824.63,-330.05"/>
</g>
<!-- Node10 -->
<g id="node10" class="node">
<title>Node10</title>
<g id="a_node10"><a xlink:href="spec_2proto__stats__types_8h.html" target="_top" xlink:title=" ">
<polygon fill="white" stroke="black" points="662.5,-291.5 662.5,-321.5 769.5,-321.5 769.5,-291.5 662.5,-291.5"/>
<text text-anchor="start" x="670.5" y="-309.5" font-family="Helvetica,sans-Serif" font-size="10.00">odp/api/spec/proto</text>
<text text-anchor="middle" x="716" y="-298.5" font-family="Helvetica,sans-Serif" font-size="10.00">_stats_types.h</text>
</a>
</g>
</g>
<!-- Node8&#45;&gt;Node10 -->
<g id="edge11" class="edge">
<title>Node8&#45;&gt;Node10</title>
<path fill="none" stroke="midnightblue" d="M746.54,-358.4C741.63,-350.22 735.34,-339.73 729.74,-330.39"/>
<polygon fill="midnightblue" stroke="midnightblue" points="732.59,-328.35 724.45,-321.58 726.59,-331.95 732.59,-328.35"/>
</g>
<!-- Node10&#45;&gt;Node4 -->
<g id="edge12" class="edge">
<title>Node10&#45;&gt;Node4</title>
<path fill="none" stroke="midnightblue" d="M686.08,-291.36C634.7,-266.18 527.9,-209.91 452,-143 414.77,-110.18 415.93,-92.22 382,-56 372.23,-45.57 360.45,-34.71 350.9,-26.27"/>
<polygon fill="midnightblue" stroke="midnightblue" points="353.02,-23.47 343.17,-19.55 348.42,-28.75 353.02,-23.47"/>
</g>
<!-- Node10&#45;&gt;Node11 -->
<g id="edge13" class="edge">
<title>Node10&#45;&gt;Node11</title>
<path fill="none" stroke="midnightblue" d="M769.61,-293.13C772.79,-292.41 775.93,-291.69 779,-291 831.59,-279.12 891.9,-265.79 933.04,-256.74"/>
<polygon fill="midnightblue" stroke="midnightblue" points="934.05,-260.1 943.06,-254.53 932.54,-253.26 934.05,-260.1"/>
</g>
<!-- Node10&#45;&gt;Node18 -->
<g id="edge24" class="edge">
<title>Node10&#45;&gt;Node18</title>
<path fill="none" stroke="midnightblue" d="M767.03,-291.46C817.65,-275.55 895.21,-245.6 949,-199 1006.12,-149.52 979.55,-100 1041,-56 1074.33,-32.14 1118.96,-20.87 1155.56,-15.58"/>
<polygon fill="midnightblue" stroke="midnightblue" points="1156.2,-19.02 1165.66,-14.24 1155.28,-12.08 1156.2,-19.02"/>
</g>
<!-- Node12 -->
<g id="node12" class="node">
<title>Node12</title>
<g id="a_node12"><a xlink:title=" ">
<polygon fill="white" stroke="#bfbfbf" points="997,-179.5 997,-198.5 1127,-198.5 1127,-179.5 997,-179.5"/>
<text text-anchor="middle" x="1062" y="-186.5" font-family="Helvetica,sans-Serif" font-size="10.00">odp/api/abi/std_types.h</text>
</a>
</g>
</g>
<!-- Node11&#45;&gt;Node12 -->
<g id="edge14" class="edge">
<title>Node11&#45;&gt;Node12</title>
<path fill="none" stroke="midnightblue" d="M994.85,-235.32C1007.22,-226.98 1026.13,-214.21 1040.74,-204.35"/>
<polygon fill="midnightblue" stroke="midnightblue" points="1042.85,-207.15 1049.18,-198.65 1038.93,-201.35 1042.85,-207.15"/>
</g>
<!-- Node13 -->
<g id="node13" class="node">
<title>Node13</title>
<g id="a_node13"><a xlink:href="spec_2std__types_8h.html" target="_top" xlink:title=" ">
<polygon fill="white" stroke="black" points="803.5,-179.5 803.5,-198.5 940.5,-198.5 940.5,-179.5 803.5,-179.5"/>
<text text-anchor="middle" x="872" y="-186.5" font-family="Helvetica,sans-Serif" font-size="10.00">odp/api/spec/std_types.h</text>
</a>
</g>
</g>
<!-- Node11&#45;&gt;Node13 -->
<g id="edge15" class="edge">
<title>Node11&#45;&gt;Node13</title>
<path fill="none" stroke="midnightblue" d="M964.33,-235.32C946.61,-226.62 919.1,-213.12 898.71,-203.11"/>
<polygon fill="midnightblue" stroke="midnightblue" points="900.15,-199.92 889.63,-198.65 897.06,-206.2 900.15,-199.92"/>
</g>
<!-- Node13&#45;&gt;Node4 -->
<g id="edge16" class="edge">
<title>Node13&#45;&gt;Node4</title>
<path fill="none" stroke="midnightblue" d="M834.14,-179.44C798.48,-171.1 743.72,-157.58 697,-143 590.28,-109.7 566.18,-93.87 461,-56 429.3,-44.59 393.07,-31.88 367.27,-22.89"/>
<polygon fill="midnightblue" stroke="midnightblue" points="368.17,-19.5 357.58,-19.52 365.87,-26.11 368.17,-19.5"/>
</g>
<!-- Node14 -->
<g id="node14" class="node">
<title>Node14</title>
<g id="a_node14"><a xlink:title=" ">
<polygon fill="white" stroke="#bfbfbf" points="852.5,-123.5 852.5,-142.5 905.5,-142.5 905.5,-123.5 852.5,-123.5"/>
<text text-anchor="middle" x="879" y="-130.5" font-family="Helvetica,sans-Serif" font-size="10.00">stdint.h</text>
</a>
</g>
</g>
<!-- Node13&#45;&gt;Node14 -->
<g id="edge17" class="edge">
<title>Node13&#45;&gt;Node14</title>
<path fill="none" stroke="midnightblue" d="M873.16,-179.08C874.08,-171.93 875.42,-161.64 876.58,-152.69"/>
<polygon fill="midnightblue" stroke="midnightblue" points="880.05,-153.12 877.87,-142.75 873.11,-152.22 880.05,-153.12"/>
</g>
<!-- Node15 -->
<g id="node15" class="node">
<title>Node15</title>
<g id="a_node15"><a xlink:href="align_8h.html" target="_top" xlink:title=" ">
<polygon fill="white" stroke="black" points="706.5,-123.5 706.5,-142.5 795.5,-142.5 795.5,-123.5 706.5,-123.5"/>
<text text-anchor="middle" x="751" y="-130.5" font-family="Helvetica,sans-Serif" font-size="10.00">odp/api/align.h</text>
</a>
</g>
</g>
<!-- Node13&#45;&gt;Node15 -->
<g id="edge18" class="edge">
<title>Node13&#45;&gt;Node15</title>
<path fill="none" stroke="midnightblue" d="M852.83,-179.44C833.09,-170.64 802.11,-156.81 779.51,-146.72"/>
<polygon fill="midnightblue" stroke="midnightblue" points="780.64,-143.4 770.08,-142.52 777.79,-149.79 780.64,-143.4"/>
</g>
<!-- Node13&#45;&gt;Node18 -->
<g id="edge23" class="edge">
<title>Node13&#45;&gt;Node18</title>
<path fill="none" stroke="midnightblue" d="M940.75,-182.52C1029.51,-174.83 1174.81,-159.85 1193,-143 1224.61,-113.73 1225.8,-58.54 1223.94,-29.67"/>
<polygon fill="midnightblue" stroke="midnightblue" points="1227.42,-29.36 1223.1,-19.68 1220.45,-29.94 1227.42,-29.36"/>
</g>
<!-- Node16 -->
<g id="node16" class="node">
<title>Node16</title>
<g id="a_node16"><a xlink:title=" ">
<polygon fill="white" stroke="#bfbfbf" points="721.5,-62 721.5,-81 828.5,-81 828.5,-62 721.5,-62"/>
<text text-anchor="middle" x="775" y="-69" font-family="Helvetica,sans-Serif" font-size="10.00">odp/api/abi/align.h</text>
</a>
</g>
</g>
<!-- Node15&#45;&gt;Node16 -->
<g id="edge19" class="edge">
<title>Node15&#45;&gt;Node16</title>
<path fill="none" stroke="midnightblue" d="M754.44,-123.48C757.9,-114.9 763.33,-101.43 767.75,-90.48"/>
<polygon fill="midnightblue" stroke="midnightblue" points="771.07,-91.59 771.57,-81.01 764.58,-88.97 771.07,-91.59"/>
</g>
<!-- Node17 -->
<g id="node17" class="node">
<title>Node17</title>
<g id="a_node17"><a xlink:href="spec_2align_8h.html" target="_top" xlink:title=" ">
<polygon fill="white" stroke="black" points="589,-62 589,-81 703,-81 703,-62 589,-62"/>
<text text-anchor="middle" x="646" y="-69" font-family="Helvetica,sans-Serif" font-size="10.00">odp/api/spec/align.h</text>
</a>
</g>
</g>
<!-- Node15&#45;&gt;Node17 -->
<g id="edge20" class="edge">
<title>Node15&#45;&gt;Node17</title>
<path fill="none" stroke="midnightblue" d="M735.96,-123.48C718.72,-113.71 690.26,-97.58 669.97,-86.08"/>
<polygon fill="midnightblue" stroke="midnightblue" points="671.44,-82.89 661.02,-81.01 667.99,-88.98 671.44,-82.89"/>
</g>
<!-- Node17&#45;&gt;Node4 -->
<g id="edge21" class="edge">
<title>Node17&#45;&gt;Node4</title>
<path fill="none" stroke="midnightblue" d="M601.15,-61.98C544.91,-51.28 448.51,-32.96 387.91,-21.44"/>
<polygon fill="midnightblue" stroke="midnightblue" points="388.24,-17.94 377.76,-19.51 386.93,-24.82 388.24,-17.94"/>
</g>
<!-- Node17&#45;&gt;Node18 -->
<g id="edge22" class="edge">
<title>Node17&#45;&gt;Node18</title>
<path fill="none" stroke="midnightblue" d="M680.78,-61.98C690.81,-59.77 701.8,-57.56 712,-56 870.26,-31.74 1058.3,-19.34 1155.86,-14.12"/>
<polygon fill="midnightblue" stroke="midnightblue" points="1156.07,-17.62 1165.87,-13.59 1155.7,-10.62 1156.07,-17.62"/>
</g>
<!-- Node20 -->
<g id="node20" class="node">
<title>Node20</title>
<g id="a_node20"><a xlink:title=" ">
<polygon fill="white" stroke="#bfbfbf" points="193.5,-554 193.5,-573 338.5,-573 338.5,-554 193.5,-554"/>
<text text-anchor="middle" x="266" y="-561" font-family="Helvetica,sans-Serif" font-size="10.00">odp/api/abi/queue_types.h</text>
</a>
</g>
</g>
<!-- Node19&#45;&gt;Node20 -->
<g id="edge26" class="edge">
<title>Node19&#45;&gt;Node20</title>
<path fill="none" stroke="midnightblue" d="M374.8,-615.48C353.49,-605.49 317.97,-588.85 293.34,-577.31"/>
<polygon fill="midnightblue" stroke="midnightblue" points="294.7,-574.08 284.16,-573.01 291.73,-580.42 294.7,-574.08"/>
</g>
<!-- Node21 -->
<g id="node21" class="node">
<title>Node21</title>
<g id="a_node21"><a xlink:href="spec_2queue__types_8h.html" target="_top" xlink:title=" ">
<polygon fill="white" stroke="black" points="356.5,-548.5 356.5,-578.5 467.5,-578.5 467.5,-548.5 356.5,-548.5"/>
<text text-anchor="start" x="364.5" y="-566.5" font-family="Helvetica,sans-Serif" font-size="10.00">odp/api/spec/queue</text>
<text text-anchor="middle" x="412" y="-555.5" font-family="Helvetica,sans-Serif" font-size="10.00">_types.h</text>
</a>
</g>
</g>
<!-- Node19&#45;&gt;Node21 -->
<g id="edge27" class="edge">
<title>Node19&#45;&gt;Node21</title>
<path fill="none" stroke="midnightblue" d="M395.72,-615.48C398.01,-608.32 401.38,-597.75 404.47,-588.08"/>
<polygon fill="midnightblue" stroke="midnightblue" points="407.81,-589.11 407.52,-578.52 401.15,-586.98 407.81,-589.11"/>
</g>
<!-- Node21&#45;&gt;Node4 -->
<g id="edge28" class="edge">
<title>Node21&#45;&gt;Node4</title>
<path fill="none" stroke="midnightblue" d="M364.78,-548.42C280.75,-522.68 114,-468.23 114,-441.5 114,-441.5 114,-441.5 114,-132 114,-96.58 111.98,-80.04 138,-56 156.11,-39.27 214.06,-27.26 262.12,-19.88"/>
<polygon fill="midnightblue" stroke="midnightblue" points="262.83,-23.31 272.2,-18.37 261.8,-16.39 262.83,-23.31"/>
</g>
<!-- Node21&#45;&gt;Node18 -->
<g id="edge41" class="edge">
<title>Node21&#45;&gt;Node18</title>
<path fill="none" stroke="midnightblue" d="M467.76,-554.99C662.12,-527.29 1298,-423.12 1298,-246 1298,-246 1298,-246 1298,-132 1298,-88.48 1262.3,-47.77 1239.84,-26.47"/>
<polygon fill="midnightblue" stroke="midnightblue" points="1241.99,-23.7 1232.25,-19.53 1237.27,-28.86 1241.99,-23.7"/>
</g>
<!-- Node22 -->
<g id="node22" class="node">
<title>Node22</title>
<g id="a_node22"><a xlink:href="schedule__types_8h.html" target="_top" xlink:title=" ">
<polygon fill="white" stroke="black" points="302,-492.5 302,-511.5 442,-511.5 442,-492.5 302,-492.5"/>
<text text-anchor="middle" x="372" y="-499.5" font-family="Helvetica,sans-Serif" font-size="10.00">odp/api/schedule_types.h</text>
</a>
</g>
</g>
<!-- Node21&#45;&gt;Node22 -->
<g id="edge29" class="edge">
<title>Node21&#45;&gt;Node22</title>
<path fill="none" stroke="midnightblue" d="M402.52,-548.4C396.83,-539.93 389.55,-529.1 383.52,-520.14"/>
<polygon fill="midnightblue" stroke="midnightblue" points="386.3,-518 377.82,-511.66 380.49,-521.91 386.3,-518"/>
</g>
<!-- Node23 -->
<g id="node23" class="node">
<title>Node23</title>
<g id="a_node23"><a xlink:title=" ">
<polygon fill="white" stroke="#bfbfbf" points="142.5,-425.5 142.5,-455.5 259.5,-455.5 259.5,-425.5 142.5,-425.5"/>
<text text-anchor="start" x="150.5" y="-443.5" font-family="Helvetica,sans-Serif" font-size="10.00">odp/api/abi/schedule</text>
<text text-anchor="middle" x="201" y="-432.5" font-family="Helvetica,sans-Serif" font-size="10.00">_types.h</text>
</a>
</g>
</g>
<!-- Node22&#45;&gt;Node23 -->
<g id="edge30" class="edge">
<title>Node22&#45;&gt;Node23</title>
<path fill="none" stroke="midnightblue" d="M347.5,-492.48C322.39,-483.74 282.64,-469.91 250.88,-458.86"/>
<polygon fill="midnightblue" stroke="midnightblue" points="251.9,-455.5 241.3,-455.52 249.6,-462.11 251.9,-455.5"/>
</g>
<!-- Node24 -->
<g id="node24" class="node">
<title>Node24</title>
<g id="a_node24"><a xlink:href="spec_2schedule__types_8h.html" target="_top" xlink:title=" ">
<polygon fill="white" stroke="black" points="354.5,-425.5 354.5,-455.5 479.5,-455.5 479.5,-425.5 354.5,-425.5"/>
<text text-anchor="start" x="362.5" y="-443.5" font-family="Helvetica,sans-Serif" font-size="10.00">odp/api/spec/schedule</text>
<text text-anchor="middle" x="417" y="-432.5" font-family="Helvetica,sans-Serif" font-size="10.00">_types.h</text>
</a>
</g>
</g>
<!-- Node22&#45;&gt;Node24 -->
<g id="edge31" class="edge">
<title>Node22&#45;&gt;Node24</title>
<path fill="none" stroke="midnightblue" d="M378.45,-492.48C384.14,-484.94 392.7,-473.63 400.31,-463.57"/>
<polygon fill="midnightblue" stroke="midnightblue" points="403.15,-465.61 406.39,-455.52 397.57,-461.39 403.15,-465.61"/>
</g>
<!-- Node24&#45;&gt;Node4 -->
<g id="edge32" class="edge">
<title>Node24&#45;&gt;Node4</title>
<path fill="none" stroke="midnightblue" d="M359.52,-425.48C303.92,-408.08 228,-372.44 228,-307.5 228,-307.5 228,-307.5 228,-132 228,-83.14 277.44,-44.36 308.47,-24.84"/>
<polygon fill="midnightblue" stroke="midnightblue" points="310.32,-27.81 317.05,-19.62 306.69,-21.82 310.32,-27.81"/>
</g>
<!-- Node24&#45;&gt;Node11 -->
<g id="edge33" class="edge">
<title>Node24&#45;&gt;Node11</title>
<path fill="none" stroke="midnightblue" d="M479.55,-439.98C560.31,-438.75 704.12,-430.2 819,-389 871.46,-370.19 884.05,-359.81 925,-322 944.04,-304.42 961.19,-279.78 971.59,-263.38"/>
<polygon fill="midnightblue" stroke="midnightblue" points="974.62,-265.13 976.89,-254.79 968.66,-261.45 974.62,-265.13"/>
</g>
<!-- Node24&#45;&gt;Node18 -->
<g id="edge40" class="edge">
<title>Node24&#45;&gt;Node18</title>
<path fill="none" stroke="midnightblue" d="M444.07,-425.35C482.95,-404.59 556.26,-363.8 614,-322 668.61,-282.47 783.91,-155.46 843,-123 892.18,-95.99 913.65,-111.75 964,-87 985.14,-76.61 985.44,-65.51 1007,-56 1054.42,-35.08 1112.09,-23.69 1155.76,-17.61"/>
<polygon fill="midnightblue" stroke="midnightblue" points="1156.25,-21.07 1165.7,-16.28 1155.32,-14.13 1156.25,-21.07"/>
</g>
<!-- Node25 -->
<g id="node25" class="node">
<title>Node25</title>
<g id="a_node25"><a xlink:href="thrmask_8h.html" target="_top" xlink:title=" ">
<polygon fill="white" stroke="black" points="364.5,-364 364.5,-383 469.5,-383 469.5,-364 364.5,-364"/>
<text text-anchor="middle" x="417" y="-371" font-family="Helvetica,sans-Serif" font-size="10.00">odp/api/thrmask.h</text>
</a>
</g>
</g>
<!-- Node24&#45;&gt;Node25 -->
<g id="edge34" class="edge">
<title>Node24&#45;&gt;Node25</title>
<path fill="none" stroke="midnightblue" d="M417,-425.4C417,-416.06 417,-403.71 417,-393.52"/>
<polygon fill="midnightblue" stroke="midnightblue" points="420.5,-393.19 417,-383.19 413.5,-393.19 420.5,-393.19"/>
</g>
<!-- Node26 -->
<g id="node26" class="node">
<title>Node26</title>
<g id="a_node26"><a xlink:title=" ">
<polygon fill="white" stroke="#bfbfbf" points="256.5,-297 256.5,-316 379.5,-316 379.5,-297 256.5,-297"/>
<text text-anchor="middle" x="318" y="-304" font-family="Helvetica,sans-Serif" font-size="10.00">odp/api/abi/thrmask.h</text>
</a>
</g>
</g>
<!-- Node25&#45;&gt;Node26 -->
<g id="edge35" class="edge">
<title>Node25&#45;&gt;Node26</title>
<path fill="none" stroke="midnightblue" d="M403.65,-363.73C387.25,-352.96 359.2,-334.55 339.69,-321.74"/>
<polygon fill="midnightblue" stroke="midnightblue" points="341.42,-318.69 331.14,-316.13 337.58,-324.54 341.42,-318.69"/>
</g>
<!-- Node27 -->
<g id="node27" class="node">
<title>Node27</title>
<g id="a_node27"><a xlink:href="spec_2thrmask_8h.html" target="_top" xlink:title=" ">
<polygon fill="white" stroke="black" points="474.5,-297 474.5,-316 605.5,-316 605.5,-297 474.5,-297"/>
<text text-anchor="middle" x="540" y="-304" font-family="Helvetica,sans-Serif" font-size="10.00">odp/api/spec/thrmask.h</text>
</a>
</g>
</g>
<!-- Node25&#45;&gt;Node27 -->
<g id="edge36" class="edge">
<title>Node25&#45;&gt;Node27</title>
<path fill="none" stroke="midnightblue" d="M433.33,-363.87C454.1,-352.89 490.19,-333.82 514.57,-320.94"/>
<polygon fill="midnightblue" stroke="midnightblue" points="516.39,-323.93 523.6,-316.17 513.12,-317.75 516.39,-323.93"/>
</g>
<!-- Node27&#45;&gt;Node4 -->
<g id="edge37" class="edge">
<title>Node27&#45;&gt;Node4</title>
<path fill="none" stroke="midnightblue" d="M532.66,-296.99C512.39,-273.34 454.38,-204.51 412,-143 384.71,-103.39 356.72,-54.18 342.52,-28.49"/>
<polygon fill="midnightblue" stroke="midnightblue" points="345.51,-26.66 337.63,-19.57 339.37,-30.02 345.51,-26.66"/>
</g>
<!-- Node27&#45;&gt;Node11 -->
<g id="edge38" class="edge">
<title>Node27&#45;&gt;Node11</title>
<path fill="none" stroke="midnightblue" d="M603.33,-296.98C686.36,-285.8 831.36,-266.28 915.8,-254.91"/>
<polygon fill="midnightblue" stroke="midnightblue" points="916.35,-258.37 925.79,-253.57 915.41,-251.43 916.35,-258.37"/>
</g>
<!-- Node27&#45;&gt;Node18 -->
<g id="edge39" class="edge">
<title>Node27&#45;&gt;Node18</title>
<path fill="none" stroke="midnightblue" d="M538.13,-296.94C530.83,-261.09 508.14,-121.73 580,-56 621.78,-17.78 999.96,-11.87 1155.57,-11.07"/>
<polygon fill="midnightblue" stroke="midnightblue" points="1155.96,-14.57 1165.94,-11.02 1155.92,-7.57 1155.96,-14.57"/>
</g>
<!-- Node28&#45;&gt;Node2 -->
<g id="edge44" class="edge">
<title>Node28&#45;&gt;Node2</title>
<path fill="none" stroke="midnightblue" d="M286.15,-738.48C287.09,-731.47 288.47,-721.19 289.75,-711.7"/>
<polygon fill="midnightblue" stroke="midnightblue" points="293.25,-711.9 291.11,-701.52 286.31,-710.97 293.25,-711.9"/>
</g>
<!-- Node29 -->
<g id="node29" class="node">
<title>Node29</title>
<g id="a_node29"><a xlink:href="spec_2packet__io__stats_8h.html" target="_top" xlink:title=" ">
<polygon fill="white" stroke="black" points="108.5,-671.5 108.5,-701.5 221.5,-701.5 221.5,-671.5 108.5,-671.5"/>
<text text-anchor="start" x="116.5" y="-689.5" font-family="Helvetica,sans-Serif" font-size="10.00">odp/api/spec/packet</text>
<text text-anchor="middle" x="165" y="-678.5" font-family="Helvetica,sans-Serif" font-size="10.00">_io_stats.h</text>
</a>
</g>
</g>
<!-- Node28&#45;&gt;Node29 -->
<g id="edge45" class="edge">
<title>Node28&#45;&gt;Node29</title>
<path fill="none" stroke="midnightblue" d="M267.81,-738.48C250.8,-730.04 224.2,-716.86 202.33,-706.01"/>
<polygon fill="midnightblue" stroke="midnightblue" points="203.8,-702.83 193.28,-701.52 200.69,-709.1 203.8,-702.83"/>
</g>
<!-- Node29&#45;&gt;Node4 -->
<g id="edge46" class="edge">
<title>Node29&#45;&gt;Node4</title>
<path fill="none" stroke="midnightblue" d="M144.8,-671.23C118.55,-650.83 76,-610.66 76,-564.5 76,-564.5 76,-564.5 76,-132 76,-94.43 83.32,-79.03 113,-56 136.02,-38.14 207.14,-25.8 262.35,-18.62"/>
<polygon fill="midnightblue" stroke="midnightblue" points="262.98,-22.07 272.46,-17.34 262.1,-15.12 262.98,-22.07"/>
</g>
<!-- Node29&#45;&gt;Node18 -->
<g id="edge48" class="edge">
<title>Node29&#45;&gt;Node18</title>
<path fill="none" stroke="midnightblue" d="M162.05,-671.45C157.11,-643.59 150.72,-581.17 184,-548 268.81,-463.47 349.58,-575.65 451,-512 476.27,-496.14 479.41,-484.57 488,-456 491.97,-442.81 489.02,-438.74 488,-425 485.77,-394.97 485.37,-387.19 478,-358 473.84,-341.51 467.93,-338.76 465,-322 462.62,-308.43 462.57,-304.56 465,-291 484.64,-181.37 462.78,-122.66 552,-56 599.58,-20.45 995.93,-12.98 1155.67,-11.42"/>
<polygon fill="midnightblue" stroke="midnightblue" points="1155.87,-14.91 1165.84,-11.32 1155.81,-7.91 1155.87,-14.91"/>
</g>
<!-- Node29&#45;&gt;Node19 -->
<g id="edge47" class="edge">
<title>Node29&#45;&gt;Node19</title>
<path fill="none" stroke="midnightblue" d="M218.74,-671.47C258.94,-660.99 313.15,-646.84 350.38,-637.12"/>
<polygon fill="midnightblue" stroke="midnightblue" points="351.61,-640.42 360.4,-634.51 349.84,-633.64 351.61,-640.42"/>
</g>
<!-- Node31 -->
<g id="node31" class="node">
<title>Node31</title>
<g id="a_node31"><a xlink:title=" ">
<polygon fill="white" stroke="#bfbfbf" points="950,-906.5 950,-925.5 1086,-925.5 1086,-906.5 950,-906.5"/>
<text text-anchor="middle" x="1018" y="-913.5" font-family="Helvetica,sans-Serif" font-size="10.00">odp/api/abi/pool_types.h</text>
</a>
</g>
</g>
<!-- Node30&#45;&gt;Node31 -->
<g id="edge50" class="edge">
<title>Node30&#45;&gt;Node31</title>
<path fill="none" stroke="midnightblue" d="M885.04,-962.44C911.62,-953.36 953.81,-938.94 983.52,-928.78"/>
<polygon fill="midnightblue" stroke="midnightblue" points="984.75,-932.06 993.08,-925.52 982.49,-925.44 984.75,-932.06"/>
</g>
<!-- Node32 -->
<g id="node32" class="node">
<title>Node32</title>
<g id="a_node32"><a xlink:href="spec_2pool__types_8h.html" target="_top" xlink:title=" ">
<polygon fill="white" stroke="black" points="788.5,-906.5 788.5,-925.5 931.5,-925.5 931.5,-906.5 788.5,-906.5"/>
<text text-anchor="middle" x="860" y="-913.5" font-family="Helvetica,sans-Serif" font-size="10.00">odp/api/spec/pool_types.h</text>
</a>
</g>
</g>
<!-- Node30&#45;&gt;Node32 -->
<g id="edge51" class="edge">
<title>Node30&#45;&gt;Node32</title>
<path fill="none" stroke="midnightblue" d="M860,-962.08C860,-955.01 860,-944.86 860,-935.99"/>
<polygon fill="midnightblue" stroke="midnightblue" points="863.5,-935.75 860,-925.75 856.5,-935.75 863.5,-935.75"/>
</g>
<!-- Node32&#45;&gt;Node4 -->
<g id="edge52" class="edge">
<title>Node32&#45;&gt;Node4</title>
<path fill="none" stroke="midnightblue" d="M830.86,-906.43C790.1,-892.45 721,-860.55 721,-805 721,-805 721,-805 721,-685.5 721,-643.18 688.84,-642.88 657,-615 584.65,-551.65 566.26,-532.4 479,-492 423.04,-466.09 400.4,-483.1 345,-456 324.48,-445.96 322.93,-437.78 304,-425 243.7,-384.28 190,-380.26 190,-307.5 190,-307.5 190,-307.5 190,-132 190,-75.73 255.32,-40.25 297.67,-23.16"/>
<polygon fill="midnightblue" stroke="midnightblue" points="299.05,-26.38 307.1,-19.5 296.51,-19.85 299.05,-26.38"/>
</g>
<!-- Node32&#45;&gt;Node11 -->
<g id="edge53" class="edge">
<title>Node32&#45;&gt;Node11</title>
<path fill="none" stroke="midnightblue" d="M890.63,-906.39C950.45,-888.67 1077,-846.29 1077,-805 1077,-805 1077,-805 1077,-685.5 1077,-518.31 1010.51,-323.26 988.78,-263.98"/>
<polygon fill="midnightblue" stroke="midnightblue" points="992.03,-262.68 985.27,-254.53 985.47,-265.12 992.03,-262.68"/>
</g>
<!-- Node32&#45;&gt;Node18 -->
<g id="edge67" class="edge">
<title>Node32&#45;&gt;Node18</title>
<path fill="none" stroke="midnightblue" d="M910.69,-906.46C944.73,-899.51 989.95,-887.88 1027,-870 1070.79,-848.86 1115,-853.62 1115,-805 1115,-805 1115,-805 1115,-747 1115,-707 1305.9,-489.99 1327,-456 1344.72,-427.46 1348.64,-419.83 1362,-389 1388.77,-327.22 1412,-313.33 1412,-246 1412,-246 1412,-246 1412,-132 1412,-68.18 1334.78,-36.55 1278.8,-22.01"/>
<polygon fill="midnightblue" stroke="midnightblue" points="1279.51,-18.58 1268.97,-19.57 1277.83,-25.38 1279.51,-18.58"/>
</g>
<!-- Node33 -->
<g id="node33" class="node">
<title>Node33</title>
<g id="a_node33"><a xlink:href="dma__types_8h.html" target="_top" xlink:title=" ">
<polygon fill="white" stroke="black" points="800.5,-850.5 800.5,-869.5 919.5,-869.5 919.5,-850.5 800.5,-850.5"/>
<text text-anchor="middle" x="860" y="-857.5" font-family="Helvetica,sans-Serif" font-size="10.00">odp/api/dma_types.h</text>
</a>
</g>
</g>
<!-- Node32&#45;&gt;Node33 -->
<g id="edge54" class="edge">
<title>Node32&#45;&gt;Node33</title>
<path fill="none" stroke="midnightblue" d="M860,-906.08C860,-899.01 860,-888.86 860,-879.99"/>
<polygon fill="midnightblue" stroke="midnightblue" points="863.5,-879.75 860,-869.75 856.5,-879.75 863.5,-879.75"/>
</g>
<!-- Node34 -->
<g id="node34" class="node">
<title>Node34</title>
<g id="a_node34"><a xlink:title=" ">
<polygon fill="white" stroke="#bfbfbf" points="911.5,-794.5 911.5,-813.5 1048.5,-813.5 1048.5,-794.5 911.5,-794.5"/>
<text text-anchor="middle" x="980" y="-801.5" font-family="Helvetica,sans-Serif" font-size="10.00">odp/api/abi/dma_types.h</text>
</a>
</g>
</g>
<!-- Node33&#45;&gt;Node34 -->
<g id="edge55" class="edge">
<title>Node33&#45;&gt;Node34</title>
<path fill="none" stroke="midnightblue" d="M879.01,-850.44C898.59,-841.64 929.31,-827.81 951.73,-817.72"/>
<polygon fill="midnightblue" stroke="midnightblue" points="953.39,-820.81 961.07,-813.52 950.52,-814.43 953.39,-820.81"/>
</g>
<!-- Node35 -->
<g id="node35" class="node">
<title>Node35</title>
<g id="a_node35"><a xlink:href="spec_2dma__types_8h.html" target="_top" xlink:title=" ">
<polygon fill="white" stroke="black" points="749,-794.5 749,-813.5 893,-813.5 893,-794.5 749,-794.5"/>
<text text-anchor="middle" x="821" y="-801.5" font-family="Helvetica,sans-Serif" font-size="10.00">odp/api/spec/dma_types.h</text>
</a>
</g>
</g>
<!-- Node33&#45;&gt;Node35 -->
<g id="edge56" class="edge">
<title>Node33&#45;&gt;Node35</title>
<path fill="none" stroke="midnightblue" d="M853.56,-850.08C848.05,-842.46 839.97,-831.26 833.24,-821.94"/>
<polygon fill="midnightblue" stroke="midnightblue" points="836.01,-819.81 827.32,-813.75 830.34,-823.91 836.01,-819.81"/>
</g>
<!-- Node35&#45;&gt;Node4 -->
<g id="edge57" class="edge">
<title>Node35&#45;&gt;Node4</title>
<path fill="none" stroke="midnightblue" d="M812.38,-794.29C795.34,-776.11 759,-732.11 759,-687.5 759,-687.5 759,-687.5 759,-624 759,-436.68 583.96,-466.7 465,-322 387.43,-227.65 348.71,-81 336.97,-29.58"/>
<polygon fill="midnightblue" stroke="midnightblue" points="340.34,-28.61 334.76,-19.61 333.5,-30.13 340.34,-28.61"/>
</g>
<!-- Node35&#45;&gt;Node5 -->
<g id="edge63" class="edge">
<title>Node35&#45;&gt;Node5</title>
<path fill="none" stroke="midnightblue" d="M766.33,-794.44C705.01,-784.85 605.64,-769.29 540.55,-759.1"/>
<polygon fill="midnightblue" stroke="midnightblue" points="540.83,-755.61 530.41,-757.52 539.75,-762.52 540.83,-755.61"/>
</g>
<!-- Node35&#45;&gt;Node11 -->
<g id="edge65" class="edge">
<title>Node35&#45;&gt;Node11</title>
<path fill="none" stroke="midnightblue" d="M823.53,-794.25C841.6,-731.74 951.12,-352.84 976.67,-264.43"/>
<polygon fill="midnightblue" stroke="midnightblue" points="980.06,-265.31 979.48,-254.73 973.34,-263.36 980.06,-265.31"/>
</g>
<!-- Node35&#45;&gt;Node18 -->
<g id="edge66" class="edge">
<title>Node35&#45;&gt;Node18</title>
<path fill="none" stroke="midnightblue" d="M842.34,-794.39C943.97,-751.84 1374,-553.62 1374,-246 1374,-246 1374,-246 1374,-132 1374,-74.18 1305.85,-39.54 1260.81,-22.96"/>
<polygon fill="midnightblue" stroke="midnightblue" points="1261.9,-19.64 1251.31,-19.6 1259.57,-26.24 1261.9,-19.64"/>
</g>
<!-- Node35&#45;&gt;Node19 -->
<g id="edge64" class="edge">
<title>Node35&#45;&gt;Node19</title>
<path fill="none" stroke="midnightblue" d="M791.84,-794.44C743.64,-779.61 645.23,-746.43 570,-702 551.23,-690.92 551.14,-681.42 532,-671 503.83,-655.66 469.57,-644.49 442.11,-637.12"/>
<polygon fill="midnightblue" stroke="midnightblue" points="442.88,-633.7 432.33,-634.57 441.12,-640.48 442.88,-633.7"/>
</g>
<!-- Node36 -->
<g id="node36" class="node">
<title>Node36</title>
<g id="a_node36"><a xlink:href="event__types_8h.html" target="_top" xlink:title=" ">
<polygon fill="white" stroke="black" points="1059.5,-123.5 1059.5,-142.5 1184.5,-142.5 1184.5,-123.5 1059.5,-123.5"/>
<text text-anchor="middle" x="1122" y="-130.5" font-family="Helvetica,sans-Serif" font-size="10.00">odp/api/event_types.h</text>
</a>
</g>
</g>
<!-- Node35&#45;&gt;Node36 -->
<g id="edge58" class="edge">
<title>Node35&#45;&gt;Node36</title>
<path fill="none" stroke="midnightblue" d="M830.19,-794.28C887.59,-739.62 1195.83,-442.41 1241,-322 1267.54,-251.24 1184.01,-178.83 1143.15,-148.62"/>
<polygon fill="midnightblue" stroke="midnightblue" points="1145.06,-145.69 1134.91,-142.67 1140.97,-151.36 1145.06,-145.69"/>
</g>
<!-- Node37 -->
<g id="node37" class="node">
<title>Node37</title>
<g id="a_node37"><a xlink:title=" ">
<polygon fill="white" stroke="#bfbfbf" points="1050.5,-62 1050.5,-81 1193.5,-81 1193.5,-62 1050.5,-62"/>
<text text-anchor="middle" x="1122" y="-69" font-family="Helvetica,sans-Serif" font-size="10.00">odp/api/abi/event_types.h</text>
</a>
</g>
</g>
<!-- Node36&#45;&gt;Node37 -->
<g id="edge59" class="edge">
<title>Node36&#45;&gt;Node37</title>
<path fill="none" stroke="midnightblue" d="M1122,-123.48C1122,-115.08 1122,-101.98 1122,-91.16"/>
<polygon fill="midnightblue" stroke="midnightblue" points="1125.5,-91.01 1122,-81.01 1118.5,-91.01 1125.5,-91.01"/>
</g>
<!-- Node38 -->
<g id="node38" class="node">
<title>Node38</title>
<g id="a_node38"><a xlink:href="spec_2event__types_8h.html" target="_top" xlink:title=" ">
<polygon fill="white" stroke="black" points="846.5,-56.5 846.5,-86.5 955.5,-86.5 955.5,-56.5 846.5,-56.5"/>
<text text-anchor="start" x="854.5" y="-74.5" font-family="Helvetica,sans-Serif" font-size="10.00">odp/api/spec/event</text>
<text text-anchor="middle" x="901" y="-63.5" font-family="Helvetica,sans-Serif" font-size="10.00">_types.h</text>
</a>
</g>
</g>
<!-- Node36&#45;&gt;Node38 -->
<g id="edge60" class="edge">
<title>Node36&#45;&gt;Node38</title>
<path fill="none" stroke="midnightblue" d="M1090.34,-123.48C1057.19,-114.55 1004.29,-100.31 962.82,-89.14"/>
<polygon fill="midnightblue" stroke="midnightblue" points="963.65,-85.74 953.09,-86.52 961.83,-92.5 963.65,-85.74"/>
</g>
<!-- Node38&#45;&gt;Node4 -->
<g id="edge61" class="edge">
<title>Node38&#45;&gt;Node4</title>
<path fill="none" stroke="midnightblue" d="M846.28,-57.6C843.15,-57.02 840.04,-56.48 837,-56 683.62,-31.89 501.79,-19.62 403.9,-14.34"/>
<polygon fill="midnightblue" stroke="midnightblue" points="404,-10.84 393.83,-13.8 403.63,-17.83 404,-10.84"/>
</g>
<!-- Node38&#45;&gt;Node18 -->
<g id="edge62" class="edge">
<title>Node38&#45;&gt;Node18</title>
<path fill="none" stroke="midnightblue" d="M955.58,-58.87C960.45,-57.88 965.31,-56.91 970,-56 1035.44,-43.28 1110.71,-30.02 1161.82,-21.22"/>
<polygon fill="midnightblue" stroke="midnightblue" points="1162.45,-24.66 1171.71,-19.52 1161.26,-17.76 1162.45,-24.66"/>
</g>
<!-- Node40 -->
<g id="node40" class="node">
<title>Node40</title>
<g id="a_node40"><a xlink:href="spec_2reassembly_8h.html" target="_top" xlink:title=" ">
<polygon fill="white" stroke="black" points="1086,-297 1086,-316 1232,-316 1232,-297 1086,-297"/>
<text text-anchor="middle" x="1159" y="-304" font-family="Helvetica,sans-Serif" font-size="10.00">odp/api/spec/reassembly.h</text>
</a>
</g>
</g>
<!-- Node39&#45;&gt;Node40 -->
<g id="edge70" class="edge">
<title>Node39&#45;&gt;Node40</title>
<path fill="none" stroke="midnightblue" d="M1234.05,-962.48C1220.31,-944.75 1191,-902.12 1191,-861 1191,-861 1191,-861 1191,-685.5 1191,-547.16 1169.45,-381.34 1161.72,-326.29"/>
<polygon fill="midnightblue" stroke="midnightblue" points="1165.17,-325.67 1160.29,-316.27 1158.24,-326.66 1165.17,-325.67"/>
</g>
<!-- Node40&#45;&gt;Node4 -->
<g id="edge71" class="edge">
<title>Node40&#45;&gt;Node4</title>
<path fill="none" stroke="midnightblue" d="M1148.68,-296.86C1129.83,-281.59 1087.98,-250.03 1047,-235 940.37,-195.89 904.51,-225.21 794,-199 642.07,-162.96 602.87,-152.24 461,-87 436.55,-75.76 432.13,-69.74 409,-56 391.31,-45.49 371.29,-33.64 356.24,-24.74"/>
<polygon fill="midnightblue" stroke="midnightblue" points="357.97,-21.69 347.58,-19.61 354.4,-27.72 357.97,-21.69"/>
</g>
<!-- Node40&#45;&gt;Node11 -->
<g id="edge72" class="edge">
<title>Node40&#45;&gt;Node11</title>
<path fill="none" stroke="midnightblue" d="M1133.64,-296.98C1103.02,-286.68 1051.34,-269.31 1016.95,-257.75"/>
<polygon fill="midnightblue" stroke="midnightblue" points="1017.91,-254.38 1007.31,-254.51 1015.68,-261.01 1017.91,-254.38"/>
</g>
<!-- Node40&#45;&gt;Node18 -->
<g id="edge73" class="edge">
<title>Node40&#45;&gt;Node18</title>
<path fill="none" stroke="midnightblue" d="M1175.23,-296.78C1203.78,-280.13 1260,-240.88 1260,-190 1260,-190 1260,-190 1260,-132 1260,-93.81 1242.56,-51.83 1231.31,-28.72"/>
<polygon fill="midnightblue" stroke="midnightblue" points="1234.29,-26.86 1226.66,-19.52 1228.04,-30.02 1234.29,-26.86"/>
</g>
</g>
</svg>
