<?xml version="1.0" encoding="UTF-8" standalone="no"?>
<!DOCTYPE svg PUBLIC "-//W3C//DTD SVG 1.1//EN"
 "http://www.w3.org/Graphics/SVG/1.1/DTD/svg11.dtd">
<!-- Generated by graphviz version 2.43.0 (0)
 -->
<!-- Title: pool.h Pages: 1 -->
<svg width="1202pt" height="1102pt"
 viewBox="0.00 0.00 1202.00 1102.00" xmlns="http://www.w3.org/2000/svg" xmlns:xlink="http://www.w3.org/1999/xlink">
<g id="graph0" class="graph" transform="scale(1 1) rotate(0) translate(4 1098)">
<title>pool.h</title>
<polygon fill="white" stroke="transparent" points="-4,4 -4,-1098 1198,-1098 1198,4 -4,4"/>
<!-- Node1 -->
<g id="node1" class="node">
<title>Node1</title>
<g id="a_node1"><a xlink:title=" ">
<polygon fill="#bfbfbf" stroke="black" points="790.5,-1074.5 790.5,-1093.5 837.5,-1093.5 837.5,-1074.5 790.5,-1074.5"/>
<text text-anchor="middle" x="814" y="-1081.5" font-family="Helvetica,sans-Serif" font-size="10.00">pool.h</text>
</a>
</g>
</g>
<!-- Node2 -->
<g id="node2" class="node">
<title>Node2</title>
<g id="a_node2"><a xlink:title=" ">
<polygon fill="white" stroke="#bfbfbf" points="699,-1018.5 699,-1037.5 803,-1037.5 803,-1018.5 699,-1018.5"/>
<text text-anchor="middle" x="751" y="-1025.5" font-family="Helvetica,sans-Serif" font-size="10.00">odp/api/abi/pool.h</text>
</a>
</g>
</g>
<!-- Node1&#45;&gt;Node2 -->
<g id="edge1" class="edge">
<title>Node1&#45;&gt;Node2</title>
<path fill="none" stroke="midnightblue" d="M803.88,-1074.32C794.47,-1066.26 780.26,-1054.08 768.93,-1044.37"/>
<polygon fill="midnightblue" stroke="midnightblue" points="771.18,-1041.68 761.31,-1037.83 766.62,-1047 771.18,-1041.68"/>
</g>
<!-- Node3 -->
<g id="node3" class="node">
<title>Node3</title>
<g id="a_node3"><a xlink:href="spec_2pool_8h.html" target="_top" xlink:title=" ">
<polygon fill="white" stroke="black" points="821.5,-1018.5 821.5,-1037.5 932.5,-1037.5 932.5,-1018.5 821.5,-1018.5"/>
<text text-anchor="middle" x="877" y="-1025.5" font-family="Helvetica,sans-Serif" font-size="10.00">odp/api/spec/pool.h</text>
</a>
</g>
</g>
<!-- Node1&#45;&gt;Node3 -->
<g id="edge2" class="edge">
<title>Node1&#45;&gt;Node3</title>
<path fill="none" stroke="midnightblue" d="M824.12,-1074.32C833.53,-1066.26 847.74,-1054.08 859.07,-1044.37"/>
<polygon fill="midnightblue" stroke="midnightblue" points="861.38,-1047 866.69,-1037.83 856.82,-1041.68 861.38,-1047"/>
</g>
<!-- Node4 -->
<g id="node4" class="node">
<title>Node4</title>
<g id="a_node4"><a xlink:title=" ">
<polygon fill="white" stroke="#bfbfbf" points="943.5,-0.5 943.5,-19.5 1064.5,-19.5 1064.5,-0.5 943.5,-0.5"/>
<text text-anchor="middle" x="1004" y="-7.5" font-family="Helvetica,sans-Serif" font-size="10.00">odp/visibility_begin.h</text>
</a>
</g>
</g>
<!-- Node3&#45;&gt;Node4 -->
<g id="edge3" class="edge">
<title>Node3&#45;&gt;Node4</title>
<path fill="none" stroke="midnightblue" d="M932.58,-1019.37C1023.49,-1005.32 1194,-971.69 1194,-917 1194,-917 1194,-917 1194,-132 1194,-68.18 1116.78,-36.55 1060.8,-22.01"/>
<polygon fill="midnightblue" stroke="midnightblue" points="1061.51,-18.58 1050.97,-19.57 1059.83,-25.38 1061.51,-18.58"/>
</g>
<!-- Node5 -->
<g id="node5" class="node">
<title>Node5</title>
<g id="a_node5"><a xlink:href="std__types_8h.html" target="_top" xlink:title=" ">
<polygon fill="white" stroke="black" points="556,-235.5 556,-254.5 668,-254.5 668,-235.5 556,-235.5"/>
<text text-anchor="middle" x="612" y="-242.5" font-family="Helvetica,sans-Serif" font-size="10.00">odp/api/std_types.h</text>
</a>
</g>
</g>
<!-- Node3&#45;&gt;Node5 -->
<g id="edge4" class="edge">
<title>Node3&#45;&gt;Node5</title>
<path fill="none" stroke="midnightblue" d="M924.33,-1018.45C1003.93,-1002.71 1156,-966.2 1156,-917 1156,-917 1156,-917 1156,-747 1156,-614.83 1055.1,-603.18 935,-548 821.39,-495.8 750.17,-594.25 656,-512 631.56,-490.65 637,-473.95 637,-441.5 637,-441.5 637,-441.5 637,-372.5 637,-333.48 625.41,-288.95 618.01,-264.5"/>
<polygon fill="midnightblue" stroke="midnightblue" points="621.3,-263.27 614.97,-254.78 614.62,-265.37 621.3,-263.27"/>
</g>
<!-- Node12 -->
<g id="node12" class="node">
<title>Node12</title>
<g id="a_node12"><a xlink:title=" ">
<polygon fill="white" stroke="#bfbfbf" points="296,-0.5 296,-19.5 408,-19.5 408,-0.5 296,-0.5"/>
<text text-anchor="middle" x="352" y="-7.5" font-family="Helvetica,sans-Serif" font-size="10.00">odp/visibility_end.h</text>
</a>
</g>
</g>
<!-- Node3&#45;&gt;Node12 -->
<g id="edge62" class="edge">
<title>Node3&#45;&gt;Node12</title>
<path fill="none" stroke="midnightblue" d="M821.36,-1019.09C818.19,-1018.7 815.06,-1018.34 812,-1018 721.63,-1008.02 0,-1007.92 0,-917 0,-917 0,-917 0,-132 0,-90.56 18.71,-77.71 54,-56 91.72,-32.8 209.87,-20.6 285.58,-15"/>
<polygon fill="midnightblue" stroke="midnightblue" points="286.24,-18.47 295.96,-14.26 285.74,-11.48 286.24,-18.47"/>
</g>
<!-- Node13 -->
<g id="node13" class="node">
<title>Node13</title>
<g id="a_node13"><a xlink:href="pool__types_8h.html" target="_top" xlink:title=" ">
<polygon fill="white" stroke="black" points="385,-962.5 385,-981.5 503,-981.5 503,-962.5 385,-962.5"/>
<text text-anchor="middle" x="444" y="-969.5" font-family="Helvetica,sans-Serif" font-size="10.00">odp/api/pool_types.h</text>
</a>
</g>
</g>
<!-- Node3&#45;&gt;Node13 -->
<g id="edge15" class="edge">
<title>Node3&#45;&gt;Node13</title>
<path fill="none" stroke="midnightblue" d="M821.34,-1019.23C818.18,-1018.81 815.05,-1018.4 812,-1018 708.07,-1004.45 587.46,-989.93 513.44,-981.16"/>
<polygon fill="midnightblue" stroke="midnightblue" points="513.65,-977.66 503.31,-979.96 512.83,-984.61 513.65,-977.66"/>
</g>
<!-- Node6 -->
<g id="node6" class="node">
<title>Node6</title>
<g id="a_node6"><a xlink:title=" ">
<polygon fill="white" stroke="#bfbfbf" points="526,-179.5 526,-198.5 656,-198.5 656,-179.5 526,-179.5"/>
<text text-anchor="middle" x="591" y="-186.5" font-family="Helvetica,sans-Serif" font-size="10.00">odp/api/abi/std_types.h</text>
</a>
</g>
</g>
<!-- Node5&#45;&gt;Node6 -->
<g id="edge5" class="edge">
<title>Node5&#45;&gt;Node6</title>
<path fill="none" stroke="midnightblue" d="M608.53,-235.08C605.69,-227.77 601.57,-217.18 598.04,-208.1"/>
<polygon fill="midnightblue" stroke="midnightblue" points="601.29,-206.8 594.4,-198.75 594.77,-209.34 601.29,-206.8"/>
</g>
<!-- Node7 -->
<g id="node7" class="node">
<title>Node7</title>
<g id="a_node7"><a xlink:href="spec_2std__types_8h.html" target="_top" xlink:title=" ">
<polygon fill="white" stroke="black" points="712.5,-179.5 712.5,-198.5 849.5,-198.5 849.5,-179.5 712.5,-179.5"/>
<text text-anchor="middle" x="781" y="-186.5" font-family="Helvetica,sans-Serif" font-size="10.00">odp/api/spec/std_types.h</text>
</a>
</g>
</g>
<!-- Node5&#45;&gt;Node7 -->
<g id="edge6" class="edge">
<title>Node5&#45;&gt;Node7</title>
<path fill="none" stroke="midnightblue" d="M638.78,-235.44C667.33,-226.32 712.73,-211.81 744.54,-201.65"/>
<polygon fill="midnightblue" stroke="midnightblue" points="745.89,-204.89 754.35,-198.52 743.76,-198.23 745.89,-204.89"/>
</g>
<!-- Node7&#45;&gt;Node4 -->
<g id="edge7" class="edge">
<title>Node7&#45;&gt;Node4</title>
<path fill="none" stroke="midnightblue" d="M796.41,-179.4C810.47,-171.14 831.37,-157.75 847,-143 882.49,-109.5 876.33,-87.03 914,-56 930.72,-42.22 952.37,-31.23 970.24,-23.56"/>
<polygon fill="midnightblue" stroke="midnightblue" points="971.82,-26.7 979.73,-19.65 969.15,-20.23 971.82,-26.7"/>
</g>
<!-- Node8 -->
<g id="node8" class="node">
<title>Node8</title>
<g id="a_node8"><a xlink:title=" ">
<polygon fill="white" stroke="#bfbfbf" points="677.5,-123.5 677.5,-142.5 730.5,-142.5 730.5,-123.5 677.5,-123.5"/>
<text text-anchor="middle" x="704" y="-130.5" font-family="Helvetica,sans-Serif" font-size="10.00">stdint.h</text>
</a>
</g>
</g>
<!-- Node7&#45;&gt;Node8 -->
<g id="edge8" class="edge">
<title>Node7&#45;&gt;Node8</title>
<path fill="none" stroke="midnightblue" d="M768.63,-179.32C756.84,-171.06 738.87,-158.45 724.86,-148.63"/>
<polygon fill="midnightblue" stroke="midnightblue" points="726.54,-145.53 716.34,-142.65 722.52,-151.26 726.54,-145.53"/>
</g>
<!-- Node9 -->
<g id="node9" class="node">
<title>Node9</title>
<g id="a_node9"><a xlink:href="align_8h.html" target="_top" xlink:title=" ">
<polygon fill="white" stroke="black" points="748.5,-123.5 748.5,-142.5 837.5,-142.5 837.5,-123.5 748.5,-123.5"/>
<text text-anchor="middle" x="793" y="-130.5" font-family="Helvetica,sans-Serif" font-size="10.00">odp/api/align.h</text>
</a>
</g>
</g>
<!-- Node7&#45;&gt;Node9 -->
<g id="edge9" class="edge">
<title>Node7&#45;&gt;Node9</title>
<path fill="none" stroke="midnightblue" d="M782.98,-179.08C784.57,-171.93 786.86,-161.64 788.85,-152.69"/>
<polygon fill="midnightblue" stroke="midnightblue" points="792.3,-153.27 791.06,-142.75 785.47,-151.75 792.3,-153.27"/>
</g>
<!-- Node7&#45;&gt;Node12 -->
<g id="edge14" class="edge">
<title>Node7&#45;&gt;Node12</title>
<path fill="none" stroke="midnightblue" d="M752.12,-179.41C728.72,-171.75 695.42,-159.25 669,-143 619.11,-112.31 622.43,-82.12 570,-56 522.51,-32.34 463.25,-21.11 418.51,-15.79"/>
<polygon fill="midnightblue" stroke="midnightblue" points="418.66,-12.28 408.33,-14.65 417.88,-19.24 418.66,-12.28"/>
</g>
<!-- Node10 -->
<g id="node10" class="node">
<title>Node10</title>
<g id="a_node10"><a xlink:title=" ">
<polygon fill="white" stroke="#bfbfbf" points="622.5,-62 622.5,-81 729.5,-81 729.5,-62 622.5,-62"/>
<text text-anchor="middle" x="676" y="-69" font-family="Helvetica,sans-Serif" font-size="10.00">odp/api/abi/align.h</text>
</a>
</g>
</g>
<!-- Node9&#45;&gt;Node10 -->
<g id="edge10" class="edge">
<title>Node9&#45;&gt;Node10</title>
<path fill="none" stroke="midnightblue" d="M776.24,-123.48C756.78,-113.58 724.45,-97.14 701.79,-85.62"/>
<polygon fill="midnightblue" stroke="midnightblue" points="703.23,-82.42 692.73,-81.01 700.06,-88.66 703.23,-82.42"/>
</g>
<!-- Node11 -->
<g id="node11" class="node">
<title>Node11</title>
<g id="a_node11"><a xlink:href="spec_2align_8h.html" target="_top" xlink:title=" ">
<polygon fill="white" stroke="black" points="748,-62 748,-81 862,-81 862,-62 748,-62"/>
<text text-anchor="middle" x="805" y="-69" font-family="Helvetica,sans-Serif" font-size="10.00">odp/api/spec/align.h</text>
</a>
</g>
</g>
<!-- Node9&#45;&gt;Node11 -->
<g id="edge11" class="edge">
<title>Node9&#45;&gt;Node11</title>
<path fill="none" stroke="midnightblue" d="M794.72,-123.48C796.43,-114.99 799.11,-101.7 801.3,-90.82"/>
<polygon fill="midnightblue" stroke="midnightblue" points="804.74,-91.5 803.28,-81.01 797.88,-90.12 804.74,-91.5"/>
</g>
<!-- Node11&#45;&gt;Node4 -->
<g id="edge12" class="edge">
<title>Node11&#45;&gt;Node4</title>
<path fill="none" stroke="midnightblue" d="M833.51,-61.98C868.24,-51.59 927.04,-34.01 965.69,-22.45"/>
<polygon fill="midnightblue" stroke="midnightblue" points="966.96,-25.73 975.54,-19.51 964.96,-19.02 966.96,-25.73"/>
</g>
<!-- Node11&#45;&gt;Node12 -->
<g id="edge13" class="edge">
<title>Node11&#45;&gt;Node12</title>
<path fill="none" stroke="midnightblue" d="M769.16,-61.94C759.41,-59.8 748.83,-57.65 739,-56 626.95,-37.23 495.35,-23.72 418.08,-16.64"/>
<polygon fill="midnightblue" stroke="midnightblue" points="418.28,-13.15 408,-15.73 417.65,-20.12 418.28,-13.15"/>
</g>
<!-- Node14 -->
<g id="node14" class="node">
<title>Node14</title>
<g id="a_node14"><a xlink:title=" ">
<polygon fill="white" stroke="#bfbfbf" points="218,-906.5 218,-925.5 354,-925.5 354,-906.5 218,-906.5"/>
<text text-anchor="middle" x="286" y="-913.5" font-family="Helvetica,sans-Serif" font-size="10.00">odp/api/abi/pool_types.h</text>
</a>
</g>
</g>
<!-- Node13&#45;&gt;Node14 -->
<g id="edge16" class="edge">
<title>Node13&#45;&gt;Node14</title>
<path fill="none" stroke="midnightblue" d="M418.96,-962.44C392.38,-953.36 350.19,-938.94 320.48,-928.78"/>
<polygon fill="midnightblue" stroke="midnightblue" points="321.51,-925.44 310.92,-925.52 319.25,-932.06 321.51,-925.44"/>
</g>
<!-- Node15 -->
<g id="node15" class="node">
<title>Node15</title>
<g id="a_node15"><a xlink:href="spec_2pool__types_8h.html" target="_top" xlink:title=" ">
<polygon fill="white" stroke="black" points="372.5,-906.5 372.5,-925.5 515.5,-925.5 515.5,-906.5 372.5,-906.5"/>
<text text-anchor="middle" x="444" y="-913.5" font-family="Helvetica,sans-Serif" font-size="10.00">odp/api/spec/pool_types.h</text>
</a>
</g>
</g>
<!-- Node13&#45;&gt;Node15 -->
<g id="edge17" class="edge">
<title>Node13&#45;&gt;Node15</title>
<path fill="none" stroke="midnightblue" d="M444,-962.08C444,-955.01 444,-944.86 444,-935.99"/>
<polygon fill="midnightblue" stroke="midnightblue" points="447.5,-935.75 444,-925.75 440.5,-935.75 447.5,-935.75"/>
</g>
<!-- Node15&#45;&gt;Node4 -->
<g id="edge18" class="edge">
<title>Node15&#45;&gt;Node4</title>
<path fill="none" stroke="midnightblue" d="M515.81,-910.73C689.48,-899.46 1118,-865.5 1118,-805 1118,-805 1118,-805 1118,-747 1118,-664.15 1156,-647.35 1156,-564.5 1156,-564.5 1156,-564.5 1156,-132 1156,-74.18 1087.85,-39.54 1042.81,-22.96"/>
<polygon fill="midnightblue" stroke="midnightblue" points="1043.9,-19.64 1033.31,-19.6 1041.57,-26.24 1043.9,-19.64"/>
</g>
<!-- Node15&#45;&gt;Node5 -->
<g id="edge19" class="edge">
<title>Node15&#45;&gt;Node5</title>
<path fill="none" stroke="midnightblue" d="M421.66,-906.41C387.43,-892.17 322,-860.58 284,-814 227.53,-744.8 213,-715.32 213,-626 213,-626 213,-626 213,-501 213,-389.3 340.9,-444.22 438,-389 485.8,-361.82 499.92,-357.4 542,-322 563.77,-303.68 585.44,-278.89 598.77,-262.67"/>
<polygon fill="midnightblue" stroke="midnightblue" points="601.7,-264.62 605.27,-254.64 596.26,-260.21 601.7,-264.62"/>
</g>
<!-- Node15&#45;&gt;Node12 -->
<g id="edge61" class="edge">
<title>Node15&#45;&gt;Node12</title>
<path fill="none" stroke="midnightblue" d="M392.58,-906.47C283.33,-887.65 38,-841.33 38,-805 38,-805 38,-805 38,-132 38,-83.28 73.73,-78.4 117,-56 169.7,-28.73 236.75,-17.88 285.73,-13.62"/>
<polygon fill="midnightblue" stroke="midnightblue" points="286.21,-17.09 295.9,-12.8 285.65,-10.11 286.21,-17.09"/>
</g>
<!-- Node16 -->
<g id="node16" class="node">
<title>Node16</title>
<g id="a_node16"><a xlink:href="dma__types_8h.html" target="_top" xlink:title=" ">
<polygon fill="white" stroke="black" points="384.5,-850.5 384.5,-869.5 503.5,-869.5 503.5,-850.5 384.5,-850.5"/>
<text text-anchor="middle" x="444" y="-857.5" font-family="Helvetica,sans-Serif" font-size="10.00">odp/api/dma_types.h</text>
</a>
</g>
</g>
<!-- Node15&#45;&gt;Node16 -->
<g id="edge20" class="edge">
<title>Node15&#45;&gt;Node16</title>
<path fill="none" stroke="midnightblue" d="M444,-906.08C444,-899.01 444,-888.86 444,-879.99"/>
<polygon fill="midnightblue" stroke="midnightblue" points="447.5,-879.75 444,-869.75 440.5,-879.75 447.5,-879.75"/>
</g>
<!-- Node17 -->
<g id="node17" class="node">
<title>Node17</title>
<g id="a_node17"><a xlink:title=" ">
<polygon fill="white" stroke="#bfbfbf" points="455.5,-794.5 455.5,-813.5 592.5,-813.5 592.5,-794.5 455.5,-794.5"/>
<text text-anchor="middle" x="524" y="-801.5" font-family="Helvetica,sans-Serif" font-size="10.00">odp/api/abi/dma_types.h</text>
</a>
</g>
</g>
<!-- Node16&#45;&gt;Node17 -->
<g id="edge21" class="edge">
<title>Node16&#45;&gt;Node17</title>
<path fill="none" stroke="midnightblue" d="M456.85,-850.32C469.22,-841.98 488.13,-829.21 502.74,-819.35"/>
<polygon fill="midnightblue" stroke="midnightblue" points="504.85,-822.15 511.18,-813.65 500.93,-816.35 504.85,-822.15"/>
</g>
<!-- Node18 -->
<g id="node18" class="node">
<title>Node18</title>
<g id="a_node18"><a xlink:href="spec_2dma__types_8h.html" target="_top" xlink:title=" ">
<polygon fill="white" stroke="black" points="293,-794.5 293,-813.5 437,-813.5 437,-794.5 293,-794.5"/>
<text text-anchor="middle" x="365" y="-801.5" font-family="Helvetica,sans-Serif" font-size="10.00">odp/api/spec/dma_types.h</text>
</a>
</g>
</g>
<!-- Node16&#45;&gt;Node18 -->
<g id="edge22" class="edge">
<title>Node16&#45;&gt;Node18</title>
<path fill="none" stroke="midnightblue" d="M431.31,-850.32C419.1,-841.98 400.42,-829.21 386,-819.35"/>
<polygon fill="midnightblue" stroke="midnightblue" points="387.89,-816.41 377.66,-813.65 383.94,-822.19 387.89,-816.41"/>
</g>
<!-- Node18&#45;&gt;Node4 -->
<g id="edge23" class="edge">
<title>Node18&#45;&gt;Node4</title>
<path fill="none" stroke="midnightblue" d="M437.12,-794.53C485.43,-787.63 550.02,-776.03 605,-758 846.93,-678.65 1118,-757.61 1118,-503 1118,-503 1118,-503 1118,-132 1118,-81.35 1064.42,-43.28 1030.73,-24.34"/>
<polygon fill="midnightblue" stroke="midnightblue" points="1032.27,-21.2 1021.81,-19.52 1028.94,-27.36 1032.27,-21.2"/>
</g>
<!-- Node18&#45;&gt;Node5 -->
<g id="edge59" class="edge">
<title>Node18&#45;&gt;Node5</title>
<path fill="none" stroke="midnightblue" d="M354.11,-794.42C333.1,-776.82 289,-734.31 289,-687.5 289,-687.5 289,-687.5 289,-562.5 289,-433.03 430.45,-479.54 523,-389 549.95,-362.64 555.09,-354.01 575,-322 586.72,-303.17 597.49,-280.09 604.36,-264.33"/>
<polygon fill="midnightblue" stroke="midnightblue" points="607.74,-265.31 608.45,-254.74 601.31,-262.57 607.74,-265.31"/>
</g>
<!-- Node18&#45;&gt;Node12 -->
<g id="edge60" class="edge">
<title>Node18&#45;&gt;Node12</title>
<path fill="none" stroke="midnightblue" d="M292.98,-798.26C259.87,-792.75 222.03,-781.35 195,-758 174.51,-740.3 178.39,-728.05 171,-702 131.76,-563.73 48.48,-167.64 139,-56 157.26,-33.48 230.16,-21.79 285.64,-16.03"/>
<polygon fill="midnightblue" stroke="midnightblue" points="286.17,-19.5 295.77,-15.03 285.48,-12.53 286.17,-19.5"/>
</g>
<!-- Node19 -->
<g id="node19" class="node">
<title>Node19</title>
<g id="a_node19"><a xlink:href="event__types_8h.html" target="_top" xlink:title=" ">
<polygon fill="white" stroke="black" points="189.5,-123.5 189.5,-142.5 314.5,-142.5 314.5,-123.5 189.5,-123.5"/>
<text text-anchor="middle" x="252" y="-130.5" font-family="Helvetica,sans-Serif" font-size="10.00">odp/api/event_types.h</text>
</a>
</g>
</g>
<!-- Node18&#45;&gt;Node19 -->
<g id="edge24" class="edge">
<title>Node18&#45;&gt;Node19</title>
<path fill="none" stroke="midnightblue" d="M313.33,-794.48C257.07,-781.92 175,-752.45 175,-687.5 175,-687.5 175,-687.5 175,-244 175,-203.93 209.71,-168.08 232.53,-148.84"/>
<polygon fill="midnightblue" stroke="midnightblue" points="234.74,-151.55 240.31,-142.53 230.33,-146.11 234.74,-151.55"/>
</g>
<!-- Node22 -->
<g id="node22" class="node">
<title>Node22</title>
<g id="a_node22"><a xlink:href="packet__types_8h.html" target="_top" xlink:title=" ">
<polygon fill="white" stroke="black" points="377.5,-738.5 377.5,-757.5 506.5,-757.5 506.5,-738.5 377.5,-738.5"/>
<text text-anchor="middle" x="442" y="-745.5" font-family="Helvetica,sans-Serif" font-size="10.00">odp/api/packet_types.h</text>
</a>
</g>
</g>
<!-- Node18&#45;&gt;Node22 -->
<g id="edge29" class="edge">
<title>Node18&#45;&gt;Node22</title>
<path fill="none" stroke="midnightblue" d="M377.37,-794.32C389.16,-786.06 407.13,-773.45 421.14,-763.63"/>
<polygon fill="midnightblue" stroke="midnightblue" points="423.48,-766.26 429.66,-757.65 419.46,-760.53 423.48,-766.26"/>
</g>
<!-- Node29 -->
<g id="node29" class="node">
<title>Node29</title>
<g id="a_node29"><a xlink:href="queue__types_8h.html" target="_top" xlink:title=" ">
<polygon fill="white" stroke="black" points="643.5,-615.5 643.5,-634.5 770.5,-634.5 770.5,-615.5 643.5,-615.5"/>
<text text-anchor="middle" x="707" y="-622.5" font-family="Helvetica,sans-Serif" font-size="10.00">odp/api/queue_types.h</text>
</a>
</g>
</g>
<!-- Node18&#45;&gt;Node29 -->
<g id="edge58" class="edge">
<title>Node18&#45;&gt;Node29</title>
<path fill="none" stroke="midnightblue" d="M410.75,-794.46C490.45,-778.68 649.93,-742.82 688,-702 702.32,-686.64 706.28,-662.17 707.16,-645.16"/>
<polygon fill="midnightblue" stroke="midnightblue" points="710.67,-644.85 707.38,-634.78 703.67,-644.71 710.67,-644.85"/>
</g>
<!-- Node20 -->
<g id="node20" class="node">
<title>Node20</title>
<g id="a_node20"><a xlink:title=" ">
<polygon fill="white" stroke="#bfbfbf" points="180.5,-62 180.5,-81 323.5,-81 323.5,-62 180.5,-62"/>
<text text-anchor="middle" x="252" y="-69" font-family="Helvetica,sans-Serif" font-size="10.00">odp/api/abi/event_types.h</text>
</a>
</g>
</g>
<!-- Node19&#45;&gt;Node20 -->
<g id="edge25" class="edge">
<title>Node19&#45;&gt;Node20</title>
<path fill="none" stroke="midnightblue" d="M252,-123.48C252,-115.08 252,-101.98 252,-91.16"/>
<polygon fill="midnightblue" stroke="midnightblue" points="255.5,-91.01 252,-81.01 248.5,-91.01 255.5,-91.01"/>
</g>
<!-- Node21 -->
<g id="node21" class="node">
<title>Node21</title>
<g id="a_node21"><a xlink:href="spec_2event__types_8h.html" target="_top" xlink:title=" ">
<polygon fill="white" stroke="black" points="418.5,-56.5 418.5,-86.5 527.5,-86.5 527.5,-56.5 418.5,-56.5"/>
<text text-anchor="start" x="426.5" y="-74.5" font-family="Helvetica,sans-Serif" font-size="10.00">odp/api/spec/event</text>
<text text-anchor="middle" x="473" y="-63.5" font-family="Helvetica,sans-Serif" font-size="10.00">_types.h</text>
</a>
</g>
</g>
<!-- Node19&#45;&gt;Node21 -->
<g id="edge26" class="edge">
<title>Node19&#45;&gt;Node21</title>
<path fill="none" stroke="midnightblue" d="M283.66,-123.48C316.81,-114.55 369.71,-100.31 411.18,-89.14"/>
<polygon fill="midnightblue" stroke="midnightblue" points="412.17,-92.5 420.91,-86.52 410.35,-85.74 412.17,-92.5"/>
</g>
<!-- Node21&#45;&gt;Node4 -->
<g id="edge27" class="edge">
<title>Node21&#45;&gt;Node4</title>
<path fill="none" stroke="midnightblue" d="M527.83,-64.36C624.73,-53.5 826.14,-30.93 933.32,-18.92"/>
<polygon fill="midnightblue" stroke="midnightblue" points="933.84,-22.38 943.39,-17.79 933.07,-15.43 933.84,-22.38"/>
</g>
<!-- Node21&#45;&gt;Node12 -->
<g id="edge28" class="edge">
<title>Node21&#45;&gt;Node12</title>
<path fill="none" stroke="midnightblue" d="M444.32,-56.4C424.48,-46.64 398.24,-33.74 378.81,-24.18"/>
<polygon fill="midnightblue" stroke="midnightblue" points="380.12,-20.93 369.61,-19.66 377.04,-27.21 380.12,-20.93"/>
</g>
<!-- Node23 -->
<g id="node23" class="node">
<title>Node23</title>
<g id="a_node23"><a xlink:title=" ">
<polygon fill="white" stroke="#bfbfbf" points="573,-671.5 573,-701.5 679,-701.5 679,-671.5 573,-671.5"/>
<text text-anchor="start" x="581" y="-689.5" font-family="Helvetica,sans-Serif" font-size="10.00">odp/api/abi/packet</text>
<text text-anchor="middle" x="626" y="-678.5" font-family="Helvetica,sans-Serif" font-size="10.00">_io_types.h</text>
</a>
</g>
</g>
<!-- Node22&#45;&gt;Node23 -->
<g id="edge30" class="edge">
<title>Node22&#45;&gt;Node23</title>
<path fill="none" stroke="midnightblue" d="M468.36,-738.48C495.5,-729.7 538.52,-715.79 572.77,-704.71"/>
<polygon fill="midnightblue" stroke="midnightblue" points="574.2,-707.93 582.63,-701.52 572.04,-701.27 574.2,-707.93"/>
</g>
<!-- Node24 -->
<g id="node24" class="node">
<title>Node24</title>
<g id="a_node24"><a xlink:title=" ">
<polygon fill="white" stroke="#bfbfbf" points="449,-671.5 449,-701.5 555,-701.5 555,-671.5 449,-671.5"/>
<text text-anchor="start" x="457" y="-689.5" font-family="Helvetica,sans-Serif" font-size="10.00">odp/api/abi/packet</text>
<text text-anchor="middle" x="502" y="-678.5" font-family="Helvetica,sans-Serif" font-size="10.00">_types.h</text>
</a>
</g>
</g>
<!-- Node22&#45;&gt;Node24 -->
<g id="edge31" class="edge">
<title>Node22&#45;&gt;Node24</title>
<path fill="none" stroke="midnightblue" d="M450.6,-738.48C458.42,-730.72 470.29,-718.94 480.66,-708.66"/>
<polygon fill="midnightblue" stroke="midnightblue" points="483.22,-711.05 487.86,-701.52 478.29,-706.08 483.22,-711.05"/>
</g>
<!-- Node25 -->
<g id="node25" class="node">
<title>Node25</title>
<g id="a_node25"><a xlink:href="spec_2packet__types_8h.html" target="_top" xlink:title=" ">
<polygon fill="white" stroke="black" points="317.5,-671.5 317.5,-701.5 430.5,-701.5 430.5,-671.5 317.5,-671.5"/>
<text text-anchor="start" x="325.5" y="-689.5" font-family="Helvetica,sans-Serif" font-size="10.00">odp/api/spec/packet</text>
<text text-anchor="middle" x="374" y="-678.5" font-family="Helvetica,sans-Serif" font-size="10.00">_types.h</text>
</a>
</g>
</g>
<!-- Node22&#45;&gt;Node25 -->
<g id="edge32" class="edge">
<title>Node22&#45;&gt;Node25</title>
<path fill="none" stroke="midnightblue" d="M432.26,-738.48C423.31,-730.64 409.67,-718.71 397.85,-708.37"/>
<polygon fill="midnightblue" stroke="midnightblue" points="399.86,-705.47 390.03,-701.52 395.25,-710.74 399.86,-705.47"/>
</g>
<!-- Node25&#45;&gt;Node4 -->
<g id="edge33" class="edge">
<title>Node25&#45;&gt;Node4</title>
<path fill="none" stroke="midnightblue" d="M430.8,-672.6C433.91,-672.03 436.99,-671.49 440,-671 660.88,-635.16 744.56,-696.49 935,-579 1010.59,-532.37 1080,-530.31 1080,-441.5 1080,-441.5 1080,-441.5 1080,-132 1080,-88.48 1044.3,-47.77 1021.84,-26.47"/>
<polygon fill="midnightblue" stroke="midnightblue" points="1023.99,-23.7 1014.25,-19.53 1019.27,-28.86 1023.99,-23.7"/>
</g>
<!-- Node25&#45;&gt;Node12 -->
<g id="edge57" class="edge">
<title>Node25&#45;&gt;Node12</title>
<path fill="none" stroke="midnightblue" d="M364.41,-671.47C329.38,-619.32 207.9,-430.63 161,-255 148.13,-206.81 156,-192.83 154,-143 152.45,-104.36 128.86,-86.21 153,-56 169.48,-35.38 234.24,-23.51 285.46,-17.2"/>
<polygon fill="midnightblue" stroke="midnightblue" points="285.99,-20.66 295.51,-16.01 285.17,-13.71 285.99,-20.66"/>
</g>
<!-- Node26 -->
<g id="node26" class="node">
<title>Node26</title>
<g id="a_node26"><a xlink:href="proto__stats__types_8h.html" target="_top" xlink:title=" ">
<polygon fill="white" stroke="black" points="319,-358.5 319,-388.5 429,-388.5 429,-358.5 319,-358.5"/>
<text text-anchor="start" x="327" y="-376.5" font-family="Helvetica,sans-Serif" font-size="10.00">odp/api/proto_stats</text>
<text text-anchor="middle" x="374" y="-365.5" font-family="Helvetica,sans-Serif" font-size="10.00">_types.h</text>
</a>
</g>
</g>
<!-- Node25&#45;&gt;Node26 -->
<g id="edge34" class="edge">
<title>Node25&#45;&gt;Node26</title>
<path fill="none" stroke="midnightblue" d="M374,-671.34C374,-648.75 374,-603.15 374,-564.5 374,-564.5 374,-564.5 374,-501 374,-465.42 374,-424.2 374,-398.74"/>
<polygon fill="midnightblue" stroke="midnightblue" points="377.5,-398.54 374,-388.54 370.5,-398.54 377.5,-398.54"/>
</g>
<!-- Node25&#45;&gt;Node29 -->
<g id="edge40" class="edge">
<title>Node25&#45;&gt;Node29</title>
<path fill="none" stroke="midnightblue" d="M430.84,-672.83C433.94,-672.19 437.01,-671.58 440,-671 508.5,-657.71 587.33,-644.7 641.48,-636.12"/>
<polygon fill="midnightblue" stroke="midnightblue" points="642.3,-639.53 651.63,-634.52 641.21,-632.62 642.3,-639.53"/>
</g>
<!-- Node27 -->
<g id="node27" class="node">
<title>Node27</title>
<g id="a_node27"><a xlink:title=" ">
<polygon fill="white" stroke="#bfbfbf" points="405,-291.5 405,-321.5 533,-321.5 533,-291.5 405,-291.5"/>
<text text-anchor="start" x="413" y="-309.5" font-family="Helvetica,sans-Serif" font-size="10.00">odp/api/abi/proto_stats</text>
<text text-anchor="middle" x="469" y="-298.5" font-family="Helvetica,sans-Serif" font-size="10.00">_types.h</text>
</a>
</g>
</g>
<!-- Node26&#45;&gt;Node27 -->
<g id="edge35" class="edge">
<title>Node26&#45;&gt;Node27</title>
<path fill="none" stroke="midnightblue" d="M394.61,-358.4C407.93,-349.28 425.46,-337.29 440.16,-327.24"/>
<polygon fill="midnightblue" stroke="midnightblue" points="442.15,-330.11 448.43,-321.58 438.2,-324.33 442.15,-330.11"/>
</g>
<!-- Node28 -->
<g id="node28" class="node">
<title>Node28</title>
<g id="a_node28"><a xlink:href="spec_2proto__stats__types_8h.html" target="_top" xlink:title=" ">
<polygon fill="white" stroke="black" points="279.5,-291.5 279.5,-321.5 386.5,-321.5 386.5,-291.5 279.5,-291.5"/>
<text text-anchor="start" x="287.5" y="-309.5" font-family="Helvetica,sans-Serif" font-size="10.00">odp/api/spec/proto</text>
<text text-anchor="middle" x="333" y="-298.5" font-family="Helvetica,sans-Serif" font-size="10.00">_stats_types.h</text>
</a>
</g>
</g>
<!-- Node26&#45;&gt;Node28 -->
<g id="edge36" class="edge">
<title>Node26&#45;&gt;Node28</title>
<path fill="none" stroke="midnightblue" d="M365.1,-358.4C359.89,-350.13 353.19,-339.51 347.26,-330.1"/>
<polygon fill="midnightblue" stroke="midnightblue" points="350.17,-328.17 341.88,-321.58 344.25,-331.9 350.17,-328.17"/>
</g>
<!-- Node28&#45;&gt;Node4 -->
<g id="edge37" class="edge">
<title>Node28&#45;&gt;Node4</title>
<path fill="none" stroke="midnightblue" d="M368.35,-291.39C410.28,-275.22 482.63,-249.16 547,-235 683.33,-205.01 737.52,-267.75 859,-199 928.78,-159.51 919.94,-119.42 969,-56 976.28,-46.59 984.44,-36.09 991.05,-27.6"/>
<polygon fill="midnightblue" stroke="midnightblue" points="993.89,-29.66 997.28,-19.62 988.37,-25.35 993.89,-29.66"/>
</g>
<!-- Node28&#45;&gt;Node5 -->
<g id="edge38" class="edge">
<title>Node28&#45;&gt;Node5</title>
<path fill="none" stroke="midnightblue" d="M386.6,-293.08C389.78,-292.37 392.93,-291.67 396,-291 451.89,-278.75 516.09,-265.47 559.88,-256.54"/>
<polygon fill="midnightblue" stroke="midnightblue" points="560.63,-259.96 569.73,-254.54 559.23,-253.1 560.63,-259.96"/>
</g>
<!-- Node28&#45;&gt;Node12 -->
<g id="edge39" class="edge">
<title>Node28&#45;&gt;Node12</title>
<path fill="none" stroke="midnightblue" d="M311.07,-291.4C253.13,-252.44 104.84,-140.63 171,-56 185.23,-37.8 239.84,-25.91 285.39,-18.94"/>
<polygon fill="midnightblue" stroke="midnightblue" points="286.16,-22.37 295.55,-17.45 285.14,-15.44 286.16,-22.37"/>
</g>
<!-- Node30 -->
<g id="node30" class="node">
<title>Node30</title>
<g id="a_node30"><a xlink:title=" ">
<polygon fill="white" stroke="#bfbfbf" points="780.5,-554 780.5,-573 925.5,-573 925.5,-554 780.5,-554"/>
<text text-anchor="middle" x="853" y="-561" font-family="Helvetica,sans-Serif" font-size="10.00">odp/api/abi/queue_types.h</text>
</a>
</g>
</g>
<!-- Node29&#45;&gt;Node30 -->
<g id="edge41" class="edge">
<title>Node29&#45;&gt;Node30</title>
<path fill="none" stroke="midnightblue" d="M727.92,-615.48C752.75,-605.36 794.34,-588.4 822.69,-576.85"/>
<polygon fill="midnightblue" stroke="midnightblue" points="824.18,-580.02 832.12,-573.01 821.54,-573.54 824.18,-580.02"/>
</g>
<!-- Node31 -->
<g id="node31" class="node">
<title>Node31</title>
<g id="a_node31"><a xlink:href="spec_2queue__types_8h.html" target="_top" xlink:title=" ">
<polygon fill="white" stroke="black" points="651.5,-548.5 651.5,-578.5 762.5,-578.5 762.5,-548.5 651.5,-548.5"/>
<text text-anchor="start" x="659.5" y="-566.5" font-family="Helvetica,sans-Serif" font-size="10.00">odp/api/spec/queue</text>
<text text-anchor="middle" x="707" y="-555.5" font-family="Helvetica,sans-Serif" font-size="10.00">_types.h</text>
</a>
</g>
</g>
<!-- Node29&#45;&gt;Node31 -->
<g id="edge42" class="edge">
<title>Node29&#45;&gt;Node31</title>
<path fill="none" stroke="midnightblue" d="M707,-615.48C707,-608.47 707,-598.19 707,-588.7"/>
<polygon fill="midnightblue" stroke="midnightblue" points="710.5,-588.52 707,-578.52 703.5,-588.52 710.5,-588.52"/>
</g>
<!-- Node31&#45;&gt;Node4 -->
<g id="edge43" class="edge">
<title>Node31&#45;&gt;Node4</title>
<path fill="none" stroke="midnightblue" d="M761.94,-548.48C856.98,-523.44 1042,-470.91 1042,-441.5 1042,-441.5 1042,-441.5 1042,-132 1042,-93.81 1024.56,-51.83 1013.31,-28.72"/>
<polygon fill="midnightblue" stroke="midnightblue" points="1016.29,-26.86 1008.66,-19.52 1010.04,-30.02 1016.29,-26.86"/>
</g>
<!-- Node31&#45;&gt;Node12 -->
<g id="edge56" class="edge">
<title>Node31&#45;&gt;Node12</title>
<path fill="none" stroke="midnightblue" d="M651.25,-557.41C557.3,-545.66 368.39,-507.79 273,-389 203.14,-302.01 288.14,-248.98 323,-143 335.96,-103.59 344.85,-55.64 349.11,-29.76"/>
<polygon fill="midnightblue" stroke="midnightblue" points="352.58,-30.24 350.7,-19.81 345.67,-29.14 352.58,-30.24"/>
</g>
<!-- Node32 -->
<g id="node32" class="node">
<title>Node32</title>
<g id="a_node32"><a xlink:href="schedule__types_8h.html" target="_top" xlink:title=" ">
<polygon fill="white" stroke="black" points="665,-492.5 665,-511.5 805,-511.5 805,-492.5 665,-492.5"/>
<text text-anchor="middle" x="735" y="-499.5" font-family="Helvetica,sans-Serif" font-size="10.00">odp/api/schedule_types.h</text>
</a>
</g>
</g>
<!-- Node31&#45;&gt;Node32 -->
<g id="edge44" class="edge">
<title>Node31&#45;&gt;Node32</title>
<path fill="none" stroke="midnightblue" d="M713.64,-548.4C717.54,-540.11 722.5,-529.55 726.67,-520.71"/>
<polygon fill="midnightblue" stroke="midnightblue" points="729.83,-522.2 730.93,-511.66 723.5,-519.22 729.83,-522.2"/>
</g>
<!-- Node33 -->
<g id="node33" class="node">
<title>Node33</title>
<g id="a_node33"><a xlink:title=" ">
<polygon fill="white" stroke="#bfbfbf" points="811.5,-425.5 811.5,-455.5 928.5,-455.5 928.5,-425.5 811.5,-425.5"/>
<text text-anchor="start" x="819.5" y="-443.5" font-family="Helvetica,sans-Serif" font-size="10.00">odp/api/abi/schedule</text>
<text text-anchor="middle" x="870" y="-432.5" font-family="Helvetica,sans-Serif" font-size="10.00">_types.h</text>
</a>
</g>
</g>
<!-- Node32&#45;&gt;Node33 -->
<g id="edge45" class="edge">
<title>Node32&#45;&gt;Node33</title>
<path fill="none" stroke="midnightblue" d="M754.34,-492.48C773.74,-483.93 804.2,-470.5 828.99,-459.57"/>
<polygon fill="midnightblue" stroke="midnightblue" points="830.44,-462.76 838.18,-455.52 827.62,-456.35 830.44,-462.76"/>
</g>
<!-- Node34 -->
<g id="node34" class="node">
<title>Node34</title>
<g id="a_node34"><a xlink:href="spec_2schedule__types_8h.html" target="_top" xlink:title=" ">
<polygon fill="white" stroke="black" points="668.5,-425.5 668.5,-455.5 793.5,-455.5 793.5,-425.5 668.5,-425.5"/>
<text text-anchor="start" x="676.5" y="-443.5" font-family="Helvetica,sans-Serif" font-size="10.00">odp/api/spec/schedule</text>
<text text-anchor="middle" x="731" y="-432.5" font-family="Helvetica,sans-Serif" font-size="10.00">_types.h</text>
</a>
</g>
</g>
<!-- Node32&#45;&gt;Node34 -->
<g id="edge46" class="edge">
<title>Node32&#45;&gt;Node34</title>
<path fill="none" stroke="midnightblue" d="M734.43,-492.48C733.96,-485.47 733.27,-475.19 732.63,-465.7"/>
<polygon fill="midnightblue" stroke="midnightblue" points="736.11,-465.27 731.94,-455.52 729.12,-465.74 736.11,-465.27"/>
</g>
<!-- Node34&#45;&gt;Node4 -->
<g id="edge47" class="edge">
<title>Node34&#45;&gt;Node4</title>
<path fill="none" stroke="midnightblue" d="M783.96,-425.45C863.35,-402.81 1004,-355.87 1004,-307.5 1004,-307.5 1004,-307.5 1004,-132 1004,-95.71 1004,-53.31 1004,-29.56"/>
<polygon fill="midnightblue" stroke="midnightblue" points="1007.5,-29.51 1004,-19.51 1000.5,-29.51 1007.5,-29.51"/>
</g>
<!-- Node34&#45;&gt;Node5 -->
<g id="edge48" class="edge">
<title>Node34&#45;&gt;Node5</title>
<path fill="none" stroke="midnightblue" d="M723.42,-425.34C703.88,-388.83 653.15,-294.11 651,-291 644.04,-280.92 635.17,-270.53 627.64,-262.27"/>
<polygon fill="midnightblue" stroke="midnightblue" points="630.07,-259.75 620.69,-254.82 624.96,-264.52 630.07,-259.75"/>
</g>
<!-- Node34&#45;&gt;Node12 -->
<g id="edge55" class="edge">
<title>Node34&#45;&gt;Node12</title>
<path fill="none" stroke="midnightblue" d="M668.31,-438.64C565.76,-436.15 367.72,-426.49 310,-389 270.55,-363.38 257.2,-336.27 270,-291 291.02,-216.7 336.7,-216.29 361,-143 373.19,-106.24 371.82,-94.29 366,-56 364.63,-47 361.81,-37.33 359.05,-29.26"/>
<polygon fill="midnightblue" stroke="midnightblue" points="362.31,-27.98 355.6,-19.78 355.73,-30.37 362.31,-27.98"/>
</g>
<!-- Node35 -->
<g id="node35" class="node">
<title>Node35</title>
<g id="a_node35"><a xlink:href="thrmask_8h.html" target="_top" xlink:title=" ">
<polygon fill="white" stroke="black" points="712.5,-364 712.5,-383 817.5,-383 817.5,-364 712.5,-364"/>
<text text-anchor="middle" x="765" y="-371" font-family="Helvetica,sans-Serif" font-size="10.00">odp/api/thrmask.h</text>
</a>
</g>
</g>
<!-- Node34&#45;&gt;Node35 -->
<g id="edge49" class="edge">
<title>Node34&#45;&gt;Node35</title>
<path fill="none" stroke="midnightblue" d="M738.38,-425.4C743.47,-415.66 750.28,-402.65 755.73,-392.21"/>
<polygon fill="midnightblue" stroke="midnightblue" points="758.92,-393.68 760.45,-383.19 752.72,-390.43 758.92,-393.68"/>
</g>
<!-- Node36 -->
<g id="node36" class="node">
<title>Node36</title>
<g id="a_node36"><a xlink:title=" ">
<polygon fill="white" stroke="#bfbfbf" points="703.5,-297 703.5,-316 826.5,-316 826.5,-297 703.5,-297"/>
<text text-anchor="middle" x="765" y="-304" font-family="Helvetica,sans-Serif" font-size="10.00">odp/api/abi/thrmask.h</text>
</a>
</g>
</g>
<!-- Node35&#45;&gt;Node36 -->
<g id="edge50" class="edge">
<title>Node35&#45;&gt;Node36</title>
<path fill="none" stroke="midnightblue" d="M765,-363.73C765,-354.18 765,-338.62 765,-326.28"/>
<polygon fill="midnightblue" stroke="midnightblue" points="768.5,-326.13 765,-316.13 761.5,-326.13 768.5,-326.13"/>
</g>
<!-- Node37 -->
<g id="node37" class="node">
<title>Node37</title>
<g id="a_node37"><a xlink:href="spec_2thrmask_8h.html" target="_top" xlink:title=" ">
<polygon fill="white" stroke="black" points="844.5,-297 844.5,-316 975.5,-316 975.5,-297 844.5,-297"/>
<text text-anchor="middle" x="910" y="-304" font-family="Helvetica,sans-Serif" font-size="10.00">odp/api/spec/thrmask.h</text>
</a>
</g>
</g>
<!-- Node35&#45;&gt;Node37 -->
<g id="edge51" class="edge">
<title>Node35&#45;&gt;Node37</title>
<path fill="none" stroke="midnightblue" d="M784.25,-363.87C809.17,-352.7 852.79,-333.15 881.53,-320.26"/>
<polygon fill="midnightblue" stroke="midnightblue" points="882.97,-323.45 890.67,-316.17 880.11,-317.06 882.97,-323.45"/>
</g>
<!-- Node37&#45;&gt;Node4 -->
<g id="edge52" class="edge">
<title>Node37&#45;&gt;Node4</title>
<path fill="none" stroke="midnightblue" d="M917.55,-296.92C932.84,-278.63 966,-233.9 966,-190 966,-190 966,-190 966,-132 966,-93.81 983.44,-51.83 994.69,-28.72"/>
<polygon fill="midnightblue" stroke="midnightblue" points="997.96,-30.02 999.34,-19.52 991.71,-26.86 997.96,-30.02"/>
</g>
<!-- Node37&#45;&gt;Node5 -->
<g id="edge53" class="edge">
<title>Node37&#45;&gt;Node5</title>
<path fill="none" stroke="midnightblue" d="M867.3,-296.98C813.86,-286.3 722.35,-268.03 664.63,-256.51"/>
<polygon fill="midnightblue" stroke="midnightblue" points="665.11,-253.03 654.62,-254.51 663.74,-259.9 665.11,-253.03"/>
</g>
<!-- Node37&#45;&gt;Node12 -->
<g id="edge54" class="edge">
<title>Node37&#45;&gt;Node12</title>
<path fill="none" stroke="midnightblue" d="M889.88,-296.88C852.06,-280.3 768.37,-241.79 704,-199 639.36,-156.03 628.09,-138.48 570,-87 554.94,-73.65 554.69,-65.58 537,-56 500.34,-36.14 454.89,-24.93 418.21,-18.66"/>
<polygon fill="midnightblue" stroke="midnightblue" points="418.55,-15.17 408.12,-17.02 417.43,-22.08 418.55,-15.17"/>
</g>
</g>
</svg>
