<?xml version="1.0" encoding="UTF-8" standalone="no"?>
<!DOCTYPE svg PUBLIC "-//W3C//DTD SVG 1.1//EN"
 "http://www.w3.org/Graphics/SVG/1.1/DTD/svg11.dtd">
<!-- Generated by graphviz version 2.43.0 (0)
 -->
<!-- Title: pool_types.h Pages: 1 -->
<svg width="1072pt" height="476pt"
 viewBox="0.00 0.00 1071.50 476.00" xmlns="http://www.w3.org/2000/svg" xmlns:xlink="http://www.w3.org/1999/xlink">
<g id="graph0" class="graph" transform="scale(1 1) rotate(0) translate(4 472)">
<title>pool_types.h</title>
<polygon fill="white" stroke="transparent" points="-4,4 -4,-472 1067.5,-472 1067.5,4 -4,4"/>
<!-- Node1 -->
<g id="node1" class="node">
<title>Node1</title>
<g id="a_node1"><a xlink:title=" ">
<polygon fill="#bfbfbf" stroke="black" points="404,-448.5 404,-467.5 483,-467.5 483,-448.5 404,-448.5"/>
<text text-anchor="middle" x="443.5" y="-455.5" font-family="Helvetica,sans-Serif" font-size="10.00">pool_types.h</text>
</a>
</g>
</g>
<!-- Node2 -->
<g id="node2" class="node">
<title>Node2</title>
<g id="a_node2"><a xlink:href="spec_2buffer_8h.html" target="_top" xlink:title=" ">
<polygon fill="white" stroke="black" points="47,-392.5 47,-411.5 100,-411.5 100,-392.5 47,-392.5"/>
<text text-anchor="middle" x="73.5" y="-399.5" font-family="Helvetica,sans-Serif" font-size="10.00">buffer.h</text>
</a>
</g>
</g>
<!-- Node1&#45;&gt;Node2 -->
<g id="edge1" class="edge">
<title>Node1&#45;&gt;Node2</title>
<path fill="none" stroke="midnightblue" d="M393.68,-449.73C314.35,-438.15 162.04,-415.92 100.39,-406.92"/>
<polygon fill="midnightblue" stroke="midnightblue" points="393.5,-453.24 403.9,-451.22 394.51,-446.31 393.5,-453.24"/>
</g>
<!-- Node4 -->
<g id="node4" class="node">
<title>Node4</title>
<g id="a_node4"><a xlink:href="dma__inlines_8h_source.html" target="_top" xlink:title=" ">
<polygon fill="white" stroke="black" points="0,-280.5 0,-299.5 85,-299.5 85,-280.5 0,-280.5"/>
<text text-anchor="middle" x="42.5" y="-287.5" font-family="Helvetica,sans-Serif" font-size="10.00">dma_inlines.h</text>
</a>
</g>
</g>
<!-- Node1&#45;&gt;Node4 -->
<g id="edge40" class="edge">
<title>Node1&#45;&gt;Node4</title>
<path fill="none" stroke="midnightblue" d="M393.78,-454.49C291.47,-448.9 64.61,-434.15 37.5,-412 10.62,-390.04 11.38,-369.75 19.5,-336 22.74,-322.52 30.75,-308.54 36.4,-299.81"/>
<polygon fill="midnightblue" stroke="midnightblue" points="393.7,-457.99 403.87,-455.04 394.08,-451 393.7,-457.99"/>
</g>
<!-- Node5 -->
<g id="node5" class="node">
<title>Node5</title>
<g id="a_node5"><a xlink:href="spec_2classification_8h.html" target="_top" xlink:title=" ">
<polygon fill="white" stroke="black" points="490,-280.5 490,-299.5 579,-299.5 579,-280.5 490,-280.5"/>
<text text-anchor="middle" x="534.5" y="-287.5" font-family="Helvetica,sans-Serif" font-size="10.00">classification.h</text>
</a>
</g>
</g>
<!-- Node1&#45;&gt;Node5 -->
<g id="edge4" class="edge">
<title>Node1&#45;&gt;Node5</title>
<path fill="none" stroke="midnightblue" d="M441.86,-438.1C440.62,-412.73 441.86,-367.23 462.5,-336 473.96,-318.66 494.64,-306.77 510.9,-299.59"/>
<polygon fill="midnightblue" stroke="midnightblue" points="438.38,-438.48 442.55,-448.22 445.36,-438.01 438.38,-438.48"/>
</g>
<!-- Node14 -->
<g id="node14" class="node">
<title>Node14</title>
<g id="a_node14"><a xlink:href="spec_2crypto__types_8h.html" target="_top" xlink:title=" ">
<polygon fill="white" stroke="black" points="100,-336.5 100,-355.5 189,-355.5 189,-336.5 100,-336.5"/>
<text text-anchor="middle" x="144.5" y="-343.5" font-family="Helvetica,sans-Serif" font-size="10.00">crypto_types.h</text>
</a>
</g>
</g>
<!-- Node1&#45;&gt;Node14 -->
<g id="edge13" class="edge">
<title>Node1&#45;&gt;Node14</title>
<path fill="none" stroke="midnightblue" d="M393.85,-456.78C343.02,-454.55 263.22,-445.37 203.5,-412 178.75,-398.17 158.82,-370.13 149.77,-355.82"/>
<polygon fill="midnightblue" stroke="midnightblue" points="393.81,-460.28 403.93,-457.15 394.07,-453.28 393.81,-460.28"/>
</g>
<!-- Node19 -->
<g id="node19" class="node">
<title>Node19</title>
<g id="a_node19"><a xlink:href="spec_2dma_8h.html" target="_top" xlink:title=" ">
<polygon fill="white" stroke="black" points="246,-392.5 246,-411.5 293,-411.5 293,-392.5 246,-392.5"/>
<text text-anchor="middle" x="269.5" y="-399.5" font-family="Helvetica,sans-Serif" font-size="10.00">dma.h</text>
</a>
</g>
</g>
<!-- Node1&#45;&gt;Node19 -->
<g id="edge20" class="edge">
<title>Node1&#45;&gt;Node19</title>
<path fill="none" stroke="midnightblue" d="M406.26,-445.44C371.96,-434.8 322.12,-419.33 293.04,-410.3"/>
<polygon fill="midnightblue" stroke="midnightblue" points="405.34,-448.82 415.93,-448.44 407.42,-442.14 405.34,-448.82"/>
</g>
<!-- Node21 -->
<g id="node21" class="node">
<title>Node21</title>
<g id="a_node21"><a xlink:href="spec_2packet_8h.html" target="_top" xlink:title=" ">
<polygon fill="white" stroke="black" points="181.5,-280.5 181.5,-299.5 239.5,-299.5 239.5,-280.5 181.5,-280.5"/>
<text text-anchor="middle" x="210.5" y="-287.5" font-family="Helvetica,sans-Serif" font-size="10.00">packet.h</text>
</a>
</g>
</g>
<!-- Node1&#45;&gt;Node21 -->
<g id="edge22" class="edge">
<title>Node1&#45;&gt;Node21</title>
<path fill="none" stroke="midnightblue" d="M393.92,-452.37C339.89,-446.3 258.22,-433.77 236.5,-412 205.39,-380.82 207.43,-321.98 209.48,-299.78"/>
<polygon fill="midnightblue" stroke="midnightblue" points="393.68,-455.87 404,-453.47 394.43,-448.91 393.68,-455.87"/>
</g>
<!-- Node23 -->
<g id="node23" class="node">
<title>Node23</title>
<g id="a_node23"><a xlink:href="spec_2packet__io__types_8h.html" target="_top" xlink:title=" ">
<polygon fill="white" stroke="black" points="311.5,-392.5 311.5,-411.5 415.5,-411.5 415.5,-392.5 311.5,-392.5"/>
<text text-anchor="middle" x="363.5" y="-399.5" font-family="Helvetica,sans-Serif" font-size="10.00">packet_io_types.h</text>
</a>
</g>
</g>
<!-- Node1&#45;&gt;Node23 -->
<g id="edge26" class="edge">
<title>Node1&#45;&gt;Node23</title>
<path fill="none" stroke="midnightblue" d="M422.2,-442.62C407.58,-432.76 388.67,-419.99 376.32,-411.65"/>
<polygon fill="midnightblue" stroke="midnightblue" points="420.4,-445.63 430.65,-448.32 424.32,-439.83 420.4,-445.63"/>
</g>
<!-- Node27 -->
<g id="node27" class="node">
<title>Node27</title>
<g id="a_node27"><a xlink:href="spec_2pool_8h.html" target="_top" xlink:title=" ">
<polygon fill="white" stroke="black" points="472,-392.5 472,-411.5 519,-411.5 519,-392.5 472,-392.5"/>
<text text-anchor="middle" x="495.5" y="-399.5" font-family="Helvetica,sans-Serif" font-size="10.00">pool.h</text>
</a>
</g>
</g>
<!-- Node1&#45;&gt;Node27 -->
<g id="edge35" class="edge">
<title>Node1&#45;&gt;Node27</title>
<path fill="none" stroke="midnightblue" d="M459.18,-440.72C468.34,-431.2 479.55,-419.56 487.07,-411.75"/>
<polygon fill="midnightblue" stroke="midnightblue" points="456.5,-438.45 452.09,-448.08 461.54,-443.31 456.5,-438.45"/>
</g>
<!-- Node29 -->
<g id="node29" class="node">
<title>Node29</title>
<g id="a_node29"><a xlink:href="spec_2timer_8h.html" target="_top" xlink:title=" ">
<polygon fill="white" stroke="black" points="537,-392.5 537,-411.5 588,-411.5 588,-392.5 537,-392.5"/>
<text text-anchor="middle" x="562.5" y="-399.5" font-family="Helvetica,sans-Serif" font-size="10.00">timer.h</text>
</a>
</g>
</g>
<!-- Node1&#45;&gt;Node29 -->
<g id="edge37" class="edge">
<title>Node1&#45;&gt;Node29</title>
<path fill="none" stroke="midnightblue" d="M471.64,-444.23C493.9,-434.13 524.36,-420.31 543.73,-411.52"/>
<polygon fill="midnightblue" stroke="midnightblue" points="470.02,-441.12 462.36,-448.44 472.91,-447.5 470.02,-441.12"/>
</g>
<!-- Node31 -->
<g id="node31" class="node">
<title>Node31</title>
<g id="a_node31"><a xlink:href="buffer__inlines_8h_source.html" target="_top" xlink:title=" ">
<polygon fill="white" stroke="black" points="606.5,-392.5 606.5,-411.5 698.5,-411.5 698.5,-392.5 606.5,-392.5"/>
<text text-anchor="middle" x="652.5" y="-399.5" font-family="Helvetica,sans-Serif" font-size="10.00">buffer_inlines.h</text>
</a>
</g>
</g>
<!-- Node1&#45;&gt;Node31 -->
<g id="edge39" class="edge">
<title>Node1&#45;&gt;Node31</title>
<path fill="none" stroke="midnightblue" d="M486.48,-445.89C525.95,-435.7 583.6,-420.8 619.54,-411.52"/>
<polygon fill="midnightblue" stroke="midnightblue" points="485.42,-442.55 476.62,-448.44 487.17,-449.33 485.42,-442.55"/>
</g>
<!-- Node32 -->
<g id="node32" class="node">
<title>Node32</title>
<g id="a_node32"><a xlink:href="packet__inlines_8h.html" target="_top" xlink:title=" ">
<polygon fill="white" stroke="black" points="717,-392.5 717,-411.5 812,-411.5 812,-392.5 717,-392.5"/>
<text text-anchor="middle" x="764.5" y="-399.5" font-family="Helvetica,sans-Serif" font-size="10.00">packet_inlines.h</text>
</a>
</g>
</g>
<!-- Node1&#45;&gt;Node32 -->
<g id="edge41" class="edge">
<title>Node1&#45;&gt;Node32</title>
<path fill="none" stroke="midnightblue" d="M493.33,-448.62C554.32,-438.36 656.84,-421.11 716.82,-411.02"/>
<polygon fill="midnightblue" stroke="midnightblue" points="492.46,-445.21 483.18,-450.32 493.62,-452.12 492.46,-445.21"/>
</g>
<!-- Node33 -->
<g id="node33" class="node">
<title>Node33</title>
<g id="a_node33"><a xlink:href="packet__vector__inlines_8h.html" target="_top" xlink:title=" ">
<polygon fill="white" stroke="black" points="830,-392.5 830,-411.5 961,-411.5 961,-392.5 830,-392.5"/>
<text text-anchor="middle" x="895.5" y="-399.5" font-family="Helvetica,sans-Serif" font-size="10.00">packet_vector_inlines.h</text>
</a>
</g>
</g>
<!-- Node1&#45;&gt;Node33 -->
<g id="edge42" class="edge">
<title>Node1&#45;&gt;Node33</title>
<path fill="none" stroke="midnightblue" d="M493.42,-451.1C565.75,-442.54 703.93,-426.15 821.5,-412 824.2,-411.68 826.95,-411.34 829.73,-411.01"/>
<polygon fill="midnightblue" stroke="midnightblue" points="492.75,-447.65 483.23,-452.3 493.57,-454.6 492.75,-447.65"/>
</g>
<!-- Node34 -->
<g id="node34" class="node">
<title>Node34</title>
<g id="a_node34"><a xlink:href="pool__inlines_8h_source.html" target="_top" xlink:title=" ">
<polygon fill="white" stroke="black" points="979.5,-392.5 979.5,-411.5 1063.5,-411.5 1063.5,-392.5 979.5,-392.5"/>
<text text-anchor="middle" x="1021.5" y="-399.5" font-family="Helvetica,sans-Serif" font-size="10.00">pool_inlines.h</text>
</a>
</g>
</g>
<!-- Node1&#45;&gt;Node34 -->
<g id="edge43" class="edge">
<title>Node1&#45;&gt;Node34</title>
<path fill="none" stroke="midnightblue" d="M493.34,-454.24C587.07,-448.71 795.85,-434.82 970.5,-412 973.35,-411.63 976.29,-411.21 979.24,-410.76"/>
<polygon fill="midnightblue" stroke="midnightblue" points="493.08,-450.74 483.3,-454.82 493.48,-457.73 493.08,-450.74"/>
</g>
<!-- Node3 -->
<g id="node3" class="node">
<title>Node3</title>
<g id="a_node3"><a xlink:href="buffer_8h.html" target="_top" xlink:title=" ">
<polygon fill="white" stroke="black" points="29,-336.5 29,-355.5 82,-355.5 82,-336.5 29,-336.5"/>
<text text-anchor="middle" x="55.5" y="-343.5" font-family="Helvetica,sans-Serif" font-size="10.00">buffer.h</text>
</a>
</g>
</g>
<!-- Node2&#45;&gt;Node3 -->
<g id="edge2" class="edge">
<title>Node2&#45;&gt;Node3</title>
<path fill="none" stroke="midnightblue" d="M67.3,-382.4C64.29,-373.36 60.81,-362.94 58.42,-355.75"/>
<polygon fill="midnightblue" stroke="midnightblue" points="64.04,-383.7 70.53,-392.08 70.69,-381.49 64.04,-383.7"/>
</g>
<!-- Node3&#45;&gt;Node4 -->
<g id="edge3" class="edge">
<title>Node3&#45;&gt;Node4</title>
<path fill="none" stroke="midnightblue" d="M50.95,-326.1C48.79,-317.14 46.32,-306.86 44.61,-299.75"/>
<polygon fill="midnightblue" stroke="midnightblue" points="47.61,-327.18 53.35,-336.08 54.42,-325.54 47.61,-327.18"/>
</g>
<!-- Node6 -->
<g id="node6" class="node">
<title>Node6</title>
<g id="a_node6"><a xlink:href="classification_8h.html" target="_top" xlink:title=" ">
<polygon fill="white" stroke="black" points="398,-224.5 398,-243.5 487,-243.5 487,-224.5 398,-224.5"/>
<text text-anchor="middle" x="442.5" y="-231.5" font-family="Helvetica,sans-Serif" font-size="10.00">classification.h</text>
</a>
</g>
</g>
<!-- Node5&#45;&gt;Node6 -->
<g id="edge5" class="edge">
<title>Node5&#45;&gt;Node6</title>
<path fill="none" stroke="midnightblue" d="M510.95,-275.18C494.02,-265.24 471.72,-252.15 457.24,-243.65"/>
<polygon fill="midnightblue" stroke="midnightblue" points="509.32,-278.28 519.72,-280.32 512.87,-272.24 509.32,-278.28"/>
</g>
<!-- Node7 -->
<g id="node7" class="node">
<title>Node7</title>
<g id="a_node7"><a xlink:href="spec_2ipsec__types_8h.html" target="_top" xlink:title=" ">
<polygon fill="white" stroke="black" points="314,-168.5 314,-187.5 397,-187.5 397,-168.5 314,-168.5"/>
<text text-anchor="middle" x="355.5" y="-175.5" font-family="Helvetica,sans-Serif" font-size="10.00">ipsec_types.h</text>
</a>
</g>
</g>
<!-- Node6&#45;&gt;Node7 -->
<g id="edge6" class="edge">
<title>Node6&#45;&gt;Node7</title>
<path fill="none" stroke="midnightblue" d="M419.78,-218.9C403.83,-209 383,-196.07 369.44,-187.65"/>
<polygon fill="midnightblue" stroke="midnightblue" points="418.18,-222.02 428.52,-224.32 421.87,-216.08 418.18,-222.02"/>
</g>
<!-- Node12 -->
<g id="node12" class="node">
<title>Node12</title>
<g id="a_node12"><a xlink:href="spec_2packet__io_8h.html" target="_top" xlink:title=" ">
<polygon fill="white" stroke="black" points="447.5,-168.5 447.5,-187.5 519.5,-187.5 519.5,-168.5 447.5,-168.5"/>
<text text-anchor="middle" x="483.5" y="-175.5" font-family="Helvetica,sans-Serif" font-size="10.00">packet_io.h</text>
</a>
</g>
</g>
<!-- Node6&#45;&gt;Node12 -->
<g id="edge11" class="edge">
<title>Node6&#45;&gt;Node12</title>
<path fill="none" stroke="midnightblue" d="M455.52,-215.86C462.62,-206.5 471.1,-195.33 476.86,-187.75"/>
<polygon fill="midnightblue" stroke="midnightblue" points="452.53,-214 449.27,-224.08 458.11,-218.24 452.53,-214"/>
</g>
<!-- Node8 -->
<g id="node8" class="node">
<title>Node8</title>
<g id="a_node8"><a xlink:href="ipsec__types_8h.html" target="_top" xlink:title=" ">
<polygon fill="white" stroke="black" points="174,-112.5 174,-131.5 257,-131.5 257,-112.5 174,-112.5"/>
<text text-anchor="middle" x="215.5" y="-119.5" font-family="Helvetica,sans-Serif" font-size="10.00">ipsec_types.h</text>
</a>
</g>
</g>
<!-- Node7&#45;&gt;Node8 -->
<g id="edge7" class="edge">
<title>Node7&#45;&gt;Node8</title>
<path fill="none" stroke="midnightblue" d="M323.8,-164.77C297.5,-154.63 260.78,-140.47 237.58,-131.52"/>
<polygon fill="midnightblue" stroke="midnightblue" points="322.73,-168.11 333.32,-168.44 325.25,-161.58 322.73,-168.11"/>
</g>
<!-- Node9 -->
<g id="node9" class="node">
<title>Node9</title>
<g id="a_node9"><a xlink:href="spec_2ipsec_8h.html" target="_top" xlink:title=" ">
<polygon fill="white" stroke="black" points="104,-56.5 104,-75.5 155,-75.5 155,-56.5 104,-56.5"/>
<text text-anchor="middle" x="129.5" y="-63.5" font-family="Helvetica,sans-Serif" font-size="10.00">ipsec.h</text>
</a>
</g>
</g>
<!-- Node8&#45;&gt;Node9 -->
<g id="edge8" class="edge">
<title>Node8&#45;&gt;Node9</title>
<path fill="none" stroke="midnightblue" d="M193.05,-106.9C177.28,-97 156.69,-84.07 143.28,-75.65"/>
<polygon fill="midnightblue" stroke="midnightblue" points="191.35,-109.97 201.68,-112.32 195.07,-104.04 191.35,-109.97"/>
</g>
<!-- Node11 -->
<g id="node11" class="node">
<title>Node11</title>
<g id="a_node11"><a xlink:href="ipsec__inlines_8h_source.html" target="_top" xlink:title=" ">
<polygon fill="white" stroke="black" points="206,-56.5 206,-75.5 295,-75.5 295,-56.5 206,-56.5"/>
<text text-anchor="middle" x="250.5" y="-63.5" font-family="Helvetica,sans-Serif" font-size="10.00">ipsec_inlines.h</text>
</a>
</g>
</g>
<!-- Node8&#45;&gt;Node11 -->
<g id="edge10" class="edge">
<title>Node8&#45;&gt;Node11</title>
<path fill="none" stroke="midnightblue" d="M226.8,-103.57C232.82,-94.27 239.97,-83.25 244.83,-75.75"/>
<polygon fill="midnightblue" stroke="midnightblue" points="223.78,-101.79 221.28,-112.08 229.66,-105.6 223.78,-101.79"/>
</g>
<!-- Node10 -->
<g id="node10" class="node">
<title>Node10</title>
<g id="a_node10"><a xlink:href="ipsec_8h.html" target="_top" xlink:title=" ">
<polygon fill="white" stroke="black" points="104,-0.5 104,-19.5 155,-19.5 155,-0.5 104,-0.5"/>
<text text-anchor="middle" x="129.5" y="-7.5" font-family="Helvetica,sans-Serif" font-size="10.00">ipsec.h</text>
</a>
</g>
</g>
<!-- Node9&#45;&gt;Node10 -->
<g id="edge9" class="edge">
<title>Node9&#45;&gt;Node10</title>
<path fill="none" stroke="midnightblue" d="M129.5,-45.8C129.5,-36.91 129.5,-26.78 129.5,-19.75"/>
<polygon fill="midnightblue" stroke="midnightblue" points="126,-46.08 129.5,-56.08 133,-46.08 126,-46.08"/>
</g>
<!-- Node13 -->
<g id="node13" class="node">
<title>Node13</title>
<g id="a_node13"><a xlink:href="packet__io_8h.html" target="_top" xlink:title=" ">
<polygon fill="white" stroke="black" points="447.5,-112.5 447.5,-131.5 519.5,-131.5 519.5,-112.5 447.5,-112.5"/>
<text text-anchor="middle" x="483.5" y="-119.5" font-family="Helvetica,sans-Serif" font-size="10.00">packet_io.h</text>
</a>
</g>
</g>
<!-- Node12&#45;&gt;Node13 -->
<g id="edge12" class="edge">
<title>Node12&#45;&gt;Node13</title>
<path fill="none" stroke="midnightblue" d="M483.5,-157.8C483.5,-148.91 483.5,-138.78 483.5,-131.75"/>
<polygon fill="midnightblue" stroke="midnightblue" points="480,-158.08 483.5,-168.08 487,-158.08 480,-158.08"/>
</g>
<!-- Node15 -->
<g id="node15" class="node">
<title>Node15</title>
<g id="a_node15"><a xlink:href="crypto__types_8h.html" target="_top" xlink:title=" ">
<polygon fill="white" stroke="black" points="75,-224.5 75,-243.5 164,-243.5 164,-224.5 75,-224.5"/>
<text text-anchor="middle" x="119.5" y="-231.5" font-family="Helvetica,sans-Serif" font-size="10.00">crypto_types.h</text>
</a>
</g>
</g>
<!-- Node14&#45;&gt;Node15 -->
<g id="edge14" class="edge">
<title>Node14&#45;&gt;Node15</title>
<path fill="none" stroke="midnightblue" d="M140.26,-326.35C134.78,-302.25 125.48,-261.31 121.45,-243.59"/>
<polygon fill="midnightblue" stroke="midnightblue" points="136.91,-327.39 142.54,-336.37 143.73,-325.84 136.91,-327.39"/>
</g>
<!-- Node15&#45;&gt;Node7 -->
<g id="edge18" class="edge">
<title>Node15&#45;&gt;Node7</title>
<path fill="none" stroke="midnightblue" d="M166.91,-222.15C211.5,-211.95 277.35,-196.88 318.28,-187.52"/>
<polygon fill="midnightblue" stroke="midnightblue" points="165.86,-218.8 156.89,-224.44 167.42,-225.62 165.86,-218.8"/>
</g>
<!-- Node15&#45;&gt;Node9 -->
<g id="edge17" class="edge">
<title>Node15&#45;&gt;Node9</title>
<path fill="none" stroke="midnightblue" d="M100.92,-217.32C93.02,-209.44 84.67,-199.19 80.5,-188 68.69,-156.35 66.91,-142.92 80.5,-112 87.47,-96.14 103.09,-83.42 114.84,-75.6"/>
<polygon fill="midnightblue" stroke="midnightblue" points="98.8,-220.13 108.51,-224.37 103.56,-215 98.8,-220.13"/>
</g>
<!-- Node16 -->
<g id="node16" class="node">
<title>Node16</title>
<g id="a_node16"><a xlink:href="spec_2crypto_8h.html" target="_top" xlink:title=" ">
<polygon fill="white" stroke="black" points="89.5,-168.5 89.5,-187.5 145.5,-187.5 145.5,-168.5 89.5,-168.5"/>
<text text-anchor="middle" x="117.5" y="-175.5" font-family="Helvetica,sans-Serif" font-size="10.00">crypto.h</text>
</a>
</g>
</g>
<!-- Node15&#45;&gt;Node16 -->
<g id="edge15" class="edge">
<title>Node15&#45;&gt;Node16</title>
<path fill="none" stroke="midnightblue" d="M118.79,-213.8C118.46,-204.91 118.08,-194.78 117.82,-187.75"/>
<polygon fill="midnightblue" stroke="midnightblue" points="115.3,-214.22 119.17,-224.08 122.3,-213.96 115.3,-214.22"/>
</g>
<!-- Node18 -->
<g id="node18" class="node">
<title>Node18</title>
<g id="a_node18"><a xlink:href="crypto__inlines_8h_source.html" target="_top" xlink:title=" ">
<polygon fill="white" stroke="black" points="163.5,-168.5 163.5,-187.5 257.5,-187.5 257.5,-168.5 163.5,-168.5"/>
<text text-anchor="middle" x="210.5" y="-175.5" font-family="Helvetica,sans-Serif" font-size="10.00">crypto_inlines.h</text>
</a>
</g>
</g>
<!-- Node15&#45;&gt;Node18 -->
<g id="edge19" class="edge">
<title>Node15&#45;&gt;Node18</title>
<path fill="none" stroke="midnightblue" d="M142.79,-219.18C159.54,-209.24 181.6,-196.15 195.92,-187.65"/>
<polygon fill="midnightblue" stroke="midnightblue" points="140.93,-216.21 134.12,-224.32 144.51,-222.23 140.93,-216.21"/>
</g>
<!-- Node17 -->
<g id="node17" class="node">
<title>Node17</title>
<g id="a_node17"><a xlink:href="crypto_8h.html" target="_top" xlink:title=" ">
<polygon fill="white" stroke="black" points="89.5,-112.5 89.5,-131.5 145.5,-131.5 145.5,-112.5 89.5,-112.5"/>
<text text-anchor="middle" x="117.5" y="-119.5" font-family="Helvetica,sans-Serif" font-size="10.00">crypto.h</text>
</a>
</g>
</g>
<!-- Node16&#45;&gt;Node17 -->
<g id="edge16" class="edge">
<title>Node16&#45;&gt;Node17</title>
<path fill="none" stroke="midnightblue" d="M117.5,-157.8C117.5,-148.91 117.5,-138.78 117.5,-131.75"/>
<polygon fill="midnightblue" stroke="midnightblue" points="114,-158.08 117.5,-168.08 121,-158.08 114,-158.08"/>
</g>
<!-- Node20 -->
<g id="node20" class="node">
<title>Node20</title>
<g id="a_node20"><a xlink:href="dma_8h.html" target="_top" xlink:title=" ">
<polygon fill="white" stroke="black" points="246,-336.5 246,-355.5 293,-355.5 293,-336.5 246,-336.5"/>
<text text-anchor="middle" x="269.5" y="-343.5" font-family="Helvetica,sans-Serif" font-size="10.00">dma.h</text>
</a>
</g>
</g>
<!-- Node19&#45;&gt;Node20 -->
<g id="edge21" class="edge">
<title>Node19&#45;&gt;Node20</title>
<path fill="none" stroke="midnightblue" d="M269.5,-381.8C269.5,-372.91 269.5,-362.78 269.5,-355.75"/>
<polygon fill="midnightblue" stroke="midnightblue" points="266,-382.08 269.5,-392.08 273,-382.08 266,-382.08"/>
</g>
<!-- Node22 -->
<g id="node22" class="node">
<title>Node22</title>
<g id="a_node22"><a xlink:href="packet_8h.html" target="_top" xlink:title=" ">
<polygon fill="white" stroke="black" points="181.5,-224.5 181.5,-243.5 239.5,-243.5 239.5,-224.5 181.5,-224.5"/>
<text text-anchor="middle" x="210.5" y="-231.5" font-family="Helvetica,sans-Serif" font-size="10.00">packet.h</text>
</a>
</g>
</g>
<!-- Node21&#45;&gt;Node22 -->
<g id="edge23" class="edge">
<title>Node21&#45;&gt;Node22</title>
<path fill="none" stroke="midnightblue" d="M210.5,-269.8C210.5,-260.91 210.5,-250.78 210.5,-243.75"/>
<polygon fill="midnightblue" stroke="midnightblue" points="207,-270.08 210.5,-280.08 214,-270.08 207,-270.08"/>
</g>
<!-- Node22&#45;&gt;Node11 -->
<g id="edge25" class="edge">
<title>Node22&#45;&gt;Node11</title>
<path fill="none" stroke="midnightblue" d="M236.82,-219.05C248.16,-211.51 260.25,-201.05 266.5,-188 285,-149.4 264.34,-96.38 254.8,-75.73"/>
<polygon fill="midnightblue" stroke="midnightblue" points="234.69,-216.25 228,-224.46 238.35,-222.21 234.69,-216.25"/>
</g>
<!-- Node22&#45;&gt;Node18 -->
<g id="edge24" class="edge">
<title>Node22&#45;&gt;Node18</title>
<path fill="none" stroke="midnightblue" d="M210.5,-213.8C210.5,-204.91 210.5,-194.78 210.5,-187.75"/>
<polygon fill="midnightblue" stroke="midnightblue" points="207,-214.08 210.5,-224.08 214,-214.08 207,-214.08"/>
</g>
<!-- Node24 -->
<g id="node24" class="node">
<title>Node24</title>
<g id="a_node24"><a xlink:href="packet__io__types_8h.html" target="_top" xlink:title=" ">
<polygon fill="white" stroke="black" points="311.5,-336.5 311.5,-355.5 415.5,-355.5 415.5,-336.5 311.5,-336.5"/>
<text text-anchor="middle" x="363.5" y="-343.5" font-family="Helvetica,sans-Serif" font-size="10.00">packet_io_types.h</text>
</a>
</g>
</g>
<!-- Node23&#45;&gt;Node24 -->
<g id="edge27" class="edge">
<title>Node23&#45;&gt;Node24</title>
<path fill="none" stroke="midnightblue" d="M363.5,-381.8C363.5,-372.91 363.5,-362.78 363.5,-355.75"/>
<polygon fill="midnightblue" stroke="midnightblue" points="360,-382.08 363.5,-392.08 367,-382.08 360,-382.08"/>
</g>
<!-- Node24&#45;&gt;Node5 -->
<g id="edge28" class="edge">
<title>Node24&#45;&gt;Node5</title>
<path fill="none" stroke="midnightblue" d="M400.54,-333.3C432.76,-323.13 478.69,-308.62 507.53,-299.52"/>
<polygon fill="midnightblue" stroke="midnightblue" points="399.08,-330.09 390.6,-336.44 401.19,-336.77 399.08,-330.09"/>
</g>
<!-- Node24&#45;&gt;Node7 -->
<g id="edge29" class="edge">
<title>Node24&#45;&gt;Node7</title>
<path fill="none" stroke="midnightblue" d="M362.58,-325.93C360.85,-289.92 357.15,-213.23 355.91,-187.57"/>
<polygon fill="midnightblue" stroke="midnightblue" points="359.09,-326.26 363.07,-336.08 366.08,-325.92 359.09,-326.26"/>
</g>
<!-- Node24&#45;&gt;Node12 -->
<g id="edge31" class="edge">
<title>Node24&#45;&gt;Node12</title>
<path fill="none" stroke="midnightblue" d="M393.46,-332.08C425.44,-316.45 474.36,-286.79 495.5,-244 504.65,-225.48 495,-200.87 488.46,-187.89"/>
<polygon fill="midnightblue" stroke="midnightblue" points="391.68,-329.05 384.13,-336.48 394.66,-335.38 391.68,-329.05"/>
</g>
<!-- Node24&#45;&gt;Node21 -->
<g id="edge30" class="edge">
<title>Node24&#45;&gt;Node21</title>
<path fill="none" stroke="midnightblue" d="M329.61,-333.04C300.82,-322.88 260.21,-308.55 234.63,-299.52"/>
<polygon fill="midnightblue" stroke="midnightblue" points="328.66,-336.42 339.26,-336.44 330.99,-329.81 328.66,-336.42"/>
</g>
<!-- Node25 -->
<g id="node25" class="node">
<title>Node25</title>
<g id="a_node25"><a xlink:href="spec_2traffic__mngr_8h.html" target="_top" xlink:title=" ">
<polygon fill="white" stroke="black" points="257.5,-280.5 257.5,-299.5 341.5,-299.5 341.5,-280.5 257.5,-280.5"/>
<text text-anchor="middle" x="299.5" y="-287.5" font-family="Helvetica,sans-Serif" font-size="10.00">traffic_mngr.h</text>
</a>
</g>
</g>
<!-- Node24&#45;&gt;Node25 -->
<g id="edge32" class="edge">
<title>Node24&#45;&gt;Node25</title>
<path fill="none" stroke="midnightblue" d="M345.51,-329.82C334.04,-320.15 319.59,-307.95 309.97,-299.83"/>
<polygon fill="midnightblue" stroke="midnightblue" points="343.32,-332.55 353.22,-336.32 347.83,-327.2 343.32,-332.55"/>
</g>
<!-- Node26 -->
<g id="node26" class="node">
<title>Node26</title>
<g id="a_node26"><a xlink:href="traffic__mngr_8h.html" target="_top" xlink:title=" ">
<polygon fill="white" stroke="black" points="257.5,-224.5 257.5,-243.5 341.5,-243.5 341.5,-224.5 257.5,-224.5"/>
<text text-anchor="middle" x="299.5" y="-231.5" font-family="Helvetica,sans-Serif" font-size="10.00">traffic_mngr.h</text>
</a>
</g>
</g>
<!-- Node25&#45;&gt;Node26 -->
<g id="edge33" class="edge">
<title>Node25&#45;&gt;Node26</title>
<path fill="none" stroke="midnightblue" d="M299.5,-269.8C299.5,-260.91 299.5,-250.78 299.5,-243.75"/>
<polygon fill="midnightblue" stroke="midnightblue" points="296,-270.08 299.5,-280.08 303,-270.08 296,-270.08"/>
</g>
<!-- Node26&#45;&gt;Node7 -->
<g id="edge34" class="edge">
<title>Node26&#45;&gt;Node7</title>
<path fill="none" stroke="midnightblue" d="M315.83,-217.25C325.76,-207.67 338.09,-195.79 346.34,-187.83"/>
<polygon fill="midnightblue" stroke="midnightblue" points="313.27,-214.86 308.5,-224.32 318.13,-219.9 313.27,-214.86"/>
</g>
<!-- Node28 -->
<g id="node28" class="node">
<title>Node28</title>
<g id="a_node28"><a xlink:href="pool_8h.html" target="_top" xlink:title=" ">
<polygon fill="white" stroke="black" points="472,-336.5 472,-355.5 519,-355.5 519,-336.5 472,-336.5"/>
<text text-anchor="middle" x="495.5" y="-343.5" font-family="Helvetica,sans-Serif" font-size="10.00">pool.h</text>
</a>
</g>
</g>
<!-- Node27&#45;&gt;Node28 -->
<g id="edge36" class="edge">
<title>Node27&#45;&gt;Node28</title>
<path fill="none" stroke="midnightblue" d="M495.5,-381.8C495.5,-372.91 495.5,-362.78 495.5,-355.75"/>
<polygon fill="midnightblue" stroke="midnightblue" points="492,-382.08 495.5,-392.08 499,-382.08 492,-382.08"/>
</g>
<!-- Node30 -->
<g id="node30" class="node">
<title>Node30</title>
<g id="a_node30"><a xlink:href="timer_8h.html" target="_top" xlink:title=" ">
<polygon fill="white" stroke="black" points="537,-336.5 537,-355.5 588,-355.5 588,-336.5 537,-336.5"/>
<text text-anchor="middle" x="562.5" y="-343.5" font-family="Helvetica,sans-Serif" font-size="10.00">timer.h</text>
</a>
</g>
</g>
<!-- Node29&#45;&gt;Node30 -->
<g id="edge38" class="edge">
<title>Node29&#45;&gt;Node30</title>
<path fill="none" stroke="midnightblue" d="M562.5,-381.8C562.5,-372.91 562.5,-362.78 562.5,-355.75"/>
<polygon fill="midnightblue" stroke="midnightblue" points="559,-382.08 562.5,-392.08 566,-382.08 559,-382.08"/>
</g>
</g>
</svg>
