<?xml version="1.0" encoding="UTF-8" standalone="no"?>
<!DOCTYPE svg PUBLIC "-//W3C//DTD SVG 1.1//EN"
 "http://www.w3.org/Graphics/SVG/1.1/DTD/svg11.dtd">
<!-- Generated by graphviz version 2.43.0 (0)
 -->
<!-- Title: proto_stats_types.h Pages: 1 -->
<svg width="1669pt" height="812pt"
 viewBox="0.00 0.00 1669.00 812.00" xmlns="http://www.w3.org/2000/svg" xmlns:xlink="http://www.w3.org/1999/xlink">
<g id="graph0" class="graph" transform="scale(1 1) rotate(0) translate(4 808)">
<title>proto_stats_types.h</title>
<polygon fill="white" stroke="transparent" points="-4,4 -4,-808 1665,-808 1665,4 -4,4"/>
<!-- Node1 -->
<g id="node1" class="node">
<title>Node1</title>
<g id="a_node1"><a xlink:title=" ">
<polygon fill="#bfbfbf" stroke="black" points="1496.5,-784.5 1496.5,-803.5 1609.5,-803.5 1609.5,-784.5 1496.5,-784.5"/>
<text text-anchor="middle" x="1553" y="-791.5" font-family="Helvetica,sans-Serif" font-size="10.00">proto_stats_types.h</text>
</a>
</g>
</g>
<!-- Node2 -->
<g id="node2" class="node">
<title>Node2</title>
<g id="a_node2"><a xlink:href="spec_2packet_8h.html" target="_top" xlink:title=" ">
<polygon fill="white" stroke="black" points="1293,-280.5 1293,-299.5 1351,-299.5 1351,-280.5 1293,-280.5"/>
<text text-anchor="middle" x="1322" y="-287.5" font-family="Helvetica,sans-Serif" font-size="10.00">packet.h</text>
</a>
</g>
</g>
<!-- Node1&#45;&gt;Node2 -->
<g id="edge1" class="edge">
<title>Node1&#45;&gt;Node2</title>
<path fill="none" stroke="midnightblue" d="M1553,-774.25C1553,-752.36 1553,-715.05 1553,-683 1553,-683 1553,-683 1553,-513 1553,-397.86 1401.97,-323.78 1344.15,-299.63"/>
<polygon fill="midnightblue" stroke="midnightblue" points="1549.5,-774.44 1553,-784.44 1556.5,-774.44 1549.5,-774.44"/>
</g>
<!-- Node6 -->
<g id="node6" class="node">
<title>Node6</title>
<g id="a_node6"><a xlink:href="spec_2packet__types_8h.html" target="_top" xlink:title=" ">
<polygon fill="white" stroke="black" points="1203,-728.5 1203,-747.5 1293,-747.5 1293,-728.5 1203,-728.5"/>
<text text-anchor="middle" x="1248" y="-735.5" font-family="Helvetica,sans-Serif" font-size="10.00">packet_types.h</text>
</a>
</g>
</g>
<!-- Node1&#45;&gt;Node6 -->
<g id="edge5" class="edge">
<title>Node1&#45;&gt;Node6</title>
<path fill="none" stroke="midnightblue" d="M1494.8,-782.7C1436.09,-772.3 1346.67,-756.47 1293.12,-746.99"/>
<polygon fill="midnightblue" stroke="midnightblue" points="1494.21,-786.15 1504.67,-784.44 1495.44,-779.25 1494.21,-786.15"/>
</g>
<!-- Node51 -->
<g id="node49" class="node">
<title>Node51</title>
<g id="a_node49"><a xlink:href="spec_2proto__stats_8h.html" target="_top" xlink:title=" ">
<polygon fill="white" stroke="black" points="1581,-728.5 1581,-747.5 1661,-747.5 1661,-728.5 1581,-728.5"/>
<text text-anchor="middle" x="1621" y="-735.5" font-family="Helvetica,sans-Serif" font-size="10.00">proto_stats.h</text>
</a>
</g>
</g>
<!-- Node1&#45;&gt;Node51 -->
<g id="edge74" class="edge">
<title>Node1&#45;&gt;Node51</title>
<path fill="none" stroke="midnightblue" d="M1571.76,-778.1C1584,-768.38 1599.56,-756.03 1609.88,-747.83"/>
<polygon fill="midnightblue" stroke="midnightblue" points="1569.58,-775.36 1563.93,-784.32 1573.93,-780.85 1569.58,-775.36"/>
</g>
<!-- Node3 -->
<g id="node3" class="node">
<title>Node3</title>
<g id="a_node3"><a xlink:href="packet_8h.html" target="_top" xlink:title=" ">
<polygon fill="white" stroke="black" points="1293,-224.5 1293,-243.5 1351,-243.5 1351,-224.5 1293,-224.5"/>
<text text-anchor="middle" x="1322" y="-231.5" font-family="Helvetica,sans-Serif" font-size="10.00">packet.h</text>
</a>
</g>
</g>
<!-- Node2&#45;&gt;Node3 -->
<g id="edge2" class="edge">
<title>Node2&#45;&gt;Node3</title>
<path fill="none" stroke="midnightblue" d="M1322,-269.8C1322,-260.91 1322,-250.78 1322,-243.75"/>
<polygon fill="midnightblue" stroke="midnightblue" points="1318.5,-270.08 1322,-280.08 1325.5,-270.08 1318.5,-270.08"/>
</g>
<!-- Node4 -->
<g id="node4" class="node">
<title>Node4</title>
<g id="a_node4"><a xlink:href="crypto__inlines_8h_source.html" target="_top" xlink:title=" ">
<polygon fill="white" stroke="black" points="1117,-168.5 1117,-187.5 1211,-187.5 1211,-168.5 1117,-168.5"/>
<text text-anchor="middle" x="1164" y="-175.5" font-family="Helvetica,sans-Serif" font-size="10.00">crypto_inlines.h</text>
</a>
</g>
</g>
<!-- Node3&#45;&gt;Node4 -->
<g id="edge3" class="edge">
<title>Node3&#45;&gt;Node4</title>
<path fill="none" stroke="midnightblue" d="M1287.39,-221.17C1257.64,-211 1215.45,-196.59 1188.92,-187.52"/>
<polygon fill="midnightblue" stroke="midnightblue" points="1286.37,-224.52 1296.96,-224.44 1288.63,-217.9 1286.37,-224.52"/>
</g>
<!-- Node5 -->
<g id="node5" class="node">
<title>Node5</title>
<g id="a_node5"><a xlink:href="ipsec__inlines_8h_source.html" target="_top" xlink:title=" ">
<polygon fill="white" stroke="black" points="1284.5,-56.5 1284.5,-75.5 1373.5,-75.5 1373.5,-56.5 1284.5,-56.5"/>
<text text-anchor="middle" x="1329" y="-63.5" font-family="Helvetica,sans-Serif" font-size="10.00">ipsec_inlines.h</text>
</a>
</g>
</g>
<!-- Node3&#45;&gt;Node5 -->
<g id="edge4" class="edge">
<title>Node3&#45;&gt;Node5</title>
<path fill="none" stroke="midnightblue" d="M1322.8,-213.93C1324.32,-177.92 1327.56,-101.23 1328.64,-75.57"/>
<polygon fill="midnightblue" stroke="midnightblue" points="1319.3,-213.94 1322.38,-224.08 1326.29,-214.23 1319.3,-213.94"/>
</g>
<!-- Node7 -->
<g id="node7" class="node">
<title>Node7</title>
<g id="a_node7"><a xlink:href="packet__types_8h.html" target="_top" xlink:title=" ">
<polygon fill="white" stroke="black" points="971,-672.5 971,-691.5 1061,-691.5 1061,-672.5 971,-672.5"/>
<text text-anchor="middle" x="1016" y="-679.5" font-family="Helvetica,sans-Serif" font-size="10.00">packet_types.h</text>
</a>
</g>
</g>
<!-- Node6&#45;&gt;Node7 -->
<g id="edge6" class="edge">
<title>Node6&#45;&gt;Node7</title>
<path fill="none" stroke="midnightblue" d="M1201.4,-726.15C1157.56,-715.95 1092.82,-700.88 1052.59,-691.52"/>
<polygon fill="midnightblue" stroke="midnightblue" points="1200.71,-729.59 1211.24,-728.44 1202.29,-722.77 1200.71,-729.59"/>
</g>
<!-- Node7&#45;&gt;Node2 -->
<g id="edge64" class="edge">
<title>Node7&#45;&gt;Node2</title>
<path fill="none" stroke="midnightblue" d="M1030.77,-664.6C1038.2,-656.18 1047.25,-645.69 1055,-636 1081.2,-603.23 1079.42,-587.62 1111,-560 1214.01,-469.91 1311.27,-529.75 1381,-412 1404.94,-371.58 1354.91,-320.04 1332.31,-299.76"/>
<polygon fill="midnightblue" stroke="midnightblue" points="1028.02,-662.42 1023.98,-672.21 1033.25,-667.07 1028.02,-662.42"/>
</g>
<!-- Node8 -->
<g id="node8" class="node">
<title>Node8</title>
<g id="a_node8"><a xlink:href="spec_2comp_8h.html" target="_top" xlink:title=" ">
<polygon fill="white" stroke="black" points="47.5,-616.5 47.5,-635.5 100.5,-635.5 100.5,-616.5 47.5,-616.5"/>
<text text-anchor="middle" x="74" y="-623.5" font-family="Helvetica,sans-Serif" font-size="10.00">comp.h</text>
</a>
</g>
</g>
<!-- Node7&#45;&gt;Node8 -->
<g id="edge7" class="edge">
<title>Node7&#45;&gt;Node8</title>
<path fill="none" stroke="midnightblue" d="M960.6,-681.42C819.08,-681.82 433.04,-678.55 115,-636 110.38,-635.38 105.5,-634.51 100.79,-633.55"/>
<polygon fill="midnightblue" stroke="midnightblue" points="960.77,-684.92 970.76,-681.39 960.75,-677.92 960.77,-684.92"/>
</g>
<!-- Node10 -->
<g id="node10" class="node">
<title>Node10</title>
<g id="a_node10"><a xlink:href="spec_2crypto_8h.html" target="_top" xlink:title=" ">
<polygon fill="white" stroke="black" points="0,-168.5 0,-187.5 56,-187.5 56,-168.5 0,-168.5"/>
<text text-anchor="middle" x="28" y="-175.5" font-family="Helvetica,sans-Serif" font-size="10.00">crypto.h</text>
</a>
</g>
</g>
<!-- Node7&#45;&gt;Node10 -->
<g id="edge9" class="edge">
<title>Node7&#45;&gt;Node10</title>
<path fill="none" stroke="midnightblue" d="M960.73,-680.22C759.31,-677.15 74.45,-664.65 38,-636 14.34,-617.4 19,-601.1 19,-571 19,-571 19,-571 19,-289 19,-251.06 24.38,-206.01 26.82,-187.54"/>
<polygon fill="midnightblue" stroke="midnightblue" points="960.74,-683.72 970.79,-680.37 960.85,-676.72 960.74,-683.72"/>
</g>
<!-- Node12 -->
<g id="node12" class="node">
<title>Node12</title>
<g id="a_node12"><a xlink:href="spec_2crypto__types_8h.html" target="_top" xlink:title=" ">
<polygon fill="white" stroke="black" points="117.5,-392.5 117.5,-411.5 206.5,-411.5 206.5,-392.5 117.5,-392.5"/>
<text text-anchor="middle" x="162" y="-399.5" font-family="Helvetica,sans-Serif" font-size="10.00">crypto_types.h</text>
</a>
</g>
</g>
<!-- Node7&#45;&gt;Node12 -->
<g id="edge11" class="edge">
<title>Node7&#45;&gt;Node12</title>
<path fill="none" stroke="midnightblue" d="M960.78,-679.45C776.18,-673.56 192,-648.77 192,-571 192,-571 192,-571 192,-513 192,-474 174.23,-429.89 166.05,-411.62"/>
<polygon fill="midnightblue" stroke="midnightblue" points="960.71,-682.95 970.82,-679.77 960.93,-675.96 960.71,-682.95"/>
</g>
<!-- Node14 -->
<g id="node14" class="node">
<title>Node14</title>
<g id="a_node14"><a xlink:href="spec_2ipsec_8h.html" target="_top" xlink:title=" ">
<polygon fill="white" stroke="black" points="408.5,-56.5 408.5,-75.5 459.5,-75.5 459.5,-56.5 408.5,-56.5"/>
<text text-anchor="middle" x="434" y="-63.5" font-family="Helvetica,sans-Serif" font-size="10.00">ipsec.h</text>
</a>
</g>
</g>
<!-- Node7&#45;&gt;Node14 -->
<g id="edge63" class="edge">
<title>Node7&#45;&gt;Node14</title>
<path fill="none" stroke="midnightblue" d="M960.46,-681.29C810.7,-681.48 401.31,-678.03 274,-636 129.18,-588.19 89,-499.51 89,-347 89,-347 89,-347 89,-177 89,-109.97 328.4,-78.28 408.35,-69.57"/>
<polygon fill="midnightblue" stroke="midnightblue" points="960.79,-684.79 970.78,-681.27 960.78,-677.79 960.79,-684.79"/>
</g>
<!-- Node18 -->
<g id="node18" class="node">
<title>Node18</title>
<g id="a_node18"><a xlink:href="spec_2dma__types_8h.html" target="_top" xlink:title=" ">
<polygon fill="white" stroke="black" points="576,-616.5 576,-635.5 656,-635.5 656,-616.5 576,-616.5"/>
<text text-anchor="middle" x="616" y="-623.5" font-family="Helvetica,sans-Serif" font-size="10.00">dma_types.h</text>
</a>
</g>
</g>
<!-- Node7&#45;&gt;Node18 -->
<g id="edge21" class="edge">
<title>Node7&#45;&gt;Node18</title>
<path fill="none" stroke="midnightblue" d="M960.81,-673.55C879.17,-662.53 728.12,-642.14 656.15,-632.42"/>
<polygon fill="midnightblue" stroke="midnightblue" points="960.51,-677.04 970.89,-674.91 961.45,-670.1 960.51,-677.04"/>
</g>
<!-- Node29 -->
<g id="node29" class="node">
<title>Node29</title>
<g id="a_node29"><a xlink:href="spec_2packet__io_8h.html" target="_top" xlink:title=" ">
<polygon fill="white" stroke="black" points="1229,-168.5 1229,-187.5 1301,-187.5 1301,-168.5 1229,-168.5"/>
<text text-anchor="middle" x="1265" y="-175.5" font-family="Helvetica,sans-Serif" font-size="10.00">packet_io.h</text>
</a>
</g>
</g>
<!-- Node7&#45;&gt;Node29 -->
<g id="edge67" class="edge">
<title>Node7&#45;&gt;Node29</title>
<path fill="none" stroke="midnightblue" d="M1071.23,-679.27C1190.45,-675.05 1463.81,-662.56 1496,-636 1519.21,-616.84 1515,-601.1 1515,-571 1515,-571 1515,-571 1515,-401 1515,-281.72 1353.9,-210.89 1290.35,-187.58"/>
<polygon fill="midnightblue" stroke="midnightblue" points="1071.08,-675.77 1061.21,-679.62 1071.32,-682.77 1071.08,-675.77"/>
</g>
<!-- Node31 -->
<g id="node31" class="node">
<title>Node31</title>
<g id="a_node31"><a xlink:href="spec_2packet__io__types_8h.html" target="_top" xlink:title=" ">
<polygon fill="white" stroke="black" points="712,-392.5 712,-411.5 816,-411.5 816,-392.5 712,-392.5"/>
<text text-anchor="middle" x="764" y="-399.5" font-family="Helvetica,sans-Serif" font-size="10.00">packet_io_types.h</text>
</a>
</g>
</g>
<!-- Node7&#45;&gt;Node31 -->
<g id="edge68" class="edge">
<title>Node7&#45;&gt;Node31</title>
<path fill="none" stroke="midnightblue" d="M965.35,-669.7C917.17,-655.61 852,-626.33 852,-571 852,-571 852,-571 852,-513 852,-466.29 803.01,-428.05 778.14,-411.64"/>
<polygon fill="midnightblue" stroke="midnightblue" points="964.47,-673.09 975.04,-672.4 966.35,-666.35 964.47,-673.09"/>
</g>
<!-- Node40 -->
<g id="node38" class="node">
<title>Node40</title>
<g id="a_node38"><a xlink:href="packet__inlines_8h.html" target="_top" xlink:title=" ">
<polygon fill="white" stroke="black" points="982.5,-392.5 982.5,-411.5 1077.5,-411.5 1077.5,-392.5 982.5,-392.5"/>
<text text-anchor="middle" x="1030" y="-399.5" font-family="Helvetica,sans-Serif" font-size="10.00">packet_inlines.h</text>
</a>
</g>
</g>
<!-- Node7&#45;&gt;Node40 -->
<g id="edge72" class="edge">
<title>Node7&#45;&gt;Node40</title>
<path fill="none" stroke="midnightblue" d="M1005.86,-663.43C994.6,-642.24 978,-605.19 978,-571 978,-571 978,-571 978,-513 978,-471.81 1008.17,-429.55 1022.55,-411.74"/>
<polygon fill="midnightblue" stroke="midnightblue" points="1002.82,-665.17 1010.72,-672.23 1008.95,-661.78 1002.82,-665.17"/>
</g>
<!-- Node41 -->
<g id="node39" class="node">
<title>Node41</title>
<g id="a_node39"><a xlink:href="packet__vector__inlines_8h.html" target="_top" xlink:title=" ">
<polygon fill="white" stroke="black" points="1095.5,-392.5 1095.5,-411.5 1226.5,-411.5 1226.5,-392.5 1095.5,-392.5"/>
<text text-anchor="middle" x="1161" y="-399.5" font-family="Helvetica,sans-Serif" font-size="10.00">packet_vector_inlines.h</text>
</a>
</g>
</g>
<!-- Node7&#45;&gt;Node41 -->
<g id="edge73" class="edge">
<title>Node7&#45;&gt;Node41</title>
<path fill="none" stroke="midnightblue" d="M1016,-662.25C1016,-640.36 1016,-603.05 1016,-571 1016,-571 1016,-571 1016,-513 1016,-456.44 1086.89,-425.2 1129.54,-411.52"/>
<polygon fill="midnightblue" stroke="midnightblue" points="1012.5,-662.44 1016,-672.44 1019.5,-662.44 1012.5,-662.44"/>
</g>
<!-- Node43 -->
<g id="node41" class="node">
<title>Node43</title>
<g id="a_node41"><a xlink:href="spec_2event_8h.html" target="_top" xlink:title=" ">
<polygon fill="white" stroke="black" points="1089.5,-504.5 1089.5,-523.5 1142.5,-523.5 1142.5,-504.5 1089.5,-504.5"/>
<text text-anchor="middle" x="1116" y="-511.5" font-family="Helvetica,sans-Serif" font-size="10.00">event.h</text>
</a>
</g>
</g>
<!-- Node7&#45;&gt;Node43 -->
<g id="edge55" class="edge">
<title>Node7&#45;&gt;Node43</title>
<path fill="none" stroke="midnightblue" d="M1023.64,-663.05C1034.32,-638.78 1054.98,-594.57 1078,-560 1086.95,-546.55 1099.33,-532.56 1107.49,-523.82"/>
<polygon fill="midnightblue" stroke="midnightblue" points="1020.35,-661.85 1019.59,-672.42 1026.77,-664.63 1020.35,-661.85"/>
</g>
<!-- Node46 -->
<g id="node44" class="node">
<title>Node46</title>
<g id="a_node44"><a xlink:href="spec_2packet__flags_8h.html" target="_top" xlink:title=" ">
<polygon fill="white" stroke="black" points="1120,-616.5 1120,-635.5 1206,-635.5 1206,-616.5 1120,-616.5"/>
<text text-anchor="middle" x="1163" y="-623.5" font-family="Helvetica,sans-Serif" font-size="10.00">packet_flags.h</text>
</a>
</g>
</g>
<!-- Node7&#45;&gt;Node46 -->
<g id="edge65" class="edge">
<title>Node7&#45;&gt;Node46</title>
<path fill="none" stroke="midnightblue" d="M1048.92,-668.91C1076.56,-658.75 1115.34,-644.51 1139.82,-635.52"/>
<polygon fill="midnightblue" stroke="midnightblue" points="1047.47,-665.71 1039.29,-672.44 1049.89,-672.28 1047.47,-665.71"/>
</g>
<!-- Node48 -->
<g id="node46" class="node">
<title>Node48</title>
<g id="a_node46"><a xlink:href="event__inlines_8h_source.html" target="_top" xlink:title=" ">
<polygon fill="white" stroke="black" points="1224.5,-616.5 1224.5,-635.5 1315.5,-635.5 1315.5,-616.5 1224.5,-616.5"/>
<text text-anchor="middle" x="1270" y="-623.5" font-family="Helvetica,sans-Serif" font-size="10.00">event_inlines.h</text>
</a>
</g>
</g>
<!-- Node7&#45;&gt;Node48 -->
<g id="edge69" class="edge">
<title>Node7&#45;&gt;Node48</title>
<path fill="none" stroke="midnightblue" d="M1066.12,-670.35C1114.12,-660.14 1185.62,-644.94 1229.94,-635.52"/>
<polygon fill="midnightblue" stroke="midnightblue" points="1065.3,-666.94 1056.25,-672.44 1066.76,-673.79 1065.3,-666.94"/>
</g>
<!-- Node49 -->
<g id="node47" class="node">
<title>Node49</title>
<g id="a_node47"><a xlink:href="event__validation__external_8h.html" target="_top" xlink:title=" ">
<polygon fill="white" stroke="black" points="1333.5,-616.5 1333.5,-635.5 1486.5,-635.5 1486.5,-616.5 1333.5,-616.5"/>
<text text-anchor="middle" x="1410" y="-623.5" font-family="Helvetica,sans-Serif" font-size="10.00">event_validation_external.h</text>
</a>
</g>
</g>
<!-- Node7&#45;&gt;Node49 -->
<g id="edge70" class="edge">
<title>Node7&#45;&gt;Node49</title>
<path fill="none" stroke="midnightblue" d="M1071.54,-673.39C1144.41,-663.4 1271.92,-645.93 1347.9,-635.51"/>
<polygon fill="midnightblue" stroke="midnightblue" points="1070.63,-669.98 1061.2,-674.81 1071.58,-676.92 1070.63,-669.98"/>
</g>
<!-- Node9 -->
<g id="node9" class="node">
<title>Node9</title>
<g id="a_node9"><a xlink:href="comp_8h.html" target="_top" xlink:title=" ">
<polygon fill="white" stroke="black" points="47.5,-560.5 47.5,-579.5 100.5,-579.5 100.5,-560.5 47.5,-560.5"/>
<text text-anchor="middle" x="74" y="-567.5" font-family="Helvetica,sans-Serif" font-size="10.00">comp.h</text>
</a>
</g>
</g>
<!-- Node8&#45;&gt;Node9 -->
<g id="edge8" class="edge">
<title>Node8&#45;&gt;Node9</title>
<path fill="none" stroke="midnightblue" d="M74,-605.8C74,-596.91 74,-586.78 74,-579.75"/>
<polygon fill="midnightblue" stroke="midnightblue" points="70.5,-606.08 74,-616.08 77.5,-606.08 70.5,-606.08"/>
</g>
<!-- Node11 -->
<g id="node11" class="node">
<title>Node11</title>
<g id="a_node11"><a xlink:href="crypto_8h.html" target="_top" xlink:title=" ">
<polygon fill="white" stroke="black" points="0,-112.5 0,-131.5 56,-131.5 56,-112.5 0,-112.5"/>
<text text-anchor="middle" x="28" y="-119.5" font-family="Helvetica,sans-Serif" font-size="10.00">crypto.h</text>
</a>
</g>
</g>
<!-- Node10&#45;&gt;Node11 -->
<g id="edge10" class="edge">
<title>Node10&#45;&gt;Node11</title>
<path fill="none" stroke="midnightblue" d="M28,-157.8C28,-148.91 28,-138.78 28,-131.75"/>
<polygon fill="midnightblue" stroke="midnightblue" points="24.5,-158.08 28,-168.08 31.5,-158.08 24.5,-158.08"/>
</g>
<!-- Node13 -->
<g id="node13" class="node">
<title>Node13</title>
<g id="a_node13"><a xlink:href="crypto__types_8h.html" target="_top" xlink:title=" ">
<polygon fill="white" stroke="black" points="389.5,-224.5 389.5,-243.5 478.5,-243.5 478.5,-224.5 389.5,-224.5"/>
<text text-anchor="middle" x="434" y="-231.5" font-family="Helvetica,sans-Serif" font-size="10.00">crypto_types.h</text>
</a>
</g>
</g>
<!-- Node12&#45;&gt;Node13 -->
<g id="edge12" class="edge">
<title>Node12&#45;&gt;Node13</title>
<path fill="none" stroke="midnightblue" d="M174.5,-383.64C184.69,-370.02 199.82,-350.94 215,-336 243.65,-307.81 250.38,-298.61 286,-280 319.44,-262.53 360.76,-250.68 391.23,-243.54"/>
<polygon fill="midnightblue" stroke="midnightblue" points="171.4,-381.94 168.3,-392.08 177.04,-386.09 171.4,-381.94"/>
</g>
<!-- Node13&#45;&gt;Node4 -->
<g id="edge20" class="edge">
<title>Node13&#45;&gt;Node4</title>
<path fill="none" stroke="midnightblue" d="M488.9,-228.94C627.04,-218.72 987.21,-192.08 1116.73,-182.5"/>
<polygon fill="midnightblue" stroke="midnightblue" points="488.28,-225.48 478.57,-229.7 488.8,-232.46 488.28,-225.48"/>
</g>
<!-- Node13&#45;&gt;Node10 -->
<g id="edge13" class="edge">
<title>Node13&#45;&gt;Node10</title>
<path fill="none" stroke="midnightblue" d="M379.37,-225.73C291.7,-214.07 122.68,-191.59 56.02,-182.73"/>
<polygon fill="midnightblue" stroke="midnightblue" points="379.02,-229.22 389.39,-227.07 379.94,-222.28 379.02,-229.22"/>
</g>
<!-- Node13&#45;&gt;Node14 -->
<g id="edge14" class="edge">
<title>Node13&#45;&gt;Node14</title>
<path fill="none" stroke="midnightblue" d="M434,-213.93C434,-177.92 434,-101.23 434,-75.57"/>
<polygon fill="midnightblue" stroke="midnightblue" points="430.5,-214.08 434,-224.08 437.5,-214.08 430.5,-214.08"/>
</g>
<!-- Node16 -->
<g id="node16" class="node">
<title>Node16</title>
<g id="a_node16"><a xlink:href="spec_2ipsec__types_8h.html" target="_top" xlink:title=" ">
<polygon fill="white" stroke="black" points="754.5,-168.5 754.5,-187.5 837.5,-187.5 837.5,-168.5 754.5,-168.5"/>
<text text-anchor="middle" x="796" y="-175.5" font-family="Helvetica,sans-Serif" font-size="10.00">ipsec_types.h</text>
</a>
</g>
</g>
<!-- Node13&#45;&gt;Node16 -->
<g id="edge16" class="edge">
<title>Node13&#45;&gt;Node16</title>
<path fill="none" stroke="midnightblue" d="M488.66,-224.85C561.52,-213.98 688.89,-194.98 754.43,-185.2"/>
<polygon fill="midnightblue" stroke="midnightblue" points="488.13,-221.39 478.75,-226.32 489.16,-228.31 488.13,-221.39"/>
</g>
<!-- Node15 -->
<g id="node15" class="node">
<title>Node15</title>
<g id="a_node15"><a xlink:href="ipsec_8h.html" target="_top" xlink:title=" ">
<polygon fill="white" stroke="black" points="408.5,-0.5 408.5,-19.5 459.5,-19.5 459.5,-0.5 408.5,-0.5"/>
<text text-anchor="middle" x="434" y="-7.5" font-family="Helvetica,sans-Serif" font-size="10.00">ipsec.h</text>
</a>
</g>
</g>
<!-- Node14&#45;&gt;Node15 -->
<g id="edge15" class="edge">
<title>Node14&#45;&gt;Node15</title>
<path fill="none" stroke="midnightblue" d="M434,-45.8C434,-36.91 434,-26.78 434,-19.75"/>
<polygon fill="midnightblue" stroke="midnightblue" points="430.5,-46.08 434,-56.08 437.5,-46.08 430.5,-46.08"/>
</g>
<!-- Node17 -->
<g id="node17" class="node">
<title>Node17</title>
<g id="a_node17"><a xlink:href="ipsec__types_8h.html" target="_top" xlink:title=" ">
<polygon fill="white" stroke="black" points="754.5,-112.5 754.5,-131.5 837.5,-131.5 837.5,-112.5 754.5,-112.5"/>
<text text-anchor="middle" x="796" y="-119.5" font-family="Helvetica,sans-Serif" font-size="10.00">ipsec_types.h</text>
</a>
</g>
</g>
<!-- Node16&#45;&gt;Node17 -->
<g id="edge17" class="edge">
<title>Node16&#45;&gt;Node17</title>
<path fill="none" stroke="midnightblue" d="M796,-157.8C796,-148.91 796,-138.78 796,-131.75"/>
<polygon fill="midnightblue" stroke="midnightblue" points="792.5,-158.08 796,-168.08 799.5,-158.08 792.5,-158.08"/>
</g>
<!-- Node17&#45;&gt;Node5 -->
<g id="edge19" class="edge">
<title>Node17&#45;&gt;Node5</title>
<path fill="none" stroke="midnightblue" d="M847.81,-115.75C952.22,-105.17 1186.28,-81.46 1284.39,-71.52"/>
<polygon fill="midnightblue" stroke="midnightblue" points="847.42,-112.27 837.82,-116.76 848.13,-119.24 847.42,-112.27"/>
</g>
<!-- Node17&#45;&gt;Node14 -->
<g id="edge18" class="edge">
<title>Node17&#45;&gt;Node14</title>
<path fill="none" stroke="midnightblue" d="M744.31,-113.29C665.73,-101.57 519.08,-79.69 459.83,-70.85"/>
<polygon fill="midnightblue" stroke="midnightblue" points="744.07,-116.79 754.47,-114.81 745.1,-109.87 744.07,-116.79"/>
</g>
<!-- Node19 -->
<g id="node19" class="node">
<title>Node19</title>
<g id="a_node19"><a xlink:href="dma__types_8h.html" target="_top" xlink:title=" ">
<polygon fill="white" stroke="black" points="334,-560.5 334,-579.5 414,-579.5 414,-560.5 334,-560.5"/>
<text text-anchor="middle" x="374" y="-567.5" font-family="Helvetica,sans-Serif" font-size="10.00">dma_types.h</text>
</a>
</g>
</g>
<!-- Node18&#45;&gt;Node19 -->
<g id="edge22" class="edge">
<title>Node18&#45;&gt;Node19</title>
<path fill="none" stroke="midnightblue" d="M567.68,-614.22C521.95,-604.01 454.22,-588.9 412.17,-579.52"/>
<polygon fill="midnightblue" stroke="midnightblue" points="567.13,-617.68 577.65,-616.44 568.66,-610.85 567.13,-617.68"/>
</g>
<!-- Node20 -->
<g id="node20" class="node">
<title>Node20</title>
<g id="a_node20"><a xlink:href="spec_2dma_8h.html" target="_top" xlink:title=" ">
<polygon fill="white" stroke="black" points="224.5,-392.5 224.5,-411.5 271.5,-411.5 271.5,-392.5 224.5,-392.5"/>
<text text-anchor="middle" x="248" y="-399.5" font-family="Helvetica,sans-Serif" font-size="10.00">dma.h</text>
</a>
</g>
</g>
<!-- Node19&#45;&gt;Node20 -->
<g id="edge23" class="edge">
<title>Node19&#45;&gt;Node20</title>
<path fill="none" stroke="midnightblue" d="M334.32,-556.56C317.35,-549.45 298.59,-538.91 286,-524 257.02,-489.68 250.1,-433.22 248.48,-411.7"/>
<polygon fill="midnightblue" stroke="midnightblue" points="333.46,-559.98 344.04,-560.36 336,-553.46 333.46,-559.98"/>
</g>
<!-- Node22 -->
<g id="node22" class="node">
<title>Node22</title>
<g id="a_node22"><a xlink:href="spec_2pool__types_8h.html" target="_top" xlink:title=" ">
<polygon fill="white" stroke="black" points="408.5,-504.5 408.5,-523.5 487.5,-523.5 487.5,-504.5 408.5,-504.5"/>
<text text-anchor="middle" x="448" y="-511.5" font-family="Helvetica,sans-Serif" font-size="10.00">pool_types.h</text>
</a>
</g>
</g>
<!-- Node19&#45;&gt;Node22 -->
<g id="edge25" class="edge">
<title>Node19&#45;&gt;Node22</title>
<path fill="none" stroke="midnightblue" d="M394.03,-554.38C407.41,-544.62 424.56,-532.11 435.89,-523.83"/>
<polygon fill="midnightblue" stroke="midnightblue" points="391.9,-551.6 385.89,-560.32 396.03,-557.26 391.9,-551.6"/>
</g>
<!-- Node26 -->
<g id="node26" class="node">
<title>Node26</title>
<g id="a_node26"><a xlink:href="dma__inlines_8h_source.html" target="_top" xlink:title=" ">
<polygon fill="white" stroke="black" points="295.5,-280.5 295.5,-299.5 380.5,-299.5 380.5,-280.5 295.5,-280.5"/>
<text text-anchor="middle" x="338" y="-287.5" font-family="Helvetica,sans-Serif" font-size="10.00">dma_inlines.h</text>
</a>
</g>
</g>
<!-- Node19&#45;&gt;Node26 -->
<g id="edge54" class="edge">
<title>Node19&#45;&gt;Node26</title>
<path fill="none" stroke="midnightblue" d="M355,-553.74C333.07,-534.27 300,-498.39 300,-459 300,-459 300,-459 300,-401 300,-361.4 322.27,-317.96 332.72,-299.77"/>
<polygon fill="midnightblue" stroke="midnightblue" points="352.88,-556.53 362.76,-560.36 357.43,-551.21 352.88,-556.53"/>
</g>
<!-- Node21 -->
<g id="node21" class="node">
<title>Node21</title>
<g id="a_node21"><a xlink:href="dma_8h.html" target="_top" xlink:title=" ">
<polygon fill="white" stroke="black" points="224.5,-336.5 224.5,-355.5 271.5,-355.5 271.5,-336.5 224.5,-336.5"/>
<text text-anchor="middle" x="248" y="-343.5" font-family="Helvetica,sans-Serif" font-size="10.00">dma.h</text>
</a>
</g>
</g>
<!-- Node20&#45;&gt;Node21 -->
<g id="edge24" class="edge">
<title>Node20&#45;&gt;Node21</title>
<path fill="none" stroke="midnightblue" d="M248,-381.8C248,-372.91 248,-362.78 248,-355.75"/>
<polygon fill="midnightblue" stroke="midnightblue" points="244.5,-382.08 248,-392.08 251.5,-382.08 244.5,-382.08"/>
</g>
<!-- Node23 -->
<g id="node23" class="node">
<title>Node23</title>
<g id="a_node23"><a xlink:href="pool__types_8h.html" target="_top" xlink:title=" ">
<polygon fill="white" stroke="black" points="531.5,-448.5 531.5,-467.5 610.5,-467.5 610.5,-448.5 531.5,-448.5"/>
<text text-anchor="middle" x="571" y="-455.5" font-family="Helvetica,sans-Serif" font-size="10.00">pool_types.h</text>
</a>
</g>
</g>
<!-- Node22&#45;&gt;Node23 -->
<g id="edge26" class="edge">
<title>Node22&#45;&gt;Node23</title>
<path fill="none" stroke="midnightblue" d="M476.77,-500.37C499.81,-490.26 531.48,-476.35 551.6,-467.52"/>
<polygon fill="midnightblue" stroke="midnightblue" points="475.24,-497.22 467.49,-504.44 478.05,-503.63 475.24,-497.22"/>
</g>
<!-- Node23&#45;&gt;Node2 -->
<g id="edge37" class="edge">
<title>Node23&#45;&gt;Node2</title>
<path fill="none" stroke="midnightblue" d="M620.65,-452.78C672.69,-447.31 756.28,-435.53 825,-412 843.06,-405.82 845.08,-398.55 863,-392 1019.71,-334.7 1218.95,-304.5 1292.77,-294.66"/>
<polygon fill="midnightblue" stroke="midnightblue" points="620.27,-449.3 610.67,-453.79 620.97,-456.26 620.27,-449.3"/>
</g>
<!-- Node23&#45;&gt;Node12 -->
<g id="edge35" class="edge">
<title>Node23&#45;&gt;Node12</title>
<path fill="none" stroke="midnightblue" d="M521.28,-451.39C452.39,-443.46 324.03,-428.14 215,-412 212.23,-411.59 209.38,-411.15 206.51,-410.7"/>
<polygon fill="midnightblue" stroke="midnightblue" points="521.08,-454.89 531.41,-452.55 521.88,-447.94 521.08,-454.89"/>
</g>
<!-- Node23&#45;&gt;Node20 -->
<g id="edge36" class="edge">
<title>Node23&#45;&gt;Node20</title>
<path fill="none" stroke="midnightblue" d="M521.41,-448.71C450.88,-436.92 324.33,-415.76 271.83,-406.98"/>
<polygon fill="midnightblue" stroke="midnightblue" points="520.95,-452.18 531.39,-450.38 522.11,-445.28 520.95,-452.18"/>
</g>
<!-- Node24 -->
<g id="node24" class="node">
<title>Node24</title>
<g id="a_node24"><a xlink:href="spec_2buffer_8h.html" target="_top" xlink:title=" ">
<polygon fill="white" stroke="black" points="366.5,-392.5 366.5,-411.5 419.5,-411.5 419.5,-392.5 366.5,-392.5"/>
<text text-anchor="middle" x="393" y="-399.5" font-family="Helvetica,sans-Serif" font-size="10.00">buffer.h</text>
</a>
</g>
</g>
<!-- Node23&#45;&gt;Node24 -->
<g id="edge27" class="edge">
<title>Node23&#45;&gt;Node24</title>
<path fill="none" stroke="midnightblue" d="M533.17,-445.52C499.05,-435.17 449.75,-420.21 419.62,-411.08"/>
<polygon fill="midnightblue" stroke="midnightblue" points="532.21,-448.89 542.8,-448.44 534.24,-442.19 532.21,-448.89"/>
</g>
<!-- Node23&#45;&gt;Node26 -->
<g id="edge50" class="edge">
<title>Node23&#45;&gt;Node26</title>
<path fill="none" stroke="midnightblue" d="M521.29,-453C465.26,-447.42 379.09,-435.26 357,-412 326.98,-380.39 332.86,-321.81 336.39,-299.73"/>
<polygon fill="midnightblue" stroke="midnightblue" points="521.09,-456.5 531.38,-453.97 521.76,-449.53 521.09,-456.5"/>
</g>
<!-- Node27 -->
<g id="node27" class="node">
<title>Node27</title>
<g id="a_node27"><a xlink:href="spec_2classification_8h.html" target="_top" xlink:title=" ">
<polygon fill="white" stroke="black" points="643.5,-280.5 643.5,-299.5 732.5,-299.5 732.5,-280.5 643.5,-280.5"/>
<text text-anchor="middle" x="688" y="-287.5" font-family="Helvetica,sans-Serif" font-size="10.00">classification.h</text>
</a>
</g>
</g>
<!-- Node23&#45;&gt;Node27 -->
<g id="edge30" class="edge">
<title>Node23&#45;&gt;Node27</title>
<path fill="none" stroke="midnightblue" d="M616.56,-444.96C634.2,-438.07 652.99,-427.6 665,-412 691.61,-377.43 690.42,-321.12 688.83,-299.67"/>
<polygon fill="midnightblue" stroke="midnightblue" points="615.16,-441.74 606.94,-448.42 617.53,-448.33 615.16,-441.74"/>
</g>
<!-- Node23&#45;&gt;Node31 -->
<g id="edge38" class="edge">
<title>Node23&#45;&gt;Node31</title>
<path fill="none" stroke="midnightblue" d="M611.39,-445.7C647.82,-435.51 700.59,-420.74 733.56,-411.52"/>
<polygon fill="midnightblue" stroke="midnightblue" points="610.27,-442.38 601.58,-448.44 612.15,-449.12 610.27,-442.38"/>
</g>
<!-- Node35 -->
<g id="node35" class="node">
<title>Node35</title>
<g id="a_node35"><a xlink:href="spec_2pool_8h.html" target="_top" xlink:title=" ">
<polygon fill="white" stroke="red" points="437.5,-392.5 437.5,-411.5 484.5,-411.5 484.5,-392.5 437.5,-392.5"/>
<text text-anchor="middle" x="461" y="-399.5" font-family="Helvetica,sans-Serif" font-size="10.00">pool.h</text>
</a>
</g>
</g>
<!-- Node23&#45;&gt;Node35 -->
<g id="edge47" class="edge">
<title>Node23&#45;&gt;Node35</title>
<path fill="none" stroke="midnightblue" d="M544.24,-443.86C523.84,-433.85 496.33,-420.35 478.63,-411.65"/>
<polygon fill="midnightblue" stroke="midnightblue" points="542.81,-447.06 553.33,-448.32 545.89,-440.78 542.81,-447.06"/>
</g>
<!-- Node37 -->
<g id="node36" class="node">
<title>Node37</title>
<g id="a_node36"><a xlink:href="spec_2timer_8h.html" target="_top" xlink:title=" ">
<polygon fill="white" stroke="red" points="502.5,-392.5 502.5,-411.5 553.5,-411.5 553.5,-392.5 502.5,-392.5"/>
<text text-anchor="middle" x="528" y="-399.5" font-family="Helvetica,sans-Serif" font-size="10.00">timer.h</text>
</a>
</g>
</g>
<!-- Node23&#45;&gt;Node37 -->
<g id="edge48" class="edge">
<title>Node23&#45;&gt;Node37</title>
<path fill="none" stroke="midnightblue" d="M557.58,-440.14C550.09,-430.74 541.06,-419.4 534.97,-411.75"/>
<polygon fill="midnightblue" stroke="midnightblue" points="554.93,-442.44 563.9,-448.08 560.41,-438.08 554.93,-442.44"/>
</g>
<!-- Node39 -->
<g id="node37" class="node">
<title>Node39</title>
<g id="a_node37"><a xlink:href="buffer__inlines_8h_source.html" target="_top" xlink:title=" ">
<polygon fill="white" stroke="black" points="872,-392.5 872,-411.5 964,-411.5 964,-392.5 872,-392.5"/>
<text text-anchor="middle" x="918" y="-399.5" font-family="Helvetica,sans-Serif" font-size="10.00">buffer_inlines.h</text>
</a>
</g>
</g>
<!-- Node23&#45;&gt;Node39 -->
<g id="edge49" class="edge">
<title>Node23&#45;&gt;Node39</title>
<path fill="none" stroke="midnightblue" d="M620.72,-449.26C687.84,-438.82 806.53,-420.35 871.79,-410.19"/>
<polygon fill="midnightblue" stroke="midnightblue" points="620.15,-445.81 610.81,-450.81 621.22,-452.73 620.15,-445.81"/>
</g>
<!-- Node23&#45;&gt;Node40 -->
<g id="edge51" class="edge">
<title>Node23&#45;&gt;Node40</title>
<path fill="none" stroke="midnightblue" d="M620.97,-452.14C697.07,-444.57 846.54,-429.05 973,-412 976.08,-411.58 979.25,-411.14 982.44,-410.67"/>
<polygon fill="midnightblue" stroke="midnightblue" points="620.34,-448.68 610.73,-453.15 621.03,-455.65 620.34,-448.68"/>
</g>
<!-- Node23&#45;&gt;Node41 -->
<g id="edge52" class="edge">
<title>Node23&#45;&gt;Node41</title>
<path fill="none" stroke="midnightblue" d="M620.92,-453.18C712.96,-446.01 915.59,-429.67 1086,-412 1089,-411.69 1092.07,-411.36 1095.16,-411.02"/>
<polygon fill="midnightblue" stroke="midnightblue" points="620.48,-449.7 610.78,-453.96 621.02,-456.68 620.48,-449.7"/>
</g>
<!-- Node42 -->
<g id="node40" class="node">
<title>Node42</title>
<g id="a_node40"><a xlink:href="pool__inlines_8h_source.html" target="_top" xlink:title=" ">
<polygon fill="white" stroke="black" points="572,-392.5 572,-411.5 656,-411.5 656,-392.5 572,-392.5"/>
<text text-anchor="middle" x="614" y="-399.5" font-family="Helvetica,sans-Serif" font-size="10.00">pool_inlines.h</text>
</a>
</g>
</g>
<!-- Node23&#45;&gt;Node42 -->
<g id="edge53" class="edge">
<title>Node23&#45;&gt;Node42</title>
<path fill="none" stroke="midnightblue" d="M584.42,-440.14C591.91,-430.74 600.94,-419.4 607.03,-411.75"/>
<polygon fill="midnightblue" stroke="midnightblue" points="581.59,-438.08 578.1,-448.08 587.07,-442.44 581.59,-438.08"/>
</g>
<!-- Node25 -->
<g id="node25" class="node">
<title>Node25</title>
<g id="a_node25"><a xlink:href="buffer_8h.html" target="_top" xlink:title=" ">
<polygon fill="white" stroke="black" points="366.5,-336.5 366.5,-355.5 419.5,-355.5 419.5,-336.5 366.5,-336.5"/>
<text text-anchor="middle" x="393" y="-343.5" font-family="Helvetica,sans-Serif" font-size="10.00">buffer.h</text>
</a>
</g>
</g>
<!-- Node24&#45;&gt;Node25 -->
<g id="edge28" class="edge">
<title>Node24&#45;&gt;Node25</title>
<path fill="none" stroke="midnightblue" d="M393,-381.8C393,-372.91 393,-362.78 393,-355.75"/>
<polygon fill="midnightblue" stroke="midnightblue" points="389.5,-382.08 393,-392.08 396.5,-382.08 389.5,-382.08"/>
</g>
<!-- Node25&#45;&gt;Node26 -->
<g id="edge29" class="edge">
<title>Node25&#45;&gt;Node26</title>
<path fill="none" stroke="midnightblue" d="M376.71,-329C366.96,-319.43 354.95,-307.64 346.91,-299.75"/>
<polygon fill="midnightblue" stroke="midnightblue" points="374.33,-331.57 383.92,-336.08 379.23,-326.58 374.33,-331.57"/>
</g>
<!-- Node28 -->
<g id="node28" class="node">
<title>Node28</title>
<g id="a_node28"><a xlink:href="classification_8h.html" target="_top" xlink:title=" ">
<polygon fill="white" stroke="black" points="890.5,-224.5 890.5,-243.5 979.5,-243.5 979.5,-224.5 890.5,-224.5"/>
<text text-anchor="middle" x="935" y="-231.5" font-family="Helvetica,sans-Serif" font-size="10.00">classification.h</text>
</a>
</g>
</g>
<!-- Node27&#45;&gt;Node28 -->
<g id="edge31" class="edge">
<title>Node27&#45;&gt;Node28</title>
<path fill="none" stroke="midnightblue" d="M737.03,-278.28C783.7,-268.08 853.03,-252.92 896.05,-243.52"/>
<polygon fill="midnightblue" stroke="midnightblue" points="736.16,-274.89 727.14,-280.44 737.65,-281.73 736.16,-274.89"/>
</g>
<!-- Node28&#45;&gt;Node16 -->
<g id="edge32" class="edge">
<title>Node28&#45;&gt;Node16</title>
<path fill="none" stroke="midnightblue" d="M903.52,-220.77C877.41,-210.63 840.96,-196.47 817.92,-187.52"/>
<polygon fill="midnightblue" stroke="midnightblue" points="902.39,-224.08 912.98,-224.44 904.92,-217.56 902.39,-224.08"/>
</g>
<!-- Node28&#45;&gt;Node29 -->
<g id="edge33" class="edge">
<title>Node28&#45;&gt;Node29</title>
<path fill="none" stroke="midnightblue" d="M989.47,-225.07C1046.91,-216.56 1139.99,-202.31 1220,-188 1222.82,-187.49 1225.74,-186.95 1228.67,-186.4"/>
<polygon fill="midnightblue" stroke="midnightblue" points="988.9,-221.62 979.52,-226.54 989.93,-228.54 988.9,-221.62"/>
</g>
<!-- Node30 -->
<g id="node30" class="node">
<title>Node30</title>
<g id="a_node30"><a xlink:href="packet__io_8h.html" target="_top" xlink:title=" ">
<polygon fill="white" stroke="black" points="1229,-112.5 1229,-131.5 1301,-131.5 1301,-112.5 1229,-112.5"/>
<text text-anchor="middle" x="1265" y="-119.5" font-family="Helvetica,sans-Serif" font-size="10.00">packet_io.h</text>
</a>
</g>
</g>
<!-- Node29&#45;&gt;Node30 -->
<g id="edge34" class="edge">
<title>Node29&#45;&gt;Node30</title>
<path fill="none" stroke="midnightblue" d="M1265,-157.8C1265,-148.91 1265,-138.78 1265,-131.75"/>
<polygon fill="midnightblue" stroke="midnightblue" points="1261.5,-158.08 1265,-168.08 1268.5,-158.08 1261.5,-158.08"/>
</g>
<!-- Node32 -->
<g id="node32" class="node">
<title>Node32</title>
<g id="a_node32"><a xlink:href="packet__io__types_8h.html" target="_top" xlink:title=" ">
<polygon fill="white" stroke="black" points="712,-336.5 712,-355.5 816,-355.5 816,-336.5 712,-336.5"/>
<text text-anchor="middle" x="764" y="-343.5" font-family="Helvetica,sans-Serif" font-size="10.00">packet_io_types.h</text>
</a>
</g>
</g>
<!-- Node31&#45;&gt;Node32 -->
<g id="edge39" class="edge">
<title>Node31&#45;&gt;Node32</title>
<path fill="none" stroke="midnightblue" d="M764,-381.8C764,-372.91 764,-362.78 764,-355.75"/>
<polygon fill="midnightblue" stroke="midnightblue" points="760.5,-382.08 764,-392.08 767.5,-382.08 760.5,-382.08"/>
</g>
<!-- Node32&#45;&gt;Node2 -->
<g id="edge42" class="edge">
<title>Node32&#45;&gt;Node2</title>
<path fill="none" stroke="midnightblue" d="M826.18,-336.42C827.46,-336.28 828.74,-336.14 830,-336 1029.03,-314.47 1080.85,-328.56 1279,-300 1283.53,-299.35 1288.3,-298.51 1292.94,-297.6"/>
<polygon fill="midnightblue" stroke="midnightblue" points="825.72,-332.95 816.21,-337.61 826.55,-339.9 825.72,-332.95"/>
</g>
<!-- Node32&#45;&gt;Node16 -->
<g id="edge41" class="edge">
<title>Node32&#45;&gt;Node16</title>
<path fill="none" stroke="midnightblue" d="M765.25,-326.22C767.14,-302.24 771.42,-259.58 780,-224 783.11,-211.1 788.58,-196.75 792.25,-187.8"/>
<polygon fill="midnightblue" stroke="midnightblue" points="761.75,-326.15 764.52,-336.38 768.73,-326.66 761.75,-326.15"/>
</g>
<!-- Node32&#45;&gt;Node27 -->
<g id="edge40" class="edge">
<title>Node32&#45;&gt;Node27</title>
<path fill="none" stroke="midnightblue" d="M743.42,-330.38C729.69,-320.62 712.07,-308.11 700.43,-299.83"/>
<polygon fill="midnightblue" stroke="midnightblue" points="741.61,-333.38 751.79,-336.32 745.66,-327.68 741.61,-333.38"/>
</g>
<!-- Node32&#45;&gt;Node29 -->
<g id="edge43" class="edge">
<title>Node32&#45;&gt;Node29</title>
<path fill="none" stroke="midnightblue" d="M799.38,-333.28C894.86,-301.64 1156.18,-215.06 1239.27,-187.52"/>
<polygon fill="midnightblue" stroke="midnightblue" points="798.27,-329.96 789.88,-336.42 800.47,-336.6 798.27,-329.96"/>
</g>
<!-- Node33 -->
<g id="node33" class="node">
<title>Node33</title>
<g id="a_node33"><a xlink:href="spec_2traffic__mngr_8h.html" target="_top" xlink:title=" ">
<polygon fill="white" stroke="black" points="789,-280.5 789,-299.5 873,-299.5 873,-280.5 789,-280.5"/>
<text text-anchor="middle" x="831" y="-287.5" font-family="Helvetica,sans-Serif" font-size="10.00">traffic_mngr.h</text>
</a>
</g>
</g>
<!-- Node32&#45;&gt;Node33 -->
<g id="edge44" class="edge">
<title>Node32&#45;&gt;Node33</title>
<path fill="none" stroke="midnightblue" d="M782.83,-329.82C794.84,-320.15 809.97,-307.95 820.04,-299.83"/>
<polygon fill="midnightblue" stroke="midnightblue" points="780.35,-327.32 774.76,-336.32 784.75,-332.77 780.35,-327.32"/>
</g>
<!-- Node34 -->
<g id="node34" class="node">
<title>Node34</title>
<g id="a_node34"><a xlink:href="traffic__mngr_8h.html" target="_top" xlink:title=" ">
<polygon fill="white" stroke="black" points="789,-224.5 789,-243.5 873,-243.5 873,-224.5 789,-224.5"/>
<text text-anchor="middle" x="831" y="-231.5" font-family="Helvetica,sans-Serif" font-size="10.00">traffic_mngr.h</text>
</a>
</g>
</g>
<!-- Node33&#45;&gt;Node34 -->
<g id="edge45" class="edge">
<title>Node33&#45;&gt;Node34</title>
<path fill="none" stroke="midnightblue" d="M831,-269.8C831,-260.91 831,-250.78 831,-243.75"/>
<polygon fill="midnightblue" stroke="midnightblue" points="827.5,-270.08 831,-280.08 834.5,-270.08 827.5,-270.08"/>
</g>
<!-- Node34&#45;&gt;Node16 -->
<g id="edge46" class="edge">
<title>Node34&#45;&gt;Node16</title>
<path fill="none" stroke="midnightblue" d="M819.7,-215.57C813.68,-206.27 806.53,-195.25 801.67,-187.75"/>
<polygon fill="midnightblue" stroke="midnightblue" points="816.84,-217.6 825.22,-224.08 822.72,-213.79 816.84,-217.6"/>
</g>
<!-- Node44 -->
<g id="node42" class="node">
<title>Node44</title>
<g id="a_node42"><a xlink:href="event_8h.html" target="_top" xlink:title=" ">
<polygon fill="white" stroke="black" points="1134.5,-448.5 1134.5,-467.5 1187.5,-467.5 1187.5,-448.5 1134.5,-448.5"/>
<text text-anchor="middle" x="1161" y="-455.5" font-family="Helvetica,sans-Serif" font-size="10.00">event.h</text>
</a>
</g>
</g>
<!-- Node43&#45;&gt;Node44 -->
<g id="edge56" class="edge">
<title>Node43&#45;&gt;Node44</title>
<path fill="none" stroke="midnightblue" d="M1130.05,-496.14C1137.89,-486.74 1147.33,-475.4 1153.71,-467.75"/>
<polygon fill="midnightblue" stroke="midnightblue" points="1127.14,-494.16 1123.43,-504.08 1132.52,-498.64 1127.14,-494.16"/>
</g>
<!-- Node44&#45;&gt;Node4 -->
<g id="edge58" class="edge">
<title>Node44&#45;&gt;Node4</title>
<path fill="none" stroke="midnightblue" d="M1196.92,-444.31C1211.45,-437.2 1226.72,-426.73 1235,-412 1280.18,-331.64 1196.93,-219.18 1171.22,-187.57"/>
<polygon fill="midnightblue" stroke="midnightblue" points="1195.25,-441.22 1187.56,-448.51 1198.12,-447.61 1195.25,-441.22"/>
</g>
<!-- Node44&#45;&gt;Node5 -->
<g id="edge59" class="edge">
<title>Node44&#45;&gt;Node5</title>
<path fill="none" stroke="midnightblue" d="M1197.91,-454.93C1254.44,-450.89 1358.31,-439.81 1381,-412 1467.56,-305.95 1360.76,-118.26 1334.54,-75.73"/>
<polygon fill="midnightblue" stroke="midnightblue" points="1197.35,-451.46 1187.61,-455.62 1197.82,-458.44 1197.35,-451.46"/>
</g>
<!-- Node44&#45;&gt;Node39 -->
<g id="edge57" class="edge">
<title>Node44&#45;&gt;Node39</title>
<path fill="none" stroke="midnightblue" d="M1124.09,-448.8C1078.88,-438.75 1002.63,-421.81 956.64,-411.59"/>
<polygon fill="midnightblue" stroke="midnightblue" points="1123.55,-452.26 1134.07,-451.01 1125.06,-445.43 1123.55,-452.26"/>
</g>
<!-- Node44&#45;&gt;Node40 -->
<g id="edge60" class="edge">
<title>Node44&#45;&gt;Node40</title>
<path fill="none" stroke="midnightblue" d="M1130.68,-444.5C1106.12,-434.38 1072.18,-420.39 1050.66,-411.52"/>
<polygon fill="midnightblue" stroke="midnightblue" points="1129.66,-447.87 1140.24,-448.44 1132.33,-441.4 1129.66,-447.87"/>
</g>
<!-- Node44&#45;&gt;Node41 -->
<g id="edge61" class="edge">
<title>Node44&#45;&gt;Node41</title>
<path fill="none" stroke="midnightblue" d="M1161,-437.8C1161,-428.91 1161,-418.78 1161,-411.75"/>
<polygon fill="midnightblue" stroke="midnightblue" points="1157.5,-438.08 1161,-448.08 1164.5,-438.08 1157.5,-438.08"/>
</g>
<!-- Node45 -->
<g id="node43" class="node">
<title>Node45</title>
<g id="a_node43"><a xlink:href="timer__inlines_8h_source.html" target="_top" xlink:title=" ">
<polygon fill="white" stroke="black" points="1283.5,-392.5 1283.5,-411.5 1372.5,-411.5 1372.5,-392.5 1283.5,-392.5"/>
<text text-anchor="middle" x="1328" y="-399.5" font-family="Helvetica,sans-Serif" font-size="10.00">timer_inlines.h</text>
</a>
</g>
</g>
<!-- Node44&#45;&gt;Node45 -->
<g id="edge62" class="edge">
<title>Node44&#45;&gt;Node45</title>
<path fill="none" stroke="midnightblue" d="M1197.17,-445.3C1228.64,-435.13 1273.49,-420.62 1301.66,-411.52"/>
<polygon fill="midnightblue" stroke="midnightblue" points="1195.9,-442.04 1187.46,-448.44 1198.05,-448.7 1195.9,-442.04"/>
</g>
<!-- Node47 -->
<g id="node45" class="node">
<title>Node47</title>
<g id="a_node45"><a xlink:href="packet__flags_8h.html" target="_top" xlink:title=" ">
<polygon fill="white" stroke="black" points="1120,-560.5 1120,-579.5 1206,-579.5 1206,-560.5 1120,-560.5"/>
<text text-anchor="middle" x="1163" y="-567.5" font-family="Helvetica,sans-Serif" font-size="10.00">packet_flags.h</text>
</a>
</g>
</g>
<!-- Node46&#45;&gt;Node47 -->
<g id="edge66" class="edge">
<title>Node46&#45;&gt;Node47</title>
<path fill="none" stroke="midnightblue" d="M1163,-605.8C1163,-596.91 1163,-586.78 1163,-579.75"/>
<polygon fill="midnightblue" stroke="midnightblue" points="1159.5,-606.08 1163,-616.08 1166.5,-606.08 1159.5,-606.08"/>
</g>
<!-- Node50 -->
<g id="node48" class="node">
<title>Node50</title>
<g id="a_node48"><a xlink:href="queue__inlines_8h_source.html" target="_top" xlink:title=" ">
<polygon fill="white" stroke="black" points="1363.5,-560.5 1363.5,-579.5 1456.5,-579.5 1456.5,-560.5 1363.5,-560.5"/>
<text text-anchor="middle" x="1410" y="-567.5" font-family="Helvetica,sans-Serif" font-size="10.00">queue_inlines.h</text>
</a>
</g>
</g>
<!-- Node49&#45;&gt;Node50 -->
<g id="edge71" class="edge">
<title>Node49&#45;&gt;Node50</title>
<path fill="none" stroke="midnightblue" d="M1410,-605.8C1410,-596.91 1410,-586.78 1410,-579.75"/>
<polygon fill="midnightblue" stroke="midnightblue" points="1406.5,-606.08 1410,-616.08 1413.5,-606.08 1406.5,-606.08"/>
</g>
<!-- Node52 -->
<g id="node50" class="node">
<title>Node52</title>
<g id="a_node50"><a xlink:href="proto__stats_8h.html" target="_top" xlink:title=" ">
<polygon fill="white" stroke="black" points="1581,-672.5 1581,-691.5 1661,-691.5 1661,-672.5 1581,-672.5"/>
<text text-anchor="middle" x="1621" y="-679.5" font-family="Helvetica,sans-Serif" font-size="10.00">proto_stats.h</text>
</a>
</g>
</g>
<!-- Node51&#45;&gt;Node52 -->
<g id="edge75" class="edge">
<title>Node51&#45;&gt;Node52</title>
<path fill="none" stroke="midnightblue" d="M1621,-717.8C1621,-708.91 1621,-698.78 1621,-691.75"/>
<polygon fill="midnightblue" stroke="midnightblue" points="1617.5,-718.08 1621,-728.08 1624.5,-718.08 1617.5,-718.08"/>
</g>
</g>
</svg>
