<?xml version="1.0" encoding="UTF-8" standalone="no"?>
<!DOCTYPE svg PUBLIC "-//W3C//DTD SVG 1.1//EN"
 "http://www.w3.org/Graphics/SVG/1.1/DTD/svg11.dtd">
<!-- Generated by graphviz version 2.43.0 (0)
 -->
<!-- Title: queue_types.h Pages: 1 -->
<svg width="1188pt" height="812pt"
 viewBox="0.00 0.00 1187.50 812.00" xmlns="http://www.w3.org/2000/svg" xmlns:xlink="http://www.w3.org/1999/xlink">
<g id="graph0" class="graph" transform="scale(1 1) rotate(0) translate(4 808)">
<title>queue_types.h</title>
<polygon fill="white" stroke="transparent" points="-4,4 -4,-808 1183.5,-808 1183.5,4 -4,4"/>
<!-- Node1 -->
<g id="node1" class="node">
<title>Node1</title>
<g id="a_node1"><a xlink:title=" ">
<polygon fill="#bfbfbf" stroke="black" points="369.5,-784.5 369.5,-803.5 457.5,-803.5 457.5,-784.5 369.5,-784.5"/>
<text text-anchor="middle" x="413.5" y="-791.5" font-family="Helvetica,sans-Serif" font-size="10.00">queue_types.h</text>
</a>
</g>
</g>
<!-- Node2 -->
<g id="node2" class="node">
<title>Node2</title>
<g id="a_node2"><a xlink:href="spec_2comp_8h.html" target="_top" xlink:title=" ">
<polygon fill="white" stroke="black" points="196,-616.5 196,-635.5 249,-635.5 249,-616.5 196,-616.5"/>
<text text-anchor="middle" x="222.5" y="-623.5" font-family="Helvetica,sans-Serif" font-size="10.00">comp.h</text>
</a>
</g>
</g>
<!-- Node1&#45;&gt;Node2 -->
<g id="edge1" class="edge">
<title>Node1&#45;&gt;Node2</title>
<path fill="none" stroke="midnightblue" d="M359.35,-788.97C327.71,-783.91 289.09,-772.71 263.5,-748 230.79,-716.42 224.17,-657.83 222.84,-635.73"/>
<polygon fill="midnightblue" stroke="midnightblue" points="358.96,-792.45 369.35,-790.4 359.95,-785.52 358.96,-792.45"/>
</g>
<!-- Node4 -->
<g id="node4" class="node">
<title>Node4</title>
<g id="a_node4"><a xlink:href="spec_2dma__types_8h.html" target="_top" xlink:title=" ">
<polygon fill="white" stroke="black" points="305.5,-616.5 305.5,-635.5 385.5,-635.5 385.5,-616.5 305.5,-616.5"/>
<text text-anchor="middle" x="345.5" y="-623.5" font-family="Helvetica,sans-Serif" font-size="10.00">dma_types.h</text>
</a>
</g>
</g>
<!-- Node1&#45;&gt;Node4 -->
<g id="edge3" class="edge">
<title>Node1&#45;&gt;Node4</title>
<path fill="none" stroke="midnightblue" d="M405.88,-774.39C391.21,-738.59 359.57,-661.34 349.01,-635.57"/>
<polygon fill="midnightblue" stroke="midnightblue" points="402.81,-776.15 409.84,-784.08 409.29,-773.49 402.81,-776.15"/>
</g>
<!-- Node20 -->
<g id="node16" class="node">
<title>Node20</title>
<g id="a_node16"><a xlink:href="spec_2packet__io_8h.html" target="_top" xlink:title=" ">
<polygon fill="white" stroke="black" points="386.5,-168.5 386.5,-187.5 458.5,-187.5 458.5,-168.5 386.5,-168.5"/>
<text text-anchor="middle" x="422.5" y="-175.5" font-family="Helvetica,sans-Serif" font-size="10.00">packet_io.h</text>
</a>
</g>
</g>
<!-- Node1&#45;&gt;Node20 -->
<g id="edge41" class="edge">
<title>Node1&#45;&gt;Node20</title>
<path fill="none" stroke="midnightblue" d="M415.37,-774.23C418.01,-750.26 423.53,-707.62 432.5,-672 449.53,-604.39 469.13,-592 484.5,-524 491.5,-493.03 500.81,-405.16 505.5,-300 507,-266.26 522.78,-253.02 505.5,-224 494.52,-205.55 473.04,-194.2 454.68,-187.51"/>
<polygon fill="midnightblue" stroke="midnightblue" points="411.87,-774.07 414.31,-784.38 418.83,-774.8 411.87,-774.07"/>
</g>
<!-- Node29 -->
<g id="node24" class="node">
<title>Node29</title>
<g id="a_node24"><a xlink:href="spec_2packet__io__types_8h.html" target="_top" xlink:title=" ">
<polygon fill="white" stroke="black" points="78.5,-392.5 78.5,-411.5 182.5,-411.5 182.5,-392.5 78.5,-392.5"/>
<text text-anchor="middle" x="130.5" y="-399.5" font-family="Helvetica,sans-Serif" font-size="10.00">packet_io_types.h</text>
</a>
</g>
</g>
<!-- Node1&#45;&gt;Node29 -->
<g id="edge46" class="edge">
<title>Node1&#45;&gt;Node29</title>
<path fill="none" stroke="midnightblue" d="M359.19,-793.07C309.35,-790.81 235.16,-781.37 180.5,-748 149.16,-728.87 129.5,-719.72 129.5,-683 129.5,-683 129.5,-683 129.5,-513 129.5,-475.19 130.1,-430.06 130.37,-411.56"/>
<polygon fill="midnightblue" stroke="midnightblue" points="359.32,-796.58 369.44,-793.45 359.58,-789.58 359.32,-796.58"/>
</g>
<!-- Node35 -->
<g id="node28" class="node">
<title>Node35</title>
<g id="a_node28"><a xlink:href="spec_2timer_8h.html" target="_top" xlink:title=" ">
<polygon fill="white" stroke="black" points="304,-392.5 304,-411.5 355,-411.5 355,-392.5 304,-392.5"/>
<text text-anchor="middle" x="329.5" y="-399.5" font-family="Helvetica,sans-Serif" font-size="10.00">timer.h</text>
</a>
</g>
</g>
<!-- Node1&#45;&gt;Node35 -->
<g id="edge72" class="edge">
<title>Node1&#45;&gt;Node35</title>
<path fill="none" stroke="midnightblue" d="M396.36,-777.53C368.96,-751.5 316.37,-695.91 296.5,-636 268.59,-551.85 311.71,-442.95 325.49,-411.72"/>
<polygon fill="midnightblue" stroke="midnightblue" points="393.98,-780.09 403.68,-784.35 398.75,-774.97 393.98,-780.09"/>
</g>
<!-- Node12 -->
<g id="node30" class="node">
<title>Node12</title>
<g id="a_node30"><a xlink:href="dma__inlines_8h_source.html" target="_top" xlink:title=" ">
<polygon fill="white" stroke="black" points="201,-392.5 201,-411.5 286,-411.5 286,-392.5 201,-392.5"/>
<text text-anchor="middle" x="243.5" y="-399.5" font-family="Helvetica,sans-Serif" font-size="10.00">dma_inlines.h</text>
</a>
</g>
</g>
<!-- Node1&#45;&gt;Node12 -->
<g id="edge73" class="edge">
<title>Node1&#45;&gt;Node12</title>
<path fill="none" stroke="midnightblue" d="M358.9,-791.78C286.43,-786.93 167.5,-766.27 167.5,-683 167.5,-683 167.5,-683 167.5,-569 167.5,-503.39 217.19,-435.35 236.21,-411.71"/>
<polygon fill="midnightblue" stroke="midnightblue" points="359.05,-795.29 369.24,-792.39 359.46,-788.31 359.05,-795.29"/>
</g>
<!-- Node41 -->
<g id="node33" class="node">
<title>Node41</title>
<g id="a_node33"><a xlink:href="spec_2packet__io__stats_8h.html" target="_top" xlink:title=" ">
<polygon fill="white" stroke="black" points="0,-504.5 0,-523.5 101,-523.5 101,-504.5 0,-504.5"/>
<text text-anchor="middle" x="50.5" y="-511.5" font-family="Helvetica,sans-Serif" font-size="10.00">packet_io_stats.h</text>
</a>
</g>
</g>
<!-- Node1&#45;&gt;Node41 -->
<g id="edge42" class="edge">
<title>Node1&#45;&gt;Node41</title>
<path fill="none" stroke="midnightblue" d="M359.09,-789.98C284.44,-784.98 155.02,-772.93 115.5,-748 86,-729.39 71.5,-717.89 71.5,-683 71.5,-683 71.5,-683 71.5,-625 71.5,-586.7 59.06,-542.21 53.33,-523.73"/>
<polygon fill="midnightblue" stroke="midnightblue" points="359.04,-793.49 369.24,-790.64 359.49,-786.5 359.04,-793.49"/>
</g>
<!-- Node43 -->
<g id="node35" class="node">
<title>Node43</title>
<g id="a_node35"><a xlink:href="spec_2packet__types_8h.html" target="_top" xlink:title=" ">
<polygon fill="white" stroke="black" points="553.5,-728.5 553.5,-747.5 643.5,-747.5 643.5,-728.5 553.5,-728.5"/>
<text text-anchor="middle" x="598.5" y="-735.5" font-family="Helvetica,sans-Serif" font-size="10.00">packet_types.h</text>
</a>
</g>
</g>
<!-- Node1&#45;&gt;Node43 -->
<g id="edge47" class="edge">
<title>Node1&#45;&gt;Node43</title>
<path fill="none" stroke="midnightblue" d="M452.67,-781.57C487.57,-771.38 537.85,-756.7 569.32,-747.52"/>
<polygon fill="midnightblue" stroke="midnightblue" points="451.43,-778.28 442.81,-784.44 453.39,-785 451.43,-778.28"/>
</g>
<!-- Node53 -->
<g id="node44" class="node">
<title>Node53</title>
<g id="a_node44"><a xlink:href="spec_2queue_8h.html" target="_top" xlink:title=" ">
<polygon fill="white" stroke="black" points="685.5,-728.5 685.5,-747.5 741.5,-747.5 741.5,-728.5 685.5,-728.5"/>
<text text-anchor="middle" x="713.5" y="-735.5" font-family="Helvetica,sans-Serif" font-size="10.00">queue.h</text>
</a>
</g>
</g>
<!-- Node1&#45;&gt;Node53 -->
<g id="edge68" class="edge">
<title>Node1&#45;&gt;Node53</title>
<path fill="none" stroke="midnightblue" d="M467.67,-783.25C531.63,-771.74 635.57,-753.03 685.28,-744.08"/>
<polygon fill="midnightblue" stroke="midnightblue" points="466.99,-779.82 457.77,-785.03 468.23,-786.71 466.99,-779.82"/>
</g>
<!-- Node55 -->
<g id="node46" class="node">
<title>Node55</title>
<g id="a_node46"><a xlink:href="spec_2schedule_8h.html" target="_top" xlink:title=" ">
<polygon fill="white" stroke="black" points="772,-728.5 772,-747.5 841,-747.5 841,-728.5 772,-728.5"/>
<text text-anchor="middle" x="806.5" y="-735.5" font-family="Helvetica,sans-Serif" font-size="10.00">schedule.h</text>
</a>
</g>
</g>
<!-- Node1&#45;&gt;Node55 -->
<g id="edge70" class="edge">
<title>Node1&#45;&gt;Node55</title>
<path fill="none" stroke="midnightblue" d="M467.98,-786.18C534.66,-777.72 651,-762.64 750.5,-748 757.42,-746.98 764.8,-745.84 771.87,-744.71"/>
<polygon fill="midnightblue" stroke="midnightblue" points="467.19,-782.75 457.71,-787.48 468.07,-789.69 467.19,-782.75"/>
</g>
<!-- Node57 -->
<g id="node48" class="node">
<title>Node57</title>
<g id="a_node48"><a xlink:href="queue__inline__types_8h_source.html" target="_top" xlink:title=" ">
<polygon fill="white" stroke="black" points="441.5,-672.5 441.5,-691.5 561.5,-691.5 561.5,-672.5 441.5,-672.5"/>
<text text-anchor="middle" x="501.5" y="-679.5" font-family="Helvetica,sans-Serif" font-size="10.00">queue_inline_types.h</text>
</a>
</g>
</g>
<!-- Node1&#45;&gt;Node57 -->
<g id="edge74" class="edge">
<title>Node1&#45;&gt;Node57</title>
<path fill="none" stroke="midnightblue" d="M426.88,-776.27C445.9,-752.49 480.07,-709.79 494.63,-691.59"/>
<polygon fill="midnightblue" stroke="midnightblue" points="423.92,-774.37 420.41,-784.37 429.39,-778.75 423.92,-774.37"/>
</g>
<!-- Node58 -->
<g id="node49" class="node">
<title>Node58</title>
<g id="a_node49"><a xlink:href="schedule__inline__types_8h_source.html" target="_top" xlink:title=" ">
<polygon fill="white" stroke="black" points="906.5,-728.5 906.5,-747.5 1040.5,-747.5 1040.5,-728.5 906.5,-728.5"/>
<text text-anchor="middle" x="973.5" y="-735.5" font-family="Helvetica,sans-Serif" font-size="10.00">schedule_inline_types.h</text>
</a>
</g>
</g>
<!-- Node1&#45;&gt;Node58 -->
<g id="edge76" class="edge">
<title>Node1&#45;&gt;Node58</title>
<path fill="none" stroke="midnightblue" d="M467.88,-788.08C556.31,-780.03 736.77,-763.4 889.5,-748 894.9,-747.46 900.49,-746.88 906.11,-746.3"/>
<polygon fill="midnightblue" stroke="midnightblue" points="467.46,-784.61 457.81,-789 468.09,-791.58 467.46,-784.61"/>
</g>
<!-- Node59 -->
<g id="node50" class="node">
<title>Node59</title>
<g id="a_node50"><a xlink:href="schedule__inlines_8h_source.html" target="_top" xlink:title=" ">
<polygon fill="white" stroke="black" points="924,-672.5 924,-691.5 1031,-691.5 1031,-672.5 924,-672.5"/>
<text text-anchor="middle" x="977.5" y="-679.5" font-family="Helvetica,sans-Serif" font-size="10.00">schedule_inlines.h</text>
</a>
</g>
</g>
<!-- Node1&#45;&gt;Node59 -->
<g id="edge78" class="edge">
<title>Node1&#45;&gt;Node59</title>
<path fill="none" stroke="midnightblue" d="M467.56,-793.7C551.18,-793.4 716.18,-787.26 849.5,-748 872.57,-741.21 933.61,-707.71 962.25,-691.64"/>
<polygon fill="midnightblue" stroke="midnightblue" points="467.52,-790.2 457.53,-793.71 467.53,-797.2 467.52,-790.2"/>
</g>
<!-- Node3 -->
<g id="node3" class="node">
<title>Node3</title>
<g id="a_node3"><a xlink:href="comp_8h.html" target="_top" xlink:title=" ">
<polygon fill="white" stroke="black" points="196,-560.5 196,-579.5 249,-579.5 249,-560.5 196,-560.5"/>
<text text-anchor="middle" x="222.5" y="-567.5" font-family="Helvetica,sans-Serif" font-size="10.00">comp.h</text>
</a>
</g>
</g>
<!-- Node2&#45;&gt;Node3 -->
<g id="edge2" class="edge">
<title>Node2&#45;&gt;Node3</title>
<path fill="none" stroke="midnightblue" d="M222.5,-605.8C222.5,-596.91 222.5,-586.78 222.5,-579.75"/>
<polygon fill="midnightblue" stroke="midnightblue" points="219,-606.08 222.5,-616.08 226,-606.08 219,-606.08"/>
</g>
<!-- Node5 -->
<g id="node5" class="node">
<title>Node5</title>
<g id="a_node5"><a xlink:href="dma__types_8h.html" target="_top" xlink:title=" ">
<polygon fill="white" stroke="black" points="308.5,-560.5 308.5,-579.5 388.5,-579.5 388.5,-560.5 308.5,-560.5"/>
<text text-anchor="middle" x="348.5" y="-567.5" font-family="Helvetica,sans-Serif" font-size="10.00">dma_types.h</text>
</a>
</g>
</g>
<!-- Node4&#45;&gt;Node5 -->
<g id="edge4" class="edge">
<title>Node4&#45;&gt;Node5</title>
<path fill="none" stroke="midnightblue" d="M346.57,-605.8C347.06,-596.91 347.62,-586.78 348.01,-579.75"/>
<polygon fill="midnightblue" stroke="midnightblue" points="343.06,-605.9 346,-616.08 350.04,-606.29 343.06,-605.9"/>
</g>
<!-- Node6 -->
<g id="node6" class="node">
<title>Node6</title>
<g id="a_node6"><a xlink:href="spec_2dma_8h.html" target="_top" xlink:title=" ">
<polygon fill="white" stroke="black" points="373,-392.5 373,-411.5 420,-411.5 420,-392.5 373,-392.5"/>
<text text-anchor="middle" x="396.5" y="-399.5" font-family="Helvetica,sans-Serif" font-size="10.00">dma.h</text>
</a>
</g>
</g>
<!-- Node5&#45;&gt;Node6 -->
<g id="edge5" class="edge">
<title>Node5&#45;&gt;Node6</title>
<path fill="none" stroke="midnightblue" d="M353.88,-550.39C364.23,-514.59 386.57,-437.34 394.02,-411.57"/>
<polygon fill="midnightblue" stroke="midnightblue" points="350.5,-549.5 351.08,-560.08 357.22,-551.44 350.5,-549.5"/>
</g>
<!-- Node8 -->
<g id="node8" class="node">
<title>Node8</title>
<g id="a_node8"><a xlink:href="spec_2pool__types_8h.html" target="_top" xlink:title=" ">
<polygon fill="white" stroke="black" points="397,-504.5 397,-523.5 476,-523.5 476,-504.5 397,-504.5"/>
<text text-anchor="middle" x="436.5" y="-511.5" font-family="Helvetica,sans-Serif" font-size="10.00">pool_types.h</text>
</a>
</g>
</g>
<!-- Node5&#45;&gt;Node8 -->
<g id="edge7" class="edge">
<title>Node5&#45;&gt;Node8</title>
<path fill="none" stroke="midnightblue" d="M371.48,-554.9C387.61,-545 408.68,-532.07 422.4,-523.65"/>
<polygon fill="midnightblue" stroke="midnightblue" points="369.33,-552.11 362.64,-560.32 372.99,-558.08 369.33,-552.11"/>
</g>
<!-- Node5&#45;&gt;Node12 -->
<g id="edge40" class="edge">
<title>Node5&#45;&gt;Node12</title>
<path fill="none" stroke="midnightblue" d="M337.31,-551.31C314.93,-515.92 265.36,-437.56 248.92,-411.57"/>
<polygon fill="midnightblue" stroke="midnightblue" points="334.55,-553.49 342.85,-560.08 340.47,-549.75 334.55,-553.49"/>
</g>
<!-- Node7 -->
<g id="node7" class="node">
<title>Node7</title>
<g id="a_node7"><a xlink:href="dma_8h.html" target="_top" xlink:title=" ">
<polygon fill="white" stroke="black" points="373,-336.5 373,-355.5 420,-355.5 420,-336.5 373,-336.5"/>
<text text-anchor="middle" x="396.5" y="-343.5" font-family="Helvetica,sans-Serif" font-size="10.00">dma.h</text>
</a>
</g>
</g>
<!-- Node6&#45;&gt;Node7 -->
<g id="edge6" class="edge">
<title>Node6&#45;&gt;Node7</title>
<path fill="none" stroke="midnightblue" d="M396.5,-381.8C396.5,-372.91 396.5,-362.78 396.5,-355.75"/>
<polygon fill="midnightblue" stroke="midnightblue" points="393,-382.08 396.5,-392.08 400,-382.08 393,-382.08"/>
</g>
<!-- Node9 -->
<g id="node9" class="node">
<title>Node9</title>
<g id="a_node9"><a xlink:href="pool__types_8h.html" target="_top" xlink:title=" ">
<polygon fill="white" stroke="red" points="403,-448.5 403,-467.5 482,-467.5 482,-448.5 403,-448.5"/>
<text text-anchor="middle" x="442.5" y="-455.5" font-family="Helvetica,sans-Serif" font-size="10.00">pool_types.h</text>
</a>
</g>
</g>
<!-- Node8&#45;&gt;Node9 -->
<g id="edge8" class="edge">
<title>Node8&#45;&gt;Node9</title>
<path fill="none" stroke="midnightblue" d="M438.6,-494.1C439.6,-485.14 440.74,-474.86 441.53,-467.75"/>
<polygon fill="midnightblue" stroke="midnightblue" points="435.12,-493.76 437.49,-504.08 442.07,-494.53 435.12,-493.76"/>
</g>
<!-- Node9&#45;&gt;Node6 -->
<g id="edge23" class="edge">
<title>Node9&#45;&gt;Node6</title>
<path fill="none" stroke="midnightblue" d="M428.39,-440.43C420.32,-430.97 410.54,-419.48 403.95,-411.75"/>
<polygon fill="midnightblue" stroke="midnightblue" points="425.75,-442.74 434.9,-448.08 431.08,-438.2 425.75,-442.74"/>
</g>
<!-- Node13 -->
<g id="node10" class="node">
<title>Node13</title>
<g id="a_node10"><a xlink:href="spec_2classification_8h.html" target="_top" xlink:title=" ">
<polygon fill="white" stroke="black" points="293,-280.5 293,-299.5 382,-299.5 382,-280.5 293,-280.5"/>
<text text-anchor="middle" x="337.5" y="-287.5" font-family="Helvetica,sans-Serif" font-size="10.00">classification.h</text>
</a>
</g>
</g>
<!-- Node9&#45;&gt;Node13 -->
<g id="edge9" class="edge">
<title>Node9&#45;&gt;Node13</title>
<path fill="none" stroke="midnightblue" d="M445.48,-438.25C448.49,-412.68 450.03,-366.59 428.5,-336 415.41,-317.41 392.41,-306.13 372.8,-299.51"/>
<polygon fill="midnightblue" stroke="midnightblue" points="441.98,-438.03 444.08,-448.42 448.91,-438.99 441.98,-438.03"/>
</g>
<!-- Node22 -->
<g id="node18" class="node">
<title>Node22</title>
<g id="a_node18"><a xlink:href="spec_2crypto__types_8h.html" target="_top" xlink:title=" ">
<polygon fill="white" stroke="black" points="620,-392.5 620,-411.5 709,-411.5 709,-392.5 620,-392.5"/>
<text text-anchor="middle" x="664.5" y="-399.5" font-family="Helvetica,sans-Serif" font-size="10.00">crypto_types.h</text>
</a>
</g>
</g>
<!-- Node9&#45;&gt;Node22 -->
<g id="edge17" class="edge">
<title>Node9&#45;&gt;Node22</title>
<path fill="none" stroke="midnightblue" d="M487.62,-446.02C529.56,-435.82 591.15,-420.84 629.49,-411.52"/>
<polygon fill="midnightblue" stroke="midnightblue" points="486.57,-442.68 477.68,-448.44 488.22,-449.48 486.57,-442.68"/>
</g>
<!-- Node27 -->
<g id="node22" class="node">
<title>Node27</title>
<g id="a_node22"><a xlink:href="spec_2packet_8h.html" target="_top" xlink:title=" ">
<polygon fill="white" stroke="black" points="438.5,-280.5 438.5,-299.5 496.5,-299.5 496.5,-280.5 438.5,-280.5"/>
<text text-anchor="middle" x="467.5" y="-287.5" font-family="Helvetica,sans-Serif" font-size="10.00">packet.h</text>
</a>
</g>
</g>
<!-- Node9&#45;&gt;Node27 -->
<g id="edge24" class="edge">
<title>Node9&#45;&gt;Node27</title>
<path fill="none" stroke="midnightblue" d="M452.24,-439.26C456.18,-431.19 460.31,-421.37 462.5,-412 472.12,-370.85 469.72,-319.73 468.24,-299.66"/>
<polygon fill="midnightblue" stroke="midnightblue" points="449.01,-437.89 447.51,-448.38 455.22,-441.11 449.01,-437.89"/>
</g>
<!-- Node9&#45;&gt;Node29 -->
<g id="edge26" class="edge">
<title>Node9&#45;&gt;Node29</title>
<path fill="none" stroke="midnightblue" d="M392.89,-448.41C334.44,-438.3 237.96,-421.6 179.7,-411.51"/>
<polygon fill="midnightblue" stroke="midnightblue" points="392.53,-451.9 402.98,-450.16 393.73,-445.01 392.53,-451.9"/>
</g>
<!-- Node9&#45;&gt;Node35 -->
<g id="edge35" class="edge">
<title>Node9&#45;&gt;Node35</title>
<path fill="none" stroke="midnightblue" d="M415.5,-444.1C394.39,-434.01 365.64,-420.27 347.32,-411.52"/>
<polygon fill="midnightblue" stroke="midnightblue" points="414.06,-447.29 424.59,-448.44 417.08,-440.97 414.06,-447.29"/>
</g>
<!-- Node9&#45;&gt;Node12 -->
<g id="edge37" class="edge">
<title>Node9&#45;&gt;Node12</title>
<path fill="none" stroke="midnightblue" d="M400.85,-445.7C363.29,-435.51 308.89,-420.74 274.88,-411.52"/>
<polygon fill="midnightblue" stroke="midnightblue" points="400.4,-449.2 410.97,-448.44 402.23,-442.45 400.4,-449.2"/>
</g>
<!-- Node38 -->
<g id="node31" class="node">
<title>Node38</title>
<g id="a_node31"><a xlink:href="packet__inlines_8h.html" target="_top" xlink:title=" ">
<polygon fill="white" stroke="black" points="869,-392.5 869,-411.5 964,-411.5 964,-392.5 869,-392.5"/>
<text text-anchor="middle" x="916.5" y="-399.5" font-family="Helvetica,sans-Serif" font-size="10.00">packet_inlines.h</text>
</a>
</g>
</g>
<!-- Node9&#45;&gt;Node38 -->
<g id="edge38" class="edge">
<title>Node9&#45;&gt;Node38</title>
<path fill="none" stroke="midnightblue" d="M492.23,-451.33C583.91,-440.89 778.45,-418.73 868.68,-408.45"/>
<polygon fill="midnightblue" stroke="midnightblue" points="491.64,-447.88 482.1,-452.49 492.43,-454.83 491.64,-447.88"/>
</g>
<!-- Node39 -->
<g id="node32" class="node">
<title>Node39</title>
<g id="a_node32"><a xlink:href="packet__vector__inlines_8h.html" target="_top" xlink:title=" ">
<polygon fill="white" stroke="black" points="982,-392.5 982,-411.5 1113,-411.5 1113,-392.5 982,-392.5"/>
<text text-anchor="middle" x="1047.5" y="-399.5" font-family="Helvetica,sans-Serif" font-size="10.00">packet_vector_inlines.h</text>
</a>
</g>
</g>
<!-- Node9&#45;&gt;Node39 -->
<g id="edge39" class="edge">
<title>Node9&#45;&gt;Node39</title>
<path fill="none" stroke="midnightblue" d="M492.26,-453.39C586.35,-446.43 796.76,-430.23 973.5,-412 976.2,-411.72 978.96,-411.43 981.75,-411.12"/>
<polygon fill="midnightblue" stroke="midnightblue" points="491.9,-449.91 482.18,-454.13 492.41,-456.89 491.9,-449.91"/>
</g>
<!-- Node14 -->
<g id="node11" class="node">
<title>Node14</title>
<g id="a_node11"><a xlink:href="classification_8h.html" target="_top" xlink:title=" ">
<polygon fill="white" stroke="black" points="293,-224.5 293,-243.5 382,-243.5 382,-224.5 293,-224.5"/>
<text text-anchor="middle" x="337.5" y="-231.5" font-family="Helvetica,sans-Serif" font-size="10.00">classification.h</text>
</a>
</g>
</g>
<!-- Node13&#45;&gt;Node14 -->
<g id="edge10" class="edge">
<title>Node13&#45;&gt;Node14</title>
<path fill="none" stroke="midnightblue" d="M337.5,-269.8C337.5,-260.91 337.5,-250.78 337.5,-243.75"/>
<polygon fill="midnightblue" stroke="midnightblue" points="334,-270.08 337.5,-280.08 341,-270.08 334,-270.08"/>
</g>
<!-- Node15 -->
<g id="node12" class="node">
<title>Node15</title>
<g id="a_node12"><a xlink:href="spec_2ipsec__types_8h.html" target="_top" xlink:title=" ">
<polygon fill="white" stroke="black" points="285,-168.5 285,-187.5 368,-187.5 368,-168.5 285,-168.5"/>
<text text-anchor="middle" x="326.5" y="-175.5" font-family="Helvetica,sans-Serif" font-size="10.00">ipsec_types.h</text>
</a>
</g>
</g>
<!-- Node14&#45;&gt;Node15 -->
<g id="edge11" class="edge">
<title>Node14&#45;&gt;Node15</title>
<path fill="none" stroke="midnightblue" d="M333.65,-214.1C331.82,-205.14 329.73,-194.86 328.28,-187.75"/>
<polygon fill="midnightblue" stroke="midnightblue" points="330.26,-214.98 335.68,-224.08 337.12,-213.59 330.26,-214.98"/>
</g>
<!-- Node14&#45;&gt;Node20 -->
<g id="edge15" class="edge">
<title>Node14&#45;&gt;Node20</title>
<path fill="none" stroke="midnightblue" d="M359.69,-218.9C375.28,-209 395.63,-196.07 408.88,-187.65"/>
<polygon fill="midnightblue" stroke="midnightblue" points="357.72,-216.01 351.16,-224.32 361.47,-221.92 357.72,-216.01"/>
</g>
<!-- Node16 -->
<g id="node13" class="node">
<title>Node16</title>
<g id="a_node13"><a xlink:href="ipsec__types_8h.html" target="_top" xlink:title=" ">
<polygon fill="white" stroke="red" points="285,-112.5 285,-131.5 368,-131.5 368,-112.5 285,-112.5"/>
<text text-anchor="middle" x="326.5" y="-119.5" font-family="Helvetica,sans-Serif" font-size="10.00">ipsec_types.h</text>
</a>
</g>
</g>
<!-- Node15&#45;&gt;Node16 -->
<g id="edge12" class="edge">
<title>Node15&#45;&gt;Node16</title>
<path fill="none" stroke="midnightblue" d="M326.5,-157.8C326.5,-148.91 326.5,-138.78 326.5,-131.75"/>
<polygon fill="midnightblue" stroke="midnightblue" points="323,-158.08 326.5,-168.08 330,-158.08 323,-158.08"/>
</g>
<!-- Node17 -->
<g id="node14" class="node">
<title>Node17</title>
<g id="a_node14"><a xlink:href="spec_2ipsec_8h.html" target="_top" xlink:title=" ">
<polygon fill="white" stroke="black" points="677,-56.5 677,-75.5 728,-75.5 728,-56.5 677,-56.5"/>
<text text-anchor="middle" x="702.5" y="-63.5" font-family="Helvetica,sans-Serif" font-size="10.00">ipsec.h</text>
</a>
</g>
</g>
<!-- Node16&#45;&gt;Node17 -->
<g id="edge13" class="edge">
<title>Node16&#45;&gt;Node17</title>
<path fill="none" stroke="midnightblue" d="M378.13,-111.95C495.85,-93.57 623.23,-77.03 676.75,-70.24"/>
<polygon fill="midnightblue" stroke="midnightblue" points="377.56,-108.5 368.23,-113.51 378.65,-115.41 377.56,-108.5"/>
</g>
<!-- Node18 -->
<g id="node15" class="node">
<title>Node18</title>
<g id="a_node15"><a xlink:href="ipsec_8h.html" target="_top" xlink:title=" ">
<polygon fill="white" stroke="black" points="677,-0.5 677,-19.5 728,-19.5 728,-0.5 677,-0.5"/>
<text text-anchor="middle" x="702.5" y="-7.5" font-family="Helvetica,sans-Serif" font-size="10.00">ipsec.h</text>
</a>
</g>
</g>
<!-- Node17&#45;&gt;Node18 -->
<g id="edge14" class="edge">
<title>Node17&#45;&gt;Node18</title>
<path fill="none" stroke="midnightblue" d="M702.5,-45.8C702.5,-36.91 702.5,-26.78 702.5,-19.75"/>
<polygon fill="midnightblue" stroke="midnightblue" points="699,-46.08 702.5,-56.08 706,-46.08 699,-46.08"/>
</g>
<!-- Node21 -->
<g id="node17" class="node">
<title>Node21</title>
<g id="a_node17"><a xlink:href="packet__io_8h.html" target="_top" xlink:title=" ">
<polygon fill="white" stroke="black" points="386.5,-112.5 386.5,-131.5 458.5,-131.5 458.5,-112.5 386.5,-112.5"/>
<text text-anchor="middle" x="422.5" y="-119.5" font-family="Helvetica,sans-Serif" font-size="10.00">packet_io.h</text>
</a>
</g>
</g>
<!-- Node20&#45;&gt;Node21 -->
<g id="edge16" class="edge">
<title>Node20&#45;&gt;Node21</title>
<path fill="none" stroke="midnightblue" d="M422.5,-157.8C422.5,-148.91 422.5,-138.78 422.5,-131.75"/>
<polygon fill="midnightblue" stroke="midnightblue" points="419,-158.08 422.5,-168.08 426,-158.08 419,-158.08"/>
</g>
<!-- Node23 -->
<g id="node19" class="node">
<title>Node23</title>
<g id="a_node19"><a xlink:href="crypto__types_8h.html" target="_top" xlink:title=" ">
<polygon fill="white" stroke="red" points="658,-336.5 658,-355.5 747,-355.5 747,-336.5 658,-336.5"/>
<text text-anchor="middle" x="702.5" y="-343.5" font-family="Helvetica,sans-Serif" font-size="10.00">crypto_types.h</text>
</a>
</g>
</g>
<!-- Node22&#45;&gt;Node23 -->
<g id="edge18" class="edge">
<title>Node22&#45;&gt;Node23</title>
<path fill="none" stroke="midnightblue" d="M676.56,-383.86C683.14,-374.5 691.01,-363.33 696.34,-355.75"/>
<polygon fill="midnightblue" stroke="midnightblue" points="673.67,-381.89 670.77,-392.08 679.39,-385.92 673.67,-381.89"/>
</g>
<!-- Node23&#45;&gt;Node15 -->
<g id="edge22" class="edge">
<title>Node23&#45;&gt;Node15</title>
<path fill="none" stroke="midnightblue" d="M683.01,-330.2C648.83,-304.91 575.11,-253.31 505.5,-224 480.62,-213.52 410.94,-197.34 366.22,-187.51"/>
<polygon fill="midnightblue" stroke="midnightblue" points="681.08,-333.13 691.19,-336.31 685.27,-327.52 681.08,-333.13"/>
</g>
<!-- Node23&#45;&gt;Node17 -->
<g id="edge21" class="edge">
<title>Node23&#45;&gt;Node17</title>
<path fill="none" stroke="midnightblue" d="M702.5,-326.25C702.5,-304.36 702.5,-267.05 702.5,-235 702.5,-235 702.5,-235 702.5,-177 702.5,-139.19 702.5,-94.06 702.5,-75.56"/>
<polygon fill="midnightblue" stroke="midnightblue" points="699,-326.44 702.5,-336.44 706,-326.44 699,-326.44"/>
</g>
<!-- Node24 -->
<g id="node20" class="node">
<title>Node24</title>
<g id="a_node20"><a xlink:href="spec_2crypto_8h.html" target="_top" xlink:title=" ">
<polygon fill="white" stroke="black" points="738.5,-280.5 738.5,-299.5 794.5,-299.5 794.5,-280.5 738.5,-280.5"/>
<text text-anchor="middle" x="766.5" y="-287.5" font-family="Helvetica,sans-Serif" font-size="10.00">crypto.h</text>
</a>
</g>
</g>
<!-- Node23&#45;&gt;Node24 -->
<g id="edge19" class="edge">
<title>Node23&#45;&gt;Node24</title>
<path fill="none" stroke="midnightblue" d="M720.49,-329.82C731.96,-320.15 746.41,-307.95 756.03,-299.83"/>
<polygon fill="midnightblue" stroke="midnightblue" points="718.17,-327.2 712.78,-336.32 722.68,-332.55 718.17,-327.2"/>
</g>
<!-- Node25 -->
<g id="node21" class="node">
<title>Node25</title>
<g id="a_node21"><a xlink:href="crypto_8h.html" target="_top" xlink:title=" ">
<polygon fill="white" stroke="black" points="738.5,-224.5 738.5,-243.5 794.5,-243.5 794.5,-224.5 738.5,-224.5"/>
<text text-anchor="middle" x="766.5" y="-231.5" font-family="Helvetica,sans-Serif" font-size="10.00">crypto.h</text>
</a>
</g>
</g>
<!-- Node24&#45;&gt;Node25 -->
<g id="edge20" class="edge">
<title>Node24&#45;&gt;Node25</title>
<path fill="none" stroke="midnightblue" d="M766.5,-269.8C766.5,-260.91 766.5,-250.78 766.5,-243.75"/>
<polygon fill="midnightblue" stroke="midnightblue" points="763,-270.08 766.5,-280.08 770,-270.08 763,-270.08"/>
</g>
<!-- Node28 -->
<g id="node23" class="node">
<title>Node28</title>
<g id="a_node23"><a xlink:href="packet_8h.html" target="_top" xlink:title=" ">
<polygon fill="white" stroke="red" points="438.5,-224.5 438.5,-243.5 496.5,-243.5 496.5,-224.5 438.5,-224.5"/>
<text text-anchor="middle" x="467.5" y="-231.5" font-family="Helvetica,sans-Serif" font-size="10.00">packet.h</text>
</a>
</g>
</g>
<!-- Node27&#45;&gt;Node28 -->
<g id="edge25" class="edge">
<title>Node27&#45;&gt;Node28</title>
<path fill="none" stroke="midnightblue" d="M467.5,-269.8C467.5,-260.91 467.5,-250.78 467.5,-243.75"/>
<polygon fill="midnightblue" stroke="midnightblue" points="464,-270.08 467.5,-280.08 471,-270.08 464,-270.08"/>
</g>
<!-- Node30 -->
<g id="node25" class="node">
<title>Node30</title>
<g id="a_node25"><a xlink:href="packet__io__types_8h.html" target="_top" xlink:title=" ">
<polygon fill="white" stroke="black" points="181.5,-336.5 181.5,-355.5 285.5,-355.5 285.5,-336.5 181.5,-336.5"/>
<text text-anchor="middle" x="233.5" y="-343.5" font-family="Helvetica,sans-Serif" font-size="10.00">packet_io_types.h</text>
</a>
</g>
</g>
<!-- Node29&#45;&gt;Node30 -->
<g id="edge27" class="edge">
<title>Node29&#45;&gt;Node30</title>
<path fill="none" stroke="midnightblue" d="M156.08,-387.59C175.12,-377.61 200.56,-364.27 216.99,-355.65"/>
<polygon fill="midnightblue" stroke="midnightblue" points="154.28,-384.58 147.05,-392.32 157.53,-390.78 154.28,-384.58"/>
</g>
<!-- Node30&#45;&gt;Node13 -->
<g id="edge28" class="edge">
<title>Node30&#45;&gt;Node13</title>
<path fill="none" stroke="midnightblue" d="M259.33,-331.59C278.56,-321.61 304.24,-308.27 320.83,-299.65"/>
<polygon fill="midnightblue" stroke="midnightblue" points="257.47,-328.61 250.21,-336.32 260.7,-334.82 257.47,-328.61"/>
</g>
<!-- Node30&#45;&gt;Node15 -->
<g id="edge29" class="edge">
<title>Node30&#45;&gt;Node15</title>
<path fill="none" stroke="midnightblue" d="M209.38,-330.47C199.06,-322.83 188.12,-312.44 182.5,-300 168.61,-269.21 162.49,-251.21 182.5,-224 205.77,-192.35 251.21,-182.34 284.85,-179.48"/>
<polygon fill="midnightblue" stroke="midnightblue" points="207.54,-333.46 217.77,-336.24 211.51,-327.69 207.54,-333.46"/>
</g>
<!-- Node30&#45;&gt;Node20 -->
<g id="edge31" class="edge">
<title>Node30&#45;&gt;Node20</title>
<path fill="none" stroke="midnightblue" d="M292.45,-334.39C330.96,-326.31 376.61,-314.18 390.5,-300 421.67,-268.18 423.44,-209.73 422.91,-187.7"/>
<polygon fill="midnightblue" stroke="midnightblue" points="291.42,-331.02 282.32,-336.45 292.82,-337.88 291.42,-331.02"/>
</g>
<!-- Node30&#45;&gt;Node27 -->
<g id="edge30" class="edge">
<title>Node30&#45;&gt;Node27</title>
<path fill="none" stroke="midnightblue" d="M280.55,-334.14C327.71,-323.26 398.82,-306.85 438.36,-297.73"/>
<polygon fill="midnightblue" stroke="midnightblue" points="279.53,-330.78 270.58,-336.44 281.11,-337.61 279.53,-330.78"/>
</g>
<!-- Node31 -->
<g id="node26" class="node">
<title>Node31</title>
<g id="a_node26"><a xlink:href="spec_2traffic__mngr_8h.html" target="_top" xlink:title=" ">
<polygon fill="white" stroke="black" points="191.5,-280.5 191.5,-299.5 275.5,-299.5 275.5,-280.5 191.5,-280.5"/>
<text text-anchor="middle" x="233.5" y="-287.5" font-family="Helvetica,sans-Serif" font-size="10.00">traffic_mngr.h</text>
</a>
</g>
</g>
<!-- Node30&#45;&gt;Node31 -->
<g id="edge32" class="edge">
<title>Node30&#45;&gt;Node31</title>
<path fill="none" stroke="midnightblue" d="M233.5,-325.8C233.5,-316.91 233.5,-306.78 233.5,-299.75"/>
<polygon fill="midnightblue" stroke="midnightblue" points="230,-326.08 233.5,-336.08 237,-326.08 230,-326.08"/>
</g>
<!-- Node32 -->
<g id="node27" class="node">
<title>Node32</title>
<g id="a_node27"><a xlink:href="traffic__mngr_8h.html" target="_top" xlink:title=" ">
<polygon fill="white" stroke="black" points="191.5,-224.5 191.5,-243.5 275.5,-243.5 275.5,-224.5 191.5,-224.5"/>
<text text-anchor="middle" x="233.5" y="-231.5" font-family="Helvetica,sans-Serif" font-size="10.00">traffic_mngr.h</text>
</a>
</g>
</g>
<!-- Node31&#45;&gt;Node32 -->
<g id="edge33" class="edge">
<title>Node31&#45;&gt;Node32</title>
<path fill="none" stroke="midnightblue" d="M233.5,-269.8C233.5,-260.91 233.5,-250.78 233.5,-243.75"/>
<polygon fill="midnightblue" stroke="midnightblue" points="230,-270.08 233.5,-280.08 237,-270.08 230,-270.08"/>
</g>
<!-- Node32&#45;&gt;Node15 -->
<g id="edge34" class="edge">
<title>Node32&#45;&gt;Node15</title>
<path fill="none" stroke="midnightblue" d="M257.31,-219.18C274.42,-209.24 296.97,-196.15 311.6,-187.65"/>
<polygon fill="midnightblue" stroke="midnightblue" points="255.33,-216.28 248.44,-224.32 258.85,-222.33 255.33,-216.28"/>
</g>
<!-- Node36 -->
<g id="node29" class="node">
<title>Node36</title>
<g id="a_node29"><a xlink:href="timer_8h.html" target="_top" xlink:title=" ">
<polygon fill="white" stroke="black" points="304,-336.5 304,-355.5 355,-355.5 355,-336.5 304,-336.5"/>
<text text-anchor="middle" x="329.5" y="-343.5" font-family="Helvetica,sans-Serif" font-size="10.00">timer.h</text>
</a>
</g>
</g>
<!-- Node35&#45;&gt;Node36 -->
<g id="edge36" class="edge">
<title>Node35&#45;&gt;Node36</title>
<path fill="none" stroke="midnightblue" d="M329.5,-381.8C329.5,-372.91 329.5,-362.78 329.5,-355.75"/>
<polygon fill="midnightblue" stroke="midnightblue" points="326,-382.08 329.5,-392.08 333,-382.08 326,-382.08"/>
</g>
<!-- Node42 -->
<g id="node34" class="node">
<title>Node42</title>
<g id="a_node34"><a xlink:href="packet__io__stats_8h.html" target="_top" xlink:title=" ">
<polygon fill="white" stroke="black" points="0,-448.5 0,-467.5 101,-467.5 101,-448.5 0,-448.5"/>
<text text-anchor="middle" x="50.5" y="-455.5" font-family="Helvetica,sans-Serif" font-size="10.00">packet_io_stats.h</text>
</a>
</g>
</g>
<!-- Node41&#45;&gt;Node42 -->
<g id="edge43" class="edge">
<title>Node41&#45;&gt;Node42</title>
<path fill="none" stroke="midnightblue" d="M50.5,-493.8C50.5,-484.91 50.5,-474.78 50.5,-467.75"/>
<polygon fill="midnightblue" stroke="midnightblue" points="47,-494.08 50.5,-504.08 54,-494.08 47,-494.08"/>
</g>
<!-- Node42&#45;&gt;Node20 -->
<g id="edge44" class="edge">
<title>Node42&#45;&gt;Node20</title>
<path fill="none" stroke="midnightblue" d="M50.5,-438.25C50.5,-416.36 50.5,-379.05 50.5,-347 50.5,-347 50.5,-347 50.5,-289 50.5,-210.92 357.94,-191.54 376.5,-188 379.7,-187.39 383.02,-186.75 386.35,-186.11"/>
<polygon fill="midnightblue" stroke="midnightblue" points="47,-438.44 50.5,-448.44 54,-438.44 47,-438.44"/>
</g>
<!-- Node42&#45;&gt;Node29 -->
<g id="edge45" class="edge">
<title>Node42&#45;&gt;Node29</title>
<path fill="none" stroke="midnightblue" d="M71.8,-442.62C86.42,-432.76 105.33,-419.99 117.68,-411.65"/>
<polygon fill="midnightblue" stroke="midnightblue" points="69.68,-439.83 63.35,-448.32 73.6,-445.63 69.68,-439.83"/>
</g>
<!-- Node44 -->
<g id="node36" class="node">
<title>Node44</title>
<g id="a_node36"><a xlink:href="packet__types_8h.html" target="_top" xlink:title=" ">
<polygon fill="white" stroke="black" points="654.5,-672.5 654.5,-691.5 744.5,-691.5 744.5,-672.5 654.5,-672.5"/>
<text text-anchor="middle" x="699.5" y="-679.5" font-family="Helvetica,sans-Serif" font-size="10.00">packet_types.h</text>
</a>
</g>
</g>
<!-- Node43&#45;&gt;Node44 -->
<g id="edge48" class="edge">
<title>Node43&#45;&gt;Node44</title>
<path fill="none" stroke="midnightblue" d="M623.58,-723.59C642.26,-713.61 667.2,-700.27 683.31,-691.65"/>
<polygon fill="midnightblue" stroke="midnightblue" points="621.9,-720.52 614.73,-728.32 625.2,-726.7 621.9,-720.52"/>
</g>
<!-- Node44&#45;&gt;Node2 -->
<g id="edge49" class="edge">
<title>Node44&#45;&gt;Node2</title>
<path fill="none" stroke="midnightblue" d="M644.42,-675.02C566.8,-666.56 420.81,-650.5 296.5,-636 280.82,-634.17 263.28,-632.04 249.21,-630.31"/>
<polygon fill="midnightblue" stroke="midnightblue" points="644.14,-678.51 654.46,-676.12 644.89,-671.55 644.14,-678.51"/>
</g>
<!-- Node44&#45;&gt;Node4 -->
<g id="edge52" class="edge">
<title>Node44&#45;&gt;Node4</title>
<path fill="none" stroke="midnightblue" d="M644.1,-672.55C572.3,-661.6 448.84,-642.76 385.52,-633.1"/>
<polygon fill="midnightblue" stroke="midnightblue" points="643.89,-676.06 654.31,-674.11 644.95,-669.14 643.89,-676.06"/>
</g>
<!-- Node44&#45;&gt;Node17 -->
<g id="edge57" class="edge">
<title>Node44&#45;&gt;Node17</title>
<path fill="none" stroke="midnightblue" d="M754.71,-672.05C849.1,-662 1047.08,-670.35 1117.5,-636 1153.38,-618.5 1179.5,-610.92 1179.5,-571 1179.5,-571 1179.5,-571 1179.5,-177 1179.5,-83.52 827.22,-69.47 728.15,-67.37"/>
<polygon fill="midnightblue" stroke="midnightblue" points="754.06,-668.6 744.55,-673.26 754.89,-675.55 754.06,-668.6"/>
</g>
<!-- Node44&#45;&gt;Node20 -->
<g id="edge61" class="edge">
<title>Node44&#45;&gt;Node20</title>
<path fill="none" stroke="midnightblue" d="M754.5,-672.07C842.07,-662.51 1024.22,-669.95 1087.5,-636 1120.59,-618.24 1141.5,-608.56 1141.5,-571 1141.5,-571 1141.5,-571 1141.5,-289 1141.5,-219.15 604.45,-187.87 458.65,-180.67"/>
<polygon fill="midnightblue" stroke="midnightblue" points="754.05,-668.6 744.55,-673.29 754.9,-675.55 754.05,-668.6"/>
</g>
<!-- Node44&#45;&gt;Node22 -->
<g id="edge51" class="edge">
<title>Node44&#45;&gt;Node22</title>
<path fill="none" stroke="midnightblue" d="M699.5,-662.25C699.5,-640.36 699.5,-603.05 699.5,-571 699.5,-571 699.5,-571 699.5,-513 699.5,-473.52 678.77,-429.66 669.22,-411.54"/>
<polygon fill="midnightblue" stroke="midnightblue" points="696,-662.44 699.5,-672.44 703,-662.44 696,-662.44"/>
</g>
<!-- Node44&#45;&gt;Node24 -->
<g id="edge50" class="edge">
<title>Node44&#45;&gt;Node24</title>
<path fill="none" stroke="midnightblue" d="M720.95,-666.43C731.35,-658.46 743.32,-647.81 751.5,-636 769.03,-610.68 775.5,-601.8 775.5,-571 775.5,-571 775.5,-571 775.5,-401 775.5,-363.06 770.12,-318.01 767.68,-299.54"/>
<polygon fill="midnightblue" stroke="midnightblue" points="718.71,-663.73 712.7,-672.46 722.84,-669.38 718.71,-663.73"/>
</g>
<!-- Node44&#45;&gt;Node27 -->
<g id="edge58" class="edge">
<title>Node44&#45;&gt;Node27</title>
<path fill="none" stroke="midnightblue" d="M709.64,-663.43C720.9,-642.24 737.5,-605.19 737.5,-571 737.5,-571 737.5,-571 737.5,-457 737.5,-426.77 737.94,-414.27 717.5,-392 701.36,-374.41 552.19,-320.72 492.26,-299.63"/>
<polygon fill="midnightblue" stroke="midnightblue" points="706.55,-661.78 704.78,-672.23 712.68,-665.17 706.55,-661.78"/>
</g>
<!-- Node44&#45;&gt;Node29 -->
<g id="edge62" class="edge">
<title>Node44&#45;&gt;Node29</title>
<path fill="none" stroke="midnightblue" d="M689.83,-663.4C673.96,-636.36 639.7,-585.08 595.5,-560 513.9,-513.7 476.97,-552.24 387.5,-524 290.62,-493.42 183.24,-433.71 144.99,-411.55"/>
<polygon fill="midnightblue" stroke="midnightblue" points="686.84,-665.22 694.83,-672.18 692.92,-661.76 686.84,-665.22"/>
</g>
<!-- Node44&#45;&gt;Node38 -->
<g id="edge66" class="edge">
<title>Node44&#45;&gt;Node38</title>
<path fill="none" stroke="midnightblue" d="M754.82,-672.1C825.48,-664.71 972.8,-677.09 1008.5,-636 1070.96,-564.1 959.23,-444.7 925.62,-411.69"/>
<polygon fill="midnightblue" stroke="midnightblue" points="754.05,-668.67 744.57,-673.4 754.93,-675.61 754.05,-668.67"/>
</g>
<!-- Node44&#45;&gt;Node39 -->
<g id="edge67" class="edge">
<title>Node44&#45;&gt;Node39</title>
<path fill="none" stroke="midnightblue" d="M754.53,-672.07C836.11,-663.07 1004.4,-670.52 1060.5,-636 1090,-617.85 1103.5,-605.64 1103.5,-571 1103.5,-571 1103.5,-571 1103.5,-513 1103.5,-482.9 1098.57,-474.61 1084.5,-448 1077.03,-433.87 1064.69,-420.04 1056.33,-411.52"/>
<polygon fill="midnightblue" stroke="midnightblue" points="754.04,-668.61 744.56,-673.32 754.91,-675.55 754.04,-668.61"/>
</g>
<!-- Node45 -->
<g id="node37" class="node">
<title>Node45</title>
<g id="a_node37"><a xlink:href="spec_2event_8h.html" target="_top" xlink:title=" ">
<polygon fill="white" stroke="black" points="1022,-504.5 1022,-523.5 1075,-523.5 1075,-504.5 1022,-504.5"/>
<text text-anchor="middle" x="1048.5" y="-511.5" font-family="Helvetica,sans-Serif" font-size="10.00">event.h</text>
</a>
</g>
</g>
<!-- Node44&#45;&gt;Node45 -->
<g id="edge53" class="edge">
<title>Node44&#45;&gt;Node45</title>
<path fill="none" stroke="midnightblue" d="M754.51,-672.14C832.55,-664.33 999.33,-681.08 1041.5,-636 1070.97,-604.5 1057.73,-545.86 1051.29,-523.74"/>
<polygon fill="midnightblue" stroke="midnightblue" points="754.06,-668.67 744.56,-673.35 754.91,-675.62 754.06,-668.67"/>
</g>
<!-- Node48 -->
<g id="node39" class="node">
<title>Node48</title>
<g id="a_node39"><a xlink:href="spec_2packet__flags_8h.html" target="_top" xlink:title=" ">
<polygon fill="white" stroke="black" points="913.5,-616.5 913.5,-635.5 999.5,-635.5 999.5,-616.5 913.5,-616.5"/>
<text text-anchor="middle" x="956.5" y="-623.5" font-family="Helvetica,sans-Serif" font-size="10.00">packet_flags.h</text>
</a>
</g>
</g>
<!-- Node44&#45;&gt;Node48 -->
<g id="edge59" class="edge">
<title>Node44&#45;&gt;Node48</title>
<path fill="none" stroke="midnightblue" d="M750.21,-670.35C798.78,-660.14 871.12,-644.94 915.97,-635.52"/>
<polygon fill="midnightblue" stroke="midnightblue" points="749.29,-666.96 740.22,-672.44 750.73,-673.81 749.29,-666.96"/>
</g>
<!-- Node50 -->
<g id="node41" class="node">
<title>Node50</title>
<g id="a_node41"><a xlink:href="event__inlines_8h_source.html" target="_top" xlink:title=" ">
<polygon fill="white" stroke="black" points="804,-616.5 804,-635.5 895,-635.5 895,-616.5 804,-616.5"/>
<text text-anchor="middle" x="849.5" y="-623.5" font-family="Helvetica,sans-Serif" font-size="10.00">event_inlines.h</text>
</a>
</g>
</g>
<!-- Node44&#45;&gt;Node50 -->
<g id="edge63" class="edge">
<title>Node44&#45;&gt;Node50</title>
<path fill="none" stroke="midnightblue" d="M732.72,-669.04C760.95,-658.88 800.76,-644.55 825.84,-635.52"/>
<polygon fill="midnightblue" stroke="midnightblue" points="731.49,-665.76 723.27,-672.44 733.86,-672.35 731.49,-665.76"/>
</g>
<!-- Node51 -->
<g id="node42" class="node">
<title>Node51</title>
<g id="a_node42"><a xlink:href="event__validation__external_8h.html" target="_top" xlink:title=" ">
<polygon fill="white" stroke="black" points="480,-616.5 480,-635.5 633,-635.5 633,-616.5 480,-616.5"/>
<text text-anchor="middle" x="556.5" y="-623.5" font-family="Helvetica,sans-Serif" font-size="10.00">event_validation_external.h</text>
</a>
</g>
</g>
<!-- Node44&#45;&gt;Node51 -->
<g id="edge64" class="edge">
<title>Node44&#45;&gt;Node51</title>
<path fill="none" stroke="midnightblue" d="M667.47,-668.91C640.59,-658.75 602.86,-644.51 579.05,-635.52"/>
<polygon fill="midnightblue" stroke="midnightblue" points="666.25,-672.19 676.84,-672.44 668.72,-665.64 666.25,-672.19"/>
</g>
<!-- Node46 -->
<g id="node38" class="node">
<title>Node46</title>
<g id="a_node38"><a xlink:href="event_8h.html" target="_top" xlink:title=" ">
<polygon fill="white" stroke="red" points="1022,-448.5 1022,-467.5 1075,-467.5 1075,-448.5 1022,-448.5"/>
<text text-anchor="middle" x="1048.5" y="-455.5" font-family="Helvetica,sans-Serif" font-size="10.00">event.h</text>
</a>
</g>
</g>
<!-- Node45&#45;&gt;Node46 -->
<g id="edge54" class="edge">
<title>Node45&#45;&gt;Node46</title>
<path fill="none" stroke="midnightblue" d="M1048.5,-493.8C1048.5,-484.91 1048.5,-474.78 1048.5,-467.75"/>
<polygon fill="midnightblue" stroke="midnightblue" points="1045,-494.08 1048.5,-504.08 1052,-494.08 1045,-494.08"/>
</g>
<!-- Node46&#45;&gt;Node38 -->
<g id="edge55" class="edge">
<title>Node46&#45;&gt;Node38</title>
<path fill="none" stroke="midnightblue" d="M1018.28,-444.64C993.51,-434.5 959.1,-420.43 937.32,-411.52"/>
<polygon fill="midnightblue" stroke="midnightblue" points="1017,-447.9 1027.58,-448.44 1019.65,-441.42 1017,-447.9"/>
</g>
<!-- Node46&#45;&gt;Node39 -->
<g id="edge56" class="edge">
<title>Node46&#45;&gt;Node39</title>
<path fill="none" stroke="midnightblue" d="M1048.14,-437.8C1047.98,-428.91 1047.79,-418.78 1047.66,-411.75"/>
<polygon fill="midnightblue" stroke="midnightblue" points="1044.65,-438.15 1048.33,-448.08 1051.65,-438.02 1044.65,-438.15"/>
</g>
<!-- Node49 -->
<g id="node40" class="node">
<title>Node49</title>
<g id="a_node40"><a xlink:href="packet__flags_8h.html" target="_top" xlink:title=" ">
<polygon fill="white" stroke="black" points="913.5,-560.5 913.5,-579.5 999.5,-579.5 999.5,-560.5 913.5,-560.5"/>
<text text-anchor="middle" x="956.5" y="-567.5" font-family="Helvetica,sans-Serif" font-size="10.00">packet_flags.h</text>
</a>
</g>
</g>
<!-- Node48&#45;&gt;Node49 -->
<g id="edge60" class="edge">
<title>Node48&#45;&gt;Node49</title>
<path fill="none" stroke="midnightblue" d="M956.5,-605.8C956.5,-596.91 956.5,-586.78 956.5,-579.75"/>
<polygon fill="midnightblue" stroke="midnightblue" points="953,-606.08 956.5,-616.08 960,-606.08 953,-606.08"/>
</g>
<!-- Node52 -->
<g id="node43" class="node">
<title>Node52</title>
<g id="a_node43"><a xlink:href="queue__inlines_8h_source.html" target="_top" xlink:title=" ">
<polygon fill="white" stroke="black" points="494,-560.5 494,-579.5 587,-579.5 587,-560.5 494,-560.5"/>
<text text-anchor="middle" x="540.5" y="-567.5" font-family="Helvetica,sans-Serif" font-size="10.00">queue_inlines.h</text>
</a>
</g>
</g>
<!-- Node51&#45;&gt;Node52 -->
<g id="edge65" class="edge">
<title>Node51&#45;&gt;Node52</title>
<path fill="none" stroke="midnightblue" d="M550.99,-606.4C548.31,-597.36 545.22,-586.94 543.09,-579.75"/>
<polygon fill="midnightblue" stroke="midnightblue" points="547.66,-607.49 553.86,-616.08 554.37,-605.5 547.66,-607.49"/>
</g>
<!-- Node54 -->
<g id="node45" class="node">
<title>Node54</title>
<g id="a_node45"><a xlink:href="queue_8h.html" target="_top" xlink:title=" ">
<polygon fill="white" stroke="black" points="762.5,-672.5 762.5,-691.5 818.5,-691.5 818.5,-672.5 762.5,-672.5"/>
<text text-anchor="middle" x="790.5" y="-679.5" font-family="Helvetica,sans-Serif" font-size="10.00">queue.h</text>
</a>
</g>
</g>
<!-- Node53&#45;&gt;Node54 -->
<g id="edge69" class="edge">
<title>Node53&#45;&gt;Node54</title>
<path fill="none" stroke="midnightblue" d="M734.4,-722.34C748.41,-712.52 766.38,-699.91 778.16,-691.65"/>
<polygon fill="midnightblue" stroke="midnightblue" points="732.05,-719.72 725.87,-728.32 736.07,-725.45 732.05,-719.72"/>
</g>
<!-- Node56 -->
<g id="node47" class="node">
<title>Node56</title>
<g id="a_node47"><a xlink:href="schedule_8h.html" target="_top" xlink:title=" ">
<polygon fill="white" stroke="black" points="837,-672.5 837,-691.5 906,-691.5 906,-672.5 837,-672.5"/>
<text text-anchor="middle" x="871.5" y="-679.5" font-family="Helvetica,sans-Serif" font-size="10.00">schedule.h</text>
</a>
</g>
</g>
<!-- Node55&#45;&gt;Node56 -->
<g id="edge71" class="edge">
<title>Node55&#45;&gt;Node56</title>
<path fill="none" stroke="midnightblue" d="M824.77,-721.82C836.42,-712.15 851.1,-699.95 860.87,-691.83"/>
<polygon fill="midnightblue" stroke="midnightblue" points="822.4,-719.24 816.94,-728.32 826.87,-724.63 822.4,-719.24"/>
</g>
<!-- Node57&#45;&gt;Node52 -->
<g id="edge75" class="edge">
<title>Node57&#45;&gt;Node52</title>
<path fill="none" stroke="midnightblue" d="M485.12,-665.01C473.55,-651.7 461.57,-632.36 470.5,-616 480.12,-598.37 499.93,-586.62 516.03,-579.56"/>
<polygon fill="midnightblue" stroke="midnightblue" points="482.68,-667.53 492.07,-672.44 487.79,-662.75 482.68,-667.53"/>
</g>
<!-- Node58&#45;&gt;Node59 -->
<g id="edge77" class="edge">
<title>Node58&#45;&gt;Node59</title>
<path fill="none" stroke="midnightblue" d="M974.9,-718.1C975.56,-709.14 976.33,-698.86 976.85,-691.75"/>
<polygon fill="midnightblue" stroke="midnightblue" points="971.41,-717.85 974.16,-728.08 978.39,-718.37 971.41,-717.85"/>
</g>
</g>
</svg>
