<?xml version="1.0" encoding="UTF-8" standalone="no"?>
<!DOCTYPE svg PUBLIC "-//W3C//DTD SVG 1.1//EN"
 "http://www.w3.org/Graphics/SVG/1.1/DTD/svg11.dtd">
<!-- Generated by graphviz version 2.43.0 (0)
 -->
<!-- Title: schedule_types.h Pages: 1 -->
<svg width="1432pt" height="868pt"
 viewBox="0.00 0.00 1431.50 868.00" xmlns="http://www.w3.org/2000/svg" xmlns:xlink="http://www.w3.org/1999/xlink">
<g id="graph0" class="graph" transform="scale(1 1) rotate(0) translate(4 864)">
<title>schedule_types.h</title>
<polygon fill="white" stroke="transparent" points="-4,4 -4,-864 1427.5,-864 1427.5,4 -4,4"/>
<!-- Node1 -->
<g id="node1" class="node">
<title>Node1</title>
<g id="a_node1"><a xlink:title=" ">
<polygon fill="#bfbfbf" stroke="black" points="1218.5,-840.5 1218.5,-859.5 1319.5,-859.5 1319.5,-840.5 1218.5,-840.5"/>
<text text-anchor="middle" x="1269" y="-847.5" font-family="Helvetica,sans-Serif" font-size="10.00">schedule_types.h</text>
</a>
</g>
</g>
<!-- Node2 -->
<g id="node2" class="node">
<title>Node2</title>
<g id="a_node2"><a xlink:href="spec_2queue__types_8h.html" target="_top" xlink:title=" ">
<polygon fill="white" stroke="black" points="1076,-784.5 1076,-803.5 1164,-803.5 1164,-784.5 1076,-784.5"/>
<text text-anchor="middle" x="1120" y="-791.5" font-family="Helvetica,sans-Serif" font-size="10.00">queue_types.h</text>
</a>
</g>
</g>
<!-- Node1&#45;&gt;Node2 -->
<g id="edge1" class="edge">
<title>Node1&#45;&gt;Node2</title>
<path fill="none" stroke="midnightblue" d="M1235.63,-836.91C1207.62,-826.75 1168.3,-812.51 1143.5,-803.52"/>
<polygon fill="midnightblue" stroke="midnightblue" points="1234.8,-840.33 1245.39,-840.44 1237.18,-833.75 1234.8,-840.33"/>
</g>
<!-- Node57 -->
<g id="node46" class="node">
<title>Node57</title>
<g id="a_node46"><a xlink:href="spec_2schedule_8h.html" target="_top" xlink:title=" ">
<polygon fill="white" stroke="black" points="1354.5,-672.5 1354.5,-691.5 1423.5,-691.5 1423.5,-672.5 1354.5,-672.5"/>
<text text-anchor="middle" x="1389" y="-679.5" font-family="Helvetica,sans-Serif" font-size="10.00">schedule.h</text>
</a>
</g>
</g>
<!-- Node1&#45;&gt;Node57 -->
<g id="edge79" class="edge">
<title>Node1&#45;&gt;Node57</title>
<path fill="none" stroke="midnightblue" d="M1281.46,-831.76C1306.89,-796.59 1363.93,-717.68 1382.81,-691.57"/>
<polygon fill="midnightblue" stroke="midnightblue" points="1278.47,-829.92 1275.45,-840.08 1284.15,-834.02 1278.47,-829.92"/>
</g>
<!-- Node60 -->
<g id="node49" class="node">
<title>Node60</title>
<g id="a_node49"><a xlink:href="schedule__inline__types_8h_source.html" target="_top" xlink:title=" ">
<polygon fill="white" stroke="black" points="1202,-672.5 1202,-691.5 1336,-691.5 1336,-672.5 1202,-672.5"/>
<text text-anchor="middle" x="1269" y="-679.5" font-family="Helvetica,sans-Serif" font-size="10.00">schedule_inline_types.h</text>
</a>
</g>
</g>
<!-- Node1&#45;&gt;Node60 -->
<g id="edge80" class="edge">
<title>Node1&#45;&gt;Node60</title>
<path fill="none" stroke="midnightblue" d="M1269,-829.93C1269,-793.92 1269,-717.23 1269,-691.57"/>
<polygon fill="midnightblue" stroke="midnightblue" points="1265.5,-830.08 1269,-840.08 1272.5,-830.08 1265.5,-830.08"/>
</g>
<!-- Node3 -->
<g id="node3" class="node">
<title>Node3</title>
<g id="a_node3"><a xlink:href="queue__types_8h.html" target="_top" xlink:title=" ">
<polygon fill="white" stroke="black" points="970,-728.5 970,-747.5 1058,-747.5 1058,-728.5 970,-728.5"/>
<text text-anchor="middle" x="1014" y="-735.5" font-family="Helvetica,sans-Serif" font-size="10.00">queue_types.h</text>
</a>
</g>
</g>
<!-- Node2&#45;&gt;Node3 -->
<g id="edge2" class="edge">
<title>Node2&#45;&gt;Node3</title>
<path fill="none" stroke="midnightblue" d="M1093.94,-779.73C1074.32,-769.73 1047.97,-756.31 1030.99,-747.65"/>
<polygon fill="midnightblue" stroke="midnightblue" points="1092.47,-782.9 1102.97,-784.32 1095.65,-776.67 1092.47,-782.9"/>
</g>
<!-- Node4 -->
<g id="node4" class="node">
<title>Node4</title>
<g id="a_node4"><a xlink:href="spec_2comp_8h.html" target="_top" xlink:title=" ">
<polygon fill="white" stroke="black" points="1126.5,-560.5 1126.5,-579.5 1179.5,-579.5 1179.5,-560.5 1126.5,-560.5"/>
<text text-anchor="middle" x="1153" y="-567.5" font-family="Helvetica,sans-Serif" font-size="10.00">comp.h</text>
</a>
</g>
</g>
<!-- Node3&#45;&gt;Node4 -->
<g id="edge3" class="edge">
<title>Node3&#45;&gt;Node4</title>
<path fill="none" stroke="midnightblue" d="M1058.61,-725.16C1077.3,-718.21 1097.91,-707.63 1112,-692 1142.29,-658.39 1150.34,-601.51 1152.36,-579.79"/>
<polygon fill="midnightblue" stroke="midnightblue" points="1057.36,-721.89 1049.06,-728.48 1059.65,-728.51 1057.36,-721.89"/>
</g>
<!-- Node6 -->
<g id="node6" class="node">
<title>Node6</title>
<g id="a_node6"><a xlink:href="spec_2dma__types_8h.html" target="_top" xlink:title=" ">
<polygon fill="white" stroke="black" points="990,-560.5 990,-579.5 1070,-579.5 1070,-560.5 990,-560.5"/>
<text text-anchor="middle" x="1030" y="-567.5" font-family="Helvetica,sans-Serif" font-size="10.00">dma_types.h</text>
</a>
</g>
</g>
<!-- Node3&#45;&gt;Node6 -->
<g id="edge5" class="edge">
<title>Node3&#45;&gt;Node6</title>
<path fill="none" stroke="midnightblue" d="M1008.94,-718.43C1003.23,-694.39 995.83,-651.38 1005,-616 1008.54,-602.33 1017.23,-588.39 1023.37,-579.73"/>
<polygon fill="midnightblue" stroke="midnightblue" points="1005.6,-719.49 1011.46,-728.32 1012.39,-717.77 1005.6,-719.49"/>
</g>
<!-- Node22 -->
<g id="node17" class="node">
<title>Node22</title>
<g id="a_node17"><a xlink:href="spec_2packet__io_8h.html" target="_top" xlink:title=" ">
<polygon fill="white" stroke="black" points="93,-112.5 93,-131.5 165,-131.5 165,-112.5 93,-112.5"/>
<text text-anchor="middle" x="129" y="-119.5" font-family="Helvetica,sans-Serif" font-size="10.00">packet_io.h</text>
</a>
</g>
</g>
<!-- Node3&#45;&gt;Node22 -->
<g id="edge42" class="edge">
<title>Node3&#45;&gt;Node22</title>
<path fill="none" stroke="midnightblue" d="M959.87,-737.37C791.72,-738.05 280.11,-736.32 121,-692 62.19,-675.62 0,-688.05 0,-627 0,-627 0,-627 0,-233 0,-179.14 65.92,-146.07 103.51,-131.59"/>
<polygon fill="midnightblue" stroke="midnightblue" points="959.99,-740.87 969.98,-737.33 959.96,-733.87 959.99,-740.87"/>
</g>
<!-- Node31 -->
<g id="node25" class="node">
<title>Node31</title>
<g id="a_node25"><a xlink:href="spec_2packet__io__types_8h.html" target="_top" xlink:title=" ">
<polygon fill="white" stroke="black" points="157,-336.5 157,-355.5 261,-355.5 261,-336.5 157,-336.5"/>
<text text-anchor="middle" x="209" y="-343.5" font-family="Helvetica,sans-Serif" font-size="10.00">packet_io_types.h</text>
</a>
</g>
</g>
<!-- Node3&#45;&gt;Node31 -->
<g id="edge47" class="edge">
<title>Node3&#45;&gt;Node31</title>
<path fill="none" stroke="midnightblue" d="M959.73,-733.36C888.47,-727.88 759.77,-715.54 652,-692 490.78,-656.79 424.25,-686.27 298,-580 225.12,-518.65 211.77,-390.67 209.46,-355.89"/>
<polygon fill="midnightblue" stroke="midnightblue" points="959.59,-736.86 969.82,-734.12 960.11,-729.88 959.59,-736.86"/>
</g>
<!-- Node37 -->
<g id="node29" class="node">
<title>Node37</title>
<g id="a_node29"><a xlink:href="spec_2timer_8h.html" target="_top" xlink:title=" ">
<polygon fill="white" stroke="black" points="802.5,-336.5 802.5,-355.5 853.5,-355.5 853.5,-336.5 802.5,-336.5"/>
<text text-anchor="middle" x="828" y="-343.5" font-family="Helvetica,sans-Serif" font-size="10.00">timer.h</text>
</a>
</g>
</g>
<!-- Node3&#45;&gt;Node37 -->
<g id="edge72" class="edge">
<title>Node3&#45;&gt;Node37</title>
<path fill="none" stroke="midnightblue" d="M1006.7,-718.74C992.38,-681.21 962,-592.46 962,-515 962,-515 962,-515 962,-457 962,-401.47 892.4,-368.85 853.52,-354.95"/>
<polygon fill="midnightblue" stroke="midnightblue" points="1003.53,-720.24 1010.43,-728.29 1010.05,-717.7 1003.53,-720.24"/>
</g>
<!-- Node14 -->
<g id="node31" class="node">
<title>Node14</title>
<g id="a_node31"><a xlink:href="dma__inlines_8h_source.html" target="_top" xlink:title=" ">
<polygon fill="white" stroke="black" points="995.5,-336.5 995.5,-355.5 1080.5,-355.5 1080.5,-336.5 995.5,-336.5"/>
<text text-anchor="middle" x="1038" y="-343.5" font-family="Helvetica,sans-Serif" font-size="10.00">dma_inlines.h</text>
</a>
</g>
</g>
<!-- Node3&#45;&gt;Node14 -->
<g id="edge73" class="edge">
<title>Node3&#45;&gt;Node14</title>
<path fill="none" stroke="midnightblue" d="M1041.95,-723.38C1054.9,-715.77 1069.5,-705.17 1079,-692 1096.61,-667.59 1098,-657.1 1098,-627 1098,-627 1098,-627 1098,-457 1098,-414.58 1063.19,-372.96 1046.6,-355.53"/>
<polygon fill="midnightblue" stroke="midnightblue" points="1039.96,-720.47 1032.9,-728.37 1043.34,-726.6 1039.96,-720.47"/>
</g>
<!-- Node43 -->
<g id="node34" class="node">
<title>Node43</title>
<g id="a_node34"><a xlink:href="spec_2packet__io__stats_8h.html" target="_top" xlink:title=" ">
<polygon fill="white" stroke="black" points="28.5,-504.5 28.5,-523.5 129.5,-523.5 129.5,-504.5 28.5,-504.5"/>
<text text-anchor="middle" x="79" y="-511.5" font-family="Helvetica,sans-Serif" font-size="10.00">packet_io_stats.h</text>
</a>
</g>
</g>
<!-- Node3&#45;&gt;Node43 -->
<g id="edge43" class="edge">
<title>Node3&#45;&gt;Node43</title>
<path fill="none" stroke="midnightblue" d="M959.74,-735.83C774.54,-731.63 176.89,-716.25 144,-692 87.09,-650.04 79.94,-552.88 79.1,-523.54"/>
<polygon fill="midnightblue" stroke="midnightblue" points="959.72,-739.33 969.8,-736.06 959.88,-732.33 959.72,-739.33"/>
</g>
<!-- Node45 -->
<g id="node36" class="node">
<title>Node45</title>
<g id="a_node36"><a xlink:href="spec_2packet__types_8h.html" target="_top" xlink:title=" ">
<polygon fill="white" stroke="black" points="661,-672.5 661,-691.5 751,-691.5 751,-672.5 661,-672.5"/>
<text text-anchor="middle" x="706" y="-679.5" font-family="Helvetica,sans-Serif" font-size="10.00">packet_types.h</text>
</a>
</g>
</g>
<!-- Node3&#45;&gt;Node45 -->
<g id="edge48" class="edge">
<title>Node3&#45;&gt;Node45</title>
<path fill="none" stroke="midnightblue" d="M959.94,-727.52C900.63,-717.12 806.51,-700.62 751.05,-690.9"/>
<polygon fill="midnightblue" stroke="midnightblue" points="959.42,-730.98 969.87,-729.26 960.63,-724.09 959.42,-730.98"/>
</g>
<!-- Node55 -->
<g id="node44" class="node">
<title>Node55</title>
<g id="a_node44"><a xlink:href="spec_2queue_8h.html" target="_top" xlink:title=" ">
<polygon fill="white" stroke="black" points="1014,-672.5 1014,-691.5 1070,-691.5 1070,-672.5 1014,-672.5"/>
<text text-anchor="middle" x="1042" y="-679.5" font-family="Helvetica,sans-Serif" font-size="10.00">queue.h</text>
</a>
</g>
</g>
<!-- Node3&#45;&gt;Node55 -->
<g id="edge68" class="edge">
<title>Node3&#45;&gt;Node55</title>
<path fill="none" stroke="midnightblue" d="M1023.34,-718.98C1028.09,-709.82 1033.66,-699.09 1037.46,-691.75"/>
<polygon fill="midnightblue" stroke="midnightblue" points="1020.12,-717.59 1018.62,-728.08 1026.33,-720.82 1020.12,-717.59"/>
</g>
<!-- Node3&#45;&gt;Node57 -->
<g id="edge70" class="edge">
<title>Node3&#45;&gt;Node57</title>
<path fill="none" stroke="midnightblue" d="M1068.16,-730.76C1133.85,-722.93 1247.86,-708.52 1345,-692 1348.07,-691.48 1351.26,-690.9 1354.45,-690.29"/>
<polygon fill="midnightblue" stroke="midnightblue" points="1067.56,-727.31 1058.05,-731.96 1068.39,-734.26 1067.56,-727.31"/>
</g>
<!-- Node59 -->
<g id="node48" class="node">
<title>Node59</title>
<g id="a_node48"><a xlink:href="queue__inline__types_8h_source.html" target="_top" xlink:title=" ">
<polygon fill="white" stroke="black" points="800,-616.5 800,-635.5 920,-635.5 920,-616.5 800,-616.5"/>
<text text-anchor="middle" x="860" y="-623.5" font-family="Helvetica,sans-Serif" font-size="10.00">queue_inline_types.h</text>
</a>
</g>
</g>
<!-- Node3&#45;&gt;Node59 -->
<g id="edge74" class="edge">
<title>Node3&#45;&gt;Node59</title>
<path fill="none" stroke="midnightblue" d="M986.92,-723.58C971.01,-715.25 950.8,-703.9 934,-692 908.61,-674 881.92,-648.74 868.61,-635.64"/>
<polygon fill="midnightblue" stroke="midnightblue" points="985.71,-726.89 996.2,-728.35 988.91,-720.66 985.71,-726.89"/>
</g>
<!-- Node3&#45;&gt;Node60 -->
<g id="edge76" class="edge">
<title>Node3&#45;&gt;Node60</title>
<path fill="none" stroke="midnightblue" d="M1064.31,-726.35C1112.5,-716.14 1184.28,-700.94 1228.78,-691.52"/>
<polygon fill="midnightblue" stroke="midnightblue" points="1063.46,-722.95 1054.41,-728.44 1064.91,-729.8 1063.46,-722.95"/>
</g>
<!-- Node61 -->
<g id="node50" class="node">
<title>Node61</title>
<g id="a_node50"><a xlink:href="schedule__inlines_8h_source.html" target="_top" xlink:title=" ">
<polygon fill="white" stroke="black" points="1189.5,-616.5 1189.5,-635.5 1296.5,-635.5 1296.5,-616.5 1189.5,-616.5"/>
<text text-anchor="middle" x="1243" y="-623.5" font-family="Helvetica,sans-Serif" font-size="10.00">schedule_inlines.h</text>
</a>
</g>
</g>
<!-- Node3&#45;&gt;Node61 -->
<g id="edge78" class="edge">
<title>Node3&#45;&gt;Node61</title>
<path fill="none" stroke="midnightblue" d="M1058.55,-725.8C1085.75,-718.11 1120.79,-706.64 1150,-692 1182.4,-675.75 1216.27,-649.28 1232.76,-635.68"/>
<polygon fill="midnightblue" stroke="midnightblue" points="1057.62,-722.43 1048.91,-728.46 1059.48,-729.17 1057.62,-722.43"/>
</g>
<!-- Node5 -->
<g id="node5" class="node">
<title>Node5</title>
<g id="a_node5"><a xlink:href="comp_8h.html" target="_top" xlink:title=" ">
<polygon fill="white" stroke="black" points="1126.5,-504.5 1126.5,-523.5 1179.5,-523.5 1179.5,-504.5 1126.5,-504.5"/>
<text text-anchor="middle" x="1153" y="-511.5" font-family="Helvetica,sans-Serif" font-size="10.00">comp.h</text>
</a>
</g>
</g>
<!-- Node4&#45;&gt;Node5 -->
<g id="edge4" class="edge">
<title>Node4&#45;&gt;Node5</title>
<path fill="none" stroke="midnightblue" d="M1153,-549.8C1153,-540.91 1153,-530.78 1153,-523.75"/>
<polygon fill="midnightblue" stroke="midnightblue" points="1149.5,-550.08 1153,-560.08 1156.5,-550.08 1149.5,-550.08"/>
</g>
<!-- Node7 -->
<g id="node7" class="node">
<title>Node7</title>
<g id="a_node7"><a xlink:href="dma__types_8h.html" target="_top" xlink:title=" ">
<polygon fill="white" stroke="black" points="990,-504.5 990,-523.5 1070,-523.5 1070,-504.5 990,-504.5"/>
<text text-anchor="middle" x="1030" y="-511.5" font-family="Helvetica,sans-Serif" font-size="10.00">dma_types.h</text>
</a>
</g>
</g>
<!-- Node6&#45;&gt;Node7 -->
<g id="edge6" class="edge">
<title>Node6&#45;&gt;Node7</title>
<path fill="none" stroke="midnightblue" d="M1030,-549.8C1030,-540.91 1030,-530.78 1030,-523.75"/>
<polygon fill="midnightblue" stroke="midnightblue" points="1026.5,-550.08 1030,-560.08 1033.5,-550.08 1026.5,-550.08"/>
</g>
<!-- Node8 -->
<g id="node8" class="node">
<title>Node8</title>
<g id="a_node8"><a xlink:href="spec_2dma_8h.html" target="_top" xlink:title=" ">
<polygon fill="white" stroke="black" points="920.5,-336.5 920.5,-355.5 967.5,-355.5 967.5,-336.5 920.5,-336.5"/>
<text text-anchor="middle" x="944" y="-343.5" font-family="Helvetica,sans-Serif" font-size="10.00">dma.h</text>
</a>
</g>
</g>
<!-- Node7&#45;&gt;Node8 -->
<g id="edge7" class="edge">
<title>Node7&#45;&gt;Node8</title>
<path fill="none" stroke="midnightblue" d="M1023.09,-494.53C1013.73,-470.32 995.89,-426.82 976,-392 968.39,-378.68 957.79,-364.43 950.92,-355.62"/>
<polygon fill="midnightblue" stroke="midnightblue" points="1019.94,-496.1 1026.77,-504.2 1026.48,-493.61 1019.94,-496.1"/>
</g>
<!-- Node10 -->
<g id="node10" class="node">
<title>Node10</title>
<g id="a_node10"><a xlink:href="spec_2pool__types_8h.html" target="_top" xlink:title=" ">
<polygon fill="white" stroke="black" points="830.5,-448.5 830.5,-467.5 909.5,-467.5 909.5,-448.5 830.5,-448.5"/>
<text text-anchor="middle" x="870" y="-455.5" font-family="Helvetica,sans-Serif" font-size="10.00">pool_types.h</text>
</a>
</g>
</g>
<!-- Node7&#45;&gt;Node10 -->
<g id="edge9" class="edge">
<title>Node7&#45;&gt;Node10</title>
<path fill="none" stroke="midnightblue" d="M994.95,-501.17C964.83,-491 922.1,-476.59 895.23,-467.52"/>
<polygon fill="midnightblue" stroke="midnightblue" points="994.05,-504.56 1004.65,-504.44 996.29,-497.93 994.05,-504.56"/>
</g>
<!-- Node7&#45;&gt;Node14 -->
<g id="edge41" class="edge">
<title>Node7&#45;&gt;Node14</title>
<path fill="none" stroke="midnightblue" d="M1030.92,-493.93C1032.65,-457.92 1036.35,-381.23 1037.59,-355.57"/>
<polygon fill="midnightblue" stroke="midnightblue" points="1027.42,-493.92 1030.43,-504.08 1034.41,-494.26 1027.42,-493.92"/>
</g>
<!-- Node9 -->
<g id="node9" class="node">
<title>Node9</title>
<g id="a_node9"><a xlink:href="dma_8h.html" target="_top" xlink:title=" ">
<polygon fill="white" stroke="black" points="920.5,-280.5 920.5,-299.5 967.5,-299.5 967.5,-280.5 920.5,-280.5"/>
<text text-anchor="middle" x="944" y="-287.5" font-family="Helvetica,sans-Serif" font-size="10.00">dma.h</text>
</a>
</g>
</g>
<!-- Node8&#45;&gt;Node9 -->
<g id="edge8" class="edge">
<title>Node8&#45;&gt;Node9</title>
<path fill="none" stroke="midnightblue" d="M944,-325.8C944,-316.91 944,-306.78 944,-299.75"/>
<polygon fill="midnightblue" stroke="midnightblue" points="940.5,-326.08 944,-336.08 947.5,-326.08 940.5,-326.08"/>
</g>
<!-- Node11 -->
<g id="node11" class="node">
<title>Node11</title>
<g id="a_node11"><a xlink:href="pool__types_8h.html" target="_top" xlink:title=" ">
<polygon fill="white" stroke="red" points="666.5,-392.5 666.5,-411.5 745.5,-411.5 745.5,-392.5 666.5,-392.5"/>
<text text-anchor="middle" x="706" y="-399.5" font-family="Helvetica,sans-Serif" font-size="10.00">pool_types.h</text>
</a>
</g>
</g>
<!-- Node10&#45;&gt;Node11 -->
<g id="edge10" class="edge">
<title>Node10&#45;&gt;Node11</title>
<path fill="none" stroke="midnightblue" d="M834.48,-445.3C803.58,-435.13 759.53,-420.62 731.86,-411.52"/>
<polygon fill="midnightblue" stroke="midnightblue" points="833.42,-448.64 844.01,-448.44 835.61,-441.99 833.42,-448.64"/>
</g>
<!-- Node11&#45;&gt;Node8 -->
<g id="edge24" class="edge">
<title>Node11&#45;&gt;Node8</title>
<path fill="none" stroke="midnightblue" d="M753.72,-390.17C804.1,-378.74 881.48,-361.18 920.2,-352.4"/>
<polygon fill="midnightblue" stroke="midnightblue" points="752.69,-386.82 743.71,-392.44 754.24,-393.64 752.69,-386.82"/>
</g>
<!-- Node15 -->
<g id="node12" class="node">
<title>Node15</title>
<g id="a_node12"><a xlink:href="spec_2classification_8h.html" target="_top" xlink:title=" ">
<polygon fill="white" stroke="black" points="291.5,-224.5 291.5,-243.5 380.5,-243.5 380.5,-224.5 291.5,-224.5"/>
<text text-anchor="middle" x="336" y="-231.5" font-family="Helvetica,sans-Serif" font-size="10.00">classification.h</text>
</a>
</g>
</g>
<!-- Node11&#45;&gt;Node15 -->
<g id="edge11" class="edge">
<title>Node11&#45;&gt;Node15</title>
<path fill="none" stroke="midnightblue" d="M674.92,-388.66C640.29,-375.07 582.51,-352.93 532,-336 478.8,-318.17 460.19,-326.98 411,-300 383.2,-284.75 356.62,-257.85 343.86,-243.91"/>
<polygon fill="midnightblue" stroke="midnightblue" points="673.88,-392.01 684.47,-392.41 676.44,-385.5 673.88,-392.01"/>
</g>
<!-- Node24 -->
<g id="node19" class="node">
<title>Node24</title>
<g id="a_node19"><a xlink:href="spec_2crypto__types_8h.html" target="_top" xlink:title=" ">
<polygon fill="white" stroke="black" points="618.5,-336.5 618.5,-355.5 707.5,-355.5 707.5,-336.5 618.5,-336.5"/>
<text text-anchor="middle" x="663" y="-343.5" font-family="Helvetica,sans-Serif" font-size="10.00">crypto_types.h</text>
</a>
</g>
</g>
<!-- Node11&#45;&gt;Node24 -->
<g id="edge18" class="edge">
<title>Node11&#45;&gt;Node24</title>
<path fill="none" stroke="midnightblue" d="M692.58,-384.14C685.09,-374.74 676.06,-363.4 669.97,-355.75"/>
<polygon fill="midnightblue" stroke="midnightblue" points="689.93,-386.44 698.9,-392.08 695.41,-382.08 689.93,-386.44"/>
</g>
<!-- Node29 -->
<g id="node23" class="node">
<title>Node29</title>
<g id="a_node23"><a xlink:href="spec_2packet_8h.html" target="_top" xlink:title=" ">
<polygon fill="white" stroke="black" points="688,-224.5 688,-243.5 746,-243.5 746,-224.5 688,-224.5"/>
<text text-anchor="middle" x="717" y="-231.5" font-family="Helvetica,sans-Serif" font-size="10.00">packet.h</text>
</a>
</g>
</g>
<!-- Node11&#45;&gt;Node29 -->
<g id="edge25" class="edge">
<title>Node11&#45;&gt;Node29</title>
<path fill="none" stroke="midnightblue" d="M711,-382.62C712.97,-374.52 714.99,-364.86 716,-356 720.78,-314.05 718.67,-263.38 717.54,-243.55"/>
<polygon fill="midnightblue" stroke="midnightblue" points="707.57,-381.91 708.46,-392.46 714.35,-383.66 707.57,-381.91"/>
</g>
<!-- Node11&#45;&gt;Node31 -->
<g id="edge27" class="edge">
<title>Node11&#45;&gt;Node31</title>
<path fill="none" stroke="midnightblue" d="M655.84,-396.54C574.65,-389.16 409.46,-373.48 270,-356 267.13,-355.64 264.19,-355.26 261.22,-354.86"/>
<polygon fill="midnightblue" stroke="midnightblue" points="655.98,-400.07 666.26,-397.48 656.61,-393.1 655.98,-400.07"/>
</g>
<!-- Node11&#45;&gt;Node37 -->
<g id="edge36" class="edge">
<title>Node11&#45;&gt;Node37</title>
<path fill="none" stroke="midnightblue" d="M734.54,-388.37C757.39,-378.26 788.81,-364.35 808.76,-355.52"/>
<polygon fill="midnightblue" stroke="midnightblue" points="733.06,-385.2 725.33,-392.44 735.89,-391.6 733.06,-385.2"/>
</g>
<!-- Node11&#45;&gt;Node14 -->
<g id="edge38" class="edge">
<title>Node11&#45;&gt;Node14</title>
<path fill="none" stroke="midnightblue" d="M755.74,-392.91C820.87,-382.32 933.95,-363.92 995.36,-353.94"/>
<polygon fill="midnightblue" stroke="midnightblue" points="755.03,-389.48 745.72,-394.54 756.15,-396.39 755.03,-389.48"/>
</g>
<!-- Node40 -->
<g id="node32" class="node">
<title>Node40</title>
<g id="a_node32"><a xlink:href="packet__inlines_8h.html" target="_top" xlink:title=" ">
<polygon fill="white" stroke="black" points="279.5,-336.5 279.5,-355.5 374.5,-355.5 374.5,-336.5 279.5,-336.5"/>
<text text-anchor="middle" x="327" y="-343.5" font-family="Helvetica,sans-Serif" font-size="10.00">packet_inlines.h</text>
</a>
</g>
</g>
<!-- Node11&#45;&gt;Node40 -->
<g id="edge39" class="edge">
<title>Node11&#45;&gt;Node40</title>
<path fill="none" stroke="midnightblue" d="M656.05,-394.37C592.54,-385.87 479.53,-370.48 383,-356 380.27,-355.59 377.47,-355.16 374.65,-354.73"/>
<polygon fill="midnightblue" stroke="midnightblue" points="655.81,-397.87 666.18,-395.73 656.73,-390.93 655.81,-397.87"/>
</g>
<!-- Node41 -->
<g id="node33" class="node">
<title>Node41</title>
<g id="a_node33"><a xlink:href="packet__vector__inlines_8h.html" target="_top" xlink:title=" ">
<polygon fill="white" stroke="black" points="392.5,-336.5 392.5,-355.5 523.5,-355.5 523.5,-336.5 392.5,-336.5"/>
<text text-anchor="middle" x="458" y="-343.5" font-family="Helvetica,sans-Serif" font-size="10.00">packet_vector_inlines.h</text>
</a>
</g>
</g>
<!-- Node11&#45;&gt;Node41 -->
<g id="edge40" class="edge">
<title>Node11&#45;&gt;Node41</title>
<path fill="none" stroke="midnightblue" d="M656.77,-390.28C609.91,-380.08 540.3,-364.92 497.11,-355.52"/>
<polygon fill="midnightblue" stroke="midnightblue" points="656.19,-393.74 666.7,-392.44 657.68,-386.9 656.19,-393.74"/>
</g>
<!-- Node16 -->
<g id="node13" class="node">
<title>Node16</title>
<g id="a_node13"><a xlink:href="classification_8h.html" target="_top" xlink:title=" ">
<polygon fill="white" stroke="black" points="291.5,-168.5 291.5,-187.5 380.5,-187.5 380.5,-168.5 291.5,-168.5"/>
<text text-anchor="middle" x="336" y="-175.5" font-family="Helvetica,sans-Serif" font-size="10.00">classification.h</text>
</a>
</g>
</g>
<!-- Node15&#45;&gt;Node16 -->
<g id="edge12" class="edge">
<title>Node15&#45;&gt;Node16</title>
<path fill="none" stroke="midnightblue" d="M336,-213.8C336,-204.91 336,-194.78 336,-187.75"/>
<polygon fill="midnightblue" stroke="midnightblue" points="332.5,-214.08 336,-224.08 339.5,-214.08 332.5,-214.08"/>
</g>
<!-- Node17 -->
<g id="node14" class="node">
<title>Node17</title>
<g id="a_node14"><a xlink:href="spec_2ipsec__types_8h.html" target="_top" xlink:title=" ">
<polygon fill="white" stroke="black" points="468.5,-112.5 468.5,-131.5 551.5,-131.5 551.5,-112.5 468.5,-112.5"/>
<text text-anchor="middle" x="510" y="-119.5" font-family="Helvetica,sans-Serif" font-size="10.00">ipsec_types.h</text>
</a>
</g>
</g>
<!-- Node16&#45;&gt;Node17 -->
<g id="edge13" class="edge">
<title>Node16&#45;&gt;Node17</title>
<path fill="none" stroke="midnightblue" d="M373.26,-165.44C406.07,-155.26 453.08,-140.66 482.56,-131.52"/>
<polygon fill="midnightblue" stroke="midnightblue" points="372.08,-162.14 363.57,-168.44 374.16,-168.82 372.08,-162.14"/>
</g>
<!-- Node16&#45;&gt;Node22 -->
<g id="edge16" class="edge">
<title>Node16&#45;&gt;Node22</title>
<path fill="none" stroke="midnightblue" d="M293.18,-165.83C254.09,-155.63 197.17,-140.78 161.65,-131.52"/>
<polygon fill="midnightblue" stroke="midnightblue" points="292.64,-169.31 303.2,-168.44 294.41,-162.53 292.64,-169.31"/>
</g>
<!-- Node18 -->
<g id="node15" class="node">
<title>Node18</title>
<g id="a_node15"><a xlink:href="ipsec__types_8h.html" target="_top" xlink:title=" ">
<polygon fill="white" stroke="red" points="508.5,-56.5 508.5,-75.5 591.5,-75.5 591.5,-56.5 508.5,-56.5"/>
<text text-anchor="middle" x="550" y="-63.5" font-family="Helvetica,sans-Serif" font-size="10.00">ipsec_types.h</text>
</a>
</g>
</g>
<!-- Node17&#45;&gt;Node18 -->
<g id="edge14" class="edge">
<title>Node17&#45;&gt;Node18</title>
<path fill="none" stroke="midnightblue" d="M522.7,-103.86C529.63,-94.5 537.91,-83.33 543.52,-75.75"/>
<polygon fill="midnightblue" stroke="midnightblue" points="519.75,-101.96 516.61,-112.08 525.37,-106.13 519.75,-101.96"/>
</g>
<!-- Node19 -->
<g id="node16" class="node">
<title>Node19</title>
<g id="a_node16"><a xlink:href="spec_2ipsec_8h.html" target="_top" xlink:title=" ">
<polygon fill="white" stroke="red" points="634.5,-0.5 634.5,-19.5 685.5,-19.5 685.5,-0.5 634.5,-0.5"/>
<text text-anchor="middle" x="660" y="-7.5" font-family="Helvetica,sans-Serif" font-size="10.00">ipsec.h</text>
</a>
</g>
</g>
<!-- Node18&#45;&gt;Node19 -->
<g id="edge15" class="edge">
<title>Node18&#45;&gt;Node19</title>
<path fill="none" stroke="midnightblue" d="M576.76,-51.86C597.16,-41.85 624.67,-28.35 642.37,-19.65"/>
<polygon fill="midnightblue" stroke="midnightblue" points="575.11,-48.78 567.67,-56.32 578.19,-55.06 575.11,-48.78"/>
</g>
<!-- Node23 -->
<g id="node18" class="node">
<title>Node23</title>
<g id="a_node18"><a xlink:href="packet__io_8h.html" target="_top" xlink:title=" ">
<polygon fill="white" stroke="black" points="93,-56.5 93,-75.5 165,-75.5 165,-56.5 93,-56.5"/>
<text text-anchor="middle" x="129" y="-63.5" font-family="Helvetica,sans-Serif" font-size="10.00">packet_io.h</text>
</a>
</g>
</g>
<!-- Node22&#45;&gt;Node23 -->
<g id="edge17" class="edge">
<title>Node22&#45;&gt;Node23</title>
<path fill="none" stroke="midnightblue" d="M129,-101.8C129,-92.91 129,-82.78 129,-75.75"/>
<polygon fill="midnightblue" stroke="midnightblue" points="125.5,-102.08 129,-112.08 132.5,-102.08 125.5,-102.08"/>
</g>
<!-- Node25 -->
<g id="node20" class="node">
<title>Node25</title>
<g id="a_node20"><a xlink:href="crypto__types_8h.html" target="_top" xlink:title=" ">
<polygon fill="white" stroke="red" points="598.5,-280.5 598.5,-299.5 687.5,-299.5 687.5,-280.5 598.5,-280.5"/>
<text text-anchor="middle" x="643" y="-287.5" font-family="Helvetica,sans-Serif" font-size="10.00">crypto_types.h</text>
</a>
</g>
</g>
<!-- Node24&#45;&gt;Node25 -->
<g id="edge19" class="edge">
<title>Node24&#45;&gt;Node25</title>
<path fill="none" stroke="midnightblue" d="M656.22,-326.69C652.85,-317.59 648.93,-307.01 646.24,-299.75"/>
<polygon fill="midnightblue" stroke="midnightblue" points="652.94,-327.92 659.7,-336.08 659.51,-325.49 652.94,-327.92"/>
</g>
<!-- Node25&#45;&gt;Node17 -->
<g id="edge23" class="edge">
<title>Node25&#45;&gt;Node17</title>
<path fill="none" stroke="midnightblue" d="M641.34,-270.26C638.13,-244.39 628.92,-197.57 603,-168 587.16,-149.93 562.42,-138.44 542.44,-131.6"/>
<polygon fill="midnightblue" stroke="midnightblue" points="637.86,-270.68 642.4,-280.25 644.82,-269.94 637.86,-270.68"/>
</g>
<!-- Node25&#45;&gt;Node19 -->
<g id="edge22" class="edge">
<title>Node25&#45;&gt;Node19</title>
<path fill="none" stroke="midnightblue" d="M647.67,-270.36C652.7,-248.58 660,-211.42 660,-179 660,-179 660,-179 660,-121 660,-83.19 660,-38.06 660,-19.56"/>
<polygon fill="midnightblue" stroke="midnightblue" points="644.23,-269.69 645.29,-280.23 651.03,-271.33 644.23,-269.69"/>
</g>
<!-- Node26 -->
<g id="node21" class="node">
<title>Node26</title>
<g id="a_node21"><a xlink:href="spec_2crypto_8h.html" target="_top" xlink:title=" ">
<polygon fill="white" stroke="black" points="538,-224.5 538,-243.5 594,-243.5 594,-224.5 538,-224.5"/>
<text text-anchor="middle" x="566" y="-231.5" font-family="Helvetica,sans-Serif" font-size="10.00">crypto.h</text>
</a>
</g>
</g>
<!-- Node25&#45;&gt;Node26 -->
<g id="edge20" class="edge">
<title>Node25&#45;&gt;Node26</title>
<path fill="none" stroke="midnightblue" d="M622.1,-274.34C608.09,-264.52 590.12,-251.91 578.34,-243.65"/>
<polygon fill="midnightblue" stroke="midnightblue" points="620.43,-277.45 630.63,-280.32 624.45,-271.72 620.43,-277.45"/>
</g>
<!-- Node27 -->
<g id="node22" class="node">
<title>Node27</title>
<g id="a_node22"><a xlink:href="crypto_8h.html" target="_top" xlink:title=" ">
<polygon fill="white" stroke="black" points="538,-168.5 538,-187.5 594,-187.5 594,-168.5 538,-168.5"/>
<text text-anchor="middle" x="566" y="-175.5" font-family="Helvetica,sans-Serif" font-size="10.00">crypto.h</text>
</a>
</g>
</g>
<!-- Node26&#45;&gt;Node27 -->
<g id="edge21" class="edge">
<title>Node26&#45;&gt;Node27</title>
<path fill="none" stroke="midnightblue" d="M566,-213.8C566,-204.91 566,-194.78 566,-187.75"/>
<polygon fill="midnightblue" stroke="midnightblue" points="562.5,-214.08 566,-224.08 569.5,-214.08 562.5,-214.08"/>
</g>
<!-- Node30 -->
<g id="node24" class="node">
<title>Node30</title>
<g id="a_node24"><a xlink:href="packet_8h.html" target="_top" xlink:title=" ">
<polygon fill="white" stroke="red" points="688,-168.5 688,-187.5 746,-187.5 746,-168.5 688,-168.5"/>
<text text-anchor="middle" x="717" y="-175.5" font-family="Helvetica,sans-Serif" font-size="10.00">packet.h</text>
</a>
</g>
</g>
<!-- Node29&#45;&gt;Node30 -->
<g id="edge26" class="edge">
<title>Node29&#45;&gt;Node30</title>
<path fill="none" stroke="midnightblue" d="M717,-213.8C717,-204.91 717,-194.78 717,-187.75"/>
<polygon fill="midnightblue" stroke="midnightblue" points="713.5,-214.08 717,-224.08 720.5,-214.08 713.5,-214.08"/>
</g>
<!-- Node32 -->
<g id="node26" class="node">
<title>Node32</title>
<g id="a_node26"><a xlink:href="packet__io__types_8h.html" target="_top" xlink:title=" ">
<polygon fill="white" stroke="black" points="420,-280.5 420,-299.5 524,-299.5 524,-280.5 420,-280.5"/>
<text text-anchor="middle" x="472" y="-287.5" font-family="Helvetica,sans-Serif" font-size="10.00">packet_io_types.h</text>
</a>
</g>
</g>
<!-- Node31&#45;&gt;Node32 -->
<g id="edge28" class="edge">
<title>Node31&#45;&gt;Node32</title>
<path fill="none" stroke="midnightblue" d="M260.58,-334.41C310.28,-324.2 384.53,-308.96 430.52,-299.52"/>
<polygon fill="midnightblue" stroke="midnightblue" points="259.76,-331 250.67,-336.44 261.17,-337.86 259.76,-331"/>
</g>
<!-- Node32&#45;&gt;Node15 -->
<g id="edge29" class="edge">
<title>Node32&#45;&gt;Node15</title>
<path fill="none" stroke="midnightblue" d="M440.87,-276.64C415.34,-266.5 379.89,-252.43 357.45,-243.52"/>
<polygon fill="midnightblue" stroke="midnightblue" points="439.86,-280.01 450.45,-280.44 442.45,-273.5 439.86,-280.01"/>
</g>
<!-- Node32&#45;&gt;Node17 -->
<g id="edge30" class="edge">
<title>Node32&#45;&gt;Node17</title>
<path fill="none" stroke="midnightblue" d="M480.75,-271.08C484.4,-262.98 488.39,-253.18 491,-244 502.71,-202.9 507.75,-151.74 509.37,-131.66"/>
<polygon fill="midnightblue" stroke="midnightblue" points="477.52,-269.73 476.44,-280.27 483.86,-272.7 477.52,-269.73"/>
</g>
<!-- Node32&#45;&gt;Node22 -->
<g id="edge32" class="edge">
<title>Node32&#45;&gt;Node22</title>
<path fill="none" stroke="midnightblue" d="M409.96,-281.3C371.67,-274.88 322.33,-263.52 282,-244 219.21,-213.6 158.4,-153.78 137.04,-131.57"/>
<polygon fill="midnightblue" stroke="midnightblue" points="409.52,-284.78 419.95,-282.91 410.63,-277.87 409.52,-284.78"/>
</g>
<!-- Node32&#45;&gt;Node29 -->
<g id="edge31" class="edge">
<title>Node32&#45;&gt;Node29</title>
<path fill="none" stroke="midnightblue" d="M520.75,-278.25C570.71,-267.24 646.72,-250.49 687.95,-241.4"/>
<polygon fill="midnightblue" stroke="midnightblue" points="519.83,-274.87 510.82,-280.44 521.34,-281.71 519.83,-274.87"/>
</g>
<!-- Node33 -->
<g id="node27" class="node">
<title>Node33</title>
<g id="a_node27"><a xlink:href="spec_2traffic__mngr_8h.html" target="_top" xlink:title=" ">
<polygon fill="white" stroke="black" points="398,-224.5 398,-243.5 482,-243.5 482,-224.5 398,-224.5"/>
<text text-anchor="middle" x="440" y="-231.5" font-family="Helvetica,sans-Serif" font-size="10.00">traffic_mngr.h</text>
</a>
</g>
</g>
<!-- Node32&#45;&gt;Node33 -->
<g id="edge33" class="edge">
<title>Node32&#45;&gt;Node33</title>
<path fill="none" stroke="midnightblue" d="M461.5,-271.27C456.03,-262.05 449.58,-251.17 445.19,-243.75"/>
<polygon fill="midnightblue" stroke="midnightblue" points="458.61,-273.26 466.72,-280.08 464.63,-269.7 458.61,-273.26"/>
</g>
<!-- Node34 -->
<g id="node28" class="node">
<title>Node34</title>
<g id="a_node28"><a xlink:href="traffic__mngr_8h.html" target="_top" xlink:title=" ">
<polygon fill="white" stroke="black" points="398,-168.5 398,-187.5 482,-187.5 482,-168.5 398,-168.5"/>
<text text-anchor="middle" x="440" y="-175.5" font-family="Helvetica,sans-Serif" font-size="10.00">traffic_mngr.h</text>
</a>
</g>
</g>
<!-- Node33&#45;&gt;Node34 -->
<g id="edge34" class="edge">
<title>Node33&#45;&gt;Node34</title>
<path fill="none" stroke="midnightblue" d="M440,-213.8C440,-204.91 440,-194.78 440,-187.75"/>
<polygon fill="midnightblue" stroke="midnightblue" points="436.5,-214.08 440,-224.08 443.5,-214.08 436.5,-214.08"/>
</g>
<!-- Node34&#45;&gt;Node17 -->
<g id="edge35" class="edge">
<title>Node34&#45;&gt;Node17</title>
<path fill="none" stroke="midnightblue" d="M459.31,-162.1C471.91,-152.38 487.93,-140.03 498.55,-131.83"/>
<polygon fill="midnightblue" stroke="midnightblue" points="457.03,-159.44 451.25,-168.32 461.3,-164.99 457.03,-159.44"/>
</g>
<!-- Node38 -->
<g id="node30" class="node">
<title>Node38</title>
<g id="a_node30"><a xlink:href="timer_8h.html" target="_top" xlink:title=" ">
<polygon fill="white" stroke="black" points="802.5,-280.5 802.5,-299.5 853.5,-299.5 853.5,-280.5 802.5,-280.5"/>
<text text-anchor="middle" x="828" y="-287.5" font-family="Helvetica,sans-Serif" font-size="10.00">timer.h</text>
</a>
</g>
</g>
<!-- Node37&#45;&gt;Node38 -->
<g id="edge37" class="edge">
<title>Node37&#45;&gt;Node38</title>
<path fill="none" stroke="midnightblue" d="M828,-325.8C828,-316.91 828,-306.78 828,-299.75"/>
<polygon fill="midnightblue" stroke="midnightblue" points="824.5,-326.08 828,-336.08 831.5,-326.08 824.5,-326.08"/>
</g>
<!-- Node44 -->
<g id="node35" class="node">
<title>Node44</title>
<g id="a_node35"><a xlink:href="packet__io__stats_8h.html" target="_top" xlink:title=" ">
<polygon fill="white" stroke="black" points="28.5,-392.5 28.5,-411.5 129.5,-411.5 129.5,-392.5 28.5,-392.5"/>
<text text-anchor="middle" x="79" y="-399.5" font-family="Helvetica,sans-Serif" font-size="10.00">packet_io_stats.h</text>
</a>
</g>
</g>
<!-- Node43&#45;&gt;Node44 -->
<g id="edge44" class="edge">
<title>Node43&#45;&gt;Node44</title>
<path fill="none" stroke="midnightblue" d="M79,-494.35C79,-470.25 79,-429.31 79,-411.59"/>
<polygon fill="midnightblue" stroke="midnightblue" points="75.5,-494.37 79,-504.37 82.5,-494.37 75.5,-494.37"/>
</g>
<!-- Node44&#45;&gt;Node22 -->
<g id="edge45" class="edge">
<title>Node44&#45;&gt;Node22</title>
<path fill="none" stroke="midnightblue" d="M80.64,-382.27C82.42,-360.39 85,-323.1 85,-291 85,-291 85,-291 85,-233 85,-192.69 110.79,-149.62 122.88,-131.65"/>
<polygon fill="midnightblue" stroke="midnightblue" points="77.14,-382.19 79.78,-392.45 84.11,-382.78 77.14,-382.19"/>
</g>
<!-- Node44&#45;&gt;Node31 -->
<g id="edge46" class="edge">
<title>Node44&#45;&gt;Node31</title>
<path fill="none" stroke="midnightblue" d="M109.09,-388.5C133.46,-378.38 167.14,-364.39 188.5,-355.52"/>
<polygon fill="midnightblue" stroke="midnightblue" points="107.49,-385.38 99.6,-392.44 110.18,-391.84 107.49,-385.38"/>
</g>
<!-- Node46 -->
<g id="node37" class="node">
<title>Node46</title>
<g id="a_node37"><a xlink:href="packet__types_8h.html" target="_top" xlink:title=" ">
<polygon fill="white" stroke="black" points="555,-616.5 555,-635.5 645,-635.5 645,-616.5 555,-616.5"/>
<text text-anchor="middle" x="600" y="-623.5" font-family="Helvetica,sans-Serif" font-size="10.00">packet_types.h</text>
</a>
</g>
</g>
<!-- Node45&#45;&gt;Node46 -->
<g id="edge49" class="edge">
<title>Node45&#45;&gt;Node46</title>
<path fill="none" stroke="midnightblue" d="M679.94,-667.73C660.32,-657.73 633.97,-644.31 616.99,-635.65"/>
<polygon fill="midnightblue" stroke="midnightblue" points="678.47,-670.9 688.97,-672.32 681.65,-664.67 678.47,-670.9"/>
</g>
<!-- Node46&#45;&gt;Node4 -->
<g id="edge50" class="edge">
<title>Node46&#45;&gt;Node4</title>
<path fill="none" stroke="midnightblue" d="M655.44,-620.29C744.72,-612.59 925.83,-596.51 1079,-580 1094.7,-578.31 1112.24,-576.19 1126.3,-574.43"/>
<polygon fill="midnightblue" stroke="midnightblue" points="654.94,-616.82 645.28,-621.16 655.54,-623.79 654.94,-616.82"/>
</g>
<!-- Node46&#45;&gt;Node6 -->
<g id="edge53" class="edge">
<title>Node46&#45;&gt;Node6</title>
<path fill="none" stroke="midnightblue" d="M655.24,-618.06C743.08,-607.03 912.53,-585.75 989.81,-576.05"/>
<polygon fill="midnightblue" stroke="midnightblue" points="654.69,-614.6 645.2,-619.32 655.56,-621.55 654.69,-614.6"/>
</g>
<!-- Node46&#45;&gt;Node19 -->
<g id="edge58" class="edge">
<title>Node46&#45;&gt;Node19</title>
<path fill="none" stroke="midnightblue" d="M618.4,-609.82C663.15,-571.07 774,-463.34 774,-347 774,-347 774,-347 774,-121 774,-69.71 713.5,-34.77 680.64,-19.58"/>
<polygon fill="midnightblue" stroke="midnightblue" points="615.97,-607.29 610.62,-616.43 620.51,-612.62 615.97,-607.29"/>
</g>
<!-- Node46&#45;&gt;Node22 -->
<g id="edge61" class="edge">
<title>Node46&#45;&gt;Node22</title>
<path fill="none" stroke="midnightblue" d="M544.54,-622.07C468.83,-617.18 337.94,-605.28 298,-580 172.28,-500.42 129,-439.79 129,-291 129,-291 129,-291 129,-233 129,-195.19 129,-150.06 129,-131.56"/>
<polygon fill="midnightblue" stroke="midnightblue" points="544.64,-625.58 554.84,-622.71 545.08,-618.6 544.64,-625.58"/>
</g>
<!-- Node46&#45;&gt;Node24 -->
<g id="edge52" class="edge">
<title>Node46&#45;&gt;Node24</title>
<path fill="none" stroke="midnightblue" d="M610.14,-607.43C621.4,-586.24 638,-549.19 638,-515 638,-515 638,-515 638,-457 638,-418.42 652.8,-374.08 659.63,-355.69"/>
<polygon fill="midnightblue" stroke="midnightblue" points="607.05,-605.78 605.28,-616.23 613.18,-609.17 607.05,-605.78"/>
</g>
<!-- Node46&#45;&gt;Node26 -->
<g id="edge51" class="edge">
<title>Node46&#45;&gt;Node26</title>
<path fill="none" stroke="midnightblue" d="M598.36,-606.17C592.26,-536.23 571.05,-292.97 566.76,-243.73"/>
<polygon fill="midnightblue" stroke="midnightblue" points="594.9,-606.83 599.26,-616.49 601.88,-606.23 594.9,-606.83"/>
</g>
<!-- Node46&#45;&gt;Node29 -->
<g id="edge59" class="edge">
<title>Node46&#45;&gt;Node29</title>
<path fill="none" stroke="midnightblue" d="M633.77,-612.45C651.64,-604.78 673.29,-593.79 690,-580 738.41,-540.06 841.82,-415.43 862,-356 872.86,-324.02 882.03,-307.19 862,-280 835.42,-243.92 780.2,-235.92 746.1,-234.61"/>
<polygon fill="midnightblue" stroke="midnightblue" points="632.19,-609.31 624.28,-616.36 634.86,-615.78 632.19,-609.31"/>
</g>
<!-- Node46&#45;&gt;Node31 -->
<g id="edge62" class="edge">
<title>Node46&#45;&gt;Node31</title>
<path fill="none" stroke="midnightblue" d="M544.74,-620.24C481.48,-613.89 382.62,-600.95 352,-580 265.42,-520.78 221.76,-390.16 211.43,-355.55"/>
<polygon fill="midnightblue" stroke="midnightblue" points="544.67,-623.75 554.96,-621.24 545.35,-616.78 544.67,-623.75"/>
</g>
<!-- Node46&#45;&gt;Node40 -->
<g id="edge66" class="edge">
<title>Node46&#45;&gt;Node40</title>
<path fill="none" stroke="midnightblue" d="M544.62,-623.19C472.29,-619.68 351.1,-609.45 319,-580 256.75,-522.89 263.04,-471.72 291,-392 296.1,-377.46 308.09,-364.13 316.84,-355.81"/>
<polygon fill="midnightblue" stroke="midnightblue" points="544.77,-626.7 554.92,-623.66 545.09,-619.71 544.77,-626.7"/>
</g>
<!-- Node46&#45;&gt;Node41 -->
<g id="edge67" class="edge">
<title>Node46&#45;&gt;Node41</title>
<path fill="none" stroke="midnightblue" d="M544.43,-622.19C482.79,-617.76 389.06,-606.73 367,-580 306.46,-506.65 416.1,-388.28 449.05,-355.6"/>
<polygon fill="midnightblue" stroke="midnightblue" points="544.58,-625.7 554.79,-622.89 545.05,-618.72 544.58,-625.7"/>
</g>
<!-- Node47 -->
<g id="node38" class="node">
<title>Node47</title>
<g id="a_node38"><a xlink:href="spec_2event_8h.html" target="_top" xlink:title=" ">
<polygon fill="white" stroke="black" points="300.5,-448.5 300.5,-467.5 353.5,-467.5 353.5,-448.5 300.5,-448.5"/>
<text text-anchor="middle" x="327" y="-455.5" font-family="Helvetica,sans-Serif" font-size="10.00">event.h</text>
</a>
</g>
</g>
<!-- Node46&#45;&gt;Node47 -->
<g id="edge54" class="edge">
<title>Node46&#45;&gt;Node47</title>
<path fill="none" stroke="midnightblue" d="M544.62,-623.48C475.01,-620.29 361.27,-610.44 334,-580 305.22,-547.87 318.04,-489.61 324.3,-467.67"/>
<polygon fill="midnightblue" stroke="midnightblue" points="544.84,-626.99 554.98,-623.92 545.14,-620 544.84,-626.99"/>
</g>
<!-- Node50 -->
<g id="node40" class="node">
<title>Node50</title>
<g id="a_node40"><a xlink:href="spec_2packet__flags_8h.html" target="_top" xlink:title=" ">
<polygon fill="white" stroke="red" points="376,-560.5 376,-579.5 462,-579.5 462,-560.5 376,-560.5"/>
<text text-anchor="middle" x="419" y="-567.5" font-family="Helvetica,sans-Serif" font-size="10.00">packet_flags.h</text>
</a>
</g>
</g>
<!-- Node46&#45;&gt;Node50 -->
<g id="edge60" class="edge">
<title>Node46&#45;&gt;Node50</title>
<path fill="none" stroke="midnightblue" d="M561.68,-613.57C527.54,-603.38 478.34,-588.7 447.55,-579.52"/>
<polygon fill="midnightblue" stroke="midnightblue" points="560.74,-616.94 571.32,-616.44 562.74,-610.23 560.74,-616.94"/>
</g>
<!-- Node52 -->
<g id="node41" class="node">
<title>Node52</title>
<g id="a_node41"><a xlink:href="event__inlines_8h_source.html" target="_top" xlink:title=" ">
<polygon fill="white" stroke="black" points="480.5,-560.5 480.5,-579.5 571.5,-579.5 571.5,-560.5 480.5,-560.5"/>
<text text-anchor="middle" x="526" y="-567.5" font-family="Helvetica,sans-Serif" font-size="10.00">event_inlines.h</text>
</a>
</g>
</g>
<!-- Node46&#45;&gt;Node52 -->
<g id="edge63" class="edge">
<title>Node46&#45;&gt;Node52</title>
<path fill="none" stroke="midnightblue" d="M579.97,-610.38C566.59,-600.62 549.44,-588.11 538.11,-579.83"/>
<polygon fill="midnightblue" stroke="midnightblue" points="577.97,-613.26 588.11,-616.32 582.1,-607.6 577.97,-613.26"/>
</g>
<!-- Node53 -->
<g id="node42" class="node">
<title>Node53</title>
<g id="a_node42"><a xlink:href="event__validation__external_8h.html" target="_top" xlink:title=" ">
<polygon fill="white" stroke="black" points="742.5,-560.5 742.5,-579.5 895.5,-579.5 895.5,-560.5 742.5,-560.5"/>
<text text-anchor="middle" x="819" y="-567.5" font-family="Helvetica,sans-Serif" font-size="10.00">event_validation_external.h</text>
</a>
</g>
</g>
<!-- Node46&#45;&gt;Node53 -->
<g id="edge64" class="edge">
<title>Node46&#45;&gt;Node53</title>
<path fill="none" stroke="midnightblue" d="M644.51,-614.02C685.88,-603.82 746.64,-588.84 784.46,-579.52"/>
<polygon fill="midnightblue" stroke="midnightblue" points="643.57,-610.65 634.7,-616.44 645.25,-617.45 643.57,-610.65"/>
</g>
<!-- Node48 -->
<g id="node39" class="node">
<title>Node48</title>
<g id="a_node39"><a xlink:href="event_8h.html" target="_top" xlink:title=" ">
<polygon fill="white" stroke="red" points="300.5,-392.5 300.5,-411.5 353.5,-411.5 353.5,-392.5 300.5,-392.5"/>
<text text-anchor="middle" x="327" y="-399.5" font-family="Helvetica,sans-Serif" font-size="10.00">event.h</text>
</a>
</g>
</g>
<!-- Node47&#45;&gt;Node48 -->
<g id="edge55" class="edge">
<title>Node47&#45;&gt;Node48</title>
<path fill="none" stroke="midnightblue" d="M327,-437.8C327,-428.91 327,-418.78 327,-411.75"/>
<polygon fill="midnightblue" stroke="midnightblue" points="323.5,-438.08 327,-448.08 330.5,-438.08 323.5,-438.08"/>
</g>
<!-- Node48&#45;&gt;Node40 -->
<g id="edge56" class="edge">
<title>Node48&#45;&gt;Node40</title>
<path fill="none" stroke="midnightblue" d="M327,-381.8C327,-372.91 327,-362.78 327,-355.75"/>
<polygon fill="midnightblue" stroke="midnightblue" points="323.5,-382.08 327,-392.08 330.5,-382.08 323.5,-382.08"/>
</g>
<!-- Node48&#45;&gt;Node41 -->
<g id="edge57" class="edge">
<title>Node48&#45;&gt;Node41</title>
<path fill="none" stroke="midnightblue" d="M357.32,-388.5C381.88,-378.38 415.82,-364.39 437.34,-355.52"/>
<polygon fill="midnightblue" stroke="midnightblue" points="355.67,-385.4 347.76,-392.44 358.34,-391.87 355.67,-385.4"/>
</g>
<!-- Node54 -->
<g id="node43" class="node">
<title>Node54</title>
<g id="a_node43"><a xlink:href="queue__inlines_8h_source.html" target="_top" xlink:title=" ">
<polygon fill="white" stroke="black" points="784.5,-504.5 784.5,-523.5 877.5,-523.5 877.5,-504.5 784.5,-504.5"/>
<text text-anchor="middle" x="831" y="-511.5" font-family="Helvetica,sans-Serif" font-size="10.00">queue_inlines.h</text>
</a>
</g>
</g>
<!-- Node53&#45;&gt;Node54 -->
<g id="edge65" class="edge">
<title>Node53&#45;&gt;Node54</title>
<path fill="none" stroke="midnightblue" d="M823.2,-550.1C825.19,-541.14 827.48,-530.86 829.06,-523.75"/>
<polygon fill="midnightblue" stroke="midnightblue" points="819.73,-549.56 820.98,-560.08 826.57,-551.08 819.73,-549.56"/>
</g>
<!-- Node56 -->
<g id="node45" class="node">
<title>Node56</title>
<g id="a_node45"><a xlink:href="queue_8h.html" target="_top" xlink:title=" ">
<polygon fill="white" stroke="black" points="1014,-616.5 1014,-635.5 1070,-635.5 1070,-616.5 1014,-616.5"/>
<text text-anchor="middle" x="1042" y="-623.5" font-family="Helvetica,sans-Serif" font-size="10.00">queue.h</text>
</a>
</g>
</g>
<!-- Node55&#45;&gt;Node56 -->
<g id="edge69" class="edge">
<title>Node55&#45;&gt;Node56</title>
<path fill="none" stroke="midnightblue" d="M1042,-661.8C1042,-652.91 1042,-642.78 1042,-635.75"/>
<polygon fill="midnightblue" stroke="midnightblue" points="1038.5,-662.08 1042,-672.08 1045.5,-662.08 1038.5,-662.08"/>
</g>
<!-- Node58 -->
<g id="node47" class="node">
<title>Node58</title>
<g id="a_node47"><a xlink:href="schedule_8h.html" target="_top" xlink:title=" ">
<polygon fill="white" stroke="black" points="1354.5,-616.5 1354.5,-635.5 1423.5,-635.5 1423.5,-616.5 1354.5,-616.5"/>
<text text-anchor="middle" x="1389" y="-623.5" font-family="Helvetica,sans-Serif" font-size="10.00">schedule.h</text>
</a>
</g>
</g>
<!-- Node57&#45;&gt;Node58 -->
<g id="edge71" class="edge">
<title>Node57&#45;&gt;Node58</title>
<path fill="none" stroke="midnightblue" d="M1389,-661.8C1389,-652.91 1389,-642.78 1389,-635.75"/>
<polygon fill="midnightblue" stroke="midnightblue" points="1385.5,-662.08 1389,-672.08 1392.5,-662.08 1385.5,-662.08"/>
</g>
<!-- Node59&#45;&gt;Node54 -->
<g id="edge75" class="edge">
<title>Node59&#45;&gt;Node54</title>
<path fill="none" stroke="midnightblue" d="M881.02,-610.38C896.79,-597.5 914.07,-578.04 904,-560 894.06,-542.19 873.85,-530.56 857.21,-523.59"/>
<polygon fill="midnightblue" stroke="midnightblue" points="878.87,-607.61 873.06,-616.47 883.13,-613.17 878.87,-607.61"/>
</g>
<!-- Node60&#45;&gt;Node61 -->
<g id="edge77" class="edge">
<title>Node60&#45;&gt;Node61</title>
<path fill="none" stroke="midnightblue" d="M1260.33,-662.98C1255.91,-653.82 1250.75,-643.09 1247.21,-635.75"/>
<polygon fill="midnightblue" stroke="midnightblue" points="1257.21,-664.59 1264.71,-672.08 1263.52,-661.55 1257.21,-664.59"/>
</g>
</g>
</svg>
