<?xml version="1.0" encoding="UTF-8" standalone="no"?>
<!DOCTYPE svg PUBLIC "-//W3C//DTD SVG 1.1//EN"
 "http://www.w3.org/Graphics/SVG/1.1/DTD/svg11.dtd">
<!-- Generated by graphviz version 2.43.0 (0)
 -->
<!-- Title: traffic_mngr.h Pages: 1 -->
<svg width="1614pt" height="1169pt"
 viewBox="0.00 0.00 1614.00 1169.00" xmlns="http://www.w3.org/2000/svg" xmlns:xlink="http://www.w3.org/1999/xlink">
<g id="graph0" class="graph" transform="scale(1 1) rotate(0) translate(4 1165)">
<title>traffic_mngr.h</title>
<polygon fill="white" stroke="transparent" points="-4,4 -4,-1165 1610,-1165 1610,4 -4,4"/>
<!-- Node1 -->
<g id="node1" class="node">
<title>Node1</title>
<g id="a_node1"><a xlink:title=" ">
<polygon fill="#bfbfbf" stroke="black" points="184,-1141.5 184,-1160.5 268,-1160.5 268,-1141.5 184,-1141.5"/>
<text text-anchor="middle" x="226" y="-1148.5" font-family="Helvetica,sans-Serif" font-size="10.00">traffic_mngr.h</text>
</a>
</g>
</g>
<!-- Node2 -->
<g id="node2" class="node">
<title>Node2</title>
<g id="a_node2"><a xlink:title=" ">
<polygon fill="white" stroke="#bfbfbf" points="202.5,-0.5 202.5,-19.5 323.5,-19.5 323.5,-0.5 202.5,-0.5"/>
<text text-anchor="middle" x="263" y="-7.5" font-family="Helvetica,sans-Serif" font-size="10.00">odp/visibility_begin.h</text>
</a>
</g>
</g>
<!-- Node1&#45;&gt;Node2 -->
<g id="edge1" class="edge">
<title>Node1&#45;&gt;Node2</title>
<path fill="none" stroke="midnightblue" d="M183.76,-1147.11C118.34,-1140.1 0,-1116.13 0,-1034.5 0,-1034.5 0,-1034.5 0,-132 0,-92.97 12.33,-78.82 44,-56 67.46,-39.1 137.78,-26.63 192.48,-19.16"/>
<polygon fill="midnightblue" stroke="midnightblue" points="193.04,-22.61 202.49,-17.82 192.12,-15.67 193.04,-22.61"/>
</g>
<!-- Node3 -->
<g id="node3" class="node">
<title>Node3</title>
<g id="a_node3"><a xlink:href="packet__io__types_8h.html" target="_top" xlink:title=" ">
<polygon fill="white" stroke="black" points="204.5,-1085.5 204.5,-1104.5 347.5,-1104.5 347.5,-1085.5 204.5,-1085.5"/>
<text text-anchor="middle" x="276" y="-1092.5" font-family="Helvetica,sans-Serif" font-size="10.00">odp/api/packet_io_types.h</text>
</a>
</g>
</g>
<!-- Node1&#45;&gt;Node3 -->
<g id="edge2" class="edge">
<title>Node1&#45;&gt;Node3</title>
<path fill="none" stroke="midnightblue" d="M234.26,-1141.08C241.46,-1133.3 252.11,-1121.8 260.85,-1112.37"/>
<polygon fill="midnightblue" stroke="midnightblue" points="263.67,-1114.47 267.9,-1104.75 258.53,-1109.71 263.67,-1114.47"/>
</g>
<!-- Node12 -->
<g id="node12" class="node">
<title>Node12</title>
<g id="a_node12"><a xlink:href="std__types_8h.html" target="_top" xlink:title=" ">
<polygon fill="white" stroke="black" points="702,-235.5 702,-254.5 814,-254.5 814,-235.5 702,-235.5"/>
<text text-anchor="middle" x="758" y="-242.5" font-family="Helvetica,sans-Serif" font-size="10.00">odp/api/std_types.h</text>
</a>
</g>
</g>
<!-- Node1&#45;&gt;Node12 -->
<g id="edge78" class="edge">
<title>Node1&#45;&gt;Node12</title>
<path fill="none" stroke="midnightblue" d="M218.62,-1141.25C211.63,-1132.56 201.29,-1118.6 195,-1105 181.38,-1075.55 176,-1066.95 176,-1034.5 176,-1034.5 176,-1034.5 176,-685.5 176,-579.94 328,-608.56 328,-503 328,-503 328,-503 328,-439.5 328,-418.22 430.49,-301.5 449,-291 469.7,-279.26 607.41,-262.45 691.85,-253.05"/>
<polygon fill="midnightblue" stroke="midnightblue" points="692.32,-256.52 701.87,-251.94 691.55,-249.56 692.32,-256.52"/>
</g>
<!-- Node19 -->
<g id="node19" class="node">
<title>Node19</title>
<g id="a_node19"><a xlink:title=" ">
<polygon fill="white" stroke="#bfbfbf" points="1118,-0.5 1118,-19.5 1230,-19.5 1230,-0.5 1118,-0.5"/>
<text text-anchor="middle" x="1174" y="-7.5" font-family="Helvetica,sans-Serif" font-size="10.00">odp/visibility_end.h</text>
</a>
</g>
</g>
<!-- Node1&#45;&gt;Node19 -->
<g id="edge79" class="edge">
<title>Node1&#45;&gt;Node19</title>
<path fill="none" stroke="midnightblue" d="M268.05,-1148.74C499.33,-1141.52 1606,-1103.4 1606,-1034.5 1606,-1034.5 1606,-1034.5 1606,-132 1606,-90.82 1588.32,-77.17 1553,-56 1501.73,-25.27 1334.47,-15.5 1240.18,-12.41"/>
<polygon fill="midnightblue" stroke="midnightblue" points="1240.28,-8.92 1230.18,-12.1 1240.06,-15.91 1240.28,-8.92"/>
</g>
<!-- Node4 -->
<g id="node4" class="node">
<title>Node4</title>
<g id="a_node4"><a xlink:title=" ">
<polygon fill="white" stroke="#bfbfbf" points="574,-671.5 574,-701.5 680,-701.5 680,-671.5 574,-671.5"/>
<text text-anchor="start" x="582" y="-689.5" font-family="Helvetica,sans-Serif" font-size="10.00">odp/api/abi/packet</text>
<text text-anchor="middle" x="627" y="-678.5" font-family="Helvetica,sans-Serif" font-size="10.00">_io_types.h</text>
</a>
</g>
</g>
<!-- Node3&#45;&gt;Node4 -->
<g id="edge3" class="edge">
<title>Node3&#45;&gt;Node4</title>
<path fill="none" stroke="midnightblue" d="M273.06,-1085.31C266.65,-1065.59 252,-1015.83 252,-973 252,-973 252,-973 252,-803 252,-735.19 507.19,-708.47 563.73,-701.48"/>
<polygon fill="midnightblue" stroke="midnightblue" points="564.52,-704.9 573.93,-700.04 563.54,-697.97 564.52,-704.9"/>
</g>
<!-- Node5 -->
<g id="node5" class="node">
<title>Node5</title>
<g id="a_node5"><a xlink:href="spec_2packet__io__types_8h.html" target="_top" xlink:title=" ">
<polygon fill="white" stroke="black" points="553.5,-1018.5 553.5,-1048.5 666.5,-1048.5 666.5,-1018.5 553.5,-1018.5"/>
<text text-anchor="start" x="561.5" y="-1036.5" font-family="Helvetica,sans-Serif" font-size="10.00">odp/api/spec/packet</text>
<text text-anchor="middle" x="610" y="-1025.5" font-family="Helvetica,sans-Serif" font-size="10.00">_io_types.h</text>
</a>
</g>
</g>
<!-- Node3&#45;&gt;Node5 -->
<g id="edge4" class="edge">
<title>Node3&#45;&gt;Node5</title>
<path fill="none" stroke="midnightblue" d="M323.85,-1085.48C381.38,-1075.23 478.27,-1057.97 543.17,-1046.41"/>
<polygon fill="midnightblue" stroke="midnightblue" points="544.06,-1049.8 553.29,-1044.6 542.84,-1042.91 544.06,-1049.8"/>
</g>
<!-- Node5&#45;&gt;Node2 -->
<g id="edge5" class="edge">
<title>Node5&#45;&gt;Node2</title>
<path fill="none" stroke="midnightblue" d="M553.33,-1032.95C408.83,-1032.56 38,-1021.41 38,-917 38,-917 38,-917 38,-132 38,-94.24 46.44,-79.5 76,-56 108.75,-29.96 154.24,-18.63 192.16,-13.85"/>
<polygon fill="midnightblue" stroke="midnightblue" points="192.58,-17.33 202.12,-12.72 191.79,-10.37 192.58,-17.33"/>
</g>
<!-- Node6 -->
<g id="node6" class="node">
<title>Node6</title>
<g id="a_node6"><a xlink:href="packet__types_8h.html" target="_top" xlink:title=" ">
<polygon fill="white" stroke="black" points="392.5,-738.5 392.5,-757.5 521.5,-757.5 521.5,-738.5 392.5,-738.5"/>
<text text-anchor="middle" x="457" y="-745.5" font-family="Helvetica,sans-Serif" font-size="10.00">odp/api/packet_types.h</text>
</a>
</g>
</g>
<!-- Node5&#45;&gt;Node6 -->
<g id="edge6" class="edge">
<title>Node5&#45;&gt;Node6</title>
<path fill="none" stroke="midnightblue" d="M586.27,-1018.17C557.84,-999 514,-962.11 514,-917 514,-917 514,-917 514,-859 514,-822.3 488.68,-785.66 471.79,-765.3"/>
<polygon fill="midnightblue" stroke="midnightblue" points="474.35,-762.9 465.17,-757.62 469.05,-767.48 474.35,-762.9"/>
</g>
<!-- Node5&#45;&gt;Node12 -->
<g id="edge76" class="edge">
<title>Node5&#45;&gt;Node12</title>
<path fill="none" stroke="midnightblue" d="M617.05,-1018.45C639.52,-972.31 708,-820.75 708,-687.5 708,-687.5 708,-687.5 708,-624 708,-484.95 741.66,-319.59 753.75,-264.72"/>
<polygon fill="midnightblue" stroke="midnightblue" points="757.21,-265.26 755.98,-254.73 750.38,-263.73 757.21,-265.26"/>
</g>
<!-- Node5&#45;&gt;Node19 -->
<g id="edge77" class="edge">
<title>Node5&#45;&gt;Node19</title>
<path fill="none" stroke="midnightblue" d="M666.7,-1031.66C872.5,-1027.88 1568,-1008.35 1568,-917 1568,-917 1568,-917 1568,-132 1568,-92.75 1555.79,-77.59 1523,-56 1477.84,-26.27 1328.3,-16.14 1240.3,-12.72"/>
<polygon fill="midnightblue" stroke="midnightblue" points="1240.27,-9.21 1230.15,-12.34 1240.01,-16.21 1240.27,-9.21"/>
</g>
<!-- Node20 -->
<g id="node20" class="node">
<title>Node20</title>
<g id="a_node20"><a xlink:href="queue__types_8h.html" target="_top" xlink:title=" ">
<polygon fill="white" stroke="black" points="813.5,-615.5 813.5,-634.5 940.5,-634.5 940.5,-615.5 813.5,-615.5"/>
<text text-anchor="middle" x="877" y="-622.5" font-family="Helvetica,sans-Serif" font-size="10.00">odp/api/queue_types.h</text>
</a>
</g>
</g>
<!-- Node5&#45;&gt;Node20 -->
<g id="edge70" class="edge">
<title>Node5&#45;&gt;Node20</title>
<path fill="none" stroke="midnightblue" d="M666.51,-1032.13C745.14,-1028.3 878,-1008.32 878,-917 878,-917 878,-917 878,-747 878,-710.71 877.54,-668.31 877.25,-644.56"/>
<polygon fill="midnightblue" stroke="midnightblue" points="880.75,-644.46 877.12,-634.51 873.75,-644.55 880.75,-644.46"/>
</g>
<!-- Node29 -->
<g id="node29" class="node">
<title>Node29</title>
<g id="a_node29"><a xlink:href="packet__io__stats_8h.html" target="_top" xlink:title=" ">
<polygon fill="white" stroke="black" points="540,-738.5 540,-757.5 680,-757.5 680,-738.5 540,-738.5"/>
<text text-anchor="middle" x="610" y="-745.5" font-family="Helvetica,sans-Serif" font-size="10.00">odp/api/packet_io_stats.h</text>
</a>
</g>
</g>
<!-- Node5&#45;&gt;Node29 -->
<g id="edge45" class="edge">
<title>Node5&#45;&gt;Node29</title>
<path fill="none" stroke="midnightblue" d="M610,-1018.28C610,-996.48 610,-953.49 610,-917 610,-917 610,-917 610,-859 610,-826.95 610,-789.64 610,-767.75"/>
<polygon fill="midnightblue" stroke="midnightblue" points="613.5,-767.56 610,-757.56 606.5,-767.56 613.5,-767.56"/>
</g>
<!-- Node31 -->
<g id="node31" class="node">
<title>Node31</title>
<g id="a_node31"><a xlink:href="pool__types_8h.html" target="_top" xlink:title=" ">
<polygon fill="white" stroke="black" points="915,-962.5 915,-981.5 1033,-981.5 1033,-962.5 915,-962.5"/>
<text text-anchor="middle" x="974" y="-969.5" font-family="Helvetica,sans-Serif" font-size="10.00">odp/api/pool_types.h</text>
</a>
</g>
</g>
<!-- Node5&#45;&gt;Node31 -->
<g id="edge51" class="edge">
<title>Node5&#45;&gt;Node31</title>
<path fill="none" stroke="midnightblue" d="M666.88,-1023.2C733.35,-1012.34 842.97,-994.42 911.7,-983.18"/>
<polygon fill="midnightblue" stroke="midnightblue" points="912.64,-986.58 921.94,-981.51 911.51,-979.67 912.64,-986.58"/>
</g>
<!-- Node40 -->
<g id="node40" class="node">
<title>Node40</title>
<g id="a_node40"><a xlink:href="reassembly_8h.html" target="_top" xlink:title=" ">
<polygon fill="white" stroke="black" points="352,-962.5 352,-981.5 472,-981.5 472,-962.5 352,-962.5"/>
<text text-anchor="middle" x="412" y="-969.5" font-family="Helvetica,sans-Serif" font-size="10.00">odp/api/reassembly.h</text>
</a>
</g>
</g>
<!-- Node5&#45;&gt;Node40 -->
<g id="edge71" class="edge">
<title>Node5&#45;&gt;Node40</title>
<path fill="none" stroke="midnightblue" d="M563.33,-1018.47C528.87,-1008.12 482.54,-994.2 450.26,-984.5"/>
<polygon fill="midnightblue" stroke="midnightblue" points="450.89,-981.03 440.31,-981.51 448.88,-987.74 450.89,-981.03"/>
</g>
<!-- Node6&#45;&gt;Node4 -->
<g id="edge7" class="edge">
<title>Node6&#45;&gt;Node4</title>
<path fill="none" stroke="midnightblue" d="M481.36,-738.48C506.32,-729.74 545.84,-715.91 577.41,-704.86"/>
<polygon fill="midnightblue" stroke="midnightblue" points="578.65,-708.13 586.93,-701.52 576.34,-701.52 578.65,-708.13"/>
</g>
<!-- Node7 -->
<g id="node7" class="node">
<title>Node7</title>
<g id="a_node7"><a xlink:title=" ">
<polygon fill="white" stroke="#bfbfbf" points="450,-671.5 450,-701.5 556,-701.5 556,-671.5 450,-671.5"/>
<text text-anchor="start" x="458" y="-689.5" font-family="Helvetica,sans-Serif" font-size="10.00">odp/api/abi/packet</text>
<text text-anchor="middle" x="503" y="-678.5" font-family="Helvetica,sans-Serif" font-size="10.00">_types.h</text>
</a>
</g>
</g>
<!-- Node6&#45;&gt;Node7 -->
<g id="edge8" class="edge">
<title>Node6&#45;&gt;Node7</title>
<path fill="none" stroke="midnightblue" d="M463.59,-738.48C469.41,-730.94 478.16,-719.63 485.94,-709.57"/>
<polygon fill="midnightblue" stroke="midnightblue" points="488.81,-711.58 492.16,-701.52 483.27,-707.29 488.81,-711.58"/>
</g>
<!-- Node8 -->
<g id="node8" class="node">
<title>Node8</title>
<g id="a_node8"><a xlink:href="spec_2packet__types_8h.html" target="_top" xlink:title=" ">
<polygon fill="white" stroke="black" points="318.5,-671.5 318.5,-701.5 431.5,-701.5 431.5,-671.5 318.5,-671.5"/>
<text text-anchor="start" x="326.5" y="-689.5" font-family="Helvetica,sans-Serif" font-size="10.00">odp/api/spec/packet</text>
<text text-anchor="middle" x="375" y="-678.5" font-family="Helvetica,sans-Serif" font-size="10.00">_types.h</text>
</a>
</g>
</g>
<!-- Node6&#45;&gt;Node8 -->
<g id="edge9" class="edge">
<title>Node6&#45;&gt;Node8</title>
<path fill="none" stroke="midnightblue" d="M445.25,-738.48C434.15,-730.42 417.07,-718.02 402.53,-707.47"/>
<polygon fill="midnightblue" stroke="midnightblue" points="404.48,-704.56 394.33,-701.52 400.36,-710.23 404.48,-704.56"/>
</g>
<!-- Node8&#45;&gt;Node2 -->
<g id="edge10" class="edge">
<title>Node8&#45;&gt;Node2</title>
<path fill="none" stroke="midnightblue" d="M340.41,-671.47C285.34,-647.32 178.13,-592.6 121,-512 100.84,-483.55 76,-375 76,-307.5 76,-307.5 76,-307.5 76,-132 76,-96.58 74.5,-80.59 100,-56 124.51,-32.37 160.25,-20.92 192.03,-15.45"/>
<polygon fill="midnightblue" stroke="midnightblue" points="192.84,-18.87 202.19,-13.88 191.77,-11.95 192.84,-18.87"/>
</g>
<!-- Node9 -->
<g id="node9" class="node">
<title>Node9</title>
<g id="a_node9"><a xlink:href="proto__stats__types_8h.html" target="_top" xlink:title=" ">
<polygon fill="white" stroke="black" points="467,-358.5 467,-388.5 577,-388.5 577,-358.5 467,-358.5"/>
<text text-anchor="start" x="475" y="-376.5" font-family="Helvetica,sans-Serif" font-size="10.00">odp/api/proto_stats</text>
<text text-anchor="middle" x="522" y="-365.5" font-family="Helvetica,sans-Serif" font-size="10.00">_types.h</text>
</a>
</g>
</g>
<!-- Node8&#45;&gt;Node9 -->
<g id="edge11" class="edge">
<title>Node8&#45;&gt;Node9</title>
<path fill="none" stroke="midnightblue" d="M381.7,-671.33C404.9,-622.25 481.96,-459.21 510.9,-397.99"/>
<polygon fill="midnightblue" stroke="midnightblue" points="514.15,-399.29 515.26,-388.75 507.82,-396.3 514.15,-399.29"/>
</g>
<!-- Node8&#45;&gt;Node19 -->
<g id="edge44" class="edge">
<title>Node8&#45;&gt;Node19</title>
<path fill="none" stroke="midnightblue" d="M415.85,-671.45C491.82,-645.53 660.18,-589.11 804,-548 867.02,-529.99 886.37,-536.89 947,-512 992.34,-493.38 1011.01,-493.97 1042,-456 1081.81,-407.21 1077.64,-384.11 1088,-322 1107.5,-205.12 1004.94,-155.04 1070,-56 1080.57,-39.91 1098.26,-29.54 1116.08,-22.88"/>
<polygon fill="midnightblue" stroke="midnightblue" points="1117.6,-26.06 1125.95,-19.54 1115.36,-19.43 1117.6,-26.06"/>
</g>
<!-- Node8&#45;&gt;Node20 -->
<g id="edge27" class="edge">
<title>Node8&#45;&gt;Node20</title>
<path fill="none" stroke="midnightblue" d="M431.8,-672.59C434.91,-672.02 437.99,-671.48 441,-671 508.71,-660.1 697.22,-642.24 802.85,-632.63"/>
<polygon fill="midnightblue" stroke="midnightblue" points="803.48,-636.08 813.12,-631.69 802.84,-629.11 803.48,-636.08"/>
</g>
<!-- Node10 -->
<g id="node10" class="node">
<title>Node10</title>
<g id="a_node10"><a xlink:title=" ">
<polygon fill="white" stroke="#bfbfbf" points="458,-291.5 458,-321.5 586,-321.5 586,-291.5 458,-291.5"/>
<text text-anchor="start" x="466" y="-309.5" font-family="Helvetica,sans-Serif" font-size="10.00">odp/api/abi/proto_stats</text>
<text text-anchor="middle" x="522" y="-298.5" font-family="Helvetica,sans-Serif" font-size="10.00">_types.h</text>
</a>
</g>
</g>
<!-- Node9&#45;&gt;Node10 -->
<g id="edge12" class="edge">
<title>Node9&#45;&gt;Node10</title>
<path fill="none" stroke="midnightblue" d="M522,-358.4C522,-350.64 522,-340.81 522,-331.86"/>
<polygon fill="midnightblue" stroke="midnightblue" points="525.5,-331.58 522,-321.58 518.5,-331.58 525.5,-331.58"/>
</g>
<!-- Node11 -->
<g id="node11" class="node">
<title>Node11</title>
<g id="a_node11"><a xlink:href="spec_2proto__stats__types_8h.html" target="_top" xlink:title=" ">
<polygon fill="white" stroke="black" points="604.5,-291.5 604.5,-321.5 711.5,-321.5 711.5,-291.5 604.5,-291.5"/>
<text text-anchor="start" x="612.5" y="-309.5" font-family="Helvetica,sans-Serif" font-size="10.00">odp/api/spec/proto</text>
<text text-anchor="middle" x="658" y="-298.5" font-family="Helvetica,sans-Serif" font-size="10.00">_stats_types.h</text>
</a>
</g>
</g>
<!-- Node9&#45;&gt;Node11 -->
<g id="edge13" class="edge">
<title>Node9&#45;&gt;Node11</title>
<path fill="none" stroke="midnightblue" d="M551.51,-358.4C571.38,-348.9 597.79,-336.28 619.34,-325.98"/>
<polygon fill="midnightblue" stroke="midnightblue" points="621.03,-329.05 628.55,-321.58 618.02,-322.73 621.03,-329.05"/>
</g>
<!-- Node11&#45;&gt;Node2 -->
<g id="edge14" class="edge">
<title>Node11&#45;&gt;Node2</title>
<path fill="none" stroke="midnightblue" d="M637.77,-291.2C609.15,-270.92 555.29,-232.52 510,-199 424.45,-135.68 323.88,-58.16 282.39,-26.04"/>
<polygon fill="midnightblue" stroke="midnightblue" points="284.29,-23.09 274.24,-19.73 280.01,-28.62 284.29,-23.09"/>
</g>
<!-- Node11&#45;&gt;Node12 -->
<g id="edge15" class="edge">
<title>Node11&#45;&gt;Node12</title>
<path fill="none" stroke="midnightblue" d="M681.7,-291.4C697.73,-281.86 718.8,-269.32 734.74,-259.84"/>
<polygon fill="midnightblue" stroke="midnightblue" points="736.64,-262.78 743.45,-254.66 733.07,-256.76 736.64,-262.78"/>
</g>
<!-- Node11&#45;&gt;Node19 -->
<g id="edge26" class="edge">
<title>Node11&#45;&gt;Node19</title>
<path fill="none" stroke="midnightblue" d="M660.99,-291.42C665.21,-275.17 674.56,-248.9 693,-235 763.73,-181.69 812.27,-243.24 889,-199 961.37,-157.27 940.53,-100.87 1011,-56 1040.05,-37.51 1076.7,-26.51 1107.89,-20.03"/>
<polygon fill="midnightblue" stroke="midnightblue" points="1108.67,-23.44 1117.81,-18.08 1107.32,-16.57 1108.67,-23.44"/>
</g>
<!-- Node13 -->
<g id="node13" class="node">
<title>Node13</title>
<g id="a_node13"><a xlink:title=" ">
<polygon fill="white" stroke="#bfbfbf" points="519,-179.5 519,-198.5 649,-198.5 649,-179.5 519,-179.5"/>
<text text-anchor="middle" x="584" y="-186.5" font-family="Helvetica,sans-Serif" font-size="10.00">odp/api/abi/std_types.h</text>
</a>
</g>
</g>
<!-- Node12&#45;&gt;Node13 -->
<g id="edge16" class="edge">
<title>Node12&#45;&gt;Node13</title>
<path fill="none" stroke="midnightblue" d="M730.43,-235.44C700.9,-226.28 653.88,-211.69 621.12,-201.52"/>
<polygon fill="midnightblue" stroke="midnightblue" points="622.03,-198.14 611.44,-198.52 619.96,-204.82 622.03,-198.14"/>
</g>
<!-- Node14 -->
<g id="node14" class="node">
<title>Node14</title>
<g id="a_node14"><a xlink:href="spec_2std__types_8h.html" target="_top" xlink:title=" ">
<polygon fill="white" stroke="black" points="705.5,-179.5 705.5,-198.5 842.5,-198.5 842.5,-179.5 705.5,-179.5"/>
<text text-anchor="middle" x="774" y="-186.5" font-family="Helvetica,sans-Serif" font-size="10.00">odp/api/spec/std_types.h</text>
</a>
</g>
</g>
<!-- Node12&#45;&gt;Node14 -->
<g id="edge17" class="edge">
<title>Node12&#45;&gt;Node14</title>
<path fill="none" stroke="midnightblue" d="M760.64,-235.08C762.79,-227.85 765.88,-217.41 768.55,-208.4"/>
<polygon fill="midnightblue" stroke="midnightblue" points="771.92,-209.33 771.41,-198.75 765.21,-207.34 771.92,-209.33"/>
</g>
<!-- Node14&#45;&gt;Node2 -->
<g id="edge18" class="edge">
<title>Node14&#45;&gt;Node2</title>
<path fill="none" stroke="midnightblue" d="M742.5,-179.47C716.92,-171.85 680.41,-159.36 651,-143 623.61,-127.76 568.71,-68.58 540,-56 473.8,-27 391.31,-16.5 333.64,-12.79"/>
<polygon fill="midnightblue" stroke="midnightblue" points="333.72,-9.29 323.53,-12.2 333.3,-16.28 333.72,-9.29"/>
</g>
<!-- Node15 -->
<g id="node15" class="node">
<title>Node15</title>
<g id="a_node15"><a xlink:title=" ">
<polygon fill="white" stroke="#bfbfbf" points="659.5,-123.5 659.5,-142.5 712.5,-142.5 712.5,-123.5 659.5,-123.5"/>
<text text-anchor="middle" x="686" y="-130.5" font-family="Helvetica,sans-Serif" font-size="10.00">stdint.h</text>
</a>
</g>
</g>
<!-- Node14&#45;&gt;Node15 -->
<g id="edge19" class="edge">
<title>Node14&#45;&gt;Node15</title>
<path fill="none" stroke="midnightblue" d="M759.86,-179.32C746.13,-170.9 725.06,-157.97 708.94,-148.07"/>
<polygon fill="midnightblue" stroke="midnightblue" points="710.46,-144.9 700.1,-142.65 706.8,-150.87 710.46,-144.9"/>
</g>
<!-- Node16 -->
<g id="node16" class="node">
<title>Node16</title>
<g id="a_node16"><a xlink:href="align_8h.html" target="_top" xlink:title=" ">
<polygon fill="white" stroke="black" points="730.5,-123.5 730.5,-142.5 819.5,-142.5 819.5,-123.5 730.5,-123.5"/>
<text text-anchor="middle" x="775" y="-130.5" font-family="Helvetica,sans-Serif" font-size="10.00">odp/api/align.h</text>
</a>
</g>
</g>
<!-- Node14&#45;&gt;Node16 -->
<g id="edge20" class="edge">
<title>Node14&#45;&gt;Node16</title>
<path fill="none" stroke="midnightblue" d="M774.17,-179.08C774.3,-172.01 774.48,-161.86 774.65,-152.99"/>
<polygon fill="midnightblue" stroke="midnightblue" points="778.15,-152.81 774.84,-142.75 771.15,-152.68 778.15,-152.81"/>
</g>
<!-- Node14&#45;&gt;Node19 -->
<g id="edge25" class="edge">
<title>Node14&#45;&gt;Node19</title>
<path fill="none" stroke="midnightblue" d="M785.14,-179.25C796.37,-170.33 814.15,-156 829,-143 871.59,-105.73 871.39,-81.35 922,-56 980.39,-26.75 1054.78,-16.25 1107.57,-12.62"/>
<polygon fill="midnightblue" stroke="midnightblue" points="1108.06,-16.09 1117.82,-11.98 1107.62,-9.11 1108.06,-16.09"/>
</g>
<!-- Node17 -->
<g id="node17" class="node">
<title>Node17</title>
<g id="a_node17"><a xlink:title=" ">
<polygon fill="white" stroke="#bfbfbf" points="592.5,-62 592.5,-81 699.5,-81 699.5,-62 592.5,-62"/>
<text text-anchor="middle" x="646" y="-69" font-family="Helvetica,sans-Serif" font-size="10.00">odp/api/abi/align.h</text>
</a>
</g>
</g>
<!-- Node16&#45;&gt;Node17 -->
<g id="edge21" class="edge">
<title>Node16&#45;&gt;Node17</title>
<path fill="none" stroke="midnightblue" d="M756.52,-123.48C734.87,-113.49 698.79,-96.85 673.77,-85.31"/>
<polygon fill="midnightblue" stroke="midnightblue" points="674.99,-82.02 664.45,-81.01 672.06,-88.38 674.99,-82.02"/>
</g>
<!-- Node18 -->
<g id="node18" class="node">
<title>Node18</title>
<g id="a_node18"><a xlink:href="spec_2align_8h.html" target="_top" xlink:title=" ">
<polygon fill="white" stroke="black" points="718,-62 718,-81 832,-81 832,-62 718,-62"/>
<text text-anchor="middle" x="775" y="-69" font-family="Helvetica,sans-Serif" font-size="10.00">odp/api/spec/align.h</text>
</a>
</g>
</g>
<!-- Node16&#45;&gt;Node18 -->
<g id="edge22" class="edge">
<title>Node16&#45;&gt;Node18</title>
<path fill="none" stroke="midnightblue" d="M775,-123.48C775,-115.08 775,-101.98 775,-91.16"/>
<polygon fill="midnightblue" stroke="midnightblue" points="778.5,-91.01 775,-81.01 771.5,-91.01 778.5,-91.01"/>
</g>
<!-- Node18&#45;&gt;Node2 -->
<g id="edge23" class="edge">
<title>Node18&#45;&gt;Node2</title>
<path fill="none" stroke="midnightblue" d="M739.86,-61.99C729.93,-59.8 719.08,-57.61 709,-56 577.23,-34.95 421.9,-21.91 333.68,-15.59"/>
<polygon fill="midnightblue" stroke="midnightblue" points="333.74,-12.09 323.52,-14.88 333.25,-19.07 333.74,-12.09"/>
</g>
<!-- Node18&#45;&gt;Node19 -->
<g id="edge24" class="edge">
<title>Node18&#45;&gt;Node19</title>
<path fill="none" stroke="midnightblue" d="M832.17,-61.98C905.07,-51.1 1030.87,-32.34 1107.84,-20.87"/>
<polygon fill="midnightblue" stroke="midnightblue" points="1108.53,-24.3 1117.9,-19.37 1107.5,-17.38 1108.53,-24.3"/>
</g>
<!-- Node21 -->
<g id="node21" class="node">
<title>Node21</title>
<g id="a_node21"><a xlink:title=" ">
<polygon fill="white" stroke="#bfbfbf" points="941.5,-554 941.5,-573 1086.5,-573 1086.5,-554 941.5,-554"/>
<text text-anchor="middle" x="1014" y="-561" font-family="Helvetica,sans-Serif" font-size="10.00">odp/api/abi/queue_types.h</text>
</a>
</g>
</g>
<!-- Node20&#45;&gt;Node21 -->
<g id="edge28" class="edge">
<title>Node20&#45;&gt;Node21</title>
<path fill="none" stroke="midnightblue" d="M896.63,-615.48C919.82,-605.4 958.62,-588.55 985.21,-577"/>
<polygon fill="midnightblue" stroke="midnightblue" points="986.63,-580.2 994.41,-573.01 983.84,-573.78 986.63,-580.2"/>
</g>
<!-- Node22 -->
<g id="node22" class="node">
<title>Node22</title>
<g id="a_node22"><a xlink:href="spec_2queue__types_8h.html" target="_top" xlink:title=" ">
<polygon fill="white" stroke="black" points="812.5,-548.5 812.5,-578.5 923.5,-578.5 923.5,-548.5 812.5,-548.5"/>
<text text-anchor="start" x="820.5" y="-566.5" font-family="Helvetica,sans-Serif" font-size="10.00">odp/api/spec/queue</text>
<text text-anchor="middle" x="868" y="-555.5" font-family="Helvetica,sans-Serif" font-size="10.00">_types.h</text>
</a>
</g>
</g>
<!-- Node20&#45;&gt;Node22 -->
<g id="edge29" class="edge">
<title>Node20&#45;&gt;Node22</title>
<path fill="none" stroke="midnightblue" d="M875.71,-615.48C874.65,-608.47 873.1,-598.19 871.66,-588.7"/>
<polygon fill="midnightblue" stroke="midnightblue" points="875.08,-587.89 870.12,-578.52 868.16,-588.93 875.08,-587.89"/>
</g>
<!-- Node22&#45;&gt;Node2 -->
<g id="edge30" class="edge">
<title>Node22&#45;&gt;Node2</title>
<path fill="none" stroke="midnightblue" d="M812.23,-553.88C650.04,-527.27 190,-440.1 190,-307.5 190,-307.5 190,-307.5 190,-132 190,-88.95 224.29,-48.08 245.87,-26.61"/>
<polygon fill="midnightblue" stroke="midnightblue" points="248.37,-29.07 253.15,-19.62 243.52,-24.02 248.37,-29.07"/>
</g>
<!-- Node22&#45;&gt;Node19 -->
<g id="edge43" class="edge">
<title>Node22&#45;&gt;Node19</title>
<path fill="none" stroke="midnightblue" d="M923.54,-549.07C952.51,-540.76 987.88,-528.48 1017,-512 1128.84,-448.68 1183.28,-439.66 1235,-322 1259.39,-266.5 1365.8,-420.38 1212,-56 1207.35,-44.98 1199.01,-34.63 1191.33,-26.64"/>
<polygon fill="midnightblue" stroke="midnightblue" points="1193.62,-23.99 1184.03,-19.51 1188.73,-29 1193.62,-23.99"/>
</g>
<!-- Node23 -->
<g id="node23" class="node">
<title>Node23</title>
<g id="a_node23"><a xlink:href="schedule__types_8h.html" target="_top" xlink:title=" ">
<polygon fill="white" stroke="black" points="798,-492.5 798,-511.5 938,-511.5 938,-492.5 798,-492.5"/>
<text text-anchor="middle" x="868" y="-499.5" font-family="Helvetica,sans-Serif" font-size="10.00">odp/api/schedule_types.h</text>
</a>
</g>
</g>
<!-- Node22&#45;&gt;Node23 -->
<g id="edge31" class="edge">
<title>Node22&#45;&gt;Node23</title>
<path fill="none" stroke="midnightblue" d="M868,-548.4C868,-540.47 868,-530.46 868,-521.86"/>
<polygon fill="midnightblue" stroke="midnightblue" points="871.5,-521.66 868,-511.66 864.5,-521.66 871.5,-521.66"/>
</g>
<!-- Node24 -->
<g id="node24" class="node">
<title>Node24</title>
<g id="a_node24"><a xlink:title=" ">
<polygon fill="white" stroke="#bfbfbf" points="915.5,-425.5 915.5,-455.5 1032.5,-455.5 1032.5,-425.5 915.5,-425.5"/>
<text text-anchor="start" x="923.5" y="-443.5" font-family="Helvetica,sans-Serif" font-size="10.00">odp/api/abi/schedule</text>
<text text-anchor="middle" x="974" y="-432.5" font-family="Helvetica,sans-Serif" font-size="10.00">_types.h</text>
</a>
</g>
</g>
<!-- Node23&#45;&gt;Node24 -->
<g id="edge32" class="edge">
<title>Node23&#45;&gt;Node24</title>
<path fill="none" stroke="midnightblue" d="M883.19,-492.48C898.01,-484.15 921.08,-471.21 940.25,-460.45"/>
<polygon fill="midnightblue" stroke="midnightblue" points="942.01,-463.47 949.02,-455.52 938.58,-457.37 942.01,-463.47"/>
</g>
<!-- Node25 -->
<g id="node25" class="node">
<title>Node25</title>
<g id="a_node25"><a xlink:href="spec_2schedule__types_8h.html" target="_top" xlink:title=" ">
<polygon fill="white" stroke="black" points="772.5,-425.5 772.5,-455.5 897.5,-455.5 897.5,-425.5 772.5,-425.5"/>
<text text-anchor="start" x="780.5" y="-443.5" font-family="Helvetica,sans-Serif" font-size="10.00">odp/api/spec/schedule</text>
<text text-anchor="middle" x="835" y="-432.5" font-family="Helvetica,sans-Serif" font-size="10.00">_types.h</text>
</a>
</g>
</g>
<!-- Node23&#45;&gt;Node25 -->
<g id="edge33" class="edge">
<title>Node23&#45;&gt;Node25</title>
<path fill="none" stroke="midnightblue" d="M863.27,-492.48C859.22,-485.17 853.19,-474.3 847.74,-464.47"/>
<polygon fill="midnightblue" stroke="midnightblue" points="850.69,-462.57 842.78,-455.52 844.57,-465.97 850.69,-462.57"/>
</g>
<!-- Node25&#45;&gt;Node2 -->
<g id="edge34" class="edge">
<title>Node25&#45;&gt;Node2</title>
<path fill="none" stroke="midnightblue" d="M772.36,-435.93C635.88,-426.8 318.14,-397.73 247,-322 223.16,-296.62 228,-280.82 228,-246 228,-246 228,-246 228,-132 228,-94.07 244.06,-52 254.43,-28.8"/>
<polygon fill="midnightblue" stroke="midnightblue" points="257.68,-30.1 258.71,-19.56 251.33,-27.16 257.68,-30.1"/>
</g>
<!-- Node25&#45;&gt;Node12 -->
<g id="edge35" class="edge">
<title>Node25&#45;&gt;Node12</title>
<path fill="none" stroke="midnightblue" d="M827.72,-425.07C822.78,-415.05 816.21,-401.34 811,-389 792.45,-345.05 773.76,-292.13 764.31,-264.64"/>
<polygon fill="midnightblue" stroke="midnightblue" points="767.5,-263.14 760.96,-254.81 760.88,-265.41 767.5,-263.14"/>
</g>
<!-- Node25&#45;&gt;Node19 -->
<g id="edge42" class="edge">
<title>Node25&#45;&gt;Node19</title>
<path fill="none" stroke="midnightblue" d="M891.94,-425.44C948.09,-409 1033.22,-376.81 1088,-322 1169.39,-240.57 1172.2,-199.43 1197,-87 1199.97,-73.55 1200.22,-69.4 1197,-56 1194.69,-46.42 1189.98,-36.58 1185.42,-28.56"/>
<polygon fill="midnightblue" stroke="midnightblue" points="1188.29,-26.54 1180.1,-19.81 1182.31,-30.17 1188.29,-26.54"/>
</g>
<!-- Node26 -->
<g id="node26" class="node">
<title>Node26</title>
<g id="a_node26"><a xlink:href="thrmask_8h.html" target="_top" xlink:title=" ">
<polygon fill="white" stroke="black" points="819.5,-364 819.5,-383 924.5,-383 924.5,-364 819.5,-364"/>
<text text-anchor="middle" x="872" y="-371" font-family="Helvetica,sans-Serif" font-size="10.00">odp/api/thrmask.h</text>
</a>
</g>
</g>
<!-- Node25&#45;&gt;Node26 -->
<g id="edge36" class="edge">
<title>Node25&#45;&gt;Node26</title>
<path fill="none" stroke="midnightblue" d="M843.03,-425.4C848.63,-415.56 856.13,-402.38 862.1,-391.89"/>
<polygon fill="midnightblue" stroke="midnightblue" points="865.15,-393.62 867.05,-383.19 859.06,-390.15 865.15,-393.62"/>
</g>
<!-- Node27 -->
<g id="node27" class="node">
<title>Node27</title>
<g id="a_node27"><a xlink:title=" ">
<polygon fill="white" stroke="#bfbfbf" points="955.5,-297 955.5,-316 1078.5,-316 1078.5,-297 955.5,-297"/>
<text text-anchor="middle" x="1017" y="-304" font-family="Helvetica,sans-Serif" font-size="10.00">odp/api/abi/thrmask.h</text>
</a>
</g>
</g>
<!-- Node26&#45;&gt;Node27 -->
<g id="edge37" class="edge">
<title>Node26&#45;&gt;Node27</title>
<path fill="none" stroke="midnightblue" d="M891.25,-363.87C916.17,-352.7 959.79,-333.15 988.53,-320.26"/>
<polygon fill="midnightblue" stroke="midnightblue" points="989.97,-323.45 997.67,-316.17 987.11,-317.06 989.97,-323.45"/>
</g>
<!-- Node28 -->
<g id="node28" class="node">
<title>Node28</title>
<g id="a_node28"><a xlink:href="spec_2thrmask_8h.html" target="_top" xlink:title=" ">
<polygon fill="white" stroke="black" points="806.5,-297 806.5,-316 937.5,-316 937.5,-297 806.5,-297"/>
<text text-anchor="middle" x="872" y="-304" font-family="Helvetica,sans-Serif" font-size="10.00">odp/api/spec/thrmask.h</text>
</a>
</g>
</g>
<!-- Node26&#45;&gt;Node28 -->
<g id="edge38" class="edge">
<title>Node26&#45;&gt;Node28</title>
<path fill="none" stroke="midnightblue" d="M872,-363.73C872,-354.18 872,-338.62 872,-326.28"/>
<polygon fill="midnightblue" stroke="midnightblue" points="875.5,-326.13 872,-316.13 868.5,-326.13 875.5,-326.13"/>
</g>
<!-- Node28&#45;&gt;Node2 -->
<g id="edge39" class="edge">
<title>Node28&#45;&gt;Node2</title>
<path fill="none" stroke="midnightblue" d="M868.29,-296.67C861.53,-281.68 845.79,-251.3 823,-235 775.63,-201.12 751.17,-220.39 697,-199 678.88,-191.85 675.64,-187.26 658,-179 524.48,-116.47 361.42,-50.25 294.22,-23.39"/>
<polygon fill="midnightblue" stroke="midnightblue" points="295.23,-20.03 284.65,-19.57 292.64,-26.53 295.23,-20.03"/>
</g>
<!-- Node28&#45;&gt;Node12 -->
<g id="edge40" class="edge">
<title>Node28&#45;&gt;Node12</title>
<path fill="none" stroke="midnightblue" d="M855.67,-296.98C836.79,-287.12 805.49,-270.79 783.42,-259.27"/>
<polygon fill="midnightblue" stroke="midnightblue" points="784.79,-256.03 774.3,-254.51 781.55,-262.24 784.79,-256.03"/>
</g>
<!-- Node28&#45;&gt;Node19 -->
<g id="edge41" class="edge">
<title>Node28&#45;&gt;Node19</title>
<path fill="none" stroke="midnightblue" d="M898.99,-296.99C939.68,-282.28 1012,-247.98 1012,-190 1012,-190 1012,-190 1012,-132 1012,-96.58 1011.07,-81.16 1036,-56 1055.1,-36.72 1082.56,-25.7 1107.96,-19.4"/>
<polygon fill="midnightblue" stroke="midnightblue" points="1108.96,-22.76 1117.94,-17.13 1107.41,-15.93 1108.96,-22.76"/>
</g>
<!-- Node29&#45;&gt;Node4 -->
<g id="edge46" class="edge">
<title>Node29&#45;&gt;Node4</title>
<path fill="none" stroke="midnightblue" d="M612.44,-738.48C614.46,-731.4 617.44,-720.97 620.17,-711.39"/>
<polygon fill="midnightblue" stroke="midnightblue" points="623.61,-712.1 622.99,-701.52 616.88,-710.18 623.61,-712.1"/>
</g>
<!-- Node30 -->
<g id="node30" class="node">
<title>Node30</title>
<g id="a_node30"><a xlink:href="spec_2packet__io__stats_8h.html" target="_top" xlink:title=" ">
<polygon fill="white" stroke="black" points="736.5,-671.5 736.5,-701.5 849.5,-701.5 849.5,-671.5 736.5,-671.5"/>
<text text-anchor="start" x="744.5" y="-689.5" font-family="Helvetica,sans-Serif" font-size="10.00">odp/api/spec/packet</text>
<text text-anchor="middle" x="793" y="-678.5" font-family="Helvetica,sans-Serif" font-size="10.00">_io_stats.h</text>
</a>
</g>
</g>
<!-- Node29&#45;&gt;Node30 -->
<g id="edge47" class="edge">
<title>Node29&#45;&gt;Node30</title>
<path fill="none" stroke="midnightblue" d="M636.22,-738.48C663.2,-729.7 706,-715.79 740.06,-704.71"/>
<polygon fill="midnightblue" stroke="midnightblue" points="741.44,-707.94 749.87,-701.52 739.28,-701.29 741.44,-707.94"/>
</g>
<!-- Node30&#45;&gt;Node2 -->
<g id="edge48" class="edge">
<title>Node30&#45;&gt;Node2</title>
<path fill="none" stroke="midnightblue" d="M752.42,-671.44C611.51,-621.41 152,-447.51 152,-307.5 152,-307.5 152,-307.5 152,-132 152,-82.18 203.72,-44 236.55,-24.77"/>
<polygon fill="midnightblue" stroke="midnightblue" points="238.66,-27.6 245.66,-19.64 235.23,-21.51 238.66,-27.6"/>
</g>
<!-- Node30&#45;&gt;Node19 -->
<g id="edge50" class="edge">
<title>Node30&#45;&gt;Node19</title>
<path fill="none" stroke="midnightblue" d="M849.57,-676.77C914.65,-664.37 1022.02,-636.47 1096,-579 1206.53,-493.14 1216.73,-447.84 1278,-322 1330.56,-214.06 1302.43,-152.49 1231,-56 1222,-43.85 1208.92,-33.2 1197.56,-25.32"/>
<polygon fill="midnightblue" stroke="midnightblue" points="1199.21,-22.21 1188.93,-19.62 1195.35,-28.05 1199.21,-22.21"/>
</g>
<!-- Node30&#45;&gt;Node20 -->
<g id="edge49" class="edge">
<title>Node30&#45;&gt;Node20</title>
<path fill="none" stroke="midnightblue" d="M812.91,-671.4C825.99,-662.13 843.08,-650.03 856.32,-640.65"/>
<polygon fill="midnightblue" stroke="midnightblue" points="858.64,-643.29 864.78,-634.66 854.59,-637.58 858.64,-643.29"/>
</g>
<!-- Node32 -->
<g id="node32" class="node">
<title>Node32</title>
<g id="a_node32"><a xlink:title=" ">
<polygon fill="white" stroke="#bfbfbf" points="906,-906.5 906,-925.5 1042,-925.5 1042,-906.5 906,-906.5"/>
<text text-anchor="middle" x="974" y="-913.5" font-family="Helvetica,sans-Serif" font-size="10.00">odp/api/abi/pool_types.h</text>
</a>
</g>
</g>
<!-- Node31&#45;&gt;Node32 -->
<g id="edge52" class="edge">
<title>Node31&#45;&gt;Node32</title>
<path fill="none" stroke="midnightblue" d="M974,-962.08C974,-955.01 974,-944.86 974,-935.99"/>
<polygon fill="midnightblue" stroke="midnightblue" points="977.5,-935.75 974,-925.75 970.5,-935.75 977.5,-935.75"/>
</g>
<!-- Node33 -->
<g id="node33" class="node">
<title>Node33</title>
<g id="a_node33"><a xlink:href="spec_2pool__types_8h.html" target="_top" xlink:title=" ">
<polygon fill="white" stroke="black" points="1060.5,-906.5 1060.5,-925.5 1203.5,-925.5 1203.5,-906.5 1060.5,-906.5"/>
<text text-anchor="middle" x="1132" y="-913.5" font-family="Helvetica,sans-Serif" font-size="10.00">odp/api/spec/pool_types.h</text>
</a>
</g>
</g>
<!-- Node31&#45;&gt;Node33 -->
<g id="edge53" class="edge">
<title>Node31&#45;&gt;Node33</title>
<path fill="none" stroke="midnightblue" d="M999.04,-962.44C1025.62,-953.36 1067.81,-938.94 1097.52,-928.78"/>
<polygon fill="midnightblue" stroke="midnightblue" points="1098.75,-932.06 1107.08,-925.52 1096.49,-925.44 1098.75,-932.06"/>
</g>
<!-- Node33&#45;&gt;Node2 -->
<g id="edge54" class="edge">
<title>Node33&#45;&gt;Node2</title>
<path fill="none" stroke="midnightblue" d="M1075.59,-906.46C923.62,-882.95 508.61,-815.18 383,-758 170.76,-661.38 114,-540.7 114,-307.5 114,-307.5 114,-307.5 114,-132 114,-74.69 181.25,-39.77 225.39,-23.02"/>
<polygon fill="midnightblue" stroke="midnightblue" points="226.78,-26.24 234.97,-19.53 224.38,-19.67 226.78,-26.24"/>
</g>
<!-- Node33&#45;&gt;Node12 -->
<g id="edge55" class="edge">
<title>Node33&#45;&gt;Node12</title>
<path fill="none" stroke="midnightblue" d="M1129.71,-906.23C1125.07,-887.69 1115,-843.07 1115,-805 1115,-805 1115,-805 1115,-562.5 1115,-441.24 1172.17,-378.29 1088,-291 1052.71,-254.4 910.19,-246.85 824.41,-245.71"/>
<polygon fill="midnightblue" stroke="midnightblue" points="824.28,-242.21 814.24,-245.6 824.2,-249.21 824.28,-242.21"/>
</g>
<!-- Node33&#45;&gt;Node19 -->
<g id="edge69" class="edge">
<title>Node33&#45;&gt;Node19</title>
<path fill="none" stroke="midnightblue" d="M1203.61,-909.9C1318.2,-899.75 1530,-871.94 1530,-805 1530,-805 1530,-805 1530,-132 1530,-95 1525.58,-78.23 1496,-56 1456.8,-26.54 1322.48,-16.34 1240.21,-12.83"/>
<polygon fill="midnightblue" stroke="midnightblue" points="1240.34,-9.33 1230.2,-12.42 1240.05,-16.32 1240.34,-9.33"/>
</g>
<!-- Node34 -->
<g id="node34" class="node">
<title>Node34</title>
<g id="a_node34"><a xlink:href="dma__types_8h.html" target="_top" xlink:title=" ">
<polygon fill="white" stroke="black" points="1152.5,-850.5 1152.5,-869.5 1271.5,-869.5 1271.5,-850.5 1152.5,-850.5"/>
<text text-anchor="middle" x="1212" y="-857.5" font-family="Helvetica,sans-Serif" font-size="10.00">odp/api/dma_types.h</text>
</a>
</g>
</g>
<!-- Node33&#45;&gt;Node34 -->
<g id="edge56" class="edge">
<title>Node33&#45;&gt;Node34</title>
<path fill="none" stroke="midnightblue" d="M1144.85,-906.32C1157.22,-897.98 1176.13,-885.21 1190.74,-875.35"/>
<polygon fill="midnightblue" stroke="midnightblue" points="1192.85,-878.15 1199.18,-869.65 1188.93,-872.35 1192.85,-878.15"/>
</g>
<!-- Node35 -->
<g id="node35" class="node">
<title>Node35</title>
<g id="a_node35"><a xlink:title=" ">
<polygon fill="white" stroke="#bfbfbf" points="1143.5,-794.5 1143.5,-813.5 1280.5,-813.5 1280.5,-794.5 1143.5,-794.5"/>
<text text-anchor="middle" x="1212" y="-801.5" font-family="Helvetica,sans-Serif" font-size="10.00">odp/api/abi/dma_types.h</text>
</a>
</g>
</g>
<!-- Node34&#45;&gt;Node35 -->
<g id="edge57" class="edge">
<title>Node34&#45;&gt;Node35</title>
<path fill="none" stroke="midnightblue" d="M1212,-850.08C1212,-843.01 1212,-832.86 1212,-823.99"/>
<polygon fill="midnightblue" stroke="midnightblue" points="1215.5,-823.75 1212,-813.75 1208.5,-823.75 1215.5,-823.75"/>
</g>
<!-- Node36 -->
<g id="node36" class="node">
<title>Node36</title>
<g id="a_node36"><a xlink:href="spec_2dma__types_8h.html" target="_top" xlink:title=" ">
<polygon fill="white" stroke="black" points="1299,-794.5 1299,-813.5 1443,-813.5 1443,-794.5 1299,-794.5"/>
<text text-anchor="middle" x="1371" y="-801.5" font-family="Helvetica,sans-Serif" font-size="10.00">odp/api/spec/dma_types.h</text>
</a>
</g>
</g>
<!-- Node34&#45;&gt;Node36 -->
<g id="edge58" class="edge">
<title>Node34&#45;&gt;Node36</title>
<path fill="none" stroke="midnightblue" d="M1237.19,-850.44C1263.94,-841.36 1306.4,-826.94 1336.31,-816.78"/>
<polygon fill="midnightblue" stroke="midnightblue" points="1337.58,-820.05 1345.92,-813.52 1335.33,-813.42 1337.58,-820.05"/>
</g>
<!-- Node36&#45;&gt;Node2 -->
<g id="edge59" class="edge">
<title>Node36&#45;&gt;Node2</title>
<path fill="none" stroke="midnightblue" d="M1360.83,-794.27C1341.2,-776.39 1300,-733.4 1300,-687.5 1300,-687.5 1300,-687.5 1300,-501 1300,-358.93 973.76,-106.57 841,-56 750.13,-21.39 467.17,-13.39 333.85,-11.55"/>
<polygon fill="midnightblue" stroke="midnightblue" points="333.78,-8.05 323.74,-11.41 333.69,-15.04 333.78,-8.05"/>
</g>
<!-- Node36&#45;&gt;Node6 -->
<g id="edge65" class="edge">
<title>Node36&#45;&gt;Node6</title>
<path fill="none" stroke="midnightblue" d="M1298.6,-794.73C1295.7,-794.47 1292.82,-794.22 1290,-794 956.63,-767.6 869.22,-786.04 531.61,-757.98"/>
<polygon fill="midnightblue" stroke="midnightblue" points="531.8,-754.48 521.54,-757.13 531.22,-761.46 531.8,-754.48"/>
</g>
<!-- Node36&#45;&gt;Node12 -->
<g id="edge67" class="edge">
<title>Node36&#45;&gt;Node12</title>
<path fill="none" stroke="midnightblue" d="M1325.58,-794.48C1272.25,-781.55 1191,-751.36 1191,-687.5 1191,-687.5 1191,-687.5 1191,-562.5 1191,-437.89 1214.61,-373.25 1121,-291 1078.18,-253.38 916.91,-246.39 824.37,-245.58"/>
<polygon fill="midnightblue" stroke="midnightblue" points="824.29,-242.07 814.26,-245.51 824.24,-249.07 824.29,-242.07"/>
</g>
<!-- Node36&#45;&gt;Node19 -->
<g id="edge68" class="edge">
<title>Node36&#45;&gt;Node19</title>
<path fill="none" stroke="midnightblue" d="M1392.08,-794.44C1426.74,-778.79 1492,-742.1 1492,-687.5 1492,-687.5 1492,-687.5 1492,-132 1492,-97.18 1498.77,-79.42 1473,-56 1439.82,-25.85 1317.78,-15.9 1240.25,-12.62"/>
<polygon fill="midnightblue" stroke="midnightblue" points="1240.21,-9.11 1230.08,-12.21 1239.94,-16.11 1240.21,-9.11"/>
</g>
<!-- Node36&#45;&gt;Node20 -->
<g id="edge66" class="edge">
<title>Node36&#45;&gt;Node20</title>
<path fill="none" stroke="midnightblue" d="M1322.88,-794.43C1283.19,-786.76 1225.72,-774.21 1177,-758 1072,-723.06 953.41,-665.03 902.47,-639.16"/>
<polygon fill="midnightblue" stroke="midnightblue" points="903.98,-636 893.48,-634.57 900.8,-642.23 903.98,-636"/>
</g>
<!-- Node37 -->
<g id="node37" class="node">
<title>Node37</title>
<g id="a_node37"><a xlink:href="event__types_8h.html" target="_top" xlink:title=" ">
<polygon fill="white" stroke="black" points="1320.5,-123.5 1320.5,-142.5 1445.5,-142.5 1445.5,-123.5 1320.5,-123.5"/>
<text text-anchor="middle" x="1383" y="-130.5" font-family="Helvetica,sans-Serif" font-size="10.00">odp/api/event_types.h</text>
</a>
</g>
</g>
<!-- Node36&#45;&gt;Node37 -->
<g id="edge60" class="edge">
<title>Node36&#45;&gt;Node37</title>
<path fill="none" stroke="midnightblue" d="M1372.01,-794.32C1374.17,-775.1 1379,-727.5 1379,-687.5 1379,-687.5 1379,-687.5 1379,-244 1379,-211.93 1380.72,-174.63 1381.9,-152.74"/>
<polygon fill="midnightblue" stroke="midnightblue" points="1385.41,-152.73 1382.48,-142.55 1378.42,-152.34 1385.41,-152.73"/>
</g>
<!-- Node38 -->
<g id="node38" class="node">
<title>Node38</title>
<g id="a_node38"><a xlink:title=" ">
<polygon fill="white" stroke="#bfbfbf" points="1320.5,-62 1320.5,-81 1463.5,-81 1463.5,-62 1320.5,-62"/>
<text text-anchor="middle" x="1392" y="-69" font-family="Helvetica,sans-Serif" font-size="10.00">odp/api/abi/event_types.h</text>
</a>
</g>
</g>
<!-- Node37&#45;&gt;Node38 -->
<g id="edge61" class="edge">
<title>Node37&#45;&gt;Node38</title>
<path fill="none" stroke="midnightblue" d="M1384.29,-123.48C1385.56,-115.08 1387.54,-101.98 1389.18,-91.16"/>
<polygon fill="midnightblue" stroke="midnightblue" points="1392.68,-91.42 1390.71,-81.01 1385.76,-90.37 1392.68,-91.42"/>
</g>
<!-- Node39 -->
<g id="node39" class="node">
<title>Node39</title>
<g id="a_node39"><a xlink:href="spec_2event__types_8h.html" target="_top" xlink:title=" ">
<polygon fill="white" stroke="black" points="1078.5,-56.5 1078.5,-86.5 1187.5,-86.5 1187.5,-56.5 1078.5,-56.5"/>
<text text-anchor="start" x="1086.5" y="-74.5" font-family="Helvetica,sans-Serif" font-size="10.00">odp/api/spec/event</text>
<text text-anchor="middle" x="1133" y="-63.5" font-family="Helvetica,sans-Serif" font-size="10.00">_types.h</text>
</a>
</g>
</g>
<!-- Node37&#45;&gt;Node39 -->
<g id="edge62" class="edge">
<title>Node37&#45;&gt;Node39</title>
<path fill="none" stroke="midnightblue" d="M1347.18,-123.48C1308.23,-114.21 1245.18,-99.2 1197.55,-87.86"/>
<polygon fill="midnightblue" stroke="midnightblue" points="1198.17,-84.41 1187.63,-85.5 1196.55,-91.22 1198.17,-84.41"/>
</g>
<!-- Node39&#45;&gt;Node2 -->
<g id="edge63" class="edge">
<title>Node39&#45;&gt;Node2</title>
<path fill="none" stroke="midnightblue" d="M1078.25,-66.76C926.83,-56.4 502.53,-27.38 333.65,-15.83"/>
<polygon fill="midnightblue" stroke="midnightblue" points="333.84,-12.34 323.62,-15.15 333.36,-19.32 333.84,-12.34"/>
</g>
<!-- Node39&#45;&gt;Node19 -->
<g id="edge64" class="edge">
<title>Node39&#45;&gt;Node19</title>
<path fill="none" stroke="midnightblue" d="M1142.72,-56.4C1148.55,-47.93 1156.02,-37.1 1162.19,-28.14"/>
<polygon fill="midnightblue" stroke="midnightblue" points="1165.24,-29.88 1168.03,-19.66 1159.48,-25.91 1165.24,-29.88"/>
</g>
<!-- Node41 -->
<g id="node41" class="node">
<title>Node41</title>
<g id="a_node41"><a xlink:href="spec_2reassembly_8h.html" target="_top" xlink:title=" ">
<polygon fill="white" stroke="black" points="256,-297 256,-316 402,-316 402,-297 256,-297"/>
<text text-anchor="middle" x="329" y="-304" font-family="Helvetica,sans-Serif" font-size="10.00">odp/api/spec/reassembly.h</text>
</a>
</g>
</g>
<!-- Node40&#45;&gt;Node41 -->
<g id="edge72" class="edge">
<title>Node40&#45;&gt;Node41</title>
<path fill="none" stroke="midnightblue" d="M399.61,-962.34C356.27,-930.89 214,-817.77 214,-687.5 214,-687.5 214,-687.5 214,-624 214,-503.38 288.7,-371.6 317.69,-325"/>
<polygon fill="midnightblue" stroke="midnightblue" points="320.75,-326.71 323.14,-316.39 314.84,-322.97 320.75,-326.71"/>
</g>
<!-- Node41&#45;&gt;Node2 -->
<g id="edge73" class="edge">
<title>Node41&#45;&gt;Node2</title>
<path fill="none" stroke="midnightblue" d="M324.95,-296.73C316.54,-277.72 298,-231.11 298,-190 298,-190 298,-190 298,-132 298,-94.07 281.94,-52 271.57,-28.8"/>
<polygon fill="midnightblue" stroke="midnightblue" points="274.67,-27.16 267.29,-19.56 268.32,-30.1 274.67,-27.16"/>
</g>
<!-- Node41&#45;&gt;Node12 -->
<g id="edge74" class="edge">
<title>Node41&#45;&gt;Node12</title>
<path fill="none" stroke="midnightblue" d="M378.64,-296.92C390.84,-294.9 403.88,-292.81 416,-291 511.64,-276.74 622.68,-262.57 691.65,-254.05"/>
<polygon fill="midnightblue" stroke="midnightblue" points="692.44,-257.47 701.94,-252.78 691.58,-250.53 692.44,-257.47"/>
</g>
<!-- Node41&#45;&gt;Node19 -->
<g id="edge75" class="edge">
<title>Node41&#45;&gt;Node19</title>
<path fill="none" stroke="midnightblue" d="M369.78,-297C433.88,-283.66 562.12,-257.05 671,-235 751.39,-218.72 781.51,-240.93 852,-199 923.06,-156.74 900.4,-99.04 971,-56 1012.29,-30.83 1065.95,-19.68 1107.73,-14.77"/>
<polygon fill="midnightblue" stroke="midnightblue" points="1108.24,-18.23 1117.81,-13.68 1107.49,-11.27 1108.24,-18.23"/>
</g>
</g>
</svg>
