<?xml version="1.0" encoding="UTF-8" standalone="no"?>
<!DOCTYPE svg PUBLIC "-//W3C//DTD SVG 1.1//EN"
 "http://www.w3.org/Graphics/SVG/1.1/DTD/svg11.dtd">
<!-- Generated by graphviz version 2.43.0 (0)
 -->
<!-- Title: std_types.h Pages: 1 -->
<svg width="4192pt" height="252pt"
 viewBox="0.00 0.00 4192.00 252.00" xmlns="http://www.w3.org/2000/svg" xmlns:xlink="http://www.w3.org/1999/xlink">
<g id="graph0" class="graph" transform="scale(1 1) rotate(0) translate(4 248)">
<title>std_types.h</title>
<polygon fill="white" stroke="transparent" points="-4,4 -4,-248 4188,-248 4188,4 -4,4"/>
<!-- Node1 -->
<g id="node1" class="node">
<title>Node1</title>
<g id="a_node1"><a xlink:title=" ">
<polygon fill="#bfbfbf" stroke="black" points="2008,-224.5 2008,-243.5 2081,-243.5 2081,-224.5 2008,-224.5"/>
<text text-anchor="middle" x="2044.5" y="-231.5" font-family="Helvetica,sans-Serif" font-size="10.00">std_types.h</text>
</a>
</g>
</g>
<!-- Node2 -->
<g id="node2" class="node">
<title>Node2</title>
<g id="a_node2"><a xlink:href="std__types_8h.html" target="_top" xlink:title=" ">
<polygon fill="white" stroke="black" points="2008,-168.5 2008,-187.5 2081,-187.5 2081,-168.5 2008,-168.5"/>
<text text-anchor="middle" x="2044.5" y="-175.5" font-family="Helvetica,sans-Serif" font-size="10.00">std_types.h</text>
</a>
</g>
</g>
<!-- Node1&#45;&gt;Node2 -->
<g id="edge1" class="edge">
<title>Node1&#45;&gt;Node2</title>
<path fill="none" stroke="midnightblue" d="M2044.5,-213.8C2044.5,-204.91 2044.5,-194.78 2044.5,-187.75"/>
<polygon fill="midnightblue" stroke="midnightblue" points="2041,-214.08 2044.5,-224.08 2048,-214.08 2041,-214.08"/>
</g>
<!-- Node3 -->
<g id="node3" class="node">
<title>Node3</title>
<g id="a_node3"><a xlink:href="abi-default_2atomic_8h.html" target="_top" xlink:title=" ">
<polygon fill="white" stroke="black" points="0,-112.5 0,-131.5 59,-131.5 59,-112.5 0,-112.5"/>
<text text-anchor="middle" x="29.5" y="-119.5" font-family="Helvetica,sans-Serif" font-size="10.00">atomic.h</text>
</a>
</g>
</g>
<!-- Node2&#45;&gt;Node3 -->
<g id="edge2" class="edge">
<title>Node2&#45;&gt;Node3</title>
<path fill="none" stroke="midnightblue" d="M1997.7,-177.27C1736.66,-178.55 458.16,-182.14 67.5,-132 64.81,-131.65 62.03,-131.2 59.26,-130.67"/>
<polygon fill="midnightblue" stroke="midnightblue" points="1997.99,-180.77 2007.97,-177.21 1997.95,-173.77 1997.99,-180.77"/>
</g>
<!-- Node4 -->
<g id="node4" class="node">
<title>Node4</title>
<g id="a_node4"><a xlink:href="abi-default_2barrier_8h.html" target="_top" xlink:title=" ">
<polygon fill="white" stroke="black" points="77,-112.5 77,-131.5 134,-131.5 134,-112.5 77,-112.5"/>
<text text-anchor="middle" x="105.5" y="-119.5" font-family="Helvetica,sans-Serif" font-size="10.00">barrier.h</text>
</a>
</g>
</g>
<!-- Node2&#45;&gt;Node4 -->
<g id="edge3" class="edge">
<title>Node2&#45;&gt;Node4</title>
<path fill="none" stroke="midnightblue" d="M1997.87,-177.22C1743.21,-178.2 518.32,-180.28 143.5,-132 140.41,-131.6 137.2,-131.06 134.02,-130.43"/>
<polygon fill="midnightblue" stroke="midnightblue" points="1997.91,-180.72 2007.9,-177.18 1997.88,-173.72 1997.91,-180.72"/>
</g>
<!-- Node5 -->
<g id="node5" class="node">
<title>Node5</title>
<g id="a_node5"><a xlink:href="abi-default_2byteorder_8h.html" target="_top" xlink:title=" ">
<polygon fill="white" stroke="black" points="152.5,-112.5 152.5,-131.5 224.5,-131.5 224.5,-112.5 152.5,-112.5"/>
<text text-anchor="middle" x="188.5" y="-119.5" font-family="Helvetica,sans-Serif" font-size="10.00">byteorder.h</text>
</a>
</g>
</g>
<!-- Node2&#45;&gt;Node5 -->
<g id="edge4" class="edge">
<title>Node2&#45;&gt;Node5</title>
<path fill="none" stroke="midnightblue" d="M1997.76,-176.93C1750.21,-176.4 590.17,-171.8 233.5,-132 230.65,-131.68 227.71,-131.28 224.77,-130.81"/>
<polygon fill="midnightblue" stroke="midnightblue" points="1997.85,-180.43 2007.85,-176.95 1997.86,-173.43 1997.85,-180.43"/>
</g>
<!-- Node6 -->
<g id="node6" class="node">
<title>Node6</title>
<g id="a_node6"><a xlink:href="abi-default_2cpumask_8h.html" target="_top" xlink:title=" ">
<polygon fill="white" stroke="black" points="242.5,-112.5 242.5,-131.5 312.5,-131.5 312.5,-112.5 242.5,-112.5"/>
<text text-anchor="middle" x="277.5" y="-119.5" font-family="Helvetica,sans-Serif" font-size="10.00">cpumask.h</text>
</a>
</g>
</g>
<!-- Node2&#45;&gt;Node6 -->
<g id="edge5" class="edge">
<title>Node2&#45;&gt;Node6</title>
<path fill="none" stroke="midnightblue" d="M1997.74,-176.89C1757.45,-176.15 659.66,-170.7 321.5,-132 318.71,-131.68 315.84,-131.27 312.96,-130.81"/>
<polygon fill="midnightblue" stroke="midnightblue" points="1997.87,-180.39 2007.89,-176.92 1997.9,-173.39 1997.87,-180.39"/>
</g>
<!-- Node7 -->
<g id="node7" class="node">
<title>Node7</title>
<g id="a_node7"><a xlink:href="abi-default_2init_8h.html" target="_top" xlink:title=" ">
<polygon fill="white" stroke="black" points="331,-112.5 331,-131.5 372,-131.5 372,-112.5 331,-112.5"/>
<text text-anchor="middle" x="351.5" y="-119.5" font-family="Helvetica,sans-Serif" font-size="10.00">init.h</text>
</a>
</g>
</g>
<!-- Node2&#45;&gt;Node7 -->
<g id="edge6" class="edge">
<title>Node2&#45;&gt;Node7</title>
<path fill="none" stroke="midnightblue" d="M1997.38,-176.49C1743.45,-173.67 543.53,-158.98 380.5,-132 377.8,-131.55 374.99,-130.92 372.24,-130.18"/>
<polygon fill="midnightblue" stroke="midnightblue" points="1997.69,-180 2007.73,-176.61 1997.77,-173 1997.69,-180"/>
</g>
<!-- Node8 -->
<g id="node8" class="node">
<title>Node8</title>
<g id="a_node8"><a xlink:href="abi-default_2ipsec__types_8h_source.html" target="_top" xlink:title=" ">
<polygon fill="white" stroke="black" points="390,-112.5 390,-131.5 473,-131.5 473,-112.5 390,-112.5"/>
<text text-anchor="middle" x="431.5" y="-119.5" font-family="Helvetica,sans-Serif" font-size="10.00">ipsec_types.h</text>
</a>
</g>
</g>
<!-- Node2&#45;&gt;Node8 -->
<g id="edge7" class="edge">
<title>Node2&#45;&gt;Node8</title>
<path fill="none" stroke="midnightblue" d="M1997.48,-176.57C1770.59,-174.36 787.36,-163.12 482.5,-132 479.46,-131.69 476.33,-131.3 473.18,-130.87"/>
<polygon fill="midnightblue" stroke="midnightblue" points="1997.67,-180.07 2007.71,-176.67 1997.74,-173.07 1997.67,-180.07"/>
</g>
<!-- Node9 -->
<g id="node9" class="node">
<title>Node9</title>
<g id="a_node9"><a xlink:href="abi-default_2packet__io__types_8h.html" target="_top" xlink:title=" ">
<polygon fill="white" stroke="black" points="491.5,-112.5 491.5,-131.5 595.5,-131.5 595.5,-112.5 491.5,-112.5"/>
<text text-anchor="middle" x="543.5" y="-119.5" font-family="Helvetica,sans-Serif" font-size="10.00">packet_io_types.h</text>
</a>
</g>
</g>
<!-- Node2&#45;&gt;Node9 -->
<g id="edge8" class="edge">
<title>Node2&#45;&gt;Node9</title>
<path fill="none" stroke="midnightblue" d="M1997.72,-176.26C1782.31,-172.77 884.4,-156.94 604.5,-132 601.62,-131.74 598.67,-131.44 595.7,-131.11"/>
<polygon fill="midnightblue" stroke="midnightblue" points="1997.7,-179.76 2007.75,-176.43 1997.81,-172.77 1997.7,-179.76"/>
</g>
<!-- Node10 -->
<g id="node10" class="node">
<title>Node10</title>
<g id="a_node10"><a xlink:href="abi-default_2rwlock__recursive_8h.html" target="_top" xlink:title=" ">
<polygon fill="white" stroke="black" points="613.5,-112.5 613.5,-131.5 721.5,-131.5 721.5,-112.5 613.5,-112.5"/>
<text text-anchor="middle" x="667.5" y="-119.5" font-family="Helvetica,sans-Serif" font-size="10.00">rwlock_recursive.h</text>
</a>
</g>
</g>
<!-- Node2&#45;&gt;Node10 -->
<g id="edge9" class="edge">
<title>Node2&#45;&gt;Node10</title>
<path fill="none" stroke="midnightblue" d="M1997.71,-177.22C1827.45,-177.62 1224.92,-175.65 730.5,-132 727.64,-131.75 724.71,-131.45 721.75,-131.13"/>
<polygon fill="midnightblue" stroke="midnightblue" points="1997.84,-180.72 2007.83,-177.19 1997.82,-173.72 1997.84,-180.72"/>
</g>
<!-- Node11 -->
<g id="node11" class="node">
<title>Node11</title>
<g id="a_node11"><a xlink:href="abi-default_2schedule__types_8h.html" target="_top" xlink:title=" ">
<polygon fill="white" stroke="black" points="740,-112.5 740,-131.5 841,-131.5 841,-112.5 740,-112.5"/>
<text text-anchor="middle" x="790.5" y="-119.5" font-family="Helvetica,sans-Serif" font-size="10.00">schedule_types.h</text>
</a>
</g>
</g>
<!-- Node2&#45;&gt;Node11 -->
<g id="edge10" class="edge">
<title>Node2&#45;&gt;Node11</title>
<path fill="none" stroke="midnightblue" d="M1997.28,-177.1C1836.43,-177.06 1295.18,-173.6 850.5,-132 847.46,-131.72 844.34,-131.38 841.19,-131.01"/>
<polygon fill="midnightblue" stroke="midnightblue" points="1997.76,-180.6 2007.76,-177.1 1997.76,-173.6 1997.76,-180.6"/>
</g>
<!-- Node12 -->
<g id="node12" class="node">
<title>Node12</title>
<g id="a_node12"><a xlink:href="abi-default_2spinlock__recursive_8h.html" target="_top" xlink:title=" ">
<polygon fill="white" stroke="black" points="859.5,-112.5 859.5,-131.5 975.5,-131.5 975.5,-112.5 859.5,-112.5"/>
<text text-anchor="middle" x="917.5" y="-119.5" font-family="Helvetica,sans-Serif" font-size="10.00">spinlock_recursive.h</text>
</a>
</g>
</g>
<!-- Node2&#45;&gt;Node12 -->
<g id="edge11" class="edge">
<title>Node2&#45;&gt;Node12</title>
<path fill="none" stroke="midnightblue" d="M1997.68,-176.53C1849.11,-174.72 1375.11,-166.45 984.5,-132 981.58,-131.74 978.59,-131.45 975.57,-131.13"/>
<polygon fill="midnightblue" stroke="midnightblue" points="1997.77,-180.03 2007.81,-176.65 1997.85,-173.03 1997.77,-180.03"/>
</g>
<!-- Node13 -->
<g id="node13" class="node">
<title>Node13</title>
<g id="a_node13"><a xlink:href="abi-default_2traffic__mngr_8h.html" target="_top" xlink:title=" ">
<polygon fill="white" stroke="black" points="993.5,-112.5 993.5,-131.5 1077.5,-131.5 1077.5,-112.5 993.5,-112.5"/>
<text text-anchor="middle" x="1035.5" y="-119.5" font-family="Helvetica,sans-Serif" font-size="10.00">traffic_mngr.h</text>
</a>
</g>
</g>
<!-- Node2&#45;&gt;Node13 -->
<g id="edge12" class="edge">
<title>Node2&#45;&gt;Node13</title>
<path fill="none" stroke="midnightblue" d="M1997.51,-176.91C1858.11,-176.2 1434.86,-170.76 1086.5,-132 1083.64,-131.68 1080.7,-131.3 1077.74,-130.88"/>
<polygon fill="midnightblue" stroke="midnightblue" points="1997.81,-180.42 2007.82,-176.96 1997.84,-173.42 1997.81,-180.42"/>
</g>
<!-- Node14 -->
<g id="node14" class="node">
<title>Node14</title>
<g id="a_node14"><a xlink:href="barrier_8h.html" target="_top" xlink:title=" ">
<polygon fill="white" stroke="black" points="1096,-112.5 1096,-131.5 1153,-131.5 1153,-112.5 1096,-112.5"/>
<text text-anchor="middle" x="1124.5" y="-119.5" font-family="Helvetica,sans-Serif" font-size="10.00">barrier.h</text>
</a>
</g>
</g>
<!-- Node2&#45;&gt;Node14 -->
<g id="edge13" class="edge">
<title>Node2&#45;&gt;Node14</title>
<path fill="none" stroke="midnightblue" d="M1997.87,-177.14C1866.6,-177 1482.89,-172.85 1167.5,-132 1162.81,-131.39 1157.87,-130.55 1153.08,-129.63"/>
<polygon fill="midnightblue" stroke="midnightblue" points="1997.98,-180.64 2007.98,-177.15 1997.98,-173.64 1997.98,-180.64"/>
</g>
<!-- Node15 -->
<g id="node15" class="node">
<title>Node15</title>
<g id="a_node15"><a xlink:href="classification_8h.html" target="_top" xlink:title=" ">
<polygon fill="white" stroke="black" points="1221,-56.5 1221,-75.5 1310,-75.5 1310,-56.5 1221,-56.5"/>
<text text-anchor="middle" x="1265.5" y="-63.5" font-family="Helvetica,sans-Serif" font-size="10.00">classification.h</text>
</a>
</g>
</g>
<!-- Node2&#45;&gt;Node15 -->
<g id="edge14" class="edge">
<title>Node2&#45;&gt;Node15</title>
<path fill="none" stroke="midnightblue" d="M1997.8,-176.15C1829.81,-172.85 1264.72,-159.72 1238.5,-132 1223.05,-115.66 1243.76,-89.23 1256.63,-75.66"/>
<polygon fill="midnightblue" stroke="midnightblue" points="1997.76,-179.65 2007.82,-176.34 1997.89,-172.65 1997.76,-179.65"/>
</g>
<!-- Node16 -->
<g id="node16" class="node">
<title>Node16</title>
<g id="a_node16"><a xlink:href="spec_2ipsec__types_8h.html" target="_top" xlink:title=" ">
<polygon fill="white" stroke="red" points="1140,-0.5 1140,-19.5 1223,-19.5 1223,-0.5 1140,-0.5"/>
<text text-anchor="middle" x="1181.5" y="-7.5" font-family="Helvetica,sans-Serif" font-size="10.00">ipsec_types.h</text>
</a>
</g>
</g>
<!-- Node2&#45;&gt;Node16 -->
<g id="edge30" class="edge">
<title>Node2&#45;&gt;Node16</title>
<path fill="none" stroke="midnightblue" d="M1997.48,-177.33C1833.11,-178.11 1290.76,-177.18 1228.5,-132 1190.74,-104.6 1183.32,-42.4 1181.86,-19.59"/>
<polygon fill="midnightblue" stroke="midnightblue" points="1997.77,-180.83 2007.75,-177.28 1997.74,-173.83 1997.77,-180.83"/>
</g>
<!-- Node23 -->
<g id="node18" class="node">
<title>Node23</title>
<g id="a_node18"><a xlink:href="proto__stats_8h.html" target="_top" xlink:title=" ">
<polygon fill="white" stroke="black" points="1247.5,-112.5 1247.5,-131.5 1327.5,-131.5 1327.5,-112.5 1247.5,-112.5"/>
<text text-anchor="middle" x="1287.5" y="-119.5" font-family="Helvetica,sans-Serif" font-size="10.00">proto_stats.h</text>
</a>
</g>
</g>
<!-- Node2&#45;&gt;Node23 -->
<g id="edge17" class="edge">
<title>Node2&#45;&gt;Node23</title>
<path fill="none" stroke="midnightblue" d="M1997.87,-175.88C1884.44,-172.75 1585.25,-162.08 1337.5,-132 1334.26,-131.61 1330.91,-131.14 1327.56,-130.63"/>
<polygon fill="midnightblue" stroke="midnightblue" points="1997.85,-179.38 2007.94,-176.15 1998.04,-172.38 1997.85,-179.38"/>
</g>
<!-- Node24 -->
<g id="node19" class="node">
<title>Node24</title>
<g id="a_node19"><a xlink:href="spec_2buffer_8h.html" target="_top" xlink:title=" ">
<polygon fill="white" stroke="red" points="1346,-112.5 1346,-131.5 1399,-131.5 1399,-112.5 1346,-112.5"/>
<text text-anchor="middle" x="1372.5" y="-119.5" font-family="Helvetica,sans-Serif" font-size="10.00">buffer.h</text>
</a>
</g>
</g>
<!-- Node2&#45;&gt;Node24 -->
<g id="edge18" class="edge">
<title>Node2&#45;&gt;Node24</title>
<path fill="none" stroke="midnightblue" d="M1997.65,-176.47C1891.93,-174.67 1626.97,-166.76 1408.5,-132 1405.45,-131.51 1402.27,-130.89 1399.13,-130.21"/>
<polygon fill="midnightblue" stroke="midnightblue" points="1997.62,-179.97 2007.68,-176.63 1997.74,-172.97 1997.62,-179.97"/>
</g>
<!-- Node27 -->
<g id="node20" class="node">
<title>Node27</title>
<g id="a_node20"><a xlink:href="spec_2chksum_8h.html" target="_top" xlink:title=" ">
<polygon fill="white" stroke="red" points="1417.5,-112.5 1417.5,-131.5 1481.5,-131.5 1481.5,-112.5 1417.5,-112.5"/>
<text text-anchor="middle" x="1449.5" y="-119.5" font-family="Helvetica,sans-Serif" font-size="10.00">chksum.h</text>
</a>
</g>
</g>
<!-- Node2&#45;&gt;Node27 -->
<g id="edge19" class="edge">
<title>Node2&#45;&gt;Node27</title>
<path fill="none" stroke="midnightblue" d="M1997.55,-175.24C1901.89,-171.2 1677.73,-159.41 1491.5,-132 1488.25,-131.52 1484.88,-130.94 1481.53,-130.31"/>
<polygon fill="midnightblue" stroke="midnightblue" points="1997.62,-178.74 2007.75,-175.66 1997.91,-171.75 1997.62,-178.74"/>
</g>
<!-- Node29 -->
<g id="node21" class="node">
<title>Node29</title>
<g id="a_node21"><a xlink:href="spec_2classification_8h.html" target="_top" xlink:title=" ">
<polygon fill="white" stroke="black" points="1500,-112.5 1500,-131.5 1589,-131.5 1589,-112.5 1500,-112.5"/>
<text text-anchor="middle" x="1544.5" y="-119.5" font-family="Helvetica,sans-Serif" font-size="10.00">classification.h</text>
</a>
</g>
</g>
<!-- Node2&#45;&gt;Node29 -->
<g id="edge20" class="edge">
<title>Node2&#45;&gt;Node29</title>
<path fill="none" stroke="midnightblue" d="M1997.58,-173.27C1916.18,-166.57 1743.56,-151.39 1598.5,-132 1595.49,-131.6 1592.38,-131.15 1589.26,-130.69"/>
<polygon fill="midnightblue" stroke="midnightblue" points="1997.73,-176.79 2007.99,-174.12 1998.3,-169.82 1997.73,-176.79"/>
</g>
<!-- Node30 -->
<g id="node22" class="node">
<title>Node30</title>
<g id="a_node22"><a xlink:href="spec_2comp_8h.html" target="_top" xlink:title=" ">
<polygon fill="white" stroke="red" points="1607,-112.5 1607,-131.5 1660,-131.5 1660,-112.5 1607,-112.5"/>
<text text-anchor="middle" x="1633.5" y="-119.5" font-family="Helvetica,sans-Serif" font-size="10.00">comp.h</text>
</a>
</g>
</g>
<!-- Node2&#45;&gt;Node30 -->
<g id="edge22" class="edge">
<title>Node2&#45;&gt;Node30</title>
<path fill="none" stroke="midnightblue" d="M1997.81,-173.29C1926.59,-167.22 1786.74,-153.6 1669.5,-132 1666.46,-131.44 1663.29,-130.77 1660.15,-130.06"/>
<polygon fill="midnightblue" stroke="midnightblue" points="1997.55,-176.79 2007.81,-174.14 1998.14,-169.81 1997.55,-176.79"/>
</g>
<!-- Node32 -->
<g id="node23" class="node">
<title>Node32</title>
<g id="a_node23"><a xlink:href="spec_2cpu_8h.html" target="_top" xlink:title=" ">
<polygon fill="white" stroke="red" points="1678,-112.5 1678,-131.5 1721,-131.5 1721,-112.5 1678,-112.5"/>
<text text-anchor="middle" x="1699.5" y="-119.5" font-family="Helvetica,sans-Serif" font-size="10.00">cpu.h</text>
</a>
</g>
</g>
<!-- Node2&#45;&gt;Node32 -->
<g id="edge23" class="edge">
<title>Node2&#45;&gt;Node32</title>
<path fill="none" stroke="midnightblue" d="M1997.76,-172.37C1936.09,-165.8 1824.39,-152.25 1730.5,-132 1727.43,-131.34 1724.22,-130.54 1721.08,-129.68"/>
<polygon fill="midnightblue" stroke="midnightblue" points="1997.63,-175.88 2007.94,-173.44 1998.36,-168.92 1997.63,-175.88"/>
</g>
<!-- Node37 -->
<g id="node24" class="node">
<title>Node37</title>
<g id="a_node24"><a xlink:href="spec_2crypto_8h.html" target="_top" xlink:title=" ">
<polygon fill="white" stroke="red" points="1739.5,-112.5 1739.5,-131.5 1795.5,-131.5 1795.5,-112.5 1739.5,-112.5"/>
<text text-anchor="middle" x="1767.5" y="-119.5" font-family="Helvetica,sans-Serif" font-size="10.00">crypto.h</text>
</a>
</g>
</g>
<!-- Node2&#45;&gt;Node37 -->
<g id="edge24" class="edge">
<title>Node2&#45;&gt;Node37</title>
<path fill="none" stroke="midnightblue" d="M1997.82,-168.87C1949.55,-160.31 1872.07,-146.14 1805.5,-132 1802.32,-131.32 1798.99,-130.58 1795.69,-129.83"/>
<polygon fill="midnightblue" stroke="midnightblue" points="1997.5,-172.37 2007.95,-170.66 1998.71,-165.48 1997.5,-172.37"/>
</g>
<!-- Node39 -->
<g id="node25" class="node">
<title>Node39</title>
<g id="a_node25"><a xlink:href="spec_2crypto__types_8h.html" target="_top" xlink:title=" ">
<polygon fill="white" stroke="red" points="1814,-112.5 1814,-131.5 1903,-131.5 1903,-112.5 1814,-112.5"/>
<text text-anchor="middle" x="1858.5" y="-119.5" font-family="Helvetica,sans-Serif" font-size="10.00">crypto_types.h</text>
</a>
</g>
</g>
<!-- Node2&#45;&gt;Node39 -->
<g id="edge25" class="edge">
<title>Node2&#45;&gt;Node39</title>
<path fill="none" stroke="midnightblue" d="M2005.12,-165.57C1970.03,-155.38 1919.48,-140.7 1887.83,-131.52"/>
<polygon fill="midnightblue" stroke="midnightblue" points="2004.45,-169.02 2015.03,-168.44 2006.4,-162.29 2004.45,-169.02"/>
</g>
<!-- Node42 -->
<g id="node26" class="node">
<title>Node42</title>
<g id="a_node26"><a xlink:href="spec_2dma__types_8h.html" target="_top" xlink:title=" ">
<polygon fill="white" stroke="red" points="1921.5,-112.5 1921.5,-131.5 2001.5,-131.5 2001.5,-112.5 1921.5,-112.5"/>
<text text-anchor="middle" x="1961.5" y="-119.5" font-family="Helvetica,sans-Serif" font-size="10.00">dma_types.h</text>
</a>
</g>
</g>
<!-- Node2&#45;&gt;Node42 -->
<g id="edge26" class="edge">
<title>Node2&#45;&gt;Node42</title>
<path fill="none" stroke="midnightblue" d="M2022.4,-162.62C2007.24,-152.76 1987.62,-139.99 1974.8,-131.65"/>
<polygon fill="midnightblue" stroke="midnightblue" points="2020.87,-165.8 2031.16,-168.32 2024.69,-159.94 2020.87,-165.8"/>
</g>
<!-- Node62 -->
<g id="node27" class="node">
<title>Node62</title>
<g id="a_node27"><a xlink:href="spec_2hash_8h.html" target="_top" xlink:title=" ">
<polygon fill="white" stroke="red" points="2020,-112.5 2020,-131.5 2069,-131.5 2069,-112.5 2020,-112.5"/>
<text text-anchor="middle" x="2044.5" y="-119.5" font-family="Helvetica,sans-Serif" font-size="10.00">hash.h</text>
</a>
</g>
</g>
<!-- Node2&#45;&gt;Node62 -->
<g id="edge27" class="edge">
<title>Node2&#45;&gt;Node62</title>
<path fill="none" stroke="midnightblue" d="M2044.5,-157.8C2044.5,-148.91 2044.5,-138.78 2044.5,-131.75"/>
<polygon fill="midnightblue" stroke="midnightblue" points="2041,-158.08 2044.5,-168.08 2048,-158.08 2041,-158.08"/>
</g>
<!-- Node64 -->
<g id="node28" class="node">
<title>Node64</title>
<g id="a_node28"><a xlink:href="spec_2init_8h.html" target="_top" xlink:title=" ">
<polygon fill="white" stroke="red" points="2087,-112.5 2087,-131.5 2128,-131.5 2128,-112.5 2087,-112.5"/>
<text text-anchor="middle" x="2107.5" y="-119.5" font-family="Helvetica,sans-Serif" font-size="10.00">init.h</text>
</a>
</g>
</g>
<!-- Node2&#45;&gt;Node64 -->
<g id="edge28" class="edge">
<title>Node2&#45;&gt;Node64</title>
<path fill="none" stroke="midnightblue" d="M2062.54,-161.54C2073.77,-151.91 2087.82,-139.87 2097.19,-131.83"/>
<polygon fill="midnightblue" stroke="midnightblue" points="2059.94,-159.16 2054.62,-168.32 2064.49,-164.47 2059.94,-159.16"/>
</g>
<!-- Node18 -->
<g id="node29" class="node">
<title>Node18</title>
<g id="a_node29"><a xlink:href="spec_2ipsec_8h.html" target="_top" xlink:title=" ">
<polygon fill="white" stroke="red" points="2146,-112.5 2146,-131.5 2197,-131.5 2197,-112.5 2146,-112.5"/>
<text text-anchor="middle" x="2171.5" y="-119.5" font-family="Helvetica,sans-Serif" font-size="10.00">ipsec.h</text>
</a>
</g>
</g>
<!-- Node2&#45;&gt;Node18 -->
<g id="edge29" class="edge">
<title>Node2&#45;&gt;Node18</title>
<path fill="none" stroke="midnightblue" d="M2073.89,-164.5C2097.7,-154.38 2130.61,-140.39 2151.47,-131.52"/>
<polygon fill="midnightblue" stroke="midnightblue" points="2072.46,-161.31 2064.62,-168.44 2075.2,-167.75 2072.46,-161.31"/>
</g>
<!-- Node48 -->
<g id="node30" class="node">
<title>Node48</title>
<g id="a_node30"><a xlink:href="spec_2packet_8h.html" target="_top" xlink:title=" ">
<polygon fill="white" stroke="red" points="2215.5,-112.5 2215.5,-131.5 2273.5,-131.5 2273.5,-112.5 2215.5,-112.5"/>
<text text-anchor="middle" x="2244.5" y="-119.5" font-family="Helvetica,sans-Serif" font-size="10.00">packet.h</text>
</a>
</g>
</g>
<!-- Node2&#45;&gt;Node48 -->
<g id="edge31" class="edge">
<title>Node2&#45;&gt;Node48</title>
<path fill="none" stroke="midnightblue" d="M2086.08,-165.77C2124.69,-155.35 2181.18,-140.1 2215.24,-130.9"/>
<polygon fill="midnightblue" stroke="midnightblue" points="2084.93,-162.46 2076.19,-168.44 2086.76,-169.22 2084.93,-162.46"/>
</g>
<!-- Node75 -->
<g id="node31" class="node">
<title>Node75</title>
<g id="a_node31"><a xlink:href="spec_2packet__flags_8h.html" target="_top" xlink:title=" ">
<polygon fill="white" stroke="red" points="2291.5,-112.5 2291.5,-131.5 2377.5,-131.5 2377.5,-112.5 2291.5,-112.5"/>
<text text-anchor="middle" x="2334.5" y="-119.5" font-family="Helvetica,sans-Serif" font-size="10.00">packet_flags.h</text>
</a>
</g>
</g>
<!-- Node2&#45;&gt;Node75 -->
<g id="edge32" class="edge">
<title>Node2&#45;&gt;Node75</title>
<path fill="none" stroke="midnightblue" d="M2091.11,-168.32C2146.4,-158.03 2237.81,-141 2291.48,-131.01"/>
<polygon fill="midnightblue" stroke="midnightblue" points="2090.42,-164.89 2081.23,-170.16 2091.7,-171.77 2090.42,-164.89"/>
</g>
<!-- Node50 -->
<g id="node32" class="node">
<title>Node50</title>
<g id="a_node32"><a xlink:href="spec_2packet__io__types_8h.html" target="_top" xlink:title=" ">
<polygon fill="white" stroke="red" points="2395.5,-112.5 2395.5,-131.5 2499.5,-131.5 2499.5,-112.5 2395.5,-112.5"/>
<text text-anchor="middle" x="2447.5" y="-119.5" font-family="Helvetica,sans-Serif" font-size="10.00">packet_io_types.h</text>
</a>
</g>
</g>
<!-- Node2&#45;&gt;Node50 -->
<g id="edge33" class="edge">
<title>Node2&#45;&gt;Node50</title>
<path fill="none" stroke="midnightblue" d="M2091.29,-171.08C2157.18,-162.69 2281.08,-146.71 2386.5,-132 2389.36,-131.6 2392.3,-131.19 2395.26,-130.76"/>
<polygon fill="midnightblue" stroke="midnightblue" points="2090.7,-167.63 2081.22,-172.36 2091.58,-174.57 2090.7,-167.63"/>
</g>
<!-- Node54 -->
<g id="node33" class="node">
<title>Node54</title>
<g id="a_node33"><a xlink:href="spec_2pool_8h.html" target="_top" xlink:title=" ">
<polygon fill="white" stroke="red" points="2518,-112.5 2518,-131.5 2565,-131.5 2565,-112.5 2518,-112.5"/>
<text text-anchor="middle" x="2541.5" y="-119.5" font-family="Helvetica,sans-Serif" font-size="10.00">pool.h</text>
</a>
</g>
</g>
<!-- Node2&#45;&gt;Node54 -->
<g id="edge34" class="edge">
<title>Node2&#45;&gt;Node54</title>
<path fill="none" stroke="midnightblue" d="M2091.18,-175.09C2175.24,-171.08 2357.38,-159.73 2508.5,-132 2511.54,-131.44 2514.7,-130.74 2517.82,-129.98"/>
<polygon fill="midnightblue" stroke="midnightblue" points="2091.01,-171.6 2081.19,-175.56 2091.34,-178.59 2091.01,-171.6"/>
</g>
<!-- Node46 -->
<g id="node34" class="node">
<title>Node46</title>
<g id="a_node34"><a xlink:href="spec_2pool__types_8h.html" target="_top" xlink:title=" ">
<polygon fill="white" stroke="red" points="2583,-112.5 2583,-131.5 2662,-131.5 2662,-112.5 2583,-112.5"/>
<text text-anchor="middle" x="2622.5" y="-119.5" font-family="Helvetica,sans-Serif" font-size="10.00">pool_types.h</text>
</a>
</g>
</g>
<!-- Node2&#45;&gt;Node46 -->
<g id="edge35" class="edge">
<title>Node2&#45;&gt;Node46</title>
<path fill="none" stroke="midnightblue" d="M2091.43,-174.61C2184.1,-169.53 2396.96,-156.12 2574.5,-132 2577.27,-131.62 2580.13,-131.19 2583,-130.73"/>
<polygon fill="midnightblue" stroke="midnightblue" points="2091.06,-171.12 2081.27,-175.16 2091.44,-178.11 2091.06,-171.12"/>
</g>
<!-- Node77 -->
<g id="node35" class="node">
<title>Node77</title>
<g id="a_node35"><a xlink:href="spec_2proto__stats__types_8h.html" target="_top" xlink:title=" ">
<polygon fill="white" stroke="red" points="2680,-112.5 2680,-131.5 2793,-131.5 2793,-112.5 2680,-112.5"/>
<text text-anchor="middle" x="2736.5" y="-119.5" font-family="Helvetica,sans-Serif" font-size="10.00">proto_stats_types.h</text>
</a>
</g>
</g>
<!-- Node2&#45;&gt;Node77 -->
<g id="edge36" class="edge">
<title>Node2&#45;&gt;Node77</title>
<path fill="none" stroke="midnightblue" d="M2091.53,-174.69C2196.03,-169.31 2455.34,-154.7 2671.5,-132 2674.22,-131.71 2677,-131.4 2679.81,-131.07"/>
<polygon fill="midnightblue" stroke="midnightblue" points="2091.13,-171.2 2081.32,-175.21 2091.49,-178.19 2091.13,-171.2"/>
</g>
<!-- Node87 -->
<g id="node36" class="node">
<title>Node87</title>
<g id="a_node36"><a xlink:href="spec_2queue_8h.html" target="_top" xlink:title=" ">
<polygon fill="white" stroke="red" points="2811.5,-112.5 2811.5,-131.5 2867.5,-131.5 2867.5,-112.5 2811.5,-112.5"/>
<text text-anchor="middle" x="2839.5" y="-119.5" font-family="Helvetica,sans-Serif" font-size="10.00">queue.h</text>
</a>
</g>
</g>
<!-- Node2&#45;&gt;Node87 -->
<g id="edge37" class="edge">
<title>Node2&#45;&gt;Node87</title>
<path fill="none" stroke="midnightblue" d="M2091.26,-177.13C2210.52,-176.83 2535.48,-172.07 2802.5,-132 2805.38,-131.57 2808.36,-131.02 2811.32,-130.41"/>
<polygon fill="midnightblue" stroke="midnightblue" points="2091.03,-173.63 2081.03,-177.14 2091.04,-180.63 2091.03,-173.63"/>
</g>
<!-- Node89 -->
<g id="node37" class="node">
<title>Node89</title>
<g id="a_node37"><a xlink:href="spec_2random_8h.html" target="_top" xlink:title=" ">
<polygon fill="white" stroke="red" points="2886,-112.5 2886,-131.5 2949,-131.5 2949,-112.5 2886,-112.5"/>
<text text-anchor="middle" x="2917.5" y="-119.5" font-family="Helvetica,sans-Serif" font-size="10.00">random.h</text>
</a>
</g>
</g>
<!-- Node2&#45;&gt;Node89 -->
<g id="edge38" class="edge">
<title>Node2&#45;&gt;Node89</title>
<path fill="none" stroke="midnightblue" d="M2091.34,-177.12C2218.32,-176.86 2579.54,-172.35 2876.5,-132 2879.53,-131.59 2882.67,-131.07 2885.81,-130.49"/>
<polygon fill="midnightblue" stroke="midnightblue" points="2091.19,-173.62 2081.19,-177.13 2091.2,-180.62 2091.19,-173.62"/>
</g>
<!-- Node91 -->
<g id="node38" class="node">
<title>Node91</title>
<g id="a_node38"><a xlink:href="spec_2random__types_8h.html" target="_top" xlink:title=" ">
<polygon fill="white" stroke="red" points="2967,-112.5 2967,-131.5 3062,-131.5 3062,-112.5 2967,-112.5"/>
<text text-anchor="middle" x="3014.5" y="-119.5" font-family="Helvetica,sans-Serif" font-size="10.00">random_types.h</text>
</a>
</g>
</g>
<!-- Node2&#45;&gt;Node91 -->
<g id="edge39" class="edge">
<title>Node2&#45;&gt;Node91</title>
<path fill="none" stroke="midnightblue" d="M2091.57,-176.51C2226.77,-174.71 2627.74,-166.62 2958.5,-132 2961.24,-131.71 2964.05,-131.38 2966.89,-131.02"/>
<polygon fill="midnightblue" stroke="midnightblue" points="2091.14,-173.02 2081.18,-176.64 2091.23,-180.01 2091.14,-173.02"/>
</g>
<!-- Node93 -->
<g id="node39" class="node">
<title>Node93</title>
<g id="a_node39"><a xlink:href="spec_2reassembly_8h.html" target="_top" xlink:title=" ">
<polygon fill="white" stroke="red" points="3080,-112.5 3080,-131.5 3161,-131.5 3161,-112.5 3080,-112.5"/>
<text text-anchor="middle" x="3120.5" y="-119.5" font-family="Helvetica,sans-Serif" font-size="10.00">reassembly.h</text>
</a>
</g>
</g>
<!-- Node2&#45;&gt;Node93 -->
<g id="edge40" class="edge">
<title>Node2&#45;&gt;Node93</title>
<path fill="none" stroke="midnightblue" d="M2091.38,-177.24C2237.14,-177.49 2695.21,-174.6 3071.5,-132 3074.25,-131.69 3077.08,-131.31 3079.92,-130.9"/>
<polygon fill="midnightblue" stroke="midnightblue" points="2091.03,-173.74 2081.03,-177.22 2091.02,-180.74 2091.03,-173.74"/>
</g>
<!-- Node95 -->
<g id="node40" class="node">
<title>Node95</title>
<g id="a_node40"><a xlink:href="spec_2schedule_8h.html" target="_top" xlink:title=" ">
<polygon fill="white" stroke="red" points="3179,-112.5 3179,-131.5 3248,-131.5 3248,-112.5 3179,-112.5"/>
<text text-anchor="middle" x="3213.5" y="-119.5" font-family="Helvetica,sans-Serif" font-size="10.00">schedule.h</text>
</a>
</g>
</g>
<!-- Node2&#45;&gt;Node95 -->
<g id="edge41" class="edge">
<title>Node2&#45;&gt;Node95</title>
<path fill="none" stroke="midnightblue" d="M2091.49,-176.17C2276.71,-172.71 2956.59,-158.47 3170.5,-132 3173.22,-131.66 3176.03,-131.24 3178.85,-130.77"/>
<polygon fill="midnightblue" stroke="midnightblue" points="2091.2,-172.67 2081.27,-176.35 2091.33,-179.67 2091.2,-172.67"/>
</g>
<!-- Node97 -->
<g id="node41" class="node">
<title>Node97</title>
<g id="a_node41"><a xlink:href="spec_2schedule__types_8h.html" target="_top" xlink:title=" ">
<polygon fill="white" stroke="red" points="3266,-112.5 3266,-131.5 3367,-131.5 3367,-112.5 3266,-112.5"/>
<text text-anchor="middle" x="3316.5" y="-119.5" font-family="Helvetica,sans-Serif" font-size="10.00">schedule_types.h</text>
</a>
</g>
</g>
<!-- Node2&#45;&gt;Node97 -->
<g id="edge42" class="edge">
<title>Node2&#45;&gt;Node97</title>
<path fill="none" stroke="midnightblue" d="M2091.16,-177.18C2252.92,-177.42 2804.57,-174.81 3257.5,-132 3260.18,-131.75 3262.93,-131.45 3265.7,-131.13"/>
<polygon fill="midnightblue" stroke="midnightblue" points="2091.08,-173.68 2081.07,-177.17 2091.06,-180.68 2091.08,-173.68"/>
</g>
<!-- Node105 -->
<g id="node42" class="node">
<title>Node105</title>
<g id="a_node42"><a xlink:href="spec_2stash__types_8h.html" target="_top" xlink:title=" ">
<polygon fill="white" stroke="red" points="3385.5,-112.5 3385.5,-131.5 3469.5,-131.5 3469.5,-112.5 3385.5,-112.5"/>
<text text-anchor="middle" x="3427.5" y="-119.5" font-family="Helvetica,sans-Serif" font-size="10.00">stash_types.h</text>
</a>
</g>
</g>
<!-- Node2&#45;&gt;Node105 -->
<g id="edge43" class="edge">
<title>Node2&#45;&gt;Node105</title>
<path fill="none" stroke="midnightblue" d="M2091.39,-176.3C2296.92,-173.11 3119.49,-158.88 3376.5,-132 3379.36,-131.7 3382.3,-131.34 3385.26,-130.93"/>
<polygon fill="midnightblue" stroke="midnightblue" points="2091.18,-172.81 2081.23,-176.46 2091.28,-179.81 2091.18,-172.81"/>
</g>
<!-- Node109 -->
<g id="node43" class="node">
<title>Node109</title>
<g id="a_node43"><a xlink:href="spec_2std_8h.html" target="_top" xlink:title=" ">
<polygon fill="white" stroke="red" points="3488,-112.5 3488,-131.5 3529,-131.5 3529,-112.5 3488,-112.5"/>
<text text-anchor="middle" x="3508.5" y="-119.5" font-family="Helvetica,sans-Serif" font-size="10.00">std.h</text>
</a>
</g>
</g>
<!-- Node2&#45;&gt;Node109 -->
<g id="edge44" class="edge">
<title>Node2&#45;&gt;Node109</title>
<path fill="none" stroke="midnightblue" d="M2091.2,-177.16C2306.22,-177.67 3202.3,-176.97 3478.5,-132 3481.51,-131.51 3484.63,-130.8 3487.68,-130"/>
<polygon fill="midnightblue" stroke="midnightblue" points="2091.19,-173.66 2081.18,-177.14 2091.18,-180.66 2091.19,-173.66"/>
</g>
<!-- Node111 -->
<g id="node44" class="node">
<title>Node111</title>
<g id="a_node44"><a xlink:href="spec_2threshold_8h.html" target="_top" xlink:title=" ">
<polygon fill="white" stroke="red" points="3547,-112.5 3547,-131.5 3618,-131.5 3618,-112.5 3547,-112.5"/>
<text text-anchor="middle" x="3582.5" y="-119.5" font-family="Helvetica,sans-Serif" font-size="10.00">threshold.h</text>
</a>
</g>
</g>
<!-- Node2&#45;&gt;Node111 -->
<g id="edge45" class="edge">
<title>Node2&#45;&gt;Node111</title>
<path fill="none" stroke="midnightblue" d="M2091.25,-176.67C2311.62,-174.97 3248.13,-165.82 3538.5,-132 3541.13,-131.69 3543.84,-131.31 3546.56,-130.87"/>
<polygon fill="midnightblue" stroke="midnightblue" points="2090.98,-173.17 2081,-176.75 2091.03,-180.17 2090.98,-173.17"/>
</g>
<!-- Node113 -->
<g id="node45" class="node">
<title>Node113</title>
<g id="a_node45"><a xlink:href="spec_2thrmask_8h.html" target="_top" xlink:title=" ">
<polygon fill="white" stroke="red" points="3636.5,-112.5 3636.5,-131.5 3702.5,-131.5 3702.5,-112.5 3636.5,-112.5"/>
<text text-anchor="middle" x="3669.5" y="-119.5" font-family="Helvetica,sans-Serif" font-size="10.00">thrmask.h</text>
</a>
</g>
</g>
<!-- Node2&#45;&gt;Node113 -->
<g id="edge46" class="edge">
<title>Node2&#45;&gt;Node113</title>
<path fill="none" stroke="midnightblue" d="M2091.43,-176.82C2320.07,-175.78 3318.83,-169.14 3627.5,-132 3630.31,-131.66 3633.22,-131.23 3636.12,-130.73"/>
<polygon fill="midnightblue" stroke="midnightblue" points="2091.11,-173.32 2081.13,-176.87 2091.14,-180.32 2091.11,-173.32"/>
</g>
<!-- Node115 -->
<g id="node46" class="node">
<title>Node115</title>
<g id="a_node46"><a xlink:href="spec_2time_8h.html" target="_top" xlink:title=" ">
<polygon fill="white" stroke="red" points="3720.5,-112.5 3720.5,-131.5 3768.5,-131.5 3768.5,-112.5 3720.5,-112.5"/>
<text text-anchor="middle" x="3744.5" y="-119.5" font-family="Helvetica,sans-Serif" font-size="10.00">time.h</text>
</a>
</g>
</g>
<!-- Node2&#45;&gt;Node115 -->
<g id="edge47" class="edge">
<title>Node2&#45;&gt;Node115</title>
<path fill="none" stroke="midnightblue" d="M2091.66,-177.25C2328.18,-178.26 3386.59,-179.98 3711.5,-132 3714.44,-131.57 3717.49,-130.96 3720.49,-130.26"/>
<polygon fill="midnightblue" stroke="midnightblue" points="2091.36,-173.75 2081.35,-177.2 2091.33,-180.75 2091.36,-173.75"/>
</g>
<!-- Node117 -->
<g id="node47" class="node">
<title>Node117</title>
<g id="a_node47"><a xlink:href="spec_2timer__types_8h.html" target="_top" xlink:title=" ">
<polygon fill="white" stroke="red" points="3786.5,-112.5 3786.5,-131.5 3870.5,-131.5 3870.5,-112.5 3786.5,-112.5"/>
<text text-anchor="middle" x="3828.5" y="-119.5" font-family="Helvetica,sans-Serif" font-size="10.00">timer_types.h</text>
</a>
</g>
</g>
<!-- Node2&#45;&gt;Node117 -->
<g id="edge48" class="edge">
<title>Node2&#45;&gt;Node117</title>
<path fill="none" stroke="midnightblue" d="M2091.51,-176.73C2333.11,-175.17 3436.88,-166.28 3777.5,-132 3780.36,-131.71 3783.31,-131.36 3786.27,-130.95"/>
<polygon fill="midnightblue" stroke="midnightblue" points="2091.29,-173.23 2081.31,-176.79 2091.33,-180.23 2091.29,-173.23"/>
</g>
<!-- Node52 -->
<g id="node48" class="node">
<title>Node52</title>
<g id="a_node48"><a xlink:href="spec_2traffic__mngr_8h.html" target="_top" xlink:title=" ">
<polygon fill="white" stroke="red" points="3888.5,-112.5 3888.5,-131.5 3972.5,-131.5 3972.5,-112.5 3888.5,-112.5"/>
<text text-anchor="middle" x="3930.5" y="-119.5" font-family="Helvetica,sans-Serif" font-size="10.00">traffic_mngr.h</text>
</a>
</g>
</g>
<!-- Node2&#45;&gt;Node52 -->
<g id="edge49" class="edge">
<title>Node2&#45;&gt;Node52</title>
<path fill="none" stroke="midnightblue" d="M2091.44,-176.8C2341.33,-175.62 3517.47,-168.18 3879.5,-132 3882.36,-131.71 3885.31,-131.36 3888.27,-130.96"/>
<polygon fill="midnightblue" stroke="midnightblue" points="2091.24,-173.31 2081.25,-176.85 2091.27,-180.31 2091.24,-173.31"/>
</g>
<!-- Node119 -->
<g id="node49" class="node">
<title>Node119</title>
<g id="a_node49"><a xlink:href="system__info_8h.html" target="_top" xlink:title=" ">
<polygon fill="white" stroke="black" points="3990.5,-112.5 3990.5,-131.5 4076.5,-131.5 4076.5,-112.5 3990.5,-112.5"/>
<text text-anchor="middle" x="4033.5" y="-119.5" font-family="Helvetica,sans-Serif" font-size="10.00">system_info.h</text>
</a>
</g>
</g>
<!-- Node2&#45;&gt;Node119 -->
<g id="edge50" class="edge">
<title>Node2&#45;&gt;Node119</title>
<path fill="none" stroke="midnightblue" d="M2091.13,-176.86C2348.52,-175.91 3597.84,-169.45 3981.5,-132 3984.42,-131.72 3987.42,-131.36 3990.44,-130.96"/>
<polygon fill="midnightblue" stroke="midnightblue" points="2090.99,-173.36 2081.01,-176.89 2091.02,-180.36 2090.99,-173.36"/>
</g>
<!-- Node120 -->
<g id="node50" class="node">
<title>Node120</title>
<g id="a_node50"><a xlink:href="strong__types_8h.html" target="_top" xlink:title=" ">
<polygon fill="white" stroke="black" points="4095,-112.5 4095,-131.5 4184,-131.5 4184,-112.5 4095,-112.5"/>
<text text-anchor="middle" x="4139.5" y="-119.5" font-family="Helvetica,sans-Serif" font-size="10.00">strong_types.h</text>
</a>
</g>
</g>
<!-- Node2&#45;&gt;Node120 -->
<g id="edge51" class="edge">
<title>Node2&#45;&gt;Node120</title>
<path fill="none" stroke="midnightblue" d="M2091.07,-176.88C2356.42,-176.06 3679.82,-170.08 4085.5,-132 4088.53,-131.72 4091.64,-131.36 4094.78,-130.96"/>
<polygon fill="midnightblue" stroke="midnightblue" points="2091,-173.38 2081.01,-176.91 2091.02,-180.38 2091,-173.38"/>
</g>
<!-- Node15&#45;&gt;Node16 -->
<g id="edge15" class="edge">
<title>Node15&#45;&gt;Node16</title>
<path fill="none" stroke="midnightblue" d="M1243.57,-50.9C1228.16,-41 1208.05,-28.07 1194.96,-19.65"/>
<polygon fill="midnightblue" stroke="midnightblue" points="1241.7,-53.86 1252,-56.32 1245.48,-47.97 1241.7,-53.86"/>
</g>
<!-- Node21 -->
<g id="node17" class="node">
<title>Node21</title>
<g id="a_node17"><a xlink:href="spec_2packet__io_8h.html" target="_top" xlink:title=" ">
<polygon fill="white" stroke="red" points="1241.5,-0.5 1241.5,-19.5 1313.5,-19.5 1313.5,-0.5 1241.5,-0.5"/>
<text text-anchor="middle" x="1277.5" y="-7.5" font-family="Helvetica,sans-Serif" font-size="10.00">packet_io.h</text>
</a>
</g>
</g>
<!-- Node15&#45;&gt;Node21 -->
<g id="edge16" class="edge">
<title>Node15&#45;&gt;Node21</title>
<path fill="none" stroke="midnightblue" d="M1269.7,-46.1C1271.69,-37.14 1273.98,-26.86 1275.56,-19.75"/>
<polygon fill="midnightblue" stroke="midnightblue" points="1266.23,-45.56 1267.48,-56.08 1273.07,-47.08 1266.23,-45.56"/>
</g>
<!-- Node29&#45;&gt;Node15 -->
<g id="edge21" class="edge">
<title>Node29&#45;&gt;Node15</title>
<path fill="none" stroke="midnightblue" d="M1490.44,-110.54C1437.71,-100.33 1358.5,-85 1309.5,-75.52"/>
<polygon fill="midnightblue" stroke="midnightblue" points="1489.81,-113.98 1500.29,-112.44 1491.14,-107.11 1489.81,-113.98"/>
</g>
</g>
</svg>
