<?xml version="1.0" encoding="UTF-8" standalone="no"?>
<!DOCTYPE svg PUBLIC "-//W3C//DTD SVG 1.1//EN"
 "http://www.w3.org/Graphics/SVG/1.1/DTD/svg11.dtd">
<!-- Generated by graphviz version 2.43.0 (0)
 -->
<!-- Title: align.h Pages: 1 -->
<svg width="3983pt" height="364pt"
 viewBox="0.00 0.00 3982.50 364.00" xmlns="http://www.w3.org/2000/svg" xmlns:xlink="http://www.w3.org/1999/xlink">
<g id="graph0" class="graph" transform="scale(1 1) rotate(0) translate(4 360)">
<title>align.h</title>
<polygon fill="white" stroke="transparent" points="-4,4 -4,-360 3978.5,-360 3978.5,4 -4,4"/>
<!-- Node1 -->
<g id="node1" class="node">
<title>Node1</title>
<g id="a_node1"><a xlink:title=" ">
<polygon fill="#bfbfbf" stroke="black" points="119.5,-336.5 119.5,-355.5 169.5,-355.5 169.5,-336.5 119.5,-336.5"/>
<text text-anchor="middle" x="144.5" y="-343.5" font-family="Helvetica,sans-Serif" font-size="10.00">align.h</text>
</a>
</g>
</g>
<!-- Node2 -->
<g id="node2" class="node">
<title>Node2</title>
<g id="a_node2"><a xlink:href="align_8h.html" target="_top" xlink:title=" ">
<polygon fill="white" stroke="black" points="119.5,-280.5 119.5,-299.5 169.5,-299.5 169.5,-280.5 119.5,-280.5"/>
<text text-anchor="middle" x="144.5" y="-287.5" font-family="Helvetica,sans-Serif" font-size="10.00">align.h</text>
</a>
</g>
</g>
<!-- Node1&#45;&gt;Node2 -->
<g id="edge1" class="edge">
<title>Node1&#45;&gt;Node2</title>
<path fill="none" stroke="midnightblue" d="M144.5,-325.8C144.5,-316.91 144.5,-306.78 144.5,-299.75"/>
<polygon fill="midnightblue" stroke="midnightblue" points="141,-326.08 144.5,-336.08 148,-326.08 141,-326.08"/>
</g>
<!-- Node3 -->
<g id="node3" class="node">
<title>Node3</title>
<g id="a_node3"><a xlink:href="abi-default_2atomic_8h.html" target="_top" xlink:title=" ">
<polygon fill="white" stroke="black" points="0,-112.5 0,-131.5 59,-131.5 59,-112.5 0,-112.5"/>
<text text-anchor="middle" x="29.5" y="-119.5" font-family="Helvetica,sans-Serif" font-size="10.00">atomic.h</text>
</a>
</g>
</g>
<!-- Node2&#45;&gt;Node3 -->
<g id="edge2" class="edge">
<title>Node2&#45;&gt;Node3</title>
<path fill="none" stroke="midnightblue" d="M132.56,-271.76C108.19,-236.59 53.52,-157.68 35.44,-131.57"/>
<polygon fill="midnightblue" stroke="midnightblue" points="129.75,-273.85 138.32,-280.08 135.5,-269.86 129.75,-273.85"/>
</g>
<!-- Node4 -->
<g id="node4" class="node">
<title>Node4</title>
<g id="a_node4"><a xlink:href="abi-default_2cpumask_8h.html" target="_top" xlink:title=" ">
<polygon fill="white" stroke="black" points="77.5,-112.5 77.5,-131.5 147.5,-131.5 147.5,-112.5 77.5,-112.5"/>
<text text-anchor="middle" x="112.5" y="-119.5" font-family="Helvetica,sans-Serif" font-size="10.00">cpumask.h</text>
</a>
</g>
</g>
<!-- Node2&#45;&gt;Node4 -->
<g id="edge3" class="edge">
<title>Node2&#45;&gt;Node4</title>
<path fill="none" stroke="midnightblue" d="M138.7,-270.88C136.24,-262.73 133.49,-252.94 131.5,-244 122.24,-202.27 115.81,-151.48 113.47,-131.58"/>
<polygon fill="midnightblue" stroke="midnightblue" points="135.37,-271.95 141.68,-280.46 142.05,-269.87 135.37,-271.95"/>
</g>
<!-- Node5 -->
<g id="node5" class="node">
<title>Node5</title>
<g id="a_node5"><a xlink:href="spec_2std__types_8h.html" target="_top" xlink:title=" ">
<polygon fill="white" stroke="black" points="141,-224.5 141,-243.5 214,-243.5 214,-224.5 141,-224.5"/>
<text text-anchor="middle" x="177.5" y="-231.5" font-family="Helvetica,sans-Serif" font-size="10.00">std_types.h</text>
</a>
</g>
</g>
<!-- Node2&#45;&gt;Node5 -->
<g id="edge4" class="edge">
<title>Node2&#45;&gt;Node5</title>
<path fill="none" stroke="midnightblue" d="M155.33,-271.27C160.97,-262.05 167.62,-251.17 172.15,-243.75"/>
<polygon fill="midnightblue" stroke="midnightblue" points="152.18,-269.73 149.95,-280.08 158.15,-273.38 152.18,-269.73"/>
</g>
<!-- Node123 -->
<g id="node50" class="node">
<title>Node123</title>
<g id="a_node50"><a xlink:href="time__inlines_8h_source.html" target="_top" xlink:title=" ">
<polygon fill="white" stroke="black" points="232.5,-224.5 232.5,-243.5 318.5,-243.5 318.5,-224.5 232.5,-224.5"/>
<text text-anchor="middle" x="275.5" y="-231.5" font-family="Helvetica,sans-Serif" font-size="10.00">time_inlines.h</text>
</a>
</g>
</g>
<!-- Node2&#45;&gt;Node123 -->
<g id="edge53" class="edge">
<title>Node2&#45;&gt;Node123</title>
<path fill="none" stroke="midnightblue" d="M174.82,-276.5C199.38,-266.38 233.32,-252.39 254.84,-243.52"/>
<polygon fill="midnightblue" stroke="midnightblue" points="173.17,-273.4 165.26,-280.44 175.84,-279.87 173.17,-273.4"/>
</g>
<!-- Node6 -->
<g id="node6" class="node">
<title>Node6</title>
<g id="a_node6"><a xlink:href="std__types_8h.html" target="_top" xlink:title=" ">
<polygon fill="white" stroke="red" points="1781,-168.5 1781,-187.5 1854,-187.5 1854,-168.5 1781,-168.5"/>
<text text-anchor="middle" x="1817.5" y="-175.5" font-family="Helvetica,sans-Serif" font-size="10.00">std_types.h</text>
</a>
</g>
</g>
<!-- Node5&#45;&gt;Node6 -->
<g id="edge5" class="edge">
<title>Node5&#45;&gt;Node6</title>
<path fill="none" stroke="midnightblue" d="M224.31,-224.17C560.86,-188.67 1575.44,-180.53 1780.97,-179.21"/>
<polygon fill="midnightblue" stroke="midnightblue" points="223.64,-220.72 214.07,-225.28 224.39,-227.68 223.64,-220.72"/>
</g>
<!-- Node6&#45;&gt;Node3 -->
<g id="edge6" class="edge">
<title>Node6&#45;&gt;Node3</title>
<path fill="none" stroke="midnightblue" d="M1770.41,-177.07C1527.21,-177.23 411.44,-175.53 68.5,-132 65.47,-131.61 62.32,-131.1 59.2,-130.5"/>
<polygon fill="midnightblue" stroke="midnightblue" points="1770.68,-180.57 1780.68,-177.06 1770.67,-173.57 1770.68,-180.57"/>
</g>
<!-- Node6&#45;&gt;Node4 -->
<g id="edge9" class="edge">
<title>Node6&#45;&gt;Node4</title>
<path fill="none" stroke="midnightblue" d="M1770.56,-176.84C1535.15,-175.85 481.62,-169.36 156.5,-132 153.71,-131.68 150.84,-131.27 147.96,-130.81"/>
<polygon fill="midnightblue" stroke="midnightblue" points="1770.81,-180.34 1780.83,-176.88 1770.84,-173.34 1770.81,-180.34"/>
</g>
<!-- Node7 -->
<g id="node7" class="node">
<title>Node7</title>
<g id="a_node7"><a xlink:href="abi-default_2barrier_8h.html" target="_top" xlink:title=" ">
<polygon fill="white" stroke="black" points="3418,-112.5 3418,-131.5 3475,-131.5 3475,-112.5 3418,-112.5"/>
<text text-anchor="middle" x="3446.5" y="-119.5" font-family="Helvetica,sans-Serif" font-size="10.00">barrier.h</text>
</a>
</g>
</g>
<!-- Node6&#45;&gt;Node7 -->
<g id="edge7" class="edge">
<title>Node6&#45;&gt;Node7</title>
<path fill="none" stroke="midnightblue" d="M1864.34,-176.97C2093.56,-176.6 3098.53,-172.66 3408.5,-132 3411.59,-131.59 3414.8,-131.04 3417.98,-130.41"/>
<polygon fill="midnightblue" stroke="midnightblue" points="1864.32,-173.47 1854.33,-176.98 1864.33,-180.47 1864.32,-173.47"/>
</g>
<!-- Node8 -->
<g id="node8" class="node">
<title>Node8</title>
<g id="a_node8"><a xlink:href="abi-default_2byteorder_8h.html" target="_top" xlink:title=" ">
<polygon fill="white" stroke="black" points="3493.5,-112.5 3493.5,-131.5 3565.5,-131.5 3565.5,-112.5 3493.5,-112.5"/>
<text text-anchor="middle" x="3529.5" y="-119.5" font-family="Helvetica,sans-Serif" font-size="10.00">byteorder.h</text>
</a>
</g>
</g>
<!-- Node6&#45;&gt;Node8 -->
<g id="edge8" class="edge">
<title>Node6&#45;&gt;Node8</title>
<path fill="none" stroke="midnightblue" d="M1864.61,-176.81C2100.85,-175.71 3158.13,-168.77 3484.5,-132 3487.35,-131.68 3490.29,-131.27 3493.23,-130.8"/>
<polygon fill="midnightblue" stroke="midnightblue" points="1864.29,-173.31 1854.3,-176.86 1864.32,-180.31 1864.29,-173.31"/>
</g>
<!-- Node9 -->
<g id="node9" class="node">
<title>Node9</title>
<g id="a_node9"><a xlink:href="abi-default_2init_8h.html" target="_top" xlink:title=" ">
<polygon fill="white" stroke="black" points="3584,-112.5 3584,-131.5 3625,-131.5 3625,-112.5 3584,-112.5"/>
<text text-anchor="middle" x="3604.5" y="-119.5" font-family="Helvetica,sans-Serif" font-size="10.00">init.h</text>
</a>
</g>
</g>
<!-- Node6&#45;&gt;Node9 -->
<g id="edge10" class="edge">
<title>Node6&#45;&gt;Node9</title>
<path fill="none" stroke="midnightblue" d="M1864.29,-176.54C2125.88,-173.9 3401.57,-159.65 3574.5,-132 3577.51,-131.52 3580.63,-130.82 3583.68,-130.02"/>
<polygon fill="midnightblue" stroke="midnightblue" points="1863.97,-173.05 1854.01,-176.65 1864.04,-180.05 1863.97,-173.05"/>
</g>
<!-- Node10 -->
<g id="node10" class="node">
<title>Node10</title>
<g id="a_node10"><a xlink:href="abi-default_2ipsec__types_8h_source.html" target="_top" xlink:title=" ">
<polygon fill="white" stroke="black" points="3643,-112.5 3643,-131.5 3726,-131.5 3726,-112.5 3643,-112.5"/>
<text text-anchor="middle" x="3684.5" y="-119.5" font-family="Helvetica,sans-Serif" font-size="10.00">ipsec_types.h</text>
</a>
</g>
</g>
<!-- Node6&#45;&gt;Node10 -->
<g id="edge11" class="edge">
<title>Node6&#45;&gt;Node10</title>
<path fill="none" stroke="midnightblue" d="M1864.38,-176.81C2112.68,-175.68 3276.28,-168.46 3634.5,-132 3637.22,-131.72 3640.01,-131.38 3642.83,-130.99"/>
<polygon fill="midnightblue" stroke="midnightblue" points="1864.24,-173.31 1854.26,-176.86 1864.27,-180.31 1864.24,-173.31"/>
</g>
<!-- Node11 -->
<g id="node11" class="node">
<title>Node11</title>
<g id="a_node11"><a xlink:href="abi-default_2packet__io__types_8h.html" target="_top" xlink:title=" ">
<polygon fill="white" stroke="black" points="3744.5,-112.5 3744.5,-131.5 3848.5,-131.5 3848.5,-112.5 3744.5,-112.5"/>
<text text-anchor="middle" x="3796.5" y="-119.5" font-family="Helvetica,sans-Serif" font-size="10.00">packet_io_types.h</text>
</a>
</g>
</g>
<!-- Node6&#45;&gt;Node11 -->
<g id="edge12" class="edge">
<title>Node6&#45;&gt;Node11</title>
<path fill="none" stroke="midnightblue" d="M1864.07,-176.69C2119.78,-174.84 3355.38,-164.38 3735.5,-132 3738.38,-131.75 3741.33,-131.46 3744.31,-131.13"/>
<polygon fill="midnightblue" stroke="midnightblue" points="1863.98,-173.19 1854.01,-176.76 1864.03,-180.19 1863.98,-173.19"/>
</g>
<!-- Node12 -->
<g id="node12" class="node">
<title>Node12</title>
<g id="a_node12"><a xlink:href="abi-default_2rwlock__recursive_8h.html" target="_top" xlink:title=" ">
<polygon fill="white" stroke="black" points="3866.5,-112.5 3866.5,-131.5 3974.5,-131.5 3974.5,-112.5 3866.5,-112.5"/>
<text text-anchor="middle" x="3920.5" y="-119.5" font-family="Helvetica,sans-Serif" font-size="10.00">rwlock_recursive.h</text>
</a>
</g>
</g>
<!-- Node6&#45;&gt;Node12 -->
<g id="edge13" class="edge">
<title>Node6&#45;&gt;Node12</title>
<path fill="none" stroke="midnightblue" d="M1864.46,-176.73C2130.6,-175.08 3451.82,-165.33 3857.5,-132 3860.36,-131.76 3863.29,-131.48 3866.25,-131.17"/>
<polygon fill="midnightblue" stroke="midnightblue" points="1864.35,-173.23 1854.37,-176.79 1864.39,-180.23 1864.35,-173.23"/>
</g>
<!-- Node13 -->
<g id="node13" class="node">
<title>Node13</title>
<g id="a_node13"><a xlink:href="abi-default_2schedule__types_8h.html" target="_top" xlink:title=" ">
<polygon fill="white" stroke="black" points="166,-112.5 166,-131.5 267,-131.5 267,-112.5 166,-112.5"/>
<text text-anchor="middle" x="216.5" y="-119.5" font-family="Helvetica,sans-Serif" font-size="10.00">schedule_types.h</text>
</a>
</g>
</g>
<!-- Node6&#45;&gt;Node13 -->
<g id="edge14" class="edge">
<title>Node6&#45;&gt;Node13</title>
<path fill="none" stroke="midnightblue" d="M1770.76,-176.39C1546.3,-173.35 577.47,-158.87 276.5,-132 273.46,-131.73 270.33,-131.4 267.19,-131.04"/>
<polygon fill="midnightblue" stroke="midnightblue" points="1770.84,-179.89 1780.88,-176.53 1770.93,-172.89 1770.84,-179.89"/>
</g>
<!-- Node14 -->
<g id="node14" class="node">
<title>Node14</title>
<g id="a_node14"><a xlink:href="abi-default_2spinlock__recursive_8h.html" target="_top" xlink:title=" ">
<polygon fill="white" stroke="black" points="285.5,-112.5 285.5,-131.5 401.5,-131.5 401.5,-112.5 285.5,-112.5"/>
<text text-anchor="middle" x="343.5" y="-119.5" font-family="Helvetica,sans-Serif" font-size="10.00">spinlock_recursive.h</text>
</a>
</g>
</g>
<!-- Node6&#45;&gt;Node14 -->
<g id="edge15" class="edge">
<title>Node6&#45;&gt;Node14</title>
<path fill="none" stroke="midnightblue" d="M1770.68,-177.23C1592.98,-177.72 943.33,-176.19 410.5,-132 407.58,-131.76 404.58,-131.48 401.57,-131.17"/>
<polygon fill="midnightblue" stroke="midnightblue" points="1770.75,-180.73 1780.74,-177.19 1770.73,-173.73 1770.75,-180.73"/>
</g>
<!-- Node15 -->
<g id="node15" class="node">
<title>Node15</title>
<g id="a_node15"><a xlink:href="abi-default_2traffic__mngr_8h.html" target="_top" xlink:title=" ">
<polygon fill="white" stroke="black" points="419.5,-112.5 419.5,-131.5 503.5,-131.5 503.5,-112.5 419.5,-112.5"/>
<text text-anchor="middle" x="461.5" y="-119.5" font-family="Helvetica,sans-Serif" font-size="10.00">traffic_mngr.h</text>
</a>
</g>
</g>
<!-- Node6&#45;&gt;Node15 -->
<g id="edge16" class="edge">
<title>Node6&#45;&gt;Node15</title>
<path fill="none" stroke="midnightblue" d="M1770.9,-176.27C1568.42,-172.96 764.02,-158.4 512.5,-132 509.64,-131.7 506.7,-131.33 503.74,-130.92"/>
<polygon fill="midnightblue" stroke="midnightblue" points="1770.85,-179.77 1780.91,-176.43 1770.96,-172.77 1770.85,-179.77"/>
</g>
<!-- Node16 -->
<g id="node16" class="node">
<title>Node16</title>
<g id="a_node16"><a xlink:href="barrier_8h.html" target="_top" xlink:title=" ">
<polygon fill="white" stroke="black" points="522,-112.5 522,-131.5 579,-131.5 579,-112.5 522,-112.5"/>
<text text-anchor="middle" x="550.5" y="-119.5" font-family="Helvetica,sans-Serif" font-size="10.00">barrier.h</text>
</a>
</g>
</g>
<!-- Node6&#45;&gt;Node16 -->
<g id="edge17" class="edge">
<title>Node6&#45;&gt;Node16</title>
<path fill="none" stroke="midnightblue" d="M1770.64,-176.34C1575.64,-173.43 827.71,-160.61 593.5,-132 588.81,-131.43 583.86,-130.6 579.07,-129.68"/>
<polygon fill="midnightblue" stroke="midnightblue" points="1770.79,-179.84 1780.84,-176.49 1770.89,-172.84 1770.79,-179.84"/>
</g>
<!-- Node17 -->
<g id="node17" class="node">
<title>Node17</title>
<g id="a_node17"><a xlink:href="classification_8h.html" target="_top" xlink:title=" ">
<polygon fill="white" stroke="red" points="636,-56.5 636,-75.5 725,-75.5 725,-56.5 636,-56.5"/>
<text text-anchor="middle" x="680.5" y="-63.5" font-family="Helvetica,sans-Serif" font-size="10.00">classification.h</text>
</a>
</g>
</g>
<!-- Node6&#45;&gt;Node17 -->
<g id="edge18" class="edge">
<title>Node6&#45;&gt;Node17</title>
<path fill="none" stroke="midnightblue" d="M1770.7,-176.54C1580.07,-174.44 867.63,-164.49 772.5,-132 737.71,-120.12 704.4,-90.63 689.16,-75.81"/>
<polygon fill="midnightblue" stroke="midnightblue" points="1770.91,-180.04 1780.95,-176.65 1770.99,-173.04 1770.91,-180.04"/>
</g>
<!-- Node18 -->
<g id="node18" class="node">
<title>Node18</title>
<g id="a_node18"><a xlink:href="spec_2ipsec__types_8h.html" target="_top" xlink:title=" ">
<polygon fill="white" stroke="red" points="602,-0.5 602,-19.5 685,-19.5 685,-0.5 602,-0.5"/>
<text text-anchor="middle" x="643.5" y="-7.5" font-family="Helvetica,sans-Serif" font-size="10.00">ipsec_types.h</text>
</a>
</g>
</g>
<!-- Node6&#45;&gt;Node18 -->
<g id="edge33" class="edge">
<title>Node6&#45;&gt;Node18</title>
<path fill="none" stroke="midnightblue" d="M1770.94,-177.02C1555.83,-176.91 666.86,-173.91 626.5,-132 596.34,-100.67 625.38,-41.93 638.15,-19.76"/>
<polygon fill="midnightblue" stroke="midnightblue" points="1770.96,-180.52 1780.96,-177.03 1770.96,-173.52 1770.96,-180.52"/>
</g>
<!-- Node25 -->
<g id="node19" class="node">
<title>Node25</title>
<g id="a_node19"><a xlink:href="proto__stats_8h.html" target="_top" xlink:title=" ">
<polygon fill="white" stroke="black" points="781.5,-112.5 781.5,-131.5 861.5,-131.5 861.5,-112.5 781.5,-112.5"/>
<text text-anchor="middle" x="821.5" y="-119.5" font-family="Helvetica,sans-Serif" font-size="10.00">proto_stats.h</text>
</a>
</g>
</g>
<!-- Node6&#45;&gt;Node25 -->
<g id="edge20" class="edge">
<title>Node6&#45;&gt;Node25</title>
<path fill="none" stroke="midnightblue" d="M1770.61,-176.93C1632.45,-176.26 1215.04,-170.92 871.5,-132 868.26,-131.63 864.91,-131.18 861.55,-130.68"/>
<polygon fill="midnightblue" stroke="midnightblue" points="1770.82,-180.43 1780.84,-176.97 1770.85,-173.43 1770.82,-180.43"/>
</g>
<!-- Node26 -->
<g id="node20" class="node">
<title>Node26</title>
<g id="a_node20"><a xlink:href="spec_2buffer_8h.html" target="_top" xlink:title=" ">
<polygon fill="white" stroke="red" points="880,-112.5 880,-131.5 933,-131.5 933,-112.5 880,-112.5"/>
<text text-anchor="middle" x="906.5" y="-119.5" font-family="Helvetica,sans-Serif" font-size="10.00">buffer.h</text>
</a>
</g>
</g>
<!-- Node6&#45;&gt;Node26 -->
<g id="edge21" class="edge">
<title>Node6&#45;&gt;Node26</title>
<path fill="none" stroke="midnightblue" d="M1770.47,-175.78C1612.9,-171.52 1104.45,-156.18 942.5,-132 939.44,-131.54 936.26,-130.94 933.12,-130.27"/>
<polygon fill="midnightblue" stroke="midnightblue" points="1770.68,-179.29 1780.77,-176.06 1770.86,-172.29 1770.68,-179.29"/>
</g>
<!-- Node29 -->
<g id="node21" class="node">
<title>Node29</title>
<g id="a_node21"><a xlink:href="spec_2chksum_8h.html" target="_top" xlink:title=" ">
<polygon fill="white" stroke="red" points="951.5,-112.5 951.5,-131.5 1015.5,-131.5 1015.5,-112.5 951.5,-112.5"/>
<text text-anchor="middle" x="983.5" y="-119.5" font-family="Helvetica,sans-Serif" font-size="10.00">chksum.h</text>
</a>
</g>
</g>
<!-- Node6&#45;&gt;Node29 -->
<g id="edge22" class="edge">
<title>Node6&#45;&gt;Node29</title>
<path fill="none" stroke="midnightblue" d="M1770.83,-176.86C1648.16,-175.94 1306.66,-169.88 1025.5,-132 1022.25,-131.56 1018.87,-131.01 1015.51,-130.39"/>
<polygon fill="midnightblue" stroke="midnightblue" points="1770.97,-180.36 1781,-176.92 1771.02,-173.36 1770.97,-180.36"/>
</g>
<!-- Node31 -->
<g id="node22" class="node">
<title>Node31</title>
<g id="a_node22"><a xlink:href="spec_2classification_8h.html" target="_top" xlink:title=" ">
<polygon fill="white" stroke="black" points="636,-112.5 636,-131.5 725,-131.5 725,-112.5 636,-112.5"/>
<text text-anchor="middle" x="680.5" y="-119.5" font-family="Helvetica,sans-Serif" font-size="10.00">classification.h</text>
</a>
</g>
</g>
<!-- Node6&#45;&gt;Node31 -->
<g id="edge23" class="edge">
<title>Node6&#45;&gt;Node31</title>
<path fill="none" stroke="midnightblue" d="M1770.37,-176.87C1619.79,-176.08 1136.88,-170.49 739.5,-132 734.86,-131.55 730.03,-130.98 725.21,-130.35"/>
<polygon fill="midnightblue" stroke="midnightblue" points="1770.62,-180.38 1780.64,-176.92 1770.65,-173.38 1770.62,-180.38"/>
</g>
<!-- Node32 -->
<g id="node23" class="node">
<title>Node32</title>
<g id="a_node23"><a xlink:href="spec_2comp_8h.html" target="_top" xlink:title=" ">
<polygon fill="white" stroke="red" points="1034,-112.5 1034,-131.5 1087,-131.5 1087,-112.5 1034,-112.5"/>
<text text-anchor="middle" x="1060.5" y="-119.5" font-family="Helvetica,sans-Serif" font-size="10.00">comp.h</text>
</a>
</g>
</g>
<!-- Node6&#45;&gt;Node32 -->
<g id="edge25" class="edge">
<title>Node6&#45;&gt;Node32</title>
<path fill="none" stroke="midnightblue" d="M1770.62,-177.03C1655.25,-176.45 1348.59,-171.04 1096.5,-132 1093.44,-131.53 1090.27,-130.91 1087.13,-130.23"/>
<polygon fill="midnightblue" stroke="midnightblue" points="1770.85,-180.53 1780.86,-177.07 1770.87,-173.53 1770.85,-180.53"/>
</g>
<!-- Node34 -->
<g id="node24" class="node">
<title>Node34</title>
<g id="a_node24"><a xlink:href="spec_2cpu_8h.html" target="_top" xlink:title=" ">
<polygon fill="white" stroke="red" points="1105,-112.5 1105,-131.5 1148,-131.5 1148,-112.5 1105,-112.5"/>
<text text-anchor="middle" x="1126.5" y="-119.5" font-family="Helvetica,sans-Serif" font-size="10.00">cpu.h</text>
</a>
</g>
</g>
<!-- Node6&#45;&gt;Node34 -->
<g id="edge26" class="edge">
<title>Node6&#45;&gt;Node34</title>
<path fill="none" stroke="midnightblue" d="M1770.37,-177.24C1661.53,-177.03 1384.6,-172.23 1157.5,-132 1154.41,-131.45 1151.19,-130.71 1148.04,-129.89"/>
<polygon fill="midnightblue" stroke="midnightblue" points="1770.67,-180.74 1780.68,-177.24 1770.68,-173.74 1770.67,-180.74"/>
</g>
<!-- Node39 -->
<g id="node25" class="node">
<title>Node39</title>
<g id="a_node25"><a xlink:href="spec_2crypto_8h.html" target="_top" xlink:title=" ">
<polygon fill="white" stroke="red" points="1166.5,-112.5 1166.5,-131.5 1222.5,-131.5 1222.5,-112.5 1166.5,-112.5"/>
<text text-anchor="middle" x="1194.5" y="-119.5" font-family="Helvetica,sans-Serif" font-size="10.00">crypto.h</text>
</a>
</g>
</g>
<!-- Node6&#45;&gt;Node39 -->
<g id="edge27" class="edge">
<title>Node6&#45;&gt;Node39</title>
<path fill="none" stroke="midnightblue" d="M1770.97,-175.88C1671.56,-172.95 1431.29,-162.99 1232.5,-132 1229.28,-131.5 1225.94,-130.87 1222.63,-130.18"/>
<polygon fill="midnightblue" stroke="midnightblue" points="1770.89,-179.38 1780.99,-176.17 1771.09,-172.38 1770.89,-179.38"/>
</g>
<!-- Node41 -->
<g id="node26" class="node">
<title>Node41</title>
<g id="a_node26"><a xlink:href="spec_2crypto__types_8h.html" target="_top" xlink:title=" ">
<polygon fill="white" stroke="red" points="1241,-112.5 1241,-131.5 1330,-131.5 1330,-112.5 1241,-112.5"/>
<text text-anchor="middle" x="1285.5" y="-119.5" font-family="Helvetica,sans-Serif" font-size="10.00">crypto_types.h</text>
</a>
</g>
</g>
<!-- Node6&#45;&gt;Node41 -->
<g id="edge28" class="edge">
<title>Node6&#45;&gt;Node41</title>
<path fill="none" stroke="midnightblue" d="M1770.63,-173.7C1684.87,-167.42 1497,-152.51 1339.5,-132 1336.48,-131.61 1333.38,-131.17 1330.25,-130.71"/>
<polygon fill="midnightblue" stroke="midnightblue" points="1770.59,-177.21 1780.82,-174.44 1771.1,-170.23 1770.59,-177.21"/>
</g>
<!-- Node44 -->
<g id="node27" class="node">
<title>Node44</title>
<g id="a_node27"><a xlink:href="spec_2dma__types_8h.html" target="_top" xlink:title=" ">
<polygon fill="white" stroke="red" points="1348.5,-112.5 1348.5,-131.5 1428.5,-131.5 1428.5,-112.5 1348.5,-112.5"/>
<text text-anchor="middle" x="1388.5" y="-119.5" font-family="Helvetica,sans-Serif" font-size="10.00">dma_types.h</text>
</a>
</g>
</g>
<!-- Node6&#45;&gt;Node44 -->
<g id="edge29" class="edge">
<title>Node6&#45;&gt;Node44</title>
<path fill="none" stroke="midnightblue" d="M1770.76,-172.36C1699.09,-165.04 1557.8,-149.8 1438.5,-132 1435.27,-131.52 1431.93,-130.99 1428.58,-130.43"/>
<polygon fill="midnightblue" stroke="midnightblue" points="1770.51,-175.85 1780.82,-173.38 1771.22,-168.89 1770.51,-175.85"/>
</g>
<!-- Node64 -->
<g id="node28" class="node">
<title>Node64</title>
<g id="a_node28"><a xlink:href="spec_2hash_8h.html" target="_top" xlink:title=" ">
<polygon fill="white" stroke="red" points="1447,-112.5 1447,-131.5 1496,-131.5 1496,-112.5 1447,-112.5"/>
<text text-anchor="middle" x="1471.5" y="-119.5" font-family="Helvetica,sans-Serif" font-size="10.00">hash.h</text>
</a>
</g>
</g>
<!-- Node6&#45;&gt;Node64 -->
<g id="edge30" class="edge">
<title>Node6&#45;&gt;Node64</title>
<path fill="none" stroke="midnightblue" d="M1770.63,-171.95C1709.33,-164.96 1598.77,-151.01 1505.5,-132 1502.51,-131.39 1499.39,-130.68 1496.3,-129.92"/>
<polygon fill="midnightblue" stroke="midnightblue" points="1770.43,-175.45 1780.76,-173.09 1771.21,-168.5 1770.43,-175.45"/>
</g>
<!-- Node66 -->
<g id="node29" class="node">
<title>Node66</title>
<g id="a_node29"><a xlink:href="spec_2init_8h.html" target="_top" xlink:title=" ">
<polygon fill="white" stroke="red" points="1514,-112.5 1514,-131.5 1555,-131.5 1555,-112.5 1514,-112.5"/>
<text text-anchor="middle" x="1534.5" y="-119.5" font-family="Helvetica,sans-Serif" font-size="10.00">init.h</text>
</a>
</g>
</g>
<!-- Node6&#45;&gt;Node66 -->
<g id="edge31" class="edge">
<title>Node6&#45;&gt;Node66</title>
<path fill="none" stroke="midnightblue" d="M1770.71,-170.33C1719.68,-162.68 1635.76,-148.97 1564.5,-132 1561.43,-131.27 1558.21,-130.41 1555.07,-129.51"/>
<polygon fill="midnightblue" stroke="midnightblue" points="1770.37,-173.82 1780.78,-171.83 1771.4,-166.9 1770.37,-173.82"/>
</g>
<!-- Node20 -->
<g id="node30" class="node">
<title>Node20</title>
<g id="a_node30"><a xlink:href="spec_2ipsec_8h.html" target="_top" xlink:title=" ">
<polygon fill="white" stroke="red" points="1573,-112.5 1573,-131.5 1624,-131.5 1624,-112.5 1573,-112.5"/>
<text text-anchor="middle" x="1598.5" y="-119.5" font-family="Helvetica,sans-Serif" font-size="10.00">ipsec.h</text>
</a>
</g>
</g>
<!-- Node6&#45;&gt;Node20 -->
<g id="edge32" class="edge">
<title>Node6&#45;&gt;Node20</title>
<path fill="none" stroke="midnightblue" d="M1772.15,-166.07C1734.89,-157.05 1680.73,-143.85 1633.5,-132 1630.46,-131.24 1627.27,-130.43 1624.11,-129.62"/>
<polygon fill="midnightblue" stroke="midnightblue" points="1771.65,-169.55 1782.2,-168.5 1773.3,-162.74 1771.65,-169.55"/>
</g>
<!-- Node50 -->
<g id="node31" class="node">
<title>Node50</title>
<g id="a_node31"><a xlink:href="spec_2packet_8h.html" target="_top" xlink:title=" ">
<polygon fill="white" stroke="red" points="1642.5,-112.5 1642.5,-131.5 1700.5,-131.5 1700.5,-112.5 1642.5,-112.5"/>
<text text-anchor="middle" x="1671.5" y="-119.5" font-family="Helvetica,sans-Serif" font-size="10.00">packet.h</text>
</a>
</g>
</g>
<!-- Node6&#45;&gt;Node50 -->
<g id="edge34" class="edge">
<title>Node6&#45;&gt;Node50</title>
<path fill="none" stroke="midnightblue" d="M1784.8,-164.91C1757.35,-154.75 1718.83,-140.51 1694.53,-131.52"/>
<polygon fill="midnightblue" stroke="midnightblue" points="1783.77,-168.26 1794.37,-168.44 1786.2,-161.69 1783.77,-168.26"/>
</g>
<!-- Node77 -->
<g id="node32" class="node">
<title>Node77</title>
<g id="a_node32"><a xlink:href="spec_2packet__flags_8h.html" target="_top" xlink:title=" ">
<polygon fill="white" stroke="red" points="1718.5,-112.5 1718.5,-131.5 1804.5,-131.5 1804.5,-112.5 1718.5,-112.5"/>
<text text-anchor="middle" x="1761.5" y="-119.5" font-family="Helvetica,sans-Serif" font-size="10.00">packet_flags.h</text>
</a>
</g>
</g>
<!-- Node6&#45;&gt;Node77 -->
<g id="edge35" class="edge">
<title>Node6&#45;&gt;Node77</title>
<path fill="none" stroke="midnightblue" d="M1801.17,-161.25C1791.24,-151.67 1778.91,-139.79 1770.66,-131.83"/>
<polygon fill="midnightblue" stroke="midnightblue" points="1798.87,-163.9 1808.5,-168.32 1803.73,-158.86 1798.87,-163.9"/>
</g>
<!-- Node52 -->
<g id="node33" class="node">
<title>Node52</title>
<g id="a_node33"><a xlink:href="spec_2packet__io__types_8h.html" target="_top" xlink:title=" ">
<polygon fill="white" stroke="red" points="1822.5,-112.5 1822.5,-131.5 1926.5,-131.5 1926.5,-112.5 1822.5,-112.5"/>
<text text-anchor="middle" x="1874.5" y="-119.5" font-family="Helvetica,sans-Serif" font-size="10.00">packet_io_types.h</text>
</a>
</g>
</g>
<!-- Node6&#45;&gt;Node52 -->
<g id="edge36" class="edge">
<title>Node6&#45;&gt;Node52</title>
<path fill="none" stroke="midnightblue" d="M1834.12,-161.25C1844.23,-151.67 1856.78,-139.79 1865.18,-131.83"/>
<polygon fill="midnightblue" stroke="midnightblue" points="1831.51,-158.91 1826.66,-168.32 1836.32,-163.99 1831.51,-158.91"/>
</g>
<!-- Node56 -->
<g id="node34" class="node">
<title>Node56</title>
<g id="a_node34"><a xlink:href="spec_2pool_8h.html" target="_top" xlink:title=" ">
<polygon fill="white" stroke="red" points="1945,-112.5 1945,-131.5 1992,-131.5 1992,-112.5 1945,-112.5"/>
<text text-anchor="middle" x="1968.5" y="-119.5" font-family="Helvetica,sans-Serif" font-size="10.00">pool.h</text>
</a>
</g>
</g>
<!-- Node6&#45;&gt;Node56 -->
<g id="edge37" class="edge">
<title>Node6&#45;&gt;Node56</title>
<path fill="none" stroke="midnightblue" d="M1850.95,-165.04C1879.36,-154.88 1919.44,-140.55 1944.69,-131.52"/>
<polygon fill="midnightblue" stroke="midnightblue" points="1849.66,-161.78 1841.43,-168.44 1852.02,-168.37 1849.66,-161.78"/>
</g>
<!-- Node48 -->
<g id="node35" class="node">
<title>Node48</title>
<g id="a_node35"><a xlink:href="spec_2pool__types_8h.html" target="_top" xlink:title=" ">
<polygon fill="white" stroke="red" points="2010,-112.5 2010,-131.5 2089,-131.5 2089,-112.5 2010,-112.5"/>
<text text-anchor="middle" x="2049.5" y="-119.5" font-family="Helvetica,sans-Serif" font-size="10.00">pool_types.h</text>
</a>
</g>
</g>
<!-- Node6&#45;&gt;Node48 -->
<g id="edge38" class="edge">
<title>Node6&#45;&gt;Node48</title>
<path fill="none" stroke="midnightblue" d="M1863.84,-166.21C1907.64,-156.02 1972.51,-140.92 2012.82,-131.54"/>
<polygon fill="midnightblue" stroke="midnightblue" points="1862.95,-162.83 1854.01,-168.5 1864.54,-169.64 1862.95,-162.83"/>
</g>
<!-- Node79 -->
<g id="node36" class="node">
<title>Node79</title>
<g id="a_node36"><a xlink:href="spec_2proto__stats__types_8h.html" target="_top" xlink:title=" ">
<polygon fill="white" stroke="red" points="2107,-112.5 2107,-131.5 2220,-131.5 2220,-112.5 2107,-112.5"/>
<text text-anchor="middle" x="2163.5" y="-119.5" font-family="Helvetica,sans-Serif" font-size="10.00">proto_stats_types.h</text>
</a>
</g>
</g>
<!-- Node6&#45;&gt;Node79 -->
<g id="edge39" class="edge">
<title>Node6&#45;&gt;Node79</title>
<path fill="none" stroke="midnightblue" d="M1864.34,-169.69C1927.93,-159.77 2041.36,-142.06 2108.79,-131.54"/>
<polygon fill="midnightblue" stroke="midnightblue" points="1863.54,-166.27 1854.2,-171.27 1864.62,-173.19 1863.54,-166.27"/>
</g>
<!-- Node89 -->
<g id="node37" class="node">
<title>Node89</title>
<g id="a_node37"><a xlink:href="spec_2queue_8h.html" target="_top" xlink:title=" ">
<polygon fill="white" stroke="red" points="2238.5,-112.5 2238.5,-131.5 2294.5,-131.5 2294.5,-112.5 2238.5,-112.5"/>
<text text-anchor="middle" x="2266.5" y="-119.5" font-family="Helvetica,sans-Serif" font-size="10.00">queue.h</text>
</a>
</g>
</g>
<!-- Node6&#45;&gt;Node89 -->
<g id="edge40" class="edge">
<title>Node6&#45;&gt;Node89</title>
<path fill="none" stroke="midnightblue" d="M1864.38,-173.87C1941.13,-168.3 2098.19,-155.04 2229.5,-132 2232.37,-131.5 2235.34,-130.9 2238.3,-130.26"/>
<polygon fill="midnightblue" stroke="midnightblue" points="1863.82,-170.4 1854.1,-174.61 1864.32,-177.38 1863.82,-170.4"/>
</g>
<!-- Node91 -->
<g id="node38" class="node">
<title>Node91</title>
<g id="a_node38"><a xlink:href="spec_2random_8h.html" target="_top" xlink:title=" ">
<polygon fill="white" stroke="red" points="2313,-112.5 2313,-131.5 2376,-131.5 2376,-112.5 2313,-112.5"/>
<text text-anchor="middle" x="2344.5" y="-119.5" font-family="Helvetica,sans-Serif" font-size="10.00">random.h</text>
</a>
</g>
</g>
<!-- Node6&#45;&gt;Node91 -->
<g id="edge41" class="edge">
<title>Node6&#45;&gt;Node91</title>
<path fill="none" stroke="midnightblue" d="M1864.34,-174.6C1951.3,-169.7 2143.39,-156.89 2303.5,-132 2306.52,-131.53 2309.66,-130.97 2312.79,-130.37"/>
<polygon fill="midnightblue" stroke="midnightblue" points="1864.06,-171.11 1854.27,-175.15 1864.45,-178.09 1864.06,-171.11"/>
</g>
<!-- Node93 -->
<g id="node39" class="node">
<title>Node93</title>
<g id="a_node39"><a xlink:href="spec_2random__types_8h.html" target="_top" xlink:title=" ">
<polygon fill="white" stroke="red" points="2394,-112.5 2394,-131.5 2489,-131.5 2489,-112.5 2394,-112.5"/>
<text text-anchor="middle" x="2441.5" y="-119.5" font-family="Helvetica,sans-Serif" font-size="10.00">random_types.h</text>
</a>
</g>
</g>
<!-- Node6&#45;&gt;Node93 -->
<g id="edge42" class="edge">
<title>Node6&#45;&gt;Node93</title>
<path fill="none" stroke="midnightblue" d="M1864.24,-174.57C1961.5,-169.24 2192.65,-155.1 2385.5,-132 2388.24,-131.67 2391.05,-131.31 2393.88,-130.92"/>
<polygon fill="midnightblue" stroke="midnightblue" points="1863.94,-171.08 1854.15,-175.12 1864.32,-178.07 1863.94,-171.08"/>
</g>
<!-- Node95 -->
<g id="node40" class="node">
<title>Node95</title>
<g id="a_node40"><a xlink:href="spec_2reassembly_8h.html" target="_top" xlink:title=" ">
<polygon fill="white" stroke="red" points="2507,-112.5 2507,-131.5 2588,-131.5 2588,-112.5 2507,-112.5"/>
<text text-anchor="middle" x="2547.5" y="-119.5" font-family="Helvetica,sans-Serif" font-size="10.00">reassembly.h</text>
</a>
</g>
</g>
<!-- Node6&#45;&gt;Node95 -->
<g id="edge43" class="edge">
<title>Node6&#45;&gt;Node95</title>
<path fill="none" stroke="midnightblue" d="M1864.34,-175.77C1975.03,-172.46 2261.29,-161.52 2498.5,-132 2501.25,-131.66 2504.07,-131.26 2506.91,-130.83"/>
<polygon fill="midnightblue" stroke="midnightblue" points="1864.08,-172.28 1854.18,-176.07 1864.28,-179.27 1864.08,-172.28"/>
</g>
<!-- Node97 -->
<g id="node41" class="node">
<title>Node97</title>
<g id="a_node41"><a xlink:href="spec_2schedule_8h.html" target="_top" xlink:title=" ">
<polygon fill="white" stroke="red" points="2606,-112.5 2606,-131.5 2675,-131.5 2675,-112.5 2606,-112.5"/>
<text text-anchor="middle" x="2640.5" y="-119.5" font-family="Helvetica,sans-Serif" font-size="10.00">schedule.h</text>
</a>
</g>
</g>
<!-- Node6&#45;&gt;Node97 -->
<g id="edge44" class="edge">
<title>Node6&#45;&gt;Node97</title>
<path fill="none" stroke="midnightblue" d="M1864.31,-176.72C1985.83,-175.47 2321.17,-168.68 2597.5,-132 2600.22,-131.64 2603.03,-131.2 2605.84,-130.72"/>
<polygon fill="midnightblue" stroke="midnightblue" points="1864.2,-173.22 1854.23,-176.82 1864.27,-180.22 1864.2,-173.22"/>
</g>
<!-- Node99 -->
<g id="node42" class="node">
<title>Node99</title>
<g id="a_node42"><a xlink:href="spec_2schedule__types_8h.html" target="_top" xlink:title=" ">
<polygon fill="white" stroke="red" points="2693,-112.5 2693,-131.5 2794,-131.5 2794,-112.5 2693,-112.5"/>
<text text-anchor="middle" x="2743.5" y="-119.5" font-family="Helvetica,sans-Serif" font-size="10.00">schedule_types.h</text>
</a>
</g>
</g>
<!-- Node6&#45;&gt;Node99 -->
<g id="edge45" class="edge">
<title>Node6&#45;&gt;Node99</title>
<path fill="none" stroke="midnightblue" d="M1864.4,-176.21C1994.77,-173.64 2372.44,-163.82 2684.5,-132 2687.18,-131.73 2689.92,-131.42 2692.69,-131.08"/>
<polygon fill="midnightblue" stroke="midnightblue" points="1864.29,-172.71 1854.36,-176.4 1864.43,-179.71 1864.29,-172.71"/>
</g>
<!-- Node107 -->
<g id="node43" class="node">
<title>Node107</title>
<g id="a_node43"><a xlink:href="spec_2stash__types_8h.html" target="_top" xlink:title=" ">
<polygon fill="white" stroke="red" points="2812.5,-112.5 2812.5,-131.5 2896.5,-131.5 2896.5,-112.5 2812.5,-112.5"/>
<text text-anchor="middle" x="2854.5" y="-119.5" font-family="Helvetica,sans-Serif" font-size="10.00">stash_types.h</text>
</a>
</g>
</g>
<!-- Node6&#45;&gt;Node107 -->
<g id="edge46" class="edge">
<title>Node6&#45;&gt;Node107</title>
<path fill="none" stroke="midnightblue" d="M1864.44,-177C2006.44,-176.55 2443.76,-171.78 2803.5,-132 2806.36,-131.68 2809.3,-131.31 2812.26,-130.89"/>
<polygon fill="midnightblue" stroke="midnightblue" points="1864.33,-173.5 1854.34,-177.03 1864.35,-180.5 1864.33,-173.5"/>
</g>
<!-- Node111 -->
<g id="node44" class="node">
<title>Node111</title>
<g id="a_node44"><a xlink:href="spec_2std_8h.html" target="_top" xlink:title=" ">
<polygon fill="white" stroke="red" points="2915,-112.5 2915,-131.5 2956,-131.5 2956,-112.5 2915,-112.5"/>
<text text-anchor="middle" x="2935.5" y="-119.5" font-family="Helvetica,sans-Serif" font-size="10.00">std.h</text>
</a>
</g>
</g>
<!-- Node6&#45;&gt;Node111 -->
<g id="edge47" class="edge">
<title>Node6&#45;&gt;Node111</title>
<path fill="none" stroke="midnightblue" d="M1864.45,-176.62C2045.81,-174.9 2700.65,-166.4 2905.5,-132 2908.5,-131.5 2911.63,-130.78 2914.68,-129.97"/>
<polygon fill="midnightblue" stroke="midnightblue" points="1864.15,-173.12 1854.18,-176.71 1864.22,-180.12 1864.15,-173.12"/>
</g>
<!-- Node113 -->
<g id="node45" class="node">
<title>Node113</title>
<g id="a_node45"><a xlink:href="spec_2threshold_8h.html" target="_top" xlink:title=" ">
<polygon fill="white" stroke="red" points="2974,-112.5 2974,-131.5 3045,-131.5 3045,-112.5 2974,-112.5"/>
<text text-anchor="middle" x="3009.5" y="-119.5" font-family="Helvetica,sans-Serif" font-size="10.00">threshold.h</text>
</a>
</g>
</g>
<!-- Node6&#45;&gt;Node113 -->
<g id="edge48" class="edge">
<title>Node6&#45;&gt;Node113</title>
<path fill="none" stroke="midnightblue" d="M1864.18,-176.18C2051.22,-172.76 2746.87,-158.47 2965.5,-132 2968.13,-131.68 2970.84,-131.29 2973.56,-130.85"/>
<polygon fill="midnightblue" stroke="midnightblue" points="1864.06,-172.69 1854.13,-176.37 1864.19,-179.68 1864.06,-172.69"/>
</g>
<!-- Node115 -->
<g id="node46" class="node">
<title>Node115</title>
<g id="a_node46"><a xlink:href="spec_2thrmask_8h.html" target="_top" xlink:title=" ">
<polygon fill="white" stroke="red" points="3063.5,-112.5 3063.5,-131.5 3129.5,-131.5 3129.5,-112.5 3063.5,-112.5"/>
<text text-anchor="middle" x="3096.5" y="-119.5" font-family="Helvetica,sans-Serif" font-size="10.00">thrmask.h</text>
</a>
</g>
</g>
<!-- Node6&#45;&gt;Node115 -->
<g id="edge49" class="edge">
<title>Node6&#45;&gt;Node115</title>
<path fill="none" stroke="midnightblue" d="M1864.53,-176.39C2061.11,-173.66 2817.74,-161.44 3054.5,-132 3057.31,-131.65 3060.21,-131.21 3063.12,-130.7"/>
<polygon fill="midnightblue" stroke="midnightblue" points="1864.21,-172.89 1854.26,-176.53 1864.3,-179.89 1864.21,-172.89"/>
</g>
<!-- Node117 -->
<g id="node47" class="node">
<title>Node117</title>
<g id="a_node47"><a xlink:href="spec_2time_8h.html" target="_top" xlink:title=" ">
<polygon fill="white" stroke="red" points="3147.5,-112.5 3147.5,-131.5 3195.5,-131.5 3195.5,-112.5 3147.5,-112.5"/>
<text text-anchor="middle" x="3171.5" y="-119.5" font-family="Helvetica,sans-Serif" font-size="10.00">time.h</text>
</a>
</g>
</g>
<!-- Node6&#45;&gt;Node117 -->
<g id="edge50" class="edge">
<title>Node6&#45;&gt;Node117</title>
<path fill="none" stroke="midnightblue" d="M1864.41,-176.86C2069.12,-176.03 2885.24,-170.32 3138.5,-132 3141.44,-131.56 3144.48,-130.94 3147.49,-130.24"/>
<polygon fill="midnightblue" stroke="midnightblue" points="1864.28,-173.36 1854.29,-176.9 1864.31,-180.36 1864.28,-173.36"/>
</g>
<!-- Node119 -->
<g id="node48" class="node">
<title>Node119</title>
<g id="a_node48"><a xlink:href="spec_2timer__types_8h.html" target="_top" xlink:title=" ">
<polygon fill="white" stroke="red" points="3213.5,-112.5 3213.5,-131.5 3297.5,-131.5 3297.5,-112.5 3213.5,-112.5"/>
<text text-anchor="middle" x="3255.5" y="-119.5" font-family="Helvetica,sans-Serif" font-size="10.00">timer_types.h</text>
</a>
</g>
</g>
<!-- Node6&#45;&gt;Node119 -->
<g id="edge51" class="edge">
<title>Node6&#45;&gt;Node119</title>
<path fill="none" stroke="midnightblue" d="M1864.26,-176.38C2074.77,-173.44 2936,-159.9 3204.5,-132 3207.36,-131.7 3210.3,-131.34 3213.26,-130.93"/>
<polygon fill="midnightblue" stroke="midnightblue" points="1864.11,-172.88 1854.16,-176.52 1864.21,-179.88 1864.11,-172.88"/>
</g>
<!-- Node54 -->
<g id="node49" class="node">
<title>Node54</title>
<g id="a_node49"><a xlink:href="spec_2traffic__mngr_8h.html" target="_top" xlink:title=" ">
<polygon fill="white" stroke="red" points="3315.5,-112.5 3315.5,-131.5 3399.5,-131.5 3399.5,-112.5 3315.5,-112.5"/>
<text text-anchor="middle" x="3357.5" y="-119.5" font-family="Helvetica,sans-Serif" font-size="10.00">traffic_mngr.h</text>
</a>
</g>
</g>
<!-- Node6&#45;&gt;Node54 -->
<g id="edge52" class="edge">
<title>Node6&#45;&gt;Node54</title>
<path fill="none" stroke="midnightblue" d="M1864.43,-176.5C2084.64,-173.99 3016.83,-161.78 3306.5,-132 3309.36,-131.71 3312.31,-131.34 3315.27,-130.94"/>
<polygon fill="midnightblue" stroke="midnightblue" points="1864.15,-173 1854.19,-176.61 1864.23,-180 1864.15,-173"/>
</g>
<!-- Node17&#45;&gt;Node18 -->
<g id="edge19" class="edge">
<title>Node17&#45;&gt;Node18</title>
<path fill="none" stroke="midnightblue" d="M668.55,-47.57C662.19,-38.27 654.63,-27.25 649.5,-19.75"/>
<polygon fill="midnightblue" stroke="midnightblue" points="665.85,-49.81 674.39,-56.08 671.63,-45.86 665.85,-49.81"/>
</g>
<!-- Node31&#45;&gt;Node17 -->
<g id="edge24" class="edge">
<title>Node31&#45;&gt;Node17</title>
<path fill="none" stroke="midnightblue" d="M680.5,-101.8C680.5,-92.91 680.5,-82.78 680.5,-75.75"/>
<polygon fill="midnightblue" stroke="midnightblue" points="677,-102.08 680.5,-112.08 684,-102.08 677,-102.08"/>
</g>
</g>
</svg>
