<?xml version="1.0" encoding="UTF-8" standalone="no"?>
<!DOCTYPE svg PUBLIC "-//W3C//DTD SVG 1.1//EN"
 "http://www.w3.org/Graphics/SVG/1.1/DTD/svg11.dtd">
<!-- Generated by graphviz version 2.43.0 (0)
 -->
<!-- Title: hints.h Pages: 1 -->
<svg width="1614pt" height="375pt"
 viewBox="0.00 0.00 1613.50 375.00" xmlns="http://www.w3.org/2000/svg" xmlns:xlink="http://www.w3.org/1999/xlink">
<g id="graph0" class="graph" transform="scale(1 1) rotate(0) translate(4 371)">
<title>hints.h</title>
<polygon fill="white" stroke="transparent" points="-4,4 -4,-371 1609.5,-371 1609.5,4 -4,4"/>
<!-- Node1 -->
<g id="node1" class="node">
<title>Node1</title>
<g id="a_node1"><a xlink:title=" ">
<polygon fill="#bfbfbf" stroke="black" points="1088.5,-347.5 1088.5,-366.5 1138.5,-366.5 1138.5,-347.5 1088.5,-347.5"/>
<text text-anchor="middle" x="1113.5" y="-354.5" font-family="Helvetica,sans-Serif" font-size="10.00">hints.h</text>
</a>
</g>
</g>
<!-- Node2 -->
<g id="node2" class="node">
<title>Node2</title>
<g id="a_node2"><a xlink:href="hints_8h.html" target="_top" xlink:title=" ">
<polygon fill="white" stroke="black" points="1088.5,-291.5 1088.5,-310.5 1138.5,-310.5 1138.5,-291.5 1088.5,-291.5"/>
<text text-anchor="middle" x="1113.5" y="-298.5" font-family="Helvetica,sans-Serif" font-size="10.00">hints.h</text>
</a>
</g>
</g>
<!-- Node1&#45;&gt;Node2 -->
<g id="edge1" class="edge">
<title>Node1&#45;&gt;Node2</title>
<path fill="none" stroke="midnightblue" d="M1113.5,-336.8C1113.5,-327.91 1113.5,-317.78 1113.5,-310.75"/>
<polygon fill="midnightblue" stroke="midnightblue" points="1110,-337.08 1113.5,-347.08 1117,-337.08 1110,-337.08"/>
</g>
<!-- Node3 -->
<g id="node3" class="node">
<title>Node3</title>
<g id="a_node3"><a xlink:href="spec_2init_8h.html" target="_top" xlink:title=" ">
<polygon fill="white" stroke="black" points="789,-235.5 789,-254.5 830,-254.5 830,-235.5 789,-235.5"/>
<text text-anchor="middle" x="809.5" y="-242.5" font-family="Helvetica,sans-Serif" font-size="10.00">init.h</text>
</a>
</g>
</g>
<!-- Node2&#45;&gt;Node3 -->
<g id="edge2" class="edge">
<title>Node2&#45;&gt;Node3</title>
<path fill="none" stroke="midnightblue" d="M1078.37,-293.76C1014.53,-282.42 881.35,-258.76 830.16,-249.67"/>
<polygon fill="midnightblue" stroke="midnightblue" points="1077.91,-297.23 1088.36,-295.54 1079.13,-290.34 1077.91,-297.23"/>
</g>
<!-- Node7 -->
<g id="node7" class="node">
<title>Node7</title>
<g id="a_node7"><a xlink:href="debug__inlines_8h.html" target="_top" xlink:title=" ">
<polygon fill="white" stroke="black" points="614,-67.5 614,-86.5 707,-86.5 707,-67.5 614,-67.5"/>
<text text-anchor="middle" x="660.5" y="-74.5" font-family="Helvetica,sans-Serif" font-size="10.00">debug_inlines.h</text>
</a>
</g>
</g>
<!-- Node2&#45;&gt;Node7 -->
<g id="edge22" class="edge">
<title>Node2&#45;&gt;Node7</title>
<path fill="none" stroke="midnightblue" d="M1078.81,-288.34C1054.59,-279.87 1021.67,-267.7 993.5,-255 866.67,-197.8 720.95,-113.6 675.09,-86.64"/>
<polygon fill="midnightblue" stroke="midnightblue" points="1077.7,-291.66 1088.3,-291.62 1079.99,-285.04 1077.7,-291.66"/>
</g>
<!-- Node10 -->
<g id="node10" class="node">
<title>Node10</title>
<g id="a_node10"><a xlink:href="dma__inlines_8h_source.html" target="_top" xlink:title=" ">
<polygon fill="white" stroke="black" points="1001,-6 1001,-25 1086,-25 1086,-6 1001,-6"/>
<text text-anchor="middle" x="1043.5" y="-13" font-family="Helvetica,sans-Serif" font-size="10.00">dma_inlines.h</text>
</a>
</g>
</g>
<!-- Node2&#45;&gt;Node10 -->
<g id="edge23" class="edge">
<title>Node2&#45;&gt;Node10</title>
<path fill="none" stroke="midnightblue" d="M1085.86,-286.48C1054.45,-268.95 1007.5,-235.19 1007.5,-190 1007.5,-190 1007.5,-190 1007.5,-132 1007.5,-90.41 1029.04,-44.06 1038.79,-25.2"/>
<polygon fill="midnightblue" stroke="midnightblue" points="1084.57,-289.76 1095.04,-291.39 1087.87,-283.59 1084.57,-289.76"/>
</g>
<!-- Node12 -->
<g id="node12" class="node">
<title>Node12</title>
<g id="a_node12"><a xlink:href="packet__inlines_8h.html" target="_top" xlink:title=" ">
<polygon fill="white" stroke="black" points="1104,-6 1104,-25 1199,-25 1199,-6 1104,-6"/>
<text text-anchor="middle" x="1151.5" y="-13" font-family="Helvetica,sans-Serif" font-size="10.00">packet_inlines.h</text>
</a>
</g>
</g>
<!-- Node2&#45;&gt;Node12 -->
<g id="edge27" class="edge">
<title>Node2&#45;&gt;Node12</title>
<path fill="none" stroke="midnightblue" d="M1092.68,-285.18C1082.87,-277.24 1071.76,-266.68 1064.5,-255 1048.61,-229.44 1045.5,-220.1 1045.5,-190 1045.5,-190 1045.5,-190 1045.5,-132 1045.5,-80.02 1104.51,-41.31 1134.47,-25"/>
<polygon fill="midnightblue" stroke="midnightblue" points="1090.77,-288.13 1100.83,-291.46 1095.04,-282.58 1090.77,-288.13"/>
</g>
<!-- Node20 -->
<g id="node20" class="node">
<title>Node20</title>
<g id="a_node20"><a xlink:href="cpu__inlines_8h_source.html" target="_top" xlink:title=" ">
<polygon fill="white" stroke="black" points="1073.5,-235.5 1073.5,-254.5 1153.5,-254.5 1153.5,-235.5 1073.5,-235.5"/>
<text text-anchor="middle" x="1113.5" y="-242.5" font-family="Helvetica,sans-Serif" font-size="10.00">cpu_inlines.h</text>
</a>
</g>
</g>
<!-- Node2&#45;&gt;Node20 -->
<g id="edge21" class="edge">
<title>Node2&#45;&gt;Node20</title>
<path fill="none" stroke="midnightblue" d="M1113.5,-280.8C1113.5,-271.91 1113.5,-261.78 1113.5,-254.75"/>
<polygon fill="midnightblue" stroke="midnightblue" points="1110,-281.08 1113.5,-291.08 1117,-281.08 1110,-281.08"/>
</g>
<!-- Node21 -->
<g id="node21" class="node">
<title>Node21</title>
<g id="a_node21"><a xlink:href="event__validation__external_8h.html" target="_top" xlink:title=" ">
<polygon fill="white" stroke="black" points="1172,-235.5 1172,-254.5 1325,-254.5 1325,-235.5 1172,-235.5"/>
<text text-anchor="middle" x="1248.5" y="-242.5" font-family="Helvetica,sans-Serif" font-size="10.00">event_validation_external.h</text>
</a>
</g>
</g>
<!-- Node2&#45;&gt;Node21 -->
<g id="edge24" class="edge">
<title>Node2&#45;&gt;Node21</title>
<path fill="none" stroke="midnightblue" d="M1144.41,-287.64C1169.74,-277.5 1204.93,-263.43 1227.21,-254.52"/>
<polygon fill="midnightblue" stroke="midnightblue" points="1142.88,-284.48 1134.89,-291.44 1145.48,-290.98 1142.88,-284.48"/>
</g>
<!-- Node22 -->
<g id="node22" class="node">
<title>Node22</title>
<g id="a_node22"><a xlink:href="queue__inlines_8h_source.html" target="_top" xlink:title=" ">
<polygon fill="white" stroke="black" points="1254,-179.5 1254,-198.5 1347,-198.5 1347,-179.5 1254,-179.5"/>
<text text-anchor="middle" x="1300.5" y="-186.5" font-family="Helvetica,sans-Serif" font-size="10.00">queue_inlines.h</text>
</a>
</g>
</g>
<!-- Node2&#45;&gt;Node22 -->
<g id="edge28" class="edge">
<title>Node2&#45;&gt;Node22</title>
<path fill="none" stroke="midnightblue" d="M1148.86,-298.07C1205.22,-294.18 1311.46,-283.2 1334.5,-255 1349.16,-237.05 1325.79,-211.77 1311.06,-198.65"/>
<polygon fill="midnightblue" stroke="midnightblue" points="1148.37,-294.6 1138.62,-298.74 1148.82,-301.58 1148.37,-294.6"/>
</g>
<!-- Node23 -->
<g id="node23" class="node">
<title>Node23</title>
<g id="a_node23"><a xlink:href="packet__flag__inlines_8h.html" target="_top" xlink:title=" ">
<polygon fill="white" stroke="black" points="1382,-235.5 1382,-254.5 1501,-254.5 1501,-235.5 1382,-235.5"/>
<text text-anchor="middle" x="1441.5" y="-242.5" font-family="Helvetica,sans-Serif" font-size="10.00">packet_flag_inlines.h</text>
</a>
</g>
</g>
<!-- Node2&#45;&gt;Node23 -->
<g id="edge26" class="edge">
<title>Node2&#45;&gt;Node23</title>
<path fill="none" stroke="midnightblue" d="M1148.83,-294.18C1206.84,-284.63 1322.52,-265.59 1389.77,-254.52"/>
<polygon fill="midnightblue" stroke="midnightblue" points="1147.99,-290.77 1138.69,-295.85 1149.13,-297.68 1147.99,-290.77"/>
</g>
<!-- Node24 -->
<g id="node24" class="node">
<title>Node24</title>
<g id="a_node24"><a xlink:href="time__inlines_8h_source.html" target="_top" xlink:title=" ">
<polygon fill="white" stroke="black" points="1519.5,-235.5 1519.5,-254.5 1605.5,-254.5 1605.5,-235.5 1519.5,-235.5"/>
<text text-anchor="middle" x="1562.5" y="-242.5" font-family="Helvetica,sans-Serif" font-size="10.00">time_inlines.h</text>
</a>
</g>
</g>
<!-- Node2&#45;&gt;Node24 -->
<g id="edge29" class="edge">
<title>Node2&#45;&gt;Node24</title>
<path fill="none" stroke="midnightblue" d="M1149.02,-296.68C1218.58,-290.02 1377.54,-274.03 1510.5,-255 1513.4,-254.58 1516.39,-254.13 1519.4,-253.66"/>
<polygon fill="midnightblue" stroke="midnightblue" points="1148.27,-293.23 1138.65,-297.67 1148.93,-300.2 1148.27,-293.23"/>
</g>
<!-- Node4 -->
<g id="node4" class="node">
<title>Node4</title>
<g id="a_node4"><a xlink:href="init_8h.html" target="_top" xlink:title=" ">
<polygon fill="white" stroke="black" points="607,-179.5 607,-198.5 648,-198.5 648,-179.5 607,-179.5"/>
<text text-anchor="middle" x="627.5" y="-186.5" font-family="Helvetica,sans-Serif" font-size="10.00">init.h</text>
</a>
</g>
</g>
<!-- Node3&#45;&gt;Node4 -->
<g id="edge3" class="edge">
<title>Node3&#45;&gt;Node4</title>
<path fill="none" stroke="midnightblue" d="M779.22,-235.02C742.13,-224.01 680.31,-205.67 648.23,-196.15"/>
<polygon fill="midnightblue" stroke="midnightblue" points="778.39,-238.42 788.98,-237.91 780.38,-231.71 778.39,-238.42"/>
</g>
<!-- Node5 -->
<g id="node5" class="node">
<title>Node5</title>
<g id="a_node5"><a xlink:href="spec_2shared__memory_8h.html" target="_top" xlink:title=" ">
<polygon fill="white" stroke="black" points="397.5,-123.5 397.5,-142.5 501.5,-142.5 501.5,-123.5 397.5,-123.5"/>
<text text-anchor="middle" x="449.5" y="-130.5" font-family="Helvetica,sans-Serif" font-size="10.00">shared_memory.h</text>
</a>
</g>
</g>
<!-- Node4&#45;&gt;Node5 -->
<g id="edge4" class="edge">
<title>Node4&#45;&gt;Node5</title>
<path fill="none" stroke="midnightblue" d="M597.03,-178.76C563.57,-168.61 510.28,-152.44 477.74,-142.57"/>
<polygon fill="midnightblue" stroke="midnightblue" points="596.15,-182.15 606.73,-181.7 598.18,-175.45 596.15,-182.15"/>
</g>
<!-- Node4&#45;&gt;Node7 -->
<g id="edge6" class="edge">
<title>Node4&#45;&gt;Node7</title>
<path fill="none" stroke="midnightblue" d="M657.64,-176.82C672.48,-169.6 688.98,-158.6 697.5,-143 708.58,-122.71 686.36,-99.21 671.8,-86.78"/>
<polygon fill="midnightblue" stroke="midnightblue" points="655.93,-173.75 648.22,-181.03 658.78,-180.14 655.93,-173.75"/>
</g>
<!-- Node18 -->
<g id="node18" class="node">
<title>Node18</title>
<g id="a_node18"><a xlink:href="thread__inline__types_8h_source.html" target="_top" xlink:title=" ">
<polygon fill="white" stroke="black" points="566.5,-123.5 566.5,-142.5 688.5,-142.5 688.5,-123.5 566.5,-123.5"/>
<text text-anchor="middle" x="627.5" y="-130.5" font-family="Helvetica,sans-Serif" font-size="10.00">thread_inline_types.h</text>
</a>
</g>
</g>
<!-- Node4&#45;&gt;Node18 -->
<g id="edge17" class="edge">
<title>Node4&#45;&gt;Node18</title>
<path fill="none" stroke="midnightblue" d="M627.5,-168.8C627.5,-159.91 627.5,-149.78 627.5,-142.75"/>
<polygon fill="midnightblue" stroke="midnightblue" points="624,-169.08 627.5,-179.08 631,-169.08 624,-169.08"/>
</g>
<!-- Node19 -->
<g id="node19" class="node">
<title>Node19</title>
<g id="a_node19"><a xlink:href="thread__inlines_8h_source.html" target="_top" xlink:title=" ">
<polygon fill="white" stroke="black" points="501,-67.5 501,-86.5 596,-86.5 596,-67.5 501,-67.5"/>
<text text-anchor="middle" x="548.5" y="-74.5" font-family="Helvetica,sans-Serif" font-size="10.00">thread_inlines.h</text>
</a>
</g>
</g>
<!-- Node4&#45;&gt;Node19 -->
<g id="edge20" class="edge">
<title>Node4&#45;&gt;Node19</title>
<path fill="none" stroke="midnightblue" d="M597.63,-176.02C583.17,-168.66 566.94,-157.78 557.5,-143 546.34,-125.53 546.5,-100.05 547.52,-86.77"/>
<polygon fill="midnightblue" stroke="midnightblue" points="596.25,-179.24 606.78,-180.35 599.24,-172.91 596.25,-179.24"/>
</g>
<!-- Node6 -->
<g id="node6" class="node">
<title>Node6</title>
<g id="a_node6"><a xlink:href="shared__memory_8h.html" target="_top" xlink:title=" ">
<polygon fill="white" stroke="black" points="378.5,-67.5 378.5,-86.5 482.5,-86.5 482.5,-67.5 378.5,-67.5"/>
<text text-anchor="middle" x="430.5" y="-74.5" font-family="Helvetica,sans-Serif" font-size="10.00">shared_memory.h</text>
</a>
</g>
</g>
<!-- Node5&#45;&gt;Node6 -->
<g id="edge5" class="edge">
<title>Node5&#45;&gt;Node6</title>
<path fill="none" stroke="midnightblue" d="M442.95,-113.4C439.78,-104.36 436.11,-93.94 433.58,-86.75"/>
<polygon fill="midnightblue" stroke="midnightblue" points="439.74,-114.81 446.36,-123.08 446.35,-112.49 439.74,-114.81"/>
</g>
<!-- Node8 -->
<g id="node8" class="node">
<title>Node8</title>
<g id="a_node8"><a xlink:href="buffer__inlines_8h_source.html" target="_top" xlink:title=" ">
<polygon fill="white" stroke="black" points="357.5,-6 357.5,-25 449.5,-25 449.5,-6 357.5,-6"/>
<text text-anchor="middle" x="403.5" y="-13" font-family="Helvetica,sans-Serif" font-size="10.00">buffer_inlines.h</text>
</a>
</g>
</g>
<!-- Node7&#45;&gt;Node8 -->
<g id="edge7" class="edge">
<title>Node7&#45;&gt;Node8</title>
<path fill="none" stroke="midnightblue" d="M610.15,-65.35C569.21,-56.55 510,-43.52 458.5,-31 450.92,-29.16 442.78,-27.07 435.15,-25.07"/>
<polygon fill="midnightblue" stroke="midnightblue" points="609.64,-68.82 620.15,-67.49 611.11,-61.97 609.64,-68.82"/>
</g>
<!-- Node9 -->
<g id="node9" class="node">
<title>Node9</title>
<g id="a_node9"><a xlink:href="crypto__inlines_8h_source.html" target="_top" xlink:title=" ">
<polygon fill="white" stroke="black" points="467.5,-6 467.5,-25 561.5,-25 561.5,-6 467.5,-6"/>
<text text-anchor="middle" x="514.5" y="-13" font-family="Helvetica,sans-Serif" font-size="10.00">crypto_inlines.h</text>
</a>
</g>
</g>
<!-- Node7&#45;&gt;Node9 -->
<g id="edge8" class="edge">
<title>Node7&#45;&gt;Node9</title>
<path fill="none" stroke="midnightblue" d="M630.15,-63.63C601.79,-52.07 560.19,-35.12 535.38,-25.01"/>
<polygon fill="midnightblue" stroke="midnightblue" points="629,-66.94 639.58,-67.48 631.64,-60.46 629,-66.94"/>
</g>
<!-- Node7&#45;&gt;Node10 -->
<g id="edge9" class="edge">
<title>Node7&#45;&gt;Node10</title>
<path fill="none" stroke="midnightblue" d="M717.39,-70.66C783.65,-63.88 896.21,-50.67 991.5,-31 999.39,-29.37 1007.85,-27.2 1015.61,-25.04"/>
<polygon fill="midnightblue" stroke="midnightblue" points="716.76,-67.2 707.16,-71.69 717.46,-74.17 716.76,-67.2"/>
</g>
<!-- Node11 -->
<g id="node11" class="node">
<title>Node11</title>
<g id="a_node11"><a xlink:href="ipsec__inlines_8h_source.html" target="_top" xlink:title=" ">
<polygon fill="white" stroke="black" points="580,-6 580,-25 669,-25 669,-6 580,-6"/>
<text text-anchor="middle" x="624.5" y="-13" font-family="Helvetica,sans-Serif" font-size="10.00">ipsec_inlines.h</text>
</a>
</g>
</g>
<!-- Node7&#45;&gt;Node11 -->
<g id="edge10" class="edge">
<title>Node7&#45;&gt;Node11</title>
<path fill="none" stroke="midnightblue" d="M650.02,-58.67C643.32,-47.61 634.94,-33.75 629.65,-25.01"/>
<polygon fill="midnightblue" stroke="midnightblue" points="647.17,-60.73 655.34,-67.48 653.16,-57.11 647.17,-60.73"/>
</g>
<!-- Node7&#45;&gt;Node12 -->
<g id="edge11" class="edge">
<title>Node7&#45;&gt;Node12</title>
<path fill="none" stroke="midnightblue" d="M717.06,-72.78C800.24,-67.44 960.26,-54.9 1094.5,-31 1103.35,-29.42 1112.85,-27.22 1121.51,-25"/>
<polygon fill="midnightblue" stroke="midnightblue" points="716.82,-69.28 707.06,-73.41 717.26,-76.27 716.82,-69.28"/>
</g>
<!-- Node13 -->
<g id="node13" class="node">
<title>Node13</title>
<g id="a_node13"><a xlink:href="packet__vector__inlines_8h.html" target="_top" xlink:title=" ">
<polygon fill="white" stroke="black" points="687,-6 687,-25 818,-25 818,-6 687,-6"/>
<text text-anchor="middle" x="752.5" y="-13" font-family="Helvetica,sans-Serif" font-size="10.00">packet_vector_inlines.h</text>
</a>
</g>
</g>
<!-- Node7&#45;&gt;Node13 -->
<g id="edge12" class="edge">
<title>Node7&#45;&gt;Node13</title>
<path fill="none" stroke="midnightblue" d="M682.26,-61.93C699.99,-50.46 724.46,-34.63 739.34,-25.01"/>
<polygon fill="midnightblue" stroke="midnightblue" points="680.18,-59.11 673.68,-67.48 683.98,-64.98 680.18,-59.11"/>
</g>
<!-- Node14 -->
<g id="node14" class="node">
<title>Node14</title>
<g id="a_node14"><a xlink:href="rwlock__recursive__inlines_8h_source.html" target="_top" xlink:title=" ">
<polygon fill="white" stroke="black" points="836.5,-6 836.5,-25 982.5,-25 982.5,-6 836.5,-6"/>
<text text-anchor="middle" x="909.5" y="-13" font-family="Helvetica,sans-Serif" font-size="10.00">rwlock_recursive_inlines.h</text>
</a>
</g>
</g>
<!-- Node7&#45;&gt;Node14 -->
<g id="edge13" class="edge">
<title>Node7&#45;&gt;Node14</title>
<path fill="none" stroke="midnightblue" d="M706.06,-65.11C754.39,-53.57 829.73,-35.56 873.89,-25.01"/>
<polygon fill="midnightblue" stroke="midnightblue" points="705.09,-61.75 696.18,-67.48 706.72,-68.56 705.09,-61.75"/>
</g>
<!-- Node15 -->
<g id="node15" class="node">
<title>Node15</title>
<g id="a_node15"><a xlink:href="schedule__inlines_8h_source.html" target="_top" xlink:title=" ">
<polygon fill="white" stroke="black" points="0,-6 0,-25 107,-25 107,-6 0,-6"/>
<text text-anchor="middle" x="53.5" y="-13" font-family="Helvetica,sans-Serif" font-size="10.00">schedule_inlines.h</text>
</a>
</g>
</g>
<!-- Node7&#45;&gt;Node15 -->
<g id="edge14" class="edge">
<title>Node7&#45;&gt;Node15</title>
<path fill="none" stroke="midnightblue" d="M603.65,-67.02C386.29,-42.35 327.66,-63.42 115.5,-31 105.77,-29.51 95.32,-27.31 85.81,-25.06"/>
<polygon fill="midnightblue" stroke="midnightblue" points="603.46,-70.52 613.79,-68.19 604.26,-63.56 603.46,-70.52"/>
</g>
<!-- Node16 -->
<g id="node16" class="node">
<title>Node16</title>
<g id="a_node16"><a xlink:href="spinlock__recursive__inlines_8h_source.html" target="_top" xlink:title=" ">
<polygon fill="white" stroke="black" points="125,-0.5 125,-30.5 232,-30.5 232,-0.5 125,-0.5"/>
<text text-anchor="start" x="133" y="-18.5" font-family="Helvetica,sans-Serif" font-size="10.00">spinlock_recursive</text>
<text text-anchor="middle" x="178.5" y="-7.5" font-family="Helvetica,sans-Serif" font-size="10.00">_inlines.h</text>
</a>
</g>
</g>
<!-- Node7&#45;&gt;Node16 -->
<g id="edge15" class="edge">
<title>Node7&#45;&gt;Node16</title>
<path fill="none" stroke="midnightblue" d="M603.45,-66.95C441.49,-46.55 397.59,-57.02 240.5,-31 237.77,-30.55 234.99,-30.05 232.18,-29.51"/>
<polygon fill="midnightblue" stroke="midnightblue" points="603.42,-70.48 613.78,-68.27 604.31,-63.53 603.42,-70.48"/>
</g>
<!-- Node17 -->
<g id="node17" class="node">
<title>Node17</title>
<g id="a_node17"><a xlink:href="timer__inlines_8h_source.html" target="_top" xlink:title=" ">
<polygon fill="white" stroke="black" points="250,-6 250,-25 339,-25 339,-6 250,-6"/>
<text text-anchor="middle" x="294.5" y="-13" font-family="Helvetica,sans-Serif" font-size="10.00">timer_inlines.h</text>
</a>
</g>
</g>
<!-- Node7&#45;&gt;Node17 -->
<g id="edge16" class="edge">
<title>Node7&#45;&gt;Node17</title>
<path fill="none" stroke="midnightblue" d="M603.54,-66.9C489.13,-50.09 457.9,-53.29 348.5,-31 340.42,-29.35 331.75,-27.2 323.77,-25.06"/>
<polygon fill="midnightblue" stroke="midnightblue" points="603.35,-70.41 613.76,-68.42 604.38,-63.48 603.35,-70.41"/>
</g>
<!-- Node18&#45;&gt;Node7 -->
<g id="edge18" class="edge">
<title>Node18&#45;&gt;Node7</title>
<path fill="none" stroke="midnightblue" d="M638.33,-114.27C643.97,-105.05 650.62,-94.17 655.15,-86.75"/>
<polygon fill="midnightblue" stroke="midnightblue" points="635.18,-112.73 632.95,-123.08 641.15,-116.38 635.18,-112.73"/>
</g>
<!-- Node18&#45;&gt;Node19 -->
<g id="edge19" class="edge">
<title>Node18&#45;&gt;Node19</title>
<path fill="none" stroke="midnightblue" d="M606.47,-117.62C592.03,-107.76 573.36,-94.99 561.16,-86.65"/>
<polygon fill="midnightblue" stroke="midnightblue" points="604.58,-120.57 614.81,-123.32 608.53,-114.79 604.58,-120.57"/>
</g>
<!-- Node21&#45;&gt;Node22 -->
<g id="edge25" class="edge">
<title>Node21&#45;&gt;Node22</title>
<path fill="none" stroke="midnightblue" d="M1264.18,-227.72C1273.34,-218.2 1284.55,-206.56 1292.07,-198.75"/>
<polygon fill="midnightblue" stroke="midnightblue" points="1261.5,-225.45 1257.09,-235.08 1266.54,-230.31 1261.5,-225.45"/>
</g>
</g>
</svg>
