<?xml version="1.0" encoding="UTF-8" standalone="no"?>
<!DOCTYPE svg PUBLIC "-//W3C//DTD SVG 1.1//EN"
 "http://www.w3.org/Graphics/SVG/1.1/DTD/svg11.dtd">
<!-- Generated by graphviz version 2.43.0 (0)
 -->
<!-- Title: schedule_types.h Pages: 1 -->
<svg width="1398pt" height="924pt"
 viewBox="0.00 0.00 1397.50 924.00" xmlns="http://www.w3.org/2000/svg" xmlns:xlink="http://www.w3.org/1999/xlink">
<g id="graph0" class="graph" transform="scale(1 1) rotate(0) translate(4 920)">
<title>schedule_types.h</title>
<polygon fill="white" stroke="transparent" points="-4,4 -4,-920 1393.5,-920 1393.5,4 -4,4"/>
<!-- Node1 -->
<g id="node1" class="node">
<title>Node1</title>
<g id="a_node1"><a xlink:title=" ">
<polygon fill="#bfbfbf" stroke="black" points="1184.5,-896.5 1184.5,-915.5 1285.5,-915.5 1285.5,-896.5 1184.5,-896.5"/>
<text text-anchor="middle" x="1235" y="-903.5" font-family="Helvetica,sans-Serif" font-size="10.00">schedule_types.h</text>
</a>
</g>
</g>
<!-- Node2 -->
<g id="node2" class="node">
<title>Node2</title>
<g id="a_node2"><a xlink:href="schedule__types_8h.html" target="_top" xlink:title=" ">
<polygon fill="white" stroke="black" points="1184.5,-840.5 1184.5,-859.5 1285.5,-859.5 1285.5,-840.5 1184.5,-840.5"/>
<text text-anchor="middle" x="1235" y="-847.5" font-family="Helvetica,sans-Serif" font-size="10.00">schedule_types.h</text>
</a>
</g>
</g>
<!-- Node1&#45;&gt;Node2 -->
<g id="edge1" class="edge">
<title>Node1&#45;&gt;Node2</title>
<path fill="none" stroke="midnightblue" d="M1235,-885.8C1235,-876.91 1235,-866.78 1235,-859.75"/>
<polygon fill="midnightblue" stroke="midnightblue" points="1231.5,-886.08 1235,-896.08 1238.5,-886.08 1231.5,-886.08"/>
</g>
<!-- Node3 -->
<g id="node3" class="node">
<title>Node3</title>
<g id="a_node3"><a xlink:href="spec_2queue__types_8h.html" target="_top" xlink:title=" ">
<polygon fill="white" stroke="black" points="1042,-784.5 1042,-803.5 1130,-803.5 1130,-784.5 1042,-784.5"/>
<text text-anchor="middle" x="1086" y="-791.5" font-family="Helvetica,sans-Serif" font-size="10.00">queue_types.h</text>
</a>
</g>
</g>
<!-- Node2&#45;&gt;Node3 -->
<g id="edge2" class="edge">
<title>Node2&#45;&gt;Node3</title>
<path fill="none" stroke="midnightblue" d="M1201.63,-836.91C1173.62,-826.75 1134.3,-812.51 1109.5,-803.52"/>
<polygon fill="midnightblue" stroke="midnightblue" points="1200.8,-840.33 1211.39,-840.44 1203.18,-833.75 1200.8,-840.33"/>
</g>
<!-- Node58 -->
<g id="node46" class="node">
<title>Node58</title>
<g id="a_node46"><a xlink:href="spec_2schedule_8h.html" target="_top" xlink:title=" ">
<polygon fill="white" stroke="black" points="1320.5,-672.5 1320.5,-691.5 1389.5,-691.5 1389.5,-672.5 1320.5,-672.5"/>
<text text-anchor="middle" x="1355" y="-679.5" font-family="Helvetica,sans-Serif" font-size="10.00">schedule.h</text>
</a>
</g>
</g>
<!-- Node2&#45;&gt;Node58 -->
<g id="edge77" class="edge">
<title>Node2&#45;&gt;Node58</title>
<path fill="none" stroke="midnightblue" d="M1247.46,-831.76C1272.89,-796.59 1329.93,-717.68 1348.81,-691.57"/>
<polygon fill="midnightblue" stroke="midnightblue" points="1244.47,-829.92 1241.45,-840.08 1250.15,-834.02 1244.47,-829.92"/>
</g>
<!-- Node61 -->
<g id="node49" class="node">
<title>Node61</title>
<g id="a_node49"><a xlink:href="schedule__inline__types_8h_source.html" target="_top" xlink:title=" ">
<polygon fill="white" stroke="black" points="1168,-672.5 1168,-691.5 1302,-691.5 1302,-672.5 1168,-672.5"/>
<text text-anchor="middle" x="1235" y="-679.5" font-family="Helvetica,sans-Serif" font-size="10.00">schedule_inline_types.h</text>
</a>
</g>
</g>
<!-- Node2&#45;&gt;Node61 -->
<g id="edge78" class="edge">
<title>Node2&#45;&gt;Node61</title>
<path fill="none" stroke="midnightblue" d="M1235,-829.93C1235,-793.92 1235,-717.23 1235,-691.57"/>
<polygon fill="midnightblue" stroke="midnightblue" points="1231.5,-830.08 1235,-840.08 1238.5,-830.08 1231.5,-830.08"/>
</g>
<!-- Node4 -->
<g id="node4" class="node">
<title>Node4</title>
<g id="a_node4"><a xlink:href="queue__types_8h.html" target="_top" xlink:title=" ">
<polygon fill="white" stroke="black" points="936,-728.5 936,-747.5 1024,-747.5 1024,-728.5 936,-728.5"/>
<text text-anchor="middle" x="980" y="-735.5" font-family="Helvetica,sans-Serif" font-size="10.00">queue_types.h</text>
</a>
</g>
</g>
<!-- Node3&#45;&gt;Node4 -->
<g id="edge3" class="edge">
<title>Node3&#45;&gt;Node4</title>
<path fill="none" stroke="midnightblue" d="M1059.94,-779.73C1040.32,-769.73 1013.97,-756.31 996.99,-747.65"/>
<polygon fill="midnightblue" stroke="midnightblue" points="1058.47,-782.9 1068.97,-784.32 1061.65,-776.67 1058.47,-782.9"/>
</g>
<!-- Node5 -->
<g id="node5" class="node">
<title>Node5</title>
<g id="a_node5"><a xlink:href="spec_2comp_8h.html" target="_top" xlink:title=" ">
<polygon fill="white" stroke="black" points="942.5,-560.5 942.5,-579.5 995.5,-579.5 995.5,-560.5 942.5,-560.5"/>
<text text-anchor="middle" x="969" y="-567.5" font-family="Helvetica,sans-Serif" font-size="10.00">comp.h</text>
</a>
</g>
</g>
<!-- Node4&#45;&gt;Node5 -->
<g id="edge4" class="edge">
<title>Node4&#45;&gt;Node5</title>
<path fill="none" stroke="midnightblue" d="M975.54,-718.59C973.77,-710.49 971.95,-700.82 971,-692 966.49,-650.01 967.83,-599.37 968.61,-579.54"/>
<polygon fill="midnightblue" stroke="midnightblue" points="972.15,-719.49 977.81,-728.44 978.97,-717.91 972.15,-719.49"/>
</g>
<!-- Node7 -->
<g id="node7" class="node">
<title>Node7</title>
<g id="a_node7"><a xlink:href="spec_2dma__types_8h.html" target="_top" xlink:title=" ">
<polygon fill="white" stroke="black" points="1014,-560.5 1014,-579.5 1094,-579.5 1094,-560.5 1014,-560.5"/>
<text text-anchor="middle" x="1054" y="-567.5" font-family="Helvetica,sans-Serif" font-size="10.00">dma_types.h</text>
</a>
</g>
</g>
<!-- Node4&#45;&gt;Node7 -->
<g id="edge6" class="edge">
<title>Node4&#45;&gt;Node7</title>
<path fill="none" stroke="midnightblue" d="M1010.28,-723.57C1023.23,-716.18 1037.16,-705.71 1045,-692 1066.24,-654.89 1059.45,-600.55 1055.73,-579.64"/>
<polygon fill="midnightblue" stroke="midnightblue" points="1008.33,-720.63 1001.12,-728.39 1011.59,-726.83 1008.33,-720.63"/>
</g>
<!-- Node23 -->
<g id="node18" class="node">
<title>Node23</title>
<g id="a_node18"><a xlink:href="spec_2packet__io_8h.html" target="_top" xlink:title=" ">
<polygon fill="white" stroke="black" points="74,-112.5 74,-131.5 146,-131.5 146,-112.5 74,-112.5"/>
<text text-anchor="middle" x="110" y="-119.5" font-family="Helvetica,sans-Serif" font-size="10.00">packet_io.h</text>
</a>
</g>
</g>
<!-- Node4&#45;&gt;Node23 -->
<g id="edge43" class="edge">
<title>Node4&#45;&gt;Node23</title>
<path fill="none" stroke="midnightblue" d="M925.73,-736.66C720.04,-734.65 0,-720.92 0,-627 0,-627 0,-627 0,-233 0,-182.36 59.01,-146.89 90.59,-131.54"/>
<polygon fill="midnightblue" stroke="midnightblue" points="925.96,-740.16 935.99,-736.75 926.02,-733.16 925.96,-740.16"/>
</g>
<!-- Node32 -->
<g id="node26" class="node">
<title>Node32</title>
<g id="a_node26"><a xlink:href="spec_2packet__io__types_8h.html" target="_top" xlink:title=" ">
<polygon fill="white" stroke="black" points="288,-336.5 288,-355.5 392,-355.5 392,-336.5 288,-336.5"/>
<text text-anchor="middle" x="340" y="-343.5" font-family="Helvetica,sans-Serif" font-size="10.00">packet_io_types.h</text>
</a>
</g>
</g>
<!-- Node4&#45;&gt;Node32 -->
<g id="edge48" class="edge">
<title>Node4&#45;&gt;Node32</title>
<path fill="none" stroke="midnightblue" d="M969.53,-719.51C940.05,-670.74 855.78,-534.84 814,-504 741.2,-450.27 471.95,-379.77 375.04,-355.58"/>
<polygon fill="midnightblue" stroke="midnightblue" points="966.66,-721.52 974.81,-728.28 972.66,-717.91 966.66,-721.52"/>
</g>
<!-- Node38 -->
<g id="node30" class="node">
<title>Node38</title>
<g id="a_node30"><a xlink:href="spec_2timer_8h.html" target="_top" xlink:title=" ">
<polygon fill="white" stroke="black" points="856.5,-336.5 856.5,-355.5 907.5,-355.5 907.5,-336.5 856.5,-336.5"/>
<text text-anchor="middle" x="882" y="-343.5" font-family="Helvetica,sans-Serif" font-size="10.00">timer.h</text>
</a>
</g>
</g>
<!-- Node4&#45;&gt;Node38 -->
<g id="edge70" class="edge">
<title>Node4&#45;&gt;Node38</title>
<path fill="none" stroke="midnightblue" d="M974.26,-718.77C971.7,-710.59 968.67,-700.82 966,-692 950.96,-642.33 945.89,-630.27 933,-580 910.68,-492.96 889.56,-386.06 883.64,-355.51"/>
<polygon fill="midnightblue" stroke="midnightblue" points="970.94,-719.89 977.28,-728.39 977.62,-717.8 970.94,-719.89"/>
</g>
<!-- Node15 -->
<g id="node32" class="node">
<title>Node15</title>
<g id="a_node32"><a xlink:href="dma__inlines_8h_source.html" target="_top" xlink:title=" ">
<polygon fill="white" stroke="black" points="1029.5,-336.5 1029.5,-355.5 1114.5,-355.5 1114.5,-336.5 1029.5,-336.5"/>
<text text-anchor="middle" x="1072" y="-343.5" font-family="Helvetica,sans-Serif" font-size="10.00">dma_inlines.h</text>
</a>
</g>
</g>
<!-- Node4&#45;&gt;Node15 -->
<g id="edge71" class="edge">
<title>Node4&#45;&gt;Node15</title>
<path fill="none" stroke="midnightblue" d="M1016.62,-724.47C1033.06,-717.23 1051.51,-706.62 1064,-692 1117.77,-629.06 1122,-597.78 1122,-515 1122,-515 1122,-515 1122,-457 1122,-415.88 1092.69,-373.25 1078.95,-355.52"/>
<polygon fill="midnightblue" stroke="midnightblue" points="1015.14,-721.3 1007.24,-728.35 1017.82,-727.77 1015.14,-721.3"/>
</g>
<!-- Node44 -->
<g id="node35" class="node">
<title>Node44</title>
<g id="a_node35"><a xlink:href="spec_2packet__io__stats_8h.html" target="_top" xlink:title=" ">
<polygon fill="white" stroke="black" points="130.5,-448.5 130.5,-467.5 231.5,-467.5 231.5,-448.5 130.5,-448.5"/>
<text text-anchor="middle" x="181" y="-455.5" font-family="Helvetica,sans-Serif" font-size="10.00">packet_io_stats.h</text>
</a>
</g>
</g>
<!-- Node4&#45;&gt;Node44 -->
<g id="edge44" class="edge">
<title>Node4&#45;&gt;Node44</title>
<path fill="none" stroke="midnightblue" d="M925.85,-735.83C755.33,-730.87 235.02,-705.53 138,-580 110.32,-544.19 153.58,-489.09 172.68,-467.81"/>
<polygon fill="midnightblue" stroke="midnightblue" points="925.76,-739.33 935.86,-736.11 925.96,-732.33 925.76,-739.33"/>
</g>
<!-- Node46 -->
<g id="node37" class="node">
<title>Node46</title>
<g id="a_node37"><a xlink:href="spec_2packet__types_8h.html" target="_top" xlink:title=" ">
<polygon fill="white" stroke="black" points="577,-672.5 577,-691.5 667,-691.5 667,-672.5 577,-672.5"/>
<text text-anchor="middle" x="622" y="-679.5" font-family="Helvetica,sans-Serif" font-size="10.00">packet_types.h</text>
</a>
</g>
</g>
<!-- Node4&#45;&gt;Node46 -->
<g id="edge49" class="edge">
<title>Node4&#45;&gt;Node46</title>
<path fill="none" stroke="midnightblue" d="M925.7,-728.81C855.02,-718.15 732.78,-699.71 667,-689.79"/>
<polygon fill="midnightblue" stroke="midnightblue" points="925.33,-732.29 935.74,-730.32 926.38,-725.37 925.33,-732.29"/>
</g>
<!-- Node56 -->
<g id="node44" class="node">
<title>Node56</title>
<g id="a_node44"><a xlink:href="spec_2queue_8h.html" target="_top" xlink:title=" ">
<polygon fill="white" stroke="black" points="980,-672.5 980,-691.5 1036,-691.5 1036,-672.5 980,-672.5"/>
<text text-anchor="middle" x="1008" y="-679.5" font-family="Helvetica,sans-Serif" font-size="10.00">queue.h</text>
</a>
</g>
</g>
<!-- Node4&#45;&gt;Node56 -->
<g id="edge66" class="edge">
<title>Node4&#45;&gt;Node56</title>
<path fill="none" stroke="midnightblue" d="M989.34,-718.98C994.09,-709.82 999.66,-699.09 1003.46,-691.75"/>
<polygon fill="midnightblue" stroke="midnightblue" points="986.12,-717.59 984.62,-728.08 992.33,-720.82 986.12,-717.59"/>
</g>
<!-- Node4&#45;&gt;Node58 -->
<g id="edge68" class="edge">
<title>Node4&#45;&gt;Node58</title>
<path fill="none" stroke="midnightblue" d="M1034.16,-730.76C1099.85,-722.93 1213.86,-708.52 1311,-692 1314.07,-691.48 1317.26,-690.9 1320.45,-690.29"/>
<polygon fill="midnightblue" stroke="midnightblue" points="1033.56,-727.31 1024.05,-731.96 1034.39,-734.26 1033.56,-727.31"/>
</g>
<!-- Node60 -->
<g id="node48" class="node">
<title>Node60</title>
<g id="a_node48"><a xlink:href="queue__inline__types_8h_source.html" target="_top" xlink:title=" ">
<polygon fill="white" stroke="black" points="728,-616.5 728,-635.5 848,-635.5 848,-616.5 728,-616.5"/>
<text text-anchor="middle" x="788" y="-623.5" font-family="Helvetica,sans-Serif" font-size="10.00">queue_inline_types.h</text>
</a>
</g>
</g>
<!-- Node4&#45;&gt;Node60 -->
<g id="edge72" class="edge">
<title>Node4&#45;&gt;Node60</title>
<path fill="none" stroke="midnightblue" d="M939.13,-725.4C915.62,-717.77 886.07,-706.51 862,-692 835.05,-675.76 808.61,-649.28 795.87,-635.68"/>
<polygon fill="midnightblue" stroke="midnightblue" points="938.21,-728.78 948.8,-728.45 940.31,-722.1 938.21,-728.78"/>
</g>
<!-- Node4&#45;&gt;Node61 -->
<g id="edge74" class="edge">
<title>Node4&#45;&gt;Node61</title>
<path fill="none" stroke="midnightblue" d="M1030.31,-726.35C1078.5,-716.14 1150.28,-700.94 1194.78,-691.52"/>
<polygon fill="midnightblue" stroke="midnightblue" points="1029.46,-722.95 1020.41,-728.44 1030.91,-729.8 1029.46,-722.95"/>
</g>
<!-- Node62 -->
<g id="node50" class="node">
<title>Node62</title>
<g id="a_node50"><a xlink:href="schedule__inlines_8h_source.html" target="_top" xlink:title=" ">
<polygon fill="white" stroke="black" points="1160.5,-616.5 1160.5,-635.5 1267.5,-635.5 1267.5,-616.5 1160.5,-616.5"/>
<text text-anchor="middle" x="1214" y="-623.5" font-family="Helvetica,sans-Serif" font-size="10.00">schedule_inlines.h</text>
</a>
</g>
</g>
<!-- Node4&#45;&gt;Node62 -->
<g id="edge76" class="edge">
<title>Node4&#45;&gt;Node62</title>
<path fill="none" stroke="midnightblue" d="M1023.6,-725.78C1050.87,-717.99 1086.32,-706.43 1116,-692 1149.78,-675.57 1185.63,-649.18 1203.12,-635.63"/>
<polygon fill="midnightblue" stroke="midnightblue" points="1022.64,-722.42 1013.95,-728.48 1024.52,-729.16 1022.64,-722.42"/>
</g>
<!-- Node6 -->
<g id="node6" class="node">
<title>Node6</title>
<g id="a_node6"><a xlink:href="comp_8h.html" target="_top" xlink:title=" ">
<polygon fill="white" stroke="black" points="942.5,-504.5 942.5,-523.5 995.5,-523.5 995.5,-504.5 942.5,-504.5"/>
<text text-anchor="middle" x="969" y="-511.5" font-family="Helvetica,sans-Serif" font-size="10.00">comp.h</text>
</a>
</g>
</g>
<!-- Node5&#45;&gt;Node6 -->
<g id="edge5" class="edge">
<title>Node5&#45;&gt;Node6</title>
<path fill="none" stroke="midnightblue" d="M969,-549.8C969,-540.91 969,-530.78 969,-523.75"/>
<polygon fill="midnightblue" stroke="midnightblue" points="965.5,-550.08 969,-560.08 972.5,-550.08 965.5,-550.08"/>
</g>
<!-- Node8 -->
<g id="node8" class="node">
<title>Node8</title>
<g id="a_node8"><a xlink:href="dma__types_8h.html" target="_top" xlink:title=" ">
<polygon fill="white" stroke="black" points="1014,-504.5 1014,-523.5 1094,-523.5 1094,-504.5 1014,-504.5"/>
<text text-anchor="middle" x="1054" y="-511.5" font-family="Helvetica,sans-Serif" font-size="10.00">dma_types.h</text>
</a>
</g>
</g>
<!-- Node7&#45;&gt;Node8 -->
<g id="edge7" class="edge">
<title>Node7&#45;&gt;Node8</title>
<path fill="none" stroke="midnightblue" d="M1054,-549.8C1054,-540.91 1054,-530.78 1054,-523.75"/>
<polygon fill="midnightblue" stroke="midnightblue" points="1050.5,-550.08 1054,-560.08 1057.5,-550.08 1050.5,-550.08"/>
</g>
<!-- Node9 -->
<g id="node9" class="node">
<title>Node9</title>
<g id="a_node9"><a xlink:href="spec_2dma_8h.html" target="_top" xlink:title=" ">
<polygon fill="white" stroke="black" points="964.5,-336.5 964.5,-355.5 1011.5,-355.5 1011.5,-336.5 964.5,-336.5"/>
<text text-anchor="middle" x="988" y="-343.5" font-family="Helvetica,sans-Serif" font-size="10.00">dma.h</text>
</a>
</g>
</g>
<!-- Node8&#45;&gt;Node9 -->
<g id="edge8" class="edge">
<title>Node8&#45;&gt;Node9</title>
<path fill="none" stroke="midnightblue" d="M1046.6,-494.39C1032.37,-458.59 1001.65,-381.34 991.41,-355.57"/>
<polygon fill="midnightblue" stroke="midnightblue" points="1043.5,-496.08 1050.45,-504.08 1050.01,-493.49 1043.5,-496.08"/>
</g>
<!-- Node11 -->
<g id="node11" class="node">
<title>Node11</title>
<g id="a_node11"><a xlink:href="spec_2pool__types_8h.html" target="_top" xlink:title=" ">
<polygon fill="white" stroke="black" points="776.5,-448.5 776.5,-467.5 855.5,-467.5 855.5,-448.5 776.5,-448.5"/>
<text text-anchor="middle" x="816" y="-455.5" font-family="Helvetica,sans-Serif" font-size="10.00">pool_types.h</text>
</a>
</g>
</g>
<!-- Node8&#45;&gt;Node11 -->
<g id="edge10" class="edge">
<title>Node8&#45;&gt;Node11</title>
<path fill="none" stroke="midnightblue" d="M1006.48,-502.22C961.5,-492.01 894.9,-476.9 853.54,-467.52"/>
<polygon fill="midnightblue" stroke="midnightblue" points="1005.76,-505.64 1016.29,-504.44 1007.31,-498.82 1005.76,-505.64"/>
</g>
<!-- Node8&#45;&gt;Node15 -->
<g id="edge42" class="edge">
<title>Node8&#45;&gt;Node15</title>
<path fill="none" stroke="midnightblue" d="M1056.07,-493.93C1059.97,-457.92 1068.29,-381.23 1071.07,-355.57"/>
<polygon fill="midnightblue" stroke="midnightblue" points="1052.57,-493.76 1054.97,-504.08 1059.53,-494.51 1052.57,-493.76"/>
</g>
<!-- Node10 -->
<g id="node10" class="node">
<title>Node10</title>
<g id="a_node10"><a xlink:href="dma_8h.html" target="_top" xlink:title=" ">
<polygon fill="white" stroke="black" points="964.5,-280.5 964.5,-299.5 1011.5,-299.5 1011.5,-280.5 964.5,-280.5"/>
<text text-anchor="middle" x="988" y="-287.5" font-family="Helvetica,sans-Serif" font-size="10.00">dma.h</text>
</a>
</g>
</g>
<!-- Node9&#45;&gt;Node10 -->
<g id="edge9" class="edge">
<title>Node9&#45;&gt;Node10</title>
<path fill="none" stroke="midnightblue" d="M988,-325.8C988,-316.91 988,-306.78 988,-299.75"/>
<polygon fill="midnightblue" stroke="midnightblue" points="984.5,-326.08 988,-336.08 991.5,-326.08 984.5,-326.08"/>
</g>
<!-- Node12 -->
<g id="node12" class="node">
<title>Node12</title>
<g id="a_node12"><a xlink:href="pool__types_8h.html" target="_top" xlink:title=" ">
<polygon fill="white" stroke="red" points="769.5,-392.5 769.5,-411.5 848.5,-411.5 848.5,-392.5 769.5,-392.5"/>
<text text-anchor="middle" x="809" y="-399.5" font-family="Helvetica,sans-Serif" font-size="10.00">pool_types.h</text>
</a>
</g>
</g>
<!-- Node11&#45;&gt;Node12 -->
<g id="edge11" class="edge">
<title>Node11&#45;&gt;Node12</title>
<path fill="none" stroke="midnightblue" d="M813.55,-438.1C812.39,-429.14 811.06,-418.86 810.13,-411.75"/>
<polygon fill="midnightblue" stroke="midnightblue" points="810.09,-438.62 814.84,-448.08 817.03,-437.72 810.09,-438.62"/>
</g>
<!-- Node12&#45;&gt;Node9 -->
<g id="edge25" class="edge">
<title>Node12&#45;&gt;Node9</title>
<path fill="none" stroke="midnightblue" d="M847.37,-389.43C882.87,-378.72 934.52,-363.13 964.34,-354.14"/>
<polygon fill="midnightblue" stroke="midnightblue" points="845.93,-386.2 837.36,-392.44 847.95,-392.91 845.93,-386.2"/>
</g>
<!-- Node16 -->
<g id="node13" class="node">
<title>Node16</title>
<g id="a_node13"><a xlink:href="spec_2classification_8h.html" target="_top" xlink:title=" ">
<polygon fill="white" stroke="black" points="513.5,-224.5 513.5,-243.5 602.5,-243.5 602.5,-224.5 513.5,-224.5"/>
<text text-anchor="middle" x="558" y="-231.5" font-family="Helvetica,sans-Serif" font-size="10.00">classification.h</text>
</a>
</g>
</g>
<!-- Node12&#45;&gt;Node16 -->
<g id="edge12" class="edge">
<title>Node12&#45;&gt;Node16</title>
<path fill="none" stroke="midnightblue" d="M802.52,-382.85C796.35,-368.12 785.68,-347.92 770,-336 722.28,-299.71 693.45,-327.16 640,-300 610.2,-284.86 580.88,-257.9 566.74,-243.94"/>
<polygon fill="midnightblue" stroke="midnightblue" points="799.34,-384.34 806.22,-392.4 805.87,-381.81 799.34,-384.34"/>
</g>
<!-- Node25 -->
<g id="node20" class="node">
<title>Node25</title>
<g id="a_node20"><a xlink:href="spec_2crypto__types_8h.html" target="_top" xlink:title=" ">
<polygon fill="white" stroke="black" points="523.5,-336.5 523.5,-355.5 612.5,-355.5 612.5,-336.5 523.5,-336.5"/>
<text text-anchor="middle" x="568" y="-343.5" font-family="Helvetica,sans-Serif" font-size="10.00">crypto_types.h</text>
</a>
</g>
</g>
<!-- Node12&#45;&gt;Node25 -->
<g id="edge19" class="edge">
<title>Node12&#45;&gt;Node25</title>
<path fill="none" stroke="midnightblue" d="M760.88,-390.22C715.34,-380.01 647.89,-364.9 606.01,-355.52"/>
<polygon fill="midnightblue" stroke="midnightblue" points="760.29,-393.67 770.81,-392.44 761.82,-386.84 760.29,-393.67"/>
</g>
<!-- Node30 -->
<g id="node24" class="node">
<title>Node30</title>
<g id="a_node24"><a xlink:href="spec_2packet_8h.html" target="_top" xlink:title=" ">
<polygon fill="white" stroke="black" points="799,-224.5 799,-243.5 857,-243.5 857,-224.5 799,-224.5"/>
<text text-anchor="middle" x="828" y="-231.5" font-family="Helvetica,sans-Serif" font-size="10.00">packet.h</text>
</a>
</g>
</g>
<!-- Node12&#45;&gt;Node30 -->
<g id="edge26" class="edge">
<title>Node12&#45;&gt;Node30</title>
<path fill="none" stroke="midnightblue" d="M811.18,-381.93C815.3,-345.92 824.08,-269.23 827.02,-243.57"/>
<polygon fill="midnightblue" stroke="midnightblue" points="807.68,-381.74 810.02,-392.08 814.64,-382.54 807.68,-381.74"/>
</g>
<!-- Node12&#45;&gt;Node32 -->
<g id="edge28" class="edge">
<title>Node12&#45;&gt;Node32</title>
<path fill="none" stroke="midnightblue" d="M758.91,-396.07C681.89,-388.36 529.76,-372.59 401,-356 398.13,-355.63 395.19,-355.24 392.23,-354.83"/>
<polygon fill="midnightblue" stroke="midnightblue" points="758.97,-399.6 769.27,-397.11 759.67,-392.63 758.97,-399.6"/>
</g>
<!-- Node12&#45;&gt;Node38 -->
<g id="edge37" class="edge">
<title>Node12&#45;&gt;Node38</title>
<path fill="none" stroke="midnightblue" d="M829.14,-386.1C842.28,-376.38 858.98,-364.03 870.06,-355.83"/>
<polygon fill="midnightblue" stroke="midnightblue" points="826.69,-383.56 820.73,-392.32 830.85,-389.19 826.69,-383.56"/>
</g>
<!-- Node12&#45;&gt;Node15 -->
<g id="edge39" class="edge">
<title>Node12&#45;&gt;Node15</title>
<path fill="none" stroke="midnightblue" d="M858.52,-390.83C908.13,-380.65 983.63,-365.14 1030.28,-355.57"/>
<polygon fill="midnightblue" stroke="midnightblue" points="857.75,-387.42 848.66,-392.86 859.16,-394.27 857.75,-387.42"/>
</g>
<!-- Node41 -->
<g id="node33" class="node">
<title>Node41</title>
<g id="a_node33"><a xlink:href="packet__inlines_8h.html" target="_top" xlink:title=" ">
<polygon fill="white" stroke="black" points="410.5,-336.5 410.5,-355.5 505.5,-355.5 505.5,-336.5 410.5,-336.5"/>
<text text-anchor="middle" x="458" y="-343.5" font-family="Helvetica,sans-Serif" font-size="10.00">packet_inlines.h</text>
</a>
</g>
</g>
<!-- Node12&#45;&gt;Node41 -->
<g id="edge40" class="edge">
<title>Node12&#45;&gt;Node41</title>
<path fill="none" stroke="midnightblue" d="M759.28,-393.54C700.63,-384.71 600.19,-369.5 514,-356 511.28,-355.57 508.48,-355.13 505.65,-354.69"/>
<polygon fill="midnightblue" stroke="midnightblue" points="758.97,-397.03 769.38,-395.06 760.01,-390.11 758.97,-397.03"/>
</g>
<!-- Node42 -->
<g id="node34" class="node">
<title>Node42</title>
<g id="a_node34"><a xlink:href="packet__vector__inlines_8h.html" target="_top" xlink:title=" ">
<polygon fill="white" stroke="black" points="630.5,-336.5 630.5,-355.5 761.5,-355.5 761.5,-336.5 630.5,-336.5"/>
<text text-anchor="middle" x="696" y="-343.5" font-family="Helvetica,sans-Serif" font-size="10.00">packet_vector_inlines.h</text>
</a>
</g>
</g>
<!-- Node12&#45;&gt;Node42 -->
<g id="edge41" class="edge">
<title>Node12&#45;&gt;Node42</title>
<path fill="none" stroke="midnightblue" d="M782,-388.1C760.89,-378.01 732.14,-364.27 713.82,-355.52"/>
<polygon fill="midnightblue" stroke="midnightblue" points="780.56,-391.29 791.09,-392.44 783.58,-384.97 780.56,-391.29"/>
</g>
<!-- Node17 -->
<g id="node14" class="node">
<title>Node17</title>
<g id="a_node14"><a xlink:href="classification_8h.html" target="_top" xlink:title=" ">
<polygon fill="white" stroke="black" points="494.5,-168.5 494.5,-187.5 583.5,-187.5 583.5,-168.5 494.5,-168.5"/>
<text text-anchor="middle" x="539" y="-175.5" font-family="Helvetica,sans-Serif" font-size="10.00">classification.h</text>
</a>
</g>
</g>
<!-- Node16&#45;&gt;Node17 -->
<g id="edge13" class="edge">
<title>Node16&#45;&gt;Node17</title>
<path fill="none" stroke="midnightblue" d="M551.45,-214.4C548.28,-205.36 544.61,-194.94 542.08,-187.75"/>
<polygon fill="midnightblue" stroke="midnightblue" points="548.24,-215.81 554.86,-224.08 554.85,-213.49 548.24,-215.81"/>
</g>
<!-- Node18 -->
<g id="node15" class="node">
<title>Node18</title>
<g id="a_node15"><a xlink:href="spec_2ipsec__types_8h.html" target="_top" xlink:title=" ">
<polygon fill="white" stroke="black" points="497.5,-112.5 497.5,-131.5 580.5,-131.5 580.5,-112.5 497.5,-112.5"/>
<text text-anchor="middle" x="539" y="-119.5" font-family="Helvetica,sans-Serif" font-size="10.00">ipsec_types.h</text>
</a>
</g>
</g>
<!-- Node17&#45;&gt;Node18 -->
<g id="edge14" class="edge">
<title>Node17&#45;&gt;Node18</title>
<path fill="none" stroke="midnightblue" d="M539,-157.8C539,-148.91 539,-138.78 539,-131.75"/>
<polygon fill="midnightblue" stroke="midnightblue" points="535.5,-158.08 539,-168.08 542.5,-158.08 535.5,-158.08"/>
</g>
<!-- Node17&#45;&gt;Node23 -->
<g id="edge17" class="edge">
<title>Node17&#45;&gt;Node23</title>
<path fill="none" stroke="midnightblue" d="M484.14,-170.09C395.1,-158.89 221.53,-137.04 146.26,-127.56"/>
<polygon fill="midnightblue" stroke="midnightblue" points="483.94,-173.6 494.3,-171.37 484.82,-166.65 483.94,-173.6"/>
</g>
<!-- Node19 -->
<g id="node16" class="node">
<title>Node19</title>
<g id="a_node16"><a xlink:href="ipsec__types_8h.html" target="_top" xlink:title=" ">
<polygon fill="white" stroke="red" points="365.5,-56.5 365.5,-75.5 448.5,-75.5 448.5,-56.5 365.5,-56.5"/>
<text text-anchor="middle" x="407" y="-63.5" font-family="Helvetica,sans-Serif" font-size="10.00">ipsec_types.h</text>
</a>
</g>
</g>
<!-- Node18&#45;&gt;Node19 -->
<g id="edge15" class="edge">
<title>Node18&#45;&gt;Node19</title>
<path fill="none" stroke="midnightblue" d="M508.78,-108.64C484.01,-98.5 449.6,-84.43 427.82,-75.52"/>
<polygon fill="midnightblue" stroke="midnightblue" points="507.5,-111.9 518.08,-112.44 510.15,-105.42 507.5,-111.9"/>
</g>
<!-- Node20 -->
<g id="node17" class="node">
<title>Node20</title>
<g id="a_node17"><a xlink:href="spec_2ipsec_8h.html" target="_top" xlink:title=" ">
<polygon fill="white" stroke="red" points="272.5,-0.5 272.5,-19.5 323.5,-19.5 323.5,-0.5 272.5,-0.5"/>
<text text-anchor="middle" x="298" y="-7.5" font-family="Helvetica,sans-Serif" font-size="10.00">ipsec.h</text>
</a>
</g>
</g>
<!-- Node19&#45;&gt;Node20 -->
<g id="edge16" class="edge">
<title>Node19&#45;&gt;Node20</title>
<path fill="none" stroke="midnightblue" d="M380.48,-51.86C360.27,-41.85 333.01,-28.35 315.47,-19.65"/>
<polygon fill="midnightblue" stroke="midnightblue" points="378.97,-55.02 389.49,-56.32 382.08,-48.75 378.97,-55.02"/>
</g>
<!-- Node24 -->
<g id="node19" class="node">
<title>Node24</title>
<g id="a_node19"><a xlink:href="packet__io_8h.html" target="_top" xlink:title=" ">
<polygon fill="white" stroke="black" points="74,-56.5 74,-75.5 146,-75.5 146,-56.5 74,-56.5"/>
<text text-anchor="middle" x="110" y="-63.5" font-family="Helvetica,sans-Serif" font-size="10.00">packet_io.h</text>
</a>
</g>
</g>
<!-- Node23&#45;&gt;Node24 -->
<g id="edge18" class="edge">
<title>Node23&#45;&gt;Node24</title>
<path fill="none" stroke="midnightblue" d="M110,-101.8C110,-92.91 110,-82.78 110,-75.75"/>
<polygon fill="midnightblue" stroke="midnightblue" points="106.5,-102.08 110,-112.08 113.5,-102.08 106.5,-102.08"/>
</g>
<!-- Node26 -->
<g id="node21" class="node">
<title>Node26</title>
<g id="a_node21"><a xlink:href="crypto__types_8h.html" target="_top" xlink:title=" ">
<polygon fill="white" stroke="red" points="308.5,-280.5 308.5,-299.5 397.5,-299.5 397.5,-280.5 308.5,-280.5"/>
<text text-anchor="middle" x="353" y="-287.5" font-family="Helvetica,sans-Serif" font-size="10.00">crypto_types.h</text>
</a>
</g>
</g>
<!-- Node25&#45;&gt;Node26 -->
<g id="edge20" class="edge">
<title>Node25&#45;&gt;Node26</title>
<path fill="none" stroke="midnightblue" d="M524.04,-333.96C483.43,-323.76 423.96,-308.82 386.91,-299.52"/>
<polygon fill="midnightblue" stroke="midnightblue" points="523.38,-337.4 533.93,-336.44 525.09,-330.61 523.38,-337.4"/>
</g>
<!-- Node26&#45;&gt;Node18 -->
<g id="edge24" class="edge">
<title>Node26&#45;&gt;Node18</title>
<path fill="none" stroke="midnightblue" d="M369.61,-273.3C394.41,-249.98 442.73,-204.95 485,-168 499.7,-155.15 517.12,-140.78 528.12,-131.82"/>
<polygon fill="midnightblue" stroke="midnightblue" points="367.02,-270.93 362.15,-280.34 371.82,-276.03 367.02,-270.93"/>
</g>
<!-- Node26&#45;&gt;Node20 -->
<g id="edge23" class="edge">
<title>Node26&#45;&gt;Node20</title>
<path fill="none" stroke="midnightblue" d="M338.73,-272.61C322.43,-252.16 298,-215.43 298,-179 298,-179 298,-179 298,-121 298,-83.19 298,-38.06 298,-19.56"/>
<polygon fill="midnightblue" stroke="midnightblue" points="336.05,-274.86 345.12,-280.33 341.44,-270.4 336.05,-274.86"/>
</g>
<!-- Node27 -->
<g id="node22" class="node">
<title>Node27</title>
<g id="a_node22"><a xlink:href="spec_2crypto_8h.html" target="_top" xlink:title=" ">
<polygon fill="white" stroke="black" points="138,-224.5 138,-243.5 194,-243.5 194,-224.5 138,-224.5"/>
<text text-anchor="middle" x="166" y="-231.5" font-family="Helvetica,sans-Serif" font-size="10.00">crypto.h</text>
</a>
</g>
</g>
<!-- Node26&#45;&gt;Node27 -->
<g id="edge21" class="edge">
<title>Node26&#45;&gt;Node27</title>
<path fill="none" stroke="midnightblue" d="M313.75,-277.66C278,-267.34 226.09,-252.35 194.27,-243.16"/>
<polygon fill="midnightblue" stroke="midnightblue" points="312.79,-281.03 323.37,-280.44 314.73,-274.31 312.79,-281.03"/>
</g>
<!-- Node28 -->
<g id="node23" class="node">
<title>Node28</title>
<g id="a_node23"><a xlink:href="crypto_8h.html" target="_top" xlink:title=" ">
<polygon fill="white" stroke="black" points="138,-168.5 138,-187.5 194,-187.5 194,-168.5 138,-168.5"/>
<text text-anchor="middle" x="166" y="-175.5" font-family="Helvetica,sans-Serif" font-size="10.00">crypto.h</text>
</a>
</g>
</g>
<!-- Node27&#45;&gt;Node28 -->
<g id="edge22" class="edge">
<title>Node27&#45;&gt;Node28</title>
<path fill="none" stroke="midnightblue" d="M166,-213.8C166,-204.91 166,-194.78 166,-187.75"/>
<polygon fill="midnightblue" stroke="midnightblue" points="162.5,-214.08 166,-224.08 169.5,-214.08 162.5,-214.08"/>
</g>
<!-- Node31 -->
<g id="node25" class="node">
<title>Node31</title>
<g id="a_node25"><a xlink:href="packet_8h.html" target="_top" xlink:title=" ">
<polygon fill="white" stroke="red" points="799,-168.5 799,-187.5 857,-187.5 857,-168.5 799,-168.5"/>
<text text-anchor="middle" x="828" y="-175.5" font-family="Helvetica,sans-Serif" font-size="10.00">packet.h</text>
</a>
</g>
</g>
<!-- Node30&#45;&gt;Node31 -->
<g id="edge27" class="edge">
<title>Node30&#45;&gt;Node31</title>
<path fill="none" stroke="midnightblue" d="M828,-213.8C828,-204.91 828,-194.78 828,-187.75"/>
<polygon fill="midnightblue" stroke="midnightblue" points="824.5,-214.08 828,-224.08 831.5,-214.08 824.5,-214.08"/>
</g>
<!-- Node33 -->
<g id="node27" class="node">
<title>Node33</title>
<g id="a_node27"><a xlink:href="packet__io__types_8h.html" target="_top" xlink:title=" ">
<polygon fill="white" stroke="black" points="649,-280.5 649,-299.5 753,-299.5 753,-280.5 649,-280.5"/>
<text text-anchor="middle" x="701" y="-287.5" font-family="Helvetica,sans-Serif" font-size="10.00">packet_io_types.h</text>
</a>
</g>
</g>
<!-- Node32&#45;&gt;Node33 -->
<g id="edge29" class="edge">
<title>Node32&#45;&gt;Node33</title>
<path fill="none" stroke="midnightblue" d="M402.07,-335.72C471.76,-325.29 583.59,-308.56 648.91,-298.79"/>
<polygon fill="midnightblue" stroke="midnightblue" points="401.48,-332.26 392.11,-337.21 402.51,-339.19 401.48,-332.26"/>
</g>
<!-- Node33&#45;&gt;Node16 -->
<g id="edge30" class="edge">
<title>Node33&#45;&gt;Node16</title>
<path fill="none" stroke="midnightblue" d="M668.97,-276.91C642.09,-266.75 604.36,-252.51 580.55,-243.52"/>
<polygon fill="midnightblue" stroke="midnightblue" points="667.75,-280.19 678.34,-280.44 670.22,-273.64 667.75,-280.19"/>
</g>
<!-- Node33&#45;&gt;Node18 -->
<g id="edge31" class="edge">
<title>Node33&#45;&gt;Node18</title>
<path fill="none" stroke="midnightblue" d="M682.13,-273.88C672.14,-265.51 659.93,-254.67 650,-244 621.04,-212.91 621.25,-198.82 592,-168 578.87,-154.17 561.76,-140.27 550.58,-131.65"/>
<polygon fill="midnightblue" stroke="midnightblue" points="679.95,-276.61 689.89,-280.27 684.39,-271.21 679.95,-276.61"/>
</g>
<!-- Node33&#45;&gt;Node23 -->
<g id="edge33" class="edge">
<title>Node33&#45;&gt;Node23</title>
<path fill="none" stroke="midnightblue" d="M649.63,-278.35C609.73,-269.81 553.1,-257.13 504,-244 363.67,-206.48 198.15,-152.38 135.63,-131.59"/>
<polygon fill="midnightblue" stroke="midnightblue" points="649.15,-281.82 659.66,-280.48 650.6,-274.98 649.15,-281.82"/>
</g>
<!-- Node33&#45;&gt;Node30 -->
<g id="edge32" class="edge">
<title>Node33&#45;&gt;Node30</title>
<path fill="none" stroke="midnightblue" d="M730.39,-276.5C754.2,-266.38 787.11,-252.39 807.97,-243.52"/>
<polygon fill="midnightblue" stroke="midnightblue" points="728.96,-273.31 721.12,-280.44 731.7,-279.75 728.96,-273.31"/>
</g>
<!-- Node34 -->
<g id="node28" class="node">
<title>Node34</title>
<g id="a_node28"><a xlink:href="spec_2traffic__mngr_8h.html" target="_top" xlink:title=" ">
<polygon fill="white" stroke="black" points="659,-224.5 659,-243.5 743,-243.5 743,-224.5 659,-224.5"/>
<text text-anchor="middle" x="701" y="-231.5" font-family="Helvetica,sans-Serif" font-size="10.00">traffic_mngr.h</text>
</a>
</g>
</g>
<!-- Node33&#45;&gt;Node34 -->
<g id="edge34" class="edge">
<title>Node33&#45;&gt;Node34</title>
<path fill="none" stroke="midnightblue" d="M701,-269.8C701,-260.91 701,-250.78 701,-243.75"/>
<polygon fill="midnightblue" stroke="midnightblue" points="697.5,-270.08 701,-280.08 704.5,-270.08 697.5,-270.08"/>
</g>
<!-- Node35 -->
<g id="node29" class="node">
<title>Node35</title>
<g id="a_node29"><a xlink:href="traffic__mngr_8h.html" target="_top" xlink:title=" ">
<polygon fill="white" stroke="black" points="659,-168.5 659,-187.5 743,-187.5 743,-168.5 659,-168.5"/>
<text text-anchor="middle" x="701" y="-175.5" font-family="Helvetica,sans-Serif" font-size="10.00">traffic_mngr.h</text>
</a>
</g>
</g>
<!-- Node34&#45;&gt;Node35 -->
<g id="edge35" class="edge">
<title>Node34&#45;&gt;Node35</title>
<path fill="none" stroke="midnightblue" d="M701,-213.8C701,-204.91 701,-194.78 701,-187.75"/>
<polygon fill="midnightblue" stroke="midnightblue" points="697.5,-214.08 701,-224.08 704.5,-214.08 697.5,-214.08"/>
</g>
<!-- Node35&#45;&gt;Node18 -->
<g id="edge36" class="edge">
<title>Node35&#45;&gt;Node18</title>
<path fill="none" stroke="midnightblue" d="M665.52,-165.17C635.01,-155 591.76,-140.59 564.55,-131.52"/>
<polygon fill="midnightblue" stroke="midnightblue" points="664.74,-168.6 675.33,-168.44 666.95,-161.96 664.74,-168.6"/>
</g>
<!-- Node39 -->
<g id="node31" class="node">
<title>Node39</title>
<g id="a_node31"><a xlink:href="timer_8h.html" target="_top" xlink:title=" ">
<polygon fill="white" stroke="black" points="856.5,-280.5 856.5,-299.5 907.5,-299.5 907.5,-280.5 856.5,-280.5"/>
<text text-anchor="middle" x="882" y="-287.5" font-family="Helvetica,sans-Serif" font-size="10.00">timer.h</text>
</a>
</g>
</g>
<!-- Node38&#45;&gt;Node39 -->
<g id="edge38" class="edge">
<title>Node38&#45;&gt;Node39</title>
<path fill="none" stroke="midnightblue" d="M882,-325.8C882,-316.91 882,-306.78 882,-299.75"/>
<polygon fill="midnightblue" stroke="midnightblue" points="878.5,-326.08 882,-336.08 885.5,-326.08 878.5,-326.08"/>
</g>
<!-- Node45 -->
<g id="node36" class="node">
<title>Node45</title>
<g id="a_node36"><a xlink:href="packet__io__stats_8h.html" target="_top" xlink:title=" ">
<polygon fill="white" stroke="black" points="130.5,-392.5 130.5,-411.5 231.5,-411.5 231.5,-392.5 130.5,-392.5"/>
<text text-anchor="middle" x="181" y="-399.5" font-family="Helvetica,sans-Serif" font-size="10.00">packet_io_stats.h</text>
</a>
</g>
</g>
<!-- Node44&#45;&gt;Node45 -->
<g id="edge45" class="edge">
<title>Node44&#45;&gt;Node45</title>
<path fill="none" stroke="midnightblue" d="M181,-437.8C181,-428.91 181,-418.78 181,-411.75"/>
<polygon fill="midnightblue" stroke="midnightblue" points="177.5,-438.08 181,-448.08 184.5,-438.08 177.5,-438.08"/>
</g>
<!-- Node45&#45;&gt;Node23 -->
<g id="edge46" class="edge">
<title>Node45&#45;&gt;Node23</title>
<path fill="none" stroke="midnightblue" d="M173.85,-382.7C162.76,-353.7 141.41,-295.22 129,-244 118.93,-202.46 112.96,-151.56 110.86,-131.6"/>
<polygon fill="midnightblue" stroke="midnightblue" points="170.68,-384.23 177.55,-392.29 177.21,-381.71 170.68,-384.23"/>
</g>
<!-- Node45&#45;&gt;Node32 -->
<g id="edge47" class="edge">
<title>Node45&#45;&gt;Node32</title>
<path fill="none" stroke="midnightblue" d="M215.83,-389.17C245.77,-379 288.22,-364.59 314.92,-355.52"/>
<polygon fill="midnightblue" stroke="midnightblue" points="214.54,-385.91 206.19,-392.44 216.79,-392.54 214.54,-385.91"/>
</g>
<!-- Node47 -->
<g id="node38" class="node">
<title>Node47</title>
<g id="a_node38"><a xlink:href="packet__types_8h.html" target="_top" xlink:title=" ">
<polygon fill="white" stroke="black" points="433,-616.5 433,-635.5 523,-635.5 523,-616.5 433,-616.5"/>
<text text-anchor="middle" x="478" y="-623.5" font-family="Helvetica,sans-Serif" font-size="10.00">packet_types.h</text>
</a>
</g>
</g>
<!-- Node46&#45;&gt;Node47 -->
<g id="edge50" class="edge">
<title>Node46&#45;&gt;Node47</title>
<path fill="none" stroke="midnightblue" d="M589.75,-668.91C562.68,-658.75 524.68,-644.51 500.71,-635.52"/>
<polygon fill="midnightblue" stroke="midnightblue" points="588.59,-672.21 599.18,-672.44 591.05,-665.66 588.59,-672.21"/>
</g>
<!-- Node47&#45;&gt;Node5 -->
<g id="edge51" class="edge">
<title>Node47&#45;&gt;Node5</title>
<path fill="none" stroke="midnightblue" d="M533.44,-618.9C638.95,-607.3 865.01,-582.44 942.38,-573.93"/>
<polygon fill="midnightblue" stroke="midnightblue" points="532.87,-615.44 523.31,-620.02 533.63,-622.4 532.87,-615.44"/>
</g>
<!-- Node47&#45;&gt;Node7 -->
<g id="edge54" class="edge">
<title>Node47&#45;&gt;Node7</title>
<path fill="none" stroke="midnightblue" d="M533.24,-621.96C629.27,-616.31 833.05,-602.65 1004,-580 1007.24,-579.57 1010.58,-579.08 1013.93,-578.55"/>
<polygon fill="midnightblue" stroke="midnightblue" points="532.96,-618.48 523.18,-622.55 533.37,-625.46 532.96,-618.48"/>
</g>
<!-- Node47&#45;&gt;Node20 -->
<g id="edge56" class="edge">
<title>Node47&#45;&gt;Node20</title>
<path fill="none" stroke="midnightblue" d="M422.63,-623.92C351.53,-621.24 234.08,-611.95 207,-580 201.25,-573.22 205.48,-568.76 207,-560 219.62,-487.44 260,-476.65 260,-403 260,-403 260,-403 260,-121 260,-81.4 282.27,-37.96 292.72,-19.77"/>
<polygon fill="midnightblue" stroke="midnightblue" points="422.65,-627.43 432.76,-624.28 422.89,-620.43 422.65,-627.43"/>
</g>
<!-- Node47&#45;&gt;Node23 -->
<g id="edge59" class="edge">
<title>Node47&#45;&gt;Node23</title>
<path fill="none" stroke="midnightblue" d="M422.52,-624.75C333.06,-623.27 162.19,-615.7 115,-580 68.46,-544.79 64,-517.36 64,-459 64,-459 64,-459 64,-233 64,-192.43 90.96,-149.5 103.6,-131.61"/>
<polygon fill="midnightblue" stroke="midnightblue" points="422.7,-628.25 432.75,-624.9 422.8,-621.25 422.7,-628.25"/>
</g>
<!-- Node47&#45;&gt;Node25 -->
<g id="edge53" class="edge">
<title>Node47&#45;&gt;Node25</title>
<path fill="none" stroke="midnightblue" d="M422.65,-622.1C361.52,-617.59 268.83,-606.49 247,-580 241.35,-573.14 242.8,-567.83 247,-560 310.88,-440.95 473.81,-377.16 539.7,-355.54"/>
<polygon fill="midnightblue" stroke="midnightblue" points="422.7,-625.61 432.92,-622.81 423.19,-618.62 422.7,-625.61"/>
</g>
<!-- Node47&#45;&gt;Node27 -->
<g id="edge52" class="edge">
<title>Node47&#45;&gt;Node27</title>
<path fill="none" stroke="midnightblue" d="M422.69,-624.77C337.52,-623.27 179.72,-615.62 138,-580 95.33,-543.57 102,-515.11 102,-459 102,-459 102,-459 102,-401 102,-336.75 144.25,-267.32 160.09,-243.54"/>
<polygon fill="midnightblue" stroke="midnightblue" points="422.65,-628.27 432.71,-624.92 422.76,-621.27 422.65,-628.27"/>
</g>
<!-- Node47&#45;&gt;Node30 -->
<g id="edge57" class="edge">
<title>Node47&#45;&gt;Node30</title>
<path fill="none" stroke="midnightblue" d="M510.07,-612.57C530.31,-604.28 556.75,-592.61 579,-580 667.82,-529.66 677.22,-496.62 767,-448 804.88,-427.48 820.73,-435.24 857,-412 887.44,-392.49 901.73,-389.22 916,-356 929.33,-324.96 933.63,-308.81 916,-280 903.28,-259.21 877.6,-247.64 857.25,-241.46"/>
<polygon fill="midnightblue" stroke="midnightblue" points="508.64,-609.38 500.67,-616.36 511.25,-615.87 508.64,-609.38"/>
</g>
<!-- Node47&#45;&gt;Node32 -->
<g id="edge60" class="edge">
<title>Node47&#45;&gt;Node32</title>
<path fill="none" stroke="midnightblue" d="M503.19,-610.96C522,-598.53 542.74,-579.39 532,-560 494.66,-492.58 433.69,-527.74 385,-468 356.11,-432.56 344.69,-376.77 341.24,-355.56"/>
<polygon fill="midnightblue" stroke="midnightblue" points="501.18,-608.09 494.53,-616.34 504.87,-614.04 501.18,-608.09"/>
</g>
<!-- Node47&#45;&gt;Node41 -->
<g id="edge64" class="edge">
<title>Node47&#45;&gt;Node41</title>
<path fill="none" stroke="midnightblue" d="M422.48,-623.64C353.07,-620.63 240.13,-610.97 214,-580 208.27,-573.21 210.32,-568.09 214,-560 262.28,-453.78 392.6,-379.81 440.24,-355.6"/>
<polygon fill="midnightblue" stroke="midnightblue" points="422.68,-627.15 432.81,-624.05 422.96,-620.15 422.68,-627.15"/>
</g>
<!-- Node47&#45;&gt;Node42 -->
<g id="edge65" class="edge">
<title>Node47&#45;&gt;Node42</title>
<path fill="none" stroke="midnightblue" d="M507.31,-611.85C540.49,-594.72 590,-561.39 590,-515 590,-515 590,-515 590,-457 590,-407.14 647.17,-371.19 677.54,-355.61"/>
<polygon fill="midnightblue" stroke="midnightblue" points="505.43,-608.87 498.02,-616.44 508.54,-615.14 505.43,-608.87"/>
</g>
<!-- Node48 -->
<g id="node39" class="node">
<title>Node48</title>
<g id="a_node39"><a xlink:href="spec_2event_8h.html" target="_top" xlink:title=" ">
<polygon fill="white" stroke="red" points="256.5,-560.5 256.5,-579.5 309.5,-579.5 309.5,-560.5 256.5,-560.5"/>
<text text-anchor="middle" x="283" y="-567.5" font-family="Helvetica,sans-Serif" font-size="10.00">event.h</text>
</a>
</g>
</g>
<!-- Node47&#45;&gt;Node48 -->
<g id="edge55" class="edge">
<title>Node47&#45;&gt;Node48</title>
<path fill="none" stroke="midnightblue" d="M437.28,-613.72C398.94,-603.11 342.61,-587.51 309.68,-578.39"/>
<polygon fill="midnightblue" stroke="midnightblue" points="436.53,-617.15 447.1,-616.44 438.4,-610.4 436.53,-617.15"/>
</g>
<!-- Node51 -->
<g id="node40" class="node">
<title>Node51</title>
<g id="a_node40"><a xlink:href="spec_2packet__flags_8h.html" target="_top" xlink:title=" ">
<polygon fill="white" stroke="red" points="328,-560.5 328,-579.5 414,-579.5 414,-560.5 328,-560.5"/>
<text text-anchor="middle" x="371" y="-567.5" font-family="Helvetica,sans-Serif" font-size="10.00">packet_flags.h</text>
</a>
</g>
</g>
<!-- Node47&#45;&gt;Node51 -->
<g id="edge58" class="edge">
<title>Node47&#45;&gt;Node51</title>
<path fill="none" stroke="midnightblue" d="M451.7,-611.73C431.89,-601.73 405.29,-588.31 388.15,-579.65"/>
<polygon fill="midnightblue" stroke="midnightblue" points="450.3,-614.94 460.81,-616.32 453.46,-608.69 450.3,-614.94"/>
</g>
<!-- Node53 -->
<g id="node41" class="node">
<title>Node53</title>
<g id="a_node41"><a xlink:href="event__inlines_8h_source.html" target="_top" xlink:title=" ">
<polygon fill="white" stroke="black" points="432.5,-560.5 432.5,-579.5 523.5,-579.5 523.5,-560.5 432.5,-560.5"/>
<text text-anchor="middle" x="478" y="-567.5" font-family="Helvetica,sans-Serif" font-size="10.00">event_inlines.h</text>
</a>
</g>
</g>
<!-- Node47&#45;&gt;Node53 -->
<g id="edge61" class="edge">
<title>Node47&#45;&gt;Node53</title>
<path fill="none" stroke="midnightblue" d="M478,-605.8C478,-596.91 478,-586.78 478,-579.75"/>
<polygon fill="midnightblue" stroke="midnightblue" points="474.5,-606.08 478,-616.08 481.5,-606.08 474.5,-606.08"/>
</g>
<!-- Node54 -->
<g id="node42" class="node">
<title>Node54</title>
<g id="a_node42"><a xlink:href="event__validation__external_8h.html" target="_top" xlink:title=" ">
<polygon fill="white" stroke="black" points="656.5,-560.5 656.5,-579.5 809.5,-579.5 809.5,-560.5 656.5,-560.5"/>
<text text-anchor="middle" x="733" y="-567.5" font-family="Helvetica,sans-Serif" font-size="10.00">event_validation_external.h</text>
</a>
</g>
</g>
<!-- Node47&#45;&gt;Node54 -->
<g id="edge62" class="edge">
<title>Node47&#45;&gt;Node54</title>
<path fill="none" stroke="midnightblue" d="M528.31,-614.35C576.5,-604.14 648.28,-588.94 692.78,-579.52"/>
<polygon fill="midnightblue" stroke="midnightblue" points="527.46,-610.95 518.41,-616.44 528.91,-617.8 527.46,-610.95"/>
</g>
<!-- Node55 -->
<g id="node43" class="node">
<title>Node55</title>
<g id="a_node43"><a xlink:href="queue__inlines_8h_source.html" target="_top" xlink:title=" ">
<polygon fill="white" stroke="black" points="712.5,-504.5 712.5,-523.5 805.5,-523.5 805.5,-504.5 712.5,-504.5"/>
<text text-anchor="middle" x="759" y="-511.5" font-family="Helvetica,sans-Serif" font-size="10.00">queue_inlines.h</text>
</a>
</g>
</g>
<!-- Node54&#45;&gt;Node55 -->
<g id="edge63" class="edge">
<title>Node54&#45;&gt;Node55</title>
<path fill="none" stroke="midnightblue" d="M741.67,-550.98C746.09,-541.82 751.25,-531.09 754.79,-523.75"/>
<polygon fill="midnightblue" stroke="midnightblue" points="738.48,-549.55 737.29,-560.08 744.79,-552.59 738.48,-549.55"/>
</g>
<!-- Node57 -->
<g id="node45" class="node">
<title>Node57</title>
<g id="a_node45"><a xlink:href="queue_8h.html" target="_top" xlink:title=" ">
<polygon fill="white" stroke="black" points="980,-616.5 980,-635.5 1036,-635.5 1036,-616.5 980,-616.5"/>
<text text-anchor="middle" x="1008" y="-623.5" font-family="Helvetica,sans-Serif" font-size="10.00">queue.h</text>
</a>
</g>
</g>
<!-- Node56&#45;&gt;Node57 -->
<g id="edge67" class="edge">
<title>Node56&#45;&gt;Node57</title>
<path fill="none" stroke="midnightblue" d="M1008,-661.8C1008,-652.91 1008,-642.78 1008,-635.75"/>
<polygon fill="midnightblue" stroke="midnightblue" points="1004.5,-662.08 1008,-672.08 1011.5,-662.08 1004.5,-662.08"/>
</g>
<!-- Node59 -->
<g id="node47" class="node">
<title>Node59</title>
<g id="a_node47"><a xlink:href="schedule_8h.html" target="_top" xlink:title=" ">
<polygon fill="white" stroke="black" points="1320.5,-616.5 1320.5,-635.5 1389.5,-635.5 1389.5,-616.5 1320.5,-616.5"/>
<text text-anchor="middle" x="1355" y="-623.5" font-family="Helvetica,sans-Serif" font-size="10.00">schedule.h</text>
</a>
</g>
</g>
<!-- Node58&#45;&gt;Node59 -->
<g id="edge69" class="edge">
<title>Node58&#45;&gt;Node59</title>
<path fill="none" stroke="midnightblue" d="M1355,-661.8C1355,-652.91 1355,-642.78 1355,-635.75"/>
<polygon fill="midnightblue" stroke="midnightblue" points="1351.5,-662.08 1355,-672.08 1358.5,-662.08 1351.5,-662.08"/>
</g>
<!-- Node60&#45;&gt;Node55 -->
<g id="edge73" class="edge">
<title>Node60&#45;&gt;Node55</title>
<path fill="none" stroke="midnightblue" d="M804.31,-608.32C815.16,-595.12 826.05,-576.26 818,-560 809.71,-543.26 791.89,-531.05 777.98,-523.6"/>
<polygon fill="midnightblue" stroke="midnightblue" points="801.43,-606.3 797.39,-616.1 806.65,-610.95 801.43,-606.3"/>
</g>
<!-- Node61&#45;&gt;Node62 -->
<g id="edge75" class="edge">
<title>Node61&#45;&gt;Node62</title>
<path fill="none" stroke="midnightblue" d="M1227.88,-662.69C1224.34,-653.59 1220.23,-643.01 1217.4,-635.75"/>
<polygon fill="midnightblue" stroke="midnightblue" points="1224.65,-664.03 1231.53,-672.08 1231.17,-661.49 1224.65,-664.03"/>
</g>
</g>
</svg>
