<?xml version="1.0" encoding="UTF-8" standalone="no"?>
<!DOCTYPE svg PUBLIC "-//W3C//DTD SVG 1.1//EN"
 "http://www.w3.org/Graphics/SVG/1.1/DTD/svg11.dtd">
<!-- Generated by graphviz version 2.43.0 (0)
 -->
<!-- Title: event_types.h Pages: 1 -->
<svg width="2077pt" height="588pt"
 viewBox="0.00 0.00 2077.00 588.00" xmlns="http://www.w3.org/2000/svg" xmlns:xlink="http://www.w3.org/1999/xlink">
<g id="graph0" class="graph" transform="scale(1 1) rotate(0) translate(4 584)">
<title>event_types.h</title>
<polygon fill="white" stroke="transparent" points="-4,4 -4,-584 2073,-584 2073,4 -4,4"/>
<!-- Node1 -->
<g id="node1" class="node">
<title>Node1</title>
<g id="a_node1"><a xlink:title=" ">
<polygon fill="#bfbfbf" stroke="black" points="1264,-560.5 1264,-579.5 1350,-579.5 1350,-560.5 1264,-560.5"/>
<text text-anchor="middle" x="1307" y="-567.5" font-family="Helvetica,sans-Serif" font-size="10.00">event_types.h</text>
</a>
</g>
</g>
<!-- Node2 -->
<g id="node2" class="node">
<title>Node2</title>
<g id="a_node2"><a xlink:href="event__types_8h.html" target="_top" xlink:title=" ">
<polygon fill="white" stroke="black" points="1264,-504.5 1264,-523.5 1350,-523.5 1350,-504.5 1264,-504.5"/>
<text text-anchor="middle" x="1307" y="-511.5" font-family="Helvetica,sans-Serif" font-size="10.00">event_types.h</text>
</a>
</g>
</g>
<!-- Node1&#45;&gt;Node2 -->
<g id="edge1" class="edge">
<title>Node1&#45;&gt;Node2</title>
<path fill="none" stroke="midnightblue" d="M1307,-549.8C1307,-540.91 1307,-530.78 1307,-523.75"/>
<polygon fill="midnightblue" stroke="midnightblue" points="1303.5,-550.08 1307,-560.08 1310.5,-550.08 1303.5,-550.08"/>
</g>
<!-- Node3 -->
<g id="node3" class="node">
<title>Node3</title>
<g id="a_node3"><a xlink:href="spec_2buffer_8h.html" target="_top" xlink:title=" ">
<polygon fill="white" stroke="black" points="66.5,-224.5 66.5,-243.5 119.5,-243.5 119.5,-224.5 66.5,-224.5"/>
<text text-anchor="middle" x="93" y="-231.5" font-family="Helvetica,sans-Serif" font-size="10.00">buffer.h</text>
</a>
</g>
</g>
<!-- Node2&#45;&gt;Node3 -->
<g id="edge2" class="edge">
<title>Node2&#45;&gt;Node3</title>
<path fill="none" stroke="midnightblue" d="M1253.86,-511.08C1017.82,-502.21 76,-463.06 76,-403 76,-403 76,-403 76,-345 76,-306.93 86.07,-262.31 90.71,-243.77"/>
<polygon fill="midnightblue" stroke="midnightblue" points="1253.79,-514.58 1263.91,-511.46 1254.05,-507.58 1253.79,-514.58"/>
</g>
<!-- Node5 -->
<g id="node5" class="node">
<title>Node5</title>
<g id="a_node5"><a xlink:href="dma__inlines_8h_source.html" target="_top" xlink:title=" ">
<polygon fill="white" stroke="black" points="23.5,-112.5 23.5,-131.5 108.5,-131.5 108.5,-112.5 23.5,-112.5"/>
<text text-anchor="middle" x="66" y="-119.5" font-family="Helvetica,sans-Serif" font-size="10.00">dma_inlines.h</text>
</a>
</g>
</g>
<!-- Node2&#45;&gt;Node5 -->
<g id="edge65" class="edge">
<title>Node2&#45;&gt;Node5</title>
<path fill="none" stroke="midnightblue" d="M1253.69,-511.97C1070.89,-508.24 470.19,-494.23 279,-468 152.86,-450.7 0,-530.32 0,-403 0,-403 0,-403 0,-233 0,-189.79 37.9,-148.9 56.26,-131.63"/>
<polygon fill="midnightblue" stroke="midnightblue" points="1253.79,-515.47 1263.86,-512.18 1253.93,-508.47 1253.79,-515.47"/>
</g>
<!-- Node6 -->
<g id="node6" class="node">
<title>Node6</title>
<g id="a_node6"><a xlink:href="spec_2comp_8h.html" target="_top" xlink:title=" ">
<polygon fill="white" stroke="black" points="1354.5,-448.5 1354.5,-467.5 1407.5,-467.5 1407.5,-448.5 1354.5,-448.5"/>
<text text-anchor="middle" x="1381" y="-455.5" font-family="Helvetica,sans-Serif" font-size="10.00">comp.h</text>
</a>
</g>
</g>
<!-- Node2&#45;&gt;Node6 -->
<g id="edge5" class="edge">
<title>Node2&#45;&gt;Node6</title>
<path fill="none" stroke="midnightblue" d="M1327.03,-498.38C1340.41,-488.62 1357.56,-476.11 1368.89,-467.83"/>
<polygon fill="midnightblue" stroke="midnightblue" points="1324.9,-495.6 1318.89,-504.32 1329.03,-501.26 1324.9,-495.6"/>
</g>
<!-- Node8 -->
<g id="node8" class="node">
<title>Node8</title>
<g id="a_node8"><a xlink:href="spec_2dma__types_8h.html" target="_top" xlink:title=" ">
<polygon fill="white" stroke="black" points="580,-448.5 580,-467.5 660,-467.5 660,-448.5 580,-448.5"/>
<text text-anchor="middle" x="620" y="-455.5" font-family="Helvetica,sans-Serif" font-size="10.00">dma_types.h</text>
</a>
</g>
</g>
<!-- Node2&#45;&gt;Node8 -->
<g id="edge7" class="edge">
<title>Node2&#45;&gt;Node8</title>
<path fill="none" stroke="midnightblue" d="M1253.44,-508.79C1120.53,-498.34 777.89,-471.41 660.31,-462.17"/>
<polygon fill="midnightblue" stroke="midnightblue" points="1253.52,-512.31 1263.76,-509.6 1254.07,-505.33 1253.52,-512.31"/>
</g>
<!-- Node18 -->
<g id="node20" class="node">
<title>Node18</title>
<g id="a_node20"><a xlink:href="spec_2ipsec_8h.html" target="_top" xlink:title=" ">
<polygon fill="white" stroke="black" points="1094.5,-112.5 1094.5,-131.5 1145.5,-131.5 1145.5,-112.5 1094.5,-112.5"/>
<text text-anchor="middle" x="1120" y="-119.5" font-family="Helvetica,sans-Serif" font-size="10.00">ipsec.h</text>
</a>
</g>
</g>
<!-- Node2&#45;&gt;Node18 -->
<g id="edge53" class="edge">
<title>Node2&#45;&gt;Node18</title>
<path fill="none" stroke="midnightblue" d="M1282.75,-499.09C1254.61,-480.91 1212,-446.26 1212,-403 1212,-403 1212,-403 1212,-233 1212,-185.7 1161.32,-148.02 1135.19,-131.73"/>
<polygon fill="midnightblue" stroke="midnightblue" points="1280.97,-502.1 1291.31,-504.4 1284.66,-496.15 1280.97,-502.1"/>
</g>
<!-- Node28 -->
<g id="node23" class="node">
<title>Node28</title>
<g id="a_node23"><a xlink:href="spec_2packet_8h.html" target="_top" xlink:title=" ">
<polygon fill="white" stroke="black" points="750,-112.5 750,-131.5 808,-131.5 808,-112.5 750,-112.5"/>
<text text-anchor="middle" x="779" y="-119.5" font-family="Helvetica,sans-Serif" font-size="10.00">packet.h</text>
</a>
</g>
</g>
<!-- Node2&#45;&gt;Node28 -->
<g id="edge54" class="edge">
<title>Node2&#45;&gt;Node28</title>
<path fill="none" stroke="midnightblue" d="M1270.5,-500.73C1231.13,-484.9 1174,-453.27 1174,-403 1174,-403 1174,-403 1174,-289 1174,-209.59 899.27,-147.18 808.05,-128.64"/>
<polygon fill="midnightblue" stroke="midnightblue" points="1269.5,-504.09 1280.09,-504.41 1272.01,-497.55 1269.5,-504.09"/>
</g>
<!-- Node36 -->
<g id="node30" class="node">
<title>Node36</title>
<g id="a_node30"><a xlink:href="spec_2timer_8h.html" target="_top" xlink:title=" ">
<polygon fill="white" stroke="black" points="1240.5,-224.5 1240.5,-243.5 1291.5,-243.5 1291.5,-224.5 1240.5,-224.5"/>
<text text-anchor="middle" x="1266" y="-231.5" font-family="Helvetica,sans-Serif" font-size="10.00">timer.h</text>
</a>
</g>
</g>
<!-- Node2&#45;&gt;Node36 -->
<g id="edge59" class="edge">
<title>Node2&#45;&gt;Node36</title>
<path fill="none" stroke="midnightblue" d="M1292.21,-496.7C1275.32,-476.34 1250,-439.7 1250,-403 1250,-403 1250,-403 1250,-345 1250,-306.98 1259.47,-262.34 1263.84,-243.78"/>
<polygon fill="midnightblue" stroke="midnightblue" points="1289.65,-499.1 1298.83,-504.38 1294.95,-494.52 1289.65,-499.1"/>
</g>
<!-- Node42 -->
<g id="node36" class="node">
<title>Node42</title>
<g id="a_node36"><a xlink:href="spec_2event_8h.html" target="_top" xlink:title=" ">
<polygon fill="white" stroke="black" points="1081.5,-336.5 1081.5,-355.5 1134.5,-355.5 1134.5,-336.5 1081.5,-336.5"/>
<text text-anchor="middle" x="1108" y="-343.5" font-family="Helvetica,sans-Serif" font-size="10.00">event.h</text>
</a>
</g>
</g>
<!-- Node2&#45;&gt;Node42 -->
<g id="edge45" class="edge">
<title>Node2&#45;&gt;Node42</title>
<path fill="none" stroke="midnightblue" d="M1253.87,-507.84C1223.23,-502.38 1185.8,-491.13 1160,-468 1125.1,-436.71 1112.75,-377.94 1109.21,-355.77"/>
<polygon fill="midnightblue" stroke="midnightblue" points="1253.54,-511.33 1263.97,-509.48 1254.66,-504.42 1253.54,-511.33"/>
</g>
<!-- Node45 -->
<g id="node39" class="node">
<title>Node45</title>
<g id="a_node39"><a xlink:href="spec_2queue_8h.html" target="_top" xlink:title=" ">
<polygon fill="white" stroke="black" points="1426,-448.5 1426,-467.5 1482,-467.5 1482,-448.5 1426,-448.5"/>
<text text-anchor="middle" x="1454" y="-455.5" font-family="Helvetica,sans-Serif" font-size="10.00">queue.h</text>
</a>
</g>
</g>
<!-- Node2&#45;&gt;Node45 -->
<g id="edge55" class="edge">
<title>Node2&#45;&gt;Node45</title>
<path fill="none" stroke="midnightblue" d="M1339.92,-500.91C1367.56,-490.75 1406.34,-476.51 1430.82,-467.52"/>
<polygon fill="midnightblue" stroke="midnightblue" points="1338.47,-497.71 1330.29,-504.44 1340.89,-504.28 1338.47,-497.71"/>
</g>
<!-- Node47 -->
<g id="node41" class="node">
<title>Node47</title>
<g id="a_node41"><a xlink:href="spec_2schedule_8h.html" target="_top" xlink:title=" ">
<polygon fill="white" stroke="black" points="1500.5,-448.5 1500.5,-467.5 1569.5,-467.5 1569.5,-448.5 1500.5,-448.5"/>
<text text-anchor="middle" x="1535" y="-455.5" font-family="Helvetica,sans-Serif" font-size="10.00">schedule.h</text>
</a>
</g>
</g>
<!-- Node2&#45;&gt;Node47 -->
<g id="edge57" class="edge">
<title>Node2&#45;&gt;Node47</title>
<path fill="none" stroke="midnightblue" d="M1352.89,-502.13C1396.38,-491.83 1460.74,-476.59 1500.16,-467.25"/>
<polygon fill="midnightblue" stroke="midnightblue" points="1352.05,-498.73 1343.13,-504.44 1353.66,-505.54 1352.05,-498.73"/>
</g>
<!-- Node49 -->
<g id="node43" class="node">
<title>Node49</title>
<g id="a_node43"><a xlink:href="spec_2timer__types_8h.html" target="_top" xlink:title=" ">
<polygon fill="white" stroke="black" points="1278,-336.5 1278,-355.5 1362,-355.5 1362,-336.5 1278,-336.5"/>
<text text-anchor="middle" x="1320" y="-343.5" font-family="Helvetica,sans-Serif" font-size="10.00">timer_types.h</text>
</a>
</g>
</g>
<!-- Node2&#45;&gt;Node49 -->
<g id="edge60" class="edge">
<title>Node2&#45;&gt;Node49</title>
<path fill="none" stroke="midnightblue" d="M1306.99,-494.38C1307.16,-470.57 1308.06,-428.1 1312,-392 1313.39,-379.22 1316.23,-364.6 1318.12,-355.58"/>
<polygon fill="midnightblue" stroke="midnightblue" points="1303.49,-494.45 1306.96,-504.46 1310.49,-494.47 1303.49,-494.45"/>
</g>
<!-- Node51 -->
<g id="node45" class="node">
<title>Node51</title>
<g id="a_node45"><a xlink:href="event__inlines_8h_source.html" target="_top" xlink:title=" ">
<polygon fill="white" stroke="black" points="1416.5,-224.5 1416.5,-243.5 1507.5,-243.5 1507.5,-224.5 1416.5,-224.5"/>
<text text-anchor="middle" x="1462" y="-231.5" font-family="Helvetica,sans-Serif" font-size="10.00">event_inlines.h</text>
</a>
</g>
</g>
<!-- Node2&#45;&gt;Node51 -->
<g id="edge66" class="edge">
<title>Node2&#45;&gt;Node51</title>
<path fill="none" stroke="midnightblue" d="M1310.8,-494.37C1316.23,-469.95 1327.53,-426.19 1345,-392 1347.12,-387.86 1431.24,-275.91 1455.51,-243.63"/>
<polygon fill="midnightblue" stroke="midnightblue" points="1307.32,-493.9 1308.66,-504.41 1314.17,-495.36 1307.32,-493.9"/>
</g>
<!-- Node52 -->
<g id="node46" class="node">
<title>Node52</title>
<g id="a_node46"><a xlink:href="event__validation__external_8h.html" target="_top" xlink:title=" ">
<polygon fill="white" stroke="black" points="1587.5,-448.5 1587.5,-467.5 1740.5,-467.5 1740.5,-448.5 1587.5,-448.5"/>
<text text-anchor="middle" x="1664" y="-455.5" font-family="Helvetica,sans-Serif" font-size="10.00">event_validation_external.h</text>
</a>
</g>
</g>
<!-- Node2&#45;&gt;Node52 -->
<g id="edge67" class="edge">
<title>Node2&#45;&gt;Node52</title>
<path fill="none" stroke="midnightblue" d="M1360.31,-504.94C1426.73,-494.89 1539.72,-477.8 1607.56,-467.54"/>
<polygon fill="midnightblue" stroke="midnightblue" points="1359.43,-501.53 1350.06,-506.49 1360.47,-508.45 1359.43,-501.53"/>
</g>
<!-- Node54 -->
<g id="node48" class="node">
<title>Node54</title>
<g id="a_node48"><a xlink:href="queue__inline__types_8h_source.html" target="_top" xlink:title=" ">
<polygon fill="white" stroke="black" points="1759,-448.5 1759,-467.5 1879,-467.5 1879,-448.5 1759,-448.5"/>
<text text-anchor="middle" x="1819" y="-455.5" font-family="Helvetica,sans-Serif" font-size="10.00">queue_inline_types.h</text>
</a>
</g>
</g>
<!-- Node2&#45;&gt;Node54 -->
<g id="edge69" class="edge">
<title>Node2&#45;&gt;Node54</title>
<path fill="none" stroke="midnightblue" d="M1360.22,-508.04C1443.3,-500.19 1608.83,-484.14 1749,-468 1752.16,-467.64 1755.41,-467.25 1758.68,-466.86"/>
<polygon fill="midnightblue" stroke="midnightblue" points="1359.65,-504.58 1350.02,-509 1360.3,-511.55 1359.65,-504.58"/>
</g>
<!-- Node55 -->
<g id="node49" class="node">
<title>Node55</title>
<g id="a_node49"><a xlink:href="schedule__inline__types_8h_source.html" target="_top" xlink:title=" ">
<polygon fill="white" stroke="black" points="1935,-448.5 1935,-467.5 2069,-467.5 2069,-448.5 1935,-448.5"/>
<text text-anchor="middle" x="2002" y="-455.5" font-family="Helvetica,sans-Serif" font-size="10.00">schedule_inline_types.h</text>
</a>
</g>
</g>
<!-- Node2&#45;&gt;Node55 -->
<g id="edge71" class="edge">
<title>Node2&#45;&gt;Node55</title>
<path fill="none" stroke="midnightblue" d="M1360.4,-509.76C1467.05,-503.15 1713.97,-487.08 1921,-468 1925.51,-467.58 1930.16,-467.13 1934.84,-466.66"/>
<polygon fill="midnightblue" stroke="midnightblue" points="1359.99,-506.28 1350.22,-510.39 1360.42,-513.27 1359.99,-506.28"/>
</g>
<!-- Node56 -->
<g id="node50" class="node">
<title>Node56</title>
<g id="a_node50"><a xlink:href="schedule__inlines_8h_source.html" target="_top" xlink:title=" ">
<polygon fill="white" stroke="black" points="1900.5,-392.5 1900.5,-411.5 2007.5,-411.5 2007.5,-392.5 1900.5,-392.5"/>
<text text-anchor="middle" x="1954" y="-399.5" font-family="Helvetica,sans-Serif" font-size="10.00">schedule_inlines.h</text>
</a>
</g>
</g>
<!-- Node2&#45;&gt;Node56 -->
<g id="edge73" class="edge">
<title>Node2&#45;&gt;Node56</title>
<path fill="none" stroke="midnightblue" d="M1360.2,-513.49C1485.33,-513.91 1794.76,-510.48 1888,-468 1915.51,-455.46 1938.21,-426.29 1948.33,-411.67"/>
<polygon fill="midnightblue" stroke="midnightblue" points="1360.11,-509.99 1350.09,-513.45 1360.08,-516.99 1360.11,-509.99"/>
</g>
<!-- Node4 -->
<g id="node4" class="node">
<title>Node4</title>
<g id="a_node4"><a xlink:href="buffer_8h.html" target="_top" xlink:title=" ">
<polygon fill="white" stroke="black" points="66.5,-168.5 66.5,-187.5 119.5,-187.5 119.5,-168.5 66.5,-168.5"/>
<text text-anchor="middle" x="93" y="-175.5" font-family="Helvetica,sans-Serif" font-size="10.00">buffer.h</text>
</a>
</g>
</g>
<!-- Node3&#45;&gt;Node4 -->
<g id="edge3" class="edge">
<title>Node3&#45;&gt;Node4</title>
<path fill="none" stroke="midnightblue" d="M93,-213.8C93,-204.91 93,-194.78 93,-187.75"/>
<polygon fill="midnightblue" stroke="midnightblue" points="89.5,-214.08 93,-224.08 96.5,-214.08 89.5,-214.08"/>
</g>
<!-- Node4&#45;&gt;Node5 -->
<g id="edge4" class="edge">
<title>Node4&#45;&gt;Node5</title>
<path fill="none" stroke="midnightblue" d="M83.99,-158.98C79.41,-149.82 74.05,-139.09 70.38,-131.75"/>
<polygon fill="midnightblue" stroke="midnightblue" points="80.94,-160.7 88.54,-168.08 87.2,-157.57 80.94,-160.7"/>
</g>
<!-- Node7 -->
<g id="node7" class="node">
<title>Node7</title>
<g id="a_node7"><a xlink:href="comp_8h.html" target="_top" xlink:title=" ">
<polygon fill="white" stroke="black" points="1354.5,-392.5 1354.5,-411.5 1407.5,-411.5 1407.5,-392.5 1354.5,-392.5"/>
<text text-anchor="middle" x="1381" y="-399.5" font-family="Helvetica,sans-Serif" font-size="10.00">comp.h</text>
</a>
</g>
</g>
<!-- Node6&#45;&gt;Node7 -->
<g id="edge6" class="edge">
<title>Node6&#45;&gt;Node7</title>
<path fill="none" stroke="midnightblue" d="M1381,-437.8C1381,-428.91 1381,-418.78 1381,-411.75"/>
<polygon fill="midnightblue" stroke="midnightblue" points="1377.5,-438.08 1381,-448.08 1384.5,-438.08 1377.5,-438.08"/>
</g>
<!-- Node9 -->
<g id="node9" class="node">
<title>Node9</title>
<g id="a_node9"><a xlink:href="dma__types_8h.html" target="_top" xlink:title=" ">
<polygon fill="white" stroke="black" points="289,-392.5 289,-411.5 369,-411.5 369,-392.5 289,-392.5"/>
<text text-anchor="middle" x="329" y="-399.5" font-family="Helvetica,sans-Serif" font-size="10.00">dma_types.h</text>
</a>
</g>
</g>
<!-- Node8&#45;&gt;Node9 -->
<g id="edge8" class="edge">
<title>Node8&#45;&gt;Node9</title>
<path fill="none" stroke="midnightblue" d="M570,-447.72C513.2,-437.18 421.6,-420.18 369.21,-410.46"/>
<polygon fill="midnightblue" stroke="midnightblue" points="569.37,-451.16 579.84,-449.55 570.65,-444.28 569.37,-451.16"/>
</g>
<!-- Node9&#45;&gt;Node5 -->
<g id="edge44" class="edge">
<title>Node9&#45;&gt;Node5</title>
<path fill="none" stroke="midnightblue" d="M282.64,-389.7C218.65,-371.34 105.65,-328.26 57,-244 35.62,-206.97 53.81,-152.58 62.25,-131.65"/>
<polygon fill="midnightblue" stroke="midnightblue" points="281.9,-393.13 292.47,-392.44 283.78,-386.39 281.9,-393.13"/>
</g>
<!-- Node10 -->
<g id="node10" class="node">
<title>Node10</title>
<g id="a_node10"><a xlink:href="spec_2dma_8h.html" target="_top" xlink:title=" ">
<polygon fill="white" stroke="black" points="137.5,-224.5 137.5,-243.5 184.5,-243.5 184.5,-224.5 137.5,-224.5"/>
<text text-anchor="middle" x="161" y="-231.5" font-family="Helvetica,sans-Serif" font-size="10.00">dma.h</text>
</a>
</g>
</g>
<!-- Node9&#45;&gt;Node10 -->
<g id="edge9" class="edge">
<title>Node9&#45;&gt;Node10</title>
<path fill="none" stroke="midnightblue" d="M312.45,-384.65C277.32,-349.94 196.32,-269.9 169.67,-243.57"/>
<polygon fill="midnightblue" stroke="midnightblue" points="310.39,-387.54 319.97,-392.08 315.31,-382.56 310.39,-387.54"/>
</g>
<!-- Node12 -->
<g id="node12" class="node">
<title>Node12</title>
<g id="a_node12"><a xlink:href="spec_2pool__types_8h.html" target="_top" xlink:title=" ">
<polygon fill="white" stroke="black" points="391.5,-336.5 391.5,-355.5 470.5,-355.5 470.5,-336.5 391.5,-336.5"/>
<text text-anchor="middle" x="431" y="-343.5" font-family="Helvetica,sans-Serif" font-size="10.00">pool_types.h</text>
</a>
</g>
</g>
<!-- Node9&#45;&gt;Node12 -->
<g id="edge11" class="edge">
<title>Node9&#45;&gt;Node12</title>
<path fill="none" stroke="midnightblue" d="M354.33,-387.59C373.19,-377.61 398.38,-364.27 414.65,-355.65"/>
<polygon fill="midnightblue" stroke="midnightblue" points="352.59,-384.55 345.39,-392.32 355.86,-390.74 352.59,-384.55"/>
</g>
<!-- Node11 -->
<g id="node11" class="node">
<title>Node11</title>
<g id="a_node11"><a xlink:href="dma_8h.html" target="_top" xlink:title=" ">
<polygon fill="white" stroke="black" points="137.5,-168.5 137.5,-187.5 184.5,-187.5 184.5,-168.5 137.5,-168.5"/>
<text text-anchor="middle" x="161" y="-175.5" font-family="Helvetica,sans-Serif" font-size="10.00">dma.h</text>
</a>
</g>
</g>
<!-- Node10&#45;&gt;Node11 -->
<g id="edge10" class="edge">
<title>Node10&#45;&gt;Node11</title>
<path fill="none" stroke="midnightblue" d="M161,-213.8C161,-204.91 161,-194.78 161,-187.75"/>
<polygon fill="midnightblue" stroke="midnightblue" points="157.5,-214.08 161,-224.08 164.5,-214.08 157.5,-214.08"/>
</g>
<!-- Node13 -->
<g id="node13" class="node">
<title>Node13</title>
<g id="a_node13"><a xlink:href="pool__types_8h.html" target="_top" xlink:title=" ">
<polygon fill="white" stroke="black" points="425.5,-280.5 425.5,-299.5 504.5,-299.5 504.5,-280.5 425.5,-280.5"/>
<text text-anchor="middle" x="465" y="-287.5" font-family="Helvetica,sans-Serif" font-size="10.00">pool_types.h</text>
</a>
</g>
</g>
<!-- Node12&#45;&gt;Node13 -->
<g id="edge12" class="edge">
<title>Node12&#45;&gt;Node13</title>
<path fill="none" stroke="midnightblue" d="M441.98,-327.57C447.83,-318.27 454.77,-307.25 459.49,-299.75"/>
<polygon fill="midnightblue" stroke="midnightblue" points="438.98,-325.76 436.61,-336.08 444.9,-329.49 438.98,-325.76"/>
</g>
<!-- Node13&#45;&gt;Node3 -->
<g id="edge13" class="edge">
<title>Node13&#45;&gt;Node3</title>
<path fill="none" stroke="midnightblue" d="M415.2,-284.22C349.17,-277.46 229.19,-263.69 128,-244 125.29,-243.47 122.48,-242.86 119.68,-242.21"/>
<polygon fill="midnightblue" stroke="midnightblue" points="415.02,-287.72 425.32,-285.25 415.72,-280.76 415.02,-287.72"/>
</g>
<!-- Node13&#45;&gt;Node5 -->
<g id="edge40" class="edge">
<title>Node13&#45;&gt;Node5</title>
<path fill="none" stroke="midnightblue" d="M415.29,-287.56C370.43,-284.22 304.14,-274.05 255,-244 217.81,-221.26 228.64,-193.1 193,-168 167.28,-149.89 133.53,-138.38 107.28,-131.55"/>
<polygon fill="midnightblue" stroke="midnightblue" points="415.16,-291.06 425.37,-288.22 415.62,-284.07 415.16,-291.06"/>
</g>
<!-- Node13&#45;&gt;Node10 -->
<g id="edge24" class="edge">
<title>Node13&#45;&gt;Node10</title>
<path fill="none" stroke="midnightblue" d="M415.27,-281.58C361.7,-273.35 274.03,-259.22 199,-244 194.35,-243.06 189.4,-241.96 184.66,-240.86"/>
<polygon fill="midnightblue" stroke="midnightblue" points="414.78,-285.04 425.19,-283.09 415.84,-278.12 414.78,-285.04"/>
</g>
<!-- Node14 -->
<g id="node14" class="node">
<title>Node14</title>
<g id="a_node14"><a xlink:href="spec_2classification_8h.html" target="_top" xlink:title=" ">
<polygon fill="white" stroke="black" points="381.5,-112.5 381.5,-131.5 470.5,-131.5 470.5,-112.5 381.5,-112.5"/>
<text text-anchor="middle" x="426" y="-119.5" font-family="Helvetica,sans-Serif" font-size="10.00">classification.h</text>
</a>
</g>
</g>
<!-- Node13&#45;&gt;Node14 -->
<g id="edge14" class="edge">
<title>Node13&#45;&gt;Node14</title>
<path fill="none" stroke="midnightblue" d="M415.36,-284.49C363.69,-278.64 287.84,-266.43 270,-244 248.97,-217.57 249.69,-194.99 270,-168 283.43,-150.15 340.03,-137.15 381.2,-129.84"/>
<polygon fill="midnightblue" stroke="midnightblue" points="415.03,-287.97 425.35,-285.57 415.79,-281.01 415.03,-287.97"/>
</g>
<!-- Node23 -->
<g id="node18" class="node">
<title>Node23</title>
<g id="a_node18"><a xlink:href="spec_2crypto__types_8h.html" target="_top" xlink:title=" ">
<polygon fill="white" stroke="black" points="569.5,-224.5 569.5,-243.5 658.5,-243.5 658.5,-224.5 569.5,-224.5"/>
<text text-anchor="middle" x="614" y="-231.5" font-family="Helvetica,sans-Serif" font-size="10.00">crypto_types.h</text>
</a>
</g>
</g>
<!-- Node13&#45;&gt;Node23 -->
<g id="edge18" class="edge">
<title>Node13&#45;&gt;Node23</title>
<path fill="none" stroke="midnightblue" d="M498.37,-276.91C526.38,-266.75 565.7,-252.51 590.5,-243.52"/>
<polygon fill="midnightblue" stroke="midnightblue" points="496.82,-273.75 488.61,-280.44 499.2,-280.33 496.82,-273.75"/>
</g>
<!-- Node13&#45;&gt;Node28 -->
<g id="edge25" class="edge">
<title>Node13&#45;&gt;Node28</title>
<path fill="none" stroke="midnightblue" d="M514.9,-286.19C557.72,-281.9 619.8,-271.12 667,-244 718.13,-214.62 759.49,-154.17 773.7,-131.68"/>
<polygon fill="midnightblue" stroke="midnightblue" points="514.36,-282.72 504.72,-287.12 515,-289.69 514.36,-282.72"/>
</g>
<!-- Node30 -->
<g id="node26" class="node">
<title>Node30</title>
<g id="a_node26"><a xlink:href="spec_2packet__io__types_8h.html" target="_top" xlink:title=" ">
<polygon fill="white" stroke="black" points="447,-224.5 447,-243.5 551,-243.5 551,-224.5 447,-224.5"/>
<text text-anchor="middle" x="499" y="-231.5" font-family="Helvetica,sans-Serif" font-size="10.00">packet_io_types.h</text>
</a>
</g>
</g>
<!-- Node13&#45;&gt;Node30 -->
<g id="edge29" class="edge">
<title>Node13&#45;&gt;Node30</title>
<path fill="none" stroke="midnightblue" d="M475.98,-271.57C481.83,-262.27 488.77,-251.25 493.49,-243.75"/>
<polygon fill="midnightblue" stroke="midnightblue" points="472.98,-269.76 470.61,-280.08 478.9,-273.49 472.98,-269.76"/>
</g>
<!-- Node34 -->
<g id="node28" class="node">
<title>Node34</title>
<g id="a_node28"><a xlink:href="spec_2pool_8h.html" target="_top" xlink:title=" ">
<polygon fill="white" stroke="black" points="279.5,-224.5 279.5,-243.5 326.5,-243.5 326.5,-224.5 279.5,-224.5"/>
<text text-anchor="middle" x="303" y="-231.5" font-family="Helvetica,sans-Serif" font-size="10.00">pool.h</text>
</a>
</g>
</g>
<!-- Node13&#45;&gt;Node34 -->
<g id="edge35" class="edge">
<title>Node13&#45;&gt;Node34</title>
<path fill="none" stroke="midnightblue" d="M429.71,-277.24C398.5,-266.83 353.82,-251.94 326.7,-242.9"/>
<polygon fill="midnightblue" stroke="midnightblue" points="428.74,-280.6 439.33,-280.44 430.95,-273.96 428.74,-280.6"/>
</g>
<!-- Node13&#45;&gt;Node36 -->
<g id="edge37" class="edge">
<title>Node13&#45;&gt;Node36</title>
<path fill="none" stroke="midnightblue" d="M514.76,-285.65C667.58,-275.34 1126.61,-244.4 1240.31,-236.73"/>
<polygon fill="midnightblue" stroke="midnightblue" points="514.46,-282.16 504.72,-286.32 514.93,-289.14 514.46,-282.16"/>
</g>
<!-- Node38 -->
<g id="node32" class="node">
<title>Node38</title>
<g id="a_node32"><a xlink:href="buffer__inlines_8h_source.html" target="_top" xlink:title=" ">
<polygon fill="white" stroke="black" points="978,-224.5 978,-243.5 1070,-243.5 1070,-224.5 978,-224.5"/>
<text text-anchor="middle" x="1024" y="-231.5" font-family="Helvetica,sans-Serif" font-size="10.00">buffer_inlines.h</text>
</a>
</g>
</g>
<!-- Node13&#45;&gt;Node38 -->
<g id="edge39" class="edge">
<title>Node13&#45;&gt;Node38</title>
<path fill="none" stroke="midnightblue" d="M514.79,-285.71C605.24,-279.47 802.51,-264.67 968,-244 971.22,-243.6 974.55,-243.15 977.89,-242.67"/>
<polygon fill="midnightblue" stroke="midnightblue" points="514.29,-282.23 504.55,-286.41 514.77,-289.22 514.29,-282.23"/>
</g>
<!-- Node39 -->
<g id="node33" class="node">
<title>Node39</title>
<g id="a_node33"><a xlink:href="packet__inlines_8h.html" target="_top" xlink:title=" ">
<polygon fill="white" stroke="black" points="715.5,-224.5 715.5,-243.5 810.5,-243.5 810.5,-224.5 715.5,-224.5"/>
<text text-anchor="middle" x="763" y="-231.5" font-family="Helvetica,sans-Serif" font-size="10.00">packet_inlines.h</text>
</a>
</g>
</g>
<!-- Node13&#45;&gt;Node39 -->
<g id="edge41" class="edge">
<title>Node13&#45;&gt;Node39</title>
<path fill="none" stroke="midnightblue" d="M514.61,-280.01C570.58,-269.87 660.96,-253.49 715.89,-243.54"/>
<polygon fill="midnightblue" stroke="midnightblue" points="513.79,-276.6 504.57,-281.83 515.04,-283.49 513.79,-276.6"/>
</g>
<!-- Node40 -->
<g id="node34" class="node">
<title>Node40</title>
<g id="a_node34"><a xlink:href="packet__vector__inlines_8h.html" target="_top" xlink:title=" ">
<polygon fill="white" stroke="black" points="828.5,-224.5 828.5,-243.5 959.5,-243.5 959.5,-224.5 828.5,-224.5"/>
<text text-anchor="middle" x="894" y="-231.5" font-family="Helvetica,sans-Serif" font-size="10.00">packet_vector_inlines.h</text>
</a>
</g>
</g>
<!-- Node13&#45;&gt;Node40 -->
<g id="edge42" class="edge">
<title>Node13&#45;&gt;Node40</title>
<path fill="none" stroke="midnightblue" d="M514.57,-282.76C592.01,-273.01 741.73,-254.17 828.14,-243.29"/>
<polygon fill="midnightblue" stroke="midnightblue" points="514.07,-279.3 504.59,-284.02 514.95,-286.24 514.07,-279.3"/>
</g>
<!-- Node41 -->
<g id="node35" class="node">
<title>Node41</title>
<g id="a_node35"><a xlink:href="pool__inlines_8h_source.html" target="_top" xlink:title=" ">
<polygon fill="white" stroke="black" points="345,-224.5 345,-243.5 429,-243.5 429,-224.5 345,-224.5"/>
<text text-anchor="middle" x="387" y="-231.5" font-family="Helvetica,sans-Serif" font-size="10.00">pool_inlines.h</text>
</a>
</g>
</g>
<!-- Node13&#45;&gt;Node41 -->
<g id="edge43" class="edge">
<title>Node13&#45;&gt;Node41</title>
<path fill="none" stroke="midnightblue" d="M444.23,-274.62C429.98,-264.76 411.54,-251.99 399.5,-243.65"/>
<polygon fill="midnightblue" stroke="midnightblue" points="442.25,-277.51 452.47,-280.32 446.24,-271.75 442.25,-277.51"/>
</g>
<!-- Node15 -->
<g id="node15" class="node">
<title>Node15</title>
<g id="a_node15"><a xlink:href="classification_8h.html" target="_top" xlink:title=" ">
<polygon fill="white" stroke="black" points="381.5,-56.5 381.5,-75.5 470.5,-75.5 470.5,-56.5 381.5,-56.5"/>
<text text-anchor="middle" x="426" y="-63.5" font-family="Helvetica,sans-Serif" font-size="10.00">classification.h</text>
</a>
</g>
</g>
<!-- Node14&#45;&gt;Node15 -->
<g id="edge15" class="edge">
<title>Node14&#45;&gt;Node15</title>
<path fill="none" stroke="midnightblue" d="M426,-101.8C426,-92.91 426,-82.78 426,-75.75"/>
<polygon fill="midnightblue" stroke="midnightblue" points="422.5,-102.08 426,-112.08 429.5,-102.08 422.5,-102.08"/>
</g>
<!-- Node16 -->
<g id="node16" class="node">
<title>Node16</title>
<g id="a_node16"><a xlink:href="spec_2ipsec__types_8h.html" target="_top" xlink:title=" ">
<polygon fill="white" stroke="red" points="437.5,-0.5 437.5,-19.5 520.5,-19.5 520.5,-0.5 437.5,-0.5"/>
<text text-anchor="middle" x="479" y="-7.5" font-family="Helvetica,sans-Serif" font-size="10.00">ipsec_types.h</text>
</a>
</g>
</g>
<!-- Node15&#45;&gt;Node16 -->
<g id="edge16" class="edge">
<title>Node15&#45;&gt;Node16</title>
<path fill="none" stroke="midnightblue" d="M441.98,-48.72C451.32,-39.2 462.75,-27.56 470.41,-19.75"/>
<polygon fill="midnightblue" stroke="midnightblue" points="439.26,-46.49 434.75,-56.08 444.25,-51.4 439.26,-46.49"/>
</g>
<!-- Node21 -->
<g id="node17" class="node">
<title>Node21</title>
<g id="a_node17"><a xlink:href="spec_2packet__io_8h.html" target="_top" xlink:title=" ">
<polygon fill="white" stroke="red" points="539,-0.5 539,-19.5 611,-19.5 611,-0.5 539,-0.5"/>
<text text-anchor="middle" x="575" y="-7.5" font-family="Helvetica,sans-Serif" font-size="10.00">packet_io.h</text>
</a>
</g>
</g>
<!-- Node15&#45;&gt;Node21 -->
<g id="edge17" class="edge">
<title>Node15&#45;&gt;Node21</title>
<path fill="none" stroke="midnightblue" d="M459.37,-52.91C487.38,-42.75 526.7,-28.51 551.5,-19.52"/>
<polygon fill="midnightblue" stroke="midnightblue" points="457.82,-49.75 449.61,-56.44 460.2,-56.33 457.82,-49.75"/>
</g>
<!-- Node24 -->
<g id="node19" class="node">
<title>Node24</title>
<g id="a_node19"><a xlink:href="crypto__types_8h.html" target="_top" xlink:title=" ">
<polygon fill="white" stroke="red" points="569.5,-168.5 569.5,-187.5 658.5,-187.5 658.5,-168.5 569.5,-168.5"/>
<text text-anchor="middle" x="614" y="-175.5" font-family="Helvetica,sans-Serif" font-size="10.00">crypto_types.h</text>
</a>
</g>
</g>
<!-- Node23&#45;&gt;Node24 -->
<g id="edge19" class="edge">
<title>Node23&#45;&gt;Node24</title>
<path fill="none" stroke="midnightblue" d="M614,-213.8C614,-204.91 614,-194.78 614,-187.75"/>
<polygon fill="midnightblue" stroke="midnightblue" points="610.5,-214.08 614,-224.08 617.5,-214.08 610.5,-214.08"/>
</g>
<!-- Node24&#45;&gt;Node16 -->
<g id="edge22" class="edge">
<title>Node24&#45;&gt;Node16</title>
<path fill="none" stroke="midnightblue" d="M600.35,-160.21C571.93,-125.26 507.29,-45.79 485.97,-19.57"/>
<polygon fill="midnightblue" stroke="midnightblue" points="597.72,-162.53 606.74,-168.08 603.15,-158.11 597.72,-162.53"/>
</g>
<!-- Node24&#45;&gt;Node18 -->
<g id="edge20" class="edge">
<title>Node24&#45;&gt;Node18</title>
<path fill="none" stroke="midnightblue" d="M669,-171.13C777.6,-159.54 1015.84,-134.12 1094.35,-125.74"/>
<polygon fill="midnightblue" stroke="midnightblue" points="668.48,-167.67 658.9,-172.21 669.22,-174.63 668.48,-167.67"/>
</g>
<!-- Node27 -->
<g id="node22" class="node">
<title>Node27</title>
<g id="a_node22"><a xlink:href="crypto__inlines_8h_source.html" target="_top" xlink:title=" ">
<polygon fill="white" stroke="black" points="736,-0.5 736,-19.5 830,-19.5 830,-0.5 736,-0.5"/>
<text text-anchor="middle" x="783" y="-7.5" font-family="Helvetica,sans-Serif" font-size="10.00">crypto_inlines.h</text>
</a>
</g>
</g>
<!-- Node24&#45;&gt;Node27 -->
<g id="edge23" class="edge">
<title>Node24&#45;&gt;Node27</title>
<path fill="none" stroke="midnightblue" d="M630.64,-160.65C665.98,-125.94 747.47,-45.9 774.28,-19.57"/>
<polygon fill="midnightblue" stroke="midnightblue" points="627.77,-158.57 623.09,-168.08 632.67,-163.56 627.77,-158.57"/>
</g>
<!-- Node19 -->
<g id="node21" class="node">
<title>Node19</title>
<g id="a_node21"><a xlink:href="ipsec_8h.html" target="_top" xlink:title=" ">
<polygon fill="white" stroke="black" points="1094.5,-56.5 1094.5,-75.5 1145.5,-75.5 1145.5,-56.5 1094.5,-56.5"/>
<text text-anchor="middle" x="1120" y="-63.5" font-family="Helvetica,sans-Serif" font-size="10.00">ipsec.h</text>
</a>
</g>
</g>
<!-- Node18&#45;&gt;Node19 -->
<g id="edge21" class="edge">
<title>Node18&#45;&gt;Node19</title>
<path fill="none" stroke="midnightblue" d="M1120,-101.8C1120,-92.91 1120,-82.78 1120,-75.75"/>
<polygon fill="midnightblue" stroke="midnightblue" points="1116.5,-102.08 1120,-112.08 1123.5,-102.08 1116.5,-102.08"/>
</g>
<!-- Node29 -->
<g id="node24" class="node">
<title>Node29</title>
<g id="a_node24"><a xlink:href="packet_8h.html" target="_top" xlink:title=" ">
<polygon fill="white" stroke="black" points="754,-56.5 754,-75.5 812,-75.5 812,-56.5 754,-56.5"/>
<text text-anchor="middle" x="783" y="-63.5" font-family="Helvetica,sans-Serif" font-size="10.00">packet.h</text>
</a>
</g>
</g>
<!-- Node28&#45;&gt;Node29 -->
<g id="edge26" class="edge">
<title>Node28&#45;&gt;Node29</title>
<path fill="none" stroke="midnightblue" d="M780.4,-102.1C781.06,-93.14 781.83,-82.86 782.35,-75.75"/>
<polygon fill="midnightblue" stroke="midnightblue" points="776.91,-101.85 779.66,-112.08 783.89,-102.37 776.91,-101.85"/>
</g>
<!-- Node29&#45;&gt;Node27 -->
<g id="edge27" class="edge">
<title>Node29&#45;&gt;Node27</title>
<path fill="none" stroke="midnightblue" d="M783,-45.8C783,-36.91 783,-26.78 783,-19.75"/>
<polygon fill="midnightblue" stroke="midnightblue" points="779.5,-46.08 783,-56.08 786.5,-46.08 779.5,-46.08"/>
</g>
<!-- Node20 -->
<g id="node25" class="node">
<title>Node20</title>
<g id="a_node25"><a xlink:href="ipsec__inlines_8h_source.html" target="_top" xlink:title=" ">
<polygon fill="white" stroke="black" points="1036.5,-0.5 1036.5,-19.5 1125.5,-19.5 1125.5,-0.5 1036.5,-0.5"/>
<text text-anchor="middle" x="1081" y="-7.5" font-family="Helvetica,sans-Serif" font-size="10.00">ipsec_inlines.h</text>
</a>
</g>
</g>
<!-- Node29&#45;&gt;Node20 -->
<g id="edge28" class="edge">
<title>Node29&#45;&gt;Node20</title>
<path fill="none" stroke="midnightblue" d="M822.23,-57.89C877.56,-47.87 978.24,-29.62 1036.37,-19.09"/>
<polygon fill="midnightblue" stroke="midnightblue" points="821.33,-54.5 812.12,-59.72 822.58,-61.38 821.33,-54.5"/>
</g>
<!-- Node31 -->
<g id="node27" class="node">
<title>Node31</title>
<g id="a_node27"><a xlink:href="packet__io__types_8h.html" target="_top" xlink:title=" ">
<polygon fill="white" stroke="red" points="447,-168.5 447,-187.5 551,-187.5 551,-168.5 447,-168.5"/>
<text text-anchor="middle" x="499" y="-175.5" font-family="Helvetica,sans-Serif" font-size="10.00">packet_io_types.h</text>
</a>
</g>
</g>
<!-- Node30&#45;&gt;Node31 -->
<g id="edge30" class="edge">
<title>Node30&#45;&gt;Node31</title>
<path fill="none" stroke="midnightblue" d="M499,-213.8C499,-204.91 499,-194.78 499,-187.75"/>
<polygon fill="midnightblue" stroke="midnightblue" points="495.5,-214.08 499,-224.08 502.5,-214.08 495.5,-214.08"/>
</g>
<!-- Node31&#45;&gt;Node14 -->
<g id="edge31" class="edge">
<title>Node31&#45;&gt;Node14</title>
<path fill="none" stroke="midnightblue" d="M478.86,-162.1C465.72,-152.38 449.02,-140.03 437.94,-131.83"/>
<polygon fill="midnightblue" stroke="midnightblue" points="477.15,-165.19 487.27,-168.32 481.31,-159.56 477.15,-165.19"/>
</g>
<!-- Node31&#45;&gt;Node16 -->
<g id="edge32" class="edge">
<title>Node31&#45;&gt;Node16</title>
<path fill="none" stroke="midnightblue" d="M496.7,-157.93C492.36,-121.92 483.12,-45.23 480.03,-19.57"/>
<polygon fill="midnightblue" stroke="midnightblue" points="493.25,-158.57 497.92,-168.08 500.2,-157.73 493.25,-158.57"/>
</g>
<!-- Node31&#45;&gt;Node21 -->
<g id="edge34" class="edge">
<title>Node31&#45;&gt;Node21</title>
<path fill="none" stroke="midnightblue" d="M507.31,-158.86C523.61,-123.25 559.23,-45.45 571.08,-19.57"/>
<polygon fill="midnightblue" stroke="midnightblue" points="504.07,-157.53 503.09,-168.08 510.43,-160.44 504.07,-157.53"/>
</g>
<!-- Node31&#45;&gt;Node28 -->
<g id="edge33" class="edge">
<title>Node31&#45;&gt;Node28</title>
<path fill="none" stroke="midnightblue" d="M553.21,-166.54C611.93,-155.22 703.4,-137.58 749.84,-128.62"/>
<polygon fill="midnightblue" stroke="midnightblue" points="552.52,-163.11 543.37,-168.44 553.85,-169.99 552.52,-163.11"/>
</g>
<!-- Node35 -->
<g id="node29" class="node">
<title>Node35</title>
<g id="a_node29"><a xlink:href="pool_8h.html" target="_top" xlink:title=" ">
<polygon fill="white" stroke="black" points="279.5,-168.5 279.5,-187.5 326.5,-187.5 326.5,-168.5 279.5,-168.5"/>
<text text-anchor="middle" x="303" y="-175.5" font-family="Helvetica,sans-Serif" font-size="10.00">pool.h</text>
</a>
</g>
</g>
<!-- Node34&#45;&gt;Node35 -->
<g id="edge36" class="edge">
<title>Node34&#45;&gt;Node35</title>
<path fill="none" stroke="midnightblue" d="M303,-213.8C303,-204.91 303,-194.78 303,-187.75"/>
<polygon fill="midnightblue" stroke="midnightblue" points="299.5,-214.08 303,-224.08 306.5,-214.08 299.5,-214.08"/>
</g>
<!-- Node37 -->
<g id="node31" class="node">
<title>Node37</title>
<g id="a_node31"><a xlink:href="timer_8h.html" target="_top" xlink:title=" ">
<polygon fill="white" stroke="black" points="1240.5,-168.5 1240.5,-187.5 1291.5,-187.5 1291.5,-168.5 1240.5,-168.5"/>
<text text-anchor="middle" x="1266" y="-175.5" font-family="Helvetica,sans-Serif" font-size="10.00">timer.h</text>
</a>
</g>
</g>
<!-- Node36&#45;&gt;Node37 -->
<g id="edge38" class="edge">
<title>Node36&#45;&gt;Node37</title>
<path fill="none" stroke="midnightblue" d="M1266,-213.8C1266,-204.91 1266,-194.78 1266,-187.75"/>
<polygon fill="midnightblue" stroke="midnightblue" points="1262.5,-214.08 1266,-224.08 1269.5,-214.08 1262.5,-214.08"/>
</g>
<!-- Node43 -->
<g id="node37" class="node">
<title>Node43</title>
<g id="a_node37"><a xlink:href="event_8h.html" target="_top" xlink:title=" ">
<polygon fill="white" stroke="black" points="1071.5,-280.5 1071.5,-299.5 1124.5,-299.5 1124.5,-280.5 1071.5,-280.5"/>
<text text-anchor="middle" x="1098" y="-287.5" font-family="Helvetica,sans-Serif" font-size="10.00">event.h</text>
</a>
</g>
</g>
<!-- Node42&#45;&gt;Node43 -->
<g id="edge46" class="edge">
<title>Node42&#45;&gt;Node43</title>
<path fill="none" stroke="midnightblue" d="M1104.5,-326.1C1102.84,-317.14 1100.94,-306.86 1099.62,-299.75"/>
<polygon fill="midnightblue" stroke="midnightblue" points="1101.09,-326.89 1106.35,-336.08 1107.97,-325.61 1101.09,-326.89"/>
</g>
<!-- Node43&#45;&gt;Node27 -->
<g id="edge48" class="edge">
<title>Node43&#45;&gt;Node27</title>
<path fill="none" stroke="midnightblue" d="M1095.8,-269.97C1093.45,-256.19 1088.65,-237.65 1079,-224 1003.31,-117.01 856.49,-43.78 803.06,-19.66"/>
<polygon fill="midnightblue" stroke="midnightblue" points="1092.38,-270.82 1097.25,-280.23 1099.31,-269.83 1092.38,-270.82"/>
</g>
<!-- Node43&#45;&gt;Node20 -->
<g id="edge49" class="edge">
<title>Node43&#45;&gt;Node20</title>
<path fill="none" stroke="midnightblue" d="M1109.96,-271.96C1136.52,-231.84 1194.93,-129.31 1154,-56 1144.06,-38.19 1123.85,-26.56 1107.21,-19.59"/>
<polygon fill="midnightblue" stroke="midnightblue" points="1106.98,-270.12 1104.26,-280.36 1112.77,-274.05 1106.98,-270.12"/>
</g>
<!-- Node43&#45;&gt;Node38 -->
<g id="edge47" class="edge">
<title>Node43&#45;&gt;Node38</title>
<path fill="none" stroke="midnightblue" d="M1077.97,-274.38C1064.59,-264.62 1047.44,-252.11 1036.11,-243.83"/>
<polygon fill="midnightblue" stroke="midnightblue" points="1075.97,-277.26 1086.11,-280.32 1080.1,-271.6 1075.97,-277.26"/>
</g>
<!-- Node43&#45;&gt;Node39 -->
<g id="edge50" class="edge">
<title>Node43&#45;&gt;Node39</title>
<path fill="none" stroke="midnightblue" d="M1061.5,-283.12C1000.62,-273.3 878.34,-253.59 810.71,-242.69"/>
<polygon fill="midnightblue" stroke="midnightblue" points="1061,-286.58 1071.43,-284.72 1062.12,-279.67 1061,-286.58"/>
</g>
<!-- Node43&#45;&gt;Node40 -->
<g id="edge51" class="edge">
<title>Node43&#45;&gt;Node40</title>
<path fill="none" stroke="midnightblue" d="M1061.58,-279.36C1023.17,-269.19 963.22,-253.32 926.4,-243.58"/>
<polygon fill="midnightblue" stroke="midnightblue" points="1060.77,-282.76 1071.33,-281.94 1062.56,-276 1060.77,-282.76"/>
</g>
<!-- Node44 -->
<g id="node38" class="node">
<title>Node44</title>
<g id="a_node38"><a xlink:href="timer__inlines_8h_source.html" target="_top" xlink:title=" ">
<polygon fill="white" stroke="black" points="1309.5,-224.5 1309.5,-243.5 1398.5,-243.5 1398.5,-224.5 1309.5,-224.5"/>
<text text-anchor="middle" x="1354" y="-231.5" font-family="Helvetica,sans-Serif" font-size="10.00">timer_inlines.h</text>
</a>
</g>
</g>
<!-- Node43&#45;&gt;Node44 -->
<g id="edge52" class="edge">
<title>Node43&#45;&gt;Node44</title>
<path fill="none" stroke="midnightblue" d="M1134.77,-281.24C1182.23,-271.23 1264.52,-253.87 1313.66,-243.51"/>
<polygon fill="midnightblue" stroke="midnightblue" points="1133.97,-277.83 1124.91,-283.32 1135.42,-284.68 1133.97,-277.83"/>
</g>
<!-- Node46 -->
<g id="node40" class="node">
<title>Node46</title>
<g id="a_node40"><a xlink:href="queue_8h.html" target="_top" xlink:title=" ">
<polygon fill="white" stroke="black" points="1426,-392.5 1426,-411.5 1482,-411.5 1482,-392.5 1426,-392.5"/>
<text text-anchor="middle" x="1454" y="-399.5" font-family="Helvetica,sans-Serif" font-size="10.00">queue.h</text>
</a>
</g>
</g>
<!-- Node45&#45;&gt;Node46 -->
<g id="edge56" class="edge">
<title>Node45&#45;&gt;Node46</title>
<path fill="none" stroke="midnightblue" d="M1454,-437.8C1454,-428.91 1454,-418.78 1454,-411.75"/>
<polygon fill="midnightblue" stroke="midnightblue" points="1450.5,-438.08 1454,-448.08 1457.5,-438.08 1450.5,-438.08"/>
</g>
<!-- Node48 -->
<g id="node42" class="node">
<title>Node48</title>
<g id="a_node42"><a xlink:href="schedule_8h.html" target="_top" xlink:title=" ">
<polygon fill="white" stroke="black" points="1500.5,-392.5 1500.5,-411.5 1569.5,-411.5 1569.5,-392.5 1500.5,-392.5"/>
<text text-anchor="middle" x="1535" y="-399.5" font-family="Helvetica,sans-Serif" font-size="10.00">schedule.h</text>
</a>
</g>
</g>
<!-- Node47&#45;&gt;Node48 -->
<g id="edge58" class="edge">
<title>Node47&#45;&gt;Node48</title>
<path fill="none" stroke="midnightblue" d="M1535,-437.8C1535,-428.91 1535,-418.78 1535,-411.75"/>
<polygon fill="midnightblue" stroke="midnightblue" points="1531.5,-438.08 1535,-448.08 1538.5,-438.08 1531.5,-438.08"/>
</g>
<!-- Node50 -->
<g id="node44" class="node">
<title>Node50</title>
<g id="a_node44"><a xlink:href="timer__types_8h.html" target="_top" xlink:title=" ">
<polygon fill="white" stroke="black" points="1278,-280.5 1278,-299.5 1362,-299.5 1362,-280.5 1278,-280.5"/>
<text text-anchor="middle" x="1320" y="-287.5" font-family="Helvetica,sans-Serif" font-size="10.00">timer_types.h</text>
</a>
</g>
</g>
<!-- Node49&#45;&gt;Node50 -->
<g id="edge61" class="edge">
<title>Node49&#45;&gt;Node50</title>
<path fill="none" stroke="midnightblue" d="M1320,-325.8C1320,-316.91 1320,-306.78 1320,-299.75"/>
<polygon fill="midnightblue" stroke="midnightblue" points="1316.5,-326.08 1320,-336.08 1323.5,-326.08 1316.5,-326.08"/>
</g>
<!-- Node50&#45;&gt;Node36 -->
<g id="edge62" class="edge">
<title>Node50&#45;&gt;Node36</title>
<path fill="none" stroke="midnightblue" d="M1304,-273C1294.43,-263.43 1282.64,-251.64 1274.75,-243.75"/>
<polygon fill="midnightblue" stroke="midnightblue" points="1301.54,-275.49 1311.08,-280.08 1306.49,-270.54 1301.54,-275.49"/>
</g>
<!-- Node50&#45;&gt;Node44 -->
<g id="edge64" class="edge">
<title>Node50&#45;&gt;Node44</title>
<path fill="none" stroke="midnightblue" d="M1330.98,-271.57C1336.83,-262.27 1343.77,-251.25 1348.49,-243.75"/>
<polygon fill="midnightblue" stroke="midnightblue" points="1327.98,-269.76 1325.61,-280.08 1333.9,-273.49 1327.98,-269.76"/>
</g>
<!-- Node50&#45;&gt;Node51 -->
<g id="edge63" class="edge">
<title>Node50&#45;&gt;Node51</title>
<path fill="none" stroke="midnightblue" d="M1352.16,-276.77C1378.83,-266.63 1416.07,-252.47 1439.6,-243.52"/>
<polygon fill="midnightblue" stroke="midnightblue" points="1350.6,-273.62 1342.5,-280.44 1353.09,-280.16 1350.6,-273.62"/>
</g>
<!-- Node53 -->
<g id="node47" class="node">
<title>Node53</title>
<g id="a_node47"><a xlink:href="queue__inlines_8h_source.html" target="_top" xlink:title=" ">
<polygon fill="white" stroke="black" points="1694.5,-392.5 1694.5,-411.5 1787.5,-411.5 1787.5,-392.5 1694.5,-392.5"/>
<text text-anchor="middle" x="1741" y="-399.5" font-family="Helvetica,sans-Serif" font-size="10.00">queue_inlines.h</text>
</a>
</g>
</g>
<!-- Node52&#45;&gt;Node53 -->
<g id="edge68" class="edge">
<title>Node52&#45;&gt;Node53</title>
<path fill="none" stroke="midnightblue" d="M1684.9,-442.34C1698.91,-432.52 1716.88,-419.91 1728.66,-411.65"/>
<polygon fill="midnightblue" stroke="midnightblue" points="1682.55,-439.72 1676.37,-448.32 1686.57,-445.45 1682.55,-439.72"/>
</g>
<!-- Node54&#45;&gt;Node53 -->
<g id="edge70" class="edge">
<title>Node54&#45;&gt;Node53</title>
<path fill="none" stroke="midnightblue" d="M1798.23,-442.62C1783.98,-432.76 1765.54,-419.99 1753.5,-411.65"/>
<polygon fill="midnightblue" stroke="midnightblue" points="1796.25,-445.51 1806.47,-448.32 1800.24,-439.75 1796.25,-445.51"/>
</g>
<!-- Node55&#45;&gt;Node56 -->
<g id="edge72" class="edge">
<title>Node55&#45;&gt;Node56</title>
<path fill="none" stroke="midnightblue" d="M1987.27,-440.43C1978.86,-430.97 1968.65,-419.48 1961.78,-411.75"/>
<polygon fill="midnightblue" stroke="midnightblue" points="1984.81,-442.93 1994.07,-448.08 1990.05,-438.28 1984.81,-442.93"/>
</g>
</g>
</svg>
