<?xml version="1.0" encoding="UTF-8" standalone="no"?>
<!DOCTYPE svg PUBLIC "-//W3C//DTD SVG 1.1//EN"
 "http://www.w3.org/Graphics/SVG/1.1/DTD/svg11.dtd">
<!-- Generated by graphviz version 2.43.0 (0)
 -->
<!-- Title: init.h Pages: 1 -->
<svg width="1207pt" height="263pt"
 viewBox="0.00 0.00 1206.50 263.00" xmlns="http://www.w3.org/2000/svg" xmlns:xlink="http://www.w3.org/1999/xlink">
<g id="graph0" class="graph" transform="scale(1 1) rotate(0) translate(4 259)">
<title>init.h</title>
<polygon fill="white" stroke="transparent" points="-4,4 -4,-259 1202.5,-259 1202.5,4 -4,4"/>
<!-- Node1 -->
<g id="node1" class="node">
<title>Node1</title>
<g id="a_node1"><a xlink:title=" ">
<polygon fill="#bfbfbf" stroke="black" points="517.5,-235.5 517.5,-254.5 558.5,-254.5 558.5,-235.5 517.5,-235.5"/>
<text text-anchor="middle" x="538" y="-242.5" font-family="Helvetica,sans-Serif" font-size="10.00">init.h</text>
</a>
</g>
</g>
<!-- Node2 -->
<g id="node2" class="node">
<title>Node2</title>
<g id="a_node2"><a xlink:href="init_8h.html" target="_top" xlink:title=" ">
<polygon fill="white" stroke="black" points="517.5,-179.5 517.5,-198.5 558.5,-198.5 558.5,-179.5 517.5,-179.5"/>
<text text-anchor="middle" x="538" y="-186.5" font-family="Helvetica,sans-Serif" font-size="10.00">init.h</text>
</a>
</g>
</g>
<!-- Node1&#45;&gt;Node2 -->
<g id="edge1" class="edge">
<title>Node1&#45;&gt;Node2</title>
<path fill="none" stroke="midnightblue" d="M538,-224.8C538,-215.91 538,-205.78 538,-198.75"/>
<polygon fill="midnightblue" stroke="midnightblue" points="534.5,-225.08 538,-235.08 541.5,-225.08 534.5,-225.08"/>
</g>
<!-- Node3 -->
<g id="node3" class="node">
<title>Node3</title>
<g id="a_node3"><a xlink:href="spec_2shared__memory_8h.html" target="_top" xlink:title=" ">
<polygon fill="white" stroke="black" points="362,-123.5 362,-142.5 466,-142.5 466,-123.5 362,-123.5"/>
<text text-anchor="middle" x="414" y="-130.5" font-family="Helvetica,sans-Serif" font-size="10.00">shared_memory.h</text>
</a>
</g>
</g>
<!-- Node2&#45;&gt;Node3 -->
<g id="edge2" class="edge">
<title>Node2&#45;&gt;Node3</title>
<path fill="none" stroke="midnightblue" d="M508.99,-175.37C485.77,-165.26 453.84,-151.35 433.56,-142.52"/>
<polygon fill="midnightblue" stroke="midnightblue" points="507.79,-178.66 518.35,-179.44 510.58,-172.24 507.79,-178.66"/>
</g>
<!-- Node5 -->
<g id="node5" class="node">
<title>Node5</title>
<g id="a_node5"><a xlink:href="debug__inlines_8h.html" target="_top" xlink:title=" ">
<polygon fill="white" stroke="black" points="498.5,-67.5 498.5,-86.5 591.5,-86.5 591.5,-67.5 498.5,-67.5"/>
<text text-anchor="middle" x="545" y="-74.5" font-family="Helvetica,sans-Serif" font-size="10.00">debug_inlines.h</text>
</a>
</g>
</g>
<!-- Node2&#45;&gt;Node5 -->
<g id="edge4" class="edge">
<title>Node2&#45;&gt;Node5</title>
<path fill="none" stroke="midnightblue" d="M524.65,-170.88C516.19,-157.88 507.73,-139.5 513,-123 517.55,-108.75 528.44,-95.16 536.25,-86.71"/>
<polygon fill="midnightblue" stroke="midnightblue" points="521.98,-173.16 530.63,-179.28 527.69,-169.11 521.98,-173.16"/>
</g>
<!-- Node16 -->
<g id="node16" class="node">
<title>Node16</title>
<g id="a_node16"><a xlink:href="thread__inline__types_8h_source.html" target="_top" xlink:title=" ">
<polygon fill="white" stroke="black" points="522,-123.5 522,-142.5 644,-142.5 644,-123.5 522,-123.5"/>
<text text-anchor="middle" x="583" y="-130.5" font-family="Helvetica,sans-Serif" font-size="10.00">thread_inline_types.h</text>
</a>
</g>
</g>
<!-- Node2&#45;&gt;Node16 -->
<g id="edge15" class="edge">
<title>Node2&#45;&gt;Node16</title>
<path fill="none" stroke="midnightblue" d="M552.05,-171.14C559.89,-161.74 569.33,-150.4 575.71,-142.75"/>
<polygon fill="midnightblue" stroke="midnightblue" points="549.14,-169.16 545.43,-179.08 554.52,-173.64 549.14,-169.16"/>
</g>
<!-- Node17 -->
<g id="node17" class="node">
<title>Node17</title>
<g id="a_node17"><a xlink:href="thread__inlines_8h_source.html" target="_top" xlink:title=" ">
<polygon fill="white" stroke="black" points="616.5,-67.5 616.5,-86.5 711.5,-86.5 711.5,-67.5 616.5,-67.5"/>
<text text-anchor="middle" x="664" y="-74.5" font-family="Helvetica,sans-Serif" font-size="10.00">thread_inlines.h</text>
</a>
</g>
</g>
<!-- Node2&#45;&gt;Node17 -->
<g id="edge18" class="edge">
<title>Node2&#45;&gt;Node17</title>
<path fill="none" stroke="midnightblue" d="M568.5,-184.42C594.97,-179.64 632.22,-168.55 653,-143 666.29,-126.66 666.16,-100.23 665.03,-86.66"/>
<polygon fill="midnightblue" stroke="midnightblue" points="567.91,-180.97 558.59,-186.02 569.02,-187.89 567.91,-180.97"/>
</g>
<!-- Node4 -->
<g id="node4" class="node">
<title>Node4</title>
<g id="a_node4"><a xlink:href="shared__memory_8h.html" target="_top" xlink:title=" ">
<polygon fill="white" stroke="black" points="362,-67.5 362,-86.5 466,-86.5 466,-67.5 362,-67.5"/>
<text text-anchor="middle" x="414" y="-74.5" font-family="Helvetica,sans-Serif" font-size="10.00">shared_memory.h</text>
</a>
</g>
</g>
<!-- Node3&#45;&gt;Node4 -->
<g id="edge3" class="edge">
<title>Node3&#45;&gt;Node4</title>
<path fill="none" stroke="midnightblue" d="M414,-112.8C414,-103.91 414,-93.78 414,-86.75"/>
<polygon fill="midnightblue" stroke="midnightblue" points="410.5,-113.08 414,-123.08 417.5,-113.08 410.5,-113.08"/>
</g>
<!-- Node6 -->
<g id="node6" class="node">
<title>Node6</title>
<g id="a_node6"><a xlink:href="buffer__inlines_8h_source.html" target="_top" xlink:title=" ">
<polygon fill="white" stroke="black" points="0,-6 0,-25 92,-25 92,-6 0,-6"/>
<text text-anchor="middle" x="46" y="-13" font-family="Helvetica,sans-Serif" font-size="10.00">buffer_inlines.h</text>
</a>
</g>
</g>
<!-- Node5&#45;&gt;Node6 -->
<g id="edge5" class="edge">
<title>Node5&#45;&gt;Node6</title>
<path fill="none" stroke="midnightblue" d="M488.05,-68.52C483.63,-67.99 479.25,-67.48 475,-67 309.05,-48.35 265.39,-60.38 101,-31 92.45,-29.47 83.27,-27.28 74.92,-25.06"/>
<polygon fill="midnightblue" stroke="midnightblue" points="487.98,-72.04 498.33,-69.79 488.84,-65.09 487.98,-72.04"/>
</g>
<!-- Node7 -->
<g id="node7" class="node">
<title>Node7</title>
<g id="a_node7"><a xlink:href="crypto__inlines_8h_source.html" target="_top" xlink:title=" ">
<polygon fill="white" stroke="black" points="110,-6 110,-25 204,-25 204,-6 110,-6"/>
<text text-anchor="middle" x="157" y="-13" font-family="Helvetica,sans-Serif" font-size="10.00">crypto_inlines.h</text>
</a>
</g>
</g>
<!-- Node5&#45;&gt;Node7 -->
<g id="edge6" class="edge">
<title>Node5&#45;&gt;Node7</title>
<path fill="none" stroke="midnightblue" d="M488.2,-68.68C400.48,-57.31 239.35,-36.18 213,-31 204.62,-29.35 195.64,-27.2 187.37,-25.06"/>
<polygon fill="midnightblue" stroke="midnightblue" points="487.89,-72.16 498.26,-69.98 488.79,-65.22 487.89,-72.16"/>
</g>
<!-- Node8 -->
<g id="node8" class="node">
<title>Node8</title>
<g id="a_node8"><a xlink:href="dma__inlines_8h_source.html" target="_top" xlink:title=" ">
<polygon fill="white" stroke="black" points="222.5,-6 222.5,-25 307.5,-25 307.5,-6 222.5,-6"/>
<text text-anchor="middle" x="265" y="-13" font-family="Helvetica,sans-Serif" font-size="10.00">dma_inlines.h</text>
</a>
</g>
</g>
<!-- Node5&#45;&gt;Node8 -->
<g id="edge7" class="edge">
<title>Node5&#45;&gt;Node8</title>
<path fill="none" stroke="midnightblue" d="M488.37,-66.22C441.86,-57.87 374.36,-45.01 316,-31 308.66,-29.24 300.79,-27.12 293.48,-25.05"/>
<polygon fill="midnightblue" stroke="midnightblue" points="487.8,-69.68 498.26,-67.99 489.03,-62.79 487.8,-69.68"/>
</g>
<!-- Node9 -->
<g id="node9" class="node">
<title>Node9</title>
<g id="a_node9"><a xlink:href="ipsec__inlines_8h_source.html" target="_top" xlink:title=" ">
<polygon fill="white" stroke="black" points="325.5,-6 325.5,-25 414.5,-25 414.5,-6 325.5,-6"/>
<text text-anchor="middle" x="370" y="-13" font-family="Helvetica,sans-Serif" font-size="10.00">ipsec_inlines.h</text>
</a>
</g>
</g>
<!-- Node5&#45;&gt;Node9 -->
<g id="edge8" class="edge">
<title>Node5&#45;&gt;Node9</title>
<path fill="none" stroke="midnightblue" d="M510.39,-64.23C476.37,-52.67 425.28,-35.3 395.03,-25.01"/>
<polygon fill="midnightblue" stroke="midnightblue" points="509.33,-67.57 519.93,-67.48 511.59,-60.94 509.33,-67.57"/>
</g>
<!-- Node10 -->
<g id="node10" class="node">
<title>Node10</title>
<g id="a_node10"><a xlink:href="packet__inlines_8h.html" target="_top" xlink:title=" ">
<polygon fill="white" stroke="black" points="432.5,-6 432.5,-25 527.5,-25 527.5,-6 432.5,-6"/>
<text text-anchor="middle" x="480" y="-13" font-family="Helvetica,sans-Serif" font-size="10.00">packet_inlines.h</text>
</a>
</g>
</g>
<!-- Node5&#45;&gt;Node10 -->
<g id="edge9" class="edge">
<title>Node5&#45;&gt;Node10</title>
<path fill="none" stroke="midnightblue" d="M528.23,-60.65C515.84,-49.31 499.42,-34.28 489.3,-25.01"/>
<polygon fill="midnightblue" stroke="midnightblue" points="525.95,-63.3 535.69,-67.48 530.67,-58.14 525.95,-63.3"/>
</g>
<!-- Node11 -->
<g id="node11" class="node">
<title>Node11</title>
<g id="a_node11"><a xlink:href="packet__vector__inlines_8h.html" target="_top" xlink:title=" ">
<polygon fill="white" stroke="black" points="545.5,-6 545.5,-25 676.5,-25 676.5,-6 545.5,-6"/>
<text text-anchor="middle" x="611" y="-13" font-family="Helvetica,sans-Serif" font-size="10.00">packet_vector_inlines.h</text>
</a>
</g>
</g>
<!-- Node5&#45;&gt;Node11 -->
<g id="edge10" class="edge">
<title>Node5&#45;&gt;Node11</title>
<path fill="none" stroke="midnightblue" d="M562.03,-60.65C574.61,-49.31 591.28,-34.28 601.56,-25.01"/>
<polygon fill="midnightblue" stroke="midnightblue" points="559.54,-58.18 554.46,-67.48 564.23,-63.38 559.54,-58.18"/>
</g>
<!-- Node12 -->
<g id="node12" class="node">
<title>Node12</title>
<g id="a_node12"><a xlink:href="rwlock__recursive__inlines_8h_source.html" target="_top" xlink:title=" ">
<polygon fill="white" stroke="black" points="695,-6 695,-25 841,-25 841,-6 695,-6"/>
<text text-anchor="middle" x="768" y="-13" font-family="Helvetica,sans-Serif" font-size="10.00">rwlock_recursive_inlines.h</text>
</a>
</g>
</g>
<!-- Node5&#45;&gt;Node12 -->
<g id="edge11" class="edge">
<title>Node5&#45;&gt;Node12</title>
<path fill="none" stroke="midnightblue" d="M586.62,-64.9C629.93,-53.34 696.81,-35.5 736.11,-25.01"/>
<polygon fill="midnightblue" stroke="midnightblue" points="585.71,-61.52 576.95,-67.48 587.51,-68.28 585.71,-61.52"/>
</g>
<!-- Node13 -->
<g id="node13" class="node">
<title>Node13</title>
<g id="a_node13"><a xlink:href="schedule__inlines_8h_source.html" target="_top" xlink:title=" ">
<polygon fill="white" stroke="black" points="859.5,-6 859.5,-25 966.5,-25 966.5,-6 859.5,-6"/>
<text text-anchor="middle" x="913" y="-13" font-family="Helvetica,sans-Serif" font-size="10.00">schedule_inlines.h</text>
</a>
</g>
</g>
<!-- Node5&#45;&gt;Node13 -->
<g id="edge12" class="edge">
<title>Node5&#45;&gt;Node13</title>
<path fill="none" stroke="midnightblue" d="M601.73,-67.88C683.2,-56.18 826.17,-35.49 850,-31 859.15,-29.27 868.99,-27.14 878.11,-25.05"/>
<polygon fill="midnightblue" stroke="midnightblue" points="601.03,-64.44 591.63,-69.33 602.03,-71.37 601.03,-64.44"/>
</g>
<!-- Node14 -->
<g id="node14" class="node">
<title>Node14</title>
<g id="a_node14"><a xlink:href="spinlock__recursive__inlines_8h_source.html" target="_top" xlink:title=" ">
<polygon fill="white" stroke="black" points="984.5,-0.5 984.5,-30.5 1091.5,-30.5 1091.5,-0.5 984.5,-0.5"/>
<text text-anchor="start" x="992.5" y="-18.5" font-family="Helvetica,sans-Serif" font-size="10.00">spinlock_recursive</text>
<text text-anchor="middle" x="1038" y="-7.5" font-family="Helvetica,sans-Serif" font-size="10.00">_inlines.h</text>
</a>
</g>
</g>
<!-- Node5&#45;&gt;Node14 -->
<g id="edge13" class="edge">
<title>Node5&#45;&gt;Node14</title>
<path fill="none" stroke="midnightblue" d="M601.74,-67.78C603.85,-67.51 605.94,-67.25 608,-67 771.16,-47.37 813.86,-57.77 976,-31 978.73,-30.55 981.51,-30.05 984.32,-29.51"/>
<polygon fill="midnightblue" stroke="midnightblue" points="601.22,-64.31 591.76,-69.08 602.13,-71.25 601.22,-64.31"/>
</g>
<!-- Node15 -->
<g id="node15" class="node">
<title>Node15</title>
<g id="a_node15"><a xlink:href="timer__inlines_8h_source.html" target="_top" xlink:title=" ">
<polygon fill="white" stroke="black" points="1109.5,-6 1109.5,-25 1198.5,-25 1198.5,-6 1109.5,-6"/>
<text text-anchor="middle" x="1154" y="-13" font-family="Helvetica,sans-Serif" font-size="10.00">timer_inlines.h</text>
</a>
</g>
</g>
<!-- Node5&#45;&gt;Node15 -->
<g id="edge14" class="edge">
<title>Node5&#45;&gt;Node15</title>
<path fill="none" stroke="midnightblue" d="M601.73,-67.71C603.84,-67.46 605.94,-67.22 608,-67 826.43,-43.45 884.47,-68.16 1101,-31 1109.46,-29.55 1118.52,-27.32 1126.72,-25.05"/>
<polygon fill="midnightblue" stroke="midnightblue" points="601.23,-64.24 591.74,-68.96 602.1,-71.19 601.23,-64.24"/>
</g>
<!-- Node16&#45;&gt;Node5 -->
<g id="edge16" class="edge">
<title>Node16&#45;&gt;Node5</title>
<path fill="none" stroke="midnightblue" d="M570.94,-114.86C564.36,-105.5 556.49,-94.33 551.16,-86.75"/>
<polygon fill="midnightblue" stroke="midnightblue" points="568.11,-116.92 576.73,-123.08 573.83,-112.89 568.11,-116.92"/>
</g>
<!-- Node16&#45;&gt;Node17 -->
<g id="edge17" class="edge">
<title>Node16&#45;&gt;Node17</title>
<path fill="none" stroke="midnightblue" d="M604.57,-117.62C619.36,-107.76 638.51,-94.99 651.02,-86.65"/>
<polygon fill="midnightblue" stroke="midnightblue" points="602.39,-114.86 596.01,-123.32 606.28,-120.69 602.39,-114.86"/>
</g>
</g>
</svg>
