<?xml version="1.0" encoding="UTF-8" standalone="no"?>
<!DOCTYPE svg PUBLIC "-//W3C//DTD SVG 1.1//EN"
 "http://www.w3.org/Graphics/SVG/1.1/DTD/svg11.dtd">
<!-- Generated by graphviz version 2.43.0 (0)
 -->
<!-- Title: pool_types.h Pages: 1 -->
<svg width="1126pt" height="934pt"
 viewBox="0.00 0.00 1126.00 934.00" xmlns="http://www.w3.org/2000/svg" xmlns:xlink="http://www.w3.org/1999/xlink">
<g id="graph0" class="graph" transform="scale(1 1) rotate(0) translate(4 930)">
<title>pool_types.h</title>
<polygon fill="white" stroke="transparent" points="-4,4 -4,-930 1122,-930 1122,4 -4,4"/>
<!-- Node1 -->
<g id="node1" class="node">
<title>Node1</title>
<g id="a_node1"><a xlink:title=" ">
<polygon fill="#bfbfbf" stroke="black" points="939.5,-906.5 939.5,-925.5 1018.5,-925.5 1018.5,-906.5 939.5,-906.5"/>
<text text-anchor="middle" x="979" y="-913.5" font-family="Helvetica,sans-Serif" font-size="10.00">pool_types.h</text>
</a>
</g>
</g>
<!-- Node2 -->
<g id="node2" class="node">
<title>Node2</title>
<g id="a_node2"><a xlink:title=" ">
<polygon fill="white" stroke="#bfbfbf" points="295.5,-0.5 295.5,-19.5 416.5,-19.5 416.5,-0.5 295.5,-0.5"/>
<text text-anchor="middle" x="356" y="-7.5" font-family="Helvetica,sans-Serif" font-size="10.00">odp/visibility_begin.h</text>
</a>
</g>
</g>
<!-- Node1&#45;&gt;Node2 -->
<g id="edge1" class="edge">
<title>Node1&#45;&gt;Node2</title>
<path fill="none" stroke="midnightblue" d="M939.41,-914.78C756.25,-913.27 0,-901.21 0,-805 0,-805 0,-805 0,-132 0,-92.52 13.09,-77.81 46,-56 84.12,-30.73 205.97,-19.24 285.07,-14.33"/>
<polygon fill="midnightblue" stroke="midnightblue" points="285.68,-17.8 295.45,-13.71 285.26,-10.81 285.68,-17.8"/>
</g>
<!-- Node3 -->
<g id="node3" class="node">
<title>Node3</title>
<g id="a_node3"><a xlink:href="std__types_8h.html" target="_top" xlink:title=" ">
<polygon fill="white" stroke="black" points="637,-235.5 637,-254.5 749,-254.5 749,-235.5 637,-235.5"/>
<text text-anchor="middle" x="693" y="-242.5" font-family="Helvetica,sans-Serif" font-size="10.00">odp/api/std_types.h</text>
</a>
</g>
</g>
<!-- Node1&#45;&gt;Node3 -->
<g id="edge2" class="edge">
<title>Node1&#45;&gt;Node3</title>
<path fill="none" stroke="midnightblue" d="M988.3,-906.28C1005.82,-888.85 1042,-847.69 1042,-805 1042,-805 1042,-805 1042,-501 1042,-398.56 1028.91,-352.52 947,-291 918.07,-269.27 824.44,-257.04 759.33,-250.98"/>
<polygon fill="midnightblue" stroke="midnightblue" points="759.42,-247.47 749.14,-250.06 758.79,-254.44 759.42,-247.47"/>
</g>
<!-- Node10 -->
<g id="node10" class="node">
<title>Node10</title>
<g id="a_node10"><a xlink:title=" ">
<polygon fill="white" stroke="#bfbfbf" points="891,-0.5 891,-19.5 1003,-19.5 1003,-0.5 891,-0.5"/>
<text text-anchor="middle" x="947" y="-7.5" font-family="Helvetica,sans-Serif" font-size="10.00">odp/visibility_end.h</text>
</a>
</g>
</g>
<!-- Node1&#45;&gt;Node10 -->
<g id="edge54" class="edge">
<title>Node1&#45;&gt;Node10</title>
<path fill="none" stroke="midnightblue" d="M1008.14,-906.43C1048.9,-892.45 1118,-860.55 1118,-805 1118,-805 1118,-805 1118,-132 1118,-70.97 1044.52,-37.96 993.9,-22.46"/>
<polygon fill="midnightblue" stroke="midnightblue" points="994.69,-19.04 984.1,-19.59 992.72,-25.76 994.69,-19.04"/>
</g>
<!-- Node11 -->
<g id="node11" class="node">
<title>Node11</title>
<g id="a_node11"><a xlink:href="dma__types_8h.html" target="_top" xlink:title=" ">
<polygon fill="white" stroke="black" points="863.5,-850.5 863.5,-869.5 982.5,-869.5 982.5,-850.5 863.5,-850.5"/>
<text text-anchor="middle" x="923" y="-857.5" font-family="Helvetica,sans-Serif" font-size="10.00">odp/api/dma_types.h</text>
</a>
</g>
</g>
<!-- Node1&#45;&gt;Node11 -->
<g id="edge13" class="edge">
<title>Node1&#45;&gt;Node11</title>
<path fill="none" stroke="midnightblue" d="M970,-906.32C961.81,-898.42 949.49,-886.55 939.53,-876.94"/>
<polygon fill="midnightblue" stroke="midnightblue" points="941.79,-874.26 932.16,-869.83 936.93,-879.29 941.79,-874.26"/>
</g>
<!-- Node4 -->
<g id="node4" class="node">
<title>Node4</title>
<g id="a_node4"><a xlink:title=" ">
<polygon fill="white" stroke="#bfbfbf" points="627,-179.5 627,-198.5 757,-198.5 757,-179.5 627,-179.5"/>
<text text-anchor="middle" x="692" y="-186.5" font-family="Helvetica,sans-Serif" font-size="10.00">odp/api/abi/std_types.h</text>
</a>
</g>
</g>
<!-- Node3&#45;&gt;Node4 -->
<g id="edge3" class="edge">
<title>Node3&#45;&gt;Node4</title>
<path fill="none" stroke="midnightblue" d="M692.83,-235.08C692.7,-228.01 692.52,-217.86 692.35,-208.99"/>
<polygon fill="midnightblue" stroke="midnightblue" points="695.85,-208.68 692.16,-198.75 688.85,-208.81 695.85,-208.68"/>
</g>
<!-- Node5 -->
<g id="node5" class="node">
<title>Node5</title>
<g id="a_node5"><a xlink:href="spec_2std__types_8h.html" target="_top" xlink:title=" ">
<polygon fill="white" stroke="black" points="775.5,-179.5 775.5,-198.5 912.5,-198.5 912.5,-179.5 775.5,-179.5"/>
<text text-anchor="middle" x="844" y="-186.5" font-family="Helvetica,sans-Serif" font-size="10.00">odp/api/spec/std_types.h</text>
</a>
</g>
</g>
<!-- Node3&#45;&gt;Node5 -->
<g id="edge4" class="edge">
<title>Node3&#45;&gt;Node5</title>
<path fill="none" stroke="midnightblue" d="M716.93,-235.44C742.22,-226.4 782.3,-212.06 810.68,-201.92"/>
<polygon fill="midnightblue" stroke="midnightblue" points="811.95,-205.18 820.19,-198.52 809.59,-198.59 811.95,-205.18"/>
</g>
<!-- Node5&#45;&gt;Node2 -->
<g id="edge5" class="edge">
<title>Node5&#45;&gt;Node2</title>
<path fill="none" stroke="midnightblue" d="M801.23,-179.44C766.93,-171.87 717.95,-159.48 677,-143 629.02,-123.69 618.72,-114.62 575,-87 555.08,-74.42 553.34,-65.98 532,-56 496.9,-39.58 454.95,-28.56 420.81,-21.53"/>
<polygon fill="midnightblue" stroke="midnightblue" points="421.43,-18.09 410.94,-19.57 420.06,-24.95 421.43,-18.09"/>
</g>
<!-- Node6 -->
<g id="node6" class="node">
<title>Node6</title>
<g id="a_node6"><a xlink:title=" ">
<polygon fill="white" stroke="#bfbfbf" points="832.5,-123.5 832.5,-142.5 885.5,-142.5 885.5,-123.5 832.5,-123.5"/>
<text text-anchor="middle" x="859" y="-130.5" font-family="Helvetica,sans-Serif" font-size="10.00">stdint.h</text>
</a>
</g>
</g>
<!-- Node5&#45;&gt;Node6 -->
<g id="edge6" class="edge">
<title>Node5&#45;&gt;Node6</title>
<path fill="none" stroke="midnightblue" d="M846.48,-179.08C848.49,-171.85 851.39,-161.41 853.89,-152.4"/>
<polygon fill="midnightblue" stroke="midnightblue" points="857.26,-153.32 856.57,-142.75 850.52,-151.45 857.26,-153.32"/>
</g>
<!-- Node7 -->
<g id="node7" class="node">
<title>Node7</title>
<g id="a_node7"><a xlink:href="align_8h.html" target="_top" xlink:title=" ">
<polygon fill="white" stroke="black" points="686.5,-123.5 686.5,-142.5 775.5,-142.5 775.5,-123.5 686.5,-123.5"/>
<text text-anchor="middle" x="731" y="-130.5" font-family="Helvetica,sans-Serif" font-size="10.00">odp/api/align.h</text>
</a>
</g>
</g>
<!-- Node5&#45;&gt;Node7 -->
<g id="edge7" class="edge">
<title>Node5&#45;&gt;Node7</title>
<path fill="none" stroke="midnightblue" d="M826.09,-179.44C807.75,-170.68 778.99,-156.94 757.91,-146.86"/>
<polygon fill="midnightblue" stroke="midnightblue" points="759.35,-143.67 748.82,-142.52 756.33,-149.99 759.35,-143.67"/>
</g>
<!-- Node5&#45;&gt;Node10 -->
<g id="edge12" class="edge">
<title>Node5&#45;&gt;Node10</title>
<path fill="none" stroke="midnightblue" d="M856.87,-179.35C868.22,-171.15 884.56,-157.89 895,-143 920.37,-106.83 935.71,-56.54 942.63,-29.68"/>
<polygon fill="midnightblue" stroke="midnightblue" points="946.09,-30.25 945.08,-19.71 939.3,-28.58 946.09,-30.25"/>
</g>
<!-- Node8 -->
<g id="node8" class="node">
<title>Node8</title>
<g id="a_node8"><a xlink:title=" ">
<polygon fill="white" stroke="#bfbfbf" points="754.5,-62 754.5,-81 861.5,-81 861.5,-62 754.5,-62"/>
<text text-anchor="middle" x="808" y="-69" font-family="Helvetica,sans-Serif" font-size="10.00">odp/api/abi/align.h</text>
</a>
</g>
</g>
<!-- Node7&#45;&gt;Node8 -->
<g id="edge8" class="edge">
<title>Node7&#45;&gt;Node8</title>
<path fill="none" stroke="midnightblue" d="M742.03,-123.48C754.27,-114.02 774.23,-98.6 788.99,-87.19"/>
<polygon fill="midnightblue" stroke="midnightblue" points="791.22,-89.89 796.99,-81.01 786.94,-84.35 791.22,-89.89"/>
</g>
<!-- Node9 -->
<g id="node9" class="node">
<title>Node9</title>
<g id="a_node9"><a xlink:href="spec_2align_8h.html" target="_top" xlink:title=" ">
<polygon fill="white" stroke="black" points="584,-62 584,-81 698,-81 698,-62 584,-62"/>
<text text-anchor="middle" x="641" y="-69" font-family="Helvetica,sans-Serif" font-size="10.00">odp/api/spec/align.h</text>
</a>
</g>
</g>
<!-- Node7&#45;&gt;Node9 -->
<g id="edge9" class="edge">
<title>Node7&#45;&gt;Node9</title>
<path fill="none" stroke="midnightblue" d="M718.11,-123.48C703.54,-113.84 679.6,-98.02 662.25,-86.55"/>
<polygon fill="midnightblue" stroke="midnightblue" points="664.14,-83.6 653.87,-81.01 660.28,-89.44 664.14,-83.6"/>
</g>
<!-- Node9&#45;&gt;Node2 -->
<g id="edge10" class="edge">
<title>Node9&#45;&gt;Node2</title>
<path fill="none" stroke="midnightblue" d="M600.17,-61.98C549.16,-51.33 461.9,-33.11 406.68,-21.58"/>
<polygon fill="midnightblue" stroke="midnightblue" points="407.26,-18.13 396.76,-19.51 405.83,-24.98 407.26,-18.13"/>
</g>
<!-- Node9&#45;&gt;Node10 -->
<g id="edge11" class="edge">
<title>Node9&#45;&gt;Node10</title>
<path fill="none" stroke="midnightblue" d="M682.28,-61.98C692.02,-59.99 702.37,-57.9 712,-56 773.31,-43.87 843.73,-30.45 891.37,-21.45"/>
<polygon fill="midnightblue" stroke="midnightblue" points="892.3,-24.84 901.48,-19.55 891,-17.96 892.3,-24.84"/>
</g>
<!-- Node12 -->
<g id="node12" class="node">
<title>Node12</title>
<g id="a_node12"><a xlink:title=" ">
<polygon fill="white" stroke="#bfbfbf" points="854.5,-794.5 854.5,-813.5 991.5,-813.5 991.5,-794.5 854.5,-794.5"/>
<text text-anchor="middle" x="923" y="-801.5" font-family="Helvetica,sans-Serif" font-size="10.00">odp/api/abi/dma_types.h</text>
</a>
</g>
</g>
<!-- Node11&#45;&gt;Node12 -->
<g id="edge14" class="edge">
<title>Node11&#45;&gt;Node12</title>
<path fill="none" stroke="midnightblue" d="M923,-850.08C923,-843.01 923,-832.86 923,-823.99"/>
<polygon fill="midnightblue" stroke="midnightblue" points="926.5,-823.75 923,-813.75 919.5,-823.75 926.5,-823.75"/>
</g>
<!-- Node13 -->
<g id="node13" class="node">
<title>Node13</title>
<g id="a_node13"><a xlink:href="spec_2dma__types_8h.html" target="_top" xlink:title=" ">
<polygon fill="white" stroke="black" points="684,-794.5 684,-813.5 828,-813.5 828,-794.5 684,-794.5"/>
<text text-anchor="middle" x="756" y="-801.5" font-family="Helvetica,sans-Serif" font-size="10.00">odp/api/spec/dma_types.h</text>
</a>
</g>
</g>
<!-- Node11&#45;&gt;Node13 -->
<g id="edge15" class="edge">
<title>Node11&#45;&gt;Node13</title>
<path fill="none" stroke="midnightblue" d="M896.54,-850.44C868.32,-841.32 823.46,-826.81 792.03,-816.65"/>
<polygon fill="midnightblue" stroke="midnightblue" points="792.93,-813.26 782.34,-813.52 790.78,-819.92 792.93,-813.26"/>
</g>
<!-- Node13&#45;&gt;Node2 -->
<g id="edge16" class="edge">
<title>Node13&#45;&gt;Node2</title>
<path fill="none" stroke="midnightblue" d="M683.95,-799.9C556.3,-793.93 295.51,-779.52 207,-758 127.92,-738.77 38,-768.88 38,-687.5 38,-687.5 38,-687.5 38,-132 38,-92.75 50.6,-78.16 83,-56 115.08,-34.07 215.65,-21.88 285.33,-15.89"/>
<polygon fill="midnightblue" stroke="midnightblue" points="285.7,-19.37 295.38,-15.05 285.12,-12.39 285.7,-19.37"/>
</g>
<!-- Node13&#45;&gt;Node3 -->
<g id="edge52" class="edge">
<title>Node13&#45;&gt;Node3</title>
<path fill="none" stroke="midnightblue" d="M822.73,-794.48C884.22,-782.46 966,-753.97 966,-687.5 966,-687.5 966,-687.5 966,-372.5 966,-281.7 840.15,-255.89 759.34,-248.67"/>
<polygon fill="midnightblue" stroke="midnightblue" points="759.49,-245.17 749.23,-247.84 758.92,-252.15 759.49,-245.17"/>
</g>
<!-- Node13&#45;&gt;Node10 -->
<g id="edge53" class="edge">
<title>Node13&#45;&gt;Node10</title>
<path fill="none" stroke="midnightblue" d="M809.75,-794.47C858.23,-786.05 925.3,-772.39 948,-758 981.8,-736.58 1004,-727.52 1004,-687.5 1004,-687.5 1004,-687.5 1004,-501 1004,-382.74 1080,-364.26 1080,-246 1080,-246 1080,-246 1080,-132 1080,-77.75 1018.72,-41.4 979.35,-23.64"/>
<polygon fill="midnightblue" stroke="midnightblue" points="980.43,-20.3 969.86,-19.53 977.65,-26.72 980.43,-20.3"/>
</g>
<!-- Node14 -->
<g id="node14" class="node">
<title>Node14</title>
<g id="a_node14"><a xlink:href="event__types_8h.html" target="_top" xlink:title=" ">
<polygon fill="white" stroke="black" points="151.5,-123.5 151.5,-142.5 276.5,-142.5 276.5,-123.5 151.5,-123.5"/>
<text text-anchor="middle" x="214" y="-130.5" font-family="Helvetica,sans-Serif" font-size="10.00">odp/api/event_types.h</text>
</a>
</g>
</g>
<!-- Node13&#45;&gt;Node14 -->
<g id="edge17" class="edge">
<title>Node13&#45;&gt;Node14</title>
<path fill="none" stroke="midnightblue" d="M683.85,-803.72C527.22,-803.35 170,-791.13 170,-687.5 170,-687.5 170,-687.5 170,-244 170,-209.04 189.4,-172.01 202.43,-151.07"/>
<polygon fill="midnightblue" stroke="midnightblue" points="205.39,-152.95 207.88,-142.65 199.51,-149.15 205.39,-152.95"/>
</g>
<!-- Node17 -->
<g id="node17" class="node">
<title>Node17</title>
<g id="a_node17"><a xlink:href="packet__types_8h.html" target="_top" xlink:title=" ">
<polygon fill="white" stroke="black" points="540.5,-738.5 540.5,-757.5 669.5,-757.5 669.5,-738.5 540.5,-738.5"/>
<text text-anchor="middle" x="605" y="-745.5" font-family="Helvetica,sans-Serif" font-size="10.00">odp/api/packet_types.h</text>
</a>
</g>
</g>
<!-- Node13&#45;&gt;Node17 -->
<g id="edge22" class="edge">
<title>Node13&#45;&gt;Node17</title>
<path fill="none" stroke="midnightblue" d="M732.07,-794.44C706.78,-785.4 666.7,-771.06 638.32,-760.92"/>
<polygon fill="midnightblue" stroke="midnightblue" points="639.41,-757.59 628.81,-757.52 637.05,-764.18 639.41,-757.59"/>
</g>
<!-- Node24 -->
<g id="node24" class="node">
<title>Node24</title>
<g id="a_node24"><a xlink:href="queue__types_8h.html" target="_top" xlink:title=" ">
<polygon fill="white" stroke="black" points="637.5,-615.5 637.5,-634.5 764.5,-634.5 764.5,-615.5 637.5,-615.5"/>
<text text-anchor="middle" x="701" y="-622.5" font-family="Helvetica,sans-Serif" font-size="10.00">odp/api/queue_types.h</text>
</a>
</g>
</g>
<!-- Node13&#45;&gt;Node24 -->
<g id="edge51" class="edge">
<title>Node13&#45;&gt;Node24</title>
<path fill="none" stroke="midnightblue" d="M756.29,-794.24C756.69,-772.43 755.78,-714.34 737,-671 732.39,-660.37 724.59,-650.15 717.42,-642.15"/>
<polygon fill="midnightblue" stroke="midnightblue" points="719.77,-639.53 710.35,-634.68 714.69,-644.34 719.77,-639.53"/>
</g>
<!-- Node15 -->
<g id="node15" class="node">
<title>Node15</title>
<g id="a_node15"><a xlink:title=" ">
<polygon fill="white" stroke="#bfbfbf" points="142.5,-62 142.5,-81 285.5,-81 285.5,-62 142.5,-62"/>
<text text-anchor="middle" x="214" y="-69" font-family="Helvetica,sans-Serif" font-size="10.00">odp/api/abi/event_types.h</text>
</a>
</g>
</g>
<!-- Node14&#45;&gt;Node15 -->
<g id="edge18" class="edge">
<title>Node14&#45;&gt;Node15</title>
<path fill="none" stroke="midnightblue" d="M214,-123.48C214,-115.08 214,-101.98 214,-91.16"/>
<polygon fill="midnightblue" stroke="midnightblue" points="217.5,-91.01 214,-81.01 210.5,-91.01 217.5,-91.01"/>
</g>
<!-- Node16 -->
<g id="node16" class="node">
<title>Node16</title>
<g id="a_node16"><a xlink:href="spec_2event__types_8h.html" target="_top" xlink:title=" ">
<polygon fill="white" stroke="black" points="342.5,-56.5 342.5,-86.5 451.5,-86.5 451.5,-56.5 342.5,-56.5"/>
<text text-anchor="start" x="350.5" y="-74.5" font-family="Helvetica,sans-Serif" font-size="10.00">odp/api/spec/event</text>
<text text-anchor="middle" x="397" y="-63.5" font-family="Helvetica,sans-Serif" font-size="10.00">_types.h</text>
</a>
</g>
</g>
<!-- Node14&#45;&gt;Node16 -->
<g id="edge19" class="edge">
<title>Node14&#45;&gt;Node16</title>
<path fill="none" stroke="midnightblue" d="M240.22,-123.48C267.2,-114.7 310,-100.79 344.06,-89.71"/>
<polygon fill="midnightblue" stroke="midnightblue" points="345.44,-92.94 353.87,-86.52 343.28,-86.29 345.44,-92.94"/>
</g>
<!-- Node16&#45;&gt;Node2 -->
<g id="edge20" class="edge">
<title>Node16&#45;&gt;Node2</title>
<path fill="none" stroke="midnightblue" d="M387.28,-56.4C381.45,-47.93 373.98,-37.1 367.81,-28.14"/>
<polygon fill="midnightblue" stroke="midnightblue" points="370.52,-25.91 361.97,-19.66 364.76,-29.88 370.52,-25.91"/>
</g>
<!-- Node16&#45;&gt;Node10 -->
<g id="edge21" class="edge">
<title>Node16&#45;&gt;Node10</title>
<path fill="none" stroke="midnightblue" d="M451.75,-64.58C553.45,-53.57 771.15,-30.02 880.88,-18.15"/>
<polygon fill="midnightblue" stroke="midnightblue" points="881.27,-21.63 890.84,-17.08 880.52,-14.67 881.27,-21.63"/>
</g>
<!-- Node18 -->
<g id="node18" class="node">
<title>Node18</title>
<g id="a_node18"><a xlink:title=" ">
<polygon fill="white" stroke="#bfbfbf" points="622,-671.5 622,-701.5 728,-701.5 728,-671.5 622,-671.5"/>
<text text-anchor="start" x="630" y="-689.5" font-family="Helvetica,sans-Serif" font-size="10.00">odp/api/abi/packet</text>
<text text-anchor="middle" x="675" y="-678.5" font-family="Helvetica,sans-Serif" font-size="10.00">_io_types.h</text>
</a>
</g>
</g>
<!-- Node17&#45;&gt;Node18 -->
<g id="edge23" class="edge">
<title>Node17&#45;&gt;Node18</title>
<path fill="none" stroke="midnightblue" d="M615.03,-738.48C624.33,-730.57 638.55,-718.48 650.8,-708.07"/>
<polygon fill="midnightblue" stroke="midnightblue" points="653.15,-710.67 658.5,-701.52 648.62,-705.33 653.15,-710.67"/>
</g>
<!-- Node19 -->
<g id="node19" class="node">
<title>Node19</title>
<g id="a_node19"><a xlink:title=" ">
<polygon fill="white" stroke="#bfbfbf" points="366,-671.5 366,-701.5 472,-701.5 472,-671.5 366,-671.5"/>
<text text-anchor="start" x="374" y="-689.5" font-family="Helvetica,sans-Serif" font-size="10.00">odp/api/abi/packet</text>
<text text-anchor="middle" x="419" y="-678.5" font-family="Helvetica,sans-Serif" font-size="10.00">_types.h</text>
</a>
</g>
</g>
<!-- Node17&#45;&gt;Node19 -->
<g id="edge24" class="edge">
<title>Node17&#45;&gt;Node19</title>
<path fill="none" stroke="midnightblue" d="M578.35,-738.48C550.81,-729.66 507.06,-715.67 472.36,-704.57"/>
<polygon fill="midnightblue" stroke="midnightblue" points="473.43,-701.24 462.84,-701.52 471.29,-707.9 473.43,-701.24"/>
</g>
<!-- Node20 -->
<g id="node20" class="node">
<title>Node20</title>
<g id="a_node20"><a xlink:href="spec_2packet__types_8h.html" target="_top" xlink:title=" ">
<polygon fill="white" stroke="black" points="490.5,-671.5 490.5,-701.5 603.5,-701.5 603.5,-671.5 490.5,-671.5"/>
<text text-anchor="start" x="498.5" y="-689.5" font-family="Helvetica,sans-Serif" font-size="10.00">odp/api/spec/packet</text>
<text text-anchor="middle" x="547" y="-678.5" font-family="Helvetica,sans-Serif" font-size="10.00">_types.h</text>
</a>
</g>
</g>
<!-- Node17&#45;&gt;Node20 -->
<g id="edge25" class="edge">
<title>Node17&#45;&gt;Node20</title>
<path fill="none" stroke="midnightblue" d="M596.69,-738.48C589.2,-730.79 577.87,-719.17 567.92,-708.96"/>
<polygon fill="midnightblue" stroke="midnightblue" points="570.16,-706.24 560.67,-701.52 565.14,-711.13 570.16,-706.24"/>
</g>
<!-- Node20&#45;&gt;Node2 -->
<g id="edge26" class="edge">
<title>Node20&#45;&gt;Node2</title>
<path fill="none" stroke="midnightblue" d="M490.45,-672.93C446.79,-663.07 384.92,-648.75 331,-635 217.06,-605.94 76,-682.08 76,-564.5 76,-564.5 76,-564.5 76,-132 76,-93.41 86.73,-78.62 118,-56 144.21,-37.04 224.87,-24.61 285.08,-17.72"/>
<polygon fill="midnightblue" stroke="midnightblue" points="285.75,-21.16 295.3,-16.58 284.98,-14.21 285.75,-21.16"/>
</g>
<!-- Node20&#45;&gt;Node10 -->
<g id="edge50" class="edge">
<title>Node20&#45;&gt;Node10</title>
<path fill="none" stroke="midnightblue" d="M549.7,-671.4C553.77,-648.9 561,-603.41 561,-564.5 561,-564.5 561,-564.5 561,-372.5 561,-327.67 585.17,-209.52 618,-179 673.29,-127.6 714.25,-171.89 784,-143 805.24,-134.2 853.1,-101.43 871,-87 894.25,-68.25 918.15,-43.23 932.78,-27.11"/>
<polygon fill="midnightblue" stroke="midnightblue" points="935.47,-29.36 939.54,-19.58 930.26,-24.68 935.47,-29.36"/>
</g>
<!-- Node21 -->
<g id="node21" class="node">
<title>Node21</title>
<g id="a_node21"><a xlink:href="proto__stats__types_8h.html" target="_top" xlink:title=" ">
<polygon fill="white" stroke="black" points="245,-358.5 245,-388.5 355,-388.5 355,-358.5 245,-358.5"/>
<text text-anchor="start" x="253" y="-376.5" font-family="Helvetica,sans-Serif" font-size="10.00">odp/api/proto_stats</text>
<text text-anchor="middle" x="300" y="-365.5" font-family="Helvetica,sans-Serif" font-size="10.00">_types.h</text>
</a>
</g>
</g>
<!-- Node20&#45;&gt;Node21 -->
<g id="edge27" class="edge">
<title>Node20&#45;&gt;Node21</title>
<path fill="none" stroke="midnightblue" d="M499.31,-671.46C414.43,-645.8 246,-591.46 246,-564.5 246,-564.5 246,-564.5 246,-501 246,-462.25 267.7,-421.8 283.58,-397.37"/>
<polygon fill="midnightblue" stroke="midnightblue" points="286.65,-399.08 289.33,-388.83 280.84,-395.17 286.65,-399.08"/>
</g>
<!-- Node20&#45;&gt;Node24 -->
<g id="edge33" class="edge">
<title>Node20&#45;&gt;Node24</title>
<path fill="none" stroke="midnightblue" d="M583.5,-671.4C609.57,-661.33 644.29,-647.91 669.22,-638.28"/>
<polygon fill="midnightblue" stroke="midnightblue" points="670.53,-641.53 678.59,-634.66 668,-635 670.53,-641.53"/>
</g>
<!-- Node22 -->
<g id="node22" class="node">
<title>Node22</title>
<g id="a_node22"><a xlink:title=" ">
<polygon fill="white" stroke="#bfbfbf" points="236,-291.5 236,-321.5 364,-321.5 364,-291.5 236,-291.5"/>
<text text-anchor="start" x="244" y="-309.5" font-family="Helvetica,sans-Serif" font-size="10.00">odp/api/abi/proto_stats</text>
<text text-anchor="middle" x="300" y="-298.5" font-family="Helvetica,sans-Serif" font-size="10.00">_types.h</text>
</a>
</g>
</g>
<!-- Node21&#45;&gt;Node22 -->
<g id="edge28" class="edge">
<title>Node21&#45;&gt;Node22</title>
<path fill="none" stroke="midnightblue" d="M300,-358.4C300,-350.64 300,-340.81 300,-331.86"/>
<polygon fill="midnightblue" stroke="midnightblue" points="303.5,-331.58 300,-321.58 296.5,-331.58 303.5,-331.58"/>
</g>
<!-- Node23 -->
<g id="node23" class="node">
<title>Node23</title>
<g id="a_node23"><a xlink:href="spec_2proto__stats__types_8h.html" target="_top" xlink:title=" ">
<polygon fill="white" stroke="black" points="382.5,-291.5 382.5,-321.5 489.5,-321.5 489.5,-291.5 382.5,-291.5"/>
<text text-anchor="start" x="390.5" y="-309.5" font-family="Helvetica,sans-Serif" font-size="10.00">odp/api/spec/proto</text>
<text text-anchor="middle" x="436" y="-298.5" font-family="Helvetica,sans-Serif" font-size="10.00">_stats_types.h</text>
</a>
</g>
</g>
<!-- Node21&#45;&gt;Node23 -->
<g id="edge29" class="edge">
<title>Node21&#45;&gt;Node23</title>
<path fill="none" stroke="midnightblue" d="M329.51,-358.4C349.38,-348.9 375.79,-336.28 397.34,-325.98"/>
<polygon fill="midnightblue" stroke="midnightblue" points="399.03,-329.05 406.55,-321.58 396.02,-322.73 399.03,-329.05"/>
</g>
<!-- Node23&#45;&gt;Node2 -->
<g id="edge30" class="edge">
<title>Node23&#45;&gt;Node2</title>
<path fill="none" stroke="midnightblue" d="M402.99,-291.47C366.85,-273.63 314,-239.15 314,-190 314,-190 314,-190 314,-132 314,-93.45 333.26,-51.63 345.69,-28.64"/>
<polygon fill="midnightblue" stroke="midnightblue" points="348.84,-30.18 350.68,-19.74 342.74,-26.75 348.84,-30.18"/>
</g>
<!-- Node23&#45;&gt;Node3 -->
<g id="edge31" class="edge">
<title>Node23&#45;&gt;Node3</title>
<path fill="none" stroke="midnightblue" d="M489.56,-293.1C535.83,-282.39 602.02,-267.06 646.19,-256.84"/>
<polygon fill="midnightblue" stroke="midnightblue" points="647.14,-260.21 656.1,-254.54 645.57,-253.39 647.14,-260.21"/>
</g>
<!-- Node23&#45;&gt;Node10 -->
<g id="edge32" class="edge">
<title>Node23&#45;&gt;Node10</title>
<path fill="none" stroke="midnightblue" d="M451.7,-291.49C478.42,-267.78 534.64,-218.48 584,-179 637.31,-136.36 652.94,-128.69 707,-87 724.53,-73.48 726.02,-65.55 746,-56 788.38,-35.74 840.2,-24.42 880.6,-18.21"/>
<polygon fill="midnightblue" stroke="midnightblue" points="881.23,-21.65 890.62,-16.73 880.21,-14.73 881.23,-21.65"/>
</g>
<!-- Node25 -->
<g id="node25" class="node">
<title>Node25</title>
<g id="a_node25"><a xlink:title=" ">
<polygon fill="white" stroke="#bfbfbf" points="760.5,-554 760.5,-573 905.5,-573 905.5,-554 760.5,-554"/>
<text text-anchor="middle" x="833" y="-561" font-family="Helvetica,sans-Serif" font-size="10.00">odp/api/abi/queue_types.h</text>
</a>
</g>
</g>
<!-- Node24&#45;&gt;Node25 -->
<g id="edge34" class="edge">
<title>Node24&#45;&gt;Node25</title>
<path fill="none" stroke="midnightblue" d="M719.91,-615.48C742.16,-605.45 779.31,-588.7 804.93,-577.15"/>
<polygon fill="midnightblue" stroke="midnightblue" points="806.44,-580.31 814.12,-573.01 803.57,-573.93 806.44,-580.31"/>
</g>
<!-- Node26 -->
<g id="node26" class="node">
<title>Node26</title>
<g id="a_node26"><a xlink:href="spec_2queue__types_8h.html" target="_top" xlink:title=" ">
<polygon fill="white" stroke="black" points="631.5,-548.5 631.5,-578.5 742.5,-578.5 742.5,-548.5 631.5,-548.5"/>
<text text-anchor="start" x="639.5" y="-566.5" font-family="Helvetica,sans-Serif" font-size="10.00">odp/api/spec/queue</text>
<text text-anchor="middle" x="687" y="-555.5" font-family="Helvetica,sans-Serif" font-size="10.00">_types.h</text>
</a>
</g>
</g>
<!-- Node24&#45;&gt;Node26 -->
<g id="edge35" class="edge">
<title>Node24&#45;&gt;Node26</title>
<path fill="none" stroke="midnightblue" d="M698.99,-615.48C697.33,-608.4 694.88,-597.97 692.62,-588.39"/>
<polygon fill="midnightblue" stroke="midnightblue" points="696,-587.46 690.3,-578.52 689.18,-589.06 696,-587.46"/>
</g>
<!-- Node26&#45;&gt;Node2 -->
<g id="edge36" class="edge">
<title>Node26&#45;&gt;Node2</title>
<path fill="none" stroke="midnightblue" d="M631.12,-552.8C504.76,-529.3 208,-464.51 208,-374.5 208,-374.5 208,-374.5 208,-244 208,-190.38 161.34,-193.01 142,-143 127.98,-106.74 108.38,-86.08 133,-56 152.02,-32.75 227.18,-21.24 285.04,-15.73"/>
<polygon fill="midnightblue" stroke="midnightblue" points="285.61,-19.19 295.26,-14.8 284.98,-12.22 285.61,-19.19"/>
</g>
<!-- Node26&#45;&gt;Node10 -->
<g id="edge49" class="edge">
<title>Node26&#45;&gt;Node10</title>
<path fill="none" stroke="midnightblue" d="M727.72,-548.46C820.97,-513.42 1042,-412.79 1042,-246 1042,-246 1042,-246 1042,-132 1042,-85.25 997.58,-45.86 969.49,-25.62"/>
<polygon fill="midnightblue" stroke="midnightblue" points="971.23,-22.57 961.02,-19.74 967.23,-28.32 971.23,-22.57"/>
</g>
<!-- Node27 -->
<g id="node27" class="node">
<title>Node27</title>
<g id="a_node27"><a xlink:href="schedule__types_8h.html" target="_top" xlink:title=" ">
<polygon fill="white" stroke="black" points="617,-492.5 617,-511.5 757,-511.5 757,-492.5 617,-492.5"/>
<text text-anchor="middle" x="687" y="-499.5" font-family="Helvetica,sans-Serif" font-size="10.00">odp/api/schedule_types.h</text>
</a>
</g>
</g>
<!-- Node26&#45;&gt;Node27 -->
<g id="edge37" class="edge">
<title>Node26&#45;&gt;Node27</title>
<path fill="none" stroke="midnightblue" d="M687,-548.4C687,-540.47 687,-530.46 687,-521.86"/>
<polygon fill="midnightblue" stroke="midnightblue" points="690.5,-521.66 687,-511.66 683.5,-521.66 690.5,-521.66"/>
</g>
<!-- Node28 -->
<g id="node28" class="node">
<title>Node28</title>
<g id="a_node28"><a xlink:title=" ">
<polygon fill="white" stroke="#bfbfbf" points="589.5,-425.5 589.5,-455.5 706.5,-455.5 706.5,-425.5 589.5,-425.5"/>
<text text-anchor="start" x="597.5" y="-443.5" font-family="Helvetica,sans-Serif" font-size="10.00">odp/api/abi/schedule</text>
<text text-anchor="middle" x="648" y="-432.5" font-family="Helvetica,sans-Serif" font-size="10.00">_types.h</text>
</a>
</g>
</g>
<!-- Node27&#45;&gt;Node28 -->
<g id="edge38" class="edge">
<title>Node27&#45;&gt;Node28</title>
<path fill="none" stroke="midnightblue" d="M681.41,-492.48C676.57,-485.09 669.35,-474.08 662.86,-464.17"/>
<polygon fill="midnightblue" stroke="midnightblue" points="665.6,-461.97 657.19,-455.52 659.75,-465.81 665.6,-461.97"/>
</g>
<!-- Node29 -->
<g id="node29" class="node">
<title>Node29</title>
<g id="a_node29"><a xlink:href="spec_2schedule__types_8h.html" target="_top" xlink:title=" ">
<polygon fill="white" stroke="black" points="724.5,-425.5 724.5,-455.5 849.5,-455.5 849.5,-425.5 724.5,-425.5"/>
<text text-anchor="start" x="732.5" y="-443.5" font-family="Helvetica,sans-Serif" font-size="10.00">odp/api/spec/schedule</text>
<text text-anchor="middle" x="787" y="-432.5" font-family="Helvetica,sans-Serif" font-size="10.00">_types.h</text>
</a>
</g>
</g>
<!-- Node27&#45;&gt;Node29 -->
<g id="edge39" class="edge">
<title>Node27&#45;&gt;Node29</title>
<path fill="none" stroke="midnightblue" d="M701.33,-492.48C715.12,-484.27 736.48,-471.56 754.42,-460.88"/>
<polygon fill="midnightblue" stroke="midnightblue" points="756.63,-463.64 763.43,-455.52 753.05,-457.63 756.63,-463.64"/>
</g>
<!-- Node29&#45;&gt;Node2 -->
<g id="edge40" class="edge">
<title>Node29&#45;&gt;Node2</title>
<path fill="none" stroke="midnightblue" d="M734.56,-425.39C699.49,-415.17 657.25,-401.07 643,-389 514.14,-279.85 584.9,-169.66 460,-56 442.99,-40.52 419.84,-29.8 399.69,-22.71"/>
<polygon fill="midnightblue" stroke="midnightblue" points="400.68,-19.35 390.09,-19.52 398.47,-26 400.68,-19.35"/>
</g>
<!-- Node29&#45;&gt;Node3 -->
<g id="edge41" class="edge">
<title>Node29&#45;&gt;Node3</title>
<path fill="none" stroke="midnightblue" d="M748.84,-425.48C708,-408.17 645.4,-374.41 618,-322 611.62,-309.79 611.21,-302.99 618,-291 626.35,-276.26 641.66,-265.82 656.29,-258.73"/>
<polygon fill="midnightblue" stroke="midnightblue" points="658,-261.8 665.72,-254.55 655.16,-255.4 658,-261.8"/>
</g>
<!-- Node29&#45;&gt;Node10 -->
<g id="edge48" class="edge">
<title>Node29&#45;&gt;Node10</title>
<path fill="none" stroke="midnightblue" d="M813.61,-425.39C871.55,-392.51 1004,-304.81 1004,-190 1004,-190 1004,-190 1004,-132 1004,-91.59 977.66,-50.21 960.79,-27.85"/>
<polygon fill="midnightblue" stroke="midnightblue" points="963.37,-25.46 954.45,-19.74 957.85,-29.77 963.37,-25.46"/>
</g>
<!-- Node30 -->
<g id="node30" class="node">
<title>Node30</title>
<g id="a_node30"><a xlink:href="thrmask_8h.html" target="_top" xlink:title=" ">
<polygon fill="white" stroke="black" points="734.5,-364 734.5,-383 839.5,-383 839.5,-364 734.5,-364"/>
<text text-anchor="middle" x="787" y="-371" font-family="Helvetica,sans-Serif" font-size="10.00">odp/api/thrmask.h</text>
</a>
</g>
</g>
<!-- Node29&#45;&gt;Node30 -->
<g id="edge42" class="edge">
<title>Node29&#45;&gt;Node30</title>
<path fill="none" stroke="midnightblue" d="M787,-425.4C787,-416.06 787,-403.71 787,-393.52"/>
<polygon fill="midnightblue" stroke="midnightblue" points="790.5,-393.19 787,-383.19 783.5,-393.19 790.5,-393.19"/>
</g>
<!-- Node31 -->
<g id="node31" class="node">
<title>Node31</title>
<g id="a_node31"><a xlink:title=" ">
<polygon fill="white" stroke="#bfbfbf" points="776.5,-297 776.5,-316 899.5,-316 899.5,-297 776.5,-297"/>
<text text-anchor="middle" x="838" y="-304" font-family="Helvetica,sans-Serif" font-size="10.00">odp/api/abi/thrmask.h</text>
</a>
</g>
</g>
<!-- Node30&#45;&gt;Node31 -->
<g id="edge43" class="edge">
<title>Node30&#45;&gt;Node31</title>
<path fill="none" stroke="midnightblue" d="M793.88,-363.73C801.83,-353.6 815.1,-336.69 825.01,-324.06"/>
<polygon fill="midnightblue" stroke="midnightblue" points="827.81,-326.16 831.23,-316.13 822.3,-321.83 827.81,-326.16"/>
</g>
<!-- Node32 -->
<g id="node32" class="node">
<title>Node32</title>
<g id="a_node32"><a xlink:href="spec_2thrmask_8h.html" target="_top" xlink:title=" ">
<polygon fill="white" stroke="black" points="627.5,-297 627.5,-316 758.5,-316 758.5,-297 627.5,-297"/>
<text text-anchor="middle" x="693" y="-304" font-family="Helvetica,sans-Serif" font-size="10.00">odp/api/spec/thrmask.h</text>
</a>
</g>
</g>
<!-- Node30&#45;&gt;Node32 -->
<g id="edge44" class="edge">
<title>Node30&#45;&gt;Node32</title>
<path fill="none" stroke="midnightblue" d="M774.32,-363.73C758.82,-353.01 732.36,-334.72 713.84,-321.91"/>
<polygon fill="midnightblue" stroke="midnightblue" points="715.69,-318.94 705.48,-316.13 711.71,-324.69 715.69,-318.94"/>
</g>
<!-- Node32&#45;&gt;Node2 -->
<g id="edge45" class="edge">
<title>Node32&#45;&gt;Node2</title>
<path fill="none" stroke="midnightblue" d="M679.54,-296.92C665.64,-287.65 643.8,-271.92 628,-255 555.21,-177.09 579.1,-120.25 494,-56 471.98,-39.38 443.56,-28.74 418.24,-22.01"/>
<polygon fill="midnightblue" stroke="midnightblue" points="418.89,-18.57 408.34,-19.54 417.19,-25.36 418.89,-18.57"/>
</g>
<!-- Node32&#45;&gt;Node3 -->
<g id="edge46" class="edge">
<title>Node32&#45;&gt;Node3</title>
<path fill="none" stroke="midnightblue" d="M693,-296.98C693,-288.58 693,-275.48 693,-264.66"/>
<polygon fill="midnightblue" stroke="midnightblue" points="696.5,-264.51 693,-254.51 689.5,-264.51 696.5,-264.51"/>
</g>
<!-- Node32&#45;&gt;Node10 -->
<g id="edge47" class="edge">
<title>Node32&#45;&gt;Node10</title>
<path fill="none" stroke="midnightblue" d="M734.46,-296.98C810.83,-280.09 966,-239.66 966,-190 966,-190 966,-190 966,-132 966,-95.29 957.36,-53.06 951.73,-29.45"/>
<polygon fill="midnightblue" stroke="midnightblue" points="955.13,-28.6 949.33,-19.73 948.33,-30.28 955.13,-28.6"/>
</g>
</g>
</svg>
