<?xml version="1.0" encoding="UTF-8" standalone="no"?>
<!DOCTYPE svg PUBLIC "-//W3C//DTD SVG 1.1//EN"
 "http://www.w3.org/Graphics/SVG/1.1/DTD/svg11.dtd">
<!-- Generated by graphviz version 2.43.0 (0)
 -->
<!-- Title: thrmask.h Pages: 1 -->
<svg width="1279pt" height="1036pt"
 viewBox="0.00 0.00 1279.00 1036.00" xmlns="http://www.w3.org/2000/svg" xmlns:xlink="http://www.w3.org/1999/xlink">
<g id="graph0" class="graph" transform="scale(1 1) rotate(0) translate(4 1032)">
<title>thrmask.h</title>
<polygon fill="white" stroke="transparent" points="-4,4 -4,-1032 1275,-1032 1275,4 -4,4"/>
<!-- Node1 -->
<g id="node1" class="node">
<title>Node1</title>
<g id="a_node1"><a xlink:title=" ">
<polygon fill="#bfbfbf" stroke="black" points="663.5,-1008.5 663.5,-1027.5 729.5,-1027.5 729.5,-1008.5 663.5,-1008.5"/>
<text text-anchor="middle" x="696.5" y="-1015.5" font-family="Helvetica,sans-Serif" font-size="10.00">thrmask.h</text>
</a>
</g>
</g>
<!-- Node2 -->
<g id="node2" class="node">
<title>Node2</title>
<g id="a_node2"><a xlink:href="thrmask_8h.html" target="_top" xlink:title=" ">
<polygon fill="white" stroke="black" points="663.5,-952.5 663.5,-971.5 729.5,-971.5 729.5,-952.5 663.5,-952.5"/>
<text text-anchor="middle" x="696.5" y="-959.5" font-family="Helvetica,sans-Serif" font-size="10.00">thrmask.h</text>
</a>
</g>
</g>
<!-- Node1&#45;&gt;Node2 -->
<g id="edge1" class="edge">
<title>Node1&#45;&gt;Node2</title>
<path fill="none" stroke="midnightblue" d="M696.5,-997.8C696.5,-988.91 696.5,-978.78 696.5,-971.75"/>
<polygon fill="midnightblue" stroke="midnightblue" points="693,-998.08 696.5,-1008.08 700,-998.08 693,-998.08"/>
</g>
<!-- Node3 -->
<g id="node3" class="node">
<title>Node3</title>
<g id="a_node3"><a xlink:href="spec_2schedule_8h.html" target="_top" xlink:title=" ">
<polygon fill="white" stroke="black" points="0,-672.5 0,-691.5 69,-691.5 69,-672.5 0,-672.5"/>
<text text-anchor="middle" x="34.5" y="-679.5" font-family="Helvetica,sans-Serif" font-size="10.00">schedule.h</text>
</a>
</g>
</g>
<!-- Node2&#45;&gt;Node3 -->
<g id="edge2" class="edge">
<title>Node2&#45;&gt;Node3</title>
<path fill="none" stroke="midnightblue" d="M653.32,-960.82C530.42,-959.15 187.5,-945.99 187.5,-851 187.5,-851 187.5,-851 187.5,-793 187.5,-735.09 114.36,-704.68 69.22,-691.42"/>
<polygon fill="midnightblue" stroke="midnightblue" points="653.46,-964.32 663.5,-960.94 653.54,-957.32 653.46,-964.32"/>
</g>
<!-- Node5 -->
<g id="node5" class="node">
<title>Node5</title>
<g id="a_node5"><a xlink:href="spec_2schedule__types_8h.html" target="_top" xlink:title=" ">
<polygon fill="white" stroke="black" points="646,-896.5 646,-915.5 747,-915.5 747,-896.5 646,-896.5"/>
<text text-anchor="middle" x="696.5" y="-903.5" font-family="Helvetica,sans-Serif" font-size="10.00">schedule_types.h</text>
</a>
</g>
</g>
<!-- Node2&#45;&gt;Node5 -->
<g id="edge4" class="edge">
<title>Node2&#45;&gt;Node5</title>
<path fill="none" stroke="midnightblue" d="M696.5,-941.8C696.5,-932.91 696.5,-922.78 696.5,-915.75"/>
<polygon fill="midnightblue" stroke="midnightblue" points="693,-942.08 696.5,-952.08 700,-942.08 693,-942.08"/>
</g>
<!-- Node63 -->
<g id="node49" class="node">
<title>Node63</title>
<g id="a_node49"><a xlink:href="schedule__inline__types_8h_source.html" target="_top" xlink:title=" ">
<polygon fill="white" stroke="black" points="1085.5,-672.5 1085.5,-691.5 1219.5,-691.5 1219.5,-672.5 1085.5,-672.5"/>
<text text-anchor="middle" x="1152.5" y="-679.5" font-family="Helvetica,sans-Serif" font-size="10.00">schedule_inline_types.h</text>
</a>
</g>
</g>
<!-- Node2&#45;&gt;Node63 -->
<g id="edge77" class="edge">
<title>Node2&#45;&gt;Node63</title>
<path fill="none" stroke="midnightblue" d="M739.68,-957.31C837.09,-947.8 1065.5,-918.32 1065.5,-851 1065.5,-851 1065.5,-851 1065.5,-793 1065.5,-746.49 1113.93,-708.15 1138.52,-691.68"/>
<polygon fill="midnightblue" stroke="midnightblue" points="739.19,-953.84 729.57,-958.27 739.86,-960.81 739.19,-953.84"/>
</g>
<!-- Node4 -->
<g id="node4" class="node">
<title>Node4</title>
<g id="a_node4"><a xlink:href="schedule_8h.html" target="_top" xlink:title=" ">
<polygon fill="white" stroke="black" points="0,-616.5 0,-635.5 69,-635.5 69,-616.5 0,-616.5"/>
<text text-anchor="middle" x="34.5" y="-623.5" font-family="Helvetica,sans-Serif" font-size="10.00">schedule.h</text>
</a>
</g>
</g>
<!-- Node3&#45;&gt;Node4 -->
<g id="edge3" class="edge">
<title>Node3&#45;&gt;Node4</title>
<path fill="none" stroke="midnightblue" d="M34.5,-661.8C34.5,-652.91 34.5,-642.78 34.5,-635.75"/>
<polygon fill="midnightblue" stroke="midnightblue" points="31,-662.08 34.5,-672.08 38,-662.08 31,-662.08"/>
</g>
<!-- Node6 -->
<g id="node6" class="node">
<title>Node6</title>
<g id="a_node6"><a xlink:href="schedule__types_8h.html" target="_top" xlink:title=" ">
<polygon fill="white" stroke="black" points="646,-840.5 646,-859.5 747,-859.5 747,-840.5 646,-840.5"/>
<text text-anchor="middle" x="696.5" y="-847.5" font-family="Helvetica,sans-Serif" font-size="10.00">schedule_types.h</text>
</a>
</g>
</g>
<!-- Node5&#45;&gt;Node6 -->
<g id="edge5" class="edge">
<title>Node5&#45;&gt;Node6</title>
<path fill="none" stroke="midnightblue" d="M696.5,-885.8C696.5,-876.91 696.5,-866.78 696.5,-859.75"/>
<polygon fill="midnightblue" stroke="midnightblue" points="693,-886.08 696.5,-896.08 700,-886.08 693,-886.08"/>
</g>
<!-- Node6&#45;&gt;Node3 -->
<g id="edge75" class="edge">
<title>Node6&#45;&gt;Node3</title>
<path fill="none" stroke="midnightblue" d="M652.4,-837.94C528.49,-806.87 179.06,-719.25 68.49,-691.52"/>
<polygon fill="midnightblue" stroke="midnightblue" points="651.75,-841.39 662.3,-840.42 653.45,-834.6 651.75,-841.39"/>
</g>
<!-- Node7 -->
<g id="node7" class="node">
<title>Node7</title>
<g id="a_node7"><a xlink:href="spec_2queue__types_8h.html" target="_top" xlink:title=" ">
<polygon fill="white" stroke="black" points="652.5,-784.5 652.5,-803.5 740.5,-803.5 740.5,-784.5 652.5,-784.5"/>
<text text-anchor="middle" x="696.5" y="-791.5" font-family="Helvetica,sans-Serif" font-size="10.00">queue_types.h</text>
</a>
</g>
</g>
<!-- Node6&#45;&gt;Node7 -->
<g id="edge6" class="edge">
<title>Node6&#45;&gt;Node7</title>
<path fill="none" stroke="midnightblue" d="M696.5,-829.8C696.5,-820.91 696.5,-810.78 696.5,-803.75"/>
<polygon fill="midnightblue" stroke="midnightblue" points="693,-830.08 696.5,-840.08 700,-830.08 693,-830.08"/>
</g>
<!-- Node6&#45;&gt;Node63 -->
<g id="edge76" class="edge">
<title>Node6&#45;&gt;Node63</title>
<path fill="none" stroke="midnightblue" d="M729.5,-836.99C817.05,-805.12 1053.69,-718.97 1129.08,-691.52"/>
<polygon fill="midnightblue" stroke="midnightblue" points="728.26,-833.72 720.06,-840.42 730.65,-840.29 728.26,-833.72"/>
</g>
<!-- Node8 -->
<g id="node8" class="node">
<title>Node8</title>
<g id="a_node8"><a xlink:href="queue__types_8h.html" target="_top" xlink:title=" ">
<polygon fill="white" stroke="black" points="652.5,-728.5 652.5,-747.5 740.5,-747.5 740.5,-728.5 652.5,-728.5"/>
<text text-anchor="middle" x="696.5" y="-735.5" font-family="Helvetica,sans-Serif" font-size="10.00">queue_types.h</text>
</a>
</g>
</g>
<!-- Node7&#45;&gt;Node8 -->
<g id="edge7" class="edge">
<title>Node7&#45;&gt;Node8</title>
<path fill="none" stroke="midnightblue" d="M696.5,-773.8C696.5,-764.91 696.5,-754.78 696.5,-747.75"/>
<polygon fill="midnightblue" stroke="midnightblue" points="693,-774.08 696.5,-784.08 700,-774.08 693,-774.08"/>
</g>
<!-- Node8&#45;&gt;Node3 -->
<g id="edge67" class="edge">
<title>Node8&#45;&gt;Node3</title>
<path fill="none" stroke="midnightblue" d="M642.25,-734.99C535.09,-730.59 288.88,-718.32 83.5,-692 78.87,-691.41 74.01,-690.66 69.23,-689.86"/>
<polygon fill="midnightblue" stroke="midnightblue" points="642.35,-738.5 652.48,-735.41 642.63,-731.51 642.35,-738.5"/>
</g>
<!-- Node9 -->
<g id="node9" class="node">
<title>Node9</title>
<g id="a_node9"><a xlink:href="spec_2comp_8h.html" target="_top" xlink:title=" ">
<polygon fill="white" stroke="black" points="1218,-560.5 1218,-579.5 1271,-579.5 1271,-560.5 1218,-560.5"/>
<text text-anchor="middle" x="1244.5" y="-567.5" font-family="Helvetica,sans-Serif" font-size="10.00">comp.h</text>
</a>
</g>
</g>
<!-- Node8&#45;&gt;Node9 -->
<g id="edge8" class="edge">
<title>Node8&#45;&gt;Node9</title>
<path fill="none" stroke="midnightblue" d="M750.64,-733.21C824.98,-727.28 954.17,-714.12 995.5,-692 1035.72,-670.47 1025.35,-639.43 1064.5,-616 1071.15,-612.02 1169.58,-588.58 1218,-577.2"/>
<polygon fill="midnightblue" stroke="midnightblue" points="750.22,-729.74 740.52,-734 750.77,-736.71 750.22,-729.74"/>
</g>
<!-- Node11 -->
<g id="node11" class="node">
<title>Node11</title>
<g id="a_node11"><a xlink:href="spec_2dma__types_8h.html" target="_top" xlink:title=" ">
<polygon fill="white" stroke="black" points="245.5,-560.5 245.5,-579.5 325.5,-579.5 325.5,-560.5 245.5,-560.5"/>
<text text-anchor="middle" x="285.5" y="-567.5" font-family="Helvetica,sans-Serif" font-size="10.00">dma_types.h</text>
</a>
</g>
</g>
<!-- Node8&#45;&gt;Node11 -->
<g id="edge10" class="edge">
<title>Node8&#45;&gt;Node11</title>
<path fill="none" stroke="midnightblue" d="M642.35,-736.53C554.58,-734.74 386.31,-726.73 339.5,-692 301.44,-663.77 289.67,-602.62 286.52,-579.81"/>
<polygon fill="midnightblue" stroke="midnightblue" points="642.32,-740.03 652.39,-736.71 642.45,-733.03 642.32,-740.03"/>
</g>
<!-- Node27 -->
<g id="node22" class="node">
<title>Node27</title>
<g id="a_node22"><a xlink:href="spec_2packet__io_8h.html" target="_top" xlink:title=" ">
<polygon fill="white" stroke="black" points="294.5,-112.5 294.5,-131.5 366.5,-131.5 366.5,-112.5 294.5,-112.5"/>
<text text-anchor="middle" x="330.5" y="-119.5" font-family="Helvetica,sans-Serif" font-size="10.00">packet_io.h</text>
</a>
</g>
</g>
<!-- Node8&#45;&gt;Node27 -->
<g id="edge42" class="edge">
<title>Node8&#45;&gt;Node27</title>
<path fill="none" stroke="midnightblue" d="M739.24,-725.86C770.37,-717.41 813.4,-705.07 850.5,-692 858.16,-689.3 1113.68,-584.41 1120.5,-580 1155.87,-557.11 1189.5,-557.13 1189.5,-515 1189.5,-515 1189.5,-515 1189.5,-289 1189.5,-189.63 1097.96,-191.87 1001.5,-168 879.52,-137.81 488.28,-126.58 366.82,-123.76"/>
<polygon fill="midnightblue" stroke="midnightblue" points="738.32,-722.48 729.58,-728.46 740.14,-729.24 738.32,-722.48"/>
</g>
<!-- Node36 -->
<g id="node27" class="node">
<title>Node36</title>
<g id="a_node27"><a xlink:href="spec_2packet__io__types_8h.html" target="_top" xlink:title=" ">
<polygon fill="white" stroke="black" points="122.5,-336.5 122.5,-355.5 226.5,-355.5 226.5,-336.5 122.5,-336.5"/>
<text text-anchor="middle" x="174.5" y="-343.5" font-family="Helvetica,sans-Serif" font-size="10.00">packet_io_types.h</text>
</a>
</g>
</g>
<!-- Node8&#45;&gt;Node36 -->
<g id="edge47" class="edge">
<title>Node8&#45;&gt;Node36</title>
<path fill="none" stroke="midnightblue" d="M641.97,-736.4C530.88,-734.46 282.36,-726.31 205.5,-692 166.73,-674.69 135.5,-669.46 135.5,-627 135.5,-627 135.5,-627 135.5,-457 135.5,-417.29 158.36,-373.9 169.08,-355.75"/>
<polygon fill="midnightblue" stroke="midnightblue" points="642.22,-739.9 652.28,-736.57 642.34,-732.9 642.22,-739.9"/>
</g>
<!-- Node42 -->
<g id="node31" class="node">
<title>Node42</title>
<g id="a_node31"><a xlink:href="spec_2timer_8h.html" target="_top" xlink:title=" ">
<polygon fill="white" stroke="black" points="53,-336.5 53,-355.5 104,-355.5 104,-336.5 53,-336.5"/>
<text text-anchor="middle" x="78.5" y="-343.5" font-family="Helvetica,sans-Serif" font-size="10.00">timer.h</text>
</a>
</g>
</g>
<!-- Node8&#45;&gt;Node42 -->
<g id="edge68" class="edge">
<title>Node8&#45;&gt;Node42</title>
<path fill="none" stroke="midnightblue" d="M642.15,-737.34C523.01,-737.3 242.77,-732.74 158.5,-692 122.83,-674.76 97.5,-666.62 97.5,-627 97.5,-627 97.5,-627 97.5,-457 97.5,-418.82 86.25,-374.26 81.06,-355.75"/>
<polygon fill="midnightblue" stroke="midnightblue" points="642.49,-740.84 652.49,-737.33 642.48,-733.84 642.49,-740.84"/>
</g>
<!-- Node19 -->
<g id="node33" class="node">
<title>Node19</title>
<g id="a_node33"><a xlink:href="dma__inlines_8h_source.html" target="_top" xlink:title=" ">
<polygon fill="white" stroke="black" points="425,-336.5 425,-355.5 510,-355.5 510,-336.5 425,-336.5"/>
<text text-anchor="middle" x="467.5" y="-343.5" font-family="Helvetica,sans-Serif" font-size="10.00">dma_inlines.h</text>
</a>
</g>
</g>
<!-- Node8&#45;&gt;Node19 -->
<g id="edge69" class="edge">
<title>Node8&#45;&gt;Node19</title>
<path fill="none" stroke="midnightblue" d="M642.12,-728.62C566.4,-713.72 431.86,-674.72 372.5,-580 367.78,-572.47 368.79,-568.08 372.5,-560 382.77,-537.66 396.69,-540.95 414.5,-524 439.32,-500.37 450.78,-497.91 467.5,-468 484.3,-437.95 488.01,-425.98 482.5,-392 480.39,-378.99 475.06,-364.67 471.36,-355.75"/>
<polygon fill="midnightblue" stroke="midnightblue" points="641.92,-732.15 652.4,-730.57 643.22,-725.27 641.92,-732.15"/>
</g>
<!-- Node48 -->
<g id="node36" class="node">
<title>Node48</title>
<g id="a_node36"><a xlink:href="spec_2packet__io__stats_8h.html" target="_top" xlink:title=" ">
<polygon fill="white" stroke="black" points="202,-448.5 202,-467.5 303,-467.5 303,-448.5 202,-448.5"/>
<text text-anchor="middle" x="252.5" y="-455.5" font-family="Helvetica,sans-Serif" font-size="10.00">packet_io_stats.h</text>
</a>
</g>
</g>
<!-- Node8&#45;&gt;Node48 -->
<g id="edge43" class="edge">
<title>Node8&#45;&gt;Node48</title>
<path fill="none" stroke="midnightblue" d="M642.33,-736.96C508.58,-735.42 173.5,-722.06 173.5,-627 173.5,-627 173.5,-627 173.5,-569 173.5,-523.86 217.94,-484.55 240.16,-467.72"/>
<polygon fill="midnightblue" stroke="midnightblue" points="642.33,-740.46 652.36,-737.06 642.39,-733.46 642.33,-740.46"/>
</g>
<!-- Node50 -->
<g id="node38" class="node">
<title>Node50</title>
<g id="a_node38"><a xlink:href="spec_2packet__types_8h.html" target="_top" xlink:title=" ">
<polygon fill="white" stroke="black" points="651.5,-672.5 651.5,-691.5 741.5,-691.5 741.5,-672.5 651.5,-672.5"/>
<text text-anchor="middle" x="696.5" y="-679.5" font-family="Helvetica,sans-Serif" font-size="10.00">packet_types.h</text>
</a>
</g>
</g>
<!-- Node8&#45;&gt;Node50 -->
<g id="edge48" class="edge">
<title>Node8&#45;&gt;Node50</title>
<path fill="none" stroke="midnightblue" d="M696.5,-717.8C696.5,-708.91 696.5,-698.78 696.5,-691.75"/>
<polygon fill="midnightblue" stroke="midnightblue" points="693,-718.08 696.5,-728.08 700,-718.08 693,-718.08"/>
</g>
<!-- Node60 -->
<g id="node46" class="node">
<title>Node60</title>
<g id="a_node46"><a xlink:href="spec_2queue_8h.html" target="_top" xlink:title=" ">
<polygon fill="white" stroke="black" points="759.5,-672.5 759.5,-691.5 815.5,-691.5 815.5,-672.5 759.5,-672.5"/>
<text text-anchor="middle" x="787.5" y="-679.5" font-family="Helvetica,sans-Serif" font-size="10.00">queue.h</text>
</a>
</g>
</g>
<!-- Node8&#45;&gt;Node60 -->
<g id="edge65" class="edge">
<title>Node8&#45;&gt;Node60</title>
<path fill="none" stroke="midnightblue" d="M719.79,-723.18C736.54,-713.24 758.6,-700.15 772.92,-691.65"/>
<polygon fill="midnightblue" stroke="midnightblue" points="717.93,-720.21 711.12,-728.32 721.51,-726.23 717.93,-720.21"/>
</g>
<!-- Node62 -->
<g id="node48" class="node">
<title>Node62</title>
<g id="a_node48"><a xlink:href="queue__inline__types_8h_source.html" target="_top" xlink:title=" ">
<polygon fill="white" stroke="black" points="833.5,-616.5 833.5,-635.5 953.5,-635.5 953.5,-616.5 833.5,-616.5"/>
<text text-anchor="middle" x="893.5" y="-623.5" font-family="Helvetica,sans-Serif" font-size="10.00">queue_inline_types.h</text>
</a>
</g>
</g>
<!-- Node8&#45;&gt;Node62 -->
<g id="edge70" class="edge">
<title>Node8&#45;&gt;Node62</title>
<path fill="none" stroke="midnightblue" d="M743.04,-725.72C768.28,-718.38 799.37,-707.3 824.5,-692 850.37,-676.25 874.7,-649.56 886.33,-635.8"/>
<polygon fill="midnightblue" stroke="midnightblue" points="742.01,-722.38 733.33,-728.45 743.9,-729.12 742.01,-722.38"/>
</g>
<!-- Node8&#45;&gt;Node63 -->
<g id="edge72" class="edge">
<title>Node8&#45;&gt;Node63</title>
<path fill="none" stroke="midnightblue" d="M750.68,-730.58C834.25,-720.69 994.4,-701.72 1085.25,-690.96"/>
<polygon fill="midnightblue" stroke="midnightblue" points="750.16,-727.12 740.64,-731.77 750.98,-734.07 750.16,-727.12"/>
</g>
<!-- Node64 -->
<g id="node50" class="node">
<title>Node64</title>
<g id="a_node50"><a xlink:href="schedule__inlines_8h_source.html" target="_top" xlink:title=" ">
<polygon fill="white" stroke="black" points="1073,-616.5 1073,-635.5 1180,-635.5 1180,-616.5 1073,-616.5"/>
<text text-anchor="middle" x="1126.5" y="-623.5" font-family="Helvetica,sans-Serif" font-size="10.00">schedule_inlines.h</text>
</a>
</g>
</g>
<!-- Node8&#45;&gt;Node64 -->
<g id="edge74" class="edge">
<title>Node8&#45;&gt;Node64</title>
<path fill="none" stroke="midnightblue" d="M750.79,-737.55C819.06,-736.51 938.81,-728.88 1033.5,-692 1067.83,-678.63 1101.63,-650.11 1117.35,-635.71"/>
<polygon fill="midnightblue" stroke="midnightblue" points="750.65,-734.05 740.69,-737.66 750.73,-741.05 750.65,-734.05"/>
</g>
<!-- Node10 -->
<g id="node10" class="node">
<title>Node10</title>
<g id="a_node10"><a xlink:href="comp_8h.html" target="_top" xlink:title=" ">
<polygon fill="white" stroke="black" points="1218,-504.5 1218,-523.5 1271,-523.5 1271,-504.5 1218,-504.5"/>
<text text-anchor="middle" x="1244.5" y="-511.5" font-family="Helvetica,sans-Serif" font-size="10.00">comp.h</text>
</a>
</g>
</g>
<!-- Node9&#45;&gt;Node10 -->
<g id="edge9" class="edge">
<title>Node9&#45;&gt;Node10</title>
<path fill="none" stroke="midnightblue" d="M1244.5,-549.8C1244.5,-540.91 1244.5,-530.78 1244.5,-523.75"/>
<polygon fill="midnightblue" stroke="midnightblue" points="1241,-550.08 1244.5,-560.08 1248,-550.08 1241,-550.08"/>
</g>
<!-- Node12 -->
<g id="node12" class="node">
<title>Node12</title>
<g id="a_node12"><a xlink:href="dma__types_8h.html" target="_top" xlink:title=" ">
<polygon fill="white" stroke="black" points="325.5,-504.5 325.5,-523.5 405.5,-523.5 405.5,-504.5 325.5,-504.5"/>
<text text-anchor="middle" x="365.5" y="-511.5" font-family="Helvetica,sans-Serif" font-size="10.00">dma_types.h</text>
</a>
</g>
</g>
<!-- Node11&#45;&gt;Node12 -->
<g id="edge11" class="edge">
<title>Node11&#45;&gt;Node12</title>
<path fill="none" stroke="midnightblue" d="M306.8,-554.62C321.42,-544.76 340.33,-531.99 352.68,-523.65"/>
<polygon fill="midnightblue" stroke="midnightblue" points="304.68,-551.83 298.35,-560.32 308.6,-557.63 304.68,-551.83"/>
</g>
<!-- Node13 -->
<g id="node13" class="node">
<title>Node13</title>
<g id="a_node13"><a xlink:href="spec_2dma_8h.html" target="_top" xlink:title=" ">
<polygon fill="white" stroke="black" points="283,-336.5 283,-355.5 330,-355.5 330,-336.5 283,-336.5"/>
<text text-anchor="middle" x="306.5" y="-343.5" font-family="Helvetica,sans-Serif" font-size="10.00">dma.h</text>
</a>
</g>
</g>
<!-- Node12&#45;&gt;Node13 -->
<g id="edge12" class="edge">
<title>Node12&#45;&gt;Node13</title>
<path fill="none" stroke="midnightblue" d="M358.89,-494.39C346.16,-458.59 318.71,-381.34 309.55,-355.57"/>
<polygon fill="midnightblue" stroke="midnightblue" points="355.68,-495.82 362.33,-504.08 362.28,-493.48 355.68,-495.82"/>
</g>
<!-- Node15 -->
<g id="node15" class="node">
<title>Node15</title>
<g id="a_node15"><a xlink:href="spec_2pool__types_8h.html" target="_top" xlink:title=" ">
<polygon fill="white" stroke="black" points="360,-448.5 360,-467.5 439,-467.5 439,-448.5 360,-448.5"/>
<text text-anchor="middle" x="399.5" y="-455.5" font-family="Helvetica,sans-Serif" font-size="10.00">pool_types.h</text>
</a>
</g>
</g>
<!-- Node12&#45;&gt;Node15 -->
<g id="edge14" class="edge">
<title>Node12&#45;&gt;Node15</title>
<path fill="none" stroke="midnightblue" d="M376.48,-495.57C382.33,-486.27 389.27,-475.25 393.99,-467.75"/>
<polygon fill="midnightblue" stroke="midnightblue" points="373.48,-493.76 371.11,-504.08 379.4,-497.49 373.48,-493.76"/>
</g>
<!-- Node12&#45;&gt;Node19 -->
<g id="edge41" class="edge">
<title>Node12&#45;&gt;Node19</title>
<path fill="none" stroke="midnightblue" d="M403.9,-500.51C419.79,-493.43 436.93,-482.92 447.5,-468 472.61,-432.56 470.4,-376.77 468.47,-355.56"/>
<polygon fill="midnightblue" stroke="midnightblue" points="402.16,-497.44 394.25,-504.49 404.83,-503.91 402.16,-497.44"/>
</g>
<!-- Node14 -->
<g id="node14" class="node">
<title>Node14</title>
<g id="a_node14"><a xlink:href="dma_8h.html" target="_top" xlink:title=" ">
<polygon fill="white" stroke="black" points="283,-280.5 283,-299.5 330,-299.5 330,-280.5 283,-280.5"/>
<text text-anchor="middle" x="306.5" y="-287.5" font-family="Helvetica,sans-Serif" font-size="10.00">dma.h</text>
</a>
</g>
</g>
<!-- Node13&#45;&gt;Node14 -->
<g id="edge13" class="edge">
<title>Node13&#45;&gt;Node14</title>
<path fill="none" stroke="midnightblue" d="M306.5,-325.8C306.5,-316.91 306.5,-306.78 306.5,-299.75"/>
<polygon fill="midnightblue" stroke="midnightblue" points="303,-326.08 306.5,-336.08 310,-326.08 303,-326.08"/>
</g>
<!-- Node16 -->
<g id="node16" class="node">
<title>Node16</title>
<g id="a_node16"><a xlink:href="pool__types_8h.html" target="_top" xlink:title=" ">
<polygon fill="white" stroke="red" points="360,-392.5 360,-411.5 439,-411.5 439,-392.5 360,-392.5"/>
<text text-anchor="middle" x="399.5" y="-399.5" font-family="Helvetica,sans-Serif" font-size="10.00">pool_types.h</text>
</a>
</g>
</g>
<!-- Node15&#45;&gt;Node16 -->
<g id="edge15" class="edge">
<title>Node15&#45;&gt;Node16</title>
<path fill="none" stroke="midnightblue" d="M399.5,-437.8C399.5,-428.91 399.5,-418.78 399.5,-411.75"/>
<polygon fill="midnightblue" stroke="midnightblue" points="396,-438.08 399.5,-448.08 403,-438.08 396,-438.08"/>
</g>
<!-- Node16&#45;&gt;Node13 -->
<g id="edge24" class="edge">
<title>Node16&#45;&gt;Node13</title>
<path fill="none" stroke="midnightblue" d="M375.69,-387.18C358.58,-377.24 336.03,-364.15 321.4,-355.65"/>
<polygon fill="midnightblue" stroke="midnightblue" points="374.15,-390.33 384.56,-392.32 377.67,-384.28 374.15,-390.33"/>
</g>
<!-- Node20 -->
<g id="node17" class="node">
<title>Node20</title>
<g id="a_node17"><a xlink:href="spec_2classification_8h.html" target="_top" xlink:title=" ">
<polygon fill="white" stroke="black" points="213,-224.5 213,-243.5 302,-243.5 302,-224.5 213,-224.5"/>
<text text-anchor="middle" x="257.5" y="-231.5" font-family="Helvetica,sans-Serif" font-size="10.00">classification.h</text>
</a>
</g>
</g>
<!-- Node16&#45;&gt;Node20 -->
<g id="edge16" class="edge">
<title>Node16&#45;&gt;Node20</title>
<path fill="none" stroke="midnightblue" d="M394.11,-382.77C385.77,-357.16 367.59,-310.28 338.5,-280 322.34,-263.18 298.5,-250.98 280.86,-243.56"/>
<polygon fill="midnightblue" stroke="midnightblue" points="390.77,-383.83 397.09,-392.33 397.46,-381.75 390.77,-383.83"/>
</g>
<!-- Node29 -->
<g id="node24" class="node">
<title>Node29</title>
<g id="a_node24"><a xlink:href="spec_2crypto__types_8h.html" target="_top" xlink:title=" ">
<polygon fill="white" stroke="red" points="677,-336.5 677,-355.5 766,-355.5 766,-336.5 677,-336.5"/>
<text text-anchor="middle" x="721.5" y="-343.5" font-family="Helvetica,sans-Serif" font-size="10.00">crypto_types.h</text>
</a>
</g>
</g>
<!-- Node16&#45;&gt;Node29 -->
<g id="edge23" class="edge">
<title>Node16&#45;&gt;Node29</title>
<path fill="none" stroke="midnightblue" d="M449.28,-392.65C511.53,-382.21 617.15,-364.5 676.88,-354.48"/>
<polygon fill="midnightblue" stroke="midnightblue" points="448.59,-389.22 439.31,-394.32 449.75,-396.12 448.59,-389.22"/>
</g>
<!-- Node34 -->
<g id="node25" class="node">
<title>Node34</title>
<g id="a_node25"><a xlink:href="spec_2packet_8h.html" target="_top" xlink:title=" ">
<polygon fill="white" stroke="black" points="367.5,-224.5 367.5,-243.5 425.5,-243.5 425.5,-224.5 367.5,-224.5"/>
<text text-anchor="middle" x="396.5" y="-231.5" font-family="Helvetica,sans-Serif" font-size="10.00">packet.h</text>
</a>
</g>
</g>
<!-- Node16&#45;&gt;Node34 -->
<g id="edge25" class="edge">
<title>Node16&#45;&gt;Node34</title>
<path fill="none" stroke="midnightblue" d="M399.16,-381.93C398.5,-345.92 397.12,-269.23 396.65,-243.57"/>
<polygon fill="midnightblue" stroke="midnightblue" points="395.66,-382.14 399.34,-392.08 402.66,-382.01 395.66,-382.14"/>
</g>
<!-- Node16&#45;&gt;Node36 -->
<g id="edge27" class="edge">
<title>Node16&#45;&gt;Node36</title>
<path fill="none" stroke="midnightblue" d="M354.03,-390.09C311.53,-379.89 248.92,-364.86 209.99,-355.52"/>
<polygon fill="midnightblue" stroke="midnightblue" points="353.31,-393.51 363.85,-392.44 354.94,-386.71 353.31,-393.51"/>
</g>
<!-- Node16&#45;&gt;Node42 -->
<g id="edge36" class="edge">
<title>Node16&#45;&gt;Node42</title>
<path fill="none" stroke="midnightblue" d="M349.74,-394.64C292.48,-386.98 195.75,-373.01 113.5,-356 110.43,-355.36 107.22,-354.63 104.05,-353.87"/>
<polygon fill="midnightblue" stroke="midnightblue" points="349.59,-398.15 359.96,-396 350.51,-391.21 349.59,-398.15"/>
</g>
<!-- Node16&#45;&gt;Node19 -->
<g id="edge38" class="edge">
<title>Node16&#45;&gt;Node19</title>
<path fill="none" stroke="midnightblue" d="M418.26,-386.1C430.5,-376.38 446.06,-364.03 456.38,-355.83"/>
<polygon fill="midnightblue" stroke="midnightblue" points="416.08,-383.36 410.43,-392.32 420.43,-388.85 416.08,-383.36"/>
</g>
<!-- Node45 -->
<g id="node34" class="node">
<title>Node45</title>
<g id="a_node34"><a xlink:href="packet__inlines_8h.html" target="_top" xlink:title=" ">
<polygon fill="white" stroke="black" points="784,-336.5 784,-355.5 879,-355.5 879,-336.5 784,-336.5"/>
<text text-anchor="middle" x="831.5" y="-343.5" font-family="Helvetica,sans-Serif" font-size="10.00">packet_inlines.h</text>
</a>
</g>
</g>
<!-- Node16&#45;&gt;Node45 -->
<g id="edge39" class="edge">
<title>Node16&#45;&gt;Node45</title>
<path fill="none" stroke="midnightblue" d="M449.38,-395.61C521.3,-387.71 658.28,-372.14 774.5,-356 777.58,-355.57 780.74,-355.12 783.93,-354.65"/>
<polygon fill="midnightblue" stroke="midnightblue" points="448.81,-392.15 439.25,-396.72 449.57,-399.11 448.81,-392.15"/>
</g>
<!-- Node46 -->
<g id="node35" class="node">
<title>Node46</title>
<g id="a_node35"><a xlink:href="packet__vector__inlines_8h.html" target="_top" xlink:title=" ">
<polygon fill="white" stroke="black" points="528,-336.5 528,-355.5 659,-355.5 659,-336.5 528,-336.5"/>
<text text-anchor="middle" x="593.5" y="-343.5" font-family="Helvetica,sans-Serif" font-size="10.00">packet_vector_inlines.h</text>
</a>
</g>
</g>
<!-- Node16&#45;&gt;Node46 -->
<g id="edge40" class="edge">
<title>Node16&#45;&gt;Node46</title>
<path fill="none" stroke="midnightblue" d="M440.1,-389.7C476.72,-379.51 529.76,-364.74 562.9,-355.52"/>
<polygon fill="midnightblue" stroke="midnightblue" points="438.94,-386.39 430.24,-392.44 440.81,-393.13 438.94,-386.39"/>
</g>
<!-- Node21 -->
<g id="node18" class="node">
<title>Node21</title>
<g id="a_node18"><a xlink:href="classification_8h.html" target="_top" xlink:title=" ">
<polygon fill="white" stroke="black" points="175,-168.5 175,-187.5 264,-187.5 264,-168.5 175,-168.5"/>
<text text-anchor="middle" x="219.5" y="-175.5" font-family="Helvetica,sans-Serif" font-size="10.00">classification.h</text>
</a>
</g>
</g>
<!-- Node20&#45;&gt;Node21 -->
<g id="edge17" class="edge">
<title>Node20&#45;&gt;Node21</title>
<path fill="none" stroke="midnightblue" d="M245.44,-215.86C238.86,-206.5 230.99,-195.33 225.66,-187.75"/>
<polygon fill="midnightblue" stroke="midnightblue" points="242.61,-217.92 251.23,-224.08 248.33,-213.89 242.61,-217.92"/>
</g>
<!-- Node22 -->
<g id="node19" class="node">
<title>Node22</title>
<g id="a_node19"><a xlink:href="spec_2ipsec__types_8h.html" target="_top" xlink:title=" ">
<polygon fill="white" stroke="black" points="127,-112.5 127,-131.5 210,-131.5 210,-112.5 127,-112.5"/>
<text text-anchor="middle" x="168.5" y="-119.5" font-family="Helvetica,sans-Serif" font-size="10.00">ipsec_types.h</text>
</a>
</g>
</g>
<!-- Node21&#45;&gt;Node22 -->
<g id="edge18" class="edge">
<title>Node21&#45;&gt;Node22</title>
<path fill="none" stroke="midnightblue" d="M204.12,-160.72C195.13,-151.2 184.14,-139.56 176.76,-131.75"/>
<polygon fill="midnightblue" stroke="midnightblue" points="201.67,-163.22 211.08,-168.08 206.76,-158.41 201.67,-163.22"/>
</g>
<!-- Node21&#45;&gt;Node27 -->
<g id="edge21" class="edge">
<title>Node21&#45;&gt;Node27</title>
<path fill="none" stroke="midnightblue" d="M246.51,-163.86C267.09,-153.85 294.84,-140.35 312.71,-131.65"/>
<polygon fill="midnightblue" stroke="midnightblue" points="244.8,-160.8 237.33,-168.32 247.86,-167.1 244.8,-160.8"/>
</g>
<!-- Node23 -->
<g id="node20" class="node">
<title>Node23</title>
<g id="a_node20"><a xlink:href="ipsec__types_8h.html" target="_top" xlink:title=" ">
<polygon fill="white" stroke="red" points="149,-56.5 149,-75.5 232,-75.5 232,-56.5 149,-56.5"/>
<text text-anchor="middle" x="190.5" y="-63.5" font-family="Helvetica,sans-Serif" font-size="10.00">ipsec_types.h</text>
</a>
</g>
</g>
<!-- Node22&#45;&gt;Node23 -->
<g id="edge19" class="edge">
<title>Node22&#45;&gt;Node23</title>
<path fill="none" stroke="midnightblue" d="M175.96,-102.69C179.67,-93.59 183.98,-83.01 186.93,-75.75"/>
<polygon fill="midnightblue" stroke="midnightblue" points="172.66,-101.5 172.13,-112.08 179.15,-104.14 172.66,-101.5"/>
</g>
<!-- Node24 -->
<g id="node21" class="node">
<title>Node24</title>
<g id="a_node21"><a xlink:href="spec_2ipsec_8h.html" target="_top" xlink:title=" ">
<polygon fill="white" stroke="red" points="642,-0.5 642,-19.5 693,-19.5 693,-0.5 642,-0.5"/>
<text text-anchor="middle" x="667.5" y="-7.5" font-family="Helvetica,sans-Serif" font-size="10.00">ipsec.h</text>
</a>
</g>
</g>
<!-- Node23&#45;&gt;Node24 -->
<g id="edge20" class="edge">
<title>Node23&#45;&gt;Node24</title>
<path fill="none" stroke="midnightblue" d="M242.46,-59.12C344.24,-47.6 566.52,-22.43 641.9,-13.9"/>
<polygon fill="midnightblue" stroke="midnightblue" points="241.96,-55.65 232.41,-60.26 242.74,-62.61 241.96,-55.65"/>
</g>
<!-- Node28 -->
<g id="node23" class="node">
<title>Node28</title>
<g id="a_node23"><a xlink:href="packet__io_8h.html" target="_top" xlink:title=" ">
<polygon fill="white" stroke="black" points="294.5,-56.5 294.5,-75.5 366.5,-75.5 366.5,-56.5 294.5,-56.5"/>
<text text-anchor="middle" x="330.5" y="-63.5" font-family="Helvetica,sans-Serif" font-size="10.00">packet_io.h</text>
</a>
</g>
</g>
<!-- Node27&#45;&gt;Node28 -->
<g id="edge22" class="edge">
<title>Node27&#45;&gt;Node28</title>
<path fill="none" stroke="midnightblue" d="M330.5,-101.8C330.5,-92.91 330.5,-82.78 330.5,-75.75"/>
<polygon fill="midnightblue" stroke="midnightblue" points="327,-102.08 330.5,-112.08 334,-102.08 327,-102.08"/>
</g>
<!-- Node35 -->
<g id="node26" class="node">
<title>Node35</title>
<g id="a_node26"><a xlink:href="packet_8h.html" target="_top" xlink:title=" ">
<polygon fill="white" stroke="red" points="367.5,-168.5 367.5,-187.5 425.5,-187.5 425.5,-168.5 367.5,-168.5"/>
<text text-anchor="middle" x="396.5" y="-175.5" font-family="Helvetica,sans-Serif" font-size="10.00">packet.h</text>
</a>
</g>
</g>
<!-- Node34&#45;&gt;Node35 -->
<g id="edge26" class="edge">
<title>Node34&#45;&gt;Node35</title>
<path fill="none" stroke="midnightblue" d="M396.5,-213.8C396.5,-204.91 396.5,-194.78 396.5,-187.75"/>
<polygon fill="midnightblue" stroke="midnightblue" points="393,-214.08 396.5,-224.08 400,-214.08 393,-214.08"/>
</g>
<!-- Node37 -->
<g id="node28" class="node">
<title>Node37</title>
<g id="a_node28"><a xlink:href="packet__io__types_8h.html" target="_top" xlink:title=" ">
<polygon fill="white" stroke="black" points="122.5,-280.5 122.5,-299.5 226.5,-299.5 226.5,-280.5 122.5,-280.5"/>
<text text-anchor="middle" x="174.5" y="-287.5" font-family="Helvetica,sans-Serif" font-size="10.00">packet_io_types.h</text>
</a>
</g>
</g>
<!-- Node36&#45;&gt;Node37 -->
<g id="edge28" class="edge">
<title>Node36&#45;&gt;Node37</title>
<path fill="none" stroke="midnightblue" d="M174.5,-325.8C174.5,-316.91 174.5,-306.78 174.5,-299.75"/>
<polygon fill="midnightblue" stroke="midnightblue" points="171,-326.08 174.5,-336.08 178,-326.08 171,-326.08"/>
</g>
<!-- Node37&#45;&gt;Node20 -->
<g id="edge29" class="edge">
<title>Node37&#45;&gt;Node20</title>
<path fill="none" stroke="midnightblue" d="M196.6,-274.62C211.76,-264.76 231.38,-251.99 244.2,-243.65"/>
<polygon fill="midnightblue" stroke="midnightblue" points="194.31,-271.94 187.84,-280.32 198.13,-277.8 194.31,-271.94"/>
</g>
<!-- Node37&#45;&gt;Node22 -->
<g id="edge30" class="edge">
<title>Node37&#45;&gt;Node22</title>
<path fill="none" stroke="midnightblue" d="M171.83,-270.11C168.76,-246.32 164.3,-204.19 165.5,-168 165.92,-155.32 167.01,-140.67 167.75,-131.62"/>
<polygon fill="midnightblue" stroke="midnightblue" points="168.39,-270.77 173.2,-280.21 175.33,-269.83 168.39,-270.77"/>
</g>
<!-- Node37&#45;&gt;Node27 -->
<g id="edge32" class="edge">
<title>Node37&#45;&gt;Node27</title>
<path fill="none" stroke="midnightblue" d="M179.19,-270.35C183.53,-256.22 191.21,-237.07 203.5,-224 227.2,-198.8 245.21,-209.25 272.5,-188 294.22,-171.09 314.37,-145.37 324.21,-131.91"/>
<polygon fill="midnightblue" stroke="midnightblue" points="175.7,-269.83 176.39,-280.4 182.45,-271.7 175.7,-269.83"/>
</g>
<!-- Node37&#45;&gt;Node34 -->
<g id="edge31" class="edge">
<title>Node37&#45;&gt;Node34</title>
<path fill="none" stroke="midnightblue" d="M219.56,-278.04C263.63,-267.32 329.46,-251.31 367.16,-242.14"/>
<polygon fill="midnightblue" stroke="midnightblue" points="218.57,-274.68 209.68,-280.44 220.22,-281.48 218.57,-274.68"/>
</g>
<!-- Node38 -->
<g id="node29" class="node">
<title>Node38</title>
<g id="a_node29"><a xlink:href="spec_2traffic__mngr_8h.html" target="_top" xlink:title=" ">
<polygon fill="white" stroke="black" points="34.5,-224.5 34.5,-243.5 118.5,-243.5 118.5,-224.5 34.5,-224.5"/>
<text text-anchor="middle" x="76.5" y="-231.5" font-family="Helvetica,sans-Serif" font-size="10.00">traffic_mngr.h</text>
</a>
</g>
</g>
<!-- Node37&#45;&gt;Node38 -->
<g id="edge33" class="edge">
<title>Node37&#45;&gt;Node38</title>
<path fill="none" stroke="midnightblue" d="M149.91,-275.45C131.82,-265.48 107.77,-252.23 92.21,-243.65"/>
<polygon fill="midnightblue" stroke="midnightblue" points="148.31,-278.56 158.75,-280.32 151.69,-272.43 148.31,-278.56"/>
</g>
<!-- Node39 -->
<g id="node30" class="node">
<title>Node39</title>
<g id="a_node30"><a xlink:href="traffic__mngr_8h.html" target="_top" xlink:title=" ">
<polygon fill="white" stroke="black" points="34.5,-168.5 34.5,-187.5 118.5,-187.5 118.5,-168.5 34.5,-168.5"/>
<text text-anchor="middle" x="76.5" y="-175.5" font-family="Helvetica,sans-Serif" font-size="10.00">traffic_mngr.h</text>
</a>
</g>
</g>
<!-- Node38&#45;&gt;Node39 -->
<g id="edge34" class="edge">
<title>Node38&#45;&gt;Node39</title>
<path fill="none" stroke="midnightblue" d="M76.5,-213.8C76.5,-204.91 76.5,-194.78 76.5,-187.75"/>
<polygon fill="midnightblue" stroke="midnightblue" points="73,-214.08 76.5,-224.08 80,-214.08 73,-214.08"/>
</g>
<!-- Node39&#45;&gt;Node22 -->
<g id="edge35" class="edge">
<title>Node39&#45;&gt;Node22</title>
<path fill="none" stroke="midnightblue" d="M100.05,-163.18C116.98,-153.24 139.28,-140.15 153.76,-131.65"/>
<polygon fill="midnightblue" stroke="midnightblue" points="98.13,-160.24 91.28,-168.32 101.68,-166.28 98.13,-160.24"/>
</g>
<!-- Node43 -->
<g id="node32" class="node">
<title>Node43</title>
<g id="a_node32"><a xlink:href="timer_8h.html" target="_top" xlink:title=" ">
<polygon fill="white" stroke="black" points="53,-280.5 53,-299.5 104,-299.5 104,-280.5 53,-280.5"/>
<text text-anchor="middle" x="78.5" y="-287.5" font-family="Helvetica,sans-Serif" font-size="10.00">timer.h</text>
</a>
</g>
</g>
<!-- Node42&#45;&gt;Node43 -->
<g id="edge37" class="edge">
<title>Node42&#45;&gt;Node43</title>
<path fill="none" stroke="midnightblue" d="M78.5,-325.8C78.5,-316.91 78.5,-306.78 78.5,-299.75"/>
<polygon fill="midnightblue" stroke="midnightblue" points="75,-326.08 78.5,-336.08 82,-326.08 75,-326.08"/>
</g>
<!-- Node49 -->
<g id="node37" class="node">
<title>Node49</title>
<g id="a_node37"><a xlink:href="packet__io__stats_8h.html" target="_top" xlink:title=" ">
<polygon fill="white" stroke="black" points="202,-392.5 202,-411.5 303,-411.5 303,-392.5 202,-392.5"/>
<text text-anchor="middle" x="252.5" y="-399.5" font-family="Helvetica,sans-Serif" font-size="10.00">packet_io_stats.h</text>
</a>
</g>
</g>
<!-- Node48&#45;&gt;Node49 -->
<g id="edge44" class="edge">
<title>Node48&#45;&gt;Node49</title>
<path fill="none" stroke="midnightblue" d="M252.5,-437.8C252.5,-428.91 252.5,-418.78 252.5,-411.75"/>
<polygon fill="midnightblue" stroke="midnightblue" points="249,-438.08 252.5,-448.08 256,-438.08 249,-438.08"/>
</g>
<!-- Node49&#45;&gt;Node27 -->
<g id="edge45" class="edge">
<title>Node49&#45;&gt;Node27</title>
<path fill="none" stroke="midnightblue" d="M252.25,-381.97C252.69,-357.11 256.15,-312.88 273.5,-280 284.21,-259.71 299.88,-264.34 310.5,-244 330.42,-205.88 331.35,-152.58 330.86,-131.79"/>
<polygon fill="midnightblue" stroke="midnightblue" points="248.75,-382.2 252.23,-392.2 255.75,-382.21 248.75,-382.2"/>
</g>
<!-- Node49&#45;&gt;Node36 -->
<g id="edge46" class="edge">
<title>Node49&#45;&gt;Node36</title>
<path fill="none" stroke="midnightblue" d="M231.73,-386.62C217.48,-376.76 199.04,-363.99 187,-355.65"/>
<polygon fill="midnightblue" stroke="midnightblue" points="229.75,-389.51 239.97,-392.32 233.74,-383.75 229.75,-389.51"/>
</g>
<!-- Node51 -->
<g id="node39" class="node">
<title>Node51</title>
<g id="a_node39"><a xlink:href="packet__types_8h.html" target="_top" xlink:title=" ">
<polygon fill="white" stroke="black" points="651.5,-616.5 651.5,-635.5 741.5,-635.5 741.5,-616.5 651.5,-616.5"/>
<text text-anchor="middle" x="696.5" y="-623.5" font-family="Helvetica,sans-Serif" font-size="10.00">packet_types.h</text>
</a>
</g>
</g>
<!-- Node50&#45;&gt;Node51 -->
<g id="edge49" class="edge">
<title>Node50&#45;&gt;Node51</title>
<path fill="none" stroke="midnightblue" d="M696.5,-661.8C696.5,-652.91 696.5,-642.78 696.5,-635.75"/>
<polygon fill="midnightblue" stroke="midnightblue" points="693,-662.08 696.5,-672.08 700,-662.08 693,-662.08"/>
</g>
<!-- Node51&#45;&gt;Node9 -->
<g id="edge50" class="edge">
<title>Node51&#45;&gt;Node9</title>
<path fill="none" stroke="midnightblue" d="M751.57,-615.96C935.87,-592.96 984.53,-598.15 1165.5,-580 1182.94,-578.25 1202.52,-576.02 1217.82,-574.22"/>
<polygon fill="midnightblue" stroke="midnightblue" points="751.03,-612.5 741.54,-617.22 751.9,-619.44 751.03,-612.5"/>
</g>
<!-- Node51&#45;&gt;Node11 -->
<g id="edge53" class="edge">
<title>Node51&#45;&gt;Node11</title>
<path fill="none" stroke="midnightblue" d="M641.23,-617.74C557.22,-606.7 399.41,-585.97 325.54,-576.26"/>
<polygon fill="midnightblue" stroke="midnightblue" points="640.97,-621.23 651.34,-619.07 641.88,-614.29 640.97,-621.23"/>
</g>
<!-- Node51&#45;&gt;Node24 -->
<g id="edge55" class="edge">
<title>Node51&#45;&gt;Node24</title>
<path fill="none" stroke="midnightblue" d="M751.6,-615.99C902.02,-597.7 954.77,-644.08 1087.5,-580 1124.01,-562.37 1151.5,-555.54 1151.5,-515 1151.5,-515 1151.5,-515 1151.5,-289 1151.5,-75.57 793.24,-23.61 693.18,-13.26"/>
<polygon fill="midnightblue" stroke="midnightblue" points="751.02,-612.53 741.55,-617.29 751.92,-619.48 751.02,-612.53"/>
</g>
<!-- Node51&#45;&gt;Node27 -->
<g id="edge58" class="edge">
<title>Node51&#45;&gt;Node27</title>
<path fill="none" stroke="midnightblue" d="M751.56,-615.99C888.42,-598.88 938.13,-642.23 1056.5,-580 1090.51,-562.12 1113.5,-553.42 1113.5,-515 1113.5,-515 1113.5,-515 1113.5,-233 1113.5,-156.56 520.69,-129.86 366.7,-124.22"/>
<polygon fill="midnightblue" stroke="midnightblue" points="751,-612.53 741.56,-617.32 751.93,-619.47 751,-612.53"/>
</g>
<!-- Node51&#45;&gt;Node29 -->
<g id="edge52" class="edge">
<title>Node51&#45;&gt;Node29</title>
<path fill="none" stroke="midnightblue" d="M701.72,-606.39C707.34,-584.65 715.5,-547.51 715.5,-515 715.5,-515 715.5,-515 715.5,-457 715.5,-419.13 719.09,-374.04 720.72,-355.55"/>
<polygon fill="midnightblue" stroke="midnightblue" points="698.28,-605.68 699.06,-616.25 705.04,-607.5 698.28,-605.68"/>
</g>
<!-- Node51&#45;&gt;Node34 -->
<g id="edge56" class="edge">
<title>Node51&#45;&gt;Node34</title>
<path fill="none" stroke="midnightblue" d="M719.14,-610.82C785.36,-567.65 969.04,-434.75 888.5,-336 829.26,-263.36 522.5,-241.49 425.76,-236.35"/>
<polygon fill="midnightblue" stroke="midnightblue" points="717.13,-607.95 710.62,-616.3 720.92,-613.84 717.13,-607.95"/>
</g>
<!-- Node51&#45;&gt;Node36 -->
<g id="edge59" class="edge">
<title>Node51&#45;&gt;Node36</title>
<path fill="none" stroke="midnightblue" d="M641.28,-622.81C526.1,-617.77 268.2,-603.95 236.5,-580 162.69,-524.24 170.11,-391.11 173.52,-355.75"/>
<polygon fill="midnightblue" stroke="midnightblue" points="641.17,-626.3 651.31,-623.24 641.47,-619.31 641.17,-626.3"/>
</g>
<!-- Node51&#45;&gt;Node45 -->
<g id="edge63" class="edge">
<title>Node51&#45;&gt;Node45</title>
<path fill="none" stroke="midnightblue" d="M711.29,-608.7C728.18,-588.34 753.5,-551.7 753.5,-515 753.5,-515 753.5,-515 753.5,-457 753.5,-412.05 797.38,-372.65 819.31,-355.76"/>
<polygon fill="midnightblue" stroke="midnightblue" points="708.55,-606.52 704.67,-616.38 713.85,-611.1 708.55,-606.52"/>
</g>
<!-- Node51&#45;&gt;Node46 -->
<g id="edge64" class="edge">
<title>Node51&#45;&gt;Node46</title>
<path fill="none" stroke="midnightblue" d="M691.28,-606.39C685.66,-584.65 677.5,-547.51 677.5,-515 677.5,-515 677.5,-515 677.5,-457 677.5,-410.86 630.25,-372.06 606.62,-355.54"/>
<polygon fill="midnightblue" stroke="midnightblue" points="687.96,-607.5 693.94,-616.25 694.72,-605.68 687.96,-607.5"/>
</g>
<!-- Node31 -->
<g id="node40" class="node">
<title>Node31</title>
<g id="a_node40"><a xlink:href="spec_2crypto_8h.html" target="_top" xlink:title=" ">
<polygon fill="white" stroke="red" points="991.5,-560.5 991.5,-579.5 1047.5,-579.5 1047.5,-560.5 991.5,-560.5"/>
<text text-anchor="middle" x="1019.5" y="-567.5" font-family="Helvetica,sans-Serif" font-size="10.00">crypto.h</text>
</a>
</g>
</g>
<!-- Node51&#45;&gt;Node31 -->
<g id="edge51" class="edge">
<title>Node51&#45;&gt;Node31</title>
<path fill="none" stroke="midnightblue" d="M751.51,-615.86C855.2,-599.46 883.26,-599.73 982.5,-580 985.35,-579.43 988.32,-578.79 991.27,-578.13"/>
<polygon fill="midnightblue" stroke="midnightblue" points="750.9,-612.42 741.58,-617.45 752,-619.33 750.9,-612.42"/>
</g>
<!-- Node52 -->
<g id="node41" class="node">
<title>Node52</title>
<g id="a_node41"><a xlink:href="spec_2event_8h.html" target="_top" xlink:title=" ">
<polygon fill="white" stroke="red" points="382,-560.5 382,-579.5 435,-579.5 435,-560.5 382,-560.5"/>
<text text-anchor="middle" x="408.5" y="-567.5" font-family="Helvetica,sans-Serif" font-size="10.00">event.h</text>
</a>
</g>
</g>
<!-- Node51&#45;&gt;Node52 -->
<g id="edge54" class="edge">
<title>Node51&#45;&gt;Node52</title>
<path fill="none" stroke="midnightblue" d="M641.06,-616.22C589.86,-607.84 511.79,-594.4 444.5,-580 441.48,-579.35 438.32,-578.63 435.19,-577.89"/>
<polygon fill="midnightblue" stroke="midnightblue" points="640.82,-619.72 651.25,-617.88 641.94,-612.82 640.82,-619.72"/>
</g>
<!-- Node55 -->
<g id="node42" class="node">
<title>Node55</title>
<g id="a_node42"><a xlink:href="spec_2packet__flags_8h.html" target="_top" xlink:title=" ">
<polygon fill="white" stroke="red" points="453.5,-560.5 453.5,-579.5 539.5,-579.5 539.5,-560.5 453.5,-560.5"/>
<text text-anchor="middle" x="496.5" y="-567.5" font-family="Helvetica,sans-Serif" font-size="10.00">packet_flags.h</text>
</a>
</g>
</g>
<!-- Node51&#45;&gt;Node55 -->
<g id="edge57" class="edge">
<title>Node51&#45;&gt;Node55</title>
<path fill="none" stroke="midnightblue" d="M655.13,-613.83C617.36,-603.63 562.36,-588.78 528.04,-579.52"/>
<polygon fill="midnightblue" stroke="midnightblue" points="654.24,-617.22 664.81,-616.44 656.07,-610.46 654.24,-617.22"/>
</g>
<!-- Node57 -->
<g id="node43" class="node">
<title>Node57</title>
<g id="a_node43"><a xlink:href="event__inlines_8h_source.html" target="_top" xlink:title=" ">
<polygon fill="white" stroke="black" points="558,-560.5 558,-579.5 649,-579.5 649,-560.5 558,-560.5"/>
<text text-anchor="middle" x="603.5" y="-567.5" font-family="Helvetica,sans-Serif" font-size="10.00">event_inlines.h</text>
</a>
</g>
</g>
<!-- Node51&#45;&gt;Node57 -->
<g id="edge60" class="edge">
<title>Node51&#45;&gt;Node57</title>
<path fill="none" stroke="midnightblue" d="M672.69,-611.18C655.58,-601.24 633.03,-588.15 618.4,-579.65"/>
<polygon fill="midnightblue" stroke="midnightblue" points="671.15,-614.33 681.56,-616.32 674.67,-608.28 671.15,-614.33"/>
</g>
<!-- Node58 -->
<g id="node44" class="node">
<title>Node58</title>
<g id="a_node44"><a xlink:href="event__validation__external_8h.html" target="_top" xlink:title=" ">
<polygon fill="white" stroke="black" points="820,-560.5 820,-579.5 973,-579.5 973,-560.5 820,-560.5"/>
<text text-anchor="middle" x="896.5" y="-567.5" font-family="Helvetica,sans-Serif" font-size="10.00">event_validation_external.h</text>
</a>
</g>
</g>
<!-- Node51&#45;&gt;Node58 -->
<g id="edge61" class="edge">
<title>Node51&#45;&gt;Node58</title>
<path fill="none" stroke="midnightblue" d="M737.87,-613.83C775.64,-603.63 830.64,-588.78 864.96,-579.52"/>
<polygon fill="midnightblue" stroke="midnightblue" points="736.93,-610.46 728.19,-616.44 738.76,-617.22 736.93,-610.46"/>
</g>
<!-- Node59 -->
<g id="node45" class="node">
<title>Node59</title>
<g id="a_node45"><a xlink:href="queue__inlines_8h_source.html" target="_top" xlink:title=" ">
<polygon fill="white" stroke="black" points="922,-504.5 922,-523.5 1015,-523.5 1015,-504.5 922,-504.5"/>
<text text-anchor="middle" x="968.5" y="-511.5" font-family="Helvetica,sans-Serif" font-size="10.00">queue_inlines.h</text>
</a>
</g>
</g>
<!-- Node58&#45;&gt;Node59 -->
<g id="edge62" class="edge">
<title>Node58&#45;&gt;Node59</title>
<path fill="none" stroke="midnightblue" d="M916.37,-554.1C929.32,-544.38 945.8,-532.03 956.72,-523.83"/>
<polygon fill="midnightblue" stroke="midnightblue" points="913.97,-551.52 908.07,-560.32 918.17,-557.12 913.97,-551.52"/>
</g>
<!-- Node61 -->
<g id="node47" class="node">
<title>Node61</title>
<g id="a_node47"><a xlink:href="queue_8h.html" target="_top" xlink:title=" ">
<polygon fill="white" stroke="black" points="759.5,-616.5 759.5,-635.5 815.5,-635.5 815.5,-616.5 759.5,-616.5"/>
<text text-anchor="middle" x="787.5" y="-623.5" font-family="Helvetica,sans-Serif" font-size="10.00">queue.h</text>
</a>
</g>
</g>
<!-- Node60&#45;&gt;Node61 -->
<g id="edge66" class="edge">
<title>Node60&#45;&gt;Node61</title>
<path fill="none" stroke="midnightblue" d="M787.5,-661.8C787.5,-652.91 787.5,-642.78 787.5,-635.75"/>
<polygon fill="midnightblue" stroke="midnightblue" points="784,-662.08 787.5,-672.08 791,-662.08 784,-662.08"/>
</g>
<!-- Node62&#45;&gt;Node59 -->
<g id="edge71" class="edge">
<title>Node62&#45;&gt;Node59</title>
<path fill="none" stroke="midnightblue" d="M961.85,-614.61C1001,-607.11 1044.66,-595.56 1056.5,-580 1075.94,-554.46 1031.37,-534.31 998.82,-523.57"/>
<polygon fill="midnightblue" stroke="midnightblue" points="961.21,-611.17 952.02,-616.43 962.49,-618.05 961.21,-611.17"/>
</g>
<!-- Node63&#45;&gt;Node64 -->
<g id="edge73" class="edge">
<title>Node63&#45;&gt;Node64</title>
<path fill="none" stroke="midnightblue" d="M1143.83,-662.98C1139.41,-653.82 1134.25,-643.09 1130.71,-635.75"/>
<polygon fill="midnightblue" stroke="midnightblue" points="1140.71,-664.59 1148.21,-672.08 1147.02,-661.55 1140.71,-664.59"/>
</g>
</g>
</svg>
