<?xml version="1.0" encoding="UTF-8" standalone="no"?>
<!DOCTYPE svg PUBLIC "-//W3C//DTD SVG 1.1//EN"
 "http://www.w3.org/Graphics/SVG/1.1/DTD/svg11.dtd">
<!-- Generated by graphviz version 2.43.0 (0)
 -->
<!-- Title: queue_types.h Pages: 1 -->
<svg width="1228pt" height="868pt"
 viewBox="0.00 0.00 1227.50 868.00" xmlns="http://www.w3.org/2000/svg" xmlns:xlink="http://www.w3.org/1999/xlink">
<g id="graph0" class="graph" transform="scale(1 1) rotate(0) translate(4 864)">
<title>queue_types.h</title>
<polygon fill="white" stroke="transparent" points="-4,4 -4,-864 1223.5,-864 1223.5,4 -4,4"/>
<!-- Node1 -->
<g id="node1" class="node">
<title>Node1</title>
<g id="a_node1"><a xlink:title=" ">
<polygon fill="#bfbfbf" stroke="black" points="458,-840.5 458,-859.5 546,-859.5 546,-840.5 458,-840.5"/>
<text text-anchor="middle" x="502" y="-847.5" font-family="Helvetica,sans-Serif" font-size="10.00">queue_types.h</text>
</a>
</g>
</g>
<!-- Node2 -->
<g id="node2" class="node">
<title>Node2</title>
<g id="a_node2"><a xlink:href="queue__types_8h.html" target="_top" xlink:title=" ">
<polygon fill="white" stroke="black" points="458,-784.5 458,-803.5 546,-803.5 546,-784.5 458,-784.5"/>
<text text-anchor="middle" x="502" y="-791.5" font-family="Helvetica,sans-Serif" font-size="10.00">queue_types.h</text>
</a>
</g>
</g>
<!-- Node1&#45;&gt;Node2 -->
<g id="edge1" class="edge">
<title>Node1&#45;&gt;Node2</title>
<path fill="none" stroke="midnightblue" d="M502,-829.8C502,-820.91 502,-810.78 502,-803.75"/>
<polygon fill="midnightblue" stroke="midnightblue" points="498.5,-830.08 502,-840.08 505.5,-830.08 498.5,-830.08"/>
</g>
<!-- Node3 -->
<g id="node3" class="node">
<title>Node3</title>
<g id="a_node3"><a xlink:href="spec_2comp_8h.html" target="_top" xlink:title=" ">
<polygon fill="white" stroke="black" points="306.5,-616.5 306.5,-635.5 359.5,-635.5 359.5,-616.5 306.5,-616.5"/>
<text text-anchor="middle" x="333" y="-623.5" font-family="Helvetica,sans-Serif" font-size="10.00">comp.h</text>
</a>
</g>
</g>
<!-- Node2&#45;&gt;Node3 -->
<g id="edge2" class="edge">
<title>Node2&#45;&gt;Node3</title>
<path fill="none" stroke="midnightblue" d="M448.03,-785.22C422.62,-779.01 393.66,-767.89 374,-748 342.03,-715.67 334.97,-657.53 333.43,-635.64"/>
<polygon fill="midnightblue" stroke="midnightblue" points="447.4,-788.66 457.92,-787.44 448.93,-781.83 447.4,-788.66"/>
</g>
<!-- Node5 -->
<g id="node5" class="node">
<title>Node5</title>
<g id="a_node5"><a xlink:href="spec_2dma__types_8h.html" target="_top" xlink:title=" ">
<polygon fill="white" stroke="black" points="208,-616.5 208,-635.5 288,-635.5 288,-616.5 208,-616.5"/>
<text text-anchor="middle" x="248" y="-623.5" font-family="Helvetica,sans-Serif" font-size="10.00">dma_types.h</text>
</a>
</g>
</g>
<!-- Node2&#45;&gt;Node5 -->
<g id="edge4" class="edge">
<title>Node2&#45;&gt;Node5</title>
<path fill="none" stroke="midnightblue" d="M447.89,-783.67C418.99,-776.94 383.76,-765.81 356,-748 307.42,-716.82 267.39,-657.99 253.37,-635.78"/>
<polygon fill="midnightblue" stroke="midnightblue" points="447.31,-787.12 457.83,-785.87 448.82,-780.29 447.31,-787.12"/>
</g>
<!-- Node21 -->
<g id="node17" class="node">
<title>Node21</title>
<g id="a_node17"><a xlink:href="spec_2packet__io_8h.html" target="_top" xlink:title=" ">
<polygon fill="white" stroke="black" points="279,-168.5 279,-187.5 351,-187.5 351,-168.5 279,-168.5"/>
<text text-anchor="middle" x="315" y="-175.5" font-family="Helvetica,sans-Serif" font-size="10.00">packet_io.h</text>
</a>
</g>
</g>
<!-- Node2&#45;&gt;Node21 -->
<g id="edge42" class="edge">
<title>Node2&#45;&gt;Node21</title>
<path fill="none" stroke="midnightblue" d="M447.77,-792.48C317.94,-789.78 0,-773.89 0,-683 0,-683 0,-683 0,-289 0,-230.49 196.13,-195.83 278.87,-183.81"/>
<polygon fill="midnightblue" stroke="midnightblue" points="447.83,-795.98 457.89,-792.67 447.96,-788.98 447.83,-795.98"/>
</g>
<!-- Node30 -->
<g id="node25" class="node">
<title>Node30</title>
<g id="a_node25"><a xlink:href="spec_2packet__io__types_8h.html" target="_top" xlink:title=" ">
<polygon fill="white" stroke="black" points="457,-392.5 457,-411.5 561,-411.5 561,-392.5 457,-392.5"/>
<text text-anchor="middle" x="509" y="-399.5" font-family="Helvetica,sans-Serif" font-size="10.00">packet_io_types.h</text>
</a>
</g>
</g>
<!-- Node2&#45;&gt;Node30 -->
<g id="edge47" class="edge">
<title>Node2&#45;&gt;Node30</title>
<path fill="none" stroke="midnightblue" d="M502,-774.25C502,-752.36 502,-715.05 502,-683 502,-683 502,-683 502,-513 502,-475.11 506.19,-430.03 508.08,-411.55"/>
<polygon fill="midnightblue" stroke="midnightblue" points="498.5,-774.44 502,-784.44 505.5,-774.44 498.5,-774.44"/>
</g>
<!-- Node36 -->
<g id="node29" class="node">
<title>Node36</title>
<g id="a_node29"><a xlink:href="spec_2timer_8h.html" target="_top" xlink:title=" ">
<polygon fill="white" stroke="black" points="170.5,-392.5 170.5,-411.5 221.5,-411.5 221.5,-392.5 170.5,-392.5"/>
<text text-anchor="middle" x="196" y="-399.5" font-family="Helvetica,sans-Serif" font-size="10.00">timer.h</text>
</a>
</g>
</g>
<!-- Node2&#45;&gt;Node36 -->
<g id="edge72" class="edge">
<title>Node2&#45;&gt;Node36</title>
<path fill="none" stroke="midnightblue" d="M447.96,-789.75C337.04,-781.6 94,-755.48 94,-683 94,-683 94,-683 94,-569 94,-499.32 160.05,-434.29 185.85,-411.55"/>
<polygon fill="midnightblue" stroke="midnightblue" points="447.73,-793.24 457.95,-790.46 448.22,-786.26 447.73,-793.24"/>
</g>
<!-- Node13 -->
<g id="node31" class="node">
<title>Node13</title>
<g id="a_node31"><a xlink:href="dma__inlines_8h_source.html" target="_top" xlink:title=" ">
<polygon fill="white" stroke="black" points="28.5,-392.5 28.5,-411.5 113.5,-411.5 113.5,-392.5 28.5,-392.5"/>
<text text-anchor="middle" x="71" y="-399.5" font-family="Helvetica,sans-Serif" font-size="10.00">dma_inlines.h</text>
</a>
</g>
</g>
<!-- Node2&#45;&gt;Node13 -->
<g id="edge73" class="edge">
<title>Node2&#45;&gt;Node13</title>
<path fill="none" stroke="midnightblue" d="M447.87,-790.2C359.44,-784.99 188.27,-772.1 133,-748 91.95,-730.1 56,-727.79 56,-683 56,-683 56,-683 56,-513 56,-474.84 64.97,-429.91 69.04,-411.5"/>
<polygon fill="midnightblue" stroke="midnightblue" points="447.79,-793.7 457.98,-790.78 448.2,-786.71 447.79,-793.7"/>
</g>
<!-- Node42 -->
<g id="node34" class="node">
<title>Node42</title>
<g id="a_node34"><a xlink:href="spec_2packet__io__stats_8h.html" target="_top" xlink:title=" ">
<polygon fill="white" stroke="black" points="296.5,-560.5 296.5,-579.5 397.5,-579.5 397.5,-560.5 296.5,-560.5"/>
<text text-anchor="middle" x="347" y="-567.5" font-family="Helvetica,sans-Serif" font-size="10.00">packet_io_stats.h</text>
</a>
</g>
</g>
<!-- Node2&#45;&gt;Node42 -->
<g id="edge43" class="edge">
<title>Node2&#45;&gt;Node42</title>
<path fill="none" stroke="midnightblue" d="M490.13,-776C459.13,-731.6 376.51,-613.27 353.2,-579.88"/>
<polygon fill="midnightblue" stroke="midnightblue" points="487.33,-778.1 495.92,-784.3 493.07,-774.09 487.33,-778.1"/>
</g>
<!-- Node44 -->
<g id="node36" class="node">
<title>Node44</title>
<g id="a_node36"><a xlink:href="spec_2packet__types_8h.html" target="_top" xlink:title=" ">
<polygon fill="white" stroke="black" points="530,-728.5 530,-747.5 620,-747.5 620,-728.5 530,-728.5"/>
<text text-anchor="middle" x="575" y="-735.5" font-family="Helvetica,sans-Serif" font-size="10.00">packet_types.h</text>
</a>
</g>
</g>
<!-- Node2&#45;&gt;Node44 -->
<g id="edge48" class="edge">
<title>Node2&#45;&gt;Node44</title>
<path fill="none" stroke="midnightblue" d="M522.14,-778.1C535.28,-768.38 551.98,-756.03 563.06,-747.83"/>
<polygon fill="midnightblue" stroke="midnightblue" points="519.69,-775.56 513.73,-784.32 523.85,-781.19 519.69,-775.56"/>
</g>
<!-- Node54 -->
<g id="node44" class="node">
<title>Node54</title>
<g id="a_node44"><a xlink:href="spec_2queue_8h.html" target="_top" xlink:title=" ">
<polygon fill="white" stroke="black" points="676,-728.5 676,-747.5 732,-747.5 732,-728.5 676,-728.5"/>
<text text-anchor="middle" x="704" y="-735.5" font-family="Helvetica,sans-Serif" font-size="10.00">queue.h</text>
</a>
</g>
</g>
<!-- Node2&#45;&gt;Node54 -->
<g id="edge68" class="edge">
<title>Node2&#45;&gt;Node54</title>
<path fill="none" stroke="midnightblue" d="M543.87,-781.81C583.35,-771.25 641.44,-755.72 675.73,-746.56"/>
<polygon fill="midnightblue" stroke="midnightblue" points="542.76,-778.48 534.01,-784.44 544.57,-785.24 542.76,-778.48"/>
</g>
<!-- Node56 -->
<g id="node46" class="node">
<title>Node56</title>
<g id="a_node46"><a xlink:href="spec_2schedule_8h.html" target="_top" xlink:title=" ">
<polygon fill="white" stroke="black" points="750.5,-728.5 750.5,-747.5 819.5,-747.5 819.5,-728.5 750.5,-728.5"/>
<text text-anchor="middle" x="785" y="-735.5" font-family="Helvetica,sans-Serif" font-size="10.00">schedule.h</text>
</a>
</g>
</g>
<!-- Node2&#45;&gt;Node56 -->
<g id="edge70" class="edge">
<title>Node2&#45;&gt;Node56</title>
<path fill="none" stroke="midnightblue" d="M556.05,-783.07C604.52,-774.11 677.57,-760.46 741,-748 744.06,-747.4 747.24,-746.77 750.42,-746.13"/>
<polygon fill="midnightblue" stroke="midnightblue" points="555.29,-779.65 546.09,-784.91 556.56,-786.54 555.29,-779.65"/>
</g>
<!-- Node58 -->
<g id="node48" class="node">
<title>Node58</title>
<g id="a_node48"><a xlink:href="queue__inline__types_8h_source.html" target="_top" xlink:title=" ">
<polygon fill="white" stroke="black" points="641,-672.5 641,-691.5 761,-691.5 761,-672.5 641,-672.5"/>
<text text-anchor="middle" x="701" y="-679.5" font-family="Helvetica,sans-Serif" font-size="10.00">queue_inline_types.h</text>
</a>
</g>
</g>
<!-- Node2&#45;&gt;Node58 -->
<g id="edge74" class="edge">
<title>Node2&#45;&gt;Node58</title>
<path fill="none" stroke="midnightblue" d="M547.26,-781.69C572.4,-774.27 603.63,-763.12 629,-748 655.62,-732.14 681.17,-705.5 693.43,-691.77"/>
<polygon fill="midnightblue" stroke="midnightblue" points="546.25,-778.34 537.59,-784.45 548.17,-785.07 546.25,-778.34"/>
</g>
<!-- Node59 -->
<g id="node49" class="node">
<title>Node59</title>
<g id="a_node49"><a xlink:href="schedule__inline__types_8h_source.html" target="_top" xlink:title=" ">
<polygon fill="white" stroke="black" points="838,-728.5 838,-747.5 972,-747.5 972,-728.5 838,-728.5"/>
<text text-anchor="middle" x="905" y="-735.5" font-family="Helvetica,sans-Serif" font-size="10.00">schedule_inline_types.h</text>
</a>
</g>
</g>
<!-- Node2&#45;&gt;Node59 -->
<g id="edge76" class="edge">
<title>Node2&#45;&gt;Node59</title>
<path fill="none" stroke="midnightblue" d="M556.34,-785.72C630.43,-775.79 762.89,-758.04 841.48,-747.51"/>
<polygon fill="midnightblue" stroke="midnightblue" points="555.73,-782.27 546.28,-787.07 556.66,-789.21 555.73,-782.27"/>
</g>
<!-- Node60 -->
<g id="node50" class="node">
<title>Node60</title>
<g id="a_node50"><a xlink:href="schedule__inlines_8h_source.html" target="_top" xlink:title=" ">
<polygon fill="white" stroke="black" points="943.5,-672.5 943.5,-691.5 1050.5,-691.5 1050.5,-672.5 943.5,-672.5"/>
<text text-anchor="middle" x="997" y="-679.5" font-family="Helvetica,sans-Serif" font-size="10.00">schedule_inlines.h</text>
</a>
</g>
</g>
<!-- Node2&#45;&gt;Node60 -->
<g id="edge78" class="edge">
<title>Node2&#45;&gt;Node60</title>
<path fill="none" stroke="midnightblue" d="M556.69,-791.38C675.57,-787.36 949.41,-775.23 981,-748 997.37,-733.88 998.4,-705.97 997.74,-691.76"/>
<polygon fill="midnightblue" stroke="midnightblue" points="556.24,-787.89 546.36,-791.72 556.47,-794.89 556.24,-787.89"/>
</g>
<!-- Node4 -->
<g id="node4" class="node">
<title>Node4</title>
<g id="a_node4"><a xlink:href="comp_8h.html" target="_top" xlink:title=" ">
<polygon fill="white" stroke="black" points="225.5,-560.5 225.5,-579.5 278.5,-579.5 278.5,-560.5 225.5,-560.5"/>
<text text-anchor="middle" x="252" y="-567.5" font-family="Helvetica,sans-Serif" font-size="10.00">comp.h</text>
</a>
</g>
</g>
<!-- Node3&#45;&gt;Node4 -->
<g id="edge3" class="edge">
<title>Node3&#45;&gt;Node4</title>
<path fill="none" stroke="midnightblue" d="M311.43,-610.62C296.64,-600.76 277.49,-587.99 264.98,-579.65"/>
<polygon fill="midnightblue" stroke="midnightblue" points="309.72,-613.69 319.99,-616.32 313.61,-607.86 309.72,-613.69"/>
</g>
<!-- Node6 -->
<g id="node6" class="node">
<title>Node6</title>
<g id="a_node6"><a xlink:href="dma__types_8h.html" target="_top" xlink:title=" ">
<polygon fill="white" stroke="black" points="127,-560.5 127,-579.5 207,-579.5 207,-560.5 127,-560.5"/>
<text text-anchor="middle" x="167" y="-567.5" font-family="Helvetica,sans-Serif" font-size="10.00">dma_types.h</text>
</a>
</g>
</g>
<!-- Node5&#45;&gt;Node6 -->
<g id="edge5" class="edge">
<title>Node5&#45;&gt;Node6</title>
<path fill="none" stroke="midnightblue" d="M226.43,-610.62C211.64,-600.76 192.49,-587.99 179.98,-579.65"/>
<polygon fill="midnightblue" stroke="midnightblue" points="224.72,-613.69 234.99,-616.32 228.61,-607.86 224.72,-613.69"/>
</g>
<!-- Node7 -->
<g id="node7" class="node">
<title>Node7</title>
<g id="a_node7"><a xlink:href="spec_2dma_8h.html" target="_top" xlink:title=" ">
<polygon fill="white" stroke="black" points="239.5,-392.5 239.5,-411.5 286.5,-411.5 286.5,-392.5 239.5,-392.5"/>
<text text-anchor="middle" x="263" y="-399.5" font-family="Helvetica,sans-Serif" font-size="10.00">dma.h</text>
</a>
</g>
</g>
<!-- Node6&#45;&gt;Node7 -->
<g id="edge6" class="edge">
<title>Node6&#45;&gt;Node7</title>
<path fill="none" stroke="midnightblue" d="M165.88,-550.4C165.27,-525.02 167.61,-479.13 189,-448 201.09,-430.4 222.54,-418.48 239.24,-411.36"/>
<polygon fill="midnightblue" stroke="midnightblue" points="162.38,-550.65 166.3,-560.49 169.38,-550.36 162.38,-550.65"/>
</g>
<!-- Node9 -->
<g id="node9" class="node">
<title>Node9</title>
<g id="a_node9"><a xlink:href="spec_2pool__types_8h.html" target="_top" xlink:title=" ">
<polygon fill="white" stroke="black" points="356.5,-504.5 356.5,-523.5 435.5,-523.5 435.5,-504.5 356.5,-504.5"/>
<text text-anchor="middle" x="396" y="-511.5" font-family="Helvetica,sans-Serif" font-size="10.00">pool_types.h</text>
</a>
</g>
</g>
<!-- Node6&#45;&gt;Node9 -->
<g id="edge8" class="edge">
<title>Node6&#45;&gt;Node9</title>
<path fill="none" stroke="midnightblue" d="M213.27,-558.09C256.54,-547.89 320.26,-532.86 359.88,-523.52"/>
<polygon fill="midnightblue" stroke="midnightblue" points="212.22,-554.74 203.29,-560.44 213.82,-561.55 212.22,-554.74"/>
</g>
<!-- Node6&#45;&gt;Node13 -->
<g id="edge41" class="edge">
<title>Node6&#45;&gt;Node13</title>
<path fill="none" stroke="midnightblue" d="M156.77,-551.31C136.3,-515.92 90.99,-437.56 75.96,-411.57"/>
<polygon fill="midnightblue" stroke="midnightblue" points="153.8,-553.17 161.84,-560.08 159.86,-549.67 153.8,-553.17"/>
</g>
<!-- Node8 -->
<g id="node8" class="node">
<title>Node8</title>
<g id="a_node8"><a xlink:href="dma_8h.html" target="_top" xlink:title=" ">
<polygon fill="white" stroke="black" points="239.5,-336.5 239.5,-355.5 286.5,-355.5 286.5,-336.5 239.5,-336.5"/>
<text text-anchor="middle" x="263" y="-343.5" font-family="Helvetica,sans-Serif" font-size="10.00">dma.h</text>
</a>
</g>
</g>
<!-- Node7&#45;&gt;Node8 -->
<g id="edge7" class="edge">
<title>Node7&#45;&gt;Node8</title>
<path fill="none" stroke="midnightblue" d="M263,-381.8C263,-372.91 263,-362.78 263,-355.75"/>
<polygon fill="midnightblue" stroke="midnightblue" points="259.5,-382.08 263,-392.08 266.5,-382.08 259.5,-382.08"/>
</g>
<!-- Node10 -->
<g id="node10" class="node">
<title>Node10</title>
<g id="a_node10"><a xlink:href="pool__types_8h.html" target="_top" xlink:title=" ">
<polygon fill="white" stroke="red" points="394.5,-448.5 394.5,-467.5 473.5,-467.5 473.5,-448.5 394.5,-448.5"/>
<text text-anchor="middle" x="434" y="-455.5" font-family="Helvetica,sans-Serif" font-size="10.00">pool_types.h</text>
</a>
</g>
</g>
<!-- Node9&#45;&gt;Node10 -->
<g id="edge9" class="edge">
<title>Node9&#45;&gt;Node10</title>
<path fill="none" stroke="midnightblue" d="M408.06,-495.86C414.64,-486.5 422.51,-475.33 427.84,-467.75"/>
<polygon fill="midnightblue" stroke="midnightblue" points="405.17,-493.89 402.27,-504.08 410.89,-497.92 405.17,-493.89"/>
</g>
<!-- Node10&#45;&gt;Node7 -->
<g id="edge24" class="edge">
<title>Node10&#45;&gt;Node7</title>
<path fill="none" stroke="midnightblue" d="M397.03,-445.32C363.54,-434.75 315.22,-419.49 286.66,-410.47"/>
<polygon fill="midnightblue" stroke="midnightblue" points="396.31,-448.77 406.9,-448.44 398.42,-442.09 396.31,-448.77"/>
</g>
<!-- Node14 -->
<g id="node11" class="node">
<title>Node14</title>
<g id="a_node11"><a xlink:href="spec_2classification_8h.html" target="_top" xlink:title=" ">
<polygon fill="white" stroke="black" points="419.5,-280.5 419.5,-299.5 508.5,-299.5 508.5,-280.5 419.5,-280.5"/>
<text text-anchor="middle" x="464" y="-287.5" font-family="Helvetica,sans-Serif" font-size="10.00">classification.h</text>
</a>
</g>
</g>
<!-- Node10&#45;&gt;Node14 -->
<g id="edge10" class="edge">
<title>Node10&#45;&gt;Node14</title>
<path fill="none" stroke="midnightblue" d="M437.45,-437.93C443.95,-401.92 457.81,-325.23 462.45,-299.57"/>
<polygon fill="midnightblue" stroke="midnightblue" points="433.95,-437.61 435.61,-448.08 440.84,-438.86 433.95,-437.61"/>
</g>
<!-- Node23 -->
<g id="node19" class="node">
<title>Node23</title>
<g id="a_node19"><a xlink:href="spec_2crypto__types_8h.html" target="_top" xlink:title=" ">
<polygon fill="white" stroke="black" points="841.5,-392.5 841.5,-411.5 930.5,-411.5 930.5,-392.5 841.5,-392.5"/>
<text text-anchor="middle" x="886" y="-399.5" font-family="Helvetica,sans-Serif" font-size="10.00">crypto_types.h</text>
</a>
</g>
</g>
<!-- Node10&#45;&gt;Node23 -->
<g id="edge18" class="edge">
<title>Node10&#45;&gt;Node23</title>
<path fill="none" stroke="midnightblue" d="M483.79,-452.22C559.25,-444.78 707.03,-429.47 832,-412 835.01,-411.58 838.11,-411.12 841.24,-410.65"/>
<polygon fill="midnightblue" stroke="midnightblue" points="483.24,-448.76 473.63,-453.22 483.92,-455.72 483.24,-448.76"/>
</g>
<!-- Node28 -->
<g id="node23" class="node">
<title>Node28</title>
<g id="a_node23"><a xlink:href="spec_2packet_8h.html" target="_top" xlink:title=" ">
<polygon fill="white" stroke="black" points="343,-280.5 343,-299.5 401,-299.5 401,-280.5 343,-280.5"/>
<text text-anchor="middle" x="372" y="-287.5" font-family="Helvetica,sans-Serif" font-size="10.00">packet.h</text>
</a>
</g>
</g>
<!-- Node10&#45;&gt;Node28 -->
<g id="edge25" class="edge">
<title>Node10&#45;&gt;Node28</title>
<path fill="none" stroke="midnightblue" d="M427.05,-438.39C413.68,-402.59 384.83,-325.34 375.2,-299.57"/>
<polygon fill="midnightblue" stroke="midnightblue" points="423.89,-439.93 430.67,-448.08 430.45,-437.48 423.89,-439.93"/>
</g>
<!-- Node10&#45;&gt;Node30 -->
<g id="edge27" class="edge">
<title>Node10&#45;&gt;Node30</title>
<path fill="none" stroke="midnightblue" d="M454.31,-442.38C467.86,-432.62 485.24,-420.11 496.73,-411.83"/>
<polygon fill="midnightblue" stroke="midnightblue" points="452.12,-439.64 446.05,-448.32 456.21,-445.32 452.12,-439.64"/>
</g>
<!-- Node10&#45;&gt;Node36 -->
<g id="edge36" class="edge">
<title>Node10&#45;&gt;Node36</title>
<path fill="none" stroke="midnightblue" d="M384.57,-446.7C343.17,-437.93 282.59,-424.75 230,-412 227.27,-411.34 224.42,-410.62 221.59,-409.9"/>
<polygon fill="midnightblue" stroke="midnightblue" points="383.89,-450.13 394.4,-448.78 385.34,-443.28 383.89,-450.13"/>
</g>
<!-- Node10&#45;&gt;Node13 -->
<g id="edge38" class="edge">
<title>Node10&#45;&gt;Node13</title>
<path fill="none" stroke="midnightblue" d="M384.32,-449.61C312.56,-438.93 181.12,-419.38 113.57,-409.33"/>
<polygon fill="midnightblue" stroke="midnightblue" points="384.06,-453.11 394.46,-451.12 385.09,-446.18 384.06,-453.11"/>
</g>
<!-- Node39 -->
<g id="node32" class="node">
<title>Node39</title>
<g id="a_node32"><a xlink:href="packet__inlines_8h.html" target="_top" xlink:title=" ">
<polygon fill="white" stroke="black" points="728.5,-392.5 728.5,-411.5 823.5,-411.5 823.5,-392.5 728.5,-392.5"/>
<text text-anchor="middle" x="776" y="-399.5" font-family="Helvetica,sans-Serif" font-size="10.00">packet_inlines.h</text>
</a>
</g>
</g>
<!-- Node10&#45;&gt;Node39 -->
<g id="edge39" class="edge">
<title>Node10&#45;&gt;Node39</title>
<path fill="none" stroke="midnightblue" d="M483.65,-449.16C549.18,-438.81 663.78,-420.72 728.31,-410.53"/>
<polygon fill="midnightblue" stroke="midnightblue" points="482.9,-445.74 473.57,-450.75 483.99,-452.65 482.9,-445.74"/>
</g>
<!-- Node40 -->
<g id="node33" class="node">
<title>Node40</title>
<g id="a_node33"><a xlink:href="packet__vector__inlines_8h.html" target="_top" xlink:title=" ">
<polygon fill="white" stroke="black" points="579.5,-392.5 579.5,-411.5 710.5,-411.5 710.5,-392.5 579.5,-392.5"/>
<text text-anchor="middle" x="645" y="-399.5" font-family="Helvetica,sans-Serif" font-size="10.00">packet_vector_inlines.h</text>
</a>
</g>
</g>
<!-- Node10&#45;&gt;Node40 -->
<g id="edge40" class="edge">
<title>Node10&#45;&gt;Node40</title>
<path fill="none" stroke="midnightblue" d="M477.14,-445.96C516.99,-435.76 575.36,-420.82 611.72,-411.52"/>
<polygon fill="midnightblue" stroke="midnightblue" points="476.25,-442.57 467.43,-448.44 477.99,-449.35 476.25,-442.57"/>
</g>
<!-- Node15 -->
<g id="node12" class="node">
<title>Node15</title>
<g id="a_node12"><a xlink:href="classification_8h.html" target="_top" xlink:title=" ">
<polygon fill="white" stroke="black" points="565.5,-224.5 565.5,-243.5 654.5,-243.5 654.5,-224.5 565.5,-224.5"/>
<text text-anchor="middle" x="610" y="-231.5" font-family="Helvetica,sans-Serif" font-size="10.00">classification.h</text>
</a>
</g>
</g>
<!-- Node14&#45;&gt;Node15 -->
<g id="edge11" class="edge">
<title>Node14&#45;&gt;Node15</title>
<path fill="none" stroke="midnightblue" d="M496.7,-276.91C524.15,-266.75 562.67,-252.51 586.97,-243.52"/>
<polygon fill="midnightblue" stroke="midnightblue" points="495.3,-273.69 487.13,-280.44 497.73,-280.26 495.3,-273.69"/>
</g>
<!-- Node16 -->
<g id="node13" class="node">
<title>Node16</title>
<g id="a_node13"><a xlink:href="spec_2ipsec__types_8h.html" target="_top" xlink:title=" ">
<polygon fill="white" stroke="black" points="742.5,-168.5 742.5,-187.5 825.5,-187.5 825.5,-168.5 742.5,-168.5"/>
<text text-anchor="middle" x="784" y="-175.5" font-family="Helvetica,sans-Serif" font-size="10.00">ipsec_types.h</text>
</a>
</g>
</g>
<!-- Node15&#45;&gt;Node16 -->
<g id="edge12" class="edge">
<title>Node15&#45;&gt;Node16</title>
<path fill="none" stroke="midnightblue" d="M647.26,-221.44C680.07,-211.26 727.08,-196.66 756.56,-187.52"/>
<polygon fill="midnightblue" stroke="midnightblue" points="646.08,-218.14 637.57,-224.44 648.16,-224.82 646.08,-218.14"/>
</g>
<!-- Node15&#45;&gt;Node21 -->
<g id="edge16" class="edge">
<title>Node15&#45;&gt;Node21</title>
<path fill="none" stroke="midnightblue" d="M555.23,-222.97C495.75,-212.09 402.42,-195 351.37,-185.66"/>
<polygon fill="midnightblue" stroke="midnightblue" points="554.73,-226.44 565.2,-224.8 555.99,-219.56 554.73,-226.44"/>
</g>
<!-- Node17 -->
<g id="node14" class="node">
<title>Node17</title>
<g id="a_node14"><a xlink:href="ipsec__types_8h.html" target="_top" xlink:title=" ">
<polygon fill="white" stroke="red" points="758.5,-112.5 758.5,-131.5 841.5,-131.5 841.5,-112.5 758.5,-112.5"/>
<text text-anchor="middle" x="800" y="-119.5" font-family="Helvetica,sans-Serif" font-size="10.00">ipsec_types.h</text>
</a>
</g>
</g>
<!-- Node16&#45;&gt;Node17 -->
<g id="edge13" class="edge">
<title>Node16&#45;&gt;Node17</title>
<path fill="none" stroke="midnightblue" d="M789.51,-158.4C792.19,-149.36 795.28,-138.94 797.41,-131.75"/>
<polygon fill="midnightblue" stroke="midnightblue" points="786.13,-157.5 786.64,-168.08 792.84,-159.49 786.13,-157.5"/>
</g>
<!-- Node18 -->
<g id="node15" class="node">
<title>Node18</title>
<g id="a_node15"><a xlink:href="spec_2ipsec_8h.html" target="_top" xlink:title=" ">
<polygon fill="white" stroke="black" points="860.5,-56.5 860.5,-75.5 911.5,-75.5 911.5,-56.5 860.5,-56.5"/>
<text text-anchor="middle" x="886" y="-63.5" font-family="Helvetica,sans-Serif" font-size="10.00">ipsec.h</text>
</a>
</g>
</g>
<!-- Node17&#45;&gt;Node18 -->
<g id="edge14" class="edge">
<title>Node17&#45;&gt;Node18</title>
<path fill="none" stroke="midnightblue" d="M822.45,-106.9C838.22,-97 858.81,-84.07 872.22,-75.65"/>
<polygon fill="midnightblue" stroke="midnightblue" points="820.43,-104.04 813.82,-112.32 824.15,-109.97 820.43,-104.04"/>
</g>
<!-- Node19 -->
<g id="node16" class="node">
<title>Node19</title>
<g id="a_node16"><a xlink:href="ipsec_8h.html" target="_top" xlink:title=" ">
<polygon fill="white" stroke="black" points="860.5,-0.5 860.5,-19.5 911.5,-19.5 911.5,-0.5 860.5,-0.5"/>
<text text-anchor="middle" x="886" y="-7.5" font-family="Helvetica,sans-Serif" font-size="10.00">ipsec.h</text>
</a>
</g>
</g>
<!-- Node18&#45;&gt;Node19 -->
<g id="edge15" class="edge">
<title>Node18&#45;&gt;Node19</title>
<path fill="none" stroke="midnightblue" d="M886,-45.8C886,-36.91 886,-26.78 886,-19.75"/>
<polygon fill="midnightblue" stroke="midnightblue" points="882.5,-46.08 886,-56.08 889.5,-46.08 882.5,-46.08"/>
</g>
<!-- Node22 -->
<g id="node18" class="node">
<title>Node22</title>
<g id="a_node18"><a xlink:href="packet__io_8h.html" target="_top" xlink:title=" ">
<polygon fill="white" stroke="black" points="279,-112.5 279,-131.5 351,-131.5 351,-112.5 279,-112.5"/>
<text text-anchor="middle" x="315" y="-119.5" font-family="Helvetica,sans-Serif" font-size="10.00">packet_io.h</text>
</a>
</g>
</g>
<!-- Node21&#45;&gt;Node22 -->
<g id="edge17" class="edge">
<title>Node21&#45;&gt;Node22</title>
<path fill="none" stroke="midnightblue" d="M315,-157.8C315,-148.91 315,-138.78 315,-131.75"/>
<polygon fill="midnightblue" stroke="midnightblue" points="311.5,-158.08 315,-168.08 318.5,-158.08 311.5,-158.08"/>
</g>
<!-- Node24 -->
<g id="node20" class="node">
<title>Node24</title>
<g id="a_node20"><a xlink:href="crypto__types_8h.html" target="_top" xlink:title=" ">
<polygon fill="white" stroke="red" points="841.5,-336.5 841.5,-355.5 930.5,-355.5 930.5,-336.5 841.5,-336.5"/>
<text text-anchor="middle" x="886" y="-343.5" font-family="Helvetica,sans-Serif" font-size="10.00">crypto_types.h</text>
</a>
</g>
</g>
<!-- Node23&#45;&gt;Node24 -->
<g id="edge19" class="edge">
<title>Node23&#45;&gt;Node24</title>
<path fill="none" stroke="midnightblue" d="M886,-381.8C886,-372.91 886,-362.78 886,-355.75"/>
<polygon fill="midnightblue" stroke="midnightblue" points="882.5,-382.08 886,-392.08 889.5,-382.08 882.5,-382.08"/>
</g>
<!-- Node24&#45;&gt;Node16 -->
<g id="edge23" class="edge">
<title>Node24&#45;&gt;Node16</title>
<path fill="none" stroke="midnightblue" d="M875.13,-327.31C853.39,-291.92 805.24,-213.56 789.26,-187.57"/>
<polygon fill="midnightblue" stroke="midnightblue" points="872.3,-329.39 880.52,-336.08 878.26,-325.72 872.3,-329.39"/>
</g>
<!-- Node24&#45;&gt;Node18 -->
<g id="edge22" class="edge">
<title>Node24&#45;&gt;Node18</title>
<path fill="none" stroke="midnightblue" d="M886,-326.25C886,-304.36 886,-267.05 886,-235 886,-235 886,-235 886,-177 886,-139.19 886,-94.06 886,-75.56"/>
<polygon fill="midnightblue" stroke="midnightblue" points="882.5,-326.44 886,-336.44 889.5,-326.44 882.5,-326.44"/>
</g>
<!-- Node25 -->
<g id="node21" class="node">
<title>Node25</title>
<g id="a_node21"><a xlink:href="spec_2crypto_8h.html" target="_top" xlink:title=" ">
<polygon fill="white" stroke="black" points="926,-280.5 926,-299.5 982,-299.5 982,-280.5 926,-280.5"/>
<text text-anchor="middle" x="954" y="-287.5" font-family="Helvetica,sans-Serif" font-size="10.00">crypto.h</text>
</a>
</g>
</g>
<!-- Node24&#45;&gt;Node25 -->
<g id="edge20" class="edge">
<title>Node24&#45;&gt;Node25</title>
<path fill="none" stroke="midnightblue" d="M904.76,-330.1C917,-320.38 932.56,-308.03 942.88,-299.83"/>
<polygon fill="midnightblue" stroke="midnightblue" points="902.58,-327.36 896.93,-336.32 906.93,-332.85 902.58,-327.36"/>
</g>
<!-- Node26 -->
<g id="node22" class="node">
<title>Node26</title>
<g id="a_node22"><a xlink:href="crypto_8h.html" target="_top" xlink:title=" ">
<polygon fill="white" stroke="black" points="926,-224.5 926,-243.5 982,-243.5 982,-224.5 926,-224.5"/>
<text text-anchor="middle" x="954" y="-231.5" font-family="Helvetica,sans-Serif" font-size="10.00">crypto.h</text>
</a>
</g>
</g>
<!-- Node25&#45;&gt;Node26 -->
<g id="edge21" class="edge">
<title>Node25&#45;&gt;Node26</title>
<path fill="none" stroke="midnightblue" d="M954,-269.8C954,-260.91 954,-250.78 954,-243.75"/>
<polygon fill="midnightblue" stroke="midnightblue" points="950.5,-270.08 954,-280.08 957.5,-270.08 950.5,-270.08"/>
</g>
<!-- Node29 -->
<g id="node24" class="node">
<title>Node29</title>
<g id="a_node24"><a xlink:href="packet_8h.html" target="_top" xlink:title=" ">
<polygon fill="white" stroke="red" points="343,-224.5 343,-243.5 401,-243.5 401,-224.5 343,-224.5"/>
<text text-anchor="middle" x="372" y="-231.5" font-family="Helvetica,sans-Serif" font-size="10.00">packet.h</text>
</a>
</g>
</g>
<!-- Node28&#45;&gt;Node29 -->
<g id="edge26" class="edge">
<title>Node28&#45;&gt;Node29</title>
<path fill="none" stroke="midnightblue" d="M372,-269.8C372,-260.91 372,-250.78 372,-243.75"/>
<polygon fill="midnightblue" stroke="midnightblue" points="368.5,-270.08 372,-280.08 375.5,-270.08 368.5,-270.08"/>
</g>
<!-- Node31 -->
<g id="node26" class="node">
<title>Node31</title>
<g id="a_node26"><a xlink:href="packet__io__types_8h.html" target="_top" xlink:title=" ">
<polygon fill="white" stroke="black" points="471,-336.5 471,-355.5 575,-355.5 575,-336.5 471,-336.5"/>
<text text-anchor="middle" x="523" y="-343.5" font-family="Helvetica,sans-Serif" font-size="10.00">packet_io_types.h</text>
</a>
</g>
</g>
<!-- Node30&#45;&gt;Node31 -->
<g id="edge28" class="edge">
<title>Node30&#45;&gt;Node31</title>
<path fill="none" stroke="midnightblue" d="M513.82,-382.4C516.17,-373.36 518.87,-362.94 520.73,-355.75"/>
<polygon fill="midnightblue" stroke="midnightblue" points="510.43,-381.52 511.31,-392.08 517.21,-383.28 510.43,-381.52"/>
</g>
<!-- Node31&#45;&gt;Node14 -->
<g id="edge29" class="edge">
<title>Node31&#45;&gt;Node14</title>
<path fill="none" stroke="midnightblue" d="M506.11,-329.54C495.59,-319.91 482.43,-307.87 473.65,-299.83"/>
<polygon fill="midnightblue" stroke="midnightblue" points="503.78,-332.15 513.52,-336.32 508.51,-326.99 503.78,-332.15"/>
</g>
<!-- Node31&#45;&gt;Node16 -->
<g id="edge30" class="edge">
<title>Node31&#45;&gt;Node16</title>
<path fill="none" stroke="midnightblue" d="M585.36,-339.3C623.91,-333.63 673.25,-322.36 712,-300 741.68,-282.87 747.94,-273.72 765,-244 775.65,-225.44 780.76,-200.42 782.83,-187.5"/>
<polygon fill="midnightblue" stroke="midnightblue" points="584.73,-335.85 575.3,-340.69 585.69,-342.79 584.73,-335.85"/>
</g>
<!-- Node31&#45;&gt;Node21 -->
<g id="edge32" class="edge">
<title>Node31&#45;&gt;Node21</title>
<path fill="none" stroke="midnightblue" d="M525.82,-325.82C526.83,-311.95 525.97,-293.39 517,-280 478.81,-223 398.44,-196.73 351.4,-185.82"/>
<polygon fill="midnightblue" stroke="midnightblue" points="522.29,-325.82 524.66,-336.14 529.25,-326.59 522.29,-325.82"/>
</g>
<!-- Node31&#45;&gt;Node28 -->
<g id="edge31" class="edge">
<title>Node31&#45;&gt;Node28</title>
<path fill="none" stroke="midnightblue" d="M489.55,-333.04C461.14,-322.88 421.06,-308.55 395.81,-299.52"/>
<polygon fill="midnightblue" stroke="midnightblue" points="488.48,-336.37 499.07,-336.44 490.84,-329.78 488.48,-336.37"/>
</g>
<!-- Node32 -->
<g id="node27" class="node">
<title>Node32</title>
<g id="a_node27"><a xlink:href="spec_2traffic__mngr_8h.html" target="_top" xlink:title=" ">
<polygon fill="white" stroke="black" points="619,-280.5 619,-299.5 703,-299.5 703,-280.5 619,-280.5"/>
<text text-anchor="middle" x="661" y="-287.5" font-family="Helvetica,sans-Serif" font-size="10.00">traffic_mngr.h</text>
</a>
</g>
</g>
<!-- Node31&#45;&gt;Node32 -->
<g id="edge33" class="edge">
<title>Node31&#45;&gt;Node32</title>
<path fill="none" stroke="midnightblue" d="M554.25,-332.77C580.17,-322.63 616.36,-308.47 639.24,-299.52"/>
<polygon fill="midnightblue" stroke="midnightblue" points="552.9,-329.54 544.87,-336.44 555.45,-336.06 552.9,-329.54"/>
</g>
<!-- Node33 -->
<g id="node28" class="node">
<title>Node33</title>
<g id="a_node28"><a xlink:href="traffic__mngr_8h.html" target="_top" xlink:title=" ">
<polygon fill="white" stroke="black" points="672,-224.5 672,-243.5 756,-243.5 756,-224.5 672,-224.5"/>
<text text-anchor="middle" x="714" y="-231.5" font-family="Helvetica,sans-Serif" font-size="10.00">traffic_mngr.h</text>
</a>
</g>
</g>
<!-- Node32&#45;&gt;Node33 -->
<g id="edge34" class="edge">
<title>Node32&#45;&gt;Node33</title>
<path fill="none" stroke="midnightblue" d="M676.98,-272.72C686.32,-263.2 697.75,-251.56 705.41,-243.75"/>
<polygon fill="midnightblue" stroke="midnightblue" points="674.26,-270.49 669.75,-280.08 679.25,-275.4 674.26,-270.49"/>
</g>
<!-- Node33&#45;&gt;Node16 -->
<g id="edge35" class="edge">
<title>Node33&#45;&gt;Node16</title>
<path fill="none" stroke="midnightblue" d="M733.31,-218.1C745.91,-208.38 761.93,-196.03 772.55,-187.83"/>
<polygon fill="midnightblue" stroke="midnightblue" points="731.03,-215.44 725.25,-224.32 735.3,-220.99 731.03,-215.44"/>
</g>
<!-- Node37 -->
<g id="node30" class="node">
<title>Node37</title>
<g id="a_node30"><a xlink:href="timer_8h.html" target="_top" xlink:title=" ">
<polygon fill="white" stroke="black" points="170.5,-336.5 170.5,-355.5 221.5,-355.5 221.5,-336.5 170.5,-336.5"/>
<text text-anchor="middle" x="196" y="-343.5" font-family="Helvetica,sans-Serif" font-size="10.00">timer.h</text>
</a>
</g>
</g>
<!-- Node36&#45;&gt;Node37 -->
<g id="edge37" class="edge">
<title>Node36&#45;&gt;Node37</title>
<path fill="none" stroke="midnightblue" d="M196,-381.8C196,-372.91 196,-362.78 196,-355.75"/>
<polygon fill="midnightblue" stroke="midnightblue" points="192.5,-382.08 196,-392.08 199.5,-382.08 192.5,-382.08"/>
</g>
<!-- Node43 -->
<g id="node35" class="node">
<title>Node43</title>
<g id="a_node35"><a xlink:href="packet__io__stats_8h.html" target="_top" xlink:title=" ">
<polygon fill="white" stroke="black" points="198.5,-448.5 198.5,-467.5 299.5,-467.5 299.5,-448.5 198.5,-448.5"/>
<text text-anchor="middle" x="249" y="-455.5" font-family="Helvetica,sans-Serif" font-size="10.00">packet_io_stats.h</text>
</a>
</g>
</g>
<!-- Node42&#45;&gt;Node43 -->
<g id="edge44" class="edge">
<title>Node42&#45;&gt;Node43</title>
<path fill="none" stroke="midnightblue" d="M332.65,-552.9C311.59,-529.25 273.01,-485.95 256.65,-467.59"/>
<polygon fill="midnightblue" stroke="midnightblue" points="330.04,-555.23 339.31,-560.37 335.27,-550.57 330.04,-555.23"/>
</g>
<!-- Node43&#45;&gt;Node21 -->
<g id="edge45" class="edge">
<title>Node43&#45;&gt;Node21</title>
<path fill="none" stroke="midnightblue" d="M209.18,-444.68C192.18,-437.59 173.44,-427.03 161,-412 141.81,-388.81 142,-377.1 142,-347 142,-347 142,-347 142,-289 142,-224.76 228,-196.42 278.73,-185.3"/>
<polygon fill="midnightblue" stroke="midnightblue" points="208.34,-448.1 218.93,-448.46 210.87,-441.58 208.34,-448.1"/>
</g>
<!-- Node43&#45;&gt;Node30 -->
<g id="edge46" class="edge">
<title>Node43&#45;&gt;Node30</title>
<path fill="none" stroke="midnightblue" d="M299.99,-446.41C349.13,-436.2 422.53,-420.96 467.99,-411.52"/>
<polygon fill="midnightblue" stroke="midnightblue" points="299.28,-442.98 290.2,-448.44 300.7,-449.84 299.28,-442.98"/>
</g>
<!-- Node45 -->
<g id="node37" class="node">
<title>Node45</title>
<g id="a_node37"><a xlink:href="packet__types_8h.html" target="_top" xlink:title=" ">
<polygon fill="white" stroke="black" points="533,-672.5 533,-691.5 623,-691.5 623,-672.5 533,-672.5"/>
<text text-anchor="middle" x="578" y="-679.5" font-family="Helvetica,sans-Serif" font-size="10.00">packet_types.h</text>
</a>
</g>
</g>
<!-- Node44&#45;&gt;Node45 -->
<g id="edge49" class="edge">
<title>Node44&#45;&gt;Node45</title>
<path fill="none" stroke="midnightblue" d="M576.07,-717.8C576.56,-708.91 577.12,-698.78 577.51,-691.75"/>
<polygon fill="midnightblue" stroke="midnightblue" points="572.56,-717.9 575.5,-728.08 579.54,-718.29 572.56,-717.9"/>
</g>
<!-- Node45&#45;&gt;Node3 -->
<g id="edge50" class="edge">
<title>Node45&#45;&gt;Node3</title>
<path fill="none" stroke="midnightblue" d="M529.37,-670.28C478.39,-659.05 400.18,-641.81 359.56,-632.85"/>
<polygon fill="midnightblue" stroke="midnightblue" points="528.66,-673.71 539.18,-672.44 530.17,-666.87 528.66,-673.71"/>
</g>
<!-- Node45&#45;&gt;Node5 -->
<g id="edge53" class="edge">
<title>Node45&#45;&gt;Node5</title>
<path fill="none" stroke="midnightblue" d="M522.5,-672.49C465.77,-663.71 375.16,-649.43 297,-636 294.1,-635.5 291.11,-634.98 288.1,-634.44"/>
<polygon fill="midnightblue" stroke="midnightblue" points="522.27,-676 532.69,-674.07 523.34,-669.08 522.27,-676"/>
</g>
<!-- Node45&#45;&gt;Node18 -->
<g id="edge58" class="edge">
<title>Node45&#45;&gt;Node18</title>
<path fill="none" stroke="midnightblue" d="M632.99,-672.14C728.17,-663.08 936.47,-686.2 997,-636 1020.17,-616.79 1016,-601.1 1016,-571 1016,-571 1016,-571 1016,-177 1016,-122.9 949.57,-89.93 911.68,-75.53"/>
<polygon fill="midnightblue" stroke="midnightblue" points="632.59,-668.66 623.05,-673.26 633.38,-675.62 632.59,-668.66"/>
</g>
<!-- Node45&#45;&gt;Node21 -->
<g id="edge61" class="edge">
<title>Node45&#45;&gt;Node21</title>
<path fill="none" stroke="midnightblue" d="M557.62,-666.01C525.71,-642.7 461.85,-596.63 406,-560 380.31,-543.15 364.37,-549.34 347,-524 301.8,-458.06 315,-426.94 315,-347 315,-347 315,-347 315,-289 315,-251.19 315,-206.06 315,-187.56"/>
<polygon fill="midnightblue" stroke="midnightblue" points="555.96,-669.13 566.09,-672.22 560.09,-663.48 555.96,-669.13"/>
</g>
<!-- Node45&#45;&gt;Node23 -->
<g id="edge52" class="edge">
<title>Node45&#45;&gt;Node23</title>
<path fill="none" stroke="midnightblue" d="M620.42,-669.34C664.16,-654.43 726,-623.98 726,-571 726,-571 726,-571 726,-513 726,-454.35 799.92,-424.61 847.27,-411.57"/>
<polygon fill="midnightblue" stroke="midnightblue" points="619.27,-666.03 610.85,-672.46 621.44,-672.69 619.27,-666.03"/>
</g>
<!-- Node45&#45;&gt;Node25 -->
<g id="edge51" class="edge">
<title>Node45&#45;&gt;Node25</title>
<path fill="none" stroke="midnightblue" d="M629.19,-669.88C655.5,-662.74 687.34,-651.78 713,-636 833.47,-561.92 876.65,-538.94 939,-412 957.85,-373.62 956.29,-320.47 954.8,-299.76"/>
<polygon fill="midnightblue" stroke="midnightblue" points="628.19,-666.53 619.4,-672.44 629.96,-673.3 628.19,-666.53"/>
</g>
<!-- Node45&#45;&gt;Node28 -->
<g id="edge59" class="edge">
<title>Node45&#45;&gt;Node28</title>
<path fill="none" stroke="midnightblue" d="M565.65,-664.35C533.9,-621.56 451.37,-510.67 444,-504 421.22,-483.39 401.01,-494.22 385,-468 350.8,-411.99 364.51,-326.65 370.08,-299.56"/>
<polygon fill="midnightblue" stroke="midnightblue" points="562.84,-666.43 571.61,-672.38 568.47,-662.26 562.84,-666.43"/>
</g>
<!-- Node45&#45;&gt;Node30 -->
<g id="edge62" class="edge">
<title>Node45&#45;&gt;Node30</title>
<path fill="none" stroke="midnightblue" d="M567.86,-663.43C556.6,-642.24 540,-605.19 540,-571 540,-571 540,-571 540,-513 540,-473.91 521.64,-429.84 513.18,-411.61"/>
<polygon fill="midnightblue" stroke="midnightblue" points="564.82,-665.17 572.72,-672.23 570.95,-661.78 564.82,-665.17"/>
</g>
<!-- Node45&#45;&gt;Node39 -->
<g id="edge66" class="edge">
<title>Node45&#45;&gt;Node39</title>
<path fill="none" stroke="midnightblue" d="M606.53,-667.84C639.12,-650.61 688,-617.09 688,-571 688,-571 688,-571 688,-513 688,-482.2 693.22,-472.41 712,-448 724.34,-431.96 744,-419.35 758.27,-411.61"/>
<polygon fill="midnightblue" stroke="midnightblue" points="604.75,-664.82 597.41,-672.46 607.91,-671.06 604.75,-664.82"/>
</g>
<!-- Node45&#45;&gt;Node40 -->
<g id="edge67" class="edge">
<title>Node45&#45;&gt;Node40</title>
<path fill="none" stroke="midnightblue" d="M578,-662.25C578,-640.36 578,-603.05 578,-571 578,-571 578,-571 578,-513 578,-482.9 581.24,-473.64 597,-448 606.21,-433.01 621.71,-419.77 632.6,-411.6"/>
<polygon fill="midnightblue" stroke="midnightblue" points="574.5,-662.44 578,-672.44 581.5,-662.44 574.5,-662.44"/>
</g>
<!-- Node46 -->
<g id="node38" class="node">
<title>Node46</title>
<g id="a_node38"><a xlink:href="spec_2event_8h.html" target="_top" xlink:title=" ">
<polygon fill="white" stroke="black" points="606.5,-504.5 606.5,-523.5 659.5,-523.5 659.5,-504.5 606.5,-504.5"/>
<text text-anchor="middle" x="633" y="-511.5" font-family="Helvetica,sans-Serif" font-size="10.00">event.h</text>
</a>
</g>
</g>
<!-- Node45&#45;&gt;Node46 -->
<g id="edge54" class="edge">
<title>Node45&#45;&gt;Node46</title>
<path fill="none" stroke="midnightblue" d="M584.16,-662.39C596.03,-626.59 621.62,-549.34 630.16,-523.57"/>
<polygon fill="midnightblue" stroke="midnightblue" points="580.78,-661.48 580.96,-672.08 587.42,-663.68 580.78,-661.48"/>
</g>
<!-- Node49 -->
<g id="node40" class="node">
<title>Node49</title>
<g id="a_node40"><a xlink:href="spec_2packet__flags_8h.html" target="_top" xlink:title=" ">
<polygon fill="white" stroke="red" points="792,-616.5 792,-635.5 878,-635.5 878,-616.5 792,-616.5"/>
<text text-anchor="middle" x="835" y="-623.5" font-family="Helvetica,sans-Serif" font-size="10.00">packet_flags.h</text>
</a>
</g>
</g>
<!-- Node45&#45;&gt;Node49 -->
<g id="edge60" class="edge">
<title>Node45&#45;&gt;Node49</title>
<path fill="none" stroke="midnightblue" d="M628.71,-670.35C677.28,-660.14 749.62,-644.94 794.47,-635.52"/>
<polygon fill="midnightblue" stroke="midnightblue" points="627.79,-666.96 618.72,-672.44 629.23,-673.81 627.79,-666.96"/>
</g>
<!-- Node51 -->
<g id="node41" class="node">
<title>Node51</title>
<g id="a_node41"><a xlink:href="event__inlines_8h_source.html" target="_top" xlink:title=" ">
<polygon fill="white" stroke="black" points="896.5,-616.5 896.5,-635.5 987.5,-635.5 987.5,-616.5 896.5,-616.5"/>
<text text-anchor="middle" x="942" y="-623.5" font-family="Helvetica,sans-Serif" font-size="10.00">event_inlines.h</text>
</a>
</g>
</g>
<!-- Node45&#45;&gt;Node51 -->
<g id="edge63" class="edge">
<title>Node45&#45;&gt;Node51</title>
<path fill="none" stroke="midnightblue" d="M633.22,-671.85C746.82,-654.5 777.05,-652.75 887,-636 890.06,-635.53 893.22,-635.04 896.39,-634.54"/>
<polygon fill="midnightblue" stroke="midnightblue" points="632.42,-668.43 623.07,-673.4 633.48,-675.35 632.42,-668.43"/>
</g>
<!-- Node52 -->
<g id="node42" class="node">
<title>Node52</title>
<g id="a_node42"><a xlink:href="event__validation__external_8h.html" target="_top" xlink:title=" ">
<polygon fill="white" stroke="black" points="1044.5,-616.5 1044.5,-635.5 1197.5,-635.5 1197.5,-616.5 1044.5,-616.5"/>
<text text-anchor="middle" x="1121" y="-623.5" font-family="Helvetica,sans-Serif" font-size="10.00">event_validation_external.h</text>
</a>
</g>
</g>
<!-- Node45&#45;&gt;Node52 -->
<g id="edge64" class="edge">
<title>Node45&#45;&gt;Node52</title>
<path fill="none" stroke="midnightblue" d="M633.21,-671.93C809.88,-649.5 856.46,-652.43 1030,-636 1034.58,-635.57 1039.3,-635.11 1044.05,-634.66"/>
<polygon fill="midnightblue" stroke="midnightblue" points="632.52,-668.49 623.04,-673.23 633.41,-675.44 632.52,-668.49"/>
</g>
<!-- Node47 -->
<g id="node39" class="node">
<title>Node47</title>
<g id="a_node39"><a xlink:href="event_8h.html" target="_top" xlink:title=" ">
<polygon fill="white" stroke="red" points="606.5,-448.5 606.5,-467.5 659.5,-467.5 659.5,-448.5 606.5,-448.5"/>
<text text-anchor="middle" x="633" y="-455.5" font-family="Helvetica,sans-Serif" font-size="10.00">event.h</text>
</a>
</g>
</g>
<!-- Node46&#45;&gt;Node47 -->
<g id="edge55" class="edge">
<title>Node46&#45;&gt;Node47</title>
<path fill="none" stroke="midnightblue" d="M633,-493.8C633,-484.91 633,-474.78 633,-467.75"/>
<polygon fill="midnightblue" stroke="midnightblue" points="629.5,-494.08 633,-504.08 636.5,-494.08 629.5,-494.08"/>
</g>
<!-- Node47&#45;&gt;Node39 -->
<g id="edge56" class="edge">
<title>Node47&#45;&gt;Node39</title>
<path fill="none" stroke="midnightblue" d="M665.03,-444.91C691.91,-434.75 729.64,-420.51 753.45,-411.52"/>
<polygon fill="midnightblue" stroke="midnightblue" points="663.78,-441.64 655.66,-448.44 666.25,-448.19 663.78,-441.64"/>
</g>
<!-- Node47&#45;&gt;Node40 -->
<g id="edge57" class="edge">
<title>Node47&#45;&gt;Node40</title>
<path fill="none" stroke="midnightblue" d="M637.2,-438.1C639.19,-429.14 641.48,-418.86 643.06,-411.75"/>
<polygon fill="midnightblue" stroke="midnightblue" points="633.73,-437.56 634.98,-448.08 640.57,-439.08 633.73,-437.56"/>
</g>
<!-- Node53 -->
<g id="node43" class="node">
<title>Node53</title>
<g id="a_node43"><a xlink:href="queue__inlines_8h_source.html" target="_top" xlink:title=" ">
<polygon fill="white" stroke="black" points="1126.5,-560.5 1126.5,-579.5 1219.5,-579.5 1219.5,-560.5 1126.5,-560.5"/>
<text text-anchor="middle" x="1173" y="-567.5" font-family="Helvetica,sans-Serif" font-size="10.00">queue_inlines.h</text>
</a>
</g>
</g>
<!-- Node52&#45;&gt;Node53 -->
<g id="edge65" class="edge">
<title>Node52&#45;&gt;Node53</title>
<path fill="none" stroke="midnightblue" d="M1136.68,-608.72C1145.84,-599.2 1157.05,-587.56 1164.57,-579.75"/>
<polygon fill="midnightblue" stroke="midnightblue" points="1134,-606.45 1129.59,-616.08 1139.04,-611.31 1134,-606.45"/>
</g>
<!-- Node55 -->
<g id="node45" class="node">
<title>Node55</title>
<g id="a_node45"><a xlink:href="queue_8h.html" target="_top" xlink:title=" ">
<polygon fill="white" stroke="black" points="779,-672.5 779,-691.5 835,-691.5 835,-672.5 779,-672.5"/>
<text text-anchor="middle" x="807" y="-679.5" font-family="Helvetica,sans-Serif" font-size="10.00">queue.h</text>
</a>
</g>
</g>
<!-- Node54&#45;&gt;Node55 -->
<g id="edge69" class="edge">
<title>Node54&#45;&gt;Node55</title>
<path fill="none" stroke="midnightblue" d="M729.58,-723.59C748.62,-713.61 774.06,-700.27 790.49,-691.65"/>
<polygon fill="midnightblue" stroke="midnightblue" points="727.78,-720.58 720.55,-728.32 731.03,-726.78 727.78,-720.58"/>
</g>
<!-- Node57 -->
<g id="node47" class="node">
<title>Node57</title>
<g id="a_node47"><a xlink:href="schedule_8h.html" target="_top" xlink:title=" ">
<polygon fill="white" stroke="black" points="853.5,-672.5 853.5,-691.5 922.5,-691.5 922.5,-672.5 853.5,-672.5"/>
<text text-anchor="middle" x="888" y="-679.5" font-family="Helvetica,sans-Serif" font-size="10.00">schedule.h</text>
</a>
</g>
</g>
<!-- Node56&#45;&gt;Node57 -->
<g id="edge71" class="edge">
<title>Node56&#45;&gt;Node57</title>
<path fill="none" stroke="midnightblue" d="M810.58,-723.59C829.62,-713.61 855.06,-700.27 871.49,-691.65"/>
<polygon fill="midnightblue" stroke="midnightblue" points="808.78,-720.58 801.55,-728.32 812.03,-726.78 808.78,-720.58"/>
</g>
<!-- Node58&#45;&gt;Node53 -->
<g id="edge75" class="edge">
<title>Node58&#45;&gt;Node53</title>
<path fill="none" stroke="midnightblue" d="M771.39,-672.17C851.74,-667.23 1175.57,-670.12 1207,-636 1222.79,-618.86 1198.63,-593.01 1183.57,-579.66"/>
<polygon fill="midnightblue" stroke="midnightblue" points="770.88,-668.7 761.19,-672.98 771.44,-675.68 770.88,-668.7"/>
</g>
<!-- Node59&#45;&gt;Node60 -->
<g id="edge77" class="edge">
<title>Node59&#45;&gt;Node60</title>
<path fill="none" stroke="midnightblue" d="M928.55,-723.18C945.48,-713.24 967.78,-700.15 982.26,-691.65"/>
<polygon fill="midnightblue" stroke="midnightblue" points="926.63,-720.24 919.78,-728.32 930.18,-726.28 926.63,-720.24"/>
</g>
</g>
</svg>
