<?xml version="1.0" encoding="UTF-8" standalone="no"?>
<!DOCTYPE svg PUBLIC "-//W3C//DTD SVG 1.1//EN"
 "http://www.w3.org/Graphics/SVG/1.1/DTD/svg11.dtd">
<!-- Generated by graphviz version 2.43.0 (0)
 -->
<!-- Title: proto_stats_types.h Pages: 1 -->
<svg width="1624pt" height="868pt"
 viewBox="0.00 0.00 1624.00 868.00" xmlns="http://www.w3.org/2000/svg" xmlns:xlink="http://www.w3.org/1999/xlink">
<g id="graph0" class="graph" transform="scale(1 1) rotate(0) translate(4 864)">
<title>proto_stats_types.h</title>
<polygon fill="white" stroke="transparent" points="-4,4 -4,-864 1620,-864 1620,4 -4,4"/>
<!-- Node1 -->
<g id="node1" class="node">
<title>Node1</title>
<g id="a_node1"><a xlink:title=" ">
<polygon fill="#bfbfbf" stroke="black" points="1451.5,-840.5 1451.5,-859.5 1564.5,-859.5 1564.5,-840.5 1451.5,-840.5"/>
<text text-anchor="middle" x="1508" y="-847.5" font-family="Helvetica,sans-Serif" font-size="10.00">proto_stats_types.h</text>
</a>
</g>
</g>
<!-- Node2 -->
<g id="node2" class="node">
<title>Node2</title>
<g id="a_node2"><a xlink:href="proto__stats__types_8h.html" target="_top" xlink:title=" ">
<polygon fill="white" stroke="black" points="1451.5,-784.5 1451.5,-803.5 1564.5,-803.5 1564.5,-784.5 1451.5,-784.5"/>
<text text-anchor="middle" x="1508" y="-791.5" font-family="Helvetica,sans-Serif" font-size="10.00">proto_stats_types.h</text>
</a>
</g>
</g>
<!-- Node1&#45;&gt;Node2 -->
<g id="edge1" class="edge">
<title>Node1&#45;&gt;Node2</title>
<path fill="none" stroke="midnightblue" d="M1508,-829.8C1508,-820.91 1508,-810.78 1508,-803.75"/>
<polygon fill="midnightblue" stroke="midnightblue" points="1504.5,-830.08 1508,-840.08 1511.5,-830.08 1504.5,-830.08"/>
</g>
<!-- Node3 -->
<g id="node3" class="node">
<title>Node3</title>
<g id="a_node3"><a xlink:href="spec_2packet_8h.html" target="_top" xlink:title=" ">
<polygon fill="white" stroke="black" points="1306,-280.5 1306,-299.5 1364,-299.5 1364,-280.5 1306,-280.5"/>
<text text-anchor="middle" x="1335" y="-287.5" font-family="Helvetica,sans-Serif" font-size="10.00">packet.h</text>
</a>
</g>
</g>
<!-- Node2&#45;&gt;Node3 -->
<g id="edge2" class="edge">
<title>Node2&#45;&gt;Node3</title>
<path fill="none" stroke="midnightblue" d="M1508,-774.25C1508,-752.36 1508,-715.05 1508,-683 1508,-683 1508,-683 1508,-401 1508,-333.73 1413.7,-305.83 1364.35,-295.84"/>
<polygon fill="midnightblue" stroke="midnightblue" points="1504.5,-774.44 1508,-784.44 1511.5,-774.44 1504.5,-774.44"/>
</g>
<!-- Node7 -->
<g id="node7" class="node">
<title>Node7</title>
<g id="a_node7"><a xlink:href="spec_2packet__types_8h.html" target="_top" xlink:title=" ">
<polygon fill="white" stroke="black" points="1077,-728.5 1077,-747.5 1167,-747.5 1167,-728.5 1077,-728.5"/>
<text text-anchor="middle" x="1122" y="-735.5" font-family="Helvetica,sans-Serif" font-size="10.00">packet_types.h</text>
</a>
</g>
</g>
<!-- Node2&#45;&gt;Node7 -->
<g id="edge6" class="edge">
<title>Node2&#45;&gt;Node7</title>
<path fill="none" stroke="midnightblue" d="M1441.21,-783.66C1362.79,-772.69 1234.88,-754.79 1167.24,-745.33"/>
<polygon fill="midnightblue" stroke="midnightblue" points="1441.07,-787.17 1451.46,-785.09 1442.04,-780.24 1441.07,-787.17"/>
</g>
<!-- Node52 -->
<g id="node49" class="node">
<title>Node52</title>
<g id="a_node49"><a xlink:href="spec_2proto__stats_8h.html" target="_top" xlink:title=" ">
<polygon fill="white" stroke="black" points="1536,-728.5 1536,-747.5 1616,-747.5 1616,-728.5 1536,-728.5"/>
<text text-anchor="middle" x="1576" y="-735.5" font-family="Helvetica,sans-Serif" font-size="10.00">proto_stats.h</text>
</a>
</g>
</g>
<!-- Node2&#45;&gt;Node52 -->
<g id="edge73" class="edge">
<title>Node2&#45;&gt;Node52</title>
<path fill="none" stroke="midnightblue" d="M1526.76,-778.1C1539,-768.38 1554.56,-756.03 1564.88,-747.83"/>
<polygon fill="midnightblue" stroke="midnightblue" points="1524.58,-775.36 1518.93,-784.32 1528.93,-780.85 1524.58,-775.36"/>
</g>
<!-- Node4 -->
<g id="node4" class="node">
<title>Node4</title>
<g id="a_node4"><a xlink:href="packet_8h.html" target="_top" xlink:title=" ">
<polygon fill="white" stroke="black" points="1306,-224.5 1306,-243.5 1364,-243.5 1364,-224.5 1306,-224.5"/>
<text text-anchor="middle" x="1335" y="-231.5" font-family="Helvetica,sans-Serif" font-size="10.00">packet.h</text>
</a>
</g>
</g>
<!-- Node3&#45;&gt;Node4 -->
<g id="edge3" class="edge">
<title>Node3&#45;&gt;Node4</title>
<path fill="none" stroke="midnightblue" d="M1335,-269.8C1335,-260.91 1335,-250.78 1335,-243.75"/>
<polygon fill="midnightblue" stroke="midnightblue" points="1331.5,-270.08 1335,-280.08 1338.5,-270.08 1331.5,-270.08"/>
</g>
<!-- Node5 -->
<g id="node5" class="node">
<title>Node5</title>
<g id="a_node5"><a xlink:href="crypto__inlines_8h_source.html" target="_top" xlink:title=" ">
<polygon fill="white" stroke="black" points="1217,-168.5 1217,-187.5 1311,-187.5 1311,-168.5 1217,-168.5"/>
<text text-anchor="middle" x="1264" y="-175.5" font-family="Helvetica,sans-Serif" font-size="10.00">crypto_inlines.h</text>
</a>
</g>
</g>
<!-- Node4&#45;&gt;Node5 -->
<g id="edge4" class="edge">
<title>Node4&#45;&gt;Node5</title>
<path fill="none" stroke="midnightblue" d="M1315.41,-218.1C1302.63,-208.38 1286.39,-196.03 1275.61,-187.83"/>
<polygon fill="midnightblue" stroke="midnightblue" points="1313.51,-221.06 1323.59,-224.32 1317.75,-215.48 1313.51,-221.06"/>
</g>
<!-- Node6 -->
<g id="node6" class="node">
<title>Node6</title>
<g id="a_node6"><a xlink:href="ipsec__inlines_8h_source.html" target="_top" xlink:title=" ">
<polygon fill="white" stroke="black" points="1294.5,-56.5 1294.5,-75.5 1383.5,-75.5 1383.5,-56.5 1294.5,-56.5"/>
<text text-anchor="middle" x="1339" y="-63.5" font-family="Helvetica,sans-Serif" font-size="10.00">ipsec_inlines.h</text>
</a>
</g>
</g>
<!-- Node4&#45;&gt;Node6 -->
<g id="edge5" class="edge">
<title>Node4&#45;&gt;Node6</title>
<path fill="none" stroke="midnightblue" d="M1335.46,-213.93C1336.33,-177.92 1338.18,-101.23 1338.79,-75.57"/>
<polygon fill="midnightblue" stroke="midnightblue" points="1331.96,-213.99 1335.22,-224.08 1338.96,-214.16 1331.96,-213.99"/>
</g>
<!-- Node8 -->
<g id="node8" class="node">
<title>Node8</title>
<g id="a_node8"><a xlink:href="packet__types_8h.html" target="_top" xlink:title=" ">
<polygon fill="white" stroke="black" points="746,-672.5 746,-691.5 836,-691.5 836,-672.5 746,-672.5"/>
<text text-anchor="middle" x="791" y="-679.5" font-family="Helvetica,sans-Serif" font-size="10.00">packet_types.h</text>
</a>
</g>
</g>
<!-- Node7&#45;&gt;Node8 -->
<g id="edge7" class="edge">
<title>Node7&#45;&gt;Node8</title>
<path fill="none" stroke="midnightblue" d="M1066.65,-727.97C1001.91,-717.41 895.99,-700.13 836.05,-690.35"/>
<polygon fill="midnightblue" stroke="midnightblue" points="1066.24,-731.45 1076.67,-729.6 1067.36,-724.54 1066.24,-731.45"/>
</g>
<!-- Node8&#45;&gt;Node3 -->
<g id="edge63" class="edge">
<title>Node8&#45;&gt;Node3</title>
<path fill="none" stroke="midnightblue" d="M846.52,-680.37C946.84,-678.37 1153.7,-670.12 1216,-636 1327.77,-574.79 1352.85,-532.27 1395,-412 1410.43,-367.97 1365.62,-319.27 1344.89,-299.78"/>
<polygon fill="midnightblue" stroke="midnightblue" points="846.21,-676.87 836.28,-680.56 846.34,-683.87 846.21,-676.87"/>
</g>
<!-- Node9 -->
<g id="node9" class="node">
<title>Node9</title>
<g id="a_node9"><a xlink:href="spec_2comp_8h.html" target="_top" xlink:title=" ">
<polygon fill="white" stroke="black" points="1426.5,-616.5 1426.5,-635.5 1479.5,-635.5 1479.5,-616.5 1426.5,-616.5"/>
<text text-anchor="middle" x="1453" y="-623.5" font-family="Helvetica,sans-Serif" font-size="10.00">comp.h</text>
</a>
</g>
</g>
<!-- Node8&#45;&gt;Node9 -->
<g id="edge8" class="edge">
<title>Node8&#45;&gt;Node9</title>
<path fill="none" stroke="midnightblue" d="M846.13,-679.66C954.87,-676.44 1204.48,-666.14 1412,-636 1416.62,-635.33 1421.49,-634.43 1426.2,-633.46"/>
<polygon fill="midnightblue" stroke="midnightblue" points="845.94,-676.17 836.05,-679.95 846.15,-683.16 845.94,-676.17"/>
</g>
<!-- Node11 -->
<g id="node11" class="node">
<title>Node11</title>
<g id="a_node11"><a xlink:href="spec_2crypto_8h.html" target="_top" xlink:title=" ">
<polygon fill="white" stroke="black" points="433,-168.5 433,-187.5 489,-187.5 489,-168.5 433,-168.5"/>
<text text-anchor="middle" x="461" y="-175.5" font-family="Helvetica,sans-Serif" font-size="10.00">crypto.h</text>
</a>
</g>
</g>
<!-- Node8&#45;&gt;Node11 -->
<g id="edge10" class="edge">
<title>Node8&#45;&gt;Node11</title>
<path fill="none" stroke="midnightblue" d="M735.62,-678.96C615.96,-673.03 344,-650.79 344,-571 344,-571 344,-571 344,-457 344,-351.26 413.79,-343.35 450,-244 457.06,-224.64 459.63,-200.37 460.53,-187.67"/>
<polygon fill="midnightblue" stroke="midnightblue" points="735.52,-682.46 745.68,-679.43 735.86,-675.46 735.52,-682.46"/>
</g>
<!-- Node13 -->
<g id="node13" class="node">
<title>Node13</title>
<g id="a_node13"><a xlink:href="spec_2crypto__types_8h.html" target="_top" xlink:title=" ">
<polygon fill="white" stroke="black" points="226.5,-392.5 226.5,-411.5 315.5,-411.5 315.5,-392.5 226.5,-392.5"/>
<text text-anchor="middle" x="271" y="-399.5" font-family="Helvetica,sans-Serif" font-size="10.00">crypto_types.h</text>
</a>
</g>
</g>
<!-- Node8&#45;&gt;Node13 -->
<g id="edge12" class="edge">
<title>Node8&#45;&gt;Node13</title>
<path fill="none" stroke="midnightblue" d="M735.53,-681.56C628.14,-681.7 396.57,-677.06 330,-636 300.93,-618.07 289,-605.16 289,-571 289,-571 289,-571 289,-513 289,-474.88 278.34,-430.29 273.43,-411.76"/>
<polygon fill="midnightblue" stroke="midnightblue" points="735.84,-685.06 745.83,-681.54 735.82,-678.06 735.84,-685.06"/>
</g>
<!-- Node15 -->
<g id="node15" class="node">
<title>Node15</title>
<g id="a_node15"><a xlink:href="spec_2ipsec_8h.html" target="_top" xlink:title=" ">
<polygon fill="white" stroke="black" points="298.5,-56.5 298.5,-75.5 349.5,-75.5 349.5,-56.5 298.5,-56.5"/>
<text text-anchor="middle" x="324" y="-63.5" font-family="Helvetica,sans-Serif" font-size="10.00">ipsec.h</text>
</a>
</g>
</g>
<!-- Node8&#45;&gt;Node15 -->
<g id="edge62" class="edge">
<title>Node8&#45;&gt;Node15</title>
<path fill="none" stroke="midnightblue" d="M735.79,-680.11C575.11,-677.19 115.29,-666.23 55,-636 21.17,-619.04 0,-608.84 0,-571 0,-571 0,-571 0,-177 0,-144.8 6.04,-131.05 32,-112 74.28,-80.97 235.34,-70.8 298.44,-67.96"/>
<polygon fill="midnightblue" stroke="midnightblue" points="735.87,-683.61 745.93,-680.29 736,-676.62 735.87,-683.61"/>
</g>
<!-- Node19 -->
<g id="node19" class="node">
<title>Node19</title>
<g id="a_node19"><a xlink:href="spec_2dma__types_8h.html" target="_top" xlink:title=" ">
<polygon fill="white" stroke="black" points="645,-616.5 645,-635.5 725,-635.5 725,-616.5 645,-616.5"/>
<text text-anchor="middle" x="685" y="-623.5" font-family="Helvetica,sans-Serif" font-size="10.00">dma_types.h</text>
</a>
</g>
</g>
<!-- Node8&#45;&gt;Node19 -->
<g id="edge22" class="edge">
<title>Node8&#45;&gt;Node19</title>
<path fill="none" stroke="midnightblue" d="M764.94,-667.73C745.32,-657.73 718.97,-644.31 701.99,-635.65"/>
<polygon fill="midnightblue" stroke="midnightblue" points="763.47,-670.9 773.97,-672.32 766.65,-664.67 763.47,-670.9"/>
</g>
<!-- Node30 -->
<g id="node28" class="node">
<title>Node30</title>
<g id="a_node28"><a xlink:href="spec_2packet__io_8h.html" target="_top" xlink:title=" ">
<polygon fill="white" stroke="black" points="41,-168.5 41,-187.5 113,-187.5 113,-168.5 41,-168.5"/>
<text text-anchor="middle" x="77" y="-175.5" font-family="Helvetica,sans-Serif" font-size="10.00">packet_io.h</text>
</a>
</g>
</g>
<!-- Node8&#45;&gt;Node30 -->
<g id="edge66" class="edge">
<title>Node8&#45;&gt;Node30</title>
<path fill="none" stroke="midnightblue" d="M735.66,-681.54C632.59,-681.48 404.72,-676.28 218,-636 134.86,-618.06 38,-656.06 38,-571 38,-571 38,-571 38,-289 38,-249.29 60.86,-205.9 71.58,-187.75"/>
<polygon fill="midnightblue" stroke="midnightblue" points="735.83,-685.04 745.83,-681.53 735.83,-678.04 735.83,-685.04"/>
</g>
<!-- Node32 -->
<g id="node30" class="node">
<title>Node32</title>
<g id="a_node30"><a xlink:href="spec_2packet__io__types_8h.html" target="_top" xlink:title=" ">
<polygon fill="white" stroke="black" points="66,-392.5 66,-411.5 170,-411.5 170,-392.5 66,-392.5"/>
<text text-anchor="middle" x="118" y="-399.5" font-family="Helvetica,sans-Serif" font-size="10.00">packet_io_types.h</text>
</a>
</g>
</g>
<!-- Node8&#45;&gt;Node32 -->
<g id="edge67" class="edge">
<title>Node8&#45;&gt;Node32</title>
<path fill="none" stroke="midnightblue" d="M735.33,-679.05C624.38,-674.66 379.54,-662.24 300,-636 247.16,-618.57 193,-626.64 193,-571 193,-571 193,-571 193,-513 193,-468.39 150.37,-428.52 129.39,-411.6"/>
<polygon fill="midnightblue" stroke="midnightblue" points="735.51,-682.56 745.64,-679.45 735.78,-675.57 735.51,-682.56"/>
</g>
<!-- Node41 -->
<g id="node38" class="node">
<title>Node41</title>
<g id="a_node38"><a xlink:href="packet__inlines_8h.html" target="_top" xlink:title=" ">
<polygon fill="white" stroke="black" points="996.5,-392.5 996.5,-411.5 1091.5,-411.5 1091.5,-392.5 996.5,-392.5"/>
<text text-anchor="middle" x="1044" y="-399.5" font-family="Helvetica,sans-Serif" font-size="10.00">packet_inlines.h</text>
</a>
</g>
</g>
<!-- Node8&#45;&gt;Node41 -->
<g id="edge71" class="edge">
<title>Node8&#45;&gt;Node41</title>
<path fill="none" stroke="midnightblue" d="M785.51,-662.6C779.09,-637.11 771.83,-590.75 793,-560 849.69,-477.65 965.12,-429.81 1017.32,-411.57"/>
<polygon fill="midnightblue" stroke="midnightblue" points="782.18,-663.71 788.21,-672.42 788.93,-661.85 782.18,-663.71"/>
</g>
<!-- Node42 -->
<g id="node39" class="node">
<title>Node42</title>
<g id="a_node39"><a xlink:href="packet__vector__inlines_8h.html" target="_top" xlink:title=" ">
<polygon fill="white" stroke="black" points="1109.5,-392.5 1109.5,-411.5 1240.5,-411.5 1240.5,-392.5 1109.5,-392.5"/>
<text text-anchor="middle" x="1175" y="-399.5" font-family="Helvetica,sans-Serif" font-size="10.00">packet_vector_inlines.h</text>
</a>
</g>
</g>
<!-- Node8&#45;&gt;Node42 -->
<g id="edge72" class="edge">
<title>Node8&#45;&gt;Node42</title>
<path fill="none" stroke="midnightblue" d="M846.16,-678.17C950.28,-672.36 1167.73,-657.76 1194,-636 1217.28,-616.72 1214,-601.23 1214,-571 1214,-571 1214,-571 1214,-513 1214,-473.29 1191.14,-429.9 1180.42,-411.75"/>
<polygon fill="midnightblue" stroke="midnightblue" points="845.94,-674.68 836.15,-678.73 846.33,-681.67 845.94,-674.68"/>
</g>
<!-- Node44 -->
<g id="node41" class="node">
<title>Node44</title>
<g id="a_node41"><a xlink:href="spec_2event_8h.html" target="_top" xlink:title=" ">
<polygon fill="white" stroke="black" points="1242.5,-504.5 1242.5,-523.5 1295.5,-523.5 1295.5,-504.5 1242.5,-504.5"/>
<text text-anchor="middle" x="1269" y="-511.5" font-family="Helvetica,sans-Serif" font-size="10.00">event.h</text>
</a>
</g>
</g>
<!-- Node8&#45;&gt;Node44 -->
<g id="edge54" class="edge">
<title>Node8&#45;&gt;Node44</title>
<path fill="none" stroke="midnightblue" d="M787.68,-662.4C784.08,-635.55 782.12,-586.31 810,-560 841.59,-530.19 1149.43,-518.58 1242.49,-515.74"/>
<polygon fill="midnightblue" stroke="midnightblue" points="784.24,-663.06 789.25,-672.4 791.16,-661.98 784.24,-663.06"/>
</g>
<!-- Node47 -->
<g id="node44" class="node">
<title>Node47</title>
<g id="a_node44"><a xlink:href="spec_2packet__flags_8h.html" target="_top" xlink:title=" ">
<polygon fill="white" stroke="black" points="819,-616.5 819,-635.5 905,-635.5 905,-616.5 819,-616.5"/>
<text text-anchor="middle" x="862" y="-623.5" font-family="Helvetica,sans-Serif" font-size="10.00">packet_flags.h</text>
</a>
</g>
</g>
<!-- Node8&#45;&gt;Node47 -->
<g id="edge64" class="edge">
<title>Node8&#45;&gt;Node47</title>
<path fill="none" stroke="midnightblue" d="M810.59,-666.1C823.37,-656.38 839.61,-644.03 850.39,-635.83"/>
<polygon fill="midnightblue" stroke="midnightblue" points="808.25,-663.48 802.41,-672.32 812.49,-669.06 808.25,-663.48"/>
</g>
<!-- Node49 -->
<g id="node46" class="node">
<title>Node49</title>
<g id="a_node46"><a xlink:href="event__inlines_8h_source.html" target="_top" xlink:title=" ">
<polygon fill="white" stroke="black" points="923.5,-616.5 923.5,-635.5 1014.5,-635.5 1014.5,-616.5 923.5,-616.5"/>
<text text-anchor="middle" x="969" y="-623.5" font-family="Helvetica,sans-Serif" font-size="10.00">event_inlines.h</text>
</a>
</g>
</g>
<!-- Node8&#45;&gt;Node49 -->
<g id="edge68" class="edge">
<title>Node8&#45;&gt;Node49</title>
<path fill="none" stroke="midnightblue" d="M829.12,-669.44C862.68,-659.26 910.77,-644.66 940.93,-635.52"/>
<polygon fill="midnightblue" stroke="midnightblue" points="827.76,-666.19 819.2,-672.44 829.79,-672.89 827.76,-666.19"/>
</g>
<!-- Node50 -->
<g id="node47" class="node">
<title>Node50</title>
<g id="a_node47"><a xlink:href="event__validation__external_8h.html" target="_top" xlink:title=" ">
<polygon fill="white" stroke="black" points="1032.5,-616.5 1032.5,-635.5 1185.5,-635.5 1185.5,-616.5 1032.5,-616.5"/>
<text text-anchor="middle" x="1109" y="-623.5" font-family="Helvetica,sans-Serif" font-size="10.00">event_validation_external.h</text>
</a>
</g>
</g>
<!-- Node8&#45;&gt;Node50 -->
<g id="edge69" class="edge">
<title>Node8&#45;&gt;Node50</title>
<path fill="none" stroke="midnightblue" d="M846.25,-671.62C906.12,-661.45 1000.82,-645.37 1058.69,-635.54"/>
<polygon fill="midnightblue" stroke="midnightblue" points="845.5,-668.2 836.22,-673.32 846.67,-675.1 845.5,-668.2"/>
</g>
<!-- Node10 -->
<g id="node10" class="node">
<title>Node10</title>
<g id="a_node10"><a xlink:href="comp_8h.html" target="_top" xlink:title=" ">
<polygon fill="white" stroke="black" points="1426.5,-560.5 1426.5,-579.5 1479.5,-579.5 1479.5,-560.5 1426.5,-560.5"/>
<text text-anchor="middle" x="1453" y="-567.5" font-family="Helvetica,sans-Serif" font-size="10.00">comp.h</text>
</a>
</g>
</g>
<!-- Node9&#45;&gt;Node10 -->
<g id="edge9" class="edge">
<title>Node9&#45;&gt;Node10</title>
<path fill="none" stroke="midnightblue" d="M1453,-605.8C1453,-596.91 1453,-586.78 1453,-579.75"/>
<polygon fill="midnightblue" stroke="midnightblue" points="1449.5,-606.08 1453,-616.08 1456.5,-606.08 1449.5,-606.08"/>
</g>
<!-- Node12 -->
<g id="node12" class="node">
<title>Node12</title>
<g id="a_node12"><a xlink:href="crypto_8h.html" target="_top" xlink:title=" ">
<polygon fill="white" stroke="black" points="433,-112.5 433,-131.5 489,-131.5 489,-112.5 433,-112.5"/>
<text text-anchor="middle" x="461" y="-119.5" font-family="Helvetica,sans-Serif" font-size="10.00">crypto.h</text>
</a>
</g>
</g>
<!-- Node11&#45;&gt;Node12 -->
<g id="edge11" class="edge">
<title>Node11&#45;&gt;Node12</title>
<path fill="none" stroke="midnightblue" d="M461,-157.8C461,-148.91 461,-138.78 461,-131.75"/>
<polygon fill="midnightblue" stroke="midnightblue" points="457.5,-158.08 461,-168.08 464.5,-158.08 457.5,-158.08"/>
</g>
<!-- Node14 -->
<g id="node14" class="node">
<title>Node14</title>
<g id="a_node14"><a xlink:href="crypto__types_8h.html" target="_top" xlink:title=" ">
<polygon fill="white" stroke="black" points="352.5,-224.5 352.5,-243.5 441.5,-243.5 441.5,-224.5 352.5,-224.5"/>
<text text-anchor="middle" x="397" y="-231.5" font-family="Helvetica,sans-Serif" font-size="10.00">crypto_types.h</text>
</a>
</g>
</g>
<!-- Node13&#45;&gt;Node14 -->
<g id="edge13" class="edge">
<title>Node13&#45;&gt;Node14</title>
<path fill="none" stroke="midnightblue" d="M298.11,-387.6C311.71,-379.83 327.67,-369.01 339,-356 370.21,-320.17 388.51,-264.61 394.66,-243.51"/>
<polygon fill="midnightblue" stroke="midnightblue" points="296.25,-384.62 289.15,-392.48 299.6,-390.77 296.25,-384.62"/>
</g>
<!-- Node14&#45;&gt;Node5 -->
<g id="edge21" class="edge">
<title>Node14&#45;&gt;Node5</title>
<path fill="none" stroke="midnightblue" d="M451.8,-229.59C610.45,-219.71 1068.3,-191.19 1216.85,-181.94"/>
<polygon fill="midnightblue" stroke="midnightblue" points="451.55,-226.1 441.79,-230.21 451.99,-233.08 451.55,-226.1"/>
</g>
<!-- Node14&#45;&gt;Node11 -->
<g id="edge14" class="edge">
<title>Node14&#45;&gt;Node11</title>
<path fill="none" stroke="midnightblue" d="M414.99,-217.82C426.46,-208.15 440.91,-195.95 450.53,-187.83"/>
<polygon fill="midnightblue" stroke="midnightblue" points="412.67,-215.2 407.28,-224.32 417.18,-220.55 412.67,-215.2"/>
</g>
<!-- Node14&#45;&gt;Node15 -->
<g id="edge15" class="edge">
<title>Node14&#45;&gt;Node15</title>
<path fill="none" stroke="midnightblue" d="M397.07,-214.22C396.38,-189.3 392.39,-144.65 374,-112 365.29,-96.53 349.3,-83.57 337.74,-75.59"/>
<polygon fill="midnightblue" stroke="midnightblue" points="393.57,-214.49 397.19,-224.45 400.57,-214.41 393.57,-214.49"/>
</g>
<!-- Node17 -->
<g id="node17" class="node">
<title>Node17</title>
<g id="a_node17"><a xlink:href="spec_2ipsec__types_8h.html" target="_top" xlink:title=" ">
<polygon fill="white" stroke="black" points="282.5,-168.5 282.5,-187.5 365.5,-187.5 365.5,-168.5 282.5,-168.5"/>
<text text-anchor="middle" x="324" y="-175.5" font-family="Helvetica,sans-Serif" font-size="10.00">ipsec_types.h</text>
</a>
</g>
</g>
<!-- Node14&#45;&gt;Node17 -->
<g id="edge17" class="edge">
<title>Node14&#45;&gt;Node17</title>
<path fill="none" stroke="midnightblue" d="M376.86,-218.1C363.72,-208.38 347.02,-196.03 335.94,-187.83"/>
<polygon fill="midnightblue" stroke="midnightblue" points="375.15,-221.19 385.27,-224.32 379.31,-215.56 375.15,-221.19"/>
</g>
<!-- Node16 -->
<g id="node16" class="node">
<title>Node16</title>
<g id="a_node16"><a xlink:href="ipsec_8h.html" target="_top" xlink:title=" ">
<polygon fill="white" stroke="black" points="298.5,-0.5 298.5,-19.5 349.5,-19.5 349.5,-0.5 298.5,-0.5"/>
<text text-anchor="middle" x="324" y="-7.5" font-family="Helvetica,sans-Serif" font-size="10.00">ipsec.h</text>
</a>
</g>
</g>
<!-- Node15&#45;&gt;Node16 -->
<g id="edge16" class="edge">
<title>Node15&#45;&gt;Node16</title>
<path fill="none" stroke="midnightblue" d="M324,-45.8C324,-36.91 324,-26.78 324,-19.75"/>
<polygon fill="midnightblue" stroke="midnightblue" points="320.5,-46.08 324,-56.08 327.5,-46.08 320.5,-46.08"/>
</g>
<!-- Node18 -->
<g id="node18" class="node">
<title>Node18</title>
<g id="a_node18"><a xlink:href="ipsec__types_8h.html" target="_top" xlink:title=" ">
<polygon fill="white" stroke="black" points="282.5,-112.5 282.5,-131.5 365.5,-131.5 365.5,-112.5 282.5,-112.5"/>
<text text-anchor="middle" x="324" y="-119.5" font-family="Helvetica,sans-Serif" font-size="10.00">ipsec_types.h</text>
</a>
</g>
</g>
<!-- Node17&#45;&gt;Node18 -->
<g id="edge18" class="edge">
<title>Node17&#45;&gt;Node18</title>
<path fill="none" stroke="midnightblue" d="M324,-157.8C324,-148.91 324,-138.78 324,-131.75"/>
<polygon fill="midnightblue" stroke="midnightblue" points="320.5,-158.08 324,-168.08 327.5,-158.08 320.5,-158.08"/>
</g>
<!-- Node18&#45;&gt;Node6 -->
<g id="edge20" class="edge">
<title>Node18&#45;&gt;Node6</title>
<path fill="none" stroke="midnightblue" d="M376.19,-115.9C391.58,-114.5 408.46,-113.08 424,-112 757.99,-88.77 1161.37,-73.32 1294.21,-68.56"/>
<polygon fill="midnightblue" stroke="midnightblue" points="375.45,-112.45 365.81,-116.86 376.09,-119.42 375.45,-112.45"/>
</g>
<!-- Node18&#45;&gt;Node15 -->
<g id="edge19" class="edge">
<title>Node18&#45;&gt;Node15</title>
<path fill="none" stroke="midnightblue" d="M324,-101.8C324,-92.91 324,-82.78 324,-75.75"/>
<polygon fill="midnightblue" stroke="midnightblue" points="320.5,-102.08 324,-112.08 327.5,-102.08 320.5,-102.08"/>
</g>
<!-- Node20 -->
<g id="node20" class="node">
<title>Node20</title>
<g id="a_node20"><a xlink:href="dma__types_8h.html" target="_top" xlink:title=" ">
<polygon fill="white" stroke="black" points="645,-560.5 645,-579.5 725,-579.5 725,-560.5 645,-560.5"/>
<text text-anchor="middle" x="685" y="-567.5" font-family="Helvetica,sans-Serif" font-size="10.00">dma_types.h</text>
</a>
</g>
</g>
<!-- Node19&#45;&gt;Node20 -->
<g id="edge23" class="edge">
<title>Node19&#45;&gt;Node20</title>
<path fill="none" stroke="midnightblue" d="M685,-605.8C685,-596.91 685,-586.78 685,-579.75"/>
<polygon fill="midnightblue" stroke="midnightblue" points="681.5,-606.08 685,-616.08 688.5,-606.08 681.5,-606.08"/>
</g>
<!-- Node21 -->
<g id="node21" class="node">
<title>Node21</title>
<g id="a_node21"><a xlink:href="spec_2dma_8h.html" target="_top" xlink:title=" ">
<polygon fill="white" stroke="black" points="820.5,-392.5 820.5,-411.5 867.5,-411.5 867.5,-392.5 820.5,-392.5"/>
<text text-anchor="middle" x="844" y="-399.5" font-family="Helvetica,sans-Serif" font-size="10.00">dma.h</text>
</a>
</g>
</g>
<!-- Node20&#45;&gt;Node21 -->
<g id="edge24" class="edge">
<title>Node20&#45;&gt;Node21</title>
<path fill="none" stroke="midnightblue" d="M692.44,-551.11C705.11,-521.33 731.02,-463.37 747,-448 767.74,-428.06 798.93,-415.77 820.3,-409.17"/>
<polygon fill="midnightblue" stroke="midnightblue" points="689.21,-549.77 688.56,-560.35 695.66,-552.49 689.21,-549.77"/>
</g>
<!-- Node23 -->
<g id="node23" class="node">
<title>Node23</title>
<g id="a_node23"><a xlink:href="spec_2pool__types_8h.html" target="_top" xlink:title=" ">
<polygon fill="white" stroke="black" points="577.5,-504.5 577.5,-523.5 656.5,-523.5 656.5,-504.5 577.5,-504.5"/>
<text text-anchor="middle" x="617" y="-511.5" font-family="Helvetica,sans-Serif" font-size="10.00">pool_types.h</text>
</a>
</g>
</g>
<!-- Node20&#45;&gt;Node23 -->
<g id="edge26" class="edge">
<title>Node20&#45;&gt;Node23</title>
<path fill="none" stroke="midnightblue" d="M666.24,-554.1C654,-544.38 638.44,-532.03 628.12,-523.83"/>
<polygon fill="midnightblue" stroke="midnightblue" points="664.07,-556.85 674.07,-560.32 668.42,-551.36 664.07,-556.85"/>
</g>
<!-- Node27 -->
<g id="node37" class="node">
<title>Node27</title>
<g id="a_node37"><a xlink:href="dma__inlines_8h_source.html" target="_top" xlink:title=" ">
<polygon fill="white" stroke="black" points="717.5,-392.5 717.5,-411.5 802.5,-411.5 802.5,-392.5 717.5,-392.5"/>
<text text-anchor="middle" x="760" y="-399.5" font-family="Helvetica,sans-Serif" font-size="10.00">dma_inlines.h</text>
</a>
</g>
</g>
<!-- Node20&#45;&gt;Node27 -->
<g id="edge53" class="edge">
<title>Node20&#45;&gt;Node27</title>
<path fill="none" stroke="midnightblue" d="M685.07,-550.19C685.95,-525.23 690.29,-480.54 709,-448 717.95,-432.44 734.25,-419.49 746.02,-411.54"/>
<polygon fill="midnightblue" stroke="midnightblue" points="681.57,-550.37 684.87,-560.43 688.57,-550.5 681.57,-550.37"/>
</g>
<!-- Node22 -->
<g id="node22" class="node">
<title>Node22</title>
<g id="a_node22"><a xlink:href="dma_8h.html" target="_top" xlink:title=" ">
<polygon fill="white" stroke="black" points="820.5,-336.5 820.5,-355.5 867.5,-355.5 867.5,-336.5 820.5,-336.5"/>
<text text-anchor="middle" x="844" y="-343.5" font-family="Helvetica,sans-Serif" font-size="10.00">dma.h</text>
</a>
</g>
</g>
<!-- Node21&#45;&gt;Node22 -->
<g id="edge25" class="edge">
<title>Node21&#45;&gt;Node22</title>
<path fill="none" stroke="midnightblue" d="M844,-381.8C844,-372.91 844,-362.78 844,-355.75"/>
<polygon fill="midnightblue" stroke="midnightblue" points="840.5,-382.08 844,-392.08 847.5,-382.08 840.5,-382.08"/>
</g>
<!-- Node24 -->
<g id="node24" class="node">
<title>Node24</title>
<g id="a_node24"><a xlink:href="pool__types_8h.html" target="_top" xlink:title=" ">
<polygon fill="white" stroke="black" points="577.5,-448.5 577.5,-467.5 656.5,-467.5 656.5,-448.5 577.5,-448.5"/>
<text text-anchor="middle" x="617" y="-455.5" font-family="Helvetica,sans-Serif" font-size="10.00">pool_types.h</text>
</a>
</g>
</g>
<!-- Node23&#45;&gt;Node24 -->
<g id="edge27" class="edge">
<title>Node23&#45;&gt;Node24</title>
<path fill="none" stroke="midnightblue" d="M617,-493.8C617,-484.91 617,-474.78 617,-467.75"/>
<polygon fill="midnightblue" stroke="midnightblue" points="613.5,-494.08 617,-504.08 620.5,-494.08 613.5,-494.08"/>
</g>
<!-- Node24&#45;&gt;Node3 -->
<g id="edge36" class="edge">
<title>Node24&#45;&gt;Node3</title>
<path fill="none" stroke="midnightblue" d="M634.16,-441.75C666.18,-414.4 738.41,-357.81 811,-336 904.9,-307.79 1210,-295.24 1305.88,-291.93"/>
<polygon fill="midnightblue" stroke="midnightblue" points="631.82,-439.14 626.56,-448.34 636.41,-444.43 631.82,-439.14"/>
</g>
<!-- Node24&#45;&gt;Node13 -->
<g id="edge34" class="edge">
<title>Node24&#45;&gt;Node13</title>
<path fill="none" stroke="midnightblue" d="M567.35,-449.25C499.93,-438.73 380.41,-420.08 315.67,-409.97"/>
<polygon fill="midnightblue" stroke="midnightblue" points="566.89,-452.72 577.31,-450.81 567.97,-445.81 566.89,-452.72"/>
</g>
<!-- Node24&#45;&gt;Node21 -->
<g id="edge35" class="edge">
<title>Node24&#45;&gt;Node21</title>
<path fill="none" stroke="midnightblue" d="M665.61,-446.27C704.92,-437.46 761.66,-424.45 811,-412 813.99,-411.24 817.13,-410.42 820.24,-409.6"/>
<polygon fill="midnightblue" stroke="midnightblue" points="664.75,-442.87 655.75,-448.47 666.28,-449.7 664.75,-442.87"/>
</g>
<!-- Node25 -->
<g id="node25" class="node">
<title>Node25</title>
<g id="a_node25"><a xlink:href="spec_2buffer_8h.html" target="_top" xlink:title=" ">
<polygon fill="white" stroke="red" points="473.5,-392.5 473.5,-411.5 526.5,-411.5 526.5,-392.5 473.5,-392.5"/>
<text text-anchor="middle" x="500" y="-399.5" font-family="Helvetica,sans-Serif" font-size="10.00">buffer.h</text>
</a>
</g>
</g>
<!-- Node24&#45;&gt;Node25 -->
<g id="edge28" class="edge">
<title>Node24&#45;&gt;Node25</title>
<path fill="none" stroke="midnightblue" d="M589.34,-444.23C567.45,-434.13 537.5,-420.31 518.45,-411.52"/>
<polygon fill="midnightblue" stroke="midnightblue" points="587.91,-447.43 598.46,-448.44 590.85,-441.08 587.91,-447.43"/>
</g>
<!-- Node28 -->
<g id="node26" class="node">
<title>Node28</title>
<g id="a_node26"><a xlink:href="spec_2classification_8h.html" target="_top" xlink:title=" ">
<polygon fill="white" stroke="black" points="66.5,-280.5 66.5,-299.5 155.5,-299.5 155.5,-280.5 66.5,-280.5"/>
<text text-anchor="middle" x="111" y="-287.5" font-family="Helvetica,sans-Serif" font-size="10.00">classification.h</text>
</a>
</g>
</g>
<!-- Node24&#45;&gt;Node28 -->
<g id="edge29" class="edge">
<title>Node24&#45;&gt;Node28</title>
<path fill="none" stroke="midnightblue" d="M567.13,-455.84C473.79,-452.96 276.77,-443.25 217,-412 165.77,-385.22 128.08,-322.63 115.53,-299.66"/>
<polygon fill="midnightblue" stroke="midnightblue" points="567.08,-459.34 577.17,-456.14 567.28,-452.35 567.08,-459.34"/>
</g>
<!-- Node24&#45;&gt;Node32 -->
<g id="edge37" class="edge">
<title>Node24&#45;&gt;Node32</title>
<path fill="none" stroke="midnightblue" d="M566.89,-452.32C486.18,-444.66 322.42,-428.63 184,-412 179.52,-411.46 174.88,-410.88 170.22,-410.28"/>
<polygon fill="midnightblue" stroke="midnightblue" points="566.97,-455.84 577.25,-453.3 567.63,-448.87 566.97,-455.84"/>
</g>
<!-- Node36 -->
<g id="node34" class="node">
<title>Node36</title>
<g id="a_node34"><a xlink:href="spec_2pool_8h.html" target="_top" xlink:title=" ">
<polygon fill="white" stroke="red" points="544.5,-392.5 544.5,-411.5 591.5,-411.5 591.5,-392.5 544.5,-392.5"/>
<text text-anchor="middle" x="568" y="-399.5" font-family="Helvetica,sans-Serif" font-size="10.00">pool.h</text>
</a>
</g>
</g>
<!-- Node24&#45;&gt;Node36 -->
<g id="edge46" class="edge">
<title>Node24&#45;&gt;Node36</title>
<path fill="none" stroke="midnightblue" d="M601.97,-440.43C593.38,-430.97 582.96,-419.48 575.94,-411.75"/>
<polygon fill="midnightblue" stroke="midnightblue" points="599.6,-443.03 608.91,-448.08 604.78,-438.33 599.6,-443.03"/>
</g>
<!-- Node38 -->
<g id="node35" class="node">
<title>Node38</title>
<g id="a_node35"><a xlink:href="spec_2timer_8h.html" target="_top" xlink:title=" ">
<polygon fill="white" stroke="red" points="609.5,-392.5 609.5,-411.5 660.5,-411.5 660.5,-392.5 609.5,-392.5"/>
<text text-anchor="middle" x="635" y="-399.5" font-family="Helvetica,sans-Serif" font-size="10.00">timer.h</text>
</a>
</g>
</g>
<!-- Node24&#45;&gt;Node38 -->
<g id="edge47" class="edge">
<title>Node24&#45;&gt;Node38</title>
<path fill="none" stroke="midnightblue" d="M623.2,-438.4C626.21,-429.36 629.69,-418.94 632.08,-411.75"/>
<polygon fill="midnightblue" stroke="midnightblue" points="619.81,-437.49 619.97,-448.08 626.46,-439.7 619.81,-437.49"/>
</g>
<!-- Node40 -->
<g id="node36" class="node">
<title>Node40</title>
<g id="a_node36"><a xlink:href="buffer__inlines_8h_source.html" target="_top" xlink:title=" ">
<polygon fill="white" stroke="black" points="886,-392.5 886,-411.5 978,-411.5 978,-392.5 886,-392.5"/>
<text text-anchor="middle" x="932" y="-399.5" font-family="Helvetica,sans-Serif" font-size="10.00">buffer_inlines.h</text>
</a>
</g>
</g>
<!-- Node24&#45;&gt;Node40 -->
<g id="edge48" class="edge">
<title>Node24&#45;&gt;Node40</title>
<path fill="none" stroke="midnightblue" d="M666.6,-448.5C726.77,-438.18 827.42,-420.93 885.95,-410.89"/>
<polygon fill="midnightblue" stroke="midnightblue" points="665.84,-445.08 656.58,-450.22 667.02,-451.98 665.84,-445.08"/>
</g>
<!-- Node24&#45;&gt;Node27 -->
<g id="edge49" class="edge">
<title>Node24&#45;&gt;Node27</title>
<path fill="none" stroke="midnightblue" d="M649.03,-444.91C675.91,-434.75 713.64,-420.51 737.45,-411.52"/>
<polygon fill="midnightblue" stroke="midnightblue" points="647.78,-441.64 639.66,-448.44 650.25,-448.19 647.78,-441.64"/>
</g>
<!-- Node24&#45;&gt;Node41 -->
<g id="edge50" class="edge">
<title>Node24&#45;&gt;Node41</title>
<path fill="none" stroke="midnightblue" d="M666.78,-451.52C737.89,-443.55 872.62,-427.98 987,-412 990.08,-411.57 993.24,-411.11 996.43,-410.64"/>
<polygon fill="midnightblue" stroke="midnightblue" points="666.31,-448.05 656.76,-452.63 667.08,-455 666.31,-448.05"/>
</g>
<!-- Node24&#45;&gt;Node42 -->
<g id="edge51" class="edge">
<title>Node24&#45;&gt;Node42</title>
<path fill="none" stroke="midnightblue" d="M666.99,-452.78C754.72,-445.28 942.07,-428.83 1100,-412 1103,-411.68 1106.07,-411.35 1109.16,-411"/>
<polygon fill="midnightblue" stroke="midnightblue" points="666.46,-449.32 656.79,-453.65 667.06,-456.29 666.46,-449.32"/>
</g>
<!-- Node43 -->
<g id="node40" class="node">
<title>Node43</title>
<g id="a_node40"><a xlink:href="pool__inlines_8h_source.html" target="_top" xlink:title=" ">
<polygon fill="white" stroke="black" points="372,-392.5 372,-411.5 456,-411.5 456,-392.5 372,-392.5"/>
<text text-anchor="middle" x="414" y="-399.5" font-family="Helvetica,sans-Serif" font-size="10.00">pool_inlines.h</text>
</a>
</g>
</g>
<!-- Node24&#45;&gt;Node43 -->
<g id="edge52" class="edge">
<title>Node24&#45;&gt;Node43</title>
<path fill="none" stroke="midnightblue" d="M575.01,-445.83C536.68,-435.63 480.85,-420.78 446.02,-411.52"/>
<polygon fill="midnightblue" stroke="midnightblue" points="574.27,-449.26 584.83,-448.44 576.07,-442.49 574.27,-449.26"/>
</g>
<!-- Node29 -->
<g id="node27" class="node">
<title>Node29</title>
<g id="a_node27"><a xlink:href="classification_8h.html" target="_top" xlink:title=" ">
<polygon fill="white" stroke="black" points="105.5,-224.5 105.5,-243.5 194.5,-243.5 194.5,-224.5 105.5,-224.5"/>
<text text-anchor="middle" x="150" y="-231.5" font-family="Helvetica,sans-Serif" font-size="10.00">classification.h</text>
</a>
</g>
</g>
<!-- Node28&#45;&gt;Node29 -->
<g id="edge30" class="edge">
<title>Node28&#45;&gt;Node29</title>
<path fill="none" stroke="midnightblue" d="M123.38,-271.86C130.14,-262.5 138.21,-251.33 143.68,-243.75"/>
<polygon fill="midnightblue" stroke="midnightblue" points="120.46,-269.93 117.44,-280.08 126.13,-274.03 120.46,-269.93"/>
</g>
<!-- Node29&#45;&gt;Node17 -->
<g id="edge31" class="edge">
<title>Node29&#45;&gt;Node17</title>
<path fill="none" stroke="midnightblue" d="M187.26,-221.44C220.07,-211.26 267.08,-196.66 296.56,-187.52"/>
<polygon fill="midnightblue" stroke="midnightblue" points="186.08,-218.14 177.57,-224.44 188.16,-224.82 186.08,-218.14"/>
</g>
<!-- Node29&#45;&gt;Node30 -->
<g id="edge32" class="edge">
<title>Node29&#45;&gt;Node30</title>
<path fill="none" stroke="midnightblue" d="M129.86,-218.1C116.72,-208.38 100.02,-196.03 88.94,-187.83"/>
<polygon fill="midnightblue" stroke="midnightblue" points="128.15,-221.19 138.27,-224.32 132.31,-215.56 128.15,-221.19"/>
</g>
<!-- Node31 -->
<g id="node29" class="node">
<title>Node31</title>
<g id="a_node29"><a xlink:href="packet__io_8h.html" target="_top" xlink:title=" ">
<polygon fill="white" stroke="black" points="41,-112.5 41,-131.5 113,-131.5 113,-112.5 41,-112.5"/>
<text text-anchor="middle" x="77" y="-119.5" font-family="Helvetica,sans-Serif" font-size="10.00">packet_io.h</text>
</a>
</g>
</g>
<!-- Node30&#45;&gt;Node31 -->
<g id="edge33" class="edge">
<title>Node30&#45;&gt;Node31</title>
<path fill="none" stroke="midnightblue" d="M77,-157.8C77,-148.91 77,-138.78 77,-131.75"/>
<polygon fill="midnightblue" stroke="midnightblue" points="73.5,-158.08 77,-168.08 80.5,-158.08 73.5,-158.08"/>
</g>
<!-- Node33 -->
<g id="node31" class="node">
<title>Node33</title>
<g id="a_node31"><a xlink:href="packet__io__types_8h.html" target="_top" xlink:title=" ">
<polygon fill="white" stroke="black" points="226,-336.5 226,-355.5 330,-355.5 330,-336.5 226,-336.5"/>
<text text-anchor="middle" x="278" y="-343.5" font-family="Helvetica,sans-Serif" font-size="10.00">packet_io_types.h</text>
</a>
</g>
</g>
<!-- Node32&#45;&gt;Node33 -->
<g id="edge38" class="edge">
<title>Node32&#45;&gt;Node33</title>
<path fill="none" stroke="midnightblue" d="M153.05,-389.17C183.17,-379 225.9,-364.59 252.77,-355.52"/>
<polygon fill="midnightblue" stroke="midnightblue" points="151.71,-385.93 143.35,-392.44 153.95,-392.56 151.71,-385.93"/>
</g>
<!-- Node33&#45;&gt;Node3 -->
<g id="edge41" class="edge">
<title>Node33&#45;&gt;Node3</title>
<path fill="none" stroke="midnightblue" d="M340.1,-341.83C540.08,-331.61 1162.6,-299.81 1305.54,-292.51"/>
<polygon fill="midnightblue" stroke="midnightblue" points="339.86,-338.33 330.06,-342.34 340.22,-345.33 339.86,-338.33"/>
</g>
<!-- Node33&#45;&gt;Node17 -->
<g id="edge40" class="edge">
<title>Node33&#45;&gt;Node17</title>
<path fill="none" stroke="midnightblue" d="M290.5,-327.74C295.76,-319.68 301.47,-309.73 305,-300 319.58,-259.82 322.98,-208.14 323.76,-187.79"/>
<polygon fill="midnightblue" stroke="midnightblue" points="287.46,-325.99 284.68,-336.21 293.23,-329.95 287.46,-325.99"/>
</g>
<!-- Node33&#45;&gt;Node28 -->
<g id="edge39" class="edge">
<title>Node33&#45;&gt;Node28</title>
<path fill="none" stroke="midnightblue" d="M241.83,-333.3C210.36,-323.13 165.51,-308.62 137.34,-299.52"/>
<polygon fill="midnightblue" stroke="midnightblue" points="240.95,-336.7 251.54,-336.44 243.1,-330.04 240.95,-336.7"/>
</g>
<!-- Node33&#45;&gt;Node30 -->
<g id="edge42" class="edge">
<title>Node33&#45;&gt;Node30</title>
<path fill="none" stroke="midnightblue" d="M254.63,-331.39C231.67,-318.09 195.59,-297.36 164,-280 134.03,-263.53 117.61,-270.5 96,-244 82.33,-227.24 78.49,-200.99 77.42,-187.55"/>
<polygon fill="midnightblue" stroke="midnightblue" points="252.92,-334.45 263.33,-336.44 256.43,-328.39 252.92,-334.45"/>
</g>
<!-- Node34 -->
<g id="node32" class="node">
<title>Node34</title>
<g id="a_node32"><a xlink:href="spec_2traffic__mngr_8h.html" target="_top" xlink:title=" ">
<polygon fill="white" stroke="black" points="212,-280.5 212,-299.5 296,-299.5 296,-280.5 212,-280.5"/>
<text text-anchor="middle" x="254" y="-287.5" font-family="Helvetica,sans-Serif" font-size="10.00">traffic_mngr.h</text>
</a>
</g>
</g>
<!-- Node33&#45;&gt;Node34 -->
<g id="edge43" class="edge">
<title>Node33&#45;&gt;Node34</title>
<path fill="none" stroke="midnightblue" d="M269.86,-326.69C265.82,-317.59 261.12,-307.01 257.89,-299.75"/>
<polygon fill="midnightblue" stroke="midnightblue" points="266.78,-328.37 274.04,-336.08 273.17,-325.52 266.78,-328.37"/>
</g>
<!-- Node35 -->
<g id="node33" class="node">
<title>Node35</title>
<g id="a_node33"><a xlink:href="traffic__mngr_8h.html" target="_top" xlink:title=" ">
<polygon fill="white" stroke="black" points="212,-224.5 212,-243.5 296,-243.5 296,-224.5 212,-224.5"/>
<text text-anchor="middle" x="254" y="-231.5" font-family="Helvetica,sans-Serif" font-size="10.00">traffic_mngr.h</text>
</a>
</g>
</g>
<!-- Node34&#45;&gt;Node35 -->
<g id="edge44" class="edge">
<title>Node34&#45;&gt;Node35</title>
<path fill="none" stroke="midnightblue" d="M254,-269.8C254,-260.91 254,-250.78 254,-243.75"/>
<polygon fill="midnightblue" stroke="midnightblue" points="250.5,-270.08 254,-280.08 257.5,-270.08 250.5,-270.08"/>
</g>
<!-- Node35&#45;&gt;Node17 -->
<g id="edge45" class="edge">
<title>Node35&#45;&gt;Node17</title>
<path fill="none" stroke="midnightblue" d="M273.31,-218.1C285.91,-208.38 301.93,-196.03 312.55,-187.83"/>
<polygon fill="midnightblue" stroke="midnightblue" points="271.03,-215.44 265.25,-224.32 275.3,-220.99 271.03,-215.44"/>
</g>
<!-- Node45 -->
<g id="node42" class="node">
<title>Node45</title>
<g id="a_node42"><a xlink:href="event_8h.html" target="_top" xlink:title=" ">
<polygon fill="white" stroke="black" points="1242.5,-448.5 1242.5,-467.5 1295.5,-467.5 1295.5,-448.5 1242.5,-448.5"/>
<text text-anchor="middle" x="1269" y="-455.5" font-family="Helvetica,sans-Serif" font-size="10.00">event.h</text>
</a>
</g>
</g>
<!-- Node44&#45;&gt;Node45 -->
<g id="edge55" class="edge">
<title>Node44&#45;&gt;Node45</title>
<path fill="none" stroke="midnightblue" d="M1269,-493.8C1269,-484.91 1269,-474.78 1269,-467.75"/>
<polygon fill="midnightblue" stroke="midnightblue" points="1265.5,-494.08 1269,-504.08 1272.5,-494.08 1265.5,-494.08"/>
</g>
<!-- Node45&#45;&gt;Node5 -->
<g id="edge57" class="edge">
<title>Node45&#45;&gt;Node5</title>
<path fill="none" stroke="midnightblue" d="M1269,-438.25C1269,-416.36 1269,-379.05 1269,-347 1269,-347 1269,-347 1269,-289 1269,-251.15 1266.01,-206.05 1264.65,-187.55"/>
<polygon fill="midnightblue" stroke="midnightblue" points="1265.5,-438.44 1269,-448.44 1272.5,-438.44 1265.5,-438.44"/>
</g>
<!-- Node45&#45;&gt;Node6 -->
<g id="edge58" class="edge">
<title>Node45&#45;&gt;Node6</title>
<path fill="none" stroke="midnightblue" d="M1305.93,-451.78C1359.65,-441.86 1453,-414.86 1453,-347 1453,-347 1453,-347 1453,-177 1453,-125.71 1392.5,-90.77 1359.64,-75.58"/>
<polygon fill="midnightblue" stroke="midnightblue" points="1305.01,-448.38 1295.76,-453.54 1306.21,-455.28 1305.01,-448.38"/>
</g>
<!-- Node45&#45;&gt;Node40 -->
<g id="edge56" class="edge">
<title>Node45&#45;&gt;Node40</title>
<path fill="none" stroke="midnightblue" d="M1232.07,-451.15C1178.18,-442.61 1074.87,-426.2 987,-412 984.13,-411.54 981.19,-411.06 978.21,-410.58"/>
<polygon fill="midnightblue" stroke="midnightblue" points="1231.74,-454.65 1242.17,-452.75 1232.84,-447.73 1231.74,-454.65"/>
</g>
<!-- Node45&#45;&gt;Node41 -->
<g id="edge59" class="edge">
<title>Node45&#45;&gt;Node41</title>
<path fill="none" stroke="midnightblue" d="M1232.44,-448.23C1190.24,-438.1 1121.3,-421.55 1079.54,-411.53"/>
<polygon fill="midnightblue" stroke="midnightblue" points="1231.77,-451.66 1242.31,-450.59 1233.4,-444.86 1231.77,-451.66"/>
</g>
<!-- Node45&#45;&gt;Node42 -->
<g id="edge60" class="edge">
<title>Node45&#45;&gt;Node42</title>
<path fill="none" stroke="midnightblue" d="M1244.94,-443.18C1227.64,-433.24 1204.85,-420.15 1190.07,-411.65"/>
<polygon fill="midnightblue" stroke="midnightblue" points="1243.48,-446.38 1253.9,-448.32 1246.97,-440.31 1243.48,-446.38"/>
</g>
<!-- Node46 -->
<g id="node43" class="node">
<title>Node46</title>
<g id="a_node43"><a xlink:href="timer__inlines_8h_source.html" target="_top" xlink:title=" ">
<polygon fill="white" stroke="black" points="1297.5,-392.5 1297.5,-411.5 1386.5,-411.5 1386.5,-392.5 1297.5,-392.5"/>
<text text-anchor="middle" x="1342" y="-399.5" font-family="Helvetica,sans-Serif" font-size="10.00">timer_inlines.h</text>
</a>
</g>
</g>
<!-- Node45&#45;&gt;Node46 -->
<g id="edge61" class="edge">
<title>Node45&#45;&gt;Node46</title>
<path fill="none" stroke="midnightblue" d="M1289.14,-442.1C1302.28,-432.38 1318.98,-420.03 1330.06,-411.83"/>
<polygon fill="midnightblue" stroke="midnightblue" points="1286.69,-439.56 1280.73,-448.32 1290.85,-445.19 1286.69,-439.56"/>
</g>
<!-- Node48 -->
<g id="node45" class="node">
<title>Node48</title>
<g id="a_node45"><a xlink:href="packet__flags_8h.html" target="_top" xlink:title=" ">
<polygon fill="white" stroke="black" points="819,-560.5 819,-579.5 905,-579.5 905,-560.5 819,-560.5"/>
<text text-anchor="middle" x="862" y="-567.5" font-family="Helvetica,sans-Serif" font-size="10.00">packet_flags.h</text>
</a>
</g>
</g>
<!-- Node47&#45;&gt;Node48 -->
<g id="edge65" class="edge">
<title>Node47&#45;&gt;Node48</title>
<path fill="none" stroke="midnightblue" d="M862,-605.8C862,-596.91 862,-586.78 862,-579.75"/>
<polygon fill="midnightblue" stroke="midnightblue" points="858.5,-606.08 862,-616.08 865.5,-606.08 858.5,-606.08"/>
</g>
<!-- Node51 -->
<g id="node48" class="node">
<title>Node51</title>
<g id="a_node48"><a xlink:href="queue__inlines_8h_source.html" target="_top" xlink:title=" ">
<polygon fill="white" stroke="black" points="1062.5,-560.5 1062.5,-579.5 1155.5,-579.5 1155.5,-560.5 1062.5,-560.5"/>
<text text-anchor="middle" x="1109" y="-567.5" font-family="Helvetica,sans-Serif" font-size="10.00">queue_inlines.h</text>
</a>
</g>
</g>
<!-- Node50&#45;&gt;Node51 -->
<g id="edge70" class="edge">
<title>Node50&#45;&gt;Node51</title>
<path fill="none" stroke="midnightblue" d="M1109,-605.8C1109,-596.91 1109,-586.78 1109,-579.75"/>
<polygon fill="midnightblue" stroke="midnightblue" points="1105.5,-606.08 1109,-616.08 1112.5,-606.08 1105.5,-606.08"/>
</g>
<!-- Node53 -->
<g id="node50" class="node">
<title>Node53</title>
<g id="a_node50"><a xlink:href="proto__stats_8h.html" target="_top" xlink:title=" ">
<polygon fill="white" stroke="black" points="1536,-672.5 1536,-691.5 1616,-691.5 1616,-672.5 1536,-672.5"/>
<text text-anchor="middle" x="1576" y="-679.5" font-family="Helvetica,sans-Serif" font-size="10.00">proto_stats.h</text>
</a>
</g>
</g>
<!-- Node52&#45;&gt;Node53 -->
<g id="edge74" class="edge">
<title>Node52&#45;&gt;Node53</title>
<path fill="none" stroke="midnightblue" d="M1576,-717.8C1576,-708.91 1576,-698.78 1576,-691.75"/>
<polygon fill="midnightblue" stroke="midnightblue" points="1572.5,-718.08 1576,-728.08 1579.5,-718.08 1572.5,-718.08"/>
</g>
</g>
</svg>
