<?xml version="1.0" encoding="UTF-8" standalone="no"?>
<!DOCTYPE svg PUBLIC "-//W3C//DTD SVG 1.1//EN"
 "http://www.w3.org/Graphics/SVG/1.1/DTD/svg11.dtd">
<!-- Generated by graphviz version 2.43.0 (0)
 -->
<!-- Title: crypto_types.h Pages: 1 -->
<svg width="1365pt" height="1046pt"
 viewBox="0.00 0.00 1365.00 1046.00" xmlns="http://www.w3.org/2000/svg" xmlns:xlink="http://www.w3.org/1999/xlink">
<g id="graph0" class="graph" transform="scale(1 1) rotate(0) translate(4 1042)">
<title>crypto_types.h</title>
<polygon fill="white" stroke="transparent" points="-4,4 -4,-1042 1361,-1042 1361,4 -4,4"/>
<!-- Node1 -->
<g id="node1" class="node">
<title>Node1</title>
<g id="a_node1"><a xlink:title=" ">
<polygon fill="#bfbfbf" stroke="black" points="1096.5,-1018.5 1096.5,-1037.5 1185.5,-1037.5 1185.5,-1018.5 1096.5,-1018.5"/>
<text text-anchor="middle" x="1141" y="-1025.5" font-family="Helvetica,sans-Serif" font-size="10.00">crypto_types.h</text>
</a>
</g>
</g>
<!-- Node2 -->
<g id="node2" class="node">
<title>Node2</title>
<g id="a_node2"><a xlink:title=" ">
<polygon fill="white" stroke="#bfbfbf" points="912.5,-0.5 912.5,-19.5 1033.5,-19.5 1033.5,-0.5 912.5,-0.5"/>
<text text-anchor="middle" x="973" y="-7.5" font-family="Helvetica,sans-Serif" font-size="10.00">odp/visibility_begin.h</text>
</a>
</g>
</g>
<!-- Node1&#45;&gt;Node2 -->
<g id="edge1" class="edge">
<title>Node1&#45;&gt;Node2</title>
<path fill="none" stroke="midnightblue" d="M1185.82,-1026.21C1225.95,-1023.31 1284.41,-1013.43 1324,-982 1349.37,-961.85 1357,-949.4 1357,-917 1357,-917 1357,-917 1357,-132 1357,-77.93 1311.49,-77.78 1262,-56 1191.92,-25.16 1104.14,-15.04 1043.82,-11.93"/>
<polygon fill="midnightblue" stroke="midnightblue" points="1043.79,-8.42 1033.64,-11.45 1043.46,-15.41 1043.79,-8.42"/>
</g>
<!-- Node3 -->
<g id="node3" class="node">
<title>Node3</title>
<g id="a_node3"><a xlink:href="deprecated_8h.html" target="_top" xlink:title=" ">
<polygon fill="white" stroke="black" points="1195.5,-962.5 1195.5,-981.5 1314.5,-981.5 1314.5,-962.5 1195.5,-962.5"/>
<text text-anchor="middle" x="1255" y="-969.5" font-family="Helvetica,sans-Serif" font-size="10.00">odp/api/deprecated.h</text>
</a>
</g>
</g>
<!-- Node1&#45;&gt;Node3 -->
<g id="edge2" class="edge">
<title>Node1&#45;&gt;Node3</title>
<path fill="none" stroke="midnightblue" d="M1159.06,-1018.44C1177.57,-1009.68 1206.58,-995.94 1227.86,-985.86"/>
<polygon fill="midnightblue" stroke="midnightblue" points="1229.48,-988.96 1237.02,-981.52 1226.49,-982.63 1229.48,-988.96"/>
</g>
<!-- Node5 -->
<g id="node5" class="node">
<title>Node5</title>
<g id="a_node5"><a xlink:title=" ">
<polygon fill="white" stroke="#bfbfbf" points="153,-0.5 153,-19.5 265,-19.5 265,-0.5 153,-0.5"/>
<text text-anchor="middle" x="209" y="-7.5" font-family="Helvetica,sans-Serif" font-size="10.00">odp/visibility_end.h</text>
</a>
</g>
</g>
<!-- Node1&#45;&gt;Node5 -->
<g id="edge65" class="edge">
<title>Node1&#45;&gt;Node5</title>
<path fill="none" stroke="midnightblue" d="M1096.27,-1027.47C885.32,-1029.08 0,-1029.19 0,-917 0,-917 0,-917 0,-132 0,-92.75 13.8,-79.82 45,-56 72.95,-34.66 110.4,-23.44 142.45,-17.54"/>
<polygon fill="midnightblue" stroke="midnightblue" points="143.38,-20.93 152.65,-15.8 142.2,-14.03 143.38,-20.93"/>
</g>
<!-- Node6 -->
<g id="node6" class="node">
<title>Node6</title>
<g id="a_node6"><a xlink:href="packet__types_8h.html" target="_top" xlink:title=" ">
<polygon fill="white" stroke="black" points="222.5,-738.5 222.5,-757.5 351.5,-757.5 351.5,-738.5 222.5,-738.5"/>
<text text-anchor="middle" x="287" y="-745.5" font-family="Helvetica,sans-Serif" font-size="10.00">odp/api/packet_types.h</text>
</a>
</g>
</g>
<!-- Node1&#45;&gt;Node6 -->
<g id="edge6" class="edge">
<title>Node1&#45;&gt;Node6</title>
<path fill="none" stroke="midnightblue" d="M1096.26,-1027.15C894.12,-1027.26 76,-1021.27 76,-917 76,-917 76,-917 76,-859 76,-795.7 151.58,-768.77 212.28,-757.35"/>
<polygon fill="midnightblue" stroke="midnightblue" points="213.02,-760.77 222.26,-755.58 211.8,-753.88 213.02,-760.77"/>
</g>
<!-- Node13 -->
<g id="node13" class="node">
<title>Node13</title>
<g id="a_node13"><a xlink:href="std__types_8h.html" target="_top" xlink:title=" ">
<polygon fill="white" stroke="black" points="526,-235.5 526,-254.5 638,-254.5 638,-235.5 526,-235.5"/>
<text text-anchor="middle" x="582" y="-242.5" font-family="Helvetica,sans-Serif" font-size="10.00">odp/api/std_types.h</text>
</a>
</g>
</g>
<!-- Node1&#45;&gt;Node13 -->
<g id="edge64" class="edge">
<title>Node1&#45;&gt;Node13</title>
<path fill="none" stroke="midnightblue" d="M1144.51,-1018.32C1151.6,-999.96 1167,-955.66 1167,-917 1167,-917 1167,-917 1167,-562.5 1167,-388.2 1041.81,-365.01 884,-291 843.38,-271.95 724.42,-258.42 648.49,-251.43"/>
<polygon fill="midnightblue" stroke="midnightblue" points="648.35,-247.91 638.08,-250.49 647.72,-254.88 648.35,-247.91"/>
</g>
<!-- Node29 -->
<g id="node29" class="node">
<title>Node29</title>
<g id="a_node29"><a xlink:href="pool__types_8h.html" target="_top" xlink:title=" ">
<polygon fill="white" stroke="black" points="876,-962.5 876,-981.5 994,-981.5 994,-962.5 876,-962.5"/>
<text text-anchor="middle" x="935" y="-969.5" font-family="Helvetica,sans-Serif" font-size="10.00">odp/api/pool_types.h</text>
</a>
</g>
</g>
<!-- Node1&#45;&gt;Node29 -->
<g id="edge45" class="edge">
<title>Node1&#45;&gt;Node29</title>
<path fill="none" stroke="midnightblue" d="M1108.36,-1018.44C1072.95,-1009.16 1016.29,-994.31 977.45,-984.13"/>
<polygon fill="midnightblue" stroke="midnightblue" points="978.05,-980.67 967.49,-981.52 976.27,-987.44 978.05,-980.67"/>
</g>
<!-- Node4 -->
<g id="node4" class="node">
<title>Node4</title>
<g id="a_node4"><a xlink:href="spec_2deprecated_8h.html" target="_top" xlink:title=" ">
<polygon fill="white" stroke="black" points="1031.5,-62 1031.5,-81 1176.5,-81 1176.5,-62 1031.5,-62"/>
<text text-anchor="middle" x="1104" y="-69" font-family="Helvetica,sans-Serif" font-size="10.00">odp/api/spec/deprecated.h</text>
</a>
</g>
</g>
<!-- Node3&#45;&gt;Node4 -->
<g id="edge3" class="edge">
<title>Node3&#45;&gt;Node4</title>
<path fill="none" stroke="midnightblue" d="M1248.05,-962.48C1234.31,-944.75 1205,-902.12 1205,-861 1205,-861 1205,-861 1205,-188 1205,-141.89 1158.83,-105.33 1128.92,-86.49"/>
<polygon fill="midnightblue" stroke="midnightblue" points="1130.59,-83.41 1120.23,-81.22 1126.96,-89.4 1130.59,-83.41"/>
</g>
<!-- Node4&#45;&gt;Node2 -->
<g id="edge4" class="edge">
<title>Node4&#45;&gt;Node2</title>
<path fill="none" stroke="midnightblue" d="M1085.23,-61.98C1063.15,-51.95 1026.28,-35.2 1000.86,-23.65"/>
<polygon fill="midnightblue" stroke="midnightblue" points="1002.29,-20.46 991.73,-19.51 999.39,-26.83 1002.29,-20.46"/>
</g>
<!-- Node4&#45;&gt;Node5 -->
<g id="edge5" class="edge">
<title>Node4&#45;&gt;Node5</title>
<path fill="none" stroke="midnightblue" d="M1061.16,-61.93C1048.59,-59.68 1034.78,-57.48 1022,-56 745.95,-24.07 414.46,-14.64 275.45,-11.99"/>
<polygon fill="midnightblue" stroke="midnightblue" points="275.44,-8.49 265.38,-11.8 275.31,-15.49 275.44,-8.49"/>
</g>
<!-- Node7 -->
<g id="node7" class="node">
<title>Node7</title>
<g id="a_node7"><a xlink:title=" ">
<polygon fill="white" stroke="#bfbfbf" points="234,-671.5 234,-701.5 340,-701.5 340,-671.5 234,-671.5"/>
<text text-anchor="start" x="242" y="-689.5" font-family="Helvetica,sans-Serif" font-size="10.00">odp/api/abi/packet</text>
<text text-anchor="middle" x="287" y="-678.5" font-family="Helvetica,sans-Serif" font-size="10.00">_io_types.h</text>
</a>
</g>
</g>
<!-- Node6&#45;&gt;Node7 -->
<g id="edge7" class="edge">
<title>Node6&#45;&gt;Node7</title>
<path fill="none" stroke="midnightblue" d="M287,-738.48C287,-731.47 287,-721.19 287,-711.7"/>
<polygon fill="midnightblue" stroke="midnightblue" points="290.5,-711.52 287,-701.52 283.5,-711.52 290.5,-711.52"/>
</g>
<!-- Node8 -->
<g id="node8" class="node">
<title>Node8</title>
<g id="a_node8"><a xlink:title=" ">
<polygon fill="white" stroke="#bfbfbf" points="110,-671.5 110,-701.5 216,-701.5 216,-671.5 110,-671.5"/>
<text text-anchor="start" x="118" y="-689.5" font-family="Helvetica,sans-Serif" font-size="10.00">odp/api/abi/packet</text>
<text text-anchor="middle" x="163" y="-678.5" font-family="Helvetica,sans-Serif" font-size="10.00">_types.h</text>
</a>
</g>
</g>
<!-- Node6&#45;&gt;Node8 -->
<g id="edge8" class="edge">
<title>Node6&#45;&gt;Node8</title>
<path fill="none" stroke="midnightblue" d="M269.23,-738.48C251.58,-730 223.93,-716.74 201.27,-705.86"/>
<polygon fill="midnightblue" stroke="midnightblue" points="202.75,-702.69 192.22,-701.52 199.73,-709 202.75,-702.69"/>
</g>
<!-- Node9 -->
<g id="node9" class="node">
<title>Node9</title>
<g id="a_node9"><a xlink:href="spec_2packet__types_8h.html" target="_top" xlink:title=" ">
<polygon fill="white" stroke="black" points="358.5,-671.5 358.5,-701.5 471.5,-701.5 471.5,-671.5 358.5,-671.5"/>
<text text-anchor="start" x="366.5" y="-689.5" font-family="Helvetica,sans-Serif" font-size="10.00">odp/api/spec/packet</text>
<text text-anchor="middle" x="415" y="-678.5" font-family="Helvetica,sans-Serif" font-size="10.00">_types.h</text>
</a>
</g>
</g>
<!-- Node6&#45;&gt;Node9 -->
<g id="edge9" class="edge">
<title>Node6&#45;&gt;Node9</title>
<path fill="none" stroke="midnightblue" d="M305.34,-738.48C323.57,-730 352.1,-716.74 375.5,-705.86"/>
<polygon fill="midnightblue" stroke="midnightblue" points="377.24,-708.91 384.83,-701.52 374.29,-702.56 377.24,-708.91"/>
</g>
<!-- Node9&#45;&gt;Node2 -->
<g id="edge10" class="edge">
<title>Node9&#45;&gt;Node2</title>
<path fill="none" stroke="midnightblue" d="M471.51,-684.42C607.71,-680.31 943,-660.42 943,-564.5 943,-564.5 943,-564.5 943,-501 943,-437.29 944.24,-420.71 933,-358 915.43,-259.99 891.94,-240.13 870,-143 861.43,-105.08 839.23,-88.21 861,-56 871.99,-39.74 889.94,-29.35 908.27,-22.72"/>
<polygon fill="midnightblue" stroke="midnightblue" points="909.45,-26.02 917.86,-19.58 907.27,-19.36 909.45,-26.02"/>
</g>
<!-- Node9&#45;&gt;Node5 -->
<g id="edge44" class="edge">
<title>Node9&#45;&gt;Node5</title>
<path fill="none" stroke="midnightblue" d="M369.63,-671.49C277.26,-641.6 76,-568.92 76,-503 76,-503 76,-503 76,-132 76,-96.58 76.05,-82.1 100,-56 114.81,-39.86 136.28,-29.35 156.26,-22.59"/>
<polygon fill="midnightblue" stroke="midnightblue" points="157.42,-25.89 165.91,-19.56 155.32,-19.21 157.42,-25.89"/>
</g>
<!-- Node10 -->
<g id="node10" class="node">
<title>Node10</title>
<g id="a_node10"><a xlink:href="proto__stats__types_8h.html" target="_top" xlink:title=" ">
<polygon fill="white" stroke="black" points="286,-358.5 286,-388.5 396,-388.5 396,-358.5 286,-358.5"/>
<text text-anchor="start" x="294" y="-376.5" font-family="Helvetica,sans-Serif" font-size="10.00">odp/api/proto_stats</text>
<text text-anchor="middle" x="341" y="-365.5" font-family="Helvetica,sans-Serif" font-size="10.00">_types.h</text>
</a>
</g>
</g>
<!-- Node9&#45;&gt;Node10 -->
<g id="edge11" class="edge">
<title>Node9&#45;&gt;Node10</title>
<path fill="none" stroke="midnightblue" d="M406.5,-671.16C394.23,-649.05 373,-604.97 373,-564.5 373,-564.5 373,-564.5 373,-501 373,-464.17 360.09,-423.09 350.67,-398.02"/>
<polygon fill="midnightblue" stroke="midnightblue" points="353.9,-396.68 347.02,-388.62 347.38,-399.21 353.9,-396.68"/>
</g>
<!-- Node20 -->
<g id="node20" class="node">
<title>Node20</title>
<g id="a_node20"><a xlink:href="queue__types_8h.html" target="_top" xlink:title=" ">
<polygon fill="white" stroke="black" points="639.5,-615.5 639.5,-634.5 766.5,-634.5 766.5,-615.5 639.5,-615.5"/>
<text text-anchor="middle" x="703" y="-622.5" font-family="Helvetica,sans-Serif" font-size="10.00">odp/api/queue_types.h</text>
</a>
</g>
</g>
<!-- Node9&#45;&gt;Node20 -->
<g id="edge27" class="edge">
<title>Node9&#45;&gt;Node20</title>
<path fill="none" stroke="midnightblue" d="M471.56,-673.82C523.82,-663.02 600.81,-647.11 651.42,-636.66"/>
<polygon fill="midnightblue" stroke="midnightblue" points="652.4,-640.03 661.49,-634.58 650.99,-633.17 652.4,-640.03"/>
</g>
<!-- Node11 -->
<g id="node11" class="node">
<title>Node11</title>
<g id="a_node11"><a xlink:title=" ">
<polygon fill="white" stroke="#bfbfbf" points="142,-291.5 142,-321.5 270,-321.5 270,-291.5 142,-291.5"/>
<text text-anchor="start" x="150" y="-309.5" font-family="Helvetica,sans-Serif" font-size="10.00">odp/api/abi/proto_stats</text>
<text text-anchor="middle" x="206" y="-298.5" font-family="Helvetica,sans-Serif" font-size="10.00">_types.h</text>
</a>
</g>
</g>
<!-- Node10&#45;&gt;Node11 -->
<g id="edge12" class="edge">
<title>Node10&#45;&gt;Node11</title>
<path fill="none" stroke="midnightblue" d="M311.71,-358.4C291.98,-348.9 265.77,-336.28 244.38,-325.98"/>
<polygon fill="midnightblue" stroke="midnightblue" points="245.76,-322.76 235.24,-321.58 242.73,-329.07 245.76,-322.76"/>
</g>
<!-- Node12 -->
<g id="node12" class="node">
<title>Node12</title>
<g id="a_node12"><a xlink:href="spec_2proto__stats__types_8h.html" target="_top" xlink:title=" ">
<polygon fill="white" stroke="black" points="326.5,-291.5 326.5,-321.5 433.5,-321.5 433.5,-291.5 326.5,-291.5"/>
<text text-anchor="start" x="334.5" y="-309.5" font-family="Helvetica,sans-Serif" font-size="10.00">odp/api/spec/proto</text>
<text text-anchor="middle" x="380" y="-298.5" font-family="Helvetica,sans-Serif" font-size="10.00">_stats_types.h</text>
</a>
</g>
</g>
<!-- Node10&#45;&gt;Node12 -->
<g id="edge13" class="edge">
<title>Node10&#45;&gt;Node12</title>
<path fill="none" stroke="midnightblue" d="M349.46,-358.4C354.37,-350.22 360.66,-339.73 366.26,-330.39"/>
<polygon fill="midnightblue" stroke="midnightblue" points="369.41,-331.95 371.55,-321.58 363.41,-328.35 369.41,-331.95"/>
</g>
<!-- Node12&#45;&gt;Node2 -->
<g id="edge14" class="edge">
<title>Node12&#45;&gt;Node2</title>
<path fill="none" stroke="midnightblue" d="M396.94,-291.45C427.1,-266.81 492.62,-215.04 553,-179 634.6,-130.3 661.19,-129.85 746,-87 772.09,-73.82 776.81,-66.72 804,-56 841.76,-41.11 886.16,-29.5 919.98,-21.81"/>
<polygon fill="midnightblue" stroke="midnightblue" points="921.11,-25.14 930.11,-19.55 919.59,-18.31 921.11,-25.14"/>
</g>
<!-- Node12&#45;&gt;Node5 -->
<g id="edge26" class="edge">
<title>Node12&#45;&gt;Node5</title>
<path fill="none" stroke="midnightblue" d="M342.92,-291.48C287.62,-269.4 190,-225.42 190,-190 190,-190 190,-190 190,-132 190,-95.29 198.64,-53.06 204.27,-29.45"/>
<polygon fill="midnightblue" stroke="midnightblue" points="207.67,-30.28 206.67,-19.73 200.87,-28.6 207.67,-30.28"/>
</g>
<!-- Node12&#45;&gt;Node13 -->
<g id="edge15" class="edge">
<title>Node12&#45;&gt;Node13</title>
<path fill="none" stroke="midnightblue" d="M427.62,-291.47C462.92,-281.08 510.44,-267.08 543.39,-257.37"/>
<polygon fill="midnightblue" stroke="midnightblue" points="544.52,-260.69 553.12,-254.51 542.54,-253.97 544.52,-260.69"/>
</g>
<!-- Node14 -->
<g id="node14" class="node">
<title>Node14</title>
<g id="a_node14"><a xlink:title=" ">
<polygon fill="white" stroke="#bfbfbf" points="562,-179.5 562,-198.5 692,-198.5 692,-179.5 562,-179.5"/>
<text text-anchor="middle" x="627" y="-186.5" font-family="Helvetica,sans-Serif" font-size="10.00">odp/api/abi/std_types.h</text>
</a>
</g>
</g>
<!-- Node13&#45;&gt;Node14 -->
<g id="edge16" class="edge">
<title>Node13&#45;&gt;Node14</title>
<path fill="none" stroke="midnightblue" d="M589.43,-235.08C595.85,-227.38 605.31,-216.03 613.12,-206.65"/>
<polygon fill="midnightblue" stroke="midnightblue" points="615.99,-208.67 619.71,-198.75 610.62,-204.19 615.99,-208.67"/>
</g>
<!-- Node15 -->
<g id="node15" class="node">
<title>Node15</title>
<g id="a_node15"><a xlink:href="spec_2std__types_8h.html" target="_top" xlink:title=" ">
<polygon fill="white" stroke="black" points="368.5,-179.5 368.5,-198.5 505.5,-198.5 505.5,-179.5 368.5,-179.5"/>
<text text-anchor="middle" x="437" y="-186.5" font-family="Helvetica,sans-Serif" font-size="10.00">odp/api/spec/std_types.h</text>
</a>
</g>
</g>
<!-- Node13&#45;&gt;Node15 -->
<g id="edge17" class="edge">
<title>Node13&#45;&gt;Node15</title>
<path fill="none" stroke="midnightblue" d="M559.02,-235.44C534.84,-226.44 496.58,-212.19 469.35,-202.05"/>
<polygon fill="midnightblue" stroke="midnightblue" points="470.46,-198.73 459.87,-198.52 468.02,-205.29 470.46,-198.73"/>
</g>
<!-- Node15&#45;&gt;Node2 -->
<g id="edge18" class="edge">
<title>Node15&#45;&gt;Node2</title>
<path fill="none" stroke="midnightblue" d="M461.84,-179.36C482.26,-171.6 511.42,-158.97 534,-143 578.13,-111.78 570.6,-80.08 619,-56 667.27,-31.98 813.52,-19.82 902.22,-14.5"/>
<polygon fill="midnightblue" stroke="midnightblue" points="902.44,-17.99 912.21,-13.91 902.03,-11 902.44,-17.99"/>
</g>
<!-- Node15&#45;&gt;Node5 -->
<g id="edge25" class="edge">
<title>Node15&#45;&gt;Node5</title>
<path fill="none" stroke="midnightblue" d="M417.17,-179.37C400,-171.36 375.01,-158.37 356,-143 316.08,-110.72 318.97,-89.42 280,-56 265.91,-43.92 248.31,-32.74 234.15,-24.54"/>
<polygon fill="midnightblue" stroke="midnightblue" points="235.84,-21.48 225.42,-19.61 232.4,-27.58 235.84,-21.48"/>
</g>
<!-- Node16 -->
<g id="node16" class="node">
<title>Node16</title>
<g id="a_node16"><a xlink:title=" ">
<polygon fill="white" stroke="#bfbfbf" points="365.5,-123.5 365.5,-142.5 418.5,-142.5 418.5,-123.5 365.5,-123.5"/>
<text text-anchor="middle" x="392" y="-130.5" font-family="Helvetica,sans-Serif" font-size="10.00">stdint.h</text>
</a>
</g>
</g>
<!-- Node15&#45;&gt;Node16 -->
<g id="edge19" class="edge">
<title>Node15&#45;&gt;Node16</title>
<path fill="none" stroke="midnightblue" d="M429.57,-179.08C423.15,-171.38 413.69,-160.03 405.88,-150.65"/>
<polygon fill="midnightblue" stroke="midnightblue" points="408.38,-148.19 399.29,-142.75 403.01,-152.67 408.38,-148.19"/>
</g>
<!-- Node17 -->
<g id="node17" class="node">
<title>Node17</title>
<g id="a_node17"><a xlink:href="align_8h.html" target="_top" xlink:title=" ">
<polygon fill="white" stroke="black" points="436.5,-123.5 436.5,-142.5 525.5,-142.5 525.5,-123.5 436.5,-123.5"/>
<text text-anchor="middle" x="481" y="-130.5" font-family="Helvetica,sans-Serif" font-size="10.00">odp/api/align.h</text>
</a>
</g>
</g>
<!-- Node15&#45;&gt;Node17 -->
<g id="edge20" class="edge">
<title>Node15&#45;&gt;Node17</title>
<path fill="none" stroke="midnightblue" d="M444.27,-179.08C450.54,-171.38 459.79,-160.03 467.43,-150.65"/>
<polygon fill="midnightblue" stroke="midnightblue" points="470.27,-152.71 473.87,-142.75 464.84,-148.29 470.27,-152.71"/>
</g>
<!-- Node18 -->
<g id="node18" class="node">
<title>Node18</title>
<g id="a_node18"><a xlink:title=" ">
<polygon fill="white" stroke="#bfbfbf" points="332.5,-62 332.5,-81 439.5,-81 439.5,-62 332.5,-62"/>
<text text-anchor="middle" x="386" y="-69" font-family="Helvetica,sans-Serif" font-size="10.00">odp/api/abi/align.h</text>
</a>
</g>
</g>
<!-- Node17&#45;&gt;Node18 -->
<g id="edge21" class="edge">
<title>Node17&#45;&gt;Node18</title>
<path fill="none" stroke="midnightblue" d="M467.39,-123.48C451.94,-113.8 426.51,-97.87 408.18,-86.39"/>
<polygon fill="midnightblue" stroke="midnightblue" points="409.92,-83.35 399.59,-81.01 406.2,-89.28 409.92,-83.35"/>
</g>
<!-- Node19 -->
<g id="node19" class="node">
<title>Node19</title>
<g id="a_node19"><a xlink:href="spec_2align_8h.html" target="_top" xlink:title=" ">
<polygon fill="white" stroke="black" points="458,-62 458,-81 572,-81 572,-62 458,-62"/>
<text text-anchor="middle" x="515" y="-69" font-family="Helvetica,sans-Serif" font-size="10.00">odp/api/spec/align.h</text>
</a>
</g>
</g>
<!-- Node17&#45;&gt;Node19 -->
<g id="edge22" class="edge">
<title>Node17&#45;&gt;Node19</title>
<path fill="none" stroke="midnightblue" d="M485.87,-123.48C490.87,-114.73 498.79,-100.87 505.11,-89.81"/>
<polygon fill="midnightblue" stroke="midnightblue" points="508.22,-91.43 510.14,-81.01 502.14,-87.96 508.22,-91.43"/>
</g>
<!-- Node19&#45;&gt;Node2 -->
<g id="edge23" class="edge">
<title>Node19&#45;&gt;Node2</title>
<path fill="none" stroke="midnightblue" d="M553.58,-61.99C564.07,-59.85 575.44,-57.69 586,-56 695.94,-38.41 824.51,-24.84 902.29,-17.39"/>
<polygon fill="midnightblue" stroke="midnightblue" points="902.83,-20.85 912.45,-16.42 902.16,-13.88 902.83,-20.85"/>
</g>
<!-- Node19&#45;&gt;Node5 -->
<g id="edge24" class="edge">
<title>Node19&#45;&gt;Node5</title>
<path fill="none" stroke="midnightblue" d="M476.42,-61.96C467.12,-59.96 457.22,-57.86 448,-56 385.99,-43.45 314.69,-30.18 266.22,-21.32"/>
<polygon fill="midnightblue" stroke="midnightblue" points="266.7,-17.85 256.24,-19.5 265.45,-24.74 266.7,-17.85"/>
</g>
<!-- Node21 -->
<g id="node21" class="node">
<title>Node21</title>
<g id="a_node21"><a xlink:title=" ">
<polygon fill="white" stroke="#bfbfbf" points="739.5,-554 739.5,-573 884.5,-573 884.5,-554 739.5,-554"/>
<text text-anchor="middle" x="812" y="-561" font-family="Helvetica,sans-Serif" font-size="10.00">odp/api/abi/queue_types.h</text>
</a>
</g>
</g>
<!-- Node20&#45;&gt;Node21 -->
<g id="edge28" class="edge">
<title>Node20&#45;&gt;Node21</title>
<path fill="none" stroke="midnightblue" d="M718.62,-615.48C736.59,-605.67 766.32,-589.43 787.41,-577.92"/>
<polygon fill="midnightblue" stroke="midnightblue" points="789.31,-580.87 796.41,-573.01 785.96,-574.73 789.31,-580.87"/>
</g>
<!-- Node22 -->
<g id="node22" class="node">
<title>Node22</title>
<g id="a_node22"><a xlink:href="spec_2queue__types_8h.html" target="_top" xlink:title=" ">
<polygon fill="white" stroke="black" points="610.5,-548.5 610.5,-578.5 721.5,-578.5 721.5,-548.5 610.5,-548.5"/>
<text text-anchor="start" x="618.5" y="-566.5" font-family="Helvetica,sans-Serif" font-size="10.00">odp/api/spec/queue</text>
<text text-anchor="middle" x="666" y="-555.5" font-family="Helvetica,sans-Serif" font-size="10.00">_types.h</text>
</a>
</g>
</g>
<!-- Node20&#45;&gt;Node22 -->
<g id="edge29" class="edge">
<title>Node20&#45;&gt;Node22</title>
<path fill="none" stroke="midnightblue" d="M697.7,-615.48C693.11,-608.09 686.26,-597.08 680.1,-587.17"/>
<polygon fill="midnightblue" stroke="midnightblue" points="682.97,-585.17 674.72,-578.52 677.03,-588.86 682.97,-585.17"/>
</g>
<!-- Node22&#45;&gt;Node2 -->
<g id="edge30" class="edge">
<title>Node22&#45;&gt;Node2</title>
<path fill="none" stroke="midnightblue" d="M689.19,-548.46C705.13,-538.62 726.65,-524.96 745,-512 778.11,-488.61 786.31,-482.49 817,-456 906.84,-378.47 1156.36,-196.12 1203,-87 1208.42,-74.33 1211.76,-66.64 1203,-56 1183.08,-31.8 1103.81,-20.43 1043.86,-15.21"/>
<polygon fill="midnightblue" stroke="midnightblue" points="1043.92,-11.7 1033.66,-14.37 1043.34,-18.68 1043.92,-11.7"/>
</g>
<!-- Node22&#45;&gt;Node5 -->
<g id="edge43" class="edge">
<title>Node22&#45;&gt;Node5</title>
<path fill="none" stroke="midnightblue" d="M642.29,-548.49C626.31,-538.77 604.95,-525.24 587,-512 501.73,-449.1 495.59,-412.96 405,-358 368.87,-336.08 353.32,-343.59 317,-322 298.26,-310.86 296.36,-304.18 279,-291 221.57,-247.39 152,-262.12 152,-190 152,-190 152,-190 152,-132 152,-91.59 178.34,-50.21 195.21,-27.85"/>
<polygon fill="midnightblue" stroke="midnightblue" points="198.15,-29.77 201.55,-19.74 192.63,-25.46 198.15,-29.77"/>
</g>
<!-- Node23 -->
<g id="node23" class="node">
<title>Node23</title>
<g id="a_node23"><a xlink:href="schedule__types_8h.html" target="_top" xlink:title=" ">
<polygon fill="white" stroke="black" points="596,-492.5 596,-511.5 736,-511.5 736,-492.5 596,-492.5"/>
<text text-anchor="middle" x="666" y="-499.5" font-family="Helvetica,sans-Serif" font-size="10.00">odp/api/schedule_types.h</text>
</a>
</g>
</g>
<!-- Node22&#45;&gt;Node23 -->
<g id="edge31" class="edge">
<title>Node22&#45;&gt;Node23</title>
<path fill="none" stroke="midnightblue" d="M666,-548.4C666,-540.47 666,-530.46 666,-521.86"/>
<polygon fill="midnightblue" stroke="midnightblue" points="669.5,-521.66 666,-511.66 662.5,-521.66 669.5,-521.66"/>
</g>
<!-- Node24 -->
<g id="node24" class="node">
<title>Node24</title>
<g id="a_node24"><a xlink:title=" ">
<polygon fill="white" stroke="#bfbfbf" points="691.5,-425.5 691.5,-455.5 808.5,-455.5 808.5,-425.5 691.5,-425.5"/>
<text text-anchor="start" x="699.5" y="-443.5" font-family="Helvetica,sans-Serif" font-size="10.00">odp/api/abi/schedule</text>
<text text-anchor="middle" x="750" y="-432.5" font-family="Helvetica,sans-Serif" font-size="10.00">_types.h</text>
</a>
</g>
</g>
<!-- Node23&#45;&gt;Node24 -->
<g id="edge32" class="edge">
<title>Node23&#45;&gt;Node24</title>
<path fill="none" stroke="midnightblue" d="M678.04,-492.48C689.41,-484.42 706.91,-472.02 721.8,-461.47"/>
<polygon fill="midnightblue" stroke="midnightblue" points="724.07,-464.16 730.2,-455.52 720.02,-458.45 724.07,-464.16"/>
</g>
<!-- Node25 -->
<g id="node25" class="node">
<title>Node25</title>
<g id="a_node25"><a xlink:href="spec_2schedule__types_8h.html" target="_top" xlink:title=" ">
<polygon fill="white" stroke="black" points="548.5,-425.5 548.5,-455.5 673.5,-455.5 673.5,-425.5 548.5,-425.5"/>
<text text-anchor="start" x="556.5" y="-443.5" font-family="Helvetica,sans-Serif" font-size="10.00">odp/api/spec/schedule</text>
<text text-anchor="middle" x="611" y="-432.5" font-family="Helvetica,sans-Serif" font-size="10.00">_types.h</text>
</a>
</g>
</g>
<!-- Node23&#45;&gt;Node25 -->
<g id="edge33" class="edge">
<title>Node23&#45;&gt;Node25</title>
<path fill="none" stroke="midnightblue" d="M658.12,-492.48C651.02,-484.79 640.28,-473.17 630.84,-462.96"/>
<polygon fill="midnightblue" stroke="midnightblue" points="633.32,-460.49 623.96,-455.52 628.18,-465.24 633.32,-460.49"/>
</g>
<!-- Node25&#45;&gt;Node2 -->
<g id="edge34" class="edge">
<title>Node25&#45;&gt;Node2</title>
<path fill="none" stroke="midnightblue" d="M649.29,-425.34C697.99,-406.26 783.42,-369.19 847,-322 889.67,-290.33 890.32,-271.44 929,-235 957.25,-208.39 963.42,-200.09 996,-179 1074.42,-128.22 1135.46,-166.21 1185,-87 1219.7,-31.51 1118.4,-16.1 1044.1,-12.07"/>
<polygon fill="midnightblue" stroke="midnightblue" points="1043.97,-8.56 1033.82,-11.57 1043.64,-15.55 1043.97,-8.56"/>
</g>
<!-- Node25&#45;&gt;Node5 -->
<g id="edge42" class="edge">
<title>Node25&#45;&gt;Node5</title>
<path fill="none" stroke="midnightblue" d="M594.69,-425.16C564.55,-398.65 498.07,-340.2 442,-291 346.56,-207.26 309.07,-194.81 242,-87 230.52,-68.54 221.09,-45.39 215.3,-29.52"/>
<polygon fill="midnightblue" stroke="midnightblue" points="218.51,-28.11 211.88,-19.84 211.91,-30.44 218.51,-28.11"/>
</g>
<!-- Node25&#45;&gt;Node13 -->
<g id="edge35" class="edge">
<title>Node25&#45;&gt;Node13</title>
<path fill="none" stroke="midnightblue" d="M596.3,-425.37C587.34,-415.91 576.4,-402.71 570,-389 557.17,-361.51 559.9,-352.19 557,-322 555.68,-308.29 553.54,-304.34 557,-291 559.55,-281.18 564.75,-271.21 569.76,-263.17"/>
<polygon fill="midnightblue" stroke="midnightblue" points="572.75,-264.99 575.37,-254.73 566.92,-261.11 572.75,-264.99"/>
</g>
<!-- Node26 -->
<g id="node26" class="node">
<title>Node26</title>
<g id="a_node26"><a xlink:href="thrmask_8h.html" target="_top" xlink:title=" ">
<polygon fill="white" stroke="black" points="579.5,-364 579.5,-383 684.5,-383 684.5,-364 579.5,-364"/>
<text text-anchor="middle" x="632" y="-371" font-family="Helvetica,sans-Serif" font-size="10.00">odp/api/thrmask.h</text>
</a>
</g>
</g>
<!-- Node25&#45;&gt;Node26 -->
<g id="edge36" class="edge">
<title>Node25&#45;&gt;Node26</title>
<path fill="none" stroke="midnightblue" d="M615.56,-425.4C618.64,-415.86 622.73,-403.18 626.07,-392.86"/>
<polygon fill="midnightblue" stroke="midnightblue" points="629.45,-393.79 629.19,-383.19 622.79,-391.63 629.45,-393.79"/>
</g>
<!-- Node27 -->
<g id="node27" class="node">
<title>Node27</title>
<g id="a_node27"><a xlink:title=" ">
<polygon fill="white" stroke="#bfbfbf" points="715.5,-297 715.5,-316 838.5,-316 838.5,-297 715.5,-297"/>
<text text-anchor="middle" x="777" y="-304" font-family="Helvetica,sans-Serif" font-size="10.00">odp/api/abi/thrmask.h</text>
</a>
</g>
</g>
<!-- Node26&#45;&gt;Node27 -->
<g id="edge37" class="edge">
<title>Node26&#45;&gt;Node27</title>
<path fill="none" stroke="midnightblue" d="M651.25,-363.87C676.17,-352.7 719.79,-333.15 748.53,-320.26"/>
<polygon fill="midnightblue" stroke="midnightblue" points="749.97,-323.45 757.67,-316.17 747.11,-317.06 749.97,-323.45"/>
</g>
<!-- Node28 -->
<g id="node28" class="node">
<title>Node28</title>
<g id="a_node28"><a xlink:href="spec_2thrmask_8h.html" target="_top" xlink:title=" ">
<polygon fill="white" stroke="black" points="566.5,-297 566.5,-316 697.5,-316 697.5,-297 566.5,-297"/>
<text text-anchor="middle" x="632" y="-304" font-family="Helvetica,sans-Serif" font-size="10.00">odp/api/spec/thrmask.h</text>
</a>
</g>
</g>
<!-- Node26&#45;&gt;Node28 -->
<g id="edge38" class="edge">
<title>Node26&#45;&gt;Node28</title>
<path fill="none" stroke="midnightblue" d="M632,-363.73C632,-354.18 632,-338.62 632,-326.28"/>
<polygon fill="midnightblue" stroke="midnightblue" points="635.5,-326.13 632,-316.13 628.5,-326.13 635.5,-326.13"/>
</g>
<!-- Node28&#45;&gt;Node2 -->
<g id="edge39" class="edge">
<title>Node28&#45;&gt;Node2</title>
<path fill="none" stroke="midnightblue" d="M673.2,-296.92C724.08,-283.63 804,-252.77 804,-190 804,-190 804,-190 804,-132 804,-96.58 802.89,-80.98 828,-56 847.8,-36.3 876.05,-25.2 902.36,-18.95"/>
<polygon fill="midnightblue" stroke="midnightblue" points="903.3,-22.33 912.33,-16.79 901.82,-15.49 903.3,-22.33"/>
</g>
<!-- Node28&#45;&gt;Node5 -->
<g id="edge41" class="edge">
<title>Node28&#45;&gt;Node5</title>
<path fill="none" stroke="midnightblue" d="M592.2,-296.93C536,-283.38 432.13,-252.84 359,-199 341.66,-186.23 254.83,-71.93 221.79,-28.05"/>
<polygon fill="midnightblue" stroke="midnightblue" points="224.41,-25.7 215.6,-19.81 218.82,-29.91 224.41,-25.7"/>
</g>
<!-- Node28&#45;&gt;Node13 -->
<g id="edge40" class="edge">
<title>Node28&#45;&gt;Node13</title>
<path fill="none" stroke="midnightblue" d="M624.84,-296.98C617.26,-287.96 605.13,-273.52 595.71,-262.31"/>
<polygon fill="midnightblue" stroke="midnightblue" points="598.26,-259.91 589.15,-254.51 592.9,-264.42 598.26,-259.91"/>
</g>
<!-- Node30 -->
<g id="node30" class="node">
<title>Node30</title>
<g id="a_node30"><a xlink:title=" ">
<polygon fill="white" stroke="#bfbfbf" points="867,-906.5 867,-925.5 1003,-925.5 1003,-906.5 867,-906.5"/>
<text text-anchor="middle" x="935" y="-913.5" font-family="Helvetica,sans-Serif" font-size="10.00">odp/api/abi/pool_types.h</text>
</a>
</g>
</g>
<!-- Node29&#45;&gt;Node30 -->
<g id="edge46" class="edge">
<title>Node29&#45;&gt;Node30</title>
<path fill="none" stroke="midnightblue" d="M935,-962.08C935,-955.01 935,-944.86 935,-935.99"/>
<polygon fill="midnightblue" stroke="midnightblue" points="938.5,-935.75 935,-925.75 931.5,-935.75 938.5,-935.75"/>
</g>
<!-- Node31 -->
<g id="node31" class="node">
<title>Node31</title>
<g id="a_node31"><a xlink:href="spec_2pool__types_8h.html" target="_top" xlink:title=" ">
<polygon fill="white" stroke="black" points="602.5,-906.5 602.5,-925.5 745.5,-925.5 745.5,-906.5 602.5,-906.5"/>
<text text-anchor="middle" x="674" y="-913.5" font-family="Helvetica,sans-Serif" font-size="10.00">odp/api/spec/pool_types.h</text>
</a>
</g>
</g>
<!-- Node29&#45;&gt;Node31 -->
<g id="edge47" class="edge">
<title>Node29&#45;&gt;Node31</title>
<path fill="none" stroke="midnightblue" d="M893.64,-962.44C847.92,-952.98 774.24,-937.74 724.98,-927.55"/>
<polygon fill="midnightblue" stroke="midnightblue" points="725.66,-924.12 715.16,-925.52 724.25,-930.97 725.66,-924.12"/>
</g>
<!-- Node31&#45;&gt;Node2 -->
<g id="edge48" class="edge">
<title>Node31&#45;&gt;Node2</title>
<path fill="none" stroke="midnightblue" d="M745.59,-912.42C873.73,-905.82 1129,-882.92 1129,-805 1129,-805 1129,-805 1129,-562.5 1129,-332.33 1385.45,-231.9 1237,-56 1212.71,-27.21 1113.4,-16.84 1043.78,-13.1"/>
<polygon fill="midnightblue" stroke="midnightblue" points="1043.9,-9.6 1033.73,-12.6 1043.54,-16.6 1043.9,-9.6"/>
</g>
<!-- Node31&#45;&gt;Node5 -->
<g id="edge63" class="edge">
<title>Node31&#45;&gt;Node5</title>
<path fill="none" stroke="midnightblue" d="M602.28,-911.42C435.95,-901.16 38,-864.54 38,-749 38,-749 38,-749 38,-132 38,-94.03 48.27,-80.82 77,-56 96.24,-39.38 121.9,-28.82 145.48,-22.15"/>
<polygon fill="midnightblue" stroke="midnightblue" points="146.66,-25.46 155.43,-19.52 144.87,-18.69 146.66,-25.46"/>
</g>
<!-- Node31&#45;&gt;Node13 -->
<g id="edge49" class="edge">
<title>Node31&#45;&gt;Node13</title>
<path fill="none" stroke="midnightblue" d="M627.37,-906.45C575.83,-893.99 500,-865.4 500,-805 500,-805 500,-805 500,-372.5 500,-326.14 539.25,-283.38 563.44,-261.43"/>
<polygon fill="midnightblue" stroke="midnightblue" points="566.07,-263.78 571.28,-254.56 561.45,-258.52 566.07,-263.78"/>
</g>
<!-- Node32 -->
<g id="node32" class="node">
<title>Node32</title>
<g id="a_node32"><a xlink:href="dma__types_8h.html" target="_top" xlink:title=" ">
<polygon fill="white" stroke="black" points="614.5,-850.5 614.5,-869.5 733.5,-869.5 733.5,-850.5 614.5,-850.5"/>
<text text-anchor="middle" x="674" y="-857.5" font-family="Helvetica,sans-Serif" font-size="10.00">odp/api/dma_types.h</text>
</a>
</g>
</g>
<!-- Node31&#45;&gt;Node32 -->
<g id="edge50" class="edge">
<title>Node31&#45;&gt;Node32</title>
<path fill="none" stroke="midnightblue" d="M674,-906.08C674,-899.01 674,-888.86 674,-879.99"/>
<polygon fill="midnightblue" stroke="midnightblue" points="677.5,-879.75 674,-869.75 670.5,-879.75 677.5,-879.75"/>
</g>
<!-- Node33 -->
<g id="node33" class="node">
<title>Node33</title>
<g id="a_node33"><a xlink:title=" ">
<polygon fill="white" stroke="#bfbfbf" points="554.5,-794.5 554.5,-813.5 691.5,-813.5 691.5,-794.5 554.5,-794.5"/>
<text text-anchor="middle" x="623" y="-801.5" font-family="Helvetica,sans-Serif" font-size="10.00">odp/api/abi/dma_types.h</text>
</a>
</g>
</g>
<!-- Node32&#45;&gt;Node33 -->
<g id="edge51" class="edge">
<title>Node32&#45;&gt;Node33</title>
<path fill="none" stroke="midnightblue" d="M665.58,-850.08C658.15,-842.22 647.15,-830.57 638.19,-821.08"/>
<polygon fill="midnightblue" stroke="midnightblue" points="640.68,-818.62 631.26,-813.75 635.59,-823.42 640.68,-818.62"/>
</g>
<!-- Node34 -->
<g id="node34" class="node">
<title>Node34</title>
<g id="a_node34"><a xlink:href="spec_2dma__types_8h.html" target="_top" xlink:title=" ">
<polygon fill="white" stroke="black" points="710,-794.5 710,-813.5 854,-813.5 854,-794.5 710,-794.5"/>
<text text-anchor="middle" x="782" y="-801.5" font-family="Helvetica,sans-Serif" font-size="10.00">odp/api/spec/dma_types.h</text>
</a>
</g>
</g>
<!-- Node32&#45;&gt;Node34 -->
<g id="edge52" class="edge">
<title>Node32&#45;&gt;Node34</title>
<path fill="none" stroke="midnightblue" d="M691.35,-850.32C708.67,-841.66 735.52,-828.24 755.5,-818.25"/>
<polygon fill="midnightblue" stroke="midnightblue" points="757.31,-821.26 764.69,-813.65 754.18,-815 757.31,-821.26"/>
</g>
<!-- Node34&#45;&gt;Node2 -->
<g id="edge53" class="edge">
<title>Node34&#45;&gt;Node2</title>
<path fill="none" stroke="midnightblue" d="M854.03,-796.66C919.58,-789.79 1010.61,-777.18 1041,-758 1073.49,-737.5 1091,-725.91 1091,-687.5 1091,-687.5 1091,-687.5 1091,-501 1091,-308.27 1189.55,-277.3 1220,-87 1222.18,-73.4 1228.83,-66.58 1220,-56 1197.9,-29.51 1108.71,-18.58 1043.83,-14.09"/>
<polygon fill="midnightblue" stroke="midnightblue" points="1043.85,-10.58 1033.64,-13.42 1043.39,-17.57 1043.85,-10.58"/>
</g>
<!-- Node34&#45;&gt;Node5 -->
<g id="edge62" class="edge">
<title>Node34&#45;&gt;Node5</title>
<path fill="none" stroke="midnightblue" d="M709.58,-794.91C706.34,-794.59 703.14,-794.29 700,-794 483.87,-774.16 422.25,-815.62 213,-758 159.34,-743.22 130.26,-749.34 101,-702 93.76,-690.28 100.47,-684.77 101,-671 103.89,-596.17 114,-577.89 114,-503 114,-503 114,-503 114,-132 114,-85.25 158.42,-45.86 186.51,-25.62"/>
<polygon fill="midnightblue" stroke="midnightblue" points="188.77,-28.32 194.98,-19.74 184.77,-22.57 188.77,-28.32"/>
</g>
<!-- Node34&#45;&gt;Node6 -->
<g id="edge59" class="edge">
<title>Node34&#45;&gt;Node6</title>
<path fill="none" stroke="midnightblue" d="M709.56,-795.05C706.33,-794.69 703.13,-794.34 700,-794 581.79,-781.07 444.54,-766.13 361.8,-757.13"/>
<polygon fill="midnightblue" stroke="midnightblue" points="362.06,-753.64 351.74,-756.04 361.3,-760.6 362.06,-753.64"/>
</g>
<!-- Node34&#45;&gt;Node13 -->
<g id="edge61" class="edge">
<title>Node34&#45;&gt;Node13</title>
<path fill="none" stroke="midnightblue" d="M840.09,-794.47C898.83,-782.16 981,-753.21 981,-687.5 981,-687.5 981,-687.5 981,-501 981,-390.28 939.27,-352.19 847,-291 815.19,-269.9 715.81,-257.39 648.21,-251.11"/>
<polygon fill="midnightblue" stroke="midnightblue" points="648.34,-247.61 638.07,-250.19 647.71,-254.58 648.34,-247.61"/>
</g>
<!-- Node34&#45;&gt;Node20 -->
<g id="edge60" class="edge">
<title>Node34&#45;&gt;Node20</title>
<path fill="none" stroke="midnightblue" d="M778.19,-794.46C766.02,-767.19 727.9,-681.78 711.09,-644.13"/>
<polygon fill="midnightblue" stroke="midnightblue" points="714.23,-642.57 706.96,-634.87 707.84,-645.43 714.23,-642.57"/>
</g>
<!-- Node35 -->
<g id="node35" class="node">
<title>Node35</title>
<g id="a_node35"><a xlink:href="event__types_8h.html" target="_top" xlink:title=" ">
<polygon fill="white" stroke="black" points="879.5,-123.5 879.5,-142.5 1004.5,-142.5 1004.5,-123.5 879.5,-123.5"/>
<text text-anchor="middle" x="942" y="-130.5" font-family="Helvetica,sans-Serif" font-size="10.00">odp/api/event_types.h</text>
</a>
</g>
</g>
<!-- Node34&#45;&gt;Node35 -->
<g id="edge54" class="edge">
<title>Node34&#45;&gt;Node35</title>
<path fill="none" stroke="midnightblue" d="M854.27,-802.02C934.55,-796.65 1053,-774.06 1053,-687.5 1053,-687.5 1053,-687.5 1053,-439.5 1053,-318.77 1032.51,-285.69 976,-179 970.63,-168.85 963.04,-158.56 956.4,-150.38"/>
<polygon fill="midnightblue" stroke="midnightblue" points="959.07,-148.12 949.95,-142.72 953.71,-152.63 959.07,-148.12"/>
</g>
<!-- Node36 -->
<g id="node36" class="node">
<title>Node36</title>
<g id="a_node36"><a xlink:title=" ">
<polygon fill="white" stroke="#bfbfbf" points="870.5,-62 870.5,-81 1013.5,-81 1013.5,-62 870.5,-62"/>
<text text-anchor="middle" x="942" y="-69" font-family="Helvetica,sans-Serif" font-size="10.00">odp/api/abi/event_types.h</text>
</a>
</g>
</g>
<!-- Node35&#45;&gt;Node36 -->
<g id="edge55" class="edge">
<title>Node35&#45;&gt;Node36</title>
<path fill="none" stroke="midnightblue" d="M942,-123.48C942,-115.08 942,-101.98 942,-91.16"/>
<polygon fill="midnightblue" stroke="midnightblue" points="945.5,-91.01 942,-81.01 938.5,-91.01 945.5,-91.01"/>
</g>
<!-- Node37 -->
<g id="node37" class="node">
<title>Node37</title>
<g id="a_node37"><a xlink:href="spec_2event__types_8h.html" target="_top" xlink:title=" ">
<polygon fill="white" stroke="black" points="628.5,-56.5 628.5,-86.5 737.5,-86.5 737.5,-56.5 628.5,-56.5"/>
<text text-anchor="start" x="636.5" y="-74.5" font-family="Helvetica,sans-Serif" font-size="10.00">odp/api/spec/event</text>
<text text-anchor="middle" x="683" y="-63.5" font-family="Helvetica,sans-Serif" font-size="10.00">_types.h</text>
</a>
</g>
</g>
<!-- Node35&#45;&gt;Node37 -->
<g id="edge56" class="edge">
<title>Node35&#45;&gt;Node37</title>
<path fill="none" stroke="midnightblue" d="M904.89,-123.48C863.93,-114.07 797.24,-98.75 747.65,-87.35"/>
<polygon fill="midnightblue" stroke="midnightblue" points="748.19,-83.89 737.66,-85.06 746.63,-90.71 748.19,-83.89"/>
</g>
<!-- Node37&#45;&gt;Node2 -->
<g id="edge57" class="edge">
<title>Node37&#45;&gt;Node2</title>
<path fill="none" stroke="midnightblue" d="M737.61,-58.99C742.47,-57.98 747.33,-56.97 752,-56 809.63,-44.08 875.76,-30.64 920.55,-21.58"/>
<polygon fill="midnightblue" stroke="midnightblue" points="921.51,-24.96 930.62,-19.55 920.12,-18.1 921.51,-24.96"/>
</g>
<!-- Node37&#45;&gt;Node5 -->
<g id="edge58" class="edge">
<title>Node37&#45;&gt;Node5</title>
<path fill="none" stroke="midnightblue" d="M628.24,-62.5C612.96,-60.33 596.34,-58.02 581,-56 474.12,-41.94 349.74,-27.23 275.3,-18.6"/>
<polygon fill="midnightblue" stroke="midnightblue" points="275.47,-15.09 265.14,-17.42 274.67,-22.05 275.47,-15.09"/>
</g>
</g>
</svg>
