<?xml version="1.0" encoding="UTF-8" standalone="no"?>
<!DOCTYPE svg PUBLIC "-//W3C//DTD SVG 1.1//EN"
 "http://www.w3.org/Graphics/SVG/1.1/DTD/svg11.dtd">
<!-- Generated by graphviz version 2.43.0 (0)
 -->
<!-- Title: deprecated.h Pages: 1 -->
<svg width="770pt" height="420pt"
 viewBox="0.00 0.00 769.50 420.00" xmlns="http://www.w3.org/2000/svg" xmlns:xlink="http://www.w3.org/1999/xlink">
<g id="graph0" class="graph" transform="scale(1 1) rotate(0) translate(4 416)">
<title>deprecated.h</title>
<polygon fill="white" stroke="transparent" points="-4,4 -4,-416 765.5,-416 765.5,4 -4,4"/>
<!-- Node1 -->
<g id="node1" class="node">
<title>Node1</title>
<g id="a_node1"><a xlink:title=" ">
<polygon fill="#bfbfbf" stroke="black" points="335,-392.5 335,-411.5 415,-411.5 415,-392.5 335,-392.5"/>
<text text-anchor="middle" x="375" y="-399.5" font-family="Helvetica,sans-Serif" font-size="10.00">deprecated.h</text>
</a>
</g>
</g>
<!-- Node2 -->
<g id="node2" class="node">
<title>Node2</title>
<g id="a_node2"><a xlink:href="deprecated_8h.html" target="_top" xlink:title=" ">
<polygon fill="white" stroke="black" points="335,-336.5 335,-355.5 415,-355.5 415,-336.5 335,-336.5"/>
<text text-anchor="middle" x="375" y="-343.5" font-family="Helvetica,sans-Serif" font-size="10.00">deprecated.h</text>
</a>
</g>
</g>
<!-- Node1&#45;&gt;Node2 -->
<g id="edge1" class="edge">
<title>Node1&#45;&gt;Node2</title>
<path fill="none" stroke="midnightblue" d="M375,-381.8C375,-372.91 375,-362.78 375,-355.75"/>
<polygon fill="midnightblue" stroke="midnightblue" points="371.5,-382.08 375,-392.08 378.5,-382.08 371.5,-382.08"/>
</g>
<!-- Node3 -->
<g id="node3" class="node">
<title>Node3</title>
<g id="a_node3"><a xlink:href="abi-default_2event__types_8h_source.html" target="_top" xlink:title=" ">
<polygon fill="white" stroke="black" points="0,-280.5 0,-299.5 86,-299.5 86,-280.5 0,-280.5"/>
<text text-anchor="middle" x="43" y="-287.5" font-family="Helvetica,sans-Serif" font-size="10.00">event_types.h</text>
</a>
</g>
</g>
<!-- Node2&#45;&gt;Node3 -->
<g id="edge2" class="edge">
<title>Node2&#45;&gt;Node3</title>
<path fill="none" stroke="midnightblue" d="M324.61,-337.09C268.53,-328.24 175.23,-313.39 95,-300 92.11,-299.52 89.13,-299.01 86.12,-298.5"/>
<polygon fill="midnightblue" stroke="midnightblue" points="324.21,-340.57 334.63,-338.67 325.3,-333.65 324.21,-340.57"/>
</g>
<!-- Node4 -->
<g id="node4" class="node">
<title>Node4</title>
<g id="a_node4"><a xlink:href="abi-default_2schedule__types_8h.html" target="_top" xlink:title=" ">
<polygon fill="white" stroke="black" points="104.5,-280.5 104.5,-299.5 205.5,-299.5 205.5,-280.5 104.5,-280.5"/>
<text text-anchor="middle" x="155" y="-287.5" font-family="Helvetica,sans-Serif" font-size="10.00">schedule_types.h</text>
</a>
</g>
</g>
<!-- Node2&#45;&gt;Node4 -->
<g id="edge3" class="edge">
<title>Node2&#45;&gt;Node4</title>
<path fill="none" stroke="midnightblue" d="M330.28,-334.02C288.72,-323.82 227.69,-308.84 189.7,-299.52"/>
<polygon fill="midnightblue" stroke="midnightblue" points="329.59,-337.46 340.14,-336.44 331.26,-330.66 329.59,-337.46"/>
</g>
<!-- Node5 -->
<g id="node5" class="node">
<title>Node5</title>
<g id="a_node5"><a xlink:href="spec_2classification_8h.html" target="_top" xlink:title=" ">
<polygon fill="white" stroke="black" points="223.5,-280.5 223.5,-299.5 312.5,-299.5 312.5,-280.5 223.5,-280.5"/>
<text text-anchor="middle" x="268" y="-287.5" font-family="Helvetica,sans-Serif" font-size="10.00">classification.h</text>
</a>
</g>
</g>
<!-- Node2&#45;&gt;Node5 -->
<g id="edge4" class="edge">
<title>Node2&#45;&gt;Node5</title>
<path fill="none" stroke="midnightblue" d="M348.7,-331.73C328.89,-321.73 302.29,-308.31 285.15,-299.65"/>
<polygon fill="midnightblue" stroke="midnightblue" points="347.3,-334.94 357.81,-336.32 350.46,-328.69 347.3,-334.94"/>
</g>
<!-- Node14 -->
<g id="node14" class="node">
<title>Node14</title>
<g id="a_node14"><a xlink:href="spec_2crypto_8h.html" target="_top" xlink:title=" ">
<polygon fill="white" stroke="black" points="420,-168.5 420,-187.5 476,-187.5 476,-168.5 420,-168.5"/>
<text text-anchor="middle" x="448" y="-175.5" font-family="Helvetica,sans-Serif" font-size="10.00">crypto.h</text>
</a>
</g>
</g>
<!-- Node2&#45;&gt;Node14 -->
<g id="edge13" class="edge">
<title>Node2&#45;&gt;Node14</title>
<path fill="none" stroke="midnightblue" d="M398.7,-330.51C409.33,-322.78 421.03,-312.31 428,-300 449.3,-262.39 449.4,-208.34 448.52,-187.58"/>
<polygon fill="midnightblue" stroke="midnightblue" points="396.44,-327.82 390.15,-336.35 400.38,-333.6 396.44,-327.82"/>
</g>
<!-- Node16 -->
<g id="node16" class="node">
<title>Node16</title>
<g id="a_node16"><a xlink:href="spec_2crypto__types_8h.html" target="_top" xlink:title=" ">
<polygon fill="white" stroke="black" points="330.5,-280.5 330.5,-299.5 419.5,-299.5 419.5,-280.5 330.5,-280.5"/>
<text text-anchor="middle" x="375" y="-287.5" font-family="Helvetica,sans-Serif" font-size="10.00">crypto_types.h</text>
</a>
</g>
</g>
<!-- Node2&#45;&gt;Node16 -->
<g id="edge15" class="edge">
<title>Node2&#45;&gt;Node16</title>
<path fill="none" stroke="midnightblue" d="M375,-325.8C375,-316.91 375,-306.78 375,-299.75"/>
<polygon fill="midnightblue" stroke="midnightblue" points="371.5,-326.08 375,-336.08 378.5,-326.08 371.5,-326.08"/>
</g>
<!-- Node19 -->
<g id="node19" class="node">
<title>Node19</title>
<g id="a_node19"><a xlink:href="spec_2timer_8h.html" target="_top" xlink:title=" ">
<polygon fill="white" stroke="black" points="494.5,-168.5 494.5,-187.5 545.5,-187.5 545.5,-168.5 494.5,-168.5"/>
<text text-anchor="middle" x="520" y="-175.5" font-family="Helvetica,sans-Serif" font-size="10.00">timer.h</text>
</a>
</g>
</g>
<!-- Node2&#45;&gt;Node19 -->
<g id="edge21" class="edge">
<title>Node2&#45;&gt;Node19</title>
<path fill="none" stroke="midnightblue" d="M402.79,-331.65C417.15,-323.82 434.28,-312.93 447,-300 482.11,-264.33 507.62,-208.67 516.53,-187.53"/>
<polygon fill="midnightblue" stroke="midnightblue" points="401.07,-328.61 393.83,-336.35 404.31,-334.81 401.07,-328.61"/>
</g>
<!-- Node21 -->
<g id="node21" class="node">
<title>Node21</title>
<g id="a_node21"><a xlink:href="spec_2timer__types_8h.html" target="_top" xlink:title=" ">
<polygon fill="white" stroke="black" points="549,-280.5 549,-299.5 633,-299.5 633,-280.5 549,-280.5"/>
<text text-anchor="middle" x="591" y="-287.5" font-family="Helvetica,sans-Serif" font-size="10.00">timer_types.h</text>
</a>
</g>
</g>
<!-- Node2&#45;&gt;Node21 -->
<g id="edge23" class="edge">
<title>Node2&#45;&gt;Node21</title>
<path fill="none" stroke="midnightblue" d="M419.16,-333.96C459.96,-323.76 519.71,-308.82 556.93,-299.52"/>
<polygon fill="midnightblue" stroke="midnightblue" points="418.08,-330.62 409.23,-336.44 419.78,-337.41 418.08,-330.62"/>
</g>
<!-- Node6 -->
<g id="node6" class="node">
<title>Node6</title>
<g id="a_node6"><a xlink:href="classification_8h.html" target="_top" xlink:title=" ">
<polygon fill="white" stroke="black" points="165.5,-224.5 165.5,-243.5 254.5,-243.5 254.5,-224.5 165.5,-224.5"/>
<text text-anchor="middle" x="210" y="-231.5" font-family="Helvetica,sans-Serif" font-size="10.00">classification.h</text>
</a>
</g>
</g>
<!-- Node5&#45;&gt;Node6 -->
<g id="edge5" class="edge">
<title>Node5&#45;&gt;Node6</title>
<path fill="none" stroke="midnightblue" d="M251.09,-273.25C240.8,-263.67 228.03,-251.79 219.49,-243.83"/>
<polygon fill="midnightblue" stroke="midnightblue" points="248.98,-276.07 258.68,-280.32 253.75,-270.95 248.98,-276.07"/>
</g>
<!-- Node7 -->
<g id="node7" class="node">
<title>Node7</title>
<g id="a_node7"><a xlink:href="spec_2ipsec__types_8h.html" target="_top" xlink:title=" ">
<polygon fill="white" stroke="black" points="168.5,-168.5 168.5,-187.5 251.5,-187.5 251.5,-168.5 168.5,-168.5"/>
<text text-anchor="middle" x="210" y="-175.5" font-family="Helvetica,sans-Serif" font-size="10.00">ipsec_types.h</text>
</a>
</g>
</g>
<!-- Node6&#45;&gt;Node7 -->
<g id="edge6" class="edge">
<title>Node6&#45;&gt;Node7</title>
<path fill="none" stroke="midnightblue" d="M210,-213.8C210,-204.91 210,-194.78 210,-187.75"/>
<polygon fill="midnightblue" stroke="midnightblue" points="206.5,-214.08 210,-224.08 213.5,-214.08 206.5,-214.08"/>
</g>
<!-- Node12 -->
<g id="node12" class="node">
<title>Node12</title>
<g id="a_node12"><a xlink:href="spec_2packet__io_8h.html" target="_top" xlink:title=" ">
<polygon fill="white" stroke="black" points="78,-168.5 78,-187.5 150,-187.5 150,-168.5 78,-168.5"/>
<text text-anchor="middle" x="114" y="-175.5" font-family="Helvetica,sans-Serif" font-size="10.00">packet_io.h</text>
</a>
</g>
</g>
<!-- Node6&#45;&gt;Node12 -->
<g id="edge11" class="edge">
<title>Node6&#45;&gt;Node12</title>
<path fill="none" stroke="midnightblue" d="M185.43,-219.18C167.76,-209.24 144.49,-196.15 129.39,-187.65"/>
<polygon fill="midnightblue" stroke="midnightblue" points="184.14,-222.47 194.58,-224.32 187.58,-216.37 184.14,-222.47"/>
</g>
<!-- Node8 -->
<g id="node8" class="node">
<title>Node8</title>
<g id="a_node8"><a xlink:href="ipsec__types_8h.html" target="_top" xlink:title=" ">
<polygon fill="white" stroke="black" points="168.5,-112.5 168.5,-131.5 251.5,-131.5 251.5,-112.5 168.5,-112.5"/>
<text text-anchor="middle" x="210" y="-119.5" font-family="Helvetica,sans-Serif" font-size="10.00">ipsec_types.h</text>
</a>
</g>
</g>
<!-- Node7&#45;&gt;Node8 -->
<g id="edge7" class="edge">
<title>Node7&#45;&gt;Node8</title>
<path fill="none" stroke="midnightblue" d="M210,-157.8C210,-148.91 210,-138.78 210,-131.75"/>
<polygon fill="midnightblue" stroke="midnightblue" points="206.5,-158.08 210,-168.08 213.5,-158.08 206.5,-158.08"/>
</g>
<!-- Node9 -->
<g id="node9" class="node">
<title>Node9</title>
<g id="a_node9"><a xlink:href="spec_2ipsec_8h.html" target="_top" xlink:title=" ">
<polygon fill="white" stroke="black" points="254.5,-56.5 254.5,-75.5 305.5,-75.5 305.5,-56.5 254.5,-56.5"/>
<text text-anchor="middle" x="280" y="-63.5" font-family="Helvetica,sans-Serif" font-size="10.00">ipsec.h</text>
</a>
</g>
</g>
<!-- Node8&#45;&gt;Node9 -->
<g id="edge8" class="edge">
<title>Node8&#45;&gt;Node9</title>
<path fill="none" stroke="midnightblue" d="M229.31,-106.1C241.91,-96.38 257.93,-84.03 268.55,-75.83"/>
<polygon fill="midnightblue" stroke="midnightblue" points="227.03,-103.44 221.25,-112.32 231.3,-108.99 227.03,-103.44"/>
</g>
<!-- Node11 -->
<g id="node11" class="node">
<title>Node11</title>
<g id="a_node11"><a xlink:href="ipsec__inlines_8h_source.html" target="_top" xlink:title=" ">
<polygon fill="white" stroke="black" points="147.5,-56.5 147.5,-75.5 236.5,-75.5 236.5,-56.5 147.5,-56.5"/>
<text text-anchor="middle" x="192" y="-63.5" font-family="Helvetica,sans-Serif" font-size="10.00">ipsec_inlines.h</text>
</a>
</g>
</g>
<!-- Node8&#45;&gt;Node11 -->
<g id="edge10" class="edge">
<title>Node8&#45;&gt;Node11</title>
<path fill="none" stroke="midnightblue" d="M203.8,-102.4C200.79,-93.36 197.31,-82.94 194.92,-75.75"/>
<polygon fill="midnightblue" stroke="midnightblue" points="200.54,-103.7 207.03,-112.08 207.19,-101.49 200.54,-103.7"/>
</g>
<!-- Node10 -->
<g id="node10" class="node">
<title>Node10</title>
<g id="a_node10"><a xlink:href="ipsec_8h.html" target="_top" xlink:title=" ">
<polygon fill="white" stroke="black" points="254.5,-0.5 254.5,-19.5 305.5,-19.5 305.5,-0.5 254.5,-0.5"/>
<text text-anchor="middle" x="280" y="-7.5" font-family="Helvetica,sans-Serif" font-size="10.00">ipsec.h</text>
</a>
</g>
</g>
<!-- Node9&#45;&gt;Node10 -->
<g id="edge9" class="edge">
<title>Node9&#45;&gt;Node10</title>
<path fill="none" stroke="midnightblue" d="M280,-45.8C280,-36.91 280,-26.78 280,-19.75"/>
<polygon fill="midnightblue" stroke="midnightblue" points="276.5,-46.08 280,-56.08 283.5,-46.08 276.5,-46.08"/>
</g>
<!-- Node13 -->
<g id="node13" class="node">
<title>Node13</title>
<g id="a_node13"><a xlink:href="packet__io_8h.html" target="_top" xlink:title=" ">
<polygon fill="white" stroke="black" points="78,-112.5 78,-131.5 150,-131.5 150,-112.5 78,-112.5"/>
<text text-anchor="middle" x="114" y="-119.5" font-family="Helvetica,sans-Serif" font-size="10.00">packet_io.h</text>
</a>
</g>
</g>
<!-- Node12&#45;&gt;Node13 -->
<g id="edge12" class="edge">
<title>Node12&#45;&gt;Node13</title>
<path fill="none" stroke="midnightblue" d="M114,-157.8C114,-148.91 114,-138.78 114,-131.75"/>
<polygon fill="midnightblue" stroke="midnightblue" points="110.5,-158.08 114,-168.08 117.5,-158.08 110.5,-158.08"/>
</g>
<!-- Node15 -->
<g id="node15" class="node">
<title>Node15</title>
<g id="a_node15"><a xlink:href="crypto_8h.html" target="_top" xlink:title=" ">
<polygon fill="white" stroke="black" points="420,-112.5 420,-131.5 476,-131.5 476,-112.5 420,-112.5"/>
<text text-anchor="middle" x="448" y="-119.5" font-family="Helvetica,sans-Serif" font-size="10.00">crypto.h</text>
</a>
</g>
</g>
<!-- Node14&#45;&gt;Node15 -->
<g id="edge14" class="edge">
<title>Node14&#45;&gt;Node15</title>
<path fill="none" stroke="midnightblue" d="M448,-157.8C448,-148.91 448,-138.78 448,-131.75"/>
<polygon fill="midnightblue" stroke="midnightblue" points="444.5,-158.08 448,-168.08 451.5,-158.08 444.5,-158.08"/>
</g>
<!-- Node17 -->
<g id="node17" class="node">
<title>Node17</title>
<g id="a_node17"><a xlink:href="crypto__types_8h.html" target="_top" xlink:title=" ">
<polygon fill="white" stroke="black" points="310.5,-224.5 310.5,-243.5 399.5,-243.5 399.5,-224.5 310.5,-224.5"/>
<text text-anchor="middle" x="355" y="-231.5" font-family="Helvetica,sans-Serif" font-size="10.00">crypto_types.h</text>
</a>
</g>
</g>
<!-- Node16&#45;&gt;Node17 -->
<g id="edge16" class="edge">
<title>Node16&#45;&gt;Node17</title>
<path fill="none" stroke="midnightblue" d="M368.22,-270.69C364.85,-261.59 360.93,-251.01 358.24,-243.75"/>
<polygon fill="midnightblue" stroke="midnightblue" points="364.94,-271.92 371.7,-280.08 371.51,-269.49 364.94,-271.92"/>
</g>
<!-- Node17&#45;&gt;Node7 -->
<g id="edge19" class="edge">
<title>Node17&#45;&gt;Node7</title>
<path fill="none" stroke="midnightblue" d="M322.52,-220.91C295.26,-210.75 257.01,-196.51 232.87,-187.52"/>
<polygon fill="midnightblue" stroke="midnightblue" points="321.43,-224.23 332.02,-224.44 323.87,-217.67 321.43,-224.23"/>
</g>
<!-- Node17&#45;&gt;Node9 -->
<g id="edge18" class="edge">
<title>Node17&#45;&gt;Node9</title>
<path fill="none" stroke="midnightblue" d="M330.03,-218.89C318.76,-211.22 306.35,-200.69 299,-188 277.37,-150.64 278.1,-96.45 279.32,-75.61"/>
<polygon fill="midnightblue" stroke="midnightblue" points="328.39,-222 338.71,-224.42 332.16,-216.09 328.39,-222"/>
</g>
<!-- Node17&#45;&gt;Node14 -->
<g id="edge17" class="edge">
<title>Node17&#45;&gt;Node14</title>
<path fill="none" stroke="midnightblue" d="M378.81,-219.18C395.92,-209.24 418.47,-196.15 433.1,-187.65"/>
<polygon fill="midnightblue" stroke="midnightblue" points="376.83,-216.28 369.94,-224.32 380.35,-222.33 376.83,-216.28"/>
</g>
<!-- Node18 -->
<g id="node18" class="node">
<title>Node18</title>
<g id="a_node18"><a xlink:href="crypto__inlines_8h_source.html" target="_top" xlink:title=" ">
<polygon fill="white" stroke="black" points="308,-168.5 308,-187.5 402,-187.5 402,-168.5 308,-168.5"/>
<text text-anchor="middle" x="355" y="-175.5" font-family="Helvetica,sans-Serif" font-size="10.00">crypto_inlines.h</text>
</a>
</g>
</g>
<!-- Node17&#45;&gt;Node18 -->
<g id="edge20" class="edge">
<title>Node17&#45;&gt;Node18</title>
<path fill="none" stroke="midnightblue" d="M355,-213.8C355,-204.91 355,-194.78 355,-187.75"/>
<polygon fill="midnightblue" stroke="midnightblue" points="351.5,-214.08 355,-224.08 358.5,-214.08 351.5,-214.08"/>
</g>
<!-- Node20 -->
<g id="node20" class="node">
<title>Node20</title>
<g id="a_node20"><a xlink:href="timer_8h.html" target="_top" xlink:title=" ">
<polygon fill="white" stroke="black" points="494.5,-112.5 494.5,-131.5 545.5,-131.5 545.5,-112.5 494.5,-112.5"/>
<text text-anchor="middle" x="520" y="-119.5" font-family="Helvetica,sans-Serif" font-size="10.00">timer.h</text>
</a>
</g>
</g>
<!-- Node19&#45;&gt;Node20 -->
<g id="edge22" class="edge">
<title>Node19&#45;&gt;Node20</title>
<path fill="none" stroke="midnightblue" d="M520,-157.8C520,-148.91 520,-138.78 520,-131.75"/>
<polygon fill="midnightblue" stroke="midnightblue" points="516.5,-158.08 520,-168.08 523.5,-158.08 516.5,-158.08"/>
</g>
<!-- Node22 -->
<g id="node22" class="node">
<title>Node22</title>
<g id="a_node22"><a xlink:href="timer__types_8h.html" target="_top" xlink:title=" ">
<polygon fill="white" stroke="black" points="558,-224.5 558,-243.5 642,-243.5 642,-224.5 558,-224.5"/>
<text text-anchor="middle" x="600" y="-231.5" font-family="Helvetica,sans-Serif" font-size="10.00">timer_types.h</text>
</a>
</g>
</g>
<!-- Node21&#45;&gt;Node22 -->
<g id="edge24" class="edge">
<title>Node21&#45;&gt;Node22</title>
<path fill="none" stroke="midnightblue" d="M594.15,-270.1C595.64,-261.14 597.36,-250.86 598.54,-243.75"/>
<polygon fill="midnightblue" stroke="midnightblue" points="590.68,-269.64 592.49,-280.08 597.58,-270.79 590.68,-269.64"/>
</g>
<!-- Node22&#45;&gt;Node19 -->
<g id="edge25" class="edge">
<title>Node22&#45;&gt;Node19</title>
<path fill="none" stroke="midnightblue" d="M578.7,-218.62C564.08,-208.76 545.17,-195.99 532.82,-187.65"/>
<polygon fill="midnightblue" stroke="midnightblue" points="576.9,-221.63 587.15,-224.32 580.82,-215.83 576.9,-221.63"/>
</g>
<!-- Node23 -->
<g id="node23" class="node">
<title>Node23</title>
<g id="a_node23"><a xlink:href="event__inlines_8h_source.html" target="_top" xlink:title=" ">
<polygon fill="white" stroke="black" points="563.5,-168.5 563.5,-187.5 654.5,-187.5 654.5,-168.5 563.5,-168.5"/>
<text text-anchor="middle" x="609" y="-175.5" font-family="Helvetica,sans-Serif" font-size="10.00">event_inlines.h</text>
</a>
</g>
</g>
<!-- Node22&#45;&gt;Node23 -->
<g id="edge26" class="edge">
<title>Node22&#45;&gt;Node23</title>
<path fill="none" stroke="midnightblue" d="M603.15,-214.1C604.64,-205.14 606.36,-194.86 607.54,-187.75"/>
<polygon fill="midnightblue" stroke="midnightblue" points="599.68,-213.64 601.49,-224.08 606.58,-214.79 599.68,-213.64"/>
</g>
<!-- Node24 -->
<g id="node24" class="node">
<title>Node24</title>
<g id="a_node24"><a xlink:href="timer__inlines_8h_source.html" target="_top" xlink:title=" ">
<polygon fill="white" stroke="black" points="672.5,-168.5 672.5,-187.5 761.5,-187.5 761.5,-168.5 672.5,-168.5"/>
<text text-anchor="middle" x="717" y="-175.5" font-family="Helvetica,sans-Serif" font-size="10.00">timer_inlines.h</text>
</a>
</g>
</g>
<!-- Node22&#45;&gt;Node24 -->
<g id="edge27" class="edge">
<title>Node22&#45;&gt;Node24</title>
<path fill="none" stroke="midnightblue" d="M627.66,-220.23C649.55,-210.13 679.5,-196.31 698.55,-187.52"/>
<polygon fill="midnightblue" stroke="midnightblue" points="626.15,-217.08 618.54,-224.44 629.09,-223.43 626.15,-217.08"/>
</g>
</g>
</svg>
