<?xml version="1.0" encoding="UTF-8" standalone="no"?>
<!DOCTYPE svg PUBLIC "-//W3C//DTD SVG 1.1//EN"
 "http://www.w3.org/Graphics/SVG/1.1/DTD/svg11.dtd">
<!-- Generated by graphviz version 2.43.0 (0)
 -->
<!-- Title: packet_types.h Pages: 1 -->
<svg width="1650pt" height="756pt"
 viewBox="0.00 0.00 1650.00 756.00" xmlns="http://www.w3.org/2000/svg" xmlns:xlink="http://www.w3.org/1999/xlink">
<g id="graph0" class="graph" transform="scale(1 1) rotate(0) translate(4 752)">
<title>packet_types.h</title>
<polygon fill="white" stroke="transparent" points="-4,4 -4,-752 1646,-752 1646,4 -4,4"/>
<!-- Node1 -->
<g id="node1" class="node">
<title>Node1</title>
<g id="a_node1"><a xlink:title=" ">
<polygon fill="#bfbfbf" stroke="black" points="1005.5,-728.5 1005.5,-747.5 1095.5,-747.5 1095.5,-728.5 1005.5,-728.5"/>
<text text-anchor="middle" x="1050.5" y="-735.5" font-family="Helvetica,sans-Serif" font-size="10.00">packet_types.h</text>
</a>
</g>
</g>
<!-- Node2 -->
<g id="node2" class="node">
<title>Node2</title>
<g id="a_node2"><a xlink:href="packet__types_8h.html" target="_top" xlink:title=" ">
<polygon fill="white" stroke="black" points="1005.5,-672.5 1005.5,-691.5 1095.5,-691.5 1095.5,-672.5 1005.5,-672.5"/>
<text text-anchor="middle" x="1050.5" y="-679.5" font-family="Helvetica,sans-Serif" font-size="10.00">packet_types.h</text>
</a>
</g>
</g>
<!-- Node1&#45;&gt;Node2 -->
<g id="edge1" class="edge">
<title>Node1&#45;&gt;Node2</title>
<path fill="none" stroke="midnightblue" d="M1050.5,-717.8C1050.5,-708.91 1050.5,-698.78 1050.5,-691.75"/>
<polygon fill="midnightblue" stroke="midnightblue" points="1047,-718.08 1050.5,-728.08 1054,-718.08 1047,-718.08"/>
</g>
<!-- Node3 -->
<g id="node3" class="node">
<title>Node3</title>
<g id="a_node3"><a xlink:href="spec_2comp_8h.html" target="_top" xlink:title=" ">
<polygon fill="white" stroke="black" points="0,-616.5 0,-635.5 53,-635.5 53,-616.5 0,-616.5"/>
<text text-anchor="middle" x="26.5" y="-623.5" font-family="Helvetica,sans-Serif" font-size="10.00">comp.h</text>
</a>
</g>
</g>
<!-- Node2&#45;&gt;Node3 -->
<g id="edge2" class="edge">
<title>Node2&#45;&gt;Node3</title>
<path fill="none" stroke="midnightblue" d="M995.29,-679.71C815.67,-675.32 249.02,-659.9 67.5,-636 62.88,-635.39 58,-634.52 53.29,-633.57"/>
<polygon fill="midnightblue" stroke="midnightblue" points="995.23,-683.21 1005.31,-679.95 995.4,-676.21 995.23,-683.21"/>
</g>
<!-- Node5 -->
<g id="node5" class="node">
<title>Node5</title>
<g id="a_node5"><a xlink:href="spec_2crypto_8h.html" target="_top" xlink:title=" ">
<polygon fill="white" stroke="black" points="35.5,-168.5 35.5,-187.5 91.5,-187.5 91.5,-168.5 35.5,-168.5"/>
<text text-anchor="middle" x="63.5" y="-175.5" font-family="Helvetica,sans-Serif" font-size="10.00">crypto.h</text>
</a>
</g>
</g>
<!-- Node2&#45;&gt;Node5 -->
<g id="edge4" class="edge">
<title>Node2&#45;&gt;Node5</title>
<path fill="none" stroke="midnightblue" d="M995.21,-680.04C798.37,-676.42 141.52,-662.39 105.5,-636 80.66,-617.8 81.5,-601.8 81.5,-571 81.5,-571 81.5,-571 81.5,-289 81.5,-250.88 70.84,-206.29 65.93,-187.76"/>
<polygon fill="midnightblue" stroke="midnightblue" points="995.26,-683.54 1005.33,-680.23 995.39,-676.55 995.26,-683.54"/>
</g>
<!-- Node7 -->
<g id="node7" class="node">
<title>Node7</title>
<g id="a_node7"><a xlink:href="spec_2crypto__types_8h.html" target="_top" xlink:title=" ">
<polygon fill="white" stroke="black" points="148,-392.5 148,-411.5 237,-411.5 237,-392.5 148,-392.5"/>
<text text-anchor="middle" x="192.5" y="-399.5" font-family="Helvetica,sans-Serif" font-size="10.00">crypto_types.h</text>
</a>
</g>
</g>
<!-- Node2&#45;&gt;Node7 -->
<g id="edge6" class="edge">
<title>Node2&#45;&gt;Node7</title>
<path fill="none" stroke="midnightblue" d="M995.25,-679.54C809.11,-673.91 216.5,-649.79 216.5,-571 216.5,-571 216.5,-571 216.5,-513 216.5,-474.49 202.29,-430.11 195.74,-411.7"/>
<polygon fill="midnightblue" stroke="midnightblue" points="995.27,-683.04 1005.36,-679.84 995.47,-676.05 995.27,-683.04"/>
</g>
<!-- Node9 -->
<g id="node9" class="node">
<title>Node9</title>
<g id="a_node9"><a xlink:href="spec_2ipsec_8h.html" target="_top" xlink:title=" ">
<polygon fill="white" stroke="black" points="345,-56.5 345,-75.5 396,-75.5 396,-56.5 345,-56.5"/>
<text text-anchor="middle" x="370.5" y="-63.5" font-family="Helvetica,sans-Serif" font-size="10.00">ipsec.h</text>
</a>
</g>
</g>
<!-- Node2&#45;&gt;Node9 -->
<g id="edge63" class="edge">
<title>Node2&#45;&gt;Node9</title>
<path fill="none" stroke="midnightblue" d="M995.28,-680.32C795.14,-677.11 119.5,-659.74 119.5,-571 119.5,-571 119.5,-571 119.5,-177 119.5,-79.47 280.45,-67.6 344.58,-66.74"/>
<polygon fill="midnightblue" stroke="midnightblue" points="995.23,-683.81 1005.28,-680.47 995.34,-676.82 995.23,-683.81"/>
</g>
<!-- Node15 -->
<g id="node15" class="node">
<title>Node15</title>
<g id="a_node15"><a xlink:href="spec_2dma__types_8h.html" target="_top" xlink:title=" ">
<polygon fill="white" stroke="black" points="488.5,-616.5 488.5,-635.5 568.5,-635.5 568.5,-616.5 488.5,-616.5"/>
<text text-anchor="middle" x="528.5" y="-623.5" font-family="Helvetica,sans-Serif" font-size="10.00">dma_types.h</text>
</a>
</g>
</g>
<!-- Node2&#45;&gt;Node15 -->
<g id="edge16" class="edge">
<title>Node2&#45;&gt;Node15</title>
<path fill="none" stroke="midnightblue" d="M994.94,-675.25C889.17,-664.31 661.22,-640.73 568.73,-631.16"/>
<polygon fill="midnightblue" stroke="midnightblue" points="994.78,-678.75 1005.09,-676.3 995.5,-671.79 994.78,-678.75"/>
</g>
<!-- Node26 -->
<g id="node26" class="node">
<title>Node26</title>
<g id="a_node26"><a xlink:href="spec_2packet__io_8h.html" target="_top" xlink:title=" ">
<polygon fill="white" stroke="black" points="831.5,-168.5 831.5,-187.5 903.5,-187.5 903.5,-168.5 831.5,-168.5"/>
<text text-anchor="middle" x="867.5" y="-175.5" font-family="Helvetica,sans-Serif" font-size="10.00">packet_io.h</text>
</a>
</g>
</g>
<!-- Node2&#45;&gt;Node26 -->
<g id="edge67" class="edge">
<title>Node2&#45;&gt;Node26</title>
<path fill="none" stroke="midnightblue" d="M1042.93,-662.88C1034.63,-641.37 1022.5,-604.21 1022.5,-571 1022.5,-571 1022.5,-571 1022.5,-289 1022.5,-231.09 949.65,-200.88 903.84,-187.61"/>
<polygon fill="midnightblue" stroke="midnightblue" points="1039.75,-664.37 1046.72,-672.35 1046.25,-661.77 1039.75,-664.37"/>
</g>
<!-- Node28 -->
<g id="node28" class="node">
<title>Node28</title>
<g id="a_node28"><a xlink:href="spec_2packet_8h.html" target="_top" xlink:title=" ">
<polygon fill="white" stroke="black" points="915.5,-280.5 915.5,-299.5 973.5,-299.5 973.5,-280.5 915.5,-280.5"/>
<text text-anchor="middle" x="944.5" y="-287.5" font-family="Helvetica,sans-Serif" font-size="10.00">packet.h</text>
</a>
</g>
</g>
<!-- Node2&#45;&gt;Node28 -->
<g id="edge64" class="edge">
<title>Node2&#45;&gt;Node28</title>
<path fill="none" stroke="midnightblue" d="M1098.04,-669.85C1124.09,-662.52 1156.32,-651.41 1182.5,-636 1225.89,-610.46 1228.25,-592.73 1266.5,-560 1350.39,-488.22 1519.5,-477.38 1449.5,-392 1388.42,-317.5 1072.32,-296.86 973.83,-292.19"/>
<polygon fill="midnightblue" stroke="midnightblue" points="1097.11,-666.48 1088.38,-672.48 1098.95,-673.23 1097.11,-666.48"/>
</g>
<!-- Node30 -->
<g id="node30" class="node">
<title>Node30</title>
<g id="a_node30"><a xlink:href="spec_2packet__io__types_8h.html" target="_top" xlink:title=" ">
<polygon fill="white" stroke="black" points="742.5,-392.5 742.5,-411.5 846.5,-411.5 846.5,-392.5 742.5,-392.5"/>
<text text-anchor="middle" x="794.5" y="-399.5" font-family="Helvetica,sans-Serif" font-size="10.00">packet_io_types.h</text>
</a>
</g>
</g>
<!-- Node2&#45;&gt;Node30 -->
<g id="edge68" class="edge">
<title>Node2&#45;&gt;Node30</title>
<path fill="none" stroke="midnightblue" d="M1001.3,-669.58C953.96,-655.32 889.5,-625.83 889.5,-571 889.5,-571 889.5,-571 889.5,-513 889.5,-465.06 837.17,-427.69 810.19,-411.6"/>
<polygon fill="midnightblue" stroke="midnightblue" points="1000.54,-673 1011.11,-672.39 1002.47,-666.27 1000.54,-673"/>
</g>
<!-- Node39 -->
<g id="node39" class="node">
<title>Node39</title>
<g id="a_node39"><a xlink:href="packet__inlines_8h.html" target="_top" xlink:title=" ">
<polygon fill="white" stroke="black" points="1051,-392.5 1051,-411.5 1146,-411.5 1146,-392.5 1051,-392.5"/>
<text text-anchor="middle" x="1098.5" y="-399.5" font-family="Helvetica,sans-Serif" font-size="10.00">packet_inlines.h</text>
</a>
</g>
</g>
<!-- Node2&#45;&gt;Node39 -->
<g id="edge72" class="edge">
<title>Node2&#45;&gt;Node39</title>
<path fill="none" stroke="midnightblue" d="M1058.34,-662.91C1066.93,-641.42 1079.5,-604.28 1079.5,-571 1079.5,-571 1079.5,-571 1079.5,-513 1079.5,-474.82 1090.75,-430.26 1095.94,-411.75"/>
<polygon fill="midnightblue" stroke="midnightblue" points="1055.02,-661.79 1054.41,-672.36 1061.48,-664.47 1055.02,-661.79"/>
</g>
<!-- Node40 -->
<g id="node40" class="node">
<title>Node40</title>
<g id="a_node40"><a xlink:href="packet__vector__inlines_8h.html" target="_top" xlink:title=" ">
<polygon fill="white" stroke="black" points="1164,-392.5 1164,-411.5 1295,-411.5 1295,-392.5 1164,-392.5"/>
<text text-anchor="middle" x="1229.5" y="-399.5" font-family="Helvetica,sans-Serif" font-size="10.00">packet_vector_inlines.h</text>
</a>
</g>
</g>
<!-- Node2&#45;&gt;Node40 -->
<g id="edge73" class="edge">
<title>Node2&#45;&gt;Node40</title>
<path fill="none" stroke="midnightblue" d="M1075,-667.15C1103.44,-649.04 1146.5,-614.46 1146.5,-571 1146.5,-571 1146.5,-571 1146.5,-513 1146.5,-467.07 1193.19,-428.16 1216.53,-411.57"/>
<polygon fill="midnightblue" stroke="midnightblue" points="1073.06,-664.23 1066.35,-672.44 1076.71,-670.21 1073.06,-664.23"/>
</g>
<!-- Node42 -->
<g id="node42" class="node">
<title>Node42</title>
<g id="a_node42"><a xlink:href="spec_2event_8h.html" target="_top" xlink:title=" ">
<polygon fill="white" stroke="black" points="1175,-504.5 1175,-523.5 1228,-523.5 1228,-504.5 1175,-504.5"/>
<text text-anchor="middle" x="1201.5" y="-511.5" font-family="Helvetica,sans-Serif" font-size="10.00">event.h</text>
</a>
</g>
</g>
<!-- Node2&#45;&gt;Node42 -->
<g id="edge55" class="edge">
<title>Node2&#45;&gt;Node42</title>
<path fill="none" stroke="midnightblue" d="M1103.31,-669.44C1123.51,-662.67 1145.32,-652.15 1160.5,-636 1191.65,-602.87 1199.2,-545.21 1200.98,-523.55"/>
<polygon fill="midnightblue" stroke="midnightblue" points="1102.06,-666.16 1093.55,-672.47 1104.14,-672.84 1102.06,-666.16"/>
</g>
<!-- Node45 -->
<g id="node45" class="node">
<title>Node45</title>
<g id="a_node45"><a xlink:href="spec_2packet__flags_8h.html" target="_top" xlink:title=" ">
<polygon fill="white" stroke="black" points="1275.5,-616.5 1275.5,-635.5 1361.5,-635.5 1361.5,-616.5 1275.5,-616.5"/>
<text text-anchor="middle" x="1318.5" y="-623.5" font-family="Helvetica,sans-Serif" font-size="10.00">packet_flags.h</text>
</a>
</g>
</g>
<!-- Node2&#45;&gt;Node45 -->
<g id="edge65" class="edge">
<title>Node2&#45;&gt;Node45</title>
<path fill="none" stroke="midnightblue" d="M1103.06,-670.41C1153.71,-660.2 1229.37,-644.96 1276.23,-635.52"/>
<polygon fill="midnightblue" stroke="midnightblue" points="1102.08,-667.04 1092.97,-672.44 1103.46,-673.9 1102.08,-667.04"/>
</g>
<!-- Node47 -->
<g id="node47" class="node">
<title>Node47</title>
<g id="a_node47"><a xlink:href="event__inlines_8h_source.html" target="_top" xlink:title=" ">
<polygon fill="white" stroke="black" points="1380,-616.5 1380,-635.5 1471,-635.5 1471,-616.5 1380,-616.5"/>
<text text-anchor="middle" x="1425.5" y="-623.5" font-family="Helvetica,sans-Serif" font-size="10.00">event_inlines.h</text>
</a>
</g>
</g>
<!-- Node2&#45;&gt;Node47 -->
<g id="edge69" class="edge">
<title>Node2&#45;&gt;Node47</title>
<path fill="none" stroke="midnightblue" d="M1105.83,-673.6C1169.67,-664.98 1277.77,-650.11 1370.5,-636 1373.56,-635.53 1376.72,-635.04 1379.89,-634.54"/>
<polygon fill="midnightblue" stroke="midnightblue" points="1105.03,-670.18 1095.59,-674.98 1105.97,-677.12 1105.03,-670.18"/>
</g>
<!-- Node48 -->
<g id="node48" class="node">
<title>Node48</title>
<g id="a_node48"><a xlink:href="event__validation__external_8h.html" target="_top" xlink:title=" ">
<polygon fill="white" stroke="black" points="1489,-616.5 1489,-635.5 1642,-635.5 1642,-616.5 1489,-616.5"/>
<text text-anchor="middle" x="1565.5" y="-623.5" font-family="Helvetica,sans-Serif" font-size="10.00">event_validation_external.h</text>
</a>
</g>
</g>
<!-- Node2&#45;&gt;Node48 -->
<g id="edge70" class="edge">
<title>Node2&#45;&gt;Node48</title>
<path fill="none" stroke="midnightblue" d="M1105.77,-675.24C1187.63,-666.7 1345.92,-650.17 1480.5,-636 1483.16,-635.72 1485.86,-635.44 1488.59,-635.15"/>
<polygon fill="midnightblue" stroke="midnightblue" points="1105.28,-671.77 1095.69,-676.29 1106,-678.73 1105.28,-671.77"/>
</g>
<!-- Node4 -->
<g id="node4" class="node">
<title>Node4</title>
<g id="a_node4"><a xlink:href="comp_8h.html" target="_top" xlink:title=" ">
<polygon fill="white" stroke="black" points="0,-560.5 0,-579.5 53,-579.5 53,-560.5 0,-560.5"/>
<text text-anchor="middle" x="26.5" y="-567.5" font-family="Helvetica,sans-Serif" font-size="10.00">comp.h</text>
</a>
</g>
</g>
<!-- Node3&#45;&gt;Node4 -->
<g id="edge3" class="edge">
<title>Node3&#45;&gt;Node4</title>
<path fill="none" stroke="midnightblue" d="M26.5,-605.8C26.5,-596.91 26.5,-586.78 26.5,-579.75"/>
<polygon fill="midnightblue" stroke="midnightblue" points="23,-606.08 26.5,-616.08 30,-606.08 23,-606.08"/>
</g>
<!-- Node6 -->
<g id="node6" class="node">
<title>Node6</title>
<g id="a_node6"><a xlink:href="crypto_8h.html" target="_top" xlink:title=" ">
<polygon fill="white" stroke="black" points="35.5,-112.5 35.5,-131.5 91.5,-131.5 91.5,-112.5 35.5,-112.5"/>
<text text-anchor="middle" x="63.5" y="-119.5" font-family="Helvetica,sans-Serif" font-size="10.00">crypto.h</text>
</a>
</g>
</g>
<!-- Node5&#45;&gt;Node6 -->
<g id="edge5" class="edge">
<title>Node5&#45;&gt;Node6</title>
<path fill="none" stroke="midnightblue" d="M63.5,-157.8C63.5,-148.91 63.5,-138.78 63.5,-131.75"/>
<polygon fill="midnightblue" stroke="midnightblue" points="60,-158.08 63.5,-168.08 67,-158.08 60,-158.08"/>
</g>
<!-- Node8 -->
<g id="node8" class="node">
<title>Node8</title>
<g id="a_node8"><a xlink:href="crypto__types_8h.html" target="_top" xlink:title=" ">
<polygon fill="white" stroke="black" points="326,-224.5 326,-243.5 415,-243.5 415,-224.5 326,-224.5"/>
<text text-anchor="middle" x="370.5" y="-231.5" font-family="Helvetica,sans-Serif" font-size="10.00">crypto_types.h</text>
</a>
</g>
</g>
<!-- Node7&#45;&gt;Node8 -->
<g id="edge7" class="edge">
<title>Node7&#45;&gt;Node8</title>
<path fill="none" stroke="midnightblue" d="M205.05,-383.69C215.26,-370.1 230.41,-351.02 245.5,-336 283.46,-298.21 334.79,-260.29 358.09,-243.69"/>
<polygon fill="midnightblue" stroke="midnightblue" points="201.96,-381.98 198.83,-392.1 207.59,-386.14 201.96,-381.98"/>
</g>
<!-- Node8&#45;&gt;Node5 -->
<g id="edge8" class="edge">
<title>Node8&#45;&gt;Node5</title>
<path fill="none" stroke="midnightblue" d="M315.69,-223.36C250,-211.8 142.43,-192.88 91.68,-183.96"/>
<polygon fill="midnightblue" stroke="midnightblue" points="315.4,-226.86 325.86,-225.15 316.62,-219.97 315.4,-226.86"/>
</g>
<!-- Node8&#45;&gt;Node9 -->
<g id="edge9" class="edge">
<title>Node8&#45;&gt;Node9</title>
<path fill="none" stroke="midnightblue" d="M370.5,-213.93C370.5,-177.92 370.5,-101.23 370.5,-75.57"/>
<polygon fill="midnightblue" stroke="midnightblue" points="367,-214.08 370.5,-224.08 374,-214.08 367,-214.08"/>
</g>
<!-- Node11 -->
<g id="node11" class="node">
<title>Node11</title>
<g id="a_node11"><a xlink:href="spec_2ipsec__types_8h.html" target="_top" xlink:title=" ">
<polygon fill="white" stroke="black" points="614,-168.5 614,-187.5 697,-187.5 697,-168.5 614,-168.5"/>
<text text-anchor="middle" x="655.5" y="-175.5" font-family="Helvetica,sans-Serif" font-size="10.00">ipsec_types.h</text>
</a>
</g>
</g>
<!-- Node8&#45;&gt;Node11 -->
<g id="edge11" class="edge">
<title>Node8&#45;&gt;Node11</title>
<path fill="none" stroke="midnightblue" d="M424.94,-222.68C479.91,-212.27 563.61,-196.41 613.6,-186.94"/>
<polygon fill="midnightblue" stroke="midnightblue" points="424.2,-219.26 415.03,-224.56 425.51,-226.14 424.2,-219.26"/>
</g>
<!-- Node14 -->
<g id="node14" class="node">
<title>Node14</title>
<g id="a_node14"><a xlink:href="crypto__inlines_8h_source.html" target="_top" xlink:title=" ">
<polygon fill="white" stroke="black" points="1069.5,-168.5 1069.5,-187.5 1163.5,-187.5 1163.5,-168.5 1069.5,-168.5"/>
<text text-anchor="middle" x="1116.5" y="-175.5" font-family="Helvetica,sans-Serif" font-size="10.00">crypto_inlines.h</text>
</a>
</g>
</g>
<!-- Node8&#45;&gt;Node14 -->
<g id="edge15" class="edge">
<title>Node8&#45;&gt;Node14</title>
<path fill="none" stroke="midnightblue" d="M425.33,-229.03C565.99,-218.85 937.86,-191.93 1069.5,-182.4"/>
<polygon fill="midnightblue" stroke="midnightblue" points="424.93,-225.55 415.21,-229.76 425.43,-232.53 424.93,-225.55"/>
</g>
<!-- Node10 -->
<g id="node10" class="node">
<title>Node10</title>
<g id="a_node10"><a xlink:href="ipsec_8h.html" target="_top" xlink:title=" ">
<polygon fill="white" stroke="black" points="345,-0.5 345,-19.5 396,-19.5 396,-0.5 345,-0.5"/>
<text text-anchor="middle" x="370.5" y="-7.5" font-family="Helvetica,sans-Serif" font-size="10.00">ipsec.h</text>
</a>
</g>
</g>
<!-- Node9&#45;&gt;Node10 -->
<g id="edge10" class="edge">
<title>Node9&#45;&gt;Node10</title>
<path fill="none" stroke="midnightblue" d="M370.5,-45.8C370.5,-36.91 370.5,-26.78 370.5,-19.75"/>
<polygon fill="midnightblue" stroke="midnightblue" points="367,-46.08 370.5,-56.08 374,-46.08 367,-46.08"/>
</g>
<!-- Node12 -->
<g id="node12" class="node">
<title>Node12</title>
<g id="a_node12"><a xlink:href="ipsec__types_8h.html" target="_top" xlink:title=" ">
<polygon fill="white" stroke="black" points="614,-112.5 614,-131.5 697,-131.5 697,-112.5 614,-112.5"/>
<text text-anchor="middle" x="655.5" y="-119.5" font-family="Helvetica,sans-Serif" font-size="10.00">ipsec_types.h</text>
</a>
</g>
</g>
<!-- Node11&#45;&gt;Node12 -->
<g id="edge12" class="edge">
<title>Node11&#45;&gt;Node12</title>
<path fill="none" stroke="midnightblue" d="M655.5,-157.8C655.5,-148.91 655.5,-138.78 655.5,-131.75"/>
<polygon fill="midnightblue" stroke="midnightblue" points="652,-158.08 655.5,-168.08 659,-158.08 652,-158.08"/>
</g>
<!-- Node12&#45;&gt;Node9 -->
<g id="edge13" class="edge">
<title>Node12&#45;&gt;Node9</title>
<path fill="none" stroke="midnightblue" d="M603.9,-111.22C542.65,-99.62 442.96,-80.73 396.22,-71.87"/>
<polygon fill="midnightblue" stroke="midnightblue" points="603.28,-114.67 613.75,-113.09 604.58,-107.79 603.28,-114.67"/>
</g>
<!-- Node13 -->
<g id="node13" class="node">
<title>Node13</title>
<g id="a_node13"><a xlink:href="ipsec__inlines_8h_source.html" target="_top" xlink:title=" ">
<polygon fill="white" stroke="black" points="997,-56.5 997,-75.5 1086,-75.5 1086,-56.5 997,-56.5"/>
<text text-anchor="middle" x="1041.5" y="-63.5" font-family="Helvetica,sans-Serif" font-size="10.00">ipsec_inlines.h</text>
</a>
</g>
</g>
<!-- Node12&#45;&gt;Node13 -->
<g id="edge14" class="edge">
<title>Node12&#45;&gt;Node13</title>
<path fill="none" stroke="midnightblue" d="M707.5,-113.73C783.79,-103.05 924.79,-83.33 996.74,-73.26"/>
<polygon fill="midnightblue" stroke="midnightblue" points="706.59,-110.32 697.18,-115.17 707.56,-117.25 706.59,-110.32"/>
</g>
<!-- Node16 -->
<g id="node16" class="node">
<title>Node16</title>
<g id="a_node16"><a xlink:href="dma__types_8h.html" target="_top" xlink:title=" ">
<polygon fill="white" stroke="black" points="364.5,-560.5 364.5,-579.5 444.5,-579.5 444.5,-560.5 364.5,-560.5"/>
<text text-anchor="middle" x="404.5" y="-567.5" font-family="Helvetica,sans-Serif" font-size="10.00">dma_types.h</text>
</a>
</g>
</g>
<!-- Node15&#45;&gt;Node16 -->
<g id="edge17" class="edge">
<title>Node15&#45;&gt;Node16</title>
<path fill="none" stroke="midnightblue" d="M499.49,-612.37C476.27,-602.26 444.34,-588.35 424.06,-579.52"/>
<polygon fill="midnightblue" stroke="midnightblue" points="498.29,-615.66 508.85,-616.44 501.08,-609.24 498.29,-615.66"/>
</g>
<!-- Node17 -->
<g id="node17" class="node">
<title>Node17</title>
<g id="a_node17"><a xlink:href="spec_2dma_8h.html" target="_top" xlink:title=" ">
<polygon fill="white" stroke="black" points="255,-392.5 255,-411.5 302,-411.5 302,-392.5 255,-392.5"/>
<text text-anchor="middle" x="278.5" y="-399.5" font-family="Helvetica,sans-Serif" font-size="10.00">dma.h</text>
</a>
</g>
</g>
<!-- Node16&#45;&gt;Node17 -->
<g id="edge18" class="edge">
<title>Node16&#45;&gt;Node17</title>
<path fill="none" stroke="midnightblue" d="M364.82,-556.56C347.85,-549.45 329.09,-538.91 316.5,-524 287.52,-489.68 280.6,-433.22 278.98,-411.7"/>
<polygon fill="midnightblue" stroke="midnightblue" points="363.96,-559.98 374.54,-560.36 366.5,-553.46 363.96,-559.98"/>
</g>
<!-- Node19 -->
<g id="node19" class="node">
<title>Node19</title>
<g id="a_node19"><a xlink:href="spec_2pool__types_8h.html" target="_top" xlink:title=" ">
<polygon fill="white" stroke="black" points="439,-504.5 439,-523.5 518,-523.5 518,-504.5 439,-504.5"/>
<text text-anchor="middle" x="478.5" y="-511.5" font-family="Helvetica,sans-Serif" font-size="10.00">pool_types.h</text>
</a>
</g>
</g>
<!-- Node16&#45;&gt;Node19 -->
<g id="edge20" class="edge">
<title>Node16&#45;&gt;Node19</title>
<path fill="none" stroke="midnightblue" d="M424.53,-554.38C437.91,-544.62 455.06,-532.11 466.39,-523.83"/>
<polygon fill="midnightblue" stroke="midnightblue" points="422.4,-551.6 416.39,-560.32 426.53,-557.26 422.4,-551.6"/>
</g>
<!-- Node23 -->
<g id="node23" class="node">
<title>Node23</title>
<g id="a_node23"><a xlink:href="dma__inlines_8h_source.html" target="_top" xlink:title=" ">
<polygon fill="white" stroke="black" points="326,-280.5 326,-299.5 411,-299.5 411,-280.5 326,-280.5"/>
<text text-anchor="middle" x="368.5" y="-287.5" font-family="Helvetica,sans-Serif" font-size="10.00">dma_inlines.h</text>
</a>
</g>
</g>
<!-- Node16&#45;&gt;Node23 -->
<g id="edge54" class="edge">
<title>Node16&#45;&gt;Node23</title>
<path fill="none" stroke="midnightblue" d="M385.5,-553.74C363.57,-534.27 330.5,-498.39 330.5,-459 330.5,-459 330.5,-459 330.5,-401 330.5,-361.4 352.77,-317.96 363.22,-299.77"/>
<polygon fill="midnightblue" stroke="midnightblue" points="383.38,-556.53 393.26,-560.36 387.93,-551.21 383.38,-556.53"/>
</g>
<!-- Node18 -->
<g id="node18" class="node">
<title>Node18</title>
<g id="a_node18"><a xlink:href="dma_8h.html" target="_top" xlink:title=" ">
<polygon fill="white" stroke="black" points="255,-336.5 255,-355.5 302,-355.5 302,-336.5 255,-336.5"/>
<text text-anchor="middle" x="278.5" y="-343.5" font-family="Helvetica,sans-Serif" font-size="10.00">dma.h</text>
</a>
</g>
</g>
<!-- Node17&#45;&gt;Node18 -->
<g id="edge19" class="edge">
<title>Node17&#45;&gt;Node18</title>
<path fill="none" stroke="midnightblue" d="M278.5,-381.8C278.5,-372.91 278.5,-362.78 278.5,-355.75"/>
<polygon fill="midnightblue" stroke="midnightblue" points="275,-382.08 278.5,-392.08 282,-382.08 275,-382.08"/>
</g>
<!-- Node20 -->
<g id="node20" class="node">
<title>Node20</title>
<g id="a_node20"><a xlink:href="pool__types_8h.html" target="_top" xlink:title=" ">
<polygon fill="white" stroke="black" points="562,-448.5 562,-467.5 641,-467.5 641,-448.5 562,-448.5"/>
<text text-anchor="middle" x="601.5" y="-455.5" font-family="Helvetica,sans-Serif" font-size="10.00">pool_types.h</text>
</a>
</g>
</g>
<!-- Node19&#45;&gt;Node20 -->
<g id="edge21" class="edge">
<title>Node19&#45;&gt;Node20</title>
<path fill="none" stroke="midnightblue" d="M507.27,-500.37C530.31,-490.26 561.98,-476.35 582.1,-467.52"/>
<polygon fill="midnightblue" stroke="midnightblue" points="505.74,-497.22 497.99,-504.44 508.55,-503.63 505.74,-497.22"/>
</g>
<!-- Node20&#45;&gt;Node7 -->
<g id="edge30" class="edge">
<title>Node20&#45;&gt;Node7</title>
<path fill="none" stroke="midnightblue" d="M551.78,-451.39C482.89,-443.46 354.53,-428.14 245.5,-412 242.73,-411.59 239.88,-411.15 237.01,-410.7"/>
<polygon fill="midnightblue" stroke="midnightblue" points="551.58,-454.89 561.91,-452.55 552.38,-447.94 551.58,-454.89"/>
</g>
<!-- Node20&#45;&gt;Node17 -->
<g id="edge31" class="edge">
<title>Node20&#45;&gt;Node17</title>
<path fill="none" stroke="midnightblue" d="M551.91,-448.71C481.38,-436.92 354.83,-415.76 302.33,-406.98"/>
<polygon fill="midnightblue" stroke="midnightblue" points="551.45,-452.18 561.89,-450.38 552.61,-445.28 551.45,-452.18"/>
</g>
<!-- Node21 -->
<g id="node21" class="node">
<title>Node21</title>
<g id="a_node21"><a xlink:href="spec_2buffer_8h.html" target="_top" xlink:title=" ">
<polygon fill="white" stroke="black" points="397,-392.5 397,-411.5 450,-411.5 450,-392.5 397,-392.5"/>
<text text-anchor="middle" x="423.5" y="-399.5" font-family="Helvetica,sans-Serif" font-size="10.00">buffer.h</text>
</a>
</g>
</g>
<!-- Node20&#45;&gt;Node21 -->
<g id="edge22" class="edge">
<title>Node20&#45;&gt;Node21</title>
<path fill="none" stroke="midnightblue" d="M563.67,-445.52C529.55,-435.17 480.25,-420.21 450.12,-411.08"/>
<polygon fill="midnightblue" stroke="midnightblue" points="562.71,-448.89 573.3,-448.44 564.74,-442.19 562.71,-448.89"/>
</g>
<!-- Node20&#45;&gt;Node23 -->
<g id="edge50" class="edge">
<title>Node20&#45;&gt;Node23</title>
<path fill="none" stroke="midnightblue" d="M551.79,-453C495.76,-447.42 409.59,-435.26 387.5,-412 357.48,-380.39 363.36,-321.81 366.89,-299.73"/>
<polygon fill="midnightblue" stroke="midnightblue" points="551.59,-456.5 561.88,-453.97 552.26,-449.53 551.59,-456.5"/>
</g>
<!-- Node24 -->
<g id="node24" class="node">
<title>Node24</title>
<g id="a_node24"><a xlink:href="spec_2classification_8h.html" target="_top" xlink:title=" ">
<polygon fill="white" stroke="black" points="750,-280.5 750,-299.5 839,-299.5 839,-280.5 750,-280.5"/>
<text text-anchor="middle" x="794.5" y="-287.5" font-family="Helvetica,sans-Serif" font-size="10.00">classification.h</text>
</a>
</g>
</g>
<!-- Node20&#45;&gt;Node24 -->
<g id="edge25" class="edge">
<title>Node20&#45;&gt;Node24</title>
<path fill="none" stroke="midnightblue" d="M640.81,-444.88C659.18,-437.66 680.3,-426.94 695.5,-412 722.43,-385.53 709.19,-364.9 733.5,-336 746.46,-320.59 765.72,-307.53 779.12,-299.51"/>
<polygon fill="midnightblue" stroke="midnightblue" points="639.38,-441.68 631.22,-448.44 641.81,-448.24 639.38,-441.68"/>
</g>
<!-- Node20&#45;&gt;Node28 -->
<g id="edge32" class="edge">
<title>Node20&#45;&gt;Node28</title>
<path fill="none" stroke="midnightblue" d="M651.43,-452.57C715.45,-446.15 822.17,-432.71 855.5,-412 901.13,-383.65 930.95,-322.57 940.86,-299.8"/>
<polygon fill="midnightblue" stroke="midnightblue" points="650.77,-449.12 641.16,-453.58 651.45,-456.09 650.77,-449.12"/>
</g>
<!-- Node20&#45;&gt;Node30 -->
<g id="edge36" class="edge">
<title>Node20&#45;&gt;Node30</title>
<path fill="none" stroke="midnightblue" d="M641.89,-445.7C678.32,-435.51 731.09,-420.74 764.06,-411.52"/>
<polygon fill="midnightblue" stroke="midnightblue" points="640.77,-442.38 632.08,-448.44 642.65,-449.12 640.77,-442.38"/>
</g>
<!-- Node34 -->
<g id="node34" class="node">
<title>Node34</title>
<g id="a_node34"><a xlink:href="spec_2pool_8h.html" target="_top" xlink:title=" ">
<polygon fill="white" stroke="black" points="468,-392.5 468,-411.5 515,-411.5 515,-392.5 468,-392.5"/>
<text text-anchor="middle" x="491.5" y="-399.5" font-family="Helvetica,sans-Serif" font-size="10.00">pool.h</text>
</a>
</g>
</g>
<!-- Node20&#45;&gt;Node34 -->
<g id="edge45" class="edge">
<title>Node20&#45;&gt;Node34</title>
<path fill="none" stroke="midnightblue" d="M574.74,-443.86C554.34,-433.85 526.83,-420.35 509.13,-411.65"/>
<polygon fill="midnightblue" stroke="midnightblue" points="573.31,-447.06 583.83,-448.32 576.39,-440.78 573.31,-447.06"/>
</g>
<!-- Node36 -->
<g id="node36" class="node">
<title>Node36</title>
<g id="a_node36"><a xlink:href="spec_2timer_8h.html" target="_top" xlink:title=" ">
<polygon fill="white" stroke="black" points="533,-392.5 533,-411.5 584,-411.5 584,-392.5 533,-392.5"/>
<text text-anchor="middle" x="558.5" y="-399.5" font-family="Helvetica,sans-Serif" font-size="10.00">timer.h</text>
</a>
</g>
</g>
<!-- Node20&#45;&gt;Node36 -->
<g id="edge47" class="edge">
<title>Node20&#45;&gt;Node36</title>
<path fill="none" stroke="midnightblue" d="M588.08,-440.14C580.59,-430.74 571.56,-419.4 565.47,-411.75"/>
<polygon fill="midnightblue" stroke="midnightblue" points="585.43,-442.44 594.4,-448.08 590.91,-438.08 585.43,-442.44"/>
</g>
<!-- Node38 -->
<g id="node38" class="node">
<title>Node38</title>
<g id="a_node38"><a xlink:href="buffer__inlines_8h_source.html" target="_top" xlink:title=" ">
<polygon fill="white" stroke="black" points="902.5,-392.5 902.5,-411.5 994.5,-411.5 994.5,-392.5 902.5,-392.5"/>
<text text-anchor="middle" x="948.5" y="-399.5" font-family="Helvetica,sans-Serif" font-size="10.00">buffer_inlines.h</text>
</a>
</g>
</g>
<!-- Node20&#45;&gt;Node38 -->
<g id="edge49" class="edge">
<title>Node20&#45;&gt;Node38</title>
<path fill="none" stroke="midnightblue" d="M651.22,-449.26C718.34,-438.82 837.03,-420.35 902.29,-410.19"/>
<polygon fill="midnightblue" stroke="midnightblue" points="650.65,-445.81 641.31,-450.81 651.72,-452.73 650.65,-445.81"/>
</g>
<!-- Node20&#45;&gt;Node39 -->
<g id="edge51" class="edge">
<title>Node20&#45;&gt;Node39</title>
<path fill="none" stroke="midnightblue" d="M651.36,-451.58C747.38,-441.15 956.76,-418.4 1050.93,-408.17"/>
<polygon fill="midnightblue" stroke="midnightblue" points="650.89,-448.11 641.33,-452.67 651.65,-455.07 650.89,-448.11"/>
</g>
<!-- Node20&#45;&gt;Node40 -->
<g id="edge52" class="edge">
<title>Node20&#45;&gt;Node40</title>
<path fill="none" stroke="midnightblue" d="M651.2,-453.6C748.12,-446.82 969.1,-430.66 1154.5,-412 1157.5,-411.7 1160.57,-411.38 1163.67,-411.04"/>
<polygon fill="midnightblue" stroke="midnightblue" points="650.84,-450.11 641.11,-454.3 651.33,-457.1 650.84,-450.11"/>
</g>
<!-- Node41 -->
<g id="node41" class="node">
<title>Node41</title>
<g id="a_node41"><a xlink:href="pool__inlines_8h_source.html" target="_top" xlink:title=" ">
<polygon fill="white" stroke="black" points="602.5,-392.5 602.5,-411.5 686.5,-411.5 686.5,-392.5 602.5,-392.5"/>
<text text-anchor="middle" x="644.5" y="-399.5" font-family="Helvetica,sans-Serif" font-size="10.00">pool_inlines.h</text>
</a>
</g>
</g>
<!-- Node20&#45;&gt;Node41 -->
<g id="edge53" class="edge">
<title>Node20&#45;&gt;Node41</title>
<path fill="none" stroke="midnightblue" d="M614.92,-440.14C622.41,-430.74 631.44,-419.4 637.53,-411.75"/>
<polygon fill="midnightblue" stroke="midnightblue" points="612.09,-438.08 608.6,-448.08 617.57,-442.44 612.09,-438.08"/>
</g>
<!-- Node22 -->
<g id="node22" class="node">
<title>Node22</title>
<g id="a_node22"><a xlink:href="buffer_8h.html" target="_top" xlink:title=" ">
<polygon fill="white" stroke="black" points="397,-336.5 397,-355.5 450,-355.5 450,-336.5 397,-336.5"/>
<text text-anchor="middle" x="423.5" y="-343.5" font-family="Helvetica,sans-Serif" font-size="10.00">buffer.h</text>
</a>
</g>
</g>
<!-- Node21&#45;&gt;Node22 -->
<g id="edge23" class="edge">
<title>Node21&#45;&gt;Node22</title>
<path fill="none" stroke="midnightblue" d="M423.5,-381.8C423.5,-372.91 423.5,-362.78 423.5,-355.75"/>
<polygon fill="midnightblue" stroke="midnightblue" points="420,-382.08 423.5,-392.08 427,-382.08 420,-382.08"/>
</g>
<!-- Node22&#45;&gt;Node23 -->
<g id="edge24" class="edge">
<title>Node22&#45;&gt;Node23</title>
<path fill="none" stroke="midnightblue" d="M407.21,-329C397.46,-319.43 385.45,-307.64 377.41,-299.75"/>
<polygon fill="midnightblue" stroke="midnightblue" points="404.83,-331.57 414.42,-336.08 409.73,-326.58 404.83,-331.57"/>
</g>
<!-- Node25 -->
<g id="node25" class="node">
<title>Node25</title>
<g id="a_node25"><a xlink:href="classification_8h.html" target="_top" xlink:title=" ">
<polygon fill="white" stroke="black" points="750,-224.5 750,-243.5 839,-243.5 839,-224.5 750,-224.5"/>
<text text-anchor="middle" x="794.5" y="-231.5" font-family="Helvetica,sans-Serif" font-size="10.00">classification.h</text>
</a>
</g>
</g>
<!-- Node24&#45;&gt;Node25 -->
<g id="edge26" class="edge">
<title>Node24&#45;&gt;Node25</title>
<path fill="none" stroke="midnightblue" d="M794.5,-269.8C794.5,-260.91 794.5,-250.78 794.5,-243.75"/>
<polygon fill="midnightblue" stroke="midnightblue" points="791,-270.08 794.5,-280.08 798,-270.08 791,-270.08"/>
</g>
<!-- Node25&#45;&gt;Node11 -->
<g id="edge27" class="edge">
<title>Node25&#45;&gt;Node11</title>
<path fill="none" stroke="midnightblue" d="M763.02,-220.77C736.91,-210.63 700.46,-196.47 677.42,-187.52"/>
<polygon fill="midnightblue" stroke="midnightblue" points="761.89,-224.08 772.48,-224.44 764.42,-217.56 761.89,-224.08"/>
</g>
<!-- Node25&#45;&gt;Node26 -->
<g id="edge28" class="edge">
<title>Node25&#45;&gt;Node26</title>
<path fill="none" stroke="midnightblue" d="M814.64,-218.1C827.78,-208.38 844.48,-196.03 855.56,-187.83"/>
<polygon fill="midnightblue" stroke="midnightblue" points="812.19,-215.56 806.23,-224.32 816.35,-221.19 812.19,-215.56"/>
</g>
<!-- Node27 -->
<g id="node27" class="node">
<title>Node27</title>
<g id="a_node27"><a xlink:href="packet__io_8h.html" target="_top" xlink:title=" ">
<polygon fill="white" stroke="black" points="831.5,-112.5 831.5,-131.5 903.5,-131.5 903.5,-112.5 831.5,-112.5"/>
<text text-anchor="middle" x="867.5" y="-119.5" font-family="Helvetica,sans-Serif" font-size="10.00">packet_io.h</text>
</a>
</g>
</g>
<!-- Node26&#45;&gt;Node27 -->
<g id="edge29" class="edge">
<title>Node26&#45;&gt;Node27</title>
<path fill="none" stroke="midnightblue" d="M867.5,-157.8C867.5,-148.91 867.5,-138.78 867.5,-131.75"/>
<polygon fill="midnightblue" stroke="midnightblue" points="864,-158.08 867.5,-168.08 871,-158.08 864,-158.08"/>
</g>
<!-- Node29 -->
<g id="node29" class="node">
<title>Node29</title>
<g id="a_node29"><a xlink:href="packet_8h.html" target="_top" xlink:title=" ">
<polygon fill="white" stroke="black" points="1050.5,-224.5 1050.5,-243.5 1108.5,-243.5 1108.5,-224.5 1050.5,-224.5"/>
<text text-anchor="middle" x="1079.5" y="-231.5" font-family="Helvetica,sans-Serif" font-size="10.00">packet.h</text>
</a>
</g>
</g>
<!-- Node28&#45;&gt;Node29 -->
<g id="edge33" class="edge">
<title>Node28&#45;&gt;Node29</title>
<path fill="none" stroke="midnightblue" d="M975.41,-276.64C1000.74,-266.5 1035.93,-252.43 1058.21,-243.52"/>
<polygon fill="midnightblue" stroke="midnightblue" points="973.88,-273.48 965.89,-280.44 976.48,-279.98 973.88,-273.48"/>
</g>
<!-- Node29&#45;&gt;Node13 -->
<g id="edge35" class="edge">
<title>Node29&#45;&gt;Node13</title>
<path fill="none" stroke="midnightblue" d="M1070.75,-215.08C1067.1,-206.98 1063.11,-197.18 1060.5,-188 1048.79,-146.9 1043.75,-95.74 1042.13,-75.66"/>
<polygon fill="midnightblue" stroke="midnightblue" points="1067.64,-216.7 1075.06,-224.27 1073.98,-213.73 1067.64,-216.7"/>
</g>
<!-- Node29&#45;&gt;Node14 -->
<g id="edge34" class="edge">
<title>Node29&#45;&gt;Node14</title>
<path fill="none" stroke="midnightblue" d="M1091.45,-215.57C1097.81,-206.27 1105.37,-195.25 1110.5,-187.75"/>
<polygon fill="midnightblue" stroke="midnightblue" points="1088.37,-213.86 1085.61,-224.08 1094.15,-217.81 1088.37,-213.86"/>
</g>
<!-- Node31 -->
<g id="node31" class="node">
<title>Node31</title>
<g id="a_node31"><a xlink:href="packet__io__types_8h.html" target="_top" xlink:title=" ">
<polygon fill="white" stroke="black" points="742.5,-336.5 742.5,-355.5 846.5,-355.5 846.5,-336.5 742.5,-336.5"/>
<text text-anchor="middle" x="794.5" y="-343.5" font-family="Helvetica,sans-Serif" font-size="10.00">packet_io_types.h</text>
</a>
</g>
</g>
<!-- Node30&#45;&gt;Node31 -->
<g id="edge37" class="edge">
<title>Node30&#45;&gt;Node31</title>
<path fill="none" stroke="midnightblue" d="M794.5,-381.8C794.5,-372.91 794.5,-362.78 794.5,-355.75"/>
<polygon fill="midnightblue" stroke="midnightblue" points="791,-382.08 794.5,-392.08 798,-382.08 791,-382.08"/>
</g>
<!-- Node31&#45;&gt;Node11 -->
<g id="edge39" class="edge">
<title>Node31&#45;&gt;Node11</title>
<path fill="none" stroke="midnightblue" d="M732.45,-334.78C694.46,-327.12 651.01,-315.32 639.5,-300 613.54,-265.43 639.11,-209.12 650.57,-187.67"/>
<polygon fill="midnightblue" stroke="midnightblue" points="731.99,-338.26 742.47,-336.74 733.33,-331.39 731.99,-338.26"/>
</g>
<!-- Node31&#45;&gt;Node24 -->
<g id="edge38" class="edge">
<title>Node31&#45;&gt;Node24</title>
<path fill="none" stroke="midnightblue" d="M794.5,-325.8C794.5,-316.91 794.5,-306.78 794.5,-299.75"/>
<polygon fill="midnightblue" stroke="midnightblue" points="791,-326.08 794.5,-336.08 798,-326.08 791,-326.08"/>
</g>
<!-- Node31&#45;&gt;Node26 -->
<g id="edge41" class="edge">
<title>Node31&#45;&gt;Node26</title>
<path fill="none" stroke="midnightblue" d="M818.2,-330.51C828.83,-322.78 840.53,-312.31 847.5,-300 868.8,-262.39 868.9,-208.34 868.02,-187.58"/>
<polygon fill="midnightblue" stroke="midnightblue" points="815.94,-327.82 809.65,-336.35 819.88,-333.6 815.94,-327.82"/>
</g>
<!-- Node31&#45;&gt;Node28 -->
<g id="edge40" class="edge">
<title>Node31&#45;&gt;Node28</title>
<path fill="none" stroke="midnightblue" d="M827.72,-333.04C855.95,-322.88 895.76,-308.55 920.84,-299.52"/>
<polygon fill="midnightblue" stroke="midnightblue" points="826.49,-329.76 818.27,-336.44 828.86,-336.35 826.49,-329.76"/>
</g>
<!-- Node32 -->
<g id="node32" class="node">
<title>Node32</title>
<g id="a_node32"><a xlink:href="spec_2traffic__mngr_8h.html" target="_top" xlink:title=" ">
<polygon fill="white" stroke="black" points="648.5,-280.5 648.5,-299.5 732.5,-299.5 732.5,-280.5 648.5,-280.5"/>
<text text-anchor="middle" x="690.5" y="-287.5" font-family="Helvetica,sans-Serif" font-size="10.00">traffic_mngr.h</text>
</a>
</g>
</g>
<!-- Node31&#45;&gt;Node32 -->
<g id="edge42" class="edge">
<title>Node31&#45;&gt;Node32</title>
<path fill="none" stroke="midnightblue" d="M768.67,-331.59C749.44,-321.61 723.76,-308.27 707.17,-299.65"/>
<polygon fill="midnightblue" stroke="midnightblue" points="767.3,-334.82 777.79,-336.32 770.53,-328.61 767.3,-334.82"/>
</g>
<!-- Node33 -->
<g id="node33" class="node">
<title>Node33</title>
<g id="a_node33"><a xlink:href="traffic__mngr_8h.html" target="_top" xlink:title=" ">
<polygon fill="white" stroke="black" points="648.5,-224.5 648.5,-243.5 732.5,-243.5 732.5,-224.5 648.5,-224.5"/>
<text text-anchor="middle" x="690.5" y="-231.5" font-family="Helvetica,sans-Serif" font-size="10.00">traffic_mngr.h</text>
</a>
</g>
</g>
<!-- Node32&#45;&gt;Node33 -->
<g id="edge43" class="edge">
<title>Node32&#45;&gt;Node33</title>
<path fill="none" stroke="midnightblue" d="M690.5,-269.8C690.5,-260.91 690.5,-250.78 690.5,-243.75"/>
<polygon fill="midnightblue" stroke="midnightblue" points="687,-270.08 690.5,-280.08 694,-270.08 687,-270.08"/>
</g>
<!-- Node33&#45;&gt;Node11 -->
<g id="edge44" class="edge">
<title>Node33&#45;&gt;Node11</title>
<path fill="none" stroke="midnightblue" d="M679.2,-215.57C673.18,-206.27 666.03,-195.25 661.17,-187.75"/>
<polygon fill="midnightblue" stroke="midnightblue" points="676.34,-217.6 684.72,-224.08 682.22,-213.79 676.34,-217.6"/>
</g>
<!-- Node35 -->
<g id="node35" class="node">
<title>Node35</title>
<g id="a_node35"><a xlink:href="pool_8h.html" target="_top" xlink:title=" ">
<polygon fill="white" stroke="black" points="468,-336.5 468,-355.5 515,-355.5 515,-336.5 468,-336.5"/>
<text text-anchor="middle" x="491.5" y="-343.5" font-family="Helvetica,sans-Serif" font-size="10.00">pool.h</text>
</a>
</g>
</g>
<!-- Node34&#45;&gt;Node35 -->
<g id="edge46" class="edge">
<title>Node34&#45;&gt;Node35</title>
<path fill="none" stroke="midnightblue" d="M491.5,-381.8C491.5,-372.91 491.5,-362.78 491.5,-355.75"/>
<polygon fill="midnightblue" stroke="midnightblue" points="488,-382.08 491.5,-392.08 495,-382.08 488,-382.08"/>
</g>
<!-- Node37 -->
<g id="node37" class="node">
<title>Node37</title>
<g id="a_node37"><a xlink:href="timer_8h.html" target="_top" xlink:title=" ">
<polygon fill="white" stroke="black" points="533,-336.5 533,-355.5 584,-355.5 584,-336.5 533,-336.5"/>
<text text-anchor="middle" x="558.5" y="-343.5" font-family="Helvetica,sans-Serif" font-size="10.00">timer.h</text>
</a>
</g>
</g>
<!-- Node36&#45;&gt;Node37 -->
<g id="edge48" class="edge">
<title>Node36&#45;&gt;Node37</title>
<path fill="none" stroke="midnightblue" d="M558.5,-381.8C558.5,-372.91 558.5,-362.78 558.5,-355.75"/>
<polygon fill="midnightblue" stroke="midnightblue" points="555,-382.08 558.5,-392.08 562,-382.08 555,-382.08"/>
</g>
<!-- Node43 -->
<g id="node43" class="node">
<title>Node43</title>
<g id="a_node43"><a xlink:href="event_8h.html" target="_top" xlink:title=" ">
<polygon fill="white" stroke="black" points="1203,-448.5 1203,-467.5 1256,-467.5 1256,-448.5 1203,-448.5"/>
<text text-anchor="middle" x="1229.5" y="-455.5" font-family="Helvetica,sans-Serif" font-size="10.00">event.h</text>
</a>
</g>
</g>
<!-- Node42&#45;&gt;Node43 -->
<g id="edge56" class="edge">
<title>Node42&#45;&gt;Node43</title>
<path fill="none" stroke="midnightblue" d="M1210.84,-494.98C1215.59,-485.82 1221.16,-475.09 1224.96,-467.75"/>
<polygon fill="midnightblue" stroke="midnightblue" points="1207.62,-493.59 1206.12,-504.08 1213.83,-496.82 1207.62,-493.59"/>
</g>
<!-- Node43&#45;&gt;Node13 -->
<g id="edge59" class="edge">
<title>Node43&#45;&gt;Node13</title>
<path fill="none" stroke="midnightblue" d="M1266.35,-453.97C1321.8,-448.69 1423.06,-436 1449.5,-412 1471.88,-391.69 1469.5,-377.23 1469.5,-347 1469.5,-347 1469.5,-347 1469.5,-177 1469.5,-98.46 1195.71,-75.19 1086.09,-69.02"/>
<polygon fill="midnightblue" stroke="midnightblue" points="1265.86,-450.5 1256.23,-454.9 1266.5,-457.47 1265.86,-450.5"/>
</g>
<!-- Node43&#45;&gt;Node14 -->
<g id="edge58" class="edge">
<title>Node43&#45;&gt;Node14</title>
<path fill="none" stroke="midnightblue" d="M1261.59,-443.94C1276.22,-436.53 1292.67,-425.92 1303.5,-412 1322.07,-388.15 1323.5,-377.23 1323.5,-347 1323.5,-347 1323.5,-347 1323.5,-289 1323.5,-217.07 1224.82,-192.03 1163.73,-183.42"/>
<polygon fill="midnightblue" stroke="midnightblue" points="1259.83,-440.9 1252.31,-448.35 1262.84,-447.22 1259.83,-440.9"/>
</g>
<!-- Node43&#45;&gt;Node38 -->
<g id="edge57" class="edge">
<title>Node43&#45;&gt;Node38</title>
<path fill="none" stroke="midnightblue" d="M1192.81,-449.95C1141.41,-440.07 1048.08,-422.14 992.85,-411.52"/>
<polygon fill="midnightblue" stroke="midnightblue" points="1192.33,-453.42 1202.81,-451.87 1193.65,-446.55 1192.33,-453.42"/>
</g>
<!-- Node43&#45;&gt;Node39 -->
<g id="edge60" class="edge">
<title>Node43&#45;&gt;Node39</title>
<path fill="none" stroke="midnightblue" d="M1199.18,-444.5C1174.62,-434.38 1140.68,-420.39 1119.16,-411.52"/>
<polygon fill="midnightblue" stroke="midnightblue" points="1198.16,-447.87 1208.74,-448.44 1200.83,-441.4 1198.16,-447.87"/>
</g>
<!-- Node43&#45;&gt;Node40 -->
<g id="edge61" class="edge">
<title>Node43&#45;&gt;Node40</title>
<path fill="none" stroke="midnightblue" d="M1229.5,-437.8C1229.5,-428.91 1229.5,-418.78 1229.5,-411.75"/>
<polygon fill="midnightblue" stroke="midnightblue" points="1226,-438.08 1229.5,-448.08 1233,-438.08 1226,-438.08"/>
</g>
<!-- Node44 -->
<g id="node44" class="node">
<title>Node44</title>
<g id="a_node44"><a xlink:href="timer__inlines_8h_source.html" target="_top" xlink:title=" ">
<polygon fill="white" stroke="black" points="1352,-392.5 1352,-411.5 1441,-411.5 1441,-392.5 1352,-392.5"/>
<text text-anchor="middle" x="1396.5" y="-399.5" font-family="Helvetica,sans-Serif" font-size="10.00">timer_inlines.h</text>
</a>
</g>
</g>
<!-- Node43&#45;&gt;Node44 -->
<g id="edge62" class="edge">
<title>Node43&#45;&gt;Node44</title>
<path fill="none" stroke="midnightblue" d="M1265.67,-445.3C1297.14,-435.13 1341.99,-420.62 1370.16,-411.52"/>
<polygon fill="midnightblue" stroke="midnightblue" points="1264.4,-442.04 1255.96,-448.44 1266.55,-448.7 1264.4,-442.04"/>
</g>
<!-- Node46 -->
<g id="node46" class="node">
<title>Node46</title>
<g id="a_node46"><a xlink:href="packet__flags_8h.html" target="_top" xlink:title=" ">
<polygon fill="white" stroke="black" points="1275.5,-560.5 1275.5,-579.5 1361.5,-579.5 1361.5,-560.5 1275.5,-560.5"/>
<text text-anchor="middle" x="1318.5" y="-567.5" font-family="Helvetica,sans-Serif" font-size="10.00">packet_flags.h</text>
</a>
</g>
</g>
<!-- Node45&#45;&gt;Node46 -->
<g id="edge66" class="edge">
<title>Node45&#45;&gt;Node46</title>
<path fill="none" stroke="midnightblue" d="M1318.5,-605.8C1318.5,-596.91 1318.5,-586.78 1318.5,-579.75"/>
<polygon fill="midnightblue" stroke="midnightblue" points="1315,-606.08 1318.5,-616.08 1322,-606.08 1315,-606.08"/>
</g>
<!-- Node49 -->
<g id="node49" class="node">
<title>Node49</title>
<g id="a_node49"><a xlink:href="queue__inlines_8h_source.html" target="_top" xlink:title=" ">
<polygon fill="white" stroke="black" points="1519,-560.5 1519,-579.5 1612,-579.5 1612,-560.5 1519,-560.5"/>
<text text-anchor="middle" x="1565.5" y="-567.5" font-family="Helvetica,sans-Serif" font-size="10.00">queue_inlines.h</text>
</a>
</g>
</g>
<!-- Node48&#45;&gt;Node49 -->
<g id="edge71" class="edge">
<title>Node48&#45;&gt;Node49</title>
<path fill="none" stroke="midnightblue" d="M1565.5,-605.8C1565.5,-596.91 1565.5,-586.78 1565.5,-579.75"/>
<polygon fill="midnightblue" stroke="midnightblue" points="1562,-606.08 1565.5,-616.08 1569,-606.08 1562,-606.08"/>
</g>
</g>
</svg>
