<?xml version="1.0" encoding="UTF-8" standalone="no"?>
<!DOCTYPE svg PUBLIC "-//W3C//DTD SVG 1.1//EN"
 "http://www.w3.org/Graphics/SVG/1.1/DTD/svg11.dtd">
<!-- Generated by graphviz version 2.43.0 (0)
 -->
<!-- Title: std_types.h Pages: 1 -->
<svg width="4193pt" height="196pt"
 viewBox="0.00 0.00 4193.00 196.00" xmlns="http://www.w3.org/2000/svg" xmlns:xlink="http://www.w3.org/1999/xlink">
<g id="graph0" class="graph" transform="scale(1 1) rotate(0) translate(4 192)">
<title>std_types.h</title>
<polygon fill="white" stroke="transparent" points="-4,4 -4,-192 4189,-192 4189,4 -4,4"/>
<!-- Node1 -->
<g id="node1" class="node">
<title>Node1</title>
<g id="a_node1"><a xlink:title=" ">
<polygon fill="#bfbfbf" stroke="black" points="2009,-168.5 2009,-187.5 2082,-187.5 2082,-168.5 2009,-168.5"/>
<text text-anchor="middle" x="2045.5" y="-175.5" font-family="Helvetica,sans-Serif" font-size="10.00">std_types.h</text>
</a>
</g>
</g>
<!-- Node2 -->
<g id="node2" class="node">
<title>Node2</title>
<g id="a_node2"><a xlink:href="abi-default_2atomic_8h.html" target="_top" xlink:title=" ">
<polygon fill="white" stroke="black" points="0,-112.5 0,-131.5 59,-131.5 59,-112.5 0,-112.5"/>
<text text-anchor="middle" x="29.5" y="-119.5" font-family="Helvetica,sans-Serif" font-size="10.00">atomic.h</text>
</a>
</g>
</g>
<!-- Node1&#45;&gt;Node2 -->
<g id="edge1" class="edge">
<title>Node1&#45;&gt;Node2</title>
<path fill="none" stroke="midnightblue" d="M1998.68,-177.27C1737.51,-178.56 458.36,-182.17 67.5,-132 64.81,-131.65 62.03,-131.2 59.26,-130.67"/>
<polygon fill="midnightblue" stroke="midnightblue" points="1998.97,-180.77 2008.95,-177.22 1998.93,-173.77 1998.97,-180.77"/>
</g>
<!-- Node3 -->
<g id="node3" class="node">
<title>Node3</title>
<g id="a_node3"><a xlink:href="abi-default_2barrier_8h.html" target="_top" xlink:title=" ">
<polygon fill="white" stroke="black" points="77,-112.5 77,-131.5 134,-131.5 134,-112.5 77,-112.5"/>
<text text-anchor="middle" x="105.5" y="-119.5" font-family="Helvetica,sans-Serif" font-size="10.00">barrier.h</text>
</a>
</g>
</g>
<!-- Node1&#45;&gt;Node3 -->
<g id="edge2" class="edge">
<title>Node1&#45;&gt;Node3</title>
<path fill="none" stroke="midnightblue" d="M1998.85,-177.22C1744.06,-178.2 518.52,-180.31 143.5,-132 140.41,-131.6 137.2,-131.06 134.02,-130.43"/>
<polygon fill="midnightblue" stroke="midnightblue" points="1998.89,-180.72 2008.88,-177.18 1998.86,-173.72 1998.89,-180.72"/>
</g>
<!-- Node4 -->
<g id="node4" class="node">
<title>Node4</title>
<g id="a_node4"><a xlink:href="abi-default_2byteorder_8h.html" target="_top" xlink:title=" ">
<polygon fill="white" stroke="black" points="152.5,-112.5 152.5,-131.5 224.5,-131.5 224.5,-112.5 152.5,-112.5"/>
<text text-anchor="middle" x="188.5" y="-119.5" font-family="Helvetica,sans-Serif" font-size="10.00">byteorder.h</text>
</a>
</g>
</g>
<!-- Node1&#45;&gt;Node4 -->
<g id="edge3" class="edge">
<title>Node1&#45;&gt;Node4</title>
<path fill="none" stroke="midnightblue" d="M1998.73,-176.93C1751.05,-176.4 590.37,-171.82 233.5,-132 230.65,-131.68 227.71,-131.28 224.77,-130.81"/>
<polygon fill="midnightblue" stroke="midnightblue" points="1998.83,-180.43 2008.83,-176.95 1998.84,-173.43 1998.83,-180.43"/>
</g>
<!-- Node5 -->
<g id="node5" class="node">
<title>Node5</title>
<g id="a_node5"><a xlink:href="abi-default_2cpumask_8h.html" target="_top" xlink:title=" ">
<polygon fill="white" stroke="black" points="242.5,-112.5 242.5,-131.5 312.5,-131.5 312.5,-112.5 242.5,-112.5"/>
<text text-anchor="middle" x="277.5" y="-119.5" font-family="Helvetica,sans-Serif" font-size="10.00">cpumask.h</text>
</a>
</g>
</g>
<!-- Node1&#45;&gt;Node5 -->
<g id="edge4" class="edge">
<title>Node1&#45;&gt;Node5</title>
<path fill="none" stroke="midnightblue" d="M1998.72,-176.89C1758.28,-176.16 659.86,-170.72 321.5,-132 318.71,-131.68 315.84,-131.27 312.96,-130.81"/>
<polygon fill="midnightblue" stroke="midnightblue" points="1998.85,-180.39 2008.86,-176.92 1998.87,-173.39 1998.85,-180.39"/>
</g>
<!-- Node6 -->
<g id="node6" class="node">
<title>Node6</title>
<g id="a_node6"><a xlink:href="abi-default_2init_8h.html" target="_top" xlink:title=" ">
<polygon fill="white" stroke="black" points="331,-112.5 331,-131.5 372,-131.5 372,-112.5 331,-112.5"/>
<text text-anchor="middle" x="351.5" y="-119.5" font-family="Helvetica,sans-Serif" font-size="10.00">init.h</text>
</a>
</g>
</g>
<!-- Node1&#45;&gt;Node6 -->
<g id="edge5" class="edge">
<title>Node1&#45;&gt;Node6</title>
<path fill="none" stroke="midnightblue" d="M1998.35,-176.5C1744.27,-173.67 543.62,-158.99 380.5,-132 377.8,-131.55 374.99,-130.92 372.24,-130.18"/>
<polygon fill="midnightblue" stroke="midnightblue" points="1998.67,-180 2008.71,-176.61 1998.74,-173 1998.67,-180"/>
</g>
<!-- Node7 -->
<g id="node7" class="node">
<title>Node7</title>
<g id="a_node7"><a xlink:href="abi-default_2ipsec__types_8h_source.html" target="_top" xlink:title=" ">
<polygon fill="white" stroke="black" points="390,-112.5 390,-131.5 473,-131.5 473,-112.5 390,-112.5"/>
<text text-anchor="middle" x="431.5" y="-119.5" font-family="Helvetica,sans-Serif" font-size="10.00">ipsec_types.h</text>
</a>
</g>
</g>
<!-- Node1&#45;&gt;Node7 -->
<g id="edge6" class="edge">
<title>Node1&#45;&gt;Node7</title>
<path fill="none" stroke="midnightblue" d="M1998.45,-176.57C1771.41,-174.36 787.56,-163.14 482.5,-132 479.46,-131.69 476.33,-131.3 473.18,-130.87"/>
<polygon fill="midnightblue" stroke="midnightblue" points="1998.65,-180.07 2008.68,-176.67 1998.72,-173.07 1998.65,-180.07"/>
</g>
<!-- Node8 -->
<g id="node8" class="node">
<title>Node8</title>
<g id="a_node8"><a xlink:href="abi-default_2packet__io__types_8h.html" target="_top" xlink:title=" ">
<polygon fill="white" stroke="black" points="491.5,-112.5 491.5,-131.5 595.5,-131.5 595.5,-112.5 491.5,-112.5"/>
<text text-anchor="middle" x="543.5" y="-119.5" font-family="Helvetica,sans-Serif" font-size="10.00">packet_io_types.h</text>
</a>
</g>
</g>
<!-- Node1&#45;&gt;Node8 -->
<g id="edge7" class="edge">
<title>Node1&#45;&gt;Node8</title>
<path fill="none" stroke="midnightblue" d="M1998.69,-176.27C1783.13,-172.77 884.59,-156.95 604.5,-132 601.62,-131.74 598.67,-131.44 595.7,-131.11"/>
<polygon fill="midnightblue" stroke="midnightblue" points="1998.67,-179.77 2008.73,-176.43 1998.78,-172.77 1998.67,-179.77"/>
</g>
<!-- Node9 -->
<g id="node9" class="node">
<title>Node9</title>
<g id="a_node9"><a xlink:href="abi-default_2rwlock__recursive_8h.html" target="_top" xlink:title=" ">
<polygon fill="white" stroke="black" points="613.5,-112.5 613.5,-131.5 721.5,-131.5 721.5,-112.5 613.5,-112.5"/>
<text text-anchor="middle" x="667.5" y="-119.5" font-family="Helvetica,sans-Serif" font-size="10.00">rwlock_recursive.h</text>
</a>
</g>
</g>
<!-- Node1&#45;&gt;Node9 -->
<g id="edge8" class="edge">
<title>Node1&#45;&gt;Node9</title>
<path fill="none" stroke="midnightblue" d="M1998.68,-177.22C1828.28,-177.62 1225.3,-175.68 730.5,-132 727.64,-131.75 724.71,-131.45 721.75,-131.13"/>
<polygon fill="midnightblue" stroke="midnightblue" points="1998.82,-180.72 2008.81,-177.19 1998.8,-173.72 1998.82,-180.72"/>
</g>
<!-- Node10 -->
<g id="node10" class="node">
<title>Node10</title>
<g id="a_node10"><a xlink:href="abi-default_2schedule__types_8h.html" target="_top" xlink:title=" ">
<polygon fill="white" stroke="black" points="740,-112.5 740,-131.5 841,-131.5 841,-112.5 740,-112.5"/>
<text text-anchor="middle" x="790.5" y="-119.5" font-family="Helvetica,sans-Serif" font-size="10.00">schedule_types.h</text>
</a>
</g>
</g>
<!-- Node1&#45;&gt;Node10 -->
<g id="edge9" class="edge">
<title>Node1&#45;&gt;Node10</title>
<path fill="none" stroke="midnightblue" d="M1998.72,-177.11C1838.34,-177.07 1296,-173.67 850.5,-132 847.46,-131.72 844.34,-131.38 841.19,-131.01"/>
<polygon fill="midnightblue" stroke="midnightblue" points="1998.73,-180.61 2008.73,-177.1 1998.73,-173.61 1998.73,-180.61"/>
</g>
<!-- Node11 -->
<g id="node11" class="node">
<title>Node11</title>
<g id="a_node11"><a xlink:href="abi-default_2spinlock__recursive_8h.html" target="_top" xlink:title=" ">
<polygon fill="white" stroke="black" points="859.5,-112.5 859.5,-131.5 975.5,-131.5 975.5,-112.5 859.5,-112.5"/>
<text text-anchor="middle" x="917.5" y="-119.5" font-family="Helvetica,sans-Serif" font-size="10.00">spinlock_recursive.h</text>
</a>
</g>
</g>
<!-- Node1&#45;&gt;Node11 -->
<g id="edge10" class="edge">
<title>Node1&#45;&gt;Node11</title>
<path fill="none" stroke="midnightblue" d="M1998.63,-176.53C1849.93,-174.73 1375.48,-166.48 984.5,-132 981.58,-131.74 978.59,-131.45 975.57,-131.13"/>
<polygon fill="midnightblue" stroke="midnightblue" points="1998.73,-180.04 2008.77,-176.65 1998.81,-173.04 1998.73,-180.04"/>
</g>
<!-- Node12 -->
<g id="node12" class="node">
<title>Node12</title>
<g id="a_node12"><a xlink:href="abi-default_2traffic__mngr_8h.html" target="_top" xlink:title=" ">
<polygon fill="white" stroke="black" points="993.5,-112.5 993.5,-131.5 1077.5,-131.5 1077.5,-112.5 993.5,-112.5"/>
<text text-anchor="middle" x="1035.5" y="-119.5" font-family="Helvetica,sans-Serif" font-size="10.00">traffic_mngr.h</text>
</a>
</g>
</g>
<!-- Node1&#45;&gt;Node12 -->
<g id="edge11" class="edge">
<title>Node1&#45;&gt;Node12</title>
<path fill="none" stroke="midnightblue" d="M1998.46,-176.92C1858.92,-176.21 1435.23,-170.79 1086.5,-132 1083.64,-131.68 1080.7,-131.3 1077.74,-130.88"/>
<polygon fill="midnightblue" stroke="midnightblue" points="1998.77,-180.42 2008.78,-176.96 1998.8,-173.42 1998.77,-180.42"/>
</g>
<!-- Node13 -->
<g id="node13" class="node">
<title>Node13</title>
<g id="a_node13"><a xlink:href="barrier_8h.html" target="_top" xlink:title=" ">
<polygon fill="white" stroke="black" points="1096,-112.5 1096,-131.5 1153,-131.5 1153,-112.5 1096,-112.5"/>
<text text-anchor="middle" x="1124.5" y="-119.5" font-family="Helvetica,sans-Serif" font-size="10.00">barrier.h</text>
</a>
</g>
</g>
<!-- Node1&#45;&gt;Node13 -->
<g id="edge12" class="edge">
<title>Node1&#45;&gt;Node13</title>
<path fill="none" stroke="midnightblue" d="M1998.82,-177.15C1867.4,-177.02 1483.25,-172.88 1167.5,-132 1162.81,-131.39 1157.87,-130.55 1153.08,-129.63"/>
<polygon fill="midnightblue" stroke="midnightblue" points="1998.94,-180.65 2008.94,-177.15 1998.94,-173.65 1998.94,-180.65"/>
</g>
<!-- Node14 -->
<g id="node14" class="node">
<title>Node14</title>
<g id="a_node14"><a xlink:href="classification_8h.html" target="_top" xlink:title=" ">
<polygon fill="white" stroke="black" points="1380,-56.5 1380,-75.5 1469,-75.5 1469,-56.5 1380,-56.5"/>
<text text-anchor="middle" x="1424.5" y="-63.5" font-family="Helvetica,sans-Serif" font-size="10.00">classification.h</text>
</a>
</g>
</g>
<!-- Node1&#45;&gt;Node14 -->
<g id="edge13" class="edge">
<title>Node1&#45;&gt;Node14</title>
<path fill="none" stroke="midnightblue" d="M1998.72,-177.93C1916.28,-178.33 1740.5,-173.65 1599.5,-132 1580.82,-126.48 1578.47,-119.53 1560.5,-112 1524.95,-97.11 1482.59,-83.75 1454.7,-75.53"/>
<polygon fill="midnightblue" stroke="midnightblue" points="1998.81,-181.43 2008.78,-177.85 1998.75,-174.43 1998.81,-181.43"/>
</g>
<!-- Node15 -->
<g id="node15" class="node">
<title>Node15</title>
<g id="a_node15"><a xlink:href="spec_2ipsec__types_8h.html" target="_top" xlink:title=" ">
<polygon fill="white" stroke="red" points="1214,-0.5 1214,-19.5 1297,-19.5 1297,-0.5 1214,-0.5"/>
<text text-anchor="middle" x="1255.5" y="-7.5" font-family="Helvetica,sans-Serif" font-size="10.00">ipsec_types.h</text>
</a>
</g>
</g>
<!-- Node1&#45;&gt;Node15 -->
<g id="edge30" class="edge">
<title>Node1&#45;&gt;Node15</title>
<path fill="none" stroke="midnightblue" d="M1998.86,-176.27C1825.69,-173.34 1228.14,-161.15 1200.5,-132 1177.26,-107.49 1186.04,-86.52 1200.5,-56 1208.27,-39.61 1225.25,-27.21 1238.3,-19.61"/>
<polygon fill="midnightblue" stroke="midnightblue" points="1998.88,-179.77 2008.94,-176.44 1999,-172.77 1998.88,-179.77"/>
</g>
<!-- Node22 -->
<g id="node17" class="node">
<title>Node22</title>
<g id="a_node17"><a xlink:href="proto__stats_8h.html" target="_top" xlink:title=" ">
<polygon fill="white" stroke="black" points="1281.5,-112.5 1281.5,-131.5 1361.5,-131.5 1361.5,-112.5 1281.5,-112.5"/>
<text text-anchor="middle" x="1321.5" y="-119.5" font-family="Helvetica,sans-Serif" font-size="10.00">proto_stats.h</text>
</a>
</g>
</g>
<!-- Node1&#45;&gt;Node22 -->
<g id="edge16" class="edge">
<title>Node1&#45;&gt;Node22</title>
<path fill="none" stroke="midnightblue" d="M1998.75,-175.67C1888.93,-172.16 1606.04,-160.85 1371.5,-132 1368.26,-131.6 1364.91,-131.13 1361.56,-130.62"/>
<polygon fill="midnightblue" stroke="midnightblue" points="1998.73,-179.17 2008.83,-175.99 1998.95,-172.18 1998.73,-179.17"/>
</g>
<!-- Node23 -->
<g id="node18" class="node">
<title>Node23</title>
<g id="a_node18"><a xlink:href="spec_2buffer_8h.html" target="_top" xlink:title=" ">
<polygon fill="white" stroke="black" points="1210,-112.5 1210,-131.5 1263,-131.5 1263,-112.5 1210,-112.5"/>
<text text-anchor="middle" x="1236.5" y="-119.5" font-family="Helvetica,sans-Serif" font-size="10.00">buffer.h</text>
</a>
</g>
</g>
<!-- Node1&#45;&gt;Node23 -->
<g id="edge17" class="edge">
<title>Node1&#45;&gt;Node23</title>
<path fill="none" stroke="midnightblue" d="M1998.6,-177.31C1877.59,-177.44 1545.27,-173.66 1272.5,-132 1269.44,-131.53 1266.27,-130.92 1263.12,-130.24"/>
<polygon fill="midnightblue" stroke="midnightblue" points="1998.64,-180.81 2008.63,-177.29 1998.62,-173.81 1998.64,-180.81"/>
</g>
<!-- Node26 -->
<g id="node20" class="node">
<title>Node26</title>
<g id="a_node20"><a xlink:href="spec_2chksum_8h.html" target="_top" xlink:title=" ">
<polygon fill="white" stroke="red" points="1487.5,-112.5 1487.5,-131.5 1551.5,-131.5 1551.5,-112.5 1487.5,-112.5"/>
<text text-anchor="middle" x="1519.5" y="-119.5" font-family="Helvetica,sans-Serif" font-size="10.00">chksum.h</text>
</a>
</g>
</g>
<!-- Node1&#45;&gt;Node26 -->
<g id="edge19" class="edge">
<title>Node1&#45;&gt;Node26</title>
<path fill="none" stroke="midnightblue" d="M1998.7,-174.17C1912.63,-168.62 1723.55,-154.81 1565.5,-132 1560.99,-131.35 1556.25,-130.55 1551.6,-129.7"/>
<polygon fill="midnightblue" stroke="midnightblue" points="1998.72,-177.68 2008.92,-174.82 1999.17,-170.69 1998.72,-177.68"/>
</g>
<!-- Node28 -->
<g id="node21" class="node">
<title>Node28</title>
<g id="a_node21"><a xlink:href="spec_2classification_8h.html" target="_top" xlink:title=" ">
<polygon fill="white" stroke="black" points="1380,-112.5 1380,-131.5 1469,-131.5 1469,-112.5 1380,-112.5"/>
<text text-anchor="middle" x="1424.5" y="-119.5" font-family="Helvetica,sans-Serif" font-size="10.00">classification.h</text>
</a>
</g>
</g>
<!-- Node1&#45;&gt;Node28 -->
<g id="edge20" class="edge">
<title>Node1&#45;&gt;Node28</title>
<path fill="none" stroke="midnightblue" d="M1998.83,-174.66C1901.73,-169.48 1670.94,-155.63 1478.5,-132 1475.48,-131.63 1472.37,-131.21 1469.25,-130.76"/>
<polygon fill="midnightblue" stroke="midnightblue" points="1998.74,-178.16 2008.91,-175.19 1999.1,-171.17 1998.74,-178.16"/>
</g>
<!-- Node29 -->
<g id="node22" class="node">
<title>Node29</title>
<g id="a_node22"><a xlink:href="spec_2comp_8h.html" target="_top" xlink:title=" ">
<polygon fill="white" stroke="red" points="1608,-112.5 1608,-131.5 1661,-131.5 1661,-112.5 1608,-112.5"/>
<text text-anchor="middle" x="1634.5" y="-119.5" font-family="Helvetica,sans-Serif" font-size="10.00">comp.h</text>
</a>
</g>
</g>
<!-- Node1&#45;&gt;Node29 -->
<g id="edge22" class="edge">
<title>Node1&#45;&gt;Node29</title>
<path fill="none" stroke="midnightblue" d="M1998.81,-173.29C1927.59,-167.22 1787.74,-153.6 1670.5,-132 1667.46,-131.44 1664.29,-130.77 1661.15,-130.06"/>
<polygon fill="midnightblue" stroke="midnightblue" points="1998.55,-176.79 2008.81,-174.14 1999.14,-169.81 1998.55,-176.79"/>
</g>
<!-- Node31 -->
<g id="node23" class="node">
<title>Node31</title>
<g id="a_node23"><a xlink:href="spec_2cpu_8h.html" target="_top" xlink:title=" ">
<polygon fill="white" stroke="red" points="1679,-112.5 1679,-131.5 1722,-131.5 1722,-112.5 1679,-112.5"/>
<text text-anchor="middle" x="1700.5" y="-119.5" font-family="Helvetica,sans-Serif" font-size="10.00">cpu.h</text>
</a>
</g>
</g>
<!-- Node1&#45;&gt;Node31 -->
<g id="edge23" class="edge">
<title>Node1&#45;&gt;Node31</title>
<path fill="none" stroke="midnightblue" d="M1998.76,-172.37C1937.09,-165.8 1825.39,-152.25 1731.5,-132 1728.43,-131.34 1725.22,-130.54 1722.08,-129.68"/>
<polygon fill="midnightblue" stroke="midnightblue" points="1998.63,-175.88 2008.94,-173.44 1999.36,-168.92 1998.63,-175.88"/>
</g>
<!-- Node36 -->
<g id="node24" class="node">
<title>Node36</title>
<g id="a_node24"><a xlink:href="spec_2crypto_8h.html" target="_top" xlink:title=" ">
<polygon fill="white" stroke="red" points="1740.5,-112.5 1740.5,-131.5 1796.5,-131.5 1796.5,-112.5 1740.5,-112.5"/>
<text text-anchor="middle" x="1768.5" y="-119.5" font-family="Helvetica,sans-Serif" font-size="10.00">crypto.h</text>
</a>
</g>
</g>
<!-- Node1&#45;&gt;Node36 -->
<g id="edge24" class="edge">
<title>Node1&#45;&gt;Node36</title>
<path fill="none" stroke="midnightblue" d="M1998.82,-168.87C1950.55,-160.31 1873.07,-146.14 1806.5,-132 1803.32,-131.32 1799.99,-130.58 1796.69,-129.83"/>
<polygon fill="midnightblue" stroke="midnightblue" points="1998.5,-172.37 2008.95,-170.66 1999.71,-165.48 1998.5,-172.37"/>
</g>
<!-- Node38 -->
<g id="node25" class="node">
<title>Node38</title>
<g id="a_node25"><a xlink:href="spec_2crypto__types_8h.html" target="_top" xlink:title=" ">
<polygon fill="white" stroke="red" points="1815,-112.5 1815,-131.5 1904,-131.5 1904,-112.5 1815,-112.5"/>
<text text-anchor="middle" x="1859.5" y="-119.5" font-family="Helvetica,sans-Serif" font-size="10.00">crypto_types.h</text>
</a>
</g>
</g>
<!-- Node1&#45;&gt;Node38 -->
<g id="edge25" class="edge">
<title>Node1&#45;&gt;Node38</title>
<path fill="none" stroke="midnightblue" d="M2006.12,-165.57C1971.03,-155.38 1920.48,-140.7 1888.83,-131.52"/>
<polygon fill="midnightblue" stroke="midnightblue" points="2005.45,-169.02 2016.03,-168.44 2007.4,-162.29 2005.45,-169.02"/>
</g>
<!-- Node41 -->
<g id="node26" class="node">
<title>Node41</title>
<g id="a_node26"><a xlink:href="spec_2dma__types_8h.html" target="_top" xlink:title=" ">
<polygon fill="white" stroke="red" points="1922.5,-112.5 1922.5,-131.5 2002.5,-131.5 2002.5,-112.5 1922.5,-112.5"/>
<text text-anchor="middle" x="1962.5" y="-119.5" font-family="Helvetica,sans-Serif" font-size="10.00">dma_types.h</text>
</a>
</g>
</g>
<!-- Node1&#45;&gt;Node41 -->
<g id="edge26" class="edge">
<title>Node1&#45;&gt;Node41</title>
<path fill="none" stroke="midnightblue" d="M2023.4,-162.62C2008.24,-152.76 1988.62,-139.99 1975.8,-131.65"/>
<polygon fill="midnightblue" stroke="midnightblue" points="2021.87,-165.8 2032.16,-168.32 2025.69,-159.94 2021.87,-165.8"/>
</g>
<!-- Node61 -->
<g id="node27" class="node">
<title>Node61</title>
<g id="a_node27"><a xlink:href="spec_2hash_8h.html" target="_top" xlink:title=" ">
<polygon fill="white" stroke="red" points="2021,-112.5 2021,-131.5 2070,-131.5 2070,-112.5 2021,-112.5"/>
<text text-anchor="middle" x="2045.5" y="-119.5" font-family="Helvetica,sans-Serif" font-size="10.00">hash.h</text>
</a>
</g>
</g>
<!-- Node1&#45;&gt;Node61 -->
<g id="edge27" class="edge">
<title>Node1&#45;&gt;Node61</title>
<path fill="none" stroke="midnightblue" d="M2045.5,-157.8C2045.5,-148.91 2045.5,-138.78 2045.5,-131.75"/>
<polygon fill="midnightblue" stroke="midnightblue" points="2042,-158.08 2045.5,-168.08 2049,-158.08 2042,-158.08"/>
</g>
<!-- Node63 -->
<g id="node28" class="node">
<title>Node63</title>
<g id="a_node28"><a xlink:href="spec_2init_8h.html" target="_top" xlink:title=" ">
<polygon fill="white" stroke="red" points="2088,-112.5 2088,-131.5 2129,-131.5 2129,-112.5 2088,-112.5"/>
<text text-anchor="middle" x="2108.5" y="-119.5" font-family="Helvetica,sans-Serif" font-size="10.00">init.h</text>
</a>
</g>
</g>
<!-- Node1&#45;&gt;Node63 -->
<g id="edge28" class="edge">
<title>Node1&#45;&gt;Node63</title>
<path fill="none" stroke="midnightblue" d="M2063.54,-161.54C2074.77,-151.91 2088.82,-139.87 2098.19,-131.83"/>
<polygon fill="midnightblue" stroke="midnightblue" points="2060.94,-159.16 2055.62,-168.32 2065.49,-164.47 2060.94,-159.16"/>
</g>
<!-- Node17 -->
<g id="node29" class="node">
<title>Node17</title>
<g id="a_node29"><a xlink:href="spec_2ipsec_8h.html" target="_top" xlink:title=" ">
<polygon fill="white" stroke="red" points="2147,-112.5 2147,-131.5 2198,-131.5 2198,-112.5 2147,-112.5"/>
<text text-anchor="middle" x="2172.5" y="-119.5" font-family="Helvetica,sans-Serif" font-size="10.00">ipsec.h</text>
</a>
</g>
</g>
<!-- Node1&#45;&gt;Node17 -->
<g id="edge29" class="edge">
<title>Node1&#45;&gt;Node17</title>
<path fill="none" stroke="midnightblue" d="M2074.89,-164.5C2098.7,-154.38 2131.61,-140.39 2152.47,-131.52"/>
<polygon fill="midnightblue" stroke="midnightblue" points="2073.46,-161.31 2065.62,-168.44 2076.2,-167.75 2073.46,-161.31"/>
</g>
<!-- Node47 -->
<g id="node30" class="node">
<title>Node47</title>
<g id="a_node30"><a xlink:href="spec_2packet_8h.html" target="_top" xlink:title=" ">
<polygon fill="white" stroke="red" points="2216.5,-112.5 2216.5,-131.5 2274.5,-131.5 2274.5,-112.5 2216.5,-112.5"/>
<text text-anchor="middle" x="2245.5" y="-119.5" font-family="Helvetica,sans-Serif" font-size="10.00">packet.h</text>
</a>
</g>
</g>
<!-- Node1&#45;&gt;Node47 -->
<g id="edge31" class="edge">
<title>Node1&#45;&gt;Node47</title>
<path fill="none" stroke="midnightblue" d="M2087.08,-165.77C2125.69,-155.35 2182.18,-140.1 2216.24,-130.9"/>
<polygon fill="midnightblue" stroke="midnightblue" points="2085.93,-162.46 2077.19,-168.44 2087.76,-169.22 2085.93,-162.46"/>
</g>
<!-- Node74 -->
<g id="node31" class="node">
<title>Node74</title>
<g id="a_node31"><a xlink:href="spec_2packet__flags_8h.html" target="_top" xlink:title=" ">
<polygon fill="white" stroke="red" points="2292.5,-112.5 2292.5,-131.5 2378.5,-131.5 2378.5,-112.5 2292.5,-112.5"/>
<text text-anchor="middle" x="2335.5" y="-119.5" font-family="Helvetica,sans-Serif" font-size="10.00">packet_flags.h</text>
</a>
</g>
</g>
<!-- Node1&#45;&gt;Node74 -->
<g id="edge32" class="edge">
<title>Node1&#45;&gt;Node74</title>
<path fill="none" stroke="midnightblue" d="M2092.11,-168.32C2147.4,-158.03 2238.81,-141 2292.48,-131.01"/>
<polygon fill="midnightblue" stroke="midnightblue" points="2091.42,-164.89 2082.23,-170.16 2092.7,-171.77 2091.42,-164.89"/>
</g>
<!-- Node49 -->
<g id="node32" class="node">
<title>Node49</title>
<g id="a_node32"><a xlink:href="spec_2packet__io__types_8h.html" target="_top" xlink:title=" ">
<polygon fill="white" stroke="red" points="2396.5,-112.5 2396.5,-131.5 2500.5,-131.5 2500.5,-112.5 2396.5,-112.5"/>
<text text-anchor="middle" x="2448.5" y="-119.5" font-family="Helvetica,sans-Serif" font-size="10.00">packet_io_types.h</text>
</a>
</g>
</g>
<!-- Node1&#45;&gt;Node49 -->
<g id="edge33" class="edge">
<title>Node1&#45;&gt;Node49</title>
<path fill="none" stroke="midnightblue" d="M2092.29,-171.08C2158.18,-162.69 2282.08,-146.71 2387.5,-132 2390.36,-131.6 2393.3,-131.19 2396.26,-130.76"/>
<polygon fill="midnightblue" stroke="midnightblue" points="2091.7,-167.63 2082.22,-172.36 2092.58,-174.57 2091.7,-167.63"/>
</g>
<!-- Node53 -->
<g id="node33" class="node">
<title>Node53</title>
<g id="a_node33"><a xlink:href="spec_2pool_8h.html" target="_top" xlink:title=" ">
<polygon fill="white" stroke="red" points="2519,-112.5 2519,-131.5 2566,-131.5 2566,-112.5 2519,-112.5"/>
<text text-anchor="middle" x="2542.5" y="-119.5" font-family="Helvetica,sans-Serif" font-size="10.00">pool.h</text>
</a>
</g>
</g>
<!-- Node1&#45;&gt;Node53 -->
<g id="edge34" class="edge">
<title>Node1&#45;&gt;Node53</title>
<path fill="none" stroke="midnightblue" d="M2092.18,-175.09C2176.24,-171.08 2358.38,-159.73 2509.5,-132 2512.54,-131.44 2515.7,-130.74 2518.82,-129.98"/>
<polygon fill="midnightblue" stroke="midnightblue" points="2092.01,-171.6 2082.19,-175.56 2092.34,-178.59 2092.01,-171.6"/>
</g>
<!-- Node45 -->
<g id="node34" class="node">
<title>Node45</title>
<g id="a_node34"><a xlink:href="spec_2pool__types_8h.html" target="_top" xlink:title=" ">
<polygon fill="white" stroke="red" points="2584,-112.5 2584,-131.5 2663,-131.5 2663,-112.5 2584,-112.5"/>
<text text-anchor="middle" x="2623.5" y="-119.5" font-family="Helvetica,sans-Serif" font-size="10.00">pool_types.h</text>
</a>
</g>
</g>
<!-- Node1&#45;&gt;Node45 -->
<g id="edge35" class="edge">
<title>Node1&#45;&gt;Node45</title>
<path fill="none" stroke="midnightblue" d="M2092.43,-174.61C2185.1,-169.53 2397.96,-156.12 2575.5,-132 2578.27,-131.62 2581.13,-131.19 2584,-130.73"/>
<polygon fill="midnightblue" stroke="midnightblue" points="2092.06,-171.12 2082.27,-175.16 2092.44,-178.11 2092.06,-171.12"/>
</g>
<!-- Node76 -->
<g id="node35" class="node">
<title>Node76</title>
<g id="a_node35"><a xlink:href="spec_2proto__stats__types_8h.html" target="_top" xlink:title=" ">
<polygon fill="white" stroke="red" points="2681,-112.5 2681,-131.5 2794,-131.5 2794,-112.5 2681,-112.5"/>
<text text-anchor="middle" x="2737.5" y="-119.5" font-family="Helvetica,sans-Serif" font-size="10.00">proto_stats_types.h</text>
</a>
</g>
</g>
<!-- Node1&#45;&gt;Node76 -->
<g id="edge36" class="edge">
<title>Node1&#45;&gt;Node76</title>
<path fill="none" stroke="midnightblue" d="M2092.53,-174.69C2197.03,-169.31 2456.34,-154.7 2672.5,-132 2675.22,-131.71 2678,-131.4 2680.81,-131.07"/>
<polygon fill="midnightblue" stroke="midnightblue" points="2092.13,-171.2 2082.32,-175.21 2092.49,-178.19 2092.13,-171.2"/>
</g>
<!-- Node86 -->
<g id="node36" class="node">
<title>Node86</title>
<g id="a_node36"><a xlink:href="spec_2queue_8h.html" target="_top" xlink:title=" ">
<polygon fill="white" stroke="red" points="2812.5,-112.5 2812.5,-131.5 2868.5,-131.5 2868.5,-112.5 2812.5,-112.5"/>
<text text-anchor="middle" x="2840.5" y="-119.5" font-family="Helvetica,sans-Serif" font-size="10.00">queue.h</text>
</a>
</g>
</g>
<!-- Node1&#45;&gt;Node86 -->
<g id="edge37" class="edge">
<title>Node1&#45;&gt;Node86</title>
<path fill="none" stroke="midnightblue" d="M2092.26,-177.13C2211.52,-176.83 2536.48,-172.07 2803.5,-132 2806.38,-131.57 2809.36,-131.02 2812.32,-130.41"/>
<polygon fill="midnightblue" stroke="midnightblue" points="2092.03,-173.63 2082.03,-177.14 2092.04,-180.63 2092.03,-173.63"/>
</g>
<!-- Node88 -->
<g id="node37" class="node">
<title>Node88</title>
<g id="a_node37"><a xlink:href="spec_2random_8h.html" target="_top" xlink:title=" ">
<polygon fill="white" stroke="red" points="2887,-112.5 2887,-131.5 2950,-131.5 2950,-112.5 2887,-112.5"/>
<text text-anchor="middle" x="2918.5" y="-119.5" font-family="Helvetica,sans-Serif" font-size="10.00">random.h</text>
</a>
</g>
</g>
<!-- Node1&#45;&gt;Node88 -->
<g id="edge38" class="edge">
<title>Node1&#45;&gt;Node88</title>
<path fill="none" stroke="midnightblue" d="M2092.34,-177.12C2219.32,-176.86 2580.54,-172.35 2877.5,-132 2880.53,-131.59 2883.67,-131.07 2886.81,-130.49"/>
<polygon fill="midnightblue" stroke="midnightblue" points="2092.19,-173.62 2082.19,-177.13 2092.2,-180.62 2092.19,-173.62"/>
</g>
<!-- Node90 -->
<g id="node38" class="node">
<title>Node90</title>
<g id="a_node38"><a xlink:href="spec_2random__types_8h.html" target="_top" xlink:title=" ">
<polygon fill="white" stroke="red" points="2968,-112.5 2968,-131.5 3063,-131.5 3063,-112.5 2968,-112.5"/>
<text text-anchor="middle" x="3015.5" y="-119.5" font-family="Helvetica,sans-Serif" font-size="10.00">random_types.h</text>
</a>
</g>
</g>
<!-- Node1&#45;&gt;Node90 -->
<g id="edge39" class="edge">
<title>Node1&#45;&gt;Node90</title>
<path fill="none" stroke="midnightblue" d="M2092.57,-176.51C2227.77,-174.71 2628.74,-166.62 2959.5,-132 2962.24,-131.71 2965.05,-131.38 2967.89,-131.02"/>
<polygon fill="midnightblue" stroke="midnightblue" points="2092.14,-173.02 2082.18,-176.64 2092.23,-180.01 2092.14,-173.02"/>
</g>
<!-- Node92 -->
<g id="node39" class="node">
<title>Node92</title>
<g id="a_node39"><a xlink:href="spec_2reassembly_8h.html" target="_top" xlink:title=" ">
<polygon fill="white" stroke="red" points="3081,-112.5 3081,-131.5 3162,-131.5 3162,-112.5 3081,-112.5"/>
<text text-anchor="middle" x="3121.5" y="-119.5" font-family="Helvetica,sans-Serif" font-size="10.00">reassembly.h</text>
</a>
</g>
</g>
<!-- Node1&#45;&gt;Node92 -->
<g id="edge40" class="edge">
<title>Node1&#45;&gt;Node92</title>
<path fill="none" stroke="midnightblue" d="M2092.38,-177.24C2238.14,-177.49 2696.21,-174.6 3072.5,-132 3075.25,-131.69 3078.08,-131.31 3080.92,-130.9"/>
<polygon fill="midnightblue" stroke="midnightblue" points="2092.03,-173.74 2082.03,-177.22 2092.02,-180.74 2092.03,-173.74"/>
</g>
<!-- Node94 -->
<g id="node40" class="node">
<title>Node94</title>
<g id="a_node40"><a xlink:href="spec_2schedule_8h.html" target="_top" xlink:title=" ">
<polygon fill="white" stroke="red" points="3180,-112.5 3180,-131.5 3249,-131.5 3249,-112.5 3180,-112.5"/>
<text text-anchor="middle" x="3214.5" y="-119.5" font-family="Helvetica,sans-Serif" font-size="10.00">schedule.h</text>
</a>
</g>
</g>
<!-- Node1&#45;&gt;Node94 -->
<g id="edge41" class="edge">
<title>Node1&#45;&gt;Node94</title>
<path fill="none" stroke="midnightblue" d="M2092.49,-176.17C2277.71,-172.71 2957.59,-158.47 3171.5,-132 3174.22,-131.66 3177.03,-131.24 3179.85,-130.77"/>
<polygon fill="midnightblue" stroke="midnightblue" points="2092.2,-172.67 2082.27,-176.35 2092.33,-179.67 2092.2,-172.67"/>
</g>
<!-- Node96 -->
<g id="node41" class="node">
<title>Node96</title>
<g id="a_node41"><a xlink:href="spec_2schedule__types_8h.html" target="_top" xlink:title=" ">
<polygon fill="white" stroke="red" points="3267,-112.5 3267,-131.5 3368,-131.5 3368,-112.5 3267,-112.5"/>
<text text-anchor="middle" x="3317.5" y="-119.5" font-family="Helvetica,sans-Serif" font-size="10.00">schedule_types.h</text>
</a>
</g>
</g>
<!-- Node1&#45;&gt;Node96 -->
<g id="edge42" class="edge">
<title>Node1&#45;&gt;Node96</title>
<path fill="none" stroke="midnightblue" d="M2092.16,-177.18C2253.92,-177.42 2805.57,-174.81 3258.5,-132 3261.18,-131.75 3263.93,-131.45 3266.7,-131.13"/>
<polygon fill="midnightblue" stroke="midnightblue" points="2092.08,-173.68 2082.07,-177.17 2092.06,-180.68 2092.08,-173.68"/>
</g>
<!-- Node104 -->
<g id="node42" class="node">
<title>Node104</title>
<g id="a_node42"><a xlink:href="spec_2stash__types_8h.html" target="_top" xlink:title=" ">
<polygon fill="white" stroke="red" points="3386.5,-112.5 3386.5,-131.5 3470.5,-131.5 3470.5,-112.5 3386.5,-112.5"/>
<text text-anchor="middle" x="3428.5" y="-119.5" font-family="Helvetica,sans-Serif" font-size="10.00">stash_types.h</text>
</a>
</g>
</g>
<!-- Node1&#45;&gt;Node104 -->
<g id="edge43" class="edge">
<title>Node1&#45;&gt;Node104</title>
<path fill="none" stroke="midnightblue" d="M2092.39,-176.3C2297.92,-173.11 3120.49,-158.88 3377.5,-132 3380.36,-131.7 3383.3,-131.34 3386.26,-130.93"/>
<polygon fill="midnightblue" stroke="midnightblue" points="2092.18,-172.81 2082.23,-176.46 2092.28,-179.81 2092.18,-172.81"/>
</g>
<!-- Node108 -->
<g id="node43" class="node">
<title>Node108</title>
<g id="a_node43"><a xlink:href="spec_2std_8h.html" target="_top" xlink:title=" ">
<polygon fill="white" stroke="red" points="3489,-112.5 3489,-131.5 3530,-131.5 3530,-112.5 3489,-112.5"/>
<text text-anchor="middle" x="3509.5" y="-119.5" font-family="Helvetica,sans-Serif" font-size="10.00">std.h</text>
</a>
</g>
</g>
<!-- Node1&#45;&gt;Node108 -->
<g id="edge44" class="edge">
<title>Node1&#45;&gt;Node108</title>
<path fill="none" stroke="midnightblue" d="M2092.2,-177.16C2307.22,-177.67 3203.3,-176.97 3479.5,-132 3482.51,-131.51 3485.63,-130.8 3488.68,-130"/>
<polygon fill="midnightblue" stroke="midnightblue" points="2092.19,-173.66 2082.18,-177.14 2092.18,-180.66 2092.19,-173.66"/>
</g>
<!-- Node110 -->
<g id="node44" class="node">
<title>Node110</title>
<g id="a_node44"><a xlink:href="spec_2threshold_8h.html" target="_top" xlink:title=" ">
<polygon fill="white" stroke="red" points="3548,-112.5 3548,-131.5 3619,-131.5 3619,-112.5 3548,-112.5"/>
<text text-anchor="middle" x="3583.5" y="-119.5" font-family="Helvetica,sans-Serif" font-size="10.00">threshold.h</text>
</a>
</g>
</g>
<!-- Node1&#45;&gt;Node110 -->
<g id="edge45" class="edge">
<title>Node1&#45;&gt;Node110</title>
<path fill="none" stroke="midnightblue" d="M2092.25,-176.67C2312.62,-174.97 3249.13,-165.82 3539.5,-132 3542.13,-131.69 3544.84,-131.31 3547.56,-130.87"/>
<polygon fill="midnightblue" stroke="midnightblue" points="2091.98,-173.17 2082,-176.75 2092.03,-180.17 2091.98,-173.17"/>
</g>
<!-- Node112 -->
<g id="node45" class="node">
<title>Node112</title>
<g id="a_node45"><a xlink:href="spec_2thrmask_8h.html" target="_top" xlink:title=" ">
<polygon fill="white" stroke="red" points="3637.5,-112.5 3637.5,-131.5 3703.5,-131.5 3703.5,-112.5 3637.5,-112.5"/>
<text text-anchor="middle" x="3670.5" y="-119.5" font-family="Helvetica,sans-Serif" font-size="10.00">thrmask.h</text>
</a>
</g>
</g>
<!-- Node1&#45;&gt;Node112 -->
<g id="edge46" class="edge">
<title>Node1&#45;&gt;Node112</title>
<path fill="none" stroke="midnightblue" d="M2092.43,-176.82C2321.07,-175.78 3319.83,-169.14 3628.5,-132 3631.31,-131.66 3634.22,-131.23 3637.12,-130.73"/>
<polygon fill="midnightblue" stroke="midnightblue" points="2092.11,-173.32 2082.13,-176.87 2092.14,-180.32 2092.11,-173.32"/>
</g>
<!-- Node114 -->
<g id="node46" class="node">
<title>Node114</title>
<g id="a_node46"><a xlink:href="spec_2time_8h.html" target="_top" xlink:title=" ">
<polygon fill="white" stroke="red" points="3721.5,-112.5 3721.5,-131.5 3769.5,-131.5 3769.5,-112.5 3721.5,-112.5"/>
<text text-anchor="middle" x="3745.5" y="-119.5" font-family="Helvetica,sans-Serif" font-size="10.00">time.h</text>
</a>
</g>
</g>
<!-- Node1&#45;&gt;Node114 -->
<g id="edge47" class="edge">
<title>Node1&#45;&gt;Node114</title>
<path fill="none" stroke="midnightblue" d="M2092.66,-177.25C2329.18,-178.26 3387.59,-179.98 3712.5,-132 3715.44,-131.57 3718.49,-130.96 3721.49,-130.26"/>
<polygon fill="midnightblue" stroke="midnightblue" points="2092.36,-173.75 2082.35,-177.2 2092.33,-180.75 2092.36,-173.75"/>
</g>
<!-- Node116 -->
<g id="node47" class="node">
<title>Node116</title>
<g id="a_node47"><a xlink:href="spec_2timer__types_8h.html" target="_top" xlink:title=" ">
<polygon fill="white" stroke="red" points="3787.5,-112.5 3787.5,-131.5 3871.5,-131.5 3871.5,-112.5 3787.5,-112.5"/>
<text text-anchor="middle" x="3829.5" y="-119.5" font-family="Helvetica,sans-Serif" font-size="10.00">timer_types.h</text>
</a>
</g>
</g>
<!-- Node1&#45;&gt;Node116 -->
<g id="edge48" class="edge">
<title>Node1&#45;&gt;Node116</title>
<path fill="none" stroke="midnightblue" d="M2092.51,-176.73C2334.11,-175.17 3437.88,-166.28 3778.5,-132 3781.36,-131.71 3784.31,-131.36 3787.27,-130.95"/>
<polygon fill="midnightblue" stroke="midnightblue" points="2092.29,-173.23 2082.31,-176.79 2092.33,-180.23 2092.29,-173.23"/>
</g>
<!-- Node51 -->
<g id="node48" class="node">
<title>Node51</title>
<g id="a_node48"><a xlink:href="spec_2traffic__mngr_8h.html" target="_top" xlink:title=" ">
<polygon fill="white" stroke="red" points="3889.5,-112.5 3889.5,-131.5 3973.5,-131.5 3973.5,-112.5 3889.5,-112.5"/>
<text text-anchor="middle" x="3931.5" y="-119.5" font-family="Helvetica,sans-Serif" font-size="10.00">traffic_mngr.h</text>
</a>
</g>
</g>
<!-- Node1&#45;&gt;Node51 -->
<g id="edge49" class="edge">
<title>Node1&#45;&gt;Node51</title>
<path fill="none" stroke="midnightblue" d="M2092.44,-176.8C2342.33,-175.62 3518.47,-168.18 3880.5,-132 3883.36,-131.71 3886.31,-131.36 3889.27,-130.96"/>
<polygon fill="midnightblue" stroke="midnightblue" points="2092.24,-173.31 2082.25,-176.85 2092.27,-180.31 2092.24,-173.31"/>
</g>
<!-- Node118 -->
<g id="node49" class="node">
<title>Node118</title>
<g id="a_node49"><a xlink:href="system__info_8h.html" target="_top" xlink:title=" ">
<polygon fill="white" stroke="black" points="3991.5,-112.5 3991.5,-131.5 4077.5,-131.5 4077.5,-112.5 3991.5,-112.5"/>
<text text-anchor="middle" x="4034.5" y="-119.5" font-family="Helvetica,sans-Serif" font-size="10.00">system_info.h</text>
</a>
</g>
</g>
<!-- Node1&#45;&gt;Node118 -->
<g id="edge50" class="edge">
<title>Node1&#45;&gt;Node118</title>
<path fill="none" stroke="midnightblue" d="M2092.13,-176.86C2349.52,-175.91 3598.84,-169.45 3982.5,-132 3985.42,-131.72 3988.42,-131.36 3991.44,-130.96"/>
<polygon fill="midnightblue" stroke="midnightblue" points="2091.99,-173.36 2082.01,-176.89 2092.02,-180.36 2091.99,-173.36"/>
</g>
<!-- Node119 -->
<g id="node50" class="node">
<title>Node119</title>
<g id="a_node50"><a xlink:href="strong__types_8h.html" target="_top" xlink:title=" ">
<polygon fill="white" stroke="black" points="4096,-112.5 4096,-131.5 4185,-131.5 4185,-112.5 4096,-112.5"/>
<text text-anchor="middle" x="4140.5" y="-119.5" font-family="Helvetica,sans-Serif" font-size="10.00">strong_types.h</text>
</a>
</g>
</g>
<!-- Node1&#45;&gt;Node119 -->
<g id="edge51" class="edge">
<title>Node1&#45;&gt;Node119</title>
<path fill="none" stroke="midnightblue" d="M2092.07,-176.88C2357.42,-176.06 3680.82,-170.08 4086.5,-132 4089.53,-131.72 4092.64,-131.36 4095.78,-130.96"/>
<polygon fill="midnightblue" stroke="midnightblue" points="2092,-173.38 2082.01,-176.91 2092.02,-180.38 2092,-173.38"/>
</g>
<!-- Node14&#45;&gt;Node15 -->
<g id="edge14" class="edge">
<title>Node14&#45;&gt;Node15</title>
<path fill="none" stroke="midnightblue" d="M1387.9,-53.3C1356.05,-43.13 1310.66,-28.62 1282.15,-19.52"/>
<polygon fill="midnightblue" stroke="midnightblue" points="1387.13,-56.73 1397.72,-56.44 1389.26,-50.07 1387.13,-56.73"/>
</g>
<!-- Node20 -->
<g id="node16" class="node">
<title>Node20</title>
<g id="a_node16"><a xlink:href="spec_2packet__io_8h.html" target="_top" xlink:title=" ">
<polygon fill="white" stroke="red" points="1388.5,-0.5 1388.5,-19.5 1460.5,-19.5 1460.5,-0.5 1388.5,-0.5"/>
<text text-anchor="middle" x="1424.5" y="-7.5" font-family="Helvetica,sans-Serif" font-size="10.00">packet_io.h</text>
</a>
</g>
</g>
<!-- Node14&#45;&gt;Node20 -->
<g id="edge15" class="edge">
<title>Node14&#45;&gt;Node20</title>
<path fill="none" stroke="midnightblue" d="M1424.5,-45.8C1424.5,-36.91 1424.5,-26.78 1424.5,-19.75"/>
<polygon fill="midnightblue" stroke="midnightblue" points="1421,-46.08 1424.5,-56.08 1428,-46.08 1421,-46.08"/>
</g>
<!-- Node24 -->
<g id="node19" class="node">
<title>Node24</title>
<g id="a_node19"><a xlink:href="buffer_8h.html" target="_top" xlink:title=" ">
<polygon fill="white" stroke="red" points="1210,-56.5 1210,-75.5 1263,-75.5 1263,-56.5 1210,-56.5"/>
<text text-anchor="middle" x="1236.5" y="-63.5" font-family="Helvetica,sans-Serif" font-size="10.00">buffer.h</text>
</a>
</g>
</g>
<!-- Node23&#45;&gt;Node24 -->
<g id="edge18" class="edge">
<title>Node23&#45;&gt;Node24</title>
<path fill="none" stroke="midnightblue" d="M1236.5,-101.8C1236.5,-92.91 1236.5,-82.78 1236.5,-75.75"/>
<polygon fill="midnightblue" stroke="midnightblue" points="1233,-102.08 1236.5,-112.08 1240,-102.08 1233,-102.08"/>
</g>
<!-- Node28&#45;&gt;Node14 -->
<g id="edge21" class="edge">
<title>Node28&#45;&gt;Node14</title>
<path fill="none" stroke="midnightblue" d="M1424.5,-101.8C1424.5,-92.91 1424.5,-82.78 1424.5,-75.75"/>
<polygon fill="midnightblue" stroke="midnightblue" points="1421,-102.08 1424.5,-112.08 1428,-102.08 1421,-102.08"/>
</g>
</g>
</svg>
