<?xml version="1.0" encoding="UTF-8" standalone="no"?>
<!DOCTYPE svg PUBLIC "-//W3C//DTD SVG 1.1//EN"
 "http://www.w3.org/Graphics/SVG/1.1/DTD/svg11.dtd">
<!-- Generated by graphviz version 2.43.0 (0)
 -->
<!-- Title: thread_types.h Pages: 1 -->
<svg width="1554pt" height="375pt"
 viewBox="0.00 0.00 1553.50 375.00" xmlns="http://www.w3.org/2000/svg" xmlns:xlink="http://www.w3.org/1999/xlink">
<g id="graph0" class="graph" transform="scale(1 1) rotate(0) translate(4 371)">
<title>thread_types.h</title>
<polygon fill="white" stroke="transparent" points="-4,4 -4,-371 1549.5,-371 1549.5,4 -4,4"/>
<!-- Node1 -->
<g id="node1" class="node">
<title>Node1</title>
<g id="a_node1"><a xlink:title=" ">
<polygon fill="#bfbfbf" stroke="black" points="730,-347.5 730,-366.5 819,-366.5 819,-347.5 730,-347.5"/>
<text text-anchor="middle" x="774.5" y="-354.5" font-family="Helvetica,sans-Serif" font-size="10.00">thread_types.h</text>
</a>
</g>
</g>
<!-- Node2 -->
<g id="node2" class="node">
<title>Node2</title>
<g id="a_node2"><a xlink:href="spec_2init_8h.html" target="_top" xlink:title=" ">
<polygon fill="white" stroke="black" points="685,-291.5 685,-310.5 726,-310.5 726,-291.5 685,-291.5"/>
<text text-anchor="middle" x="705.5" y="-298.5" font-family="Helvetica,sans-Serif" font-size="10.00">init.h</text>
</a>
</g>
</g>
<!-- Node1&#45;&gt;Node2 -->
<g id="edge1" class="edge">
<title>Node1&#45;&gt;Node2</title>
<path fill="none" stroke="midnightblue" d="M755.46,-341.1C743.04,-331.38 727.26,-319.03 716.79,-310.83"/>
<polygon fill="midnightblue" stroke="midnightblue" points="753.38,-343.92 763.41,-347.32 757.7,-338.4 753.38,-343.92"/>
</g>
<!-- Node17 -->
<g id="node17" class="node">
<title>Node17</title>
<g id="a_node17"><a xlink:href="thread__inline__types_8h_source.html" target="_top" xlink:title=" ">
<polygon fill="white" stroke="black" points="713.5,-179.5 713.5,-198.5 835.5,-198.5 835.5,-179.5 713.5,-179.5"/>
<text text-anchor="middle" x="774.5" y="-186.5" font-family="Helvetica,sans-Serif" font-size="10.00">thread_inline_types.h</text>
</a>
</g>
</g>
<!-- Node1&#45;&gt;Node17 -->
<g id="edge28" class="edge">
<title>Node1&#45;&gt;Node17</title>
<path fill="none" stroke="midnightblue" d="M774.5,-336.93C774.5,-300.92 774.5,-224.23 774.5,-198.57"/>
<polygon fill="midnightblue" stroke="midnightblue" points="771,-337.08 774.5,-347.08 778,-337.08 771,-337.08"/>
</g>
<!-- Node19 -->
<g id="node19" class="node">
<title>Node19</title>
<g id="a_node19"><a xlink:href="thread_8h.html" target="_top" xlink:title=" ">
<polygon fill="white" stroke="black" points="1117,-123.5 1117,-142.5 1174,-142.5 1174,-123.5 1117,-123.5"/>
<text text-anchor="middle" x="1145.5" y="-130.5" font-family="Helvetica,sans-Serif" font-size="10.00">thread.h</text>
</a>
</g>
</g>
<!-- Node1&#45;&gt;Node19 -->
<g id="edge20" class="edge">
<title>Node1&#45;&gt;Node19</title>
<path fill="none" stroke="midnightblue" d="M798.01,-341.93C868.14,-299.97 1074.55,-176.45 1131.06,-142.64"/>
<polygon fill="midnightblue" stroke="midnightblue" points="795.83,-339.16 789.04,-347.3 799.42,-345.17 795.83,-339.16"/>
</g>
<!-- Node3 -->
<g id="node3" class="node">
<title>Node3</title>
<g id="a_node3"><a xlink:href="init_8h.html" target="_top" xlink:title=" ">
<polygon fill="white" stroke="black" points="665,-235.5 665,-254.5 706,-254.5 706,-235.5 665,-235.5"/>
<text text-anchor="middle" x="685.5" y="-242.5" font-family="Helvetica,sans-Serif" font-size="10.00">init.h</text>
</a>
</g>
</g>
<!-- Node2&#45;&gt;Node3 -->
<g id="edge2" class="edge">
<title>Node2&#45;&gt;Node3</title>
<path fill="none" stroke="midnightblue" d="M698.72,-281.69C695.35,-272.59 691.43,-262.01 688.74,-254.75"/>
<polygon fill="midnightblue" stroke="midnightblue" points="695.44,-282.92 702.2,-291.08 702.01,-280.49 695.44,-282.92"/>
</g>
<!-- Node4 -->
<g id="node4" class="node">
<title>Node4</title>
<g id="a_node4"><a xlink:href="spec_2shared__memory_8h.html" target="_top" xlink:title=" ">
<polygon fill="white" stroke="black" points="504.5,-179.5 504.5,-198.5 608.5,-198.5 608.5,-179.5 504.5,-179.5"/>
<text text-anchor="middle" x="556.5" y="-186.5" font-family="Helvetica,sans-Serif" font-size="10.00">shared_memory.h</text>
</a>
</g>
</g>
<!-- Node3&#45;&gt;Node4 -->
<g id="edge3" class="edge">
<title>Node3&#45;&gt;Node4</title>
<path fill="none" stroke="midnightblue" d="M655.65,-231.5C631.46,-221.38 598.04,-207.39 576.84,-198.52"/>
<polygon fill="midnightblue" stroke="midnightblue" points="654.48,-234.81 665.06,-235.44 657.19,-228.35 654.48,-234.81"/>
</g>
<!-- Node6 -->
<g id="node6" class="node">
<title>Node6</title>
<g id="a_node6"><a xlink:href="debug__inlines_8h.html" target="_top" xlink:title=" ">
<polygon fill="white" stroke="black" points="605,-123.5 605,-142.5 698,-142.5 698,-123.5 605,-123.5"/>
<text text-anchor="middle" x="651.5" y="-130.5" font-family="Helvetica,sans-Serif" font-size="10.00">debug_inlines.h</text>
</a>
</g>
</g>
<!-- Node3&#45;&gt;Node6 -->
<g id="edge5" class="edge">
<title>Node3&#45;&gt;Node6</title>
<path fill="none" stroke="midnightblue" d="M679.81,-225.75C677.26,-217.57 674.22,-207.8 671.5,-199 665.29,-178.92 658.05,-155.34 654.21,-142.83"/>
<polygon fill="midnightblue" stroke="midnightblue" points="676.49,-226.87 682.81,-235.38 683.17,-224.79 676.49,-226.87"/>
</g>
<!-- Node3&#45;&gt;Node17 -->
<g id="edge16" class="edge">
<title>Node3&#45;&gt;Node17</title>
<path fill="none" stroke="midnightblue" d="M708.74,-229.9C725.06,-220 746.37,-207.07 760.24,-198.65"/>
<polygon fill="midnightblue" stroke="midnightblue" points="706.53,-227.14 699.8,-235.32 710.16,-233.13 706.53,-227.14"/>
</g>
<!-- Node18 -->
<g id="node18" class="node">
<title>Node18</title>
<g id="a_node18"><a xlink:href="thread__inlines_8h_source.html" target="_top" xlink:title=" ">
<polygon fill="white" stroke="black" points="723,-123.5 723,-142.5 818,-142.5 818,-123.5 723,-123.5"/>
<text text-anchor="middle" x="770.5" y="-130.5" font-family="Helvetica,sans-Serif" font-size="10.00">thread_inlines.h</text>
</a>
</g>
</g>
<!-- Node3&#45;&gt;Node18 -->
<g id="edge19" class="edge">
<title>Node3&#45;&gt;Node18</title>
<path fill="none" stroke="midnightblue" d="M687.6,-224.9C689.9,-211.08 694.67,-192.52 704.5,-179 716.48,-162.51 736.47,-150.12 751.31,-142.56"/>
<polygon fill="midnightblue" stroke="midnightblue" points="684.08,-224.8 686.19,-235.19 691.02,-225.75 684.08,-224.8"/>
</g>
<!-- Node5 -->
<g id="node5" class="node">
<title>Node5</title>
<g id="a_node5"><a xlink:href="shared__memory_8h.html" target="_top" xlink:title=" ">
<polygon fill="white" stroke="black" points="482.5,-123.5 482.5,-142.5 586.5,-142.5 586.5,-123.5 482.5,-123.5"/>
<text text-anchor="middle" x="534.5" y="-130.5" font-family="Helvetica,sans-Serif" font-size="10.00">shared_memory.h</text>
</a>
</g>
</g>
<!-- Node4&#45;&gt;Node5 -->
<g id="edge4" class="edge">
<title>Node4&#45;&gt;Node5</title>
<path fill="none" stroke="midnightblue" d="M549.04,-169.69C545.33,-160.59 541.02,-150.01 538.07,-142.75"/>
<polygon fill="midnightblue" stroke="midnightblue" points="545.85,-171.14 552.87,-179.08 552.34,-168.5 545.85,-171.14"/>
</g>
<!-- Node7 -->
<g id="node7" class="node">
<title>Node7</title>
<g id="a_node7"><a xlink:href="buffer__inlines_8h_source.html" target="_top" xlink:title=" ">
<polygon fill="white" stroke="black" points="494.5,-62 494.5,-81 586.5,-81 586.5,-62 494.5,-62"/>
<text text-anchor="middle" x="540.5" y="-69" font-family="Helvetica,sans-Serif" font-size="10.00">buffer_inlines.h</text>
</a>
</g>
</g>
<!-- Node6&#45;&gt;Node7 -->
<g id="edge6" class="edge">
<title>Node6&#45;&gt;Node7</title>
<path fill="none" stroke="midnightblue" d="M626.71,-118.71C605.21,-107.19 574.74,-90.86 556.37,-81.01"/>
<polygon fill="midnightblue" stroke="midnightblue" points="625.13,-121.84 635.6,-123.48 628.44,-115.67 625.13,-121.84"/>
</g>
<!-- Node8 -->
<g id="node8" class="node">
<title>Node8</title>
<g id="a_node8"><a xlink:href="crypto__inlines_8h_source.html" target="_top" xlink:title=" ">
<polygon fill="white" stroke="black" points="604.5,-62 604.5,-81 698.5,-81 698.5,-62 604.5,-62"/>
<text text-anchor="middle" x="651.5" y="-69" font-family="Helvetica,sans-Serif" font-size="10.00">crypto_inlines.h</text>
</a>
</g>
</g>
<!-- Node6&#45;&gt;Node8 -->
<g id="edge7" class="edge">
<title>Node6&#45;&gt;Node8</title>
<path fill="none" stroke="midnightblue" d="M651.5,-113.32C651.5,-102.5 651.5,-89.4 651.5,-81.01"/>
<polygon fill="midnightblue" stroke="midnightblue" points="648,-113.48 651.5,-123.48 655,-113.48 648,-113.48"/>
</g>
<!-- Node9 -->
<g id="node9" class="node">
<title>Node9</title>
<g id="a_node9"><a xlink:href="dma__inlines_8h_source.html" target="_top" xlink:title=" ">
<polygon fill="white" stroke="black" points="717,-62 717,-81 802,-81 802,-62 717,-62"/>
<text text-anchor="middle" x="759.5" y="-69" font-family="Helvetica,sans-Serif" font-size="10.00">dma_inlines.h</text>
</a>
</g>
</g>
<!-- Node6&#45;&gt;Node9 -->
<g id="edge8" class="edge">
<title>Node6&#45;&gt;Node9</title>
<path fill="none" stroke="midnightblue" d="M675.9,-118.56C696.8,-107.04 726.26,-90.81 744.05,-81.01"/>
<polygon fill="midnightblue" stroke="midnightblue" points="674.04,-115.58 666.97,-123.48 677.42,-121.72 674.04,-115.58"/>
</g>
<!-- Node10 -->
<g id="node10" class="node">
<title>Node10</title>
<g id="a_node10"><a xlink:href="ipsec__inlines_8h_source.html" target="_top" xlink:title=" ">
<polygon fill="white" stroke="black" points="820,-62 820,-81 909,-81 909,-62 820,-62"/>
<text text-anchor="middle" x="864.5" y="-69" font-family="Helvetica,sans-Serif" font-size="10.00">ipsec_inlines.h</text>
</a>
</g>
</g>
<!-- Node6&#45;&gt;Node10 -->
<g id="edge9" class="edge">
<title>Node6&#45;&gt;Node10</title>
<path fill="none" stroke="midnightblue" d="M691.78,-120.75C733.16,-109.19 796.66,-91.45 834.04,-81.01"/>
<polygon fill="midnightblue" stroke="midnightblue" points="690.71,-117.41 682.02,-123.48 692.59,-124.16 690.71,-117.41"/>
</g>
<!-- Node11 -->
<g id="node11" class="node">
<title>Node11</title>
<g id="a_node11"><a xlink:href="packet__inlines_8h.html" target="_top" xlink:title=" ">
<polygon fill="white" stroke="black" points="0,-62 0,-81 95,-81 95,-62 0,-62"/>
<text text-anchor="middle" x="47.5" y="-69" font-family="Helvetica,sans-Serif" font-size="10.00">packet_inlines.h</text>
</a>
</g>
</g>
<!-- Node6&#45;&gt;Node11 -->
<g id="edge10" class="edge">
<title>Node6&#45;&gt;Node11</title>
<path fill="none" stroke="midnightblue" d="M594.6,-123.01C375.94,-98.33 316.56,-122.08 103.5,-87 94.58,-85.53 85.01,-83.3 76.35,-81.03"/>
<polygon fill="midnightblue" stroke="midnightblue" points="594.46,-126.52 604.79,-124.18 595.26,-119.56 594.46,-126.52"/>
</g>
<!-- Node12 -->
<g id="node12" class="node">
<title>Node12</title>
<g id="a_node12"><a xlink:href="packet__vector__inlines_8h.html" target="_top" xlink:title=" ">
<polygon fill="white" stroke="black" points="113,-62 113,-81 244,-81 244,-62 113,-62"/>
<text text-anchor="middle" x="178.5" y="-69" font-family="Helvetica,sans-Serif" font-size="10.00">packet_vector_inlines.h</text>
</a>
</g>
</g>
<!-- Node6&#45;&gt;Node12 -->
<g id="edge11" class="edge">
<title>Node6&#45;&gt;Node12</title>
<path fill="none" stroke="midnightblue" d="M594.55,-122.95C441.8,-103.12 400.83,-109.27 252.5,-87 241.5,-85.35 229.64,-83.19 218.71,-81.05"/>
<polygon fill="midnightblue" stroke="midnightblue" points="594.41,-126.46 604.78,-124.29 595.32,-119.52 594.41,-126.46"/>
</g>
<!-- Node13 -->
<g id="node13" class="node">
<title>Node13</title>
<g id="a_node13"><a xlink:href="rwlock__recursive__inlines_8h_source.html" target="_top" xlink:title=" ">
<polygon fill="white" stroke="black" points="927.5,-62 927.5,-81 1073.5,-81 1073.5,-62 927.5,-62"/>
<text text-anchor="middle" x="1000.5" y="-69" font-family="Helvetica,sans-Serif" font-size="10.00">rwlock_recursive_inlines.h</text>
</a>
</g>
</g>
<!-- Node6&#45;&gt;Node13 -->
<g id="edge12" class="edge">
<title>Node6&#45;&gt;Node13</title>
<path fill="none" stroke="midnightblue" d="M708.38,-122.55C762.45,-113.53 846.04,-99.51 918.5,-87 929.47,-85.11 941.26,-83.04 952.38,-81.08"/>
<polygon fill="midnightblue" stroke="midnightblue" points="707.59,-119.13 698.3,-124.23 708.74,-126.04 707.59,-119.13"/>
</g>
<!-- Node14 -->
<g id="node14" class="node">
<title>Node14</title>
<g id="a_node14"><a xlink:href="schedule__inlines_8h_source.html" target="_top" xlink:title=" ">
<polygon fill="white" stroke="black" points="262,-62 262,-81 369,-81 369,-62 262,-62"/>
<text text-anchor="middle" x="315.5" y="-69" font-family="Helvetica,sans-Serif" font-size="10.00">schedule_inlines.h</text>
</a>
</g>
</g>
<!-- Node6&#45;&gt;Node14 -->
<g id="edge13" class="edge">
<title>Node6&#45;&gt;Node14</title>
<path fill="none" stroke="midnightblue" d="M594.87,-122.8C517.77,-110.26 388.08,-89.1 377.5,-87 368.61,-85.23 359.05,-83.11 350.17,-81.04"/>
<polygon fill="midnightblue" stroke="midnightblue" points="594.49,-126.28 604.92,-124.43 595.61,-119.37 594.49,-126.28"/>
</g>
<!-- Node15 -->
<g id="node15" class="node">
<title>Node15</title>
<g id="a_node15"><a xlink:href="spinlock__recursive__inlines_8h_source.html" target="_top" xlink:title=" ">
<polygon fill="white" stroke="black" points="1092,-56.5 1092,-86.5 1199,-86.5 1199,-56.5 1092,-56.5"/>
<text text-anchor="start" x="1100" y="-74.5" font-family="Helvetica,sans-Serif" font-size="10.00">spinlock_recursive</text>
<text text-anchor="middle" x="1145.5" y="-63.5" font-family="Helvetica,sans-Serif" font-size="10.00">_inlines.h</text>
</a>
</g>
</g>
<!-- Node6&#45;&gt;Node15 -->
<g id="edge14" class="edge">
<title>Node6&#45;&gt;Node15</title>
<path fill="none" stroke="midnightblue" d="M708.31,-123.65C710.06,-123.42 711.79,-123.21 713.5,-123 877.08,-103.16 919.87,-113.53 1082.5,-87 1085.6,-86.49 1088.78,-85.93 1091.98,-85.31"/>
<polygon fill="midnightblue" stroke="midnightblue" points="707.64,-120.2 698.19,-124.98 708.56,-127.14 707.64,-120.2"/>
</g>
<!-- Node16 -->
<g id="node16" class="node">
<title>Node16</title>
<g id="a_node16"><a xlink:href="timer__inlines_8h_source.html" target="_top" xlink:title=" ">
<polygon fill="white" stroke="black" points="387,-62 387,-81 476,-81 476,-62 387,-62"/>
<text text-anchor="middle" x="431.5" y="-69" font-family="Helvetica,sans-Serif" font-size="10.00">timer_inlines.h</text>
</a>
</g>
</g>
<!-- Node6&#45;&gt;Node16 -->
<g id="edge15" class="edge">
<title>Node6&#45;&gt;Node16</title>
<path fill="none" stroke="midnightblue" d="M610.17,-120.82C567.44,-109.26 501.65,-91.47 462.96,-81.01"/>
<polygon fill="midnightblue" stroke="midnightblue" points="609.41,-124.24 619.98,-123.48 611.24,-117.49 609.41,-124.24"/>
</g>
<!-- Node17&#45;&gt;Node6 -->
<g id="edge17" class="edge">
<title>Node17&#45;&gt;Node6</title>
<path fill="none" stroke="midnightblue" d="M745.73,-175.37C722.69,-165.26 691.02,-151.35 670.9,-142.52"/>
<polygon fill="midnightblue" stroke="midnightblue" points="744.45,-178.63 755.01,-179.44 747.26,-172.22 744.45,-178.63"/>
</g>
<!-- Node17&#45;&gt;Node18 -->
<g id="edge18" class="edge">
<title>Node17&#45;&gt;Node18</title>
<path fill="none" stroke="midnightblue" d="M773.1,-169.1C772.44,-160.14 771.67,-149.86 771.15,-142.75"/>
<polygon fill="midnightblue" stroke="midnightblue" points="769.61,-169.37 773.84,-179.08 776.59,-168.85 769.61,-169.37"/>
</g>
<!-- Node19&#45;&gt;Node13 -->
<g id="edge26" class="edge">
<title>Node19&#45;&gt;Node13</title>
<path fill="none" stroke="midnightblue" d="M1115.36,-119.63C1087.19,-108.07 1045.88,-91.12 1021.24,-81.01"/>
<polygon fill="midnightblue" stroke="midnightblue" points="1114.14,-122.92 1124.73,-123.48 1116.8,-116.44 1114.14,-122.92"/>
</g>
<!-- Node19&#45;&gt;Node15 -->
<g id="edge27" class="edge">
<title>Node19&#45;&gt;Node15</title>
<path fill="none" stroke="midnightblue" d="M1145.5,-113.23C1145.5,-104.59 1145.5,-94.5 1145.5,-86.52"/>
<polygon fill="midnightblue" stroke="midnightblue" points="1142,-113.48 1145.5,-123.48 1149,-113.48 1142,-113.48"/>
</g>
<!-- Node20 -->
<g id="node20" class="node">
<title>Node20</title>
<g id="a_node20"><a xlink:href="abi-default_2rwlock__recursive_8h.html" target="_top" xlink:title=" ">
<polygon fill="white" stroke="black" points="1217.5,-62 1217.5,-81 1325.5,-81 1325.5,-62 1217.5,-62"/>
<text text-anchor="middle" x="1271.5" y="-69" font-family="Helvetica,sans-Serif" font-size="10.00">rwlock_recursive.h</text>
</a>
</g>
</g>
<!-- Node19&#45;&gt;Node20 -->
<g id="edge21" class="edge">
<title>Node19&#45;&gt;Node20</title>
<path fill="none" stroke="midnightblue" d="M1172.66,-119.17C1197.11,-107.63 1232.35,-90.99 1253.48,-81.01"/>
<polygon fill="midnightblue" stroke="midnightblue" points="1171.1,-116.04 1163.55,-123.48 1174.09,-122.37 1171.1,-116.04"/>
</g>
<!-- Node21 -->
<g id="node21" class="node">
<title>Node21</title>
<g id="a_node21"><a xlink:href="cpu_8h.html" target="_top" xlink:title=" ">
<polygon fill="white" stroke="black" points="1344,-62 1344,-81 1387,-81 1387,-62 1344,-62"/>
<text text-anchor="middle" x="1365.5" y="-69" font-family="Helvetica,sans-Serif" font-size="10.00">cpu.h</text>
</a>
</g>
</g>
<!-- Node19&#45;&gt;Node21 -->
<g id="edge22" class="edge">
<title>Node19&#45;&gt;Node21</title>
<path fill="none" stroke="midnightblue" d="M1184.5,-125.13C1223.18,-117.75 1283.85,-104.67 1334.5,-87 1339.21,-85.36 1344.17,-83.23 1348.7,-81.11"/>
<polygon fill="midnightblue" stroke="midnightblue" points="1183.38,-121.78 1174.19,-127.06 1184.67,-128.66 1183.38,-121.78"/>
</g>
<!-- Node22 -->
<g id="node22" class="node">
<title>Node22</title>
<g id="a_node22"><a xlink:href="rwlock__inlines_8h_source.html" target="_top" xlink:title=" ">
<polygon fill="white" stroke="black" points="1200,-0.5 1200,-19.5 1295,-19.5 1295,-0.5 1200,-0.5"/>
<text text-anchor="middle" x="1247.5" y="-7.5" font-family="Helvetica,sans-Serif" font-size="10.00">rwlock_inlines.h</text>
</a>
</g>
</g>
<!-- Node21&#45;&gt;Node22 -->
<g id="edge23" class="edge">
<title>Node21&#45;&gt;Node22</title>
<path fill="none" stroke="midnightblue" d="M1339.45,-57.37C1316.58,-45.83 1283.99,-29.4 1264.38,-19.51"/>
<polygon fill="midnightblue" stroke="midnightblue" points="1338.09,-60.6 1348.59,-61.98 1341.24,-54.35 1338.09,-60.6"/>
</g>
<!-- Node23 -->
<g id="node23" class="node">
<title>Node23</title>
<g id="a_node23"><a xlink:href="spinlock__inlines_8h_source.html" target="_top" xlink:title=" ">
<polygon fill="white" stroke="black" points="1313.5,-0.5 1313.5,-19.5 1417.5,-19.5 1417.5,-0.5 1313.5,-0.5"/>
<text text-anchor="middle" x="1365.5" y="-7.5" font-family="Helvetica,sans-Serif" font-size="10.00">spinlock_inlines.h</text>
</a>
</g>
</g>
<!-- Node21&#45;&gt;Node23 -->
<g id="edge24" class="edge">
<title>Node21&#45;&gt;Node23</title>
<path fill="none" stroke="midnightblue" d="M1365.5,-51.82C1365.5,-41 1365.5,-27.9 1365.5,-19.51"/>
<polygon fill="midnightblue" stroke="midnightblue" points="1362,-51.98 1365.5,-61.98 1369,-51.98 1362,-51.98"/>
</g>
<!-- Node24 -->
<g id="node24" class="node">
<title>Node24</title>
<g id="a_node24"><a xlink:href="ticketlock__inlines_8h_source.html" target="_top" xlink:title=" ">
<polygon fill="white" stroke="black" points="1435.5,-0.5 1435.5,-19.5 1545.5,-19.5 1545.5,-0.5 1435.5,-0.5"/>
<text text-anchor="middle" x="1490.5" y="-7.5" font-family="Helvetica,sans-Serif" font-size="10.00">ticketlock_inlines.h</text>
</a>
</g>
</g>
<!-- Node21&#45;&gt;Node24 -->
<g id="edge25" class="edge">
<title>Node21&#45;&gt;Node24</title>
<path fill="none" stroke="midnightblue" d="M1392.44,-57.67C1416.7,-46.13 1451.66,-29.49 1472.62,-19.51"/>
<polygon fill="midnightblue" stroke="midnightblue" points="1390.93,-54.52 1383.41,-61.98 1393.94,-60.84 1390.93,-54.52"/>
</g>
</g>
</svg>
