<?xml version="1.0" encoding="UTF-8" standalone="no"?>
<!DOCTYPE svg PUBLIC "-//W3C//DTD SVG 1.1//EN"
 "http://www.w3.org/Graphics/SVG/1.1/DTD/svg11.dtd">
<!-- Generated by graphviz version 2.43.0 (0)
 -->
<!-- Title: thrmask.h Pages: 1 -->
<svg width="1273pt" height="980pt"
 viewBox="0.00 0.00 1273.00 980.00" xmlns="http://www.w3.org/2000/svg" xmlns:xlink="http://www.w3.org/1999/xlink">
<g id="graph0" class="graph" transform="scale(1 1) rotate(0) translate(4 976)">
<title>thrmask.h</title>
<polygon fill="white" stroke="transparent" points="-4,4 -4,-976 1269,-976 1269,4 -4,4"/>
<!-- Node1 -->
<g id="node1" class="node">
<title>Node1</title>
<g id="a_node1"><a xlink:title=" ">
<polygon fill="#bfbfbf" stroke="black" points="354.5,-952.5 354.5,-971.5 420.5,-971.5 420.5,-952.5 354.5,-952.5"/>
<text text-anchor="middle" x="387.5" y="-959.5" font-family="Helvetica,sans-Serif" font-size="10.00">thrmask.h</text>
</a>
</g>
</g>
<!-- Node2 -->
<g id="node2" class="node">
<title>Node2</title>
<g id="a_node2"><a xlink:href="spec_2schedule_8h.html" target="_top" xlink:title=" ">
<polygon fill="white" stroke="black" points="0,-672.5 0,-691.5 69,-691.5 69,-672.5 0,-672.5"/>
<text text-anchor="middle" x="34.5" y="-679.5" font-family="Helvetica,sans-Serif" font-size="10.00">schedule.h</text>
</a>
</g>
</g>
<!-- Node1&#45;&gt;Node2 -->
<g id="edge1" class="edge">
<title>Node1&#45;&gt;Node2</title>
<path fill="none" stroke="midnightblue" d="M344.36,-954.01C263.11,-939.61 95.5,-903.53 95.5,-851 95.5,-851 95.5,-851 95.5,-793 95.5,-750.42 60.11,-708.88 43.24,-691.51"/>
<polygon fill="midnightblue" stroke="midnightblue" points="343.84,-957.47 354.29,-955.73 345.04,-950.57 343.84,-957.47"/>
</g>
<!-- Node4 -->
<g id="node4" class="node">
<title>Node4</title>
<g id="a_node4"><a xlink:href="spec_2schedule__types_8h.html" target="_top" xlink:title=" ">
<polygon fill="white" stroke="black" points="337,-896.5 337,-915.5 438,-915.5 438,-896.5 337,-896.5"/>
<text text-anchor="middle" x="387.5" y="-903.5" font-family="Helvetica,sans-Serif" font-size="10.00">schedule_types.h</text>
</a>
</g>
</g>
<!-- Node1&#45;&gt;Node4 -->
<g id="edge3" class="edge">
<title>Node1&#45;&gt;Node4</title>
<path fill="none" stroke="midnightblue" d="M387.5,-941.8C387.5,-932.91 387.5,-922.78 387.5,-915.75"/>
<polygon fill="midnightblue" stroke="midnightblue" points="384,-942.08 387.5,-952.08 391,-942.08 384,-942.08"/>
</g>
<!-- Node62 -->
<g id="node49" class="node">
<title>Node62</title>
<g id="a_node49"><a xlink:href="schedule__inline__types_8h_source.html" target="_top" xlink:title=" ">
<polygon fill="white" stroke="black" points="1032.5,-672.5 1032.5,-691.5 1166.5,-691.5 1166.5,-672.5 1032.5,-672.5"/>
<text text-anchor="middle" x="1099.5" y="-679.5" font-family="Helvetica,sans-Serif" font-size="10.00">schedule_inline_types.h</text>
</a>
</g>
</g>
<!-- Node1&#45;&gt;Node62 -->
<g id="edge77" class="edge">
<title>Node1&#45;&gt;Node62</title>
<path fill="none" stroke="midnightblue" d="M431.12,-961.36C559.58,-961.24 927.5,-952.09 927.5,-851 927.5,-851 927.5,-851 927.5,-793 927.5,-732.74 1003.35,-704.01 1054.31,-691.5"/>
<polygon fill="midnightblue" stroke="midnightblue" points="430.88,-957.86 420.87,-961.35 430.87,-964.86 430.88,-957.86"/>
</g>
<!-- Node3 -->
<g id="node3" class="node">
<title>Node3</title>
<g id="a_node3"><a xlink:href="schedule_8h.html" target="_top" xlink:title=" ">
<polygon fill="white" stroke="black" points="0,-616.5 0,-635.5 69,-635.5 69,-616.5 0,-616.5"/>
<text text-anchor="middle" x="34.5" y="-623.5" font-family="Helvetica,sans-Serif" font-size="10.00">schedule.h</text>
</a>
</g>
</g>
<!-- Node2&#45;&gt;Node3 -->
<g id="edge2" class="edge">
<title>Node2&#45;&gt;Node3</title>
<path fill="none" stroke="midnightblue" d="M34.5,-661.8C34.5,-652.91 34.5,-642.78 34.5,-635.75"/>
<polygon fill="midnightblue" stroke="midnightblue" points="31,-662.08 34.5,-672.08 38,-662.08 31,-662.08"/>
</g>
<!-- Node5 -->
<g id="node5" class="node">
<title>Node5</title>
<g id="a_node5"><a xlink:href="schedule__types_8h.html" target="_top" xlink:title=" ">
<polygon fill="white" stroke="black" points="337,-840.5 337,-859.5 438,-859.5 438,-840.5 337,-840.5"/>
<text text-anchor="middle" x="387.5" y="-847.5" font-family="Helvetica,sans-Serif" font-size="10.00">schedule_types.h</text>
</a>
</g>
</g>
<!-- Node4&#45;&gt;Node5 -->
<g id="edge4" class="edge">
<title>Node4&#45;&gt;Node5</title>
<path fill="none" stroke="midnightblue" d="M387.5,-885.8C387.5,-876.91 387.5,-866.78 387.5,-859.75"/>
<polygon fill="midnightblue" stroke="midnightblue" points="384,-886.08 387.5,-896.08 391,-886.08 384,-886.08"/>
</g>
<!-- Node5&#45;&gt;Node2 -->
<g id="edge75" class="edge">
<title>Node5&#45;&gt;Node2</title>
<path fill="none" stroke="midnightblue" d="M359.59,-835.87C290.08,-803.19 110.68,-718.83 52.8,-691.61"/>
<polygon fill="midnightblue" stroke="midnightblue" points="358.48,-839.22 369.02,-840.31 361.46,-832.89 358.48,-839.22"/>
</g>
<!-- Node6 -->
<g id="node6" class="node">
<title>Node6</title>
<g id="a_node6"><a xlink:href="spec_2queue__types_8h.html" target="_top" xlink:title=" ">
<polygon fill="white" stroke="black" points="343.5,-784.5 343.5,-803.5 431.5,-803.5 431.5,-784.5 343.5,-784.5"/>
<text text-anchor="middle" x="387.5" y="-791.5" font-family="Helvetica,sans-Serif" font-size="10.00">queue_types.h</text>
</a>
</g>
</g>
<!-- Node5&#45;&gt;Node6 -->
<g id="edge5" class="edge">
<title>Node5&#45;&gt;Node6</title>
<path fill="none" stroke="midnightblue" d="M387.5,-829.8C387.5,-820.91 387.5,-810.78 387.5,-803.75"/>
<polygon fill="midnightblue" stroke="midnightblue" points="384,-830.08 387.5,-840.08 391,-830.08 384,-830.08"/>
</g>
<!-- Node5&#45;&gt;Node62 -->
<g id="edge76" class="edge">
<title>Node5&#45;&gt;Node62</title>
<path fill="none" stroke="midnightblue" d="M434.13,-838.13C566.69,-807.22 943.78,-719.31 1062.94,-691.52"/>
<polygon fill="midnightblue" stroke="midnightblue" points="433.23,-834.75 424.28,-840.42 434.81,-841.56 433.23,-834.75"/>
</g>
<!-- Node7 -->
<g id="node7" class="node">
<title>Node7</title>
<g id="a_node7"><a xlink:href="queue__types_8h.html" target="_top" xlink:title=" ">
<polygon fill="white" stroke="black" points="343.5,-728.5 343.5,-747.5 431.5,-747.5 431.5,-728.5 343.5,-728.5"/>
<text text-anchor="middle" x="387.5" y="-735.5" font-family="Helvetica,sans-Serif" font-size="10.00">queue_types.h</text>
</a>
</g>
</g>
<!-- Node6&#45;&gt;Node7 -->
<g id="edge6" class="edge">
<title>Node6&#45;&gt;Node7</title>
<path fill="none" stroke="midnightblue" d="M387.5,-773.8C387.5,-764.91 387.5,-754.78 387.5,-747.75"/>
<polygon fill="midnightblue" stroke="midnightblue" points="384,-774.08 387.5,-784.08 391,-774.08 384,-774.08"/>
</g>
<!-- Node7&#45;&gt;Node2 -->
<g id="edge67" class="edge">
<title>Node7&#45;&gt;Node2</title>
<path fill="none" stroke="midnightblue" d="M333.23,-729.55C272.35,-721.05 170.7,-706.46 83.5,-692 78.81,-691.22 73.87,-690.36 69.01,-689.49"/>
<polygon fill="midnightblue" stroke="midnightblue" points="332.99,-733.05 343.37,-730.96 333.95,-726.11 332.99,-733.05"/>
</g>
<!-- Node8 -->
<g id="node8" class="node">
<title>Node8</title>
<g id="a_node8"><a xlink:href="spec_2comp_8h.html" target="_top" xlink:title=" ">
<polygon fill="white" stroke="black" points="1212,-560.5 1212,-579.5 1265,-579.5 1265,-560.5 1212,-560.5"/>
<text text-anchor="middle" x="1238.5" y="-567.5" font-family="Helvetica,sans-Serif" font-size="10.00">comp.h</text>
</a>
</g>
</g>
<!-- Node7&#45;&gt;Node8 -->
<g id="edge7" class="edge">
<title>Node7&#45;&gt;Node8</title>
<path fill="none" stroke="midnightblue" d="M441.89,-737.56C563.85,-738.03 855.33,-734.51 942.5,-692 983.78,-671.87 972.41,-638.39 1012.5,-616 1085.63,-575.16 1115.47,-596.98 1197.5,-580 1202.07,-579.05 1206.91,-578.02 1211.61,-577"/>
<polygon fill="midnightblue" stroke="midnightblue" points="441.68,-734.06 431.66,-737.51 441.65,-741.06 441.68,-734.06"/>
</g>
<!-- Node10 -->
<g id="node10" class="node">
<title>Node10</title>
<g id="a_node10"><a xlink:href="spec_2dma__types_8h.html" target="_top" xlink:title=" ">
<polygon fill="white" stroke="black" points="277.5,-560.5 277.5,-579.5 357.5,-579.5 357.5,-560.5 277.5,-560.5"/>
<text text-anchor="middle" x="317.5" y="-567.5" font-family="Helvetica,sans-Serif" font-size="10.00">dma_types.h</text>
</a>
</g>
</g>
<!-- Node7&#45;&gt;Node10 -->
<g id="edge9" class="edge">
<title>Node7&#45;&gt;Node10</title>
<path fill="none" stroke="midnightblue" d="M388.37,-718.23C388.71,-693.31 386.42,-648.67 368.5,-616 359.98,-600.47 343.94,-587.69 332.11,-579.77"/>
<polygon fill="midnightblue" stroke="midnightblue" points="384.87,-718.35 388.06,-728.45 391.86,-718.56 384.87,-718.35"/>
</g>
<!-- Node26 -->
<g id="node21" class="node">
<title>Node26</title>
<g id="a_node21"><a xlink:href="spec_2packet__io_8h.html" target="_top" xlink:title=" ">
<polygon fill="white" stroke="black" points="471.5,-112.5 471.5,-131.5 543.5,-131.5 543.5,-112.5 471.5,-112.5"/>
<text text-anchor="middle" x="507.5" y="-119.5" font-family="Helvetica,sans-Serif" font-size="10.00">packet_io.h</text>
</a>
</g>
</g>
<!-- Node7&#45;&gt;Node26 -->
<g id="edge41" class="edge">
<title>Node7&#45;&gt;Node26</title>
<path fill="none" stroke="midnightblue" d="M442.14,-734.08C515.87,-729.32 650.94,-717.7 763.5,-692 865.17,-668.79 885.37,-645.17 985.5,-616 1080.35,-588.37 1183.5,-613.79 1183.5,-515 1183.5,-515 1183.5,-515 1183.5,-401 1183.5,-317.65 1179.07,-284.28 1121.5,-224 1041.29,-140.01 662.73,-125.86 543.53,-123.48"/>
<polygon fill="midnightblue" stroke="midnightblue" points="441.48,-730.61 431.72,-734.73 441.92,-737.6 441.48,-730.61"/>
</g>
<!-- Node35 -->
<g id="node26" class="node">
<title>Node35</title>
<g id="a_node26"><a xlink:href="spec_2packet__io__types_8h.html" target="_top" xlink:title=" ">
<polygon fill="white" stroke="black" points="250.5,-336.5 250.5,-355.5 354.5,-355.5 354.5,-336.5 250.5,-336.5"/>
<text text-anchor="middle" x="302.5" y="-343.5" font-family="Helvetica,sans-Serif" font-size="10.00">packet_io_types.h</text>
</a>
</g>
</g>
<!-- Node7&#45;&gt;Node35 -->
<g id="edge46" class="edge">
<title>Node7&#45;&gt;Node35</title>
<path fill="none" stroke="midnightblue" d="M333.21,-736.34C259.14,-732.25 135.5,-712.6 135.5,-627 135.5,-627 135.5,-627 135.5,-457 135.5,-425.72 139.48,-413.19 162.5,-392 186.45,-369.95 221.27,-358.71 250.19,-352.97"/>
<polygon fill="midnightblue" stroke="midnightblue" points="333.16,-739.85 343.32,-736.82 333.49,-732.85 333.16,-739.85"/>
</g>
<!-- Node41 -->
<g id="node30" class="node">
<title>Node41</title>
<g id="a_node30"><a xlink:href="spec_2timer_8h.html" target="_top" xlink:title=" ">
<polygon fill="white" stroke="black" points="108,-336.5 108,-355.5 159,-355.5 159,-336.5 108,-336.5"/>
<text text-anchor="middle" x="133.5" y="-343.5" font-family="Helvetica,sans-Serif" font-size="10.00">timer.h</text>
</a>
</g>
</g>
<!-- Node7&#45;&gt;Node41 -->
<g id="edge68" class="edge">
<title>Node7&#45;&gt;Node41</title>
<path fill="none" stroke="midnightblue" d="M333.35,-737.27C282.48,-735.21 205.97,-725.96 149.5,-692 117.8,-672.93 97.5,-664 97.5,-627 97.5,-627 97.5,-627 97.5,-457 97.5,-417.41 118.82,-373.61 128.64,-355.53"/>
<polygon fill="midnightblue" stroke="midnightblue" points="333.37,-740.77 343.48,-737.6 333.6,-733.78 333.37,-740.77"/>
</g>
<!-- Node18 -->
<g id="node32" class="node">
<title>Node18</title>
<g id="a_node32"><a xlink:href="dma__inlines_8h_source.html" target="_top" xlink:title=" ">
<polygon fill="white" stroke="black" points="373,-336.5 373,-355.5 458,-355.5 458,-336.5 373,-336.5"/>
<text text-anchor="middle" x="415.5" y="-343.5" font-family="Helvetica,sans-Serif" font-size="10.00">dma_inlines.h</text>
</a>
</g>
</g>
<!-- Node7&#45;&gt;Node18 -->
<g id="edge69" class="edge">
<title>Node7&#45;&gt;Node18</title>
<path fill="none" stroke="midnightblue" d="M333.16,-732.4C269.76,-723.72 173.5,-698.72 173.5,-627 173.5,-627 173.5,-627 173.5,-569 173.5,-529.08 206.53,-531.47 235.5,-504 253.34,-487.08 258.92,-484.1 277.5,-468 325.89,-426.05 383.37,-375.38 405.83,-355.55"/>
<polygon fill="midnightblue" stroke="midnightblue" points="333.06,-735.92 343.42,-733.71 333.94,-728.97 333.06,-735.92"/>
</g>
<!-- Node47 -->
<g id="node35" class="node">
<title>Node47</title>
<g id="a_node35"><a xlink:href="spec_2packet__io__stats_8h.html" target="_top" xlink:title=" ">
<polygon fill="white" stroke="black" points="168,-448.5 168,-467.5 269,-467.5 269,-448.5 168,-448.5"/>
<text text-anchor="middle" x="218.5" y="-455.5" font-family="Helvetica,sans-Serif" font-size="10.00">packet_io_stats.h</text>
</a>
</g>
</g>
<!-- Node7&#45;&gt;Node47 -->
<g id="edge42" class="edge">
<title>Node7&#45;&gt;Node47</title>
<path fill="none" stroke="midnightblue" d="M333.34,-726.91C281.62,-713.77 211.5,-685.22 211.5,-627 211.5,-627 211.5,-627 211.5,-569 211.5,-531.11 215.69,-486.03 217.58,-467.55"/>
<polygon fill="midnightblue" stroke="midnightblue" points="332.55,-730.32 343.09,-729.26 334.19,-723.51 332.55,-730.32"/>
</g>
<!-- Node49 -->
<g id="node37" class="node">
<title>Node49</title>
<g id="a_node37"><a xlink:href="spec_2packet__types_8h.html" target="_top" xlink:title=" ">
<polygon fill="white" stroke="black" points="664.5,-672.5 664.5,-691.5 754.5,-691.5 754.5,-672.5 664.5,-672.5"/>
<text text-anchor="middle" x="709.5" y="-679.5" font-family="Helvetica,sans-Serif" font-size="10.00">packet_types.h</text>
</a>
</g>
</g>
<!-- Node7&#45;&gt;Node49 -->
<g id="edge47" class="edge">
<title>Node7&#45;&gt;Node49</title>
<path fill="none" stroke="midnightblue" d="M441.66,-727.92C504.21,-717.43 605.95,-700.37 664.38,-690.57"/>
<polygon fill="midnightblue" stroke="midnightblue" points="440.88,-724.5 431.6,-729.6 442.04,-731.4 440.88,-724.5"/>
</g>
<!-- Node59 -->
<g id="node46" class="node">
<title>Node59</title>
<g id="a_node46"><a xlink:href="spec_2queue_8h.html" target="_top" xlink:title=" ">
<polygon fill="white" stroke="black" points="415.5,-672.5 415.5,-691.5 471.5,-691.5 471.5,-672.5 415.5,-672.5"/>
<text text-anchor="middle" x="443.5" y="-679.5" font-family="Helvetica,sans-Serif" font-size="10.00">queue.h</text>
</a>
</g>
</g>
<!-- Node7&#45;&gt;Node59 -->
<g id="edge65" class="edge">
<title>Node7&#45;&gt;Node59</title>
<path fill="none" stroke="midnightblue" d="M403.83,-721.25C413.76,-711.67 426.09,-699.79 434.34,-691.83"/>
<polygon fill="midnightblue" stroke="midnightblue" points="401.27,-718.86 396.5,-728.32 406.13,-723.9 401.27,-718.86"/>
</g>
<!-- Node61 -->
<g id="node48" class="node">
<title>Node61</title>
<g id="a_node48"><a xlink:href="queue__inline__types_8h_source.html" target="_top" xlink:title=" ">
<polygon fill="white" stroke="black" points="239.5,-616.5 239.5,-635.5 359.5,-635.5 359.5,-616.5 239.5,-616.5"/>
<text text-anchor="middle" x="299.5" y="-623.5" font-family="Helvetica,sans-Serif" font-size="10.00">queue_inline_types.h</text>
</a>
</g>
</g>
<!-- Node7&#45;&gt;Node61 -->
<g id="edge70" class="edge">
<title>Node7&#45;&gt;Node61</title>
<path fill="none" stroke="midnightblue" d="M374.12,-720.27C355.1,-696.49 320.93,-653.79 306.37,-635.59"/>
<polygon fill="midnightblue" stroke="midnightblue" points="371.61,-722.75 380.59,-728.37 377.08,-718.37 371.61,-722.75"/>
</g>
<!-- Node7&#45;&gt;Node62 -->
<g id="edge72" class="edge">
<title>Node7&#45;&gt;Node62</title>
<path fill="none" stroke="midnightblue" d="M441.64,-733.86C550.85,-727.37 805.27,-711.44 1018.5,-692 1023.01,-691.59 1027.66,-691.14 1032.34,-690.67"/>
<polygon fill="midnightblue" stroke="midnightblue" points="441.31,-730.37 431.54,-734.46 441.73,-737.36 441.31,-730.37"/>
</g>
<!-- Node63 -->
<g id="node50" class="node">
<title>Node63</title>
<g id="a_node50"><a xlink:href="schedule__inlines_8h_source.html" target="_top" xlink:title=" ">
<polygon fill="white" stroke="black" points="1021,-616.5 1021,-635.5 1128,-635.5 1128,-616.5 1021,-616.5"/>
<text text-anchor="middle" x="1074.5" y="-623.5" font-family="Helvetica,sans-Serif" font-size="10.00">schedule_inlines.h</text>
</a>
</g>
</g>
<!-- Node7&#45;&gt;Node63 -->
<g id="edge74" class="edge">
<title>Node7&#45;&gt;Node63</title>
<path fill="none" stroke="midnightblue" d="M441.81,-736.49C568.85,-734.73 882.05,-726.87 980.5,-692 1015.66,-679.55 1049.87,-650.33 1065.57,-635.69"/>
<polygon fill="midnightblue" stroke="midnightblue" points="441.5,-733 431.55,-736.63 441.59,-740 441.5,-733"/>
</g>
<!-- Node9 -->
<g id="node9" class="node">
<title>Node9</title>
<g id="a_node9"><a xlink:href="comp_8h.html" target="_top" xlink:title=" ">
<polygon fill="white" stroke="black" points="1212,-504.5 1212,-523.5 1265,-523.5 1265,-504.5 1212,-504.5"/>
<text text-anchor="middle" x="1238.5" y="-511.5" font-family="Helvetica,sans-Serif" font-size="10.00">comp.h</text>
</a>
</g>
</g>
<!-- Node8&#45;&gt;Node9 -->
<g id="edge8" class="edge">
<title>Node8&#45;&gt;Node9</title>
<path fill="none" stroke="midnightblue" d="M1238.5,-549.8C1238.5,-540.91 1238.5,-530.78 1238.5,-523.75"/>
<polygon fill="midnightblue" stroke="midnightblue" points="1235,-550.08 1238.5,-560.08 1242,-550.08 1235,-550.08"/>
</g>
<!-- Node11 -->
<g id="node11" class="node">
<title>Node11</title>
<g id="a_node11"><a xlink:href="dma__types_8h.html" target="_top" xlink:title=" ">
<polygon fill="white" stroke="black" points="420.5,-504.5 420.5,-523.5 500.5,-523.5 500.5,-504.5 420.5,-504.5"/>
<text text-anchor="middle" x="460.5" y="-511.5" font-family="Helvetica,sans-Serif" font-size="10.00">dma_types.h</text>
</a>
</g>
</g>
<!-- Node10&#45;&gt;Node11 -->
<g id="edge10" class="edge">
<title>Node10&#45;&gt;Node11</title>
<path fill="none" stroke="midnightblue" d="M349.53,-556.91C376.41,-546.75 414.14,-532.51 437.95,-523.52"/>
<polygon fill="midnightblue" stroke="midnightblue" points="348.28,-553.64 340.16,-560.44 350.75,-560.19 348.28,-553.64"/>
</g>
<!-- Node12 -->
<g id="node12" class="node">
<title>Node12</title>
<g id="a_node12"><a xlink:href="spec_2dma_8h.html" target="_top" xlink:title=" ">
<polygon fill="white" stroke="black" points="476,-336.5 476,-355.5 523,-355.5 523,-336.5 476,-336.5"/>
<text text-anchor="middle" x="499.5" y="-343.5" font-family="Helvetica,sans-Serif" font-size="10.00">dma.h</text>
</a>
</g>
</g>
<!-- Node11&#45;&gt;Node12 -->
<g id="edge11" class="edge">
<title>Node11&#45;&gt;Node12</title>
<path fill="none" stroke="midnightblue" d="M464.72,-494.42C470.14,-470.66 479.88,-428.23 488.5,-392 491.52,-379.32 495.12,-364.67 497.36,-355.62"/>
<polygon fill="midnightblue" stroke="midnightblue" points="461.24,-493.96 462.43,-504.48 468.07,-495.51 461.24,-493.96"/>
</g>
<!-- Node14 -->
<g id="node14" class="node">
<title>Node14</title>
<g id="a_node14"><a xlink:href="spec_2pool__types_8h.html" target="_top" xlink:title=" ">
<polygon fill="white" stroke="black" points="495,-448.5 495,-467.5 574,-467.5 574,-448.5 495,-448.5"/>
<text text-anchor="middle" x="534.5" y="-455.5" font-family="Helvetica,sans-Serif" font-size="10.00">pool_types.h</text>
</a>
</g>
</g>
<!-- Node11&#45;&gt;Node14 -->
<g id="edge13" class="edge">
<title>Node11&#45;&gt;Node14</title>
<path fill="none" stroke="midnightblue" d="M480.53,-498.38C493.91,-488.62 511.06,-476.11 522.39,-467.83"/>
<polygon fill="midnightblue" stroke="midnightblue" points="478.4,-495.6 472.39,-504.32 482.53,-501.26 478.4,-495.6"/>
</g>
<!-- Node11&#45;&gt;Node18 -->
<g id="edge40" class="edge">
<title>Node11&#45;&gt;Node18</title>
<path fill="none" stroke="midnightblue" d="M455.46,-494.39C445.75,-458.59 424.81,-381.34 417.82,-355.57"/>
<polygon fill="midnightblue" stroke="midnightblue" points="452.09,-495.34 458.08,-504.08 458.84,-493.51 452.09,-495.34"/>
</g>
<!-- Node13 -->
<g id="node13" class="node">
<title>Node13</title>
<g id="a_node13"><a xlink:href="dma_8h.html" target="_top" xlink:title=" ">
<polygon fill="white" stroke="black" points="476,-280.5 476,-299.5 523,-299.5 523,-280.5 476,-280.5"/>
<text text-anchor="middle" x="499.5" y="-287.5" font-family="Helvetica,sans-Serif" font-size="10.00">dma.h</text>
</a>
</g>
</g>
<!-- Node12&#45;&gt;Node13 -->
<g id="edge12" class="edge">
<title>Node12&#45;&gt;Node13</title>
<path fill="none" stroke="midnightblue" d="M499.5,-325.8C499.5,-316.91 499.5,-306.78 499.5,-299.75"/>
<polygon fill="midnightblue" stroke="midnightblue" points="496,-326.08 499.5,-336.08 503,-326.08 496,-326.08"/>
</g>
<!-- Node15 -->
<g id="node15" class="node">
<title>Node15</title>
<g id="a_node15"><a xlink:href="pool__types_8h.html" target="_top" xlink:title=" ">
<polygon fill="white" stroke="red" points="497,-392.5 497,-411.5 576,-411.5 576,-392.5 497,-392.5"/>
<text text-anchor="middle" x="536.5" y="-399.5" font-family="Helvetica,sans-Serif" font-size="10.00">pool_types.h</text>
</a>
</g>
</g>
<!-- Node14&#45;&gt;Node15 -->
<g id="edge14" class="edge">
<title>Node14&#45;&gt;Node15</title>
<path fill="none" stroke="midnightblue" d="M535.21,-437.8C535.54,-428.91 535.92,-418.78 536.18,-411.75"/>
<polygon fill="midnightblue" stroke="midnightblue" points="531.7,-437.96 534.83,-448.08 538.7,-438.22 531.7,-437.96"/>
</g>
<!-- Node15&#45;&gt;Node12 -->
<g id="edge23" class="edge">
<title>Node15&#45;&gt;Node12</title>
<path fill="none" stroke="midnightblue" d="M524.55,-383.57C518.19,-374.27 510.63,-363.25 505.5,-355.75"/>
<polygon fill="midnightblue" stroke="midnightblue" points="521.85,-385.81 530.39,-392.08 527.63,-381.86 521.85,-385.81"/>
</g>
<!-- Node19 -->
<g id="node16" class="node">
<title>Node19</title>
<g id="a_node16"><a xlink:href="spec_2classification_8h.html" target="_top" xlink:title=" ">
<polygon fill="white" stroke="black" points="390,-224.5 390,-243.5 479,-243.5 479,-224.5 390,-224.5"/>
<text text-anchor="middle" x="434.5" y="-231.5" font-family="Helvetica,sans-Serif" font-size="10.00">classification.h</text>
</a>
</g>
</g>
<!-- Node15&#45;&gt;Node19 -->
<g id="edge15" class="edge">
<title>Node15&#45;&gt;Node19</title>
<path fill="none" stroke="midnightblue" d="M541.41,-382.7C547.08,-357.33 553.18,-311.1 532.5,-280 519.91,-261.06 497.19,-249.96 476.8,-243.53"/>
<polygon fill="midnightblue" stroke="midnightblue" points="537.99,-381.92 539.01,-392.47 544.79,-383.59 537.99,-381.92"/>
</g>
<!-- Node28 -->
<g id="node23" class="node">
<title>Node28</title>
<g id="a_node23"><a xlink:href="spec_2crypto__types_8h.html" target="_top" xlink:title=" ">
<polygon fill="white" stroke="red" points="767,-336.5 767,-355.5 856,-355.5 856,-336.5 767,-336.5"/>
<text text-anchor="middle" x="811.5" y="-343.5" font-family="Helvetica,sans-Serif" font-size="10.00">crypto_types.h</text>
</a>
</g>
</g>
<!-- Node15&#45;&gt;Node28 -->
<g id="edge22" class="edge">
<title>Node15&#45;&gt;Node28</title>
<path fill="none" stroke="midnightblue" d="M586.18,-391.24C638.11,-381.05 718.77,-365.21 768.19,-355.5"/>
<polygon fill="midnightblue" stroke="midnightblue" points="585.33,-387.84 576.19,-393.21 586.68,-394.71 585.33,-387.84"/>
</g>
<!-- Node33 -->
<g id="node24" class="node">
<title>Node33</title>
<g id="a_node24"><a xlink:href="spec_2packet_8h.html" target="_top" xlink:title=" ">
<polygon fill="white" stroke="black" points="560.5,-224.5 560.5,-243.5 618.5,-243.5 618.5,-224.5 560.5,-224.5"/>
<text text-anchor="middle" x="589.5" y="-231.5" font-family="Helvetica,sans-Serif" font-size="10.00">packet.h</text>
</a>
</g>
</g>
<!-- Node15&#45;&gt;Node33 -->
<g id="edge24" class="edge">
<title>Node15&#45;&gt;Node33</title>
<path fill="none" stroke="midnightblue" d="M549.59,-384.06C555.26,-375.96 561.5,-365.89 565.5,-356 581.71,-315.89 587.28,-263.74 588.91,-243.53"/>
<polygon fill="midnightblue" stroke="midnightblue" points="546.67,-382.12 543.58,-392.25 552.31,-386.26 546.67,-382.12"/>
</g>
<!-- Node15&#45;&gt;Node35 -->
<g id="edge26" class="edge">
<title>Node15&#45;&gt;Node35</title>
<path fill="none" stroke="midnightblue" d="M489.5,-390.15C445.28,-379.95 379.98,-364.88 339.4,-355.52"/>
<polygon fill="midnightblue" stroke="midnightblue" points="488.89,-393.61 499.42,-392.44 490.47,-386.78 488.89,-393.61"/>
</g>
<!-- Node15&#45;&gt;Node41 -->
<g id="edge35" class="edge">
<title>Node15&#45;&gt;Node41</title>
<path fill="none" stroke="midnightblue" d="M486.66,-394.32C400.13,-382.73 225.1,-359.27 159.29,-350.46"/>
<polygon fill="midnightblue" stroke="midnightblue" points="486.38,-397.82 496.76,-395.67 487.31,-390.88 486.38,-397.82"/>
</g>
<!-- Node15&#45;&gt;Node18 -->
<g id="edge37" class="edge">
<title>Node15&#45;&gt;Node18</title>
<path fill="none" stroke="midnightblue" d="M508.19,-388.37C485.53,-378.26 454.37,-364.35 434.58,-355.52"/>
<polygon fill="midnightblue" stroke="midnightblue" points="506.77,-391.56 517.33,-392.44 509.62,-385.17 506.77,-391.56"/>
</g>
<!-- Node44 -->
<g id="node33" class="node">
<title>Node44</title>
<g id="a_node33"><a xlink:href="packet__inlines_8h.html" target="_top" xlink:title=" ">
<polygon fill="white" stroke="black" points="874,-336.5 874,-355.5 969,-355.5 969,-336.5 874,-336.5"/>
<text text-anchor="middle" x="921.5" y="-343.5" font-family="Helvetica,sans-Serif" font-size="10.00">packet_inlines.h</text>
</a>
</g>
</g>
<!-- Node15&#45;&gt;Node44 -->
<g id="edge38" class="edge">
<title>Node15&#45;&gt;Node44</title>
<path fill="none" stroke="midnightblue" d="M586.33,-394.55C650.82,-386.13 766.65,-370.7 865.5,-356 868.23,-355.59 871.03,-355.17 873.85,-354.74"/>
<polygon fill="midnightblue" stroke="midnightblue" points="585.51,-391.13 576.04,-395.9 586.41,-398.07 585.51,-391.13"/>
</g>
<!-- Node45 -->
<g id="node34" class="node">
<title>Node45</title>
<g id="a_node34"><a xlink:href="packet__vector__inlines_8h.html" target="_top" xlink:title=" ">
<polygon fill="white" stroke="black" points="618,-336.5 618,-355.5 749,-355.5 749,-336.5 618,-336.5"/>
<text text-anchor="middle" x="683.5" y="-343.5" font-family="Helvetica,sans-Serif" font-size="10.00">packet_vector_inlines.h</text>
</a>
</g>
</g>
<!-- Node15&#45;&gt;Node45 -->
<g id="edge39" class="edge">
<title>Node15&#45;&gt;Node45</title>
<path fill="none" stroke="midnightblue" d="M569.42,-388.91C597.06,-378.75 635.84,-364.51 660.32,-355.52"/>
<polygon fill="midnightblue" stroke="midnightblue" points="567.97,-385.71 559.79,-392.44 570.39,-392.28 567.97,-385.71"/>
</g>
<!-- Node20 -->
<g id="node17" class="node">
<title>Node20</title>
<g id="a_node17"><a xlink:href="classification_8h.html" target="_top" xlink:title=" ">
<polygon fill="white" stroke="black" points="390,-168.5 390,-187.5 479,-187.5 479,-168.5 390,-168.5"/>
<text text-anchor="middle" x="434.5" y="-175.5" font-family="Helvetica,sans-Serif" font-size="10.00">classification.h</text>
</a>
</g>
</g>
<!-- Node19&#45;&gt;Node20 -->
<g id="edge16" class="edge">
<title>Node19&#45;&gt;Node20</title>
<path fill="none" stroke="midnightblue" d="M434.5,-213.8C434.5,-204.91 434.5,-194.78 434.5,-187.75"/>
<polygon fill="midnightblue" stroke="midnightblue" points="431,-214.08 434.5,-224.08 438,-214.08 431,-214.08"/>
</g>
<!-- Node21 -->
<g id="node18" class="node">
<title>Node21</title>
<g id="a_node18"><a xlink:href="spec_2ipsec__types_8h.html" target="_top" xlink:title=" ">
<polygon fill="white" stroke="black" points="304,-112.5 304,-131.5 387,-131.5 387,-112.5 304,-112.5"/>
<text text-anchor="middle" x="345.5" y="-119.5" font-family="Helvetica,sans-Serif" font-size="10.00">ipsec_types.h</text>
</a>
</g>
</g>
<!-- Node20&#45;&gt;Node21 -->
<g id="edge17" class="edge">
<title>Node20&#45;&gt;Node21</title>
<path fill="none" stroke="midnightblue" d="M411.26,-162.9C394.94,-153 373.63,-140.07 359.76,-131.65"/>
<polygon fill="midnightblue" stroke="midnightblue" points="409.84,-166.13 420.2,-168.32 413.47,-160.14 409.84,-166.13"/>
</g>
<!-- Node20&#45;&gt;Node26 -->
<g id="edge20" class="edge">
<title>Node20&#45;&gt;Node26</title>
<path fill="none" stroke="midnightblue" d="M454.64,-162.1C467.78,-152.38 484.48,-140.03 495.56,-131.83"/>
<polygon fill="midnightblue" stroke="midnightblue" points="452.19,-159.56 446.23,-168.32 456.35,-165.19 452.19,-159.56"/>
</g>
<!-- Node22 -->
<g id="node19" class="node">
<title>Node22</title>
<g id="a_node19"><a xlink:href="ipsec__types_8h.html" target="_top" xlink:title=" ">
<polygon fill="white" stroke="red" points="326,-56.5 326,-75.5 409,-75.5 409,-56.5 326,-56.5"/>
<text text-anchor="middle" x="367.5" y="-63.5" font-family="Helvetica,sans-Serif" font-size="10.00">ipsec_types.h</text>
</a>
</g>
</g>
<!-- Node21&#45;&gt;Node22 -->
<g id="edge18" class="edge">
<title>Node21&#45;&gt;Node22</title>
<path fill="none" stroke="midnightblue" d="M352.96,-102.69C356.67,-93.59 360.98,-83.01 363.93,-75.75"/>
<polygon fill="midnightblue" stroke="midnightblue" points="349.66,-101.5 349.13,-112.08 356.15,-104.14 349.66,-101.5"/>
</g>
<!-- Node23 -->
<g id="node20" class="node">
<title>Node23</title>
<g id="a_node20"><a xlink:href="spec_2ipsec_8h.html" target="_top" xlink:title=" ">
<polygon fill="white" stroke="red" points="728,-0.5 728,-19.5 779,-19.5 779,-0.5 728,-0.5"/>
<text text-anchor="middle" x="753.5" y="-7.5" font-family="Helvetica,sans-Serif" font-size="10.00">ipsec.h</text>
</a>
</g>
</g>
<!-- Node22&#45;&gt;Node23 -->
<g id="edge19" class="edge">
<title>Node22&#45;&gt;Node23</title>
<path fill="none" stroke="midnightblue" d="M419.24,-57.76C503.01,-46.04 665.28,-23.34 727.94,-14.58"/>
<polygon fill="midnightblue" stroke="midnightblue" points="418.59,-54.32 409.18,-59.17 419.56,-61.25 418.59,-54.32"/>
</g>
<!-- Node27 -->
<g id="node22" class="node">
<title>Node27</title>
<g id="a_node22"><a xlink:href="packet__io_8h.html" target="_top" xlink:title=" ">
<polygon fill="white" stroke="black" points="471.5,-56.5 471.5,-75.5 543.5,-75.5 543.5,-56.5 471.5,-56.5"/>
<text text-anchor="middle" x="507.5" y="-63.5" font-family="Helvetica,sans-Serif" font-size="10.00">packet_io.h</text>
</a>
</g>
</g>
<!-- Node26&#45;&gt;Node27 -->
<g id="edge21" class="edge">
<title>Node26&#45;&gt;Node27</title>
<path fill="none" stroke="midnightblue" d="M507.5,-101.8C507.5,-92.91 507.5,-82.78 507.5,-75.75"/>
<polygon fill="midnightblue" stroke="midnightblue" points="504,-102.08 507.5,-112.08 511,-102.08 504,-102.08"/>
</g>
<!-- Node34 -->
<g id="node25" class="node">
<title>Node34</title>
<g id="a_node25"><a xlink:href="packet_8h.html" target="_top" xlink:title=" ">
<polygon fill="white" stroke="red" points="560.5,-168.5 560.5,-187.5 618.5,-187.5 618.5,-168.5 560.5,-168.5"/>
<text text-anchor="middle" x="589.5" y="-175.5" font-family="Helvetica,sans-Serif" font-size="10.00">packet.h</text>
</a>
</g>
</g>
<!-- Node33&#45;&gt;Node34 -->
<g id="edge25" class="edge">
<title>Node33&#45;&gt;Node34</title>
<path fill="none" stroke="midnightblue" d="M589.5,-213.8C589.5,-204.91 589.5,-194.78 589.5,-187.75"/>
<polygon fill="midnightblue" stroke="midnightblue" points="586,-214.08 589.5,-224.08 593,-214.08 586,-214.08"/>
</g>
<!-- Node36 -->
<g id="node27" class="node">
<title>Node36</title>
<g id="a_node27"><a xlink:href="packet__io__types_8h.html" target="_top" xlink:title=" ">
<polygon fill="white" stroke="black" points="276.5,-280.5 276.5,-299.5 380.5,-299.5 380.5,-280.5 276.5,-280.5"/>
<text text-anchor="middle" x="328.5" y="-287.5" font-family="Helvetica,sans-Serif" font-size="10.00">packet_io_types.h</text>
</a>
</g>
</g>
<!-- Node35&#45;&gt;Node36 -->
<g id="edge27" class="edge">
<title>Node35&#45;&gt;Node36</title>
<path fill="none" stroke="midnightblue" d="M311.17,-326.98C315.59,-317.82 320.75,-307.09 324.29,-299.75"/>
<polygon fill="midnightblue" stroke="midnightblue" points="307.98,-325.55 306.79,-336.08 314.29,-328.59 307.98,-325.55"/>
</g>
<!-- Node36&#45;&gt;Node19 -->
<g id="edge28" class="edge">
<title>Node36&#45;&gt;Node19</title>
<path fill="none" stroke="midnightblue" d="M354.56,-275.73C374.18,-265.73 400.53,-252.31 417.51,-243.65"/>
<polygon fill="midnightblue" stroke="midnightblue" points="352.85,-272.67 345.53,-280.32 356.03,-278.9 352.85,-272.67"/>
</g>
<!-- Node36&#45;&gt;Node21 -->
<g id="edge29" class="edge">
<title>Node36&#45;&gt;Node21</title>
<path fill="none" stroke="midnightblue" d="M330.45,-269.93C334.14,-233.92 341.99,-157.23 344.62,-131.57"/>
<polygon fill="midnightblue" stroke="midnightblue" points="326.95,-269.77 329.41,-280.08 333.91,-270.48 326.95,-269.77"/>
</g>
<!-- Node36&#45;&gt;Node26 -->
<g id="edge31" class="edge">
<title>Node36&#45;&gt;Node26</title>
<path fill="none" stroke="midnightblue" d="M336.19,-270.85C350.42,-237.31 379.49,-168.94 380.5,-168 405.51,-144.57 443.49,-133.22 471.4,-127.8"/>
<polygon fill="midnightblue" stroke="midnightblue" points="332.83,-269.81 332.15,-280.38 339.28,-272.54 332.83,-269.81"/>
</g>
<!-- Node36&#45;&gt;Node33 -->
<g id="edge30" class="edge">
<title>Node36&#45;&gt;Node33</title>
<path fill="none" stroke="midnightblue" d="M379.91,-278.36C433.9,-267.19 516.87,-250.03 560.46,-241.01"/>
<polygon fill="midnightblue" stroke="midnightblue" points="378.94,-274.99 369.86,-280.44 380.36,-281.84 378.94,-274.99"/>
</g>
<!-- Node37 -->
<g id="node28" class="node">
<title>Node37</title>
<g id="a_node28"><a xlink:href="spec_2traffic__mngr_8h.html" target="_top" xlink:title=" ">
<polygon fill="white" stroke="black" points="211.5,-224.5 211.5,-243.5 295.5,-243.5 295.5,-224.5 211.5,-224.5"/>
<text text-anchor="middle" x="253.5" y="-231.5" font-family="Helvetica,sans-Serif" font-size="10.00">traffic_mngr.h</text>
</a>
</g>
</g>
<!-- Node36&#45;&gt;Node37 -->
<g id="edge32" class="edge">
<title>Node36&#45;&gt;Node37</title>
<path fill="none" stroke="midnightblue" d="M308.19,-274.38C294.64,-264.62 277.26,-252.11 265.77,-243.83"/>
<polygon fill="midnightblue" stroke="midnightblue" points="306.29,-277.32 316.45,-280.32 310.38,-271.64 306.29,-277.32"/>
</g>
<!-- Node38 -->
<g id="node29" class="node">
<title>Node38</title>
<g id="a_node29"><a xlink:href="traffic__mngr_8h.html" target="_top" xlink:title=" ">
<polygon fill="white" stroke="black" points="211.5,-168.5 211.5,-187.5 295.5,-187.5 295.5,-168.5 211.5,-168.5"/>
<text text-anchor="middle" x="253.5" y="-175.5" font-family="Helvetica,sans-Serif" font-size="10.00">traffic_mngr.h</text>
</a>
</g>
</g>
<!-- Node37&#45;&gt;Node38 -->
<g id="edge33" class="edge">
<title>Node37&#45;&gt;Node38</title>
<path fill="none" stroke="midnightblue" d="M253.5,-213.8C253.5,-204.91 253.5,-194.78 253.5,-187.75"/>
<polygon fill="midnightblue" stroke="midnightblue" points="250,-214.08 253.5,-224.08 257,-214.08 250,-214.08"/>
</g>
<!-- Node38&#45;&gt;Node21 -->
<g id="edge34" class="edge">
<title>Node38&#45;&gt;Node21</title>
<path fill="none" stroke="midnightblue" d="M277.05,-163.18C293.98,-153.24 316.28,-140.15 330.76,-131.65"/>
<polygon fill="midnightblue" stroke="midnightblue" points="275.13,-160.24 268.28,-168.32 278.68,-166.28 275.13,-160.24"/>
</g>
<!-- Node42 -->
<g id="node31" class="node">
<title>Node42</title>
<g id="a_node31"><a xlink:href="timer_8h.html" target="_top" xlink:title=" ">
<polygon fill="white" stroke="black" points="108,-280.5 108,-299.5 159,-299.5 159,-280.5 108,-280.5"/>
<text text-anchor="middle" x="133.5" y="-287.5" font-family="Helvetica,sans-Serif" font-size="10.00">timer.h</text>
</a>
</g>
</g>
<!-- Node41&#45;&gt;Node42 -->
<g id="edge36" class="edge">
<title>Node41&#45;&gt;Node42</title>
<path fill="none" stroke="midnightblue" d="M133.5,-325.8C133.5,-316.91 133.5,-306.78 133.5,-299.75"/>
<polygon fill="midnightblue" stroke="midnightblue" points="130,-326.08 133.5,-336.08 137,-326.08 130,-326.08"/>
</g>
<!-- Node48 -->
<g id="node36" class="node">
<title>Node48</title>
<g id="a_node36"><a xlink:href="packet__io__stats_8h.html" target="_top" xlink:title=" ">
<polygon fill="white" stroke="black" points="172,-392.5 172,-411.5 273,-411.5 273,-392.5 172,-392.5"/>
<text text-anchor="middle" x="222.5" y="-399.5" font-family="Helvetica,sans-Serif" font-size="10.00">packet_io_stats.h</text>
</a>
</g>
</g>
<!-- Node47&#45;&gt;Node48 -->
<g id="edge43" class="edge">
<title>Node47&#45;&gt;Node48</title>
<path fill="none" stroke="midnightblue" d="M219.9,-438.1C220.56,-429.14 221.33,-418.86 221.85,-411.75"/>
<polygon fill="midnightblue" stroke="midnightblue" points="216.41,-437.85 219.16,-448.08 223.39,-438.37 216.41,-437.85"/>
</g>
<!-- Node48&#45;&gt;Node26 -->
<g id="edge44" class="edge">
<title>Node48&#45;&gt;Node26</title>
<path fill="none" stroke="midnightblue" d="M223.11,-382.11C224.61,-367.54 229.02,-347.92 241.5,-336 290.45,-289.24 326.61,-325.04 389.5,-300 436.11,-281.45 458.86,-285.18 487.5,-244 512.3,-208.34 510.28,-152.68 508.43,-131.54"/>
<polygon fill="midnightblue" stroke="midnightblue" points="219.59,-382.26 222.44,-392.47 226.58,-382.71 219.59,-382.26"/>
</g>
<!-- Node48&#45;&gt;Node35 -->
<g id="edge45" class="edge">
<title>Node48&#45;&gt;Node35</title>
<path fill="none" stroke="midnightblue" d="M243.8,-386.62C258.42,-376.76 277.33,-363.99 289.68,-355.65"/>
<polygon fill="midnightblue" stroke="midnightblue" points="241.68,-383.83 235.35,-392.32 245.6,-389.63 241.68,-383.83"/>
</g>
<!-- Node50 -->
<g id="node38" class="node">
<title>Node50</title>
<g id="a_node38"><a xlink:href="packet__types_8h.html" target="_top" xlink:title=" ">
<polygon fill="white" stroke="black" points="810.5,-616.5 810.5,-635.5 900.5,-635.5 900.5,-616.5 810.5,-616.5"/>
<text text-anchor="middle" x="855.5" y="-623.5" font-family="Helvetica,sans-Serif" font-size="10.00">packet_types.h</text>
</a>
</g>
</g>
<!-- Node49&#45;&gt;Node50 -->
<g id="edge48" class="edge">
<title>Node49&#45;&gt;Node50</title>
<path fill="none" stroke="midnightblue" d="M742.2,-668.91C769.65,-658.75 808.17,-644.51 832.47,-635.52"/>
<polygon fill="midnightblue" stroke="midnightblue" points="740.8,-665.69 732.63,-672.44 743.23,-672.26 740.8,-665.69"/>
</g>
<!-- Node50&#45;&gt;Node8 -->
<g id="edge49" class="edge">
<title>Node50&#45;&gt;Node8</title>
<path fill="none" stroke="midnightblue" d="M910.63,-617.23C994.18,-605.45 1149.71,-583.52 1211.85,-574.76"/>
<polygon fill="midnightblue" stroke="midnightblue" points="909.97,-613.78 900.56,-618.65 910.95,-620.72 909.97,-613.78"/>
</g>
<!-- Node50&#45;&gt;Node10 -->
<g id="edge53" class="edge">
<title>Node50&#45;&gt;Node10</title>
<path fill="none" stroke="midnightblue" d="M800.1,-621.53C709.26,-615.48 523.05,-601.54 366.5,-580 363.59,-579.6 360.58,-579.15 357.56,-578.66"/>
<polygon fill="midnightblue" stroke="midnightblue" points="799.97,-625.03 810.18,-622.2 800.43,-618.04 799.97,-625.03"/>
</g>
<!-- Node50&#45;&gt;Node23 -->
<g id="edge55" class="edge">
<title>Node50&#45;&gt;Node23</title>
<path fill="none" stroke="midnightblue" d="M911.07,-616.4C983.36,-605.02 1101.45,-585.75 1109.5,-580 1136.37,-560.81 1145.5,-548.02 1145.5,-515 1145.5,-515 1145.5,-515 1145.5,-401 1145.5,-325.31 1183.5,-310.69 1183.5,-235 1183.5,-235 1183.5,-235 1183.5,-121 1183.5,-37.01 871.68,-16.3 779.11,-12"/>
<polygon fill="midnightblue" stroke="midnightblue" points="910.09,-613.01 900.76,-618.01 911.18,-619.92 910.09,-613.01"/>
</g>
<!-- Node50&#45;&gt;Node26 -->
<g id="edge58" class="edge">
<title>Node50&#45;&gt;Node26</title>
<path fill="none" stroke="midnightblue" d="M910.61,-615.84C977.4,-604.51 1081.9,-586.01 1088.5,-580 1110.75,-559.74 1107.5,-545.1 1107.5,-515 1107.5,-515 1107.5,-515 1107.5,-233 1107.5,-175.35 673.4,-136.19 543.68,-125.77"/>
<polygon fill="midnightblue" stroke="midnightblue" points="909.92,-612.4 900.64,-617.52 911.09,-619.31 909.92,-612.4"/>
</g>
<!-- Node50&#45;&gt;Node28 -->
<g id="edge52" class="edge">
<title>Node50&#45;&gt;Node28</title>
<path fill="none" stroke="midnightblue" d="M873.14,-609.27C881.41,-601.17 890.87,-590.76 897.5,-580 913.66,-553.78 921.5,-545.8 921.5,-515 921.5,-515 921.5,-515 921.5,-457 921.5,-426.2 917.83,-415.13 897.5,-392 882.03,-374.41 858.01,-362.65 839.28,-355.58"/>
<polygon fill="midnightblue" stroke="midnightblue" points="870.6,-606.86 865.72,-616.26 875.4,-611.96 870.6,-606.86"/>
</g>
<!-- Node50&#45;&gt;Node33 -->
<g id="edge56" class="edge">
<title>Node50&#45;&gt;Node33</title>
<path fill="none" stroke="midnightblue" d="M895.41,-613.11C937.41,-597.85 997.5,-566.93 997.5,-515 997.5,-515 997.5,-515 997.5,-345 997.5,-266.41 711.73,-242.32 618.52,-236.55"/>
<polygon fill="midnightblue" stroke="midnightblue" points="894.26,-609.81 885.96,-616.4 896.56,-616.42 894.26,-609.81"/>
</g>
<!-- Node50&#45;&gt;Node35 -->
<g id="edge59" class="edge">
<title>Node50&#45;&gt;Node35</title>
<path fill="none" stroke="midnightblue" d="M800.19,-621.38C742.97,-616.43 651.64,-605.08 576.5,-580 558.4,-573.96 556.22,-567.09 538.5,-560 484.02,-538.22 458.29,-559.39 411.5,-524 349.62,-477.2 314.8,-384.16 305.23,-355.56"/>
<polygon fill="midnightblue" stroke="midnightblue" points="800.21,-624.9 810.46,-622.24 800.79,-617.92 800.21,-624.9"/>
</g>
<!-- Node50&#45;&gt;Node44 -->
<g id="edge63" class="edge">
<title>Node50&#45;&gt;Node44</title>
<path fill="none" stroke="midnightblue" d="M882.62,-611.34C913.44,-593.68 959.5,-559.78 959.5,-515 959.5,-515 959.5,-515 959.5,-457 959.5,-417.4 937.23,-373.96 926.78,-355.77"/>
<polygon fill="midnightblue" stroke="midnightblue" points="880.69,-608.41 873.62,-616.3 884.06,-614.54 880.69,-608.41"/>
</g>
<!-- Node50&#45;&gt;Node45 -->
<g id="edge64" class="edge">
<title>Node50&#45;&gt;Node45</title>
<path fill="none" stroke="midnightblue" d="M863.07,-606.88C871.37,-585.37 883.5,-548.21 883.5,-515 883.5,-515 883.5,-515 883.5,-457 883.5,-394.49 807.56,-367.25 749.26,-355.55"/>
<polygon fill="midnightblue" stroke="midnightblue" points="859.75,-605.77 859.28,-616.35 866.25,-608.37 859.75,-605.77"/>
</g>
<!-- Node30 -->
<g id="node39" class="node">
<title>Node30</title>
<g id="a_node39"><a xlink:href="spec_2crypto_8h.html" target="_top" xlink:title=" ">
<polygon fill="white" stroke="black" points="799.5,-560.5 799.5,-579.5 855.5,-579.5 855.5,-560.5 799.5,-560.5"/>
<text text-anchor="middle" x="827.5" y="-567.5" font-family="Helvetica,sans-Serif" font-size="10.00">crypto.h</text>
</a>
</g>
</g>
<!-- Node50&#45;&gt;Node30 -->
<g id="edge50" class="edge">
<title>Node50&#45;&gt;Node30</title>
<path fill="none" stroke="midnightblue" d="M846.16,-606.98C841.41,-597.82 835.84,-587.09 832.04,-579.75"/>
<polygon fill="midnightblue" stroke="midnightblue" points="843.17,-608.82 850.88,-616.08 849.38,-605.59 843.17,-608.82"/>
</g>
<!-- Node51 -->
<g id="node41" class="node">
<title>Node51</title>
<g id="a_node41"><a xlink:href="spec_2event_8h.html" target="_top" xlink:title=" ">
<polygon fill="white" stroke="red" points="1026,-560.5 1026,-579.5 1079,-579.5 1079,-560.5 1026,-560.5"/>
<text text-anchor="middle" x="1052.5" y="-567.5" font-family="Helvetica,sans-Serif" font-size="10.00">event.h</text>
</a>
</g>
</g>
<!-- Node50&#45;&gt;Node51 -->
<g id="edge54" class="edge">
<title>Node50&#45;&gt;Node51</title>
<path fill="none" stroke="midnightblue" d="M896.66,-613.72C935.52,-603.07 992.64,-587.41 1025.85,-578.3"/>
<polygon fill="midnightblue" stroke="midnightblue" points="895.43,-610.42 886.72,-616.44 897.28,-617.18 895.43,-610.42"/>
</g>
<!-- Node54 -->
<g id="node42" class="node">
<title>Node54</title>
<g id="a_node42"><a xlink:href="spec_2packet__flags_8h.html" target="_top" xlink:title=" ">
<polygon fill="white" stroke="red" points="585.5,-560.5 585.5,-579.5 671.5,-579.5 671.5,-560.5 585.5,-560.5"/>
<text text-anchor="middle" x="628.5" y="-567.5" font-family="Helvetica,sans-Serif" font-size="10.00">packet_flags.h</text>
</a>
</g>
</g>
<!-- Node50&#45;&gt;Node54 -->
<g id="edge57" class="edge">
<title>Node50&#45;&gt;Node54</title>
<path fill="none" stroke="midnightblue" d="M809.63,-614.09C766.75,-603.89 703.58,-588.86 664.3,-579.52"/>
<polygon fill="midnightblue" stroke="midnightblue" points="808.99,-617.53 819.53,-616.44 810.61,-610.72 808.99,-617.53"/>
</g>
<!-- Node56 -->
<g id="node43" class="node">
<title>Node56</title>
<g id="a_node43"><a xlink:href="event__inlines_8h_source.html" target="_top" xlink:title=" ">
<polygon fill="white" stroke="black" points="690,-560.5 690,-579.5 781,-579.5 781,-560.5 690,-560.5"/>
<text text-anchor="middle" x="735.5" y="-567.5" font-family="Helvetica,sans-Serif" font-size="10.00">event_inlines.h</text>
</a>
</g>
</g>
<!-- Node50&#45;&gt;Node56 -->
<g id="edge60" class="edge">
<title>Node50&#45;&gt;Node56</title>
<path fill="none" stroke="midnightblue" d="M827.13,-612.23C804.68,-602.13 773.96,-588.31 754.43,-579.52"/>
<polygon fill="midnightblue" stroke="midnightblue" points="825.93,-615.53 836.49,-616.44 828.8,-609.15 825.93,-615.53"/>
</g>
<!-- Node57 -->
<g id="node44" class="node">
<title>Node57</title>
<g id="a_node44"><a xlink:href="event__validation__external_8h.html" target="_top" xlink:title=" ">
<polygon fill="white" stroke="black" points="376,-560.5 376,-579.5 529,-579.5 529,-560.5 376,-560.5"/>
<text text-anchor="middle" x="452.5" y="-567.5" font-family="Helvetica,sans-Serif" font-size="10.00">event_validation_external.h</text>
</a>
</g>
</g>
<!-- Node50&#45;&gt;Node57 -->
<g id="edge61" class="edge">
<title>Node50&#45;&gt;Node57</title>
<path fill="none" stroke="midnightblue" d="M800.36,-617.61C726.15,-607.67 594.4,-590.01 516.09,-579.52"/>
<polygon fill="midnightblue" stroke="midnightblue" points="800.07,-621.1 810.44,-618.96 801,-614.17 800.07,-621.1"/>
</g>
<!-- Node31 -->
<g id="node40" class="node">
<title>Node31</title>
<g id="a_node40"><a xlink:href="crypto_8h.html" target="_top" xlink:title=" ">
<polygon fill="white" stroke="black" points="799.5,-504.5 799.5,-523.5 855.5,-523.5 855.5,-504.5 799.5,-504.5"/>
<text text-anchor="middle" x="827.5" y="-511.5" font-family="Helvetica,sans-Serif" font-size="10.00">crypto.h</text>
</a>
</g>
</g>
<!-- Node30&#45;&gt;Node31 -->
<g id="edge51" class="edge">
<title>Node30&#45;&gt;Node31</title>
<path fill="none" stroke="midnightblue" d="M827.5,-549.8C827.5,-540.91 827.5,-530.78 827.5,-523.75"/>
<polygon fill="midnightblue" stroke="midnightblue" points="824,-550.08 827.5,-560.08 831,-550.08 824,-550.08"/>
</g>
<!-- Node58 -->
<g id="node45" class="node">
<title>Node58</title>
<g id="a_node45"><a xlink:href="queue__inlines_8h_source.html" target="_top" xlink:title=" ">
<polygon fill="white" stroke="black" points="245,-504.5 245,-523.5 338,-523.5 338,-504.5 245,-504.5"/>
<text text-anchor="middle" x="291.5" y="-511.5" font-family="Helvetica,sans-Serif" font-size="10.00">queue_inlines.h</text>
</a>
</g>
</g>
<!-- Node57&#45;&gt;Node58 -->
<g id="edge62" class="edge">
<title>Node57&#45;&gt;Node58</title>
<path fill="none" stroke="midnightblue" d="M417.24,-557.17C386.92,-547 343.93,-532.59 316.89,-523.52"/>
<polygon fill="midnightblue" stroke="midnightblue" points="416.4,-560.58 426.99,-560.44 418.62,-553.95 416.4,-560.58"/>
</g>
<!-- Node60 -->
<g id="node47" class="node">
<title>Node60</title>
<g id="a_node47"><a xlink:href="queue_8h.html" target="_top" xlink:title=" ">
<polygon fill="white" stroke="black" points="415.5,-616.5 415.5,-635.5 471.5,-635.5 471.5,-616.5 415.5,-616.5"/>
<text text-anchor="middle" x="443.5" y="-623.5" font-family="Helvetica,sans-Serif" font-size="10.00">queue.h</text>
</a>
</g>
</g>
<!-- Node59&#45;&gt;Node60 -->
<g id="edge66" class="edge">
<title>Node59&#45;&gt;Node60</title>
<path fill="none" stroke="midnightblue" d="M443.5,-661.8C443.5,-652.91 443.5,-642.78 443.5,-635.75"/>
<polygon fill="midnightblue" stroke="midnightblue" points="440,-662.08 443.5,-672.08 447,-662.08 440,-662.08"/>
</g>
<!-- Node61&#45;&gt;Node58 -->
<g id="edge71" class="edge">
<title>Node61&#45;&gt;Node58</title>
<path fill="none" stroke="midnightblue" d="M284.52,-608.47C278.28,-600.48 271.73,-590.38 268.5,-580 262.17,-559.65 275.76,-536.18 284.63,-523.76"/>
<polygon fill="midnightblue" stroke="midnightblue" points="281.92,-610.81 291.02,-616.23 287.29,-606.32 281.92,-610.81"/>
</g>
<!-- Node62&#45;&gt;Node63 -->
<g id="edge73" class="edge">
<title>Node62&#45;&gt;Node63</title>
<path fill="none" stroke="midnightblue" d="M1091.16,-662.98C1086.92,-653.82 1081.95,-643.09 1078.55,-635.75"/>
<polygon fill="midnightblue" stroke="midnightblue" points="1087.99,-664.48 1095.37,-672.08 1094.35,-661.54 1087.99,-664.48"/>
</g>
</g>
</svg>
