<?xml version="1.0" encoding="UTF-8" standalone="no"?>
<!DOCTYPE svg PUBLIC "-//W3C//DTD SVG 1.1//EN"
 "http://www.w3.org/Graphics/SVG/1.1/DTD/svg11.dtd">
<!-- Generated by graphviz version 2.43.0 (0)
 -->
<!-- Title: timer.h Pages: 1 -->
<svg width="1504pt" height="1102pt"
 viewBox="0.00 0.00 1504.00 1102.00" xmlns="http://www.w3.org/2000/svg" xmlns:xlink="http://www.w3.org/1999/xlink">
<g id="graph0" class="graph" transform="scale(1 1) rotate(0) translate(4 1098)">
<title>timer.h</title>
<polygon fill="white" stroke="transparent" points="-4,4 -4,-1098 1500,-1098 1500,4 -4,4"/>
<!-- Node1 -->
<g id="node1" class="node">
<title>Node1</title>
<g id="a_node1"><a xlink:title=" ">
<polygon fill="#bfbfbf" stroke="black" points="1013.5,-1074.5 1013.5,-1093.5 1064.5,-1093.5 1064.5,-1074.5 1013.5,-1074.5"/>
<text text-anchor="middle" x="1039" y="-1081.5" font-family="Helvetica,sans-Serif" font-size="10.00">timer.h</text>
</a>
</g>
</g>
<!-- Node2 -->
<g id="node2" class="node">
<title>Node2</title>
<g id="a_node2"><a xlink:title=" ">
<polygon fill="white" stroke="#bfbfbf" points="920,-1018.5 920,-1037.5 1028,-1037.5 1028,-1018.5 920,-1018.5"/>
<text text-anchor="middle" x="974" y="-1025.5" font-family="Helvetica,sans-Serif" font-size="10.00">odp/api/abi/timer.h</text>
</a>
</g>
</g>
<!-- Node1&#45;&gt;Node2 -->
<g id="edge1" class="edge">
<title>Node1&#45;&gt;Node2</title>
<path fill="none" stroke="midnightblue" d="M1028.56,-1074.32C1018.85,-1066.26 1004.18,-1054.08 992.5,-1044.37"/>
<polygon fill="midnightblue" stroke="midnightblue" points="994.56,-1041.53 984.63,-1037.83 990.09,-1046.92 994.56,-1041.53"/>
</g>
<!-- Node3 -->
<g id="node3" class="node">
<title>Node3</title>
<g id="a_node3"><a xlink:href="spec_2timer_8h.html" target="_top" xlink:title=" ">
<polygon fill="white" stroke="black" points="1046,-1018.5 1046,-1037.5 1162,-1037.5 1162,-1018.5 1046,-1018.5"/>
<text text-anchor="middle" x="1104" y="-1025.5" font-family="Helvetica,sans-Serif" font-size="10.00">odp/api/spec/timer.h</text>
</a>
</g>
</g>
<!-- Node1&#45;&gt;Node3 -->
<g id="edge2" class="edge">
<title>Node1&#45;&gt;Node3</title>
<path fill="none" stroke="midnightblue" d="M1049.44,-1074.32C1059.15,-1066.26 1073.82,-1054.08 1085.5,-1044.37"/>
<polygon fill="midnightblue" stroke="midnightblue" points="1087.91,-1046.92 1093.37,-1037.83 1083.44,-1041.53 1087.91,-1046.92"/>
</g>
<!-- Node4 -->
<g id="node4" class="node">
<title>Node4</title>
<g id="a_node4"><a xlink:title=" ">
<polygon fill="white" stroke="#bfbfbf" points="1169.5,-0.5 1169.5,-19.5 1290.5,-19.5 1290.5,-0.5 1169.5,-0.5"/>
<text text-anchor="middle" x="1230" y="-7.5" font-family="Helvetica,sans-Serif" font-size="10.00">odp/visibility_begin.h</text>
</a>
</g>
</g>
<!-- Node3&#45;&gt;Node4 -->
<g id="edge3" class="edge">
<title>Node3&#45;&gt;Node4</title>
<path fill="none" stroke="midnightblue" d="M1162.26,-1022.8C1271.46,-1013.31 1496,-985.48 1496,-917 1496,-917 1496,-917 1496,-132 1496,-46.18 1379.86,-20.94 1301.07,-13.7"/>
<polygon fill="midnightblue" stroke="midnightblue" points="1300.95,-10.18 1290.69,-12.83 1300.36,-17.15 1300.95,-10.18"/>
</g>
<!-- Node5 -->
<g id="node5" class="node">
<title>Node5</title>
<g id="a_node5"><a xlink:href="deprecated_8h.html" target="_top" xlink:title=" ">
<polygon fill="white" stroke="black" points="955.5,-235.5 955.5,-254.5 1074.5,-254.5 1074.5,-235.5 955.5,-235.5"/>
<text text-anchor="middle" x="1015" y="-242.5" font-family="Helvetica,sans-Serif" font-size="10.00">odp/api/deprecated.h</text>
</a>
</g>
</g>
<!-- Node3&#45;&gt;Node5 -->
<g id="edge4" class="edge">
<title>Node3&#45;&gt;Node5</title>
<path fill="none" stroke="midnightblue" d="M1162.06,-1021.07C1262.49,-1009.2 1458,-978.22 1458,-917 1458,-917 1458,-917 1458,-562.5 1458,-410.22 1378.63,-370.9 1249,-291 1199.68,-260.6 1134.3,-250 1085.18,-246.62"/>
<polygon fill="midnightblue" stroke="midnightblue" points="1085.15,-243.12 1074.96,-246.01 1084.73,-250.1 1085.15,-243.12"/>
</g>
<!-- Node7 -->
<g id="node7" class="node">
<title>Node7</title>
<g id="a_node7"><a xlink:title=" ">
<polygon fill="white" stroke="#bfbfbf" points="404,-0.5 404,-19.5 516,-19.5 516,-0.5 404,-0.5"/>
<text text-anchor="middle" x="460" y="-7.5" font-family="Helvetica,sans-Serif" font-size="10.00">odp/visibility_end.h</text>
</a>
</g>
</g>
<!-- Node3&#45;&gt;Node7 -->
<g id="edge75" class="edge">
<title>Node3&#45;&gt;Node7</title>
<path fill="none" stroke="midnightblue" d="M1045.93,-1018.86C1042.91,-1018.54 1039.92,-1018.25 1037,-1018 838.26,-1000.7 333.9,-1028.91 140,-982 73.32,-965.87 0,-985.6 0,-917 0,-917 0,-917 0,-132 0,-90.82 17.59,-77.03 53,-56 109.06,-22.7 293.78,-14.02 393.97,-11.77"/>
<polygon fill="midnightblue" stroke="midnightblue" points="394.06,-15.27 403.99,-11.56 393.92,-8.27 394.06,-15.27"/>
</g>
<!-- Node8 -->
<g id="node8" class="node">
<title>Node8</title>
<g id="a_node8"><a xlink:href="timer__types_8h.html" target="_top" xlink:title=" ">
<polygon fill="white" stroke="black" points="151.5,-364 151.5,-383 274.5,-383 274.5,-364 151.5,-364"/>
<text text-anchor="middle" x="213" y="-371" font-family="Helvetica,sans-Serif" font-size="10.00">odp/api/timer_types.h</text>
</a>
</g>
</g>
<!-- Node3&#45;&gt;Node8 -->
<g id="edge8" class="edge">
<title>Node3&#45;&gt;Node8</title>
<path fill="none" stroke="midnightblue" d="M1045.9,-1019.12C1042.89,-1018.74 1039.91,-1018.36 1037,-1018 938.78,-1005.8 152,-1015.97 152,-917 152,-917 152,-917 152,-501 152,-457.95 181.02,-414.11 199.02,-391.05"/>
<polygon fill="midnightblue" stroke="midnightblue" points="201.96,-392.99 205.52,-383.01 196.51,-388.59 201.96,-392.99"/>
</g>
<!-- Node11 -->
<g id="node11" class="node">
<title>Node11</title>
<g id="a_node11"><a xlink:href="event__types_8h.html" target="_top" xlink:title=" ">
<polygon fill="white" stroke="black" points="234.5,-235.5 234.5,-254.5 359.5,-254.5 359.5,-235.5 234.5,-235.5"/>
<text text-anchor="middle" x="297" y="-242.5" font-family="Helvetica,sans-Serif" font-size="10.00">odp/api/event_types.h</text>
</a>
</g>
</g>
<!-- Node3&#45;&gt;Node11 -->
<g id="edge30" class="edge">
<title>Node3&#45;&gt;Node11</title>
<path fill="none" stroke="midnightblue" d="M1045.93,-1018.88C1042.91,-1018.56 1039.92,-1018.26 1037,-1018 858.2,-1002.03 402.64,-1031.21 230,-982 173.17,-965.8 114,-976.1 114,-917 114,-917 114,-917 114,-372.5 114,-335.31 107.21,-317.8 133,-291 156.55,-266.52 192.05,-254.95 224.01,-249.64"/>
<polygon fill="midnightblue" stroke="midnightblue" points="224.87,-253.05 234.25,-248.13 223.84,-246.13 224.87,-253.05"/>
</g>
<!-- Node21 -->
<g id="node21" class="node">
<title>Node21</title>
<g id="a_node21"><a xlink:href="pool__types_8h.html" target="_top" xlink:title=" ">
<polygon fill="white" stroke="black" points="1145,-962.5 1145,-981.5 1263,-981.5 1263,-962.5 1145,-962.5"/>
<text text-anchor="middle" x="1204" y="-969.5" font-family="Helvetica,sans-Serif" font-size="10.00">odp/api/pool_types.h</text>
</a>
</g>
</g>
<!-- Node3&#45;&gt;Node21 -->
<g id="edge31" class="edge">
<title>Node3&#45;&gt;Node21</title>
<path fill="none" stroke="midnightblue" d="M1120.07,-1018.32C1135.96,-1009.74 1160.51,-996.49 1178.96,-986.52"/>
<polygon fill="midnightblue" stroke="midnightblue" points="1180.84,-989.49 1187.97,-981.65 1177.51,-983.33 1180.84,-989.49"/>
</g>
<!-- Node34 -->
<g id="node34" class="node">
<title>Node34</title>
<g id="a_node34"><a xlink:href="queue__types_8h.html" target="_top" xlink:title=" ">
<polygon fill="white" stroke="black" points="1162.5,-615.5 1162.5,-634.5 1289.5,-634.5 1289.5,-615.5 1162.5,-615.5"/>
<text text-anchor="middle" x="1226" y="-622.5" font-family="Helvetica,sans-Serif" font-size="10.00">odp/api/queue_types.h</text>
</a>
</g>
</g>
<!-- Node3&#45;&gt;Node34 -->
<g id="edge74" class="edge">
<title>Node3&#45;&gt;Node34</title>
<path fill="none" stroke="midnightblue" d="M1102.65,-1018.42C1099.73,-996.69 1095.28,-938.87 1124,-906 1159.79,-865.03 1205.3,-911.05 1241,-870 1297.73,-804.78 1254.7,-688.89 1234.73,-644.24"/>
<polygon fill="midnightblue" stroke="midnightblue" points="1237.81,-642.55 1230.44,-634.94 1231.45,-645.49 1237.81,-642.55"/>
</g>
<!-- Node6 -->
<g id="node6" class="node">
<title>Node6</title>
<g id="a_node6"><a xlink:href="spec_2deprecated_8h.html" target="_top" xlink:title=" ">
<polygon fill="white" stroke="black" points="942.5,-62 942.5,-81 1087.5,-81 1087.5,-62 942.5,-62"/>
<text text-anchor="middle" x="1015" y="-69" font-family="Helvetica,sans-Serif" font-size="10.00">odp/api/spec/deprecated.h</text>
</a>
</g>
</g>
<!-- Node5&#45;&gt;Node6 -->
<g id="edge5" class="edge">
<title>Node5&#45;&gt;Node6</title>
<path fill="none" stroke="midnightblue" d="M1015,-235.26C1015,-208.65 1015,-128.21 1015,-91.34"/>
<polygon fill="midnightblue" stroke="midnightblue" points="1018.5,-91.02 1015,-81.02 1011.5,-91.02 1018.5,-91.02"/>
</g>
<!-- Node6&#45;&gt;Node4 -->
<g id="edge6" class="edge">
<title>Node6&#45;&gt;Node4</title>
<path fill="none" stroke="midnightblue" d="M1045.8,-61.98C1083.56,-51.53 1147.66,-33.79 1189.41,-22.23"/>
<polygon fill="midnightblue" stroke="midnightblue" points="1190.55,-25.55 1199.25,-19.51 1188.68,-18.8 1190.55,-25.55"/>
</g>
<!-- Node6&#45;&gt;Node7 -->
<g id="edge7" class="edge">
<title>Node6&#45;&gt;Node7</title>
<path fill="none" stroke="midnightblue" d="M970.96,-61.94C959,-59.8 946.03,-57.65 934,-56 789.14,-36.19 618.19,-22.27 526.35,-15.56"/>
<polygon fill="midnightblue" stroke="midnightblue" points="526.58,-12.07 516.36,-14.84 526.08,-19.05 526.58,-12.07"/>
</g>
<!-- Node9 -->
<g id="node9" class="node">
<title>Node9</title>
<g id="a_node9"><a xlink:title=" ">
<polygon fill="white" stroke="#bfbfbf" points="142.5,-297 142.5,-316 283.5,-316 283.5,-297 142.5,-297"/>
<text text-anchor="middle" x="213" y="-304" font-family="Helvetica,sans-Serif" font-size="10.00">odp/api/abi/timer_types.h</text>
</a>
</g>
</g>
<!-- Node8&#45;&gt;Node9 -->
<g id="edge9" class="edge">
<title>Node8&#45;&gt;Node9</title>
<path fill="none" stroke="midnightblue" d="M213,-363.73C213,-354.18 213,-338.62 213,-326.28"/>
<polygon fill="midnightblue" stroke="midnightblue" points="216.5,-326.13 213,-316.13 209.5,-326.13 216.5,-326.13"/>
</g>
<!-- Node10 -->
<g id="node10" class="node">
<title>Node10</title>
<g id="a_node10"><a xlink:href="spec_2timer__types_8h.html" target="_top" xlink:title=" ">
<polygon fill="white" stroke="black" points="454.5,-291.5 454.5,-321.5 561.5,-321.5 561.5,-291.5 454.5,-291.5"/>
<text text-anchor="start" x="462.5" y="-309.5" font-family="Helvetica,sans-Serif" font-size="10.00">odp/api/spec/timer</text>
<text text-anchor="middle" x="508" y="-298.5" font-family="Helvetica,sans-Serif" font-size="10.00">_types.h</text>
</a>
</g>
</g>
<!-- Node8&#45;&gt;Node10 -->
<g id="edge10" class="edge">
<title>Node8&#45;&gt;Node10</title>
<path fill="none" stroke="midnightblue" d="M251.87,-363.94C300.9,-353.13 385.86,-334.41 444.4,-321.51"/>
<polygon fill="midnightblue" stroke="midnightblue" points="445.27,-324.91 454.28,-319.34 443.77,-318.07 445.27,-324.91"/>
</g>
<!-- Node10&#45;&gt;Node4 -->
<g id="edge11" class="edge">
<title>Node10&#45;&gt;Node4</title>
<path fill="none" stroke="midnightblue" d="M543.34,-291.36C584.11,-275.54 653.44,-250.16 715,-235 815.89,-210.16 848.33,-234.46 946,-199 1036.7,-166.07 1052.4,-141.55 1132,-87 1160.8,-67.26 1192.44,-42.03 1211.76,-26.19"/>
<polygon fill="midnightblue" stroke="midnightblue" points="1214.23,-28.69 1219.72,-19.63 1209.78,-23.29 1214.23,-28.69"/>
</g>
<!-- Node10&#45;&gt;Node5 -->
<g id="edge12" class="edge">
<title>Node10&#45;&gt;Node5</title>
<path fill="none" stroke="midnightblue" d="M561.53,-292.7C564.72,-292.09 567.9,-291.51 571,-291 702.44,-269.3 857.61,-256.45 945.34,-250.35"/>
<polygon fill="midnightblue" stroke="midnightblue" points="945.7,-253.83 955.44,-249.66 945.22,-246.85 945.7,-253.83"/>
</g>
<!-- Node10&#45;&gt;Node7 -->
<g id="edge29" class="edge">
<title>Node10&#45;&gt;Node7</title>
<path fill="none" stroke="midnightblue" d="M497.59,-291.09C473.99,-257.44 416.91,-170.17 397,-87 393.79,-73.6 390.7,-68.25 397,-56 404.08,-42.25 417.52,-31.77 430.18,-24.39"/>
<polygon fill="midnightblue" stroke="midnightblue" points="432,-27.39 439.15,-19.57 428.69,-21.22 432,-27.39"/>
</g>
<!-- Node10&#45;&gt;Node11 -->
<g id="edge13" class="edge">
<title>Node10&#45;&gt;Node11</title>
<path fill="none" stroke="midnightblue" d="M458.26,-291.47C421.23,-281.03 371.32,-266.96 336.88,-257.25"/>
<polygon fill="midnightblue" stroke="midnightblue" points="337.74,-253.85 327.17,-254.51 335.84,-260.59 337.74,-253.85"/>
</g>
<!-- Node14 -->
<g id="node14" class="node">
<title>Node14</title>
<g id="a_node14"><a xlink:href="std__types_8h.html" target="_top" xlink:title=" ">
<polygon fill="white" stroke="black" points="724,-235.5 724,-254.5 836,-254.5 836,-235.5 724,-235.5"/>
<text text-anchor="middle" x="780" y="-242.5" font-family="Helvetica,sans-Serif" font-size="10.00">odp/api/std_types.h</text>
</a>
</g>
</g>
<!-- Node10&#45;&gt;Node14 -->
<g id="edge18" class="edge">
<title>Node10&#45;&gt;Node14</title>
<path fill="none" stroke="midnightblue" d="M561.6,-293.11C564.78,-292.39 567.93,-291.68 571,-291 625.17,-278.94 687.35,-265.61 729.71,-256.62"/>
<polygon fill="midnightblue" stroke="midnightblue" points="730.45,-260.04 739.51,-254.54 729,-253.19 730.45,-260.04"/>
</g>
<!-- Node12 -->
<g id="node12" class="node">
<title>Node12</title>
<g id="a_node12"><a xlink:title=" ">
<polygon fill="white" stroke="#bfbfbf" points="216.5,-179.5 216.5,-198.5 359.5,-198.5 359.5,-179.5 216.5,-179.5"/>
<text text-anchor="middle" x="288" y="-186.5" font-family="Helvetica,sans-Serif" font-size="10.00">odp/api/abi/event_types.h</text>
</a>
</g>
</g>
<!-- Node11&#45;&gt;Node12 -->
<g id="edge14" class="edge">
<title>Node11&#45;&gt;Node12</title>
<path fill="none" stroke="midnightblue" d="M295.51,-235.08C294.32,-227.93 292.61,-217.64 291.12,-208.69"/>
<polygon fill="midnightblue" stroke="midnightblue" points="294.55,-208.04 289.46,-198.75 287.65,-209.19 294.55,-208.04"/>
</g>
<!-- Node13 -->
<g id="node13" class="node">
<title>Node13</title>
<g id="a_node13"><a xlink:href="spec_2event__types_8h.html" target="_top" xlink:title=" ">
<polygon fill="white" stroke="black" points="405.5,-56.5 405.5,-86.5 514.5,-86.5 514.5,-56.5 405.5,-56.5"/>
<text text-anchor="start" x="413.5" y="-74.5" font-family="Helvetica,sans-Serif" font-size="10.00">odp/api/spec/event</text>
<text text-anchor="middle" x="460" y="-63.5" font-family="Helvetica,sans-Serif" font-size="10.00">_types.h</text>
</a>
</g>
</g>
<!-- Node11&#45;&gt;Node13 -->
<g id="edge15" class="edge">
<title>Node11&#45;&gt;Node13</title>
<path fill="none" stroke="midnightblue" d="M314.59,-235.5C330.04,-227.48 352.54,-214.42 369,-199 402.38,-167.73 431.36,-122.59 447.19,-95.54"/>
<polygon fill="midnightblue" stroke="midnightblue" points="450.28,-97.19 452.23,-86.77 444.21,-93.7 450.28,-97.19"/>
</g>
<!-- Node13&#45;&gt;Node4 -->
<g id="edge16" class="edge">
<title>Node13&#45;&gt;Node4</title>
<path fill="none" stroke="midnightblue" d="M514.76,-66.27C651.37,-55.71 1007.16,-28.22 1159.31,-16.46"/>
<polygon fill="midnightblue" stroke="midnightblue" points="1159.77,-19.94 1169.47,-15.68 1159.23,-12.96 1159.77,-19.94"/>
</g>
<!-- Node13&#45;&gt;Node7 -->
<g id="edge17" class="edge">
<title>Node13&#45;&gt;Node7</title>
<path fill="none" stroke="midnightblue" d="M460,-56.4C460,-48.47 460,-38.46 460,-29.86"/>
<polygon fill="midnightblue" stroke="midnightblue" points="463.5,-29.66 460,-19.66 456.5,-29.66 463.5,-29.66"/>
</g>
<!-- Node15 -->
<g id="node15" class="node">
<title>Node15</title>
<g id="a_node15"><a xlink:title=" ">
<polygon fill="white" stroke="#bfbfbf" points="613,-179.5 613,-198.5 743,-198.5 743,-179.5 613,-179.5"/>
<text text-anchor="middle" x="678" y="-186.5" font-family="Helvetica,sans-Serif" font-size="10.00">odp/api/abi/std_types.h</text>
</a>
</g>
</g>
<!-- Node14&#45;&gt;Node15 -->
<g id="edge19" class="edge">
<title>Node14&#45;&gt;Node15</title>
<path fill="none" stroke="midnightblue" d="M763.61,-235.32C747.33,-226.7 722.13,-213.36 703.28,-203.39"/>
<polygon fill="midnightblue" stroke="midnightblue" points="704.82,-200.24 694.35,-198.65 701.55,-206.43 704.82,-200.24"/>
</g>
<!-- Node16 -->
<g id="node16" class="node">
<title>Node16</title>
<g id="a_node16"><a xlink:href="spec_2std__types_8h.html" target="_top" xlink:title=" ">
<polygon fill="white" stroke="black" points="799.5,-179.5 799.5,-198.5 936.5,-198.5 936.5,-179.5 799.5,-179.5"/>
<text text-anchor="middle" x="868" y="-186.5" font-family="Helvetica,sans-Serif" font-size="10.00">odp/api/spec/std_types.h</text>
</a>
</g>
</g>
<!-- Node14&#45;&gt;Node16 -->
<g id="edge20" class="edge">
<title>Node14&#45;&gt;Node16</title>
<path fill="none" stroke="midnightblue" d="M794.14,-235.32C807.87,-226.9 828.94,-213.97 845.06,-204.07"/>
<polygon fill="midnightblue" stroke="midnightblue" points="847.2,-206.87 853.9,-198.65 843.54,-200.9 847.2,-206.87"/>
</g>
<!-- Node16&#45;&gt;Node4 -->
<g id="edge21" class="edge">
<title>Node16&#45;&gt;Node4</title>
<path fill="none" stroke="midnightblue" d="M891.86,-179.38C934.4,-163.6 1025.54,-127.91 1097,-87 1117.45,-75.29 1119.84,-68.2 1140,-56 1159.8,-44.02 1183.21,-32.39 1201.19,-23.95"/>
<polygon fill="midnightblue" stroke="midnightblue" points="1202.96,-26.99 1210.56,-19.61 1200.01,-20.64 1202.96,-26.99"/>
</g>
<!-- Node16&#45;&gt;Node7 -->
<g id="edge28" class="edge">
<title>Node16&#45;&gt;Node7</title>
<path fill="none" stroke="midnightblue" d="M836.52,-179.43C810.95,-171.79 774.44,-159.3 745,-143 717.43,-127.74 661.28,-69.92 633,-56 599.44,-39.48 559.13,-28.54 525.87,-21.59"/>
<polygon fill="midnightblue" stroke="midnightblue" points="526.28,-18.1 515.79,-19.56 524.9,-24.96 526.28,-18.1"/>
</g>
<!-- Node17 -->
<g id="node17" class="node">
<title>Node17</title>
<g id="a_node17"><a xlink:title=" ">
<polygon fill="white" stroke="#bfbfbf" points="753.5,-123.5 753.5,-142.5 806.5,-142.5 806.5,-123.5 753.5,-123.5"/>
<text text-anchor="middle" x="780" y="-130.5" font-family="Helvetica,sans-Serif" font-size="10.00">stdint.h</text>
</a>
</g>
</g>
<!-- Node16&#45;&gt;Node17 -->
<g id="edge22" class="edge">
<title>Node16&#45;&gt;Node17</title>
<path fill="none" stroke="midnightblue" d="M853.86,-179.32C840.13,-170.9 819.06,-157.97 802.94,-148.07"/>
<polygon fill="midnightblue" stroke="midnightblue" points="804.46,-144.9 794.1,-142.65 800.8,-150.87 804.46,-144.9"/>
</g>
<!-- Node18 -->
<g id="node18" class="node">
<title>Node18</title>
<g id="a_node18"><a xlink:href="align_8h.html" target="_top" xlink:title=" ">
<polygon fill="white" stroke="black" points="824.5,-123.5 824.5,-142.5 913.5,-142.5 913.5,-123.5 824.5,-123.5"/>
<text text-anchor="middle" x="869" y="-130.5" font-family="Helvetica,sans-Serif" font-size="10.00">odp/api/align.h</text>
</a>
</g>
</g>
<!-- Node16&#45;&gt;Node18 -->
<g id="edge23" class="edge">
<title>Node16&#45;&gt;Node18</title>
<path fill="none" stroke="midnightblue" d="M868.17,-179.08C868.3,-172.01 868.48,-161.86 868.65,-152.99"/>
<polygon fill="midnightblue" stroke="midnightblue" points="872.15,-152.81 868.84,-142.75 865.15,-152.68 872.15,-152.81"/>
</g>
<!-- Node19 -->
<g id="node19" class="node">
<title>Node19</title>
<g id="a_node19"><a xlink:title=" ">
<polygon fill="white" stroke="#bfbfbf" points="817.5,-62 817.5,-81 924.5,-81 924.5,-62 817.5,-62"/>
<text text-anchor="middle" x="871" y="-69" font-family="Helvetica,sans-Serif" font-size="10.00">odp/api/abi/align.h</text>
</a>
</g>
</g>
<!-- Node18&#45;&gt;Node19 -->
<g id="edge24" class="edge">
<title>Node18&#45;&gt;Node19</title>
<path fill="none" stroke="midnightblue" d="M869.29,-123.48C869.57,-115.08 870.01,-101.98 870.37,-91.16"/>
<polygon fill="midnightblue" stroke="midnightblue" points="873.88,-91.12 870.71,-81.01 866.88,-90.89 873.88,-91.12"/>
</g>
<!-- Node20 -->
<g id="node20" class="node">
<title>Node20</title>
<g id="a_node20"><a xlink:href="spec_2align_8h.html" target="_top" xlink:title=" ">
<polygon fill="white" stroke="black" points="685,-62 685,-81 799,-81 799,-62 685,-62"/>
<text text-anchor="middle" x="742" y="-69" font-family="Helvetica,sans-Serif" font-size="10.00">odp/api/spec/align.h</text>
</a>
</g>
</g>
<!-- Node18&#45;&gt;Node20 -->
<g id="edge25" class="edge">
<title>Node18&#45;&gt;Node20</title>
<path fill="none" stroke="midnightblue" d="M850.8,-123.48C829.49,-113.49 793.97,-96.85 769.34,-85.31"/>
<polygon fill="midnightblue" stroke="midnightblue" points="770.7,-82.08 760.16,-81.01 767.73,-88.42 770.7,-82.08"/>
</g>
<!-- Node20&#45;&gt;Node4 -->
<g id="edge26" class="edge">
<title>Node20&#45;&gt;Node4</title>
<path fill="none" stroke="midnightblue" d="M778.03,-61.96C788.02,-59.8 798.9,-57.63 809,-56 931.44,-36.27 1075.34,-23 1159.25,-16.24"/>
<polygon fill="midnightblue" stroke="midnightblue" points="1159.73,-19.72 1169.43,-15.43 1159.18,-12.74 1159.73,-19.72"/>
</g>
<!-- Node20&#45;&gt;Node7 -->
<g id="edge27" class="edge">
<title>Node20&#45;&gt;Node7</title>
<path fill="none" stroke="midnightblue" d="M701.6,-61.98C651.13,-51.33 564.79,-33.11 510.15,-21.58"/>
<polygon fill="midnightblue" stroke="midnightblue" points="510.84,-18.15 500.33,-19.51 509.39,-25 510.84,-18.15"/>
</g>
<!-- Node22 -->
<g id="node22" class="node">
<title>Node22</title>
<g id="a_node22"><a xlink:title=" ">
<polygon fill="white" stroke="#bfbfbf" points="1294,-906.5 1294,-925.5 1430,-925.5 1430,-906.5 1294,-906.5"/>
<text text-anchor="middle" x="1362" y="-913.5" font-family="Helvetica,sans-Serif" font-size="10.00">odp/api/abi/pool_types.h</text>
</a>
</g>
</g>
<!-- Node21&#45;&gt;Node22 -->
<g id="edge32" class="edge">
<title>Node21&#45;&gt;Node22</title>
<path fill="none" stroke="midnightblue" d="M1229.04,-962.44C1255.62,-953.36 1297.81,-938.94 1327.52,-928.78"/>
<polygon fill="midnightblue" stroke="midnightblue" points="1328.75,-932.06 1337.08,-925.52 1326.49,-925.44 1328.75,-932.06"/>
</g>
<!-- Node23 -->
<g id="node23" class="node">
<title>Node23</title>
<g id="a_node23"><a xlink:href="spec_2pool__types_8h.html" target="_top" xlink:title=" ">
<polygon fill="white" stroke="black" points="1132.5,-906.5 1132.5,-925.5 1275.5,-925.5 1275.5,-906.5 1132.5,-906.5"/>
<text text-anchor="middle" x="1204" y="-913.5" font-family="Helvetica,sans-Serif" font-size="10.00">odp/api/spec/pool_types.h</text>
</a>
</g>
</g>
<!-- Node21&#45;&gt;Node23 -->
<g id="edge33" class="edge">
<title>Node21&#45;&gt;Node23</title>
<path fill="none" stroke="midnightblue" d="M1204,-962.08C1204,-955.01 1204,-944.86 1204,-935.99"/>
<polygon fill="midnightblue" stroke="midnightblue" points="1207.5,-935.75 1204,-925.75 1200.5,-935.75 1207.5,-935.75"/>
</g>
<!-- Node23&#45;&gt;Node4 -->
<g id="edge34" class="edge">
<title>Node23&#45;&gt;Node4</title>
<path fill="none" stroke="midnightblue" d="M1260.08,-906.48C1291.21,-899.94 1329.66,-888.73 1360,-870 1393.45,-849.35 1420,-844.32 1420,-805 1420,-805 1420,-805 1420,-562.5 1420,-477.25 1458,-459.75 1458,-374.5 1458,-374.5 1458,-374.5 1458,-132 1458,-59.75 1367.57,-30.51 1300.61,-18.77"/>
<polygon fill="midnightblue" stroke="midnightblue" points="1300.94,-15.27 1290.5,-17.09 1299.8,-22.18 1300.94,-15.27"/>
</g>
<!-- Node23&#45;&gt;Node7 -->
<g id="edge73" class="edge">
<title>Node23&#45;&gt;Node7</title>
<path fill="none" stroke="midnightblue" d="M1132.26,-911.03C974.83,-900.56 588.97,-865.15 286,-758 192.56,-724.95 153.59,-718.37 100,-635 35.65,-534.89 38,-493.51 38,-374.5 38,-374.5 38,-374.5 38,-132 38,-84.86 69.83,-77.08 112,-56 160.02,-31.99 306.9,-19.71 393.74,-14.39"/>
<polygon fill="midnightblue" stroke="midnightblue" points="393.98,-17.88 403.76,-13.79 393.57,-10.89 393.98,-17.88"/>
</g>
<!-- Node23&#45;&gt;Node14 -->
<g id="edge35" class="edge">
<title>Node23&#45;&gt;Node14</title>
<path fill="none" stroke="midnightblue" d="M1248.22,-906.44C1298.59,-893.83 1374,-864.94 1374,-805 1374,-805 1374,-805 1374,-562.5 1374,-550.99 1071.43,-295.87 1061,-291 1023.88,-273.67 916.92,-259.91 846.19,-252.37"/>
<polygon fill="midnightblue" stroke="midnightblue" points="846.34,-248.86 836.03,-251.3 845.61,-255.82 846.34,-248.86"/>
</g>
<!-- Node24 -->
<g id="node24" class="node">
<title>Node24</title>
<g id="a_node24"><a xlink:href="dma__types_8h.html" target="_top" xlink:title=" ">
<polygon fill="white" stroke="black" points="1112.5,-850.5 1112.5,-869.5 1231.5,-869.5 1231.5,-850.5 1112.5,-850.5"/>
<text text-anchor="middle" x="1172" y="-857.5" font-family="Helvetica,sans-Serif" font-size="10.00">odp/api/dma_types.h</text>
</a>
</g>
</g>
<!-- Node23&#45;&gt;Node24 -->
<g id="edge36" class="edge">
<title>Node23&#45;&gt;Node24</title>
<path fill="none" stroke="midnightblue" d="M1198.72,-906.08C1194.29,-898.61 1187.84,-887.72 1182.38,-878.52"/>
<polygon fill="midnightblue" stroke="midnightblue" points="1185.29,-876.57 1177.19,-869.75 1179.27,-880.14 1185.29,-876.57"/>
</g>
<!-- Node25 -->
<g id="node25" class="node">
<title>Node25</title>
<g id="a_node25"><a xlink:title=" ">
<polygon fill="white" stroke="#bfbfbf" points="1103.5,-794.5 1103.5,-813.5 1240.5,-813.5 1240.5,-794.5 1103.5,-794.5"/>
<text text-anchor="middle" x="1172" y="-801.5" font-family="Helvetica,sans-Serif" font-size="10.00">odp/api/abi/dma_types.h</text>
</a>
</g>
</g>
<!-- Node24&#45;&gt;Node25 -->
<g id="edge37" class="edge">
<title>Node24&#45;&gt;Node25</title>
<path fill="none" stroke="midnightblue" d="M1172,-850.08C1172,-843.01 1172,-832.86 1172,-823.99"/>
<polygon fill="midnightblue" stroke="midnightblue" points="1175.5,-823.75 1172,-813.75 1168.5,-823.75 1175.5,-823.75"/>
</g>
<!-- Node26 -->
<g id="node26" class="node">
<title>Node26</title>
<g id="a_node26"><a xlink:href="spec_2dma__types_8h.html" target="_top" xlink:title=" ">
<polygon fill="white" stroke="black" points="929,-794.5 929,-813.5 1073,-813.5 1073,-794.5 929,-794.5"/>
<text text-anchor="middle" x="1001" y="-801.5" font-family="Helvetica,sans-Serif" font-size="10.00">odp/api/spec/dma_types.h</text>
</a>
</g>
</g>
<!-- Node24&#45;&gt;Node26 -->
<g id="edge38" class="edge">
<title>Node24&#45;&gt;Node26</title>
<path fill="none" stroke="midnightblue" d="M1144.9,-850.44C1116.01,-841.32 1070.08,-826.81 1037.89,-816.65"/>
<polygon fill="midnightblue" stroke="midnightblue" points="1038.56,-813.19 1027.97,-813.52 1036.45,-819.87 1038.56,-813.19"/>
</g>
<!-- Node26&#45;&gt;Node4 -->
<g id="edge39" class="edge">
<title>Node26&#45;&gt;Node4</title>
<path fill="none" stroke="midnightblue" d="M1038.99,-794.49C1067.76,-787.16 1107.7,-775.05 1140,-758 1219.01,-716.29 1246.14,-707.03 1299,-635 1390.81,-509.9 1420,-462.67 1420,-307.5 1420,-307.5 1420,-307.5 1420,-132 1420,-68.18 1342.78,-36.55 1286.8,-22.01"/>
<polygon fill="midnightblue" stroke="midnightblue" points="1287.51,-18.58 1276.97,-19.57 1285.83,-25.38 1287.51,-18.58"/>
</g>
<!-- Node26&#45;&gt;Node7 -->
<g id="edge72" class="edge">
<title>Node26&#45;&gt;Node7</title>
<path fill="none" stroke="midnightblue" d="M928.67,-800.25C729.9,-791.73 190,-761.77 190,-687.5 190,-687.5 190,-687.5 190,-562.5 190,-464.78 76,-472.22 76,-374.5 76,-374.5 76,-374.5 76,-132 76,-66.17 283.91,-31.7 393.76,-18.09"/>
<polygon fill="midnightblue" stroke="midnightblue" points="394.25,-21.56 403.75,-16.87 393.4,-14.61 394.25,-21.56"/>
</g>
<!-- Node26&#45;&gt;Node11 -->
<g id="edge40" class="edge">
<title>Node26&#45;&gt;Node11</title>
<path fill="none" stroke="midnightblue" d="M928.89,-798.41C752.21,-786.2 312,-749.55 312,-687.5 312,-687.5 312,-687.5 312,-562.5 312,-455.43 322.89,-429.02 326,-322 326.4,-308.23 329.89,-304.22 326,-291 322.99,-280.76 316.85,-270.66 310.99,-262.63"/>
<polygon fill="midnightblue" stroke="midnightblue" points="313.59,-260.27 304.67,-254.54 308.07,-264.58 313.59,-260.27"/>
</g>
<!-- Node26&#45;&gt;Node14 -->
<g id="edge71" class="edge">
<title>Node26&#45;&gt;Node14</title>
<path fill="none" stroke="midnightblue" d="M931.55,-794.46C869.39,-782.47 788,-754.07 788,-687.5 788,-687.5 788,-687.5 788,-624 788,-536.47 862,-529.03 862,-441.5 862,-441.5 862,-441.5 862,-372.5 862,-335.31 863.69,-321.91 843,-291 834.16,-277.79 820.04,-267.18 807.4,-259.58"/>
<polygon fill="midnightblue" stroke="midnightblue" points="808.99,-256.46 798.56,-254.6 805.55,-262.56 808.99,-256.46"/>
</g>
<!-- Node27 -->
<g id="node27" class="node">
<title>Node27</title>
<g id="a_node27"><a xlink:href="packet__types_8h.html" target="_top" xlink:title=" ">
<polygon fill="white" stroke="black" points="936.5,-738.5 936.5,-757.5 1065.5,-757.5 1065.5,-738.5 936.5,-738.5"/>
<text text-anchor="middle" x="1001" y="-745.5" font-family="Helvetica,sans-Serif" font-size="10.00">odp/api/packet_types.h</text>
</a>
</g>
</g>
<!-- Node26&#45;&gt;Node27 -->
<g id="edge41" class="edge">
<title>Node26&#45;&gt;Node27</title>
<path fill="none" stroke="midnightblue" d="M1001,-794.08C1001,-787.01 1001,-776.86 1001,-767.99"/>
<polygon fill="midnightblue" stroke="midnightblue" points="1004.5,-767.75 1001,-757.75 997.5,-767.75 1004.5,-767.75"/>
</g>
<!-- Node26&#45;&gt;Node34 -->
<g id="edge70" class="edge">
<title>Node26&#45;&gt;Node34</title>
<path fill="none" stroke="midnightblue" d="M1027.25,-794.44C1066.38,-780.53 1140.39,-749.71 1187,-702 1203.15,-685.47 1214.09,-660.89 1220.18,-644.2"/>
<polygon fill="midnightblue" stroke="midnightblue" points="1223.56,-645.13 1223.49,-634.53 1216.94,-642.86 1223.56,-645.13"/>
</g>
<!-- Node28 -->
<g id="node28" class="node">
<title>Node28</title>
<g id="a_node28"><a xlink:title=" ">
<polygon fill="white" stroke="#bfbfbf" points="1072,-671.5 1072,-701.5 1178,-701.5 1178,-671.5 1072,-671.5"/>
<text text-anchor="start" x="1080" y="-689.5" font-family="Helvetica,sans-Serif" font-size="10.00">odp/api/abi/packet</text>
<text text-anchor="middle" x="1125" y="-678.5" font-family="Helvetica,sans-Serif" font-size="10.00">_io_types.h</text>
</a>
</g>
</g>
<!-- Node27&#45;&gt;Node28 -->
<g id="edge42" class="edge">
<title>Node27&#45;&gt;Node28</title>
<path fill="none" stroke="midnightblue" d="M1018.77,-738.48C1036.42,-730 1064.07,-716.74 1086.73,-705.86"/>
<polygon fill="midnightblue" stroke="midnightblue" points="1088.27,-709 1095.78,-701.52 1085.25,-702.69 1088.27,-709"/>
</g>
<!-- Node29 -->
<g id="node29" class="node">
<title>Node29</title>
<g id="a_node29"><a xlink:title=" ">
<polygon fill="white" stroke="#bfbfbf" points="948,-671.5 948,-701.5 1054,-701.5 1054,-671.5 948,-671.5"/>
<text text-anchor="start" x="956" y="-689.5" font-family="Helvetica,sans-Serif" font-size="10.00">odp/api/abi/packet</text>
<text text-anchor="middle" x="1001" y="-678.5" font-family="Helvetica,sans-Serif" font-size="10.00">_types.h</text>
</a>
</g>
</g>
<!-- Node27&#45;&gt;Node29 -->
<g id="edge43" class="edge">
<title>Node27&#45;&gt;Node29</title>
<path fill="none" stroke="midnightblue" d="M1001,-738.48C1001,-731.47 1001,-721.19 1001,-711.7"/>
<polygon fill="midnightblue" stroke="midnightblue" points="1004.5,-711.52 1001,-701.52 997.5,-711.52 1004.5,-711.52"/>
</g>
<!-- Node30 -->
<g id="node30" class="node">
<title>Node30</title>
<g id="a_node30"><a xlink:href="spec_2packet__types_8h.html" target="_top" xlink:title=" ">
<polygon fill="white" stroke="black" points="816.5,-671.5 816.5,-701.5 929.5,-701.5 929.5,-671.5 816.5,-671.5"/>
<text text-anchor="start" x="824.5" y="-689.5" font-family="Helvetica,sans-Serif" font-size="10.00">odp/api/spec/packet</text>
<text text-anchor="middle" x="873" y="-678.5" font-family="Helvetica,sans-Serif" font-size="10.00">_types.h</text>
</a>
</g>
</g>
<!-- Node27&#45;&gt;Node30 -->
<g id="edge44" class="edge">
<title>Node27&#45;&gt;Node30</title>
<path fill="none" stroke="midnightblue" d="M982.66,-738.48C964.43,-730 935.9,-716.74 912.5,-705.86"/>
<polygon fill="midnightblue" stroke="midnightblue" points="913.71,-702.56 903.17,-701.52 910.76,-708.91 913.71,-702.56"/>
</g>
<!-- Node30&#45;&gt;Node4 -->
<g id="edge45" class="edge">
<title>Node30&#45;&gt;Node4</title>
<path fill="none" stroke="midnightblue" d="M919.61,-671.35C970.61,-654.48 1053.31,-622.94 1115,-579 1153.63,-551.48 1382,-293.42 1382,-246 1382,-246 1382,-246 1382,-132 1382,-74.18 1313.85,-39.54 1268.81,-22.96"/>
<polygon fill="midnightblue" stroke="midnightblue" points="1269.9,-19.64 1259.31,-19.6 1267.57,-26.24 1269.9,-19.64"/>
</g>
<!-- Node30&#45;&gt;Node7 -->
<g id="edge69" class="edge">
<title>Node30&#45;&gt;Node7</title>
<path fill="none" stroke="midnightblue" d="M816.23,-671.89C717.21,-645.6 511.39,-579.24 384,-456 323.81,-397.77 352.54,-349.89 293,-291 268.97,-267.23 247.63,-280.98 226,-255 203.79,-228.33 192.48,-210.05 208,-179 251.24,-92.53 362.36,-43.61 421.55,-22.9"/>
<polygon fill="midnightblue" stroke="midnightblue" points="422.94,-26.13 431.28,-19.59 420.68,-19.5 422.94,-26.13"/>
</g>
<!-- Node31 -->
<g id="node31" class="node">
<title>Node31</title>
<g id="a_node31"><a xlink:href="proto__stats__types_8h.html" target="_top" xlink:title=" ">
<polygon fill="white" stroke="black" points="724,-358.5 724,-388.5 834,-388.5 834,-358.5 724,-358.5"/>
<text text-anchor="start" x="732" y="-376.5" font-family="Helvetica,sans-Serif" font-size="10.00">odp/api/proto_stats</text>
<text text-anchor="middle" x="779" y="-365.5" font-family="Helvetica,sans-Serif" font-size="10.00">_types.h</text>
</a>
</g>
</g>
<!-- Node30&#45;&gt;Node31 -->
<g id="edge46" class="edge">
<title>Node30&#45;&gt;Node31</title>
<path fill="none" stroke="midnightblue" d="M868.72,-671.33C853.91,-622.35 804.81,-459.88 786.22,-398.37"/>
<polygon fill="midnightblue" stroke="midnightblue" points="789.55,-397.31 783.31,-388.75 782.85,-399.34 789.55,-397.31"/>
</g>
<!-- Node30&#45;&gt;Node34 -->
<g id="edge52" class="edge">
<title>Node30&#45;&gt;Node34</title>
<path fill="none" stroke="midnightblue" d="M929.84,-672.78C932.93,-672.16 936,-671.56 939,-671 1012.06,-657.26 1096.13,-644.42 1154.32,-636.01"/>
<polygon fill="midnightblue" stroke="midnightblue" points="1155.11,-639.43 1164.51,-634.54 1154.11,-632.5 1155.11,-639.43"/>
</g>
<!-- Node32 -->
<g id="node32" class="node">
<title>Node32</title>
<g id="a_node32"><a xlink:title=" ">
<polygon fill="white" stroke="#bfbfbf" points="580,-291.5 580,-321.5 708,-321.5 708,-291.5 580,-291.5"/>
<text text-anchor="start" x="588" y="-309.5" font-family="Helvetica,sans-Serif" font-size="10.00">odp/api/abi/proto_stats</text>
<text text-anchor="middle" x="644" y="-298.5" font-family="Helvetica,sans-Serif" font-size="10.00">_types.h</text>
</a>
</g>
</g>
<!-- Node31&#45;&gt;Node32 -->
<g id="edge47" class="edge">
<title>Node31&#45;&gt;Node32</title>
<path fill="none" stroke="midnightblue" d="M749.71,-358.4C729.98,-348.9 703.77,-336.28 682.38,-325.98"/>
<polygon fill="midnightblue" stroke="midnightblue" points="683.76,-322.76 673.24,-321.58 680.73,-329.07 683.76,-322.76"/>
</g>
<!-- Node33 -->
<g id="node33" class="node">
<title>Node33</title>
<g id="a_node33"><a xlink:href="spec_2proto__stats__types_8h.html" target="_top" xlink:title=" ">
<polygon fill="white" stroke="black" points="726.5,-291.5 726.5,-321.5 833.5,-321.5 833.5,-291.5 726.5,-291.5"/>
<text text-anchor="start" x="734.5" y="-309.5" font-family="Helvetica,sans-Serif" font-size="10.00">odp/api/spec/proto</text>
<text text-anchor="middle" x="780" y="-298.5" font-family="Helvetica,sans-Serif" font-size="10.00">_stats_types.h</text>
</a>
</g>
</g>
<!-- Node31&#45;&gt;Node33 -->
<g id="edge48" class="edge">
<title>Node31&#45;&gt;Node33</title>
<path fill="none" stroke="midnightblue" d="M779.22,-358.4C779.34,-350.64 779.49,-340.81 779.63,-331.86"/>
<polygon fill="midnightblue" stroke="midnightblue" points="783.13,-331.63 779.78,-321.58 776.13,-331.52 783.13,-331.63"/>
</g>
<!-- Node33&#45;&gt;Node4 -->
<g id="edge49" class="edge">
<title>Node33&#45;&gt;Node4</title>
<path fill="none" stroke="midnightblue" d="M833.77,-299.04C908.35,-289.65 1039.07,-271.56 1084,-255 1136.56,-235.62 1192,-246.02 1192,-190 1192,-190 1192,-190 1192,-132 1192,-93.81 1209.44,-51.83 1220.69,-28.72"/>
<polygon fill="midnightblue" stroke="midnightblue" points="1223.96,-30.02 1225.34,-19.52 1217.71,-26.86 1223.96,-30.02"/>
</g>
<!-- Node33&#45;&gt;Node7 -->
<g id="edge51" class="edge">
<title>Node33&#45;&gt;Node7</title>
<path fill="none" stroke="midnightblue" d="M741.18,-291.43C701.31,-275.09 640.13,-244.41 604,-199 562.35,-146.65 601.46,-105.99 557,-56 543.13,-40.41 522.74,-29.83 504.23,-22.87"/>
<polygon fill="midnightblue" stroke="midnightblue" points="505.36,-19.56 494.76,-19.56 503.04,-26.17 505.36,-19.56"/>
</g>
<!-- Node33&#45;&gt;Node14 -->
<g id="edge50" class="edge">
<title>Node33&#45;&gt;Node14</title>
<path fill="none" stroke="midnightblue" d="M780,-291.4C780,-283.47 780,-273.46 780,-264.86"/>
<polygon fill="midnightblue" stroke="midnightblue" points="783.5,-264.66 780,-254.66 776.5,-264.66 783.5,-264.66"/>
</g>
<!-- Node35 -->
<g id="node35" class="node">
<title>Node35</title>
<g id="a_node35"><a xlink:title=" ">
<polygon fill="white" stroke="#bfbfbf" points="1162.5,-554 1162.5,-573 1307.5,-573 1307.5,-554 1162.5,-554"/>
<text text-anchor="middle" x="1235" y="-561" font-family="Helvetica,sans-Serif" font-size="10.00">odp/api/abi/queue_types.h</text>
</a>
</g>
</g>
<!-- Node34&#45;&gt;Node35 -->
<g id="edge53" class="edge">
<title>Node34&#45;&gt;Node35</title>
<path fill="none" stroke="midnightblue" d="M1227.29,-615.48C1228.56,-607.08 1230.54,-593.98 1232.18,-583.16"/>
<polygon fill="midnightblue" stroke="midnightblue" points="1235.68,-583.42 1233.71,-573.01 1228.76,-582.37 1235.68,-583.42"/>
</g>
<!-- Node36 -->
<g id="node36" class="node">
<title>Node36</title>
<g id="a_node36"><a xlink:href="spec_2queue__types_8h.html" target="_top" xlink:title=" ">
<polygon fill="white" stroke="black" points="994.5,-548.5 994.5,-578.5 1105.5,-578.5 1105.5,-548.5 994.5,-548.5"/>
<text text-anchor="start" x="1002.5" y="-566.5" font-family="Helvetica,sans-Serif" font-size="10.00">odp/api/spec/queue</text>
<text text-anchor="middle" x="1050" y="-555.5" font-family="Helvetica,sans-Serif" font-size="10.00">_types.h</text>
</a>
</g>
</g>
<!-- Node34&#45;&gt;Node36 -->
<g id="edge54" class="edge">
<title>Node34&#45;&gt;Node36</title>
<path fill="none" stroke="midnightblue" d="M1200.78,-615.48C1174.94,-606.74 1134.03,-592.91 1101.34,-581.86"/>
<polygon fill="midnightblue" stroke="midnightblue" points="1102.07,-578.41 1091.48,-578.52 1099.83,-585.04 1102.07,-578.41"/>
</g>
<!-- Node36&#45;&gt;Node4 -->
<g id="edge55" class="edge">
<title>Node36&#45;&gt;Node4</title>
<path fill="none" stroke="midnightblue" d="M1076.18,-548.3C1092.22,-539 1112.71,-526.01 1129,-512 1236.66,-419.4 1306,-388 1306,-246 1306,-246 1306,-246 1306,-132 1306,-88.48 1270.3,-47.77 1247.84,-26.47"/>
<polygon fill="midnightblue" stroke="midnightblue" points="1249.99,-23.7 1240.25,-19.53 1245.27,-28.86 1249.99,-23.7"/>
</g>
<!-- Node36&#45;&gt;Node7 -->
<g id="edge68" class="edge">
<title>Node36&#45;&gt;Node7</title>
<path fill="none" stroke="midnightblue" d="M994.41,-558.2C835.06,-545.12 388,-502.95 388,-441.5 388,-441.5 388,-441.5 388,-244 388,-160.44 348.53,-129.1 389,-56 396.93,-41.68 411.53,-31.28 425.44,-24.1"/>
<polygon fill="midnightblue" stroke="midnightblue" points="427.33,-27.08 434.87,-19.64 424.33,-20.75 427.33,-27.08"/>
</g>
<!-- Node37 -->
<g id="node37" class="node">
<title>Node37</title>
<g id="a_node37"><a xlink:href="schedule__types_8h.html" target="_top" xlink:title=" ">
<polygon fill="white" stroke="black" points="980,-492.5 980,-511.5 1120,-511.5 1120,-492.5 980,-492.5"/>
<text text-anchor="middle" x="1050" y="-499.5" font-family="Helvetica,sans-Serif" font-size="10.00">odp/api/schedule_types.h</text>
</a>
</g>
</g>
<!-- Node36&#45;&gt;Node37 -->
<g id="edge56" class="edge">
<title>Node36&#45;&gt;Node37</title>
<path fill="none" stroke="midnightblue" d="M1050,-548.4C1050,-540.47 1050,-530.46 1050,-521.86"/>
<polygon fill="midnightblue" stroke="midnightblue" points="1053.5,-521.66 1050,-511.66 1046.5,-521.66 1053.5,-521.66"/>
</g>
<!-- Node38 -->
<g id="node38" class="node">
<title>Node38</title>
<g id="a_node38"><a xlink:title=" ">
<polygon fill="white" stroke="#bfbfbf" points="1051.5,-425.5 1051.5,-455.5 1168.5,-455.5 1168.5,-425.5 1051.5,-425.5"/>
<text text-anchor="start" x="1059.5" y="-443.5" font-family="Helvetica,sans-Serif" font-size="10.00">odp/api/abi/schedule</text>
<text text-anchor="middle" x="1110" y="-432.5" font-family="Helvetica,sans-Serif" font-size="10.00">_types.h</text>
</a>
</g>
</g>
<!-- Node37&#45;&gt;Node38 -->
<g id="edge57" class="edge">
<title>Node37&#45;&gt;Node38</title>
<path fill="none" stroke="midnightblue" d="M1058.6,-492.48C1066.42,-484.72 1078.29,-472.94 1088.66,-462.66"/>
<polygon fill="midnightblue" stroke="midnightblue" points="1091.22,-465.05 1095.86,-455.52 1086.29,-460.08 1091.22,-465.05"/>
</g>
<!-- Node39 -->
<g id="node39" class="node">
<title>Node39</title>
<g id="a_node39"><a xlink:href="spec_2schedule__types_8h.html" target="_top" xlink:title=" ">
<polygon fill="white" stroke="black" points="908.5,-425.5 908.5,-455.5 1033.5,-455.5 1033.5,-425.5 908.5,-425.5"/>
<text text-anchor="start" x="916.5" y="-443.5" font-family="Helvetica,sans-Serif" font-size="10.00">odp/api/spec/schedule</text>
<text text-anchor="middle" x="971" y="-432.5" font-family="Helvetica,sans-Serif" font-size="10.00">_types.h</text>
</a>
</g>
</g>
<!-- Node37&#45;&gt;Node39 -->
<g id="edge58" class="edge">
<title>Node37&#45;&gt;Node39</title>
<path fill="none" stroke="midnightblue" d="M1038.68,-492.48C1028.08,-484.49 1011.83,-472.25 997.91,-461.77"/>
<polygon fill="midnightblue" stroke="midnightblue" points="999.71,-458.74 989.62,-455.52 995.5,-464.33 999.71,-458.74"/>
</g>
<!-- Node39&#45;&gt;Node4 -->
<g id="edge59" class="edge">
<title>Node39&#45;&gt;Node4</title>
<path fill="none" stroke="midnightblue" d="M1017.45,-425.44C1088.1,-403.18 1217.7,-358.57 1249,-322 1271.64,-295.55 1268,-280.82 1268,-246 1268,-246 1268,-246 1268,-132 1268,-93.81 1250.56,-51.83 1239.31,-28.72"/>
<polygon fill="midnightblue" stroke="midnightblue" points="1242.29,-26.86 1234.66,-19.52 1236.04,-30.02 1242.29,-26.86"/>
</g>
<!-- Node39&#45;&gt;Node7 -->
<g id="edge67" class="edge">
<title>Node39&#45;&gt;Node7</title>
<path fill="none" stroke="midnightblue" d="M908.26,-435.13C781.58,-424.84 502.51,-394.31 446,-322 437.52,-311.14 443.5,-304.55 446,-291 463.63,-195.55 506.37,-182.45 524,-87 526.5,-73.45 530.35,-68.23 524,-56 516.85,-42.23 503.33,-31.78 490.55,-24.44"/>
<polygon fill="midnightblue" stroke="midnightblue" points="491.96,-21.23 481.48,-19.64 488.68,-27.41 491.96,-21.23"/>
</g>
<!-- Node39&#45;&gt;Node14 -->
<g id="edge60" class="edge">
<title>Node39&#45;&gt;Node14</title>
<path fill="none" stroke="midnightblue" d="M957.69,-425.08C949,-415.29 937.69,-401.85 929,-389 901.25,-347.99 912,-324.99 876,-291 860.16,-276.04 838.44,-265.3 819.67,-258.06"/>
<polygon fill="midnightblue" stroke="midnightblue" points="820.76,-254.74 810.17,-254.6 818.37,-261.31 820.76,-254.74"/>
</g>
<!-- Node40 -->
<g id="node40" class="node">
<title>Node40</title>
<g id="a_node40"><a xlink:href="thrmask_8h.html" target="_top" xlink:title=" ">
<polygon fill="white" stroke="black" points="937.5,-364 937.5,-383 1042.5,-383 1042.5,-364 937.5,-364"/>
<text text-anchor="middle" x="990" y="-371" font-family="Helvetica,sans-Serif" font-size="10.00">odp/api/thrmask.h</text>
</a>
</g>
</g>
<!-- Node39&#45;&gt;Node40 -->
<g id="edge61" class="edge">
<title>Node39&#45;&gt;Node40</title>
<path fill="none" stroke="midnightblue" d="M975.12,-425.4C977.91,-415.86 981.62,-403.18 984.63,-392.86"/>
<polygon fill="midnightblue" stroke="midnightblue" points="988.01,-393.77 987.46,-383.19 981.29,-391.81 988.01,-393.77"/>
</g>
<!-- Node41 -->
<g id="node41" class="node">
<title>Node41</title>
<g id="a_node41"><a xlink:title=" ">
<polygon fill="white" stroke="#bfbfbf" points="928.5,-297 928.5,-316 1051.5,-316 1051.5,-297 928.5,-297"/>
<text text-anchor="middle" x="990" y="-304" font-family="Helvetica,sans-Serif" font-size="10.00">odp/api/abi/thrmask.h</text>
</a>
</g>
</g>
<!-- Node40&#45;&gt;Node41 -->
<g id="edge62" class="edge">
<title>Node40&#45;&gt;Node41</title>
<path fill="none" stroke="midnightblue" d="M990,-363.73C990,-354.18 990,-338.62 990,-326.28"/>
<polygon fill="midnightblue" stroke="midnightblue" points="993.5,-326.13 990,-316.13 986.5,-326.13 993.5,-326.13"/>
</g>
<!-- Node42 -->
<g id="node42" class="node">
<title>Node42</title>
<g id="a_node42"><a xlink:href="spec_2thrmask_8h.html" target="_top" xlink:title=" ">
<polygon fill="white" stroke="black" points="1108.5,-297 1108.5,-316 1239.5,-316 1239.5,-297 1108.5,-297"/>
<text text-anchor="middle" x="1174" y="-304" font-family="Helvetica,sans-Serif" font-size="10.00">odp/api/spec/thrmask.h</text>
</a>
</g>
</g>
<!-- Node40&#45;&gt;Node42 -->
<g id="edge63" class="edge">
<title>Node40&#45;&gt;Node42</title>
<path fill="none" stroke="midnightblue" d="M1014.43,-363.87C1046.69,-352.47 1103.65,-332.35 1140.07,-319.49"/>
<polygon fill="midnightblue" stroke="midnightblue" points="1141.5,-322.69 1149.76,-316.06 1139.16,-316.09 1141.5,-322.69"/>
</g>
<!-- Node42&#45;&gt;Node4 -->
<g id="edge64" class="edge">
<title>Node42&#45;&gt;Node4</title>
<path fill="none" stroke="midnightblue" d="M1181.55,-296.92C1196.84,-278.63 1230,-233.9 1230,-190 1230,-190 1230,-190 1230,-132 1230,-95.71 1230,-53.31 1230,-29.56"/>
<polygon fill="midnightblue" stroke="midnightblue" points="1233.5,-29.51 1230,-19.51 1226.5,-29.51 1233.5,-29.51"/>
</g>
<!-- Node42&#45;&gt;Node7 -->
<g id="edge66" class="edge">
<title>Node42&#45;&gt;Node7</title>
<path fill="none" stroke="midnightblue" d="M1127.48,-296.93C1081.3,-288.01 1008.66,-272.85 947,-255 876.24,-234.52 856.67,-232.37 791,-199 690.01,-147.68 680.63,-108.03 580,-56 553.6,-42.35 522.07,-30.69 497.96,-22.66"/>
<polygon fill="midnightblue" stroke="midnightblue" points="499.04,-19.33 488.45,-19.56 496.87,-25.99 499.04,-19.33"/>
</g>
<!-- Node42&#45;&gt;Node14 -->
<g id="edge65" class="edge">
<title>Node42&#45;&gt;Node14</title>
<path fill="none" stroke="midnightblue" d="M1128.36,-296.93C1117.14,-294.9 1105.15,-292.81 1094,-291 1008.78,-277.17 910.18,-263.41 846.54,-254.81"/>
<polygon fill="midnightblue" stroke="midnightblue" points="846.63,-251.29 836.25,-253.42 845.69,-258.23 846.63,-251.29"/>
</g>
</g>
</svg>
