<?xml version="1.0" encoding="UTF-8" standalone="no"?>
<!DOCTYPE svg PUBLIC "-//W3C//DTD SVG 1.1//EN"
 "http://www.w3.org/Graphics/SVG/1.1/DTD/svg11.dtd">
<!-- Generated by graphviz version 2.43.0 (0)
 -->
<!-- Title: traffic_mngr.h Pages: 1 -->
<svg width="1624pt" height="1236pt"
 viewBox="0.00 0.00 1624.00 1236.00" xmlns="http://www.w3.org/2000/svg" xmlns:xlink="http://www.w3.org/1999/xlink">
<g id="graph0" class="graph" transform="scale(1 1) rotate(0) translate(4 1232)">
<title>traffic_mngr.h</title>
<polygon fill="white" stroke="transparent" points="-4,4 -4,-1232 1620,-1232 1620,4 -4,4"/>
<!-- Node1 -->
<g id="node1" class="node">
<title>Node1</title>
<g id="a_node1"><a xlink:title=" ">
<polygon fill="#bfbfbf" stroke="black" points="122,-1208.5 122,-1227.5 206,-1227.5 206,-1208.5 122,-1208.5"/>
<text text-anchor="middle" x="164" y="-1215.5" font-family="Helvetica,sans-Serif" font-size="10.00">traffic_mngr.h</text>
</a>
</g>
</g>
<!-- Node2 -->
<g id="node2" class="node">
<title>Node2</title>
<g id="a_node2"><a xlink:title=" ">
<polygon fill="white" stroke="#bfbfbf" points="51,-1141.5 51,-1171.5 153,-1171.5 153,-1141.5 51,-1141.5"/>
<text text-anchor="start" x="59" y="-1159.5" font-family="Helvetica,sans-Serif" font-size="10.00">odp/api/abi/traffic</text>
<text text-anchor="middle" x="102" y="-1148.5" font-family="Helvetica,sans-Serif" font-size="10.00">_mngr.h</text>
</a>
</g>
</g>
<!-- Node1&#45;&gt;Node2 -->
<g id="edge1" class="edge">
<title>Node1&#45;&gt;Node2</title>
<path fill="none" stroke="midnightblue" d="M155.12,-1208.48C147.03,-1200.72 134.76,-1188.94 124.05,-1178.66"/>
<polygon fill="midnightblue" stroke="midnightblue" points="126.25,-1175.92 116.61,-1171.52 121.4,-1180.97 126.25,-1175.92"/>
</g>
<!-- Node3 -->
<g id="node3" class="node">
<title>Node3</title>
<g id="a_node3"><a xlink:href="spec_2traffic__mngr_8h.html" target="_top" xlink:title=" ">
<polygon fill="white" stroke="black" points="171,-1141.5 171,-1171.5 281,-1171.5 281,-1141.5 171,-1141.5"/>
<text text-anchor="start" x="179" y="-1159.5" font-family="Helvetica,sans-Serif" font-size="10.00">odp/api/spec/traffic</text>
<text text-anchor="middle" x="226" y="-1148.5" font-family="Helvetica,sans-Serif" font-size="10.00">_mngr.h</text>
</a>
</g>
</g>
<!-- Node1&#45;&gt;Node3 -->
<g id="edge2" class="edge">
<title>Node1&#45;&gt;Node3</title>
<path fill="none" stroke="midnightblue" d="M172.88,-1208.48C180.97,-1200.72 193.24,-1188.94 203.95,-1178.66"/>
<polygon fill="midnightblue" stroke="midnightblue" points="206.6,-1180.97 211.39,-1171.52 201.75,-1175.92 206.6,-1180.97"/>
</g>
<!-- Node4 -->
<g id="node4" class="node">
<title>Node4</title>
<g id="a_node4"><a xlink:title=" ">
<polygon fill="white" stroke="#bfbfbf" points="186.5,-0.5 186.5,-19.5 307.5,-19.5 307.5,-0.5 186.5,-0.5"/>
<text text-anchor="middle" x="247" y="-7.5" font-family="Helvetica,sans-Serif" font-size="10.00">odp/visibility_begin.h</text>
</a>
</g>
</g>
<!-- Node3&#45;&gt;Node4 -->
<g id="edge3" class="edge">
<title>Node3&#45;&gt;Node4</title>
<path fill="none" stroke="midnightblue" d="M181.08,-1141.44C115.17,-1119.43 0,-1075.17 0,-1034.5 0,-1034.5 0,-1034.5 0,-132 0,-92.97 12.51,-79.06 44,-56 82.07,-28.12 134.19,-16.98 176.09,-12.75"/>
<polygon fill="midnightblue" stroke="midnightblue" points="176.58,-16.22 186.23,-11.84 175.96,-9.25 176.58,-16.22"/>
</g>
<!-- Node5 -->
<g id="node5" class="node">
<title>Node5</title>
<g id="a_node5"><a xlink:href="packet__io__types_8h.html" target="_top" xlink:title=" ">
<polygon fill="white" stroke="black" points="204.5,-1085.5 204.5,-1104.5 347.5,-1104.5 347.5,-1085.5 204.5,-1085.5"/>
<text text-anchor="middle" x="276" y="-1092.5" font-family="Helvetica,sans-Serif" font-size="10.00">odp/api/packet_io_types.h</text>
</a>
</g>
</g>
<!-- Node3&#45;&gt;Node5 -->
<g id="edge4" class="edge">
<title>Node3&#45;&gt;Node5</title>
<path fill="none" stroke="midnightblue" d="M237.85,-1141.4C245.11,-1132.75 254.45,-1121.64 262.07,-1112.58"/>
<polygon fill="midnightblue" stroke="midnightblue" points="264.97,-1114.57 268.72,-1104.66 259.61,-1110.06 264.97,-1114.57"/>
</g>
<!-- Node14 -->
<g id="node14" class="node">
<title>Node14</title>
<g id="a_node14"><a xlink:href="std__types_8h.html" target="_top" xlink:title=" ">
<polygon fill="white" stroke="black" points="704,-235.5 704,-254.5 816,-254.5 816,-235.5 704,-235.5"/>
<text text-anchor="middle" x="760" y="-242.5" font-family="Helvetica,sans-Serif" font-size="10.00">odp/api/std_types.h</text>
</a>
</g>
</g>
<!-- Node3&#45;&gt;Node14 -->
<g id="edge80" class="edge">
<title>Node3&#45;&gt;Node14</title>
<path fill="none" stroke="midnightblue" d="M215.88,-1141.38C201.27,-1119.57 176,-1075.87 176,-1034.5 176,-1034.5 176,-1034.5 176,-685.5 176,-579.94 328,-608.56 328,-503 328,-503 328,-503 328,-439.5 328,-418.22 430.48,-301.49 449,-291 469.87,-279.18 608.82,-262.36 693.77,-252.99"/>
<polygon fill="midnightblue" stroke="midnightblue" points="694.29,-256.46 703.85,-251.89 693.53,-249.5 694.29,-256.46"/>
</g>
<!-- Node21 -->
<g id="node21" class="node">
<title>Node21</title>
<g id="a_node21"><a xlink:title=" ">
<polygon fill="white" stroke="#bfbfbf" points="1128,-0.5 1128,-19.5 1240,-19.5 1240,-0.5 1128,-0.5"/>
<text text-anchor="middle" x="1184" y="-7.5" font-family="Helvetica,sans-Serif" font-size="10.00">odp/visibility_end.h</text>
</a>
</g>
</g>
<!-- Node3&#45;&gt;Node21 -->
<g id="edge81" class="edge">
<title>Node3&#45;&gt;Node21</title>
<path fill="none" stroke="midnightblue" d="M281.35,-1153.63C539.87,-1144.56 1616,-1102.7 1616,-1034.5 1616,-1034.5 1616,-1034.5 1616,-132 1616,-90.82 1598.32,-77.17 1563,-56 1511.73,-25.27 1344.47,-15.5 1250.18,-12.41"/>
<polygon fill="midnightblue" stroke="midnightblue" points="1250.28,-8.92 1240.18,-12.1 1250.06,-15.91 1250.28,-8.92"/>
</g>
<!-- Node6 -->
<g id="node6" class="node">
<title>Node6</title>
<g id="a_node6"><a xlink:title=" ">
<polygon fill="white" stroke="#bfbfbf" points="574,-671.5 574,-701.5 680,-701.5 680,-671.5 574,-671.5"/>
<text text-anchor="start" x="582" y="-689.5" font-family="Helvetica,sans-Serif" font-size="10.00">odp/api/abi/packet</text>
<text text-anchor="middle" x="627" y="-678.5" font-family="Helvetica,sans-Serif" font-size="10.00">_io_types.h</text>
</a>
</g>
</g>
<!-- Node5&#45;&gt;Node6 -->
<g id="edge5" class="edge">
<title>Node5&#45;&gt;Node6</title>
<path fill="none" stroke="midnightblue" d="M273.06,-1085.31C266.65,-1065.59 252,-1015.83 252,-973 252,-973 252,-973 252,-803 252,-735.19 507.19,-708.47 563.73,-701.48"/>
<polygon fill="midnightblue" stroke="midnightblue" points="564.52,-704.9 573.93,-700.04 563.54,-697.97 564.52,-704.9"/>
</g>
<!-- Node7 -->
<g id="node7" class="node">
<title>Node7</title>
<g id="a_node7"><a xlink:href="spec_2packet__io__types_8h.html" target="_top" xlink:title=" ">
<polygon fill="white" stroke="black" points="553.5,-1018.5 553.5,-1048.5 666.5,-1048.5 666.5,-1018.5 553.5,-1018.5"/>
<text text-anchor="start" x="561.5" y="-1036.5" font-family="Helvetica,sans-Serif" font-size="10.00">odp/api/spec/packet</text>
<text text-anchor="middle" x="610" y="-1025.5" font-family="Helvetica,sans-Serif" font-size="10.00">_io_types.h</text>
</a>
</g>
</g>
<!-- Node5&#45;&gt;Node7 -->
<g id="edge6" class="edge">
<title>Node5&#45;&gt;Node7</title>
<path fill="none" stroke="midnightblue" d="M323.85,-1085.48C381.38,-1075.23 478.27,-1057.97 543.17,-1046.41"/>
<polygon fill="midnightblue" stroke="midnightblue" points="544.06,-1049.8 553.29,-1044.6 542.84,-1042.91 544.06,-1049.8"/>
</g>
<!-- Node7&#45;&gt;Node4 -->
<g id="edge7" class="edge">
<title>Node7&#45;&gt;Node4</title>
<path fill="none" stroke="midnightblue" d="M553.33,-1032.95C408.83,-1032.56 38,-1021.41 38,-917 38,-917 38,-917 38,-132 38,-94.24 46.69,-79.81 76,-56 104.18,-33.11 142.82,-21.76 176.24,-16.18"/>
<polygon fill="midnightblue" stroke="midnightblue" points="177.07,-19.6 186.42,-14.63 176.01,-12.68 177.07,-19.6"/>
</g>
<!-- Node8 -->
<g id="node8" class="node">
<title>Node8</title>
<g id="a_node8"><a xlink:href="packet__types_8h.html" target="_top" xlink:title=" ">
<polygon fill="white" stroke="black" points="392.5,-738.5 392.5,-757.5 521.5,-757.5 521.5,-738.5 392.5,-738.5"/>
<text text-anchor="middle" x="457" y="-745.5" font-family="Helvetica,sans-Serif" font-size="10.00">odp/api/packet_types.h</text>
</a>
</g>
</g>
<!-- Node7&#45;&gt;Node8 -->
<g id="edge8" class="edge">
<title>Node7&#45;&gt;Node8</title>
<path fill="none" stroke="midnightblue" d="M593.21,-1018.33C571.38,-998.23 536,-959.15 536,-917 536,-917 536,-917 536,-859 536,-818.79 500.75,-783.22 477.34,-764.03"/>
<polygon fill="midnightblue" stroke="midnightblue" points="479.36,-761.17 469.34,-757.72 475.03,-766.66 479.36,-761.17"/>
</g>
<!-- Node7&#45;&gt;Node14 -->
<g id="edge78" class="edge">
<title>Node7&#45;&gt;Node14</title>
<path fill="none" stroke="midnightblue" d="M617.05,-1018.45C639.52,-972.31 708,-820.75 708,-687.5 708,-687.5 708,-687.5 708,-624 708,-484.85 743.01,-319.55 755.58,-264.71"/>
<polygon fill="midnightblue" stroke="midnightblue" points="759.04,-265.26 757.9,-254.73 752.22,-263.68 759.04,-265.26"/>
</g>
<!-- Node7&#45;&gt;Node21 -->
<g id="edge79" class="edge">
<title>Node7&#45;&gt;Node21</title>
<path fill="none" stroke="midnightblue" d="M666.58,-1031.74C873.63,-1028.2 1578,-1009.4 1578,-917 1578,-917 1578,-917 1578,-132 1578,-92.75 1565.79,-77.59 1533,-56 1487.84,-26.27 1338.3,-16.14 1250.3,-12.72"/>
<polygon fill="midnightblue" stroke="midnightblue" points="1250.27,-9.21 1240.15,-12.34 1250.01,-16.21 1250.27,-9.21"/>
</g>
<!-- Node22 -->
<g id="node22" class="node">
<title>Node22</title>
<g id="a_node22"><a xlink:href="queue__types_8h.html" target="_top" xlink:title=" ">
<polygon fill="white" stroke="black" points="813.5,-615.5 813.5,-634.5 940.5,-634.5 940.5,-615.5 813.5,-615.5"/>
<text text-anchor="middle" x="877" y="-622.5" font-family="Helvetica,sans-Serif" font-size="10.00">odp/api/queue_types.h</text>
</a>
</g>
</g>
<!-- Node7&#45;&gt;Node22 -->
<g id="edge72" class="edge">
<title>Node7&#45;&gt;Node22</title>
<path fill="none" stroke="midnightblue" d="M666.51,-1032.13C745.14,-1028.3 878,-1008.32 878,-917 878,-917 878,-917 878,-747 878,-710.71 877.54,-668.31 877.25,-644.56"/>
<polygon fill="midnightblue" stroke="midnightblue" points="880.75,-644.46 877.12,-634.51 873.75,-644.55 880.75,-644.46"/>
</g>
<!-- Node31 -->
<g id="node31" class="node">
<title>Node31</title>
<g id="a_node31"><a xlink:href="packet__io__stats_8h.html" target="_top" xlink:title=" ">
<polygon fill="white" stroke="black" points="540,-738.5 540,-757.5 680,-757.5 680,-738.5 540,-738.5"/>
<text text-anchor="middle" x="610" y="-745.5" font-family="Helvetica,sans-Serif" font-size="10.00">odp/api/packet_io_stats.h</text>
</a>
</g>
</g>
<!-- Node7&#45;&gt;Node31 -->
<g id="edge47" class="edge">
<title>Node7&#45;&gt;Node31</title>
<path fill="none" stroke="midnightblue" d="M610,-1018.28C610,-996.48 610,-953.49 610,-917 610,-917 610,-917 610,-859 610,-826.95 610,-789.64 610,-767.75"/>
<polygon fill="midnightblue" stroke="midnightblue" points="613.5,-767.56 610,-757.56 606.5,-767.56 613.5,-767.56"/>
</g>
<!-- Node33 -->
<g id="node33" class="node">
<title>Node33</title>
<g id="a_node33"><a xlink:href="pool__types_8h.html" target="_top" xlink:title=" ">
<polygon fill="white" stroke="black" points="915,-962.5 915,-981.5 1033,-981.5 1033,-962.5 915,-962.5"/>
<text text-anchor="middle" x="974" y="-969.5" font-family="Helvetica,sans-Serif" font-size="10.00">odp/api/pool_types.h</text>
</a>
</g>
</g>
<!-- Node7&#45;&gt;Node33 -->
<g id="edge53" class="edge">
<title>Node7&#45;&gt;Node33</title>
<path fill="none" stroke="midnightblue" d="M666.88,-1023.2C733.35,-1012.34 842.97,-994.42 911.7,-983.18"/>
<polygon fill="midnightblue" stroke="midnightblue" points="912.64,-986.58 921.94,-981.51 911.51,-979.67 912.64,-986.58"/>
</g>
<!-- Node42 -->
<g id="node42" class="node">
<title>Node42</title>
<g id="a_node42"><a xlink:href="reassembly_8h.html" target="_top" xlink:title=" ">
<polygon fill="white" stroke="black" points="316,-962.5 316,-981.5 436,-981.5 436,-962.5 316,-962.5"/>
<text text-anchor="middle" x="376" y="-969.5" font-family="Helvetica,sans-Serif" font-size="10.00">odp/api/reassembly.h</text>
</a>
</g>
</g>
<!-- Node7&#45;&gt;Node42 -->
<g id="edge73" class="edge">
<title>Node7&#45;&gt;Node42</title>
<path fill="none" stroke="midnightblue" d="M554.84,-1018.47C513.41,-1007.94 457.47,-993.72 419.25,-984"/>
<polygon fill="midnightblue" stroke="midnightblue" points="420.01,-980.58 409.45,-981.51 418.28,-987.36 420.01,-980.58"/>
</g>
<!-- Node8&#45;&gt;Node6 -->
<g id="edge9" class="edge">
<title>Node8&#45;&gt;Node6</title>
<path fill="none" stroke="midnightblue" d="M481.36,-738.48C506.32,-729.74 545.84,-715.91 577.41,-704.86"/>
<polygon fill="midnightblue" stroke="midnightblue" points="578.65,-708.13 586.93,-701.52 576.34,-701.52 578.65,-708.13"/>
</g>
<!-- Node9 -->
<g id="node9" class="node">
<title>Node9</title>
<g id="a_node9"><a xlink:title=" ">
<polygon fill="white" stroke="#bfbfbf" points="450,-671.5 450,-701.5 556,-701.5 556,-671.5 450,-671.5"/>
<text text-anchor="start" x="458" y="-689.5" font-family="Helvetica,sans-Serif" font-size="10.00">odp/api/abi/packet</text>
<text text-anchor="middle" x="503" y="-678.5" font-family="Helvetica,sans-Serif" font-size="10.00">_types.h</text>
</a>
</g>
</g>
<!-- Node8&#45;&gt;Node9 -->
<g id="edge10" class="edge">
<title>Node8&#45;&gt;Node9</title>
<path fill="none" stroke="midnightblue" d="M463.59,-738.48C469.41,-730.94 478.16,-719.63 485.94,-709.57"/>
<polygon fill="midnightblue" stroke="midnightblue" points="488.81,-711.58 492.16,-701.52 483.27,-707.29 488.81,-711.58"/>
</g>
<!-- Node10 -->
<g id="node10" class="node">
<title>Node10</title>
<g id="a_node10"><a xlink:href="spec_2packet__types_8h.html" target="_top" xlink:title=" ">
<polygon fill="white" stroke="black" points="318.5,-671.5 318.5,-701.5 431.5,-701.5 431.5,-671.5 318.5,-671.5"/>
<text text-anchor="start" x="326.5" y="-689.5" font-family="Helvetica,sans-Serif" font-size="10.00">odp/api/spec/packet</text>
<text text-anchor="middle" x="375" y="-678.5" font-family="Helvetica,sans-Serif" font-size="10.00">_types.h</text>
</a>
</g>
</g>
<!-- Node8&#45;&gt;Node10 -->
<g id="edge11" class="edge">
<title>Node8&#45;&gt;Node10</title>
<path fill="none" stroke="midnightblue" d="M445.25,-738.48C434.15,-730.42 417.07,-718.02 402.53,-707.47"/>
<polygon fill="midnightblue" stroke="midnightblue" points="404.48,-704.56 394.33,-701.52 400.36,-710.23 404.48,-704.56"/>
</g>
<!-- Node10&#45;&gt;Node4 -->
<g id="edge12" class="edge">
<title>Node10&#45;&gt;Node4</title>
<path fill="none" stroke="midnightblue" d="M345.61,-671.35C295.52,-645.9 193.11,-587.91 132,-512 72.91,-438.6 76,-401.74 76,-307.5 76,-307.5 76,-307.5 76,-132 76,-96.58 74.84,-80.94 100,-56 120.34,-35.84 149.46,-24.67 176.43,-18.5"/>
<polygon fill="midnightblue" stroke="midnightblue" points="177.17,-21.92 186.24,-16.45 175.74,-15.07 177.17,-21.92"/>
</g>
<!-- Node11 -->
<g id="node11" class="node">
<title>Node11</title>
<g id="a_node11"><a xlink:href="proto__stats__types_8h.html" target="_top" xlink:title=" ">
<polygon fill="white" stroke="black" points="467,-358.5 467,-388.5 577,-388.5 577,-358.5 467,-358.5"/>
<text text-anchor="start" x="475" y="-376.5" font-family="Helvetica,sans-Serif" font-size="10.00">odp/api/proto_stats</text>
<text text-anchor="middle" x="522" y="-365.5" font-family="Helvetica,sans-Serif" font-size="10.00">_types.h</text>
</a>
</g>
</g>
<!-- Node10&#45;&gt;Node11 -->
<g id="edge13" class="edge">
<title>Node10&#45;&gt;Node11</title>
<path fill="none" stroke="midnightblue" d="M381.7,-671.33C404.9,-622.25 481.96,-459.21 510.9,-397.99"/>
<polygon fill="midnightblue" stroke="midnightblue" points="514.15,-399.29 515.26,-388.75 507.82,-396.3 514.15,-399.29"/>
</g>
<!-- Node10&#45;&gt;Node21 -->
<g id="edge46" class="edge">
<title>Node10&#45;&gt;Node21</title>
<path fill="none" stroke="midnightblue" d="M415.85,-671.45C491.82,-645.53 660.18,-589.11 804,-548 867.02,-529.99 888.19,-540.93 947,-512 1041.36,-465.58 1062.93,-424.13 1088,-322 1116.19,-207.13 1015.06,-154.85 1080,-56 1090.57,-39.91 1108.26,-29.54 1126.08,-22.88"/>
<polygon fill="midnightblue" stroke="midnightblue" points="1127.6,-26.06 1135.95,-19.54 1125.36,-19.43 1127.6,-26.06"/>
</g>
<!-- Node10&#45;&gt;Node22 -->
<g id="edge29" class="edge">
<title>Node10&#45;&gt;Node22</title>
<path fill="none" stroke="midnightblue" d="M431.8,-672.59C434.91,-672.02 437.99,-671.48 441,-671 508.71,-660.1 697.22,-642.24 802.85,-632.63"/>
<polygon fill="midnightblue" stroke="midnightblue" points="803.48,-636.08 813.12,-631.69 802.84,-629.11 803.48,-636.08"/>
</g>
<!-- Node12 -->
<g id="node12" class="node">
<title>Node12</title>
<g id="a_node12"><a xlink:title=" ">
<polygon fill="white" stroke="#bfbfbf" points="458,-291.5 458,-321.5 586,-321.5 586,-291.5 458,-291.5"/>
<text text-anchor="start" x="466" y="-309.5" font-family="Helvetica,sans-Serif" font-size="10.00">odp/api/abi/proto_stats</text>
<text text-anchor="middle" x="522" y="-298.5" font-family="Helvetica,sans-Serif" font-size="10.00">_types.h</text>
</a>
</g>
</g>
<!-- Node11&#45;&gt;Node12 -->
<g id="edge14" class="edge">
<title>Node11&#45;&gt;Node12</title>
<path fill="none" stroke="midnightblue" d="M522,-358.4C522,-350.64 522,-340.81 522,-331.86"/>
<polygon fill="midnightblue" stroke="midnightblue" points="525.5,-331.58 522,-321.58 518.5,-331.58 525.5,-331.58"/>
</g>
<!-- Node13 -->
<g id="node13" class="node">
<title>Node13</title>
<g id="a_node13"><a xlink:href="spec_2proto__stats__types_8h.html" target="_top" xlink:title=" ">
<polygon fill="white" stroke="black" points="604.5,-291.5 604.5,-321.5 711.5,-321.5 711.5,-291.5 604.5,-291.5"/>
<text text-anchor="start" x="612.5" y="-309.5" font-family="Helvetica,sans-Serif" font-size="10.00">odp/api/spec/proto</text>
<text text-anchor="middle" x="658" y="-298.5" font-family="Helvetica,sans-Serif" font-size="10.00">_stats_types.h</text>
</a>
</g>
</g>
<!-- Node11&#45;&gt;Node13 -->
<g id="edge15" class="edge">
<title>Node11&#45;&gt;Node13</title>
<path fill="none" stroke="midnightblue" d="M551.51,-358.4C571.38,-348.9 597.79,-336.28 619.34,-325.98"/>
<polygon fill="midnightblue" stroke="midnightblue" points="621.03,-329.05 628.55,-321.58 618.02,-322.73 621.03,-329.05"/>
</g>
<!-- Node13&#45;&gt;Node4 -->
<g id="edge16" class="edge">
<title>Node13&#45;&gt;Node4</title>
<path fill="none" stroke="midnightblue" d="M638.45,-291.49C569.44,-242.05 337.62,-75.93 267.35,-25.58"/>
<polygon fill="midnightblue" stroke="midnightblue" points="269.06,-22.5 258.9,-19.52 264.99,-28.19 269.06,-22.5"/>
</g>
<!-- Node13&#45;&gt;Node14 -->
<g id="edge17" class="edge">
<title>Node13&#45;&gt;Node14</title>
<path fill="none" stroke="midnightblue" d="M682.17,-291.4C698.52,-281.86 720.01,-269.32 736.27,-259.84"/>
<polygon fill="midnightblue" stroke="midnightblue" points="738.28,-262.72 745.16,-254.66 734.76,-256.67 738.28,-262.72"/>
</g>
<!-- Node13&#45;&gt;Node21 -->
<g id="edge28" class="edge">
<title>Node13&#45;&gt;Node21</title>
<path fill="none" stroke="midnightblue" d="M661.36,-291.36C666.02,-275.05 676.09,-248.71 695,-235 772.72,-178.63 825.39,-247.93 908,-199 977.7,-157.72 953.5,-100.78 1021,-56 1049.81,-36.89 1086.6,-25.84 1117.94,-19.48"/>
<polygon fill="midnightblue" stroke="midnightblue" points="1118.74,-22.89 1127.91,-17.57 1117.43,-16.01 1118.74,-22.89"/>
</g>
<!-- Node15 -->
<g id="node15" class="node">
<title>Node15</title>
<g id="a_node15"><a xlink:title=" ">
<polygon fill="white" stroke="#bfbfbf" points="528,-179.5 528,-198.5 658,-198.5 658,-179.5 528,-179.5"/>
<text text-anchor="middle" x="593" y="-186.5" font-family="Helvetica,sans-Serif" font-size="10.00">odp/api/abi/std_types.h</text>
</a>
</g>
</g>
<!-- Node14&#45;&gt;Node15 -->
<g id="edge18" class="edge">
<title>Node14&#45;&gt;Node15</title>
<path fill="none" stroke="midnightblue" d="M733.54,-235.44C705.32,-226.32 660.46,-211.81 629.03,-201.65"/>
<polygon fill="midnightblue" stroke="midnightblue" points="629.93,-198.26 619.34,-198.52 627.78,-204.92 629.93,-198.26"/>
</g>
<!-- Node16 -->
<g id="node16" class="node">
<title>Node16</title>
<g id="a_node16"><a xlink:href="spec_2std__types_8h.html" target="_top" xlink:title=" ">
<polygon fill="white" stroke="black" points="714.5,-179.5 714.5,-198.5 851.5,-198.5 851.5,-179.5 714.5,-179.5"/>
<text text-anchor="middle" x="783" y="-186.5" font-family="Helvetica,sans-Serif" font-size="10.00">odp/api/spec/std_types.h</text>
</a>
</g>
</g>
<!-- Node14&#45;&gt;Node16 -->
<g id="edge19" class="edge">
<title>Node14&#45;&gt;Node16</title>
<path fill="none" stroke="midnightblue" d="M763.8,-235.08C766.91,-227.77 771.42,-217.18 775.29,-208.1"/>
<polygon fill="midnightblue" stroke="midnightblue" points="778.57,-209.32 779.27,-198.75 772.13,-206.58 778.57,-209.32"/>
</g>
<!-- Node16&#45;&gt;Node4 -->
<g id="edge20" class="edge">
<title>Node16&#45;&gt;Node4</title>
<path fill="none" stroke="midnightblue" d="M750.68,-179.43C724.89,-171.85 688.37,-159.46 659,-143 631.97,-127.85 578.42,-68.37 550,-56 475.17,-23.43 381.18,-13.74 317.88,-11.2"/>
<polygon fill="midnightblue" stroke="midnightblue" points="317.72,-7.69 307.6,-10.84 317.48,-14.69 317.72,-7.69"/>
</g>
<!-- Node17 -->
<g id="node17" class="node">
<title>Node17</title>
<g id="a_node17"><a xlink:title=" ">
<polygon fill="white" stroke="#bfbfbf" points="667.5,-123.5 667.5,-142.5 720.5,-142.5 720.5,-123.5 667.5,-123.5"/>
<text text-anchor="middle" x="694" y="-130.5" font-family="Helvetica,sans-Serif" font-size="10.00">stdint.h</text>
</a>
</g>
</g>
<!-- Node16&#45;&gt;Node17 -->
<g id="edge21" class="edge">
<title>Node16&#45;&gt;Node17</title>
<path fill="none" stroke="midnightblue" d="M768.7,-179.32C754.82,-170.9 733.51,-157.97 717.2,-148.07"/>
<polygon fill="midnightblue" stroke="midnightblue" points="718.63,-144.85 708.26,-142.65 715,-150.83 718.63,-144.85"/>
</g>
<!-- Node18 -->
<g id="node18" class="node">
<title>Node18</title>
<g id="a_node18"><a xlink:href="align_8h.html" target="_top" xlink:title=" ">
<polygon fill="white" stroke="black" points="738.5,-123.5 738.5,-142.5 827.5,-142.5 827.5,-123.5 738.5,-123.5"/>
<text text-anchor="middle" x="783" y="-130.5" font-family="Helvetica,sans-Serif" font-size="10.00">odp/api/align.h</text>
</a>
</g>
</g>
<!-- Node16&#45;&gt;Node18 -->
<g id="edge22" class="edge">
<title>Node16&#45;&gt;Node18</title>
<path fill="none" stroke="midnightblue" d="M783,-179.08C783,-172.01 783,-161.86 783,-152.99"/>
<polygon fill="midnightblue" stroke="midnightblue" points="786.5,-152.75 783,-142.75 779.5,-152.75 786.5,-152.75"/>
</g>
<!-- Node16&#45;&gt;Node21 -->
<g id="edge27" class="edge">
<title>Node16&#45;&gt;Node21</title>
<path fill="none" stroke="midnightblue" d="M793.88,-179.18C804.88,-170.21 822.3,-155.85 837,-143 880.11,-105.33 880.68,-81.37 932,-56 990.55,-27.06 1064.92,-16.52 1117.65,-12.79"/>
<polygon fill="midnightblue" stroke="midnightblue" points="1118.14,-16.26 1127.9,-12.13 1117.69,-9.28 1118.14,-16.26"/>
</g>
<!-- Node19 -->
<g id="node19" class="node">
<title>Node19</title>
<g id="a_node19"><a xlink:title=" ">
<polygon fill="white" stroke="#bfbfbf" points="602.5,-62 602.5,-81 709.5,-81 709.5,-62 602.5,-62"/>
<text text-anchor="middle" x="656" y="-69" font-family="Helvetica,sans-Serif" font-size="10.00">odp/api/abi/align.h</text>
</a>
</g>
</g>
<!-- Node18&#45;&gt;Node19 -->
<g id="edge23" class="edge">
<title>Node18&#45;&gt;Node19</title>
<path fill="none" stroke="midnightblue" d="M764.8,-123.48C743.49,-113.49 707.97,-96.85 683.34,-85.31"/>
<polygon fill="midnightblue" stroke="midnightblue" points="684.7,-82.08 674.16,-81.01 681.73,-88.42 684.7,-82.08"/>
</g>
<!-- Node20 -->
<g id="node20" class="node">
<title>Node20</title>
<g id="a_node20"><a xlink:href="spec_2align_8h.html" target="_top" xlink:title=" ">
<polygon fill="white" stroke="black" points="728,-62 728,-81 842,-81 842,-62 728,-62"/>
<text text-anchor="middle" x="785" y="-69" font-family="Helvetica,sans-Serif" font-size="10.00">odp/api/spec/align.h</text>
</a>
</g>
</g>
<!-- Node18&#45;&gt;Node20 -->
<g id="edge24" class="edge">
<title>Node18&#45;&gt;Node20</title>
<path fill="none" stroke="midnightblue" d="M783.29,-123.48C783.57,-115.08 784.01,-101.98 784.37,-91.16"/>
<polygon fill="midnightblue" stroke="midnightblue" points="787.88,-91.12 784.71,-81.01 780.88,-90.89 787.88,-91.12"/>
</g>
<!-- Node20&#45;&gt;Node4 -->
<g id="edge25" class="edge">
<title>Node20&#45;&gt;Node4</title>
<path fill="none" stroke="midnightblue" d="M749.87,-61.95C739.94,-59.76 729.08,-57.58 719,-56 577.52,-33.8 410.34,-20.99 317.74,-15.06"/>
<polygon fill="midnightblue" stroke="midnightblue" points="317.85,-11.56 307.65,-14.42 317.4,-18.55 317.85,-11.56"/>
</g>
<!-- Node20&#45;&gt;Node21 -->
<g id="edge26" class="edge">
<title>Node20&#45;&gt;Node21</title>
<path fill="none" stroke="midnightblue" d="M842.17,-61.98C915.07,-51.1 1040.87,-32.34 1117.84,-20.87"/>
<polygon fill="midnightblue" stroke="midnightblue" points="1118.53,-24.3 1127.9,-19.37 1117.5,-17.38 1118.53,-24.3"/>
</g>
<!-- Node23 -->
<g id="node23" class="node">
<title>Node23</title>
<g id="a_node23"><a xlink:title=" ">
<polygon fill="white" stroke="#bfbfbf" points="941.5,-554 941.5,-573 1086.5,-573 1086.5,-554 941.5,-554"/>
<text text-anchor="middle" x="1014" y="-561" font-family="Helvetica,sans-Serif" font-size="10.00">odp/api/abi/queue_types.h</text>
</a>
</g>
</g>
<!-- Node22&#45;&gt;Node23 -->
<g id="edge30" class="edge">
<title>Node22&#45;&gt;Node23</title>
<path fill="none" stroke="midnightblue" d="M896.63,-615.48C919.82,-605.4 958.62,-588.55 985.21,-577"/>
<polygon fill="midnightblue" stroke="midnightblue" points="986.63,-580.2 994.41,-573.01 983.84,-573.78 986.63,-580.2"/>
</g>
<!-- Node24 -->
<g id="node24" class="node">
<title>Node24</title>
<g id="a_node24"><a xlink:href="spec_2queue__types_8h.html" target="_top" xlink:title=" ">
<polygon fill="white" stroke="black" points="812.5,-548.5 812.5,-578.5 923.5,-578.5 923.5,-548.5 812.5,-548.5"/>
<text text-anchor="start" x="820.5" y="-566.5" font-family="Helvetica,sans-Serif" font-size="10.00">odp/api/spec/queue</text>
<text text-anchor="middle" x="868" y="-555.5" font-family="Helvetica,sans-Serif" font-size="10.00">_types.h</text>
</a>
</g>
</g>
<!-- Node22&#45;&gt;Node24 -->
<g id="edge31" class="edge">
<title>Node22&#45;&gt;Node24</title>
<path fill="none" stroke="midnightblue" d="M875.71,-615.48C874.65,-608.47 873.1,-598.19 871.66,-588.7"/>
<polygon fill="midnightblue" stroke="midnightblue" points="875.08,-587.89 870.12,-578.52 868.16,-588.93 875.08,-587.89"/>
</g>
<!-- Node24&#45;&gt;Node4 -->
<g id="edge32" class="edge">
<title>Node24&#45;&gt;Node4</title>
<path fill="none" stroke="midnightblue" d="M812.23,-553.88C650.04,-527.27 190,-440.1 190,-307.5 190,-307.5 190,-307.5 190,-132 190,-91.59 216.34,-50.21 233.21,-27.85"/>
<polygon fill="midnightblue" stroke="midnightblue" points="236.15,-29.77 239.55,-19.74 230.63,-25.46 236.15,-29.77"/>
</g>
<!-- Node24&#45;&gt;Node21 -->
<g id="edge45" class="edge">
<title>Node24&#45;&gt;Node21</title>
<path fill="none" stroke="midnightblue" d="M919.92,-548.44C1006.94,-521.56 1178.28,-453.5 1235,-322 1256.23,-272.77 1239.92,-101.07 1222,-56 1217.64,-45.03 1209.47,-34.79 1201.83,-26.87"/>
<polygon fill="midnightblue" stroke="midnightblue" points="1204.13,-24.22 1194.52,-19.77 1199.26,-29.25 1204.13,-24.22"/>
</g>
<!-- Node25 -->
<g id="node25" class="node">
<title>Node25</title>
<g id="a_node25"><a xlink:href="schedule__types_8h.html" target="_top" xlink:title=" ">
<polygon fill="white" stroke="black" points="798,-492.5 798,-511.5 938,-511.5 938,-492.5 798,-492.5"/>
<text text-anchor="middle" x="868" y="-499.5" font-family="Helvetica,sans-Serif" font-size="10.00">odp/api/schedule_types.h</text>
</a>
</g>
</g>
<!-- Node24&#45;&gt;Node25 -->
<g id="edge33" class="edge">
<title>Node24&#45;&gt;Node25</title>
<path fill="none" stroke="midnightblue" d="M868,-548.4C868,-540.47 868,-530.46 868,-521.86"/>
<polygon fill="midnightblue" stroke="midnightblue" points="871.5,-521.66 868,-511.66 864.5,-521.66 871.5,-521.66"/>
</g>
<!-- Node26 -->
<g id="node26" class="node">
<title>Node26</title>
<g id="a_node26"><a xlink:title=" ">
<polygon fill="white" stroke="#bfbfbf" points="891.5,-425.5 891.5,-455.5 1008.5,-455.5 1008.5,-425.5 891.5,-425.5"/>
<text text-anchor="start" x="899.5" y="-443.5" font-family="Helvetica,sans-Serif" font-size="10.00">odp/api/abi/schedule</text>
<text text-anchor="middle" x="950" y="-432.5" font-family="Helvetica,sans-Serif" font-size="10.00">_types.h</text>
</a>
</g>
</g>
<!-- Node25&#45;&gt;Node26 -->
<g id="edge34" class="edge">
<title>Node25&#45;&gt;Node26</title>
<path fill="none" stroke="midnightblue" d="M879.75,-492.48C890.85,-484.42 907.93,-472.02 922.47,-461.47"/>
<polygon fill="midnightblue" stroke="midnightblue" points="924.64,-464.23 930.67,-455.52 920.52,-458.56 924.64,-464.23"/>
</g>
<!-- Node27 -->
<g id="node27" class="node">
<title>Node27</title>
<g id="a_node27"><a xlink:href="spec_2schedule__types_8h.html" target="_top" xlink:title=" ">
<polygon fill="white" stroke="black" points="748.5,-425.5 748.5,-455.5 873.5,-455.5 873.5,-425.5 748.5,-425.5"/>
<text text-anchor="start" x="756.5" y="-443.5" font-family="Helvetica,sans-Serif" font-size="10.00">odp/api/spec/schedule</text>
<text text-anchor="middle" x="811" y="-432.5" font-family="Helvetica,sans-Serif" font-size="10.00">_types.h</text>
</a>
</g>
</g>
<!-- Node25&#45;&gt;Node27 -->
<g id="edge35" class="edge">
<title>Node25&#45;&gt;Node27</title>
<path fill="none" stroke="midnightblue" d="M859.83,-492.48C852.47,-484.79 841.34,-473.17 831.56,-462.96"/>
<polygon fill="midnightblue" stroke="midnightblue" points="833.88,-460.32 824.43,-455.52 828.82,-465.17 833.88,-460.32"/>
</g>
<!-- Node27&#45;&gt;Node4 -->
<g id="edge36" class="edge">
<title>Node27&#45;&gt;Node4</title>
<path fill="none" stroke="midnightblue" d="M748.21,-435.29C615.87,-425.07 314.88,-394.26 247,-322 223.16,-296.62 228,-280.82 228,-246 228,-246 228,-246 228,-132 228,-95.29 236.64,-53.06 242.27,-29.45"/>
<polygon fill="midnightblue" stroke="midnightblue" points="245.67,-30.28 244.67,-19.73 238.87,-28.6 245.67,-30.28"/>
</g>
<!-- Node27&#45;&gt;Node14 -->
<g id="edge37" class="edge">
<title>Node27&#45;&gt;Node14</title>
<path fill="none" stroke="midnightblue" d="M807.25,-425.27C798.16,-390.8 774.97,-302.81 764.85,-264.4"/>
<polygon fill="midnightblue" stroke="midnightblue" points="768.19,-263.35 762.26,-254.58 761.42,-265.14 768.19,-263.35"/>
</g>
<!-- Node27&#45;&gt;Node21 -->
<g id="edge44" class="edge">
<title>Node27&#45;&gt;Node21</title>
<path fill="none" stroke="midnightblue" d="M873.57,-426.37C934.78,-410.71 1027.39,-379.17 1088,-322 1173.16,-241.67 1179.81,-200.87 1207,-87 1210.2,-73.6 1210.22,-69.4 1207,-56 1204.69,-46.42 1199.98,-36.58 1195.42,-28.56"/>
<polygon fill="midnightblue" stroke="midnightblue" points="1198.29,-26.54 1190.1,-19.81 1192.31,-30.17 1198.29,-26.54"/>
</g>
<!-- Node28 -->
<g id="node28" class="node">
<title>Node28</title>
<g id="a_node28"><a xlink:href="thrmask_8h.html" target="_top" xlink:title=" ">
<polygon fill="white" stroke="black" points="819.5,-364 819.5,-383 924.5,-383 924.5,-364 819.5,-364"/>
<text text-anchor="middle" x="872" y="-371" font-family="Helvetica,sans-Serif" font-size="10.00">odp/api/thrmask.h</text>
</a>
</g>
</g>
<!-- Node27&#45;&gt;Node28 -->
<g id="edge38" class="edge">
<title>Node27&#45;&gt;Node28</title>
<path fill="none" stroke="midnightblue" d="M824.24,-425.4C833.84,-415.16 846.85,-401.3 856.87,-390.62"/>
<polygon fill="midnightblue" stroke="midnightblue" points="859.55,-392.88 863.84,-383.19 854.45,-388.09 859.55,-392.88"/>
</g>
<!-- Node29 -->
<g id="node29" class="node">
<title>Node29</title>
<g id="a_node29"><a xlink:title=" ">
<polygon fill="white" stroke="#bfbfbf" points="955.5,-297 955.5,-316 1078.5,-316 1078.5,-297 955.5,-297"/>
<text text-anchor="middle" x="1017" y="-304" font-family="Helvetica,sans-Serif" font-size="10.00">odp/api/abi/thrmask.h</text>
</a>
</g>
</g>
<!-- Node28&#45;&gt;Node29 -->
<g id="edge39" class="edge">
<title>Node28&#45;&gt;Node29</title>
<path fill="none" stroke="midnightblue" d="M891.25,-363.87C916.17,-352.7 959.79,-333.15 988.53,-320.26"/>
<polygon fill="midnightblue" stroke="midnightblue" points="989.97,-323.45 997.67,-316.17 987.11,-317.06 989.97,-323.45"/>
</g>
<!-- Node30 -->
<g id="node30" class="node">
<title>Node30</title>
<g id="a_node30"><a xlink:href="spec_2thrmask_8h.html" target="_top" xlink:title=" ">
<polygon fill="white" stroke="black" points="806.5,-297 806.5,-316 937.5,-316 937.5,-297 806.5,-297"/>
<text text-anchor="middle" x="872" y="-304" font-family="Helvetica,sans-Serif" font-size="10.00">odp/api/spec/thrmask.h</text>
</a>
</g>
</g>
<!-- Node28&#45;&gt;Node30 -->
<g id="edge40" class="edge">
<title>Node28&#45;&gt;Node30</title>
<path fill="none" stroke="midnightblue" d="M872,-363.73C872,-354.18 872,-338.62 872,-326.28"/>
<polygon fill="midnightblue" stroke="midnightblue" points="875.5,-326.13 872,-316.13 868.5,-326.13 875.5,-326.13"/>
</g>
<!-- Node30&#45;&gt;Node4 -->
<g id="edge41" class="edge">
<title>Node30&#45;&gt;Node4</title>
<path fill="none" stroke="midnightblue" d="M868.51,-296.71C862.15,-281.77 847.21,-251.48 825,-235 780.62,-202.08 757.24,-219.69 706,-199 687.94,-191.71 684.73,-187.07 667,-179 525.64,-114.65 352.02,-49.46 280.36,-23.13"/>
<polygon fill="midnightblue" stroke="midnightblue" points="281.14,-19.69 270.54,-19.54 278.73,-26.26 281.14,-19.69"/>
</g>
<!-- Node30&#45;&gt;Node14 -->
<g id="edge42" class="edge">
<title>Node30&#45;&gt;Node14</title>
<path fill="none" stroke="midnightblue" d="M855.95,-296.98C837.41,-287.12 806.66,-270.79 784.98,-259.27"/>
<polygon fill="midnightblue" stroke="midnightblue" points="786.49,-256.11 776.02,-254.51 783.21,-262.29 786.49,-256.11"/>
</g>
<!-- Node30&#45;&gt;Node21 -->
<g id="edge43" class="edge">
<title>Node30&#45;&gt;Node21</title>
<path fill="none" stroke="midnightblue" d="M903.08,-296.89C947.02,-282.59 1022,-249.49 1022,-190 1022,-190 1022,-190 1022,-132 1022,-96.58 1021.07,-81.16 1046,-56 1065.1,-36.72 1092.56,-25.7 1117.96,-19.4"/>
<polygon fill="midnightblue" stroke="midnightblue" points="1118.96,-22.76 1127.94,-17.13 1117.41,-15.93 1118.96,-22.76"/>
</g>
<!-- Node31&#45;&gt;Node6 -->
<g id="edge48" class="edge">
<title>Node31&#45;&gt;Node6</title>
<path fill="none" stroke="midnightblue" d="M612.44,-738.48C614.46,-731.4 617.44,-720.97 620.17,-711.39"/>
<polygon fill="midnightblue" stroke="midnightblue" points="623.61,-712.1 622.99,-701.52 616.88,-710.18 623.61,-712.1"/>
</g>
<!-- Node32 -->
<g id="node32" class="node">
<title>Node32</title>
<g id="a_node32"><a xlink:href="spec_2packet__io__stats_8h.html" target="_top" xlink:title=" ">
<polygon fill="white" stroke="black" points="736.5,-671.5 736.5,-701.5 849.5,-701.5 849.5,-671.5 736.5,-671.5"/>
<text text-anchor="start" x="744.5" y="-689.5" font-family="Helvetica,sans-Serif" font-size="10.00">odp/api/spec/packet</text>
<text text-anchor="middle" x="793" y="-678.5" font-family="Helvetica,sans-Serif" font-size="10.00">_io_stats.h</text>
</a>
</g>
</g>
<!-- Node31&#45;&gt;Node32 -->
<g id="edge49" class="edge">
<title>Node31&#45;&gt;Node32</title>
<path fill="none" stroke="midnightblue" d="M636.22,-738.48C663.2,-729.7 706,-715.79 740.06,-704.71"/>
<polygon fill="midnightblue" stroke="midnightblue" points="741.44,-707.94 749.87,-701.52 739.28,-701.29 741.44,-707.94"/>
</g>
<!-- Node32&#45;&gt;Node4 -->
<g id="edge50" class="edge">
<title>Node32&#45;&gt;Node4</title>
<path fill="none" stroke="midnightblue" d="M752.42,-671.44C611.51,-621.41 152,-447.51 152,-307.5 152,-307.5 152,-307.5 152,-132 152,-85.25 196.42,-45.86 224.51,-25.62"/>
<polygon fill="midnightblue" stroke="midnightblue" points="226.77,-28.32 232.98,-19.74 222.77,-22.57 226.77,-28.32"/>
</g>
<!-- Node32&#45;&gt;Node21 -->
<g id="edge52" class="edge">
<title>Node32&#45;&gt;Node21</title>
<path fill="none" stroke="midnightblue" d="M849.75,-677.41C915.24,-665.6 1023.24,-638.22 1096,-579 1173.84,-515.65 1168.12,-476.08 1218,-389 1234.6,-360.02 1242.79,-354.1 1252,-322 1276.4,-236.99 1262.88,-210.64 1251,-123 1246.95,-93.1 1255.21,-82.06 1240,-56 1232.61,-43.34 1220.19,-32.81 1208.93,-25.13"/>
<polygon fill="midnightblue" stroke="midnightblue" points="1210.57,-22.03 1200.26,-19.6 1206.81,-27.93 1210.57,-22.03"/>
</g>
<!-- Node32&#45;&gt;Node22 -->
<g id="edge51" class="edge">
<title>Node32&#45;&gt;Node22</title>
<path fill="none" stroke="midnightblue" d="M812.91,-671.4C825.99,-662.13 843.08,-650.03 856.32,-640.65"/>
<polygon fill="midnightblue" stroke="midnightblue" points="858.64,-643.29 864.78,-634.66 854.59,-637.58 858.64,-643.29"/>
</g>
<!-- Node34 -->
<g id="node34" class="node">
<title>Node34</title>
<g id="a_node34"><a xlink:title=" ">
<polygon fill="white" stroke="#bfbfbf" points="906,-906.5 906,-925.5 1042,-925.5 1042,-906.5 906,-906.5"/>
<text text-anchor="middle" x="974" y="-913.5" font-family="Helvetica,sans-Serif" font-size="10.00">odp/api/abi/pool_types.h</text>
</a>
</g>
</g>
<!-- Node33&#45;&gt;Node34 -->
<g id="edge54" class="edge">
<title>Node33&#45;&gt;Node34</title>
<path fill="none" stroke="midnightblue" d="M974,-962.08C974,-955.01 974,-944.86 974,-935.99"/>
<polygon fill="midnightblue" stroke="midnightblue" points="977.5,-935.75 974,-925.75 970.5,-935.75 977.5,-935.75"/>
</g>
<!-- Node35 -->
<g id="node35" class="node">
<title>Node35</title>
<g id="a_node35"><a xlink:href="spec_2pool__types_8h.html" target="_top" xlink:title=" ">
<polygon fill="white" stroke="black" points="1060.5,-906.5 1060.5,-925.5 1203.5,-925.5 1203.5,-906.5 1060.5,-906.5"/>
<text text-anchor="middle" x="1132" y="-913.5" font-family="Helvetica,sans-Serif" font-size="10.00">odp/api/spec/pool_types.h</text>
</a>
</g>
</g>
<!-- Node33&#45;&gt;Node35 -->
<g id="edge55" class="edge">
<title>Node33&#45;&gt;Node35</title>
<path fill="none" stroke="midnightblue" d="M999.04,-962.44C1025.62,-953.36 1067.81,-938.94 1097.52,-928.78"/>
<polygon fill="midnightblue" stroke="midnightblue" points="1098.75,-932.06 1107.08,-925.52 1096.49,-925.44 1098.75,-932.06"/>
</g>
<!-- Node35&#45;&gt;Node4 -->
<g id="edge56" class="edge">
<title>Node35&#45;&gt;Node4</title>
<path fill="none" stroke="midnightblue" d="M1075.59,-906.46C923.62,-882.95 508.61,-815.18 383,-758 170.76,-661.38 114,-540.7 114,-307.5 114,-307.5 114,-307.5 114,-132 114,-77.75 175.28,-41.4 214.65,-23.64"/>
<polygon fill="midnightblue" stroke="midnightblue" points="216.35,-26.72 224.14,-19.53 213.57,-20.3 216.35,-26.72"/>
</g>
<!-- Node35&#45;&gt;Node14 -->
<g id="edge57" class="edge">
<title>Node35&#45;&gt;Node14</title>
<path fill="none" stroke="midnightblue" d="M1129.71,-906.23C1125.07,-887.69 1115,-843.07 1115,-805 1115,-805 1115,-805 1115,-562.5 1115,-441.24 1172.13,-378.33 1088,-291 1052.98,-254.66 911.66,-247 826.36,-245.77"/>
<polygon fill="midnightblue" stroke="midnightblue" points="826.28,-242.27 816.24,-245.65 826.2,-249.27 826.28,-242.27"/>
</g>
<!-- Node35&#45;&gt;Node21 -->
<g id="edge71" class="edge">
<title>Node35&#45;&gt;Node21</title>
<path fill="none" stroke="midnightblue" d="M1203.54,-910.4C1320.55,-900.89 1540,-873.87 1540,-805 1540,-805 1540,-805 1540,-132 1540,-95 1535.58,-78.23 1506,-56 1466.8,-26.54 1332.48,-16.34 1250.21,-12.83"/>
<polygon fill="midnightblue" stroke="midnightblue" points="1250.34,-9.33 1240.2,-12.42 1250.05,-16.32 1250.34,-9.33"/>
</g>
<!-- Node36 -->
<g id="node36" class="node">
<title>Node36</title>
<g id="a_node36"><a xlink:href="dma__types_8h.html" target="_top" xlink:title=" ">
<polygon fill="white" stroke="black" points="1152.5,-850.5 1152.5,-869.5 1271.5,-869.5 1271.5,-850.5 1152.5,-850.5"/>
<text text-anchor="middle" x="1212" y="-857.5" font-family="Helvetica,sans-Serif" font-size="10.00">odp/api/dma_types.h</text>
</a>
</g>
</g>
<!-- Node35&#45;&gt;Node36 -->
<g id="edge58" class="edge">
<title>Node35&#45;&gt;Node36</title>
<path fill="none" stroke="midnightblue" d="M1144.85,-906.32C1157.22,-897.98 1176.13,-885.21 1190.74,-875.35"/>
<polygon fill="midnightblue" stroke="midnightblue" points="1192.85,-878.15 1199.18,-869.65 1188.93,-872.35 1192.85,-878.15"/>
</g>
<!-- Node37 -->
<g id="node37" class="node">
<title>Node37</title>
<g id="a_node37"><a xlink:title=" ">
<polygon fill="white" stroke="#bfbfbf" points="1143.5,-794.5 1143.5,-813.5 1280.5,-813.5 1280.5,-794.5 1143.5,-794.5"/>
<text text-anchor="middle" x="1212" y="-801.5" font-family="Helvetica,sans-Serif" font-size="10.00">odp/api/abi/dma_types.h</text>
</a>
</g>
</g>
<!-- Node36&#45;&gt;Node37 -->
<g id="edge59" class="edge">
<title>Node36&#45;&gt;Node37</title>
<path fill="none" stroke="midnightblue" d="M1212,-850.08C1212,-843.01 1212,-832.86 1212,-823.99"/>
<polygon fill="midnightblue" stroke="midnightblue" points="1215.5,-823.75 1212,-813.75 1208.5,-823.75 1215.5,-823.75"/>
</g>
<!-- Node38 -->
<g id="node38" class="node">
<title>Node38</title>
<g id="a_node38"><a xlink:href="spec_2dma__types_8h.html" target="_top" xlink:title=" ">
<polygon fill="white" stroke="black" points="1299,-794.5 1299,-813.5 1443,-813.5 1443,-794.5 1299,-794.5"/>
<text text-anchor="middle" x="1371" y="-801.5" font-family="Helvetica,sans-Serif" font-size="10.00">odp/api/spec/dma_types.h</text>
</a>
</g>
</g>
<!-- Node36&#45;&gt;Node38 -->
<g id="edge60" class="edge">
<title>Node36&#45;&gt;Node38</title>
<path fill="none" stroke="midnightblue" d="M1237.19,-850.44C1263.94,-841.36 1306.4,-826.94 1336.31,-816.78"/>
<polygon fill="midnightblue" stroke="midnightblue" points="1337.58,-820.05 1345.92,-813.52 1335.33,-813.42 1337.58,-820.05"/>
</g>
<!-- Node38&#45;&gt;Node4 -->
<g id="edge61" class="edge">
<title>Node38&#45;&gt;Node4</title>
<path fill="none" stroke="midnightblue" d="M1361.41,-794.48C1342.45,-776.66 1302,-733.28 1302,-687.5 1302,-687.5 1302,-687.5 1302,-501 1302,-360.2 982.26,-106.95 851,-56 755.61,-18.97 456.14,-12.24 318.05,-11.13"/>
<polygon fill="midnightblue" stroke="midnightblue" points="318.01,-7.63 307.99,-11.06 317.96,-14.63 318.01,-7.63"/>
</g>
<!-- Node38&#45;&gt;Node8 -->
<g id="edge67" class="edge">
<title>Node38&#45;&gt;Node8</title>
<path fill="none" stroke="midnightblue" d="M1298.6,-794.73C1295.7,-794.47 1292.82,-794.22 1290,-794 956.63,-767.6 869.22,-786.04 531.61,-757.98"/>
<polygon fill="midnightblue" stroke="midnightblue" points="531.8,-754.48 521.54,-757.13 531.22,-761.46 531.8,-754.48"/>
</g>
<!-- Node38&#45;&gt;Node14 -->
<g id="edge69" class="edge">
<title>Node38&#45;&gt;Node14</title>
<path fill="none" stroke="midnightblue" d="M1325.58,-794.48C1272.25,-781.55 1191,-751.36 1191,-687.5 1191,-687.5 1191,-687.5 1191,-562.5 1191,-437.89 1214.58,-373.28 1121,-291 1078.48,-253.62 918.47,-246.52 826.38,-245.63"/>
<polygon fill="midnightblue" stroke="midnightblue" points="826.34,-242.13 816.32,-245.55 826.29,-249.13 826.34,-242.13"/>
</g>
<!-- Node38&#45;&gt;Node21 -->
<g id="edge70" class="edge">
<title>Node38&#45;&gt;Node21</title>
<path fill="none" stroke="midnightblue" d="M1395.03,-794.47C1432.85,-779.31 1502,-743.9 1502,-687.5 1502,-687.5 1502,-687.5 1502,-132 1502,-97.18 1508.77,-79.42 1483,-56 1449.82,-25.85 1327.78,-15.9 1250.25,-12.62"/>
<polygon fill="midnightblue" stroke="midnightblue" points="1250.21,-9.11 1240.08,-12.21 1249.94,-16.11 1250.21,-9.11"/>
</g>
<!-- Node38&#45;&gt;Node22 -->
<g id="edge68" class="edge">
<title>Node38&#45;&gt;Node22</title>
<path fill="none" stroke="midnightblue" d="M1322.88,-794.43C1283.19,-786.76 1225.72,-774.21 1177,-758 1072,-723.06 953.41,-665.03 902.47,-639.16"/>
<polygon fill="midnightblue" stroke="midnightblue" points="903.98,-636 893.48,-634.57 900.8,-642.23 903.98,-636"/>
</g>
<!-- Node39 -->
<g id="node39" class="node">
<title>Node39</title>
<g id="a_node39"><a xlink:href="event__types_8h.html" target="_top" xlink:title=" ">
<polygon fill="white" stroke="black" points="1330.5,-123.5 1330.5,-142.5 1455.5,-142.5 1455.5,-123.5 1330.5,-123.5"/>
<text text-anchor="middle" x="1393" y="-130.5" font-family="Helvetica,sans-Serif" font-size="10.00">odp/api/event_types.h</text>
</a>
</g>
</g>
<!-- Node38&#45;&gt;Node39 -->
<g id="edge62" class="edge">
<title>Node38&#45;&gt;Node39</title>
<path fill="none" stroke="midnightblue" d="M1372.14,-794.32C1374.56,-775.12 1380,-727.52 1380,-687.5 1380,-687.5 1380,-687.5 1380,-244 1380,-211.58 1385.64,-174.15 1389.49,-152.37"/>
<polygon fill="midnightblue" stroke="midnightblue" points="1392.93,-152.99 1391.3,-142.52 1386.05,-151.72 1392.93,-152.99"/>
</g>
<!-- Node40 -->
<g id="node40" class="node">
<title>Node40</title>
<g id="a_node40"><a xlink:title=" ">
<polygon fill="white" stroke="#bfbfbf" points="1330.5,-62 1330.5,-81 1473.5,-81 1473.5,-62 1330.5,-62"/>
<text text-anchor="middle" x="1402" y="-69" font-family="Helvetica,sans-Serif" font-size="10.00">odp/api/abi/event_types.h</text>
</a>
</g>
</g>
<!-- Node39&#45;&gt;Node40 -->
<g id="edge63" class="edge">
<title>Node39&#45;&gt;Node40</title>
<path fill="none" stroke="midnightblue" d="M1394.29,-123.48C1395.56,-115.08 1397.54,-101.98 1399.18,-91.16"/>
<polygon fill="midnightblue" stroke="midnightblue" points="1402.68,-91.42 1400.71,-81.01 1395.76,-90.37 1402.68,-91.42"/>
</g>
<!-- Node41 -->
<g id="node41" class="node">
<title>Node41</title>
<g id="a_node41"><a xlink:href="spec_2event__types_8h.html" target="_top" xlink:title=" ">
<polygon fill="white" stroke="black" points="1088.5,-56.5 1088.5,-86.5 1197.5,-86.5 1197.5,-56.5 1088.5,-56.5"/>
<text text-anchor="start" x="1096.5" y="-74.5" font-family="Helvetica,sans-Serif" font-size="10.00">odp/api/spec/event</text>
<text text-anchor="middle" x="1143" y="-63.5" font-family="Helvetica,sans-Serif" font-size="10.00">_types.h</text>
</a>
</g>
</g>
<!-- Node39&#45;&gt;Node41 -->
<g id="edge64" class="edge">
<title>Node39&#45;&gt;Node41</title>
<path fill="none" stroke="midnightblue" d="M1357.18,-123.48C1318.23,-114.21 1255.18,-99.2 1207.55,-87.86"/>
<polygon fill="midnightblue" stroke="midnightblue" points="1208.17,-84.41 1197.63,-85.5 1206.55,-91.22 1208.17,-84.41"/>
</g>
<!-- Node41&#45;&gt;Node4 -->
<g id="edge65" class="edge">
<title>Node41&#45;&gt;Node4</title>
<path fill="none" stroke="midnightblue" d="M1088.3,-66.87C933.23,-56.57 490.83,-27.19 317.69,-15.69"/>
<polygon fill="midnightblue" stroke="midnightblue" points="317.88,-12.2 307.67,-15.03 317.42,-19.18 317.88,-12.2"/>
</g>
<!-- Node41&#45;&gt;Node21 -->
<g id="edge66" class="edge">
<title>Node41&#45;&gt;Node21</title>
<path fill="none" stroke="midnightblue" d="M1152.72,-56.4C1158.55,-47.93 1166.02,-37.1 1172.19,-28.14"/>
<polygon fill="midnightblue" stroke="midnightblue" points="1175.24,-29.88 1178.03,-19.66 1169.48,-25.91 1175.24,-29.88"/>
</g>
<!-- Node43 -->
<g id="node43" class="node">
<title>Node43</title>
<g id="a_node43"><a xlink:href="spec_2reassembly_8h.html" target="_top" xlink:title=" ">
<polygon fill="white" stroke="black" points="256,-297 256,-316 402,-316 402,-297 256,-297"/>
<text text-anchor="middle" x="329" y="-304" font-family="Helvetica,sans-Serif" font-size="10.00">odp/api/spec/reassembly.h</text>
</a>
</g>
</g>
<!-- Node42&#45;&gt;Node43 -->
<g id="edge74" class="edge">
<title>Node42&#45;&gt;Node43</title>
<path fill="none" stroke="midnightblue" d="M366.35,-962.28C331.48,-929.77 214,-811.08 214,-687.5 214,-687.5 214,-687.5 214,-624 214,-503.38 288.7,-371.6 317.69,-325"/>
<polygon fill="midnightblue" stroke="midnightblue" points="320.75,-326.71 323.14,-316.39 314.84,-322.97 320.75,-326.71"/>
</g>
<!-- Node43&#45;&gt;Node4 -->
<g id="edge75" class="edge">
<title>Node43&#45;&gt;Node4</title>
<path fill="none" stroke="midnightblue" d="M320.24,-296.82C302.93,-278.69 266,-234.77 266,-190 266,-190 266,-190 266,-132 266,-95.29 257.36,-53.06 251.73,-29.45"/>
<polygon fill="midnightblue" stroke="midnightblue" points="255.13,-28.6 249.33,-19.73 248.33,-30.28 255.13,-28.6"/>
</g>
<!-- Node43&#45;&gt;Node14 -->
<g id="edge76" class="edge">
<title>Node43&#45;&gt;Node14</title>
<path fill="none" stroke="midnightblue" d="M378.18,-296.99C390.52,-294.95 403.73,-292.82 416,-291 512.33,-276.68 624.22,-262.49 693.57,-253.99"/>
<polygon fill="midnightblue" stroke="midnightblue" points="694.41,-257.41 703.91,-252.72 693.56,-250.46 694.41,-257.41"/>
</g>
<!-- Node43&#45;&gt;Node21 -->
<g id="edge77" class="edge">
<title>Node43&#45;&gt;Node21</title>
<path fill="none" stroke="midnightblue" d="M369.74,-296.97C434.1,-283.54 563.27,-256.75 673,-235 756.45,-218.46 787.46,-241.78 861,-199 933.21,-156.99 911.45,-99.12 983,-56 1023.74,-31.45 1076.42,-20.26 1117.63,-15.18"/>
<polygon fill="midnightblue" stroke="midnightblue" points="1118.03,-18.65 1127.57,-14.04 1117.24,-11.7 1118.03,-18.65"/>
</g>
</g>
</svg>
